g  Instance
v 0.7234942 -56.00939 -7.947753
v 0.5824903 -55.99101 -7.985518
v 0.7393671 -55.84181 -8.063954
v 0.1609745 -54.6937 -8.828551
v 0.66905 -54.21262 -9.014119
v 0.7426327 -54.81541 -8.700579
v -0.2540877 -53.31228 -9.432085
v 0.2846926 -52.82915 -9.561484
v 0.5097122 -53.5185 -9.315522
v 0.6677672 -56.23112 -7.766248
v 0.5824903 -55.99101 -7.985518
v 0.7234942 -56.00939 -7.947753
v 0.6536754 -56.27368 -7.728697
v 0.3221919 -56.32818 -7.694695
v 0.6677672 -56.23112 -7.766248
v 0.6677672 -56.23112 -7.766248
v 0.3221919 -56.32818 -7.694695
v 0.5824903 -55.99101 -7.985518
v 0.5824903 -55.99101 -7.985518
v 0.3221919 -56.32818 -7.694695
v 0.203109 -56.29538 -7.729475
v 0.203109 -56.29538 -7.729475
v 0.3221919 -56.32818 -7.694695
v 0.26194 -56.31646 -7.707914
v 0.5824903 -55.99101 -7.985518
v 0.1609745 -54.6937 -8.828551
v 0.7393671 -55.84181 -8.063954
v 0.7393671 -55.84181 -8.063954
v 0.1609745 -54.6937 -8.828551
v 0.7426327 -54.81541 -8.700579
v 0.1609745 -54.6937 -8.828551
v 0.5824903 -55.99101 -7.985518
v -0.8233384 -55.52106 -8.279685
v -0.8233384 -55.52106 -8.279685
v 0.5824903 -55.99101 -7.985518
v -0.632013 -55.71798 -8.152861
v -0.2565325 -56.08122 -7.880499
v -0.632013 -55.71798 -8.152861
v 0.203109 -56.29538 -7.729475
v 0.203109 -56.29538 -7.729475
v -0.632013 -55.71798 -8.152861
v 0.5824903 -55.99101 -7.985518
v 0.5097122 -53.5185 -9.315522
v 0.66905 -54.21262 -9.014119
v -0.2540877 -53.31228 -9.432085
v -0.2540877 -53.31228 -9.432085
v 0.66905 -54.21262 -9.014119
v 0.1609745 -54.6937 -8.828551
v 0.1609745 -54.6937 -8.828551
v -1.381987 -54.2532 -8.944292
v -0.2540877 -53.31228 -9.432085
v 0.1609745 -54.6937 -8.828551
v -0.8233384 -55.52106 -8.279685
v -1.381987 -54.2532 -8.944292
v -1.381987 -54.2532 -8.944292
v -0.8233384 -55.52106 -8.279685
v -1.09669 -55.21017 -8.431011
v -1.381987 -54.2532 -8.944292
v -1.09669 -55.21017 -8.431011
v -1.557744 -54.38757 -8.830574
v -1.557744 -54.38757 -8.830574
v -1.09669 -55.21017 -8.431011
v -1.472433 -54.76618 -8.622185
v 0.2138367 -52.67072 -9.602715
v 0.2846926 -52.82915 -9.561484
v -0.4716563 -52.53599 -9.634729
v -0.4716563 -52.53599 -9.634729
v 0.2846926 -52.82915 -9.561484
v -0.2540877 -53.31228 -9.432085
v -1.741398 -52.82903 -9.432082
v -1.213849 -52.41175 -9.601152
v -0.2540877 -53.31228 -9.432085
v -0.2540877 -53.31228 -9.432085
v -1.213849 -52.41175 -9.601152
v -0.4716563 -52.53599 -9.634729
v -0.2540877 -53.31228 -9.432085
v -1.381987 -54.2532 -8.944292
v -1.741398 -52.82903 -9.432082
v -1.817493 -52.88694 -9.392069
v -1.741398 -52.82903 -9.432082
v -1.599795 -54.17364 -8.927565
v -1.599795 -54.17364 -8.927565
v -1.741398 -52.82903 -9.432082
v -1.381987 -54.2532 -8.944292
v -1.557744 -54.38757 -8.830574
v -1.599795 -54.17364 -8.927565
v -1.381987 -54.2532 -8.944292
v -1.803833 -52.53818 -9.485272
v -1.260498 -52.40504 -9.595586
v -1.741398 -52.82903 -9.432082
v -1.741398 -52.82903 -9.432082
v -1.260498 -52.40504 -9.595586
v -1.213849 -52.41175 -9.601152
v -1.830896 -52.79486 -9.417969
v -1.860936 -52.55086 -9.468128
v -1.741398 -52.82903 -9.432082
v -1.741398 -52.82903 -9.432082
v -1.860936 -52.55086 -9.468128
v -1.803833 -52.53818 -9.485272
v -1.817493 -52.88694 -9.392069
v -1.830896 -52.79486 -9.417969
v -1.741398 -52.82903 -9.432082
v 0.3917559 -56.16082 -7.589066
v 0.3177298 -56.30347 -7.675839
v 0.6536754 -56.27368 -7.728697
v 0.6536754 -56.27368 -7.728697
v 0.3177298 -56.30347 -7.675839
v 0.3221919 -56.32818 -7.694695
v 0.3177298 -56.30347 -7.675839
v 0.26194 -56.31646 -7.707914
v 0.3221919 -56.32818 -7.694695
v -1.300635 -52.80544 -8.308952
v 0.2138367 -52.67072 -9.602715
v -1.578646 -52.68074 -8.543031
v -1.578646 -52.68074 -8.543031
v 0.2138367 -52.67072 -9.602715
v -1.774236 -52.45136 -9.15476
v -1.774236 -52.45136 -9.15476
v 0.2138367 -52.67072 -9.602715
v -1.260498 -52.40504 -9.595586
v -1.260498 -52.40504 -9.595586
v 0.2138367 -52.67072 -9.602715
v -1.213849 -52.41175 -9.601152
v -1.213849 -52.41175 -9.601152
v 0.2138367 -52.67072 -9.602715
v -0.4716563 -52.53599 -9.634729
v -1.774236 -52.45136 -9.15476
v -1.260498 -52.40504 -9.595586
v -1.860936 -52.55086 -9.468128
v -1.860936 -52.55086 -9.468128
v -1.260498 -52.40504 -9.595586
v -1.803833 -52.53818 -9.485272
v -0.2565325 -56.08122 -7.880499
v 0.203109 -56.29538 -7.729475
v -1.23781 -54.277 -7.72803
v -1.23781 -54.277 -7.72803
v 0.203109 -56.29538 -7.729475
v -1.224495 -54.00837 -7.626762
v -1.224495 -54.00837 -7.626762
v 0.203109 -56.29538 -7.729475
v 0.3917559 -56.16082 -7.589066
v 0.3917559 -56.16082 -7.589066
v 0.203109 -56.29538 -7.729475
v 0.3177298 -56.30347 -7.675839
v 0.3177298 -56.30347 -7.675839
v 0.203109 -56.29538 -7.729475
v 0.26194 -56.31646 -7.707914
v -1.578646 -52.68074 -8.543031
v -1.312278 -53.5657 -7.830049
v -1.300635 -52.80544 -8.308952
v -1.09669 -55.21017 -8.431011
v -0.8233384 -55.52106 -8.279685
v -1.472433 -54.76618 -8.622185
v -1.472433 -54.76618 -8.622185
v -0.8233384 -55.52106 -8.279685
v -1.23781 -54.277 -7.72803
v -1.23781 -54.277 -7.72803
v -0.8233384 -55.52106 -8.279685
v -0.2565325 -56.08122 -7.880499
v -0.2565325 -56.08122 -7.880499
v -0.8233384 -55.52106 -8.279685
v -0.632013 -55.71798 -8.152861
v -1.774236 -52.45136 -9.15476
v -1.860936 -52.55086 -9.468128
v -1.578646 -52.68074 -8.543031
v -1.578646 -52.68074 -8.543031
v -1.860936 -52.55086 -9.468128
v -1.312278 -53.5657 -7.830049
v -1.312278 -53.5657 -7.830049
v -1.860936 -52.55086 -9.468128
v -1.224495 -54.00837 -7.626762
v -1.224495 -54.00837 -7.626762
v -1.860936 -52.55086 -9.468128
v -1.23781 -54.277 -7.72803
v -1.23781 -54.277 -7.72803
v -1.860936 -52.55086 -9.468128
v -1.472433 -54.76618 -8.622185
v -1.472433 -54.76618 -8.622185
v -1.860936 -52.55086 -9.468128
v -1.557744 -54.38757 -8.830574
v -1.557744 -54.38757 -8.830574
v -1.860936 -52.55086 -9.468128
v -1.599795 -54.17364 -8.927565
v -1.599795 -54.17364 -8.927565
v -1.860936 -52.55086 -9.468128
v -1.817493 -52.88694 -9.392069
v -1.817493 -52.88694 -9.392069
v -1.860936 -52.55086 -9.468128
v -1.830896 -52.79486 -9.417969
v 0.7234942 -56.00939 -7.947753
v 0.7393671 -55.84181 -8.063954
v 0.6677672 -56.23112 -7.766248
v 0.6677672 -56.23112 -7.766248
v 0.7393671 -55.84181 -8.063954
v 0.6536754 -56.27368 -7.728697
v 0.6536754 -56.27368 -7.728697
v 0.7393671 -55.84181 -8.063954
v 0.3917559 -56.16082 -7.589066
v 0.3917559 -56.16082 -7.589066
v 0.7393671 -55.84181 -8.063954
v -1.224495 -54.00837 -7.626762
v -1.224495 -54.00837 -7.626762
v 0.7393671 -55.84181 -8.063954
v -1.312278 -53.5657 -7.830049
v -1.312278 -53.5657 -7.830049
v 0.7393671 -55.84181 -8.063954
v -1.300635 -52.80544 -8.308952
v -1.300635 -52.80544 -8.308952
v 0.7393671 -55.84181 -8.063954
v 0.2138367 -52.67072 -9.602715
v 0.2138367 -52.67072 -9.602715
v 0.7393671 -55.84181 -8.063954
v 0.2846926 -52.82915 -9.561484
v 0.2846926 -52.82915 -9.561484
v 0.7393671 -55.84181 -8.063954
v 0.5097122 -53.5185 -9.315522
v 0.5097122 -53.5185 -9.315522
v 0.7393671 -55.84181 -8.063954
v 0.66905 -54.21262 -9.014119
v 0.66905 -54.21262 -9.014119
v 0.7393671 -55.84181 -8.063954
v 0.7426327 -54.81541 -8.700579

vn 0.1414817 -0.5731146 -0.8071695
vn 0.1414817 -0.5731146 -0.8071695
vn 0.1414817 -0.5731146 -0.8071695
vn 0.1012628 -0.4493295 -0.8876085
vn 0.1012628 -0.4493295 -0.8876085
vn 0.1012628 -0.4493295 -0.8876085
vn 0.05838966 -0.3185172 -0.946117
vn 0.05838966 -0.3185172 -0.946117
vn 0.05838966 -0.3185172 -0.946117
vn 0.1176007 -0.6465584 -0.7537455
vn 0.1176007 -0.6465584 -0.7537455
vn 0.1176007 -0.6465584 -0.7537455
vn 0.03343434 -0.6674577 -0.7438967
vn 0.03343434 -0.6674577 -0.7438967
vn 0.03343434 -0.6674577 -0.7438967
vn 0.03343434 -0.6674577 -0.7438967
vn 0.03343434 -0.6674577 -0.7438967
vn 0.03343434 -0.6674577 -0.7438967
vn 0.03343434 -0.6674577 -0.7438967
vn 0.03343434 -0.6674577 -0.7438967
vn 0.03343434 -0.6674577 -0.7438967
vn 0.03343434 -0.6674577 -0.7438967
vn 0.03343434 -0.6674577 -0.7438967
vn 0.03343434 -0.6674577 -0.7438967
vn 0.07638978 -0.5257269 -0.8472165
vn 0.07638978 -0.5257269 -0.8472165
vn 0.07638978 -0.5257269 -0.8472165
vn 0.07638978 -0.5257269 -0.8472165
vn 0.07638978 -0.5257269 -0.8472165
vn 0.07638978 -0.5257269 -0.8472165
vn -0.007499163 -0.5465854 -0.8373698
vn -0.007499163 -0.5465854 -0.8373698
vn -0.007499163 -0.5465854 -0.8373698
vn -0.007499163 -0.5465854 -0.8373698
vn -0.007499163 -0.5465854 -0.8373698
vn -0.007499163 -0.5465854 -0.8373698
vn -0.03142647 -0.6201941 -0.7838186
vn -0.03142647 -0.6201941 -0.7838186
vn -0.03142647 -0.6201941 -0.7838186
vn -0.03142647 -0.6201941 -0.7838186
vn -0.03142647 -0.6201941 -0.7838186
vn -0.03142647 -0.6201941 -0.7838186
vn 0.03467878 -0.3913453 -0.9195902
vn 0.03467878 -0.3913453 -0.9195902
vn 0.03467878 -0.3913453 -0.9195902
vn 0.03467878 -0.3913453 -0.9195902
vn 0.03467878 -0.3913453 -0.9195902
vn 0.03467878 -0.3913453 -0.9195902
vn -0.0494681 -0.4123071 -0.9097009
vn -0.0494681 -0.4123071 -0.9097009
vn -0.0494681 -0.4123071 -0.9097009
vn -0.07422962 -0.4884596 -0.8694234
vn -0.07422962 -0.4884596 -0.8694234
vn -0.07422962 -0.4884596 -0.8694234
vn -0.07422962 -0.4884596 -0.8694234
vn -0.07422962 -0.4884596 -0.8694234
vn -0.07422962 -0.4884596 -0.8694234
vn -0.1636814 -0.5037457 -0.8482032
vn -0.1636814 -0.5037457 -0.8482032
vn -0.1636814 -0.5037457 -0.8482032
vn -0.1636814 -0.5037457 -0.8482032
vn -0.1636814 -0.5037457 -0.8482032
vn -0.1636814 -0.5037457 -0.8482032
vn -0.004707547 -0.2538106 -0.9672425
vn -0.004707547 -0.2538106 -0.9672425
vn -0.004707547 -0.2538106 -0.9672425
vn -0.004707547 -0.2538106 -0.9672425
vn -0.004707547 -0.2538106 -0.9672425
vn -0.004707547 -0.2538106 -0.9672425
vn -0.08933368 -0.2749341 -0.9573039
vn -0.08933368 -0.2749341 -0.9573039
vn -0.08933368 -0.2749341 -0.9573039
vn -0.08933368 -0.2749341 -0.9573039
vn -0.08933368 -0.2749341 -0.9573039
vn -0.08933368 -0.2749341 -0.9573039
vn -0.1128558 -0.347328 -0.9309279
vn -0.1128558 -0.347328 -0.9309279
vn -0.1128558 -0.347328 -0.9309279
vn -0.2023347 -0.3626387 -0.9096999
vn -0.2023347 -0.3626387 -0.9096999
vn -0.2023347 -0.3626387 -0.9096999
vn -0.2023347 -0.3626387 -0.9096999
vn -0.2023347 -0.3626387 -0.9096999
vn -0.2023347 -0.3626387 -0.9096999
vn -0.2270631 -0.4388008 -0.869423
vn -0.2270631 -0.4388008 -0.869423
vn -0.2270631 -0.4388008 -0.869423
vn -0.145381 -0.2081019 -0.9672424
vn -0.145381 -0.2081019 -0.9672424
vn -0.145381 -0.2081019 -0.9672424
vn -0.145381 -0.2081019 -0.9672424
vn -0.145381 -0.2081019 -0.9672424
vn -0.145381 -0.2081019 -0.9672424
vn -0.2344612 -0.2233609 -0.9461172
vn -0.2344612 -0.2233609 -0.9461172
vn -0.2344612 -0.2233609 -0.9461172
vn -0.2344612 -0.2233609 -0.9461172
vn -0.2344612 -0.2233609 -0.9461172
vn -0.2344612 -0.2233609 -0.9461172
vn -0.258088 -0.2962201 -0.9195892
vn -0.258088 -0.2962201 -0.9195892
vn -0.258088 -0.2962201 -0.9195892
vn 0.1766436 -0.5768138 0.797548
vn 0.1766436 -0.5768138 0.797548
vn 0.1766436 -0.5768138 0.797548
vn 0.1766436 -0.5768138 0.797548
vn 0.1766436 -0.5768138 0.797548
vn 0.1766436 -0.5768138 0.797548
vn -0.2811784 -0.6138088 0.7376839
vn -0.2811784 -0.6138088 0.7376839
vn -0.2811784 -0.6138088 0.7376839
vn 0.1707014 0.9392934 0.297639
vn 0.1707014 0.9392934 0.297639
vn 0.1707014 0.9392934 0.297639
vn 0.1707014 0.9392934 0.297639
vn 0.1707014 0.9392934 0.297639
vn 0.1707014 0.9392934 0.297639
vn 0.1707014 0.9392934 0.297639
vn 0.1707014 0.9392934 0.297639
vn 0.1707014 0.9392934 0.297639
vn 0.1707014 0.9392934 0.297639
vn 0.1707014 0.9392934 0.297639
vn 0.1707014 0.9392934 0.297639
vn 0.1707014 0.9392934 0.297639
vn 0.1707014 0.9392934 0.297639
vn 0.1707014 0.9392934 0.297639
vn -0.2742559 0.9358525 -0.221278
vn -0.2742559 0.9358525 -0.221278
vn -0.2742559 0.9358525 -0.221278
vn -0.2742559 0.9358525 -0.221278
vn -0.2742559 0.9358525 -0.221278
vn -0.2742559 0.9358525 -0.221278
vn -0.4214899 -0.3015103 0.8552415
vn -0.4214899 -0.3015103 0.8552415
vn -0.4214899 -0.3015103 0.8552415
vn -0.4214899 -0.3015103 0.8552415
vn -0.4214899 -0.3015103 0.8552415
vn -0.4214899 -0.3015103 0.8552415
vn -0.4214899 -0.3015103 0.8552415
vn -0.4214899 -0.3015103 0.8552415
vn -0.4214899 -0.3015103 0.8552415
vn -0.4214899 -0.3015103 0.8552415
vn -0.4214899 -0.3015103 0.8552415
vn -0.4214899 -0.3015103 0.8552415
vn -0.4214899 -0.3015103 0.8552415
vn -0.4214899 -0.3015103 0.8552415
vn -0.4214899 -0.3015103 0.8552415
vn -0.4241085 0.4873247 0.763313
vn -0.4241085 0.4873247 0.763313
vn -0.4241085 0.4873247 0.763313
vn -0.767653 -0.455616 0.4506918
vn -0.767653 -0.455616 0.4506918
vn -0.767653 -0.455616 0.4506918
vn -0.767653 -0.455616 0.4506918
vn -0.767653 -0.455616 0.4506918
vn -0.767653 -0.455616 0.4506918
vn -0.767653 -0.455616 0.4506918
vn -0.767653 -0.455616 0.4506918
vn -0.767653 -0.455616 0.4506918
vn -0.767653 -0.455616 0.4506918
vn -0.767653 -0.455616 0.4506918
vn -0.767653 -0.455616 0.4506918
vn -0.9570683 -0.0595071 0.2836885
vn -0.9570683 -0.0595071 0.2836885
vn -0.9570683 -0.0595071 0.2836885
vn -0.9570683 -0.0595071 0.2836885
vn -0.9570683 -0.0595071 0.2836885
vn -0.9570683 -0.0595071 0.2836885
vn -0.9570683 -0.0595071 0.2836885
vn -0.9570683 -0.0595071 0.2836885
vn -0.9570683 -0.0595071 0.2836885
vn -0.9570683 -0.0595071 0.2836885
vn -0.9570683 -0.0595071 0.2836885
vn -0.9570683 -0.0595071 0.2836885
vn -0.9570683 -0.0595071 0.2836885
vn -0.9570683 -0.0595071 0.2836885
vn -0.9570683 -0.0595071 0.2836885
vn -0.9570683 -0.0595071 0.2836885
vn -0.9570683 -0.0595071 0.2836885
vn -0.9570683 -0.0595071 0.2836885
vn -0.9570683 -0.0595071 0.2836885
vn -0.9570683 -0.0595071 0.2836885
vn -0.9570683 -0.0595071 0.2836885
vn -0.9570683 -0.0595071 0.2836885
vn -0.9570683 -0.0595071 0.2836885
vn -0.9570683 -0.0595071 0.2836885
vn -0.9570683 -0.0595071 0.2836885
vn -0.9570683 -0.0595071 0.2836885
vn -0.9570683 -0.0595071 0.2836885
vn 0.5623239 0.4345767 0.7035161
vn 0.5623239 0.4345767 0.7035161
vn 0.5623239 0.4345767 0.7035161
vn 0.5623239 0.4345767 0.7035161
vn 0.5623239 0.4345767 0.7035161
vn 0.5623239 0.4345767 0.7035161
vn 0.5623239 0.4345767 0.7035161
vn 0.5623239 0.4345767 0.7035161
vn 0.5623239 0.4345767 0.7035161
vn 0.5623239 0.4345767 0.7035161
vn 0.5623239 0.4345767 0.7035161
vn 0.5623239 0.4345767 0.7035161
vn 0.5623239 0.4345767 0.7035161
vn 0.5623239 0.4345767 0.7035161
vn 0.5623239 0.4345767 0.7035161
vn 0.5623239 0.4345767 0.7035161
vn 0.5623239 0.4345767 0.7035161
vn 0.5623239 0.4345767 0.7035161
vn 0.5623239 0.4345767 0.7035161
vn 0.5623239 0.4345767 0.7035161
vn 0.5623239 0.4345767 0.7035161
vn 0.5623239 0.4345767 0.7035161
vn 0.5623239 0.4345767 0.7035161
vn 0.5623239 0.4345767 0.7035161
vn 0.5623239 0.4345767 0.7035161
vn 0.5623239 0.4345767 0.7035161
vn 0.5623239 0.4345767 0.7035161
vn 0.5623239 0.4345767 0.7035161
vn 0.5623239 0.4345767 0.7035161
vn 0.5623239 0.4345767 0.7035161
vn 0.5623239 0.4345767 0.7035161
vn 0.5623239 0.4345767 0.7035161
vn 0.5623239 0.4345767 0.7035161

vt 0.8545217 0.09841313
vt 0.8522719 0.09841313
vt 0.8539826 0.09545003
vt 0.8409082 0.07873051
vt 0.846443 0.06914393
vt 0.8499405 0.07873051
vt 0.8295446 0.05904788
vt 0.8354879 0.04875368
vt 0.841449 0.05904788
vt 0.8547149 0.1026447
vt 0.8522719 0.09841313
vt 0.8545217 0.09841313
vt 0.8547298 0.1034762
vt 0.8502613 0.1054161
vt 0.8547149 0.1026447
vt 0.8547149 0.1026447
vt 0.8502613 0.1054161
vt 0.8522719 0.09841313
vt 0.8522719 0.09841313
vt 0.8502613 0.1054161
vt 0.8483893 0.105138
vt 0.8483893 0.105138
vt 0.8502613 0.1054161
vt 0.8493389 0.1053662
vt 0.8522719 0.09841313
vt 0.8409082 0.07873051
vt 0.8539826 0.09545003
vt 0.8539826 0.09545003
vt 0.8409082 0.07873051
vt 0.8499405 0.07873051
vt 0.8409082 0.07873051
vt 0.8522719 0.09841313
vt 0.830999 0.09589409
vt 0.830999 0.09589409
vt 0.8522719 0.09841313
vt 0.8344672 0.09841313
vt 0.8411734 0.1032253
vt 0.8344672 0.09841313
vt 0.8483893 0.105138
vt 0.8483893 0.105138
vt 0.8344672 0.09841313
vt 0.8522719 0.09841313
vt 0.841449 0.05904788
vt 0.846443 0.06914393
vt 0.8295446 0.05904788
vt 0.8295446 0.05904788
vt 0.846443 0.06914393
vt 0.8409082 0.07873051
vt 0.8409082 0.07873051
vt 0.818181 0.07873051
vt 0.8295446 0.05904788
vt 0.8409082 0.07873051
vt 0.830999 0.09589409
vt 0.818181 0.07873051
vt 0.818181 0.07873051
vt 0.830999 0.09589409
vt 0.8260084 0.09228823
vt 0.818181 0.07873051
vt 0.8260084 0.09228823
vt 0.8164468 0.08173423
vt 0.8164468 0.08173423
vt 0.8260084 0.09228823
vt 0.8191818 0.08723857
vt 0.8337709 0.04658748
vt 0.8354879 0.04875368
vt 0.8230512 0.04780074
vt 0.8230512 0.04780074
vt 0.8354879 0.04875368
vt 0.8295446 0.05904788
vt 0.8068174 0.05904788
vt 0.8122349 0.04966426
vt 0.8295446 0.05904788
vt 0.8295446 0.05904788
vt 0.8122349 0.04966426
vt 0.8230512 0.04780074
vt 0.8295446 0.05904788
vt 0.818181 0.07873051
vt 0.8068174 0.05904788
vt 0.806064 0.06035278
vt 0.8068174 0.05904788
vt 0.8148966 0.07873051
vt 0.8148966 0.07873051
vt 0.8068174 0.05904788
vt 0.818181 0.07873051
vt 0.8164468 0.08173423
vt 0.8148966 0.07873051
vt 0.818181 0.07873051
vt 0.8043743 0.05481635
vt 0.8115249 0.04980926
vt 0.8068174 0.05904788
vt 0.8068174 0.05904788
vt 0.8115249 0.04980926
vt 0.8122349 0.04966426
vt 0.8053759 0.05904788
vt 0.8036402 0.05536273
vt 0.8068174 0.05904788
vt 0.8068174 0.05904788
vt 0.8036402 0.05536273
vt 0.8043743 0.05481635
vt 0.806064 0.06035278
vt 0.8053759 0.05904788
vt 0.8068174 0.05904788
vt 0.4544466 0.6214343
vt 0.4727898 0.6448732
vt 0.4190164 0.6591522
vt 0.4190164 0.6591522
vt 0.4727898 0.6448732
vt 0.4732727 0.6499641
vt 0.2728048 0.5317479
vt 0.2794052 0.5386671
vt 0.2707141 0.5358169
vt 0.3715808 0.4710319
vt 0.5225458 0.6105775
vt 0.3411197 0.4962802
vt 0.3411197 0.4962802
vt 0.5225458 0.6105775
vt 0.3170808 0.5622653
vt 0.3170808 0.5622653
vt 0.5225458 0.6105775
vt 0.3682806 0.609818
vt 0.3682806 0.609818
vt 0.5225458 0.6105775
vt 0.3731325 0.6104181
vt 0.3731325 0.6104181
vt 0.5225458 0.6105775
vt 0.4506167 0.614037
vt 0.4098659 0.4657722
vt 0.4608829 0.5113373
vt 0.3986574 0.4981647
vt 0.3986574 0.4981647
vt 0.4608829 0.5113373
vt 0.4045406 0.4999367
vt 0.1989115 0.5371013
vt 0.115141 0.4818138
vt 0.5855963 0.4812887
vt 0.5855963 0.4812887
vt 0.115141 0.4818138
vt 0.6255736 0.4442179
vt 0.6255736 0.4442179
vt 0.115141 0.4818138
vt 0.1150801 0.4304124
vt 0.1150801 0.4304124
vt 0.115141 0.4818138
vt 0.1012418 0.4621767
vt 0.1012418 0.4621767
vt 0.115141 0.4818138
vt 0.1053952 0.4739196
vt 0.5170705 0.6853568
vt 0.4592468 0.5174033
vt 0.5365248 0.6302192
vt 0.4427084 0.4953614
vt 0.3979073 0.4766947
vt 0.5058761 0.5189503
vt 0.5058761 0.5189503
vt 0.3979073 0.4766947
vt 0.5390186 0.4086377
vt 0.5390186 0.4086377
vt 0.3979073 0.4766947
vt 0.3130025 0.4274497
vt 0.3130025 0.4274497
vt 0.3979073 0.4766947
vt 0.3685057 0.4610469
vt 0.687921 0.5503865
vt 0.6782923 0.5838853
vt 0.6632071 0.4849827
vt 0.6632071 0.4849827
vt 0.6782923 0.5838853
vt 0.5709518 0.4087502
vt 0.5709518 0.4087502
vt 0.6782923 0.5838853
vt 0.5250959 0.3870177
vt 0.5250959 0.3870177
vt 0.6782923 0.5838853
vt 0.4976912 0.3978464
vt 0.4976912 0.3978464
vt 0.6782923 0.5838853
vt 0.4491259 0.4934488
vt 0.4491259 0.4934488
vt 0.6782923 0.5838853
vt 0.4884188 0.5157251
vt 0.4884188 0.5157251
vt 0.6782923 0.5838853
vt 0.5105733 0.5260944
vt 0.5105733 0.5260944
vt 0.6782923 0.5838853
vt 0.6436216 0.5757567
vt 0.6436216 0.5757567
vt 0.6782923 0.5838853
vt 0.6531283 0.5785225
vt 0.7722633 0.3805767
vt 0.7552655 0.4031952
vt 0.7918208 0.3452496
vt 0.7918208 0.3452496
vt 0.7552655 0.4031952
vt 0.7952803 0.3379414
vt 0.7952803 0.3379414
vt 0.7552655 0.4031952
vt 0.7607783 0.3107617
vt 0.7607783 0.3107617
vt 0.7552655 0.4031952
vt 0.3884709 0.3180981
vt 0.3884709 0.3180981
vt 0.7552655 0.4031952
vt 0.3325926 0.3576675
vt 0.3325926 0.3576675
vt 0.7552655 0.4031952
vt 0.2503598 0.4508885
vt 0.2503598 0.4508885
vt 0.7552655 0.4031952
vt 0.3637194 0.7027109
vt 0.3637194 0.7027109
vt 0.7552655 0.4031952
vt 0.3870552 0.6946855
vt 0.3870552 0.6946855
vt 0.7552655 0.4031952
vt 0.4815466 0.6468139
vt 0.4815466 0.6468139
vt 0.7552655 0.4031952
vt 0.5709986 0.5881418
vt 0.5709986 0.5881418
vt 0.7552655 0.4031952
vt 0.6431997 0.5271164

usemtl Material0
usemap Material0
f 1/1/1 2/2/2 3/3/3
f 4/4/4 5/5/5 6/6/6
f 7/7/7 8/8/8 9/9/9
f 10/10/10 11/11/11 12/12/12
f 13/13/13 14/14/14 15/15/15
f 16/16/16 17/17/17 18/18/18
f 19/19/19 20/20/20 21/21/21
f 22/22/22 23/23/23 24/24/24
f 25/25/25 26/26/26 27/27/27
f 28/28/28 29/29/29 30/30/30
f 31/31/31 32/32/32 33/33/33
f 34/34/34 35/35/35 36/36/36
f 37/37/37 38/38/38 39/39/39
f 40/40/40 41/41/41 42/42/42
f 43/43/43 44/44/44 45/45/45
f 46/46/46 47/47/47 48/48/48
f 49/49/49 50/50/50 51/51/51
f 52/52/52 53/53/53 54/54/54
f 55/55/55 56/56/56 57/57/57
f 58/58/58 59/59/59 60/60/60
f 61/61/61 62/62/62 63/63/63
f 64/64/64 65/65/65 66/66/66
f 67/67/67 68/68/68 69/69/69
f 70/70/70 71/71/71 72/72/72
f 73/73/73 74/74/74 75/75/75
f 76/76/76 77/77/77 78/78/78
f 79/79/79 80/80/80 81/81/81
f 82/82/82 83/83/83 84/84/84
f 85/85/85 86/86/86 87/87/87
f 88/88/88 89/89/89 90/90/90
f 91/91/91 92/92/92 93/93/93
f 94/94/94 95/95/95 96/96/96
f 97/97/97 98/98/98 99/99/99
f 100/100/100 101/101/101 102/102/102

usemtl Material1
usemap Material1
f 103/103/103 104/104/104 105/105/105
f 106/106/106 107/107/107 108/108/108
f 109/109/109 110/110/110 111/111/111
f 112/112/112 113/113/113 114/114/114
f 115/115/115 116/116/116 117/117/117
f 118/118/118 119/119/119 120/120/120
f 121/121/121 122/122/122 123/123/123
f 124/124/124 125/125/125 126/126/126
f 127/127/127 128/128/128 129/129/129
f 130/130/130 131/131/131 132/132/132
f 133/133/133 134/134/134 135/135/135
f 136/136/136 137/137/137 138/138/138
f 139/139/139 140/140/140 141/141/141
f 142/142/142 143/143/143 144/144/144
f 145/145/145 146/146/146 147/147/147
f 148/148/148 149/149/149 150/150/150
f 151/151/151 152/152/152 153/153/153
f 154/154/154 155/155/155 156/156/156
f 157/157/157 158/158/158 159/159/159
f 160/160/160 161/161/161 162/162/162
f 163/163/163 164/164/164 165/165/165
f 166/166/166 167/167/167 168/168/168
f 169/169/169 170/170/170 171/171/171
f 172/172/172 173/173/173 174/174/174
f 175/175/175 176/176/176 177/177/177
f 178/178/178 179/179/179 180/180/180
f 181/181/181 182/182/182 183/183/183
f 184/184/184 185/185/185 186/186/186
f 187/187/187 188/188/188 189/189/189
f 190/190/190 191/191/191 192/192/192
f 193/193/193 194/194/194 195/195/195
f 196/196/196 197/197/197 198/198/198
f 199/199/199 200/200/200 201/201/201
f 202/202/202 203/203/203 204/204/204
f 205/205/205 206/206/206 207/207/207
f 208/208/208 209/209/209 210/210/210
f 211/211/211 212/212/212 213/213/213
f 214/214/214 215/215/215 216/216/216
f 217/217/217 218/218/218 219/219/219
f 220/220/220 221/221/221 222/222/222
