g  Instance
v 1.78899 -54.02515 4.260948
v 1.793495 -52.92836 4.865471
v 3.261231 -54.0039 4.174442
v 3.261231 -54.0039 4.174442
v 1.793495 -52.92836 4.865471
v 3.006154 -53.78122 4.314259
v 3.534137 -54.10936 4.559785
v 3.483305 -54.09842 4.303951
v 3.368727 -53.92108 5.44391
v 3.368727 -53.92108 5.44391
v 3.483305 -54.09842 4.303951
v 1.787373 -52.90586 5.072772
v 1.787373 -52.90586 5.072772
v 3.483305 -54.09842 4.303951
v 1.793495 -52.92836 4.865471
v 1.793495 -52.92836 4.865471
v 3.483305 -54.09842 4.303951
v 3.006154 -53.78122 4.314259
v 2.335397 -55.54881 4.459725
v 2.800445 -55.58847 4.459225
v 2.571698 -55.89977 5.149903
v 2.571698 -55.89977 5.149903
v 2.800445 -55.58847 4.459225
v 2.850553 -55.66106 4.601743
v 1.747491 -55.22641 4.745571
v 1.972988 -55.2006 4.092365
v 1.705178 -55.50949 5.880002
v 1.705178 -55.50949 5.880002
v 1.972988 -55.2006 4.092365
v 2.289741 -55.95166 6.037992
v 2.289741 -55.95166 6.037992
v 1.972988 -55.2006 4.092365
v 2.571698 -55.89977 5.149903
v 2.571698 -55.89977 5.149903
v 1.972988 -55.2006 4.092365
v 2.335397 -55.54881 4.459725
v 1.956103 -55.16874 4.057132
v 2.600145 -55.18752 4.014538
v 1.972988 -55.2006 4.092365
v 1.972988 -55.2006 4.092365
v 2.600145 -55.18752 4.014538
v 2.335397 -55.54881 4.459725
v 2.335397 -55.54881 4.459725
v 2.600145 -55.18752 4.014538
v 2.800445 -55.58847 4.459225
v 2.800445 -55.58847 4.459225
v 2.600145 -55.18752 4.014538
v 2.980907 -55.46621 4.299488
v 3.190473 -55.22018 4.197628
v 3.523786 -54.48104 4.341915
v 3.033198 -55.46484 4.312943
v 3.033198 -55.46484 4.312943
v 3.523786 -54.48104 4.341915
v 2.850553 -55.66106 4.601743
v 2.850553 -55.66106 4.601743
v 3.523786 -54.48104 4.341915
v 2.571698 -55.89977 5.149903
v 2.571698 -55.89977 5.149903
v 3.523786 -54.48104 4.341915
v 2.289741 -55.95166 6.037992
v 2.289741 -55.95166 6.037992
v 3.523786 -54.48104 4.341915
v 3.295017 -54.25001 5.543676
v 3.037169 -55.00801 4.018179
v 2.600145 -55.18752 4.014538
v 3.394845 -54.10134 4.14977
v 3.394845 -54.10134 4.14977
v 2.600145 -55.18752 4.014538
v 3.261231 -54.0039 4.174442
v 3.261231 -54.0039 4.174442
v 2.600145 -55.18752 4.014538
v 1.78899 -54.02515 4.260948
v 1.78899 -54.02515 4.260948
v 2.600145 -55.18752 4.014538
v 1.773194 -54.99333 4.098019
v 1.773194 -54.99333 4.098019
v 2.600145 -55.18752 4.014538
v 1.956103 -55.16874 4.057132
v 1.747491 -55.22641 4.745571
v 1.705178 -55.50949 5.880002
v 1.773194 -54.99333 4.098019
v 1.773194 -54.99333 4.098019
v 1.705178 -55.50949 5.880002
v 1.78899 -54.02515 4.260948
v 1.78899 -54.02515 4.260948
v 1.705178 -55.50949 5.880002
v 1.793495 -52.92836 4.865471
v 1.793495 -52.92836 4.865471
v 1.705178 -55.50949 5.880002
v 1.787373 -52.90586 5.072772
v 3.483305 -54.09842 4.303951
v 3.485601 -54.12698 4.235547
v 3.006154 -53.78122 4.314259
v 3.006154 -53.78122 4.314259
v 3.485601 -54.12698 4.235547
v 3.261231 -54.0039 4.174442
v 3.261231 -54.0039 4.174442
v 3.485601 -54.12698 4.235547
v 3.394845 -54.10134 4.14977
v 3.483305 -54.09842 4.303951
v 3.534137 -54.10936 4.559785
v 3.485601 -54.12698 4.235547
v 3.485601 -54.12698 4.235547
v 3.534137 -54.10936 4.559785
v 3.563225 -54.24799 4.329174
v 3.368727 -53.92108 5.44391
v 1.787373 -52.90586 5.072772
v 3.295017 -54.25001 5.543676
v 3.295017 -54.25001 5.543676
v 1.787373 -52.90586 5.072772
v 2.289741 -55.95166 6.037992
v 2.289741 -55.95166 6.037992
v 1.787373 -52.90586 5.072772
v 1.705178 -55.50949 5.880002
v 2.800445 -55.58847 4.459225
v 2.980907 -55.46621 4.299488
v 2.850553 -55.66106 4.601743
v 2.850553 -55.66106 4.601743
v 2.980907 -55.46621 4.299488
v 3.033198 -55.46484 4.312943
v 1.773194 -54.99333 4.098019
v 1.956103 -55.16874 4.057132
v 1.747491 -55.22641 4.745571
v 1.747491 -55.22641 4.745571
v 1.956103 -55.16874 4.057132
v 1.972988 -55.2006 4.092365
v 3.394845 -54.10134 4.14977
v 3.485601 -54.12698 4.235547
v 3.037169 -55.00801 4.018179
v 3.037169 -55.00801 4.018179
v 3.485601 -54.12698 4.235547
v 3.190473 -55.22018 4.197628
v 3.190473 -55.22018 4.197628
v 3.485601 -54.12698 4.235547
v 3.523786 -54.48104 4.341915
v 3.523786 -54.48104 4.341915
v 3.485601 -54.12698 4.235547
v 3.563225 -54.24799 4.329174
v 2.600145 -55.18752 4.014538
v 3.037169 -55.00801 4.018179
v 2.980907 -55.46621 4.299488
v 2.980907 -55.46621 4.299488
v 3.037169 -55.00801 4.018179
v 3.033198 -55.46484 4.312943
v 3.033198 -55.46484 4.312943
v 3.037169 -55.00801 4.018179
v 3.190473 -55.22018 4.197628
v 3.368727 -53.92108 5.44391
v 3.295017 -54.25001 5.543676
v 3.534137 -54.10936 4.559785
v 3.534137 -54.10936 4.559785
v 3.295017 -54.25001 5.543676
v 3.563225 -54.24799 4.329174
v 3.563225 -54.24799 4.329174
v 3.295017 -54.25001 5.543676
v 3.523786 -54.48104 4.341915

vn -0.05832546 0.4820695 -0.8741894
vn -0.05832546 0.4820695 -0.8741894
vn -0.05832546 0.4820695 -0.8741894
vn -0.05832546 0.4820695 -0.8741894
vn -0.05832546 0.4820695 -0.8741894
vn -0.05832546 0.4820695 -0.8741894
vn 0.5509929 0.8312287 -0.07392947
vn 0.5509929 0.8312287 -0.07392947
vn 0.5509929 0.8312287 -0.07392947
vn 0.5509929 0.8312287 -0.07392947
vn 0.5509929 0.8312287 -0.07392947
vn 0.5509929 0.8312287 -0.07392947
vn 0.5509929 0.8312287 -0.07392947
vn 0.5509929 0.8312287 -0.07392947
vn 0.5509929 0.8312287 -0.07392947
vn 0.5509929 0.8312287 -0.07392947
vn 0.5509929 0.8312287 -0.07392947
vn 0.5509929 0.8312287 -0.07392947
vn -0.07715601 -0.8991392 -0.4308081
vn -0.07715601 -0.8991392 -0.4308081
vn -0.07715601 -0.8991392 -0.4308081
vn -0.07715601 -0.8991392 -0.4308081
vn -0.07715601 -0.8991392 -0.4308081
vn -0.07715601 -0.8991392 -0.4308081
vn -0.5494888 -0.8055984 -0.2215251
vn -0.5494888 -0.8055984 -0.2215251
vn -0.5494888 -0.8055984 -0.2215251
vn -0.5494888 -0.8055984 -0.2215251
vn -0.5494888 -0.8055984 -0.2215251
vn -0.5494888 -0.8055984 -0.2215251
vn -0.5494888 -0.8055984 -0.2215251
vn -0.5494888 -0.8055984 -0.2215251
vn -0.5494888 -0.8055984 -0.2215251
vn -0.5494888 -0.8055984 -0.2215251
vn -0.5494888 -0.8055984 -0.2215251
vn -0.5494888 -0.8055984 -0.2215251
vn -0.06513935 -0.7555204 -0.6518787
vn -0.06513935 -0.7555204 -0.6518787
vn -0.06513935 -0.7555204 -0.6518787
vn -0.06513935 -0.7555204 -0.6518787
vn -0.06513935 -0.7555204 -0.6518787
vn -0.06513935 -0.7555204 -0.6518787
vn -0.06513935 -0.7555204 -0.6518787
vn -0.06513935 -0.7555204 -0.6518787
vn -0.06513935 -0.7555204 -0.6518787
vn -0.06513935 -0.7555204 -0.6518787
vn -0.06513935 -0.7555204 -0.6518787
vn -0.06513935 -0.7555204 -0.6518787
vn 0.8638505 -0.4380957 0.2486651
vn 0.8638505 -0.4380957 0.2486651
vn 0.8638505 -0.4380957 0.2486651
vn 0.8638505 -0.4380957 0.2486651
vn 0.8638505 -0.4380957 0.2486651
vn 0.8638505 -0.4380957 0.2486651
vn 0.8638505 -0.4380957 0.2486651
vn 0.8638505 -0.4380957 0.2486651
vn 0.8638505 -0.4380957 0.2486651
vn 0.8638505 -0.4380957 0.2486651
vn 0.8638505 -0.4380957 0.2486651
vn 0.8638505 -0.4380957 0.2486651
vn 0.8638505 -0.4380957 0.2486651
vn 0.8638505 -0.4380957 0.2486651
vn 0.8638505 -0.4380957 0.2486651
vn -0.06022587 0.1666141 -0.9841813
vn -0.06022587 0.1666141 -0.9841813
vn -0.06022587 0.1666141 -0.9841813
vn -0.06022587 0.1666141 -0.9841813
vn -0.06022587 0.1666141 -0.9841813
vn -0.06022587 0.1666141 -0.9841813
vn -0.06022587 0.1666141 -0.9841813
vn -0.06022587 0.1666141 -0.9841813
vn -0.06022587 0.1666141 -0.9841813
vn -0.06022587 0.1666141 -0.9841813
vn -0.06022587 0.1666141 -0.9841813
vn -0.06022587 0.1666141 -0.9841813
vn -0.06022587 0.1666141 -0.9841813
vn -0.06022587 0.1666141 -0.9841813
vn -0.06022587 0.1666141 -0.9841813
vn -0.9992573 0.02166692 -0.03186437
vn -0.9992573 0.02166692 -0.03186437
vn -0.9992573 0.02166692 -0.03186437
vn -0.9992573 0.02166692 -0.03186437
vn -0.9992573 0.02166692 -0.03186437
vn -0.9992573 0.02166692 -0.03186437
vn -0.9992573 0.02166692 -0.03186437
vn -0.9992573 0.02166692 -0.03186437
vn -0.9992573 0.02166692 -0.03186437
vn -0.9992573 0.02166692 -0.03186437
vn -0.9992573 0.02166692 -0.03186437
vn -0.9992573 0.02166692 -0.03186437
vn 0.5209206 0.793797 -0.3138916
vn 0.5209206 0.793797 -0.3138916
vn 0.5209206 0.793797 -0.3138916
vn 0.5209206 0.793797 -0.3138916
vn 0.5209206 0.793797 -0.3138916
vn 0.5209206 0.793797 -0.3138916
vn 0.5209206 0.793797 -0.3138916
vn 0.5209206 0.793797 -0.3138916
vn 0.5209206 0.793797 -0.3138916
vn 0.8818874 0.444831 -0.1562056
vn 0.8818874 0.444831 -0.1562056
vn 0.8818874 0.444831 -0.1562056
vn 0.8818874 0.444831 -0.1562056
vn 0.8818874 0.444831 -0.1562056
vn 0.8818874 0.444831 -0.1562056
vn -0.03334143 0.2969255 0.9543185
vn -0.03334143 0.2969255 0.9543185
vn -0.03334143 0.2969255 0.9543185
vn -0.03334143 0.2969255 0.9543185
vn -0.03334143 0.2969255 0.9543185
vn -0.03334143 0.2969255 0.9543185
vn -0.03334143 0.2969255 0.9543185
vn -0.03334143 0.2969255 0.9543185
vn -0.03334143 0.2969255 0.9543185
vn 0.1485091 -0.8591061 -0.4897774
vn 0.1485091 -0.8591061 -0.4897774
vn 0.1485091 -0.8591061 -0.4897774
vn 0.1485091 -0.8591061 -0.4897774
vn 0.1485091 -0.8591061 -0.4897774
vn 0.1485091 -0.8591061 -0.4897774
vn -0.69744 -0.665024 -0.267059
vn -0.69744 -0.665024 -0.267059
vn -0.69744 -0.665024 -0.267059
vn -0.69744 -0.665024 -0.267059
vn -0.69744 -0.665024 -0.267059
vn -0.69744 -0.665024 -0.267059
vn 0.6559566 -0.1514425 -0.73945
vn 0.6559566 -0.1514425 -0.73945
vn 0.6559566 -0.1514425 -0.73945
vn 0.6559566 -0.1514425 -0.73945
vn 0.6559566 -0.1514425 -0.73945
vn 0.6559566 -0.1514425 -0.73945
vn 0.6559566 -0.1514425 -0.73945
vn 0.6559566 -0.1514425 -0.73945
vn 0.6559566 -0.1514425 -0.73945
vn 0.6559566 -0.1514425 -0.73945
vn 0.6559566 -0.1514425 -0.73945
vn 0.6559566 -0.1514425 -0.73945
vn 0.2244247 -0.5297587 -0.8179177
vn 0.2244247 -0.5297587 -0.8179177
vn 0.2244247 -0.5297587 -0.8179177
vn 0.2244247 -0.5297587 -0.8179177
vn 0.2244247 -0.5297587 -0.8179177
vn 0.2244247 -0.5297587 -0.8179177
vn 0.2244247 -0.5297587 -0.8179177
vn 0.2244247 -0.5297587 -0.8179177
vn 0.2244247 -0.5297587 -0.8179177
vn 0.9652201 -0.1517251 0.212908
vn 0.9652201 -0.1517251 0.212908
vn 0.9652201 -0.1517251 0.212908
vn 0.9652201 -0.1517251 0.212908
vn 0.9652201 -0.1517251 0.212908
vn 0.9652201 -0.1517251 0.212908
vn 0.9652201 -0.1517251 0.212908
vn 0.9652201 -0.1517251 0.212908
vn 0.9652201 -0.1517251 0.212908

vt 0.4083751 0.4863703
vt 0.435958 0.2343276
vt 0.7048063 0.522438
vt 0.7048063 0.522438
vt 0.435958 0.2343276
vt 0.6589506 0.4641456
vt 0.5824087 0.5200566
vt 0.5776365 0.5453424
vt 0.5585666 0.4326578
vt 0.5585666 0.4326578
vt 0.5776365 0.5453424
vt 0.3733388 0.469349
vt 0.3733388 0.469349
vt 0.5776365 0.5453424
vt 0.3750685 0.4898392
vt 0.3750685 0.4898392
vt 0.5776365 0.5453424
vt 0.5211582 0.5443299
vt 0.4681067 0.4819169
vt 0.4172585 0.4819731
vt 0.4391879 0.3986011
vt 0.4391879 0.3986011
vt 0.4172585 0.4819731
vt 0.4111456 0.4647737
vt 0.481856 0.4866234
vt 0.4645393 0.5541555
vt 0.4692974 0.3693448
vt 0.4692974 0.3693448
vt 0.4645393 0.5541555
vt 0.3954931 0.3530079
vt 0.3954931 0.3530079
vt 0.4645393 0.5541555
vt 0.374956 0.4448226
vt 0.374956 0.4448226
vt 0.4645393 0.5541555
vt 0.4145724 0.5161752
vt 0.5171361 0.506884
vt 0.4337407 0.5141594
vt 0.5146047 0.5008649
vt 0.5146047 0.5008649
vt 0.4337407 0.5141594
vt 0.4639159 0.4380534
vt 0.4639159 0.4380534
vt 0.4337407 0.5141594
vt 0.4034061 0.4381378
vt 0.4034061 0.4381378
vt 0.4337407 0.5141594
vt 0.381458 0.4654488
vt 0.5231459 0.593664
vt 0.4409411 0.5785412
vt 0.55251 0.5815789
vt 0.55251 0.5815789
vt 0.4409411 0.5785412
vt 0.5786584 0.551324
vt 0.5786584 0.551324
vt 0.4409411 0.5785412
vt 0.613076 0.4938801
vt 0.613076 0.4938801
vt 0.4409411 0.5785412
vt 0.6307208 0.4008185
vt 0.6307208 0.4008185
vt 0.4409411 0.5785412
vt 0.4305296 0.4526183
vt 0.5686641 0.3960463
vt 0.5861589 0.4391644
vt 0.4784714 0.3607521
vt 0.4784714 0.3607521
vt 0.5861589 0.4391644
vt 0.4686083 0.3739341
vt 0.4686083 0.3739341
vt 0.5861589 0.4391644
vt 0.4692459 0.5192034
vt 0.4692459 0.5192034
vt 0.5861589 0.4391644
vt 0.5659264 0.5207598
vt 0.5659264 0.5207598
vt 0.5861589 0.4391644
vt 0.5836368 0.5027118
vt 0.4045078 0.5071278
vt 0.376578 0.3954838
vt 0.4274825 0.5708533
vt 0.4274825 0.5708533
vt 0.376578 0.3954838
vt 0.522724 0.5548117
vt 0.522724 0.5548117
vt 0.376578 0.3954838
vt 0.6305895 0.4953239
vt 0.6305895 0.4953239
vt 0.376578 0.3954838
vt 0.6327928 0.4749227
vt 0.582493 0.5224192
vt 0.5843119 0.5298822
vt 0.5231646 0.5212942
vt 0.5231646 0.5212942
vt 0.5843119 0.5298822
vt 0.5578916 0.5365482
vt 0.5578916 0.5365482
vt 0.5843119 0.5298822
vt 0.5749926 0.539239
vt 0.5217583 0.5328074
vt 0.5250116 0.5070246
vt 0.5244021 0.5396984
vt 0.5244021 0.5396984
vt 0.5250116 0.5070246
vt 0.5386436 0.5302572
vt 0.5199769 0.3670571
vt 0.626183 0.5226818
vt 0.4861734 0.3743091
vt 0.4861734 0.3743091
vt 0.626183 0.5226818
vt 0.3119055 0.4732445
vt 0.3119055 0.4732445
vt 0.626183 0.5226818
vt 0.3580519 0.5307729
vt 0.4506026 0.4650503
vt 0.4281997 0.485714
vt 0.4464305 0.4466227
vt 0.4464305 0.4466227
vt 0.4281997 0.485714
vt 0.4223635 0.4839795
vt 0.4763572 0.5513897
vt 0.4505276 0.5557118
vt 0.4609626 0.4828357
vt 0.4609626 0.4828357
vt 0.4505276 0.5557118
vt 0.4469883 0.5519803
vt 0.4137661 0.4517417
vt 0.4144364 0.4331406
vt 0.5545258 0.4802949
vt 0.5545258 0.4802949
vt 0.4144364 0.4331406
vt 0.5796804 0.441363
vt 0.5796804 0.441363
vt 0.4144364 0.4331406
vt 0.4635596 0.4100628
vt 0.4635596 0.4100628
vt 0.4144364 0.4331406
vt 0.4291045 0.4128239
vt 0.4871766 0.4552435
vt 0.4064532 0.4541606
vt 0.4458445 0.3706105
vt 0.4458445 0.3706105
vt 0.4064532 0.4541606
vt 0.4375284 0.3666118
vt 0.4375284 0.3666118
vt 0.4064532 0.4541606
vt 0.3964729 0.4008607
vt 0.4276888 0.4624299
vt 0.4615345 0.4521542
vt 0.4438241 0.5534617
vt 0.4438241 0.5534617
vt 0.4615345 0.4521542
vt 0.457142 0.5772099
vt 0.457142 0.5772099
vt 0.4615345 0.4521542
vt 0.4809231 0.5758973

usemtl Material0
usemap Material0

usemtl Material1
usemap Material1
f 1/1/1 2/2/2 3/3/3
f 4/4/4 5/5/5 6/6/6
f 7/7/7 8/8/8 9/9/9
f 10/10/10 11/11/11 12/12/12
f 13/13/13 14/14/14 15/15/15
f 16/16/16 17/17/17 18/18/18
f 19/19/19 20/20/20 21/21/21
f 22/22/22 23/23/23 24/24/24
f 25/25/25 26/26/26 27/27/27
f 28/28/28 29/29/29 30/30/30
f 31/31/31 32/32/32 33/33/33
f 34/34/34 35/35/35 36/36/36
f 37/37/37 38/38/38 39/39/39
f 40/40/40 41/41/41 42/42/42
f 43/43/43 44/44/44 45/45/45
f 46/46/46 47/47/47 48/48/48
f 49/49/49 50/50/50 51/51/51
f 52/52/52 53/53/53 54/54/54
f 55/55/55 56/56/56 57/57/57
f 58/58/58 59/59/59 60/60/60
f 61/61/61 62/62/62 63/63/63
f 64/64/64 65/65/65 66/66/66
f 67/67/67 68/68/68 69/69/69
f 70/70/70 71/71/71 72/72/72
f 73/73/73 74/74/74 75/75/75
f 76/76/76 77/77/77 78/78/78
f 79/79/79 80/80/80 81/81/81
f 82/82/82 83/83/83 84/84/84
f 85/85/85 86/86/86 87/87/87
f 88/88/88 89/89/89 90/90/90
f 91/91/91 92/92/92 93/93/93
f 94/94/94 95/95/95 96/96/96
f 97/97/97 98/98/98 99/99/99
f 100/100/100 101/101/101 102/102/102
f 103/103/103 104/104/104 105/105/105
f 106/106/106 107/107/107 108/108/108
f 109/109/109 110/110/110 111/111/111
f 112/112/112 113/113/113 114/114/114
f 115/115/115 116/116/116 117/117/117
f 118/118/118 119/119/119 120/120/120
f 121/121/121 122/122/122 123/123/123
f 124/124/124 125/125/125 126/126/126
f 127/127/127 128/128/128 129/129/129
f 130/130/130 131/131/131 132/132/132
f 133/133/133 134/134/134 135/135/135
f 136/136/136 137/137/137 138/138/138
f 139/139/139 140/140/140 141/141/141
f 142/142/142 143/143/143 144/144/144
f 145/145/145 146/146/146 147/147/147
f 148/148/148 149/149/149 150/150/150
f 151/151/151 152/152/152 153/153/153
f 154/154/154 155/155/155 156/156/156
