g  Instance
v 0.1744736 -43.63987 -1.840416
v 0.1441983 -44.15489 -1.803924
v 2.224201 -44.52265 -2.168349
v 2.224201 -44.52265 -2.168349
v 0.1441983 -44.15489 -1.803924
v 2.29381 -45.11713 -2.145653
v 2.29381 -45.11713 -2.145653
v 0.1441983 -44.15489 -1.803924
v 1.218679 -45.88437 -1.899909
v 0.1744736 -43.63987 -1.840416
v 0.3031219 -43.46696 -2.524432
v 0.1441983 -44.15489 -1.803924
v 0.1441983 -44.15489 -1.803924
v 0.3031219 -43.46696 -2.524432
v 0.1762314 -47.15516 -2.772919
v 0.1762314 -47.15516 -2.772919
v 0.3031219 -43.46696 -2.524432
v 0.4331251 -45.693 -3.845699
v 0.4331251 -45.693 -3.845699
v 0.3031219 -43.46696 -2.524432
v 0.4558731 -43.97716 -3.524376
v 0.1762314 -47.15516 -2.772919
v 0.4331251 -45.693 -3.845699
v 0.1793898 -47.15505 -2.771499
v 0.1793898 -47.15505 -2.771499
v 0.4331251 -45.693 -3.845699
v 2.152012 -45.6641 -3.047835
v 2.152012 -45.6641 -3.047835
v 0.4331251 -45.693 -3.845699
v 2.101799 -45.50989 -3.197924
v 2.224201 -44.52265 -2.168349
v 1.999921 -44.13289 -2.984322
v 0.1744736 -43.63987 -1.840416
v 0.1744736 -43.63987 -1.840416
v 1.999921 -44.13289 -2.984322
v 0.3031219 -43.46696 -2.524432
v 0.3031219 -43.46696 -2.524432
v 1.999921 -44.13289 -2.984322
v 1.148178 -43.64206 -3.208382
v 2.152012 -45.6641 -3.047835
v 2.101799 -45.50989 -3.197924
v 2.29381 -45.11713 -2.145653
v 2.29381 -45.11713 -2.145653
v 2.101799 -45.50989 -3.197924
v 2.224201 -44.52265 -2.168349
v 2.224201 -44.52265 -2.168349
v 2.101799 -45.50989 -3.197924
v 1.999921 -44.13289 -2.984322
v 2.29381 -45.11713 -2.145653
v 1.218679 -45.88437 -1.899909
v 2.152012 -45.6641 -3.047835
v 2.152012 -45.6641 -3.047835
v 1.218679 -45.88437 -1.899909
v 0.1793898 -47.15505 -2.771499
v 0.3031219 -43.46696 -2.524432
v 1.148178 -43.64206 -3.208382
v 0.4558731 -43.97716 -3.524376
v 2.101799 -45.50989 -3.197924
v 0.4331251 -45.693 -3.845699
v 1.999921 -44.13289 -2.984322
v 1.999921 -44.13289 -2.984322
v 0.4331251 -45.693 -3.845699
v 1.148178 -43.64206 -3.208382
v 1.148178 -43.64206 -3.208382
v 0.4331251 -45.693 -3.845699
v 0.4558731 -43.97716 -3.524376
v 0.1793898 -47.15505 -2.771499
v 1.218679 -45.88437 -1.899909
v 0.1762314 -47.15516 -2.772919
v 0.1762314 -47.15516 -2.772919
v 1.218679 -45.88437 -1.899909
v 0.1441983 -44.15489 -1.803924

vn 0.1823581 0.05882314 0.9814711
vn 0.1823581 0.05882314 0.9814711
vn 0.1823581 0.05882314 0.9814711
vn 0.1823581 0.05882314 0.9814711
vn 0.1823581 0.05882314 0.9814711
vn 0.1823581 0.05882314 0.9814711
vn 0.1823581 0.05882314 0.9814711
vn 0.1823581 0.05882314 0.9814711
vn 0.1823581 0.05882314 0.9814711
vn -0.9837778 0.04553658 -0.1735158
vn -0.9837778 0.04553658 -0.1735158
vn -0.9837778 0.04553658 -0.1735158
vn -0.9837778 0.04553658 -0.1735158
vn -0.9837778 0.04553658 -0.1735158
vn -0.9837778 0.04553658 -0.1735158
vn -0.9837778 0.04553658 -0.1735158
vn -0.9837778 0.04553658 -0.1735158
vn -0.9837778 0.04553658 -0.1735158
vn -0.9837778 0.04553658 -0.1735158
vn -0.9837778 0.04553658 -0.1735158
vn -0.9837778 0.04553658 -0.1735158
vn 0.3469977 -0.5936662 -0.7260531
vn 0.3469977 -0.5936662 -0.7260531
vn 0.3469977 -0.5936662 -0.7260531
vn 0.3469977 -0.5936662 -0.7260531
vn 0.3469977 -0.5936662 -0.7260531
vn 0.3469977 -0.5936662 -0.7260531
vn 0.3469977 -0.5936662 -0.7260531
vn 0.3469977 -0.5936662 -0.7260531
vn 0.3469977 -0.5936662 -0.7260531
vn 0.4173764 0.8592712 0.2957197
vn 0.4173764 0.8592712 0.2957197
vn 0.4173764 0.8592712 0.2957197
vn 0.4173764 0.8592712 0.2957197
vn 0.4173764 0.8592712 0.2957197
vn 0.4173764 0.8592712 0.2957197
vn 0.4173764 0.8592712 0.2957197
vn 0.4173764 0.8592712 0.2957197
vn 0.4173764 0.8592712 0.2957197
vn 0.9705909 0.105383 -0.2164436
vn 0.9705909 0.105383 -0.2164436
vn 0.9705909 0.105383 -0.2164436
vn 0.9705909 0.105383 -0.2164436
vn 0.9705909 0.105383 -0.2164436
vn 0.9705909 0.105383 -0.2164436
vn 0.9705909 0.105383 -0.2164436
vn 0.9705909 0.105383 -0.2164436
vn 0.9705909 0.105383 -0.2164436
vn 0.5961461 -0.7246702 0.3456342
vn 0.5961461 -0.7246702 0.3456342
vn 0.5961461 -0.7246702 0.3456342
vn 0.5961461 -0.7246702 0.3456342
vn 0.5961461 -0.7246702 0.3456342
vn 0.5961461 -0.7246702 0.3456342
vn -0.2018195 0.8596023 -0.4694176
vn -0.2018195 0.8596023 -0.4694176
vn -0.2018195 0.8596023 -0.4694176
vn 0.3405443 0.1687 -0.9249703
vn 0.3405443 0.1687 -0.9249703
vn 0.3405443 0.1687 -0.9249703
vn 0.3405443 0.1687 -0.9249703
vn 0.3405443 0.1687 -0.9249703
vn 0.3405443 0.1687 -0.9249703
vn 0.3405443 0.1687 -0.9249703
vn 0.3405443 0.1687 -0.9249703
vn 0.3405443 0.1687 -0.9249703
vn -0.3843149 -0.2874504 0.8773109
vn -0.3843149 -0.2874504 0.8773109
vn -0.3843149 -0.2874504 0.8773109
vn -0.3843149 -0.2874504 0.8773109
vn -0.3843149 -0.2874504 0.8773109
vn -0.3843149 -0.2874504 0.8773109

vt 0.6734639 0.5356762
vt 0.6218421 0.5387514
vt 0.5873214 0.3272392
vt 0.5873214 0.3272392
vt 0.6218421 0.5387514
vt 0.5278524 0.3201607
vt 0.5278524 0.3201607
vt 0.6218421 0.5387514
vt 0.449801 0.4294935
vt 0.6752359 0.4070673
vt 0.6930681 0.4763994
vt 0.623736 0.4033686
vt 0.623736 0.4033686
vt 0.6930681 0.4763994
vt 0.3247125 0.5015962
vt 0.3247125 0.5015962
vt 0.6930681 0.4763994
vt 0.4716976 0.6103337
vt 0.4716976 0.6103337
vt 0.6930681 0.4763994
vt 0.6428996 0.5777631
vt 0.66001 0.3829674
vt 0.5228083 0.6060116
vt 0.6596069 0.3826721
vt 0.6596069 0.3826721
vt 0.5228083 0.6060116
vt 0.3085631 0.4401301
vt 0.3085631 0.4401301
vt 0.5228083 0.6060116
vt 0.3036363 0.4713366
vt 0.5956563 0.4970115
vt 0.5573665 0.5849166
vt 0.3662227 0.4616892
vt 0.3662227 0.4616892
vt 0.5573665 0.5849166
vt 0.3703573 0.5353763
vt 0.3703573 0.5353763
vt 0.5573665 0.5849166
vt 0.4564576 0.6090586
vt 0.5213645 0.501268
vt 0.5053792 0.5167471
vt 0.4681536 0.4082158
vt 0.4681536 0.4082158
vt 0.5053792 0.5167471
vt 0.4078829 0.4105597
vt 0.4078829 0.4105597
vt 0.5053792 0.5167471
vt 0.366429 0.4947239
vt 0.3259594 0.4736992
vt 0.4640096 0.4462617
vt 0.3738403 0.5744254
vt 0.3738403 0.5744254
vt 0.4640096 0.4462617
vt 0.6326709 0.5435705
vt 0.510142 0.3752467
vt 0.5972877 0.4614876
vt 0.5137141 0.5013337
vt 0.5022196 0.3569831
vt 0.5332152 0.5425485
vt 0.35658 0.3683181
vt 0.35658 0.3683181
vt 0.5332152 0.5425485
vt 0.3102883 0.4630392
vt 0.3102883 0.4630392
vt 0.5332152 0.5425485
vt 0.3506874 0.5400265
vt 0.2727486 0.7438226
vt 0.3536735 0.3718012
vt 0.2731189 0.7444321
vt 0.2731189 0.7444321
vt 0.3536735 0.3718012
vt 0.7692069 0.3308254

usemtl Material0
usemap Material0

usemtl Material1
usemap Material1
f 1/1/1 2/2/2 3/3/3
f 4/4/4 5/5/5 6/6/6
f 7/7/7 8/8/8 9/9/9
f 10/10/10 11/11/11 12/12/12
f 13/13/13 14/14/14 15/15/15
f 16/16/16 17/17/17 18/18/18
f 19/19/19 20/20/20 21/21/21
f 22/22/22 23/23/23 24/24/24
f 25/25/25 26/26/26 27/27/27
f 28/28/28 29/29/29 30/30/30
f 31/31/31 32/32/32 33/33/33
f 34/34/34 35/35/35 36/36/36
f 37/37/37 38/38/38 39/39/39
f 40/40/40 41/41/41 42/42/42
f 43/43/43 44/44/44 45/45/45
f 46/46/46 47/47/47 48/48/48
f 49/49/49 50/50/50 51/51/51
f 52/52/52 53/53/53 54/54/54
f 55/55/55 56/56/56 57/57/57
f 58/58/58 59/59/59 60/60/60
f 61/61/61 62/62/62 63/63/63
f 64/64/64 65/65/65 66/66/66
f 67/67/67 68/68/68 69/69/69
f 70/70/70 71/71/71 72/72/72
