g  Instance
v 1.021028 -51.81573 3.560222
v 0.6318737 -52.06607 3.544316
v 1.680137 -52.16332 2.876142
v 1.680137 -52.16332 2.876142
v 0.6318737 -52.06607 3.544316
v 1.735475 -53.2776 1.818783
v 1.735475 -53.2776 1.818783
v 0.6318737 -52.06607 3.544316
v 1.602072 -53.36261 1.814074
v 1.602072 -53.36261 1.814074
v 0.6318737 -52.06607 3.544316
v 0.534553 -52.20545 3.469594
v 2.164758 -50.55977 2.043457
v 2.09299 -50.80449 2.439133
v 2.293151 -50.6996 1.800424
v 2.380453 -50.87813 1.349036
v 1.090168 -50.34937 0.7862037
v 2.293151 -50.6996 1.800424
v 2.293151 -50.6996 1.800424
v 1.090168 -50.34937 0.7862037
v 2.164758 -50.55977 2.043457
v 2.164758 -50.55977 2.043457
v 1.090168 -50.34937 0.7862037
v 0.9507704 -50.06527 1.503673
v 0.7214494 -51.21287 3.338809
v 0.695133 -51.52878 3.492097
v 1.279648 -51.27894 3.335192
v 1.279648 -51.27894 3.335192
v 0.695133 -51.52878 3.492097
v 1.04035 -51.69239 3.548775
v -0.1832129 -52.35192 1.176227
v 0.5340852 -52.20523 3.469266
v -0.1392236 -51.76113 0.8720303
v -0.1392236 -51.76113 0.8720303
v 0.5340852 -52.20523 3.469266
v 0.5164554 -50.30049 1.953866
v 0.5164554 -50.30049 1.953866
v 0.5340852 -52.20523 3.469266
v 0.7214494 -51.21287 3.338809
v 0.7214494 -51.21287 3.338809
v 0.5340852 -52.20523 3.469266
v 0.695133 -51.52878 3.492097
v 0.695133 -51.52878 3.492097
v 0.5340852 -52.20523 3.469266
v 0.6072338 -51.96428 3.530326
v 0.9507704 -50.06527 1.503673
v 0.5164554 -50.30049 1.953866
v 2.164758 -50.55977 2.043457
v 2.164758 -50.55977 2.043457
v 0.5164554 -50.30049 1.953866
v 2.09299 -50.80449 2.439133
v 2.09299 -50.80449 2.439133
v 0.5164554 -50.30049 1.953866
v 2.022404 -50.90754 2.613465
v 2.022404 -50.90754 2.613465
v 0.5164554 -50.30049 1.953866
v 1.279648 -51.27894 3.335192
v 1.279648 -51.27894 3.335192
v 0.5164554 -50.30049 1.953866
v 0.7214494 -51.21287 3.338809
v 0.9507704 -50.06527 1.503673
v 1.090168 -50.34937 0.7862037
v 0.5164554 -50.30049 1.953866
v 0.5164554 -50.30049 1.953866
v 1.090168 -50.34937 0.7862037
v -0.1392236 -51.76113 0.8720303
v -0.1392236 -51.76113 0.8720303
v 1.090168 -50.34937 0.7862037
v -0.09728567 -51.80326 0.7252358
v -0.09728567 -51.80326 0.7252358
v 1.090168 -50.34937 0.7862037
v -0.03157892 -51.75447 0.6781613
v -0.0823088 -51.83456 0.6766581
v -0.07693077 -52.51947 0.8185867
v -0.09728567 -51.80326 0.7252358
v -0.09728567 -51.80326 0.7252358
v -0.07693077 -52.51947 0.8185867
v -0.1392236 -51.76113 0.8720303
v -0.1392236 -51.76113 0.8720303
v -0.07693077 -52.51947 0.8185867
v -0.1832129 -52.35192 1.176227
v 1.735475 -53.2776 1.818783
v 1.602072 -53.36261 1.814074
v 1.850887 -53.02202 1.600737
v 1.850887 -53.02202 1.600737
v 1.602072 -53.36261 1.814074
v 1.312123 -53.26624 1.460791
v 1.04035 -51.69239 3.548775
v 1.021028 -51.81573 3.560222
v 1.279648 -51.27894 3.335192
v 1.279648 -51.27894 3.335192
v 1.021028 -51.81573 3.560222
v 2.022404 -50.90754 2.613465
v 2.022404 -50.90754 2.613465
v 1.021028 -51.81573 3.560222
v 1.680137 -52.16332 2.876142
v 0.695133 -51.52878 3.492097
v 0.6072338 -51.96428 3.530326
v 1.04035 -51.69239 3.548775
v 1.04035 -51.69239 3.548775
v 0.6072338 -51.96428 3.530326
v 1.021028 -51.81573 3.560222
v 1.021028 -51.81573 3.560222
v 0.6072338 -51.96428 3.530326
v 0.6318737 -52.06607 3.544316
v 0.534553 -52.20545 3.469594
v 0.5340852 -52.20523 3.469266
v 1.602072 -53.36261 1.814074
v 1.602072 -53.36261 1.814074
v 0.5340852 -52.20523 3.469266
v 1.312123 -53.26624 1.460791
v 1.312123 -53.26624 1.460791
v 0.5340852 -52.20523 3.469266
v -0.07693077 -52.51947 0.8185867
v -0.07693077 -52.51947 0.8185867
v 0.5340852 -52.20523 3.469266
v -0.1832129 -52.35192 1.176227
v -0.07693077 -52.51947 0.8185867
v -0.0823088 -51.83456 0.6766581
v 1.312123 -53.26624 1.460791
v 1.312123 -53.26624 1.460791
v -0.0823088 -51.83456 0.6766581
v 1.850887 -53.02202 1.600737
v 1.850887 -53.02202 1.600737
v -0.0823088 -51.83456 0.6766581
v 2.380453 -50.87813 1.349036
v 2.380453 -50.87813 1.349036
v -0.0823088 -51.83456 0.6766581
v 1.090168 -50.34937 0.7862037
v 1.090168 -50.34937 0.7862037
v -0.0823088 -51.83456 0.6766581
v -0.03157892 -51.75447 0.6781613
v 2.293151 -50.6996 1.800424
v 2.09299 -50.80449 2.439133
v 2.380453 -50.87813 1.349036
v 2.380453 -50.87813 1.349036
v 2.09299 -50.80449 2.439133
v 1.850887 -53.02202 1.600737
v 1.850887 -53.02202 1.600737
v 2.09299 -50.80449 2.439133
v 1.735475 -53.2776 1.818783
v 1.735475 -53.2776 1.818783
v 2.09299 -50.80449 2.439133
v 1.680137 -52.16332 2.876142
v 1.680137 -52.16332 2.876142
v 2.09299 -50.80449 2.439133
v 2.022404 -50.90754 2.613465
v -0.09728567 -51.80326 0.7252358
v -0.03157892 -51.75447 0.6781613
v -0.0823088 -51.83456 0.6766581
v 0.6072338 -51.96428 3.530326
v 0.5340852 -52.20523 3.469266
v 0.6318737 -52.06607 3.544316
v 0.6318737 -52.06607 3.544316
v 0.5340852 -52.20523 3.469266
v 0.534553 -52.20545 3.469594

vn 0.3760789 -0.6279063 0.6813945
vn 0.3760789 -0.6279063 0.6813945
vn 0.3760789 -0.6279063 0.6813945
vn 0.3760789 -0.6279063 0.6813945
vn 0.3760789 -0.6279063 0.6813945
vn 0.3760789 -0.6279063 0.6813945
vn 0.3760789 -0.6279063 0.6813945
vn 0.3760789 -0.6279063 0.6813945
vn 0.3760789 -0.6279063 0.6813945
vn 0.3760789 -0.6279063 0.6813945
vn 0.3760789 -0.6279063 0.6813945
vn 0.3760789 -0.6279063 0.6813945
vn 0.9072782 0.2636473 0.3276223
vn 0.9072782 0.2636473 0.3276223
vn 0.9072782 0.2636473 0.3276223
vn 0.4582292 0.853286 -0.2488559
vn 0.4582292 0.853286 -0.2488559
vn 0.4582292 0.853286 -0.2488559
vn 0.4582292 0.853286 -0.2488559
vn 0.4582292 0.853286 -0.2488559
vn 0.4582292 0.853286 -0.2488559
vn 0.4582292 0.853286 -0.2488559
vn 0.4582292 0.853286 -0.2488559
vn 0.4582292 0.853286 -0.2488559
vn 0.056965 0.4319962 0.9000747
vn 0.056965 0.4319962 0.9000747
vn 0.056965 0.4319962 0.9000747
vn 0.056965 0.4319962 0.9000747
vn 0.056965 0.4319962 0.9000747
vn 0.056965 0.4319962 0.9000747
vn -0.936204 0.2134688 0.2792009
vn -0.936204 0.2134688 0.2792009
vn -0.936204 0.2134688 0.2792009
vn -0.936204 0.2134688 0.2792009
vn -0.936204 0.2134688 0.2792009
vn -0.936204 0.2134688 0.2792009
vn -0.936204 0.2134688 0.2792009
vn -0.936204 0.2134688 0.2792009
vn -0.936204 0.2134688 0.2792009
vn -0.936204 0.2134688 0.2792009
vn -0.936204 0.2134688 0.2792009
vn -0.936204 0.2134688 0.2792009
vn -0.936204 0.2134688 0.2792009
vn -0.936204 0.2134688 0.2792009
vn -0.936204 0.2134688 0.2792009
vn 0.1025979 0.8375793 0.5365954
vn 0.1025979 0.8375793 0.5365954
vn 0.1025979 0.8375793 0.5365954
vn 0.1025979 0.8375793 0.5365954
vn 0.1025979 0.8375793 0.5365954
vn 0.1025979 0.8375793 0.5365954
vn 0.1025979 0.8375793 0.5365954
vn 0.1025979 0.8375793 0.5365954
vn 0.1025979 0.8375793 0.5365954
vn 0.1025979 0.8375793 0.5365954
vn 0.1025979 0.8375793 0.5365954
vn 0.1025979 0.8375793 0.5365954
vn 0.1025979 0.8375793 0.5365954
vn 0.1025979 0.8375793 0.5365954
vn 0.1025979 0.8375793 0.5365954
vn -0.7105321 0.5960072 -0.3740581
vn -0.7105321 0.5960072 -0.3740581
vn -0.7105321 0.5960072 -0.3740581
vn -0.7105321 0.5960072 -0.3740581
vn -0.7105321 0.5960072 -0.3740581
vn -0.7105321 0.5960072 -0.3740581
vn -0.7105321 0.5960072 -0.3740581
vn -0.7105321 0.5960072 -0.3740581
vn -0.7105321 0.5960072 -0.3740581
vn -0.7105321 0.5960072 -0.3740581
vn -0.7105321 0.5960072 -0.3740581
vn -0.7105321 0.5960072 -0.3740581
vn -0.9642273 -0.06102662 -0.2579565
vn -0.9642273 -0.06102662 -0.2579565
vn -0.9642273 -0.06102662 -0.2579565
vn -0.9642273 -0.06102662 -0.2579565
vn -0.9642273 -0.06102662 -0.2579565
vn -0.9642273 -0.06102662 -0.2579565
vn -0.9642273 -0.06102662 -0.2579565
vn -0.9642273 -0.06102662 -0.2579565
vn -0.9642273 -0.06102662 -0.2579565
vn 0.4580332 -0.6875383 -0.5634685
vn 0.4580332 -0.6875383 -0.5634685
vn 0.4580332 -0.6875383 -0.5634685
vn 0.4580332 -0.6875383 -0.5634685
vn 0.4580332 -0.6875383 -0.5634685
vn 0.4580332 -0.6875383 -0.5634685
vn 0.7077556 -0.0454274 0.7049953
vn 0.7077556 -0.0454274 0.7049953
vn 0.7077556 -0.0454274 0.7049953
vn 0.7077556 -0.0454274 0.7049953
vn 0.7077556 -0.0454274 0.7049953
vn 0.7077556 -0.0454274 0.7049953
vn 0.7077556 -0.0454274 0.7049953
vn 0.7077556 -0.0454274 0.7049953
vn 0.7077556 -0.0454274 0.7049953
vn -0.1105251 0.1090035 0.9878778
vn -0.1105251 0.1090035 0.9878778
vn -0.1105251 0.1090035 0.9878778
vn -0.1105251 0.1090035 0.9878778
vn -0.1105251 0.1090035 0.9878778
vn -0.1105251 0.1090035 0.9878778
vn -0.1105251 0.1090035 0.9878778
vn -0.1105251 0.1090035 0.9878778
vn -0.1105251 0.1090035 0.9878778
vn -0.5390133 -0.8128884 0.2206293
vn -0.5390133 -0.8128884 0.2206293
vn -0.5390133 -0.8128884 0.2206293
vn -0.5390133 -0.8128884 0.2206293
vn -0.5390133 -0.8128884 0.2206293
vn -0.5390133 -0.8128884 0.2206293
vn -0.5390133 -0.8128884 0.2206293
vn -0.5390133 -0.8128884 0.2206293
vn -0.5390133 -0.8128884 0.2206293
vn -0.5390133 -0.8128884 0.2206293
vn -0.5390133 -0.8128884 0.2206293
vn -0.5390133 -0.8128884 0.2206293
vn 0.3263678 -0.1893463 -0.9260843
vn 0.3263678 -0.1893463 -0.9260843
vn 0.3263678 -0.1893463 -0.9260843
vn 0.3263678 -0.1893463 -0.9260843
vn 0.3263678 -0.1893463 -0.9260843
vn 0.3263678 -0.1893463 -0.9260843
vn 0.3263678 -0.1893463 -0.9260843
vn 0.3263678 -0.1893463 -0.9260843
vn 0.3263678 -0.1893463 -0.9260843
vn 0.3263678 -0.1893463 -0.9260843
vn 0.3263678 -0.1893463 -0.9260843
vn 0.3263678 -0.1893463 -0.9260843
vn 0.3263678 -0.1893463 -0.9260843
vn 0.3263678 -0.1893463 -0.9260843
vn 0.3263678 -0.1893463 -0.9260843
vn 0.9435052 -0.2022401 0.2624826
vn 0.9435052 -0.2022401 0.2624826
vn 0.9435052 -0.2022401 0.2624826
vn 0.9435052 -0.2022401 0.2624826
vn 0.9435052 -0.2022401 0.2624826
vn 0.9435052 -0.2022401 0.2624826
vn 0.9435052 -0.2022401 0.2624826
vn 0.9435052 -0.2022401 0.2624826
vn 0.9435052 -0.2022401 0.2624826
vn 0.9435052 -0.2022401 0.2624826
vn 0.9435052 -0.2022401 0.2624826
vn 0.9435052 -0.2022401 0.2624826
vn 0.9435052 -0.2022401 0.2624826
vn 0.9435052 -0.2022401 0.2624826
vn 0.9435052 -0.2022401 0.2624826
vn -0.7171037 0.4639783 -0.5200831
vn -0.7171037 0.4639783 -0.5200831
vn -0.7171037 0.4639783 -0.5200831
vn -0.5820584 -0.02922313 0.8126218
vn -0.5820584 -0.02922313 0.8126218
vn -0.5820584 -0.02922313 0.8126218
vn -0.5820584 -0.02922313 0.8126218
vn -0.5820584 -0.02922313 0.8126218
vn -0.5820584 -0.02922313 0.8126218

vt 0.4998101 0.288762
vt 0.5619324 0.2916778
vt 0.4478509 0.4143005
vt 0.4478509 0.4143005
vt 0.5619324 0.2916778
vt 0.5183831 0.6083461
vt 0.5183831 0.6083461
vt 0.5619324 0.2916778
vt 0.5396187 0.6092086
vt 0.5396187 0.6092086
vt 0.5619324 0.2916778
vt 0.5827649 0.3053895
vt 0.4098612 0.4763244
vt 0.4322312 0.4327516
vt 0.4275622 0.5030869
vt 0.5714955 0.4625752
vt 0.4307264 0.5215567
vt 0.5551164 0.4152662
vt 0.5551164 0.4152662
vt 0.4307264 0.5215567
vt 0.5369185 0.3897975
vt 0.5369185 0.3897975
vt 0.4307264 0.5215567
vt 0.4046156 0.4463695
vt 0.4546481 0.5209942
vt 0.4200712 0.5235912
vt 0.4489338 0.465941
vt 0.4489338 0.465941
vt 0.4200712 0.5235912
vt 0.4031342 0.4895392
vt 0.3961354 0.5434111
vt 0.4271075 0.2989204
vt 0.4561107 0.5758411
vt 0.4561107 0.5758411
vt 0.4271075 0.2989204
vt 0.6168357 0.4604938
vt 0.6168357 0.4604938
vt 0.4271075 0.2989204
vt 0.5304306 0.312829
vt 0.5304306 0.312829
vt 0.4271075 0.2989204
vt 0.4982913 0.2964875
vt 0.4982913 0.2964875
vt 0.4271075 0.2989204
vt 0.4528199 0.2924091
vt 0.4574983 0.5817383
vt 0.4106065 0.5195878
vt 0.6048818 0.5072215
vt 0.6048818 0.5072215
vt 0.4106065 0.5195878
vt 0.600044 0.4525949
vt 0.600044 0.4525949
vt 0.4106065 0.5195878
vt 0.5933405 0.4285232
vt 0.5933405 0.4285232
vt 0.4106065 0.5195878
vt 0.5127202 0.3288799
vt 0.5127202 0.3288799
vt 0.4106065 0.5195878
vt 0.4472368 0.3283783
vt 0.6162919 0.4376925
vt 0.6027161 0.5197003
vt 0.5676047 0.3862348
vt 0.5676047 0.3862348
vt 0.6027161 0.5197003
vt 0.4043109 0.5098935
vt 0.4043109 0.5098935
vt 0.6027161 0.5197003
vt 0.4037483 0.5266663
vt 0.4037483 0.5266663
vt 0.6027161 0.5197003
vt 0.4121863 0.5320479
vt 0.4823388 0.5334355
vt 0.4127535 0.5184815
vt 0.4856156 0.5283164
vt 0.4856156 0.5283164
vt 0.4127535 0.5184815
vt 0.4901627 0.5128562
vt 0.4901627 0.5128562
vt 0.4127535 0.5184815
vt 0.4304499 0.48082
vt 0.5249553 0.3358131
vt 0.543772 0.3364929
vt 0.4966599 0.3672259
vt 0.4966599 0.3672259
vt 0.543772 0.3364929
vt 0.5661327 0.3873833
vt 0.4901627 0.2813459
vt 0.5073949 0.2791099
vt 0.430853 0.3230906
vt 0.430853 0.3230906
vt 0.5073949 0.2791099
vt 0.3728794 0.4641596
vt 0.3728794 0.4641596
vt 0.5073949 0.2791099
vt 0.5496224 0.4128145
vt 0.4843077 0.4915737
vt 0.4410677 0.5003211
vt 0.4676098 0.457217
vt 0.4676098 0.457217
vt 0.4410677 0.5003211
vt 0.455356 0.459139
vt 0.455356 0.459139
vt 0.4410677 0.5003211
vt 0.4309093 0.4978741
vt 0.5029228 0.3039504
vt 0.502979 0.3039879
vt 0.3487983 0.4750353
vt 0.3487983 0.4750353
vt 0.502979 0.3039879
vt 0.3785234 0.5115436
vt 0.3785234 0.5115436
vt 0.502979 0.3039879
vt 0.5367966 0.577913
vt 0.5367966 0.577913
vt 0.502979 0.3039879
vt 0.5550602 0.5409547
vt 0.5598417 0.6180217
vt 0.4870969 0.6186123
vt 0.6493125 0.4651862
vt 0.6493125 0.4651862
vt 0.4870969 0.6186123
vt 0.6273456 0.4059047
vt 0.6273456 0.4059047
vt 0.4870969 0.6186123
vt 0.4036452 0.3476357
vt 0.4036452 0.3476357
vt 0.4870969 0.6186123
vt 0.3380445 0.4896048
vt 0.3380445 0.4896048
vt 0.4870969 0.6186123
vt 0.4789683 0.6130338
vt 0.3643007 0.4798121
vt 0.379025 0.4123738
vt 0.3802251 0.5274727
vt 0.3802251 0.5274727
vt 0.379025 0.4123738
vt 0.6051068 0.5009024
vt 0.6051068 0.5009024
vt 0.379025 0.4123738
vt 0.6330272 0.477876
vt 0.6330272 0.477876
vt 0.379025 0.4123738
vt 0.5232115 0.3662368
vt 0.5232115 0.3662368
vt 0.379025 0.4123738
vt 0.3908007 0.3939696
vt 0.4083095 0.5050276
vt 0.4171366 0.5113655
vt 0.4062235 0.5115718
vt 0.4472227 0.3423291
vt 0.4072548 0.3600067
vt 0.4298639 0.3382789
vt 0.4298639 0.3382789
vt 0.4072548 0.3600067
vt 0.4072126 0.359913

usemtl Material0
usemap Material0

usemtl Material1
usemap Material1
f 1/1/1 2/2/2 3/3/3
f 4/4/4 5/5/5 6/6/6
f 7/7/7 8/8/8 9/9/9
f 10/10/10 11/11/11 12/12/12
f 13/13/13 14/14/14 15/15/15
f 16/16/16 17/17/17 18/18/18
f 19/19/19 20/20/20 21/21/21
f 22/22/22 23/23/23 24/24/24
f 25/25/25 26/26/26 27/27/27
f 28/28/28 29/29/29 30/30/30
f 31/31/31 32/32/32 33/33/33
f 34/34/34 35/35/35 36/36/36
f 37/37/37 38/38/38 39/39/39
f 40/40/40 41/41/41 42/42/42
f 43/43/43 44/44/44 45/45/45
f 46/46/46 47/47/47 48/48/48
f 49/49/49 50/50/50 51/51/51
f 52/52/52 53/53/53 54/54/54
f 55/55/55 56/56/56 57/57/57
f 58/58/58 59/59/59 60/60/60
f 61/61/61 62/62/62 63/63/63
f 64/64/64 65/65/65 66/66/66
f 67/67/67 68/68/68 69/69/69
f 70/70/70 71/71/71 72/72/72
f 73/73/73 74/74/74 75/75/75
f 76/76/76 77/77/77 78/78/78
f 79/79/79 80/80/80 81/81/81
f 82/82/82 83/83/83 84/84/84
f 85/85/85 86/86/86 87/87/87
f 88/88/88 89/89/89 90/90/90
f 91/91/91 92/92/92 93/93/93
f 94/94/94 95/95/95 96/96/96
f 97/97/97 98/98/98 99/99/99
f 100/100/100 101/101/101 102/102/102
f 103/103/103 104/104/104 105/105/105
f 106/106/106 107/107/107 108/108/108
f 109/109/109 110/110/110 111/111/111
f 112/112/112 113/113/113 114/114/114
f 115/115/115 116/116/116 117/117/117
f 118/118/118 119/119/119 120/120/120
f 121/121/121 122/122/122 123/123/123
f 124/124/124 125/125/125 126/126/126
f 127/127/127 128/128/128 129/129/129
f 130/130/130 131/131/131 132/132/132
f 133/133/133 134/134/134 135/135/135
f 136/136/136 137/137/137 138/138/138
f 139/139/139 140/140/140 141/141/141
f 142/142/142 143/143/143 144/144/144
f 145/145/145 146/146/146 147/147/147
f 148/148/148 149/149/149 150/150/150
f 151/151/151 152/152/152 153/153/153
f 154/154/154 155/155/155 156/156/156
