g  Instance
v 3.898458 -45.77793 4.093529
v 4.26961 -45.15265 4.220803
v 3.986108 -46.4711 4.384249
v 3.986108 -46.4711 4.384249
v 4.26961 -45.15265 4.220803
v 4.043807 -46.40387 4.413329
v 4.043807 -46.40387 4.413329
v 4.26961 -45.15265 4.220803
v 4.302802 -45.24454 4.278009
v 3.986108 -46.4711 4.384249
v 4.043807 -46.40387 4.413329
v 3.205178 -47.48174 4.779223
v 3.205178 -47.48174 4.779223
v 4.043807 -46.40387 4.413329
v 3.492181 -47.29346 6.067123
v 3.492181 -47.29346 6.067123
v 4.043807 -46.40387 4.413329
v 4.654866 -45.94547 6.705192
v 4.654866 -45.94547 6.705192
v 4.043807 -46.40387 4.413329
v 4.688216 -45.89624 6.640777
v 3.74894 -44.39894 4.291579
v 3.169819 -45.1316 4.130143
v 3.873248 -43.79913 4.926949
v 3.873248 -43.79913 4.926949
v 3.169819 -45.1316 4.130143
v 2.846654 -44.22564 5.824766
v 2.846654 -44.22564 5.824766
v 3.169819 -45.1316 4.130143
v 1.999583 -45.00233 5.989001
v 1.999583 -45.00233 5.989001
v 3.169819 -45.1316 4.130143
v 2.136136 -45.83689 4.659742
v 2.136136 -45.83689 4.659742
v 3.169819 -45.1316 4.130143
v 2.175879 -46.0729 4.560285
v 2.175879 -46.0729 4.560285
v 3.169819 -45.1316 4.130143
v 2.186861 -46.1109 4.540983
v 2.186861 -46.1109 4.540983
v 3.169819 -45.1316 4.130143
v 2.80749 -45.96931 4.138281
v 2.80749 -45.96931 4.138281
v 3.169819 -45.1316 4.130143
v 3.065331 -45.69949 4.0344
v 2.744494 -47.0927 6.3525
v 2.656806 -47.37217 4.790093
v 3.423885 -47.24712 6.240632
v 3.423885 -47.24712 6.240632
v 2.656806 -47.37217 4.790093
v 3.492181 -47.29346 6.067123
v 3.492181 -47.29346 6.067123
v 2.656806 -47.37217 4.790093
v 3.205178 -47.48174 4.779223
v 3.205178 -47.48174 4.779223
v 2.656806 -47.37217 4.790093
v 2.696381 -47.39214 4.725785
v 2.627466 -47.3208 4.693976
v 2.696381 -47.39214 4.725785
v 2.656806 -47.37217 4.790093
v 4.631526 -43.84874 4.627009
v 4.720399 -44.03822 4.774844
v 4.458227 -44.10211 4.3975
v 4.458227 -44.10211 4.3975
v 4.720399 -44.03822 4.774844
v 4.26961 -45.15265 4.220803
v 4.26961 -45.15265 4.220803
v 4.720399 -44.03822 4.774844
v 4.302802 -45.24454 4.278009
v 2.23049 -45.22369 6.614904
v 2.101418 -45.21841 6.44847
v 2.534427 -46.31301 6.876781
v 2.477884 -46.9468 4.533881
v 2.186861 -46.1109 4.540983
v 2.80749 -45.96931 4.138281
v 4.458227 -44.10211 4.3975
v 4.26961 -45.15265 4.220803
v 3.74894 -44.39894 4.291579
v 3.74894 -44.39894 4.291579
v 4.26961 -45.15265 4.220803
v 3.169819 -45.1316 4.130143
v 3.169819 -45.1316 4.130143
v 4.26961 -45.15265 4.220803
v 3.065331 -45.69949 4.0344
v 3.065331 -45.69949 4.0344
v 4.26961 -45.15265 4.220803
v 3.898458 -45.77793 4.093529
v 3.423885 -47.24712 6.240632
v 3.53462 -46.42667 7.464848
v 2.744494 -47.0927 6.3525
v 2.744494 -47.0927 6.3525
v 3.53462 -46.42667 7.464848
v 2.666608 -46.65637 6.980388
v 2.846654 -44.22564 5.824766
v 1.999583 -45.00233 5.989001
v 2.56856 -45.07486 6.798909
v 2.56856 -45.07486 6.798909
v 1.999583 -45.00233 5.989001
v 2.23049 -45.22369 6.614904
v 2.23049 -45.22369 6.614904
v 1.999583 -45.00233 5.989001
v 2.101418 -45.21841 6.44847
v 2.101418 -45.21841 6.44847
v 1.999583 -45.00233 5.989001
v 2.012644 -45.07603 6.119147
v 4.458227 -44.10211 4.3975
v 3.74894 -44.39894 4.291579
v 4.631526 -43.84874 4.627009
v 4.631526 -43.84874 4.627009
v 3.74894 -44.39894 4.291579
v 3.873248 -43.79913 4.926949
v 2.846654 -44.22564 5.824766
v 2.56856 -45.07486 6.798909
v 3.873248 -43.79913 4.926949
v 3.873248 -43.79913 4.926949
v 2.56856 -45.07486 6.798909
v 4.631526 -43.84874 4.627009
v 4.631526 -43.84874 4.627009
v 2.56856 -45.07486 6.798909
v 4.720399 -44.03822 4.774844
v 4.720399 -44.03822 4.774844
v 2.56856 -45.07486 6.798909
v 4.688216 -45.89624 6.640777
v 4.688216 -45.89624 6.640777
v 2.56856 -45.07486 6.798909
v 4.654866 -45.94547 6.705192
v 4.654866 -45.94547 6.705192
v 2.56856 -45.07486 6.798909
v 3.648463 -46.29864 7.520664
v 4.688216 -45.89624 6.640777
v 4.043807 -46.40387 4.413329
v 4.720399 -44.03822 4.774844
v 4.720399 -44.03822 4.774844
v 4.043807 -46.40387 4.413329
v 4.302802 -45.24454 4.278009
v 2.175879 -46.0729 4.560285
v 2.012644 -45.07603 6.119147
v 2.136136 -45.83689 4.659742
v 2.136136 -45.83689 4.659742
v 2.012644 -45.07603 6.119147
v 1.999583 -45.00233 5.989001
v 2.744494 -47.0927 6.3525
v 2.666608 -46.65637 6.980388
v 2.656806 -47.37217 4.790093
v 2.656806 -47.37217 4.790093
v 2.666608 -46.65637 6.980388
v 2.627466 -47.3208 4.693976
v 2.627466 -47.3208 4.693976
v 2.666608 -46.65637 6.980388
v 2.477884 -46.9468 4.533881
v 2.477884 -46.9468 4.533881
v 2.666608 -46.65637 6.980388
v 2.186861 -46.1109 4.540983
v 2.186861 -46.1109 4.540983
v 2.666608 -46.65637 6.980388
v 2.175879 -46.0729 4.560285
v 2.175879 -46.0729 4.560285
v 2.666608 -46.65637 6.980388
v 2.012644 -45.07603 6.119147
v 2.012644 -45.07603 6.119147
v 2.666608 -46.65637 6.980388
v 2.101418 -45.21841 6.44847
v 2.101418 -45.21841 6.44847
v 2.666608 -46.65637 6.980388
v 2.534427 -46.31301 6.876781
v 3.065331 -45.69949 4.0344
v 3.898458 -45.77793 4.093529
v 2.80749 -45.96931 4.138281
v 2.80749 -45.96931 4.138281
v 3.898458 -45.77793 4.093529
v 2.477884 -46.9468 4.533881
v 2.477884 -46.9468 4.533881
v 3.898458 -45.77793 4.093529
v 2.627466 -47.3208 4.693976
v 2.627466 -47.3208 4.693976
v 3.898458 -45.77793 4.093529
v 2.696381 -47.39214 4.725785
v 2.696381 -47.39214 4.725785
v 3.898458 -45.77793 4.093529
v 3.205178 -47.48174 4.779223
v 3.205178 -47.48174 4.779223
v 3.898458 -45.77793 4.093529
v 3.986108 -46.4711 4.384249
v 4.654866 -45.94547 6.705192
v 3.648463 -46.29864 7.520664
v 3.492181 -47.29346 6.067123
v 3.492181 -47.29346 6.067123
v 3.648463 -46.29864 7.520664
v 3.423885 -47.24712 6.240632
v 3.423885 -47.24712 6.240632
v 3.648463 -46.29864 7.520664
v 3.53462 -46.42667 7.464848
v 2.23049 -45.22369 6.614904
v 2.534427 -46.31301 6.876781
v 2.56856 -45.07486 6.798909
v 2.56856 -45.07486 6.798909
v 2.534427 -46.31301 6.876781
v 3.648463 -46.29864 7.520664
v 3.648463 -46.29864 7.520664
v 2.534427 -46.31301 6.876781
v 3.53462 -46.42667 7.464848
v 3.53462 -46.42667 7.464848
v 2.534427 -46.31301 6.876781
v 2.666608 -46.65637 6.980388

vn 0.6370212 -0.2282518 -0.7362779
vn 0.6370212 -0.2282518 -0.7362779
vn 0.6370212 -0.2282518 -0.7362779
vn 0.6370212 -0.2282518 -0.7362779
vn 0.6370212 -0.2282518 -0.7362779
vn 0.6370212 -0.2282518 -0.7362779
vn 0.6370212 -0.2282518 -0.7362779
vn 0.6370212 -0.2282518 -0.7362779
vn 0.6370212 -0.2282518 -0.7362779
vn 0.7732872 -0.6289405 -0.08037996
vn 0.7732872 -0.6289405 -0.08037996
vn 0.7732872 -0.6289405 -0.08037996
vn 0.7732872 -0.6289405 -0.08037996
vn 0.7732872 -0.6289405 -0.08037996
vn 0.7732872 -0.6289405 -0.08037996
vn 0.7732872 -0.6289405 -0.08037996
vn 0.7732872 -0.6289405 -0.08037996
vn 0.7732872 -0.6289405 -0.08037996
vn 0.7732872 -0.6289405 -0.08037996
vn 0.7732872 -0.6289405 -0.08037996
vn 0.7732872 -0.6289405 -0.08037996
vn -0.6490673 0.6124713 -0.4512101
vn -0.6490673 0.6124713 -0.4512101
vn -0.6490673 0.6124713 -0.4512101
vn -0.6490673 0.6124713 -0.4512101
vn -0.6490673 0.6124713 -0.4512101
vn -0.6490673 0.6124713 -0.4512101
vn -0.6490673 0.6124713 -0.4512101
vn -0.6490673 0.6124713 -0.4512101
vn -0.6490673 0.6124713 -0.4512101
vn -0.6490673 0.6124713 -0.4512101
vn -0.6490673 0.6124713 -0.4512101
vn -0.6490673 0.6124713 -0.4512101
vn -0.5662878 0.2372624 -0.7893191
vn -0.5662878 0.2372624 -0.7893191
vn -0.5662878 0.2372624 -0.7893191
vn -0.5662878 0.2372624 -0.7893191
vn -0.5662878 0.2372624 -0.7893191
vn -0.5662878 0.2372624 -0.7893191
vn -0.5662878 0.2372624 -0.7893191
vn -0.5662878 0.2372624 -0.7893191
vn -0.5662878 0.2372624 -0.7893191
vn -0.5662878 0.2372624 -0.7893191
vn -0.5662878 0.2372624 -0.7893191
vn -0.5662878 0.2372624 -0.7893191
vn -0.1891212 -0.9647175 0.183176
vn -0.1891212 -0.9647175 0.183176
vn -0.1891212 -0.9647175 0.183176
vn -0.1891212 -0.9647175 0.183176
vn -0.1891212 -0.9647175 0.183176
vn -0.1891212 -0.9647175 0.183176
vn -0.1891212 -0.9647175 0.183176
vn -0.1891212 -0.9647175 0.183176
vn -0.1891212 -0.9647175 0.183176
vn -0.1891212 -0.9647175 0.183176
vn -0.1891212 -0.9647175 0.183176
vn -0.1891212 -0.9647175 0.183176
vn -0.6646211 -0.7241334 -0.1841459
vn -0.6646211 -0.7241334 -0.1841459
vn -0.6646211 -0.7241334 -0.1841459
vn 0.8242751 -0.05318493 -0.563686
vn 0.8242751 -0.05318493 -0.563686
vn 0.8242751 -0.05318493 -0.563686
vn 0.8242751 -0.05318493 -0.563686
vn 0.8242751 -0.05318493 -0.563686
vn 0.8242751 -0.05318493 -0.563686
vn 0.8242751 -0.05318493 -0.563686
vn 0.8242751 -0.05318493 -0.563686
vn 0.8242751 -0.05318493 -0.563686
vn -0.7892042 -0.07362686 0.6097015
vn -0.7892042 -0.07362686 0.6097015
vn -0.7892042 -0.07362686 0.6097015
vn -0.5088143 -0.1699767 -0.8439289
vn -0.5088143 -0.1699767 -0.8439289
vn -0.5088143 -0.1699767 -0.8439289
vn 0.08408709 0.1505832 -0.9850149
vn 0.08408709 0.1505832 -0.9850149
vn 0.08408709 0.1505832 -0.9850149
vn 0.08408709 0.1505832 -0.9850149
vn 0.08408709 0.1505832 -0.9850149
vn 0.08408709 0.1505832 -0.9850149
vn 0.08408709 0.1505832 -0.9850149
vn 0.08408709 0.1505832 -0.9850149
vn 0.08408709 0.1505832 -0.9850149
vn 0.08408709 0.1505832 -0.9850149
vn 0.08408709 0.1505832 -0.9850149
vn 0.08408709 0.1505832 -0.9850149
vn -0.0948507 -0.8229585 0.5601275
vn -0.0948507 -0.8229585 0.5601275
vn -0.0948507 -0.8229585 0.5601275
vn -0.0948507 -0.8229585 0.5601275
vn -0.0948507 -0.8229585 0.5601275
vn -0.0948507 -0.8229585 0.5601275
vn -0.5537978 0.6994858 0.4516943
vn -0.5537978 0.6994858 0.4516943
vn -0.5537978 0.6994858 0.4516943
vn -0.5537978 0.6994858 0.4516943
vn -0.5537978 0.6994858 0.4516943
vn -0.5537978 0.6994858 0.4516943
vn -0.5537978 0.6994858 0.4516943
vn -0.5537978 0.6994858 0.4516943
vn -0.5537978 0.6994858 0.4516943
vn -0.5537978 0.6994858 0.4516943
vn -0.5537978 0.6994858 0.4516943
vn -0.5537978 0.6994858 0.4516943
vn -0.2090092 0.7311771 -0.6493807
vn -0.2090092 0.7311771 -0.6493807
vn -0.2090092 0.7311771 -0.6493807
vn -0.2090092 0.7311771 -0.6493807
vn -0.2090092 0.7311771 -0.6493807
vn -0.2090092 0.7311771 -0.6493807
vn 0.3102527 0.670953 0.6734726
vn 0.3102527 0.670953 0.6734726
vn 0.3102527 0.670953 0.6734726
vn 0.3102527 0.670953 0.6734726
vn 0.3102527 0.670953 0.6734726
vn 0.3102527 0.670953 0.6734726
vn 0.3102527 0.670953 0.6734726
vn 0.3102527 0.670953 0.6734726
vn 0.3102527 0.670953 0.6734726
vn 0.3102527 0.670953 0.6734726
vn 0.3102527 0.670953 0.6734726
vn 0.3102527 0.670953 0.6734726
vn 0.3102527 0.670953 0.6734726
vn 0.3102527 0.670953 0.6734726
vn 0.3102527 0.670953 0.6734726
vn 0.3102527 0.670953 0.6734726
vn 0.3102527 0.670953 0.6734726
vn 0.3102527 0.670953 0.6734726
vn 0.9463118 -0.2370733 -0.2197505
vn 0.9463118 -0.2370733 -0.2197505
vn 0.9463118 -0.2370733 -0.2197505
vn 0.9463118 -0.2370733 -0.2197505
vn 0.9463118 -0.2370733 -0.2197505
vn 0.9463118 -0.2370733 -0.2197505
vn -0.985835 -0.1676711 0.003992065
vn -0.985835 -0.1676711 0.003992065
vn -0.985835 -0.1676711 0.003992065
vn -0.985835 -0.1676711 0.003992065
vn -0.985835 -0.1676711 0.003992065
vn -0.985835 -0.1676711 0.003992065
vn -0.9382383 -0.3276129 0.11126
vn -0.9382383 -0.3276129 0.11126
vn -0.9382383 -0.3276129 0.11126
vn -0.9382383 -0.3276129 0.11126
vn -0.9382383 -0.3276129 0.11126
vn -0.9382383 -0.3276129 0.11126
vn -0.9382383 -0.3276129 0.11126
vn -0.9382383 -0.3276129 0.11126
vn -0.9382383 -0.3276129 0.11126
vn -0.9382383 -0.3276129 0.11126
vn -0.9382383 -0.3276129 0.11126
vn -0.9382383 -0.3276129 0.11126
vn -0.9382383 -0.3276129 0.11126
vn -0.9382383 -0.3276129 0.11126
vn -0.9382383 -0.3276129 0.11126
vn -0.9382383 -0.3276129 0.11126
vn -0.9382383 -0.3276129 0.11126
vn -0.9382383 -0.3276129 0.11126
vn -0.9382383 -0.3276129 0.11126
vn -0.9382383 -0.3276129 0.11126
vn -0.9382383 -0.3276129 0.11126
vn -0.9382383 -0.3276129 0.11126
vn -0.9382383 -0.3276129 0.11126
vn -0.9382383 -0.3276129 0.11126
vn 0.02938385 -0.3834647 -0.923088
vn 0.02938385 -0.3834647 -0.923088
vn 0.02938385 -0.3834647 -0.923088
vn 0.02938385 -0.3834647 -0.923088
vn 0.02938385 -0.3834647 -0.923088
vn 0.02938385 -0.3834647 -0.923088
vn 0.02938385 -0.3834647 -0.923088
vn 0.02938385 -0.3834647 -0.923088
vn 0.02938385 -0.3834647 -0.923088
vn 0.02938385 -0.3834647 -0.923088
vn 0.02938385 -0.3834647 -0.923088
vn 0.02938385 -0.3834647 -0.923088
vn 0.02938385 -0.3834647 -0.923088
vn 0.02938385 -0.3834647 -0.923088
vn 0.02938385 -0.3834647 -0.923088
vn 0.02938385 -0.3834647 -0.923088
vn 0.02938385 -0.3834647 -0.923088
vn 0.02938385 -0.3834647 -0.923088
vn 0.5820769 -0.6988294 0.4157211
vn 0.5820769 -0.6988294 0.4157211
vn 0.5820769 -0.6988294 0.4157211
vn 0.5820769 -0.6988294 0.4157211
vn 0.5820769 -0.6988294 0.4157211
vn 0.5820769 -0.6988294 0.4157211
vn 0.5820769 -0.6988294 0.4157211
vn 0.5820769 -0.6988294 0.4157211
vn 0.5820769 -0.6988294 0.4157211
vn -0.4998986 0.06808968 0.8634033
vn -0.4998986 0.06808968 0.8634033
vn -0.4998986 0.06808968 0.8634033
vn -0.4998986 0.06808968 0.8634033
vn -0.4998986 0.06808968 0.8634033
vn -0.4998986 0.06808968 0.8634033
vn -0.4998986 0.06808968 0.8634033
vn -0.4998986 0.06808968 0.8634033
vn -0.4998986 0.06808968 0.8634033
vn -0.4998986 0.06808968 0.8634033
vn -0.4998986 0.06808968 0.8634033
vn -0.4998986 0.06808968 0.8634033

vt 0.5525007 0.5468706
vt 0.4487931 0.519541
vt 0.6430027 0.4844483
vt 0.6430027 0.4844483
vt 0.4487931 0.519541
vt 0.6309834 0.4782042
vt 0.6309834 0.4782042
vt 0.4487931 0.519541
vt 0.4597344 0.507259
vt 0.5529132 0.5879543
vt 0.5441752 0.585076
vt 0.6788361 0.548877
vt 0.6788361 0.548877
vt 0.5441752 0.585076
vt 0.6465655 0.42144
vt 0.6465655 0.42144
vt 0.5441752 0.585076
vt 0.4710694 0.3583004
vt 0.4710694 0.3583004
vt 0.5441752 0.585076
vt 0.4652284 0.3646758
vt 0.5787709 0.5982018
vt 0.4762822 0.6181341
vt 0.6362243 0.5197753
vt 0.6362243 0.5197753
vt 0.4762822 0.6181341
vt 0.5244397 0.4089424
vt 0.5244397 0.4089424
vt 0.4762822 0.6181341
vt 0.3981652 0.3886678
vt 0.3981652 0.3886678
vt 0.4762822 0.6181341
vt 0.341626 0.5527585
vt 0.3095616 0.4668551
vt 0.4776792 0.6049709
vt 0.2771645 0.4927925
vt 0.2771645 0.4927925
vt 0.4776792 0.6049709
vt 0.2722329 0.4978272
vt 0.2722329 0.4978272
vt 0.4776792 0.6049709
vt 0.3315473 0.6028426
vt 0.3315473 0.6028426
vt 0.4776792 0.6049709
vt 0.3873458 0.6299286
vt 0.5099451 0.4427928
vt 0.5131702 0.6017269
vt 0.4402989 0.45417
vt 0.4402989 0.45417
vt 0.5131702 0.6017269
vt 0.4327047 0.4718194
vt 0.4327047 0.4718194
vt 0.5131702 0.6017269
vt 0.4572499 0.6028239
vt 0.4572499 0.6028239
vt 0.5131702 0.6017269
vt 0.5089044 0.6082711
vt 0.3931493 0.529554
vt 0.3832487 0.5263194
vt 0.3875146 0.5197753
vt 0.3291284 0.4936082
vt 0.3509547 0.4723023
vt 0.3605505 0.5266758
vt 0.3605505 0.5266758
vt 0.3509547 0.4723023
vt 0.4867734 0.5521303
vt 0.4867734 0.5521303
vt 0.3509547 0.4723023
vt 0.4974381 0.5438892
vt 0.489633 0.4633955
vt 0.4917753 0.4894361
vt 0.3516062 0.4224197
vt 0.2219284 0.3685479
vt 0.3841206 0.3661243
vt 0.3726965 0.5036869
vt 0.4085439 0.3808486
vt 0.5136297 0.3995246
vt 0.4390707 0.4510714
vt 0.4390707 0.4510714
vt 0.5136297 0.3995246
vt 0.5129265 0.5084122
vt 0.5129265 0.5084122
vt 0.5136297 0.3995246
vt 0.5697423 0.5187534
vt 0.5697423 0.5187534
vt 0.5136297 0.3995246
vt 0.5765114 0.4362721
vt 0.4505979 0.5561056
vt 0.4486853 0.3807361
vt 0.5327933 0.5400828
vt 0.5327933 0.5400828
vt 0.4486853 0.3807361
vt 0.5478973 0.4501432
vt 0.5086887 0.5070715
vt 0.3823815 0.4867828
vt 0.4265731 0.3867552
vt 0.4265731 0.3867552
vt 0.3823815 0.4867828
vt 0.3871864 0.4094815
vt 0.3871864 0.4094815
vt 0.3823815 0.4867828
vt 0.3763952 0.4300373
vt 0.3763952 0.4300373
vt 0.3823815 0.4867828
vt 0.3784672 0.4707084
vt 0.6654853 0.5412735
vt 0.5667796 0.5592839
vt 0.6960309 0.5022618
vt 0.6960309 0.5022618
vt 0.5667796 0.5592839
vt 0.6035411 0.4512729
vt 0.3809704 0.5112998
vt 0.3948041 0.3360429
vt 0.4810872 0.6728311
vt 0.4810872 0.6728311
vt 0.3948041 0.3360429
vt 0.5753958 0.7267967
vt 0.5753958 0.7267967
vt 0.3948041 0.3360429
vt 0.596697 0.7001982
vt 0.596697 0.7001982
vt 0.3948041 0.3360429
vt 0.6965184 0.3644929
vt 0.6965184 0.3644929
vt 0.3948041 0.3360429
vt 0.6952433 0.3529048
vt 0.6952433 0.3529048
vt 0.3948041 0.3360429
vt 0.5934624 0.2061916
vt 0.5327839 0.3436464
vt 0.5981783 0.573741
vt 0.350364 0.5363982
vt 0.350364 0.5363982
vt 0.5981783 0.573741
vt 0.4785183 0.5877199
vt 0.4165131 0.5819258
vt 0.5158142 0.4286685
vt 0.440041 0.5721471
vt 0.440041 0.5721471
vt 0.5158142 0.4286685
vt 0.523174 0.4414614
vt 0.3247969 0.4185289
vt 0.3680838 0.3560268
vt 0.3015549 0.5740504
vt 0.3015549 0.5740504
vt 0.3680838 0.3560268
vt 0.3073068 0.5836134
vt 0.3073068 0.5836134
vt 0.3680838 0.3560268
vt 0.3471154 0.5995518
vt 0.3471154 0.5995518
vt 0.3680838 0.3560268
vt 0.4346782 0.5988393
vt 0.4346782 0.5988393
vt 0.3680838 0.3560268
vt 0.4385878 0.5969267
vt 0.4385878 0.5969267
vt 0.3680838 0.3560268
vt 0.5370029 0.4417615
vt 0.5370029 0.4417615
vt 0.3680838 0.3560268
vt 0.5208113 0.4089799
vt 0.5208113 0.4089799
vt 0.3680838 0.3560268
vt 0.4044656 0.3663446
vt 0.483928 0.5115155
vt 0.4932847 0.4295357
vt 0.5123546 0.5368857
vt 0.5123546 0.5368857
vt 0.4932847 0.4295357
vt 0.6160668 0.5693251
vt 0.6160668 0.5693251
vt 0.4932847 0.4295357
vt 0.6560723 0.5546055
vt 0.6560723 0.5546055
vt 0.4932847 0.4295357
vt 0.6637415 0.5478269
vt 0.6637415 0.5478269
vt 0.4932847 0.4295357
vt 0.6739045 0.4977616
vt 0.6739045 0.4977616
vt 0.4932847 0.4295357
vt 0.5672109 0.4209149
vt 0.4375471 0.4370362
vt 0.5455722 0.3401118
vt 0.6273643 0.5128655
vt 0.6273643 0.5128655
vt 0.5455722 0.3401118
vt 0.6298301 0.4922394
vt 0.6298301 0.4922394
vt 0.5455722 0.3401118
vt 0.5638826 0.346745
vt 0.4405145 0.5613183
vt 0.2381856 0.460175
vt 0.4781432 0.4902611
vt 0.4781432 0.4902611
vt 0.2381856 0.460175
vt 0.27025 0.2114888
vt 0.27025 0.2114888
vt 0.2381856 0.460175
vt 0.2425359 0.2330478
vt 0.2425359 0.2330478
vt 0.2381856 0.460175
vt 0.1753695 0.4201602

usemtl Material0
usemap Material0

usemtl Material1
usemap Material1
f 1/1/1 2/2/2 3/3/3
f 4/4/4 5/5/5 6/6/6
f 7/7/7 8/8/8 9/9/9
f 10/10/10 11/11/11 12/12/12
f 13/13/13 14/14/14 15/15/15
f 16/16/16 17/17/17 18/18/18
f 19/19/19 20/20/20 21/21/21
f 22/22/22 23/23/23 24/24/24
f 25/25/25 26/26/26 27/27/27
f 28/28/28 29/29/29 30/30/30
f 31/31/31 32/32/32 33/33/33
f 34/34/34 35/35/35 36/36/36
f 37/37/37 38/38/38 39/39/39
f 40/40/40 41/41/41 42/42/42
f 43/43/43 44/44/44 45/45/45
f 46/46/46 47/47/47 48/48/48
f 49/49/49 50/50/50 51/51/51
f 52/52/52 53/53/53 54/54/54
f 55/55/55 56/56/56 57/57/57
f 58/58/58 59/59/59 60/60/60
f 61/61/61 62/62/62 63/63/63
f 64/64/64 65/65/65 66/66/66
f 67/67/67 68/68/68 69/69/69
f 70/70/70 71/71/71 72/72/72
f 73/73/73 74/74/74 75/75/75
f 76/76/76 77/77/77 78/78/78
f 79/79/79 80/80/80 81/81/81
f 82/82/82 83/83/83 84/84/84
f 85/85/85 86/86/86 87/87/87
f 88/88/88 89/89/89 90/90/90
f 91/91/91 92/92/92 93/93/93
f 94/94/94 95/95/95 96/96/96
f 97/97/97 98/98/98 99/99/99
f 100/100/100 101/101/101 102/102/102
f 103/103/103 104/104/104 105/105/105
f 106/106/106 107/107/107 108/108/108
f 109/109/109 110/110/110 111/111/111
f 112/112/112 113/113/113 114/114/114
f 115/115/115 116/116/116 117/117/117
f 118/118/118 119/119/119 120/120/120
f 121/121/121 122/122/122 123/123/123
f 124/124/124 125/125/125 126/126/126
f 127/127/127 128/128/128 129/129/129
f 130/130/130 131/131/131 132/132/132
f 133/133/133 134/134/134 135/135/135
f 136/136/136 137/137/137 138/138/138
f 139/139/139 140/140/140 141/141/141
f 142/142/142 143/143/143 144/144/144
f 145/145/145 146/146/146 147/147/147
f 148/148/148 149/149/149 150/150/150
f 151/151/151 152/152/152 153/153/153
f 154/154/154 155/155/155 156/156/156
f 157/157/157 158/158/158 159/159/159
f 160/160/160 161/161/161 162/162/162
f 163/163/163 164/164/164 165/165/165
f 166/166/166 167/167/167 168/168/168
f 169/169/169 170/170/170 171/171/171
f 172/172/172 173/173/173 174/174/174
f 175/175/175 176/176/176 177/177/177
f 178/178/178 179/179/179 180/180/180
f 181/181/181 182/182/182 183/183/183
f 184/184/184 185/185/185 186/186/186
f 187/187/187 188/188/188 189/189/189
f 190/190/190 191/191/191 192/192/192
f 193/193/193 194/194/194 195/195/195
f 196/196/196 197/197/197 198/198/198
f 199/199/199 200/200/200 201/201/201
f 202/202/202 203/203/203 204/204/204
