g  Instance
v -8.767269 -48.85625 -4.612636
v -8.406727 -48.47306 -5.195709
v -8.466475 -49.38764 -5.232635
v -8.767269 -48.85625 -4.612636
v -8.892746 -48.57638 -4.262341
v -8.406727 -48.47306 -5.195709
v -8.406727 -48.47306 -5.195709
v -8.892746 -48.57638 -4.262341
v -8.775745 -47.81221 -4.223376
v -8.716791 -47.53305 -4.197127
v -8.127293 -47.04762 -5.023007
v -8.775745 -47.81221 -4.223376
v -8.775745 -47.81221 -4.223376
v -8.127293 -47.04762 -5.023007
v -8.406727 -48.47306 -5.195709
v -8.565269 -46.99854 -4.118233
v -8.322578 -46.59015 -4.310048
v -8.716791 -47.53305 -4.197127
v -8.716791 -47.53305 -4.197127
v -8.322578 -46.59015 -4.310048
v -8.127293 -47.04762 -5.023007
v -8.127293 -47.04762 -5.023007
v -8.322578 -46.59015 -4.310048
v -7.878992 -46.28801 -4.869547
v -7.878992 -46.28801 -4.869547
v -8.322578 -46.59015 -4.310048
v -8.210575 -46.43573 -4.389574
v -8.210575 -46.43573 -4.389574
v -8.322578 -46.59015 -4.310048
v -8.275133 -46.52023 -4.340172
v -7.190155 -46.26865 -5.863337
v -8.127293 -47.04762 -5.023007
v -7.360116 -46.11593 -5.511059
v -7.360116 -46.11593 -5.511059
v -8.127293 -47.04762 -5.023007
v -7.878992 -46.28801 -4.869547
v -7.533636 -47.65424 -6.143433
v -8.406727 -48.47306 -5.195709
v -8.127293 -47.04762 -5.023007
v -8.406727 -48.47306 -5.195709
v -7.724926 -49.19823 -6.299421
v -8.466475 -49.38764 -5.232635
v -8.466475 -49.38764 -5.232635
v -7.724926 -49.19823 -6.299421
v -8.321016 -49.60958 -5.477293
v -8.321016 -49.60958 -5.477293
v -7.724926 -49.19823 -6.299421
v -8.092924 -49.57574 -5.808763
v -7.10763 -46.04685 -5.796041
v -7.190155 -46.26865 -5.863337
v -7.360116 -46.11593 -5.511059
v -7.10763 -46.04685 -5.796041
v -6.88188 -46.00431 -6.015198
v -7.190155 -46.26865 -5.863337
v -7.190155 -46.26865 -5.863337
v -6.88188 -46.00431 -6.015198
v -6.852473 -46.05358 -6.082923
v -7.533636 -47.65424 -6.143433
v -8.127293 -47.04762 -5.023007
v -7.190155 -46.26865 -5.863337
v -6.824819 -46.56963 -6.412903
v -6.824597 -46.59109 -6.423397
v -7.190155 -46.26865 -5.863337
v -7.190155 -46.26865 -5.863337
v -6.824597 -46.59109 -6.423397
v -7.533636 -47.65424 -6.143433
v -7.533636 -47.65424 -6.143433
v -6.824597 -46.59109 -6.423397
v -6.901688 -47.19511 -6.626198
v -6.852473 -46.05358 -6.082923
v -6.823364 -46.10022 -6.139958
v -7.190155 -46.26865 -5.863337
v -7.190155 -46.26865 -5.863337
v -6.823364 -46.10022 -6.139958
v -6.824819 -46.56963 -6.412903
v -7.533636 -47.65424 -6.143433
v -7.724926 -49.19823 -6.299421
v -8.406727 -48.47306 -5.195709
v -6.977195 -48.14039 -6.879997
v -6.98575 -48.39994 -6.93253
v -7.533636 -47.65424 -6.143433
v -7.533636 -47.65424 -6.143433
v -6.98575 -48.39994 -6.93253
v -7.724926 -49.19823 -6.299421
v -7.724926 -49.19823 -6.299421
v -6.98575 -48.39994 -6.93253
v -7.186853 -48.7628 -6.79512
v -6.901688 -47.19511 -6.626198
v -6.977195 -48.14039 -6.879997
v -7.533636 -47.65424 -6.143433
v -7.724926 -49.52352 -6.29942
v -8.092924 -49.57574 -5.808763
v -7.724926 -49.19823 -6.299421
v -7.564632 -49.50264 -6.478343
v -7.724926 -49.52352 -6.29942
v -7.511176 -49.38321 -6.538012
v -7.511176 -49.38321 -6.538012
v -7.724926 -49.52352 -6.29942
v -7.724926 -49.19823 -6.299421
v -7.724926 -49.19823 -6.299421
v -7.186853 -48.7628 -6.79512
v -7.511176 -49.38321 -6.538012
v -6.287202 -49.50525 -4.35594
v -6.39552 -49.53678 -4.302757
v -6.299365 -49.52216 -4.449144
v -8.275133 -46.52023 -4.340172
v -8.322578 -46.59015 -4.310048
v -8.540337 -47.00878 -4.099116
v -8.540337 -47.00878 -4.099116
v -8.322578 -46.59015 -4.310048
v -8.565269 -46.99854 -4.118233
v -6.685895 -48.47041 -6.521154
v -6.824597 -46.59109 -6.423397
v -6.407634 -49.4908 -5.176968
v -6.407634 -49.4908 -5.176968
v -6.824597 -46.59109 -6.423397
v -6.299365 -49.52216 -4.449144
v -6.299365 -49.52216 -4.449144
v -6.824597 -46.59109 -6.423397
v -6.287202 -49.50525 -4.35594
v -6.287202 -49.50525 -4.35594
v -6.824597 -46.59109 -6.423397
v -6.568698 -47.02917 -4.907016
v -6.568698 -47.02917 -4.907016
v -6.824597 -46.59109 -6.423397
v -6.793541 -46.09058 -5.929246
v -6.793541 -46.09058 -5.929246
v -6.824597 -46.59109 -6.423397
v -6.823364 -46.10022 -6.139958
v -6.823364 -46.10022 -6.139958
v -6.824597 -46.59109 -6.423397
v -6.824819 -46.56963 -6.412903
v -8.716791 -47.53305 -4.197127
v -8.775745 -47.81221 -4.223376
v -8.565269 -46.99854 -4.118233
v -8.565269 -46.99854 -4.118233
v -8.775745 -47.81221 -4.223376
v -8.540337 -47.00878 -4.099116
v -8.540337 -47.00878 -4.099116
v -8.775745 -47.81221 -4.223376
v -8.260466 -48.56853 -3.794274
v -8.260466 -48.56853 -3.794274
v -8.775745 -47.81221 -4.223376
v -8.892746 -48.57638 -4.262341
v -6.796591 -46.08477 -5.918937
v -6.700942 -46.63448 -4.958813
v -6.793541 -46.09058 -5.929246
v -6.793541 -46.09058 -5.929246
v -6.700942 -46.63448 -4.958813
v -6.568698 -47.02917 -4.907016
v -6.977195 -48.14039 -6.879997
v -6.901688 -47.19511 -6.626198
v -6.98575 -48.39994 -6.93253
v -6.98575 -48.39994 -6.93253
v -6.901688 -47.19511 -6.626198
v -6.685895 -48.47041 -6.521154
v -6.685895 -48.47041 -6.521154
v -6.901688 -47.19511 -6.626198
v -6.824597 -46.59109 -6.423397
v -7.10763 -46.04685 -5.796041
v -7.360116 -46.11593 -5.511059
v -6.88188 -46.00431 -6.015198
v -6.88188 -46.00431 -6.015198
v -7.360116 -46.11593 -5.511059
v -6.796591 -46.08477 -5.918937
v -6.796591 -46.08477 -5.918937
v -7.360116 -46.11593 -5.511059
v -6.700942 -46.63448 -4.958813
v -6.700942 -46.63448 -4.958813
v -7.360116 -46.11593 -5.511059
v -8.210575 -46.43573 -4.389574
v -8.210575 -46.43573 -4.389574
v -7.360116 -46.11593 -5.511059
v -7.878992 -46.28801 -4.869547
v -8.321016 -49.60958 -5.477293
v -6.646505 -49.56036 -4.192857
v -8.466475 -49.38764 -5.232635
v -8.466475 -49.38764 -5.232635
v -6.646505 -49.56036 -4.192857
v -8.767269 -48.85625 -4.612636
v -8.767269 -48.85625 -4.612636
v -6.646505 -49.56036 -4.192857
v -8.892746 -48.57638 -4.262341
v -8.892746 -48.57638 -4.262341
v -6.646505 -49.56036 -4.192857
v -8.260466 -48.56853 -3.794274
v -7.564632 -49.50264 -6.478343
v -7.511176 -49.38321 -6.538012
v -6.407634 -49.4908 -5.176968
v -6.407634 -49.4908 -5.176968
v -7.511176 -49.38321 -6.538012
v -6.685895 -48.47041 -6.521154
v -6.685895 -48.47041 -6.521154
v -7.511176 -49.38321 -6.538012
v -6.98575 -48.39994 -6.93253
v -6.98575 -48.39994 -6.93253
v -7.511176 -49.38321 -6.538012
v -7.186853 -48.7628 -6.79512
v -6.823364 -46.10022 -6.139958
v -6.852473 -46.05358 -6.082923
v -6.793541 -46.09058 -5.929246
v -6.793541 -46.09058 -5.929246
v -6.852473 -46.05358 -6.082923
v -6.796591 -46.08477 -5.918937
v -6.796591 -46.08477 -5.918937
v -6.852473 -46.05358 -6.082923
v -6.88188 -46.00431 -6.015198
v -6.700942 -46.63448 -4.958813
v -8.210575 -46.43573 -4.389574
v -6.568698 -47.02917 -4.907016
v -6.568698 -47.02917 -4.907016
v -8.210575 -46.43573 -4.389574
v -6.287202 -49.50525 -4.35594
v -6.287202 -49.50525 -4.35594
v -8.210575 -46.43573 -4.389574
v -6.39552 -49.53678 -4.302757
v -6.39552 -49.53678 -4.302757
v -8.210575 -46.43573 -4.389574
v -6.646505 -49.56036 -4.192857
v -6.646505 -49.56036 -4.192857
v -8.210575 -46.43573 -4.389574
v -8.260466 -48.56853 -3.794274
v -8.260466 -48.56853 -3.794274
v -8.210575 -46.43573 -4.389574
v -8.540337 -47.00878 -4.099116
v -8.540337 -47.00878 -4.099116
v -8.210575 -46.43573 -4.389574
v -8.275133 -46.52023 -4.340172
v -8.321016 -49.60958 -5.477293
v -8.092924 -49.57574 -5.808763
v -6.646505 -49.56036 -4.192857
v -6.646505 -49.56036 -4.192857
v -8.092924 -49.57574 -5.808763
v -6.39552 -49.53678 -4.302757
v -6.39552 -49.53678 -4.302757
v -8.092924 -49.57574 -5.808763
v -6.299365 -49.52216 -4.449144
v -6.299365 -49.52216 -4.449144
v -8.092924 -49.57574 -5.808763
v -6.407634 -49.4908 -5.176968
v -6.407634 -49.4908 -5.176968
v -8.092924 -49.57574 -5.808763
v -7.564632 -49.50264 -6.478343
v -7.564632 -49.50264 -6.478343
v -8.092924 -49.57574 -5.808763
v -7.724926 -49.52352 -6.29942

vn -0.8697489 0.07650328 -0.4875284
vn -0.8697489 0.07650328 -0.4875284
vn -0.8697489 0.07650328 -0.4875284
vn -0.8828993 0.1577297 -0.4422782
vn -0.8828993 0.1577297 -0.4422782
vn -0.8828993 0.1577297 -0.4422782
vn -0.8828993 0.1577297 -0.4422782
vn -0.8828993 0.1577297 -0.4422782
vn -0.8828993 0.1577297 -0.4422782
vn -0.8507095 0.22436 -0.4753481
vn -0.8507095 0.22436 -0.4753481
vn -0.8507095 0.22436 -0.4753481
vn -0.8507095 0.22436 -0.4753481
vn -0.8507095 0.22436 -0.4753481
vn -0.8507095 0.22436 -0.4753481
vn -0.8507915 0.3044033 -0.4283601
vn -0.8507915 0.3044033 -0.4283601
vn -0.8507915 0.3044033 -0.4283601
vn -0.8507915 0.3044033 -0.4283601
vn -0.8507915 0.3044033 -0.4283601
vn -0.8507915 0.3044033 -0.4283601
vn -0.8160545 0.3583601 -0.4534678
vn -0.8160545 0.3583601 -0.4534678
vn -0.8160545 0.3583601 -0.4534678
vn -0.8160545 0.3583601 -0.4534678
vn -0.8160545 0.3583601 -0.4534678
vn -0.8160545 0.3583601 -0.4534678
vn -0.8160545 0.3583601 -0.4534678
vn -0.8160545 0.3583601 -0.4534678
vn -0.8160545 0.3583601 -0.4534678
vn -0.7705389 0.3583604 -0.5271126
vn -0.7705389 0.3583604 -0.5271126
vn -0.7705389 0.3583604 -0.5271126
vn -0.7705389 0.3583604 -0.5271126
vn -0.7705389 0.3583604 -0.5271126
vn -0.7705389 0.3583604 -0.5271126
vn -0.8056077 0.2243597 -0.5483237
vn -0.8056077 0.2243597 -0.5483237
vn -0.8056077 0.2243597 -0.5483237
vn -0.8250164 0.07650266 -0.5599063
vn -0.8250164 0.07650266 -0.5599063
vn -0.8250164 0.07650266 -0.5599063
vn -0.8250164 0.07650266 -0.5599063
vn -0.8250164 0.07650266 -0.5599063
vn -0.8250164 0.07650266 -0.5599063
vn -0.8250164 0.07650266 -0.5599063
vn -0.8250164 0.07650266 -0.5599063
vn -0.8250164 0.07650266 -0.5599063
vn -0.7243624 0.4324258 -0.5369422
vn -0.7243624 0.4324258 -0.5369422
vn -0.7243624 0.4324258 -0.5369422
vn -0.6687137 0.4323395 -0.6049004
vn -0.6687137 0.4323395 -0.6049004
vn -0.6687137 0.4323395 -0.6049004
vn -0.6687137 0.4323395 -0.6049004
vn -0.6687137 0.4323395 -0.6049004
vn -0.6687137 0.4323395 -0.6049004
vn -0.7636163 0.3044031 -0.5694109
vn -0.7636163 0.3044031 -0.5694109
vn -0.7636163 0.3044031 -0.5694109
vn -0.7079676 0.304334 -0.637309
vn -0.7079676 0.304334 -0.637309
vn -0.7079676 0.304334 -0.637309
vn -0.7079676 0.304334 -0.637309
vn -0.7079676 0.304334 -0.637309
vn -0.7079676 0.304334 -0.637309
vn -0.7079676 0.304334 -0.637309
vn -0.7079676 0.304334 -0.637309
vn -0.7079676 0.304334 -0.637309
vn -0.6618232 0.3783585 -0.6471745
vn -0.6618232 0.3783585 -0.6471745
vn -0.6618232 0.3783585 -0.6471745
vn -0.6618232 0.3783585 -0.6471745
vn -0.6618232 0.3783585 -0.6471745
vn -0.6618232 0.3783585 -0.6471745
vn -0.7904243 0.1577287 -0.5919045
vn -0.7904243 0.1577287 -0.5919045
vn -0.7904243 0.1577287 -0.5919045
vn -0.7350739 0.1576893 -0.6593938
vn -0.7350739 0.1576893 -0.6593938
vn -0.7350739 0.1576893 -0.6593938
vn -0.7350739 0.1576893 -0.6593938
vn -0.7350739 0.1576893 -0.6593938
vn -0.7350739 0.1576893 -0.6593938
vn -0.7350739 0.1576893 -0.6593938
vn -0.7350739 0.1576893 -0.6593938
vn -0.7350739 0.1576893 -0.6593938
vn -0.6928995 0.2380814 -0.6805936
vn -0.6928995 0.2380814 -0.6805936
vn -0.6928995 0.2380814 -0.6805936
vn -0.7999972 2.6227E-08 -0.6000037
vn -0.7999972 2.6227E-08 -0.6000037
vn -0.7999972 2.6227E-08 -0.6000037
vn -0.7448163 2.916729E-08 -0.6672697
vn -0.7448163 2.916729E-08 -0.6672697
vn -0.7448163 2.916729E-08 -0.6672697
vn -0.7448163 2.916729E-08 -0.6672697
vn -0.7448163 2.916729E-08 -0.6672697
vn -0.7448163 2.916729E-08 -0.6672697
vn -0.7101446 0.08141591 -0.6993327
vn -0.7101446 0.08141591 -0.6993327
vn -0.7101446 0.08141591 -0.6993327
vn 0.3337486 -0.9342143 0.1259192
vn 0.3337486 -0.9342143 0.1259192
vn 0.3337486 -0.9342143 0.1259192
vn -0.3470471 0.5596963 0.752528
vn -0.3470471 0.5596963 0.752528
vn -0.3470471 0.5596963 0.752528
vn -0.3470471 0.5596963 0.752528
vn -0.3470471 0.5596963 0.752528
vn -0.3470471 0.5596963 0.752528
vn 0.9864231 0.08025508 -0.1432782
vn 0.9864231 0.08025508 -0.1432782
vn 0.9864231 0.08025508 -0.1432782
vn 0.9864231 0.08025508 -0.1432782
vn 0.9864231 0.08025508 -0.1432782
vn 0.9864231 0.08025508 -0.1432782
vn 0.9864231 0.08025508 -0.1432782
vn 0.9864231 0.08025508 -0.1432782
vn 0.9864231 0.08025508 -0.1432782
vn 0.9864231 0.08025508 -0.1432782
vn 0.9864231 0.08025508 -0.1432782
vn 0.9864231 0.08025508 -0.1432782
vn 0.9864231 0.08025508 -0.1432782
vn 0.9864231 0.08025508 -0.1432782
vn 0.9864231 0.08025508 -0.1432782
vn 0.9864231 0.08025508 -0.1432782
vn 0.9864231 0.08025508 -0.1432782
vn 0.9864231 0.08025508 -0.1432782
vn 0.9864231 0.08025508 -0.1432782
vn 0.9864231 0.08025508 -0.1432782
vn 0.9864231 0.08025508 -0.1432782
vn -0.5946445 0.05013139 0.8024244
vn -0.5946445 0.05013139 0.8024244
vn -0.5946445 0.05013139 0.8024244
vn -0.5946445 0.05013139 0.8024244
vn -0.5946445 0.05013139 0.8024244
vn -0.5946445 0.05013139 0.8024244
vn -0.5946445 0.05013139 0.8024244
vn -0.5946445 0.05013139 0.8024244
vn -0.5946445 0.05013139 0.8024244
vn -0.5946445 0.05013139 0.8024244
vn -0.5946445 0.05013139 0.8024244
vn -0.5946445 0.05013139 0.8024244
vn 0.9402465 0.3273363 0.09374171
vn 0.9402465 0.3273363 0.09374171
vn 0.9402465 0.3273363 0.09374171
vn 0.9402465 0.3273363 0.09374171
vn 0.9402465 0.3273363 0.09374171
vn 0.9402465 0.3273363 0.09374171
vn 0.8121024 0.08991723 -0.5765454
vn 0.8121024 0.08991723 -0.5765454
vn 0.8121024 0.08991723 -0.5765454
vn 0.8121024 0.08991723 -0.5765454
vn 0.8121024 0.08991723 -0.5765454
vn 0.8121024 0.08991723 -0.5765454
vn 0.8121024 0.08991723 -0.5765454
vn 0.8121024 0.08991723 -0.5765454
vn 0.8121024 0.08991723 -0.5765454
vn 0.2827802 0.8442816 0.4552187
vn 0.2827802 0.8442816 0.4552187
vn 0.2827802 0.8442816 0.4552187
vn 0.2827802 0.8442816 0.4552187
vn 0.2827802 0.8442816 0.4552187
vn 0.2827802 0.8442816 0.4552187
vn 0.2827802 0.8442816 0.4552187
vn 0.2827802 0.8442816 0.4552187
vn 0.2827802 0.8442816 0.4552187
vn 0.2827802 0.8442816 0.4552187
vn 0.2827802 0.8442816 0.4552187
vn 0.2827802 0.8442816 0.4552187
vn 0.2827802 0.8442816 0.4552187
vn 0.2827802 0.8442816 0.4552187
vn 0.2827802 0.8442816 0.4552187
vn -0.3604038 -0.7874411 0.5000455
vn -0.3604038 -0.7874411 0.5000455
vn -0.3604038 -0.7874411 0.5000455
vn -0.3604038 -0.7874411 0.5000455
vn -0.3604038 -0.7874411 0.5000455
vn -0.3604038 -0.7874411 0.5000455
vn -0.3604038 -0.7874411 0.5000455
vn -0.3604038 -0.7874411 0.5000455
vn -0.3604038 -0.7874411 0.5000455
vn -0.3604038 -0.7874411 0.5000455
vn -0.3604038 -0.7874411 0.5000455
vn -0.3604038 -0.7874411 0.5000455
vn 0.6244497 -0.5544371 -0.5501472
vn 0.6244497 -0.5544371 -0.5501472
vn 0.6244497 -0.5544371 -0.5501472
vn 0.6244497 -0.5544371 -0.5501472
vn 0.6244497 -0.5544371 -0.5501472
vn 0.6244497 -0.5544371 -0.5501472
vn 0.6244497 -0.5544371 -0.5501472
vn 0.6244497 -0.5544371 -0.5501472
vn 0.6244497 -0.5544371 -0.5501472
vn 0.6244497 -0.5544371 -0.5501472
vn 0.6244497 -0.5544371 -0.5501472
vn 0.6244497 -0.5544371 -0.5501472
vn 0.7568895 0.6391706 -0.1363064
vn 0.7568895 0.6391706 -0.1363064
vn 0.7568895 0.6391706 -0.1363064
vn 0.7568895 0.6391706 -0.1363064
vn 0.7568895 0.6391706 -0.1363064
vn 0.7568895 0.6391706 -0.1363064
vn 0.7568895 0.6391706 -0.1363064
vn 0.7568895 0.6391706 -0.1363064
vn 0.7568895 0.6391706 -0.1363064
vn 0.3700636 0.2417075 0.897012
vn 0.3700636 0.2417075 0.897012
vn 0.3700636 0.2417075 0.897012
vn 0.3700636 0.2417075 0.897012
vn 0.3700636 0.2417075 0.897012
vn 0.3700636 0.2417075 0.897012
vn 0.3700636 0.2417075 0.897012
vn 0.3700636 0.2417075 0.897012
vn 0.3700636 0.2417075 0.897012
vn 0.3700636 0.2417075 0.897012
vn 0.3700636 0.2417075 0.897012
vn 0.3700636 0.2417075 0.897012
vn 0.3700636 0.2417075 0.897012
vn 0.3700636 0.2417075 0.897012
vn 0.3700636 0.2417075 0.897012
vn 0.3700636 0.2417075 0.897012
vn 0.3700636 0.2417075 0.897012
vn 0.3700636 0.2417075 0.897012
vn 0.3700636 0.2417075 0.897012
vn 0.3700636 0.2417075 0.897012
vn 0.3700636 0.2417075 0.897012
vn 0.07021394 -0.9961037 -0.05336272
vn 0.07021394 -0.9961037 -0.05336272
vn 0.07021394 -0.9961037 -0.05336272
vn 0.07021394 -0.9961037 -0.05336272
vn 0.07021394 -0.9961037 -0.05336272
vn 0.07021394 -0.9961037 -0.05336272
vn 0.07021394 -0.9961037 -0.05336272
vn 0.07021394 -0.9961037 -0.05336272
vn 0.07021394 -0.9961037 -0.05336272
vn 0.07021394 -0.9961037 -0.05336272
vn 0.07021394 -0.9961037 -0.05336272
vn 0.07021394 -0.9961037 -0.05336272
vn 0.07021394 -0.9961037 -0.05336272
vn 0.07021394 -0.9961037 -0.05336272
vn 0.07021394 -0.9961037 -0.05336272
vn 0.07021394 -0.9961037 -0.05336272
vn 0.07021394 -0.9961037 -0.05336272
vn 0.07021394 -0.9961037 -0.05336272

vt 0.6196406 0.1678617
vt 0.6136358 0.157461
vt 0.6272486 0.157461
vt 0.6196406 0.1678617
vt 0.6157196 0.1735377
vt 0.6136358 0.157461
vt 0.6136358 0.157461
vt 0.6157196 0.1735377
vt 0.6044645 0.1733463
vt 0.600002 0.1732115
vt 0.5909085 0.157461
vt 0.6044645 0.1733463
vt 0.6044645 0.1733463
vt 0.5909085 0.157461
vt 0.6136358 0.157461
vt 0.5912457 0.1733655
vt 0.584235 0.16902
vt 0.600002 0.1732115
vt 0.600002 0.1732115
vt 0.584235 0.16902
vt 0.5909085 0.157461
vt 0.5909085 0.157461
vt 0.584235 0.16902
vt 0.5771306 0.157461
vt 0.5771306 0.157461
vt 0.584235 0.16902
vt 0.5811443 0.1669575
vt 0.5811443 0.1669575
vt 0.584235 0.16902
vt 0.5828509 0.1681958
vt 0.5795449 0.1377784
vt 0.5909085 0.157461
vt 0.5758839 0.1441195
vt 0.5758839 0.1441195
vt 0.5909085 0.157461
vt 0.5771306 0.157461
vt 0.6022722 0.1377784
vt 0.6136358 0.157461
vt 0.5909085 0.157461
vt 0.6136358 0.157461
vt 0.6249994 0.1377784
vt 0.6272486 0.157461
vt 0.6272486 0.157461
vt 0.6249994 0.1377784
vt 0.630677 0.1531433
vt 0.630677 0.1531433
vt 0.6249994 0.1377784
vt 0.63035 0.147046
vt 0.5752546 0.1377784
vt 0.5795449 0.1377784
vt 0.5758839 0.1441195
vt 0.5752546 0.1377784
vt 0.5749651 0.1328318
vt 0.5795449 0.1377784
vt 0.5795449 0.1377784
vt 0.5749651 0.1328318
vt 0.5760395 0.1317068
vt 0.6022722 0.1377784
vt 0.5909085 0.157461
vt 0.5795449 0.1377784
vt 0.5852106 0.1279651
vt 0.5855718 0.1278415
vt 0.5795449 0.1377784
vt 0.5795449 0.1377784
vt 0.5855718 0.1278415
vt 0.6022722 0.1377784
vt 0.6022722 0.1377784
vt 0.5855718 0.1278415
vt 0.5955996 0.1262211
vt 0.5760395 0.1317068
vt 0.5768926 0.1307872
vt 0.5795449 0.1377784
vt 0.5795449 0.1377784
vt 0.5768926 0.1307872
vt 0.5852106 0.1279651
vt 0.6022722 0.1377784
vt 0.6249994 0.1377784
vt 0.6136358 0.157461
vt 0.6099323 0.1245105
vt 0.6137722 0.1240027
vt 0.6022722 0.1377784
vt 0.6022722 0.1377784
vt 0.6137722 0.1240027
vt 0.6249994 0.1377784
vt 0.6249994 0.1377784
vt 0.6137722 0.1240027
vt 0.6189857 0.1273622
vt 0.5955996 0.1262211
vt 0.6099323 0.1245105
vt 0.6022722 0.1377784
vt 0.6296098 0.1377784
vt 0.63035 0.147046
vt 0.6249994 0.1377784
vt 0.6293138 0.1343729
vt 0.6296098 0.1377784
vt 0.6276212 0.1332372
vt 0.6276212 0.1332372
vt 0.6296098 0.1377784
vt 0.6249994 0.1377784
vt 0.6249994 0.1377784
vt 0.6189857 0.1273622
vt 0.6276212 0.1332372
vt 0.4033452 0.4789589
vt 0.4145068 0.4736477
vt 0.4050421 0.4882735
vt 0.5392718 0.6232157
vt 0.5277586 0.6163903
vt 0.4671973 0.5685657
vt 0.4671973 0.5685657
vt 0.5277586 0.6163903
vt 0.4648393 0.5728971
vt 0.5470816 0.6530486
vt 0.3598942 0.6432418
vt 0.6503438 0.5181346
vt 0.6503438 0.5181346
vt 0.3598942 0.6432418
vt 0.6543284 0.4450851
vt 0.6543284 0.4450851
vt 0.3598942 0.6432418
vt 0.6527534 0.4357283
vt 0.6527534 0.4357283
vt 0.3598942 0.6432418
vt 0.4053281 0.4910393
vt 0.4053281 0.4910393
vt 0.3598942 0.6432418
vt 0.3105929 0.5936452
vt 0.3105929 0.5936452
vt 0.3598942 0.6432418
vt 0.3113055 0.6147965
vt 0.3113055 0.6147965
vt 0.3598942 0.6432418
vt 0.3577707 0.6421824
vt 0.549988 0.5703282
vt 0.5033447 0.5775756
vt 0.6398432 0.5485489
vt 0.6398432 0.5485489
vt 0.5033447 0.5775756
vt 0.6385025 0.5432705
vt 0.6385025 0.5432705
vt 0.5033447 0.5775756
vt 0.3863239 0.4591203
vt 0.3863239 0.4591203
vt 0.5033447 0.5775756
vt 0.3762827 0.5883293
vt 0.3443965 0.6226907
vt 0.3987652 0.5274633
vt 0.3450387 0.623722
vt 0.3450387 0.623722
vt 0.3987652 0.5274633
vt 0.4398629 0.5223349
vt 0.5194238 0.6502923
vt 0.407372 0.6129214
vt 0.5503536 0.6580271
vt 0.5503536 0.6580271
vt 0.407372 0.6129214
vt 0.5627481 0.5974517
vt 0.5627481 0.5974517
vt 0.407372 0.6129214
vt 0.33616 0.5830603
vt 0.4903221 0.6989701
vt 0.4663113 0.6636243
vt 0.5124671 0.7261404
vt 0.5124671 0.7261404
vt 0.4663113 0.6636243
vt 0.5242147 0.7142053
vt 0.5242147 0.7142053
vt 0.4663113 0.6636243
vt 0.5535039 0.5951453
vt 0.5535039 0.5951453
vt 0.4663113 0.6636243
vt 0.388485 0.5245662
vt 0.388485 0.5245662
vt 0.4663113 0.6636243
vt 0.4180226 0.5840822
vt 0.4708631 0.6624805
vt 0.3003408 0.4941051
vt 0.4963693 0.6304161
vt 0.4963693 0.6304161
vt 0.3003408 0.4941051
vt 0.5525288 0.5491396
vt 0.5525288 0.5491396
vt 0.3003408 0.4941051
vt 0.5787053 0.5032275
vt 0.5787053 0.5032275
vt 0.3003408 0.4941051
vt 0.5138078 0.4418599
vt 0.6086977 0.5886012
vt 0.5940155 0.597011
vt 0.5172299 0.4051406
vt 0.5172299 0.4051406
vt 0.5940155 0.597011
vt 0.4491494 0.5946391
vt 0.4491494 0.5946391
vt 0.5940155 0.597011
vt 0.4663816 0.6526361
vt 0.4663816 0.6526361
vt 0.5940155 0.597011
vt 0.5140516 0.6332663
vt 0.4072876 0.604174
vt 0.4018873 0.5984549
vt 0.4084689 0.5830696
vt 0.4084689 0.5830696
vt 0.4018873 0.5984549
vt 0.4078314 0.5820289
vt 0.4078314 0.5820289
vt 0.4018873 0.5984549
vt 0.3962713 0.5916764
vt 0.3680556 0.8377187
vt 0.1474351 0.5512584
vt 0.4576389 0.8116547
vt 0.4576389 0.8116547
vt 0.1474351 0.5512584
vt 0.9529675 0.5343449
vt 0.9529675 0.5343449
vt 0.1474351 0.5512584
vt 0.945664 0.5075871
vt 0.945664 0.5075871
vt 0.1474351 0.5512584
vt 0.919525 0.4522902
vt 0.919525 0.4522902
vt 0.1474351 0.5512584
vt 0.5385311 0.2517239
vt 0.5385311 0.2517239
vt 0.1474351 0.5512584
vt 0.2140389 0.4051031
vt 0.2140389 0.4051031
vt 0.1474351 0.5512584
vt 0.1553152 0.5264038
vt 0.5563259 0.5567619
vt 0.533684 0.589445
vt 0.391532 0.4301264
vt 0.391532 0.4301264
vt 0.533684 0.589445
vt 0.3667243 0.4409645
vt 0.3667243 0.4409645
vt 0.533684 0.589445
vt 0.3571847 0.4553982
vt 0.3571847 0.4553982
vt 0.533684 0.589445
vt 0.3675962 0.5271539
vt 0.3675962 0.5271539
vt 0.533684 0.589445
vt 0.4812934 0.6554582
vt 0.4812934 0.6554582
vt 0.533684 0.589445
vt 0.4971756 0.6378228

usemtl Material0
usemap Material0
f 1/1/1 2/2/2 3/3/3
f 4/4/4 5/5/5 6/6/6
f 7/7/7 8/8/8 9/9/9
f 10/10/10 11/11/11 12/12/12
f 13/13/13 14/14/14 15/15/15
f 16/16/16 17/17/17 18/18/18
f 19/19/19 20/20/20 21/21/21
f 22/22/22 23/23/23 24/24/24
f 25/25/25 26/26/26 27/27/27
f 28/28/28 29/29/29 30/30/30
f 31/31/31 32/32/32 33/33/33
f 34/34/34 35/35/35 36/36/36
f 37/37/37 38/38/38 39/39/39
f 40/40/40 41/41/41 42/42/42
f 43/43/43 44/44/44 45/45/45
f 46/46/46 47/47/47 48/48/48
f 49/49/49 50/50/50 51/51/51
f 52/52/52 53/53/53 54/54/54
f 55/55/55 56/56/56 57/57/57
f 58/58/58 59/59/59 60/60/60
f 61/61/61 62/62/62 63/63/63
f 64/64/64 65/65/65 66/66/66
f 67/67/67 68/68/68 69/69/69
f 70/70/70 71/71/71 72/72/72
f 73/73/73 74/74/74 75/75/75
f 76/76/76 77/77/77 78/78/78
f 79/79/79 80/80/80 81/81/81
f 82/82/82 83/83/83 84/84/84
f 85/85/85 86/86/86 87/87/87
f 88/88/88 89/89/89 90/90/90
f 91/91/91 92/92/92 93/93/93
f 94/94/94 95/95/95 96/96/96
f 97/97/97 98/98/98 99/99/99
f 100/100/100 101/101/101 102/102/102

usemtl Material1
usemap Material1
f 103/103/103 104/104/104 105/105/105
f 106/106/106 107/107/107 108/108/108
f 109/109/109 110/110/110 111/111/111
f 112/112/112 113/113/113 114/114/114
f 115/115/115 116/116/116 117/117/117
f 118/118/118 119/119/119 120/120/120
f 121/121/121 122/122/122 123/123/123
f 124/124/124 125/125/125 126/126/126
f 127/127/127 128/128/128 129/129/129
f 130/130/130 131/131/131 132/132/132
f 133/133/133 134/134/134 135/135/135
f 136/136/136 137/137/137 138/138/138
f 139/139/139 140/140/140 141/141/141
f 142/142/142 143/143/143 144/144/144
f 145/145/145 146/146/146 147/147/147
f 148/148/148 149/149/149 150/150/150
f 151/151/151 152/152/152 153/153/153
f 154/154/154 155/155/155 156/156/156
f 157/157/157 158/158/158 159/159/159
f 160/160/160 161/161/161 162/162/162
f 163/163/163 164/164/164 165/165/165
f 166/166/166 167/167/167 168/168/168
f 169/169/169 170/170/170 171/171/171
f 172/172/172 173/173/173 174/174/174
f 175/175/175 176/176/176 177/177/177
f 178/178/178 179/179/179 180/180/180
f 181/181/181 182/182/182 183/183/183
f 184/184/184 185/185/185 186/186/186
f 187/187/187 188/188/188 189/189/189
f 190/190/190 191/191/191 192/192/192
f 193/193/193 194/194/194 195/195/195
f 196/196/196 197/197/197 198/198/198
f 199/199/199 200/200/200 201/201/201
f 202/202/202 203/203/203 204/204/204
f 205/205/205 206/206/206 207/207/207
f 208/208/208 209/209/209 210/210/210
f 211/211/211 212/212/212 213/213/213
f 214/214/214 215/215/215 216/216/216
f 217/217/217 218/218/218 219/219/219
f 220/220/220 221/221/221 222/222/222
f 223/223/223 224/224/224 225/225/225
f 226/226/226 227/227/227 228/228/228
f 229/229/229 230/230/230 231/231/231
f 232/232/232 233/233/233 234/234/234
f 235/235/235 236/236/236 237/237/237
f 238/238/238 239/239/239 240/240/240
f 241/241/241 242/242/242 243/243/243
f 244/244/244 245/245/245 246/246/246
