g  Instance
v 6.435752 -51.3444 1.127518
v 6.233485 -51.42134 0.410114
v 6.420849 -51.20187 0.2527558
v 4.073644 -51.19489 0.902422
v 4.582446 -51.09278 1.499449
v 4.230188 -50.95123 1.15599
v 4.230188 -50.95123 1.15599
v 4.582446 -51.09278 1.499449
v 4.637663 -51.00434 1.589707
v 4.511927 -51.41708 0.4064177
v 3.983659 -51.3189 0.4517074
v 4.195769 -50.95066 0.07173292
v 4.230188 -50.95123 1.15599
v 4.637663 -51.00434 1.589707
v 5.023901 -49.62305 0.6800953
v 5.023901 -49.62305 0.6800953
v 4.637663 -51.00434 1.589707
v 5.674583 -49.27596 0.9742388
v 5.674583 -49.27596 0.9742388
v 4.637663 -51.00434 1.589707
v 6.00826 -49.41491 1.417454
v 6.00826 -49.41491 1.417454
v 4.637663 -51.00434 1.589707
v 5.105108 -50.81726 1.858456
v 5.91154 -49.62994 -0.713608
v 5.918458 -49.60935 -0.6473261
v 5.944592 -49.62863 -0.6831131
v 6.517378 -50.63176 -0.1561541
v 6.508323 -50.21945 -0.4519119
v 6.462753 -51.31424 1.539231
v 6.462753 -51.31424 1.539231
v 6.508323 -50.21945 -0.4519119
v 6.451258 -51.3042 1.727324
v 6.451258 -51.3042 1.727324
v 6.508323 -50.21945 -0.4519119
v 6.448189 -51.27701 1.750637
v 6.448189 -51.27701 1.750637
v 6.508323 -50.21945 -0.4519119
v 6.363022 -49.62002 1.406992
v 6.363022 -49.62002 1.406992
v 6.508323 -50.21945 -0.4519119
v 6.480276 -49.89362 -0.323742
v 6.462753 -51.31424 1.539231
v 6.435752 -51.3444 1.127518
v 6.517378 -50.63176 -0.1561541
v 6.517378 -50.63176 -0.1561541
v 6.435752 -51.3444 1.127518
v 6.420849 -51.20187 0.2527558
v 6.00826 -49.41491 1.417454
v 5.105108 -50.81726 1.858456
v 6.363022 -49.62002 1.406992
v 6.363022 -49.62002 1.406992
v 5.105108 -50.81726 1.858456
v 6.448189 -51.27701 1.750637
v 6.37636 -51.31778 1.698764
v 4.582446 -51.09278 1.499449
v 5.448674 -51.53947 0.494562
v 5.448674 -51.53947 0.494562
v 4.582446 -51.09278 1.499449
v 4.511927 -51.41708 0.4064177
v 4.511927 -51.41708 0.4064177
v 4.582446 -51.09278 1.499449
v 3.983659 -51.3189 0.4517074
v 3.983659 -51.3189 0.4517074
v 4.582446 -51.09278 1.499449
v 4.073644 -51.19489 0.902422
v 4.70355 -50.08428 -0.5495244
v 4.195769 -50.95066 0.07173292
v 5.023901 -49.62305 0.6800953
v 5.023901 -49.62305 0.6800953
v 4.195769 -50.95066 0.07173292
v 4.230188 -50.95123 1.15599
v 4.230188 -50.95123 1.15599
v 4.195769 -50.95066 0.07173292
v 4.073644 -51.19489 0.902422
v 4.073644 -51.19489 0.902422
v 4.195769 -50.95066 0.07173292
v 3.983659 -51.3189 0.4517074
v 6.462753 -51.31424 1.539231
v 6.451258 -51.3042 1.727324
v 6.435752 -51.3444 1.127518
v 6.435752 -51.3444 1.127518
v 6.451258 -51.3042 1.727324
v 6.233485 -51.42134 0.410114
v 6.233485 -51.42134 0.410114
v 6.451258 -51.3042 1.727324
v 5.448674 -51.53947 0.494562
v 5.448674 -51.53947 0.494562
v 6.451258 -51.3042 1.727324
v 6.37636 -51.31778 1.698764
v 5.944592 -49.62863 -0.6831131
v 6.480276 -49.89362 -0.323742
v 5.91154 -49.62994 -0.713608
v 5.91154 -49.62994 -0.713608
v 6.480276 -49.89362 -0.323742
v 5.821563 -49.69732 -0.826689
v 5.821563 -49.69732 -0.826689
v 6.480276 -49.89362 -0.323742
v 6.508323 -50.21945 -0.4519119
v 5.674583 -49.27596 0.9742388
v 5.918458 -49.60935 -0.6473261
v 5.023901 -49.62305 0.6800953
v 5.023901 -49.62305 0.6800953
v 5.918458 -49.60935 -0.6473261
v 4.70355 -50.08428 -0.5495244
v 4.70355 -50.08428 -0.5495244
v 5.918458 -49.60935 -0.6473261
v 5.821563 -49.69732 -0.826689
v 5.821563 -49.69732 -0.826689
v 5.918458 -49.60935 -0.6473261
v 5.91154 -49.62994 -0.713608
v 6.00826 -49.41491 1.417454
v 6.363022 -49.62002 1.406992
v 5.674583 -49.27596 0.9742388
v 5.674583 -49.27596 0.9742388
v 6.363022 -49.62002 1.406992
v 5.918458 -49.60935 -0.6473261
v 5.918458 -49.60935 -0.6473261
v 6.363022 -49.62002 1.406992
v 5.944592 -49.62863 -0.6831131
v 5.944592 -49.62863 -0.6831131
v 6.363022 -49.62002 1.406992
v 6.480276 -49.89362 -0.323742
v 6.508323 -50.21945 -0.4519119
v 6.517378 -50.63176 -0.1561541
v 5.821563 -49.69732 -0.826689
v 5.821563 -49.69732 -0.826689
v 6.517378 -50.63176 -0.1561541
v 4.70355 -50.08428 -0.5495244
v 4.70355 -50.08428 -0.5495244
v 6.517378 -50.63176 -0.1561541
v 4.195769 -50.95066 0.07173292
v 4.195769 -50.95066 0.07173292
v 6.517378 -50.63176 -0.1561541
v 4.511927 -51.41708 0.4064177
v 4.511927 -51.41708 0.4064177
v 6.517378 -50.63176 -0.1561541
v 5.448674 -51.53947 0.494562
v 5.448674 -51.53947 0.494562
v 6.517378 -50.63176 -0.1561541
v 6.233485 -51.42134 0.410114
v 6.233485 -51.42134 0.410114
v 6.517378 -50.63176 -0.1561541
v 6.420849 -51.20187 0.2527558
v 5.105108 -50.81726 1.858456
v 4.637663 -51.00434 1.589707
v 6.448189 -51.27701 1.750637
v 6.448189 -51.27701 1.750637
v 4.637663 -51.00434 1.589707
v 6.451258 -51.3042 1.727324
v 6.451258 -51.3042 1.727324
v 4.637663 -51.00434 1.589707
v 6.37636 -51.31778 1.698764
v 6.37636 -51.31778 1.698764
v 4.637663 -51.00434 1.589707
v 4.582446 -51.09278 1.499449

vn 0.7084366 -0.6945738 -0.1252391
vn 0.7084366 -0.6945738 -0.1252391
vn 0.7084366 -0.6945738 -0.1252391
vn -0.724721 -0.2154844 0.6544815
vn -0.724721 -0.2154844 0.6544815
vn -0.724721 -0.2154844 0.6544815
vn -0.724721 -0.2154844 0.6544815
vn -0.724721 -0.2154844 0.6544815
vn -0.724721 -0.2154844 0.6544815
vn -0.1842774 -0.6524019 -0.7351283
vn -0.1842774 -0.6524019 -0.7351283
vn -0.1842774 -0.6524019 -0.7351283
vn -0.5701227 0.5570666 0.6038519
vn -0.5701227 0.5570666 0.6038519
vn -0.5701227 0.5570666 0.6038519
vn -0.5701227 0.5570666 0.6038519
vn -0.5701227 0.5570666 0.6038519
vn -0.5701227 0.5570666 0.6038519
vn -0.5701227 0.5570666 0.6038519
vn -0.5701227 0.5570666 0.6038519
vn -0.5701227 0.5570666 0.6038519
vn -0.5701227 0.5570666 0.6038519
vn -0.5701227 0.5570666 0.6038519
vn -0.5701227 0.5570666 0.6038519
vn 0.2505333 0.9168036 -0.3109734
vn 0.2505333 0.9168036 -0.3109734
vn 0.2505333 0.9168036 -0.3109734
vn 0.9963458 0.06313946 0.05751942
vn 0.9963458 0.06313946 0.05751942
vn 0.9963458 0.06313946 0.05751942
vn 0.9963458 0.06313946 0.05751942
vn 0.9963458 0.06313946 0.05751942
vn 0.9963458 0.06313946 0.05751942
vn 0.9963458 0.06313946 0.05751942
vn 0.9963458 0.06313946 0.05751942
vn 0.9963458 0.06313946 0.05751942
vn 0.9963458 0.06313946 0.05751942
vn 0.9963458 0.06313946 0.05751942
vn 0.9963458 0.06313946 0.05751942
vn 0.9963458 0.06313946 0.05751942
vn 0.9963458 0.06313946 0.05751942
vn 0.9963458 0.06313946 0.05751942
vn 0.9783199 -0.2011123 -0.04943588
vn 0.9783199 -0.2011123 -0.04943588
vn 0.9783199 -0.2011123 -0.04943588
vn 0.9783199 -0.2011123 -0.04943588
vn 0.9783199 -0.2011123 -0.04943588
vn 0.9783199 -0.2011123 -0.04943588
vn 0.1488465 0.2081473 0.9667054
vn 0.1488465 0.2081473 0.9667054
vn 0.1488465 0.2081473 0.9667054
vn 0.1488465 0.2081473 0.9667054
vn 0.1488465 0.2081473 0.9667054
vn 0.1488465 0.2081473 0.9667054
vn -0.1507738 -0.9450327 0.2901392
vn -0.1507738 -0.9450327 0.2901392
vn -0.1507738 -0.9450327 0.2901392
vn -0.1507738 -0.9450327 0.2901392
vn -0.1507738 -0.9450327 0.2901392
vn -0.1507738 -0.9450327 0.2901392
vn -0.1507738 -0.9450327 0.2901392
vn -0.1507738 -0.9450327 0.2901392
vn -0.1507738 -0.9450327 0.2901392
vn -0.1507738 -0.9450327 0.2901392
vn -0.1507738 -0.9450327 0.2901392
vn -0.1507738 -0.9450327 0.2901392
vn -0.8537316 0.5199938 0.02736782
vn -0.8537316 0.5199938 0.02736782
vn -0.8537316 0.5199938 0.02736782
vn -0.8537316 0.5199938 0.02736782
vn -0.8537316 0.5199938 0.02736782
vn -0.8537316 0.5199938 0.02736782
vn -0.8537316 0.5199938 0.02736782
vn -0.8537316 0.5199938 0.02736782
vn -0.8537316 0.5199938 0.02736782
vn -0.8537316 0.5199938 0.02736782
vn -0.8537316 0.5199938 0.02736782
vn -0.8537316 0.5199938 0.02736782
vn 0.1550848 -0.9859516 0.06203401
vn 0.1550848 -0.9859516 0.06203401
vn 0.1550848 -0.9859516 0.06203401
vn 0.1550848 -0.9859516 0.06203401
vn 0.1550848 -0.9859516 0.06203401
vn 0.1550848 -0.9859516 0.06203401
vn 0.1550848 -0.9859516 0.06203401
vn 0.1550848 -0.9859516 0.06203401
vn 0.1550848 -0.9859516 0.06203401
vn 0.1550848 -0.9859516 0.06203401
vn 0.1550848 -0.9859516 0.06203401
vn 0.1550848 -0.9859516 0.06203401
vn 0.6330243 0.3299654 -0.7002879
vn 0.6330243 0.3299654 -0.7002879
vn 0.6330243 0.3299654 -0.7002879
vn 0.6330243 0.3299654 -0.7002879
vn 0.6330243 0.3299654 -0.7002879
vn 0.6330243 0.3299654 -0.7002879
vn 0.6330243 0.3299654 -0.7002879
vn 0.6330243 0.3299654 -0.7002879
vn 0.6330243 0.3299654 -0.7002879
vn -0.3701441 0.8973903 -0.240175
vn -0.3701441 0.8973903 -0.240175
vn -0.3701441 0.8973903 -0.240175
vn -0.3701441 0.8973903 -0.240175
vn -0.3701441 0.8973903 -0.240175
vn -0.3701441 0.8973903 -0.240175
vn -0.3701441 0.8973903 -0.240175
vn -0.3701441 0.8973903 -0.240175
vn -0.3701441 0.8973903 -0.240175
vn -0.3701441 0.8973903 -0.240175
vn -0.3701441 0.8973903 -0.240175
vn -0.3701441 0.8973903 -0.240175
vn 0.4956018 0.862449 -0.1027651
vn 0.4956018 0.862449 -0.1027651
vn 0.4956018 0.862449 -0.1027651
vn 0.4956018 0.862449 -0.1027651
vn 0.4956018 0.862449 -0.1027651
vn 0.4956018 0.862449 -0.1027651
vn 0.4956018 0.862449 -0.1027651
vn 0.4956018 0.862449 -0.1027651
vn 0.4956018 0.862449 -0.1027651
vn 0.4956018 0.862449 -0.1027651
vn 0.4956018 0.862449 -0.1027651
vn 0.4956018 0.862449 -0.1027651
vn 0.0003010552 -0.5828597 -0.8125728
vn 0.0003010552 -0.5828597 -0.8125728
vn 0.0003010552 -0.5828597 -0.8125728
vn 0.0003010552 -0.5828597 -0.8125728
vn 0.0003010552 -0.5828597 -0.8125728
vn 0.0003010552 -0.5828597 -0.8125728
vn 0.0003010552 -0.5828597 -0.8125728
vn 0.0003010552 -0.5828597 -0.8125728
vn 0.0003010552 -0.5828597 -0.8125728
vn 0.0003010552 -0.5828597 -0.8125728
vn 0.0003010552 -0.5828597 -0.8125728
vn 0.0003010552 -0.5828597 -0.8125728
vn 0.0003010552 -0.5828597 -0.8125728
vn 0.0003010552 -0.5828597 -0.8125728
vn 0.0003010552 -0.5828597 -0.8125728
vn 0.0003010552 -0.5828597 -0.8125728
vn 0.0003010552 -0.5828597 -0.8125728
vn 0.0003010552 -0.5828597 -0.8125728
vn 0.0003010552 -0.5828597 -0.8125728
vn 0.0003010552 -0.5828597 -0.8125728
vn 0.0003010552 -0.5828597 -0.8125728
vn -0.1640253 -0.6526417 0.739699
vn -0.1640253 -0.6526417 0.739699
vn -0.1640253 -0.6526417 0.739699
vn -0.1640253 -0.6526417 0.739699
vn -0.1640253 -0.6526417 0.739699
vn -0.1640253 -0.6526417 0.739699
vn -0.1640253 -0.6526417 0.739699
vn -0.1640253 -0.6526417 0.739699
vn -0.1640253 -0.6526417 0.739699
vn -0.1640253 -0.6526417 0.739699
vn -0.1640253 -0.6526417 0.739699
vn -0.1640253 -0.6526417 0.739699

vt 0.4944192 0.4418786
vt 0.5139015 0.5135312
vt 0.4853718 0.5292447
vt 0.4411239 0.6178904
vt 0.434997 0.5152189
vt 0.4656925 0.5742847
vt 0.4656925 0.5742847
vt 0.434997 0.5152189
vt 0.4439741 0.4996929
vt 0.5885684 0.3935055
vt 0.6661603 0.3838159
vt 0.6510751 0.4650972
vt 0.3285237 0.4940582
vt 0.3589614 0.4269481
vt 0.5141078 0.5676937
vt 0.5141078 0.5676937
vt 0.3589614 0.4269481
vt 0.6008129 0.5221848
vt 0.6008129 0.5221848
vt 0.3589614 0.4269481
vt 0.6173138 0.4536028
vt 0.6173138 0.4536028
vt 0.3589614 0.4269481
vt 0.4157584 0.3853629
vt 0.5092981 0.6129495
vt 0.5094295 0.6057397
vt 0.5125608 0.6096305
vt 0.5212989 0.5902513
vt 0.4807215 0.6194186
vt 0.5880433 0.4230244
vt 0.5880433 0.4230244
vt 0.4807215 0.6194186
vt 0.5869746 0.4044702
vt 0.5869746 0.4044702
vt 0.4807215 0.6194186
vt 0.5842838 0.4021685
vt 0.5842838 0.4021685
vt 0.4807215 0.6194186
vt 0.4209102 0.4360658
vt 0.4209102 0.4360658
vt 0.4807215 0.6194186
vt 0.4485259 0.6067804
vt 0.5615574 0.4125426
vt 0.5649983 0.4531152
vt 0.4946723 0.5796194
vt 0.4946723 0.5796194
vt 0.5649983 0.4531152
vt 0.5515537 0.5393233
vt 0.5725831 0.4418224
vt 0.4270606 0.5326198
vt 0.5528663 0.4061531
vt 0.5528663 0.4061531
vt 0.4270606 0.5326198
vt 0.3846363 0.3975839
vt 0.3870645 0.4259777
vt 0.572705 0.4473774
vt 0.4775901 0.5552524
vt 0.4775901 0.5552524
vt 0.572705 0.4473774
vt 0.5745988 0.5647123
vt 0.5745988 0.5647123
vt 0.572705 0.4473774
vt 0.6297833 0.5598464
vt 0.6297833 0.5598464
vt 0.572705 0.4473774
vt 0.6226672 0.5114686
vt 0.4729398 0.6256065
vt 0.3741919 0.5644779
vt 0.528068 0.5046338
vt 0.528068 0.5046338
vt 0.3741919 0.5644779
vt 0.375903 0.4578077
vt 0.375903 0.4578077
vt 0.3741919 0.5644779
vt 0.3474341 0.4827607
vt 0.3474341 0.4827607
vt 0.3741919 0.5644779
vt 0.3324145 0.5270976
vt 0.4118535 0.4245526
vt 0.4128145 0.4059938
vt 0.414938 0.4651956
vt 0.414938 0.4651956
vt 0.4128145 0.4059938
vt 0.4357892 0.535995
vt 0.4357892 0.535995
vt 0.4128145 0.4059938
vt 0.5139578 0.5276508
vt 0.5139578 0.5276508
vt 0.4128145 0.4059938
vt 0.4203055 0.4088064
vt 0.4261137 0.5662686
vt 0.4925722 0.4969459
vt 0.4241683 0.5721565
vt 0.4241683 0.5721565
vt 0.4925722 0.4969459
vt 0.4266715 0.5939734
vt 0.4266715 0.5939734
vt 0.4925722 0.4969459
vt 0.5341433 0.5216786
vt 0.5474566 0.4503073
vt 0.5574135 0.6194748
vt 0.4731367 0.4809887
vt 0.4731367 0.4809887
vt 0.5574135 0.6194748
vt 0.4253355 0.6092743
vt 0.4253355 0.6092743
vt 0.5574135 0.6194748
vt 0.544944 0.6381884
vt 0.544944 0.6381884
vt 0.5574135 0.6194748
vt 0.5559696 0.626394
vt 0.4849921 0.4189976
vt 0.5254897 0.4200336
vt 0.4495572 0.4630346
vt 0.4495572 0.4630346
vt 0.5254897 0.4200336
vt 0.4868719 0.6241533
vt 0.4868719 0.6241533
vt 0.5254897 0.4200336
vt 0.4900596 0.6277066
vt 0.4900596 0.6277066
vt 0.5254897 0.4200336
vt 0.549013 0.5919951
vt 0.322017 0.6350851
vt 0.3205263 0.5495052
vt 0.4377956 0.7435414
vt 0.4377956 0.7435414
vt 0.3205263 0.5495052
vt 0.626408 0.6633337
vt 0.626408 0.6633337
vt 0.3205263 0.5495052
vt 0.7121286 0.4835576
vt 0.7121286 0.4835576
vt 0.3205263 0.5495052
vt 0.6588475 0.3867036
vt 0.6588475 0.3867036
vt 0.3205263 0.5495052
vt 0.5008602 0.3611974
vt 0.5008602 0.3611974
vt 0.3205263 0.5495052
vt 0.3684728 0.3856348
vt 0.3684728 0.3856348
vt 0.3205263 0.5495052
vt 0.3368538 0.4311718
vt 0.5319682 0.4436366
vt 0.5915498 0.5019712
vt 0.3253126 0.4670426
vt 0.3253126 0.4670426
vt 0.5915498 0.5019712
vt 0.3239062 0.4721054
vt 0.3239062 0.4721054
vt 0.5915498 0.5019712
vt 0.3340365 0.4783073
vt 0.3340365 0.4783073
vt 0.5915498 0.5019712
vt 0.5962188 0.5215661

usemtl Material0
usemap Material0

usemtl Material1
usemap Material1
f 1/1/1 2/2/2 3/3/3
f 4/4/4 5/5/5 6/6/6
f 7/7/7 8/8/8 9/9/9
f 10/10/10 11/11/11 12/12/12
f 13/13/13 14/14/14 15/15/15
f 16/16/16 17/17/17 18/18/18
f 19/19/19 20/20/20 21/21/21
f 22/22/22 23/23/23 24/24/24
f 25/25/25 26/26/26 27/27/27
f 28/28/28 29/29/29 30/30/30
f 31/31/31 32/32/32 33/33/33
f 34/34/34 35/35/35 36/36/36
f 37/37/37 38/38/38 39/39/39
f 40/40/40 41/41/41 42/42/42
f 43/43/43 44/44/44 45/45/45
f 46/46/46 47/47/47 48/48/48
f 49/49/49 50/50/50 51/51/51
f 52/52/52 53/53/53 54/54/54
f 55/55/55 56/56/56 57/57/57
f 58/58/58 59/59/59 60/60/60
f 61/61/61 62/62/62 63/63/63
f 64/64/64 65/65/65 66/66/66
f 67/67/67 68/68/68 69/69/69
f 70/70/70 71/71/71 72/72/72
f 73/73/73 74/74/74 75/75/75
f 76/76/76 77/77/77 78/78/78
f 79/79/79 80/80/80 81/81/81
f 82/82/82 83/83/83 84/84/84
f 85/85/85 86/86/86 87/87/87
f 88/88/88 89/89/89 90/90/90
f 91/91/91 92/92/92 93/93/93
f 94/94/94 95/95/95 96/96/96
f 97/97/97 98/98/98 99/99/99
f 100/100/100 101/101/101 102/102/102
f 103/103/103 104/104/104 105/105/105
f 106/106/106 107/107/107 108/108/108
f 109/109/109 110/110/110 111/111/111
f 112/112/112 113/113/113 114/114/114
f 115/115/115 116/116/116 117/117/117
f 118/118/118 119/119/119 120/120/120
f 121/121/121 122/122/122 123/123/123
f 124/124/124 125/125/125 126/126/126
f 127/127/127 128/128/128 129/129/129
f 130/130/130 131/131/131 132/132/132
f 133/133/133 134/134/134 135/135/135
f 136/136/136 137/137/137 138/138/138
f 139/139/139 140/140/140 141/141/141
f 142/142/142 143/143/143 144/144/144
f 145/145/145 146/146/146 147/147/147
f 148/148/148 149/149/149 150/150/150
f 151/151/151 152/152/152 153/153/153
f 154/154/154 155/155/155 156/156/156
