g  Instance
v -3.836013 -54.46473 -1.852223
v -3.89012 -54.50349 -1.808261
v -3.370947 -53.9894 -2.856919
v -3.370947 -53.9894 -2.856919
v -3.89012 -54.50349 -1.808261
v -4.115789 -54.33468 -3.08206
v -4.115789 -54.33468 -3.08206
v -3.89012 -54.50349 -1.808261
v -4.391794 -54.73848 -1.949174
v -4.391794 -54.73848 -1.949174
v -3.89012 -54.50349 -1.808261
v -4.274885 -54.70271 -1.832609
v -4.274885 -54.70271 -1.832609
v -3.89012 -54.50349 -1.808261
v -4.168892 -54.65757 -1.782952
v -4.274885 -54.70271 -1.832609
v -4.250256 -54.67562 -1.744101
v -4.391794 -54.73848 -1.949174
v -4.391794 -54.73848 -1.949174
v -4.250256 -54.67562 -1.744101
v -4.830952 -54.6333 -1.60353
v -4.830952 -54.6333 -1.60353
v -4.250256 -54.67562 -1.744101
v -4.508281 -54.58556 -1.448591
v -4.274885 -54.70271 -1.832609
v -4.168892 -54.65757 -1.782952
v -4.250256 -54.67562 -1.744101
v -5.125842 -52.52894 -0.4827916
v -4.229336 -53.60687 -0.5095709
v -5.263718 -51.57833 -1.83141
v -5.263718 -51.57833 -1.83141
v -4.229336 -53.60687 -0.5095709
v -4.351827 -51.8856 -3.218858
v -4.351827 -51.8856 -3.218858
v -4.229336 -53.60687 -0.5095709
v -3.77731 -52.46429 -3.429224
v -3.77731 -52.46429 -3.429224
v -4.229336 -53.60687 -0.5095709
v -3.163413 -53.52554 -2.890631
v -3.163413 -53.52554 -2.890631
v -4.229336 -53.60687 -0.5095709
v -3.754465 -53.83094 -1.121673
v -4.706604 -53.6657 -0.3963519
v -4.540736 -53.72879 -0.4226329
v -5.22647 -52.71182 -0.4322545
v -5.22647 -52.71182 -0.4322545
v -4.540736 -53.72879 -0.4226329
v -5.125842 -52.52894 -0.4827916
v -5.125842 -52.52894 -0.4827916
v -4.540736 -53.72879 -0.4226329
v -4.229336 -53.60687 -0.5095709
v -3.97667 -52.4502 -3.517421
v -4.761452 -53.69222 -3.524263
v -4.353257 -51.88933 -3.222795
v -4.353257 -51.88933 -3.222795
v -4.761452 -53.69222 -3.524263
v -5.724901 -52.61639 -2.862978
v -5.724901 -52.61639 -2.862978
v -4.761452 -53.69222 -3.524263
v -5.953766 -53.04252 -2.881435
v -5.953766 -53.04252 -2.881435
v -4.761452 -53.69222 -3.524263
v -5.915188 -53.24505 -2.948974
v -6.004567 -54.05523 -1.258381
v -4.706604 -53.6657 -0.3963519
v -6.370701 -53.75365 -1.386856
v -6.370701 -53.75365 -1.386856
v -4.706604 -53.6657 -0.3963519
v -6.316597 -53.50563 -1.286318
v -6.316597 -53.50563 -1.286318
v -4.706604 -53.6657 -0.3963519
v -5.22647 -52.71182 -0.4322545
v -6.217074 -53.20296 -1.480102
v -5.318768 -51.63427 -1.855829
v -6.151746 -53.2559 -2.227804
v -6.151746 -53.2559 -2.227804
v -5.318768 -51.63427 -1.855829
v -5.953766 -53.04252 -2.881435
v -5.953766 -53.04252 -2.881435
v -5.318768 -51.63427 -1.855829
v -5.724901 -52.61639 -2.862978
v -4.115789 -54.33468 -3.08206
v -4.761452 -53.69222 -3.524263
v -3.370947 -53.9894 -2.856919
v -3.370947 -53.9894 -2.856919
v -4.761452 -53.69222 -3.524263
v -3.163413 -53.52554 -2.890631
v -3.163413 -53.52554 -2.890631
v -4.761452 -53.69222 -3.524263
v -3.77731 -52.46429 -3.429224
v -3.77731 -52.46429 -3.429224
v -4.761452 -53.69222 -3.524263
v -3.97667 -52.4502 -3.517421
v -3.836013 -54.46473 -1.852223
v -3.370947 -53.9894 -2.856919
v -3.852116 -54.46606 -1.792514
v -3.852116 -54.46606 -1.792514
v -3.370947 -53.9894 -2.856919
v -3.754465 -53.83094 -1.121673
v -3.754465 -53.83094 -1.121673
v -3.370947 -53.9894 -2.856919
v -3.163413 -53.52554 -2.890631
v -4.351827 -51.8856 -3.218858
v -3.77731 -52.46429 -3.429224
v -4.353257 -51.88933 -3.222795
v -4.353257 -51.88933 -3.222795
v -3.77731 -52.46429 -3.429224
v -3.97667 -52.4502 -3.517421
v -5.263718 -51.57833 -1.83141
v -4.351827 -51.8856 -3.218858
v -5.318768 -51.63427 -1.855829
v -5.318768 -51.63427 -1.855829
v -4.351827 -51.8856 -3.218858
v -5.724901 -52.61639 -2.862978
v -5.724901 -52.61639 -2.862978
v -4.351827 -51.8856 -3.218858
v -4.353257 -51.88933 -3.222795
v -6.151746 -53.2559 -2.227804
v -6.331572 -53.68103 -1.577417
v -6.217074 -53.20296 -1.480102
v -6.217074 -53.20296 -1.480102
v -6.331572 -53.68103 -1.577417
v -6.316597 -53.50563 -1.286318
v -6.316597 -53.50563 -1.286318
v -6.331572 -53.68103 -1.577417
v -6.370701 -53.75365 -1.386856
v -6.151746 -53.2559 -2.227804
v -5.953766 -53.04252 -2.881435
v -6.331572 -53.68103 -1.577417
v -6.331572 -53.68103 -1.577417
v -5.953766 -53.04252 -2.881435
v -5.915188 -53.24505 -2.948974
v -4.830952 -54.6333 -1.60353
v -4.508281 -54.58556 -1.448591
v -6.004567 -54.05523 -1.258381
v -6.004567 -54.05523 -1.258381
v -4.508281 -54.58556 -1.448591
v -4.706604 -53.6657 -0.3963519
v -4.706604 -53.6657 -0.3963519
v -4.508281 -54.58556 -1.448591
v -4.540736 -53.72879 -0.4226329
v -5.263718 -51.57833 -1.83141
v -5.318768 -51.63427 -1.855829
v -5.125842 -52.52894 -0.4827916
v -5.125842 -52.52894 -0.4827916
v -5.318768 -51.63427 -1.855829
v -5.22647 -52.71182 -0.4322545
v -5.22647 -52.71182 -0.4322545
v -5.318768 -51.63427 -1.855829
v -6.316597 -53.50563 -1.286318
v -6.316597 -53.50563 -1.286318
v -5.318768 -51.63427 -1.855829
v -6.217074 -53.20296 -1.480102
v -5.915188 -53.24505 -2.948974
v -4.761452 -53.69222 -3.524263
v -6.331572 -53.68103 -1.577417
v -6.331572 -53.68103 -1.577417
v -4.761452 -53.69222 -3.524263
v -6.370701 -53.75365 -1.386856
v -6.370701 -53.75365 -1.386856
v -4.761452 -53.69222 -3.524263
v -6.004567 -54.05523 -1.258381
v -6.004567 -54.05523 -1.258381
v -4.761452 -53.69222 -3.524263
v -4.830952 -54.6333 -1.60353
v -4.830952 -54.6333 -1.60353
v -4.761452 -53.69222 -3.524263
v -4.391794 -54.73848 -1.949174
v -4.391794 -54.73848 -1.949174
v -4.761452 -53.69222 -3.524263
v -4.115789 -54.33468 -3.08206
v -3.836013 -54.46473 -1.852223
v -3.852116 -54.46606 -1.792514
v -3.89012 -54.50349 -1.808261
v -3.89012 -54.50349 -1.808261
v -3.852116 -54.46606 -1.792514
v -4.168892 -54.65757 -1.782952
v -4.168892 -54.65757 -1.782952
v -3.852116 -54.46606 -1.792514
v -4.250256 -54.67562 -1.744101
v -4.250256 -54.67562 -1.744101
v -3.852116 -54.46606 -1.792514
v -4.508281 -54.58556 -1.448591
v -4.508281 -54.58556 -1.448591
v -3.852116 -54.46606 -1.792514
v -4.540736 -53.72879 -0.4226329
v -4.540736 -53.72879 -0.4226329
v -3.852116 -54.46606 -1.792514
v -4.229336 -53.60687 -0.5095709
v -4.229336 -53.60687 -0.5095709
v -3.852116 -54.46606 -1.792514
v -3.754465 -53.83094 -1.121673

vn 0.4606082 -0.8656204 -0.1963194
vn 0.4606082 -0.8656204 -0.1963194
vn 0.4606082 -0.8656204 -0.1963194
vn 0.4606082 -0.8656204 -0.1963194
vn 0.4606082 -0.8656204 -0.1963194
vn 0.4606082 -0.8656204 -0.1963194
vn 0.4606082 -0.8656204 -0.1963194
vn 0.4606082 -0.8656204 -0.1963194
vn 0.4606082 -0.8656204 -0.1963194
vn 0.4606082 -0.8656204 -0.1963194
vn 0.4606082 -0.8656204 -0.1963194
vn 0.4606082 -0.8656204 -0.1963194
vn 0.4606082 -0.8656204 -0.1963194
vn 0.4606082 -0.8656204 -0.1963194
vn 0.4606082 -0.8656204 -0.1963194
vn 0.001091633 -0.9563001 0.2923848
vn 0.001091633 -0.9563001 0.2923848
vn 0.001091633 -0.9563001 0.2923848
vn 0.001091633 -0.9563001 0.2923848
vn 0.001091633 -0.9563001 0.2923848
vn 0.001091633 -0.9563001 0.2923848
vn 0.001091633 -0.9563001 0.2923848
vn 0.001091633 -0.9563001 0.2923848
vn 0.001091633 -0.9563001 0.2923848
vn 0.302628 -0.9316858 0.2009425
vn 0.302628 -0.9316858 0.2009425
vn 0.302628 -0.9316858 0.2009425
vn 0.7257701 0.5950418 0.3452291
vn 0.7257701 0.5950418 0.3452291
vn 0.7257701 0.5950418 0.3452291
vn 0.7257701 0.5950418 0.3452291
vn 0.7257701 0.5950418 0.3452291
vn 0.7257701 0.5950418 0.3452291
vn 0.7257701 0.5950418 0.3452291
vn 0.7257701 0.5950418 0.3452291
vn 0.7257701 0.5950418 0.3452291
vn 0.7257701 0.5950418 0.3452291
vn 0.7257701 0.5950418 0.3452291
vn 0.7257701 0.5950418 0.3452291
vn 0.7257701 0.5950418 0.3452291
vn 0.7257701 0.5950418 0.3452291
vn 0.7257701 0.5950418 0.3452291
vn 0.2104982 0.1510709 0.965851
vn 0.2104982 0.1510709 0.965851
vn 0.2104982 0.1510709 0.965851
vn 0.2104982 0.1510709 0.965851
vn 0.2104982 0.1510709 0.965851
vn 0.2104982 0.1510709 0.965851
vn 0.2104982 0.1510709 0.965851
vn 0.2104982 0.1510709 0.965851
vn 0.2104982 0.1510709 0.965851
vn -0.3602845 0.2326312 -0.9033703
vn -0.3602845 0.2326312 -0.9033703
vn -0.3602845 0.2326312 -0.9033703
vn -0.3602845 0.2326312 -0.9033703
vn -0.3602845 0.2326312 -0.9033703
vn -0.3602845 0.2326312 -0.9033703
vn -0.3602845 0.2326312 -0.9033703
vn -0.3602845 0.2326312 -0.9033703
vn -0.3602845 0.2326312 -0.9033703
vn -0.3602845 0.2326312 -0.9033703
vn -0.3602845 0.2326312 -0.9033703
vn -0.3602845 0.2326312 -0.9033703
vn -0.488055 -0.2343432 0.840765
vn -0.488055 -0.2343432 0.840765
vn -0.488055 -0.2343432 0.840765
vn -0.488055 -0.2343432 0.840765
vn -0.488055 -0.2343432 0.840765
vn -0.488055 -0.2343432 0.840765
vn -0.488055 -0.2343432 0.840765
vn -0.488055 -0.2343432 0.840765
vn -0.488055 -0.2343432 0.840765
vn -0.8736526 0.4739782 -0.1098906
vn -0.8736526 0.4739782 -0.1098906
vn -0.8736526 0.4739782 -0.1098906
vn -0.8736526 0.4739782 -0.1098906
vn -0.8736526 0.4739782 -0.1098906
vn -0.8736526 0.4739782 -0.1098906
vn -0.8736526 0.4739782 -0.1098906
vn -0.8736526 0.4739782 -0.1098906
vn -0.8736526 0.4739782 -0.1098906
vn 0.3793514 -0.2347674 -0.894973
vn 0.3793514 -0.2347674 -0.894973
vn 0.3793514 -0.2347674 -0.894973
vn 0.3793514 -0.2347674 -0.894973
vn 0.3793514 -0.2347674 -0.894973
vn 0.3793514 -0.2347674 -0.894973
vn 0.3793514 -0.2347674 -0.894973
vn 0.3793514 -0.2347674 -0.894973
vn 0.3793514 -0.2347674 -0.894973
vn 0.3793514 -0.2347674 -0.894973
vn 0.3793514 -0.2347674 -0.894973
vn 0.3793514 -0.2347674 -0.894973
vn 0.89397 -0.3830562 0.2325635
vn 0.89397 -0.3830562 0.2325635
vn 0.89397 -0.3830562 0.2325635
vn 0.89397 -0.3830562 0.2325635
vn 0.89397 -0.3830562 0.2325635
vn 0.89397 -0.3830562 0.2325635
vn 0.89397 -0.3830562 0.2325635
vn 0.89397 -0.3830562 0.2325635
vn 0.89397 -0.3830562 0.2325635
vn 0.3560654 0.6106829 -0.7073075
vn 0.3560654 0.6106829 -0.7073075
vn 0.3560654 0.6106829 -0.7073075
vn 0.3560654 0.6106829 -0.7073075
vn 0.3560654 0.6106829 -0.7073075
vn 0.3560654 0.6106829 -0.7073075
vn -0.5051636 0.7107991 -0.4894634
vn -0.5051636 0.7107991 -0.4894634
vn -0.5051636 0.7107991 -0.4894634
vn -0.5051636 0.7107991 -0.4894634
vn -0.5051636 0.7107991 -0.4894634
vn -0.5051636 0.7107991 -0.4894634
vn -0.5051636 0.7107991 -0.4894634
vn -0.5051636 0.7107991 -0.4894634
vn -0.5051636 0.7107991 -0.4894634
vn -0.9625391 0.2512697 -0.1018923
vn -0.9625391 0.2512697 -0.1018923
vn -0.9625391 0.2512697 -0.1018923
vn -0.9625391 0.2512697 -0.1018923
vn -0.9625391 0.2512697 -0.1018923
vn -0.9625391 0.2512697 -0.1018923
vn -0.9625391 0.2512697 -0.1018923
vn -0.9625391 0.2512697 -0.1018923
vn -0.9625391 0.2512697 -0.1018923
vn -0.9470695 -0.07641844 -0.3118007
vn -0.9470695 -0.07641844 -0.3118007
vn -0.9470695 -0.07641844 -0.3118007
vn -0.9470695 -0.07641844 -0.3118007
vn -0.9470695 -0.07641844 -0.3118007
vn -0.9470695 -0.07641844 -0.3118007
vn -0.1886329 -0.7566843 0.6259766
vn -0.1886329 -0.7566843 0.6259766
vn -0.1886329 -0.7566843 0.6259766
vn -0.1886329 -0.7566843 0.6259766
vn -0.1886329 -0.7566843 0.6259766
vn -0.1886329 -0.7566843 0.6259766
vn -0.1886329 -0.7566843 0.6259766
vn -0.1886329 -0.7566843 0.6259766
vn -0.1886329 -0.7566843 0.6259766
vn -0.7280486 0.5230619 0.4431159
vn -0.7280486 0.5230619 0.4431159
vn -0.7280486 0.5230619 0.4431159
vn -0.7280486 0.5230619 0.4431159
vn -0.7280486 0.5230619 0.4431159
vn -0.7280486 0.5230619 0.4431159
vn -0.7280486 0.5230619 0.4431159
vn -0.7280486 0.5230619 0.4431159
vn -0.7280486 0.5230619 0.4431159
vn -0.7280486 0.5230619 0.4431159
vn -0.7280486 0.5230619 0.4431159
vn -0.7280486 0.5230619 0.4431159
vn -0.4968445 -0.7720894 -0.396262
vn -0.4968445 -0.7720894 -0.396262
vn -0.4968445 -0.7720894 -0.396262
vn -0.4968445 -0.7720894 -0.396262
vn -0.4968445 -0.7720894 -0.396262
vn -0.4968445 -0.7720894 -0.396262
vn -0.4968445 -0.7720894 -0.396262
vn -0.4968445 -0.7720894 -0.396262
vn -0.4968445 -0.7720894 -0.396262
vn -0.4968445 -0.7720894 -0.396262
vn -0.4968445 -0.7720894 -0.396262
vn -0.4968445 -0.7720894 -0.396262
vn -0.4968445 -0.7720894 -0.396262
vn -0.4968445 -0.7720894 -0.396262
vn -0.4968445 -0.7720894 -0.396262
vn -0.4968445 -0.7720894 -0.396262
vn -0.4968445 -0.7720894 -0.396262
vn -0.4968445 -0.7720894 -0.396262
vn 0.6578859 -0.7356952 0.1610549
vn 0.6578859 -0.7356952 0.1610549
vn 0.6578859 -0.7356952 0.1610549
vn 0.4320249 -0.6854619 0.5860858
vn 0.4320249 -0.6854619 0.5860858
vn 0.4320249 -0.6854619 0.5860858
vn 0.4320249 -0.6854619 0.5860858
vn 0.4320249 -0.6854619 0.5860858
vn 0.4320249 -0.6854619 0.5860858
vn 0.4320249 -0.6854619 0.5860858
vn 0.4320249 -0.6854619 0.5860858
vn 0.4320249 -0.6854619 0.5860858
vn 0.4320249 -0.6854619 0.5860858
vn 0.4320249 -0.6854619 0.5860858
vn 0.4320249 -0.6854619 0.5860858
vn 0.4320249 -0.6854619 0.5860858
vn 0.4320249 -0.6854619 0.5860858
vn 0.4320249 -0.6854619 0.5860858
vn 0.4320249 -0.6854619 0.5860858
vn 0.4320249 -0.6854619 0.5860858
vn 0.4320249 -0.6854619 0.5860858

vt 0.4429146 0.4295123
vt 0.4495291 0.4250167
vt 0.3793672 0.5322354
vt 0.3793672 0.5322354
vt 0.4495291 0.4250167
vt 0.4615532 0.5552524
vt 0.4615532 0.5552524
vt 0.4495291 0.4250167
vt 0.5049948 0.4394222
vt 0.5049948 0.4394222
vt 0.4495291 0.4250167
vt 0.492966 0.4275059
vt 0.492966 0.4275059
vt 0.4495291 0.4250167
vt 0.4814575 0.4224291
vt 0.4003028 0.5165595
vt 0.3977667 0.5070434
vt 0.4123269 0.5290946
vt 0.4123269 0.5290946
vt 0.3977667 0.5070434
vt 0.4574561 0.49193
vt 0.4574561 0.49193
vt 0.3977667 0.5070434
vt 0.4242808 0.4752743
vt 0.4594437 0.5034056
vt 0.4479259 0.4983147
vt 0.4562514 0.4943395
vt 0.4535325 0.3438667
vt 0.6003909 0.3468575
vt 0.3673712 0.4943864
vt 0.3673712 0.4943864
vt 0.6003909 0.3468575
vt 0.4528246 0.6492422
vt 0.4528246 0.6492422
vt 0.6003909 0.3468575
vt 0.537856 0.6727185
vt 0.537856 0.6727185
vt 0.6003909 0.3468575
vt 0.6645853 0.6126119
vt 0.6645853 0.6126119
vt 0.6003909 0.3468575
vt 0.6500719 0.4151724
vt 0.3986762 0.4677223
vt 0.3928165 0.4506589
vt 0.4940067 0.5212004
vt 0.4940067 0.5212004
vt 0.3928165 0.4506589
vt 0.5129547 0.5108405
vt 0.5129547 0.5108405
vt 0.3928165 0.4506589
vt 0.4062797 0.4186226
vt 0.4744727 0.3034019
vt 0.6014129 0.3920664
vt 0.4094955 0.3459481
vt 0.4094955 0.3459481
vt 0.6014129 0.3920664
vt 0.4742383 0.5009024
vt 0.4742383 0.5009024
vt 0.6014129 0.3920664
vt 0.5182143 0.5267601
vt 0.5182143 0.5267601
vt 0.6014129 0.3920664
vt 0.5406594 0.5224005
vt 0.3838018 0.5966361
vt 0.3455543 0.3075131
vt 0.4619517 0.6397354
vt 0.4619517 0.6397354
vt 0.3455543 0.3075131
vt 0.4983007 0.6060116
vt 0.4983007 0.6060116
vt 0.3455543 0.3075131
vt 0.5425532 0.319556
vt 0.4214775 0.42144
vt 0.6002315 0.4588249
vt 0.4199539 0.495849
vt 0.4199539 0.495849
vt 0.6002315 0.4588249
vt 0.4478415 0.5608871
vt 0.4478415 0.5608871
vt 0.6002315 0.4588249
vt 0.4956849 0.5590495
vt 0.6210077 0.2759972
vt 0.5754895 0.4944333
vt 0.469935 0.1647845
vt 0.469935 0.1647845
vt 0.5754895 0.4944333
vt 0.3589473 0.1814355
vt 0.3589473 0.1814355
vt 0.5754895 0.4944333
vt 0.2312712 0.4474805
vt 0.2312712 0.4474805
vt 0.5754895 0.4944333
vt 0.2517474 0.4910487
vt 0.5741113 0.5091153
vt 0.5114264 0.6135308
vt 0.5748801 0.5029088
vt 0.5748801 0.5029088
vt 0.5114264 0.6135308
vt 0.5119796 0.4331828
vt 0.5119796 0.4331828
vt 0.5114264 0.6135308
vt 0.4600672 0.6170372
vt 0.5077699 0.4677036
vt 0.6173232 0.5090872
vt 0.5078637 0.4684771
vt 0.5078637 0.4684771
vt 0.6173232 0.5090872
vt 0.5923842 0.5264413
vt 0.5718518 0.3976542
vt 0.6355773 0.5770224
vt 0.5631419 0.4008138
vt 0.5631419 0.4008138
vt 0.6355773 0.5770224
vt 0.4616751 0.5310166
vt 0.4616751 0.5310166
vt 0.6355773 0.5770224
vt 0.6352023 0.5775287
vt 0.4399754 0.4949677
vt 0.3948322 0.4303514
vt 0.4434022 0.4206852
vt 0.4434022 0.4206852
vt 0.3948322 0.4303514
vt 0.4119754 0.4014326
vt 0.4119754 0.4014326
vt 0.3948322 0.4303514
vt 0.3869098 0.4114175
vt 0.4714304 0.4711397
vt 0.4917847 0.5423235
vt 0.4290857 0.4003122
vt 0.4290857 0.4003122
vt 0.4917847 0.5423235
vt 0.4705772 0.5496739
vt 0.4011513 0.5620216
vt 0.3631382 0.5369794
vt 0.5623356 0.5062277
vt 0.5623356 0.5062277
vt 0.3631382 0.5369794
vt 0.415449 0.366879
vt 0.415449 0.366879
vt 0.3631382 0.5369794
vt 0.3932383 0.3711261
vt 0.6087446 0.5098654
vt 0.6002315 0.5128562
vt 0.5329058 0.3448934
vt 0.5329058 0.3448934
vt 0.6002315 0.5128562
vt 0.5101795 0.3387102
vt 0.5101795 0.3387102
vt 0.6002315 0.5128562
vt 0.3697292 0.4431866
vt 0.3697292 0.4431866
vt 0.6002315 0.5128562
vt 0.4030545 0.4668926
vt 0.5445127 0.5484833
vt 0.4147177 0.6155746
vt 0.5567478 0.3885318
vt 0.5567478 0.3885318
vt 0.4147177 0.6155746
vt 0.5560634 0.3663118
vt 0.5560634 0.3663118
vt 0.4147177 0.6155746
vt 0.505623 0.351325
vt 0.505623 0.351325
vt 0.4147177 0.6155746
vt 0.3664477 0.3915742
vt 0.3664477 0.3915742
vt 0.4147177 0.6155746
vt 0.3208076 0.4318843
vt 0.3208076 0.4318843
vt 0.4147177 0.6155746
vt 0.3193638 0.5640091
vt 0.4899658 0.4987554
vt 0.4912502 0.4927269
vt 0.4965568 0.4943208
vt 0.4582718 0.60123
vt 0.4519527 0.5988674
vt 0.4968475 0.5974423
vt 0.4968475 0.5974423
vt 0.4519527 0.5988674
vt 0.506373 0.5916201
vt 0.506373 0.5916201
vt 0.4519527 0.5988674
vt 0.5270273 0.5473676
vt 0.5270273 0.5473676
vt 0.4519527 0.5988674
vt 0.4749321 0.3937306
vt 0.4749321 0.3937306
vt 0.4519527 0.5988674
vt 0.4350814 0.4067579
vt 0.4350814 0.4067579
vt 0.4519527 0.5988674
vt 0.4008325 0.4984179

usemtl Material0
usemap Material0

usemtl Material1
usemap Material1
f 1/1/1 2/2/2 3/3/3
f 4/4/4 5/5/5 6/6/6
f 7/7/7 8/8/8 9/9/9
f 10/10/10 11/11/11 12/12/12
f 13/13/13 14/14/14 15/15/15
f 16/16/16 17/17/17 18/18/18
f 19/19/19 20/20/20 21/21/21
f 22/22/22 23/23/23 24/24/24
f 25/25/25 26/26/26 27/27/27
f 28/28/28 29/29/29 30/30/30
f 31/31/31 32/32/32 33/33/33
f 34/34/34 35/35/35 36/36/36
f 37/37/37 38/38/38 39/39/39
f 40/40/40 41/41/41 42/42/42
f 43/43/43 44/44/44 45/45/45
f 46/46/46 47/47/47 48/48/48
f 49/49/49 50/50/50 51/51/51
f 52/52/52 53/53/53 54/54/54
f 55/55/55 56/56/56 57/57/57
f 58/58/58 59/59/59 60/60/60
f 61/61/61 62/62/62 63/63/63
f 64/64/64 65/65/65 66/66/66
f 67/67/67 68/68/68 69/69/69
f 70/70/70 71/71/71 72/72/72
f 73/73/73 74/74/74 75/75/75
f 76/76/76 77/77/77 78/78/78
f 79/79/79 80/80/80 81/81/81
f 82/82/82 83/83/83 84/84/84
f 85/85/85 86/86/86 87/87/87
f 88/88/88 89/89/89 90/90/90
f 91/91/91 92/92/92 93/93/93
f 94/94/94 95/95/95 96/96/96
f 97/97/97 98/98/98 99/99/99
f 100/100/100 101/101/101 102/102/102
f 103/103/103 104/104/104 105/105/105
f 106/106/106 107/107/107 108/108/108
f 109/109/109 110/110/110 111/111/111
f 112/112/112 113/113/113 114/114/114
f 115/115/115 116/116/116 117/117/117
f 118/118/118 119/119/119 120/120/120
f 121/121/121 122/122/122 123/123/123
f 124/124/124 125/125/125 126/126/126
f 127/127/127 128/128/128 129/129/129
f 130/130/130 131/131/131 132/132/132
f 133/133/133 134/134/134 135/135/135
f 136/136/136 137/137/137 138/138/138
f 139/139/139 140/140/140 141/141/141
f 142/142/142 143/143/143 144/144/144
f 145/145/145 146/146/146 147/147/147
f 148/148/148 149/149/149 150/150/150
f 151/151/151 152/152/152 153/153/153
f 154/154/154 155/155/155 156/156/156
f 157/157/157 158/158/158 159/159/159
f 160/160/160 161/161/161 162/162/162
f 163/163/163 164/164/164 165/165/165
f 166/166/166 167/167/167 168/168/168
f 169/169/169 170/170/170 171/171/171
f 172/172/172 173/173/173 174/174/174
f 175/175/175 176/176/176 177/177/177
f 178/178/178 179/179/179 180/180/180
f 181/181/181 182/182/182 183/183/183
f 184/184/184 185/185/185 186/186/186
f 187/187/187 188/188/188 189/189/189
f 190/190/190 191/191/191 192/192/192
