g  Instance
v 3.473709 -44.84661 -1.551273
v 4.184448 -44.88729 -1.002023
v 3.025597 -44.85333 -1.423751
v 2.614752 -44.52526 -0.9764816
v 2.747807 -44.64047 -1.436465
v 2.794081 -44.78347 -1.388876
v 4.184448 -44.88729 -1.002023
v 4.743452 -44.82143 -0.643294
v 3.025597 -44.85333 -1.423751
v 3.025597 -44.85333 -1.423751
v 4.743452 -44.82143 -0.643294
v 2.794081 -44.78347 -1.388876
v 2.794081 -44.78347 -1.388876
v 4.743452 -44.82143 -0.643294
v 2.614752 -44.52526 -0.9764816
v 2.614752 -44.52526 -0.9764816
v 4.743452 -44.82143 -0.643294
v 2.484734 -43.96516 0.02669662
v 2.484734 -43.96516 0.02669662
v 4.743452 -44.82143 -0.643294
v 2.660824 -43.9128 0.1993884
v 2.660824 -43.9128 0.1993884
v 4.743452 -44.82143 -0.643294
v 4.488704 -44.15192 0.5141633
v 4.488704 -44.15192 0.5141633
v 4.743452 -44.82143 -0.643294
v 4.677574 -44.27814 0.3550003
v 2.575342 -43.83381 0.1288941
v 2.660824 -43.9128 0.1993884
v 2.827879 -43.45778 -0.164058
v 2.827879 -43.45778 -0.164058
v 2.660824 -43.9128 0.1993884
v 3.501185 -42.65691 -0.7792407
v 3.501185 -42.65691 -0.7792407
v 2.660824 -43.9128 0.1993884
v 3.854602 -42.61166 -0.7936198
v 3.854602 -42.61166 -0.7936198
v 2.660824 -43.9128 0.1993884
v 4.301084 -42.70044 -0.6917604
v 4.301084 -42.70044 -0.6917604
v 2.660824 -43.9128 0.1993884
v 4.770937 -43.97461 0.386566
v 4.770937 -43.97461 0.386566
v 2.660824 -43.9128 0.1993884
v 4.748864 -44.01639 0.4194995
v 4.748864 -44.01639 0.4194995
v 2.660824 -43.9128 0.1993884
v 4.488704 -44.15192 0.5141633
v 3.581308 -42.5994 -0.899207
v 3.501185 -42.65691 -0.7792407
v 3.854602 -42.61166 -0.7936198
v 4.743452 -44.82143 -0.643294
v 4.184448 -44.88729 -1.002023
v 5.014844 -44.20355 -0.9077668
v 5.014844 -44.20355 -0.9077668
v 4.184448 -44.88729 -1.002023
v 4.82411 -43.66123 -1.453002
v 4.82411 -43.66123 -1.453002
v 4.184448 -44.88729 -1.002023
v 3.801402 -43.83249 -2.071306
v 3.801402 -43.83249 -2.071306
v 4.184448 -44.88729 -1.002023
v 3.473709 -44.84661 -1.551273
v 4.488704 -44.15192 0.5141633
v 4.677574 -44.27814 0.3550003
v 4.748864 -44.01639 0.4194995
v 2.518924 -43.86261 0.07202861
v 2.827879 -43.45778 -0.164058
v 2.484734 -43.96516 0.02669662
v 2.484734 -43.96516 0.02669662
v 2.827879 -43.45778 -0.164058
v 2.614752 -44.52526 -0.9764816
v 2.614752 -44.52526 -0.9764816
v 2.827879 -43.45778 -0.164058
v 2.747807 -44.64047 -1.436465
v 2.747807 -44.64047 -1.436465
v 2.827879 -43.45778 -0.164058
v 3.500547 -43.68509 -2.049928
v 3.500547 -43.68509 -2.049928
v 2.827879 -43.45778 -0.164058
v 3.581308 -42.5994 -0.899207
v 3.581308 -42.5994 -0.899207
v 2.827879 -43.45778 -0.164058
v 3.501185 -42.65691 -0.7792407
v 2.660824 -43.9128 0.1993884
v 2.575342 -43.83381 0.1288941
v 2.484734 -43.96516 0.02669662
v 2.484734 -43.96516 0.02669662
v 2.575342 -43.83381 0.1288941
v 2.518924 -43.86261 0.07202861
v 3.025597 -44.85333 -1.423751
v 2.794081 -44.78347 -1.388876
v 3.473709 -44.84661 -1.551273
v 3.473709 -44.84661 -1.551273
v 2.794081 -44.78347 -1.388876
v 3.801402 -43.83249 -2.071306
v 3.801402 -43.83249 -2.071306
v 2.794081 -44.78347 -1.388876
v 3.500547 -43.68509 -2.049928
v 3.500547 -43.68509 -2.049928
v 2.794081 -44.78347 -1.388876
v 2.747807 -44.64047 -1.436465
v 2.827879 -43.45778 -0.164058
v 2.518924 -43.86261 0.07202861
v 2.575342 -43.83381 0.1288941
v 3.854602 -42.61166 -0.7936198
v 4.301084 -42.70044 -0.6917604
v 3.581308 -42.5994 -0.899207
v 3.581308 -42.5994 -0.899207
v 4.301084 -42.70044 -0.6917604
v 3.500547 -43.68509 -2.049928
v 3.500547 -43.68509 -2.049928
v 4.301084 -42.70044 -0.6917604
v 3.801402 -43.83249 -2.071306
v 3.801402 -43.83249 -2.071306
v 4.301084 -42.70044 -0.6917604
v 4.82411 -43.66123 -1.453002
v 4.301084 -42.70044 -0.6917604
v 4.770937 -43.97461 0.386566
v 4.82411 -43.66123 -1.453002
v 4.82411 -43.66123 -1.453002
v 4.770937 -43.97461 0.386566
v 5.014844 -44.20355 -0.9077668
v 4.677574 -44.27814 0.3550003
v 4.743452 -44.82143 -0.643294
v 4.748864 -44.01639 0.4194995
v 4.748864 -44.01639 0.4194995
v 4.743452 -44.82143 -0.643294
v 4.770937 -43.97461 0.386566
v 4.770937 -43.97461 0.386566
v 4.743452 -44.82143 -0.643294
v 5.014844 -44.20355 -0.9077668

vn -0.004429394 -0.9976655 -0.06814666
vn -0.004429394 -0.9976655 -0.06814666
vn -0.004429394 -0.9976655 -0.06814666
vn -0.9177997 -0.3557095 -0.1763936
vn -0.9177997 -0.3557095 -0.1763936
vn -0.9177997 -0.3557095 -0.1763936
vn -0.1925303 -0.8672004 0.4592337
vn -0.1925303 -0.8672004 0.4592337
vn -0.1925303 -0.8672004 0.4592337
vn -0.1925303 -0.8672004 0.4592337
vn -0.1925303 -0.8672004 0.4592337
vn -0.1925303 -0.8672004 0.4592337
vn -0.1925303 -0.8672004 0.4592337
vn -0.1925303 -0.8672004 0.4592337
vn -0.1925303 -0.8672004 0.4592337
vn -0.1925303 -0.8672004 0.4592337
vn -0.1925303 -0.8672004 0.4592337
vn -0.1925303 -0.8672004 0.4592337
vn -0.1925303 -0.8672004 0.4592337
vn -0.1925303 -0.8672004 0.4592337
vn -0.1925303 -0.8672004 0.4592337
vn -0.1925303 -0.8672004 0.4592337
vn -0.1925303 -0.8672004 0.4592337
vn -0.1925303 -0.8672004 0.4592337
vn -0.1925303 -0.8672004 0.4592337
vn -0.1925303 -0.8672004 0.4592337
vn -0.1925303 -0.8672004 0.4592337
vn -0.04983912 0.6344277 0.7713738
vn -0.04983912 0.6344277 0.7713738
vn -0.04983912 0.6344277 0.7713738
vn -0.04983912 0.6344277 0.7713738
vn -0.04983912 0.6344277 0.7713738
vn -0.04983912 0.6344277 0.7713738
vn -0.04983912 0.6344277 0.7713738
vn -0.04983912 0.6344277 0.7713738
vn -0.04983912 0.6344277 0.7713738
vn -0.04983912 0.6344277 0.7713738
vn -0.04983912 0.6344277 0.7713738
vn -0.04983912 0.6344277 0.7713738
vn -0.04983912 0.6344277 0.7713738
vn -0.04983912 0.6344277 0.7713738
vn -0.04983912 0.6344277 0.7713738
vn -0.04983912 0.6344277 0.7713738
vn -0.04983912 0.6344277 0.7713738
vn -0.04983912 0.6344277 0.7713738
vn -0.04983912 0.6344277 0.7713738
vn -0.04983912 0.6344277 0.7713738
vn -0.04983912 0.6344277 0.7713738
vn -0.1028514 0.9219946 0.3732932
vn -0.1028514 0.9219946 0.3732932
vn -0.1028514 0.9219946 0.3732932
vn 0.5045137 -0.5174516 -0.6911656
vn 0.5045137 -0.5174516 -0.6911656
vn 0.5045137 -0.5174516 -0.6911656
vn 0.5045137 -0.5174516 -0.6911656
vn 0.5045137 -0.5174516 -0.6911656
vn 0.5045137 -0.5174516 -0.6911656
vn 0.5045137 -0.5174516 -0.6911656
vn 0.5045137 -0.5174516 -0.6911656
vn 0.5045137 -0.5174516 -0.6911656
vn 0.5045137 -0.5174516 -0.6911656
vn 0.5045137 -0.5174516 -0.6911656
vn 0.5045137 -0.5174516 -0.6911656
vn 0.4697493 -0.3297234 0.8189127
vn 0.4697493 -0.3297234 0.8189127
vn 0.4697493 -0.3297234 0.8189127
vn -0.8319445 0.4315415 -0.3487697
vn -0.8319445 0.4315415 -0.3487697
vn -0.8319445 0.4315415 -0.3487697
vn -0.8319445 0.4315415 -0.3487697
vn -0.8319445 0.4315415 -0.3487697
vn -0.8319445 0.4315415 -0.3487697
vn -0.8319445 0.4315415 -0.3487697
vn -0.8319445 0.4315415 -0.3487697
vn -0.8319445 0.4315415 -0.3487697
vn -0.8319445 0.4315415 -0.3487697
vn -0.8319445 0.4315415 -0.3487697
vn -0.8319445 0.4315415 -0.3487697
vn -0.8319445 0.4315415 -0.3487697
vn -0.8319445 0.4315415 -0.3487697
vn -0.8319445 0.4315415 -0.3487697
vn -0.8319445 0.4315415 -0.3487697
vn -0.8319445 0.4315415 -0.3487697
vn -0.8319445 0.4315415 -0.3487697
vn -0.6830196 -0.0925592 0.7245116
vn -0.6830196 -0.0925592 0.7245116
vn -0.6830196 -0.0925592 0.7245116
vn -0.6830196 -0.0925592 0.7245116
vn -0.6830196 -0.0925592 0.7245116
vn -0.6830196 -0.0925592 0.7245116
vn -0.2482564 -0.3772862 -0.8922018
vn -0.2482564 -0.3772862 -0.8922018
vn -0.2482564 -0.3772862 -0.8922018
vn -0.2482564 -0.3772862 -0.8922018
vn -0.2482564 -0.3772862 -0.8922018
vn -0.2482564 -0.3772862 -0.8922018
vn -0.2482564 -0.3772862 -0.8922018
vn -0.2482564 -0.3772862 -0.8922018
vn -0.2482564 -0.3772862 -0.8922018
vn -0.2482564 -0.3772862 -0.8922018
vn -0.2482564 -0.3772862 -0.8922018
vn -0.2482564 -0.3772862 -0.8922018
vn -0.6605349 0.6842972 0.3089191
vn -0.6605349 0.6842972 0.3089191
vn -0.6605349 0.6842972 0.3089191
vn 0.2887441 0.6861857 -0.6676646
vn 0.2887441 0.6861857 -0.6676646
vn 0.2887441 0.6861857 -0.6676646
vn 0.2887441 0.6861857 -0.6676646
vn 0.2887441 0.6861857 -0.6676646
vn 0.2887441 0.6861857 -0.6676646
vn 0.2887441 0.6861857 -0.6676646
vn 0.2887441 0.6861857 -0.6676646
vn 0.2887441 0.6861857 -0.6676646
vn 0.2887441 0.6861857 -0.6676646
vn 0.2887441 0.6861857 -0.6676646
vn 0.2887441 0.6861857 -0.6676646
vn 0.9043988 0.4155326 0.09693099
vn 0.9043988 0.4155326 0.09693099
vn 0.9043988 0.4155326 0.09693099
vn 0.9043988 0.4155326 0.09693099
vn 0.9043988 0.4155326 0.09693099
vn 0.9043988 0.4155326 0.09693099
vn 0.9235895 -0.3078619 0.228481
vn 0.9235895 -0.3078619 0.228481
vn 0.9235895 -0.3078619 0.228481
vn 0.9235895 -0.3078619 0.228481
vn 0.9235895 -0.3078619 0.228481
vn 0.9235895 -0.3078619 0.228481
vn 0.9235895 -0.3078619 0.228481
vn 0.9235895 -0.3078619 0.228481
vn 0.9235895 -0.3078619 0.228481

vt 0.5893278 0.5809132
vt 0.5192738 0.5266663
vt 0.6334866 0.5683219
vt 0.5110514 0.4960271
vt 0.4955255 0.5426986
vt 0.480534 0.5378701
vt 0.5019009 0.5784569
vt 0.4430834 0.5337636
vt 0.6279175 0.6309974
vt 0.6279175 0.6309974
vt 0.4430834 0.5337636
vt 0.6546003 0.6266471
vt 0.6546003 0.6266471
vt 0.4430834 0.5337636
vt 0.6801674 0.5752692
vt 0.6801674 0.5752692
vt 0.4430834 0.5337636
vt 0.7076471 0.4502885
vt 0.7076471 0.4502885
vt 0.4430834 0.5337636
vt 0.6898805 0.4287763
vt 0.6898805 0.4287763
vt 0.4430834 0.5337636
vt 0.4866609 0.3895584
vt 0.4866609 0.3895584
vt 0.4430834 0.5337636
vt 0.4632314 0.4093877
vt 0.1978802 0.4620923
vt 0.2100871 0.4449773
vt 0.2413218 0.5332105
vt 0.2413218 0.5332105
vt 0.2100871 0.4449773
vt 0.3547049 0.6825441
vt 0.3547049 0.6825441
vt 0.2100871 0.4449773
vt 0.409683 0.6860318
vt 0.409683 0.6860318
vt 0.2100871 0.4449773
vt 0.4773698 0.6613085
vt 0.4773698 0.6613085
vt 0.2100871 0.4449773
vt 0.5343121 0.3995387
vt 0.5343121 0.3995387
vt 0.2100871 0.4449773
vt 0.5304025 0.3915461
vt 0.5304025 0.3915461
vt 0.2100871 0.4449773
vt 0.4887001 0.3685619
vt 0.4113097 0.5824414
vt 0.4021967 0.5687344
vt 0.4399473 0.5703751
vt 0.540275 0.4268543
vt 0.6009722 0.494377
vt 0.4551638 0.4766338
vt 0.4551638 0.4766338
vt 0.6009722 0.494377
vt 0.4222369 0.5792632
vt 0.4222369 0.5792632
vt 0.6009722 0.494377
vt 0.5381092 0.6956511
vt 0.5381092 0.6956511
vt 0.6009722 0.494377
vt 0.6663291 0.5977611
vt 0.5071512 0.3936931
vt 0.5062605 0.4411989
vt 0.462547 0.4219509
vt 0.4101753 0.3601942
vt 0.4627955 0.3866192
vt 0.3989762 0.3652664
vt 0.3989762 0.3652664
vt 0.4627955 0.3866192
vt 0.3531016 0.4775526
vt 0.3531016 0.4775526
vt 0.4627955 0.3866192
vt 0.3487983 0.529029
vt 0.3487983 0.529029
vt 0.4627955 0.3866192
vt 0.4741164 0.5976861
vt 0.4741164 0.5976861
vt 0.4627955 0.3866192
vt 0.5791085 0.4688943
vt 0.5791085 0.4688943
vt 0.4627955 0.3866192
vt 0.5698829 0.4554685
vt 0.541025 0.5997112
vt 0.5538226 0.6142995
vt 0.5369935 0.6354508
vt 0.5369935 0.6354508
vt 0.5538226 0.6142995
vt 0.5508318 0.6260659
vt 0.6566817 0.2839289
vt 0.7071409 0.2671185
vt 0.5760052 0.3453903
vt 0.5760052 0.3453903
vt 0.7071409 0.2671185
vt 0.6377618 0.5960266
vt 0.6377618 0.5960266
vt 0.7071409 0.2671185
vt 0.7101129 0.5857229
vt 0.7101129 0.5857229
vt 0.7071409 0.2671185
vt 0.7326704 0.2900558
vt 0.4074048 0.4999367
vt 0.3553658 0.4742805
vt 0.3616287 0.468102
vt 0.3404634 0.4185336
vt 0.3993559 0.4004669
vt 0.3065708 0.4372612
vt 0.3065708 0.4372612
vt 0.3993559 0.4004669
vt 0.3523469 0.6413855
vt 0.3523469 0.6413855
vt 0.3993559 0.4004669
vt 0.3965151 0.6451732
vt 0.3965151 0.6451732
vt 0.3993559 0.4004669
vt 0.5122234 0.5354981
vt 0.3631428 0.5056464
vt 0.4968849 0.3986246
vt 0.4709475 0.5811945
vt 0.4709475 0.5811945
vt 0.4968849 0.3986246
vt 0.5274961 0.5270789
vt 0.5078074 0.4050562
vt 0.5577509 0.5086091
vt 0.4804637 0.3983621
vt 0.4804637 0.3983621
vt 0.5577509 0.5086091
vt 0.4757572 0.4017795
vt 0.4757572 0.4017795
vt 0.5577509 0.5086091
vt 0.4899002 0.5360419

usemtl Material0
usemap Material0

usemtl Material1
usemap Material1
f 1/1/1 2/2/2 3/3/3
f 4/4/4 5/5/5 6/6/6
f 7/7/7 8/8/8 9/9/9
f 10/10/10 11/11/11 12/12/12
f 13/13/13 14/14/14 15/15/15
f 16/16/16 17/17/17 18/18/18
f 19/19/19 20/20/20 21/21/21
f 22/22/22 23/23/23 24/24/24
f 25/25/25 26/26/26 27/27/27
f 28/28/28 29/29/29 30/30/30
f 31/31/31 32/32/32 33/33/33
f 34/34/34 35/35/35 36/36/36
f 37/37/37 38/38/38 39/39/39
f 40/40/40 41/41/41 42/42/42
f 43/43/43 44/44/44 45/45/45
f 46/46/46 47/47/47 48/48/48
f 49/49/49 50/50/50 51/51/51
f 52/52/52 53/53/53 54/54/54
f 55/55/55 56/56/56 57/57/57
f 58/58/58 59/59/59 60/60/60
f 61/61/61 62/62/62 63/63/63
f 64/64/64 65/65/65 66/66/66
f 67/67/67 68/68/68 69/69/69
f 70/70/70 71/71/71 72/72/72
f 73/73/73 74/74/74 75/75/75
f 76/76/76 77/77/77 78/78/78
f 79/79/79 80/80/80 81/81/81
f 82/82/82 83/83/83 84/84/84
f 85/85/85 86/86/86 87/87/87
f 88/88/88 89/89/89 90/90/90
f 91/91/91 92/92/92 93/93/93
f 94/94/94 95/95/95 96/96/96
f 97/97/97 98/98/98 99/99/99
f 100/100/100 101/101/101 102/102/102
f 103/103/103 104/104/104 105/105/105
f 106/106/106 107/107/107 108/108/108
f 109/109/109 110/110/110 111/111/111
f 112/112/112 113/113/113 114/114/114
f 115/115/115 116/116/116 117/117/117
f 118/118/118 119/119/119 120/120/120
f 121/121/121 122/122/122 123/123/123
f 124/124/124 125/125/125 126/126/126
f 127/127/127 128/128/128 129/129/129
f 130/130/130 131/131/131 132/132/132
