g  Instance
v 5.895891 -46.15199 -1.307202
v 5.592646 -45.41559 -0.5384305
v 5.827188 -46.18614 -1.413418
v 5.827188 -46.18614 -1.413418
v 5.592646 -45.41559 -0.5384305
v 4.951138 -46.31172 -2.335554
v 4.951138 -46.31172 -2.335554
v 5.592646 -45.41559 -0.5384305
v 3.473719 -44.8466 -1.551298
v 3.473719 -44.8466 -1.551298
v 5.592646 -45.41559 -0.5384305
v 4.184856 -44.88729 -1.001739
v 4.184856 -44.88729 -1.001739
v 5.592646 -45.41559 -0.5384305
v 4.899632 -45.02771 -0.5881994
v 4.184856 -44.88729 -1.001739
v 4.899632 -45.02771 -0.5881994
v 4.743449 -44.82148 -0.6432697
v 4.184856 -44.88729 -1.001739
v 4.743449 -44.82148 -0.6432697
v 3.473719 -44.8466 -1.551298
v 3.473719 -44.8466 -1.551298
v 4.743449 -44.82148 -0.6432697
v 3.801423 -43.83249 -2.071321
v 3.801423 -43.83249 -2.071321
v 4.743449 -44.82148 -0.6432697
v 4.824186 -43.66121 -1.452991
v 4.824186 -43.66121 -1.452991
v 4.743449 -44.82148 -0.6432697
v 5.014888 -44.20348 -0.9078053
v 3.473719 -44.8466 -1.551298
v 3.801423 -43.83249 -2.071321
v 4.951138 -46.31172 -2.335554
v 4.951138 -46.31172 -2.335554
v 3.801423 -43.83249 -2.071321
v 5.270471 -45.93259 -2.684889
v 5.270471 -45.93259 -2.684889
v 3.801423 -43.83249 -2.071321
v 5.365012 -45.43478 -2.887955
v 5.365012 -45.43478 -2.887955
v 3.801423 -43.83249 -2.071321
v 4.471431 -43.91005 -2.578649
v 5.895891 -46.15199 -1.307202
v 6.627241 -44.89223 -0.870813
v 5.592646 -45.41559 -0.5384305
v 4.471431 -43.91005 -2.578649
v 3.801423 -43.83249 -2.071321
v 6.331087 -43.77604 -2.307356
v 6.331087 -43.77604 -2.307356
v 3.801423 -43.83249 -2.071321
v 6.823205 -43.58813 -1.502616
v 6.823205 -43.58813 -1.502616
v 3.801423 -43.83249 -2.071321
v 4.824186 -43.66121 -1.452991
v 6.823205 -43.58813 -1.502616
v 6.845798 -43.77946 -1.310777
v 6.331087 -43.77604 -2.307356
v 6.331087 -43.77604 -2.307356
v 6.845798 -43.77946 -1.310777
v 5.365012 -45.43478 -2.887955
v 5.365012 -45.43478 -2.887955
v 6.845798 -43.77946 -1.310777
v 5.270471 -45.93259 -2.684889
v 5.270471 -45.93259 -2.684889
v 6.845798 -43.77946 -1.310777
v 5.827188 -46.18614 -1.413418
v 5.827188 -46.18614 -1.413418
v 6.845798 -43.77946 -1.310777
v 5.895891 -46.15199 -1.307202
v 5.895891 -46.15199 -1.307202
v 6.845798 -43.77946 -1.310777
v 6.627241 -44.89223 -0.870813
v 4.824186 -43.66121 -1.452991
v 5.014888 -44.20348 -0.9078053
v 6.823205 -43.58813 -1.502616
v 6.823205 -43.58813 -1.502616
v 5.014888 -44.20348 -0.9078053
v 6.845798 -43.77946 -1.310777
v 4.951138 -46.31172 -2.335554
v 5.270471 -45.93259 -2.684889
v 5.827188 -46.18614 -1.413418
v 4.471431 -43.91005 -2.578649
v 6.331087 -43.77604 -2.307356
v 5.365012 -45.43478 -2.887955
v 4.743449 -44.82148 -0.6432697
v 4.899632 -45.02771 -0.5881994
v 5.014888 -44.20348 -0.9078053
v 5.014888 -44.20348 -0.9078053
v 4.899632 -45.02771 -0.5881994
v 6.845798 -43.77946 -1.310777
v 6.845798 -43.77946 -1.310777
v 4.899632 -45.02771 -0.5881994
v 6.627241 -44.89223 -0.870813
v 6.627241 -44.89223 -0.870813
v 4.899632 -45.02771 -0.5881994
v 5.592646 -45.41559 -0.5384305

vn -0.4448745 -0.7279019 0.5217716
vn -0.4448745 -0.7279019 0.5217716
vn -0.4448745 -0.7279019 0.5217716
vn -0.4448745 -0.7279019 0.5217716
vn -0.4448745 -0.7279019 0.5217716
vn -0.4448745 -0.7279019 0.5217716
vn -0.4448745 -0.7279019 0.5217716
vn -0.4448745 -0.7279019 0.5217716
vn -0.4448745 -0.7279019 0.5217716
vn -0.4448745 -0.7279019 0.5217716
vn -0.4448745 -0.7279019 0.5217716
vn -0.4448745 -0.7279019 0.5217716
vn -0.4448745 -0.7279019 0.5217716
vn -0.4448745 -0.7279019 0.5217716
vn -0.4448745 -0.7279019 0.5217716
vn -0.5182191 -0.1685549 0.8384737
vn -0.5182191 -0.1685549 0.8384737
vn -0.5182191 -0.1685549 0.8384737
vn -0.5045137 0.5174516 0.6911656
vn -0.5045137 0.5174516 0.6911656
vn -0.5045137 0.5174516 0.6911656
vn -0.5045137 0.5174516 0.6911656
vn -0.5045137 0.5174516 0.6911656
vn -0.5045137 0.5174516 0.6911656
vn -0.5045137 0.5174516 0.6911656
vn -0.5045137 0.5174516 0.6911656
vn -0.5045137 0.5174516 0.6911656
vn -0.5045137 0.5174516 0.6911656
vn -0.5045137 0.5174516 0.6911656
vn -0.5045137 0.5174516 0.6911656
vn -0.6061286 -0.1990121 -0.7700664
vn -0.6061286 -0.1990121 -0.7700664
vn -0.6061286 -0.1990121 -0.7700664
vn -0.6061286 -0.1990121 -0.7700664
vn -0.6061286 -0.1990121 -0.7700664
vn -0.6061286 -0.1990121 -0.7700664
vn -0.6061286 -0.1990121 -0.7700664
vn -0.6061286 -0.1990121 -0.7700664
vn -0.6061286 -0.1990121 -0.7700664
vn -0.6061286 -0.1990121 -0.7700664
vn -0.6061286 -0.1990121 -0.7700664
vn -0.6061286 -0.1990121 -0.7700664
vn 0.4893479 -0.5252492 0.6961695
vn 0.4893479 -0.5252492 0.6961695
vn 0.4893479 -0.5252492 0.6961695
vn -0.04080805 0.9782324 -0.2034606
vn -0.04080805 0.9782324 -0.2034606
vn -0.04080805 0.9782324 -0.2034606
vn -0.04080805 0.9782324 -0.2034606
vn -0.04080805 0.9782324 -0.2034606
vn -0.04080805 0.9782324 -0.2034606
vn -0.04080805 0.9782324 -0.2034606
vn -0.04080805 0.9782324 -0.2034606
vn -0.04080805 0.9782324 -0.2034606
vn 0.8365024 -0.3355692 -0.433194
vn 0.8365024 -0.3355692 -0.433194
vn 0.8365024 -0.3355692 -0.433194
vn 0.8365024 -0.3355692 -0.433194
vn 0.8365024 -0.3355692 -0.433194
vn 0.8365024 -0.3355692 -0.433194
vn 0.8365024 -0.3355692 -0.433194
vn 0.8365024 -0.3355692 -0.433194
vn 0.8365024 -0.3355692 -0.433194
vn 0.8365024 -0.3355692 -0.433194
vn 0.8365024 -0.3355692 -0.433194
vn 0.8365024 -0.3355692 -0.433194
vn 0.8365024 -0.3355692 -0.433194
vn 0.8365024 -0.3355692 -0.433194
vn 0.8365024 -0.3355692 -0.433194
vn 0.8365024 -0.3355692 -0.433194
vn 0.8365024 -0.3355692 -0.433194
vn 0.8365024 -0.3355692 -0.433194
vn -0.008333837 0.7075207 0.7066435
vn -0.008333837 0.7075207 0.7066435
vn -0.008333837 0.7075207 0.7066435
vn -0.008333837 0.7075207 0.7066435
vn -0.008333837 0.7075207 0.7066435
vn -0.008333837 0.7075207 0.7066435
vn 0.5076858 -0.7747809 -0.3767887
vn 0.5076858 -0.7747809 -0.3767887
vn 0.5076858 -0.7747809 -0.3767887
vn 0.1204948 0.264706 -0.9567716
vn 0.1204948 0.264706 -0.9567716
vn 0.1204948 0.264706 -0.9567716
vn 0.125329 0.3433832 0.9307958
vn 0.125329 0.3433832 0.9307958
vn 0.125329 0.3433832 0.9307958
vn 0.125329 0.3433832 0.9307958
vn 0.125329 0.3433832 0.9307958
vn 0.125329 0.3433832 0.9307958
vn 0.125329 0.3433832 0.9307958
vn 0.125329 0.3433832 0.9307958
vn 0.125329 0.3433832 0.9307958
vn 0.125329 0.3433832 0.9307958
vn 0.125329 0.3433832 0.9307958
vn 0.125329 0.3433832 0.9307958

vt 0.3302253 0.5233287
vt 0.4043015 0.4194758
vt 0.3349272 0.5376732
vt 0.3349272 0.5376732
vt 0.4043015 0.4194758
vt 0.413527 0.662246
vt 0.413527 0.662246
vt 0.4043015 0.4194758
vt 0.6468467 0.5563024
vt 0.6468467 0.5563024
vt 0.4043015 0.4194758
vt 0.574477 0.4820669
vt 0.574477 0.4820669
vt 0.4043015 0.4194758
vt 0.4957505 0.4262027
vt 0.513639 0.5901951
vt 0.449665 0.4532887
vt 0.4937629 0.4715241
vt 0.3788281 0.4943208
vt 0.4394832 0.426845
vt 0.3134291 0.5977611
vt 0.3134291 0.5977611
vt 0.4394832 0.426845
vt 0.441649 0.6956418
vt 0.441649 0.6956418
vt 0.4394832 0.426845
vt 0.5575354 0.5792538
vt 0.5575354 0.5792538
vt 0.4394832 0.426845
vt 0.5246084 0.4766385
vt 0.550738 0.302319
vt 0.6834582 0.4279325
vt 0.2652059 0.4917612
vt 0.2652059 0.4917612
vt 0.6834582 0.4279325
vt 0.3053661 0.5761411
vt 0.3053661 0.5761411
vt 0.6834582 0.4279325
vt 0.3737044 0.625194
vt 0.3737044 0.625194
vt 0.6834582 0.4279325
vt 0.6398995 0.5504802
vt 0.5499787 0.6214906
vt 0.359102 0.5382451
vt 0.5116233 0.4748384
vt 0.4248527 0.5807539
vt 0.3579582 0.528729
vt 0.6119791 0.5529273
vt 0.6119791 0.5529273
vt 0.3579582 0.528729
vt 0.6621382 0.4703991
vt 0.6621382 0.4703991
vt 0.3579582 0.528729
vt 0.4612813 0.4653128
vt 0.3084038 0.438405
vt 0.3268548 0.4151865
vt 0.3474107 0.5357981
vt 0.3474107 0.5357981
vt 0.3268548 0.4151865
vt 0.5545633 0.6060584
vt 0.5545633 0.6060584
vt 0.3268548 0.4151865
vt 0.6088008 0.5814852
vt 0.6088008 0.5814852
vt 0.3268548 0.4151865
vt 0.6118572 0.4276091
vt 0.6118572 0.4276091
vt 0.3268548 0.4151865
vt 0.6056131 0.4147552
vt 0.6056131 0.4147552
vt 0.3268548 0.4151865
vt 0.4483806 0.3619428
vt 0.4459101 0.5904388
vt 0.4715147 0.4833889
vt 0.7237543 0.60018
vt 0.7237543 0.60018
vt 0.4715147 0.4833889
vt 0.7265763 0.5625091
vt 0.6009253 0.52466
vt 0.5505224 0.5646842
vt 0.5158423 0.4190023
vt 0.4450335 0.5634279
vt 0.425073 0.377914
vt 0.5987315 0.4742852
vt 0.4542309 0.5285321
vt 0.4331688 0.5129312
vt 0.5207551 0.5014181
vt 0.5207551 0.5014181
vt 0.4331688 0.5129312
vt 0.5739988 0.3185434
vt 0.5739988 0.3185434
vt 0.4331688 0.5129312
vt 0.4554544 0.3403744
vt 0.4554544 0.3403744
vt 0.4331688 0.5129312
vt 0.3954041 0.4437069

usemtl Material0
usemap Material0

usemtl Material1
usemap Material1
f 1/1/1 2/2/2 3/3/3
f 4/4/4 5/5/5 6/6/6
f 7/7/7 8/8/8 9/9/9
f 10/10/10 11/11/11 12/12/12
f 13/13/13 14/14/14 15/15/15
f 16/16/16 17/17/17 18/18/18
f 19/19/19 20/20/20 21/21/21
f 22/22/22 23/23/23 24/24/24
f 25/25/25 26/26/26 27/27/27
f 28/28/28 29/29/29 30/30/30
f 31/31/31 32/32/32 33/33/33
f 34/34/34 35/35/35 36/36/36
f 37/37/37 38/38/38 39/39/39
f 40/40/40 41/41/41 42/42/42
f 43/43/43 44/44/44 45/45/45
f 46/46/46 47/47/47 48/48/48
f 49/49/49 50/50/50 51/51/51
f 52/52/52 53/53/53 54/54/54
f 55/55/55 56/56/56 57/57/57
f 58/58/58 59/59/59 60/60/60
f 61/61/61 62/62/62 63/63/63
f 64/64/64 65/65/65 66/66/66
f 67/67/67 68/68/68 69/69/69
f 70/70/70 71/71/71 72/72/72
f 73/73/73 74/74/74 75/75/75
f 76/76/76 77/77/77 78/78/78
f 79/79/79 80/80/80 81/81/81
f 82/82/82 83/83/83 84/84/84
f 85/85/85 86/86/86 87/87/87
f 88/88/88 89/89/89 90/90/90
f 91/91/91 92/92/92 93/93/93
f 94/94/94 95/95/95 96/96/96
