g  Instance
v -0.5683647 -47.86996 1.35327
v -2.180042 -47.91552 2.791466
v -1.526828 -47.92567 1.13725
v -1.526828 -47.92567 1.13725
v -2.180042 -47.91552 2.791466
v -3.15765 -47.99976 1.545054
v -3.15765 -47.99976 1.545054
v -2.180042 -47.91552 2.791466
v -3.201756 -47.98498 2.184569
v -3.201756 -47.98498 2.184569
v -2.180042 -47.91552 2.791466
v -3.007329 -47.96563 2.529573
v -1.702128 -45.31409 2.813255
v -2.440965 -47.48662 3.099872
v -0.3626409 -45.76788 1.532789
v -0.3626409 -45.76788 1.532789
v -2.440965 -47.48662 3.099872
v -0.5413076 -47.81917 1.337789
v -0.5413076 -47.81917 1.337789
v -2.440965 -47.48662 3.099872
v -0.5683647 -47.86996 1.35327
v -0.5683647 -47.86996 1.35327
v -2.440965 -47.48662 3.099872
v -2.180042 -47.91552 2.791466
v -0.5413076 -47.81917 1.337789
v -0.2960461 -46.34332 0.7521302
v -0.3626409 -45.76788 1.532789
v -0.3626409 -45.76788 1.532789
v -0.2960461 -46.34332 0.7521302
v -0.3101651 -46.10421 0.9922124
v -3.15765 -47.99976 1.545054
v -3.102663 -47.81299 1.218403
v -1.526828 -47.92567 1.13725
v -1.526828 -47.92567 1.13725
v -3.102663 -47.81299 1.218403
v -2.639161 -47.55141 0.6940894
v -2.985848 -46.78241 1.978077
v -3.102663 -47.81299 1.218403
v -3.159977 -47.69458 2.276931
v -3.159977 -47.69458 2.276931
v -3.102663 -47.81299 1.218403
v -3.201756 -47.98498 2.184569
v -3.201756 -47.98498 2.184569
v -3.102663 -47.81299 1.218403
v -3.15765 -47.99976 1.545054
v -3.159977 -47.69458 2.276931
v -2.943757 -47.84836 2.649441
v -2.985848 -46.78241 1.978077
v -2.985848 -46.78241 1.978077
v -2.943757 -47.84836 2.649441
v -2.629097 -46.07848 2.039147
v -2.629097 -46.07848 2.039147
v -2.943757 -47.84836 2.649441
v -1.702128 -45.31409 2.813255
v -1.702128 -45.31409 2.813255
v -2.943757 -47.84836 2.649441
v -2.440965 -47.48662 3.099872
v -3.201756 -47.98498 2.184569
v -3.007329 -47.96563 2.529573
v -3.159977 -47.69458 2.276931
v -3.159977 -47.69458 2.276931
v -3.007329 -47.96563 2.529573
v -2.943757 -47.84836 2.649441
v -2.629097 -46.07848 2.039147
v -1.702128 -45.31409 2.813255
v -2.197225 -46.93412 0.5342645
v -2.197225 -46.93412 0.5342645
v -1.702128 -45.31409 2.813255
v -0.3409933 -46.29107 0.7179428
v -0.3409933 -46.29107 0.7179428
v -1.702128 -45.31409 2.813255
v -0.3101651 -46.10421 0.9922124
v -0.3101651 -46.10421 0.9922124
v -1.702128 -45.31409 2.813255
v -0.3626409 -45.76788 1.532789
v -1.526828 -47.92567 1.13725
v -2.639161 -47.55141 0.6940894
v -0.5683647 -47.86996 1.35327
v -0.5683647 -47.86996 1.35327
v -2.639161 -47.55141 0.6940894
v -0.5413076 -47.81917 1.337789
v -0.5413076 -47.81917 1.337789
v -2.639161 -47.55141 0.6940894
v -0.2960461 -46.34332 0.7521302
v -0.2960461 -46.34332 0.7521302
v -2.639161 -47.55141 0.6940894
v -0.3409933 -46.29107 0.7179428
v -0.3409933 -46.29107 0.7179428
v -2.639161 -47.55141 0.6940894
v -2.197225 -46.93412 0.5342645
v -0.3101651 -46.10421 0.9922124
v -0.2960461 -46.34332 0.7521302
v -0.3409933 -46.29107 0.7179428
v -2.197225 -46.93412 0.5342645
v -2.639161 -47.55141 0.6940894
v -2.629097 -46.07848 2.039147
v -2.629097 -46.07848 2.039147
v -2.639161 -47.55141 0.6940894
v -2.985848 -46.78241 1.978077
v -2.985848 -46.78241 1.978077
v -2.639161 -47.55141 0.6940894
v -3.102663 -47.81299 1.218403
v -2.180042 -47.91552 2.791466
v -2.440965 -47.48662 3.099872
v -3.007329 -47.96563 2.529573
v -3.007329 -47.96563 2.529573
v -2.440965 -47.48662 3.099872
v -2.943757 -47.84836 2.649441

vn 0.05202181 -0.9982898 0.02666915
vn 0.05202181 -0.9982898 0.02666915
vn 0.05202181 -0.9982898 0.02666915
vn 0.05202181 -0.9982898 0.02666915
vn 0.05202181 -0.9982898 0.02666915
vn 0.05202181 -0.9982898 0.02666915
vn 0.05202181 -0.9982898 0.02666915
vn 0.05202181 -0.9982898 0.02666915
vn 0.05202181 -0.9982898 0.02666915
vn 0.05202181 -0.9982898 0.02666915
vn 0.05202181 -0.9982898 0.02666915
vn 0.05202181 -0.9982898 0.02666915
vn 0.6623541 -0.1278654 0.7381988
vn 0.6623541 -0.1278654 0.7381988
vn 0.6623541 -0.1278654 0.7381988
vn 0.6623541 -0.1278654 0.7381988
vn 0.6623541 -0.1278654 0.7381988
vn 0.6623541 -0.1278654 0.7381988
vn 0.6623541 -0.1278654 0.7381988
vn 0.6623541 -0.1278654 0.7381988
vn 0.6623541 -0.1278654 0.7381988
vn 0.6623541 -0.1278654 0.7381988
vn 0.6623541 -0.1278654 0.7381988
vn 0.6623541 -0.1278654 0.7381988
vn 0.9823151 -0.1005722 0.1579314
vn 0.9823151 -0.1005722 0.1579314
vn 0.9823151 -0.1005722 0.1579314
vn 0.9823151 -0.1005722 0.1579314
vn 0.9823151 -0.1005722 0.1579314
vn 0.9823151 -0.1005722 0.1579314
vn -0.08741241 -0.8583784 -0.5055152
vn -0.08741241 -0.8583784 -0.5055152
vn -0.08741241 -0.8583784 -0.5055152
vn -0.08741241 -0.8583784 -0.5055152
vn -0.08741241 -0.8583784 -0.5055152
vn -0.08741241 -0.8583784 -0.5055152
vn -0.9838001 0.164326 -0.0716537
vn -0.9838001 0.164326 -0.0716537
vn -0.9838001 0.164326 -0.0716537
vn -0.9838001 0.164326 -0.0716537
vn -0.9838001 0.164326 -0.0716537
vn -0.9838001 0.164326 -0.0716537
vn -0.9838001 0.164326 -0.0716537
vn -0.9838001 0.164326 -0.0716537
vn -0.9838001 0.164326 -0.0716537
vn -0.750504 0.3307228 0.5721593
vn -0.750504 0.3307228 0.5721593
vn -0.750504 0.3307228 0.5721593
vn -0.750504 0.3307228 0.5721593
vn -0.750504 0.3307228 0.5721593
vn -0.750504 0.3307228 0.5721593
vn -0.750504 0.3307228 0.5721593
vn -0.750504 0.3307228 0.5721593
vn -0.750504 0.3307228 0.5721593
vn -0.750504 0.3307228 0.5721593
vn -0.750504 0.3307228 0.5721593
vn -0.750504 0.3307228 0.5721593
vn -0.8700018 -0.03134667 0.4920512
vn -0.8700018 -0.03134667 0.4920512
vn -0.8700018 -0.03134667 0.4920512
vn -0.8700018 -0.03134667 0.4920512
vn -0.8700018 -0.03134667 0.4920512
vn -0.8700018 -0.03134667 0.4920512
vn -0.2302708 0.8160803 -0.5300834
vn -0.2302708 0.8160803 -0.5300834
vn -0.2302708 0.8160803 -0.5300834
vn -0.2302708 0.8160803 -0.5300834
vn -0.2302708 0.8160803 -0.5300834
vn -0.2302708 0.8160803 -0.5300834
vn -0.2302708 0.8160803 -0.5300834
vn -0.2302708 0.8160803 -0.5300834
vn -0.2302708 0.8160803 -0.5300834
vn -0.2302708 0.8160803 -0.5300834
vn -0.2302708 0.8160803 -0.5300834
vn -0.2302708 0.8160803 -0.5300834
vn 0.2239118 -0.3914038 -0.8925619
vn 0.2239118 -0.3914038 -0.8925619
vn 0.2239118 -0.3914038 -0.8925619
vn 0.2239118 -0.3914038 -0.8925619
vn 0.2239118 -0.3914038 -0.8925619
vn 0.2239118 -0.3914038 -0.8925619
vn 0.2239118 -0.3914038 -0.8925619
vn 0.2239118 -0.3914038 -0.8925619
vn 0.2239118 -0.3914038 -0.8925619
vn 0.2239118 -0.3914038 -0.8925619
vn 0.2239118 -0.3914038 -0.8925619
vn 0.2239118 -0.3914038 -0.8925619
vn 0.2239118 -0.3914038 -0.8925619
vn 0.2239118 -0.3914038 -0.8925619
vn 0.2239118 -0.3914038 -0.8925619
vn 0.8085892 0.439965 -0.3906587
vn 0.8085892 0.439965 -0.3906587
vn 0.8085892 0.439965 -0.3906587
vn -0.7717875 0.4316599 -0.4669198
vn -0.7717875 0.4316599 -0.4669198
vn -0.7717875 0.4316599 -0.4669198
vn -0.7717875 0.4316599 -0.4669198
vn -0.7717875 0.4316599 -0.4669198
vn -0.7717875 0.4316599 -0.4669198
vn -0.7717875 0.4316599 -0.4669198
vn -0.7717875 0.4316599 -0.4669198
vn -0.7717875 0.4316599 -0.4669198
vn -0.1939692 -0.6477839 0.736717
vn -0.1939692 -0.6477839 0.736717
vn -0.1939692 -0.6477839 0.736717
vn -0.1939692 -0.6477839 0.736717
vn -0.1939692 -0.6477839 0.736717
vn -0.1939692 -0.6477839 0.736717

vt 0.3846363 0.493627
vt 0.5431532 0.3521313
vt 0.4790527 0.514872
vt 0.4790527 0.514872
vt 0.5431532 0.3521313
vt 0.6395994 0.474754
vt 0.6395994 0.474754
vt 0.5431532 0.3521313
vt 0.6438559 0.4118394
vt 0.6438559 0.4118394
vt 0.5431532 0.3521313
vt 0.6246642 0.3778999
vt 0.2495722 0.3115914
vt 0.5808523 0.2496754
vt 0.2775066 0.5882168
vt 0.2775066 0.5882168
vt 0.5808523 0.2496754
vt 0.5759677 0.6303411
vt 0.5759677 0.6303411
vt 0.5808523 0.2496754
vt 0.5839837 0.626994
vt 0.5839837 0.626994
vt 0.5808523 0.2496754
vt 0.6350242 0.3162979
vt 0.5597386 0.511928
vt 0.41108 0.5709752
vt 0.3547611 0.4922675
vt 0.3547611 0.4922675
vt 0.41108 0.5709752
vt 0.3875427 0.5467675
vt 0.6451685 0.4062563
vt 0.6410902 0.4493932
vt 0.4611594 0.4601094
vt 0.4611594 0.4601094
vt 0.6410902 0.4493932
vt 0.5915685 0.5186315
vt 0.4896002 0.4204602
vt 0.3875146 0.4955208
vt 0.3980949 0.3909273
vt 0.3980949 0.3909273
vt 0.3875146 0.4955208
vt 0.3691854 0.4000544
vt 0.3691854 0.4000544
vt 0.3875146 0.4955208
vt 0.3684635 0.4632455
vt 0.3420666 0.4736055
vt 0.3356491 0.4191617
vt 0.4505416 0.5172815
vt 0.4505416 0.5172815
vt 0.3356491 0.4191617
vt 0.5450003 0.5083559
vt 0.5450003 0.5083559
vt 0.3356491 0.4191617
vt 0.673642 0.3952259
vt 0.673642 0.3952259
vt 0.3356491 0.4191617
vt 0.3996231 0.3533314
vt 0.3845144 0.4956333
vt 0.3859113 0.4508745
vt 0.4171178 0.4836514
vt 0.4171178 0.4836514
vt 0.3859113 0.4508745
vt 0.3988871 0.4353298
vt 0.4135083 0.353697
vt 0.5410063 0.2478518
vt 0.4347579 0.559462
vt 0.4347579 0.559462
vt 0.5410063 0.2478518
vt 0.6621289 0.5343449
vt 0.6621289 0.5343449
vt 0.5410063 0.2478518
vt 0.6714482 0.4968428
vt 0.6714482 0.4968428
vt 0.5410063 0.2478518
vt 0.6761734 0.4229307
vt 0.5604136 0.3401681
vt 0.7303922 0.5544367
vt 0.3730059 0.2357292
vt 0.3730059 0.2357292
vt 0.7303922 0.5544367
vt 0.3623881 0.2432156
vt 0.3623881 0.2432156
vt 0.7303922 0.5544367
vt 0.1562012 0.5263757
vt 0.1562012 0.5263757
vt 0.7303922 0.5544367
vt 0.1590467 0.5429048
vt 0.1590467 0.5429048
vt 0.7303922 0.5544367
vt 0.5799335 0.6317099
vt 0.4763619 0.4584734
vt 0.4995101 0.4863234
vt 0.4923097 0.4902893
vt 0.4681911 0.5469269
vt 0.3843175 0.5268351
vt 0.5277774 0.3577378
vt 0.5277774 0.3577378
vt 0.3843175 0.5268351
vt 0.440116 0.3654164
vt 0.440116 0.3654164
vt 0.3843175 0.5268351
vt 0.3337786 0.4609204
vt 0.5204363 0.4592656
vt 0.5746645 0.3929524
vt 0.6335616 0.5155751
vt 0.6335616 0.5155751
vt 0.5746645 0.3929524
vt 0.6296051 0.4898017

usemtl Material0
usemap Material0

usemtl Material1
usemap Material1
f 1/1/1 2/2/2 3/3/3
f 4/4/4 5/5/5 6/6/6
f 7/7/7 8/8/8 9/9/9
f 10/10/10 11/11/11 12/12/12
f 13/13/13 14/14/14 15/15/15
f 16/16/16 17/17/17 18/18/18
f 19/19/19 20/20/20 21/21/21
f 22/22/22 23/23/23 24/24/24
f 25/25/25 26/26/26 27/27/27
f 28/28/28 29/29/29 30/30/30
f 31/31/31 32/32/32 33/33/33
f 34/34/34 35/35/35 36/36/36
f 37/37/37 38/38/38 39/39/39
f 40/40/40 41/41/41 42/42/42
f 43/43/43 44/44/44 45/45/45
f 46/46/46 47/47/47 48/48/48
f 49/49/49 50/50/50 51/51/51
f 52/52/52 53/53/53 54/54/54
f 55/55/55 56/56/56 57/57/57
f 58/58/58 59/59/59 60/60/60
f 61/61/61 62/62/62 63/63/63
f 64/64/64 65/65/65 66/66/66
f 67/67/67 68/68/68 69/69/69
f 70/70/70 71/71/71 72/72/72
f 73/73/73 74/74/74 75/75/75
f 76/76/76 77/77/77 78/78/78
f 79/79/79 80/80/80 81/81/81
f 82/82/82 83/83/83 84/84/84
f 85/85/85 86/86/86 87/87/87
f 88/88/88 89/89/89 90/90/90
f 91/91/91 92/92/92 93/93/93
f 94/94/94 95/95/95 96/96/96
f 97/97/97 98/98/98 99/99/99
f 100/100/100 101/101/101 102/102/102
f 103/103/103 104/104/104 105/105/105
f 106/106/106 107/107/107 108/108/108
