g  Instance
v -9.614403 -49.16397 -2.447651
v -9.653433 -48.74321 -2.138226
v -9.526262 -49.06499 -2.779757
v -9.526262 -49.06499 -2.779757
v -9.653433 -48.74321 -2.138226
v -9.472134 -48.37542 -2.763961
v -9.645037 -48.45644 -1.932263
v -9.536016 -48.01386 -2.115685
v -9.653433 -48.74321 -2.138226
v -9.653433 -48.74321 -2.138226
v -9.536016 -48.01386 -2.115685
v -9.472134 -48.37542 -2.763961
v -9.536016 -48.01386 -2.115685
v -9.276825 -47.28262 -2.42899
v -9.472134 -48.37542 -2.763961
v -9.472134 -48.37542 -2.763961
v -9.276825 -47.28262 -2.42899
v -9.202831 -47.23225 -2.685379
v -9.472134 -48.37542 -2.763961
v -9.258493 -48.83426 -3.504701
v -9.526262 -49.06499 -2.779757
v -9.472134 -48.37542 -2.763961
v -8.863956 -47.65424 -3.990951
v -9.258493 -48.83426 -3.504701
v -9.258493 -48.83426 -3.504701
v -8.863956 -47.65424 -3.990951
v -9.009081 -48.6498 -4.056292
v -9.472134 -48.37542 -2.763961
v -9.202831 -47.23225 -2.685379
v -8.863956 -47.65424 -3.990951
v -8.863956 -47.65424 -3.990951
v -9.202831 -47.23225 -2.685379
v -9.026838 -47.15297 -3.138137
v -8.863956 -47.65424 -3.990951
v -9.026838 -47.15297 -3.138137
v -8.681261 -47.02786 -3.908694
v -9.009081 -48.6498 -4.056292
v -8.863956 -47.65424 -3.990951
v -8.89275 -48.57639 -4.262337
v -8.89275 -48.57639 -4.262337
v -8.863956 -47.65424 -3.990951
v -8.775749 -47.8122 -4.22337
v -8.863956 -47.65424 -3.990951
v -8.716795 -47.53305 -4.197122
v -8.775749 -47.8122 -4.22337
v -8.565271 -46.99853 -4.118227
v -8.716795 -47.53305 -4.197122
v -8.681261 -47.02786 -3.908694
v -8.681261 -47.02786 -3.908694
v -8.716795 -47.53305 -4.197122
v -8.863956 -47.65424 -3.990951
v -9.026838 -47.15297 -3.138137
v -9.202831 -47.23225 -2.685379
v -8.681261 -47.02786 -3.908694
v -8.681261 -47.02786 -3.908694
v -9.202831 -47.23225 -2.685379
v -8.565271 -46.99853 -4.118227
v -8.565271 -46.99853 -4.118227
v -9.202831 -47.23225 -2.685379
v -8.540268 -47.0088 -4.099057
v -8.540268 -47.0088 -4.099057
v -9.202831 -47.23225 -2.685379
v -7.642492 -47.60831 -2.516318
v -7.642492 -47.60831 -2.516318
v -9.202831 -47.23225 -2.685379
v -9.276825 -47.28262 -2.42899
v -7.642492 -47.60831 -2.516318
v -9.276825 -47.28262 -2.42899
v -7.426199 -48.4339 -2.228578
v -7.426199 -48.4339 -2.228578
v -9.276825 -47.28262 -2.42899
v -9.645037 -48.45644 -1.932263
v -9.645037 -48.45644 -1.932263
v -9.276825 -47.28262 -2.42899
v -9.536016 -48.01386 -2.115685
v -7.426199 -48.4339 -2.228578
v -9.645037 -48.45644 -1.932263
v -7.520662 -48.75608 -2.447995
v -7.520662 -48.75608 -2.447995
v -9.645037 -48.45644 -1.932263
v -9.614403 -49.16397 -2.447651
v -9.614403 -49.16397 -2.447651
v -9.645037 -48.45644 -1.932263
v -9.653433 -48.74321 -2.138226
v -8.775749 -47.8122 -4.22337
v -8.716795 -47.53305 -4.197122
v -8.89275 -48.57639 -4.262337
v -8.89275 -48.57639 -4.262337
v -8.716795 -47.53305 -4.197122
v -8.26045 -48.56854 -3.794255
v -8.26045 -48.56854 -3.794255
v -8.716795 -47.53305 -4.197122
v -8.540268 -47.0088 -4.099057
v -8.540268 -47.0088 -4.099057
v -8.716795 -47.53305 -4.197122
v -8.565271 -46.99853 -4.118227
v -7.520662 -48.75608 -2.447995
v -9.614403 -49.16397 -2.447651
v -8.26045 -48.56854 -3.794255
v -8.26045 -48.56854 -3.794255
v -9.614403 -49.16397 -2.447651
v -8.89275 -48.57639 -4.262337
v -8.89275 -48.57639 -4.262337
v -9.614403 -49.16397 -2.447651
v -9.009081 -48.6498 -4.056292
v -9.009081 -48.6498 -4.056292
v -9.614403 -49.16397 -2.447651
v -9.258493 -48.83426 -3.504701
v -9.258493 -48.83426 -3.504701
v -9.614403 -49.16397 -2.447651
v -9.526262 -49.06499 -2.779757
v -8.26045 -48.56854 -3.794255
v -8.540268 -47.0088 -4.099057
v -7.520662 -48.75608 -2.447995
v -7.520662 -48.75608 -2.447995
v -8.540268 -47.0088 -4.099057
v -7.426199 -48.4339 -2.228578
v -7.426199 -48.4339 -2.228578
v -8.540268 -47.0088 -4.099057
v -7.642492 -47.60831 -2.516318

vn -0.9690804 0.08140628 -0.2329296
vn -0.9690804 0.08140628 -0.2329296
vn -0.9690804 0.08140628 -0.2329296
vn -0.9690804 0.08140628 -0.2329296
vn -0.9690804 0.08140628 -0.2329296
vn -0.9690804 0.08140628 -0.2329296
vn -0.9691938 0.1617644 -0.1857301
vn -0.9691938 0.1617644 -0.1857301
vn -0.9691938 0.1617644 -0.1857301
vn -0.9691938 0.1617644 -0.1857301
vn -0.9691938 0.1617644 -0.1857301
vn -0.9691938 0.1617644 -0.1857301
vn -0.9446255 0.238056 -0.2258586
vn -0.9446255 0.238056 -0.2258586
vn -0.9446255 0.238056 -0.2258586
vn -0.9446255 0.238056 -0.2258586
vn -0.9446255 0.238056 -0.2258586
vn -0.9446255 0.238056 -0.2258586
vn -0.9430854 0.0814153 -0.3224307
vn -0.9430854 0.0814153 -0.3224307
vn -0.9430854 0.0814153 -0.3224307
vn -0.9185112 0.1576899 -0.3625895
vn -0.9185112 0.1576899 -0.3625895
vn -0.9185112 0.1576899 -0.3625895
vn -0.9185112 0.1576899 -0.3625895
vn -0.9185112 0.1576899 -0.3625895
vn -0.9185112 0.1576899 -0.3625895
vn -0.9186119 0.2380818 -0.3153872
vn -0.9186119 0.2380818 -0.3153872
vn -0.9186119 0.2380818 -0.3153872
vn -0.9186119 0.2380818 -0.3153872
vn -0.9186119 0.2380818 -0.3153872
vn -0.9186119 0.2380818 -0.3153872
vn -0.8866361 0.304333 -0.348221
vn -0.8866361 0.304333 -0.348221
vn -0.8866361 0.304333 -0.348221
vn -0.8828993 0.1577297 -0.4422782
vn -0.8828993 0.1577297 -0.4422782
vn -0.8828993 0.1577297 -0.4422782
vn -0.8828993 0.1577297 -0.4422782
vn -0.8828993 0.1577297 -0.4422782
vn -0.8828993 0.1577297 -0.4422782
vn -0.8507095 0.22436 -0.4753481
vn -0.8507095 0.22436 -0.4753481
vn -0.8507095 0.22436 -0.4753481
vn -0.8507915 0.3044033 -0.4283601
vn -0.8507915 0.3044033 -0.4283601
vn -0.8507915 0.3044033 -0.4283601
vn -0.8507915 0.3044033 -0.4283601
vn -0.8507915 0.3044033 -0.4283601
vn -0.8507915 0.3044033 -0.4283601
vn 0.2020585 0.9483377 0.2445978
vn 0.2020585 0.9483377 0.2445978
vn 0.2020585 0.9483377 0.2445978
vn 0.2020585 0.9483377 0.2445978
vn 0.2020585 0.9483377 0.2445978
vn 0.2020585 0.9483377 0.2445978
vn 0.2020585 0.9483377 0.2445978
vn 0.2020585 0.9483377 0.2445978
vn 0.2020585 0.9483377 0.2445978
vn 0.2020585 0.9483377 0.2445978
vn 0.2020585 0.9483377 0.2445978
vn 0.2020585 0.9483377 0.2445978
vn 0.2020585 0.9483377 0.2445978
vn 0.2020585 0.9483377 0.2445978
vn 0.2020585 0.9483377 0.2445978
vn 0.1202243 0.3546637 0.9272324
vn 0.1202243 0.3546637 0.9272324
vn 0.1202243 0.3546637 0.9272324
vn 0.1202243 0.3546637 0.9272324
vn 0.1202243 0.3546637 0.9272324
vn 0.1202243 0.3546637 0.9272324
vn 0.1202243 0.3546637 0.9272324
vn 0.1202243 0.3546637 0.9272324
vn 0.1202243 0.3546637 0.9272324
vn 0.1134652 -0.5817648 0.8054039
vn 0.1134652 -0.5817648 0.8054039
vn 0.1134652 -0.5817648 0.8054039
vn 0.1134652 -0.5817648 0.8054039
vn 0.1134652 -0.5817648 0.8054039
vn 0.1134652 -0.5817648 0.8054039
vn 0.1134652 -0.5817648 0.8054039
vn 0.1134652 -0.5817648 0.8054039
vn 0.1134652 -0.5817648 0.8054039
vn 0.5946445 -0.05013139 -0.8024244
vn 0.5946445 -0.05013139 -0.8024244
vn 0.5946445 -0.05013139 -0.8024244
vn 0.5946445 -0.05013139 -0.8024244
vn 0.5946445 -0.05013139 -0.8024244
vn 0.5946445 -0.05013139 -0.8024244
vn 0.5946445 -0.05013139 -0.8024244
vn 0.5946445 -0.05013139 -0.8024244
vn 0.5946445 -0.05013139 -0.8024244
vn 0.5946445 -0.05013139 -0.8024244
vn 0.5946445 -0.05013139 -0.8024244
vn 0.5946445 -0.05013139 -0.8024244
vn 0.1858253 -0.954061 -0.2350249
vn 0.1858253 -0.954061 -0.2350249
vn 0.1858253 -0.954061 -0.2350249
vn 0.1858253 -0.954061 -0.2350249
vn 0.1858253 -0.954061 -0.2350249
vn 0.1858253 -0.954061 -0.2350249
vn 0.1858253 -0.954061 -0.2350249
vn 0.1858253 -0.954061 -0.2350249
vn 0.1858253 -0.954061 -0.2350249
vn 0.1858253 -0.954061 -0.2350249
vn 0.1858253 -0.954061 -0.2350249
vn 0.1858253 -0.954061 -0.2350249
vn 0.1858253 -0.954061 -0.2350249
vn 0.1858253 -0.954061 -0.2350249
vn 0.1858253 -0.954061 -0.2350249
vn 0.8783365 0.06503414 -0.4735987
vn 0.8783365 0.06503414 -0.4735987
vn 0.8783365 0.06503414 -0.4735987
vn 0.8783365 0.06503414 -0.4735987
vn 0.8783365 0.06503414 -0.4735987
vn 0.8783365 0.06503414 -0.4735987
vn 0.8783365 0.06503414 -0.4735987
vn 0.8783365 0.06503414 -0.4735987
vn 0.8783365 0.06503414 -0.4735987

vt 0.6247042 0.2015891
vt 0.6188512 0.2058595
vt 0.6232826 0.196826
vt 0.6232826 0.196826
vt 0.6188512 0.2058595
vt 0.6136357 0.196826
vt 0.6147103 0.2086989
vt 0.6083733 0.205941
vt 0.6188512 0.2058595
vt 0.6188512 0.2058595
vt 0.6083733 0.205941
vt 0.6136357 0.196826
vt 0.6083733 0.205941
vt 0.5971976 0.2006253
vt 0.6136357 0.196826
vt 0.6136357 0.196826
vt 0.5971976 0.2006253
vt 0.5963508 0.196826
vt 0.6136357 0.196826
vt 0.6199726 0.1858501
vt 0.6232826 0.196826
vt 0.6136357 0.196826
vt 0.6022722 0.1771435
vt 0.6199726 0.1858501
vt 0.6199726 0.1858501
vt 0.6022722 0.1771435
vt 0.6169267 0.1771435
vt 0.6136357 0.196826
vt 0.5963508 0.196826
vt 0.6022722 0.1771435
vt 0.6022722 0.1771435
vt 0.5963508 0.196826
vt 0.5949873 0.1897612
vt 0.6022722 0.1771435
vt 0.5949873 0.1897612
vt 0.591998 0.1771435
vt 0.6169267 0.1771435
vt 0.6022722 0.1771435
vt 0.6157197 0.1735377
vt 0.6157197 0.1735377
vt 0.6022722 0.1771435
vt 0.6044644 0.1733464
vt 0.6022722 0.1771435
vt 0.6000021 0.1732116
vt 0.6044644 0.1733464
vt 0.5912456 0.1733656
vt 0.6000021 0.1732116
vt 0.591998 0.1771435
vt 0.591998 0.1771435
vt 0.6000021 0.1732116
vt 0.6022722 0.1771435
vt 0.4578077 0.4980803
vt 0.4420287 0.4507292
vt 0.4894361 0.5786538
vt 0.4894361 0.5786538
vt 0.4420287 0.4507292
vt 0.5003164 0.6005644
vt 0.5003164 0.6005644
vt 0.4420287 0.4507292
vt 0.5030165 0.598558
vt 0.5030165 0.598558
vt 0.4420287 0.4507292
vt 0.6047037 0.4330563
vt 0.6047037 0.4330563
vt 0.4420287 0.4507292
vt 0.4357517 0.4239198
vt 0.4940535 0.3684354
vt 0.5210926 0.5314572
vt 0.4075126 0.3468622
vt 0.4075126 0.3468622
vt 0.5210926 0.5314572
vt 0.39494 0.5682
vt 0.39494 0.5682
vt 0.5210926 0.5314572
vt 0.4423662 0.557315
vt 0.2738549 0.5000492
vt 0.6357836 0.4171319
vt 0.2994642 0.5614496
vt 0.2994642 0.5614496
vt 0.6357836 0.4171319
vt 0.6532596 0.5613465
vt 0.6532596 0.5613465
vt 0.6357836 0.4171319
vt 0.6462561 0.4747634
vt 0.4764088 0.5775756
vt 0.4297701 0.5703282
vt 0.6034849 0.5883293
vt 0.6034849 0.5883293
vt 0.4297701 0.5703282
vt 0.5934436 0.4591109
vt 0.5934436 0.4591109
vt 0.4297701 0.5703282
vt 0.341265 0.5432517
vt 0.341265 0.5432517
vt 0.4297701 0.5703282
vt 0.3399243 0.5485489
vt 0.3737325 0.3869286
vt 0.5894778 0.3868911
vt 0.4435475 0.5270132
vt 0.4435475 0.5270132
vt 0.5894778 0.3868911
vt 0.5064761 0.5757192
vt 0.5064761 0.5757192
vt 0.5894778 0.3868911
vt 0.5194425 0.5542867
vt 0.5194425 0.5542867
vt 0.5894778 0.3868911
vt 0.547766 0.4968897
vt 0.547766 0.4968897
vt 0.5894778 0.3868911
vt 0.5788178 0.421454
vt 0.5706705 0.5166908
vt 0.3947478 0.555318
vt 0.5976439 0.3460747
vt 0.5976439 0.3460747
vt 0.3947478 0.555318
vt 0.5625513 0.3182621
vt 0.5625513 0.3182621
vt 0.3947478 0.555318
vt 0.4688755 0.354733

usemtl Material0
usemap Material0
f 1/1/1 2/2/2 3/3/3
f 4/4/4 5/5/5 6/6/6
f 7/7/7 8/8/8 9/9/9
f 10/10/10 11/11/11 12/12/12
f 13/13/13 14/14/14 15/15/15
f 16/16/16 17/17/17 18/18/18
f 19/19/19 20/20/20 21/21/21
f 22/22/22 23/23/23 24/24/24
f 25/25/25 26/26/26 27/27/27
f 28/28/28 29/29/29 30/30/30
f 31/31/31 32/32/32 33/33/33
f 34/34/34 35/35/35 36/36/36
f 37/37/37 38/38/38 39/39/39
f 40/40/40 41/41/41 42/42/42
f 43/43/43 44/44/44 45/45/45
f 46/46/46 47/47/47 48/48/48
f 49/49/49 50/50/50 51/51/51

usemtl Material1
usemap Material1
f 52/52/52 53/53/53 54/54/54
f 55/55/55 56/56/56 57/57/57
f 58/58/58 59/59/59 60/60/60
f 61/61/61 62/62/62 63/63/63
f 64/64/64 65/65/65 66/66/66
f 67/67/67 68/68/68 69/69/69
f 70/70/70 71/71/71 72/72/72
f 73/73/73 74/74/74 75/75/75
f 76/76/76 77/77/77 78/78/78
f 79/79/79 80/80/80 81/81/81
f 82/82/82 83/83/83 84/84/84
f 85/85/85 86/86/86 87/87/87
f 88/88/88 89/89/89 90/90/90
f 91/91/91 92/92/92 93/93/93
f 94/94/94 95/95/95 96/96/96
f 97/97/97 98/98/98 99/99/99
f 100/100/100 101/101/101 102/102/102
f 103/103/103 104/104/104 105/105/105
f 106/106/106 107/107/107 108/108/108
f 109/109/109 110/110/110 111/111/111
f 112/112/112 113/113/113 114/114/114
f 115/115/115 116/116/116 117/117/117
f 118/118/118 119/119/119 120/120/120
