g  Instance
v -1.672019 -54.84519 -3.430255
v -1.874315 -54.61564 -3.514515
v -1.82928 -54.66697 -3.56335
v -0.1321482 -54.97453 -4.159889
v -0.2713036 -55.17279 -3.913134
v -0.2785884 -54.94553 -4.226117
v -0.2785884 -54.94553 -4.226117
v -0.2713036 -55.17279 -3.913134
v -0.2956322 -54.9669 -4.199891
v -0.2956322 -54.9669 -4.199891
v -0.2713036 -55.17279 -3.913134
v -0.3019557 -55.17452 -3.916297
v -1.206885 -54.55976 -4.129548
v -0.7633225 -54.34909 -4.515182
v -0.2956322 -54.9669 -4.199891
v -0.2956322 -54.9669 -4.199891
v -0.7633225 -54.34909 -4.515182
v -0.2785884 -54.94553 -4.226117
v -0.2785884 -54.94553 -4.226117
v -0.7633225 -54.34909 -4.515182
v -0.6197742 -54.40588 -4.532581
v -0.1321482 -54.97453 -4.159889
v 0.4717723 -54.48453 -4.083253
v -0.2713036 -55.17279 -3.913134
v -0.2713036 -55.17279 -3.913134
v 0.4717723 -54.48453 -4.083253
v 0.4977122 -54.83816 -2.919241
v 0.4977122 -54.83816 -2.919241
v 0.4717723 -54.48453 -4.083253
v 1.264166 -54.02976 -3.399828
v 1.264166 -54.02976 -3.399828
v 0.4717723 -54.48453 -4.083253
v 1.276112 -54.01181 -3.423871
v 1.276112 -54.01181 -3.423871
v 1.030942 -51.98185 -3.129048
v 1.264166 -54.02976 -3.399828
v 1.264166 -54.02976 -3.399828
v 1.030942 -51.98185 -3.129048
v 0.08297659 -54.08412 -1.164886
v 0.08297659 -54.08412 -1.164886
v 1.030942 -51.98185 -3.129048
v -0.2030194 -53.45704 -0.6767786
v -0.2030194 -53.45704 -0.6767786
v 1.030942 -51.98185 -3.129048
v -0.2732026 -53.17945 -0.5672435
v -1.109393 -52.46235 -3.941113
v 0.04457733 -52.1055 -3.833649
v -0.7633225 -54.34909 -4.515182
v -0.7633225 -54.34909 -4.515182
v 0.04457733 -52.1055 -3.833649
v -0.6197742 -54.40588 -4.532581
v -0.6197742 -54.40588 -4.532581
v 0.04457733 -52.1055 -3.833649
v -0.1798672 -54.13247 -4.449839
v -1.874315 -54.61564 -3.514515
v -1.672019 -54.84519 -3.430255
v -2.264152 -53.14325 -2.954829
v -2.264152 -53.14325 -2.954829
v -1.672019 -54.84519 -3.430255
v -0.2732026 -53.17945 -0.5672435
v -0.2732026 -53.17945 -0.5672435
v -1.672019 -54.84519 -3.430255
v -0.2030194 -53.45704 -0.6767786
v -0.2030194 -53.45704 -0.6767786
v -1.672019 -54.84519 -3.430255
v -0.2853946 -54.3808 -1.424167
v -0.2853946 -54.3808 -1.424167
v -1.672019 -54.84519 -3.430255
v -1.488312 -55.01489 -3.326568
v -0.2853946 -54.3808 -1.424167
v 0.02025791 -54.36369 -1.393208
v -0.2030194 -53.45704 -0.6767786
v -0.2030194 -53.45704 -0.6767786
v 0.02025791 -54.36369 -1.393208
v 0.08297659 -54.08412 -1.164886
v -0.2713036 -55.17279 -3.913134
v 0.4977122 -54.83816 -2.919241
v -0.3019557 -55.17452 -3.916297
v -0.3019557 -55.17452 -3.916297
v 0.4977122 -54.83816 -2.919241
v -1.488312 -55.01489 -3.326568
v -1.488312 -55.01489 -3.326568
v 0.4977122 -54.83816 -2.919241
v -0.2853946 -54.3808 -1.424167
v -0.2853946 -54.3808 -1.424167
v 0.4977122 -54.83816 -2.919241
v 0.02025791 -54.36369 -1.393208
v -0.1321482 -54.97453 -4.159889
v -0.2785884 -54.94553 -4.226117
v 0.4717723 -54.48453 -4.083253
v 0.4717723 -54.48453 -4.083253
v -0.2785884 -54.94553 -4.226117
v -0.1798672 -54.13247 -4.449839
v -0.1798672 -54.13247 -4.449839
v -0.2785884 -54.94553 -4.226117
v -0.6197742 -54.40588 -4.532581
v -1.82928 -54.66697 -3.56335
v -1.874315 -54.61564 -3.514515
v -1.206885 -54.55976 -4.129548
v -1.206885 -54.55976 -4.129548
v -1.874315 -54.61564 -3.514515
v -0.7633225 -54.34909 -4.515182
v -0.7633225 -54.34909 -4.515182
v -1.874315 -54.61564 -3.514515
v -1.109393 -52.46235 -3.941113
v -1.109393 -52.46235 -3.941113
v -1.874315 -54.61564 -3.514515
v -2.264152 -53.14325 -2.954829
v -1.672019 -54.84519 -3.430255
v -1.82928 -54.66697 -3.56335
v -1.488312 -55.01489 -3.326568
v -1.488312 -55.01489 -3.326568
v -1.82928 -54.66697 -3.56335
v -0.3019557 -55.17452 -3.916297
v -0.3019557 -55.17452 -3.916297
v -1.82928 -54.66697 -3.56335
v -0.2956322 -54.9669 -4.199891
v -0.2956322 -54.9669 -4.199891
v -1.82928 -54.66697 -3.56335
v -1.206885 -54.55976 -4.129548
v -0.2732026 -53.17945 -0.5672435
v 1.030942 -51.98185 -3.129048
v -2.264152 -53.14325 -2.954829
v -2.264152 -53.14325 -2.954829
v 1.030942 -51.98185 -3.129048
v -1.109393 -52.46235 -3.941113
v -1.109393 -52.46235 -3.941113
v 1.030942 -51.98185 -3.129048
v 0.04457733 -52.1055 -3.833649
v 0.02025791 -54.36369 -1.393208
v 0.4977122 -54.83816 -2.919241
v 0.08297659 -54.08412 -1.164886
v 0.08297659 -54.08412 -1.164886
v 0.4977122 -54.83816 -2.919241
v 1.264166 -54.02976 -3.399828
v 0.04457733 -52.1055 -3.833649
v 1.030942 -51.98185 -3.129048
v -0.1798672 -54.13247 -4.449839
v -0.1798672 -54.13247 -4.449839
v 1.030942 -51.98185 -3.129048
v 0.4717723 -54.48453 -4.083253
v 0.4717723 -54.48453 -4.083253
v 1.030942 -51.98185 -3.129048
v 1.276112 -54.01181 -3.423871

vn -0.7506436 -0.6607038 0.002193594
vn -0.7506436 -0.6607038 0.002193594
vn -0.7506436 -0.6607038 0.002193594
vn 0.1058457 -0.8034675 -0.5858643
vn 0.1058457 -0.8034675 -0.5858643
vn 0.1058457 -0.8034675 -0.5858643
vn 0.1058457 -0.8034675 -0.5858643
vn 0.1058457 -0.8034675 -0.5858643
vn 0.1058457 -0.8034675 -0.5858643
vn 0.1058457 -0.8034675 -0.5858643
vn 0.1058457 -0.8034675 -0.5858643
vn 0.1058457 -0.8034675 -0.5858643
vn -0.3301493 -0.6152595 -0.7158612
vn -0.3301493 -0.6152595 -0.7158612
vn -0.3301493 -0.6152595 -0.7158612
vn -0.3301493 -0.6152595 -0.7158612
vn -0.3301493 -0.6152595 -0.7158612
vn -0.3301493 -0.6152595 -0.7158612
vn -0.3301493 -0.6152595 -0.7158612
vn -0.3301493 -0.6152595 -0.7158612
vn -0.3301493 -0.6152595 -0.7158612
vn 0.6299467 -0.7390866 -0.2385754
vn 0.6299467 -0.7390866 -0.2385754
vn 0.6299467 -0.7390866 -0.2385754
vn 0.6299467 -0.7390866 -0.2385754
vn 0.6299467 -0.7390866 -0.2385754
vn 0.6299467 -0.7390866 -0.2385754
vn 0.6299467 -0.7390866 -0.2385754
vn 0.6299467 -0.7390866 -0.2385754
vn 0.6299467 -0.7390866 -0.2385754
vn 0.6299467 -0.7390866 -0.2385754
vn 0.6299467 -0.7390866 -0.2385754
vn 0.6299467 -0.7390866 -0.2385754
vn 0.883064 0.03873283 0.4676512
vn 0.883064 0.03873283 0.4676512
vn 0.883064 0.03873283 0.4676512
vn 0.883064 0.03873283 0.4676512
vn 0.883064 0.03873283 0.4676512
vn 0.883064 0.03873283 0.4676512
vn 0.883064 0.03873283 0.4676512
vn 0.883064 0.03873283 0.4676512
vn 0.883064 0.03873283 0.4676512
vn 0.883064 0.03873283 0.4676512
vn 0.883064 0.03873283 0.4676512
vn 0.883064 0.03873283 0.4676512
vn -0.0008717179 0.290944 -0.9567397
vn -0.0008717179 0.290944 -0.9567397
vn -0.0008717179 0.290944 -0.9567397
vn -0.0008717179 0.290944 -0.9567397
vn -0.0008717179 0.290944 -0.9567397
vn -0.0008717179 0.290944 -0.9567397
vn -0.0008717179 0.290944 -0.9567397
vn -0.0008717179 0.290944 -0.9567397
vn -0.0008717179 0.290944 -0.9567397
vn -0.7044139 -0.4074352 0.5812036
vn -0.7044139 -0.4074352 0.5812036
vn -0.7044139 -0.4074352 0.5812036
vn -0.7044139 -0.4074352 0.5812036
vn -0.7044139 -0.4074352 0.5812036
vn -0.7044139 -0.4074352 0.5812036
vn -0.7044139 -0.4074352 0.5812036
vn -0.7044139 -0.4074352 0.5812036
vn -0.7044139 -0.4074352 0.5812036
vn -0.7044139 -0.4074352 0.5812036
vn -0.7044139 -0.4074352 0.5812036
vn -0.7044139 -0.4074352 0.5812036
vn -0.7044139 -0.4074352 0.5812036
vn -0.7044139 -0.4074352 0.5812036
vn -0.7044139 -0.4074352 0.5812036
vn -0.04381603 -0.6260183 0.7785764
vn -0.04381603 -0.6260183 0.7785764
vn -0.04381603 -0.6260183 0.7785764
vn -0.04381603 -0.6260183 0.7785764
vn -0.04381603 -0.6260183 0.7785764
vn -0.04381603 -0.6260183 0.7785764
vn 0.0225873 -0.9526415 0.3032559
vn 0.0225873 -0.9526415 0.3032559
vn 0.0225873 -0.9526415 0.3032559
vn 0.0225873 -0.9526415 0.3032559
vn 0.0225873 -0.9526415 0.3032559
vn 0.0225873 -0.9526415 0.3032559
vn 0.0225873 -0.9526415 0.3032559
vn 0.0225873 -0.9526415 0.3032559
vn 0.0225873 -0.9526415 0.3032559
vn 0.0225873 -0.9526415 0.3032559
vn 0.0225873 -0.9526415 0.3032559
vn 0.0225873 -0.9526415 0.3032559
vn 0.3467427 -0.2877446 -0.8927333
vn 0.3467427 -0.2877446 -0.8927333
vn 0.3467427 -0.2877446 -0.8927333
vn 0.3467427 -0.2877446 -0.8927333
vn 0.3467427 -0.2877446 -0.8927333
vn 0.3467427 -0.2877446 -0.8927333
vn 0.3467427 -0.2877446 -0.8927333
vn 0.3467427 -0.2877446 -0.8927333
vn 0.3467427 -0.2877446 -0.8927333
vn -0.6788338 0.0969492 -0.7278638
vn -0.6788338 0.0969492 -0.7278638
vn -0.6788338 0.0969492 -0.7278638
vn -0.6788338 0.0969492 -0.7278638
vn -0.6788338 0.0969492 -0.7278638
vn -0.6788338 0.0969492 -0.7278638
vn -0.6788338 0.0969492 -0.7278638
vn -0.6788338 0.0969492 -0.7278638
vn -0.6788338 0.0969492 -0.7278638
vn -0.6788338 0.0969492 -0.7278638
vn -0.6788338 0.0969492 -0.7278638
vn -0.6788338 0.0969492 -0.7278638
vn -0.3750537 -0.743899 -0.5531267
vn -0.3750537 -0.743899 -0.5531267
vn -0.3750537 -0.743899 -0.5531267
vn -0.3750537 -0.743899 -0.5531267
vn -0.3750537 -0.743899 -0.5531267
vn -0.3750537 -0.743899 -0.5531267
vn -0.3750537 -0.743899 -0.5531267
vn -0.3750537 -0.743899 -0.5531267
vn -0.3750537 -0.743899 -0.5531267
vn -0.3750537 -0.743899 -0.5531267
vn -0.3750537 -0.743899 -0.5531267
vn -0.3750537 -0.743899 -0.5531267
vn -0.3073297 0.912465 0.2701038
vn -0.3073297 0.912465 0.2701038
vn -0.3073297 0.912465 0.2701038
vn -0.3073297 0.912465 0.2701038
vn -0.3073297 0.912465 0.2701038
vn -0.3073297 0.912465 0.2701038
vn -0.3073297 0.912465 0.2701038
vn -0.3073297 0.912465 0.2701038
vn -0.3073297 0.912465 0.2701038
vn 0.772261 -0.4967511 0.3960445
vn 0.772261 -0.4967511 0.3960445
vn 0.772261 -0.4967511 0.3960445
vn 0.772261 -0.4967511 0.3960445
vn 0.772261 -0.4967511 0.3960445
vn 0.772261 -0.4967511 0.3960445
vn 0.5558028 0.1848434 -0.8105037
vn 0.5558028 0.1848434 -0.8105037
vn 0.5558028 0.1848434 -0.8105037
vn 0.5558028 0.1848434 -0.8105037
vn 0.5558028 0.1848434 -0.8105037
vn 0.5558028 0.1848434 -0.8105037
vn 0.5558028 0.1848434 -0.8105037
vn 0.5558028 0.1848434 -0.8105037
vn 0.5558028 0.1848434 -0.8105037

vt 0.4746602 0.5504146
vt 0.5047417 0.5587026
vt 0.4980288 0.5635028
vt 0.5206894 0.5009305
vt 0.5405656 0.4639909
vt 0.5378467 0.5108498
vt 0.5378467 0.5108498
vt 0.5405656 0.4639909
vt 0.5402375 0.5069215
vt 0.5402375 0.5069215
vt 0.5405656 0.4639909
vt 0.5442783 0.4644643
vt 0.5402094 0.4503541
vt 0.4992007 0.5281196
vt 0.4000544 0.4645393
vt 0.4000544 0.4645393
vt 0.4992007 0.5281196
vt 0.3993606 0.4698271
vt 0.3993606 0.4698271
vt 0.4992007 0.5281196
vt 0.4776135 0.531626
vt 0.6049568 0.59057
vt 0.5262492 0.5825821
vt 0.6286957 0.5648436
vt 0.6286957 0.5648436
vt 0.5262492 0.5825821
vt 0.5474848 0.4612345
vt 0.5474848 0.4612345
vt 0.5262492 0.5825821
vt 0.4353439 0.5113373
vt 0.4353439 0.5113373
vt 0.5262492 0.5825821
vt 0.4332438 0.5138406
vt 0.5804585 0.619203
vt 0.353697 0.582104
vt 0.5823899 0.6161746
vt 0.5823899 0.6161746
vt 0.353697 0.582104
vt 0.5826712 0.3349647
vt 0.5826712 0.3349647
vt 0.353697 0.582104
vt 0.5116045 0.2735455
vt 0.5116045 0.2735455
vt 0.353697 0.582104
vt 0.4804168 0.2597634
vt 0.4500354 0.57901
vt 0.4134004 0.4655613
vt 0.6439122 0.5449862
vt 0.6439122 0.5449862
vt 0.4134004 0.4655613
vt 0.6497532 0.530876
vt 0.6497532 0.530876
vt 0.4134004 0.4655613
vt 0.6216734 0.4876266
vt 0.4550232 0.7136709
vt 0.418782 0.7011639
vt 0.6325772 0.6305848
vt 0.6325772 0.6305848
vt 0.418782 0.7011639
vt 0.5083513 0.2761238
vt 0.5083513 0.2761238
vt 0.418782 0.7011639
vt 0.4750821 0.2923856
vt 0.4750821 0.2923856
vt 0.418782 0.7011639
vt 0.3834643 0.4033452
vt 0.3834643 0.4033452
vt 0.418782 0.7011639
vt 0.3899194 0.6857693
vt 0.5062136 0.490983
vt 0.4586374 0.4832482
vt 0.5034478 0.3044098
vt 0.5034478 0.3044098
vt 0.4586374 0.4832482
vt 0.4518964 0.4262543
vt 0.5119984 0.6571926
vt 0.4318703 0.5495802
vt 0.5151672 0.6575302
vt 0.5151672 0.6575302
vt 0.4318703 0.5495802
vt 0.6371337 0.5936827
vt 0.6371337 0.5936827
vt 0.4318703 0.5495802
vt 0.5115201 0.3877208
vt 0.5115201 0.3877208
vt 0.4318703 0.5495802
vt 0.4799527 0.3843644
vt 0.7823796 0.4125379
vt 0.7979149 0.4446069
vt 0.6159637 0.3754295
vt 0.6159637 0.3754295
vt 0.7979149 0.4446069
vt 0.6476437 0.5529366
vt 0.6476437 0.5529366
vt 0.7979149 0.4446069
vt 0.7548436 0.5929983
vt 0.2548038 0.4054031
vt 0.2611745 0.3951931
vt 0.2826304 0.5237787
vt 0.2826304 0.5237787
vt 0.2611745 0.3951931
vt 0.3215201 0.6044083
vt 0.3215201 0.6044083
vt 0.2611745 0.3951931
vt 0.5822868 0.4843827
vt 0.5822868 0.4843827
vt 0.2611745 0.3951931
vt 0.4622423 0.278177
vt 0.570933 0.4112487
vt 0.5969689 0.430103
vt 0.5425626 0.396562
vt 0.5425626 0.396562
vt 0.5969689 0.430103
vt 0.4090689 0.480098
vt 0.4090689 0.480098
vt 0.5969689 0.430103
vt 0.4194336 0.5202628
vt 0.4194336 0.5202628
vt 0.5969689 0.430103
vt 0.5370779 0.5103061
vt 0.4758697 0.2720032
vt 0.6410995 0.543683
vt 0.2843977 0.5252038
vt 0.2843977 0.5252038
vt 0.6410995 0.543683
vt 0.4183273 0.6297973
vt 0.4183273 0.6297973
vt 0.6410995 0.543683
vt 0.5416157 0.6183966
vt 0.582418 0.3794141
vt 0.5974845 0.5573525
vt 0.553607 0.3527923
vt 0.553607 0.3527923
vt 0.5974845 0.5573525
vt 0.4802996 0.6133807
vt 0.314226 0.5211911
vt 0.3467872 0.3192888
vt 0.6251611 0.6977606
vt 0.6251611 0.6977606
vt 0.3467872 0.3192888
vt 0.7157476 0.5927171
vt 0.7157476 0.5927171
vt 0.3467872 0.3192888
vt 0.6830645 0.4037764

usemtl Material0
usemap Material0

usemtl Material1
usemap Material1
f 1/1/1 2/2/2 3/3/3
f 4/4/4 5/5/5 6/6/6
f 7/7/7 8/8/8 9/9/9
f 10/10/10 11/11/11 12/12/12
f 13/13/13 14/14/14 15/15/15
f 16/16/16 17/17/17 18/18/18
f 19/19/19 20/20/20 21/21/21
f 22/22/22 23/23/23 24/24/24
f 25/25/25 26/26/26 27/27/27
f 28/28/28 29/29/29 30/30/30
f 31/31/31 32/32/32 33/33/33
f 34/34/34 35/35/35 36/36/36
f 37/37/37 38/38/38 39/39/39
f 40/40/40 41/41/41 42/42/42
f 43/43/43 44/44/44 45/45/45
f 46/46/46 47/47/47 48/48/48
f 49/49/49 50/50/50 51/51/51
f 52/52/52 53/53/53 54/54/54
f 55/55/55 56/56/56 57/57/57
f 58/58/58 59/59/59 60/60/60
f 61/61/61 62/62/62 63/63/63
f 64/64/64 65/65/65 66/66/66
f 67/67/67 68/68/68 69/69/69
f 70/70/70 71/71/71 72/72/72
f 73/73/73 74/74/74 75/75/75
f 76/76/76 77/77/77 78/78/78
f 79/79/79 80/80/80 81/81/81
f 82/82/82 83/83/83 84/84/84
f 85/85/85 86/86/86 87/87/87
f 88/88/88 89/89/89 90/90/90
f 91/91/91 92/92/92 93/93/93
f 94/94/94 95/95/95 96/96/96
f 97/97/97 98/98/98 99/99/99
f 100/100/100 101/101/101 102/102/102
f 103/103/103 104/104/104 105/105/105
f 106/106/106 107/107/107 108/108/108
f 109/109/109 110/110/110 111/111/111
f 112/112/112 113/113/113 114/114/114
f 115/115/115 116/116/116 117/117/117
f 118/118/118 119/119/119 120/120/120
f 121/121/121 122/122/122 123/123/123
f 124/124/124 125/125/125 126/126/126
f 127/127/127 128/128/128 129/129/129
f 130/130/130 131/131/131 132/132/132
f 133/133/133 134/134/134 135/135/135
f 136/136/136 137/137/137 138/138/138
f 139/139/139 140/140/140 141/141/141
f 142/142/142 143/143/143 144/144/144
