g  Instance
v 5.277394 -48.2161 2.238137
v 4.774318 -47.46111 2.064176
v 5.280117 -48.21791 1.944937
v 5.280117 -48.21791 1.944937
v 4.774318 -47.46111 2.064176
v 4.736975 -47.40149 1.586406
v 4.736975 -47.40149 1.586406
v 4.774318 -47.46111 2.064176
v 4.769556 -47.45382 2.043139
v 5.277394 -48.2161 2.238137
v 5.537575 -48.37664 2.319371
v 4.774318 -47.46111 2.064176
v 4.774318 -47.46111 2.064176
v 5.537575 -48.37664 2.319371
v 4.776391 -47.45345 2.064483
v 4.776391 -47.45345 2.064483
v 5.537575 -48.37664 2.319371
v 6.068646 -46.82356 2.41372
v 6.068646 -46.82356 2.41372
v 5.537575 -48.37664 2.319371
v 6.782927 -48.09409 2.66826
v 6.782927 -48.09409 2.66826
v 5.537575 -48.37664 2.319371
v 6.421105 -48.52599 2.580186
v 6.351317 -46.46018 1.008644
v 5.903237 -46.67833 0.8857819
v 6.914083 -46.18981 1.186628
v 6.914083 -46.18981 1.186628
v 5.903237 -46.67833 0.8857819
v 6.998347 -46.24197 1.821662
v 6.998347 -46.24197 1.821662
v 5.903237 -46.67833 0.8857819
v 6.068646 -46.82356 2.41372
v 6.068646 -46.82356 2.41372
v 5.903237 -46.67833 0.8857819
v 4.776391 -47.45345 2.064483
v 4.776391 -47.45345 2.064483
v 5.903237 -46.67833 0.8857819
v 4.769556 -47.45382 2.043139
v 4.769556 -47.45382 2.043139
v 5.903237 -46.67833 0.8857819
v 4.736975 -47.40149 1.586406
v 4.736975 -47.40149 1.586406
v 5.903237 -46.67833 0.8857819
v 4.819557 -47.32245 1.354019
v 7.123619 -46.17218 1.17663
v 6.914083 -46.18981 1.186628
v 7.283358 -46.20795 1.699756
v 7.283358 -46.20795 1.699756
v 6.914083 -46.18981 1.186628
v 6.998347 -46.24197 1.821662
v 5.725563 -48.49279 2.07258
v 5.537575 -48.37664 2.319371
v 5.490488 -48.34782 1.820704
v 5.490488 -48.34782 1.820704
v 5.537575 -48.37664 2.319371
v 5.280117 -48.21791 1.944937
v 5.280117 -48.21791 1.944937
v 5.537575 -48.37664 2.319371
v 5.277394 -48.2161 2.238137
v 6.421105 -48.52599 2.580186
v 6.584446 -48.59548 2.478355
v 6.782927 -48.09409 2.66826
v 6.782927 -48.09409 2.66826
v 6.584446 -48.59548 2.478355
v 7.462073 -48.08174 2.406159
v 5.542554 -47.98519 1.232466
v 5.388055 -47.75432 1.132416
v 5.649904 -47.95729 1.193974
v 5.649904 -47.95729 1.193974
v 5.388055 -47.75432 1.132416
v 6.007013 -47.52148 0.8692032
v 8.290394 -47.78333 1.96944
v 7.283358 -46.20795 1.699756
v 7.462073 -48.08174 2.406159
v 7.462073 -48.08174 2.406159
v 7.283358 -46.20795 1.699756
v 6.782927 -48.09409 2.66826
v 6.782927 -48.09409 2.66826
v 7.283358 -46.20795 1.699756
v 6.068646 -46.82356 2.41372
v 6.068646 -46.82356 2.41372
v 7.283358 -46.20795 1.699756
v 6.998347 -46.24197 1.821662
v 6.421105 -48.52599 2.580186
v 5.537575 -48.37664 2.319371
v 6.584446 -48.59548 2.478355
v 6.584446 -48.59548 2.478355
v 5.537575 -48.37664 2.319371
v 6.614226 -48.63516 2.363015
v 6.614226 -48.63516 2.363015
v 5.537575 -48.37664 2.319371
v 5.725563 -48.49279 2.07258
v 5.649904 -47.95729 1.193974
v 6.007013 -47.52148 0.8692032
v 8.154881 -47.88232 1.235531
v 8.154881 -47.88232 1.235531
v 6.007013 -47.52148 0.8692032
v 7.377914 -46.92118 0.4568903
v 7.377914 -46.92118 0.4568903
v 6.007013 -47.52148 0.8692032
v 6.922743 -46.96542 0.4731512
v 5.903237 -46.67833 0.8857819
v 6.351317 -46.46018 1.008644
v 5.975912 -46.67777 0.8557148
v 8.290394 -47.78333 1.96944
v 7.462073 -48.08174 2.406159
v 8.302191 -48.00523 1.5162
v 8.302191 -48.00523 1.5162
v 7.462073 -48.08174 2.406159
v 8.273281 -48.03523 1.492737
v 8.273281 -48.03523 1.492737
v 7.462073 -48.08174 2.406159
v 6.614226 -48.63516 2.363015
v 6.614226 -48.63516 2.363015
v 7.462073 -48.08174 2.406159
v 6.584446 -48.59548 2.478355
v 7.377914 -46.92118 0.4568903
v 6.922743 -46.96542 0.4731512
v 7.123619 -46.17218 1.17663
v 7.123619 -46.17218 1.17663
v 6.922743 -46.96542 0.4731512
v 6.914083 -46.18981 1.186628
v 6.914083 -46.18981 1.186628
v 6.922743 -46.96542 0.4731512
v 6.351317 -46.46018 1.008644
v 6.351317 -46.46018 1.008644
v 6.922743 -46.96542 0.4731512
v 5.975912 -46.67777 0.8557148
v 5.542554 -47.98519 1.232466
v 5.490488 -48.34782 1.820704
v 5.388055 -47.75432 1.132416
v 5.388055 -47.75432 1.132416
v 5.490488 -48.34782 1.820704
v 4.819557 -47.32245 1.354019
v 4.819557 -47.32245 1.354019
v 5.490488 -48.34782 1.820704
v 4.736975 -47.40149 1.586406
v 4.736975 -47.40149 1.586406
v 5.490488 -48.34782 1.820704
v 5.280117 -48.21791 1.944937
v 8.273281 -48.03523 1.492737
v 8.262199 -47.98512 1.410273
v 8.302191 -48.00523 1.5162
v 8.302191 -48.00523 1.5162
v 8.262199 -47.98512 1.410273
v 8.290394 -47.78333 1.96944
v 8.290394 -47.78333 1.96944
v 8.262199 -47.98512 1.410273
v 7.283358 -46.20795 1.699756
v 7.283358 -46.20795 1.699756
v 8.262199 -47.98512 1.410273
v 7.123619 -46.17218 1.17663
v 7.123619 -46.17218 1.17663
v 8.262199 -47.98512 1.410273
v 7.377914 -46.92118 0.4568903
v 7.377914 -46.92118 0.4568903
v 8.262199 -47.98512 1.410273
v 8.154881 -47.88232 1.235531
v 5.649904 -47.95729 1.193974
v 8.154881 -47.88232 1.235531
v 5.542554 -47.98519 1.232466
v 5.542554 -47.98519 1.232466
v 8.154881 -47.88232 1.235531
v 5.490488 -48.34782 1.820704
v 5.490488 -48.34782 1.820704
v 8.154881 -47.88232 1.235531
v 5.725563 -48.49279 2.07258
v 5.725563 -48.49279 2.07258
v 8.154881 -47.88232 1.235531
v 6.614226 -48.63516 2.363015
v 6.614226 -48.63516 2.363015
v 8.154881 -47.88232 1.235531
v 8.273281 -48.03523 1.492737
v 8.273281 -48.03523 1.492737
v 8.154881 -47.88232 1.235531
v 8.262199 -47.98512 1.410273
v 4.769556 -47.45382 2.043139
v 4.774318 -47.46111 2.064176
v 4.776391 -47.45345 2.064483
v 6.922743 -46.96542 0.4731512
v 6.007013 -47.52148 0.8692032
v 5.975912 -46.67777 0.8557148
v 5.975912 -46.67777 0.8557148
v 6.007013 -47.52148 0.8692032
v 5.903237 -46.67833 0.8857819
v 5.903237 -46.67833 0.8857819
v 6.007013 -47.52148 0.8692032
v 4.819557 -47.32245 1.354019
v 4.819557 -47.32245 1.354019
v 6.007013 -47.52148 0.8692032
v 5.388055 -47.75432 1.132416

vn -0.8317134 -0.5551887 -0.004278362
vn -0.8317134 -0.5551887 -0.004278362
vn -0.8317134 -0.5551887 -0.004278362
vn -0.8317134 -0.5551887 -0.004278362
vn -0.8317134 -0.5551887 -0.004278362
vn -0.8317134 -0.5551887 -0.004278362
vn -0.8317134 -0.5551887 -0.004278362
vn -0.8317134 -0.5551887 -0.004278362
vn -0.8317134 -0.5551887 -0.004278362
vn -0.2772531 0.03647952 0.9601042
vn -0.2772531 0.03647952 0.9601042
vn -0.2772531 0.03647952 0.9601042
vn -0.2772531 0.03647952 0.9601042
vn -0.2772531 0.03647952 0.9601042
vn -0.2772531 0.03647952 0.9601042
vn -0.2772531 0.03647952 0.9601042
vn -0.2772531 0.03647952 0.9601042
vn -0.2772531 0.03647952 0.9601042
vn -0.2772531 0.03647952 0.9601042
vn -0.2772531 0.03647952 0.9601042
vn -0.2772531 0.03647952 0.9601042
vn -0.2772531 0.03647952 0.9601042
vn -0.2772531 0.03647952 0.9601042
vn -0.2772531 0.03647952 0.9601042
vn -0.4631423 0.8761837 0.1334213
vn -0.4631423 0.8761837 0.1334213
vn -0.4631423 0.8761837 0.1334213
vn -0.4631423 0.8761837 0.1334213
vn -0.4631423 0.8761837 0.1334213
vn -0.4631423 0.8761837 0.1334213
vn -0.4631423 0.8761837 0.1334213
vn -0.4631423 0.8761837 0.1334213
vn -0.4631423 0.8761837 0.1334213
vn -0.4631423 0.8761837 0.1334213
vn -0.4631423 0.8761837 0.1334213
vn -0.4631423 0.8761837 0.1334213
vn -0.4631423 0.8761837 0.1334213
vn -0.4631423 0.8761837 0.1334213
vn -0.4631423 0.8761837 0.1334213
vn -0.4631423 0.8761837 0.1334213
vn -0.4631423 0.8761837 0.1334213
vn -0.4631423 0.8761837 0.1334213
vn -0.4631423 0.8761837 0.1334213
vn -0.4631423 0.8761837 0.1334213
vn -0.4631423 0.8761837 0.1334213
vn -0.07912432 0.9926078 0.09202752
vn -0.07912432 0.9926078 0.09202752
vn -0.07912432 0.9926078 0.09202752
vn -0.07912432 0.9926078 0.09202752
vn -0.07912432 0.9926078 0.09202752
vn -0.07912432 0.9926078 0.09202752
vn -0.5252189 -0.850967 0.0004021459
vn -0.5252189 -0.850967 0.0004021459
vn -0.5252189 -0.850967 0.0004021459
vn -0.5252189 -0.850967 0.0004021459
vn -0.5252189 -0.850967 0.0004021459
vn -0.5252189 -0.850967 0.0004021459
vn -0.5252189 -0.850967 0.0004021459
vn -0.5252189 -0.850967 0.0004021459
vn -0.5252189 -0.850967 0.0004021459
vn 0.3293539 -0.4456609 0.8324136
vn 0.3293539 -0.4456609 0.8324136
vn 0.3293539 -0.4456609 0.8324136
vn 0.3293539 -0.4456609 0.8324136
vn 0.3293539 -0.4456609 0.8324136
vn 0.3293539 -0.4456609 0.8324136
vn -0.1788052 -0.4895106 -0.8534683
vn -0.1788052 -0.4895106 -0.8534683
vn -0.1788052 -0.4895106 -0.8534683
vn -0.1788052 -0.4895106 -0.8534683
vn -0.1788052 -0.4895106 -0.8534683
vn -0.1788052 -0.4895106 -0.8534683
vn 0.330141 0.3603868 0.8724267
vn 0.330141 0.3603868 0.8724267
vn 0.330141 0.3603868 0.8724267
vn 0.330141 0.3603868 0.8724267
vn 0.330141 0.3603868 0.8724267
vn 0.330141 0.3603868 0.8724267
vn 0.330141 0.3603868 0.8724267
vn 0.330141 0.3603868 0.8724267
vn 0.330141 0.3603868 0.8724267
vn 0.330141 0.3603868 0.8724267
vn 0.330141 0.3603868 0.8724267
vn 0.330141 0.3603868 0.8724267
vn -0.2353676 -0.9361284 0.2612771
vn -0.2353676 -0.9361284 0.2612771
vn -0.2353676 -0.9361284 0.2612771
vn -0.2353676 -0.9361284 0.2612771
vn -0.2353676 -0.9361284 0.2612771
vn -0.2353676 -0.9361284 0.2612771
vn -0.2353676 -0.9361284 0.2612771
vn -0.2353676 -0.9361284 0.2612771
vn -0.2353676 -0.9361284 0.2612771
vn 0.03146018 -0.6136926 -0.7889181
vn 0.03146018 -0.6136926 -0.7889181
vn 0.03146018 -0.6136926 -0.7889181
vn 0.03146018 -0.6136926 -0.7889181
vn 0.03146018 -0.6136926 -0.7889181
vn 0.03146018 -0.6136926 -0.7889181
vn 0.03146018 -0.6136926 -0.7889181
vn 0.03146018 -0.6136926 -0.7889181
vn 0.03146018 -0.6136926 -0.7889181
vn -0.235863 0.7973752 -0.5554832
vn -0.235863 0.7973752 -0.5554832
vn -0.235863 0.7973752 -0.5554832
vn 0.4882517 -0.7787151 0.3939711
vn 0.4882517 -0.7787151 0.3939711
vn 0.4882517 -0.7787151 0.3939711
vn 0.4882517 -0.7787151 0.3939711
vn 0.4882517 -0.7787151 0.3939711
vn 0.4882517 -0.7787151 0.3939711
vn 0.4882517 -0.7787151 0.3939711
vn 0.4882517 -0.7787151 0.3939711
vn 0.4882517 -0.7787151 0.3939711
vn 0.4882517 -0.7787151 0.3939711
vn 0.4882517 -0.7787151 0.3939711
vn 0.4882517 -0.7787151 0.3939711
vn -0.09167316 0.6736078 -0.7333816
vn -0.09167316 0.6736078 -0.7333816
vn -0.09167316 0.6736078 -0.7333816
vn -0.09167316 0.6736078 -0.7333816
vn -0.09167316 0.6736078 -0.7333816
vn -0.09167316 0.6736078 -0.7333816
vn -0.09167316 0.6736078 -0.7333816
vn -0.09167316 0.6736078 -0.7333816
vn -0.09167316 0.6736078 -0.7333816
vn -0.09167316 0.6736078 -0.7333816
vn -0.09167316 0.6736078 -0.7333816
vn -0.09167316 0.6736078 -0.7333816
vn -0.6455242 -0.6232734 -0.4413943
vn -0.6455242 -0.6232734 -0.4413943
vn -0.6455242 -0.6232734 -0.4413943
vn -0.6455242 -0.6232734 -0.4413943
vn -0.6455242 -0.6232734 -0.4413943
vn -0.6455242 -0.6232734 -0.4413943
vn -0.6455242 -0.6232734 -0.4413943
vn -0.6455242 -0.6232734 -0.4413943
vn -0.6455242 -0.6232734 -0.4413943
vn -0.6455242 -0.6232734 -0.4413943
vn -0.6455242 -0.6232734 -0.4413943
vn -0.6455242 -0.6232734 -0.4413943
vn 0.7963194 -0.463503 -0.3886394
vn 0.7963194 -0.463503 -0.3886394
vn 0.7963194 -0.463503 -0.3886394
vn 0.8383496 0.4979047 -0.2219478
vn 0.8383496 0.4979047 -0.2219478
vn 0.8383496 0.4979047 -0.2219478
vn 0.8383496 0.4979047 -0.2219478
vn 0.8383496 0.4979047 -0.2219478
vn 0.8383496 0.4979047 -0.2219478
vn 0.8383496 0.4979047 -0.2219478
vn 0.8383496 0.4979047 -0.2219478
vn 0.8383496 0.4979047 -0.2219478
vn 0.8383496 0.4979047 -0.2219478
vn 0.8383496 0.4979047 -0.2219478
vn 0.8383496 0.4979047 -0.2219478
vn 0.8383496 0.4979047 -0.2219478
vn 0.8383496 0.4979047 -0.2219478
vn 0.8383496 0.4979047 -0.2219478
vn 0.03416917 -0.8520983 -0.5222652
vn 0.03416917 -0.8520983 -0.5222652
vn 0.03416917 -0.8520983 -0.5222652
vn 0.03416917 -0.8520983 -0.5222652
vn 0.03416917 -0.8520983 -0.5222652
vn 0.03416917 -0.8520983 -0.5222652
vn 0.03416917 -0.8520983 -0.5222652
vn 0.03416917 -0.8520983 -0.5222652
vn 0.03416917 -0.8520983 -0.5222652
vn 0.03416917 -0.8520983 -0.5222652
vn 0.03416917 -0.8520983 -0.5222652
vn 0.03416917 -0.8520983 -0.5222652
vn 0.03416917 -0.8520983 -0.5222652
vn 0.03416917 -0.8520983 -0.5222652
vn 0.03416917 -0.8520983 -0.5222652
vn 0.03416917 -0.8520983 -0.5222652
vn 0.03416917 -0.8520983 -0.5222652
vn 0.03416917 -0.8520983 -0.5222652
vn -0.9260082 0.2387652 0.2924037
vn -0.9260082 0.2387652 0.2924037
vn -0.9260082 0.2387652 0.2924037
vn -0.3819701 -0.02885652 -0.9237242
vn -0.3819701 -0.02885652 -0.9237242
vn -0.3819701 -0.02885652 -0.9237242
vn -0.3819701 -0.02885652 -0.9237242
vn -0.3819701 -0.02885652 -0.9237242
vn -0.3819701 -0.02885652 -0.9237242
vn -0.3819701 -0.02885652 -0.9237242
vn -0.3819701 -0.02885652 -0.9237242
vn -0.3819701 -0.02885652 -0.9237242
vn -0.3819701 -0.02885652 -0.9237242
vn -0.3819701 -0.02885652 -0.9237242
vn -0.3819701 -0.02885652 -0.9237242

vt 0.4691193 0.4151115
vt 0.5583135 0.4322125
vt 0.4688193 0.4439366
vt 0.4688193 0.4439366
vt 0.5583135 0.4322125
vt 0.5652233 0.4791792
vt 0.5652233 0.4791792
vt 0.5583135 0.4322125
vt 0.5591667 0.4342798
vt 0.380136 0.5797132
vt 0.3634054 0.5520085
vt 0.4580093 0.6332944
vt 0.4580093 0.6332944
vt 0.3634054 0.5520085
vt 0.4587874 0.6330694
vt 0.4587874 0.6330694
vt 0.3634054 0.5520085
vt 0.5218332 0.4954552
vt 0.5218332 0.4954552
vt 0.3634054 0.5520085
vt 0.3909413 0.419382
vt 0.3909413 0.419382
vt 0.3634054 0.5520085
vt 0.34712 0.4579155
vt 0.5124671 0.5456424
vt 0.463058 0.5579338
vt 0.5743551 0.5278289
vt 0.5743551 0.5278289
vt 0.463058 0.5579338
vt 0.5793241 0.4642628
vt 0.5793241 0.4642628
vt 0.463058 0.5579338
vt 0.4708256 0.405
vt 0.4708256 0.405
vt 0.463058 0.5579338
vt 0.3282987 0.4399567
vt 0.3282987 0.4399567
vt 0.463058 0.5579338
vt 0.3276846 0.4420896
vt 0.3276846 0.4420896
vt 0.463058 0.5579338
vt 0.3272533 0.4878047
vt 0.3272533 0.4878047
vt 0.463058 0.5579338
vt 0.338157 0.5110655
vt 0.5622231 0.5286633
vt 0.5414656 0.5276695
vt 0.5776646 0.4768026
vt 0.5776646 0.4768026
vt 0.5414656 0.5276695
vt 0.5493505 0.4647128
vt 0.4835529 0.4321046
vt 0.5052761 0.4078454
vt 0.5107045 0.4568655
vt 0.5107045 0.4568655
vt 0.5052761 0.4078454
vt 0.5350153 0.4446538
vt 0.5350153 0.4446538
vt 0.5052761 0.4078454
vt 0.5353341 0.4158287
vt 0.6397682 0.5393702
vt 0.6237923 0.571969
vt 0.5426095 0.511178
vt 0.5426095 0.511178
vt 0.6237923 0.571969
vt 0.4444101 0.5950891
vt 0.6009066 0.3398821
vt 0.6432278 0.3760952
vt 0.5836837 0.3538142
vt 0.5836837 0.3538142
vt 0.6432278 0.3760952
vt 0.5486192 0.4713741
vt 0.8438737 0.57856
vt 0.4804637 0.6895477
vt 0.7615659 0.3988262
vt 0.7615659 0.3988262
vt 0.4804637 0.6895477
vt 0.6625133 0.2909559
vt 0.6625133 0.2909559
vt 0.4804637 0.6895477
vt 0.3839378 0.3957135
vt 0.3839378 0.3957135
vt 0.4804637 0.6895477
vt 0.4428115 0.6393791
vt 0.4607563 0.4175069
vt 0.5517319 0.4450241
vt 0.4428959 0.4282513
vt 0.4428959 0.4282513
vt 0.5517319 0.4450241
vt 0.4389676 0.4404207
vt 0.4389676 0.4404207
vt 0.5517319 0.4450241
vt 0.5302806 0.4710647
vt 0.6270175 0.4241589
vt 0.5663952 0.5087122
vt 0.2261803 0.4133395
vt 0.2261803 0.4133395
vt 0.5663952 0.5087122
vt 0.3424416 0.6160527
vt 0.3424416 0.6160527
vt 0.5663952 0.5087122
vt 0.4155287 0.6118244
vt 0.4422865 0.5073903
vt 0.5004008 0.4899236
vt 0.4505416 0.5116655
vt 0.3597067 0.5049714
vt 0.4517277 0.4541465
vt 0.3712433 0.5577182
vt 0.3712433 0.5577182
vt 0.4517277 0.4541465
vt 0.3755654 0.5604464
vt 0.3755654 0.5604464
vt 0.4517277 0.4541465
vt 0.5600011 0.4591672
vt 0.5600011 0.4591672
vt 0.4517277 0.4541465
vt 0.5604417 0.4457414
vt 0.6250955 0.5780068
vt 0.5590166 0.5745472
vt 0.6032692 0.4249089
vt 0.6032692 0.4249089
vt 0.5590166 0.5745472
vt 0.5729018 0.4227807
vt 0.5729018 0.4227807
vt 0.5590166 0.5745472
vt 0.4869844 0.4606438
vt 0.4869844 0.4606438
vt 0.5590166 0.5745472
vt 0.4289498 0.4931769
vt 0.4958536 0.4549856
vt 0.4712335 0.3831596
vt 0.5258085 0.4671973
vt 0.5258085 0.4671973
vt 0.4712335 0.3831596
vt 0.6031098 0.4401348
vt 0.6031098 0.4401348
vt 0.4712335 0.3831596
vt 0.6031661 0.4117644
vt 0.6031661 0.4117644
vt 0.4712335 0.3831596
vt 0.497485 0.36799
vt 0.4729867 0.4062469
vt 0.4689599 0.4157959
vt 0.4686693 0.403528
vt 0.6569442 0.4610188
vt 0.6531377 0.4719695
vt 0.6370962 0.4141599
vt 0.6370962 0.4141599
vt 0.6531377 0.4719695
vt 0.4486806 0.4420427
vt 0.4486806 0.4420427
vt 0.6531377 0.4719695
vt 0.437355 0.4961396
vt 0.437355 0.4961396
vt 0.6531377 0.4719695
vt 0.5153829 0.5705627
vt 0.5153829 0.5705627
vt 0.6531377 0.4719695
vt 0.6386994 0.4900361
vt 0.5877433 0.4728836
vt 0.2988501 0.4672676
vt 0.6002409 0.4676802
vt 0.6002409 0.4676802
vt 0.2988501 0.4672676
vt 0.6079007 0.3881615
vt 0.6079007 0.3881615
vt 0.2988501 0.4672676
vt 0.5814992 0.3541142
vt 0.5814992 0.3541142
vt 0.2988501 0.4672676
vt 0.4797887 0.3148541
vt 0.4797887 0.3148541
vt 0.2988501 0.4672676
vt 0.2859165 0.4324984
vt 0.2859165 0.4324984
vt 0.2988501 0.4672676
vt 0.2869619 0.443646
vt 0.4178023 0.4822263
vt 0.4171975 0.4799621
vt 0.4180132 0.4799293
vt 0.464694 0.3905429
vt 0.5251428 0.4959521
vt 0.4353861 0.4995335
vt 0.4353861 0.4995335
vt 0.5251428 0.4959521
vt 0.4355408 0.5078965
vt 0.4355408 0.5078965
vt 0.5251428 0.4959521
vt 0.5055854 0.6326381
vt 0.5055854 0.6326381
vt 0.5251428 0.4959521
vt 0.5507662 0.5671968

usemtl Material0
usemap Material0

usemtl Material1
usemap Material1
f 1/1/1 2/2/2 3/3/3
f 4/4/4 5/5/5 6/6/6
f 7/7/7 8/8/8 9/9/9
f 10/10/10 11/11/11 12/12/12
f 13/13/13 14/14/14 15/15/15
f 16/16/16 17/17/17 18/18/18
f 19/19/19 20/20/20 21/21/21
f 22/22/22 23/23/23 24/24/24
f 25/25/25 26/26/26 27/27/27
f 28/28/28 29/29/29 30/30/30
f 31/31/31 32/32/32 33/33/33
f 34/34/34 35/35/35 36/36/36
f 37/37/37 38/38/38 39/39/39
f 40/40/40 41/41/41 42/42/42
f 43/43/43 44/44/44 45/45/45
f 46/46/46 47/47/47 48/48/48
f 49/49/49 50/50/50 51/51/51
f 52/52/52 53/53/53 54/54/54
f 55/55/55 56/56/56 57/57/57
f 58/58/58 59/59/59 60/60/60
f 61/61/61 62/62/62 63/63/63
f 64/64/64 65/65/65 66/66/66
f 67/67/67 68/68/68 69/69/69
f 70/70/70 71/71/71 72/72/72
f 73/73/73 74/74/74 75/75/75
f 76/76/76 77/77/77 78/78/78
f 79/79/79 80/80/80 81/81/81
f 82/82/82 83/83/83 84/84/84
f 85/85/85 86/86/86 87/87/87
f 88/88/88 89/89/89 90/90/90
f 91/91/91 92/92/92 93/93/93
f 94/94/94 95/95/95 96/96/96
f 97/97/97 98/98/98 99/99/99
f 100/100/100 101/101/101 102/102/102
f 103/103/103 104/104/104 105/105/105
f 106/106/106 107/107/107 108/108/108
f 109/109/109 110/110/110 111/111/111
f 112/112/112 113/113/113 114/114/114
f 115/115/115 116/116/116 117/117/117
f 118/118/118 119/119/119 120/120/120
f 121/121/121 122/122/122 123/123/123
f 124/124/124 125/125/125 126/126/126
f 127/127/127 128/128/128 129/129/129
f 130/130/130 131/131/131 132/132/132
f 133/133/133 134/134/134 135/135/135
f 136/136/136 137/137/137 138/138/138
f 139/139/139 140/140/140 141/141/141
f 142/142/142 143/143/143 144/144/144
f 145/145/145 146/146/146 147/147/147
f 148/148/148 149/149/149 150/150/150
f 151/151/151 152/152/152 153/153/153
f 154/154/154 155/155/155 156/156/156
f 157/157/157 158/158/158 159/159/159
f 160/160/160 161/161/161 162/162/162
f 163/163/163 164/164/164 165/165/165
f 166/166/166 167/167/167 168/168/168
f 169/169/169 170/170/170 171/171/171
f 172/172/172 173/173/173 174/174/174
f 175/175/175 176/176/176 177/177/177
f 178/178/178 179/179/179 180/180/180
f 181/181/181 182/182/182 183/183/183
f 184/184/184 185/185/185 186/186/186
f 187/187/187 188/188/188 189/189/189
f 190/190/190 191/191/191 192/192/192
