g  Instance
v 3.122447 -43.68202 -6.485438
v 1.593222 -44.24504 -6.745331
v 2.59249 -42.11902 -4.717237
v 2.59249 -42.11902 -4.717237
v 1.593222 -44.24504 -6.745331
v 2.073678 -41.88952 -4.360939
v 2.073678 -41.88952 -4.360939
v 1.593222 -44.24504 -6.745331
v 1.011202 -42.80286 -5.09342
v 1.011202 -42.80286 -5.09342
v 1.593222 -44.24504 -6.745331
v 1.205571 -43.71031 -6.095169
v 1.011202 -42.80286 -5.09342
v 1.205571 -43.71031 -6.095169
v 1.623113 -43.1661 -3.516638
v 1.623113 -43.1661 -3.516638
v 1.205571 -43.71031 -6.095169
v 1.871276 -43.58187 -3.386452
v 1.871276 -43.58187 -3.386452
v 1.205571 -43.71031 -6.095169
v 2.021691 -45.09828 -5.706186
v 2.021691 -45.09828 -5.706186
v 1.205571 -43.71031 -6.095169
v 1.429451 -44.43791 -6.646449
v 2.732256 -43.47135 -3.579967
v 3.249985 -45.19376 -4.973933
v 2.59249 -42.11902 -4.717237
v 2.59249 -42.11902 -4.717237
v 3.249985 -45.19376 -4.973933
v 3.122447 -43.68202 -6.485438
v 1.593222 -44.24504 -6.745331
v 3.122447 -43.68202 -6.485438
v 1.429451 -44.43791 -6.646449
v 1.429451 -44.43791 -6.646449
v 3.122447 -43.68202 -6.485438
v 2.021691 -45.09828 -5.706186
v 2.021691 -45.09828 -5.706186
v 3.122447 -43.68202 -6.485438
v 3.207302 -45.23002 -4.961549
v 3.207302 -45.23002 -4.961549
v 3.122447 -43.68202 -6.485438
v 3.249985 -45.19376 -4.973933
v 2.59249 -42.11902 -4.717237
v 2.073678 -41.88952 -4.360939
v 2.732256 -43.47135 -3.579967
v 2.732256 -43.47135 -3.579967
v 2.073678 -41.88952 -4.360939
v 2.559368 -43.434 -3.423846
v 2.559368 -43.434 -3.423846
v 2.073678 -41.88952 -4.360939
v 2.004612 -42.47636 -3.723502
v 1.623113 -43.1661 -3.516638
v 1.871276 -43.58187 -3.386452
v 2.004612 -42.47636 -3.723502
v 2.004612 -42.47636 -3.723502
v 1.871276 -43.58187 -3.386452
v 2.559368 -43.434 -3.423846
v 2.559368 -43.434 -3.423846
v 1.871276 -43.58187 -3.386452
v 2.228852 -43.73032 -3.336885
v 2.559368 -43.434 -3.423846
v 2.228852 -43.73032 -3.336885
v 2.732256 -43.47135 -3.579967
v 2.732256 -43.47135 -3.579967
v 2.228852 -43.73032 -3.336885
v 3.249985 -45.19376 -4.973933
v 3.249985 -45.19376 -4.973933
v 2.228852 -43.73032 -3.336885
v 3.207302 -45.23002 -4.961549
v 2.004612 -42.47636 -3.723502
v 2.073678 -41.88952 -4.360939
v 1.623113 -43.1661 -3.516638
v 1.623113 -43.1661 -3.516638
v 2.073678 -41.88952 -4.360939
v 1.011202 -42.80286 -5.09342
v 2.228852 -43.73032 -3.336885
v 1.871276 -43.58187 -3.386452
v 3.207302 -45.23002 -4.961549
v 3.207302 -45.23002 -4.961549
v 1.871276 -43.58187 -3.386452
v 2.021691 -45.09828 -5.706186
v 1.429451 -44.43791 -6.646449
v 1.205571 -43.71031 -6.095169
v 1.593222 -44.24504 -6.745331

vn -0.1489628 0.7183058 -0.6795933
vn -0.1489628 0.7183058 -0.6795933
vn -0.1489628 0.7183058 -0.6795933
vn -0.1489628 0.7183058 -0.6795933
vn -0.1489628 0.7183058 -0.6795933
vn -0.1489628 0.7183058 -0.6795933
vn -0.1489628 0.7183058 -0.6795933
vn -0.1489628 0.7183058 -0.6795933
vn -0.1489628 0.7183058 -0.6795933
vn -0.1489628 0.7183058 -0.6795933
vn -0.1489628 0.7183058 -0.6795933
vn -0.1489628 0.7183058 -0.6795933
vn -0.8653574 -0.443332 0.233695
vn -0.8653574 -0.443332 0.233695
vn -0.8653574 -0.443332 0.233695
vn -0.8653574 -0.443332 0.233695
vn -0.8653574 -0.443332 0.233695
vn -0.8653574 -0.443332 0.233695
vn -0.8653574 -0.443332 0.233695
vn -0.8653574 -0.443332 0.233695
vn -0.8653574 -0.443332 0.233695
vn -0.8653574 -0.443332 0.233695
vn -0.8653574 -0.443332 0.233695
vn -0.8653574 -0.443332 0.233695
vn 0.9731965 0.1983948 0.1163111
vn 0.9731965 0.1983948 0.1163111
vn 0.9731965 0.1983948 0.1163111
vn 0.9731965 0.1983948 0.1163111
vn 0.9731965 0.1983948 0.1163111
vn 0.9731965 0.1983948 0.1163111
vn 0.3529677 -0.646485 -0.676366
vn 0.3529677 -0.646485 -0.676366
vn 0.3529677 -0.646485 -0.676366
vn 0.3529677 -0.646485 -0.676366
vn 0.3529677 -0.646485 -0.676366
vn 0.3529677 -0.646485 -0.676366
vn 0.3529677 -0.646485 -0.676366
vn 0.3529677 -0.646485 -0.676366
vn 0.3529677 -0.646485 -0.676366
vn 0.3529677 -0.646485 -0.676366
vn 0.3529677 -0.646485 -0.676366
vn 0.3529677 -0.646485 -0.676366
vn 0.6257071 0.5389319 0.563953
vn 0.6257071 0.5389319 0.563953
vn 0.6257071 0.5389319 0.563953
vn 0.6257071 0.5389319 0.563953
vn 0.6257071 0.5389319 0.563953
vn 0.6257071 0.5389319 0.563953
vn 0.6257071 0.5389319 0.563953
vn 0.6257071 0.5389319 0.563953
vn 0.6257071 0.5389319 0.563953
vn -0.01098466 0.2928197 0.9561047
vn -0.01098466 0.2928197 0.9561047
vn -0.01098466 0.2928197 0.9561047
vn -0.01098466 0.2928197 0.9561047
vn -0.01098466 0.2928197 0.9561047
vn -0.01098466 0.2928197 0.9561047
vn -0.01098466 0.2928197 0.9561047
vn -0.01098466 0.2928197 0.9561047
vn -0.01098466 0.2928197 0.9561047
vn 0.5595158 -0.413255 0.7184444
vn 0.5595158 -0.413255 0.7184444
vn 0.5595158 -0.413255 0.7184444
vn 0.5595158 -0.413255 0.7184444
vn 0.5595158 -0.413255 0.7184444
vn 0.5595158 -0.413255 0.7184444
vn 0.5595158 -0.413255 0.7184444
vn 0.5595158 -0.413255 0.7184444
vn 0.5595158 -0.413255 0.7184444
vn -0.740477 0.5325201 0.4100198
vn -0.740477 0.5325201 0.4100198
vn -0.740477 0.5325201 0.4100198
vn -0.740477 0.5325201 0.4100198
vn -0.740477 0.5325201 0.4100198
vn -0.740477 0.5325201 0.4100198
vn -0.3917528 -0.7815541 0.4854926
vn -0.3917528 -0.7815541 0.4854926
vn -0.3917528 -0.7815541 0.4854926
vn -0.3917528 -0.7815541 0.4854926
vn -0.3917528 -0.7815541 0.4854926
vn -0.3917528 -0.7815541 0.4854926
vn -0.7114858 0.2719972 -0.6479241
vn -0.7114858 0.2719972 -0.6479241
vn -0.7114858 0.2719972 -0.6479241

vt 0.6427402 0.5869886
vt 0.4267512 0.6344664
vt 0.6157293 0.2639731
vt 0.6157293 0.2639731
vt 0.4267512 0.6344664
vt 0.5538976 0.1988834
vt 0.5538976 0.1988834
vt 0.4267512 0.6344664
vt 0.3896241 0.3326958
vt 0.3896241 0.3326958
vt 0.4267512 0.6344664
vt 0.390435 0.515697
vt 0.6347148 0.458239
vt 0.5440908 0.5624059
vt 0.5738207 0.2942701
vt 0.5738207 0.2942701
vt 0.5440908 0.5624059
vt 0.5249647 0.2807319
vt 0.5249647 0.2807319
vt 0.5440908 0.5624059
vt 0.3815705 0.5219598
vt 0.3815705 0.5219598
vt 0.5440908 0.5624059
vt 0.4682989 0.6197374
vt 0.4623361 0.3096648
vt 0.6396276 0.4485822
vt 0.3284112 0.423001
vt 0.3284112 0.423001
vt 0.6396276 0.4485822
vt 0.4904815 0.5992143
vt 0.5597574 0.6023551
vt 0.3446027 0.5552618
vt 0.5912779 0.5844384
vt 0.5912779 0.5844384
vt 0.3446027 0.5552618
vt 0.5641357 0.4140567
vt 0.5641357 0.4140567
vt 0.3446027 0.5552618
vt 0.4336704 0.2791193
vt 0.4336704 0.2791193
vt 0.3446027 0.5552618
vt 0.4263527 0.2813647
vt 0.3746279 0.5204129
vt 0.3136213 0.469049
vt 0.50747 0.3564628
vt 0.50747 0.3564628
vt 0.3136213 0.469049
vt 0.490669 0.3339568
vt 0.490669 0.3339568
vt 0.3136213 0.469049
vt 0.3611927 0.3771593
vt 0.5047979 0.5153407
vt 0.4619657 0.4909362
vt 0.5755926 0.4778198
vt 0.5755926 0.4778198
vt 0.4619657 0.4909362
vt 0.4769479 0.4232776
vt 0.4769479 0.4232776
vt 0.4619657 0.4909362
vt 0.4465852 0.4557779
vt 0.3897834 0.3021456
vt 0.4512261 0.2844727
vt 0.3795125 0.3338677
vt 0.3795125 0.3338677
vt 0.4512261 0.2844727
vt 0.5318557 0.6171029
vt 0.5318557 0.6171029
vt 0.4512261 0.2844727
vt 0.5395624 0.6145902
vt 0.6148668 0.3513531
vt 0.6705669 0.4266809
vt 0.5305057 0.3269064
vt 0.5305057 0.3269064
vt 0.6705669 0.4266809
vt 0.5237834 0.5132499
vt 0.4759822 0.262562
vt 0.519405 0.2689374
vt 0.3020518 0.4715429
vt 0.3020518 0.4715429
vt 0.519405 0.2689374
vt 0.4278763 0.5673187
vt 0.3990512 0.5730097
vt 0.4764463 0.4796011
vt 0.4298498 0.5897638

usemtl Material0
usemap Material0

usemtl Material1
usemap Material1
f 1/1/1 2/2/2 3/3/3
f 4/4/4 5/5/5 6/6/6
f 7/7/7 8/8/8 9/9/9
f 10/10/10 11/11/11 12/12/12
f 13/13/13 14/14/14 15/15/15
f 16/16/16 17/17/17 18/18/18
f 19/19/19 20/20/20 21/21/21
f 22/22/22 23/23/23 24/24/24
f 25/25/25 26/26/26 27/27/27
f 28/28/28 29/29/29 30/30/30
f 31/31/31 32/32/32 33/33/33
f 34/34/34 35/35/35 36/36/36
f 37/37/37 38/38/38 39/39/39
f 40/40/40 41/41/41 42/42/42
f 43/43/43 44/44/44 45/45/45
f 46/46/46 47/47/47 48/48/48
f 49/49/49 50/50/50 51/51/51
f 52/52/52 53/53/53 54/54/54
f 55/55/55 56/56/56 57/57/57
f 58/58/58 59/59/59 60/60/60
f 61/61/61 62/62/62 63/63/63
f 64/64/64 65/65/65 66/66/66
f 67/67/67 68/68/68 69/69/69
f 70/70/70 71/71/71 72/72/72
f 73/73/73 74/74/74 75/75/75
f 76/76/76 77/77/77 78/78/78
f 79/79/79 80/80/80 81/81/81
f 82/82/82 83/83/83 84/84/84
