g  Instance
v 2.35398 -48.26765 2.190499
v 2.486333 -47.62094 1.480801
v 2.536563 -48.04662 2.60894
v 2.257239 -48.31444 2.145198
v 1.106675 -48.63302 1.291473
v 2.35398 -48.26765 2.190499
v 2.35398 -48.26765 2.190499
v 1.106675 -48.63302 1.291473
v 2.486333 -47.62094 1.480801
v 2.486333 -47.62094 1.480801
v 1.106675 -48.63302 1.291473
v 2.471201 -47.55949 1.382653
v 2.471201 -47.55949 1.382653
v 1.106675 -48.63302 1.291473
v 1.76831 -48.00304 1.190748
v 2.536563 -48.04662 2.60894
v 2.463448 -47.95754 2.88681
v 2.35398 -48.26765 2.190499
v 2.35398 -48.26765 2.190499
v 2.463448 -47.95754 2.88681
v 2.257239 -48.31444 2.145198
v -0.37209 -48.17384 1.649766
v -0.08051559 -48.50258 1.275944
v -0.3629998 -48.24821 1.755413
v -0.3629998 -48.24821 1.755413
v -0.08051559 -48.50258 1.275944
v -0.07155006 -48.52048 1.278693
v 0.4544888 -46.40355 2.979745
v -0.37209 -48.17384 1.649766
v 0.601078 -46.75954 3.865368
v 0.601078 -46.75954 3.865368
v -0.37209 -48.17384 1.649766
v 0.3847024 -47.35915 3.649322
v 0.3847024 -47.35915 3.649322
v -0.37209 -48.17384 1.649766
v -0.3629998 -48.24821 1.755413
v 2.471201 -47.55949 1.382653
v 1.76831 -48.00304 1.190748
v 2.099996 -46.90627 2.066147
v 2.099996 -46.90627 2.066147
v 1.76831 -48.00304 1.190748
v 0.4544888 -46.40355 2.979745
v 0.4544888 -46.40355 2.979745
v 1.76831 -48.00304 1.190748
v -0.37209 -48.17384 1.649766
v -0.37209 -48.17384 1.649766
v 1.76831 -48.00304 1.190748
v -0.08051559 -48.50258 1.275944
v 0.601078 -46.75954 3.865368
v 0.3847024 -47.35915 3.649322
v 1.933135 -47.4049 3.866611
v 1.933135 -47.4049 3.866611
v 2.143444 -47.47553 3.769667
v 0.601078 -46.75954 3.865368
v 0.601078 -46.75954 3.865368
v 2.143444 -47.47553 3.769667
v 0.4544888 -46.40355 2.979745
v 0.4544888 -46.40355 2.979745
v 2.143444 -47.47553 3.769667
v 2.099996 -46.90627 2.066147
v -0.3629998 -48.24821 1.755413
v -0.07155006 -48.52048 1.278693
v 0.3847024 -47.35915 3.649322
v 0.3847024 -47.35915 3.649322
v -0.07155006 -48.52048 1.278693
v 1.933135 -47.4049 3.866611
v 1.933135 -47.4049 3.866611
v -0.07155006 -48.52048 1.278693
v 2.143444 -47.47553 3.769667
v 2.143444 -47.47553 3.769667
v -0.07155006 -48.52048 1.278693
v 2.463448 -47.95754 2.88681
v 2.463448 -47.95754 2.88681
v -0.07155006 -48.52048 1.278693
v 2.257239 -48.31444 2.145198
v 2.257239 -48.31444 2.145198
v -0.07155006 -48.52048 1.278693
v 1.106675 -48.63302 1.291473
v 2.463448 -47.95754 2.88681
v 2.536563 -48.04662 2.60894
v 2.143444 -47.47553 3.769667
v 2.143444 -47.47553 3.769667
v 2.536563 -48.04662 2.60894
v 2.099996 -46.90627 2.066147
v 2.099996 -46.90627 2.066147
v 2.536563 -48.04662 2.60894
v 2.471201 -47.55949 1.382653
v 2.471201 -47.55949 1.382653
v 2.536563 -48.04662 2.60894
v 2.486333 -47.62094 1.480801
v -0.08051559 -48.50258 1.275944
v 1.76831 -48.00304 1.190748
v -0.07155006 -48.52048 1.278693
v -0.07155006 -48.52048 1.278693
v 1.76831 -48.00304 1.190748
v 1.106675 -48.63302 1.291473

vn 0.9015307 -0.3900669 -0.1873242
vn 0.9015307 -0.3900669 -0.1873242
vn 0.9015307 -0.3900669 -0.1873242
vn 0.5555319 -0.6635592 -0.5010723
vn 0.5555319 -0.6635592 -0.5010723
vn 0.5555319 -0.6635592 -0.5010723
vn 0.5555319 -0.6635592 -0.5010723
vn 0.5555319 -0.6635592 -0.5010723
vn 0.5555319 -0.6635592 -0.5010723
vn 0.5555319 -0.6635592 -0.5010723
vn 0.5555319 -0.6635592 -0.5010723
vn 0.5555319 -0.6635592 -0.5010723
vn 0.5555319 -0.6635592 -0.5010723
vn 0.5555319 -0.6635592 -0.5010723
vn 0.5555319 -0.6635592 -0.5010723
vn 0.2658629 -0.8954643 0.3570164
vn 0.2658629 -0.8954643 0.3570164
vn 0.2658629 -0.8954643 0.3570164
vn 0.2658629 -0.8954643 0.3570164
vn 0.2658629 -0.8954643 0.3570164
vn 0.2658629 -0.8954643 0.3570164
vn -0.8486372 -0.4641396 -0.2537504
vn -0.8486372 -0.4641396 -0.2537504
vn -0.8486372 -0.4641396 -0.2537504
vn -0.8486372 -0.4641396 -0.2537504
vn -0.8486372 -0.4641396 -0.2537504
vn -0.8486372 -0.4641396 -0.2537504
vn -0.9354293 0.2461209 0.2537648
vn -0.9354293 0.2461209 0.2537648
vn -0.9354293 0.2461209 0.2537648
vn -0.9354293 0.2461209 0.2537648
vn -0.9354293 0.2461209 0.2537648
vn -0.9354293 0.2461209 0.2537648
vn -0.9354293 0.2461209 0.2537648
vn -0.9354293 0.2461209 0.2537648
vn -0.9354293 0.2461209 0.2537648
vn -0.2087969 0.6478645 -0.7325814
vn -0.2087969 0.6478645 -0.7325814
vn -0.2087969 0.6478645 -0.7325814
vn -0.2087969 0.6478645 -0.7325814
vn -0.2087969 0.6478645 -0.7325814
vn -0.2087969 0.6478645 -0.7325814
vn -0.2087969 0.6478645 -0.7325814
vn -0.2087969 0.6478645 -0.7325814
vn -0.2087969 0.6478645 -0.7325814
vn -0.2087969 0.6478645 -0.7325814
vn -0.2087969 0.6478645 -0.7325814
vn -0.2087969 0.6478645 -0.7325814
vn -0.1413899 -0.2900195 0.9465187
vn -0.1413899 -0.2900195 0.9465187
vn -0.1413899 -0.2900195 0.9465187
vn 0.4185832 0.864513 0.2782179
vn 0.4185832 0.864513 0.2782179
vn 0.4185832 0.864513 0.2782179
vn 0.4185832 0.864513 0.2782179
vn 0.4185832 0.864513 0.2782179
vn 0.4185832 0.864513 0.2782179
vn 0.4185832 0.864513 0.2782179
vn 0.4185832 0.864513 0.2782179
vn 0.4185832 0.864513 0.2782179
vn -0.08966947 -0.8874838 0.452031
vn -0.08966947 -0.8874838 0.452031
vn -0.08966947 -0.8874838 0.452031
vn -0.08966947 -0.8874838 0.452031
vn -0.08966947 -0.8874838 0.452031
vn -0.08966947 -0.8874838 0.452031
vn -0.08966947 -0.8874838 0.452031
vn -0.08966947 -0.8874838 0.452031
vn -0.08966947 -0.8874838 0.452031
vn -0.08966947 -0.8874838 0.452031
vn -0.08966947 -0.8874838 0.452031
vn -0.08966947 -0.8874838 0.452031
vn -0.08966947 -0.8874838 0.452031
vn -0.08966947 -0.8874838 0.452031
vn -0.08966947 -0.8874838 0.452031
vn -0.08966947 -0.8874838 0.452031
vn -0.08966947 -0.8874838 0.452031
vn -0.08966947 -0.8874838 0.452031
vn 0.9094129 0.4008699 0.1107775
vn 0.9094129 0.4008699 0.1107775
vn 0.9094129 0.4008699 0.1107775
vn 0.9094129 0.4008699 0.1107775
vn 0.9094129 0.4008699 0.1107775
vn 0.9094129 0.4008699 0.1107775
vn 0.9094129 0.4008699 0.1107775
vn 0.9094129 0.4008699 0.1107775
vn 0.9094129 0.4008699 0.1107775
vn 0.9094129 0.4008699 0.1107775
vn 0.9094129 0.4008699 0.1107775
vn 0.9094129 0.4008699 0.1107775
vn -0.003972682 -0.1538049 -0.9880933
vn -0.003972682 -0.1538049 -0.9880933
vn -0.003972682 -0.1538049 -0.9880933
vn -0.003972682 -0.1538049 -0.9880933
vn -0.003972682 -0.1538049 -0.9880933
vn -0.003972682 -0.1538049 -0.9880933

vt 0.4906033 0.4497822
vt 0.4259402 0.5220911
vt 0.4630439 0.4071516
vt 0.4133161 0.3993887
vt 0.5367685 0.5114499
vt 0.4014795 0.3934399
vt 0.4014795 0.3934399
vt 0.5367685 0.5114499
vt 0.3427885 0.4865953
vt 0.3427885 0.4865953
vt 0.5367685 0.5114499
vt 0.339629 0.4994867
vt 0.339629 0.4994867
vt 0.5367685 0.5114499
vt 0.4331969 0.5246788
vt 0.3242344 0.4777963
vt 0.3289409 0.4464867
vt 0.3492764 0.5249413
vt 0.3492764 0.5249413
vt 0.3289409 0.4464867
vt 0.360438 0.5300416
vt 0.4905846 0.5027681
vt 0.4470539 0.5420423
vt 0.4835107 0.4916675
vt 0.4835107 0.4916675
vt 0.4470539 0.5420423
vt 0.4450195 0.541761
vt 0.5965282 0.4200336
vt 0.4011466 0.5597808
vt 0.5653264 0.326972
vt 0.5653264 0.326972
vt 0.4011466 0.5597808
vt 0.5007945 0.3496749
vt 0.5007945 0.3496749
vt 0.4011466 0.5597808
vt 0.3940728 0.5486801
vt 0.726492 0.6170466
vt 0.6102165 0.6577646
vt 0.7044032 0.472021
vt 0.7044032 0.472021
vt 0.6102165 0.6577646
vt 0.5004758 0.2781723
vt 0.5004758 0.2781723
vt 0.6102165 0.6577646
vt 0.3084225 0.5603715
vt 0.3084225 0.5603715
vt 0.6102165 0.6577646
vt 0.333938 0.6396885
vt 0.6145293 0.4761463
vt 0.5513099 0.4978553
vt 0.5532976 0.3425213
vt 0.5914466 0.3365819
vt 0.6139667 0.3469138
vt 0.4399567 0.3367179
vt 0.4399567 0.3367179
vt 0.6139667 0.3469138
vt 0.410569 0.4310874
vt 0.410569 0.4310874
vt 0.6139667 0.3469138
vt 0.5845744 0.5284383
vt 0.6046193 0.5646936
vt 0.5696485 0.6236001
vt 0.5324839 0.3306894
vt 0.5324839 0.3306894
vt 0.5696485 0.6236001
vt 0.3621819 0.3038425
vt 0.3621819 0.3038425
vt 0.5696485 0.6236001
vt 0.3383399 0.3158198
vt 0.3383399 0.3158198
vt 0.5696485 0.6236001
vt 0.2979078 0.4248995
vt 0.2979078 0.4248995
vt 0.5696485 0.6236001
vt 0.3165698 0.5165314
vt 0.3165698 0.5165314
vt 0.5696485 0.6236001
vt 0.4392019 0.6220156
vt 0.593528 0.4295404
vt 0.6045068 0.4571936
vt 0.5371342 0.3416635
vt 0.5371342 0.3416635
vt 0.6045068 0.4571936
vt 0.483867 0.5112154
vt 0.483867 0.5112154
vt 0.6045068 0.4571936
vt 0.5577978 0.5792444
vt 0.5577978 0.5792444
vt 0.6045068 0.4571936
vt 0.5639669 0.5694751
vt 0.5665827 0.5615715
vt 0.5167705 0.3798032
vt 0.5683641 0.5606902
vt 0.5683641 0.5606902
vt 0.5167705 0.3798032
vt 0.5794929 0.4448554

usemtl Material0
usemap Material0

usemtl Material1
usemap Material1
f 1/1/1 2/2/2 3/3/3
f 4/4/4 5/5/5 6/6/6
f 7/7/7 8/8/8 9/9/9
f 10/10/10 11/11/11 12/12/12
f 13/13/13 14/14/14 15/15/15
f 16/16/16 17/17/17 18/18/18
f 19/19/19 20/20/20 21/21/21
f 22/22/22 23/23/23 24/24/24
f 25/25/25 26/26/26 27/27/27
f 28/28/28 29/29/29 30/30/30
f 31/31/31 32/32/32 33/33/33
f 34/34/34 35/35/35 36/36/36
f 37/37/37 38/38/38 39/39/39
f 40/40/40 41/41/41 42/42/42
f 43/43/43 44/44/44 45/45/45
f 46/46/46 47/47/47 48/48/48
f 49/49/49 50/50/50 51/51/51
f 52/52/52 53/53/53 54/54/54
f 55/55/55 56/56/56 57/57/57
f 58/58/58 59/59/59 60/60/60
f 61/61/61 62/62/62 63/63/63
f 64/64/64 65/65/65 66/66/66
f 67/67/67 68/68/68 69/69/69
f 70/70/70 71/71/71 72/72/72
f 73/73/73 74/74/74 75/75/75
f 76/76/76 77/77/77 78/78/78
f 79/79/79 80/80/80 81/81/81
f 82/82/82 83/83/83 84/84/84
f 85/85/85 86/86/86 87/87/87
f 88/88/88 89/89/89 90/90/90
f 91/91/91 92/92/92 93/93/93
f 94/94/94 95/95/95 96/96/96
