g  Instance
v 1.137007 -50.29599 -0.4107441
v 2.592189 -50.94297 1.072999
v 1.244142 -50.2728 -0.5296797
v 1.244142 -50.2728 -0.5296797
v 2.592189 -50.94297 1.072999
v 2.008804 -50.25936 -0.8886726
v 2.008804 -50.25936 -0.8886726
v 2.592189 -50.94297 1.072999
v 3.197974 -50.52117 -0.5360811
v 3.197974 -50.52117 -0.5360811
v 2.592189 -50.94297 1.072999
v 3.087458 -50.92382 0.8068348
v 2.452634 -51.94351 -1.545974
v 3.274991 -51.86832 -1.174704
v 2.254246 -52.72221 -1.012965
v 2.254246 -52.72221 -1.012965
v 3.274991 -51.86832 -1.174704
v 3.460196 -52.49709 -0.5625299
v 3.463284 -50.75672 -0.5455011
v 3.754107 -51.37887 0.4172072
v 3.274991 -51.86832 -1.174704
v 3.274991 -51.86832 -1.174704
v 3.754107 -51.37887 0.4172072
v 3.460196 -52.49709 -0.5625299
v 3.460196 -52.49709 -0.5625299
v 3.754107 -51.37887 0.4172072
v 3.734663 -52.40048 0.3486999
v 3.734663 -52.40048 0.3486999
v 3.754107 -51.37887 0.4172072
v 3.741156 -52.19386 0.3710547
v 0.563969 -51.57537 -0.8920935
v 0.4916732 -51.73735 -0.9318317
v 0.9021593 -50.75077 -0.5407358
v 0.9021593 -50.75077 -0.5407358
v 0.4916732 -51.73735 -0.9318317
v 0.3695241 -51.93306 -0.8060254
v 0.5746423 -52.96689 -0.4123464
v 0.3339277 -52.27968 -0.7713673
v 2.254246 -52.72221 -1.012965
v 2.254246 -52.72221 -1.012965
v 0.3339277 -52.27968 -0.7713673
v 2.452634 -51.94351 -1.545974
v 2.452634 -51.94351 -1.545974
v 0.3339277 -52.27968 -0.7713673
v 1.664596 -51.46666 -1.628776
v 1.664596 -51.46666 -1.628776
v 0.3339277 -52.27968 -0.7713673
v 1.255184 -51.53102 -1.47946
v 1.255184 -51.53102 -1.47946
v 0.3339277 -52.27968 -0.7713673
v 0.7263837 -51.79272 -1.176564
v 3.734663 -52.40048 0.3486999
v 3.727473 -52.40076 0.3649512
v 3.460196 -52.49709 -0.5625299
v 3.460196 -52.49709 -0.5625299
v 3.727473 -52.40076 0.3649512
v 2.254246 -52.72221 -1.012965
v 2.254246 -52.72221 -1.012965
v 3.727473 -52.40076 0.3649512
v 0.5746423 -52.96689 -0.4123464
v 0.5746423 -52.96689 -0.4123464
v 3.727473 -52.40076 0.3649512
v 2.299425 -52.59488 1.123348
v 3.734663 -52.40048 0.3486999
v 3.741156 -52.19386 0.3710547
v 3.727473 -52.40076 0.3649512
v 1.664596 -51.46666 -1.628776
v 2.008804 -50.25936 -0.8886726
v 2.452634 -51.94351 -1.545974
v 2.452634 -51.94351 -1.545974
v 2.008804 -50.25936 -0.8886726
v 3.274991 -51.86832 -1.174704
v 3.274991 -51.86832 -1.174704
v 2.008804 -50.25936 -0.8886726
v 3.463284 -50.75672 -0.5455011
v 3.463284 -50.75672 -0.5455011
v 2.008804 -50.25936 -0.8886726
v 3.197974 -50.52117 -0.5360811
v 3.087458 -50.92382 0.8068348
v 3.754107 -51.37887 0.4172072
v 3.197974 -50.52117 -0.5360811
v 3.197974 -50.52117 -0.5360811
v 3.754107 -51.37887 0.4172072
v 3.463284 -50.75672 -0.5455011
v 1.255184 -51.53102 -1.47946
v 1.085247 -50.88636 -0.9135263
v 1.664596 -51.46666 -1.628776
v 1.664596 -51.46666 -1.628776
v 1.085247 -50.88636 -0.9135263
v 2.008804 -50.25936 -0.8886726
v 2.008804 -50.25936 -0.8886726
v 1.085247 -50.88636 -0.9135263
v 1.244142 -50.2728 -0.5296797
v 0.3695241 -51.93306 -0.8060254
v 0.3339277 -52.27968 -0.7713673
v 0.9021593 -50.75077 -0.5407358
v 0.9021593 -50.75077 -0.5407358
v 0.3339277 -52.27968 -0.7713673
v 1.137007 -50.29599 -0.4107441
v 1.137007 -50.29599 -0.4107441
v 0.3339277 -52.27968 -0.7713673
v 2.592189 -50.94297 1.072999
v 2.592189 -50.94297 1.072999
v 0.3339277 -52.27968 -0.7713673
v 2.299425 -52.59488 1.123348
v 2.299425 -52.59488 1.123348
v 0.3339277 -52.27968 -0.7713673
v 0.5746423 -52.96689 -0.4123464
v 1.244142 -50.2728 -0.5296797
v 1.085247 -50.88636 -0.9135263
v 1.137007 -50.29599 -0.4107441
v 1.137007 -50.29599 -0.4107441
v 1.085247 -50.88636 -0.9135263
v 0.9021593 -50.75077 -0.5407358
v 0.9021593 -50.75077 -0.5407358
v 1.085247 -50.88636 -0.9135263
v 0.563969 -51.57537 -0.8920935
v 3.741156 -52.19386 0.3710547
v 3.754107 -51.37887 0.4172072
v 3.727473 -52.40076 0.3649512
v 3.727473 -52.40076 0.3649512
v 3.754107 -51.37887 0.4172072
v 2.299425 -52.59488 1.123348
v 2.299425 -52.59488 1.123348
v 3.754107 -51.37887 0.4172072
v 2.592189 -50.94297 1.072999
v 2.592189 -50.94297 1.072999
v 3.754107 -51.37887 0.4172072
v 3.087458 -50.92382 0.8068348
v 1.255184 -51.53102 -1.47946
v 0.7263837 -51.79272 -1.176564
v 1.085247 -50.88636 -0.9135263
v 1.085247 -50.88636 -0.9135263
v 0.7263837 -51.79272 -1.176564
v 0.563969 -51.57537 -0.8920935
v 0.563969 -51.57537 -0.8920935
v 0.7263837 -51.79272 -1.176564
v 0.4916732 -51.73735 -0.9318317
v 0.4916732 -51.73735 -0.9318317
v 0.7263837 -51.79272 -1.176564
v 0.3695241 -51.93306 -0.8060254
v 0.3695241 -51.93306 -0.8060254
v 0.7263837 -51.79272 -1.176564
v 0.3339277 -52.27968 -0.7713673

vn 0.1214678 0.9479836 0.2942328
vn 0.1214678 0.9479836 0.2942328
vn 0.1214678 0.9479836 0.2942328
vn 0.1214678 0.9479836 0.2942328
vn 0.1214678 0.9479836 0.2942328
vn 0.1214678 0.9479836 0.2942328
vn 0.1214678 0.9479836 0.2942328
vn 0.1214678 0.9479836 0.2942328
vn 0.1214678 0.9479836 0.2942328
vn 0.1214678 0.9479836 0.2942328
vn 0.1214678 0.9479836 0.2942328
vn 0.1214678 0.9479836 0.2942328
vn 0.3771871 -0.5866306 -0.716655
vn 0.3771871 -0.5866306 -0.716655
vn 0.3771871 -0.5866306 -0.716655
vn 0.3771871 -0.5866306 -0.716655
vn 0.3771871 -0.5866306 -0.716655
vn 0.3771871 -0.5866306 -0.716655
vn 0.9574746 0.001123323 -0.2885155
vn 0.9574746 0.001123323 -0.2885155
vn 0.9574746 0.001123323 -0.2885155
vn 0.9574746 0.001123323 -0.2885155
vn 0.9574746 0.001123323 -0.2885155
vn 0.9574746 0.001123323 -0.2885155
vn 0.9574746 0.001123323 -0.2885155
vn 0.9574746 0.001123323 -0.2885155
vn 0.9574746 0.001123323 -0.2885155
vn 0.9574746 0.001123323 -0.2885155
vn 0.9574746 0.001123323 -0.2885155
vn 0.9574746 0.001123323 -0.2885155
vn -0.8819737 0.4369646 -0.1765908
vn -0.8819737 0.4369646 -0.1765908
vn -0.8819737 0.4369646 -0.1765908
vn -0.8819737 0.4369646 -0.1765908
vn -0.8819737 0.4369646 -0.1765908
vn -0.8819737 0.4369646 -0.1765908
vn -0.2222923 -0.511506 -0.8300288
vn -0.2222923 -0.511506 -0.8300288
vn -0.2222923 -0.511506 -0.8300288
vn -0.2222923 -0.511506 -0.8300288
vn -0.2222923 -0.511506 -0.8300288
vn -0.2222923 -0.511506 -0.8300288
vn -0.2222923 -0.511506 -0.8300288
vn -0.2222923 -0.511506 -0.8300288
vn -0.2222923 -0.511506 -0.8300288
vn -0.2222923 -0.511506 -0.8300288
vn -0.2222923 -0.511506 -0.8300288
vn -0.2222923 -0.511506 -0.8300288
vn -0.2222923 -0.511506 -0.8300288
vn -0.2222923 -0.511506 -0.8300288
vn -0.2222923 -0.511506 -0.8300288
vn 0.1632519 -0.9850353 0.05526777
vn 0.1632519 -0.9850353 0.05526777
vn 0.1632519 -0.9850353 0.05526777
vn 0.1632519 -0.9850353 0.05526777
vn 0.1632519 -0.9850353 0.05526777
vn 0.1632519 -0.9850353 0.05526777
vn 0.1632519 -0.9850353 0.05526777
vn 0.1632519 -0.9850353 0.05526777
vn 0.1632519 -0.9850353 0.05526777
vn 0.1632519 -0.9850353 0.05526777
vn 0.1632519 -0.9850353 0.05526777
vn 0.1632519 -0.9850353 0.05526777
vn 0.91257 -0.07223725 0.4024897
vn 0.91257 -0.07223725 0.4024897
vn 0.91257 -0.07223725 0.4024897
vn 0.3416507 0.4184619 -0.8415251
vn 0.3416507 0.4184619 -0.8415251
vn 0.3416507 0.4184619 -0.8415251
vn 0.3416507 0.4184619 -0.8415251
vn 0.3416507 0.4184619 -0.8415251
vn 0.3416507 0.4184619 -0.8415251
vn 0.3416507 0.4184619 -0.8415251
vn 0.3416507 0.4184619 -0.8415251
vn 0.3416507 0.4184619 -0.8415251
vn 0.3416507 0.4184619 -0.8415251
vn 0.3416507 0.4184619 -0.8415251
vn 0.3416507 0.4184619 -0.8415251
vn 0.6450243 0.7157419 0.2676886
vn 0.6450243 0.7157419 0.2676886
vn 0.6450243 0.7157419 0.2676886
vn 0.6450243 0.7157419 0.2676886
vn 0.6450243 0.7157419 0.2676886
vn 0.6450243 0.7157419 0.2676886
vn -0.3601438 0.5600375 -0.7460928
vn -0.3601438 0.5600375 -0.7460928
vn -0.3601438 0.5600375 -0.7460928
vn -0.3601438 0.5600375 -0.7460928
vn -0.3601438 0.5600375 -0.7460928
vn -0.3601438 0.5600375 -0.7460928
vn -0.3601438 0.5600375 -0.7460928
vn -0.3601438 0.5600375 -0.7460928
vn -0.3601438 0.5600375 -0.7460928
vn -0.6751464 0.1417138 0.7239437
vn -0.6751464 0.1417138 0.7239437
vn -0.6751464 0.1417138 0.7239437
vn -0.6751464 0.1417138 0.7239437
vn -0.6751464 0.1417138 0.7239437
vn -0.6751464 0.1417138 0.7239437
vn -0.6751464 0.1417138 0.7239437
vn -0.6751464 0.1417138 0.7239437
vn -0.6751464 0.1417138 0.7239437
vn -0.6751464 0.1417138 0.7239437
vn -0.6751464 0.1417138 0.7239437
vn -0.6751464 0.1417138 0.7239437
vn -0.6751464 0.1417138 0.7239437
vn -0.6751464 0.1417138 0.7239437
vn -0.6751464 0.1417138 0.7239437
vn -0.6882443 0.5044389 -0.521403
vn -0.6882443 0.5044389 -0.521403
vn -0.6882443 0.5044389 -0.521403
vn -0.6882443 0.5044389 -0.521403
vn -0.6882443 0.5044389 -0.521403
vn -0.6882443 0.5044389 -0.521403
vn -0.6882443 0.5044389 -0.521403
vn -0.6882443 0.5044389 -0.521403
vn -0.6882443 0.5044389 -0.521403
vn 0.4743241 -0.05728661 0.8784844
vn 0.4743241 -0.05728661 0.8784844
vn 0.4743241 -0.05728661 0.8784844
vn 0.4743241 -0.05728661 0.8784844
vn 0.4743241 -0.05728661 0.8784844
vn 0.4743241 -0.05728661 0.8784844
vn 0.4743241 -0.05728661 0.8784844
vn 0.4743241 -0.05728661 0.8784844
vn 0.4743241 -0.05728661 0.8784844
vn 0.4743241 -0.05728661 0.8784844
vn 0.4743241 -0.05728661 0.8784844
vn 0.4743241 -0.05728661 0.8784844
vn -0.5997292 0.4327726 -0.6730772
vn -0.5997292 0.4327726 -0.6730772
vn -0.5997292 0.4327726 -0.6730772
vn -0.5997292 0.4327726 -0.6730772
vn -0.5997292 0.4327726 -0.6730772
vn -0.5997292 0.4327726 -0.6730772
vn -0.5997292 0.4327726 -0.6730772
vn -0.5997292 0.4327726 -0.6730772
vn -0.5997292 0.4327726 -0.6730772
vn -0.721194 0.004805441 -0.6927165
vn -0.721194 0.004805441 -0.6927165
vn -0.721194 0.004805441 -0.6927165
vn -0.721194 0.004805441 -0.6927165
vn -0.721194 0.004805441 -0.6927165
vn -0.721194 0.004805441 -0.6927165

vt 0.3860848 0.5717533
vt 0.543022 0.4120598
vt 0.3967167 0.584551
vt 0.3967167 0.584551
vt 0.543022 0.4120598
vt 0.4745571 0.6231875
vt 0.4745571 0.6231875
vt 0.543022 0.4120598
vt 0.5993127 0.5852354
vt 0.5993127 0.5852354
vt 0.543022 0.4120598
vt 0.593303 0.440702
vt 0.4254949 0.6112338
vt 0.3222561 0.5361919
vt 0.5083793 0.5034994
vt 0.5083793 0.5034994
vt 0.3222561 0.5361919
vt 0.348231 0.4124629
vt 0.3637382 0.49208
vt 0.427656 0.3888412
vt 0.4778479 0.5595464
vt 0.4778479 0.5595464
vt 0.427656 0.3888412
vt 0.5424314 0.4938988
vt 0.5424314 0.4938988
vt 0.427656 0.3888412
vt 0.5325495 0.3961823
vt 0.5325495 0.3961823
vt 0.427656 0.3888412
vt 0.5113327 0.3937868
vt 0.4658191 0.5464488
vt 0.4481181 0.5504802
vt 0.5546196 0.5107936
vt 0.5546196 0.5107936
vt 0.4481181 0.5504802
vt 0.4251855 0.5377201
vt 0.6413808 0.3132603
vt 0.7285733 0.4267372
vt 0.3870458 0.5030869
vt 0.3870458 0.5030869
vt 0.7285733 0.4267372
vt 0.409683 0.6715466
vt 0.409683 0.6715466
vt 0.7285733 0.4267372
vt 0.5705767 0.6977137
vt 0.5705767 0.6977137
vt 0.7285733 0.4267372
vt 0.6322396 0.6505266
vt 0.6322396 0.6505266
vt 0.7285733 0.4267372
vt 0.6993404 0.554793
vt 0.3219889 0.453223
vt 0.3226921 0.4516198
vt 0.3502046 0.543083
vt 0.3502046 0.543083
vt 0.3226921 0.4516198
vt 0.4709663 0.5874949
vt 0.4709663 0.5874949
vt 0.3226921 0.4516198
vt 0.6380525 0.5282696
vt 0.6380525 0.5282696
vt 0.3226921 0.4516198
vt 0.46453 0.3768358
vt 0.5189175 0.5282415
vt 0.4967443 0.5256163
vt 0.5190113 0.5263382
vt 0.3915039 0.6085242
vt 0.3010721 0.3592051
vt 0.5574697 0.580632
vt 0.5574697 0.580632
vt 0.3010721 0.3592051
vt 0.6647447 0.4555623
vt 0.6647447 0.4555623
vt 0.3010721 0.3592051
vt 0.5633482 0.2436
vt 0.5633482 0.2436
vt 0.3010721 0.3592051
vt 0.4988351 0.2404264
vt 0.5044135 0.4469649
vt 0.5860182 0.4882267
vt 0.4852827 0.5891731
vt 0.4852827 0.5891731
vt 0.5860182 0.4882267
vt 0.521477 0.5901763
vt 0.4415505 0.5462143
vt 0.4719273 0.4207274
vt 0.4975319 0.5793194
vt 0.4975319 0.5793194
vt 0.4719273 0.4207274
vt 0.6367024 0.4152099
vt 0.6367024 0.4152099
vt 0.4719273 0.4207274
vt 0.5406594 0.3356116
vt 0.4515073 0.7223995
vt 0.4021217 0.7152366
vt 0.6319959 0.6675901
vt 0.6319959 0.6675901
vt 0.4021217 0.7152366
vt 0.7023031 0.6407385
vt 0.7023031 0.6407385
vt 0.4021217 0.7152366
vt 0.6546659 0.3342381
vt 0.6546659 0.3342381
vt 0.4021217 0.7152366
vt 0.4157068 0.3238359
vt 0.4157068 0.3238359
vt 0.4021217 0.7152366
vt 0.3133259 0.6410761
vt 0.6019379 0.4412833
vt 0.5341058 0.4931113
vt 0.5924873 0.425223
vt 0.5924873 0.425223
vt 0.5341058 0.4931113
vt 0.5342371 0.4427787
vt 0.5342371 0.4427787
vt 0.5341058 0.4931113
vt 0.4345845 0.4902143
vt 0.4876313 0.7753526
vt 0.3208217 0.7554765
vt 0.5302337 0.7779871
vt 0.5302337 0.7779871
vt 0.3208217 0.7554765
vt 0.6051256 0.4513573
vt 0.6051256 0.4513573
vt 0.3208217 0.7554765
vt 0.2604385 0.4730336
vt 0.2604385 0.4730336
vt 0.3208217 0.7554765
vt 0.2443079 0.5876637
vt 0.4859578 0.5557399
vt 0.4166116 0.5013055
vt 0.5422344 0.4540247
vt 0.5422344 0.4540247
vt 0.4166116 0.5013055
vt 0.4274075 0.4501713
vt 0.4274075 0.4501713
vt 0.4166116 0.5013055
vt 0.4043202 0.4573155
vt 0.5226114 0.4386019
vt 0.5152798 0.4848608
vt 0.4958255 0.4148255
vt 0.4958255 0.4148255
vt 0.5152798 0.4848608
vt 0.4485447 0.4082767

usemtl Material0
usemap Material0

usemtl Material1
usemap Material1
f 1/1/1 2/2/2 3/3/3
f 4/4/4 5/5/5 6/6/6
f 7/7/7 8/8/8 9/9/9
f 10/10/10 11/11/11 12/12/12
f 13/13/13 14/14/14 15/15/15
f 16/16/16 17/17/17 18/18/18
f 19/19/19 20/20/20 21/21/21
f 22/22/22 23/23/23 24/24/24
f 25/25/25 26/26/26 27/27/27
f 28/28/28 29/29/29 30/30/30
f 31/31/31 32/32/32 33/33/33
f 34/34/34 35/35/35 36/36/36
f 37/37/37 38/38/38 39/39/39
f 40/40/40 41/41/41 42/42/42
f 43/43/43 44/44/44 45/45/45
f 46/46/46 47/47/47 48/48/48
f 49/49/49 50/50/50 51/51/51
f 52/52/52 53/53/53 54/54/54
f 55/55/55 56/56/56 57/57/57
f 58/58/58 59/59/59 60/60/60
f 61/61/61 62/62/62 63/63/63
f 64/64/64 65/65/65 66/66/66
f 67/67/67 68/68/68 69/69/69
f 70/70/70 71/71/71 72/72/72
f 73/73/73 74/74/74 75/75/75
f 76/76/76 77/77/77 78/78/78
f 79/79/79 80/80/80 81/81/81
f 82/82/82 83/83/83 84/84/84
f 85/85/85 86/86/86 87/87/87
f 88/88/88 89/89/89 90/90/90
f 91/91/91 92/92/92 93/93/93
f 94/94/94 95/95/95 96/96/96
f 97/97/97 98/98/98 99/99/99
f 100/100/100 101/101/101 102/102/102
f 103/103/103 104/104/104 105/105/105
f 106/106/106 107/107/107 108/108/108
f 109/109/109 110/110/110 111/111/111
f 112/112/112 113/113/113 114/114/114
f 115/115/115 116/116/116 117/117/117
f 118/118/118 119/119/119 120/120/120
f 121/121/121 122/122/122 123/123/123
f 124/124/124 125/125/125 126/126/126
f 127/127/127 128/128/128 129/129/129
f 130/130/130 131/131/131 132/132/132
f 133/133/133 134/134/134 135/135/135
f 136/136/136 137/137/137 138/138/138
f 139/139/139 140/140/140 141/141/141
f 142/142/142 143/143/143 144/144/144
