g  Instance
v 6.121043 -57.85276 0.5441267
v 5.617751 -58.21228 0.6292431
v 5.877855 -58.09017 0
v 5.877855 -58.09017 0
v 5.617751 -58.21228 0.6292431
v 5.591353 -58.23156 0.6298106
v 5.877855 -58.09017 0
v 5.533621 -58.30206 -1.764196E-06
v 5.645758 -58.21197 -0.4196566
v 5.533621 -58.30206 -1.764196E-06
v 5.877855 -58.09017 0
v 5.316265 -58.4001 0.6440625
v 5.316265 -58.4001 0.6440625
v 5.877855 -58.09017 0
v 5.591353 -58.23156 0.6298106
v 6.719089 -57.35107 0.4187497
v 6.121043 -57.85276 0.5441267
v 6.815649 -57.29243 0
v 6.815649 -57.29243 0
v 6.121043 -57.85276 0.5441267
v 5.877855 -58.09017 0
v 6.360873 -57.59464 -1.364105
v 6.540609 -57.41634 -1.369869
v 6.874665 -57.22135 -0.3365229
v 6.874665 -57.22135 -0.3365229
v 6.540609 -57.41634 -1.369869
v 6.910738 -57.15072 -0.6043505
v 6.874665 -57.22135 -0.3365229
v 6.815649 -57.29243 0
v 6.360873 -57.59464 -1.364105
v 6.360873 -57.59464 -1.364105
v 6.815649 -57.29243 0
v 5.877855 -58.09017 0
v 5.645758 -58.21197 -0.4196566
v 5.769972 -58.05962 -1.000714
v 5.877855 -58.09017 0
v 5.877855 -58.09017 0
v 5.769972 -58.05962 -1.000714
v 6.360873 -57.59464 -1.364105
v 6.360873 -57.59464 -1.364105
v 5.769972 -58.05962 -1.000714
v 6.341099 -57.609 -1.363033
v 6.360873 -57.59464 -1.364105
v 6.364447 -57.5873 -1.378513
v 6.540609 -57.41634 -1.369869
v 6.540609 -57.41634 -1.369869
v 6.364447 -57.5873 -1.378513
v 6.487576 -57.44294 -1.466258
v 6.360873 -57.59464 -1.364105
v 6.355587 -57.59653 -1.372435
v 6.364447 -57.5873 -1.378513
v 6.355587 -57.59653 -1.372435
v 6.360873 -57.59464 -1.364105
v 6.341099 -57.609 -1.363033
v 5.276693 -58.37195 0.6596009
v 5.316265 -58.4001 0.6440625
v 5.617751 -58.21228 0.6292431
v 5.617751 -58.21228 0.6292431
v 5.316265 -58.4001 0.6440625
v 5.591353 -58.23156 0.6298106
v 5.755545 -55.87105 -0.1238529
v 5.974992 -56.01512 -0.4415178
v 4.362238 -55.52969 -0.3231602
v 4.362238 -55.52969 -0.3231602
v 5.974992 -56.01512 -0.4415178
v 4.322108 -55.53154 -0.3740957
v 4.322108 -55.53154 -0.3740957
v 5.974992 -56.01512 -0.4415178
v 4.43697 -55.68798 -0.8535759
v 4.43697 -55.68798 -0.8535759
v 5.974992 -56.01512 -0.4415178
v 5.372497 -56.04742 -1.223116
v 5.276693 -58.37195 0.6596009
v 5.617751 -58.21228 0.6292431
v 4.358397 -57.38402 0.2799857
v 4.358397 -57.38402 0.2799857
v 5.617751 -58.21228 0.6292431
v 4.362238 -55.52969 -0.3231602
v 4.362238 -55.52969 -0.3231602
v 5.617751 -58.21228 0.6292431
v 5.755545 -55.87105 -0.1238529
v 5.755545 -55.87105 -0.1238529
v 5.617751 -58.21228 0.6292431
v 6.719089 -57.35107 0.4187497
v 6.719089 -57.35107 0.4187497
v 5.617751 -58.21228 0.6292431
v 6.121043 -57.85276 0.5441267
v 5.974992 -56.01512 -0.4415178
v 6.910738 -57.15072 -0.6043505
v 5.372497 -56.04742 -1.223116
v 5.372497 -56.04742 -1.223116
v 6.910738 -57.15072 -0.6043505
v 6.487576 -57.44294 -1.466258
v 6.487576 -57.44294 -1.466258
v 6.910738 -57.15072 -0.6043505
v 6.540609 -57.41634 -1.369869
v 3.977852 -56.72735 -0.4241524
v 4.358397 -57.38402 0.2799857
v 4.043359 -55.7978 -0.6448308
v 4.043359 -55.7978 -0.6448308
v 4.358397 -57.38402 0.2799857
v 4.322108 -55.53154 -0.3740957
v 4.322108 -55.53154 -0.3740957
v 4.358397 -57.38402 0.2799857
v 4.362238 -55.52969 -0.3231602
v 5.755545 -55.87105 -0.1238529
v 6.719089 -57.35107 0.4187497
v 5.974992 -56.01512 -0.4415178
v 5.974992 -56.01512 -0.4415178
v 6.719089 -57.35107 0.4187497
v 6.910738 -57.15072 -0.6043505
v 6.910738 -57.15072 -0.6043505
v 6.719089 -57.35107 0.4187497
v 6.874665 -57.22135 -0.3365229
v 6.874665 -57.22135 -0.3365229
v 6.719089 -57.35107 0.4187497
v 6.815649 -57.29243 0
v 5.769972 -58.05962 -1.000714
v 5.645758 -58.21197 -0.4196566
v 3.977852 -56.72735 -0.4241524
v 3.977852 -56.72735 -0.4241524
v 5.645758 -58.21197 -0.4196566
v 4.358397 -57.38402 0.2799857
v 4.358397 -57.38402 0.2799857
v 5.645758 -58.21197 -0.4196566
v 5.276693 -58.37195 0.6596009
v 5.276693 -58.37195 0.6596009
v 5.645758 -58.21197 -0.4196566
v 5.316265 -58.4001 0.6440625
v 5.316265 -58.4001 0.6440625
v 5.645758 -58.21197 -0.4196566
v 5.533621 -58.30206 -1.764196E-06
v 4.322108 -55.53154 -0.3740957
v 4.43697 -55.68798 -0.8535759
v 4.043359 -55.7978 -0.6448308
v 6.355587 -57.59653 -1.372435
v 6.341099 -57.609 -1.363033
v 6.364447 -57.5873 -1.378513
v 6.364447 -57.5873 -1.378513
v 6.341099 -57.609 -1.363033
v 6.487576 -57.44294 -1.466258
v 6.487576 -57.44294 -1.466258
v 6.341099 -57.609 -1.363033
v 5.372497 -56.04742 -1.223116
v 5.372497 -56.04742 -1.223116
v 6.341099 -57.609 -1.363033
v 4.43697 -55.68798 -0.8535759
v 4.43697 -55.68798 -0.8535759
v 6.341099 -57.609 -1.363033
v 4.043359 -55.7978 -0.6448308
v 4.043359 -55.7978 -0.6448308
v 6.341099 -57.609 -1.363033
v 3.977852 -56.72735 -0.4241524
v 3.977852 -56.72735 -0.4241524
v 6.341099 -57.609 -1.363033
v 5.769972 -58.05962 -1.000714

vn 0.5887926 -0.8035402 0.08744396
vn 0.5887926 -0.8035402 0.08744396
vn 0.5887926 -0.8035402 0.08744396
vn 0.5887926 -0.8035402 0.08744396
vn 0.5887926 -0.8035402 0.08744396
vn 0.5887926 -0.8035402 0.08744396
vn 0.5237137 -0.8508227 -0.04271415
vn 0.5237137 -0.8508227 -0.04271415
vn 0.5237137 -0.8508227 -0.04271415
vn 0.5236074 -0.8506503 0.0472152
vn 0.5236074 -0.8506503 0.0472152
vn 0.5236074 -0.8506503 0.0472152
vn 0.5236074 -0.8506503 0.0472152
vn 0.5236074 -0.8506503 0.0472152
vn 0.5236074 -0.8506503 0.0472152
vn 0.6473456 -0.7609988 0.04271425
vn 0.6473456 -0.7609988 0.04271425
vn 0.6473456 -0.7609988 0.04271425
vn 0.6473456 -0.7609988 0.04271425
vn 0.6473456 -0.7609988 0.04271425
vn 0.6473456 -0.7609988 0.04271425
vn 0.6997522 -0.7083657 -0.09254677
vn 0.6997522 -0.7083657 -0.09254677
vn 0.6997522 -0.7083657 -0.09254677
vn 0.6997522 -0.7083657 -0.09254677
vn 0.6997522 -0.7083657 -0.09254677
vn 0.6997522 -0.7083657 -0.09254677
vn 0.647214 -0.7608448 -0.04721517
vn 0.647214 -0.7608448 -0.04721517
vn 0.647214 -0.7608448 -0.04721517
vn 0.647214 -0.7608448 -0.04721517
vn 0.647214 -0.7608448 -0.04721517
vn 0.647214 -0.7608448 -0.04721517
vn 0.5822671 -0.8082812 -0.08744454
vn 0.5822671 -0.8082812 -0.08744454
vn 0.5822671 -0.8082812 -0.08744454
vn 0.5822671 -0.8082812 -0.08744454
vn 0.5822671 -0.8082812 -0.08744454
vn 0.5822671 -0.8082812 -0.08744454
vn 0.5822671 -0.8082812 -0.08744454
vn 0.5822671 -0.8082812 -0.08744454
vn 0.5822671 -0.8082812 -0.08744454
vn 0.6890103 -0.7005489 -0.1857308
vn 0.6890103 -0.7005489 -0.1857308
vn 0.6890103 -0.7005489 -0.1857308
vn 0.6890103 -0.7005489 -0.1857308
vn 0.6890103 -0.7005489 -0.1857308
vn 0.6890103 -0.7005489 -0.1857308
vn 0.6242885 -0.7478308 -0.2258605
vn 0.6242885 -0.7478308 -0.2258605
vn 0.6242885 -0.7478308 -0.2258605
vn 0.5715591 -0.8004813 -0.1804156
vn 0.5715591 -0.8004813 -0.1804156
vn 0.5715591 -0.8004813 -0.1804156
vn 0.1988621 -0.24433 0.949082
vn 0.1988621 -0.24433 0.949082
vn 0.1988621 -0.24433 0.949082
vn 0.1988621 -0.24433 0.949082
vn 0.1988621 -0.24433 0.949082
vn 0.1988621 -0.24433 0.949082
vn 0.2633823 0.9339438 -0.2416171
vn 0.2633823 0.9339438 -0.2416171
vn 0.2633823 0.9339438 -0.2416171
vn 0.2633823 0.9339438 -0.2416171
vn 0.2633823 0.9339438 -0.2416171
vn 0.2633823 0.9339438 -0.2416171
vn 0.2633823 0.9339438 -0.2416171
vn 0.2633823 0.9339438 -0.2416171
vn 0.2633823 0.9339438 -0.2416171
vn 0.2633823 0.9339438 -0.2416171
vn 0.2633823 0.9339438 -0.2416171
vn 0.2633823 0.9339438 -0.2416171
vn -0.06010688 0.3088651 0.9492047
vn -0.06010688 0.3088651 0.9492047
vn -0.06010688 0.3088651 0.9492047
vn -0.06010688 0.3088651 0.9492047
vn -0.06010688 0.3088651 0.9492047
vn -0.06010688 0.3088651 0.9492047
vn -0.06010688 0.3088651 0.9492047
vn -0.06010688 0.3088651 0.9492047
vn -0.06010688 0.3088651 0.9492047
vn -0.06010688 0.3088651 0.9492047
vn -0.06010688 0.3088651 0.9492047
vn -0.06010688 0.3088651 0.9492047
vn -0.06010688 0.3088651 0.9492047
vn -0.06010688 0.3088651 0.9492047
vn -0.06010688 0.3088651 0.9492047
vn 0.6275282 0.5899469 -0.5081054
vn 0.6275282 0.5899469 -0.5081054
vn 0.6275282 0.5899469 -0.5081054
vn 0.6275282 0.5899469 -0.5081054
vn 0.6275282 0.5899469 -0.5081054
vn 0.6275282 0.5899469 -0.5081054
vn 0.6275282 0.5899469 -0.5081054
vn 0.6275282 0.5899469 -0.5081054
vn 0.6275282 0.5899469 -0.5081054
vn -0.7735254 0.1974814 0.6022123
vn -0.7735254 0.1974814 0.6022123
vn -0.7735254 0.1974814 0.6022123
vn -0.7735254 0.1974814 0.6022123
vn -0.7735254 0.1974814 0.6022123
vn -0.7735254 0.1974814 0.6022123
vn -0.7735254 0.1974814 0.6022123
vn -0.7735254 0.1974814 0.6022123
vn -0.7735254 0.1974814 0.6022123
vn 0.7633277 0.5918649 0.2588953
vn 0.7633277 0.5918649 0.2588953
vn 0.7633277 0.5918649 0.2588953
vn 0.7633277 0.5918649 0.2588953
vn 0.7633277 0.5918649 0.2588953
vn 0.7633277 0.5918649 0.2588953
vn 0.7633277 0.5918649 0.2588953
vn 0.7633277 0.5918649 0.2588953
vn 0.7633277 0.5918649 0.2588953
vn 0.7633277 0.5918649 0.2588953
vn 0.7633277 0.5918649 0.2588953
vn 0.7633277 0.5918649 0.2588953
vn -0.6293898 -0.7080615 -0.3201837
vn -0.6293898 -0.7080615 -0.3201837
vn -0.6293898 -0.7080615 -0.3201837
vn -0.6293898 -0.7080615 -0.3201837
vn -0.6293898 -0.7080615 -0.3201837
vn -0.6293898 -0.7080615 -0.3201837
vn -0.6293898 -0.7080615 -0.3201837
vn -0.6293898 -0.7080615 -0.3201837
vn -0.6293898 -0.7080615 -0.3201837
vn -0.6293898 -0.7080615 -0.3201837
vn -0.6293898 -0.7080615 -0.3201837
vn -0.6293898 -0.7080615 -0.3201837
vn -0.6293898 -0.7080615 -0.3201837
vn -0.6293898 -0.7080615 -0.3201837
vn -0.6293898 -0.7080615 -0.3201837
vn -0.4269717 0.824517 -0.3713042
vn -0.4269717 0.824517 -0.3713042
vn -0.4269717 0.824517 -0.3713042
vn -0.4207816 -0.181359 -0.8888487
vn -0.4207816 -0.181359 -0.8888487
vn -0.4207816 -0.181359 -0.8888487
vn -0.4207816 -0.181359 -0.8888487
vn -0.4207816 -0.181359 -0.8888487
vn -0.4207816 -0.181359 -0.8888487
vn -0.4207816 -0.181359 -0.8888487
vn -0.4207816 -0.181359 -0.8888487
vn -0.4207816 -0.181359 -0.8888487
vn -0.4207816 -0.181359 -0.8888487
vn -0.4207816 -0.181359 -0.8888487
vn -0.4207816 -0.181359 -0.8888487
vn -0.4207816 -0.181359 -0.8888487
vn -0.4207816 -0.181359 -0.8888487
vn -0.4207816 -0.181359 -0.8888487
vn -0.4207816 -0.181359 -0.8888487
vn -0.4207816 -0.181359 -0.8888487
vn -0.4207816 -0.181359 -0.8888487
vn -0.4207816 -0.181359 -0.8888487
vn -0.4207816 -0.181359 -0.8888487
vn -0.4207816 -0.181359 -0.8888487

vt 0.9593052 0.244436
vt 0.949798 0.2452913
vt 0.954545 0.236191
vt 0.954545 0.236191
vt 0.949798 0.2452913
vt 0.9492983 0.2452785
vt 0.954545 0.236191
vt 0.9485388 0.236191
vt 0.9508736 0.2298321
vt 0.9485388 0.236191
vt 0.954545 0.236191
vt 0.944493 0.2454842
vt 0.944493 0.2454842
vt 0.954545 0.236191
vt 0.9492983 0.2452785
vt 0.06187717 0.2425362
vt 0.05021474 0.244436
vt 0.06374819 0.236191
vt 0.06374819 0.236191
vt 0.05021474 0.244436
vt 0.0454545 0.236191
vt 0.05681812 0.2165085
vt 0.06040788 0.2165085
vt 0.06537835 0.2313354
vt 0.06537835 0.2313354
vt 0.06040788 0.2165085
vt 0.06653339 0.2275483
vt 0.06537835 0.2313354
vt 0.06374819 0.236191
vt 0.05681812 0.2165085
vt 0.05681812 0.2165085
vt 0.06374819 0.236191
vt 0.0454545 0.236191
vt 0.04178318 0.2298321
vt 0.04508866 0.221383
vt 0.0454545 0.236191
vt 0.0454545 0.236191
vt 0.04508866 0.221383
vt 0.05681812 0.2165085
vt 0.05681812 0.2165085
vt 0.04508866 0.221383
vt 0.05644406 0.2165085
vt 0.05681812 0.2165085
vt 0.05693508 0.2163059
vt 0.06040788 0.2165085
vt 0.06040788 0.2165085
vt 0.05693508 0.2163059
vt 0.05966136 0.2151183
vt 0.05681812 0.2165085
vt 0.05674512 0.216382
vt 0.05693508 0.2163059
vt 0.05674512 0.216382
vt 0.05681812 0.2165085
vt 0.05644406 0.2165085
vt 0.3880677 0.4886017
vt 0.3849457 0.4845514
vt 0.4028201 0.4536965
vt 0.4028201 0.4536965
vt 0.3849457 0.4845514
vt 0.4009591 0.4563967
vt 0.5201551 0.4287857
vt 0.5455159 0.4619517
vt 0.3749138 0.4495947
vt 0.3749138 0.4495947
vt 0.5455159 0.4619517
vt 0.3710511 0.4549107
vt 0.3710511 0.4549107
vt 0.5455159 0.4619517
vt 0.3865536 0.5049714
vt 0.3865536 0.5049714
vt 0.5455159 0.4619517
vt 0.4876594 0.5435517
vt 0.3385883 0.4602313
vt 0.3544658 0.4265825
vt 0.4426849 0.5508365
vt 0.4426849 0.5508365
vt 0.3544658 0.4265825
vt 0.6347336 0.5504615
vt 0.6347336 0.5504615
vt 0.3544658 0.4265825
vt 0.5966876 0.4129926
vt 0.5966876 0.4129926
vt 0.3544658 0.4265825
vt 0.4415365 0.3179199
vt 0.4415365 0.3179199
vt 0.3544658 0.4265825
vt 0.3907304 0.3769249
vt 0.4698178 0.4138973
vt 0.6374149 0.4354752
vt 0.4254012 0.5174783
vt 0.4254012 0.5174783
vt 0.6374149 0.4354752
vt 0.62863 0.5496927
vt 0.62863 0.5496927
vt 0.6374149 0.4354752
vt 0.6305614 0.5369232
vt 0.4968006 0.5783631
vt 0.4300373 0.4697428
vt 0.6097009 0.6123963
vt 0.6097009 0.6123963
vt 0.4300373 0.4697428
vt 0.6499594 0.5706376
vt 0.6499594 0.5706376
vt 0.4300373 0.4697428
vt 0.6514032 0.562781
vt 0.4336891 0.4943582
vt 0.6128135 0.4371815
vt 0.4589656 0.5278289
vt 0.4589656 0.5278289
vt 0.6128135 0.4371815
vt 0.6086602 0.5449862
vt 0.6086602 0.5449862
vt 0.6128135 0.4371815
vt 0.6120916 0.5167658
vt 0.6120916 0.5167658
vt 0.6128135 0.4371815
vt 0.6141261 0.4813075
vt 0.3703855 0.5377858
vt 0.3695135 0.4741352
vt 0.6012347 0.4746274
vt 0.6012347 0.4746274
vt 0.3695135 0.4741352
vt 0.526446 0.3974995
vt 0.526446 0.3974995
vt 0.3695135 0.4741352
vt 0.3871114 0.3559143
vt 0.3871114 0.3559143
vt 0.3695135 0.4741352
vt 0.3821049 0.357616
vt 0.3821049 0.357616
vt 0.3695135 0.4741352
vt 0.3720028 0.4281669
vt 0.4912409 0.418032
vt 0.4944192 0.4727054
vt 0.4520699 0.4489056
vt 0.2806709 0.7635113
vt 0.2794474 0.7591048
vt 0.2817397 0.7663521
vt 0.2817397 0.7663521
vt 0.2794474 0.7591048
vt 0.2997267 0.8074451
vt 0.2997267 0.8074451
vt 0.2794474 0.7591048
vt 0.6693856 0.6935885
vt 0.6693856 0.6935885
vt 0.2794474 0.7591048
vt 0.8196474 0.5205535
vt 0.8196474 0.5205535
vt 0.2794474 0.7591048
vt 0.8314418 0.4228041
vt 0.8314418 0.4228041
vt 0.2794474 0.7591048
vt 0.6538503 0.3194669
vt 0.6538503 0.3194669
vt 0.2794474 0.7591048
vt 0.239156 0.589445

usemtl Material0
usemap Material0
f 1/1/1 2/2/2 3/3/3
f 4/4/4 5/5/5 6/6/6
f 7/7/7 8/8/8 9/9/9
f 10/10/10 11/11/11 12/12/12
f 13/13/13 14/14/14 15/15/15
f 16/16/16 17/17/17 18/18/18
f 19/19/19 20/20/20 21/21/21
f 22/22/22 23/23/23 24/24/24
f 25/25/25 26/26/26 27/27/27
f 28/28/28 29/29/29 30/30/30
f 31/31/31 32/32/32 33/33/33
f 34/34/34 35/35/35 36/36/36
f 37/37/37 38/38/38 39/39/39
f 40/40/40 41/41/41 42/42/42
f 43/43/43 44/44/44 45/45/45
f 46/46/46 47/47/47 48/48/48
f 49/49/49 50/50/50 51/51/51
f 52/52/52 53/53/53 54/54/54

usemtl Material1
usemap Material1
f 55/55/55 56/56/56 57/57/57
f 58/58/58 59/59/59 60/60/60
f 61/61/61 62/62/62 63/63/63
f 64/64/64 65/65/65 66/66/66
f 67/67/67 68/68/68 69/69/69
f 70/70/70 71/71/71 72/72/72
f 73/73/73 74/74/74 75/75/75
f 76/76/76 77/77/77 78/78/78
f 79/79/79 80/80/80 81/81/81
f 82/82/82 83/83/83 84/84/84
f 85/85/85 86/86/86 87/87/87
f 88/88/88 89/89/89 90/90/90
f 91/91/91 92/92/92 93/93/93
f 94/94/94 95/95/95 96/96/96
f 97/97/97 98/98/98 99/99/99
f 100/100/100 101/101/101 102/102/102
f 103/103/103 104/104/104 105/105/105
f 106/106/106 107/107/107 108/108/108
f 109/109/109 110/110/110 111/111/111
f 112/112/112 113/113/113 114/114/114
f 115/115/115 116/116/116 117/117/117
f 118/118/118 119/119/119 120/120/120
f 121/121/121 122/122/122 123/123/123
f 124/124/124 125/125/125 126/126/126
f 127/127/127 128/128/128 129/129/129
f 130/130/130 131/131/131 132/132/132
f 133/133/133 134/134/134 135/135/135
f 136/136/136 137/137/137 138/138/138
f 139/139/139 140/140/140 141/141/141
f 142/142/142 143/143/143 144/144/144
f 145/145/145 146/146/146 147/147/147
f 148/148/148 149/149/149 150/150/150
f 151/151/151 152/152/152 153/153/153
f 154/154/154 155/155/155 156/156/156
