g  Instance
v 7.742209 -50.0408 -2.678803
v 6.343588 -50.47396 -1.882188
v 7.850675 -49.81351 -2.718199
v 7.850675 -49.81351 -2.718199
v 6.343588 -50.47396 -1.882188
v 7.784877 -48.99084 -2.583303
v 7.784877 -48.99084 -2.583303
v 6.343588 -50.47396 -1.882188
v 6.578639 -48.29763 -1.772986
v 6.578639 -48.29763 -1.772986
v 6.343588 -50.47396 -1.882188
v 6.20315 -48.33698 -1.550227
v 6.20315 -48.33698 -1.550227
v 6.343588 -50.47396 -1.882188
v 5.584854 -49.32419 -1.290013
v 5.584854 -49.32419 -1.290013
v 6.343588 -50.47396 -1.882188
v 5.536331 -49.56726 -1.288728
v 9.357922 -49.43504 -1.585278
v 9.449837 -49.80668 -1.602902
v 7.784877 -48.99084 -2.583303
v 7.784877 -48.99084 -2.583303
v 9.449837 -49.80668 -1.602902
v 7.850675 -49.81351 -2.718199
v 7.850675 -49.81351 -2.718199
v 9.449837 -49.80668 -1.602902
v 7.940399 -50.07037 -2.712135
v 7.940399 -50.07037 -2.712135
v 9.449837 -49.80668 -1.602902
v 8.230888 -50.33455 -2.567847
v 7.940399 -50.07037 -2.712135
v 8.230888 -50.33455 -2.567847
v 7.742209 -50.0408 -2.678803
v 7.742209 -50.0408 -2.678803
v 8.230888 -50.33455 -2.567847
v 6.343588 -50.47396 -1.882188
v 6.343588 -50.47396 -1.882188
v 8.230888 -50.33455 -2.567847
v 6.963881 -50.97086 -1.632863
v 6.963881 -50.97086 -1.632863
v 8.230888 -50.33455 -2.567847
v 7.833536 -50.65933 -2.165096
v 7.742209 -50.0408 -2.678803
v 7.850675 -49.81351 -2.718199
v 7.940399 -50.07037 -2.712135
v 5.821585 -49.69729 -0.8266897
v 6.508374 -50.21949 -0.4519174
v 5.911584 -49.62989 -0.7135764
v 5.911584 -49.62989 -0.7135764
v 6.508374 -50.21949 -0.4519174
v 5.944617 -49.62858 -0.6830987
v 5.944617 -49.62858 -0.6830987
v 6.508374 -50.21949 -0.4519174
v 6.480328 -49.89362 -0.3237244
v 5.911584 -49.62989 -0.7135764
v 5.944617 -49.62858 -0.6830987
v 5.584854 -49.32419 -1.290013
v 5.584854 -49.32419 -1.290013
v 5.944617 -49.62858 -0.6830987
v 6.20315 -48.33698 -1.550227
v 6.20315 -48.33698 -1.550227
v 5.944617 -49.62858 -0.6830987
v 6.466909 -48.17513 -1.437497
v 6.466909 -48.17513 -1.437497
v 5.944617 -49.62858 -0.6830987
v 7.051844 -48.27819 -0.7888519
v 7.051844 -48.27819 -0.7888519
v 5.944617 -49.62858 -0.6830987
v 6.653181 -49.03234 -0.5195681
v 6.480328 -49.89362 -0.3237244
v 6.508374 -50.21949 -0.4519174
v 7.902959 -49.09058 0.1344148
v 7.902959 -49.09058 0.1344148
v 6.508374 -50.21949 -0.4519174
v 8.235451 -49.76335 -0.1040559
v 8.235451 -49.76335 -0.1040559
v 6.508374 -50.21949 -0.4519174
v 6.693204 -50.40466 -0.5086548
v 7.265481 -51.06194 -0.9805733
v 8.341761 -49.89882 -0.2010152
v 6.693204 -50.40466 -0.5086548
v 6.693204 -50.40466 -0.5086548
v 8.341761 -49.89882 -0.2010152
v 8.235451 -49.76335 -0.1040559
v 8.341761 -49.89882 -0.2010152
v 7.265481 -51.06194 -0.9805733
v 9.148378 -50.08315 -1.156112
v 9.148378 -50.08315 -1.156112
v 7.265481 -51.06194 -0.9805733
v 7.322348 -51.17394 -1.192235
v 7.957321 -48.50502 -0.08550569
v 7.051844 -48.27819 -0.7888519
v 7.919465 -48.6727 0.005188882
v 7.919465 -48.6727 0.005188882
v 7.051844 -48.27819 -0.7888519
v 6.653181 -49.03234 -0.5195681
v 6.963881 -50.97086 -1.632863
v 7.833536 -50.65933 -2.165096
v 7.28733 -51.17223 -1.299239
v 5.821585 -49.69729 -0.8266897
v 5.911584 -49.62989 -0.7135764
v 5.536331 -49.56726 -1.288728
v 5.536331 -49.56726 -1.288728
v 5.911584 -49.62989 -0.7135764
v 5.584854 -49.32419 -1.290013
v 9.148378 -50.08315 -1.156112
v 9.449837 -49.80668 -1.602902
v 8.341761 -49.89882 -0.2010152
v 8.341761 -49.89882 -0.2010152
v 9.449837 -49.80668 -1.602902
v 8.235451 -49.76335 -0.1040559
v 8.235451 -49.76335 -0.1040559
v 9.449837 -49.80668 -1.602902
v 7.902959 -49.09058 0.1344148
v 7.902959 -49.09058 0.1344148
v 9.449837 -49.80668 -1.602902
v 7.919465 -48.6727 0.005188882
v 7.919465 -48.6727 0.005188882
v 9.449837 -49.80668 -1.602902
v 7.957321 -48.50502 -0.08550569
v 7.957321 -48.50502 -0.08550569
v 9.449837 -49.80668 -1.602902
v 9.357922 -49.43504 -1.585278
v 7.919465 -48.6727 0.005188882
v 6.653181 -49.03234 -0.5195681
v 7.902959 -49.09058 0.1344148
v 7.902959 -49.09058 0.1344148
v 6.653181 -49.03234 -0.5195681
v 6.480328 -49.89362 -0.3237244
v 6.480328 -49.89362 -0.3237244
v 6.653181 -49.03234 -0.5195681
v 5.944617 -49.62858 -0.6830987
v 6.578639 -48.29763 -1.772986
v 6.20315 -48.33698 -1.550227
v 6.466909 -48.17513 -1.437497
v 7.784877 -48.99084 -2.583303
v 6.578639 -48.29763 -1.772986
v 9.357922 -49.43504 -1.585278
v 9.357922 -49.43504 -1.585278
v 6.578639 -48.29763 -1.772986
v 7.957321 -48.50502 -0.08550569
v 7.957321 -48.50502 -0.08550569
v 6.578639 -48.29763 -1.772986
v 7.051844 -48.27819 -0.7888519
v 7.051844 -48.27819 -0.7888519
v 6.578639 -48.29763 -1.772986
v 6.466909 -48.17513 -1.437497
v 6.963881 -50.97086 -1.632863
v 7.28733 -51.17223 -1.299239
v 6.343588 -50.47396 -1.882188
v 6.343588 -50.47396 -1.882188
v 7.28733 -51.17223 -1.299239
v 5.536331 -49.56726 -1.288728
v 5.536331 -49.56726 -1.288728
v 7.28733 -51.17223 -1.299239
v 5.821585 -49.69729 -0.8266897
v 5.821585 -49.69729 -0.8266897
v 7.28733 -51.17223 -1.299239
v 6.508374 -50.21949 -0.4519174
v 6.508374 -50.21949 -0.4519174
v 7.28733 -51.17223 -1.299239
v 6.693204 -50.40466 -0.5086548
v 6.693204 -50.40466 -0.5086548
v 7.28733 -51.17223 -1.299239
v 7.265481 -51.06194 -0.9805733
v 7.265481 -51.06194 -0.9805733
v 7.28733 -51.17223 -1.299239
v 7.322348 -51.17394 -1.192235
v 8.230888 -50.33455 -2.567847
v 9.449837 -49.80668 -1.602902
v 7.833536 -50.65933 -2.165096
v 7.833536 -50.65933 -2.165096
v 9.449837 -49.80668 -1.602902
v 7.28733 -51.17223 -1.299239
v 7.28733 -51.17223 -1.299239
v 9.449837 -49.80668 -1.602902
v 7.322348 -51.17394 -1.192235
v 7.322348 -51.17394 -1.192235
v 9.449837 -49.80668 -1.602902
v 9.148378 -50.08315 -1.156112

vn -0.5153525 0.09837586 -0.8513131
vn -0.5153525 0.09837586 -0.8513131
vn -0.5153525 0.09837586 -0.8513131
vn -0.5153525 0.09837586 -0.8513131
vn -0.5153525 0.09837586 -0.8513131
vn -0.5153525 0.09837586 -0.8513131
vn -0.5153525 0.09837586 -0.8513131
vn -0.5153525 0.09837586 -0.8513131
vn -0.5153525 0.09837586 -0.8513131
vn -0.5153525 0.09837586 -0.8513131
vn -0.5153525 0.09837586 -0.8513131
vn -0.5153525 0.09837586 -0.8513131
vn -0.5153525 0.09837586 -0.8513131
vn -0.5153525 0.09837586 -0.8513131
vn -0.5153525 0.09837586 -0.8513131
vn -0.5153525 0.09837586 -0.8513131
vn -0.5153525 0.09837586 -0.8513131
vn -0.5153525 0.09837586 -0.8513131
vn 0.5624608 0.1774075 -0.807567
vn 0.5624608 0.1774075 -0.807567
vn 0.5624608 0.1774075 -0.807567
vn 0.5624608 0.1774075 -0.807567
vn 0.5624608 0.1774075 -0.807567
vn 0.5624608 0.1774075 -0.807567
vn 0.5624608 0.1774075 -0.807567
vn 0.5624608 0.1774075 -0.807567
vn 0.5624608 0.1774075 -0.807567
vn 0.5624608 0.1774075 -0.807567
vn 0.5624608 0.1774075 -0.807567
vn 0.5624608 0.1774075 -0.807567
vn -0.2193528 -0.6423128 -0.7343832
vn -0.2193528 -0.6423128 -0.7343832
vn -0.2193528 -0.6423128 -0.7343832
vn -0.2193528 -0.6423128 -0.7343832
vn -0.2193528 -0.6423128 -0.7343832
vn -0.2193528 -0.6423128 -0.7343832
vn -0.2193528 -0.6423128 -0.7343832
vn -0.2193528 -0.6423128 -0.7343832
vn -0.2193528 -0.6423128 -0.7343832
vn -0.2193528 -0.6423128 -0.7343832
vn -0.2193528 -0.6423128 -0.7343832
vn -0.2193528 -0.6423128 -0.7343832
vn -0.1775982 -0.08518229 -0.9804096
vn -0.1775982 -0.08518229 -0.9804096
vn -0.1775982 -0.08518229 -0.9804096
vn -0.6330243 -0.3299654 0.7002879
vn -0.6330243 -0.3299654 0.7002879
vn -0.6330243 -0.3299654 0.7002879
vn -0.6330243 -0.3299654 0.7002879
vn -0.6330243 -0.3299654 0.7002879
vn -0.6330243 -0.3299654 0.7002879
vn -0.6330243 -0.3299654 0.7002879
vn -0.6330243 -0.3299654 0.7002879
vn -0.6330243 -0.3299654 0.7002879
vn -0.5866852 0.5290488 0.6131134
vn -0.5866852 0.5290488 0.6131134
vn -0.5866852 0.5290488 0.6131134
vn -0.5866852 0.5290488 0.6131134
vn -0.5866852 0.5290488 0.6131134
vn -0.5866852 0.5290488 0.6131134
vn -0.5866852 0.5290488 0.6131134
vn -0.5866852 0.5290488 0.6131134
vn -0.5866852 0.5290488 0.6131134
vn -0.5866852 0.5290488 0.6131134
vn -0.5866852 0.5290488 0.6131134
vn -0.5866852 0.5290488 0.6131134
vn -0.5866852 0.5290488 0.6131134
vn -0.5866852 0.5290488 0.6131134
vn -0.5866852 0.5290488 0.6131134
vn -0.0881457 -0.3712049 0.9243578
vn -0.0881457 -0.3712049 0.9243578
vn -0.0881457 -0.3712049 0.9243578
vn -0.0881457 -0.3712049 0.9243578
vn -0.0881457 -0.3712049 0.9243578
vn -0.0881457 -0.3712049 0.9243578
vn -0.0881457 -0.3712049 0.9243578
vn -0.0881457 -0.3712049 0.9243578
vn -0.0881457 -0.3712049 0.9243578
vn 0.02183561 -0.5704837 0.8210186
vn 0.02183561 -0.5704837 0.8210186
vn 0.02183561 -0.5704837 0.8210186
vn 0.02183561 -0.5704837 0.8210186
vn 0.02183561 -0.5704837 0.8210186
vn 0.02183561 -0.5704837 0.8210186
vn 0.4337459 -0.742995 0.5097285
vn 0.4337459 -0.742995 0.5097285
vn 0.4337459 -0.742995 0.5097285
vn 0.4337459 -0.742995 0.5097285
vn 0.4337459 -0.742995 0.5097285
vn 0.4337459 -0.742995 0.5097285
vn -0.4489253 0.5014064 0.7396336
vn -0.4489253 0.5014064 0.7396336
vn -0.4489253 0.5014064 0.7396336
vn -0.4489253 0.5014064 0.7396336
vn -0.4489253 0.5014064 0.7396336
vn -0.4489253 0.5014064 0.7396336
vn -0.00602641 -0.8586931 -0.5124549
vn -0.00602641 -0.8586931 -0.5124549
vn -0.00602641 -0.8586931 -0.5124549
vn -0.8174825 0.1661161 0.5514778
vn -0.8174825 0.1661161 0.5514778
vn -0.8174825 0.1661161 0.5514778
vn -0.8174825 0.1661161 0.5514778
vn -0.8174825 0.1661161 0.5514778
vn -0.8174825 0.1661161 0.5514778
vn 0.7691282 0.1608927 0.6185105
vn 0.7691282 0.1608927 0.6185105
vn 0.7691282 0.1608927 0.6185105
vn 0.7691282 0.1608927 0.6185105
vn 0.7691282 0.1608927 0.6185105
vn 0.7691282 0.1608927 0.6185105
vn 0.7691282 0.1608927 0.6185105
vn 0.7691282 0.1608927 0.6185105
vn 0.7691282 0.1608927 0.6185105
vn 0.7691282 0.1608927 0.6185105
vn 0.7691282 0.1608927 0.6185105
vn 0.7691282 0.1608927 0.6185105
vn 0.7691282 0.1608927 0.6185105
vn 0.7691282 0.1608927 0.6185105
vn 0.7691282 0.1608927 0.6185105
vn 0.7691282 0.1608927 0.6185105
vn 0.7691282 0.1608927 0.6185105
vn 0.7691282 0.1608927 0.6185105
vn -0.4345197 0.2817208 0.8554684
vn -0.4345197 0.2817208 0.8554684
vn -0.4345197 0.2817208 0.8554684
vn -0.4345197 0.2817208 0.8554684
vn -0.4345197 0.2817208 0.8554684
vn -0.4345197 0.2817208 0.8554684
vn -0.4345197 0.2817208 0.8554684
vn -0.4345197 0.2817208 0.8554684
vn -0.4345197 0.2817208 0.8554684
vn -0.3374392 0.8424649 -0.4199854
vn -0.3374392 0.8424649 -0.4199854
vn -0.3374392 0.8424649 -0.4199854
vn 0.38261 0.9016073 -0.2017768
vn 0.38261 0.9016073 -0.2017768
vn 0.38261 0.9016073 -0.2017768
vn 0.38261 0.9016073 -0.2017768
vn 0.38261 0.9016073 -0.2017768
vn 0.38261 0.9016073 -0.2017768
vn 0.38261 0.9016073 -0.2017768
vn 0.38261 0.9016073 -0.2017768
vn 0.38261 0.9016073 -0.2017768
vn 0.38261 0.9016073 -0.2017768
vn 0.38261 0.9016073 -0.2017768
vn 0.38261 0.9016073 -0.2017768
vn -0.6607353 -0.7221855 0.2046386
vn -0.6607353 -0.7221855 0.2046386
vn -0.6607353 -0.7221855 0.2046386
vn -0.6607353 -0.7221855 0.2046386
vn -0.6607353 -0.7221855 0.2046386
vn -0.6607353 -0.7221855 0.2046386
vn -0.6607353 -0.7221855 0.2046386
vn -0.6607353 -0.7221855 0.2046386
vn -0.6607353 -0.7221855 0.2046386
vn -0.6607353 -0.7221855 0.2046386
vn -0.6607353 -0.7221855 0.2046386
vn -0.6607353 -0.7221855 0.2046386
vn -0.6607353 -0.7221855 0.2046386
vn -0.6607353 -0.7221855 0.2046386
vn -0.6607353 -0.7221855 0.2046386
vn -0.6607353 -0.7221855 0.2046386
vn -0.6607353 -0.7221855 0.2046386
vn -0.6607353 -0.7221855 0.2046386
vn -0.6607353 -0.7221855 0.2046386
vn -0.6607353 -0.7221855 0.2046386
vn -0.6607353 -0.7221855 0.2046386
vn 0.5071248 -0.8429833 -0.1794544
vn 0.5071248 -0.8429833 -0.1794544
vn 0.5071248 -0.8429833 -0.1794544
vn 0.5071248 -0.8429833 -0.1794544
vn 0.5071248 -0.8429833 -0.1794544
vn 0.5071248 -0.8429833 -0.1794544
vn 0.5071248 -0.8429833 -0.1794544
vn 0.5071248 -0.8429833 -0.1794544
vn 0.5071248 -0.8429833 -0.1794544
vn 0.5071248 -0.8429833 -0.1794544
vn 0.5071248 -0.8429833 -0.1794544
vn 0.5071248 -0.8429833 -0.1794544

vt 0.3587832 0.6552426
vt 0.2299164 0.3707324
vt 0.4044281 0.6693059
vt 0.4044281 0.6693059
vt 0.2299164 0.3707324
vt 0.553532 0.6211343
vt 0.553532 0.6211343
vt 0.2299164 0.3707324
vt 0.6387463 0.3317348
vt 0.6387463 0.3317348
vt 0.2299164 0.3707324
vt 0.6183076 0.2521786
vt 0.6183076 0.2521786
vt 0.2299164 0.3707324
vt 0.4148818 0.1592436
vt 0.4148818 0.1592436
vt 0.2299164 0.3707324
vt 0.36844 0.1587842
vt 0.6007941 0.2777176
vt 0.6644821 0.2827007
vt 0.4513105 0.5597901
vt 0.4513105 0.5597901
vt 0.6644821 0.2827007
vt 0.5853901 0.5979205
vt 0.5853901 0.5979205
vt 0.6644821 0.2827007
vt 0.6307208 0.5962048
vt 0.6307208 0.5962048
vt 0.6644821 0.2827007
vt 0.6872835 0.5554212
vt 0.4044656 0.5456331
vt 0.3522813 0.5148438
vt 0.4330141 0.5385171
vt 0.4330141 0.5385171
vt 0.3522813 0.5148438
vt 0.6044412 0.3685197
vt 0.6044412 0.3685197
vt 0.3522813 0.5148438
vt 0.496163 0.3153182
vt 0.496163 0.3153182
vt 0.3522813 0.5148438
vt 0.3915461 0.4288982
vt 0.5526038 0.4401864
vt 0.5296431 0.4291748
vt 0.5552571 0.4200664
vt 0.5530913 0.5939828
vt 0.445596 0.5216879
vt 0.5555946 0.5721565
vt 0.5555946 0.5721565
vt 0.445596 0.5216879
vt 0.5536538 0.566278
vt 0.5536538 0.566278
vt 0.445596 0.5216879
vt 0.4871766 0.4969553
vt 0.3200482 0.4921925
vt 0.3229218 0.4873922
vt 0.3210701 0.5829946
vt 0.3210701 0.5829946
vt 0.3229218 0.4873922
vt 0.4638362 0.6239845
vt 0.4638362 0.6239845
vt 0.3229218 0.4873922
vt 0.5007758 0.6062272
vt 0.5007758 0.6062272
vt 0.3229218 0.4873922
vt 0.5400031 0.5040526
vt 0.5400031 0.5040526
vt 0.3229218 0.4873922
vt 0.4370784 0.4616329
vt 0.4741821 0.5778756
vt 0.4396192 0.575091
vt 0.5645764 0.436919
vt 0.5645764 0.436919
vt 0.4396192 0.575091
vt 0.4941848 0.4039733
vt 0.4941848 0.4039733
vt 0.4396192 0.575091
vt 0.4205727 0.5567806
vt 0.555829 0.6883476
vt 0.36296 0.4532043
vt 0.6499688 0.5459988
vt 0.6499688 0.5459988
vt 0.36296 0.4532043
vt 0.380361 0.4239573
vt 0.4494447 0.4167428
vt 0.6226578 0.5202816
vt 0.3804688 0.5435986
vt 0.3804688 0.5435986
vt 0.6226578 0.5202816
vt 0.6235017 0.5483989
vt 0.6080601 0.3895163
vt 0.5316307 0.5421735
vt 0.5876027 0.3698323
vt 0.5876027 0.3698323
vt 0.5316307 0.5421735
vt 0.4147552 0.4837264
vt 0.5592042 0.4065282
vt 0.4598938 0.477487
vt 0.522002 0.3620506
vt 0.4024498 0.5325823
vt 0.4123457 0.5166064
vt 0.4107753 0.5978549
vt 0.4107753 0.5978549
vt 0.4123457 0.5166064
vt 0.4399848 0.598033
vt 0.6262112 0.5643373
vt 0.6000721 0.6354789
vt 0.5829712 0.412266
vt 0.5829712 0.412266
vt 0.6000721 0.6354789
vt 0.5636576 0.3968292
vt 0.5636576 0.3968292
vt 0.6000721 0.6354789
vt 0.472757 0.3588629
vt 0.472757 0.3588629
vt 0.6000721 0.6354789
vt 0.4220072 0.3794375
vt 0.4220072 0.3794375
vt 0.6000721 0.6354789
vt 0.4024404 0.3938759
vt 0.4024404 0.3938759
vt 0.6000721 0.6354789
vt 0.55221 0.6326756
vt 0.6243923 0.3530219
vt 0.436333 0.5453893
vt 0.556129 0.3056473
vt 0.556129 0.3056473
vt 0.436333 0.5453893
vt 0.281285 0.4736008
vt 0.281285 0.4736008
vt 0.436333 0.5453893
vt 0.2681733 0.6053459
vt 0.429367 0.4595141
vt 0.3900225 0.432925
vt 0.4230666 0.4194711
vt 0.4966787 0.5910388
vt 0.3580472 0.5079997
vt 0.6594475 0.488761
vt 0.6594475 0.488761
vt 0.3580472 0.5079997
vt 0.493566 0.3350631
vt 0.493566 0.3350631
vt 0.3580472 0.5079997
vt 0.401006 0.4071376
vt 0.401006 0.4071376
vt 0.3580472 0.5079997
vt 0.3429198 0.4736196
vt 0.42219 0.5388827
vt 0.3845707 0.5046526
vt 0.5018446 0.5644591
vt 0.5018446 0.5644591
vt 0.3845707 0.5046526
vt 0.6231266 0.503565
vt 0.6231266 0.503565
vt 0.3845707 0.5046526
vt 0.5931811 0.4561576
vt 0.5931811 0.4561576
vt 0.3845707 0.5046526
vt 0.5068886 0.4177085
vt 0.5068886 0.4177085
vt 0.3845707 0.5046526
vt 0.4806325 0.4235307
vt 0.4806325 0.4235307
vt 0.3845707 0.5046526
vt 0.3936696 0.4719554
vt 0.3936696 0.4719554
vt 0.3845707 0.5046526
vt 0.3818611 0.4936738
vt 0.48765 0.5749223
vt 0.3560784 0.4768963
vt 0.5384092 0.5340074
vt 0.5384092 0.5340074
vt 0.3560784 0.4768963
vt 0.6115947 0.4460554
vt 0.6115947 0.4460554
vt 0.3560784 0.4768963
vt 0.6086883 0.4351845
vt 0.6086883 0.4351845
vt 0.3560784 0.4768963
vt 0.3961307 0.4315093

usemtl Material0
usemap Material0

usemtl Material1
usemap Material1
f 1/1/1 2/2/2 3/3/3
f 4/4/4 5/5/5 6/6/6
f 7/7/7 8/8/8 9/9/9
f 10/10/10 11/11/11 12/12/12
f 13/13/13 14/14/14 15/15/15
f 16/16/16 17/17/17 18/18/18
f 19/19/19 20/20/20 21/21/21
f 22/22/22 23/23/23 24/24/24
f 25/25/25 26/26/26 27/27/27
f 28/28/28 29/29/29 30/30/30
f 31/31/31 32/32/32 33/33/33
f 34/34/34 35/35/35 36/36/36
f 37/37/37 38/38/38 39/39/39
f 40/40/40 41/41/41 42/42/42
f 43/43/43 44/44/44 45/45/45
f 46/46/46 47/47/47 48/48/48
f 49/49/49 50/50/50 51/51/51
f 52/52/52 53/53/53 54/54/54
f 55/55/55 56/56/56 57/57/57
f 58/58/58 59/59/59 60/60/60
f 61/61/61 62/62/62 63/63/63
f 64/64/64 65/65/65 66/66/66
f 67/67/67 68/68/68 69/69/69
f 70/70/70 71/71/71 72/72/72
f 73/73/73 74/74/74 75/75/75
f 76/76/76 77/77/77 78/78/78
f 79/79/79 80/80/80 81/81/81
f 82/82/82 83/83/83 84/84/84
f 85/85/85 86/86/86 87/87/87
f 88/88/88 89/89/89 90/90/90
f 91/91/91 92/92/92 93/93/93
f 94/94/94 95/95/95 96/96/96
f 97/97/97 98/98/98 99/99/99
f 100/100/100 101/101/101 102/102/102
f 103/103/103 104/104/104 105/105/105
f 106/106/106 107/107/107 108/108/108
f 109/109/109 110/110/110 111/111/111
f 112/112/112 113/113/113 114/114/114
f 115/115/115 116/116/116 117/117/117
f 118/118/118 119/119/119 120/120/120
f 121/121/121 122/122/122 123/123/123
f 124/124/124 125/125/125 126/126/126
f 127/127/127 128/128/128 129/129/129
f 130/130/130 131/131/131 132/132/132
f 133/133/133 134/134/134 135/135/135
f 136/136/136 137/137/137 138/138/138
f 139/139/139 140/140/140 141/141/141
f 142/142/142 143/143/143 144/144/144
f 145/145/145 146/146/146 147/147/147
f 148/148/148 149/149/149 150/150/150
f 151/151/151 152/152/152 153/153/153
f 154/154/154 155/155/155 156/156/156
f 157/157/157 158/158/158 159/159/159
f 160/160/160 161/161/161 162/162/162
f 163/163/163 164/164/164 165/165/165
f 166/166/166 167/167/167 168/168/168
f 169/169/169 170/170/170 171/171/171
f 172/172/172 173/173/173 174/174/174
f 175/175/175 176/176/176 177/177/177
f 178/178/178 179/179/179 180/180/180
