g  Instance
v -4.797027 -58.54638 1.848703
v -4.760972 -58.38596 2.562264
v -5.159456 -58.46716 1.298938
v -5.159456 -58.46716 1.298938
v -4.760972 -58.38596 2.562264
v -5.538198 -57.88983 2.660642
v -5.159456 -58.46716 1.298938
v -6.36088 -57.59464 1.364096
v -5.439659 -58.32012 0.7923046
v -5.439659 -58.32012 0.7923046
v -6.36088 -57.59464 1.364096
v -6.067644 -57.89547 0.5359752
v -4.760972 -58.38596 2.562264
v -4.755303 -58.07724 3.408452
v -5.538198 -57.88983 2.660642
v -5.538198 -57.88983 2.660642
v -4.755303 -58.07724 3.408452
v -4.917846 -57.96078 3.463465
v -5.538198 -57.88983 2.660642
v -4.917846 -57.96078 3.463465
v -5.741576 -57.26388 3.725563
v -5.538198 -57.88983 2.660642
v -6.36088 -57.59464 1.364096
v -5.159456 -58.46716 1.298938
v -5.538198 -57.88983 2.660642
v -6.708203 -56.8819 2.763961
v -6.36088 -57.59464 1.364096
v -6.708203 -56.8819 2.763961
v -5.538198 -57.88983 2.660642
v -5.944677 -57.07028 3.78678
v -5.944677 -57.07028 3.78678
v -5.538198 -57.88983 2.660642
v -5.741576 -57.26388 3.725563
v -6.85954 -56.10574 3.921271
v -6.708203 -56.8819 2.763961
v -6.711658 -56.20843 3.9975
v -6.711658 -56.20843 3.9975
v -6.708203 -56.8819 2.763961
v -5.944677 -57.07028 3.78678
v -6.981389 -57.14381 0.1230734
v -6.067644 -57.89547 0.5359752
v -6.36088 -57.59464 1.364096
v -6.36088 -57.59464 1.364096
v -7.498819 -56.46577 1.400576
v -6.981389 -57.14381 0.1230734
v -6.981389 -57.14381 0.1230734
v -7.498819 -56.46577 1.400576
v -7.069206 -57.06259 0.08071089
v -6.708203 -56.8819 2.763961
v -7.498819 -56.46577 1.400576
v -6.36088 -57.59464 1.364096
v -7.452643 -56.00992 2.790136
v -7.6557 -55.98293 2.222039
v -6.708203 -56.8819 2.763961
v -6.708203 -56.8819 2.763961
v -7.6557 -55.98293 2.222039
v -7.498819 -56.46577 1.400576
v -7.452643 -56.00992 2.790136
v -6.708203 -56.8819 2.763961
v -6.962025 -56.01993 3.859016
v -6.962025 -56.01993 3.859016
v -6.708203 -56.8819 2.763961
v -6.85954 -56.10574 3.921271
v -7.757799 -56.20829 0.7872093
v -7.193334 -56.92273 0.01334791
v -7.498819 -56.46577 1.400576
v -7.498819 -56.46577 1.400576
v -7.193334 -56.92273 0.01334791
v -7.069206 -57.06259 0.08071089
v -7.934464 -55.90009 1.190259
v -7.937379 -55.90767 1.118431
v -7.893274 -55.92284 1.400573
v -7.893274 -55.92284 1.400573
v -7.937379 -55.90767 1.118431
v -7.498819 -56.46577 1.400576
v -7.498819 -56.46577 1.400576
v -7.937379 -55.90767 1.118431
v -7.757799 -56.20829 0.7872093
v -7.893274 -55.92284 1.400573
v -7.498819 -56.46577 1.400576
v -7.6557 -55.98293 2.222039
v -5.159456 -58.46716 1.298938
v -4.836327 -58.63028 1.306381
v -4.797027 -58.54638 1.848703
v -4.868344 -58.6437 1.00677
v -4.836327 -58.63028 1.306381
v -5.006474 -58.5784 0.9587801
v -5.006474 -58.5784 0.9587801
v -4.836327 -58.63028 1.306381
v -5.159456 -58.46716 1.298938
v -5.159456 -58.46716 1.298938
v -5.439659 -58.32012 0.7923046
v -5.006474 -58.5784 0.9587801
v -6.265888 -55.73413 3.722465
v -5.89967 -55.56579 3.531132
v -6.266116 -55.73372 3.722181
v -6.266116 -55.73372 3.722181
v -5.89967 -55.56579 3.531132
v -5.907502 -55.56436 3.531343
v -6.416141 -56.80265 0.2278113
v -5.874407 -56.9569 0.2955827
v -6.807868 -56.89379 0.08420948
v -7.890988 -55.87782 1.15753
v -7.937379 -55.90767 1.118431
v -7.934464 -55.90009 1.190259
v -6.265888 -55.73413 3.722465
v -6.711658 -56.20843 3.9975
v -5.89967 -55.56579 3.531132
v -5.89967 -55.56579 3.531132
v -6.711658 -56.20843 3.9975
v -5.539794 -55.58472 3.371954
v -5.539794 -55.58472 3.371954
v -6.711658 -56.20843 3.9975
v -4.755303 -58.07724 3.408452
v -4.755303 -58.07724 3.408452
v -6.711658 -56.20843 3.9975
v -4.917846 -57.96078 3.463465
v -4.917846 -57.96078 3.463465
v -6.711658 -56.20843 3.9975
v -5.741576 -57.26388 3.725563
v -5.741576 -57.26388 3.725563
v -6.711658 -56.20843 3.9975
v -5.944677 -57.07028 3.78678
v -7.6557 -55.98293 2.222039
v -7.452643 -56.00992 2.790136
v -7.893274 -55.92284 1.400573
v -7.893274 -55.92284 1.400573
v -7.452643 -56.00992 2.790136
v -7.934464 -55.90009 1.190259
v -7.934464 -55.90009 1.190259
v -7.452643 -56.00992 2.790136
v -7.890988 -55.87782 1.15753
v -7.890988 -55.87782 1.15753
v -7.452643 -56.00992 2.790136
v -7.784197 -55.84624 1.204475
v -7.784197 -55.84624 1.204475
v -7.452643 -56.00992 2.790136
v -5.850282 -55.49562 3.271358
v -5.850282 -55.49562 3.271358
v -7.452643 -56.00992 2.790136
v -5.907502 -55.56436 3.531343
v -5.907502 -55.56436 3.531343
v -7.452643 -56.00992 2.790136
v -6.266116 -55.73372 3.722181
v -6.266116 -55.73372 3.722181
v -7.452643 -56.00992 2.790136
v -6.962025 -56.01993 3.859016
v -4.797027 -58.54638 1.848703
v -4.836327 -58.63028 1.306381
v -4.760972 -58.38596 2.562264
v -4.760972 -58.38596 2.562264
v -4.836327 -58.63028 1.306381
v -4.755303 -58.07724 3.408452
v -4.755303 -58.07724 3.408452
v -4.836327 -58.63028 1.306381
v -5.539794 -55.58472 3.371954
v -5.539794 -55.58472 3.371954
v -4.836327 -58.63028 1.306381
v -5.549213 -55.57043 3.33102
v -5.549213 -55.57043 3.33102
v -4.836327 -58.63028 1.306381
v -5.438958 -57.04974 0.4131176
v -5.438958 -57.04974 0.4131176
v -4.836327 -58.63028 1.306381
v -4.868344 -58.6437 1.00677
v -5.549213 -55.57043 3.33102
v -5.438958 -57.04974 0.4131176
v -5.850282 -55.49562 3.271358
v -5.850282 -55.49562 3.271358
v -5.438958 -57.04974 0.4131176
v -7.784197 -55.84624 1.204475
v -7.784197 -55.84624 1.204475
v -5.438958 -57.04974 0.4131176
v -6.416141 -56.80265 0.2278113
v -6.416141 -56.80265 0.2278113
v -5.438958 -57.04974 0.4131176
v -5.874407 -56.9569 0.2955827
v -6.807868 -56.89379 0.08420948
v -5.874407 -56.9569 0.2955827
v -7.193334 -56.92273 0.01334791
v -7.193334 -56.92273 0.01334791
v -5.874407 -56.9569 0.2955827
v -7.069206 -57.06259 0.08071089
v -7.069206 -57.06259 0.08071089
v -5.874407 -56.9569 0.2955827
v -6.981389 -57.14381 0.1230734
v -6.981389 -57.14381 0.1230734
v -5.874407 -56.9569 0.2955827
v -6.067644 -57.89547 0.5359752
v -6.067644 -57.89547 0.5359752
v -5.874407 -56.9569 0.2955827
v -5.439659 -58.32012 0.7923046
v -5.439659 -58.32012 0.7923046
v -5.874407 -56.9569 0.2955827
v -5.006474 -58.5784 0.9587801
v -5.006474 -58.5784 0.9587801
v -5.874407 -56.9569 0.2955827
v -4.868344 -58.6437 1.00677
v -4.868344 -58.6437 1.00677
v -5.874407 -56.9569 0.2955827
v -5.438958 -57.04974 0.4131176
v -6.266116 -55.73372 3.722181
v -6.962025 -56.01993 3.859016
v -6.265888 -55.73413 3.722465
v -6.265888 -55.73413 3.722465
v -6.962025 -56.01993 3.859016
v -6.711658 -56.20843 3.9975
v -6.711658 -56.20843 3.9975
v -6.962025 -56.01993 3.859016
v -6.85954 -56.10574 3.921271
v -6.807868 -56.89379 0.08420948
v -7.193334 -56.92273 0.01334791
v -6.416141 -56.80265 0.2278113
v -6.416141 -56.80265 0.2278113
v -7.193334 -56.92273 0.01334791
v -7.784197 -55.84624 1.204475
v -7.784197 -55.84624 1.204475
v -7.193334 -56.92273 0.01334791
v -7.890988 -55.87782 1.15753
v -7.890988 -55.87782 1.15753
v -7.193334 -56.92273 0.01334791
v -7.937379 -55.90767 1.118431
v -7.937379 -55.90767 1.118431
v -7.193334 -56.92273 0.01334791
v -7.757799 -56.20829 0.7872093
v -5.907502 -55.56436 3.531343
v -5.89967 -55.56579 3.531132
v -5.850282 -55.49562 3.271358
v -5.850282 -55.49562 3.271358
v -5.89967 -55.56579 3.531132
v -5.549213 -55.57043 3.33102
v -5.549213 -55.57043 3.33102
v -5.89967 -55.56579 3.531132
v -5.539794 -55.58472 3.371954

vn -0.5063325 -0.8355143 0.2134087
vn -0.5063325 -0.8355143 0.2134087
vn -0.5063325 -0.8355143 0.2134087
vn -0.5063325 -0.8355143 0.2134087
vn -0.5063325 -0.8355143 0.2134087
vn -0.5063325 -0.8355143 0.2134087
vn -0.5822666 -0.8082814 0.08744477
vn -0.5822666 -0.8082814 0.08744477
vn -0.5822666 -0.8082814 0.08744477
vn -0.5822666 -0.8082814 0.08744477
vn -0.5822666 -0.8082814 0.08744477
vn -0.5822666 -0.8082814 0.08744477
vn -0.4853472 -0.8203104 0.3025375
vn -0.4853472 -0.8203104 0.3025375
vn -0.4853472 -0.8203104 0.3025375
vn -0.4853472 -0.8203104 0.3025375
vn -0.4853472 -0.8203104 0.3025375
vn -0.4853472 -0.8203104 0.3025375
vn -0.5384149 -0.7673659 0.3482229
vn -0.5384149 -0.7673659 0.3482229
vn -0.5384149 -0.7673659 0.3482229
vn -0.5715598 -0.8004813 0.1804134
vn -0.5715598 -0.8004813 0.1804134
vn -0.5715598 -0.8004813 0.1804134
vn -0.6242904 -0.7478296 0.2258595
vn -0.6242904 -0.7478296 0.2258595
vn -0.6242904 -0.7478296 0.2258595
vn -0.6032312 -0.7325599 0.3153856
vn -0.6032312 -0.7325599 0.3153856
vn -0.6032312 -0.7325599 0.3153856
vn -0.6032312 -0.7325599 0.3153856
vn -0.6032312 -0.7325599 0.3153856
vn -0.6032312 -0.7325599 0.3153856
vn -0.6504022 -0.6674621 0.3625898
vn -0.6504022 -0.6674621 0.3625898
vn -0.6504022 -0.6674621 0.3625898
vn -0.6504022 -0.6674621 0.3625898
vn -0.6504022 -0.6674621 0.3625898
vn -0.6504022 -0.6674621 0.3625898
vn -0.6472147 -0.7608443 0.04721329
vn -0.6472147 -0.7608443 0.04721329
vn -0.6472147 -0.7608443 0.04721329
vn -0.699752 -0.7083659 0.09254654
vn -0.699752 -0.7083659 0.09254654
vn -0.699752 -0.7083659 0.09254654
vn -0.699752 -0.7083659 0.09254654
vn -0.699752 -0.7083659 0.09254654
vn -0.699752 -0.7083659 0.09254654
vn -0.6890107 -0.7005489 0.1857294
vn -0.6890107 -0.7005489 0.1857294
vn -0.6890107 -0.7005489 0.1857294
vn -0.7361533 -0.6354699 0.2329301
vn -0.7361533 -0.6354699 0.2329301
vn -0.7361533 -0.6354699 0.2329301
vn -0.7361533 -0.6354699 0.2329301
vn -0.7361533 -0.6354699 0.2329301
vn -0.7361533 -0.6354699 0.2329301
vn -0.7151175 -0.620199 0.3224287
vn -0.7151175 -0.620199 0.3224287
vn -0.7151175 -0.620199 0.3224287
vn -0.7151175 -0.620199 0.3224287
vn -0.7151175 -0.620199 0.3224287
vn -0.7151175 -0.620199 0.3224287
vn -0.7582685 -0.6502306 0.04721127
vn -0.7582685 -0.6502306 0.04721127
vn -0.7582685 -0.6502306 0.04721127
vn -0.7582685 -0.6502306 0.04721127
vn -0.7582685 -0.6502306 0.04721127
vn -0.7582685 -0.6502306 0.04721127
vn -0.8054038 -0.5851563 0.09442791
vn -0.8054038 -0.5851563 0.09442791
vn -0.8054038 -0.5851563 0.09442791
vn -0.8054038 -0.5851563 0.09442791
vn -0.8054038 -0.5851563 0.09442791
vn -0.8054038 -0.5851563 0.09442791
vn -0.8054038 -0.5851563 0.09442791
vn -0.8054038 -0.5851563 0.09442791
vn -0.8054038 -0.5851563 0.09442791
vn -0.7946553 -0.5773486 0.1875941
vn -0.7946553 -0.5773486 0.1875941
vn -0.7946553 -0.5773486 0.1875941
vn -0.4472959 -0.8784068 0.1683087
vn -0.4472959 -0.8784068 0.1683087
vn -0.4472959 -0.8784068 0.1683087
vn -0.4505074 -0.8884313 0.08793698
vn -0.4505074 -0.8884313 0.08793698
vn -0.4505074 -0.8884313 0.08793698
vn -0.4505074 -0.8884313 0.08793698
vn -0.4505074 -0.8884313 0.08793698
vn -0.4505074 -0.8884313 0.08793698
vn -0.5237129 -0.8508233 0.04271432
vn -0.5237129 -0.8508233 0.04271432
vn -0.5237129 -0.8508233 0.04271432
vn 0.1319368 0.6052281 0.7850424
vn 0.1319368 0.6052281 0.7850424
vn 0.1319368 0.6052281 0.7850424
vn 0.1319368 0.6052281 0.7850424
vn 0.1319368 0.6052281 0.7850424
vn 0.1319368 0.6052281 0.7850424
vn 0.2276466 0.4118329 -0.8823665
vn 0.2276466 0.4118329 -0.8823665
vn 0.2276466 0.4118329 -0.8823665
vn -0.4967205 0.8649935 -0.07110035
vn -0.4967205 0.8649935 -0.07110035
vn -0.4967205 0.8649935 -0.07110035
vn 0.4066589 0.1412081 0.9026011
vn 0.4066589 0.1412081 0.9026011
vn 0.4066589 0.1412081 0.9026011
vn 0.4066589 0.1412081 0.9026011
vn 0.4066589 0.1412081 0.9026011
vn 0.4066589 0.1412081 0.9026011
vn 0.4066589 0.1412081 0.9026011
vn 0.4066589 0.1412081 0.9026011
vn 0.4066589 0.1412081 0.9026011
vn 0.4066589 0.1412081 0.9026011
vn 0.4066589 0.1412081 0.9026011
vn 0.4066589 0.1412081 0.9026011
vn 0.4066589 0.1412081 0.9026011
vn 0.4066589 0.1412081 0.9026011
vn 0.4066589 0.1412081 0.9026011
vn 0.4066589 0.1412081 0.9026011
vn 0.4066589 0.1412081 0.9026011
vn 0.4066589 0.1412081 0.9026011
vn -0.3465922 0.9228973 0.1677338
vn -0.3465922 0.9228973 0.1677338
vn -0.3465922 0.9228973 0.1677338
vn -0.3465922 0.9228973 0.1677338
vn -0.3465922 0.9228973 0.1677338
vn -0.3465922 0.9228973 0.1677338
vn -0.3465922 0.9228973 0.1677338
vn -0.3465922 0.9228973 0.1677338
vn -0.3465922 0.9228973 0.1677338
vn -0.3465922 0.9228973 0.1677338
vn -0.3465922 0.9228973 0.1677338
vn -0.3465922 0.9228973 0.1677338
vn -0.3465922 0.9228973 0.1677338
vn -0.3465922 0.9228973 0.1677338
vn -0.3465922 0.9228973 0.1677338
vn -0.3465922 0.9228973 0.1677338
vn -0.3465922 0.9228973 0.1677338
vn -0.3465922 0.9228973 0.1677338
vn -0.3465922 0.9228973 0.1677338
vn -0.3465922 0.9228973 0.1677338
vn -0.3465922 0.9228973 0.1677338
vn -0.3465922 0.9228973 0.1677338
vn -0.3465922 0.9228973 0.1677338
vn -0.3465922 0.9228973 0.1677338
vn 0.9480656 0.296712 -0.1146017
vn 0.9480656 0.296712 -0.1146017
vn 0.9480656 0.296712 -0.1146017
vn 0.9480656 0.296712 -0.1146017
vn 0.9480656 0.296712 -0.1146017
vn 0.9480656 0.296712 -0.1146017
vn 0.9480656 0.296712 -0.1146017
vn 0.9480656 0.296712 -0.1146017
vn 0.9480656 0.296712 -0.1146017
vn 0.9480656 0.296712 -0.1146017
vn 0.9480656 0.296712 -0.1146017
vn 0.9480656 0.296712 -0.1146017
vn 0.9480656 0.296712 -0.1146017
vn 0.9480656 0.296712 -0.1146017
vn 0.9480656 0.296712 -0.1146017
vn 0.9480656 0.296712 -0.1146017
vn 0.9480656 0.296712 -0.1146017
vn 0.9480656 0.296712 -0.1146017
vn 0.296694 0.8562418 -0.4228745
vn 0.296694 0.8562418 -0.4228745
vn 0.296694 0.8562418 -0.4228745
vn 0.296694 0.8562418 -0.4228745
vn 0.296694 0.8562418 -0.4228745
vn 0.296694 0.8562418 -0.4228745
vn 0.296694 0.8562418 -0.4228745
vn 0.296694 0.8562418 -0.4228745
vn 0.296694 0.8562418 -0.4228745
vn 0.296694 0.8562418 -0.4228745
vn 0.296694 0.8562418 -0.4228745
vn 0.296694 0.8562418 -0.4228745
vn 0.1938825 -0.2806753 -0.9400164
vn 0.1938825 -0.2806753 -0.9400164
vn 0.1938825 -0.2806753 -0.9400164
vn 0.1938825 -0.2806753 -0.9400164
vn 0.1938825 -0.2806753 -0.9400164
vn 0.1938825 -0.2806753 -0.9400164
vn 0.1938825 -0.2806753 -0.9400164
vn 0.1938825 -0.2806753 -0.9400164
vn 0.1938825 -0.2806753 -0.9400164
vn 0.1938825 -0.2806753 -0.9400164
vn 0.1938825 -0.2806753 -0.9400164
vn 0.1938825 -0.2806753 -0.9400164
vn 0.1938825 -0.2806753 -0.9400164
vn 0.1938825 -0.2806753 -0.9400164
vn 0.1938825 -0.2806753 -0.9400164
vn 0.1938825 -0.2806753 -0.9400164
vn 0.1938825 -0.2806753 -0.9400164
vn 0.1938825 -0.2806753 -0.9400164
vn 0.1938825 -0.2806753 -0.9400164
vn 0.1938825 -0.2806753 -0.9400164
vn 0.1938825 -0.2806753 -0.9400164
vn 0.1938825 -0.2806753 -0.9400164
vn 0.1938825 -0.2806753 -0.9400164
vn 0.1938825 -0.2806753 -0.9400164
vn -0.05729809 0.5405793 0.8393397
vn -0.05729809 0.5405793 0.8393397
vn -0.05729809 0.5405793 0.8393397
vn -0.05729809 0.5405793 0.8393397
vn -0.05729809 0.5405793 0.8393397
vn -0.05729809 0.5405793 0.8393397
vn -0.05729809 0.5405793 0.8393397
vn -0.05729809 0.5405793 0.8393397
vn -0.05729809 0.5405793 0.8393397
vn 0.06306219 0.7557874 -0.6517735
vn 0.06306219 0.7557874 -0.6517735
vn 0.06306219 0.7557874 -0.6517735
vn 0.06306219 0.7557874 -0.6517735
vn 0.06306219 0.7557874 -0.6517735
vn 0.06306219 0.7557874 -0.6517735
vn 0.06306219 0.7557874 -0.6517735
vn 0.06306219 0.7557874 -0.6517735
vn 0.06306219 0.7557874 -0.6517735
vn 0.06306219 0.7557874 -0.6517735
vn 0.06306219 0.7557874 -0.6517735
vn 0.06306219 0.7557874 -0.6517735
vn 0.06306219 0.7557874 -0.6517735
vn 0.06306219 0.7557874 -0.6517735
vn 0.06306219 0.7557874 -0.6517735
vn 0.1768567 0.9412337 0.2877515
vn 0.1768567 0.9412337 0.2877515
vn 0.1768567 0.9412337 0.2877515
vn 0.1768567 0.9412337 0.2877515
vn 0.1768567 0.9412337 0.2877515
vn 0.1768567 0.9412337 0.2877515
vn 0.1768567 0.9412337 0.2877515
vn 0.1768567 0.9412337 0.2877515
vn 0.1768567 0.9412337 0.2877515

vt 0.7892421 0.2647972
vt 0.7877199 0.275556
vt 0.7840901 0.2558735
vt 0.7840901 0.2558735
vt 0.7877199 0.275556
vt 0.7727265 0.275556
vt 0.7840901 0.2558735
vt 0.7613629 0.2558735
vt 0.7796579 0.2481966
vt 0.7796579 0.2481966
vt 0.7613629 0.2558735
vt 0.7682615 0.2439246
vt 0.7877199 0.275556
vt 0.7839637 0.2887785
vt 0.7727265 0.275556
vt 0.7727265 0.275556
vt 0.7839637 0.2887785
vt 0.7806709 0.2893161
vt 0.7727265 0.275556
vt 0.7806709 0.2893161
vt 0.7636299 0.2913119
vt 0.7727265 0.275556
vt 0.7613629 0.2558735
vt 0.7840901 0.2558735
vt 0.7727265 0.275556
vt 0.7499992 0.275556
vt 0.7613629 0.2558735
vt 0.7499992 0.275556
vt 0.7727265 0.275556
vt 0.759472 0.2919632
vt 0.759472 0.2919632
vt 0.7727265 0.275556
vt 0.7636299 0.2913119
vt 0.7400987 0.2927045
vt 0.7499992 0.275556
vt 0.7426523 0.2940542
vt 0.7426523 0.2940542
vt 0.7499992 0.275556
vt 0.759472 0.2919632
vt 0.7510246 0.237967
vt 0.7682615 0.2439246
vt 0.7613629 0.2558735
vt 0.7613629 0.2558735
vt 0.7386356 0.2558735
vt 0.7510246 0.237967
vt 0.7510246 0.237967
vt 0.7386356 0.2558735
vt 0.7493443 0.2373254
vt 0.7499992 0.275556
vt 0.7386356 0.2558735
vt 0.7613629 0.2558735
vt 0.7340091 0.275556
vt 0.7319707 0.2674176
vt 0.7499992 0.275556
vt 0.7499992 0.275556
vt 0.7319707 0.2674176
vt 0.7386356 0.2558735
vt 0.7340091 0.275556
vt 0.7499992 0.275556
vt 0.7382775 0.2917241
vt 0.7382775 0.2917241
vt 0.7499992 0.275556
vt 0.7400987 0.2927045
vt 0.7336591 0.2472539
vt 0.7467212 0.2363788
vt 0.7386356 0.2558735
vt 0.7386356 0.2558735
vt 0.7467212 0.2363788
vt 0.7493443 0.2373254
vt 0.7287839 0.252918
vt 0.7288449 0.2519086
vt 0.7293722 0.2558735
vt 0.7293722 0.2558735
vt 0.7288449 0.2519086
vt 0.7386356 0.2558735
vt 0.7386356 0.2558735
vt 0.7288449 0.2519086
vt 0.7336591 0.2472539
vt 0.7293722 0.2558735
vt 0.7386356 0.2558735
vt 0.7319707 0.2674176
vt 0.7840901 0.2558735
vt 0.7894795 0.2558735
vt 0.7892421 0.2647972
vt 0.7893144 0.2513912
vt 0.7894795 0.2558735
vt 0.7870659 0.2507192
vt 0.7870659 0.2507192
vt 0.7894795 0.2558735
vt 0.7840901 0.2558735
vt 0.7840901 0.2558735
vt 0.7796579 0.2481966
vt 0.7870659 0.2507192
vt 0.3694573 0.5066683
vt 0.420554 0.5556837
vt 0.3694104 0.5067433
vt 0.3694104 0.5067433
vt 0.420554 0.5556837
vt 0.419293 0.5556462
vt 0.3178637 0.5690813
vt 0.4325078 0.5389952
vt 0.2554507 0.632835
vt 0.3998622 0.5320104
vt 0.394429 0.5358731
vt 0.3950525 0.5287759
vt 0.6509157 0.6105118
vt 0.5959188 0.6630149
vt 0.6720013 0.5673749
vt 0.6720013 0.5673749
vt 0.5959188 0.6630149
vt 0.6726388 0.5249881
vt 0.6726388 0.5249881
vt 0.5959188 0.6630149
vt 0.4070345 0.4325828
vt 0.4070345 0.4325828
vt 0.5959188 0.6630149
vt 0.4185008 0.4517277
vt 0.4185008 0.4517277
vt 0.5959188 0.6630149
vt 0.488236 0.5487551
vt 0.488236 0.5487551
vt 0.5959188 0.6630149
vt 0.5077981 0.5726815
vt 0.3789922 0.4792964
vt 0.3970026 0.4218244
vt 0.3589145 0.5623872
vt 0.3589145 0.5623872
vt 0.3970026 0.4218244
vt 0.3558627 0.5836603
vt 0.3558627 0.5836603
vt 0.3970026 0.4218244
vt 0.3607052 0.5869699
vt 0.3607052 0.5869699
vt 0.3970026 0.4218244
vt 0.3717824 0.5822258
vt 0.3717824 0.5822258
vt 0.3970026 0.4218244
vt 0.5646326 0.3731466
vt 0.5646326 0.3731466
vt 0.3970026 0.4218244
vt 0.556879 0.3468435
vt 0.556879 0.3468435
vt 0.3970026 0.4218244
vt 0.5174643 0.3275392
vt 0.5174643 0.3275392
vt 0.3970026 0.4218244
vt 0.4424599 0.3136962
vt 0.6170044 0.4728367
vt 0.6237642 0.5268633
vt 0.6029223 0.4017513
vt 0.6029223 0.4017513
vt 0.6237642 0.5268633
vt 0.5739331 0.3174558
vt 0.5739331 0.3174558
vt 0.6237642 0.5268633
vt 0.3153463 0.3210889
vt 0.3153463 0.3210889
vt 0.6237642 0.5268633
vt 0.3137197 0.3251672
vt 0.3137197 0.3251672
vt 0.6237642 0.5268633
vt 0.4566826 0.6158465
vt 0.4566826 0.6158465
vt 0.6237642 0.5268633
vt 0.6240923 0.5567056
vt 0.4541419 0.2450532
vt 0.5179893 0.5943859
vt 0.4206196 0.2521974
vt 0.4206196 0.2521974
vt 0.5179893 0.5943859
vt 0.2348339 0.4996367
vt 0.2348339 0.4996367
vt 0.5179893 0.5943859
vt 0.4090408 0.616559
vt 0.4090408 0.616559
vt 0.5179893 0.5943859
vt 0.4700522 0.6084492
vt 0.3769062 0.6004894
vt 0.389024 0.5051401
vt 0.3776562 0.6398573
vt 0.3776562 0.6398573
vt 0.389024 0.5051401
vt 0.3930133 0.6271815
vt 0.3930133 0.6271815
vt 0.389024 0.5051401
vt 0.4020279 0.6182091
vt 0.4020279 0.6182091
vt 0.389024 0.5051401
vt 0.4860421 0.524885
vt 0.4860421 0.524885
vt 0.389024 0.5051401
vt 0.5341621 0.4607329
vt 0.5341621 0.4607329
vt 0.389024 0.5051401
vt 0.5637419 0.416485
vt 0.5637419 0.416485
vt 0.389024 0.5051401
vt 0.5713924 0.4023701
vt 0.5713924 0.4023701
vt 0.389024 0.5051401
vt 0.401306 0.4606625
vt 0.4554263 0.5758036
vt 0.3248156 0.5302853
vt 0.4554591 0.5757098
vt 0.4554591 0.5757098
vt 0.3248156 0.5302853
vt 0.3662508 0.4842139
vt 0.3662508 0.4842139
vt 0.3248156 0.5302853
vt 0.3416119 0.5095748
vt 0.3634523 0.6067147
vt 0.3139682 0.6188279
vt 0.4130676 0.582179
vt 0.4130676 0.582179
vt 0.3139682 0.6188279
vt 0.2260349 0.4152474
vt 0.2260349 0.4152474
vt 0.3139682 0.6188279
vt 0.212581 0.4232682
vt 0.212581 0.4232682
vt 0.3139682 0.6188279
vt 0.2069088 0.4299529
vt 0.2069088 0.4299529
vt 0.3139682 0.6188279
vt 0.2333525 0.4865672
vt 0.4499604 0.3729825
vt 0.4507807 0.3730012
vt 0.4544278 0.4008513
vt 0.4544278 0.4008513
vt 0.4507807 0.3730012
vt 0.4862203 0.3944572
vt 0.4862203 0.3944572
vt 0.4507807 0.3730012
vt 0.4874391 0.3900694

usemtl Material0
usemap Material0
f 1/1/1 2/2/2 3/3/3
f 4/4/4 5/5/5 6/6/6
f 7/7/7 8/8/8 9/9/9
f 10/10/10 11/11/11 12/12/12
f 13/13/13 14/14/14 15/15/15
f 16/16/16 17/17/17 18/18/18
f 19/19/19 20/20/20 21/21/21
f 22/22/22 23/23/23 24/24/24
f 25/25/25 26/26/26 27/27/27
f 28/28/28 29/29/29 30/30/30
f 31/31/31 32/32/32 33/33/33
f 34/34/34 35/35/35 36/36/36
f 37/37/37 38/38/38 39/39/39
f 40/40/40 41/41/41 42/42/42
f 43/43/43 44/44/44 45/45/45
f 46/46/46 47/47/47 48/48/48
f 49/49/49 50/50/50 51/51/51
f 52/52/52 53/53/53 54/54/54
f 55/55/55 56/56/56 57/57/57
f 58/58/58 59/59/59 60/60/60
f 61/61/61 62/62/62 63/63/63
f 64/64/64 65/65/65 66/66/66
f 67/67/67 68/68/68 69/69/69
f 70/70/70 71/71/71 72/72/72
f 73/73/73 74/74/74 75/75/75
f 76/76/76 77/77/77 78/78/78
f 79/79/79 80/80/80 81/81/81
f 82/82/82 83/83/83 84/84/84
f 85/85/85 86/86/86 87/87/87
f 88/88/88 89/89/89 90/90/90
f 91/91/91 92/92/92 93/93/93

usemtl Material1
usemap Material1
f 94/94/94 95/95/95 96/96/96
f 97/97/97 98/98/98 99/99/99
f 100/100/100 101/101/101 102/102/102
f 103/103/103 104/104/104 105/105/105
f 106/106/106 107/107/107 108/108/108
f 109/109/109 110/110/110 111/111/111
f 112/112/112 113/113/113 114/114/114
f 115/115/115 116/116/116 117/117/117
f 118/118/118 119/119/119 120/120/120
f 121/121/121 122/122/122 123/123/123
f 124/124/124 125/125/125 126/126/126
f 127/127/127 128/128/128 129/129/129
f 130/130/130 131/131/131 132/132/132
f 133/133/133 134/134/134 135/135/135
f 136/136/136 137/137/137 138/138/138
f 139/139/139 140/140/140 141/141/141
f 142/142/142 143/143/143 144/144/144
f 145/145/145 146/146/146 147/147/147
f 148/148/148 149/149/149 150/150/150
f 151/151/151 152/152/152 153/153/153
f 154/154/154 155/155/155 156/156/156
f 157/157/157 158/158/158 159/159/159
f 160/160/160 161/161/161 162/162/162
f 163/163/163 164/164/164 165/165/165
f 166/166/166 167/167/167 168/168/168
f 169/169/169 170/170/170 171/171/171
f 172/172/172 173/173/173 174/174/174
f 175/175/175 176/176/176 177/177/177
f 178/178/178 179/179/179 180/180/180
f 181/181/181 182/182/182 183/183/183
f 184/184/184 185/185/185 186/186/186
f 187/187/187 188/188/188 189/189/189
f 190/190/190 191/191/191 192/192/192
f 193/193/193 194/194/194 195/195/195
f 196/196/196 197/197/197 198/198/198
f 199/199/199 200/200/200 201/201/201
f 202/202/202 203/203/203 204/204/204
f 205/205/205 206/206/206 207/207/207
f 208/208/208 209/209/209 210/210/210
f 211/211/211 212/212/212 213/213/213
f 214/214/214 215/215/215 216/216/216
f 217/217/217 218/218/218 219/219/219
f 220/220/220 221/221/221 222/222/222
f 223/223/223 224/224/224 225/225/225
f 226/226/226 227/227/227 228/228/228
f 229/229/229 230/230/230 231/231/231
f 232/232/232 233/233/233 234/234/234
