g  Instance
v 1.041422 -40.11698 0.7826041
v 0.9573371 -40.11296 0.8338655
v 0.9921798 -40.11698 0.8622826
v 1.041422 -40.11698 0.7826041
v 0.9921798 -40.11698 0.8622826
v 1.719756 -40.18118 0.367907
v 1.719756 -40.18118 0.367907
v 0.9921798 -40.11698 0.8622826
v 2.266179 -40.36139 1.400591
v 2.266179 -40.36139 1.400591
v 0.9921798 -40.11698 0.8622826
v 1.559705 -40.2524 1.384317
v 2.266179 -40.36139 1.400591
v 1.559705 -40.2524 1.384317
v 1.993334 -40.40091 1.821303
v 2.837439 -40.83919 2.798155
v 2.966475 -40.87019 2.801186
v 1.993334 -40.40091 1.821303
v 1.993334 -40.40091 1.821303
v 2.966475 -40.87019 2.801186
v 2.266179 -40.36139 1.400591
v 2.905572 -40.88593 2.886625
v 2.966475 -40.87019 2.801186
v 2.837439 -40.83919 2.798155
v 2.905572 -40.88593 2.886625
v 3.120412 -41.0926 3.215721
v 2.966475 -40.87019 2.801186
v 2.966475 -40.87019 2.801186
v 3.120412 -41.0926 3.215721
v 3.168348 -41.11501 3.232169
v 2.762263 -40.43848 0.5573564
v 2.099303 -40.26015 0.1343026
v 2.266179 -40.36139 1.400591
v 2.266179 -40.36139 1.400591
v 2.099303 -40.26015 0.1343026
v 1.719756 -40.18118 0.367907
v 2.266179 -40.36139 1.400591
v 3.429118 -40.73926 1.400592
v 2.762263 -40.43848 0.5573564
v 2.762263 -40.43848 0.5573564
v 3.429118 -40.73926 1.400592
v 3.233853 -40.62532 0.8943223
v 2.266179 -40.36139 1.400591
v 2.966475 -40.87019 2.801186
v 3.429118 -40.73926 1.400592
v 3.429118 -40.73926 1.400592
v 2.966475 -40.87019 2.801186
v 3.579578 -40.87019 1.809137
v 2.966475 -40.87019 2.801186
v 3.920789 -41.26526 2.7776
v 3.579578 -40.87019 1.809137
v 2.966475 -40.87019 2.801186
v 3.168348 -41.11501 3.232169
v 3.920789 -41.26526 2.7776
v 3.920789 -41.26526 2.7776
v 3.168348 -41.11501 3.232169
v 3.956907 -41.3206 2.885895
v 3.956907 -41.3206 2.885895
v 3.168348 -41.11501 3.232169
v 3.241821 -41.15487 3.255861
v 0.9573371 -40.11296 0.8338655
v 1.041422 -40.11698 0.7826041
v 0.9041084 -40.19293 0.8633068
v 0.9041084 -40.19293 0.8633068
v 1.041422 -40.11698 0.7826041
v 0.4490671 -41.65815 1.086494
v 0.4490671 -41.65815 1.086494
v 1.041422 -40.11698 0.7826041
v 0.8112332 -42.4531 0.8373462
v 0.8112332 -42.4531 0.8373462
v 1.041422 -40.11698 0.7826041
v 2.099303 -40.26015 0.1343026
v 2.099303 -40.26015 0.1343026
v 1.041422 -40.11698 0.7826041
v 1.719756 -40.18118 0.367907
v 3.241821 -41.15487 3.255861
v 3.168348 -41.11501 3.232169
v 2.299697 -42.68422 2.387719
v 2.299697 -42.68422 2.387719
v 3.168348 -41.11501 3.232169
v 0.9054033 -42.9059 1.667634
v 0.9054033 -42.9059 1.667634
v 3.168348 -41.11501 3.232169
v 0.6250287 -42.64198 1.608163
v 0.6250287 -42.64198 1.608163
v 3.168348 -41.11501 3.232169
v 0.375742 -41.99278 1.669946
v 0.375742 -41.99278 1.669946
v 3.168348 -41.11501 3.232169
v 0.4414001 -41.67844 1.787913
v 0.4414001 -41.67844 1.787913
v 3.168348 -41.11501 3.232169
v 3.120412 -41.0926 3.215721
v 0.3732126 -41.53169 1.614797
v 0.3304923 -41.7425 1.538714
v 0.4414001 -41.67844 1.787913
v 0.4414001 -41.67844 1.787913
v 0.3304923 -41.7425 1.538714
v 0.375742 -41.99278 1.669946
v 3.294101 -42.60615 2.112586
v 3.402083 -42.44104 2.064909
v 3.462401 -42.42239 2.198274
v 3.429118 -40.73926 1.400592
v 3.579578 -40.87019 1.809137
v 3.233853 -40.62532 0.8943223
v 3.233853 -40.62532 0.8943223
v 3.579578 -40.87019 1.809137
v 3.402083 -42.44104 2.064909
v 3.402083 -42.44104 2.064909
v 3.579578 -40.87019 1.809137
v 3.462401 -42.42239 2.198274
v 3.462401 -42.42239 2.198274
v 3.579578 -40.87019 1.809137
v 3.956907 -41.3206 2.885895
v 3.956907 -41.3206 2.885895
v 3.579578 -40.87019 1.809137
v 3.920789 -41.26526 2.7776
v 0.8014354 -42.96142 1.413925
v 0.6250287 -42.64198 1.608163
v 0.8846937 -42.99832 1.199784
v 0.8846937 -42.99832 1.199784
v 0.6250287 -42.64198 1.608163
v 0.8112332 -42.4531 0.8373462
v 0.8112332 -42.4531 0.8373462
v 0.6250287 -42.64198 1.608163
v 0.4490671 -41.65815 1.086494
v 0.4490671 -41.65815 1.086494
v 0.6250287 -42.64198 1.608163
v 0.3304923 -41.7425 1.538714
v 0.3304923 -41.7425 1.538714
v 0.6250287 -42.64198 1.608163
v 0.375742 -41.99278 1.669946
v 2.299697 -42.68422 2.387719
v 0.9054033 -42.9059 1.667634
v 3.149436 -42.69175 2.095039
v 3.149436 -42.69175 2.095039
v 0.9054033 -42.9059 1.667634
v 0.8846937 -42.99832 1.199784
v 0.8846937 -42.99832 1.199784
v 0.9054033 -42.9059 1.667634
v 0.8014354 -42.96142 1.413925
v 2.905572 -40.88593 2.886625
v 2.837439 -40.83919 2.798155
v 3.120412 -41.0926 3.215721
v 3.120412 -41.0926 3.215721
v 2.837439 -40.83919 2.798155
v 0.4414001 -41.67844 1.787913
v 0.4414001 -41.67844 1.787913
v 2.837439 -40.83919 2.798155
v 0.3732126 -41.53169 1.614797
v 0.3732126 -41.53169 1.614797
v 2.837439 -40.83919 2.798155
v 0.9041084 -40.19293 0.8633068
v 0.9041084 -40.19293 0.8633068
v 2.837439 -40.83919 2.798155
v 0.9573371 -40.11296 0.8338655
v 0.9573371 -40.11296 0.8338655
v 2.837439 -40.83919 2.798155
v 0.9921798 -40.11698 0.8622826
v 0.9921798 -40.11698 0.8622826
v 2.837439 -40.83919 2.798155
v 1.559705 -40.2524 1.384317
v 1.559705 -40.2524 1.384317
v 2.837439 -40.83919 2.798155
v 1.993334 -40.40091 1.821303
v 0.8112332 -42.4531 0.8373462
v 2.099303 -40.26015 0.1343026
v 0.8846937 -42.99832 1.199784
v 0.8846937 -42.99832 1.199784
v 2.099303 -40.26015 0.1343026
v 3.149436 -42.69175 2.095039
v 3.149436 -42.69175 2.095039
v 2.099303 -40.26015 0.1343026
v 3.294101 -42.60615 2.112586
v 3.294101 -42.60615 2.112586
v 2.099303 -40.26015 0.1343026
v 3.402083 -42.44104 2.064909
v 3.402083 -42.44104 2.064909
v 2.099303 -40.26015 0.1343026
v 3.233853 -40.62532 0.8943223
v 3.233853 -40.62532 0.8943223
v 2.099303 -40.26015 0.1343026
v 2.762263 -40.43848 0.5573564
v 0.3304923 -41.7425 1.538714
v 0.3732126 -41.53169 1.614797
v 0.4490671 -41.65815 1.086494
v 0.4490671 -41.65815 1.086494
v 0.3732126 -41.53169 1.614797
v 0.9041084 -40.19293 0.8633068
v 0.6250287 -42.64198 1.608163
v 0.8014354 -42.96142 1.413925
v 0.9054033 -42.9059 1.667634
v 3.462401 -42.42239 2.198274
v 3.956907 -41.3206 2.885895
v 3.294101 -42.60615 2.112586
v 3.294101 -42.60615 2.112586
v 3.956907 -41.3206 2.885895
v 3.149436 -42.69175 2.095039
v 3.149436 -42.69175 2.095039
v 3.956907 -41.3206 2.885895
v 2.299697 -42.68422 2.387719
v 2.299697 -42.68422 2.387719
v 3.956907 -41.3206 2.885895
v 3.241821 -41.15487 3.255861

vn 0.07639253 0.9959593 0.04721579
vn 0.07639253 0.9959593 0.04721579
vn 0.07639253 0.9959593 0.04721579
vn 0.1497442 0.9843839 0.09254668
vn 0.1497442 0.9843839 0.09254668
vn 0.1497442 0.9843839 0.09254668
vn 0.1497442 0.9843839 0.09254668
vn 0.1497442 0.9843839 0.09254668
vn 0.1497442 0.9843839 0.09254668
vn 0.1497442 0.9843839 0.09254668
vn 0.1497442 0.9843839 0.09254668
vn 0.1497442 0.9843839 0.09254668
vn 0.1456481 0.9717462 0.1857307
vn 0.1456481 0.9717462 0.1857307
vn 0.1456481 0.9717462 0.1857307
vn 0.2220407 0.946806 0.2329301
vn 0.2220407 0.946806 0.2329301
vn 0.2220407 0.946806 0.2329301
vn 0.2220407 0.946806 0.2329301
vn 0.2220407 0.946806 0.2329301
vn 0.2220407 0.946806 0.2329301
vn 0.213998 0.9220862 0.3224314
vn 0.213998 0.9220862 0.3224314
vn 0.213998 0.9220862 0.3224314
vn 0.2873623 0.8843984 0.3677804
vn 0.2873623 0.8843984 0.3677804
vn 0.2873623 0.8843984 0.3677804
vn 0.2873623 0.8843984 0.3677804
vn 0.2873623 0.8843984 0.3677804
vn 0.2873623 0.8843984 0.3677804
vn 0.2312548 0.9717469 0.04721364
vn 0.2312548 0.9717469 0.04721364
vn 0.2312548 0.9717469 0.04721364
vn 0.2312548 0.9717469 0.04721364
vn 0.2312548 0.9717469 0.04721364
vn 0.2312548 0.9717469 0.04721364
vn 0.3076367 0.9468066 0.0944289
vn 0.3076367 0.9468066 0.0944289
vn 0.3076367 0.9468066 0.0944289
vn 0.3076367 0.9468066 0.0944289
vn 0.3076367 0.9468066 0.0944289
vn 0.3076367 0.9468066 0.0944289
vn 0.3035315 0.9341714 0.1875963
vn 0.3035315 0.9341714 0.1875963
vn 0.3035315 0.9341714 0.1875963
vn 0.3035315 0.9341714 0.1875963
vn 0.3035315 0.9341714 0.1875963
vn 0.3035315 0.9341714 0.1875963
vn 0.3768879 0.8964924 0.2329309
vn 0.3768879 0.8964924 0.2329309
vn 0.3768879 0.8964924 0.2329309
vn 0.3688637 0.8717669 0.3224314
vn 0.3688637 0.8717669 0.3224314
vn 0.3688637 0.8717669 0.3224314
vn 0.3688637 0.8717669 0.3224314
vn 0.3688637 0.8717669 0.3224314
vn 0.3688637 0.8717669 0.3224314
vn 0.3688637 0.8717669 0.3224314
vn 0.3688637 0.8717669 0.3224314
vn 0.3688637 0.8717669 0.3224314
vn -0.5191956 0.03114511 -0.8540878
vn -0.5191956 0.03114511 -0.8540878
vn -0.5191956 0.03114511 -0.8540878
vn -0.5191956 0.03114511 -0.8540878
vn -0.5191956 0.03114511 -0.8540878
vn -0.5191956 0.03114511 -0.8540878
vn -0.5191956 0.03114511 -0.8540878
vn -0.5191956 0.03114511 -0.8540878
vn -0.5191956 0.03114511 -0.8540878
vn -0.5191956 0.03114511 -0.8540878
vn -0.5191956 0.03114511 -0.8540878
vn -0.5191956 0.03114511 -0.8540878
vn -0.5191956 0.03114511 -0.8540878
vn -0.5191956 0.03114511 -0.8540878
vn -0.5191956 0.03114511 -0.8540878
vn -0.41443 -0.2426148 0.8771464
vn -0.41443 -0.2426148 0.8771464
vn -0.41443 -0.2426148 0.8771464
vn -0.41443 -0.2426148 0.8771464
vn -0.41443 -0.2426148 0.8771464
vn -0.41443 -0.2426148 0.8771464
vn -0.41443 -0.2426148 0.8771464
vn -0.41443 -0.2426148 0.8771464
vn -0.41443 -0.2426148 0.8771464
vn -0.41443 -0.2426148 0.8771464
vn -0.41443 -0.2426148 0.8771464
vn -0.41443 -0.2426148 0.8771464
vn -0.41443 -0.2426148 0.8771464
vn -0.41443 -0.2426148 0.8771464
vn -0.41443 -0.2426148 0.8771464
vn -0.41443 -0.2426148 0.8771464
vn -0.41443 -0.2426148 0.8771464
vn -0.41443 -0.2426148 0.8771464
vn -0.9167891 0.04246688 0.3971075
vn -0.9167891 0.04246688 0.3971075
vn -0.9167891 0.04246688 0.3971075
vn -0.9167891 0.04246688 0.3971075
vn -0.9167891 0.04246688 0.3971075
vn -0.9167891 0.04246688 0.3971075
vn 0.7694514 -0.5802871 -0.266855
vn 0.7694514 -0.5802871 -0.266855
vn 0.7694514 -0.5802871 -0.266855
vn 0.9070585 -0.1655189 -0.3871026
vn 0.9070585 -0.1655189 -0.3871026
vn 0.9070585 -0.1655189 -0.3871026
vn 0.9070585 -0.1655189 -0.3871026
vn 0.9070585 -0.1655189 -0.3871026
vn 0.9070585 -0.1655189 -0.3871026
vn 0.9070585 -0.1655189 -0.3871026
vn 0.9070585 -0.1655189 -0.3871026
vn 0.9070585 -0.1655189 -0.3871026
vn 0.9070585 -0.1655189 -0.3871026
vn 0.9070585 -0.1655189 -0.3871026
vn 0.9070585 -0.1655189 -0.3871026
vn 0.9070585 -0.1655189 -0.3871026
vn 0.9070585 -0.1655189 -0.3871026
vn 0.9070585 -0.1655189 -0.3871026
vn -0.9009163 -0.3178335 -0.2955194
vn -0.9009163 -0.3178335 -0.2955194
vn -0.9009163 -0.3178335 -0.2955194
vn -0.9009163 -0.3178335 -0.2955194
vn -0.9009163 -0.3178335 -0.2955194
vn -0.9009163 -0.3178335 -0.2955194
vn -0.9009163 -0.3178335 -0.2955194
vn -0.9009163 -0.3178335 -0.2955194
vn -0.9009163 -0.3178335 -0.2955194
vn -0.9009163 -0.3178335 -0.2955194
vn -0.9009163 -0.3178335 -0.2955194
vn -0.9009163 -0.3178335 -0.2955194
vn -0.9009163 -0.3178335 -0.2955194
vn -0.9009163 -0.3178335 -0.2955194
vn -0.9009163 -0.3178335 -0.2955194
vn 0.05712106 -0.9799153 0.1910587
vn 0.05712106 -0.9799153 0.1910587
vn 0.05712106 -0.9799153 0.1910587
vn 0.05712106 -0.9799153 0.1910587
vn 0.05712106 -0.9799153 0.1910587
vn 0.05712106 -0.9799153 0.1910587
vn 0.05712106 -0.9799153 0.1910587
vn 0.05712106 -0.9799153 0.1910587
vn 0.05712106 -0.9799153 0.1910587
vn -0.4806533 0.5663963 0.6694533
vn -0.4806533 0.5663963 0.6694533
vn -0.4806533 0.5663963 0.6694533
vn -0.4806533 0.5663963 0.6694533
vn -0.4806533 0.5663963 0.6694533
vn -0.4806533 0.5663963 0.6694533
vn -0.4806533 0.5663963 0.6694533
vn -0.4806533 0.5663963 0.6694533
vn -0.4806533 0.5663963 0.6694533
vn -0.4806533 0.5663963 0.6694533
vn -0.4806533 0.5663963 0.6694533
vn -0.4806533 0.5663963 0.6694533
vn -0.4806533 0.5663963 0.6694533
vn -0.4806533 0.5663963 0.6694533
vn -0.4806533 0.5663963 0.6694533
vn -0.4806533 0.5663963 0.6694533
vn -0.4806533 0.5663963 0.6694533
vn -0.4806533 0.5663963 0.6694533
vn -0.4806533 0.5663963 0.6694533
vn -0.4806533 0.5663963 0.6694533
vn -0.4806533 0.5663963 0.6694533
vn -0.4806533 0.5663963 0.6694533
vn -0.4806533 0.5663963 0.6694533
vn -0.4806533 0.5663963 0.6694533
vn 0.378231 -0.4765834 -0.7936054
vn 0.378231 -0.4765834 -0.7936054
vn 0.378231 -0.4765834 -0.7936054
vn 0.378231 -0.4765834 -0.7936054
vn 0.378231 -0.4765834 -0.7936054
vn 0.378231 -0.4765834 -0.7936054
vn 0.378231 -0.4765834 -0.7936054
vn 0.378231 -0.4765834 -0.7936054
vn 0.378231 -0.4765834 -0.7936054
vn 0.378231 -0.4765834 -0.7936054
vn 0.378231 -0.4765834 -0.7936054
vn 0.378231 -0.4765834 -0.7936054
vn 0.378231 -0.4765834 -0.7936054
vn 0.378231 -0.4765834 -0.7936054
vn 0.378231 -0.4765834 -0.7936054
vn 0.378231 -0.4765834 -0.7936054
vn 0.378231 -0.4765834 -0.7936054
vn 0.378231 -0.4765834 -0.7936054
vn -0.9441527 0.2629785 -0.19854
vn -0.9441527 0.2629785 -0.19854
vn -0.9441527 0.2629785 -0.19854
vn -0.9441527 0.2629785 -0.19854
vn -0.9441527 0.2629785 -0.19854
vn -0.9441527 0.2629785 -0.19854
vn -0.6697672 -0.6191388 0.4099745
vn -0.6697672 -0.6191388 0.4099745
vn -0.6697672 -0.6191388 0.4099745
vn 0.2577386 -0.5921625 0.7634885
vn 0.2577386 -0.5921625 0.7634885
vn 0.2577386 -0.5921625 0.7634885
vn 0.2577386 -0.5921625 0.7634885
vn 0.2577386 -0.5921625 0.7634885
vn 0.2577386 -0.5921625 0.7634885
vn 0.2577386 -0.5921625 0.7634885
vn 0.2577386 -0.5921625 0.7634885
vn 0.2577386 -0.5921625 0.7634885
vn 0.2577386 -0.5921625 0.7634885
vn 0.2577386 -0.5921625 0.7634885
vn 0.2577386 -0.5921625 0.7634885

vt 0.3928827 0.2474831
vt 0.3940907 0.2482228
vt 0.3935465 0.2486328
vt 0.3928827 0.2474831
vt 0.3935465 0.2486328
vt 0.3833782 0.2413612
vt 0.3833782 0.2413612
vt 0.3935465 0.2486328
vt 0.3749996 0.2558735
vt 0.3749996 0.2558735
vt 0.3935465 0.2486328
vt 0.3851353 0.2558735
vt 0.3749996 0.2558735
vt 0.3851353 0.2558735
vt 0.3785062 0.2619471
vt 0.3654868 0.275556
vt 0.363636 0.275556
vt 0.3785062 0.2619471
vt 0.3785062 0.2619471
vt 0.363636 0.275556
vt 0.3749996 0.2558735
vt 0.364388 0.2768585
vt 0.363636 0.275556
vt 0.3654868 0.275556
vt 0.364388 0.2768585
vt 0.3605871 0.2818754
vt 0.363636 0.275556
vt 0.363636 0.275556
vt 0.3605871 0.2818754
vt 0.3598427 0.2821262
vt 0.3681581 0.2440236
vt 0.377967 0.2380784
vt 0.3749996 0.2558735
vt 0.3749996 0.2558735
vt 0.377967 0.2380784
vt 0.3833782 0.2413612
vt 0.3749996 0.2558735
vt 0.3581207 0.2558735
vt 0.3681581 0.2440236
vt 0.3681581 0.2440236
vt 0.3581207 0.2558735
vt 0.3611701 0.2487589
vt 0.3749996 0.2558735
vt 0.363636 0.275556
vt 0.3581207 0.2558735
vt 0.3581207 0.2558735
vt 0.363636 0.275556
vt 0.3555871 0.2616148
vt 0.363636 0.275556
vt 0.3492312 0.275556
vt 0.3555871 0.2616148
vt 0.363636 0.275556
vt 0.3598427 0.2821262
vt 0.3492312 0.275556
vt 0.3492312 0.275556
vt 0.3598427 0.2821262
vt 0.3484992 0.2772014
vt 0.3484992 0.2772014
vt 0.3598427 0.2821262
vt 0.3586901 0.2825105
vt 0.7042438 0.3660821
vt 0.7044407 0.3847113
vt 0.6885585 0.3553799
vt 0.6885585 0.3553799
vt 0.7044407 0.3847113
vt 0.4069641 0.2742768
vt 0.4069641 0.2742768
vt 0.7044407 0.3847113
vt 0.2610854 0.3648164
vt 0.2610854 0.3648164
vt 0.7044407 0.3847113
vt 0.6894117 0.6202999
vt 0.6894117 0.6202999
vt 0.7044407 0.3847113
vt 0.7000061 0.5354137
vt 0.3844113 0.08793321
vt 0.3990512 0.09803066
vt 0.2116622 0.4580187
vt 0.2116622 0.4580187
vt 0.3990512 0.09803066
vt 0.3167011 0.7649927
vt 0.3167011 0.7649927
vt 0.3990512 0.09803066
vt 0.3923289 0.7903441
vt 0.3923289 0.7903441
vt 0.3990512 0.09803066
vt 0.5328026 0.7640082
vt 0.5328026 0.7640082
vt 0.3990512 0.09803066
vt 0.5815461 0.7137178
vt 0.5815461 0.7137178
vt 0.3990512 0.09803066
vt 0.407972 0.1050436
vt 0.4582155 0.5290853
vt 0.435447 0.5379733
vt 0.4428537 0.508881
vt 0.4428537 0.508881
vt 0.435447 0.5379733
vt 0.4088908 0.5226536
vt 0.5134703 0.362946
vt 0.4933879 0.36799
vt 0.4881657 0.3538751
vt 0.4019435 0.4277309
vt 0.4128004 0.3804876
vt 0.3937306 0.4862765
vt 0.3937306 0.4862765
vt 0.4128004 0.3804876
vt 0.5809648 0.3509125
vt 0.5809648 0.3509125
vt 0.4128004 0.3804876
vt 0.5778521 0.3354897
vt 0.5778521 0.3354897
vt 0.4128004 0.3804876
vt 0.4528199 0.2559757
vt 0.4528199 0.2559757
vt 0.4128004 0.3804876
vt 0.4477102 0.2685015
vt 0.3691573 0.4320203
vt 0.4061953 0.4110987
vt 0.3627256 0.4550888
vt 0.3627256 0.4550888
vt 0.4061953 0.4110987
vt 0.4181539 0.4941332
vt 0.4181539 0.4941332
vt 0.4061953 0.4110987
vt 0.507695 0.4672957
vt 0.507695 0.4672957
vt 0.4061953 0.4110987
vt 0.5035697 0.4185804
vt 0.5035697 0.4185804
vt 0.4061953 0.4110987
vt 0.4777307 0.4044468
vt 0.4637659 0.4128332
vt 0.6044693 0.486314
vt 0.3788516 0.4426943
vt 0.3788516 0.4426943
vt 0.6044693 0.486314
vt 0.607085 0.5340449
vt 0.607085 0.5340449
vt 0.6044693 0.486314
vt 0.6151949 0.5121999
vt 0.6217109 0.3114367
vt 0.6188326 0.327197
vt 0.6256955 0.2528068
vt 0.6256955 0.2528068
vt 0.6188326 0.327197
vt 0.3051973 0.5071746
vt 0.3051973 0.5071746
vt 0.6188326 0.327197
vt 0.3108836 0.5380201
vt 0.3108836 0.5380201
vt 0.6188326 0.327197
vt 0.4790855 0.6718935
vt 0.4790855 0.6718935
vt 0.6188326 0.327197
vt 0.4913065 0.6771345
vt 0.4913065 0.6771345
vt 0.6188326 0.327197
vt 0.4944755 0.6720716
vt 0.4944755 0.6720716
vt 0.6188326 0.327197
vt 0.5401437 0.5790756
vt 0.5401437 0.5790756
vt 0.6188326 0.327197
vt 0.5711861 0.5012211
vt 0.7499589 0.5151532
vt 0.3666634 0.7018577
vt 0.7954303 0.4189039
vt 0.7954303 0.4189039
vt 0.3666634 0.7018577
vt 0.4779979 0.1811542
vt 0.4779979 0.1811542
vt 0.3666634 0.7018577
vt 0.4510901 0.1764946
vt 0.4510901 0.1764946
vt 0.3666634 0.7018577
vt 0.4208399 0.1891562
vt 0.4208399 0.1891562
vt 0.3666634 0.7018577
vt 0.2597494 0.5000305
vt 0.2597494 0.5000305
vt 0.3666634 0.7018577
vt 0.3006689 0.5895106
vt 0.404203 0.4407254
vt 0.4257199 0.4329438
vt 0.4155428 0.4870172
vt 0.4155428 0.4870172
vt 0.4257199 0.4329438
vt 0.5693673 0.509856
vt 0.4819497 0.5460644
vt 0.4437585 0.5690157
vt 0.4405473 0.5390421
vt 0.3475841 0.5931858
vt 0.2116247 0.4311155
vt 0.3822362 0.6133807
vt 0.3822362 0.6133807
vt 0.2116247 0.4311155
vt 0.4076298 0.6175154
vt 0.4076298 0.6175154
vt 0.2116247 0.4311155
vt 0.525771 0.5485395
vt 0.525771 0.5485395
vt 0.2116247 0.4311155
vt 0.3013721 0.3439089

usemtl Material0
usemap Material0
f 1/1/1 2/2/2 3/3/3
f 4/4/4 5/5/5 6/6/6
f 7/7/7 8/8/8 9/9/9
f 10/10/10 11/11/11 12/12/12
f 13/13/13 14/14/14 15/15/15
f 16/16/16 17/17/17 18/18/18
f 19/19/19 20/20/20 21/21/21
f 22/22/22 23/23/23 24/24/24
f 25/25/25 26/26/26 27/27/27
f 28/28/28 29/29/29 30/30/30
f 31/31/31 32/32/32 33/33/33
f 34/34/34 35/35/35 36/36/36
f 37/37/37 38/38/38 39/39/39
f 40/40/40 41/41/41 42/42/42
f 43/43/43 44/44/44 45/45/45
f 46/46/46 47/47/47 48/48/48
f 49/49/49 50/50/50 51/51/51
f 52/52/52 53/53/53 54/54/54
f 55/55/55 56/56/56 57/57/57
f 58/58/58 59/59/59 60/60/60

usemtl Material1
usemap Material1
f 61/61/61 62/62/62 63/63/63
f 64/64/64 65/65/65 66/66/66
f 67/67/67 68/68/68 69/69/69
f 70/70/70 71/71/71 72/72/72
f 73/73/73 74/74/74 75/75/75
f 76/76/76 77/77/77 78/78/78
f 79/79/79 80/80/80 81/81/81
f 82/82/82 83/83/83 84/84/84
f 85/85/85 86/86/86 87/87/87
f 88/88/88 89/89/89 90/90/90
f 91/91/91 92/92/92 93/93/93
f 94/94/94 95/95/95 96/96/96
f 97/97/97 98/98/98 99/99/99
f 100/100/100 101/101/101 102/102/102
f 103/103/103 104/104/104 105/105/105
f 106/106/106 107/107/107 108/108/108
f 109/109/109 110/110/110 111/111/111
f 112/112/112 113/113/113 114/114/114
f 115/115/115 116/116/116 117/117/117
f 118/118/118 119/119/119 120/120/120
f 121/121/121 122/122/122 123/123/123
f 124/124/124 125/125/125 126/126/126
f 127/127/127 128/128/128 129/129/129
f 130/130/130 131/131/131 132/132/132
f 133/133/133 134/134/134 135/135/135
f 136/136/136 137/137/137 138/138/138
f 139/139/139 140/140/140 141/141/141
f 142/142/142 143/143/143 144/144/144
f 145/145/145 146/146/146 147/147/147
f 148/148/148 149/149/149 150/150/150
f 151/151/151 152/152/152 153/153/153
f 154/154/154 155/155/155 156/156/156
f 157/157/157 158/158/158 159/159/159
f 160/160/160 161/161/161 162/162/162
f 163/163/163 164/164/164 165/165/165
f 166/166/166 167/167/167 168/168/168
f 169/169/169 170/170/170 171/171/171
f 172/172/172 173/173/173 174/174/174
f 175/175/175 176/176/176 177/177/177
f 178/178/178 179/179/179 180/180/180
f 181/181/181 182/182/182 183/183/183
f 184/184/184 185/185/185 186/186/186
f 187/187/187 188/188/188 189/189/189
f 190/190/190 191/191/191 192/192/192
f 193/193/193 194/194/194 195/195/195
f 196/196/196 197/197/197 198/198/198
f 199/199/199 200/200/200 201/201/201
f 202/202/202 203/203/203 204/204/204
