g  Instance
v 0.8399318 -53.68424 2.977454
v 0.4245257 -52.51695 3.633314
v 1.167368 -53.94194 3.949174
v 1.167368 -53.94194 3.949174
v 0.4245257 -52.51695 3.633314
v 0.6686913 -52.72025 4.332884
v 0.6686913 -52.72025 4.332884
v 0.4245257 -52.51695 3.633314
v 0.533742 -52.56392 4.045046
v -0.482154 -53.95978 5.674014
v 0.07890003 -53.02129 4.98268
v -0.8326427 -53.44214 4.848027
v 0.4372025 -55.81401 2.743817
v 0.5330191 -55.61832 2.42977
v 1.193437 -55.15569 3.219428
v 1.193437 -55.15569 3.219428
v 0.5330191 -55.61832 2.42977
v 0.9408397 -55.15764 2.334012
v -1.567533 -53.89583 3.839619
v -1.1852 -55.12339 2.795516
v -0.8145904 -55.14622 5.679091
v -0.8145904 -55.14622 5.679091
v -1.1852 -55.12339 2.795516
v -0.6961445 -56.03972 3.642607
v -0.6961445 -56.03972 3.642607
v -1.1852 -55.12339 2.795516
v -1.144616 -55.22517 2.779893
v 0.8399318 -53.68424 2.977454
v 1.167368 -53.94194 3.949174
v 0.9043765 -55.02723 2.2946
v 0.9043765 -55.02723 2.2946
v 1.167368 -53.94194 3.949174
v 0.9408397 -55.15764 2.334012
v 0.9408397 -55.15764 2.334012
v 1.167368 -53.94194 3.949174
v 1.193437 -55.15569 3.219428
v 1.193437 -55.15569 3.219428
v 1.167368 -53.94194 3.949174
v 1.311179 -54.77061 3.891991
v 1.167368 -53.94194 3.949174
v 0.6686913 -52.72025 4.332884
v 1.311179 -54.77061 3.891991
v 1.311179 -54.77061 3.891991
v 0.6686913 -52.72025 4.332884
v -0.6087363 -54.91734 5.913708
v -0.6087363 -54.91734 5.913708
v 0.6686913 -52.72025 4.332884
v -0.482154 -53.95978 5.674014
v -0.482154 -53.95978 5.674014
v 0.6686913 -52.72025 4.332884
v 0.07890003 -53.02129 4.98268
v 0.07890003 -53.02129 4.98268
v 0.6686913 -52.72025 4.332884
v 0.2628354 -52.87844 4.774535
v 0.5330191 -55.61832 2.42977
v 0.4372025 -55.81401 2.743817
v 0.07938541 -55.36119 2.321145
v 0.07938541 -55.36119 2.321145
v 0.4372025 -55.81401 2.743817
v -1.144616 -55.22517 2.779893
v -1.144616 -55.22517 2.779893
v 0.4372025 -55.81401 2.743817
v -0.6961445 -56.03972 3.642607
v 0.533742 -52.56392 4.045046
v 0.2628354 -52.87844 4.774535
v 0.6686913 -52.72025 4.332884
v 0.5330191 -55.61832 2.42977
v 0.07938541 -55.36119 2.321145
v 0.9408397 -55.15764 2.334012
v 0.9408397 -55.15764 2.334012
v 0.07938541 -55.36119 2.321145
v 0.9043765 -55.02723 2.2946
v 0.9043765 -55.02723 2.2946
v 0.07938541 -55.36119 2.321145
v 0.1301088 -55.27982 2.302503
v 0.9043765 -55.02723 2.2946
v 0.1301088 -55.27982 2.302503
v 0.8399318 -53.68424 2.977454
v 0.8399318 -53.68424 2.977454
v 0.1301088 -55.27982 2.302503
v 0.4245257 -52.51695 3.633314
v 0.4245257 -52.51695 3.633314
v 0.1301088 -55.27982 2.302503
v -1.025718 -53.21521 3.535544
v -1.025718 -53.21521 3.535544
v 0.1301088 -55.27982 2.302503
v -1.0025 -54.82093 2.728407
v -0.6087363 -54.91734 5.913708
v -0.482154 -53.95978 5.674014
v -0.8145904 -55.14622 5.679091
v -0.8145904 -55.14622 5.679091
v -0.482154 -53.95978 5.674014
v -1.567533 -53.89583 3.839619
v -1.567533 -53.89583 3.839619
v -0.482154 -53.95978 5.674014
v -1.434912 -53.50264 3.875258
v -1.434912 -53.50264 3.875258
v -0.482154 -53.95978 5.674014
v -0.8326427 -53.44214 4.848027
v -0.6961445 -56.03972 3.642607
v 0.4372025 -55.81401 2.743817
v -0.8145904 -55.14622 5.679091
v -0.8145904 -55.14622 5.679091
v 0.4372025 -55.81401 2.743817
v -0.6087363 -54.91734 5.913708
v -0.6087363 -54.91734 5.913708
v 0.4372025 -55.81401 2.743817
v 1.311179 -54.77061 3.891991
v 1.311179 -54.77061 3.891991
v 0.4372025 -55.81401 2.743817
v 1.193437 -55.15569 3.219428
v 0.533742 -52.56392 4.045046
v 0.4245257 -52.51695 3.633314
v 0.2628354 -52.87844 4.774535
v 0.2628354 -52.87844 4.774535
v 0.4245257 -52.51695 3.633314
v 0.07890003 -53.02129 4.98268
v 0.07890003 -53.02129 4.98268
v 0.4245257 -52.51695 3.633314
v -0.8326427 -53.44214 4.848027
v -0.8326427 -53.44214 4.848027
v 0.4245257 -52.51695 3.633314
v -1.434912 -53.50264 3.875258
v -1.434912 -53.50264 3.875258
v 0.4245257 -52.51695 3.633314
v -1.025718 -53.21521 3.535544
v -1.025718 -53.21521 3.535544
v -1.0025 -54.82093 2.728407
v -1.434912 -53.50264 3.875258
v -1.434912 -53.50264 3.875258
v -1.0025 -54.82093 2.728407
v -1.567533 -53.89583 3.839619
v -1.567533 -53.89583 3.839619
v -1.0025 -54.82093 2.728407
v -1.1852 -55.12339 2.795516
v -1.144616 -55.22517 2.779893
v -1.1852 -55.12339 2.795516
v 0.07938541 -55.36119 2.321145
v 0.07938541 -55.36119 2.321145
v -1.1852 -55.12339 2.795516
v 0.1301088 -55.27982 2.302503
v 0.1301088 -55.27982 2.302503
v -1.1852 -55.12339 2.795516
v -1.0025 -54.82093 2.728407

vn 0.887453 0.421095 -0.1873665
vn 0.887453 0.421095 -0.1873665
vn 0.887453 0.421095 -0.1873665
vn 0.887453 0.421095 -0.1873665
vn 0.887453 0.421095 -0.1873665
vn 0.887453 0.421095 -0.1873665
vn 0.887453 0.421095 -0.1873665
vn 0.887453 0.421095 -0.1873665
vn 0.887453 0.421095 -0.1873665
vn -0.4061354 0.6868247 0.6027653
vn -0.4061354 0.6868247 0.6027653
vn -0.4061354 0.6868247 0.6027653
vn 0.7121857 -0.6723918 -0.2016948
vn 0.7121857 -0.6723918 -0.2016948
vn 0.7121857 -0.6723918 -0.2016948
vn 0.7121857 -0.6723918 -0.2016948
vn 0.7121857 -0.6723918 -0.2016948
vn 0.7121857 -0.6723918 -0.2016948
vn -0.916557 -0.3830822 0.1147669
vn -0.916557 -0.3830822 0.1147669
vn -0.916557 -0.3830822 0.1147669
vn -0.916557 -0.3830822 0.1147669
vn -0.916557 -0.3830822 0.1147669
vn -0.916557 -0.3830822 0.1147669
vn -0.916557 -0.3830822 0.1147669
vn -0.916557 -0.3830822 0.1147669
vn -0.916557 -0.3830822 0.1147669
vn 0.9453412 0.1826956 -0.2700973
vn 0.9453412 0.1826956 -0.2700973
vn 0.9453412 0.1826956 -0.2700973
vn 0.9453412 0.1826956 -0.2700973
vn 0.9453412 0.1826956 -0.2700973
vn 0.9453412 0.1826956 -0.2700973
vn 0.9453412 0.1826956 -0.2700973
vn 0.9453412 0.1826956 -0.2700973
vn 0.9453412 0.1826956 -0.2700973
vn 0.9453412 0.1826956 -0.2700973
vn 0.9453412 0.1826956 -0.2700973
vn 0.9453412 0.1826956 -0.2700973
vn 0.7201415 0.07739667 0.6894969
vn 0.7201415 0.07739667 0.6894969
vn 0.7201415 0.07739667 0.6894969
vn 0.7201415 0.07739667 0.6894969
vn 0.7201415 0.07739667 0.6894969
vn 0.7201415 0.07739667 0.6894969
vn 0.7201415 0.07739667 0.6894969
vn 0.7201415 0.07739667 0.6894969
vn 0.7201415 0.07739667 0.6894969
vn 0.7201415 0.07739667 0.6894969
vn 0.7201415 0.07739667 0.6894969
vn 0.7201415 0.07739667 0.6894969
vn 0.7201415 0.07739667 0.6894969
vn 0.7201415 0.07739667 0.6894969
vn 0.7201415 0.07739667 0.6894969
vn -0.2983247 -0.7665576 -0.5686758
vn -0.2983247 -0.7665576 -0.5686758
vn -0.2983247 -0.7665576 -0.5686758
vn -0.2983247 -0.7665576 -0.5686758
vn -0.2983247 -0.7665576 -0.5686758
vn -0.2983247 -0.7665576 -0.5686758
vn -0.2983247 -0.7665576 -0.5686758
vn -0.2983247 -0.7665576 -0.5686758
vn -0.2983247 -0.7665576 -0.5686758
vn 0.1192478 0.8948677 0.430107
vn 0.1192478 0.8948677 0.430107
vn 0.1192478 0.8948677 0.430107
vn 0.07777166 -0.2684313 -0.9601542
vn 0.07777166 -0.2684313 -0.9601542
vn 0.07777166 -0.2684313 -0.9601542
vn 0.07777166 -0.2684313 -0.9601542
vn 0.07777166 -0.2684313 -0.9601542
vn 0.07777166 -0.2684313 -0.9601542
vn 0.07777166 -0.2684313 -0.9601542
vn 0.07777166 -0.2684313 -0.9601542
vn 0.07777166 -0.2684313 -0.9601542
vn -0.1532419 0.442044 -0.8838066
vn -0.1532419 0.442044 -0.8838066
vn -0.1532419 0.442044 -0.8838066
vn -0.1532419 0.442044 -0.8838066
vn -0.1532419 0.442044 -0.8838066
vn -0.1532419 0.442044 -0.8838066
vn -0.1532419 0.442044 -0.8838066
vn -0.1532419 0.442044 -0.8838066
vn -0.1532419 0.442044 -0.8838066
vn -0.1532419 0.442044 -0.8838066
vn -0.1532419 0.442044 -0.8838066
vn -0.1532419 0.442044 -0.8838066
vn -0.8328123 0.2354907 0.5009669
vn -0.8328123 0.2354907 0.5009669
vn -0.8328123 0.2354907 0.5009669
vn -0.8328123 0.2354907 0.5009669
vn -0.8328123 0.2354907 0.5009669
vn -0.8328123 0.2354907 0.5009669
vn -0.8328123 0.2354907 0.5009669
vn -0.8328123 0.2354907 0.5009669
vn -0.8328123 0.2354907 0.5009669
vn -0.8328123 0.2354907 0.5009669
vn -0.8328123 0.2354907 0.5009669
vn -0.8328123 0.2354907 0.5009669
vn 0.4604298 -0.8027286 0.3789873
vn 0.4604298 -0.8027286 0.3789873
vn 0.4604298 -0.8027286 0.3789873
vn 0.4604298 -0.8027286 0.3789873
vn 0.4604298 -0.8027286 0.3789873
vn 0.4604298 -0.8027286 0.3789873
vn 0.4604298 -0.8027286 0.3789873
vn 0.4604298 -0.8027286 0.3789873
vn 0.4604298 -0.8027286 0.3789873
vn 0.4604298 -0.8027286 0.3789873
vn 0.4604298 -0.8027286 0.3789873
vn 0.4604298 -0.8027286 0.3789873
vn -0.4353758 0.8741521 0.2151884
vn -0.4353758 0.8741521 0.2151884
vn -0.4353758 0.8741521 0.2151884
vn -0.4353758 0.8741521 0.2151884
vn -0.4353758 0.8741521 0.2151884
vn -0.4353758 0.8741521 0.2151884
vn -0.4353758 0.8741521 0.2151884
vn -0.4353758 0.8741521 0.2151884
vn -0.4353758 0.8741521 0.2151884
vn -0.4353758 0.8741521 0.2151884
vn -0.4353758 0.8741521 0.2151884
vn -0.4353758 0.8741521 0.2151884
vn -0.4353758 0.8741521 0.2151884
vn -0.4353758 0.8741521 0.2151884
vn -0.4353758 0.8741521 0.2151884
vn -0.7253516 0.3007554 -0.6192023
vn -0.7253516 0.3007554 -0.6192023
vn -0.7253516 0.3007554 -0.6192023
vn -0.7253516 0.3007554 -0.6192023
vn -0.7253516 0.3007554 -0.6192023
vn -0.7253516 0.3007554 -0.6192023
vn -0.7253516 0.3007554 -0.6192023
vn -0.7253516 0.3007554 -0.6192023
vn -0.7253516 0.3007554 -0.6192023
vn -0.350554 0.003976669 -0.9365342
vn -0.350554 0.003976669 -0.9365342
vn -0.350554 0.003976669 -0.9365342
vn -0.350554 0.003976669 -0.9365342
vn -0.350554 0.003976669 -0.9365342
vn -0.350554 0.003976669 -0.9365342
vn -0.350554 0.003976669 -0.9365342
vn -0.350554 0.003976669 -0.9365342
vn -0.350554 0.003976669 -0.9365342

vt 0.4481603 0.5562931
vt 0.3247875 0.4894642
vt 0.4855077 0.4572873
vt 0.4855077 0.4572873
vt 0.3247875 0.4894642
vt 0.3536454 0.4181913
vt 0.3536454 0.4181913
vt 0.3247875 0.4894642
vt 0.3337224 0.4475181
vt 0.4536356 0.3657914
vt 0.5719924 0.4725367
vt 0.4489291 0.4933363
vt 0.5690204 0.5742847
vt 0.5481316 0.6064709
vt 0.4688615 0.5255507
vt 0.4688615 0.5255507
vt 0.5481316 0.6064709
vt 0.4864078 0.6162872
vt 0.6080789 0.5049526
vt 0.4813966 0.6089649
vt 0.4651769 0.3216983
vt 0.4651769 0.3216983
vt 0.4813966 0.6089649
vt 0.3790625 0.5245756
vt 0.3790625 0.5245756
vt 0.4813966 0.6089649
vt 0.4705538 0.6105212
vt 0.4244542 0.5516053
vt 0.4566311 0.448554
vt 0.5603386 0.624022
vt 0.5603386 0.624022
vt 0.4566311 0.448554
vt 0.5741206 0.6198405
vt 0.5741206 0.6198405
vt 0.4566311 0.448554
vt 0.5788178 0.5259445
vt 0.5788178 0.5259445
vt 0.4566311 0.448554
vt 0.542497 0.45462
vt 0.4334594 0.5775568
vt 0.2613573 0.5056464
vt 0.5473816 0.588273
vt 0.5473816 0.588273
vt 0.2613573 0.5056464
vt 0.5393374 0.2094027
vt 0.5393374 0.2094027
vt 0.2613573 0.5056464
vt 0.4119425 0.2543209
vt 0.4119425 0.2543209
vt 0.2613573 0.5056464
vt 0.2934263 0.3838769
vt 0.2934263 0.3838769
vt 0.2613573 0.5056464
vt 0.2768176 0.4228838
vt 0.3985121 0.5642998
vt 0.4007013 0.518669
vt 0.4601844 0.5800882
vt 0.4601844 0.5800882
vt 0.4007013 0.518669
vt 0.602416 0.5134187
vt 0.602416 0.5134187
vt 0.4007013 0.518669
vt 0.5171549 0.3880677
vt 0.5028103 0.5598745
vt 0.478087 0.4718804
vt 0.5196207 0.5251569
vt 0.559176 0.4569452
vt 0.5318745 0.5018118
vt 0.512889 0.4166069
vt 0.512889 0.4166069
vt 0.5318745 0.5018118
vt 0.4994538 0.4202118
vt 0.4994538 0.4202118
vt 0.5318745 0.5018118
vt 0.5236521 0.4967959
vt 0.5991533 0.7845875
vt 0.428045 0.7810342
vt 0.6787798 0.4778948
vt 0.6787798 0.4778948
vt 0.428045 0.7810342
vt 0.6766516 0.1833246
vt 0.6766516 0.1833246
vt 0.428045 0.7810342
vt 0.340665 0.2272397
vt 0.340665 0.2272397
vt 0.428045 0.7810342
vt 0.2347636 0.5897544
vt 0.4170147 0.3206013
vt 0.5255929 0.3520563
vt 0.3856348 0.3513953
vt 0.3856348 0.3513953
vt 0.5255929 0.3520563
vt 0.4990413 0.5928202
vt 0.4990413 0.5928202
vt 0.5255929 0.3520563
vt 0.5461159 0.5881418
vt 0.5461159 0.5881418
vt 0.5255929 0.3520563
vt 0.5713455 0.4604657
vt 0.6518627 0.5464488
vt 0.5354934 0.6496266
vt 0.6155512 0.3126696
vt 0.6155512 0.3126696
vt 0.5354934 0.6496266
vt 0.58449 0.2857337
vt 0.58449 0.2857337
vt 0.5354934 0.6496266
vt 0.3998059 0.5178252
vt 0.3998059 0.5178252
vt 0.5354934 0.6496266
vt 0.4310077 0.5950328
vt 0.6089977 0.5024775
vt 0.6012629 0.5449206
vt 0.5704736 0.4272715
vt 0.5704736 0.4272715
vt 0.6012629 0.5449206
vt 0.5474941 0.4058156
vt 0.5474941 0.4058156
vt 0.6012629 0.5449206
vt 0.4464586 0.4197008
vt 0.4464586 0.4197008
vt 0.6012629 0.5449206
vt 0.3894741 0.5199816
vt 0.3894741 0.5199816
vt 0.6012629 0.5449206
vt 0.4392441 0.5549992
vt 0.5779365 0.3971104
vt 0.3933415 0.5257944
vt 0.5250678 0.3429433
vt 0.5250678 0.3429433
vt 0.3933415 0.5257944
vt 0.4732305 0.3486248
vt 0.4732305 0.3486248
vt 0.3933415 0.5257944
vt 0.3496046 0.5150875
vt 0.569836 0.5660624
vt 0.559148 0.5706189
vt 0.5843306 0.4288748
vt 0.5843306 0.4288748
vt 0.559148 0.5706189
vt 0.5757989 0.4231885
vt 0.5757989 0.4231885
vt 0.559148 0.5706189
vt 0.5274398 0.5501333

usemtl Material0
usemap Material0

usemtl Material1
usemap Material1
f 1/1/1 2/2/2 3/3/3
f 4/4/4 5/5/5 6/6/6
f 7/7/7 8/8/8 9/9/9
f 10/10/10 11/11/11 12/12/12
f 13/13/13 14/14/14 15/15/15
f 16/16/16 17/17/17 18/18/18
f 19/19/19 20/20/20 21/21/21
f 22/22/22 23/23/23 24/24/24
f 25/25/25 26/26/26 27/27/27
f 28/28/28 29/29/29 30/30/30
f 31/31/31 32/32/32 33/33/33
f 34/34/34 35/35/35 36/36/36
f 37/37/37 38/38/38 39/39/39
f 40/40/40 41/41/41 42/42/42
f 43/43/43 44/44/44 45/45/45
f 46/46/46 47/47/47 48/48/48
f 49/49/49 50/50/50 51/51/51
f 52/52/52 53/53/53 54/54/54
f 55/55/55 56/56/56 57/57/57
f 58/58/58 59/59/59 60/60/60
f 61/61/61 62/62/62 63/63/63
f 64/64/64 65/65/65 66/66/66
f 67/67/67 68/68/68 69/69/69
f 70/70/70 71/71/71 72/72/72
f 73/73/73 74/74/74 75/75/75
f 76/76/76 77/77/77 78/78/78
f 79/79/79 80/80/80 81/81/81
f 82/82/82 83/83/83 84/84/84
f 85/85/85 86/86/86 87/87/87
f 88/88/88 89/89/89 90/90/90
f 91/91/91 92/92/92 93/93/93
f 94/94/94 95/95/95 96/96/96
f 97/97/97 98/98/98 99/99/99
f 100/100/100 101/101/101 102/102/102
f 103/103/103 104/104/104 105/105/105
f 106/106/106 107/107/107 108/108/108
f 109/109/109 110/110/110 111/111/111
f 112/112/112 113/113/113 114/114/114
f 115/115/115 116/116/116 117/117/117
f 118/118/118 119/119/119 120/120/120
f 121/121/121 122/122/122 123/123/123
f 124/124/124 125/125/125 126/126/126
f 127/127/127 128/128/128 129/129/129
f 130/130/130 131/131/131 132/132/132
f 133/133/133 134/134/134 135/135/135
f 136/136/136 137/137/137 138/138/138
f 139/139/139 140/140/140 141/141/141
f 142/142/142 143/143/143 144/144/144
