g  Instance
v 1.007044 -47.57938 7.423435
v -0.2358388 -45.76905 6.728374
v 0.8950355 -47.8587 7.178644
v 0.8950355 -47.8587 7.178644
v -0.2358388 -45.76905 6.728374
v 0.7610158 -47.95275 6.984614
v 0.7610158 -47.95275 6.984614
v -0.2358388 -45.76905 6.728374
v -0.1148787 -47.38758 6.202236
v -0.1148787 -47.38758 6.202236
v -0.2358388 -45.76905 6.728374
v -0.6040066 -46.46979 6.013236
v -0.6040066 -46.46979 6.013236
v -0.2358388 -45.76905 6.728374
v -0.5854542 -45.92874 6.257476
v -0.5854542 -45.92874 6.257476
v -0.2358388 -45.76905 6.728374
v -0.4328791 -45.68545 6.534445
v 2.153845 -46.09867 4.534046
v 2.175865 -46.07283 4.56035
v 2.186892 -46.11099 4.540967
v 2.744504 -47.09275 6.352475
v 0.8950355 -47.8587 7.178644
v 2.656817 -47.37221 4.790135
v 2.656817 -47.37221 4.790135
v 0.8950355 -47.8587 7.178644
v 0.7610158 -47.95275 6.984614
v -0.1148787 -47.38758 6.202236
v 0.06606209 -46.83875 4.929269
v 0.7610158 -47.95275 6.984614
v 0.7610158 -47.95275 6.984614
v 0.06606209 -46.83875 4.929269
v 2.656817 -47.37221 4.790135
v 2.656817 -47.37221 4.790135
v 0.06606209 -46.83875 4.929269
v 2.627483 -47.32084 4.694007
v 2.627483 -47.32084 4.694007
v 0.06606209 -46.83875 4.929269
v 2.381453 -47.16916 4.489497
v 2.381453 -47.16916 4.489497
v 0.06606209 -46.83875 4.929269
v 1.042352 -46.72746 4.203676
v 1.042352 -46.72746 4.203676
v 0.06606209 -46.83875 4.929269
v 0.3924296 -46.73463 4.542493
v 1.760994 -44.99848 6.368806
v -0.1786748 -45.52796 6.630191
v 2.101438 -45.21844 6.448479
v 2.101438 -45.21844 6.448479
v -0.1786748 -45.52796 6.630191
v 2.534472 -46.31316 6.876822
v 2.534472 -46.31316 6.876822
v -0.1786748 -45.52796 6.630191
v 2.597803 -46.67694 7.021196
v 2.597803 -46.67694 7.021196
v -0.1786748 -45.52796 6.630191
v 1.007044 -47.57938 7.423435
v 1.007044 -47.57938 7.423435
v -0.1786748 -45.52796 6.630191
v -0.2358388 -45.76905 6.728374
v 2.381453 -47.16916 4.489497
v 1.042352 -46.72746 4.203676
v 2.477891 -46.94678 4.533863
v 2.477891 -46.94678 4.533863
v 1.042352 -46.72746 4.203676
v 2.186892 -46.11099 4.540967
v 2.186892 -46.11099 4.540967
v 1.042352 -46.72746 4.203676
v 2.153845 -46.09867 4.534046
v -0.6040066 -46.46979 6.013236
v 0.06606209 -46.83875 4.929269
v -0.1148787 -47.38758 6.202236
v 0.06606209 -46.83875 4.929269
v -0.6040066 -46.46979 6.013236
v 0.3924296 -46.73463 4.542493
v 0.3924296 -46.73463 4.542493
v -0.6040066 -46.46979 6.013236
v -0.5854542 -45.92874 6.257476
v 0.8950355 -47.8587 7.178644
v 2.744504 -47.09275 6.352475
v 1.007044 -47.57938 7.423435
v 1.007044 -47.57938 7.423435
v 2.744504 -47.09275 6.352475
v 2.597803 -46.67694 7.021196
v 2.597803 -46.67694 7.021196
v 2.744504 -47.09275 6.352475
v 2.666604 -46.6564 6.980397
v 1.760994 -44.99848 6.368806
v 2.101438 -45.21844 6.448479
v 2.01265 -45.07602 6.119076
v 2.153845 -46.09867 4.534046
v 1.042352 -46.72746 4.203676
v 2.175865 -46.07283 4.56035
v 2.175865 -46.07283 4.56035
v 1.042352 -46.72746 4.203676
v 2.01265 -45.07602 6.119076
v 2.01265 -45.07602 6.119076
v 1.042352 -46.72746 4.203676
v 1.760994 -44.99848 6.368806
v 1.760994 -44.99848 6.368806
v 1.042352 -46.72746 4.203676
v -0.1786748 -45.52796 6.630191
v -0.1786748 -45.52796 6.630191
v 1.042352 -46.72746 4.203676
v -0.4328791 -45.68545 6.534445
v -0.4328791 -45.68545 6.534445
v 1.042352 -46.72746 4.203676
v -0.5854542 -45.92874 6.257476
v -0.5854542 -45.92874 6.257476
v 1.042352 -46.72746 4.203676
v 0.3924296 -46.73463 4.542493
v 2.381453 -47.16916 4.489497
v 2.477891 -46.94678 4.533863
v 2.627483 -47.32084 4.694007
v 2.597803 -46.67694 7.021196
v 2.666604 -46.6564 6.980397
v 2.534472 -46.31316 6.876822
v 2.01265 -45.07602 6.119076
v 2.101438 -45.21844 6.448479
v 2.175865 -46.07283 4.56035
v 2.175865 -46.07283 4.56035
v 2.101438 -45.21844 6.448479
v 2.186892 -46.11099 4.540967
v 2.186892 -46.11099 4.540967
v 2.101438 -45.21844 6.448479
v 2.477891 -46.94678 4.533863
v 2.477891 -46.94678 4.533863
v 2.101438 -45.21844 6.448479
v 2.627483 -47.32084 4.694007
v 2.627483 -47.32084 4.694007
v 2.101438 -45.21844 6.448479
v 2.656817 -47.37221 4.790135
v 2.656817 -47.37221 4.790135
v 2.101438 -45.21844 6.448479
v 2.744504 -47.09275 6.352475
v 2.744504 -47.09275 6.352475
v 2.101438 -45.21844 6.448479
v 2.666604 -46.6564 6.980397
v 2.666604 -46.6564 6.980397
v 2.101438 -45.21844 6.448479
v 2.534472 -46.31316 6.876822
v -0.2358388 -45.76905 6.728374
v -0.1786748 -45.52796 6.630191
v -0.4328791 -45.68545 6.534445

vn -0.731114 -0.2597219 0.6308859
vn -0.731114 -0.2597219 0.6308859
vn -0.731114 -0.2597219 0.6308859
vn -0.731114 -0.2597219 0.6308859
vn -0.731114 -0.2597219 0.6308859
vn -0.731114 -0.2597219 0.6308859
vn -0.731114 -0.2597219 0.6308859
vn -0.731114 -0.2597219 0.6308859
vn -0.731114 -0.2597219 0.6308859
vn -0.731114 -0.2597219 0.6308859
vn -0.731114 -0.2597219 0.6308859
vn -0.731114 -0.2597219 0.6308859
vn -0.731114 -0.2597219 0.6308859
vn -0.731114 -0.2597219 0.6308859
vn -0.731114 -0.2597219 0.6308859
vn -0.731114 -0.2597219 0.6308859
vn -0.731114 -0.2597219 0.6308859
vn -0.731114 -0.2597219 0.6308859
vn 0.3526486 0.502745 -0.7892315
vn 0.3526486 0.502745 -0.7892315
vn 0.3526486 0.502745 -0.7892315
vn 0.4301652 -0.8925226 0.1355046
vn 0.4301652 -0.8925226 0.1355046
vn 0.4301652 -0.8925226 0.1355046
vn 0.4301652 -0.8925226 0.1355046
vn 0.4301652 -0.8925226 0.1355046
vn 0.4301652 -0.8925226 0.1355046
vn -0.2049454 -0.8878676 -0.4119327
vn -0.2049454 -0.8878676 -0.4119327
vn -0.2049454 -0.8878676 -0.4119327
vn -0.2049454 -0.8878676 -0.4119327
vn -0.2049454 -0.8878676 -0.4119327
vn -0.2049454 -0.8878676 -0.4119327
vn -0.2049454 -0.8878676 -0.4119327
vn -0.2049454 -0.8878676 -0.4119327
vn -0.2049454 -0.8878676 -0.4119327
vn -0.2049454 -0.8878676 -0.4119327
vn -0.2049454 -0.8878676 -0.4119327
vn -0.2049454 -0.8878676 -0.4119327
vn -0.2049454 -0.8878676 -0.4119327
vn -0.2049454 -0.8878676 -0.4119327
vn -0.2049454 -0.8878676 -0.4119327
vn -0.2049454 -0.8878676 -0.4119327
vn -0.2049454 -0.8878676 -0.4119327
vn -0.2049454 -0.8878676 -0.4119327
vn 0.02340556 0.3722976 0.9278182
vn 0.02340556 0.3722976 0.9278182
vn 0.02340556 0.3722976 0.9278182
vn 0.02340556 0.3722976 0.9278182
vn 0.02340556 0.3722976 0.9278182
vn 0.02340556 0.3722976 0.9278182
vn 0.02340556 0.3722976 0.9278182
vn 0.02340556 0.3722976 0.9278182
vn 0.02340556 0.3722976 0.9278182
vn 0.02340556 0.3722976 0.9278182
vn 0.02340556 0.3722976 0.9278182
vn 0.02340556 0.3722976 0.9278182
vn 0.02340556 0.3722976 0.9278182
vn 0.02340556 0.3722976 0.9278182
vn 0.02340556 0.3722976 0.9278182
vn 0.2363485 0.09051728 -0.967443
vn 0.2363485 0.09051728 -0.967443
vn 0.2363485 0.09051728 -0.967443
vn 0.2363485 0.09051728 -0.967443
vn 0.2363485 0.09051728 -0.967443
vn 0.2363485 0.09051728 -0.967443
vn 0.2363485 0.09051728 -0.967443
vn 0.2363485 0.09051728 -0.967443
vn 0.2363485 0.09051728 -0.967443
vn -0.8039282 -0.4960176 -0.3281252
vn -0.8039282 -0.4960176 -0.3281252
vn -0.8039282 -0.4960176 -0.3281252
vn -0.7690453 0.2846999 -0.5722895
vn -0.7690453 0.2846999 -0.5722895
vn -0.7690453 0.2846999 -0.5722895
vn -0.7690453 0.2846999 -0.5722895
vn -0.7690453 0.2846999 -0.5722895
vn -0.7690453 0.2846999 -0.5722895
vn 0.5156852 -0.6722661 0.5311563
vn 0.5156852 -0.6722661 0.5311563
vn 0.5156852 -0.6722661 0.5311563
vn 0.5156852 -0.6722661 0.5311563
vn 0.5156852 -0.6722661 0.5311563
vn 0.5156852 -0.6722661 0.5311563
vn 0.5156852 -0.6722661 0.5311563
vn 0.5156852 -0.6722661 0.5311563
vn 0.5156852 -0.6722661 0.5311563
vn 0.4890745 0.8408975 0.2317273
vn 0.4890745 0.8408975 0.2317273
vn 0.4890745 0.8408975 0.2317273
vn -0.2887449 0.7925672 -0.5370882
vn -0.2887449 0.7925672 -0.5370882
vn -0.2887449 0.7925672 -0.5370882
vn -0.2887449 0.7925672 -0.5370882
vn -0.2887449 0.7925672 -0.5370882
vn -0.2887449 0.7925672 -0.5370882
vn -0.2887449 0.7925672 -0.5370882
vn -0.2887449 0.7925672 -0.5370882
vn -0.2887449 0.7925672 -0.5370882
vn -0.2887449 0.7925672 -0.5370882
vn -0.2887449 0.7925672 -0.5370882
vn -0.2887449 0.7925672 -0.5370882
vn -0.2887449 0.7925672 -0.5370882
vn -0.2887449 0.7925672 -0.5370882
vn -0.2887449 0.7925672 -0.5370882
vn -0.2887449 0.7925672 -0.5370882
vn -0.2887449 0.7925672 -0.5370882
vn -0.2887449 0.7925672 -0.5370882
vn -0.2887449 0.7925672 -0.5370882
vn -0.2887449 0.7925672 -0.5370882
vn -0.2887449 0.7925672 -0.5370882
vn 0.5984233 -0.1009491 -0.7947948
vn 0.5984233 -0.1009491 -0.7947948
vn 0.5984233 -0.1009491 -0.7947948
vn 0.3772694 0.3976178 0.8364018
vn 0.3772694 0.3976178 0.8364018
vn 0.3772694 0.3976178 0.8364018
vn 0.9382383 0.3276129 -0.11126
vn 0.9382383 0.3276129 -0.11126
vn 0.9382383 0.3276129 -0.11126
vn 0.9382383 0.3276129 -0.11126
vn 0.9382383 0.3276129 -0.11126
vn 0.9382383 0.3276129 -0.11126
vn 0.9382383 0.3276129 -0.11126
vn 0.9382383 0.3276129 -0.11126
vn 0.9382383 0.3276129 -0.11126
vn 0.9382383 0.3276129 -0.11126
vn 0.9382383 0.3276129 -0.11126
vn 0.9382383 0.3276129 -0.11126
vn 0.9382383 0.3276129 -0.11126
vn 0.9382383 0.3276129 -0.11126
vn 0.9382383 0.3276129 -0.11126
vn 0.9382383 0.3276129 -0.11126
vn 0.9382383 0.3276129 -0.11126
vn 0.9382383 0.3276129 -0.11126
vn 0.9382383 0.3276129 -0.11126
vn 0.9382383 0.3276129 -0.11126
vn 0.9382383 0.3276129 -0.11126
vn 0.9382383 0.3276129 -0.11126
vn 0.9382383 0.3276129 -0.11126
vn 0.9382383 0.3276129 -0.11126
vn -0.5373776 0.4242333 0.72887
vn -0.5373776 0.4242333 0.72887
vn -0.5373776 0.4242333 0.72887

vt 0.2930935 0.3649711
vt 0.5619606 0.4784761
vt 0.2644981 0.4049484
vt 0.2644981 0.4049484
vt 0.5619606 0.4784761
vt 0.2589525 0.436633
vt 0.2589525 0.436633
vt 0.5619606 0.4784761
vt 0.3635835 0.5644029
vt 0.3635835 0.5644029
vt 0.5619606 0.4784761
vt 0.4939129 0.5952672
vt 0.4939129 0.5952672
vt 0.5619606 0.4784761
vt 0.5577229 0.5553836
vt 0.5577229 0.5553836
vt 0.5619606 0.4784761
vt 0.5802991 0.5101467
vt 0.6639477 0.5369419
vt 0.664454 0.5300884
vt 0.6694137 0.5351418
vt 0.3757155 0.4577093
vt 0.5740269 0.3749607
vt 0.3955916 0.6141683
vt 0.3955916 0.6141683
vt 0.5740269 0.3749607
vt 0.5900591 0.3943915
vt 0.564267 0.3760202
vt 0.5585666 0.5267414
vt 0.458478 0.2833851
vt 0.458478 0.2833851
vt 0.5585666 0.5267414
vt 0.2732783 0.5432142
vt 0.2732783 0.5432142
vt 0.5585666 0.5267414
vt 0.2776098 0.5545961
vt 0.2776098 0.5545961
vt 0.5585666 0.5267414
vt 0.3071521 0.5788131
vt 0.3071521 0.5788131
vt 0.5585666 0.5267414
vt 0.4586421 0.6126494
vt 0.4586421 0.6126494
vt 0.5585666 0.5267414
vt 0.5267835 0.5725409
vt 0.5597479 0.3995059
vt 0.501854 0.5902982
vt 0.5367591 0.3660164
vt 0.5367591 0.3660164
vt 0.501854 0.5902982
vt 0.4211634 0.3234234
vt 0.4211634 0.3234234
vt 0.501854 0.5902982
vt 0.3826768 0.3171933
vt 0.3826768 0.3171933
vt 0.501854 0.5902982
vt 0.2855884 0.4736618
vt 0.2855884 0.4736618
vt 0.501854 0.5902982
vt 0.4762541 0.5959235
vt 0.6246173 0.3669821
vt 0.5828118 0.5064152
vt 0.6017973 0.3569409
vt 0.6017973 0.3569409
vt 0.5828118 0.5064152
vt 0.5175299 0.3872474
vt 0.5175299 0.3872474
vt 0.5828118 0.5064152
vt 0.516358 0.3906882
vt 0.5282462 0.4132598
vt 0.4589562 0.5326761
vt 0.4202305 0.3924367
vt 0.3556283 0.5391077
vt 0.3692276 0.3806423
vt 0.3809189 0.5956516
vt 0.3809189 0.5956516
vt 0.3692276 0.3806423
vt 0.4308296 0.3449402
vt 0.6263424 0.4439131
vt 0.401981 0.5570619
vt 0.5963032 0.4103909
vt 0.5963032 0.4103909
vt 0.401981 0.5570619
vt 0.3861223 0.4654769
vt 0.3861223 0.4654769
vt 0.401981 0.5570619
vt 0.3783359 0.4710647
vt 0.5142484 0.461136
vt 0.5551727 0.4528574
vt 0.5401718 0.4870828
vt 0.6193108 0.6466076
vt 0.4725039 0.6922478
vt 0.6227516 0.64297
vt 0.6227516 0.64297
vt 0.4725039 0.6922478
vt 0.6446435 0.4276044
vt 0.6446435 0.4276044
vt 0.4725039 0.6922478
vt 0.6201827 0.3931024
vt 0.6201827 0.3931024
vt 0.4725039 0.6922478
vt 0.386652 0.3569878
vt 0.386652 0.3569878
vt 0.4725039 0.6922478
vt 0.3525297 0.3702167
vt 0.3525297 0.3702167
vt 0.4725039 0.6922478
vt 0.3261141 0.408483
vt 0.3261141 0.408483
vt 0.4725039 0.6922478
vt 0.4010482 0.6454451
vt 0.6434622 0.4053609
vt 0.6053412 0.3935196
vt 0.6610695 0.3507718
vt 0.7962554 0.4628049
vt 0.8026682 0.4761556
vt 0.7431054 0.5100435
vt 0.4427553 0.4417661
vt 0.4589515 0.4089799
vt 0.541175 0.5969173
vt 0.541175 0.5969173
vt 0.4589515 0.4089799
vt 0.5451034 0.5988486
vt 0.5451034 0.5988486
vt 0.4589515 0.4089799
vt 0.6326428 0.5995518
vt 0.6326428 0.5995518
vt 0.4589515 0.4089799
vt 0.6724607 0.5836228
vt 0.6724607 0.5836228
vt 0.4589515 0.4089799
vt 0.6782173 0.5740504
vt 0.6782173 0.5740504
vt 0.4589515 0.4089799
vt 0.6549659 0.4185336
vt 0.6549659 0.4185336
vt 0.4589515 0.4089799
vt 0.6116791 0.3560315
vt 0.6116791 0.3560315
vt 0.4589515 0.4089799
vt 0.5753114 0.3663399
vt 0.4085486 0.5039963
vt 0.4408051 0.5245944
vt 0.4004388 0.5446674

usemtl Material0
usemap Material0

usemtl Material1
usemap Material1
f 1/1/1 2/2/2 3/3/3
f 4/4/4 5/5/5 6/6/6
f 7/7/7 8/8/8 9/9/9
f 10/10/10 11/11/11 12/12/12
f 13/13/13 14/14/14 15/15/15
f 16/16/16 17/17/17 18/18/18
f 19/19/19 20/20/20 21/21/21
f 22/22/22 23/23/23 24/24/24
f 25/25/25 26/26/26 27/27/27
f 28/28/28 29/29/29 30/30/30
f 31/31/31 32/32/32 33/33/33
f 34/34/34 35/35/35 36/36/36
f 37/37/37 38/38/38 39/39/39
f 40/40/40 41/41/41 42/42/42
f 43/43/43 44/44/44 45/45/45
f 46/46/46 47/47/47 48/48/48
f 49/49/49 50/50/50 51/51/51
f 52/52/52 53/53/53 54/54/54
f 55/55/55 56/56/56 57/57/57
f 58/58/58 59/59/59 60/60/60
f 61/61/61 62/62/62 63/63/63
f 64/64/64 65/65/65 66/66/66
f 67/67/67 68/68/68 69/69/69
f 70/70/70 71/71/71 72/72/72
f 73/73/73 74/74/74 75/75/75
f 76/76/76 77/77/77 78/78/78
f 79/79/79 80/80/80 81/81/81
f 82/82/82 83/83/83 84/84/84
f 85/85/85 86/86/86 87/87/87
f 88/88/88 89/89/89 90/90/90
f 91/91/91 92/92/92 93/93/93
f 94/94/94 95/95/95 96/96/96
f 97/97/97 98/98/98 99/99/99
f 100/100/100 101/101/101 102/102/102
f 103/103/103 104/104/104 105/105/105
f 106/106/106 107/107/107 108/108/108
f 109/109/109 110/110/110 111/111/111
f 112/112/112 113/113/113 114/114/114
f 115/115/115 116/116/116 117/117/117
f 118/118/118 119/119/119 120/120/120
f 121/121/121 122/122/122 123/123/123
f 124/124/124 125/125/125 126/126/126
f 127/127/127 128/128/128 129/129/129
f 130/130/130 131/131/131 132/132/132
f 133/133/133 134/134/134 135/135/135
f 136/136/136 137/137/137 138/138/138
f 139/139/139 140/140/140 141/141/141
f 142/142/142 143/143/143 144/144/144
