g  Instance
v -5.899769 -55.56577 3.531156
v -5.907518 -55.56439 3.531391
v -5.539869 -55.58473 3.37197
v -5.539869 -55.58473 3.37197
v -5.907518 -55.56439 3.531391
v -5.549279 -55.57046 3.331061
v -5.549279 -55.57046 3.331061
v -5.907518 -55.56439 3.531391
v -5.850301 -55.49564 3.27134
v -5.923906 -52.97836 4.895005
v -6.543211 -53.59306 4.531054
v -5.699903 -52.9742 4.911516
v -5.699903 -52.9742 4.911516
v -6.543211 -53.59306 4.531054
v -5.027374 -55.34337 3.704262
v -5.027374 -55.34337 3.704262
v -6.543211 -53.59306 4.531054
v -5.899769 -55.56577 3.531156
v -5.899769 -55.56577 3.531156
v -6.543211 -53.59306 4.531054
v -5.907518 -55.56439 3.531391
v -5.907518 -55.56439 3.531391
v -6.543211 -53.59306 4.531054
v -6.525021 -53.8401 4.40185
v -3.805197 -54.80721 2.440455
v -3.632858 -53.66052 2.468014
v -4.294603 -55.23051 2.906456
v -4.294603 -55.23051 2.906456
v -3.632858 -53.66052 2.468014
v -4.736135 -55.4644 3.355305
v -4.736135 -55.4644 3.355305
v -3.632858 -53.66052 2.468014
v -5.027374 -55.34337 3.704262
v -5.027374 -55.34337 3.704262
v -3.632858 -53.66052 2.468014
v -5.699903 -52.9742 4.911516
v -5.699903 -52.9742 4.911516
v -3.632858 -53.66052 2.468014
v -4.990878 -51.61402 4.379888
v -4.990878 -51.61402 4.379888
v -3.632858 -53.66052 2.468014
v -3.800013 -52.71517 2.836559
v -5.539869 -55.58473 3.37197
v -4.736135 -55.4644 3.355305
v -5.899769 -55.56577 3.531156
v -5.899769 -55.56577 3.531156
v -4.736135 -55.4644 3.355305
v -5.027374 -55.34337 3.704262
v -6.525021 -53.8401 4.40185
v -6.595832 -53.6291 4.491257
v -5.907518 -55.56439 3.531391
v -5.907518 -55.56439 3.531391
v -6.595832 -53.6291 4.491257
v -5.850301 -55.49564 3.27134
v -5.850301 -55.49564 3.27134
v -6.595832 -53.6291 4.491257
v -5.75091 -54.07712 1.799786
v -5.75091 -54.07712 1.799786
v -6.595832 -53.6291 4.491257
v -5.958225 -53.04694 1.737761
v -5.958225 -53.04694 1.737761
v -6.595832 -53.6291 4.491257
v -6.157989 -52.31891 1.885728
v -6.157989 -52.31891 1.885728
v -6.595832 -53.6291 4.491257
v -6.694314 -51.66066 3.300683
v -5.999949 -51.9733 2.018069
v -5.140018 -51.97774 2.228049
v -6.157989 -52.31891 1.885728
v -6.157989 -52.31891 1.885728
v -5.140018 -51.97774 2.228049
v -5.958225 -53.04694 1.737761
v -5.958225 -53.04694 1.737761
v -5.140018 -51.97774 2.228049
v -5.416088 -53.93286 1.631148
v -5.416088 -53.93286 1.631148
v -5.140018 -51.97774 2.228049
v -3.924805 -54.28057 1.903276
v -3.924805 -54.28057 1.903276
v -5.140018 -51.97774 2.228049
v -3.753453 -53.62846 2.121836
v -3.753453 -53.62846 2.121836
v -5.140018 -51.97774 2.228049
v -3.965635 -52.71934 2.315758
v -5.549279 -55.57046 3.331061
v -4.294603 -55.23051 2.906456
v -5.539869 -55.58473 3.37197
v -5.539869 -55.58473 3.37197
v -4.294603 -55.23051 2.906456
v -4.736135 -55.4644 3.355305
v -4.294603 -55.23051 2.906456
v -5.549279 -55.57046 3.331061
v -3.805197 -54.80721 2.440455
v -3.805197 -54.80721 2.440455
v -5.549279 -55.57046 3.331061
v -3.924805 -54.28057 1.903276
v -3.924805 -54.28057 1.903276
v -5.549279 -55.57046 3.331061
v -5.416088 -53.93286 1.631148
v -5.416088 -53.93286 1.631148
v -5.549279 -55.57046 3.331061
v -5.75091 -54.07712 1.799786
v -5.75091 -54.07712 1.799786
v -5.549279 -55.57046 3.331061
v -5.850301 -55.49564 3.27134
v -3.965635 -52.71934 2.315758
v -5.140018 -51.97774 2.228049
v -3.800013 -52.71517 2.836559
v -3.800013 -52.71517 2.836559
v -5.140018 -51.97774 2.228049
v -4.990878 -51.61402 4.379888
v -4.990878 -51.61402 4.379888
v -5.140018 -51.97774 2.228049
v -5.222504 -51.48048 4.303076
v -5.416088 -53.93286 1.631148
v -5.75091 -54.07712 1.799786
v -5.958225 -53.04694 1.737761
v -5.999028 -51.50307 4.001271
v -5.761863 -51.4951 4.265316
v -5.719919 -51.46078 4.25387
v -3.753453 -53.62846 2.121836
v -3.965635 -52.71934 2.315758
v -3.632858 -53.66052 2.468014
v -3.632858 -53.66052 2.468014
v -3.965635 -52.71934 2.315758
v -3.800013 -52.71517 2.836559
v -6.157989 -52.31891 1.885728
v -6.694314 -51.66066 3.300683
v -5.999949 -51.9733 2.018069
v -5.999949 -51.9733 2.018069
v -6.694314 -51.66066 3.300683
v -6.672446 -51.62543 3.306177
v -5.999949 -51.9733 2.018069
v -6.672446 -51.62543 3.306177
v -5.140018 -51.97774 2.228049
v -5.140018 -51.97774 2.228049
v -6.672446 -51.62543 3.306177
v -5.222504 -51.48048 4.303076
v -5.222504 -51.48048 4.303076
v -6.672446 -51.62543 3.306177
v -5.719919 -51.46078 4.25387
v -5.719919 -51.46078 4.25387
v -6.672446 -51.62543 3.306177
v -5.999028 -51.50307 4.001271
v -5.719919 -51.46078 4.25387
v -5.761863 -51.4951 4.265316
v -5.222504 -51.48048 4.303076
v -5.222504 -51.48048 4.303076
v -5.761863 -51.4951 4.265316
v -4.990878 -51.61402 4.379888
v -4.990878 -51.61402 4.379888
v -5.761863 -51.4951 4.265316
v -5.699903 -52.9742 4.911516
v -5.699903 -52.9742 4.911516
v -5.761863 -51.4951 4.265316
v -5.923906 -52.97836 4.895005
v -6.525021 -53.8401 4.40185
v -6.543211 -53.59306 4.531054
v -6.595832 -53.6291 4.491257
v -6.595832 -53.6291 4.491257
v -6.543211 -53.59306 4.531054
v -6.694314 -51.66066 3.300683
v -6.694314 -51.66066 3.300683
v -6.543211 -53.59306 4.531054
v -6.672446 -51.62543 3.306177
v -6.672446 -51.62543 3.306177
v -6.543211 -53.59306 4.531054
v -5.999028 -51.50307 4.001271
v -5.999028 -51.50307 4.001271
v -6.543211 -53.59306 4.531054
v -5.761863 -51.4951 4.265316
v -5.761863 -51.4951 4.265316
v -6.543211 -53.59306 4.531054
v -5.923906 -52.97836 4.895005
v -3.805197 -54.80721 2.440455
v -3.924805 -54.28057 1.903276
v -3.632858 -53.66052 2.468014
v -3.632858 -53.66052 2.468014
v -3.924805 -54.28057 1.903276
v -3.753453 -53.62846 2.121836

vn -0.1768567 -0.9412337 -0.2877515
vn -0.1768567 -0.9412337 -0.2877515
vn -0.1768567 -0.9412337 -0.2877515
vn -0.1768567 -0.9412337 -0.2877515
vn -0.1768567 -0.9412337 -0.2877515
vn -0.1768567 -0.9412337 -0.2877515
vn -0.1768567 -0.9412337 -0.2877515
vn -0.1768567 -0.9412337 -0.2877515
vn -0.1768567 -0.9412337 -0.2877515
vn -0.05642376 -0.4659654 0.8830022
vn -0.05642376 -0.4659654 0.8830022
vn -0.05642376 -0.4659654 0.8830022
vn -0.05642376 -0.4659654 0.8830022
vn -0.05642376 -0.4659654 0.8830022
vn -0.05642376 -0.4659654 0.8830022
vn -0.05642376 -0.4659654 0.8830022
vn -0.05642376 -0.4659654 0.8830022
vn -0.05642376 -0.4659654 0.8830022
vn -0.05642376 -0.4659654 0.8830022
vn -0.05642376 -0.4659654 0.8830022
vn -0.05642376 -0.4659654 0.8830022
vn -0.05642376 -0.4659654 0.8830022
vn -0.05642376 -0.4659654 0.8830022
vn -0.05642376 -0.4659654 0.8830022
vn 0.7394075 -0.1270169 0.6611682
vn 0.7394075 -0.1270169 0.6611682
vn 0.7394075 -0.1270169 0.6611682
vn 0.7394075 -0.1270169 0.6611682
vn 0.7394075 -0.1270169 0.6611682
vn 0.7394075 -0.1270169 0.6611682
vn 0.7394075 -0.1270169 0.6611682
vn 0.7394075 -0.1270169 0.6611682
vn 0.7394075 -0.1270169 0.6611682
vn 0.7394075 -0.1270169 0.6611682
vn 0.7394075 -0.1270169 0.6611682
vn 0.7394075 -0.1270169 0.6611682
vn 0.7394075 -0.1270169 0.6611682
vn 0.7394075 -0.1270169 0.6611682
vn 0.7394075 -0.1270169 0.6611682
vn 0.7394075 -0.1270169 0.6611682
vn 0.7394075 -0.1270169 0.6611682
vn 0.7394075 -0.1270169 0.6611682
vn 0.1424704 -0.8922918 0.4283895
vn 0.1424704 -0.8922918 0.4283895
vn 0.1424704 -0.8922918 0.4283895
vn 0.1424704 -0.8922918 0.4283895
vn 0.1424704 -0.8922918 0.4283895
vn 0.1424704 -0.8922918 0.4283895
vn -0.9429798 -0.205531 -0.2618132
vn -0.9429798 -0.205531 -0.2618132
vn -0.9429798 -0.205531 -0.2618132
vn -0.9429798 -0.205531 -0.2618132
vn -0.9429798 -0.205531 -0.2618132
vn -0.9429798 -0.205531 -0.2618132
vn -0.9429798 -0.205531 -0.2618132
vn -0.9429798 -0.205531 -0.2618132
vn -0.9429798 -0.205531 -0.2618132
vn -0.9429798 -0.205531 -0.2618132
vn -0.9429798 -0.205531 -0.2618132
vn -0.9429798 -0.205531 -0.2618132
vn -0.9429798 -0.205531 -0.2618132
vn -0.9429798 -0.205531 -0.2618132
vn -0.9429798 -0.205531 -0.2618132
vn -0.9429798 -0.205531 -0.2618132
vn -0.9429798 -0.205531 -0.2618132
vn -0.9429798 -0.205531 -0.2618132
vn 0.230657 0.2541831 -0.9392489
vn 0.230657 0.2541831 -0.9392489
vn 0.230657 0.2541831 -0.9392489
vn 0.230657 0.2541831 -0.9392489
vn 0.230657 0.2541831 -0.9392489
vn 0.230657 0.2541831 -0.9392489
vn 0.230657 0.2541831 -0.9392489
vn 0.230657 0.2541831 -0.9392489
vn 0.230657 0.2541831 -0.9392489
vn 0.230657 0.2541831 -0.9392489
vn 0.230657 0.2541831 -0.9392489
vn 0.230657 0.2541831 -0.9392489
vn 0.230657 0.2541831 -0.9392489
vn 0.230657 0.2541831 -0.9392489
vn 0.230657 0.2541831 -0.9392489
vn 0.230657 0.2541831 -0.9392489
vn 0.230657 0.2541831 -0.9392489
vn 0.230657 0.2541831 -0.9392489
vn 0.1313562 -0.9261963 -0.3534206
vn 0.1313562 -0.9261963 -0.3534206
vn 0.1313562 -0.9261963 -0.3534206
vn 0.1313562 -0.9261963 -0.3534206
vn 0.1313562 -0.9261963 -0.3534206
vn 0.1313562 -0.9261963 -0.3534206
vn -0.04061698 -0.7179945 -0.6948628
vn -0.04061698 -0.7179945 -0.6948628
vn -0.04061698 -0.7179945 -0.6948628
vn -0.04061698 -0.7179945 -0.6948628
vn -0.04061698 -0.7179945 -0.6948628
vn -0.04061698 -0.7179945 -0.6948628
vn -0.04061698 -0.7179945 -0.6948628
vn -0.04061698 -0.7179945 -0.6948628
vn -0.04061698 -0.7179945 -0.6948628
vn -0.04061698 -0.7179945 -0.6948628
vn -0.04061698 -0.7179945 -0.6948628
vn -0.04061698 -0.7179945 -0.6948628
vn -0.04061698 -0.7179945 -0.6948628
vn -0.04061698 -0.7179945 -0.6948628
vn -0.04061698 -0.7179945 -0.6948628
vn 0.5349335 0.8262052 -0.176724
vn 0.5349335 0.8262052 -0.176724
vn 0.5349335 0.8262052 -0.176724
vn 0.5349335 0.8262052 -0.176724
vn 0.5349335 0.8262052 -0.176724
vn 0.5349335 0.8262052 -0.176724
vn 0.5349335 0.8262052 -0.176724
vn 0.5349335 0.8262052 -0.176724
vn 0.5349335 0.8262052 -0.176724
vn -0.3987605 -0.1348619 -0.9070846
vn -0.3987605 -0.1348619 -0.9070846
vn -0.3987605 -0.1348619 -0.9070846
vn -0.5001974 0.7535775 0.4265252
vn -0.5001974 0.7535775 0.4265252
vn -0.5001974 0.7535775 0.4265252
vn 0.9152726 0.2761787 -0.2932599
vn 0.9152726 0.2761787 -0.2932599
vn 0.9152726 0.2761787 -0.2932599
vn 0.9152726 0.2761787 -0.2932599
vn 0.9152726 0.2761787 -0.2932599
vn 0.9152726 0.2761787 -0.2932599
vn -0.697416 0.5112734 -0.5022057
vn -0.697416 0.5112734 -0.5022057
vn -0.697416 0.5112734 -0.5022057
vn -0.697416 0.5112734 -0.5022057
vn -0.697416 0.5112734 -0.5022057
vn -0.697416 0.5112734 -0.5022057
vn 0.06125049 0.9711879 -0.2303097
vn 0.06125049 0.9711879 -0.2303097
vn 0.06125049 0.9711879 -0.2303097
vn 0.06125049 0.9711879 -0.2303097
vn 0.06125049 0.9711879 -0.2303097
vn 0.06125049 0.9711879 -0.2303097
vn 0.06125049 0.9711879 -0.2303097
vn 0.06125049 0.9711879 -0.2303097
vn 0.06125049 0.9711879 -0.2303097
vn 0.06125049 0.9711879 -0.2303097
vn 0.06125049 0.9711879 -0.2303097
vn 0.06125049 0.9711879 -0.2303097
vn -0.07480416 0.3965907 0.9149428
vn -0.07480416 0.3965907 0.9149428
vn -0.07480416 0.3965907 0.9149428
vn -0.07480416 0.3965907 0.9149428
vn -0.07480416 0.3965907 0.9149428
vn -0.07480416 0.3965907 0.9149428
vn -0.07480416 0.3965907 0.9149428
vn -0.07480416 0.3965907 0.9149428
vn -0.07480416 0.3965907 0.9149428
vn -0.07480416 0.3965907 0.9149428
vn -0.07480416 0.3965907 0.9149428
vn -0.07480416 0.3965907 0.9149428
vn -0.3149772 -0.4579617 0.8313004
vn -0.3149772 -0.4579617 0.8313004
vn -0.3149772 -0.4579617 0.8313004
vn -0.7044154 0.3412008 0.6223994
vn -0.7044154 0.3412008 0.6223994
vn -0.7044154 0.3412008 0.6223994
vn -0.7044154 0.3412008 0.6223994
vn -0.7044154 0.3412008 0.6223994
vn -0.7044154 0.3412008 0.6223994
vn -0.7044154 0.3412008 0.6223994
vn -0.7044154 0.3412008 0.6223994
vn -0.7044154 0.3412008 0.6223994
vn -0.7044154 0.3412008 0.6223994
vn -0.7044154 0.3412008 0.6223994
vn -0.7044154 0.3412008 0.6223994
vn -0.7044154 0.3412008 0.6223994
vn -0.7044154 0.3412008 0.6223994
vn -0.7044154 0.3412008 0.6223994
vn 0.9322127 -0.1320068 -0.3369775
vn 0.9322127 -0.1320068 -0.3369775
vn 0.9322127 -0.1320068 -0.3369775
vn 0.9322127 -0.1320068 -0.3369775
vn 0.9322127 -0.1320068 -0.3369775
vn 0.9322127 -0.1320068 -0.3369775

vt 0.5289868 0.3730059
vt 0.5297931 0.3729825
vt 0.4923191 0.3900694
vt 0.4923191 0.3900694
vt 0.5297931 0.3729825
vt 0.4935379 0.3944525
vt 0.4935379 0.3944525
vt 0.5297931 0.3729825
vt 0.5253209 0.400856
vt 0.6743358 0.3031394
vt 0.7876393 0.4655425
vt 0.6278613 0.2957702
vt 0.6278613 0.2957702
vt 0.7876393 0.4655425
vt 0.4283732 0.8344935
vt 0.4283732 0.8344935
vt 0.7876393 0.4655425
vt 0.6041692 0.9117386
vt 0.6041692 0.9117386
vt 0.7876393 0.4655425
vt 0.6058193 0.9116355
vt 0.6058193 0.9116355
vt 0.7876393 0.4655425
vt 0.7776356 0.5231974
vt 0.677186 0.6864818
vt 0.5252741 0.6816722
vt 0.742721 0.6050928
vt 0.742721 0.6050928
vt 0.5252741 0.6816722
vt 0.7827171 0.5266945
vt 0.7827171 0.5266945
vt 0.5252741 0.6816722
vt 0.7735384 0.4657441
vt 0.7735384 0.4657441
vt 0.5252741 0.6816722
vt 0.4824888 0.2548835
vt 0.4824888 0.2548835
vt 0.5252741 0.6816722
vt 0.2911012 0.3477388
vt 0.2911012 0.3477388
vt 0.5252741 0.6816722
vt 0.4068938 0.6172997
vt 0.5837024 0.572494
vt 0.4952911 0.5745097
vt 0.6220484 0.5533304
vt 0.6220484 0.5533304
vt 0.4952911 0.5745097
vt 0.5245053 0.5324886
vt 0.4522433 0.3201466
vt 0.4747774 0.3107101
vt 0.2672311 0.4120176
vt 0.2672311 0.4120176
vt 0.4747774 0.3107101
vt 0.272833 0.4394644
vt 0.272833 0.4394644
vt 0.4747774 0.3107101
vt 0.4118535 0.5947797
vt 0.4118535 0.5947797
vt 0.4747774 0.3107101
vt 0.51888 0.6013332
vt 0.51888 0.6013332
vt 0.4747774 0.3107101
vt 0.5956751 0.5857135
vt 0.5956751 0.5857135
vt 0.4747774 0.3107101
vt 0.672817 0.4363658
vt 0.4072173 0.6066491
vt 0.4021076 0.5173658
vt 0.4444147 0.6230563
vt 0.4444147 0.6230563
vt 0.4021076 0.5173658
vt 0.5193206 0.6023176
vt 0.5193206 0.6023176
vt 0.4021076 0.5173658
vt 0.6085383 0.5460268
vt 0.6085383 0.5460268
vt 0.4021076 0.5173658
vt 0.635268 0.3911804
vt 0.635268 0.3911804
vt 0.4021076 0.5173658
vt 0.5658983 0.3733856
vt 0.5658983 0.3733856
vt 0.4021076 0.5173658
vt 0.4721195 0.3954182
vt 0.5769802 0.3809001
vt 0.4414099 0.4285982
vt 0.5762114 0.3763061
vt 0.5762114 0.3763061
vt 0.4414099 0.4285982
vt 0.4908002 0.3781765
vt 0.3697526 0.3153885
vt 0.5383717 0.2346745
vt 0.3062239 0.4039733
vt 0.3062239 0.4039733
vt 0.5383717 0.2346745
vt 0.3266158 0.5060871
vt 0.3266158 0.5060871
vt 0.5383717 0.2346745
vt 0.5328401 0.5578119
vt 0.5328401 0.5578119
vt 0.5383717 0.2346745
vt 0.5774208 0.525757
vt 0.5774208 0.525757
vt 0.5383717 0.2346745
vt 0.5800366 0.2460236
vt 0.5584072 0.550724
vt 0.4196914 0.5596308
vt 0.5720674 0.4978741
vt 0.5720674 0.4978741
vt 0.4196914 0.5596308
vt 0.4124488 0.3412603
vt 0.4124488 0.3412603
vt 0.4196914 0.5596308
vt 0.3857754 0.3490561
vt 0.5489567 0.4439694
vt 0.5669109 0.4831076
vt 0.4567014 0.5073528
vt 0.5030447 0.4892111
vt 0.5250022 0.4574842
vt 0.5308619 0.4588577
vt 0.5764927 0.5531241
vt 0.4806934 0.5322729
vt 0.5832337 0.5158939
vt 0.5832337 0.5158939
vt 0.4806934 0.5322729
vt 0.4852077 0.4762541
vt 0.4913159 0.5312322
vt 0.5156173 0.3452121
vt 0.5336183 0.5138406
vt 0.5336183 0.5138406
vt 0.5156173 0.3452121
vt 0.5203145 0.3444902
vt 0.3873364 0.5709658
vt 0.3173246 0.4372331
vt 0.4740696 0.5491583
vt 0.4740696 0.5491583
vt 0.3173246 0.4372331
vt 0.4625939 0.3337412
vt 0.4625939 0.3337412
vt 0.3173246 0.4372331
vt 0.4123176 0.3388508
vt 0.4123176 0.3388508
vt 0.3173246 0.4372331
vt 0.3844441 0.3650742
vt 0.6007847 0.5332949
vt 0.5972314 0.5374389
vt 0.5970814 0.4841202
vt 0.5970814 0.4841202
vt 0.5972314 0.5374389
vt 0.5819867 0.4612204
vt 0.5819867 0.4612204
vt 0.5972314 0.5374389
vt 0.4381097 0.5313073
vt 0.4381097 0.5313073
vt 0.5972314 0.5374389
vt 0.4383816 0.5534523
vt 0.6338897 0.5693063
vt 0.6613038 0.5281945
vt 0.6653541 0.5408515
vt 0.3505281 0.4452726
vt 0.3574847 0.4388832
vt 0.5676516 0.6363227
vt 0.5676516 0.6363227
vt 0.3574847 0.4388832
vt 0.5728269 0.6354508
vt 0.5728269 0.6354508
vt 0.3574847 0.4388832
vt 0.6235298 0.5239006
vt 0.6235298 0.5239006
vt 0.3574847 0.4388832
vt 0.6374149 0.4815325
vt 0.6374149 0.4815325
vt 0.3574847 0.4388832
vt 0.4608782 0.3804782
vt 0.6437247 0.5033775
vt 0.5910341 0.5629497
vt 0.5226489 0.5003211
vt 0.5226489 0.5003211
vt 0.5910341 0.5629497
vt 0.521102 0.5387139

usemtl Material0
usemap Material0

usemtl Material1
usemap Material1
f 1/1/1 2/2/2 3/3/3
f 4/4/4 5/5/5 6/6/6
f 7/7/7 8/8/8 9/9/9
f 10/10/10 11/11/11 12/12/12
f 13/13/13 14/14/14 15/15/15
f 16/16/16 17/17/17 18/18/18
f 19/19/19 20/20/20 21/21/21
f 22/22/22 23/23/23 24/24/24
f 25/25/25 26/26/26 27/27/27
f 28/28/28 29/29/29 30/30/30
f 31/31/31 32/32/32 33/33/33
f 34/34/34 35/35/35 36/36/36
f 37/37/37 38/38/38 39/39/39
f 40/40/40 41/41/41 42/42/42
f 43/43/43 44/44/44 45/45/45
f 46/46/46 47/47/47 48/48/48
f 49/49/49 50/50/50 51/51/51
f 52/52/52 53/53/53 54/54/54
f 55/55/55 56/56/56 57/57/57
f 58/58/58 59/59/59 60/60/60
f 61/61/61 62/62/62 63/63/63
f 64/64/64 65/65/65 66/66/66
f 67/67/67 68/68/68 69/69/69
f 70/70/70 71/71/71 72/72/72
f 73/73/73 74/74/74 75/75/75
f 76/76/76 77/77/77 78/78/78
f 79/79/79 80/80/80 81/81/81
f 82/82/82 83/83/83 84/84/84
f 85/85/85 86/86/86 87/87/87
f 88/88/88 89/89/89 90/90/90
f 91/91/91 92/92/92 93/93/93
f 94/94/94 95/95/95 96/96/96
f 97/97/97 98/98/98 99/99/99
f 100/100/100 101/101/101 102/102/102
f 103/103/103 104/104/104 105/105/105
f 106/106/106 107/107/107 108/108/108
f 109/109/109 110/110/110 111/111/111
f 112/112/112 113/113/113 114/114/114
f 115/115/115 116/116/116 117/117/117
f 118/118/118 119/119/119 120/120/120
f 121/121/121 122/122/122 123/123/123
f 124/124/124 125/125/125 126/126/126
f 127/127/127 128/128/128 129/129/129
f 130/130/130 131/131/131 132/132/132
f 133/133/133 134/134/134 135/135/135
f 136/136/136 137/137/137 138/138/138
f 139/139/139 140/140/140 141/141/141
f 142/142/142 143/143/143 144/144/144
f 145/145/145 146/146/146 147/147/147
f 148/148/148 149/149/149 150/150/150
f 151/151/151 152/152/152 153/153/153
f 154/154/154 155/155/155 156/156/156
f 157/157/157 158/158/158 159/159/159
f 160/160/160 161/161/161 162/162/162
f 163/163/163 164/164/164 165/165/165
f 166/166/166 167/167/167 168/168/168
f 169/169/169 170/170/170 171/171/171
f 172/172/172 173/173/173 174/174/174
f 175/175/175 176/176/176 177/177/177
f 178/178/178 179/179/179 180/180/180
