g  Instance
v -8.76675 -45.2756 0.489579
v -8.907894 -45.62537 0.8202267
v -8.466599 -44.86628 1.400589
v -8.466599 -44.86628 1.400589
v -8.907894 -45.62537 0.8202267
v -8.959599 -45.84351 1.375669
v -8.959599 -45.84351 1.375669
v -8.958527 -45.87171 1.447381
v -8.466599 -44.86628 1.400589
v -8.466599 -44.86628 1.400589
v -8.958527 -45.87171 1.447381
v -8.530649 -45.23867 1.977196
v -8.530649 -45.23867 1.977196
v -7.842922 -44.42874 2.681646
v -8.466599 -44.86628 1.400589
v -8.466599 -44.86628 1.400589
v -7.842922 -44.42874 2.681646
v -7.835922 -44.40807 2.661941
v -8.139853 -44.20358 -1.130456E-07
v -8.344385 -44.55595 -0.2099051
v -8.502522 -44.79805 -9.386443E-07
v -8.502522 -44.79805 -9.386443E-07
v -8.344385 -44.55595 -0.2099051
v -8.412577 -44.66259 -0.1468707
v -8.139853 -44.20358 -1.130456E-07
v -8.502522 -44.79805 -9.386443E-07
v -8.100277 -44.14211 0.03751753
v -8.100277 -44.14211 0.03751753
v -8.502522 -44.79805 -9.386443E-07
v -8.466599 -44.86628 1.400589
v -8.466599 -44.86628 1.400589
v -8.502522 -44.79805 -9.386443E-07
v -8.76675 -45.2756 0.489579
v -7.498824 -43.53424 1.400595
v -8.060968 -44.09312 0.06921738
v -8.466599 -44.86628 1.400589
v -8.466599 -44.86628 1.400589
v -8.060968 -44.09312 0.06921738
v -8.100277 -44.14211 0.03751753
v -8.466599 -44.86628 1.400589
v -7.835922 -44.40807 2.661941
v -7.498824 -43.53424 1.400595
v -7.498824 -43.53424 1.400595
v -7.835922 -44.40807 2.661941
v -7.669283 -44.05888 2.293166
v -7.498824 -43.53424 1.400595
v -7.669283 -44.05888 2.293166
v -7.358555 -43.46041 1.64248
v -7.498824 -43.53424 1.400595
v -7.341742 -43.31602 0.918004
v -8.060968 -44.09312 0.06921738
v -8.060968 -44.09312 0.06921738
v -7.341742 -43.31602 0.918004
v -7.482699 -43.45004 0.4997772
v -7.215964 -43.25364 1.391525
v -7.187247 -43.21934 1.34614
v -7.498824 -43.53424 1.400595
v -7.498824 -43.53424 1.400595
v -7.187247 -43.21934 1.34614
v -7.341742 -43.31602 0.918004
v -7.498824 -43.53424 1.400595
v -7.358555 -43.46041 1.64248
v -7.215964 -43.25364 1.391525
v -6.999094 -44.98584 2.446747
v -7.842922 -44.42874 2.681646
v -8.37044 -45.90854 1.532767
v -8.37044 -45.90854 1.532767
v -7.842922 -44.42874 2.681646
v -8.958527 -45.87171 1.447381
v -8.958527 -45.87171 1.447381
v -7.842922 -44.42874 2.681646
v -8.530649 -45.23867 1.977196
v -7.358555 -43.46041 1.64248
v -7.669283 -44.05888 2.293166
v -7.215964 -43.25364 1.391525
v -7.215964 -43.25364 1.391525
v -7.669283 -44.05888 2.293166
v -7.187247 -43.21934 1.34614
v -7.187247 -43.21934 1.34614
v -7.669283 -44.05888 2.293166
v -6.528251 -44.8031 1.969139
v -6.528251 -44.8031 1.969139
v -7.669283 -44.05888 2.293166
v -6.999094 -44.98584 2.446747
v -6.999094 -44.98584 2.446747
v -7.669283 -44.05888 2.293166
v -7.842922 -44.42874 2.681646
v -7.842922 -44.42874 2.681646
v -7.669283 -44.05888 2.293166
v -7.835922 -44.40807 2.661941
v -7.47481 -45.23414 -0.1948436
v -7.468477 -45.09146 -0.2540442
v -7.111185 -45.41781 0.2671174
v -7.111185 -45.41781 0.2671174
v -7.468477 -45.09146 -0.2540442
v -7.080427 -45.39683 0.2893577
v -7.080427 -45.39683 0.2893577
v -7.468477 -45.09146 -0.2540442
v -7.380321 -45.01442 -0.1980858
v -7.380321 -45.01442 -0.1980858
v -7.482699 -43.45004 0.4997772
v -7.080427 -45.39683 0.2893577
v -7.080427 -45.39683 0.2893577
v -7.482699 -43.45004 0.4997772
v -6.528251 -44.8031 1.969139
v -6.528251 -44.8031 1.969139
v -7.482699 -43.45004 0.4997772
v -7.187247 -43.21934 1.34614
v -7.187247 -43.21934 1.34614
v -7.482699 -43.45004 0.4997772
v -7.341742 -43.31602 0.918004
v -7.59899 -45.2505 -0.1515067
v -8.907894 -45.62537 0.8202267
v -8.412577 -44.66259 -0.1468707
v -8.412577 -44.66259 -0.1468707
v -8.907894 -45.62537 0.8202267
v -8.502522 -44.79805 -9.386443E-07
v -8.502522 -44.79805 -9.386443E-07
v -8.907894 -45.62537 0.8202267
v -8.76675 -45.2756 0.489579
v -8.958527 -45.87171 1.447381
v -8.959599 -45.84351 1.375669
v -8.37044 -45.90854 1.532767
v -8.37044 -45.90854 1.532767
v -8.959599 -45.84351 1.375669
v -7.111185 -45.41781 0.2671174
v -7.111185 -45.41781 0.2671174
v -8.959599 -45.84351 1.375669
v -7.47481 -45.23414 -0.1948436
v -7.47481 -45.23414 -0.1948436
v -8.959599 -45.84351 1.375669
v -7.59899 -45.2505 -0.1515067
v -7.59899 -45.2505 -0.1515067
v -8.959599 -45.84351 1.375669
v -8.907894 -45.62537 0.8202267
v -7.111185 -45.41781 0.2671174
v -7.080427 -45.39683 0.2893577
v -8.37044 -45.90854 1.532767
v -8.37044 -45.90854 1.532767
v -7.080427 -45.39683 0.2893577
v -6.999094 -44.98584 2.446747
v -6.999094 -44.98584 2.446747
v -7.080427 -45.39683 0.2893577
v -6.528251 -44.8031 1.969139
v -8.139853 -44.20358 -1.130456E-07
v -8.100277 -44.14211 0.03751753
v -8.344385 -44.55595 -0.2099051
v -8.344385 -44.55595 -0.2099051
v -8.100277 -44.14211 0.03751753
v -7.468477 -45.09146 -0.2540442
v -7.468477 -45.09146 -0.2540442
v -8.100277 -44.14211 0.03751753
v -7.380321 -45.01442 -0.1980858
v -7.380321 -45.01442 -0.1980858
v -8.100277 -44.14211 0.03751753
v -7.482699 -43.45004 0.4997772
v -7.482699 -43.45004 0.4997772
v -8.100277 -44.14211 0.03751753
v -8.060968 -44.09312 0.06921738
v -7.59899 -45.2505 -0.1515067
v -8.412577 -44.66259 -0.1468707
v -7.47481 -45.23414 -0.1948436
v -7.47481 -45.23414 -0.1948436
v -8.412577 -44.66259 -0.1468707
v -7.468477 -45.09146 -0.2540442
v -7.468477 -45.09146 -0.2540442
v -8.412577 -44.66259 -0.1468707
v -8.344385 -44.55595 -0.2099051

vn -0.8899328 0.4466034 0.09254757
vn -0.8899328 0.4466034 0.09254757
vn -0.8899328 0.4466034 0.09254757
vn -0.8899328 0.4466034 0.09254757
vn -0.8899328 0.4466034 0.09254757
vn -0.8899328 0.4466034 0.09254757
vn -0.8791795 0.4388027 0.1857294
vn -0.8791795 0.4388027 0.1857294
vn -0.8791795 0.4388027 0.1857294
vn -0.8791795 0.4388027 0.1857294
vn -0.8791795 0.4388027 0.1857294
vn -0.8791795 0.4388027 0.1857294
vn -0.8318541 0.5037479 0.2329307
vn -0.8318541 0.5037479 0.2329307
vn -0.8318541 0.5037479 0.2329307
vn -0.8318541 0.5037479 0.2329307
vn -0.8318541 0.5037479 0.2329307
vn -0.8318541 0.5037479 0.2329307
vn -0.8529099 0.5203314 -0.04242483
vn -0.8529099 0.5203314 -0.04242483
vn -0.8529099 0.5203314 -0.04242483
vn -0.8529099 0.5203314 -0.04242483
vn -0.8529099 0.5203314 -0.04242483
vn -0.8529099 0.5203314 -0.04242483
vn -0.8527268 0.5202192 0.04721257
vn -0.8527268 0.5202192 0.04721257
vn -0.8527268 0.5202192 0.04721257
vn -0.8527268 0.5202192 0.04721257
vn -0.8527268 0.5202192 0.04721257
vn -0.8527268 0.5202192 0.04721257
vn -0.8527268 0.5202192 0.04721257
vn -0.8527268 0.5202192 0.04721257
vn -0.8527268 0.5202192 0.04721257
vn -0.8054038 0.585156 0.0944299
vn -0.8054038 0.585156 0.0944299
vn -0.8054038 0.585156 0.0944299
vn -0.8054038 0.585156 0.0944299
vn -0.8054038 0.585156 0.0944299
vn -0.8054038 0.585156 0.0944299
vn -0.7946556 0.5773478 0.1875952
vn -0.7946556 0.5773478 0.1875952
vn -0.7946556 0.5773478 0.1875952
vn -0.7946556 0.5773478 0.1875952
vn -0.7946556 0.5773478 0.1875952
vn -0.7946556 0.5773478 0.1875952
vn -0.7361535 0.6354693 0.2329309
vn -0.7361535 0.6354693 0.2329309
vn -0.7361535 0.6354693 0.2329309
vn -0.75827 0.6502289 0.04721303
vn -0.75827 0.6502289 0.04721303
vn -0.75827 0.6502289 0.04721303
vn -0.75827 0.6502289 0.04721303
vn -0.75827 0.6502289 0.04721303
vn -0.75827 0.6502289 0.04721303
vn -0.6997536 0.7083642 0.09254792
vn -0.6997536 0.7083642 0.09254792
vn -0.6997536 0.7083642 0.09254792
vn -0.6997536 0.7083642 0.09254792
vn -0.6997536 0.7083642 0.09254792
vn -0.6997536 0.7083642 0.09254792
vn -0.6890112 0.7005481 0.1857308
vn -0.6890112 0.7005481 0.1857308
vn -0.6890112 0.7005481 0.1857308
vn -0.1528501 -0.571473 0.8062602
vn -0.1528501 -0.571473 0.8062602
vn -0.1528501 -0.571473 0.8062602
vn -0.1528501 -0.571473 0.8062602
vn -0.1528501 -0.571473 0.8062602
vn -0.1528501 -0.571473 0.8062602
vn -0.1528501 -0.571473 0.8062602
vn -0.1528501 -0.571473 0.8062602
vn -0.1528501 -0.571473 0.8062602
vn 0.519003 0.4911472 0.6995786
vn 0.519003 0.4911472 0.6995786
vn 0.519003 0.4911472 0.6995786
vn 0.519003 0.4911472 0.6995786
vn 0.519003 0.4911472 0.6995786
vn 0.519003 0.4911472 0.6995786
vn 0.519003 0.4911472 0.6995786
vn 0.519003 0.4911472 0.6995786
vn 0.519003 0.4911472 0.6995786
vn 0.519003 0.4911472 0.6995786
vn 0.519003 0.4911472 0.6995786
vn 0.519003 0.4911472 0.6995786
vn 0.519003 0.4911472 0.6995786
vn 0.519003 0.4911472 0.6995786
vn 0.519003 0.4911472 0.6995786
vn 0.519003 0.4911472 0.6995786
vn 0.519003 0.4911472 0.6995786
vn 0.519003 0.4911472 0.6995786
vn 0.6857936 -0.3046792 -0.6609522
vn 0.6857936 -0.3046792 -0.6609522
vn 0.6857936 -0.3046792 -0.6609522
vn 0.6857936 -0.3046792 -0.6609522
vn 0.6857936 -0.3046792 -0.6609522
vn 0.6857936 -0.3046792 -0.6609522
vn 0.6857936 -0.3046792 -0.6609522
vn 0.6857936 -0.3046792 -0.6609522
vn 0.6857936 -0.3046792 -0.6609522
vn 0.8987956 0.2263009 -0.3754389
vn 0.8987956 0.2263009 -0.3754389
vn 0.8987956 0.2263009 -0.3754389
vn 0.8987956 0.2263009 -0.3754389
vn 0.8987956 0.2263009 -0.3754389
vn 0.8987956 0.2263009 -0.3754389
vn 0.8987956 0.2263009 -0.3754389
vn 0.8987956 0.2263009 -0.3754389
vn 0.8987956 0.2263009 -0.3754389
vn 0.8987956 0.2263009 -0.3754389
vn 0.8987956 0.2263009 -0.3754389
vn 0.8987956 0.2263009 -0.3754389
vn -0.3955726 -0.5415771 -0.7417659
vn -0.3955726 -0.5415771 -0.7417659
vn -0.3955726 -0.5415771 -0.7417659
vn -0.3955726 -0.5415771 -0.7417659
vn -0.3955726 -0.5415771 -0.7417659
vn -0.3955726 -0.5415771 -0.7417659
vn -0.3955726 -0.5415771 -0.7417659
vn -0.3955726 -0.5415771 -0.7417659
vn -0.3955726 -0.5415771 -0.7417659
vn -0.00515007 -0.930621 -0.3659483
vn -0.00515007 -0.930621 -0.3659483
vn -0.00515007 -0.930621 -0.3659483
vn -0.00515007 -0.930621 -0.3659483
vn -0.00515007 -0.930621 -0.3659483
vn -0.00515007 -0.930621 -0.3659483
vn -0.00515007 -0.930621 -0.3659483
vn -0.00515007 -0.930621 -0.3659483
vn -0.00515007 -0.930621 -0.3659483
vn -0.00515007 -0.930621 -0.3659483
vn -0.00515007 -0.930621 -0.3659483
vn -0.00515007 -0.930621 -0.3659483
vn -0.00515007 -0.930621 -0.3659483
vn -0.00515007 -0.930621 -0.3659483
vn -0.00515007 -0.930621 -0.3659483
vn 0.4833138 -0.8631541 0.1461949
vn 0.4833138 -0.8631541 0.1461949
vn 0.4833138 -0.8631541 0.1461949
vn 0.4833138 -0.8631541 0.1461949
vn 0.4833138 -0.8631541 0.1461949
vn 0.4833138 -0.8631541 0.1461949
vn 0.4833138 -0.8631541 0.1461949
vn 0.4833138 -0.8631541 0.1461949
vn 0.4833138 -0.8631541 0.1461949
vn 0.2058083 0.4098827 -0.8886165
vn 0.2058083 0.4098827 -0.8886165
vn 0.2058083 0.4098827 -0.8886165
vn 0.2058083 0.4098827 -0.8886165
vn 0.2058083 0.4098827 -0.8886165
vn 0.2058083 0.4098827 -0.8886165
vn 0.2058083 0.4098827 -0.8886165
vn 0.2058083 0.4098827 -0.8886165
vn 0.2058083 0.4098827 -0.8886165
vn 0.2058083 0.4098827 -0.8886165
vn 0.2058083 0.4098827 -0.8886165
vn 0.2058083 0.4098827 -0.8886165
vn 0.2058083 0.4098827 -0.8886165
vn 0.2058083 0.4098827 -0.8886165
vn 0.2058083 0.4098827 -0.8886165
vn -0.2648996 -0.3595392 -0.8947402
vn -0.2648996 -0.3595392 -0.8947402
vn -0.2648996 -0.3595392 -0.8947402
vn -0.2648996 -0.3595392 -0.8947402
vn -0.2648996 -0.3595392 -0.8947402
vn -0.2648996 -0.3595392 -0.8947402
vn -0.2648996 -0.3595392 -0.8947402
vn -0.2648996 -0.3595392 -0.8947402
vn -0.2648996 -0.3595392 -0.8947402

vt 0.5642091 0.2430711
vt 0.569428 0.2478983
vt 0.5568177 0.2558735
vt 0.5568177 0.2558735
vt 0.569428 0.2478983
vt 0.5723372 0.2558735
vt 0.5723372 0.2558735
vt 0.5726482 0.2569022
vt 0.5568177 0.2558735
vt 0.5568177 0.2558735
vt 0.5726482 0.2569022
vt 0.5616236 0.2641978
vt 0.5616236 0.2641978
vt 0.5468775 0.2738868
vt 0.5568177 0.2558735
vt 0.5568177 0.2558735
vt 0.5468775 0.2738868
vt 0.5465838 0.2735993
vt 0.546801 0.236191
vt 0.5525897 0.2330854
vt 0.5566385 0.236191
vt 0.5566385 0.236191
vt 0.5525897 0.2330854
vt 0.5543671 0.234018
vt 0.546801 0.236191
vt 0.5566385 0.236191
vt 0.5457584 0.2367182
vt 0.5457584 0.2367182
vt 0.5566385 0.236191
vt 0.5568177 0.2558735
vt 0.5568177 0.2558735
vt 0.5566385 0.236191
vt 0.5642091 0.2430711
vt 0.5340904 0.2558735
vt 0.5448924 0.2371637
vt 0.5568177 0.2558735
vt 0.5568177 0.2558735
vt 0.5448924 0.2371637
vt 0.5457584 0.2367182
vt 0.5568177 0.2558735
vt 0.5465838 0.2735993
vt 0.5340904 0.2558735
vt 0.5340904 0.2558735
vt 0.5465838 0.2735993
vt 0.5413322 0.2684169
vt 0.5340904 0.2558735
vt 0.5413322 0.2684169
vt 0.5320743 0.2593655
vt 0.5340904 0.2558735
vt 0.5301749 0.2490917
vt 0.5448924 0.2371637
vt 0.5448924 0.2371637
vt 0.5301749 0.2490917
vt 0.532795 0.2432144
vt 0.5284411 0.2558735
vt 0.5277951 0.2552421
vt 0.5340904 0.2558735
vt 0.5340904 0.2558735
vt 0.5277951 0.2552421
vt 0.5301749 0.2490917
vt 0.5340904 0.2558735
vt 0.5320743 0.2593655
vt 0.5284411 0.2558735
vt 0.3179059 0.3602364
vt 0.4772995 0.2942467
vt 0.4984507 0.6169997
vt 0.4984507 0.6169997
vt 0.4772995 0.2942467
vt 0.5944468 0.6409823
vt 0.5944468 0.6409823
vt 0.4772995 0.2942467
vt 0.552932 0.4921456
vt 0.42647 0.5620309
vt 0.4568936 0.4367502
vt 0.4192883 0.6103525
vt 0.4192883 0.6103525
vt 0.4568936 0.4367502
vt 0.4185757 0.6190904
vt 0.4185757 0.6190904
vt 0.4568936 0.4367502
vt 0.6391588 0.4991398
vt 0.6391588 0.4991398
vt 0.4568936 0.4367502
vt 0.6128979 0.4071798
vt 0.6128979 0.4071798
vt 0.4568936 0.4367502
vt 0.4774307 0.3619522
vt 0.4774307 0.3619522
vt 0.4568936 0.4367502
vt 0.4760291 0.3657446
vt 0.5269054 0.5567619
vt 0.5094857 0.5670937
vt 0.5295494 0.4761088
vt 0.5295494 0.4761088
vt 0.5094857 0.5670937
vt 0.5254053 0.4722273
vt 0.5254053 0.4722273
vt 0.5094857 0.5670937
vt 0.4955724 0.5573244
vt 0.5385874 0.5964579
vt 0.3750263 0.516597
vt 0.5856807 0.5406734
vt 0.5856807 0.5406734
vt 0.3750263 0.516597
vt 0.5389249 0.3484373
vt 0.5389249 0.3484373
vt 0.3750263 0.516597
vt 0.358952 0.4197336
vt 0.358952 0.4197336
vt 0.3750263 0.516597
vt 0.3648961 0.4687302
vt 0.3952635 0.5888731
vt 0.5178018 0.3764842
vt 0.5423938 0.5878699
vt 0.5423938 0.5878699
vt 0.5178018 0.3764842
vt 0.5413344 0.555768
vt 0.5413344 0.555768
vt 0.5178018 0.3764842
vt 0.5313307 0.4487556
vt 0.5912498 0.4095237
vt 0.591381 0.4176616
vt 0.5290993 0.399834
vt 0.5290993 0.399834
vt 0.591381 0.4176616
vt 0.3963651 0.5435048
vt 0.3963651 0.5435048
vt 0.591381 0.4176616
vt 0.4348845 0.5959423
vt 0.4348845 0.5959423
vt 0.591381 0.4176616
vt 0.4479915 0.5910201
vt 0.4479915 0.5910201
vt 0.591381 0.4176616
vt 0.586037 0.4807168
vt 0.4485587 0.5866792
vt 0.4448741 0.5844478
vt 0.5815742 0.4595375
vt 0.5815742 0.4595375
vt 0.4448741 0.5844478
vt 0.4178632 0.3677275
vt 0.4178632 0.3677275
vt 0.4448741 0.5844478
vt 0.3681635 0.4157068
vt 0.4143849 0.5264695
vt 0.4160537 0.5089372
vt 0.4090971 0.6245658
vt 0.4090971 0.6245658
vt 0.4160537 0.5089372
vt 0.6283863 0.645192
vt 0.6283863 0.645192
vt 0.4160537 0.5089372
vt 0.6378649 0.6190436
vt 0.6378649 0.6190436
vt 0.4160537 0.5089372
vt 0.467788 0.2929013
vt 0.467788 0.2929013
vt 0.4160537 0.5089372
vt 0.4188711 0.4941238
vt 0.3476029 0.5702907
vt 0.5685516 0.5680125
vt 0.3277314 0.5916576
vt 0.3277314 0.5916576
vt 0.5685516 0.5680125
vt 0.3452403 0.6208343
vt 0.3452403 0.6208343
vt 0.5685516 0.5680125
vt 0.5703986 0.5990736

usemtl Material0
usemap Material0
f 1/1/1 2/2/2 3/3/3
f 4/4/4 5/5/5 6/6/6
f 7/7/7 8/8/8 9/9/9
f 10/10/10 11/11/11 12/12/12
f 13/13/13 14/14/14 15/15/15
f 16/16/16 17/17/17 18/18/18
f 19/19/19 20/20/20 21/21/21
f 22/22/22 23/23/23 24/24/24
f 25/25/25 26/26/26 27/27/27
f 28/28/28 29/29/29 30/30/30
f 31/31/31 32/32/32 33/33/33
f 34/34/34 35/35/35 36/36/36
f 37/37/37 38/38/38 39/39/39
f 40/40/40 41/41/41 42/42/42
f 43/43/43 44/44/44 45/45/45
f 46/46/46 47/47/47 48/48/48
f 49/49/49 50/50/50 51/51/51
f 52/52/52 53/53/53 54/54/54
f 55/55/55 56/56/56 57/57/57
f 58/58/58 59/59/59 60/60/60
f 61/61/61 62/62/62 63/63/63

usemtl Material1
usemap Material1
f 64/64/64 65/65/65 66/66/66
f 67/67/67 68/68/68 69/69/69
f 70/70/70 71/71/71 72/72/72
f 73/73/73 74/74/74 75/75/75
f 76/76/76 77/77/77 78/78/78
f 79/79/79 80/80/80 81/81/81
f 82/82/82 83/83/83 84/84/84
f 85/85/85 86/86/86 87/87/87
f 88/88/88 89/89/89 90/90/90
f 91/91/91 92/92/92 93/93/93
f 94/94/94 95/95/95 96/96/96
f 97/97/97 98/98/98 99/99/99
f 100/100/100 101/101/101 102/102/102
f 103/103/103 104/104/104 105/105/105
f 106/106/106 107/107/107 108/108/108
f 109/109/109 110/110/110 111/111/111
f 112/112/112 113/113/113 114/114/114
f 115/115/115 116/116/116 117/117/117
f 118/118/118 119/119/119 120/120/120
f 121/121/121 122/122/122 123/123/123
f 124/124/124 125/125/125 126/126/126
f 127/127/127 128/128/128 129/129/129
f 130/130/130 131/131/131 132/132/132
f 133/133/133 134/134/134 135/135/135
f 136/136/136 137/137/137 138/138/138
f 139/139/139 140/140/140 141/141/141
f 142/142/142 143/143/143 144/144/144
f 145/145/145 146/146/146 147/147/147
f 148/148/148 149/149/149 150/150/150
f 151/151/151 152/152/152 153/153/153
f 154/154/154 155/155/155 156/156/156
f 157/157/157 158/158/158 159/159/159
f 160/160/160 161/161/161 162/162/162
f 163/163/163 164/164/164 165/165/165
f 166/166/166 167/167/167 168/168/168
