g  Instance
v -6.871586 -56.81715 -2.51152
v -6.60638 -57.27047 -1.73323
v -7.53368 -56.44003 -1.330337
v -7.53368 -56.44003 -1.330337
v -6.60638 -57.27047 -1.73323
v -6.81452 -57.16461 -1.309338
v -6.871586 -56.81715 -2.51152
v -6.956184 -56.71671 -2.513989
v -6.890417 -56.75863 -2.59183
v -7.53368 -56.44003 -1.330337
v -6.81452 -57.16461 -1.309338
v -7.165211 -56.93488 -0.3314883
v -7.604711 -56.36827 -1.160537
v -7.53368 -56.44003 -1.330337
v -7.203654 -56.90021 -0.1756474
v -7.203654 -56.90021 -0.1756474
v -7.53368 -56.44003 -1.330337
v -7.165211 -56.93488 -0.3314883
v -6.956184 -56.71671 -2.513989
v -6.871586 -56.81715 -2.51152
v -7.614886 -56.22961 -1.667341
v -7.614886 -56.22961 -1.667341
v -6.871586 -56.81715 -2.51152
v -7.53368 -56.44003 -1.330337
v -7.53368 -56.44003 -1.330337
v -7.658202 -56.26863 -1.330337
v -7.614886 -56.22961 -1.667341
v -7.614886 -56.22961 -1.667341
v -7.658202 -56.26863 -1.330337
v -7.706562 -56.14331 -1.531072
v -7.53368 -56.44003 -1.330337
v -7.604711 -56.36827 -1.160537
v -7.658202 -56.26863 -1.330337
v -6.871586 -56.81715 -2.51152
v -6.030621 -57.50911 -2.627719
v -6.60638 -57.27047 -1.73323
v -5.701005 -57.61779 -2.996435
v -5.853049 -57.57205 -2.848851
v -5.878292 -57.27923 -3.438002
v -5.878292 -57.27923 -3.438002
v -5.853049 -57.57205 -2.848851
v -5.961113 -57.17875 -3.520175
v -5.961113 -57.17875 -3.520175
v -5.853049 -57.57205 -2.848851
v -6.045586 -57.15005 -3.445244
v -6.030621 -57.50911 -2.627719
v -6.871586 -56.81715 -2.51152
v -5.853049 -57.57205 -2.848851
v -5.853049 -57.57205 -2.848851
v -6.871586 -56.81715 -2.51152
v -6.045586 -57.15005 -3.445244
v -6.045586 -57.15005 -3.445244
v -6.871586 -56.81715 -2.51152
v -6.744975 -56.83065 -2.743362
v -6.871586 -56.81715 -2.51152
v -6.890417 -56.75863 -2.59183
v -6.744975 -56.83065 -2.743362
v -5.878292 -57.27923 -3.438002
v -5.961113 -57.17875 -3.520175
v -5.187251 -57.44107 -2.7502
v -5.187251 -57.44107 -2.7502
v -5.961113 -57.17875 -3.520175
v -4.275043 -54.70277 -1.832769
v -4.275043 -54.70277 -1.832769
v -5.961113 -57.17875 -3.520175
v -4.391798 -54.73849 -1.94918
v -6.807988 -56.89379 0.0841803
v -5.87433 -56.95691 0.2955985
v -6.416232 -56.80262 0.2278035
v -4.275043 -54.70277 -1.832769
v -4.25035 -54.67561 -1.744035
v -5.187251 -57.44107 -2.7502
v -5.187251 -57.44107 -2.7502
v -4.25035 -54.67561 -1.744035
v -5.204566 -57.60025 -2.621748
v -5.204566 -57.60025 -2.621748
v -4.25035 -54.67561 -1.744035
v -4.544015 -57.14069 0.1152727
v -4.544015 -57.14069 0.1152727
v -4.25035 -54.67561 -1.744035
v -4.396082 -56.67544 0.2352335
v -4.396082 -56.67544 0.2352335
v -4.25035 -54.67561 -1.744035
v -4.380805 -56.59894 0.2089082
v -4.544015 -57.14069 0.1152727
v -4.396082 -56.67544 0.2352335
v -5.271564 -57.01714 0.3321056
v -4.396082 -56.67544 0.2352335
v -4.380805 -56.59894 0.2089082
v -5.271564 -57.01714 0.3321056
v -5.271564 -57.01714 0.3321056
v -4.380805 -56.59894 0.2089082
v -5.87433 -56.95691 0.2955985
v -5.87433 -56.95691 0.2955985
v -4.380805 -56.59894 0.2089082
v -6.416232 -56.80262 0.2278035
v -6.416232 -56.80262 0.2278035
v -4.380805 -56.59894 0.2089082
v -4.726596 -55.68931 -0.1176582
v -5.204566 -57.60025 -2.621748
v -5.701005 -57.61779 -2.996435
v -5.187251 -57.44107 -2.7502
v -5.187251 -57.44107 -2.7502
v -5.701005 -57.61779 -2.996435
v -5.878292 -57.27923 -3.438002
v -7.203654 -56.90021 -0.1756474
v -7.165211 -56.93488 -0.3314883
v -6.807988 -56.89379 0.0841803
v -6.807988 -56.89379 0.0841803
v -7.165211 -56.93488 -0.3314883
v -5.87433 -56.95691 0.2955985
v -5.87433 -56.95691 0.2955985
v -7.165211 -56.93488 -0.3314883
v -5.271564 -57.01714 0.3321056
v -5.271564 -57.01714 0.3321056
v -7.165211 -56.93488 -0.3314883
v -4.544015 -57.14069 0.1152727
v -4.544015 -57.14069 0.1152727
v -7.165211 -56.93488 -0.3314883
v -5.204566 -57.60025 -2.621748
v -5.204566 -57.60025 -2.621748
v -7.165211 -56.93488 -0.3314883
v -5.701005 -57.61779 -2.996435
v -5.701005 -57.61779 -2.996435
v -7.165211 -56.93488 -0.3314883
v -5.853049 -57.57205 -2.848851
v -5.853049 -57.57205 -2.848851
v -7.165211 -56.93488 -0.3314883
v -6.030621 -57.50911 -2.627719
v -6.030621 -57.50911 -2.627719
v -7.165211 -56.93488 -0.3314883
v -6.60638 -57.27047 -1.73323
v -6.60638 -57.27047 -1.73323
v -7.165211 -56.93488 -0.3314883
v -6.81452 -57.16461 -1.309338
v -4.830927 -54.6333 -1.603508
v -7.706562 -56.14331 -1.531072
v -4.508248 -54.58556 -1.448558
v -4.508248 -54.58556 -1.448558
v -7.706562 -56.14331 -1.531072
v -4.726596 -55.68931 -0.1176582
v -4.726596 -55.68931 -0.1176582
v -7.706562 -56.14331 -1.531072
v -6.416232 -56.80262 0.2278035
v -6.416232 -56.80262 0.2278035
v -7.706562 -56.14331 -1.531072
v -6.807988 -56.89379 0.0841803
v -6.807988 -56.89379 0.0841803
v -7.706562 -56.14331 -1.531072
v -7.203654 -56.90021 -0.1756474
v -7.203654 -56.90021 -0.1756474
v -7.706562 -56.14331 -1.531072
v -7.604711 -56.36827 -1.160537
v -7.604711 -56.36827 -1.160537
v -7.706562 -56.14331 -1.531072
v -7.658202 -56.26863 -1.330337
v -4.830927 -54.6333 -1.603508
v -4.508248 -54.58556 -1.448558
v -4.391798 -54.73849 -1.94918
v -4.391798 -54.73849 -1.94918
v -4.508248 -54.58556 -1.448558
v -4.275043 -54.70277 -1.832769
v -4.275043 -54.70277 -1.832769
v -4.508248 -54.58556 -1.448558
v -4.25035 -54.67561 -1.744035
v -6.045586 -57.15005 -3.445244
v -6.744975 -56.83065 -2.743362
v -5.961113 -57.17875 -3.520175
v -5.961113 -57.17875 -3.520175
v -6.744975 -56.83065 -2.743362
v -4.391798 -54.73849 -1.94918
v -4.391798 -54.73849 -1.94918
v -6.744975 -56.83065 -2.743362
v -4.830927 -54.6333 -1.603508
v -4.830927 -54.6333 -1.603508
v -6.744975 -56.83065 -2.743362
v -7.706562 -56.14331 -1.531072
v -7.706562 -56.14331 -1.531072
v -6.744975 -56.83065 -2.743362
v -7.614886 -56.22961 -1.667341
v -7.614886 -56.22961 -1.667341
v -6.744975 -56.83065 -2.743362
v -6.956184 -56.71671 -2.513989
v -6.956184 -56.71671 -2.513989
v -6.744975 -56.83065 -2.743362
v -6.890417 -56.75863 -2.59183
v -4.380805 -56.59894 0.2089082
v -4.25035 -54.67561 -1.744035
v -4.726596 -55.68931 -0.1176582
v -4.726596 -55.68931 -0.1176582
v -4.25035 -54.67561 -1.744035
v -4.508248 -54.58556 -1.448558

vn -0.6971924 -0.6968465 -0.1683085
vn -0.6971924 -0.6968465 -0.1683085
vn -0.6971924 -0.6968465 -0.1683085
vn -0.6971924 -0.6968465 -0.1683085
vn -0.6971924 -0.6968465 -0.1683085
vn -0.6971924 -0.6968465 -0.1683085
vn -0.7303671 -0.6220833 -0.2820928
vn -0.7303671 -0.6220833 -0.2820928
vn -0.7303671 -0.6220833 -0.2820928
vn -0.7057353 -0.702997 -0.08793782
vn -0.7057353 -0.702997 -0.08793782
vn -0.7057353 -0.702997 -0.08793782
vn -0.7584314 -0.6503704 -0.04242656
vn -0.7584314 -0.6503704 -0.04242656
vn -0.7584314 -0.6503704 -0.04242656
vn -0.7584314 -0.6503704 -0.04242656
vn -0.7584314 -0.6503704 -0.04242656
vn -0.7584314 -0.6503704 -0.04242656
vn -0.7442955 -0.6321741 -0.2153606
vn -0.7442955 -0.6321741 -0.2153606
vn -0.7442955 -0.6321741 -0.2153606
vn -0.7442955 -0.6321741 -0.2153606
vn -0.7442955 -0.6321741 -0.2153606
vn -0.7442955 -0.6321741 -0.2153606
vn -0.7973043 -0.5792723 -0.1695566
vn -0.7973043 -0.5792723 -0.1695566
vn -0.7973043 -0.5792723 -0.1695566
vn -0.7973043 -0.5792723 -0.1695566
vn -0.7973043 -0.5792723 -0.1695566
vn -0.7973043 -0.5792723 -0.1695566
vn -0.80576 -0.5854138 -0.08967475
vn -0.80576 -0.5854138 -0.08967475
vn -0.80576 -0.5854138 -0.08967475
vn -0.6381552 -0.7397397 -0.2134084
vn -0.6381552 -0.7397397 -0.2134084
vn -0.6381552 -0.7397397 -0.2134084
vn -0.5634297 -0.7491917 -0.3482223
vn -0.5634297 -0.7491917 -0.3482223
vn -0.5634297 -0.7491917 -0.3482223
vn -0.5634297 -0.7491917 -0.3482223
vn -0.5634297 -0.7491917 -0.3482223
vn -0.5634297 -0.7491917 -0.3482223
vn -0.5634297 -0.7491917 -0.3482223
vn -0.5634297 -0.7491917 -0.3482223
vn -0.5634297 -0.7491917 -0.3482223
vn -0.6301825 -0.7150812 -0.3025374
vn -0.6301825 -0.7150812 -0.3025374
vn -0.6301825 -0.7150812 -0.3025374
vn -0.6301825 -0.7150812 -0.3025374
vn -0.6301825 -0.7150812 -0.3025374
vn -0.6301825 -0.7150812 -0.3025374
vn -0.6301825 -0.7150812 -0.3025374
vn -0.6301825 -0.7150812 -0.3025374
vn -0.6301825 -0.7150812 -0.3025374
vn -0.6707893 -0.6653692 -0.3276059
vn -0.6707893 -0.6653692 -0.3276059
vn -0.6707893 -0.6653692 -0.3276059
vn 0.7057104 0.002279683 -0.7084968
vn 0.7057104 0.002279683 -0.7084968
vn 0.7057104 0.002279683 -0.7084968
vn 0.7057104 0.002279683 -0.7084968
vn 0.7057104 0.002279683 -0.7084968
vn 0.7057104 0.002279683 -0.7084968
vn 0.7057104 0.002279683 -0.7084968
vn 0.7057104 0.002279683 -0.7084968
vn 0.7057104 0.002279683 -0.7084968
vn -0.2276466 -0.4118329 0.8823665
vn -0.2276466 -0.4118329 0.8823665
vn -0.2276466 -0.4118329 0.8823665
vn 0.9491369 -0.2537131 -0.1864647
vn 0.9491369 -0.2537131 -0.1864647
vn 0.9491369 -0.2537131 -0.1864647
vn 0.9491369 -0.2537131 -0.1864647
vn 0.9491369 -0.2537131 -0.1864647
vn 0.9491369 -0.2537131 -0.1864647
vn 0.9491369 -0.2537131 -0.1864647
vn 0.9491369 -0.2537131 -0.1864647
vn 0.9491369 -0.2537131 -0.1864647
vn 0.9491369 -0.2537131 -0.1864647
vn 0.9491369 -0.2537131 -0.1864647
vn 0.9491369 -0.2537131 -0.1864647
vn 0.9491369 -0.2537131 -0.1864647
vn 0.9491369 -0.2537131 -0.1864647
vn 0.9491369 -0.2537131 -0.1864647
vn 0.2230007 -0.3092693 0.9244583
vn 0.2230007 -0.3092693 0.9244583
vn 0.2230007 -0.3092693 0.9244583
vn -0.02422347 0.3296264 0.9438007
vn -0.02422347 0.3296264 0.9438007
vn -0.02422347 0.3296264 0.9438007
vn -0.02422347 0.3296264 0.9438007
vn -0.02422347 0.3296264 0.9438007
vn -0.02422347 0.3296264 0.9438007
vn -0.02422347 0.3296264 0.9438007
vn -0.02422347 0.3296264 0.9438007
vn -0.02422347 0.3296264 0.9438007
vn -0.02422347 0.3296264 0.9438007
vn -0.02422347 0.3296264 0.9438007
vn -0.02422347 0.3296264 0.9438007
vn 0.5059927 -0.5743329 -0.6435162
vn 0.5059927 -0.5743329 -0.6435162
vn 0.5059927 -0.5743329 -0.6435162
vn 0.5059927 -0.5743329 -0.6435162
vn 0.5059927 -0.5743329 -0.6435162
vn 0.5059927 -0.5743329 -0.6435162
vn -0.109017 -0.9756869 0.1901326
vn -0.109017 -0.9756869 0.1901326
vn -0.109017 -0.9756869 0.1901326
vn -0.109017 -0.9756869 0.1901326
vn -0.109017 -0.9756869 0.1901326
vn -0.109017 -0.9756869 0.1901326
vn -0.109017 -0.9756869 0.1901326
vn -0.109017 -0.9756869 0.1901326
vn -0.109017 -0.9756869 0.1901326
vn -0.109017 -0.9756869 0.1901326
vn -0.109017 -0.9756869 0.1901326
vn -0.109017 -0.9756869 0.1901326
vn -0.109017 -0.9756869 0.1901326
vn -0.109017 -0.9756869 0.1901326
vn -0.109017 -0.9756869 0.1901326
vn -0.109017 -0.9756869 0.1901326
vn -0.109017 -0.9756869 0.1901326
vn -0.109017 -0.9756869 0.1901326
vn -0.109017 -0.9756869 0.1901326
vn -0.109017 -0.9756869 0.1901326
vn -0.109017 -0.9756869 0.1901326
vn -0.109017 -0.9756869 0.1901326
vn -0.109017 -0.9756869 0.1901326
vn -0.109017 -0.9756869 0.1901326
vn -0.109017 -0.9756869 0.1901326
vn -0.109017 -0.9756869 0.1901326
vn -0.109017 -0.9756869 0.1901326
vn -0.109017 -0.9756869 0.1901326
vn -0.109017 -0.9756869 0.1901326
vn -0.109017 -0.9756869 0.1901326
vn -0.3760009 0.7426239 0.5541959
vn -0.3760009 0.7426239 0.5541959
vn -0.3760009 0.7426239 0.5541959
vn -0.3760009 0.7426239 0.5541959
vn -0.3760009 0.7426239 0.5541959
vn -0.3760009 0.7426239 0.5541959
vn -0.3760009 0.7426239 0.5541959
vn -0.3760009 0.7426239 0.5541959
vn -0.3760009 0.7426239 0.5541959
vn -0.3760009 0.7426239 0.5541959
vn -0.3760009 0.7426239 0.5541959
vn -0.3760009 0.7426239 0.5541959
vn -0.3760009 0.7426239 0.5541959
vn -0.3760009 0.7426239 0.5541959
vn -0.3760009 0.7426239 0.5541959
vn -0.3760009 0.7426239 0.5541959
vn -0.3760009 0.7426239 0.5541959
vn -0.3760009 0.7426239 0.5541959
vn -0.3760009 0.7426239 0.5541959
vn -0.3760009 0.7426239 0.5541959
vn -0.3760009 0.7426239 0.5541959
vn -0.001091633 0.9563001 -0.2923848
vn -0.001091633 0.9563001 -0.2923848
vn -0.001091633 0.9563001 -0.2923848
vn -0.001091633 0.9563001 -0.2923848
vn -0.001091633 0.9563001 -0.2923848
vn -0.001091633 0.9563001 -0.2923848
vn -0.001091633 0.9563001 -0.2923848
vn -0.001091633 0.9563001 -0.2923848
vn -0.001091633 0.9563001 -0.2923848
vn -0.3621293 0.6579539 -0.6602719
vn -0.3621293 0.6579539 -0.6602719
vn -0.3621293 0.6579539 -0.6602719
vn -0.3621293 0.6579539 -0.6602719
vn -0.3621293 0.6579539 -0.6602719
vn -0.3621293 0.6579539 -0.6602719
vn -0.3621293 0.6579539 -0.6602719
vn -0.3621293 0.6579539 -0.6602719
vn -0.3621293 0.6579539 -0.6602719
vn -0.3621293 0.6579539 -0.6602719
vn -0.3621293 0.6579539 -0.6602719
vn -0.3621293 0.6579539 -0.6602719
vn -0.3621293 0.6579539 -0.6602719
vn -0.3621293 0.6579539 -0.6602719
vn -0.3621293 0.6579539 -0.6602719
vn -0.3621293 0.6579539 -0.6602719
vn -0.3621293 0.6579539 -0.6602719
vn -0.3621293 0.6579539 -0.6602719
vn -0.3621293 0.6579539 -0.6602719
vn -0.3621293 0.6579539 -0.6602719
vn -0.3621293 0.6579539 -0.6602719
vn 0.7338752 0.4588279 0.5009034
vn 0.7338752 0.4588279 0.5009034
vn 0.7338752 0.4588279 0.5009034
vn 0.7338752 0.4588279 0.5009034
vn 0.7338752 0.4588279 0.5009034
vn 0.7338752 0.4588279 0.5009034

vt 0.7499992 0.196826
vt 0.7572929 0.2094592
vt 0.7386356 0.2165085
vt 0.7386356 0.2165085
vt 0.7572929 0.2094592
vt 0.7538357 0.2165085
vt 0.7499992 0.196826
vt 0.7479826 0.196826
vt 0.749143 0.195343
vt 0.7386356 0.2165085
vt 0.7538357 0.2165085
vt 0.7471678 0.2312867
vt 0.7371852 0.2190207
vt 0.7386356 0.2165085
vt 0.7464171 0.2335924
vt 0.7464171 0.2335924
vt 0.7386356 0.2165085
vt 0.7471678 0.2312867
vt 0.7479826 0.196826
vt 0.7499992 0.196826
vt 0.7354681 0.2110221
vt 0.7354681 0.2110221
vt 0.7499992 0.196826
vt 0.7386356 0.2165085
vt 0.7386356 0.2165085
vt 0.7355568 0.2165085
vt 0.7354681 0.2110221
vt 0.7354681 0.2110221
vt 0.7355568 0.2165085
vt 0.7336704 0.2132406
vt 0.7386356 0.2165085
vt 0.7371852 0.2190207
vt 0.7355568 0.2165085
vt 0.7499992 0.196826
vt 0.7677078 0.196826
vt 0.7572929 0.2094592
vt 0.7733169 0.1915683
vt 0.7708641 0.1936003
vt 0.7682667 0.1839134
vt 0.7682667 0.1839134
vt 0.7708641 0.1936003
vt 0.7663504 0.1823647
vt 0.7663504 0.1823647
vt 0.7708641 0.1936003
vt 0.7649625 0.1833782
vt 0.7677078 0.196826
vt 0.7499992 0.196826
vt 0.7708641 0.1936003
vt 0.7708641 0.1936003
vt 0.7499992 0.196826
vt 0.7649625 0.1833782
vt 0.7649625 0.1833782
vt 0.7499992 0.196826
vt 0.7520297 0.193309
vt 0.7499992 0.196826
vt 0.749143 0.195343
vt 0.7520297 0.193309
vt 0.6393182 0.7922474
vt 0.625283 0.808467
vt 0.6621758 0.6564801
vt 0.6621758 0.6564801
vt 0.625283 0.808467
vt 0.2811303 0.4753821
vt 0.2811303 0.4753821
vt 0.625283 0.808467
vt 0.2860525 0.4983616
vt 0.7243356 0.6328537
vt 0.547241 0.5389858
vt 0.6619226 0.5690813
vt 0.3222795 0.553246
vt 0.3190169 0.544208
vt 0.6105634 0.6466827
vt 0.6105634 0.6466827
vt 0.3190169 0.544208
vt 0.6263987 0.6336038
vt 0.6263987 0.6336038
vt 0.3190169 0.544208
vt 0.5649045 0.3548314
vt 0.5649045 0.3548314
vt 0.3190169 0.544208
vt 0.5161048 0.3426151
vt 0.5161048 0.3426151
vt 0.3190169 0.544208
vt 0.5083137 0.3452965
vt 0.4360986 0.4516245
vt 0.4844342 0.436319
vt 0.4548497 0.5268914
vt 0.4059703 0.4041187
vt 0.4139255 0.4026139
vt 0.3711074 0.4902424
vt 0.3711074 0.4902424
vt 0.4139255 0.4026139
vt 0.3778812 0.5495333
vt 0.3778812 0.5495333
vt 0.4139255 0.4026139
vt 0.3944009 0.6028426
vt 0.3944009 0.6028426
vt 0.4139255 0.4026139
vt 0.5089607 0.436633
vt 0.6142011 0.5559368
vt 0.6635352 0.6188092
vt 0.5990221 0.5774912
vt 0.5990221 0.5774912
vt 0.6635352 0.6188092
vt 0.651872 0.6929041
vt 0.6870491 0.4162881
vt 0.6828395 0.4321843
vt 0.6477468 0.3897882
vt 0.6477468 0.3897882
vt 0.6828395 0.4321843
vt 0.554132 0.3682244
vt 0.554132 0.3682244
vt 0.6828395 0.4321843
vt 0.4934816 0.3645023
vt 0.4934816 0.3645023
vt 0.6828395 0.4321843
vt 0.4197008 0.3866192
vt 0.4197008 0.3866192
vt 0.6828395 0.4321843
vt 0.4803324 0.66579
vt 0.4803324 0.66579
vt 0.6828395 0.4321843
vt 0.5295399 0.7040047
vt 0.5295399 0.7040047
vt 0.6828395 0.4321843
vt 0.5451784 0.6889476
vt 0.5451784 0.6889476
vt 0.6828395 0.4321843
vt 0.563545 0.6663994
vt 0.563545 0.6663994
vt 0.6828395 0.4321843
vt 0.6235017 0.5751567
vt 0.6235017 0.5751567
vt 0.6828395 0.4321843
vt 0.6453841 0.531926
vt 0.6067194 0.6215937
vt 0.2231566 0.6113181
vt 0.6432653 0.5996081
vt 0.6432653 0.5996081
vt 0.2231566 0.6113181
vt 0.5613793 0.4107706
vt 0.5613793 0.4107706
vt 0.2231566 0.6113181
vt 0.3239484 0.3617553
vt 0.3239484 0.3617553
vt 0.2231566 0.6113181
vt 0.2778067 0.382133
vt 0.2778067 0.382133
vt 0.2231566 0.6113181
vt 0.2357714 0.4189976
vt 0.2357714 0.4189976
vt 0.2231566 0.6113181
vt 0.2218909 0.5587494
vt 0.2218909 0.5587494
vt 0.2231566 0.6113181
vt 0.2215675 0.5828353
vt 0.522302 0.49193
vt 0.5554821 0.4752743
vt 0.5674359 0.5290946
vt 0.5674359 0.5290946
vt 0.5554821 0.4752743
vt 0.579446 0.5165783
vt 0.579446 0.5165783
vt 0.5554821 0.4752743
vt 0.5819867 0.5070434
vt 0.3268408 0.7542764
vt 0.2667998 0.6319349
vt 0.3347162 0.7673365
vt 0.3347162 0.7673365
vt 0.2667998 0.6319349
vt 0.6687011 0.4935144
vt 0.6687011 0.4935144
vt 0.2667998 0.6319349
vt 0.6249924 0.4332719
vt 0.6249924 0.4332719
vt 0.2667998 0.6319349
vt 0.1999053 0.4206431
vt 0.1999053 0.4206431
vt 0.2667998 0.6319349
vt 0.2049728 0.444396
vt 0.2049728 0.444396
vt 0.2667998 0.6319349
vt 0.2497691 0.5919576
vt 0.2497691 0.5919576
vt 0.2667998 0.6319349
vt 0.2546631 0.6055241
vt 0.5738956 0.3858926
vt 0.3965057 0.6421918
vt 0.4654628 0.4287529
vt 0.4654628 0.4287529
vt 0.3965057 0.6421918
vt 0.3723121 0.6034145

usemtl Material0
usemap Material0
f 1/1/1 2/2/2 3/3/3
f 4/4/4 5/5/5 6/6/6
f 7/7/7 8/8/8 9/9/9
f 10/10/10 11/11/11 12/12/12
f 13/13/13 14/14/14 15/15/15
f 16/16/16 17/17/17 18/18/18
f 19/19/19 20/20/20 21/21/21
f 22/22/22 23/23/23 24/24/24
f 25/25/25 26/26/26 27/27/27
f 28/28/28 29/29/29 30/30/30
f 31/31/31 32/32/32 33/33/33
f 34/34/34 35/35/35 36/36/36
f 37/37/37 38/38/38 39/39/39
f 40/40/40 41/41/41 42/42/42
f 43/43/43 44/44/44 45/45/45
f 46/46/46 47/47/47 48/48/48
f 49/49/49 50/50/50 51/51/51
f 52/52/52 53/53/53 54/54/54
f 55/55/55 56/56/56 57/57/57

usemtl Material1
usemap Material1
f 58/58/58 59/59/59 60/60/60
f 61/61/61 62/62/62 63/63/63
f 64/64/64 65/65/65 66/66/66
f 67/67/67 68/68/68 69/69/69
f 70/70/70 71/71/71 72/72/72
f 73/73/73 74/74/74 75/75/75
f 76/76/76 77/77/77 78/78/78
f 79/79/79 80/80/80 81/81/81
f 82/82/82 83/83/83 84/84/84
f 85/85/85 86/86/86 87/87/87
f 88/88/88 89/89/89 90/90/90
f 91/91/91 92/92/92 93/93/93
f 94/94/94 95/95/95 96/96/96
f 97/97/97 98/98/98 99/99/99
f 100/100/100 101/101/101 102/102/102
f 103/103/103 104/104/104 105/105/105
f 106/106/106 107/107/107 108/108/108
f 109/109/109 110/110/110 111/111/111
f 112/112/112 113/113/113 114/114/114
f 115/115/115 116/116/116 117/117/117
f 118/118/118 119/119/119 120/120/120
f 121/121/121 122/122/122 123/123/123
f 124/124/124 125/125/125 126/126/126
f 127/127/127 128/128/128 129/129/129
f 130/130/130 131/131/131 132/132/132
f 133/133/133 134/134/134 135/135/135
f 136/136/136 137/137/137 138/138/138
f 139/139/139 140/140/140 141/141/141
f 142/142/142 143/143/143 144/144/144
f 145/145/145 146/146/146 147/147/147
f 148/148/148 149/149/149 150/150/150
f 151/151/151 152/152/152 153/153/153
f 154/154/154 155/155/155 156/156/156
f 157/157/157 158/158/158 159/159/159
f 160/160/160 161/161/161 162/162/162
f 163/163/163 164/164/164 165/165/165
f 166/166/166 167/167/167 168/168/168
f 169/169/169 170/170/170 171/171/171
f 172/172/172 173/173/173 174/174/174
f 175/175/175 176/176/176 177/177/177
f 178/178/178 179/179/179 180/180/180
f 181/181/181 182/182/182 183/183/183
f 184/184/184 185/185/185 186/186/186
f 187/187/187 188/188/188 189/189/189
f 190/190/190 191/191/191 192/192/192
