g  Instance
v -1.870605 -58.72282 -1.105025
v -2.249867 -58.79205 -1.542733
v -1.563261 -57.8747 -1.247979
v -1.563261 -57.8747 -1.247979
v -2.249867 -58.79205 -1.542733
v -2.027473 -57.67435 -1.962873
v -2.292384 -57.51329 -2.198775
v -2.027473 -57.67435 -1.962873
v -2.383243 -57.67596 -2.172163
v -2.383243 -57.67596 -2.172163
v -2.027473 -57.67435 -1.962873
v -2.583627 -58.78183 -1.744865
v -2.583627 -58.78183 -1.744865
v -2.027473 -57.67435 -1.962873
v -2.249867 -58.79205 -1.542733
v -2.249867 -58.79205 -1.542733
v -1.870605 -58.72282 -1.105025
v -2.583627 -58.78183 -1.744865
v -2.583627 -58.78183 -1.744865
v -1.870605 -58.72282 -1.105025
v -3.132483 -58.6357 -1.744561
v -3.132483 -58.6357 -1.744561
v -1.870605 -58.72282 -1.105025
v -4.234185 -57.57417 0.2324569
v -4.234185 -57.57417 0.2324569
v -1.870605 -58.72282 -1.105025
v -2.868207 -57.62282 1.042187
v -2.868207 -57.62282 1.042187
v -1.870605 -58.72282 -1.105025
v -2.568866 -57.72062 0.995446
v -2.868207 -57.62282 1.042187
v -2.568866 -57.72062 0.995446
v -2.570994 -57.15572 1.173728
v -2.570994 -57.15572 1.173728
v -2.568866 -57.72062 0.995446
v -2.505207 -57.26439 1.135961
v -3.952088 -56.75333 0.3220298
v -4.234185 -57.57417 0.2324569
v -2.586156 -56.60869 1.113669
v -2.586156 -56.60869 1.113669
v -4.234185 -57.57417 0.2324569
v -2.570994 -57.15572 1.173728
v -2.570994 -57.15572 1.173728
v -4.234185 -57.57417 0.2324569
v -2.868207 -57.62282 1.042187
v -4.234185 -57.57417 0.2324569
v -3.952088 -56.75333 0.3220298
v -3.132483 -58.6357 -1.744561
v -3.132483 -58.6357 -1.744561
v -3.952088 -56.75333 0.3220298
v -2.383243 -57.67596 -2.172163
v -2.383243 -57.67596 -2.172163
v -3.952088 -56.75333 0.3220298
v -2.292384 -57.51329 -2.198775
v -2.292384 -57.51329 -2.198775
v -3.952088 -56.75333 0.3220298
v -3.187224 -56.25845 -0.378862
v -2.583627 -58.78183 -1.744865
v -3.132483 -58.6357 -1.744561
v -2.383243 -57.67596 -2.172163
v -2.221666 -56.74707 0.8433443
v -2.443782 -56.51871 0.9891031
v -2.505207 -57.26439 1.135961
v -2.505207 -57.26439 1.135961
v -2.443782 -56.51871 0.9891031
v -2.570994 -57.15572 1.173728
v -2.570994 -57.15572 1.173728
v -2.443782 -56.51871 0.9891031
v -2.586156 -56.60869 1.113669
v -2.292384 -57.51329 -2.198775
v -3.187224 -56.25845 -0.378862
v -2.027473 -57.67435 -1.962873
v -2.027473 -57.67435 -1.962873
v -3.187224 -56.25845 -0.378862
v -1.563261 -57.8747 -1.247979
v -1.563261 -57.8747 -1.247979
v -3.187224 -56.25845 -0.378862
v -2.221666 -56.74707 0.8433443
v -2.221666 -56.74707 0.8433443
v -3.187224 -56.25845 -0.378862
v -2.443782 -56.51871 0.9891031
v -1.870605 -58.72282 -1.105025
v -1.563261 -57.8747 -1.247979
v -2.568866 -57.72062 0.995446
v -2.568866 -57.72062 0.995446
v -1.563261 -57.8747 -1.247979
v -2.505207 -57.26439 1.135961
v -2.505207 -57.26439 1.135961
v -1.563261 -57.8747 -1.247979
v -2.221666 -56.74707 0.8433443
v -3.187224 -56.25845 -0.378862
v -3.952088 -56.75333 0.3220298
v -2.443782 -56.51871 0.9891031
v -2.443782 -56.51871 0.9891031
v -3.952088 -56.75333 0.3220298
v -2.586156 -56.60869 1.113669

vn 0.7319748 -0.3624978 -0.5768954
vn 0.7319748 -0.3624978 -0.5768954
vn 0.7319748 -0.3624978 -0.5768954
vn 0.7319748 -0.3624978 -0.5768954
vn 0.7319748 -0.3624978 -0.5768954
vn 0.7319748 -0.3624978 -0.5768954
vn 0.4679893 -0.391024 -0.792519
vn 0.4679893 -0.391024 -0.792519
vn 0.4679893 -0.391024 -0.792519
vn 0.4679893 -0.391024 -0.792519
vn 0.4679893 -0.391024 -0.792519
vn 0.4679893 -0.391024 -0.792519
vn 0.4679893 -0.391024 -0.792519
vn 0.4679893 -0.391024 -0.792519
vn 0.4679893 -0.391024 -0.792519
vn -0.2406692 -0.9046713 0.3516366
vn -0.2406692 -0.9046713 0.3516366
vn -0.2406692 -0.9046713 0.3516366
vn -0.2406692 -0.9046713 0.3516366
vn -0.2406692 -0.9046713 0.3516366
vn -0.2406692 -0.9046713 0.3516366
vn -0.2406692 -0.9046713 0.3516366
vn -0.2406692 -0.9046713 0.3516366
vn -0.2406692 -0.9046713 0.3516366
vn -0.2406692 -0.9046713 0.3516366
vn -0.2406692 -0.9046713 0.3516366
vn -0.2406692 -0.9046713 0.3516366
vn -0.2406692 -0.9046713 0.3516366
vn -0.2406692 -0.9046713 0.3516366
vn -0.2406692 -0.9046713 0.3516366
vn 0.05057507 -0.3004053 0.9524699
vn 0.05057507 -0.3004053 0.9524699
vn 0.05057507 -0.3004053 0.9524699
vn 0.05057507 -0.3004053 0.9524699
vn 0.05057507 -0.3004053 0.9524699
vn 0.05057507 -0.3004053 0.9524699
vn -0.5061631 0.08024825 0.8586963
vn -0.5061631 0.08024825 0.8586963
vn -0.5061631 0.08024825 0.8586963
vn -0.5061631 0.08024825 0.8586963
vn -0.5061631 0.08024825 0.8586963
vn -0.5061631 0.08024825 0.8586963
vn -0.5061631 0.08024825 0.8586963
vn -0.5061631 0.08024825 0.8586963
vn -0.5061631 0.08024825 0.8586963
vn -0.7442385 0.3197367 -0.5864108
vn -0.7442385 0.3197367 -0.5864108
vn -0.7442385 0.3197367 -0.5864108
vn -0.7442385 0.3197367 -0.5864108
vn -0.7442385 0.3197367 -0.5864108
vn -0.7442385 0.3197367 -0.5864108
vn -0.7442385 0.3197367 -0.5864108
vn -0.7442385 0.3197367 -0.5864108
vn -0.7442385 0.3197367 -0.5864108
vn -0.7442385 0.3197367 -0.5864108
vn -0.7442385 0.3197367 -0.5864108
vn -0.7442385 0.3197367 -0.5864108
vn -0.09219674 -0.3443037 -0.9343204
vn -0.09219674 -0.3443037 -0.9343204
vn -0.09219674 -0.3443037 -0.9343204
vn 0.6174102 0.1027338 0.7799041
vn 0.6174102 0.1027338 0.7799041
vn 0.6174102 0.1027338 0.7799041
vn 0.6174102 0.1027338 0.7799041
vn 0.6174102 0.1027338 0.7799041
vn 0.6174102 0.1027338 0.7799041
vn 0.6174102 0.1027338 0.7799041
vn 0.6174102 0.1027338 0.7799041
vn 0.6174102 0.1027338 0.7799041
vn 0.6341506 0.7461725 -0.2026812
vn 0.6341506 0.7461725 -0.2026812
vn 0.6341506 0.7461725 -0.2026812
vn 0.6341506 0.7461725 -0.2026812
vn 0.6341506 0.7461725 -0.2026812
vn 0.6341506 0.7461725 -0.2026812
vn 0.6341506 0.7461725 -0.2026812
vn 0.6341506 0.7461725 -0.2026812
vn 0.6341506 0.7461725 -0.2026812
vn 0.6341506 0.7461725 -0.2026812
vn 0.6341506 0.7461725 -0.2026812
vn 0.6341506 0.7461725 -0.2026812
vn 0.8773425 -0.2487693 0.4103462
vn 0.8773425 -0.2487693 0.4103462
vn 0.8773425 -0.2487693 0.4103462
vn 0.8773425 -0.2487693 0.4103462
vn 0.8773425 -0.2487693 0.4103462
vn 0.8773425 -0.2487693 0.4103462
vn 0.8773425 -0.2487693 0.4103462
vn 0.8773425 -0.2487693 0.4103462
vn 0.8773425 -0.2487693 0.4103462
vn -0.2844622 0.9015197 0.3261039
vn -0.2844622 0.9015197 0.3261039
vn -0.2844622 0.9015197 0.3261039
vn -0.2844622 0.9015197 0.3261039
vn -0.2844622 0.9015197 0.3261039
vn -0.2844622 0.9015197 0.3261039

vt 0.5764458 0.3984464
vt 0.6041692 0.4629455
vt 0.4685521 0.4195086
vt 0.4685521 0.4195086
vt 0.6041692 0.4629455
vt 0.4717397 0.5248569
vt 0.4332953 0.5330136
vt 0.4258371 0.4706616
vt 0.4628095 0.525982
vt 0.4628095 0.525982
vt 0.4258371 0.4706616
vt 0.6203234 0.4130348
vt 0.6203234 0.4130348
vt 0.4258371 0.4706616
vt 0.587087 0.3596036
vt 0.3688432 0.6023363
vt 0.3322223 0.5532367
vt 0.4029889 0.6250064
vt 0.4029889 0.6250064
vt 0.3322223 0.5532367
vt 0.4626361 0.6249783
vt 0.4626361 0.6249783
vt 0.3322223 0.5532367
vt 0.6031098 0.4031952
vt 0.6031098 0.4031952
vt 0.3322223 0.5532367
vt 0.4631658 0.3123602
vt 0.4631658 0.3123602
vt 0.3322223 0.5532367
vt 0.4301452 0.3176012
vt 0.5158517 0.4707366
vt 0.5052854 0.4412317
vt 0.563592 0.4414427
vt 0.563592 0.4414427
vt 0.5052854 0.4412317
vt 0.5522757 0.4349595
vt 0.5729206 0.53562
vt 0.4089236 0.5691469
vt 0.6413527 0.239292
vt 0.6413527 0.239292
vt 0.4089236 0.5691469
vt 0.5381655 0.2168141
vt 0.5381655 0.2168141
vt 0.4089236 0.5691469
vt 0.4407348 0.2660497
vt 0.4065751 0.31304
vt 0.5116233 0.2996189
vt 0.3409837 0.6092649
vt 0.3409837 0.6092649
vt 0.5116233 0.2996189
vt 0.4838998 0.673328
vt 0.4838998 0.673328
vt 0.5116233 0.2996189
vt 0.5063918 0.6773126
vt 0.5063918 0.6773126
vt 0.5116233 0.2996189
vt 0.6034567 0.4046343
vt 0.5900872 0.4207696
vt 0.5765583 0.4751946
vt 0.4730523 0.4009028
vt 0.4204321 0.435822
vt 0.3793204 0.3992434
vt 0.4932754 0.3623928
vt 0.4932754 0.3623928
vt 0.3793204 0.3992434
vt 0.4747446 0.3529141
vt 0.4747446 0.3529141
vt 0.3793204 0.3992434
vt 0.389596 0.3679853
vt 0.5598511 0.6151809
vt 0.4098143 0.4285982
vt 0.5905841 0.590992
vt 0.5905841 0.590992
vt 0.4098143 0.4285982
vt 0.6391213 0.5177034
vt 0.6391213 0.5177034
vt 0.4098143 0.4285982
vt 0.5154485 0.3033035
vt 0.5154485 0.3033035
vt 0.4098143 0.4285982
vt 0.4836092 0.2883588
vt 0.5991158 0.5820664
vt 0.5021165 0.5989612
vt 0.5157111 0.3337599
vt 0.5157111 0.3337599
vt 0.5021165 0.5989612
vt 0.4665176 0.3171511
vt 0.4665176 0.3171511
vt 0.5021165 0.5989612
vt 0.4045265 0.3517422
vt 0.5103858 0.4796621
vt 0.4190445 0.4025576
vt 0.5759677 0.3291706
vt 0.5759677 0.3291706
vt 0.4190445 0.4025576
vt 0.5590261 0.3154682

usemtl Material0
usemap Material0

usemtl Material1
usemap Material1
f 1/1/1 2/2/2 3/3/3
f 4/4/4 5/5/5 6/6/6
f 7/7/7 8/8/8 9/9/9
f 10/10/10 11/11/11 12/12/12
f 13/13/13 14/14/14 15/15/15
f 16/16/16 17/17/17 18/18/18
f 19/19/19 20/20/20 21/21/21
f 22/22/22 23/23/23 24/24/24
f 25/25/25 26/26/26 27/27/27
f 28/28/28 29/29/29 30/30/30
f 31/31/31 32/32/32 33/33/33
f 34/34/34 35/35/35 36/36/36
f 37/37/37 38/38/38 39/39/39
f 40/40/40 41/41/41 42/42/42
f 43/43/43 44/44/44 45/45/45
f 46/46/46 47/47/47 48/48/48
f 49/49/49 50/50/50 51/51/51
f 52/52/52 53/53/53 54/54/54
f 55/55/55 56/56/56 57/57/57
f 58/58/58 59/59/59 60/60/60
f 61/61/61 62/62/62 63/63/63
f 64/64/64 65/65/65 66/66/66
f 67/67/67 68/68/68 69/69/69
f 70/70/70 71/71/71 72/72/72
f 73/73/73 74/74/74 75/75/75
f 76/76/76 77/77/77 78/78/78
f 79/79/79 80/80/80 81/81/81
f 82/82/82 83/83/83 84/84/84
f 85/85/85 86/86/86 87/87/87
f 88/88/88 89/89/89 90/90/90
f 91/91/91 92/92/92 93/93/93
f 94/94/94 95/95/95 96/96/96
