g  Instance
v 0.4559102 -43.97714 -3.524351
v 0.4331619 -45.69294 -3.84566
v 1.148151 -43.64207 -3.208378
v 1.148151 -43.64207 -3.208378
v 0.4331619 -45.69294 -3.84566
v 1.999904 -44.13291 -2.98431
v 1.999904 -44.13291 -2.98431
v 0.4331619 -45.69294 -3.84566
v 2.10177 -45.50981 -3.197931
v 2.021693 -45.0983 -5.706201
v 1.871291 -43.58189 -3.386423
v 3.207299 -45.23003 -4.961566
v 3.207299 -45.23003 -4.961566
v 1.871291 -43.58189 -3.386423
v 2.228774 -43.73029 -3.336858
v -0.7656882 -46.03809 -4.831439
v 0.4331619 -45.69294 -3.84566
v -0.8116462 -45.90867 -4.843974
v -0.8116462 -45.90867 -4.843974
v 0.4331619 -45.69294 -3.84566
v 0.3701141 -44.01347 -3.596956
v 0.3701141 -44.01347 -3.596956
v 0.4331619 -45.69294 -3.84566
v 0.4559102 -43.97714 -3.524351
v -0.9444268 -45.57737 -5.584725
v -0.87779 -45.72334 -5.822807
v -0.9353374 -45.65541 -5.472923
v -0.9353374 -45.65541 -5.472923
v -0.87779 -45.72334 -5.822807
v -0.8336482 -45.96844 -5.612185
v 0.5552099 -45.72283 -6.228292
v -0.87779 -45.72334 -5.822807
v 0.9109778 -45.68252 -6.268613
v 0.9109778 -45.68252 -6.268613
v -0.87779 -45.72334 -5.822807
v 1.334363 -45.50832 -6.127059
v 1.334363 -45.50832 -6.127059
v -0.87779 -45.72334 -5.822807
v 2.021693 -45.0983 -5.706201
v 2.021693 -45.0983 -5.706201
v -0.87779 -45.72334 -5.822807
v 1.871291 -43.58189 -3.386423
v 1.871291 -43.58189 -3.386423
v -0.87779 -45.72334 -5.822807
v 1.193246 -43.61217 -3.239673
v 1.193246 -43.61217 -3.239673
v -0.87779 -45.72334 -5.822807
v 0.3657461 -44.01408 -3.608609
v 0.3657461 -44.01408 -3.608609
v -0.87779 -45.72334 -5.822807
v -0.9444268 -45.57737 -5.584725
v 3.117288 -45.80473 -5.005091
v 1.334363 -45.50832 -6.127059
v 3.195562 -45.67584 -4.958991
v 3.195562 -45.67584 -4.958991
v 1.334363 -45.50832 -6.127059
v 3.207299 -45.23003 -4.961566
v 3.207299 -45.23003 -4.961566
v 1.334363 -45.50832 -6.127059
v 2.021693 -45.0983 -5.706201
v 1.334363 -45.50832 -6.127059
v 3.117288 -45.80473 -5.005091
v 0.9109778 -45.68252 -6.268613
v 0.9109778 -45.68252 -6.268613
v 3.117288 -45.80473 -5.005091
v 1.130179 -46.32063 -5.823481
v 1.130179 -46.32063 -5.823481
v 3.117288 -45.80473 -5.005091
v 1.687163 -46.42119 -5.468909
v 1.687163 -46.42119 -5.468909
v 3.117288 -45.80473 -5.005091
v 2.863357 -46.25213 -4.914903
v 0.4331619 -45.69294 -3.84566
v -0.7656882 -46.03809 -4.831439
v 2.10177 -45.50981 -3.197931
v 2.10177 -45.50981 -3.197931
v -0.7656882 -46.03809 -4.831439
v 2.959294 -46.12616 -4.596331
v 2.959294 -46.12616 -4.596331
v -0.7656882 -46.03809 -4.831439
v 2.863357 -46.25213 -4.914903
v 2.863357 -46.25213 -4.914903
v -0.7656882 -46.03809 -4.831439
v 1.687163 -46.42119 -5.468909
v 1.687163 -46.42119 -5.468909
v -0.7656882 -46.03809 -4.831439
v 0.8224319 -46.44949 -5.642275
v 0.8224319 -46.44949 -5.642275
v -0.7656882 -46.03809 -4.831439
v -0.7171085 -46.26398 -5.376052
v 1.999904 -44.13291 -2.98431
v 2.228774 -43.73029 -3.336858
v 1.148151 -43.64207 -3.208378
v 1.148151 -43.64207 -3.208378
v 2.228774 -43.73029 -3.336858
v 1.193246 -43.61217 -3.239673
v 1.193246 -43.61217 -3.239673
v 2.228774 -43.73029 -3.336858
v 1.871291 -43.58189 -3.386423
v 3.207299 -45.23003 -4.961566
v 2.228774 -43.73029 -3.336858
v 3.195562 -45.67584 -4.958991
v 3.195562 -45.67584 -4.958991
v 2.228774 -43.73029 -3.336858
v 2.959294 -46.12616 -4.596331
v 2.959294 -46.12616 -4.596331
v 2.228774 -43.73029 -3.336858
v 2.10177 -45.50981 -3.197931
v 2.10177 -45.50981 -3.197931
v 2.228774 -43.73029 -3.336858
v 1.999904 -44.13291 -2.98431
v 3.195562 -45.67584 -4.958991
v 2.959294 -46.12616 -4.596331
v 3.117288 -45.80473 -5.005091
v 3.117288 -45.80473 -5.005091
v 2.959294 -46.12616 -4.596331
v 2.863357 -46.25213 -4.914903
v 0.4559102 -43.97714 -3.524351
v 1.148151 -43.64207 -3.208378
v 0.3701141 -44.01347 -3.596956
v 0.3701141 -44.01347 -3.596956
v 1.148151 -43.64207 -3.208378
v 0.3657461 -44.01408 -3.608609
v 0.3657461 -44.01408 -3.608609
v 1.148151 -43.64207 -3.208378
v 1.193246 -43.61217 -3.239673
v -0.9353374 -45.65541 -5.472923
v -0.8336482 -45.96844 -5.612185
v -0.8116462 -45.90867 -4.843974
v -0.8116462 -45.90867 -4.843974
v -0.8336482 -45.96844 -5.612185
v -0.7656882 -46.03809 -4.831439
v -0.7656882 -46.03809 -4.831439
v -0.8336482 -45.96844 -5.612185
v -0.7171085 -46.26398 -5.376052
v 1.130179 -46.32063 -5.823481
v 1.051816 -46.33825 -5.808402
v 0.9109778 -45.68252 -6.268613
v 0.9109778 -45.68252 -6.268613
v 1.051816 -46.33825 -5.808402
v 0.5552099 -45.72283 -6.228292
v 1.687163 -46.42119 -5.468909
v 0.8224319 -46.44949 -5.642275
v 1.130179 -46.32063 -5.823481
v 1.130179 -46.32063 -5.823481
v 0.8224319 -46.44949 -5.642275
v 1.051816 -46.33825 -5.808402
v 0.3657461 -44.01408 -3.608609
v -0.9444268 -45.57737 -5.584725
v 0.3701141 -44.01347 -3.596956
v 0.3701141 -44.01347 -3.596956
v -0.9444268 -45.57737 -5.584725
v -0.8116462 -45.90867 -4.843974
v -0.8116462 -45.90867 -4.843974
v -0.9444268 -45.57737 -5.584725
v -0.9353374 -45.65541 -5.472923
v -0.87779 -45.72334 -5.822807
v 0.5552099 -45.72283 -6.228292
v -0.8336482 -45.96844 -5.612185
v -0.8336482 -45.96844 -5.612185
v 0.5552099 -45.72283 -6.228292
v -0.7171085 -46.26398 -5.376052
v -0.7171085 -46.26398 -5.376052
v 0.5552099 -45.72283 -6.228292
v 0.8224319 -46.44949 -5.642275
v 0.8224319 -46.44949 -5.642275
v 0.5552099 -45.72283 -6.228292
v 1.051816 -46.33825 -5.808402

vn -0.3405443 -0.1687 0.9249703
vn -0.3405443 -0.1687 0.9249703
vn -0.3405443 -0.1687 0.9249703
vn -0.3405443 -0.1687 0.9249703
vn -0.3405443 -0.1687 0.9249703
vn -0.3405443 -0.1687 0.9249703
vn -0.3405443 -0.1687 0.9249703
vn -0.3405443 -0.1687 0.9249703
vn -0.3405443 -0.1687 0.9249703
vn 0.3917528 0.7815541 -0.4854926
vn 0.3917528 0.7815541 -0.4854926
vn 0.3917528 0.7815541 -0.4854926
vn 0.3917528 0.7815541 -0.4854926
vn 0.3917528 0.7815541 -0.4854926
vn 0.3917528 0.7815541 -0.4854926
vn -0.6048254 -0.138828 0.784164
vn -0.6048254 -0.138828 0.784164
vn -0.6048254 -0.138828 0.784164
vn -0.6048254 -0.138828 0.784164
vn -0.6048254 -0.138828 0.784164
vn -0.6048254 -0.138828 0.784164
vn -0.6048254 -0.138828 0.784164
vn -0.6048254 -0.138828 0.784164
vn -0.6048254 -0.138828 0.784164
vn -0.9586135 -0.2640809 -0.1064022
vn -0.9586135 -0.2640809 -0.1064022
vn -0.9586135 -0.2640809 -0.1064022
vn -0.9586135 -0.2640809 -0.1064022
vn -0.9586135 -0.2640809 -0.1064022
vn -0.9586135 -0.2640809 -0.1064022
vn -0.1552316 0.8222449 -0.5475552
vn -0.1552316 0.8222449 -0.5475552
vn -0.1552316 0.8222449 -0.5475552
vn -0.1552316 0.8222449 -0.5475552
vn -0.1552316 0.8222449 -0.5475552
vn -0.1552316 0.8222449 -0.5475552
vn -0.1552316 0.8222449 -0.5475552
vn -0.1552316 0.8222449 -0.5475552
vn -0.1552316 0.8222449 -0.5475552
vn -0.1552316 0.8222449 -0.5475552
vn -0.1552316 0.8222449 -0.5475552
vn -0.1552316 0.8222449 -0.5475552
vn -0.1552316 0.8222449 -0.5475552
vn -0.1552316 0.8222449 -0.5475552
vn -0.1552316 0.8222449 -0.5475552
vn -0.1552316 0.8222449 -0.5475552
vn -0.1552316 0.8222449 -0.5475552
vn -0.1552316 0.8222449 -0.5475552
vn -0.1552316 0.8222449 -0.5475552
vn -0.1552316 0.8222449 -0.5475552
vn -0.1552316 0.8222449 -0.5475552
vn 0.5302614 -0.01885758 -0.8476246
vn 0.5302614 -0.01885758 -0.8476246
vn 0.5302614 -0.01885758 -0.8476246
vn 0.5302614 -0.01885758 -0.8476246
vn 0.5302614 -0.01885758 -0.8476246
vn 0.5302614 -0.01885758 -0.8476246
vn 0.5302614 -0.01885758 -0.8476246
vn 0.5302614 -0.01885758 -0.8476246
vn 0.5302614 -0.01885758 -0.8476246
vn 0.4362843 -0.4091621 -0.8014002
vn 0.4362843 -0.4091621 -0.8014002
vn 0.4362843 -0.4091621 -0.8014002
vn 0.4362843 -0.4091621 -0.8014002
vn 0.4362843 -0.4091621 -0.8014002
vn 0.4362843 -0.4091621 -0.8014002
vn 0.4362843 -0.4091621 -0.8014002
vn 0.4362843 -0.4091621 -0.8014002
vn 0.4362843 -0.4091621 -0.8014002
vn 0.4362843 -0.4091621 -0.8014002
vn 0.4362843 -0.4091621 -0.8014002
vn 0.4362843 -0.4091621 -0.8014002
vn -0.04578896 -0.9241636 0.3792428
vn -0.04578896 -0.9241636 0.3792428
vn -0.04578896 -0.9241636 0.3792428
vn -0.04578896 -0.9241636 0.3792428
vn -0.04578896 -0.9241636 0.3792428
vn -0.04578896 -0.9241636 0.3792428
vn -0.04578896 -0.9241636 0.3792428
vn -0.04578896 -0.9241636 0.3792428
vn -0.04578896 -0.9241636 0.3792428
vn -0.04578896 -0.9241636 0.3792428
vn -0.04578896 -0.9241636 0.3792428
vn -0.04578896 -0.9241636 0.3792428
vn -0.04578896 -0.9241636 0.3792428
vn -0.04578896 -0.9241636 0.3792428
vn -0.04578896 -0.9241636 0.3792428
vn -0.04578896 -0.9241636 0.3792428
vn -0.04578896 -0.9241636 0.3792428
vn -0.04578896 -0.9241636 0.3792428
vn 0.1425446 0.6049722 0.7833835
vn 0.1425446 0.6049722 0.7833835
vn 0.1425446 0.6049722 0.7833835
vn 0.1425446 0.6049722 0.7833835
vn 0.1425446 0.6049722 0.7833835
vn 0.1425446 0.6049722 0.7833835
vn 0.1425446 0.6049722 0.7833835
vn 0.1425446 0.6049722 0.7833835
vn 0.1425446 0.6049722 0.7833835
vn 0.8485121 -0.01927501 0.5288249
vn 0.8485121 -0.01927501 0.5288249
vn 0.8485121 -0.01927501 0.5288249
vn 0.8485121 -0.01927501 0.5288249
vn 0.8485121 -0.01927501 0.5288249
vn 0.8485121 -0.01927501 0.5288249
vn 0.8485121 -0.01927501 0.5288249
vn 0.8485121 -0.01927501 0.5288249
vn 0.8485121 -0.01927501 0.5288249
vn 0.8485121 -0.01927501 0.5288249
vn 0.8485121 -0.01927501 0.5288249
vn 0.8485121 -0.01927501 0.5288249
vn 0.8627095 -0.5019703 -0.0613042
vn 0.8627095 -0.5019703 -0.0613042
vn 0.8627095 -0.5019703 -0.0613042
vn 0.8627095 -0.5019703 -0.0613042
vn 0.8627095 -0.5019703 -0.0613042
vn 0.8627095 -0.5019703 -0.0613042
vn -0.4808856 0.866359 0.134801
vn -0.4808856 0.866359 0.134801
vn -0.4808856 0.866359 0.134801
vn -0.4808856 0.866359 0.134801
vn -0.4808856 0.866359 0.134801
vn -0.4808856 0.866359 0.134801
vn -0.4808856 0.866359 0.134801
vn -0.4808856 0.866359 0.134801
vn -0.4808856 0.866359 0.134801
vn -0.9426315 -0.3296582 0.05264569
vn -0.9426315 -0.3296582 0.05264569
vn -0.9426315 -0.3296582 0.05264569
vn -0.9426315 -0.3296582 0.05264569
vn -0.9426315 -0.3296582 0.05264569
vn -0.9426315 -0.3296582 0.05264569
vn -0.9426315 -0.3296582 0.05264569
vn -0.9426315 -0.3296582 0.05264569
vn -0.9426315 -0.3296582 0.05264569
vn -0.02690723 -0.57813 -0.815501
vn -0.02690723 -0.57813 -0.815501
vn -0.02690723 -0.57813 -0.815501
vn -0.02690723 -0.57813 -0.815501
vn -0.02690723 -0.57813 -0.815501
vn -0.02690723 -0.57813 -0.815501
vn 0.116672 -0.8921868 -0.4363378
vn 0.116672 -0.8921868 -0.4363378
vn 0.116672 -0.8921868 -0.4363378
vn 0.116672 -0.8921868 -0.4363378
vn 0.116672 -0.8921868 -0.4363378
vn 0.116672 -0.8921868 -0.4363378
vn -0.8846103 0.3455774 0.3131149
vn -0.8846103 0.3455774 0.3131149
vn -0.8846103 0.3455774 0.3131149
vn -0.8846103 0.3455774 0.3131149
vn -0.8846103 0.3455774 0.3131149
vn -0.8846103 0.3455774 0.3131149
vn -0.8846103 0.3455774 0.3131149
vn -0.8846103 0.3455774 0.3131149
vn -0.8846103 0.3455774 0.3131149
vn -0.2045853 -0.6589606 -0.7238203
vn -0.2045853 -0.6589606 -0.7238203
vn -0.2045853 -0.6589606 -0.7238203
vn -0.2045853 -0.6589606 -0.7238203
vn -0.2045853 -0.6589606 -0.7238203
vn -0.2045853 -0.6589606 -0.7238203
vn -0.2045853 -0.6589606 -0.7238203
vn -0.2045853 -0.6589606 -0.7238203
vn -0.2045853 -0.6589606 -0.7238203
vn -0.2045853 -0.6589606 -0.7238203
vn -0.2045853 -0.6589606 -0.7238203
vn -0.2045853 -0.6589606 -0.7238203

vt 0.6290707 0.5400359
vt 0.446557 0.5425579
vt 0.66947 0.4630486
vt 0.66947 0.4630486
vt 0.446557 0.5425579
vt 0.6231829 0.3683228
vt 0.6231829 0.3683228
vt 0.446557 0.5425579
vt 0.4775479 0.3569972
vt 0.5518913 0.5673187
vt 0.4603578 0.2689327
vt 0.677711 0.4715429
vt 0.677711 0.4715429
vt 0.4603578 0.2689327
vt 0.503776 0.2625574
vt 0.4253777 0.7846156
vt 0.436183 0.532948
vt 0.4469883 0.7878127
vt 0.4469883 0.7878127
vt 0.436183 0.532948
vt 0.6977372 0.4694568
vt 0.6977372 0.4694568
vt 0.436183 0.532948
vt 0.7003061 0.4509214
vt 0.5081168 0.5471801
vt 0.4924503 0.5708533
vt 0.5004383 0.5360606
vt 0.5004383 0.5360606
vt 0.4924503 0.5708533
vt 0.4679333 0.5499083
vt 0.3803282 0.6631836
vt 0.2148733 0.6062459
vt 0.4222791 0.6688464
vt 0.4222791 0.6688464
vt 0.2148733 0.6062459
vt 0.4749556 0.6489703
vt 0.4749556 0.6489703
vt 0.2148733 0.6062459
vt 0.5632451 0.5898762
vt 0.5632451 0.5898762
vt 0.2148733 0.6062459
vt 0.5789303 0.26417
vt 0.5789303 0.26417
vt 0.2148733 0.6062459
vt 0.4999883 0.2435625
vt 0.4999883 0.2435625
vt 0.2148733 0.6062459
vt 0.3956947 0.2953671
vt 0.3956947 0.2953671
vt 0.2148733 0.6062459
vt 0.2103637 0.5728222
vt 0.604338 0.2404639
vt 0.5611918 0.6322443
vt 0.5799522 0.2243661
vt 0.5799522 0.2243661
vt 0.5611918 0.6322443
vt 0.4973256 0.2252661
vt 0.4973256 0.2252661
vt 0.5611918 0.6322443
vt 0.4807403 0.4852827
vt 0.5422063 0.5963923
vt 0.3772812 0.2880823
vt 0.6106946 0.6352914
vt 0.6106946 0.6352914
vt 0.3772812 0.2880823
vt 0.6625602 0.5129781
vt 0.6625602 0.5129781
vt 0.3772812 0.2880823
vt 0.6119885 0.4155428
vt 0.6119885 0.4155428
vt 0.3772812 0.2880823
vt 0.4594719 0.2633027
vt 0.5885777 0.4259074
vt 0.713985 0.5390983
vt 0.412477 0.3515312
vt 0.412477 0.3515312
vt 0.713985 0.5390983
vt 0.318234 0.5120968
vt 0.318234 0.5120968
vt 0.713985 0.5390983
vt 0.3277549 0.5486801
vt 0.3277549 0.5486801
vt 0.713985 0.5390983
vt 0.4516761 0.6122932
vt 0.4516761 0.6122932
vt 0.713985 0.5390983
vt 0.5432939 0.6322069
vt 0.5432939 0.6322069
vt 0.713985 0.5390983
vt 0.7076377 0.6016332
vt 0.5475785 0.4534574
vt 0.5682047 0.5431767
vt 0.398634 0.5104748
vt 0.398634 0.5104748
vt 0.5682047 0.5431767
vt 0.4044937 0.518444
vt 0.4044937 0.518444
vt 0.5682047 0.5431767
vt 0.5077887 0.5557868
vt 0.4972318 0.6222125
vt 0.3261423 0.4004762
vt 0.5488911 0.6218562
vt 0.5488911 0.6218562
vt 0.3261423 0.4004762
vt 0.601666 0.5723628
vt 0.601666 0.5723628
vt 0.3261423 0.4004762
vt 0.5325495 0.3815142
vt 0.5325495 0.3815142
vt 0.3261423 0.4004762
vt 0.3733669 0.352361
vt 0.4473774 0.4995148
vt 0.4974194 0.4637283
vt 0.4622283 0.5040619
vt 0.4622283 0.5040619
vt 0.4974194 0.4637283
vt 0.5128984 0.4951645
vt 0.4640237 0.3890569
vt 0.5402094 0.3574191
vt 0.454831 0.3963276
vt 0.454831 0.3963276
vt 0.5402094 0.3574191
vt 0.4544231 0.3974948
vt 0.4544231 0.3974948
vt 0.5402094 0.3574191
vt 0.5455534 0.3605552
vt 0.5162267 0.5734128
vt 0.4838389 0.5871386
vt 0.4886813 0.5114124
vt 0.4886813 0.5114124
vt 0.4838389 0.5871386
vt 0.4751618 0.5101748
vt 0.4751618 0.5101748
vt 0.4838389 0.5871386
vt 0.4525902 0.5638591
vt 0.524749 0.4285044
vt 0.537903 0.4240792
vt 0.5669859 0.5591526
vt 0.5669859 0.5591526
vt 0.537903 0.4240792
vt 0.6270362 0.5473207
vt 0.4761931 0.4976491
vt 0.5702767 0.5186971
vt 0.535109 0.5407016
vt 0.535109 0.5407016
vt 0.5702767 0.5186971
vt 0.543847 0.5388733
vt 0.5583885 0.4219087
vt 0.3583051 0.6372977
vt 0.5586135 0.4206431
vt 0.5586135 0.4206431
vt 0.3583051 0.6372977
vt 0.3313691 0.556565
vt 0.3313691 0.556565
vt 0.3583051 0.6372977
vt 0.3511234 0.6251096
vt 0.773379 0.4672348
vt 0.5784147 0.5509678
vt 0.7570281 0.423737
vt 0.7570281 0.423737
vt 0.5784147 0.5509678
vt 0.7286765 0.3749842
vt 0.7286765 0.3749842
vt 0.5784147 0.5509678
vt 0.5113514 0.4299529
vt 0.5113514 0.4299529
vt 0.5784147 0.5509678
vt 0.4848374 0.4642581

usemtl Material0
usemap Material0

usemtl Material1
usemap Material1
f 1/1/1 2/2/2 3/3/3
f 4/4/4 5/5/5 6/6/6
f 7/7/7 8/8/8 9/9/9
f 10/10/10 11/11/11 12/12/12
f 13/13/13 14/14/14 15/15/15
f 16/16/16 17/17/17 18/18/18
f 19/19/19 20/20/20 21/21/21
f 22/22/22 23/23/23 24/24/24
f 25/25/25 26/26/26 27/27/27
f 28/28/28 29/29/29 30/30/30
f 31/31/31 32/32/32 33/33/33
f 34/34/34 35/35/35 36/36/36
f 37/37/37 38/38/38 39/39/39
f 40/40/40 41/41/41 42/42/42
f 43/43/43 44/44/44 45/45/45
f 46/46/46 47/47/47 48/48/48
f 49/49/49 50/50/50 51/51/51
f 52/52/52 53/53/53 54/54/54
f 55/55/55 56/56/56 57/57/57
f 58/58/58 59/59/59 60/60/60
f 61/61/61 62/62/62 63/63/63
f 64/64/64 65/65/65 66/66/66
f 67/67/67 68/68/68 69/69/69
f 70/70/70 71/71/71 72/72/72
f 73/73/73 74/74/74 75/75/75
f 76/76/76 77/77/77 78/78/78
f 79/79/79 80/80/80 81/81/81
f 82/82/82 83/83/83 84/84/84
f 85/85/85 86/86/86 87/87/87
f 88/88/88 89/89/89 90/90/90
f 91/91/91 92/92/92 93/93/93
f 94/94/94 95/95/95 96/96/96
f 97/97/97 98/98/98 99/99/99
f 100/100/100 101/101/101 102/102/102
f 103/103/103 104/104/104 105/105/105
f 106/106/106 107/107/107 108/108/108
f 109/109/109 110/110/110 111/111/111
f 112/112/112 113/113/113 114/114/114
f 115/115/115 116/116/116 117/117/117
f 118/118/118 119/119/119 120/120/120
f 121/121/121 122/122/122 123/123/123
f 124/124/124 125/125/125 126/126/126
f 127/127/127 128/128/128 129/129/129
f 130/130/130 131/131/131 132/132/132
f 133/133/133 134/134/134 135/135/135
f 136/136/136 137/137/137 138/138/138
f 139/139/139 140/140/140 141/141/141
f 142/142/142 143/143/143 144/144/144
f 145/145/145 146/146/146 147/147/147
f 148/148/148 149/149/149 150/150/150
f 151/151/151 152/152/152 153/153/153
f 154/154/154 155/155/155 156/156/156
f 157/157/157 158/158/158 159/159/159
f 160/160/160 161/161/161 162/162/162
f 163/163/163 164/164/164 165/165/165
f 166/166/166 167/167/167 168/168/168
