g  Instance
v -5.877856 -58.09017 -9.536743E-07
v -5.439662 -58.32012 0.7922965
v -6.067645 -57.89547 0.5359771
v -7.042931 -57.09909 -1.144409E-05
v -6.458394 -57.52343 -1.29894
v -5.877856 -58.09017 -9.536743E-07
v -6.458394 -57.52343 -1.29894
v -6.814503 -57.16463 -1.309338
v -6.606373 -57.27048 -1.733209
v -5.877856 -58.09017 -9.536743E-07
v -6.067645 -57.89547 0.5359771
v -7.042931 -57.09909 -1.144409E-05
v -7.042931 -57.09909 -1.144409E-05
v -6.067645 -57.89547 0.5359771
v -6.981385 -57.14381 0.1230806
v -6.981385 -57.14381 0.1230806
v -7.069208 -57.06259 0.08071583
v -7.042931 -57.09909 -1.144409E-05
v -7.042931 -57.09909 -1.144409E-05
v -7.165202 -56.93489 -0.3314647
v -6.458394 -57.52343 -1.29894
v -6.458394 -57.52343 -1.29894
v -7.165202 -56.93489 -0.3314647
v -6.814503 -57.16463 -1.309338
v -7.195426 -56.92126 -1.269391E-05
v -7.203652 -56.90022 -0.1755908
v -7.042931 -57.09909 -1.144409E-05
v -7.042931 -57.09909 -1.144409E-05
v -7.203652 -56.90022 -0.1755908
v -7.165202 -56.93489 -0.3314647
v -7.042931 -57.09909 -1.144409E-05
v -7.069208 -57.06259 0.08071583
v -7.195426 -56.92126 -1.269391E-05
v -7.195426 -56.92126 -1.269391E-05
v -7.069208 -57.06259 0.08071583
v -7.193343 -56.92272 0.01334906
v -4.868299 -58.64372 1.006766
v -5.006468 -58.57841 0.9587667
v -4.775491 -58.69188 0.9956365
v -4.775491 -58.69188 0.9956365
v -5.006468 -58.57841 0.9587667
v -4.618902 -58.86023 0.09700686
v -4.618902 -58.86023 0.09700686
v -5.006468 -58.57841 0.9587667
v -4.601245 -58.87597 -9.536743E-07
v -4.601245 -58.87597 -9.536743E-07
v -5.006468 -58.57841 0.9587667
v -5.877856 -58.09017 -9.536743E-07
v -5.877856 -58.09017 -9.536743E-07
v -5.006468 -58.57841 0.9587667
v -5.439662 -58.32012 0.7922965
v -5.257326 -58.39642 -1.364107
v -4.285108 -58.89669 -1.388999
v -4.593576 -58.87866 -0.03660589
v -5.257326 -58.39642 -1.364107
v -4.593576 -58.87866 -0.03660589
v -5.877856 -58.09017 -9.536743E-07
v -5.877856 -58.09017 -9.536743E-07
v -4.593576 -58.87866 -0.03660589
v -4.601245 -58.87597 -9.536743E-07
v -5.877856 -58.09017 -9.536743E-07
v -6.458394 -57.52343 -1.29894
v -5.257326 -58.39642 -1.364107
v -4.170444 -58.8612 -1.835482
v -4.285108 -58.89669 -1.388999
v -4.747583 -58.46787 -2.27292
v -4.747583 -58.46787 -2.27292
v -4.285108 -58.89669 -1.388999
v -5.257326 -58.39642 -1.364107
v -5.792291 -57.70522 -2.66065
v -5.308582 -57.99881 -2.69851
v -5.257326 -58.39642 -1.364107
v -5.257326 -58.39642 -1.364107
v -5.308582 -57.99881 -2.69851
v -4.747583 -58.46787 -2.27292
v -5.792291 -57.70522 -2.66065
v -5.257326 -58.39642 -1.364107
v -6.458394 -57.52343 -1.29894
v -6.606373 -57.27048 -1.733209
v -6.030599 -57.50913 -2.627722
v -6.458394 -57.52343 -1.29894
v -6.458394 -57.52343 -1.29894
v -6.030599 -57.50913 -2.627722
v -5.792291 -57.70522 -2.66065
v -5.792291 -57.70522 -2.66065
v -5.621905 -57.70521 -2.936346
v -5.308582 -57.99881 -2.69851
v -5.792291 -57.70522 -2.66065
v -5.853044 -57.57206 -2.848834
v -5.621905 -57.70521 -2.936346
v -5.621905 -57.70521 -2.936346
v -5.853044 -57.57206 -2.848834
v -5.700985 -57.61781 -2.996433
v -6.030599 -57.50913 -2.627722
v -5.853044 -57.57206 -2.848834
v -5.792291 -57.70522 -2.66065
v -7.069208 -57.06259 0.08071583
v -6.981385 -57.14381 0.1230806
v -7.193343 -56.92272 0.01334906
v -7.193343 -56.92272 0.01334906
v -6.981385 -57.14381 0.1230806
v -6.80809 -56.89379 0.08417174
v -6.80809 -56.89379 0.08417174
v -6.981385 -57.14381 0.1230806
v -5.874035 -56.95694 0.2956801
v -5.874035 -56.95694 0.2956801
v -6.981385 -57.14381 0.1230806
v -5.438934 -57.04971 0.4131207
v -5.438934 -57.04971 0.4131207
v -6.981385 -57.14381 0.1230806
v -4.868299 -58.64372 1.006766
v -4.868299 -58.64372 1.006766
v -6.981385 -57.14381 0.1230806
v -5.006468 -58.57841 0.9587667
v -5.006468 -58.57841 0.9587667
v -6.981385 -57.14381 0.1230806
v -5.439662 -58.32012 0.7922965
v -5.439662 -58.32012 0.7922965
v -6.981385 -57.14381 0.1230806
v -6.067645 -57.89547 0.5359771
v -6.606373 -57.27048 -1.733209
v -6.814503 -57.16463 -1.309338
v -6.030599 -57.50913 -2.627722
v -6.030599 -57.50913 -2.627722
v -6.814503 -57.16463 -1.309338
v -5.853044 -57.57206 -2.848834
v -5.853044 -57.57206 -2.848834
v -6.814503 -57.16463 -1.309338
v -5.700985 -57.61781 -2.996433
v -5.700985 -57.61781 -2.996433
v -6.814503 -57.16463 -1.309338
v -5.204556 -57.60027 -2.621753
v -5.204556 -57.60027 -2.621753
v -6.814503 -57.16463 -1.309338
v -4.543989 -57.1407 0.1152962
v -4.543989 -57.1407 0.1152962
v -6.814503 -57.16463 -1.309338
v -5.271623 -57.01714 0.3321522
v -5.271623 -57.01714 0.3321522
v -6.814503 -57.16463 -1.309338
v -5.874035 -56.95694 0.2956801
v -5.874035 -56.95694 0.2956801
v -6.814503 -57.16463 -1.309338
v -6.80809 -56.89379 0.08417174
v -6.80809 -56.89379 0.08417174
v -6.814503 -57.16463 -1.309338
v -7.203652 -56.90022 -0.1755908
v -7.203652 -56.90022 -0.1755908
v -6.814503 -57.16463 -1.309338
v -7.165202 -56.93489 -0.3314647
v -4.251675 -57.577 0.2254194
v -4.775491 -58.69188 0.9956365
v -4.105362 -58.61481 -1.787451
v -4.105362 -58.61481 -1.787451
v -4.775491 -58.69188 0.9956365
v -4.170444 -58.8612 -1.835482
v -4.170444 -58.8612 -1.835482
v -4.775491 -58.69188 0.9956365
v -4.285108 -58.89669 -1.388999
v -4.285108 -58.89669 -1.388999
v -4.775491 -58.69188 0.9956365
v -4.593576 -58.87866 -0.03660589
v -4.593576 -58.87866 -0.03660589
v -4.775491 -58.69188 0.9956365
v -4.601245 -58.87597 -9.536743E-07
v -4.601245 -58.87597 -9.536743E-07
v -4.775491 -58.69188 0.9956365
v -4.618902 -58.86023 0.09700686
v -4.543989 -57.1407 0.1152962
v -4.489661 -57.18262 0.1157809
v -5.204556 -57.60027 -2.621753
v -5.204556 -57.60027 -2.621753
v -4.489661 -57.18262 0.1157809
v -4.547742 -57.93262 -2.124451
v -5.438934 -57.04971 0.4131207
v -4.868299 -58.64372 1.006766
v -5.271623 -57.01714 0.3321522
v -5.271623 -57.01714 0.3321522
v -4.868299 -58.64372 1.006766
v -4.543989 -57.1407 0.1152962
v -4.543989 -57.1407 0.1152962
v -4.868299 -58.64372 1.006766
v -4.489661 -57.18262 0.1157809
v -4.489661 -57.18262 0.1157809
v -4.868299 -58.64372 1.006766
v -4.251675 -57.577 0.2254194
v -4.251675 -57.577 0.2254194
v -4.868299 -58.64372 1.006766
v -4.775491 -58.69188 0.9956365
v -5.874035 -56.95694 0.2956801
v -5.438934 -57.04971 0.4131207
v -5.271623 -57.01714 0.3321522
v -4.105362 -58.61481 -1.787451
v -4.547742 -57.93262 -2.124451
v -4.251675 -57.577 0.2254194
v -4.251675 -57.577 0.2254194
v -4.547742 -57.93262 -2.124451
v -4.489661 -57.18262 0.1157809
v -5.308582 -57.99881 -2.69851
v -5.621905 -57.70521 -2.936346
v -4.747583 -58.46787 -2.27292
v -4.747583 -58.46787 -2.27292
v -5.621905 -57.70521 -2.936346
v -4.170444 -58.8612 -1.835482
v -4.170444 -58.8612 -1.835482
v -5.621905 -57.70521 -2.936346
v -4.105362 -58.61481 -1.787451
v -4.105362 -58.61481 -1.787451
v -5.621905 -57.70521 -2.936346
v -4.547742 -57.93262 -2.124451
v -4.547742 -57.93262 -2.124451
v -5.621905 -57.70521 -2.936346
v -5.204556 -57.60027 -2.621753
v -5.204556 -57.60027 -2.621753
v -5.621905 -57.70521 -2.936346
v -5.700985 -57.61781 -2.996433
v -6.80809 -56.89379 0.08417174
v -7.203652 -56.90022 -0.1755908
v -7.193343 -56.92272 0.01334906
v -7.193343 -56.92272 0.01334906
v -7.203652 -56.90022 -0.1755908
v -7.195426 -56.92126 -1.269391E-05

vn -0.5822666 -0.8082814 0.08744477
vn -0.5822666 -0.8082814 0.08744477
vn -0.5822666 -0.8082814 0.08744477
vn -0.6473453 -0.7609991 -0.04271325
vn -0.6473453 -0.7609991 -0.04271325
vn -0.6473453 -0.7609991 -0.04271325
vn -0.6971924 -0.6968465 -0.1683085
vn -0.6971924 -0.6968465 -0.1683085
vn -0.6971924 -0.6968465 -0.1683085
vn -0.6472147 -0.7608443 0.04721329
vn -0.6472147 -0.7608443 0.04721329
vn -0.6472147 -0.7608443 0.04721329
vn -0.6472147 -0.7608443 0.04721329
vn -0.6472147 -0.7608443 0.04721329
vn -0.6472147 -0.7608443 0.04721329
vn -0.699752 -0.7083659 0.09254654
vn -0.699752 -0.7083659 0.09254654
vn -0.699752 -0.7083659 0.09254654
vn -0.7057353 -0.702997 -0.08793782
vn -0.7057353 -0.702997 -0.08793782
vn -0.7057353 -0.702997 -0.08793782
vn -0.7057353 -0.702997 -0.08793782
vn -0.7057353 -0.702997 -0.08793782
vn -0.7057353 -0.702997 -0.08793782
vn -0.7584314 -0.6503704 -0.04242656
vn -0.7584314 -0.6503704 -0.04242656
vn -0.7584314 -0.6503704 -0.04242656
vn -0.7584314 -0.6503704 -0.04242656
vn -0.7584314 -0.6503704 -0.04242656
vn -0.7584314 -0.6503704 -0.04242656
vn -0.7582685 -0.6502306 0.04721127
vn -0.7582685 -0.6502306 0.04721127
vn -0.7582685 -0.6502306 0.04721127
vn -0.7582685 -0.6502306 0.04721127
vn -0.7582685 -0.6502306 0.04721127
vn -0.7582685 -0.6502306 0.04721127
vn -0.4505074 -0.8884313 0.08793698
vn -0.4505074 -0.8884313 0.08793698
vn -0.4505074 -0.8884313 0.08793698
vn -0.4505074 -0.8884313 0.08793698
vn -0.4505074 -0.8884313 0.08793698
vn -0.4505074 -0.8884313 0.08793698
vn -0.5237129 -0.8508233 0.04271432
vn -0.5237129 -0.8508233 0.04271432
vn -0.5237129 -0.8508233 0.04271432
vn -0.5237129 -0.8508233 0.04271432
vn -0.5237129 -0.8508233 0.04271432
vn -0.5237129 -0.8508233 0.04271432
vn -0.5237129 -0.8508233 0.04271432
vn -0.5237129 -0.8508233 0.04271432
vn -0.5237129 -0.8508233 0.04271432
vn -0.4574616 -0.8844001 -0.09254832
vn -0.4574616 -0.8844001 -0.09254832
vn -0.4574616 -0.8844001 -0.09254832
vn -0.5236068 -0.8506507 -0.04721514
vn -0.5236068 -0.8506507 -0.04721514
vn -0.5236068 -0.8506507 -0.04721514
vn -0.5236068 -0.8506507 -0.04721514
vn -0.5236068 -0.8506507 -0.04721514
vn -0.5236068 -0.8506507 -0.04721514
vn -0.5887928 -0.80354 -0.08744428
vn -0.5887928 -0.80354 -0.08744428
vn -0.5887928 -0.80354 -0.08744428
vn -0.4533479 -0.8717681 -0.1857309
vn -0.4533479 -0.8717681 -0.1857309
vn -0.4533479 -0.8717681 -0.1857309
vn -0.4533479 -0.8717681 -0.1857309
vn -0.4533479 -0.8717681 -0.1857309
vn -0.4533479 -0.8717681 -0.1857309
vn -0.5183148 -0.8248253 -0.2258608
vn -0.5183148 -0.8248253 -0.2258608
vn -0.5183148 -0.8248253 -0.2258608
vn -0.5183148 -0.8248253 -0.2258608
vn -0.5183148 -0.8248253 -0.2258608
vn -0.5183148 -0.8248253 -0.2258608
vn -0.5846829 -0.7909463 -0.1804158
vn -0.5846829 -0.7909463 -0.1804158
vn -0.5846829 -0.7909463 -0.1804158
vn -0.6381552 -0.7397397 -0.2134084
vn -0.6381552 -0.7397397 -0.2134084
vn -0.6381552 -0.7397397 -0.2134084
vn -0.6381552 -0.7397397 -0.2134084
vn -0.6381552 -0.7397397 -0.2134084
vn -0.6381552 -0.7397397 -0.2134084
vn -0.5103009 -0.8000772 -0.315388
vn -0.5103009 -0.8000772 -0.315388
vn -0.5103009 -0.8000772 -0.315388
vn -0.5634297 -0.7491917 -0.3482223
vn -0.5634297 -0.7491917 -0.3482223
vn -0.5634297 -0.7491917 -0.3482223
vn -0.5634297 -0.7491917 -0.3482223
vn -0.5634297 -0.7491917 -0.3482223
vn -0.5634297 -0.7491917 -0.3482223
vn -0.6301825 -0.7150812 -0.3025374
vn -0.6301825 -0.7150812 -0.3025374
vn -0.6301825 -0.7150812 -0.3025374
vn -0.1938825 0.2806753 0.9400164
vn -0.1938825 0.2806753 0.9400164
vn -0.1938825 0.2806753 0.9400164
vn -0.1938825 0.2806753 0.9400164
vn -0.1938825 0.2806753 0.9400164
vn -0.1938825 0.2806753 0.9400164
vn -0.1938825 0.2806753 0.9400164
vn -0.1938825 0.2806753 0.9400164
vn -0.1938825 0.2806753 0.9400164
vn -0.1938825 0.2806753 0.9400164
vn -0.1938825 0.2806753 0.9400164
vn -0.1938825 0.2806753 0.9400164
vn -0.1938825 0.2806753 0.9400164
vn -0.1938825 0.2806753 0.9400164
vn -0.1938825 0.2806753 0.9400164
vn -0.1938825 0.2806753 0.9400164
vn -0.1938825 0.2806753 0.9400164
vn -0.1938825 0.2806753 0.9400164
vn -0.1938825 0.2806753 0.9400164
vn -0.1938825 0.2806753 0.9400164
vn -0.1938825 0.2806753 0.9400164
vn -0.1938825 0.2806753 0.9400164
vn -0.1938825 0.2806753 0.9400164
vn -0.1938825 0.2806753 0.9400164
vn 0.109017 0.9756869 -0.1901326
vn 0.109017 0.9756869 -0.1901326
vn 0.109017 0.9756869 -0.1901326
vn 0.109017 0.9756869 -0.1901326
vn 0.109017 0.9756869 -0.1901326
vn 0.109017 0.9756869 -0.1901326
vn 0.109017 0.9756869 -0.1901326
vn 0.109017 0.9756869 -0.1901326
vn 0.109017 0.9756869 -0.1901326
vn 0.109017 0.9756869 -0.1901326
vn 0.109017 0.9756869 -0.1901326
vn 0.109017 0.9756869 -0.1901326
vn 0.109017 0.9756869 -0.1901326
vn 0.109017 0.9756869 -0.1901326
vn 0.109017 0.9756869 -0.1901326
vn 0.109017 0.9756869 -0.1901326
vn 0.109017 0.9756869 -0.1901326
vn 0.109017 0.9756869 -0.1901326
vn 0.109017 0.9756869 -0.1901326
vn 0.109017 0.9756869 -0.1901326
vn 0.109017 0.9756869 -0.1901326
vn 0.109017 0.9756869 -0.1901326
vn 0.109017 0.9756869 -0.1901326
vn 0.109017 0.9756869 -0.1901326
vn 0.109017 0.9756869 -0.1901326
vn 0.109017 0.9756869 -0.1901326
vn 0.109017 0.9756869 -0.1901326
vn 0.109017 0.9756869 -0.1901326
vn 0.109017 0.9756869 -0.1901326
vn 0.109017 0.9756869 -0.1901326
vn 0.932643 -0.2885694 0.2165753
vn 0.932643 -0.2885694 0.2165753
vn 0.932643 -0.2885694 0.2165753
vn 0.932643 -0.2885694 0.2165753
vn 0.932643 -0.2885694 0.2165753
vn 0.932643 -0.2885694 0.2165753
vn 0.932643 -0.2885694 0.2165753
vn 0.932643 -0.2885694 0.2165753
vn 0.932643 -0.2885694 0.2165753
vn 0.932643 -0.2885694 0.2165753
vn 0.932643 -0.2885694 0.2165753
vn 0.932643 -0.2885694 0.2165753
vn 0.932643 -0.2885694 0.2165753
vn 0.932643 -0.2885694 0.2165753
vn 0.932643 -0.2885694 0.2165753
vn 0.932643 -0.2885694 0.2165753
vn 0.932643 -0.2885694 0.2165753
vn 0.932643 -0.2885694 0.2165753
vn 0.5896628 0.7611434 -0.2701086
vn 0.5896628 0.7611434 -0.2701086
vn 0.5896628 0.7611434 -0.2701086
vn 0.5896628 0.7611434 -0.2701086
vn 0.5896628 0.7611434 -0.2701086
vn 0.5896628 0.7611434 -0.2701086
vn 0.3241479 0.429877 0.8426944
vn 0.3241479 0.429877 0.8426944
vn 0.3241479 0.429877 0.8426944
vn 0.3241479 0.429877 0.8426944
vn 0.3241479 0.429877 0.8426944
vn 0.3241479 0.429877 0.8426944
vn 0.3241479 0.429877 0.8426944
vn 0.3241479 0.429877 0.8426944
vn 0.3241479 0.429877 0.8426944
vn 0.3241479 0.429877 0.8426944
vn 0.3241479 0.429877 0.8426944
vn 0.3241479 0.429877 0.8426944
vn 0.3241479 0.429877 0.8426944
vn 0.3241479 0.429877 0.8426944
vn 0.3241479 0.429877 0.8426944
vn 0.05896438 0.8779781 0.4750554
vn 0.05896438 0.8779781 0.4750554
vn 0.05896438 0.8779781 0.4750554
vn 0.863544 0.4710229 -0.1800816
vn 0.863544 0.4710229 -0.1800816
vn 0.863544 0.4710229 -0.1800816
vn 0.863544 0.4710229 -0.1800816
vn 0.863544 0.4710229 -0.1800816
vn 0.863544 0.4710229 -0.1800816
vn 0.6024994 -0.00355971 -0.7981114
vn 0.6024994 -0.00355971 -0.7981114
vn 0.6024994 -0.00355971 -0.7981114
vn 0.6024994 -0.00355971 -0.7981114
vn 0.6024994 -0.00355971 -0.7981114
vn 0.6024994 -0.00355971 -0.7981114
vn 0.6024994 -0.00355971 -0.7981114
vn 0.6024994 -0.00355971 -0.7981114
vn 0.6024994 -0.00355971 -0.7981114
vn 0.6024994 -0.00355971 -0.7981114
vn 0.6024994 -0.00355971 -0.7981114
vn 0.6024994 -0.00355971 -0.7981114
vn 0.6024994 -0.00355971 -0.7981114
vn 0.6024994 -0.00355971 -0.7981114
vn 0.6024994 -0.00355971 -0.7981114
vn 0.6024994 -0.00355971 -0.7981114
vn 0.6024994 -0.00355971 -0.7981114
vn 0.6024994 -0.00355971 -0.7981114
vn -0.09676791 0.9876861 0.1229316
vn -0.09676791 0.9876861 0.1229316
vn -0.09676791 0.9876861 0.1229316
vn -0.09676791 0.9876861 0.1229316
vn -0.09676791 0.9876861 0.1229316
vn -0.09676791 0.9876861 0.1229316

vt 0.7727265 0.236191
vt 0.7796578 0.2481965
vt 0.7682615 0.2439246
vt 0.7499992 0.236191
vt 0.7613629 0.2165085
vt 0.7727265 0.236191
vt 0.7613629 0.2165085
vt 0.7538362 0.2165085
vt 0.7572931 0.2094595
vt 0.7727265 0.236191
vt 0.7682615 0.2439246
vt 0.7499992 0.236191
vt 0.7499992 0.236191
vt 0.7682615 0.2439246
vt 0.7510247 0.2379671
vt 0.7510247 0.2379671
vt 0.7493442 0.2373255
vt 0.7499992 0.236191
vt 0.7499992 0.236191
vt 0.7471679 0.2312871
vt 0.7613629 0.2165085
vt 0.7613629 0.2165085
vt 0.7471679 0.2312871
vt 0.7538362 0.2165085
vt 0.7466898 0.236191
vt 0.7464171 0.2335933
vt 0.7499992 0.236191
vt 0.7499992 0.236191
vt 0.7464171 0.2335933
vt 0.7471679 0.2312871
vt 0.7499992 0.236191
vt 0.7493442 0.2373255
vt 0.7466898 0.236191
vt 0.7466898 0.236191
vt 0.7493442 0.2373255
vt 0.746721 0.2363788
vt 0.7893152 0.2513911
vt 0.787066 0.250719
vt 0.7908795 0.2511921
vt 0.7908795 0.2511921
vt 0.787066 0.250719
vt 0.7946051 0.2376609
vt 0.7946051 0.2376609
vt 0.787066 0.250719
vt 0.7950006 0.236191
vt 0.7950006 0.236191
vt 0.787066 0.250719
vt 0.7727265 0.236191
vt 0.7727265 0.236191
vt 0.787066 0.250719
vt 0.7796578 0.2481965
vt 0.7840901 0.2165085
vt 0.7995933 0.2165085
vt 0.7951488 0.2356628
vt 0.7840901 0.2165085
vt 0.7951488 0.2356628
vt 0.7727265 0.236191
vt 0.7727265 0.236191
vt 0.7951488 0.2356628
vt 0.7950006 0.236191
vt 0.7727265 0.236191
vt 0.7613629 0.2165085
vt 0.7840901 0.2165085
vt 0.8010498 0.2101813
vt 0.7995933 0.2165085
vt 0.7914675 0.2037304
vt 0.7914675 0.2037304
vt 0.7995933 0.2165085
vt 0.7840901 0.2165085
vt 0.7727265 0.196826
vt 0.781054 0.196826
vt 0.7840901 0.2165085
vt 0.7840901 0.2165085
vt 0.781054 0.196826
vt 0.7914675 0.2037304
vt 0.7727265 0.196826
vt 0.7840901 0.2165085
vt 0.7613629 0.2165085
vt 0.7572931 0.2094595
vt 0.7677083 0.196826
vt 0.7613629 0.2165085
vt 0.7613629 0.2165085
vt 0.7677083 0.196826
vt 0.7727265 0.196826
vt 0.7727265 0.196826
vt 0.7750815 0.192747
vt 0.781054 0.196826
vt 0.7727265 0.196826
vt 0.7708643 0.1936006
vt 0.7750815 0.192747
vt 0.7750815 0.192747
vt 0.7708643 0.1936006
vt 0.7733173 0.1915684
vt 0.7677083 0.196826
vt 0.7708643 0.1936006
vt 0.7727265 0.196826
vt 0.5867401 0.6271909
vt 0.5777209 0.6182185
vt 0.6020973 0.6398667
vt 0.6020973 0.6398667
vt 0.5777209 0.6182185
vt 0.6028473 0.6005175
vt 0.6028473 0.6005175
vt 0.5777209 0.6182185
vt 0.5907248 0.5051026
vt 0.5907248 0.5051026
vt 0.5777209 0.6182185
vt 0.5784522 0.4606579
vt 0.5784522 0.4606579
vt 0.5777209 0.6182185
vt 0.4083751 0.4023654
vt 0.4083751 0.4023654
vt 0.5777209 0.6182185
vt 0.4160209 0.4164803
vt 0.4160209 0.4164803
vt 0.5777209 0.6182185
vt 0.4455914 0.4607329
vt 0.4455914 0.4607329
vt 0.5777209 0.6182185
vt 0.493716 0.524885
vt 0.3562612 0.5751567
vt 0.334374 0.531926
vt 0.4162131 0.6663994
vt 0.4162131 0.6663994
vt 0.334374 0.531926
vt 0.4345798 0.6889476
vt 0.4345798 0.6889476
vt 0.334374 0.531926
vt 0.4502229 0.7040047
vt 0.4502229 0.7040047
vt 0.334374 0.531926
vt 0.4994257 0.66579
vt 0.4994257 0.66579
vt 0.334374 0.531926
vt 0.5600573 0.3866239
vt 0.5600573 0.3866239
vt 0.334374 0.531926
vt 0.4862765 0.3645023
vt 0.4862765 0.3645023
vt 0.334374 0.531926
vt 0.425659 0.3682197
vt 0.425659 0.3682197
vt 0.334374 0.531926
vt 0.332002 0.3897928
vt 0.332002 0.3897928
vt 0.334374 0.531926
vt 0.2927091 0.4162881
vt 0.2927091 0.4162881
vt 0.334374 0.531926
vt 0.2969234 0.432189
vt 0.389324 0.4179335
vt 0.5121671 0.3384852
vt 0.4848046 0.6255502
vt 0.4848046 0.6255502
vt 0.5121671 0.3384852
vt 0.5104514 0.6305099
vt 0.5104514 0.6305099
vt 0.5121671 0.3384852
vt 0.5172768 0.5844572
vt 0.5172768 0.5844572
vt 0.5121671 0.3384852
vt 0.5247209 0.4449585
vt 0.5247209 0.4449585
vt 0.5121671 0.3384852
vt 0.5246928 0.4411848
vt 0.5246928 0.4411848
vt 0.5121671 0.3384852
vt 0.523699 0.4311765
vt 0.4861218 0.3710605
vt 0.4931253 0.3710089
vt 0.4615439 0.6613085
vt 0.4615439 0.6613085
vt 0.4931253 0.3710089
vt 0.5353434 0.6085805
vt 0.3460325 0.5251756
vt 0.6044787 0.3238359
vt 0.3668462 0.5526366
vt 0.3668462 0.5526366
vt 0.6044787 0.3238359
vt 0.4865156 0.6261877
vt 0.4865156 0.6261877
vt 0.6044787 0.3238359
vt 0.4990413 0.626019
vt 0.4990413 0.626019
vt 0.6044787 0.3238359
vt 0.5771115 0.5888356
vt 0.5771115 0.5888356
vt 0.6044787 0.3238359
vt 0.6232954 0.3276142
vt 0.4244823 0.4600906
vt 0.4736758 0.4451788
vt 0.4920847 0.4554591
vt 0.5805429 0.5797507
vt 0.4995195 0.6139901
vt 0.4824841 0.3752326
vt 0.4824841 0.3752326
vt 0.4995195 0.6139901
vt 0.4364924 0.3863707
vt 0.4448366 0.6779126
vt 0.397237 0.7423226
vt 0.5208301 0.5626591
vt 0.5208301 0.5626591
vt 0.397237 0.7423226
vt 0.5844432 0.4441897
vt 0.5844432 0.4441897
vt 0.397237 0.7423226
vt 0.5441752 0.4311812
vt 0.5441752 0.4311812
vt 0.397237 0.7423226
vt 0.4333 0.5224473
vt 0.4333 0.5224473
vt 0.397237 0.7423226
vt 0.3797094 0.657127
vt 0.3797094 0.657127
vt 0.397237 0.7423226
vt 0.3830518 0.7585891
vt 0.3620131 0.4313218
vt 0.3229499 0.4572545
vt 0.3237562 0.4383909
vt 0.3237562 0.4383909
vt 0.3229499 0.4572545
vt 0.323564 0.4397223

usemtl Material0
usemap Material0
f 1/1/1 2/2/2 3/3/3
f 4/4/4 5/5/5 6/6/6
f 7/7/7 8/8/8 9/9/9
f 10/10/10 11/11/11 12/12/12
f 13/13/13 14/14/14 15/15/15
f 16/16/16 17/17/17 18/18/18
f 19/19/19 20/20/20 21/21/21
f 22/22/22 23/23/23 24/24/24
f 25/25/25 26/26/26 27/27/27
f 28/28/28 29/29/29 30/30/30
f 31/31/31 32/32/32 33/33/33
f 34/34/34 35/35/35 36/36/36
f 37/37/37 38/38/38 39/39/39
f 40/40/40 41/41/41 42/42/42
f 43/43/43 44/44/44 45/45/45
f 46/46/46 47/47/47 48/48/48
f 49/49/49 50/50/50 51/51/51
f 52/52/52 53/53/53 54/54/54
f 55/55/55 56/56/56 57/57/57
f 58/58/58 59/59/59 60/60/60
f 61/61/61 62/62/62 63/63/63
f 64/64/64 65/65/65 66/66/66
f 67/67/67 68/68/68 69/69/69
f 70/70/70 71/71/71 72/72/72
f 73/73/73 74/74/74 75/75/75
f 76/76/76 77/77/77 78/78/78
f 79/79/79 80/80/80 81/81/81
f 82/82/82 83/83/83 84/84/84
f 85/85/85 86/86/86 87/87/87
f 88/88/88 89/89/89 90/90/90
f 91/91/91 92/92/92 93/93/93
f 94/94/94 95/95/95 96/96/96

usemtl Material1
usemap Material1
f 97/97/97 98/98/98 99/99/99
f 100/100/100 101/101/101 102/102/102
f 103/103/103 104/104/104 105/105/105
f 106/106/106 107/107/107 108/108/108
f 109/109/109 110/110/110 111/111/111
f 112/112/112 113/113/113 114/114/114
f 115/115/115 116/116/116 117/117/117
f 118/118/118 119/119/119 120/120/120
f 121/121/121 122/122/122 123/123/123
f 124/124/124 125/125/125 126/126/126
f 127/127/127 128/128/128 129/129/129
f 130/130/130 131/131/131 132/132/132
f 133/133/133 134/134/134 135/135/135
f 136/136/136 137/137/137 138/138/138
f 139/139/139 140/140/140 141/141/141
f 142/142/142 143/143/143 144/144/144
f 145/145/145 146/146/146 147/147/147
f 148/148/148 149/149/149 150/150/150
f 151/151/151 152/152/152 153/153/153
f 154/154/154 155/155/155 156/156/156
f 157/157/157 158/158/158 159/159/159
f 160/160/160 161/161/161 162/162/162
f 163/163/163 164/164/164 165/165/165
f 166/166/166 167/167/167 168/168/168
f 169/169/169 170/170/170 171/171/171
f 172/172/172 173/173/173 174/174/174
f 175/175/175 176/176/176 177/177/177
f 178/178/178 179/179/179 180/180/180
f 181/181/181 182/182/182 183/183/183
f 184/184/184 185/185/185 186/186/186
f 187/187/187 188/188/188 189/189/189
f 190/190/190 191/191/191 192/192/192
f 193/193/193 194/194/194 195/195/195
f 196/196/196 197/197/197 198/198/198
f 199/199/199 200/200/200 201/201/201
f 202/202/202 203/203/203 204/204/204
f 205/205/205 206/206/206 207/207/207
f 208/208/208 209/209/209 210/210/210
f 211/211/211 212/212/212 213/213/213
f 214/214/214 215/215/215 216/216/216
f 217/217/217 218/218/218 219/219/219
f 220/220/220 221/221/221 222/222/222
