g  Instance
v 7.554461 -44.93466 -4.09229
v 7.808497 -45.04607 -3.738223
v 7.824448 -45.30626 -4.092288
v 7.808497 -45.04607 -3.738223
v 7.867878 -45.08082 -3.641539
v 7.824448 -45.30626 -4.092288
v 7.824448 -45.30626 -4.092288
v 7.867878 -45.08082 -3.641539
v 8.058807 -45.43635 -3.70001
v 8.12833 -45.88492 -4.049837
v 7.824448 -45.30626 -4.092288
v 8.172329 -45.84906 -3.907646
v 8.172329 -45.84906 -3.907646
v 7.824448 -45.30626 -4.092288
v 8.164896 -45.6847 -3.737874
v 8.164896 -45.6847 -3.737874
v 7.824448 -45.30626 -4.092288
v 8.058807 -45.43635 -3.70001
v 6.58183 -44.63909 -5.238452
v 6.881891 -44.7103 -4.916778
v 6.881893 -45.00003 -5.257361
v 6.881893 -45.00003 -5.257361
v 6.881891 -44.7103 -4.916778
v 7.824448 -45.30626 -4.092288
v 7.824448 -45.30626 -4.092288
v 6.881891 -44.7103 -4.916778
v 7.554461 -44.93466 -4.09229
v 7.824448 -45.30626 -4.092288
v 7.715846 -46.15946 -5.045401
v 6.881893 -45.00003 -5.257361
v 6.881893 -45.00003 -5.257361
v 7.715846 -46.15946 -5.045401
v 7.642077 -46.20428 -5.199976
v 7.715846 -46.15946 -5.045401
v 7.824448 -45.30626 -4.092288
v 8.12833 -45.88492 -4.049837
v 6.881893 -45.00003 -5.257361
v 6.386489 -44.91507 -5.725154
v 6.58183 -44.63909 -5.238452
v 6.58183 -44.63909 -5.238452
v 6.386489 -44.91507 -5.725154
v 6.171925 -44.57236 -5.629007
v 6.783848 -45.67476 -5.891904
v 6.386489 -44.91507 -5.725154
v 6.881893 -45.00003 -5.257361
v 6.881893 -45.00003 -5.257361
v 7.642077 -46.20428 -5.199976
v 6.783848 -45.67476 -5.891904
v 6.783848 -45.67476 -5.891904
v 7.642077 -46.20428 -5.199976
v 7.00491 -46.16208 -5.978825
v 7.00491 -46.16208 -5.978825
v 7.642077 -46.20428 -5.199976
v 7.532485 -46.2624 -5.383335
v 7.00491 -46.16208 -5.978825
v 7.532485 -46.2624 -5.383335
v 7.116535 -46.47162 -6.016978
v 7.642077 -46.20428 -5.199976
v 7.715846 -46.15946 -5.045401
v 7.532485 -46.2624 -5.383335
v 7.532485 -46.2624 -5.383335
v 7.715846 -46.15946 -5.045401
v 7.116535 -46.47162 -6.016978
v 7.116535 -46.47162 -6.016978
v 7.715846 -46.15946 -5.045401
v 6.448936 -46.54818 -5.614481
v 6.448936 -46.54818 -5.614481
v 7.715846 -46.15946 -5.045401
v 6.042532 -46.53827 -5.06005
v 6.042532 -46.53827 -5.06005
v 7.715846 -46.15946 -5.045401
v 5.841736 -46.36568 -3.867905
v 5.841736 -46.36568 -3.867905
v 7.715846 -46.15946 -5.045401
v 6.883548 -46.09001 -3.640768
v 6.883548 -46.09001 -3.640768
v 7.715846 -46.15946 -5.045401
v 8.002506 -45.8563 -3.738289
v 8.002506 -45.8563 -3.738289
v 7.715846 -46.15946 -5.045401
v 8.172329 -45.84906 -3.907646
v 8.172329 -45.84906 -3.907646
v 7.715846 -46.15946 -5.045401
v 8.12833 -45.88492 -4.049837
v 8.002506 -45.8563 -3.738289
v 8.172329 -45.84906 -3.907646
v 8.164896 -45.6847 -3.737874
v 5.841736 -46.36568 -3.867905
v 5.580958 -46.07711 -3.632283
v 6.042532 -46.53827 -5.06005
v 6.042532 -46.53827 -5.06005
v 5.580958 -46.07711 -3.632283
v 6.070114 -46.55384 -5.389507
v 6.070114 -46.55384 -5.389507
v 5.580958 -46.07711 -3.632283
v 5.280476 -45.66405 -5.002089
v 5.280476 -45.66405 -5.002089
v 5.580958 -46.07711 -3.632283
v 5.467069 -45.93066 -3.945308
v 5.280476 -45.66405 -5.002089
v 5.467069 -45.93066 -3.945308
v 5.442485 -45.19375 -5.140612
v 8.002506 -45.8563 -3.738289
v 8.164896 -45.6847 -3.737874
v 6.883548 -46.09001 -3.640768
v 6.883548 -46.09001 -3.640768
v 8.164896 -45.6847 -3.737874
v 6.010861 -45.95419 -3.531065
v 6.010861 -45.95419 -3.531065
v 8.164896 -45.6847 -3.737874
v 7.867878 -45.08082 -3.641539
v 7.867878 -45.08082 -3.641539
v 8.164896 -45.6847 -3.737874
v 8.058807 -45.43635 -3.70001
v 6.042532 -46.53827 -5.06005
v 6.070114 -46.55384 -5.389507
v 6.448936 -46.54818 -5.614481
v 5.841736 -46.36568 -3.867905
v 6.883548 -46.09001 -3.640768
v 5.580958 -46.07711 -3.632283
v 5.580958 -46.07711 -3.632283
v 6.883548 -46.09001 -3.640768
v 6.010861 -45.95419 -3.531065
v 7.554461 -44.93466 -4.09229
v 6.881891 -44.7103 -4.916778
v 7.808497 -45.04607 -3.738223
v 7.808497 -45.04607 -3.738223
v 6.881891 -44.7103 -4.916778
v 7.867878 -45.08082 -3.641539
v 7.867878 -45.08082 -3.641539
v 6.881891 -44.7103 -4.916778
v 6.010861 -45.95419 -3.531065
v 6.010861 -45.95419 -3.531065
v 6.881891 -44.7103 -4.916778
v 5.580958 -46.07711 -3.632283
v 5.580958 -46.07711 -3.632283
v 6.881891 -44.7103 -4.916778
v 5.467069 -45.93066 -3.945308
v 5.467069 -45.93066 -3.945308
v 6.881891 -44.7103 -4.916778
v 5.442485 -45.19375 -5.140612
v 5.442485 -45.19375 -5.140612
v 6.881891 -44.7103 -4.916778
v 6.171925 -44.57236 -5.629007
v 6.171925 -44.57236 -5.629007
v 6.881891 -44.7103 -4.916778
v 6.58183 -44.63909 -5.238452
v 6.783848 -45.67476 -5.891904
v 7.00491 -46.16208 -5.978825
v 6.386489 -44.91507 -5.725154
v 6.386489 -44.91507 -5.725154
v 7.00491 -46.16208 -5.978825
v 6.171925 -44.57236 -5.629007
v 6.171925 -44.57236 -5.629007
v 7.00491 -46.16208 -5.978825
v 5.442485 -45.19375 -5.140612
v 5.442485 -45.19375 -5.140612
v 7.00491 -46.16208 -5.978825
v 5.280476 -45.66405 -5.002089
v 5.280476 -45.66405 -5.002089
v 7.00491 -46.16208 -5.978825
v 6.070114 -46.55384 -5.389507
v 6.070114 -46.55384 -5.389507
v 7.00491 -46.16208 -5.978825
v 6.448936 -46.54818 -5.614481
v 6.448936 -46.54818 -5.614481
v 7.00491 -46.16208 -5.978825
v 7.116535 -46.47162 -6.016978

vn 0.7523147 0.5465894 -0.3677806
vn 0.7523147 0.5465894 -0.3677806
vn 0.7523147 0.5465894 -0.3677806
vn 0.810828 0.4884636 -0.3224302
vn 0.810828 0.4884636 -0.3224302
vn 0.810828 0.4884636 -0.3224302
vn 0.810828 0.4884636 -0.3224302
vn 0.810828 0.4884636 -0.3224302
vn 0.810828 0.4884636 -0.3224302
vn 0.8357794 0.4123122 -0.3625899
vn 0.8357794 0.4123122 -0.3625899
vn 0.8357794 0.4123122 -0.3625899
vn 0.8357794 0.4123122 -0.3625899
vn 0.8357794 0.4123122 -0.3625899
vn 0.8357794 0.4123122 -0.3625899
vn 0.8357794 0.4123122 -0.3625899
vn 0.8357794 0.4123122 -0.3625899
vn 0.8357794 0.4123122 -0.3625899
vn 0.6586739 0.5731168 -0.4875303
vn 0.6586739 0.5731168 -0.4875303
vn 0.6586739 0.5731168 -0.4875303
vn 0.7236047 0.5257303 -0.447218
vn 0.7236047 0.5257303 -0.447218
vn 0.7236047 0.5257303 -0.447218
vn 0.7236047 0.5257303 -0.447218
vn 0.7236047 0.5257303 -0.447218
vn 0.7236047 0.5257303 -0.447218
vn 0.7486104 0.4493315 -0.4875281
vn 0.7486104 0.4493315 -0.4875281
vn 0.7486104 0.4493315 -0.4875281
vn 0.7486104 0.4493315 -0.4875281
vn 0.7486104 0.4493315 -0.4875281
vn 0.7486104 0.4493315 -0.4875281
vn 0.8069929 0.3913493 -0.4422762
vn 0.8069929 0.3913493 -0.4422762
vn 0.8069929 0.3913493 -0.4422762
vn 0.6224858 0.546824 -0.5599062
vn 0.6224858 0.546824 -0.5599062
vn 0.6224858 0.546824 -0.5599062
vn 0.6224858 0.546824 -0.5599062
vn 0.6224858 0.546824 -0.5599062
vn 0.6224858 0.546824 -0.5599062
vn 0.6472111 0.470225 -0.6000053
vn 0.6472111 0.470225 -0.6000053
vn 0.6472111 0.470225 -0.6000053
vn 0.7124214 0.423038 -0.5599059
vn 0.7124214 0.423038 -0.5599059
vn 0.7124214 0.423038 -0.5599059
vn 0.7124214 0.423038 -0.5599059
vn 0.7124214 0.423038 -0.5599059
vn 0.7124214 0.423038 -0.5599059
vn 0.7124214 0.423038 -0.5599059
vn 0.7124214 0.423038 -0.5599059
vn 0.7124214 0.423038 -0.5599059
vn 0.7321786 0.3369915 -0.5919049
vn 0.7321786 0.3369915 -0.5919049
vn 0.7321786 0.3369915 -0.5919049
vn 0.2159083 -0.9605256 0.1754259
vn 0.2159083 -0.9605256 0.1754259
vn 0.2159083 -0.9605256 0.1754259
vn 0.2159083 -0.9605256 0.1754259
vn 0.2159083 -0.9605256 0.1754259
vn 0.2159083 -0.9605256 0.1754259
vn 0.2159083 -0.9605256 0.1754259
vn 0.2159083 -0.9605256 0.1754259
vn 0.2159083 -0.9605256 0.1754259
vn 0.2159083 -0.9605256 0.1754259
vn 0.2159083 -0.9605256 0.1754259
vn 0.2159083 -0.9605256 0.1754259
vn 0.2159083 -0.9605256 0.1754259
vn 0.2159083 -0.9605256 0.1754259
vn 0.2159083 -0.9605256 0.1754259
vn 0.2159083 -0.9605256 0.1754259
vn 0.2159083 -0.9605256 0.1754259
vn 0.2159083 -0.9605256 0.1754259
vn 0.2159083 -0.9605256 0.1754259
vn 0.2159083 -0.9605256 0.1754259
vn 0.2159083 -0.9605256 0.1754259
vn 0.2159083 -0.9605256 0.1754259
vn 0.2159083 -0.9605256 0.1754259
vn 0.2159083 -0.9605256 0.1754259
vn 0.2159083 -0.9605256 0.1754259
vn 0.2159083 -0.9605256 0.1754259
vn 0.2159083 -0.9605256 0.1754259
vn 0.5948939 -0.5643259 0.5723965
vn 0.5948939 -0.5643259 0.5723965
vn 0.5948939 -0.5643259 0.5723965
vn -0.7544757 -0.6555392 -0.03217096
vn -0.7544757 -0.6555392 -0.03217096
vn -0.7544757 -0.6555392 -0.03217096
vn -0.7544757 -0.6555392 -0.03217096
vn -0.7544757 -0.6555392 -0.03217096
vn -0.7544757 -0.6555392 -0.03217096
vn -0.7544757 -0.6555392 -0.03217096
vn -0.7544757 -0.6555392 -0.03217096
vn -0.7544757 -0.6555392 -0.03217096
vn -0.7544757 -0.6555392 -0.03217096
vn -0.7544757 -0.6555392 -0.03217096
vn -0.7544757 -0.6555392 -0.03217096
vn -0.8892917 0.3809063 0.2531223
vn -0.8892917 0.3809063 0.2531223
vn -0.8892917 0.3809063 0.2531223
vn 0.1080058 -0.1045941 0.9886328
vn 0.1080058 -0.1045941 0.9886328
vn 0.1080058 -0.1045941 0.9886328
vn 0.1080058 -0.1045941 0.9886328
vn 0.1080058 -0.1045941 0.9886328
vn 0.1080058 -0.1045941 0.9886328
vn 0.1080058 -0.1045941 0.9886328
vn 0.1080058 -0.1045941 0.9886328
vn 0.1080058 -0.1045941 0.9886328
vn 0.1080058 -0.1045941 0.9886328
vn 0.1080058 -0.1045941 0.9886328
vn 0.1080058 -0.1045941 0.9886328
vn 0.04518161 -0.9976789 0.05094425
vn 0.04518161 -0.9976789 0.05094425
vn 0.04518161 -0.9976789 0.05094425
vn -0.00124543 -0.6331131 0.7740583
vn -0.00124543 -0.6331131 0.7740583
vn -0.00124543 -0.6331131 0.7740583
vn -0.00124543 -0.6331131 0.7740583
vn -0.00124543 -0.6331131 0.7740583
vn -0.00124543 -0.6331131 0.7740583
vn -0.3447031 0.7958766 0.4977553
vn -0.3447031 0.7958766 0.4977553
vn -0.3447031 0.7958766 0.4977553
vn -0.3447031 0.7958766 0.4977553
vn -0.3447031 0.7958766 0.4977553
vn -0.3447031 0.7958766 0.4977553
vn -0.3447031 0.7958766 0.4977553
vn -0.3447031 0.7958766 0.4977553
vn -0.3447031 0.7958766 0.4977553
vn -0.3447031 0.7958766 0.4977553
vn -0.3447031 0.7958766 0.4977553
vn -0.3447031 0.7958766 0.4977553
vn -0.3447031 0.7958766 0.4977553
vn -0.3447031 0.7958766 0.4977553
vn -0.3447031 0.7958766 0.4977553
vn -0.3447031 0.7958766 0.4977553
vn -0.3447031 0.7958766 0.4977553
vn -0.3447031 0.7958766 0.4977553
vn -0.3447031 0.7958766 0.4977553
vn -0.3447031 0.7958766 0.4977553
vn -0.3447031 0.7958766 0.4977553
vn -0.3447031 0.7958766 0.4977553
vn -0.3447031 0.7958766 0.4977553
vn -0.3447031 0.7958766 0.4977553
vn -0.5082218 -0.07755821 -0.8577268
vn -0.5082218 -0.07755821 -0.8577268
vn -0.5082218 -0.07755821 -0.8577268
vn -0.5082218 -0.07755821 -0.8577268
vn -0.5082218 -0.07755821 -0.8577268
vn -0.5082218 -0.07755821 -0.8577268
vn -0.5082218 -0.07755821 -0.8577268
vn -0.5082218 -0.07755821 -0.8577268
vn -0.5082218 -0.07755821 -0.8577268
vn -0.5082218 -0.07755821 -0.8577268
vn -0.5082218 -0.07755821 -0.8577268
vn -0.5082218 -0.07755821 -0.8577268
vn -0.5082218 -0.07755821 -0.8577268
vn -0.5082218 -0.07755821 -0.8577268
vn -0.5082218 -0.07755821 -0.8577268
vn -0.5082218 -0.07755821 -0.8577268
vn -0.5082218 -0.07755821 -0.8577268
vn -0.5082218 -0.07755821 -0.8577268
vn -0.5082218 -0.07755821 -0.8577268
vn -0.5082218 -0.07755821 -0.8577268
vn -0.5082218 -0.07755821 -0.8577268

vt 0.2678733 0.1771435
vt 0.2644796 0.1825411
vt 0.2613634 0.1771435
vt 0.2644796 0.1825411
vt 0.2636088 0.1839727
vt 0.2613634 0.1771435
vt 0.2613634 0.1771435
vt 0.2636088 0.1839727
vt 0.2580075 0.1829561
vt 0.2518433 0.1771435
vt 0.2613634 0.1771435
vt 0.2519733 0.1793429
vt 0.2519733 0.1793429
vt 0.2613634 0.1771435
vt 0.2540998 0.1821044
vt 0.2540998 0.1821044
vt 0.2613634 0.1771435
vt 0.2580075 0.1829561
vt 0.2796983 0.157461
vt 0.2760489 0.1632148
vt 0.272727 0.157461
vt 0.272727 0.157461
vt 0.2760489 0.1632148
vt 0.2613634 0.1771435
vt 0.2613634 0.1771435
vt 0.2760489 0.1632148
vt 0.2678733 0.1771435
vt 0.2613634 0.1771435
vt 0.2515476 0.160142
vt 0.272727 0.157461
vt 0.272727 0.157461
vt 0.2515476 0.160142
vt 0.2515758 0.157461
vt 0.2515476 0.160142
vt 0.2613634 0.1771435
vt 0.2518433 0.1771435
vt 0.272727 0.157461
vt 0.2778282 0.1486253
vt 0.2796983 0.157461
vt 0.2796983 0.157461
vt 0.2778282 0.1486253
vt 0.2838743 0.1500883
vt 0.2658073 0.1454756
vt 0.2778282 0.1486253
vt 0.272727 0.157461
vt 0.272727 0.157461
vt 0.2515758 0.157461
vt 0.2658073 0.1454756
vt 0.2658073 0.1454756
vt 0.2515758 0.157461
vt 0.2580626 0.1434955
vt 0.2580626 0.1434955
vt 0.2515758 0.157461
vt 0.2519316 0.1541149
vt 0.2580626 0.1434955
vt 0.2519316 0.1541149
vt 0.2534576 0.1421568
vt 0.4184867 0.5421454
vt 0.4103206 0.5264695
vt 0.4304358 0.5607464
vt 0.4304358 0.5607464
vt 0.4103206 0.5264695
vt 0.4755462 0.6250158
vt 0.4755462 0.6250158
vt 0.4103206 0.5264695
vt 0.5422626 0.5841853
vt 0.5422626 0.5841853
vt 0.4103206 0.5264695
vt 0.5816492 0.5279508
vt 0.5816492 0.5279508
vt 0.4103206 0.5264695
vt 0.5974283 0.4070345
vt 0.5974283 0.4070345
vt 0.4103206 0.5264695
vt 0.4898908 0.383994
vt 0.4898908 0.383994
vt 0.4103206 0.5264695
vt 0.3757576 0.3938853
vt 0.3757576 0.3938853
vt 0.4103206 0.5264695
vt 0.3590551 0.4110659
vt 0.3590551 0.4110659
vt 0.4103206 0.5264695
vt 0.3641226 0.4254902
vt 0.4402989 0.4755321
vt 0.425659 0.5003023
vt 0.4119754 0.4754712
vt 0.4548544 0.3852973
vt 0.4931066 0.3621115
vt 0.4290904 0.5026181
vt 0.4290904 0.5026181
vt 0.4931066 0.3621115
vt 0.4261559 0.5350387
vt 0.4261559 0.5350387
vt 0.4931066 0.3621115
vt 0.5431532 0.4969178
vt 0.5431532 0.4969178
vt 0.4931066 0.3621115
vt 0.5113233 0.3929149
vt 0.387749 0.5292727
vt 0.3703105 0.4182664
vt 0.4381613 0.5438236
vt 0.4331594 0.3616709
vt 0.4500401 0.3455168
vt 0.4111925 0.472982
vt 0.4111925 0.472982
vt 0.4500401 0.3455168
vt 0.4256918 0.5597901
vt 0.4256918 0.5597901
vt 0.4500401 0.3455168
vt 0.5104326 0.3750639
vt 0.5104326 0.3750639
vt 0.4500401 0.3455168
vt 0.4748571 0.3560737
vt 0.5583323 0.5136906
vt 0.5556883 0.5461675
vt 0.5184112 0.5683407
vt 0.6191326 0.533848
vt 0.4574514 0.4781432
vt 0.6597193 0.4760666
vt 0.6597193 0.4760666
vt 0.4574514 0.4781432
vt 0.593003 0.4512401
vt 0.5917373 0.4042593
vt 0.5318838 0.5120124
vt 0.6131417 0.357991
vt 0.6131417 0.357991
vt 0.5318838 0.5120124
vt 0.6177545 0.3453528
vt 0.6177545 0.3453528
vt 0.5318838 0.5120124
vt 0.3852551 0.3309144
vt 0.3852551 0.3309144
vt 0.5318838 0.5120124
vt 0.3350022 0.3441433
vt 0.3350022 0.3441433
vt 0.5318838 0.5120124
vt 0.3297518 0.3850535
vt 0.3297518 0.3850535
vt 0.5318838 0.5120124
vt 0.3603911 0.5412641
vt 0.3603911 0.5412641
vt 0.5318838 0.5120124
vt 0.4642534 0.6050928
vt 0.4642534 0.6050928
vt 0.5318838 0.5120124
vt 0.5038885 0.5540523
vt 0.3911054 0.5936359
vt 0.292606 0.6259627
vt 0.5461722 0.5316073
vt 0.5461722 0.5316073
vt 0.292606 0.6259627
vt 0.617145 0.4958396
vt 0.617145 0.4958396
vt 0.292606 0.6259627
vt 0.520727 0.3141838
vt 0.520727 0.3141838
vt 0.292606 0.6259627
vt 0.4364971 0.2626605
vt 0.4364971 0.2626605
vt 0.292606 0.6259627
vt 0.2455173 0.4067626
vt 0.2455173 0.4067626
vt 0.292606 0.6259627
vt 0.2356589 0.4904393
vt 0.2356589 0.4904393
vt 0.292606 0.6259627
vt 0.2308727 0.6401479

usemtl Material0
usemap Material0
f 1/1/1 2/2/2 3/3/3
f 4/4/4 5/5/5 6/6/6
f 7/7/7 8/8/8 9/9/9
f 10/10/10 11/11/11 12/12/12
f 13/13/13 14/14/14 15/15/15
f 16/16/16 17/17/17 18/18/18
f 19/19/19 20/20/20 21/21/21
f 22/22/22 23/23/23 24/24/24
f 25/25/25 26/26/26 27/27/27
f 28/28/28 29/29/29 30/30/30
f 31/31/31 32/32/32 33/33/33
f 34/34/34 35/35/35 36/36/36
f 37/37/37 38/38/38 39/39/39
f 40/40/40 41/41/41 42/42/42
f 43/43/43 44/44/44 45/45/45
f 46/46/46 47/47/47 48/48/48
f 49/49/49 50/50/50 51/51/51
f 52/52/52 53/53/53 54/54/54
f 55/55/55 56/56/56 57/57/57

usemtl Material1
usemap Material1
f 58/58/58 59/59/59 60/60/60
f 61/61/61 62/62/62 63/63/63
f 64/64/64 65/65/65 66/66/66
f 67/67/67 68/68/68 69/69/69
f 70/70/70 71/71/71 72/72/72
f 73/73/73 74/74/74 75/75/75
f 76/76/76 77/77/77 78/78/78
f 79/79/79 80/80/80 81/81/81
f 82/82/82 83/83/83 84/84/84
f 85/85/85 86/86/86 87/87/87
f 88/88/88 89/89/89 90/90/90
f 91/91/91 92/92/92 93/93/93
f 94/94/94 95/95/95 96/96/96
f 97/97/97 98/98/98 99/99/99
f 100/100/100 101/101/101 102/102/102
f 103/103/103 104/104/104 105/105/105
f 106/106/106 107/107/107 108/108/108
f 109/109/109 110/110/110 111/111/111
f 112/112/112 113/113/113 114/114/114
f 115/115/115 116/116/116 117/117/117
f 118/118/118 119/119/119 120/120/120
f 121/121/121 122/122/122 123/123/123
f 124/124/124 125/125/125 126/126/126
f 127/127/127 128/128/128 129/129/129
f 130/130/130 131/131/131 132/132/132
f 133/133/133 134/134/134 135/135/135
f 136/136/136 137/137/137 138/138/138
f 139/139/139 140/140/140 141/141/141
f 142/142/142 143/143/143 144/144/144
f 145/145/145 146/146/146 147/147/147
f 148/148/148 149/149/149 150/150/150
f 151/151/151 152/152/152 153/153/153
f 154/154/154 155/155/155 156/156/156
f 157/157/157 158/158/158 159/159/159
f 160/160/160 161/161/161 162/162/162
f 163/163/163 164/164/164 165/165/165
f 166/166/166 167/167/167 168/168/168
