g  Instance
v 2.812133 -44.93912 -1.383194
v 2.792787 -45.22587 -1.447756
v 2.662839 -45.44987 -0.7760787
v 2.662839 -45.44987 -0.7760787
v 2.792787 -45.22587 -1.447756
v 2.639091 -45.69448 -0.7856014
v 5.271055 -45.34222 -0.06324552
v 4.899725 -45.02779 -0.5881667
v 4.810379 -45.98287 0.6090743
v 4.810379 -45.98287 0.6090743
v 4.899725 -45.02779 -0.5881667
v 2.741298 -45.83966 -0.2499504
v 2.741298 -45.83966 -0.2499504
v 4.899725 -45.02779 -0.5881667
v 2.662839 -45.44987 -0.7760787
v 2.662839 -45.44987 -0.7760787
v 4.899725 -45.02779 -0.5881667
v 2.812133 -44.93912 -1.383194
v 2.812133 -44.93912 -1.383194
v 4.899725 -45.02779 -0.5881667
v 3.025534 -44.85333 -1.423724
v 3.025534 -44.85333 -1.423724
v 4.899725 -45.02779 -0.5881667
v 4.18455 -44.88729 -1.001937
v 2.708061 -46.48957 -0.1361245
v 4.504618 -46.7324 0.6329408
v 2.741298 -45.83966 -0.2499504
v 2.741298 -45.83966 -0.2499504
v 4.504618 -46.7324 0.6329408
v 4.810379 -45.98287 0.6090743
v 4.810379 -45.98287 0.6090743
v 4.504618 -46.7324 0.6329408
v 4.781238 -46.44363 0.6875324
v 4.18455 -44.88729 -1.001937
v 3.473713 -44.84661 -1.551263
v 3.025534 -44.85333 -1.423724
v 4.612306 -46.86411 -2.372966
v 5.289573 -46.93532 -1.553441
v 3.520202 -46.68478 -2.014295
v 3.520202 -46.68478 -2.014295
v 5.289573 -46.93532 -1.553441
v 2.672301 -46.49052 -0.3021534
v 2.672301 -46.49052 -0.3021534
v 5.289573 -46.93532 -1.553441
v 2.708061 -46.48957 -0.1361245
v 2.708061 -46.48957 -0.1361245
v 5.289573 -46.93532 -1.553441
v 4.504618 -46.7324 0.6329408
v 5.895866 -46.15207 -1.307237
v 5.827193 -46.1862 -1.4134
v 5.59259 -45.41558 -0.5383965
v 5.59259 -45.41558 -0.5383965
v 5.827193 -46.1862 -1.4134
v 4.899725 -45.02779 -0.5881667
v 4.899725 -45.02779 -0.5881667
v 5.827193 -46.1862 -1.4134
v 4.18455 -44.88729 -1.001937
v 4.18455 -44.88729 -1.001937
v 5.827193 -46.1862 -1.4134
v 3.473713 -44.84661 -1.551263
v 3.473713 -44.84661 -1.551263
v 5.827193 -46.1862 -1.4134
v 4.951121 -46.31176 -2.335524
v 4.781238 -46.44363 0.6875324
v 5.286129 -46.26239 -0.004775971
v 4.810379 -45.98287 0.6090743
v 4.810379 -45.98287 0.6090743
v 5.286129 -46.26239 -0.004775971
v 5.271055 -45.34222 -0.06324552
v 5.271055 -45.34222 -0.06324552
v 5.286129 -46.26239 -0.004775971
v 5.532733 -45.41086 -0.4081588
v 3.025534 -44.85333 -1.423724
v 3.473713 -44.84661 -1.551263
v 2.812133 -44.93912 -1.383194
v 2.812133 -44.93912 -1.383194
v 3.473713 -44.84661 -1.551263
v 2.792787 -45.22587 -1.447756
v 2.792787 -45.22587 -1.447756
v 3.473713 -44.84661 -1.551263
v 3.520202 -46.68478 -2.014295
v 3.520202 -46.68478 -2.014295
v 3.473713 -44.84661 -1.551263
v 4.612306 -46.86411 -2.372966
v 4.612306 -46.86411 -2.372966
v 3.473713 -44.84661 -1.551263
v 4.951121 -46.31176 -2.335524
v 2.639091 -45.69448 -0.7856014
v 2.792787 -45.22587 -1.447756
v 2.672301 -46.49052 -0.3021534
v 2.672301 -46.49052 -0.3021534
v 2.792787 -45.22587 -1.447756
v 3.520202 -46.68478 -2.014295
v 5.896996 -46.20995 -1.318534
v 5.895866 -46.15207 -1.307237
v 5.886508 -46.25405 -1.302583
v 5.886508 -46.25405 -1.302583
v 5.895866 -46.15207 -1.307237
v 5.286129 -46.26239 -0.004775971
v 5.286129 -46.26239 -0.004775971
v 5.895866 -46.15207 -1.307237
v 5.532733 -45.41086 -0.4081588
v 5.532733 -45.41086 -0.4081588
v 5.895866 -46.15207 -1.307237
v 5.59259 -45.41558 -0.5383965
v 5.827193 -46.1862 -1.4134
v 5.895866 -46.15207 -1.307237
v 5.896996 -46.20995 -1.318534
v 5.896996 -46.20995 -1.318534
v 5.886508 -46.25405 -1.302583
v 5.827193 -46.1862 -1.4134
v 5.827193 -46.1862 -1.4134
v 5.886508 -46.25405 -1.302583
v 4.951121 -46.31176 -2.335524
v 4.951121 -46.31176 -2.335524
v 5.886508 -46.25405 -1.302583
v 4.612306 -46.86411 -2.372966
v 4.612306 -46.86411 -2.372966
v 5.886508 -46.25405 -1.302583
v 5.289573 -46.93532 -1.553441
v 2.639091 -45.69448 -0.7856014
v 2.672301 -46.49052 -0.3021534
v 2.662839 -45.44987 -0.7760787
v 2.662839 -45.44987 -0.7760787
v 2.672301 -46.49052 -0.3021534
v 2.741298 -45.83966 -0.2499504
v 2.741298 -45.83966 -0.2499504
v 2.672301 -46.49052 -0.3021534
v 2.708061 -46.48957 -0.1361245
v 5.271055 -45.34222 -0.06324552
v 5.532733 -45.41086 -0.4081588
v 4.899725 -45.02779 -0.5881667
v 4.899725 -45.02779 -0.5881667
v 5.532733 -45.41086 -0.4081588
v 5.59259 -45.41558 -0.5383965
v 4.504618 -46.7324 0.6329408
v 5.289573 -46.93532 -1.553441
v 4.781238 -46.44363 0.6875324
v 4.781238 -46.44363 0.6875324
v 5.289573 -46.93532 -1.553441
v 5.286129 -46.26239 -0.004775971
v 5.286129 -46.26239 -0.004775971
v 5.289573 -46.93532 -1.553441
v 5.886508 -46.25405 -1.302583

vn -0.9824934 0.1014656 -0.1562422
vn -0.9824934 0.1014656 -0.1562422
vn -0.9824934 0.1014656 -0.1562422
vn -0.9824934 0.1014656 -0.1562422
vn -0.9824934 0.1014656 -0.1562422
vn -0.9824934 0.1014656 -0.1562422
vn -0.1965758 0.7735766 0.6024427
vn -0.1965758 0.7735766 0.6024427
vn -0.1965758 0.7735766 0.6024427
vn -0.1965758 0.7735766 0.6024427
vn -0.1965758 0.7735766 0.6024427
vn -0.1965758 0.7735766 0.6024427
vn -0.1965758 0.7735766 0.6024427
vn -0.1965758 0.7735766 0.6024427
vn -0.1965758 0.7735766 0.6024427
vn -0.1965758 0.7735766 0.6024427
vn -0.1965758 0.7735766 0.6024427
vn -0.1965758 0.7735766 0.6024427
vn -0.1965758 0.7735766 0.6024427
vn -0.1965758 0.7735766 0.6024427
vn -0.1965758 0.7735766 0.6024427
vn -0.1965758 0.7735766 0.6024427
vn -0.1965758 0.7735766 0.6024427
vn -0.1965758 0.7735766 0.6024427
vn -0.3666965 0.178662 0.9130244
vn -0.3666965 0.178662 0.9130244
vn -0.3666965 0.178662 0.9130244
vn -0.3666965 0.178662 0.9130244
vn -0.3666965 0.178662 0.9130244
vn -0.3666965 0.178662 0.9130244
vn -0.3666965 0.178662 0.9130244
vn -0.3666965 0.178662 0.9130244
vn -0.3666965 0.178662 0.9130244
vn 0.004429394 0.9976655 0.06814666
vn 0.004429394 0.9976655 0.06814666
vn 0.004429394 0.9976655 0.06814666
vn -0.1497739 -0.9879926 0.03792533
vn -0.1497739 -0.9879926 0.03792533
vn -0.1497739 -0.9879926 0.03792533
vn -0.1497739 -0.9879926 0.03792533
vn -0.1497739 -0.9879926 0.03792533
vn -0.1497739 -0.9879926 0.03792533
vn -0.1497739 -0.9879926 0.03792533
vn -0.1497739 -0.9879926 0.03792533
vn -0.1497739 -0.9879926 0.03792533
vn -0.1497739 -0.9879926 0.03792533
vn -0.1497739 -0.9879926 0.03792533
vn -0.1497739 -0.9879926 0.03792533
vn 0.4448745 0.7279019 -0.5217716
vn 0.4448745 0.7279019 -0.5217716
vn 0.4448745 0.7279019 -0.5217716
vn 0.4448745 0.7279019 -0.5217716
vn 0.4448745 0.7279019 -0.5217716
vn 0.4448745 0.7279019 -0.5217716
vn 0.4448745 0.7279019 -0.5217716
vn 0.4448745 0.7279019 -0.5217716
vn 0.4448745 0.7279019 -0.5217716
vn 0.4448745 0.7279019 -0.5217716
vn 0.4448745 0.7279019 -0.5217716
vn 0.4448745 0.7279019 -0.5217716
vn 0.4448745 0.7279019 -0.5217716
vn 0.4448745 0.7279019 -0.5217716
vn 0.4448745 0.7279019 -0.5217716
vn 0.8004947 0.05106719 0.5971602
vn 0.8004947 0.05106719 0.5971602
vn 0.8004947 0.05106719 0.5971602
vn 0.8004947 0.05106719 0.5971602
vn 0.8004947 0.05106719 0.5971602
vn 0.8004947 0.05106719 0.5971602
vn 0.8004947 0.05106719 0.5971602
vn 0.8004947 0.05106719 0.5971602
vn 0.8004947 0.05106719 0.5971602
vn -0.2696377 0.2287951 -0.9353868
vn -0.2696377 0.2287951 -0.9353868
vn -0.2696377 0.2287951 -0.9353868
vn -0.2696377 0.2287951 -0.9353868
vn -0.2696377 0.2287951 -0.9353868
vn -0.2696377 0.2287951 -0.9353868
vn -0.2696377 0.2287951 -0.9353868
vn -0.2696377 0.2287951 -0.9353868
vn -0.2696377 0.2287951 -0.9353868
vn -0.2696377 0.2287951 -0.9353868
vn -0.2696377 0.2287951 -0.9353868
vn -0.2696377 0.2287951 -0.9353868
vn -0.2696377 0.2287951 -0.9353868
vn -0.2696377 0.2287951 -0.9353868
vn -0.2696377 0.2287951 -0.9353868
vn -0.8726352 -0.2795917 -0.4004202
vn -0.8726352 -0.2795917 -0.4004202
vn -0.8726352 -0.2795917 -0.4004202
vn -0.8726352 -0.2795917 -0.4004202
vn -0.8726352 -0.2795917 -0.4004202
vn -0.8726352 -0.2795917 -0.4004202
vn 0.9058839 -0.06401432 0.4186605
vn 0.9058839 -0.06401432 0.4186605
vn 0.9058839 -0.06401432 0.4186605
vn 0.9058839 -0.06401432 0.4186605
vn 0.9058839 -0.06401432 0.4186605
vn 0.9058839 -0.06401432 0.4186605
vn 0.9058839 -0.06401432 0.4186605
vn 0.9058839 -0.06401432 0.4186605
vn 0.9058839 -0.06401432 0.4186605
vn 0.9058839 -0.06401432 0.4186605
vn 0.9058839 -0.06401432 0.4186605
vn 0.9058839 -0.06401432 0.4186605
vn 0.8138502 0.1265842 -0.5671194
vn 0.8138502 0.1265842 -0.5671194
vn 0.8138502 0.1265842 -0.5671194
vn 0.6947351 -0.3849552 -0.6075794
vn 0.6947351 -0.3849552 -0.6075794
vn 0.6947351 -0.3849552 -0.6075794
vn 0.6947351 -0.3849552 -0.6075794
vn 0.6947351 -0.3849552 -0.6075794
vn 0.6947351 -0.3849552 -0.6075794
vn 0.6947351 -0.3849552 -0.6075794
vn 0.6947351 -0.3849552 -0.6075794
vn 0.6947351 -0.3849552 -0.6075794
vn 0.6947351 -0.3849552 -0.6075794
vn 0.6947351 -0.3849552 -0.6075794
vn 0.6947351 -0.3849552 -0.6075794
vn -0.9740247 0.08645248 0.209289
vn -0.9740247 0.08645248 0.209289
vn -0.9740247 0.08645248 0.209289
vn -0.9740247 0.08645248 0.209289
vn -0.9740247 0.08645248 0.209289
vn -0.9740247 0.08645248 0.209289
vn -0.9740247 0.08645248 0.209289
vn -0.9740247 0.08645248 0.209289
vn -0.9740247 0.08645248 0.209289
vn 0.46986 0.8632073 0.1846747
vn 0.46986 0.8632073 0.1846747
vn 0.46986 0.8632073 0.1846747
vn 0.46986 0.8632073 0.1846747
vn 0.46986 0.8632073 0.1846747
vn 0.46986 0.8632073 0.1846747
vn 0.6596695 -0.6887567 0.3007497
vn 0.6596695 -0.6887567 0.3007497
vn 0.6596695 -0.6887567 0.3007497
vn 0.6596695 -0.6887567 0.3007497
vn 0.6596695 -0.6887567 0.3007497
vn 0.6596695 -0.6887567 0.3007497
vn 0.6596695 -0.6887567 0.3007497
vn 0.6596695 -0.6887567 0.3007497
vn 0.6596695 -0.6887567 0.3007497

vt 0.5594948 0.5307541
vt 0.5309088 0.5372607
vt 0.5074043 0.469574
vt 0.5074043 0.469574
vt 0.5309088 0.5372607
vt 0.4829435 0.470535
vt 0.5988064 0.4476306
vt 0.5640138 0.5286352
vt 0.5243741 0.3438808
vt 0.5243741 0.3438808
vt 0.5640138 0.5286352
vt 0.281721 0.4764463
vt 0.281721 0.4764463
vt 0.5640138 0.5286352
vt 0.2841774 0.5576338
vt 0.2841774 0.5576338
vt 0.5640138 0.5286352
vt 0.3174933 0.6513236
vt 0.3174933 0.6513236
vt 0.5640138 0.5286352
vt 0.3455731 0.6575864
vt 0.3455731 0.6575864
vt 0.5640138 0.5286352
vt 0.4829013 0.592492
vt 0.4106159 0.641873
vt 0.3698276 0.4378144
vt 0.4803184 0.6380947
vt 0.4803184 0.6380947
vt 0.3698276 0.4378144
vt 0.4480384 0.4030873
vt 0.4480384 0.4030873
vt 0.3698276 0.4378144
vt 0.3986621 0.4063969
vt 0.4604938 0.5266663
vt 0.390435 0.5809226
vt 0.3462716 0.5683219
vt 0.4614032 0.6590209
vt 0.3944759 0.5783443
vt 0.5702767 0.6237126
vt 0.5702767 0.6237126
vt 0.3944759 0.5783443
vt 0.6556222 0.4551544
vt 0.6556222 0.4551544
vt 0.3944759 0.5783443
vt 0.6521533 0.4388082
vt 0.6521533 0.4388082
vt 0.3944759 0.5783443
vt 0.4738211 0.3630913
vt 0.6495375 0.5233287
vt 0.6448404 0.5376732
vt 0.575452 0.4194758
vt 0.575452 0.4194758
vt 0.6448404 0.5376732
vt 0.484017 0.4262027
vt 0.484017 0.4262027
vt 0.6448404 0.5376732
vt 0.4052531 0.482095
vt 0.4052531 0.482095
vt 0.6448404 0.5376732
vt 0.3329161 0.5563024
vt 0.3329161 0.5563024
vt 0.6448404 0.5376732
vt 0.5662452 0.6622367
vt 0.5691985 0.3735263
vt 0.5509725 0.4793058
vt 0.5130765 0.3855129
vt 0.5130765 0.3855129
vt 0.5509725 0.4793058
vt 0.4383112 0.488236
vt 0.4383112 0.488236
vt 0.5509725 0.4793058
vt 0.4487462 0.5409453
vt 0.4147599 0.5944328
vt 0.4171788 0.5469269
vt 0.4222838 0.6170653
vt 0.4222838 0.6170653
vt 0.4171788 0.5469269
vt 0.4522855 0.6191186
vt 0.4522855 0.6191186
vt 0.4171788 0.5469269
vt 0.610704 0.5419953
vt 0.610704 0.5419953
vt 0.4171788 0.5469269
vt 0.6371806 0.4262121
vt 0.6371806 0.4262121
vt 0.4171788 0.5469269
vt 0.5814992 0.3902944
vt 0.562345 0.4254902
vt 0.6052006 0.5030119
vt 0.4799246 0.3688948
vt 0.4799246 0.3688948
vt 0.6052006 0.5030119
vt 0.4323203 0.5693532
vt 0.521777 0.6169622
vt 0.5155329 0.6156121
vt 0.5266148 0.615059
vt 0.5266148 0.615059
vt 0.5155329 0.6156121
vt 0.5320995 0.4603532
vt 0.5320995 0.4603532
vt 0.5155329 0.6156121
vt 0.4382644 0.5084403
vt 0.4382644 0.5084403
vt 0.5155329 0.6156121
vt 0.438316 0.5239662
vt 0.5584729 0.4745524
vt 0.5557071 0.4591672
vt 0.5625513 0.4608032
vt 0.4476118 0.4438475
vt 0.4530168 0.441363
vt 0.4492244 0.4586281
vt 0.4492244 0.4586281
vt 0.4530168 0.441363
vt 0.5153829 0.6023363
vt 0.5153829 0.6023363
vt 0.4530168 0.441363
vt 0.5955063 0.6081773
vt 0.5955063 0.6081773
vt 0.4530168 0.441363
vt 0.5625888 0.4804637
vt 0.4855452 0.5379545
vt 0.406111 0.4882454
vt 0.5102451 0.5369701
vt 0.5102451 0.5369701
vt 0.406111 0.4882454
vt 0.4719085 0.4828732
vt 0.4719085 0.4828732
vt 0.406111 0.4882454
vt 0.4065282 0.4711772
vt 0.5369279 0.4428209
vt 0.5631981 0.4779276
vt 0.4892626 0.4962427
vt 0.4892626 0.4962427
vt 0.5631981 0.4779276
vt 0.5686828 0.4911799
vt 0.5534007 0.3808298
vt 0.5094295 0.6171497
vt 0.5122139 0.3749279
vt 0.5122139 0.3749279
vt 0.5094295 0.6171497
vt 0.4617079 0.4497541
vt 0.4617079 0.4497541
vt 0.5094295 0.6171497
vt 0.4164147 0.5900263

usemtl Material0
usemap Material0

usemtl Material1
usemap Material1
f 1/1/1 2/2/2 3/3/3
f 4/4/4 5/5/5 6/6/6
f 7/7/7 8/8/8 9/9/9
f 10/10/10 11/11/11 12/12/12
f 13/13/13 14/14/14 15/15/15
f 16/16/16 17/17/17 18/18/18
f 19/19/19 20/20/20 21/21/21
f 22/22/22 23/23/23 24/24/24
f 25/25/25 26/26/26 27/27/27
f 28/28/28 29/29/29 30/30/30
f 31/31/31 32/32/32 33/33/33
f 34/34/34 35/35/35 36/36/36
f 37/37/37 38/38/38 39/39/39
f 40/40/40 41/41/41 42/42/42
f 43/43/43 44/44/44 45/45/45
f 46/46/46 47/47/47 48/48/48
f 49/49/49 50/50/50 51/51/51
f 52/52/52 53/53/53 54/54/54
f 55/55/55 56/56/56 57/57/57
f 58/58/58 59/59/59 60/60/60
f 61/61/61 62/62/62 63/63/63
f 64/64/64 65/65/65 66/66/66
f 67/67/67 68/68/68 69/69/69
f 70/70/70 71/71/71 72/72/72
f 73/73/73 74/74/74 75/75/75
f 76/76/76 77/77/77 78/78/78
f 79/79/79 80/80/80 81/81/81
f 82/82/82 83/83/83 84/84/84
f 85/85/85 86/86/86 87/87/87
f 88/88/88 89/89/89 90/90/90
f 91/91/91 92/92/92 93/93/93
f 94/94/94 95/95/95 96/96/96
f 97/97/97 98/98/98 99/99/99
f 100/100/100 101/101/101 102/102/102
f 103/103/103 104/104/104 105/105/105
f 106/106/106 107/107/107 108/108/108
f 109/109/109 110/110/110 111/111/111
f 112/112/112 113/113/113 114/114/114
f 115/115/115 116/116/116 117/117/117
f 118/118/118 119/119/119 120/120/120
f 121/121/121 122/122/122 123/123/123
f 124/124/124 125/125/125 126/126/126
f 127/127/127 128/128/128 129/129/129
f 130/130/130 131/131/131 132/132/132
f 133/133/133 134/134/134 135/135/135
f 136/136/136 137/137/137 138/138/138
f 139/139/139 140/140/140 141/141/141
f 142/142/142 143/143/143 144/144/144
