g  Instance
v 6.393558 -56.33958 -4.26907
v 6.062087 -56.72526 -4.171096
v 5.897881 -56.22496 -5.133252
v 5.897881 -56.22496 -5.133252
v 6.062087 -56.72526 -4.171096
v 5.832458 -56.77176 -4.42583
v 5.864522 -56.21305 -5.189364
v 5.897881 -56.22496 -5.133252
v 5.177887 -56.8513 -5.077909
v 5.177887 -56.8513 -5.077909
v 5.897881 -56.22496 -5.133252
v 5.832458 -56.77176 -4.42583
v 4.441979 -55.15531 -7.313969
v 4.500221 -55.22279 -7.238769
v 4.472105 -55.25729 -7.236104
v 4.472105 -55.25729 -7.236104
v 4.500221 -55.22279 -7.238769
v 4.533658 -55.25408 -7.191964
v 4.472105 -55.25729 -7.236104
v 4.533658 -55.25408 -7.191964
v 4.716005 -56.32594 -6.143435
v 4.716005 -56.32594 -6.143435
v 4.533658 -55.25408 -7.191964
v 5.204275 -55.80348 -6.215131
v 4.716005 -56.32594 -6.143435
v 5.204275 -55.80348 -6.215131
v 5.817244 -56.18754 -5.264673
v 4.716005 -56.32594 -6.143435
v 5.817244 -56.18754 -5.264673
v 4.796046 -56.86924 -5.418516
v 4.796046 -56.86924 -5.418516
v 5.817244 -56.18754 -5.264673
v 5.177887 -56.8513 -5.077909
v 5.177887 -56.8513 -5.077909
v 5.817244 -56.18754 -5.264673
v 5.864522 -56.21305 -5.189364
v 4.472105 -55.25729 -7.236104
v 4.138518 -55.24133 -7.41191
v 4.441979 -55.15531 -7.313969
v 4.441979 -55.15531 -7.313969
v 4.138518 -55.24133 -7.41191
v 4.31911 -55.00412 -7.468314
v 3.555419 -56.15899 -7.007857
v 3.45817 -56.07303 -7.120276
v 4.472105 -55.25729 -7.236104
v 4.472105 -55.25729 -7.236104
v 3.45817 -56.07303 -7.120276
v 4.138518 -55.24133 -7.41191
v 4.716005 -56.32594 -6.143435
v 3.748754 -56.32594 -6.741218
v 4.472105 -55.25729 -7.236104
v 4.472105 -55.25729 -7.236104
v 3.748754 -56.32594 -6.741218
v 3.555419 -56.15899 -7.007857
v 3.748754 -56.32594 -6.741218
v 4.716005 -56.32594 -6.143435
v 4.2293 -56.73545 -6.018633
v 4.796046 -56.86924 -5.418516
v 4.380394 -56.86039 -5.749659
v 4.716005 -56.32594 -6.143435
v 4.716005 -56.32594 -6.143435
v 4.380394 -56.86039 -5.749659
v 4.2293 -56.73545 -6.018633
v 3.555419 -56.15899 -7.007857
v 3.748754 -56.32594 -6.741218
v 3.45817 -56.07303 -7.120276
v 3.45817 -56.07303 -7.120276
v 3.748754 -56.32594 -6.741218
v 3.28246 -55.84005 -6.472449
v 3.28246 -55.84005 -6.472449
v 3.748754 -56.32594 -6.741218
v 3.694455 -56.1418 -5.312345
v 3.694455 -56.1418 -5.312345
v 3.748754 -56.32594 -6.741218
v 4.380394 -56.86039 -5.749659
v 4.380394 -56.86039 -5.749659
v 3.748754 -56.32594 -6.741218
v 4.2293 -56.73545 -6.018633
v 3.694455 -56.1418 -5.312345
v 4.150217 -55.38853 -3.883113
v 3.28246 -55.84005 -6.472449
v 3.28246 -55.84005 -6.472449
v 4.150217 -55.38853 -3.883113
v 3.720094 -53.96394 -4.945354
v 3.720094 -53.96394 -4.945354
v 4.150217 -55.38853 -3.883113
v 4.146907 -54.77177 -3.809988
v 4.146907 -54.77177 -3.809988
v 4.150217 -55.38853 -3.883113
v 4.167439 -54.9683 -3.77653
v 4.48445 -53.44104 -5.107097
v 4.050151 -53.61327 -5.154364
v 5.033432 -54.45958 -3.669617
v 5.033432 -54.45958 -3.669617
v 4.050151 -53.61327 -5.154364
v 4.146907 -54.77177 -3.809988
v 4.146907 -54.77177 -3.809988
v 4.050151 -53.61327 -5.154364
v 3.720094 -53.96394 -4.945354
v 4.555885 -53.85241 -6.467367
v 4.31911 -55.00412 -7.468314
v 4.050151 -53.61327 -5.154364
v 4.050151 -53.61327 -5.154364
v 4.31911 -55.00412 -7.468314
v 3.720094 -53.96394 -4.945354
v 3.720094 -53.96394 -4.945354
v 4.31911 -55.00412 -7.468314
v 3.28246 -55.84005 -6.472449
v 3.28246 -55.84005 -6.472449
v 4.31911 -55.00412 -7.468314
v 3.45817 -56.07303 -7.120276
v 3.45817 -56.07303 -7.120276
v 4.31911 -55.00412 -7.468314
v 4.138518 -55.24133 -7.41191
v 4.329293 -55.35298 -3.685425
v 4.167439 -54.9683 -3.77653
v 4.150217 -55.38853 -3.883113
v 6.078533 -55.27671 -4.335704
v 4.825838 -53.5457 -5.816785
v 5.072806 -54.50352 -3.654813
v 5.072806 -54.50352 -3.654813
v 4.825838 -53.5457 -5.816785
v 5.033432 -54.45958 -3.669617
v 5.033432 -54.45958 -3.669617
v 4.825838 -53.5457 -5.816785
v 4.48445 -53.44104 -5.107097
v 4.911478 -55.58499 -3.528457
v 6.062087 -56.72526 -4.171096
v 5.205329 -54.88033 -3.571051
v 5.205329 -54.88033 -3.571051
v 6.062087 -56.72526 -4.171096
v 6.334089 -55.96638 -4.197502
v 6.334089 -55.96638 -4.197502
v 6.062087 -56.72526 -4.171096
v 6.393558 -56.33958 -4.26907
v 4.555885 -53.85241 -6.467367
v 4.050151 -53.61327 -5.154364
v 4.825838 -53.5457 -5.816785
v 4.825838 -53.5457 -5.816785
v 4.050151 -53.61327 -5.154364
v 4.48445 -53.44104 -5.107097
v 4.146907 -54.77177 -3.809988
v 4.167439 -54.9683 -3.77653
v 5.033432 -54.45958 -3.669617
v 5.033432 -54.45958 -3.669617
v 4.167439 -54.9683 -3.77653
v 5.072806 -54.50352 -3.654813
v 5.072806 -54.50352 -3.654813
v 4.167439 -54.9683 -3.77653
v 5.205329 -54.88033 -3.571051
v 5.205329 -54.88033 -3.571051
v 4.167439 -54.9683 -3.77653
v 4.911478 -55.58499 -3.528457
v 4.911478 -55.58499 -3.528457
v 4.167439 -54.9683 -3.77653
v 4.329293 -55.35298 -3.685425
v 6.078533 -55.27671 -4.335704
v 5.072806 -54.50352 -3.654813
v 6.334089 -55.96638 -4.197502
v 6.334089 -55.96638 -4.197502
v 5.072806 -54.50352 -3.654813
v 5.205329 -54.88033 -3.571051
v 5.897881 -56.22496 -5.133252
v 5.864522 -56.21305 -5.189364
v 6.393558 -56.33958 -4.26907
v 6.393558 -56.33958 -4.26907
v 5.864522 -56.21305 -5.189364
v 6.334089 -55.96638 -4.197502
v 6.334089 -55.96638 -4.197502
v 5.864522 -56.21305 -5.189364
v 6.078533 -55.27671 -4.335704
v 6.078533 -55.27671 -4.335704
v 5.864522 -56.21305 -5.189364
v 4.825838 -53.5457 -5.816785
v 4.825838 -53.5457 -5.816785
v 5.864522 -56.21305 -5.189364
v 4.555885 -53.85241 -6.467367
v 4.555885 -53.85241 -6.467367
v 5.864522 -56.21305 -5.189364
v 4.31911 -55.00412 -7.468314
v 4.31911 -55.00412 -7.468314
v 5.864522 -56.21305 -5.189364
v 4.441979 -55.15531 -7.313969
v 4.441979 -55.15531 -7.313969
v 5.864522 -56.21305 -5.189364
v 4.500221 -55.22279 -7.238769
v 4.500221 -55.22279 -7.238769
v 5.864522 -56.21305 -5.189364
v 4.533658 -55.25408 -7.191964
v 4.533658 -55.25408 -7.191964
v 5.864522 -56.21305 -5.189364
v 5.204275 -55.80348 -6.215131
v 5.204275 -55.80348 -6.215131
v 5.864522 -56.21305 -5.189364
v 5.817244 -56.18754 -5.264673
v 4.796046 -56.86924 -5.418516
v 5.177887 -56.8513 -5.077909
v 4.380394 -56.86039 -5.749659
v 4.380394 -56.86039 -5.749659
v 5.177887 -56.8513 -5.077909
v 3.694455 -56.1418 -5.312345
v 3.694455 -56.1418 -5.312345
v 5.177887 -56.8513 -5.077909
v 4.150217 -55.38853 -3.883113
v 4.150217 -55.38853 -3.883113
v 5.177887 -56.8513 -5.077909
v 4.329293 -55.35298 -3.685425
v 4.329293 -55.35298 -3.685425
v 5.177887 -56.8513 -5.077909
v 4.911478 -55.58499 -3.528457
v 4.911478 -55.58499 -3.528457
v 5.177887 -56.8513 -5.077909
v 6.062087 -56.72526 -4.171096
v 6.062087 -56.72526 -4.171096
v 5.177887 -56.8513 -5.077909
v 5.832458 -56.77176 -4.42583

vn 0.6215678 -0.6465632 -0.4422778
vn 0.6215678 -0.6465632 -0.4422778
vn 0.6215678 -0.6465632 -0.4422778
vn 0.6215678 -0.6465632 -0.4422778
vn 0.6215678 -0.6465632 -0.4422778
vn 0.6215678 -0.6465632 -0.4422778
vn 0.5563589 -0.6815476 -0.4753501
vn 0.5563589 -0.6815476 -0.4753501
vn 0.5563589 -0.6815476 -0.4753501
vn 0.5563589 -0.6815476 -0.4753501
vn 0.5563589 -0.6815476 -0.4753501
vn 0.5563589 -0.6815476 -0.4753501
vn 0.4713123 -0.4430533 -0.7626064
vn 0.4713123 -0.4430533 -0.7626064
vn 0.4713123 -0.4430533 -0.7626064
vn 0.5266624 -0.4832802 -0.6993333
vn 0.5266624 -0.4832802 -0.6993333
vn 0.5266624 -0.4832802 -0.6993333
vn 0.5019997 -0.5596403 -0.6593931
vn 0.5019997 -0.5596403 -0.6593931
vn 0.5019997 -0.5596403 -0.6593931
vn 0.5019997 -0.5596403 -0.6593931
vn 0.5019997 -0.5596403 -0.6593931
vn 0.5019997 -0.5596403 -0.6593931
vn 0.5467538 -0.5922049 -0.5919069
vn 0.5467538 -0.5922049 -0.5919069
vn 0.5467538 -0.5922049 -0.5919069
vn 0.5198716 -0.6550373 -0.5483245
vn 0.5198716 -0.6550373 -0.5483245
vn 0.5198716 -0.6550373 -0.5483245
vn 0.5198716 -0.6550373 -0.5483245
vn 0.5198716 -0.6550373 -0.5483245
vn 0.5198716 -0.6550373 -0.5483245
vn 0.5198716 -0.6550373 -0.5483245
vn 0.5198716 -0.6550373 -0.5483245
vn 0.5198716 -0.6550373 -0.5483245
vn 0.3899636 -0.4832801 -0.7838167
vn 0.3899636 -0.4832801 -0.7838167
vn 0.3899636 -0.4832801 -0.7838167
vn 0.3899636 -0.4832801 -0.7838167
vn 0.3899636 -0.4832801 -0.7838167
vn 0.3899636 -0.4832801 -0.7838167
vn 0.3652708 -0.5596411 -0.7438946
vn 0.3652708 -0.5596411 -0.7438946
vn 0.3652708 -0.5596411 -0.7438946
vn 0.3652708 -0.5596411 -0.7438946
vn 0.3652708 -0.5596411 -0.7438946
vn 0.3652708 -0.5596411 -0.7438946
vn 0.4206234 -0.59989 -0.6805938
vn 0.4206234 -0.59989 -0.6805938
vn 0.4206234 -0.59989 -0.6805938
vn 0.4206234 -0.59989 -0.6805938
vn 0.4206234 -0.59989 -0.6805938
vn 0.4206234 -0.59989 -0.6805938
vn 0.3938719 -0.6623465 -0.6373085
vn 0.3938719 -0.6623465 -0.6373085
vn 0.3938719 -0.6623465 -0.6373085
vn 0.4388505 -0.6951116 -0.5694121
vn 0.4388505 -0.6951116 -0.5694121
vn 0.4388505 -0.6951116 -0.5694121
vn 0.4388505 -0.6951116 -0.5694121
vn 0.4388505 -0.6951116 -0.5694121
vn 0.4388505 -0.6951116 -0.5694121
vn -0.7018578 -0.7093685 0.06474607
vn -0.7018578 -0.7093685 0.06474607
vn -0.7018578 -0.7093685 0.06474607
vn -0.7018578 -0.7093685 0.06474607
vn -0.7018578 -0.7093685 0.06474607
vn -0.7018578 -0.7093685 0.06474607
vn -0.7018578 -0.7093685 0.06474607
vn -0.7018578 -0.7093685 0.06474607
vn -0.7018578 -0.7093685 0.06474607
vn -0.7018578 -0.7093685 0.06474607
vn -0.7018578 -0.7093685 0.06474607
vn -0.7018578 -0.7093685 0.06474607
vn -0.7018578 -0.7093685 0.06474607
vn -0.7018578 -0.7093685 0.06474607
vn -0.7018578 -0.7093685 0.06474607
vn -0.9449626 -0.04351837 0.3242713
vn -0.9449626 -0.04351837 0.3242713
vn -0.9449626 -0.04351837 0.3242713
vn -0.9449626 -0.04351837 0.3242713
vn -0.9449626 -0.04351837 0.3242713
vn -0.9449626 -0.04351837 0.3242713
vn -0.9449626 -0.04351837 0.3242713
vn -0.9449626 -0.04351837 0.3242713
vn -0.9449626 -0.04351837 0.3242713
vn -0.9449626 -0.04351837 0.3242713
vn -0.9449626 -0.04351837 0.3242713
vn -0.9449626 -0.04351837 0.3242713
vn -0.3452327 0.698529 0.6267948
vn -0.3452327 0.698529 0.6267948
vn -0.3452327 0.698529 0.6267948
vn -0.3452327 0.698529 0.6267948
vn -0.3452327 0.698529 0.6267948
vn -0.3452327 0.698529 0.6267948
vn -0.3452327 0.698529 0.6267948
vn -0.3452327 0.698529 0.6267948
vn -0.3452327 0.698529 0.6267948
vn -0.7751684 0.4976238 -0.3892104
vn -0.7751684 0.4976238 -0.3892104
vn -0.7751684 0.4976238 -0.3892104
vn -0.7751684 0.4976238 -0.3892104
vn -0.7751684 0.4976238 -0.3892104
vn -0.7751684 0.4976238 -0.3892104
vn -0.7751684 0.4976238 -0.3892104
vn -0.7751684 0.4976238 -0.3892104
vn -0.7751684 0.4976238 -0.3892104
vn -0.7751684 0.4976238 -0.3892104
vn -0.7751684 0.4976238 -0.3892104
vn -0.7751684 0.4976238 -0.3892104
vn -0.7751684 0.4976238 -0.3892104
vn -0.7751684 0.4976238 -0.3892104
vn -0.7751684 0.4976238 -0.3892104
vn -0.7206795 -0.1425491 0.6784548
vn -0.7206795 -0.1425491 0.6784548
vn -0.7206795 -0.1425491 0.6784548
vn 0.6857284 0.6912563 0.2279064
vn 0.6857284 0.6912563 0.2279064
vn 0.6857284 0.6912563 0.2279064
vn 0.6857284 0.6912563 0.2279064
vn 0.6857284 0.6912563 0.2279064
vn 0.6857284 0.6912563 0.2279064
vn 0.6857284 0.6912563 0.2279064
vn 0.6857284 0.6912563 0.2279064
vn 0.6857284 0.6912563 0.2279064
vn 0.3983814 -0.1111196 0.9104639
vn 0.3983814 -0.1111196 0.9104639
vn 0.3983814 -0.1111196 0.9104639
vn 0.3983814 -0.1111196 0.9104639
vn 0.3983814 -0.1111196 0.9104639
vn 0.3983814 -0.1111196 0.9104639
vn 0.3983814 -0.1111196 0.9104639
vn 0.3983814 -0.1111196 0.9104639
vn 0.3983814 -0.1111196 0.9104639
vn -0.3254877 0.9001946 -0.2893224
vn -0.3254877 0.9001946 -0.2893224
vn -0.3254877 0.9001946 -0.2893224
vn -0.3254877 0.9001946 -0.2893224
vn -0.3254877 0.9001946 -0.2893224
vn -0.3254877 0.9001946 -0.2893224
vn -0.2038832 0.1435593 0.9684124
vn -0.2038832 0.1435593 0.9684124
vn -0.2038832 0.1435593 0.9684124
vn -0.2038832 0.1435593 0.9684124
vn -0.2038832 0.1435593 0.9684124
vn -0.2038832 0.1435593 0.9684124
vn -0.2038832 0.1435593 0.9684124
vn -0.2038832 0.1435593 0.9684124
vn -0.2038832 0.1435593 0.9684124
vn -0.2038832 0.1435593 0.9684124
vn -0.2038832 0.1435593 0.9684124
vn -0.2038832 0.1435593 0.9684124
vn -0.2038832 0.1435593 0.9684124
vn -0.2038832 0.1435593 0.9684124
vn -0.2038832 0.1435593 0.9684124
vn 0.7009557 0.3806114 0.6031551
vn 0.7009557 0.3806114 0.6031551
vn 0.7009557 0.3806114 0.6031551
vn 0.7009557 0.3806114 0.6031551
vn 0.7009557 0.3806114 0.6031551
vn 0.7009557 0.3806114 0.6031551
vn 0.857721 0.2252947 -0.4621225
vn 0.857721 0.2252947 -0.4621225
vn 0.857721 0.2252947 -0.4621225
vn 0.857721 0.2252947 -0.4621225
vn 0.857721 0.2252947 -0.4621225
vn 0.857721 0.2252947 -0.4621225
vn 0.857721 0.2252947 -0.4621225
vn 0.857721 0.2252947 -0.4621225
vn 0.857721 0.2252947 -0.4621225
vn 0.857721 0.2252947 -0.4621225
vn 0.857721 0.2252947 -0.4621225
vn 0.857721 0.2252947 -0.4621225
vn 0.857721 0.2252947 -0.4621225
vn 0.857721 0.2252947 -0.4621225
vn 0.857721 0.2252947 -0.4621225
vn 0.857721 0.2252947 -0.4621225
vn 0.857721 0.2252947 -0.4621225
vn 0.857721 0.2252947 -0.4621225
vn 0.857721 0.2252947 -0.4621225
vn 0.857721 0.2252947 -0.4621225
vn 0.857721 0.2252947 -0.4621225
vn 0.857721 0.2252947 -0.4621225
vn 0.857721 0.2252947 -0.4621225
vn 0.857721 0.2252947 -0.4621225
vn 0.857721 0.2252947 -0.4621225
vn 0.857721 0.2252947 -0.4621225
vn 0.857721 0.2252947 -0.4621225
vn 0.857721 0.2252947 -0.4621225
vn 0.857721 0.2252947 -0.4621225
vn 0.857721 0.2252947 -0.4621225
vn 0.857721 0.2252947 -0.4621225
vn 0.857721 0.2252947 -0.4621225
vn 0.857721 0.2252947 -0.4621225
vn -0.4334058 -0.7328783 0.5244511
vn -0.4334058 -0.7328783 0.5244511
vn -0.4334058 -0.7328783 0.5244511
vn -0.4334058 -0.7328783 0.5244511
vn -0.4334058 -0.7328783 0.5244511
vn -0.4334058 -0.7328783 0.5244511
vn -0.4334058 -0.7328783 0.5244511
vn -0.4334058 -0.7328783 0.5244511
vn -0.4334058 -0.7328783 0.5244511
vn -0.4334058 -0.7328783 0.5244511
vn -0.4334058 -0.7328783 0.5244511
vn -0.4334058 -0.7328783 0.5244511
vn -0.4334058 -0.7328783 0.5244511
vn -0.4334058 -0.7328783 0.5244511
vn -0.4334058 -0.7328783 0.5244511
vn -0.4334058 -0.7328783 0.5244511
vn -0.4334058 -0.7328783 0.5244511
vn -0.4334058 -0.7328783 0.5244511
vn -0.4334058 -0.7328783 0.5244511
vn -0.4334058 -0.7328783 0.5244511
vn -0.4334058 -0.7328783 0.5244511

vt 0.0710417 0.173482
vt 0.06361983 0.1745886
vt 0.06759257 0.1584815
vt 0.06759257 0.1584815
vt 0.06361983 0.1745886
vt 0.06091993 0.1700389
vt 0.06734576 0.157461
vt 0.06759257 0.1584815
vt 0.05267832 0.157461
vt 0.05267832 0.157461
vt 0.06759257 0.1584815
vt 0.06091993 0.1700389
vt 0.06910056 0.1165043
vt 0.06880336 0.1180958
vt 0.06818175 0.1180958
vt 0.06818175 0.1180958
vt 0.06880336 0.1180958
vt 0.06871723 0.1190233
vt 0.06818175 0.1180958
vt 0.06871723 0.1190233
vt 0.05681812 0.1377784
vt 0.05681812 0.1377784
vt 0.06871723 0.1190233
vt 0.0672642 0.1377784
vt 0.05681812 0.1377784
vt 0.0672642 0.1377784
vt 0.06735493 0.1560289
vt 0.05681812 0.1377784
vt 0.06735493 0.1560289
vt 0.04946578 0.1505132
vt 0.04946578 0.1505132
vt 0.06735493 0.1560289
vt 0.05267832 0.157461
vt 0.05267832 0.157461
vt 0.06735493 0.1560289
vt 0.06734576 0.157461
vt 0.06818175 0.1180958
vt 0.06551588 0.1134783
vt 0.06910056 0.1165043
vt 0.06910056 0.1165043
vt 0.06551588 0.1134783
vt 0.06979456 0.1131061
vt 0.04900507 0.1180957
vt 0.04924693 0.1156586
vt 0.06818175 0.1180958
vt 0.06818175 0.1180958
vt 0.04924693 0.1156586
vt 0.06551588 0.1134783
vt 0.05681812 0.1377784
vt 0.04855578 0.1234674
vt 0.06818175 0.1180958
vt 0.06818175 0.1180958
vt 0.04855578 0.1234674
vt 0.04900507 0.1180957
vt 0.04855578 0.1234674
vt 0.05681812 0.1377784
vt 0.04669173 0.1377784
vt 0.04946578 0.1505132
vt 0.0461129 0.1430353
vt 0.05681812 0.1377784
vt 0.05681812 0.1377784
vt 0.0461129 0.1430353
vt 0.04669173 0.1377784
vt 0.4926285 0.5804163
vt 0.4675207 0.5540898
vt 0.5053979 0.591517
vt 0.5053979 0.591517
vt 0.4675207 0.5540898
vt 0.5338433 0.527557
vt 0.5338433 0.527557
vt 0.4675207 0.5540898
vt 0.4840826 0.4130254
vt 0.4840826 0.4130254
vt 0.4675207 0.5540898
vt 0.3862536 0.4561998
vt 0.3862536 0.4561998
vt 0.4675207 0.5540898
vt 0.4054922 0.4827513
vt 0.3828034 0.4384706
vt 0.4588249 0.2814538
vt 0.4161006 0.5659218
vt 0.4161006 0.5659218
vt 0.4588249 0.2814538
vt 0.6087727 0.3981558
vt 0.6087727 0.3981558
vt 0.4588249 0.2814538
vt 0.5228739 0.2734236
vt 0.5228739 0.2734236
vt 0.4588249 0.2814538
vt 0.5023696 0.2697484
vt 0.5588948 0.5054401
vt 0.5001476 0.5130906
vt 0.5640513 0.2726736
vt 0.5640513 0.2726736
vt 0.5001476 0.5130906
vt 0.4463274 0.2954046
vt 0.4463274 0.2954046
vt 0.5001476 0.5130906
vt 0.44321 0.4792496
vt 0.5918217 0.4858359
vt 0.4747352 0.6018019
vt 0.5841431 0.3337083
vt 0.5841431 0.3337083
vt 0.4747352 0.6018019
vt 0.5336183 0.3094913
vt 0.5336183 0.3094913
vt 0.4747352 0.6018019
vt 0.3398915 0.4864172
vt 0.3398915 0.4864172
vt 0.4747352 0.6018019
vt 0.3290956 0.5614777
vt 0.3290956 0.5614777
vt 0.4747352 0.6018019
vt 0.4430178 0.5952672
vt 0.4611219 0.2798224
vt 0.5158235 0.2964171
vt 0.4611032 0.3158339
vt 0.6053881 0.3269767
vt 0.392507 0.4805574
vt 0.4783214 0.2563695
vt 0.4783214 0.2563695
vt 0.392507 0.4805574
vt 0.4723726 0.2579024
vt 0.4723726 0.2579024
vt 0.392507 0.4805574
vt 0.3605927 0.4069641
vt 0.4678302 0.5682844
vt 0.3381664 0.433825
vt 0.5422438 0.5339418
vt 0.5422438 0.5339418
vt 0.3381664 0.433825
vt 0.4185617 0.402042
vt 0.4185617 0.402042
vt 0.3381664 0.433825
vt 0.3779281 0.3950947
vt 0.5205395 0.4821607
vt 0.4800418 0.3412885
vt 0.5573197 0.4123597
vt 0.5573197 0.4123597
vt 0.4800418 0.3412885
vt 0.5280024 0.3362163
vt 0.4854562 0.4851796
vt 0.4654441 0.4830795
vt 0.5144078 0.3942509
vt 0.5144078 0.3942509
vt 0.4654441 0.4830795
vt 0.5098232 0.39021
vt 0.5098232 0.39021
vt 0.4654441 0.4830795
vt 0.4711585 0.3766155
vt 0.4711585 0.3766155
vt 0.4654441 0.4830795
vt 0.4005372 0.4067532
vt 0.4005372 0.4067532
vt 0.4654441 0.4830795
vt 0.4258934 0.4664754
vt 0.595225 0.3917758
vt 0.4523277 0.2865587
vt 0.6849489 0.3704276
vt 0.6849489 0.3704276
vt 0.4523277 0.2865587
vt 0.5009258 0.2736252
vt 0.6486281 0.3407259
vt 0.6464061 0.3477388
vt 0.6748608 0.2326963
vt 0.6748608 0.2326963
vt 0.6464061 0.3477388
vt 0.6331772 0.223752
vt 0.6331772 0.223752
vt 0.6464061 0.3477388
vt 0.5520413 0.2410217
vt 0.5520413 0.2410217
vt 0.6464061 0.3477388
vt 0.3311582 0.4261699
vt 0.3311582 0.4261699
vt 0.6464061 0.3477388
vt 0.356444 0.5074934
vt 0.356444 0.5074934
vt 0.6464061 0.3477388
vt 0.4732633 0.6326194
vt 0.4732633 0.6326194
vt 0.6464061 0.3477388
vt 0.4929285 0.6133245
vt 0.4929285 0.6133245
vt 0.6464061 0.3477388
vt 0.5018071 0.6039208
vt 0.5018071 0.6039208
vt 0.6464061 0.3477388
vt 0.5061011 0.5980705
vt 0.5061011 0.5980705
vt 0.6464061 0.3477388
vt 0.5838994 0.4759634
vt 0.5838994 0.4759634
vt 0.6464061 0.3477388
vt 0.6423465 0.3571519
vt 0.3720168 0.5045307
vt 0.3351194 0.4583374
vt 0.4138411 0.5494302
vt 0.4138411 0.5494302
vt 0.3351194 0.4583374
vt 0.5242522 0.4901299
vt 0.5242522 0.4901299
vt 0.3351194 0.4583374
vt 0.5232208 0.296314
vt 0.5232208 0.296314
vt 0.3351194 0.4583374
vt 0.5075168 0.2695093
vt 0.5075168 0.2695093
vt 0.3351194 0.4583374
vt 0.4360189 0.2482222
vt 0.4360189 0.2482222
vt 0.3351194 0.4583374
vt 0.2546491 0.3353678
vt 0.2546491 0.3353678
vt 0.3351194 0.4583374
vt 0.2747409 0.369912

usemtl Material0
usemap Material0
f 1/1/1 2/2/2 3/3/3
f 4/4/4 5/5/5 6/6/6
f 7/7/7 8/8/8 9/9/9
f 10/10/10 11/11/11 12/12/12
f 13/13/13 14/14/14 15/15/15
f 16/16/16 17/17/17 18/18/18
f 19/19/19 20/20/20 21/21/21
f 22/22/22 23/23/23 24/24/24
f 25/25/25 26/26/26 27/27/27
f 28/28/28 29/29/29 30/30/30
f 31/31/31 32/32/32 33/33/33
f 34/34/34 35/35/35 36/36/36
f 37/37/37 38/38/38 39/39/39
f 40/40/40 41/41/41 42/42/42
f 43/43/43 44/44/44 45/45/45
f 46/46/46 47/47/47 48/48/48
f 49/49/49 50/50/50 51/51/51
f 52/52/52 53/53/53 54/54/54
f 55/55/55 56/56/56 57/57/57
f 58/58/58 59/59/59 60/60/60
f 61/61/61 62/62/62 63/63/63

usemtl Material1
usemap Material1
f 64/64/64 65/65/65 66/66/66
f 67/67/67 68/68/68 69/69/69
f 70/70/70 71/71/71 72/72/72
f 73/73/73 74/74/74 75/75/75
f 76/76/76 77/77/77 78/78/78
f 79/79/79 80/80/80 81/81/81
f 82/82/82 83/83/83 84/84/84
f 85/85/85 86/86/86 87/87/87
f 88/88/88 89/89/89 90/90/90
f 91/91/91 92/92/92 93/93/93
f 94/94/94 95/95/95 96/96/96
f 97/97/97 98/98/98 99/99/99
f 100/100/100 101/101/101 102/102/102
f 103/103/103 104/104/104 105/105/105
f 106/106/106 107/107/107 108/108/108
f 109/109/109 110/110/110 111/111/111
f 112/112/112 113/113/113 114/114/114
f 115/115/115 116/116/116 117/117/117
f 118/118/118 119/119/119 120/120/120
f 121/121/121 122/122/122 123/123/123
f 124/124/124 125/125/125 126/126/126
f 127/127/127 128/128/128 129/129/129
f 130/130/130 131/131/131 132/132/132
f 133/133/133 134/134/134 135/135/135
f 136/136/136 137/137/137 138/138/138
f 139/139/139 140/140/140 141/141/141
f 142/142/142 143/143/143 144/144/144
f 145/145/145 146/146/146 147/147/147
f 148/148/148 149/149/149 150/150/150
f 151/151/151 152/152/152 153/153/153
f 154/154/154 155/155/155 156/156/156
f 157/157/157 158/158/158 159/159/159
f 160/160/160 161/161/161 162/162/162
f 163/163/163 164/164/164 165/165/165
f 166/166/166 167/167/167 168/168/168
f 169/169/169 170/170/170 171/171/171
f 172/172/172 173/173/173 174/174/174
f 175/175/175 176/176/176 177/177/177
f 178/178/178 179/179/179 180/180/180
f 181/181/181 182/182/182 183/183/183
f 184/184/184 185/185/185 186/186/186
f 187/187/187 188/188/188 189/189/189
f 190/190/190 191/191/191 192/192/192
f 193/193/193 194/194/194 195/195/195
f 196/196/196 197/197/197 198/198/198
f 199/199/199 200/200/200 201/201/201
f 202/202/202 203/203/203 204/204/204
f 205/205/205 206/206/206 207/207/207
f 208/208/208 209/209/209 210/210/210
f 211/211/211 212/212/212 213/213/213
f 214/214/214 215/215/215 216/216/216
