g  Instance
v -6.044134 -49.55752 3.093965
v -6.75414 -50.45232 2.808603
v -6.724933 -49.09649 3.163813
v -6.724933 -49.09649 3.163813
v -6.75414 -50.45232 2.808603
v -7.643363 -50.03499 2.851704
v -6.557008 -48.78333 3.571572
v -6.857407 -48.67741 4.492358
v -4.981405 -48.87141 4.384456
v -4.981405 -48.87141 4.384456
v -6.857407 -48.67741 4.492358
v -5.061474 -48.84949 4.553628
v -7.811244 -49.60776 4.277966
v -8.0516 -50.30129 3.086689
v -7.965509 -50.62144 3.224996
v -7.965509 -50.62144 3.224996
v -6.785521 -51.48607 3.335746
v -7.811244 -49.60776 4.277966
v -7.811244 -49.60776 4.277966
v -6.785521 -51.48607 3.335746
v -7.463521 -48.94589 5.155491
v -7.463521 -48.94589 5.155491
v -6.785521 -51.48607 3.335746
v -5.861928 -49.44287 5.929421
v -5.861928 -49.44287 5.929421
v -6.785521 -51.48607 3.335746
v -5.579905 -50.91008 4.794031
v -5.579905 -50.91008 4.794031
v -6.785521 -51.48607 3.335746
v -5.670436 -51.38615 4.285602
v -5.670436 -51.38615 4.285602
v -6.785521 -51.48607 3.335746
v -6.450051 -51.50155 3.57953
v -8.0516 -50.30129 3.086689
v -7.752828 -50.10962 2.906731
v -7.965509 -50.62144 3.224996
v -7.965509 -50.62144 3.224996
v -7.752828 -50.10962 2.906731
v -6.785521 -51.48607 3.335746
v -6.785521 -51.48607 3.335746
v -7.752828 -50.10962 2.906731
v -6.71281 -51.51121 3.328315
v -6.71281 -51.51121 3.328315
v -7.752828 -50.10962 2.906731
v -6.756355 -50.49825 2.827244
v -5.427366 -51.12591 4.404183
v -5.670436 -51.38615 4.285602
v -4.992474 -49.58543 4.129548
v -4.992474 -49.58543 4.129548
v -5.670436 -51.38615 4.285602
v -5.020438 -49.27402 3.961315
v -5.020438 -49.27402 3.961315
v -5.670436 -51.38615 4.285602
v -6.044134 -49.55752 3.093965
v -6.044134 -49.55752 3.093965
v -5.670436 -51.38615 4.285602
v -6.75414 -50.45232 2.808603
v -6.75414 -50.45232 2.808603
v -5.670436 -51.38615 4.285602
v -6.756355 -50.49825 2.827244
v -6.756355 -50.49825 2.827244
v -5.670436 -51.38615 4.285602
v -6.71281 -51.51121 3.328315
v -6.71281 -51.51121 3.328315
v -5.670436 -51.38615 4.285602
v -6.450051 -51.50155 3.57953
v -5.579905 -50.91008 4.794031
v -5.670436 -51.38615 4.285602
v -5.427366 -51.12591 4.404183
v -7.463521 -48.94589 5.155491
v -5.861928 -49.44287 5.929421
v -6.857407 -48.67741 4.492358
v -6.857407 -48.67741 4.492358
v -5.861928 -49.44287 5.929421
v -5.061474 -48.84949 4.553628
v -4.951217 -48.99951 4.274173
v -4.992474 -49.58543 4.129548
v -5.020438 -49.27402 3.961315
v -6.71281 -51.51121 3.328315
v -6.450051 -51.50155 3.57953
v -6.785521 -51.48607 3.335746
v -6.557008 -48.78333 3.571572
v -4.981405 -48.87141 4.384456
v -6.724933 -49.09649 3.163813
v -6.724933 -49.09649 3.163813
v -4.981405 -48.87141 4.384456
v -6.044134 -49.55752 3.093965
v -6.044134 -49.55752 3.093965
v -4.981405 -48.87141 4.384456
v -5.020438 -49.27402 3.961315
v -5.020438 -49.27402 3.961315
v -4.981405 -48.87141 4.384456
v -4.951217 -48.99951 4.274173
v -4.951217 -48.99951 4.274173
v -4.981405 -48.87141 4.384456
v -4.992474 -49.58543 4.129548
v -4.992474 -49.58543 4.129548
v -4.981405 -48.87141 4.384456
v -5.427366 -51.12591 4.404183
v -5.427366 -51.12591 4.404183
v -4.981405 -48.87141 4.384456
v -5.579905 -50.91008 4.794031
v -5.579905 -50.91008 4.794031
v -4.981405 -48.87141 4.384456
v -5.861928 -49.44287 5.929421
v -5.861928 -49.44287 5.929421
v -4.981405 -48.87141 4.384456
v -5.061474 -48.84949 4.553628
v -6.724933 -49.09649 3.163813
v -7.643363 -50.03499 2.851704
v -6.557008 -48.78333 3.571572
v -6.557008 -48.78333 3.571572
v -7.643363 -50.03499 2.851704
v -6.857407 -48.67741 4.492358
v -6.857407 -48.67741 4.492358
v -7.643363 -50.03499 2.851704
v -7.463521 -48.94589 5.155491
v -7.463521 -48.94589 5.155491
v -7.643363 -50.03499 2.851704
v -7.811244 -49.60776 4.277966
v -7.811244 -49.60776 4.277966
v -7.643363 -50.03499 2.851704
v -8.0516 -50.30129 3.086689
v -8.0516 -50.30129 3.086689
v -7.643363 -50.03499 2.851704
v -7.752828 -50.10962 2.906731
v -6.75414 -50.45232 2.808603
v -6.756355 -50.49825 2.827244
v -7.643363 -50.03499 2.851704
v -7.643363 -50.03499 2.851704
v -6.756355 -50.49825 2.827244
v -7.752828 -50.10962 2.906731

vn 0.071179 0.2513568 -0.9652737
vn 0.071179 0.2513568 -0.9652737
vn 0.071179 0.2513568 -0.9652737
vn 0.071179 0.2513568 -0.9652737
vn 0.071179 0.2513568 -0.9652737
vn 0.071179 0.2513568 -0.9652737
vn 0.09783774 0.9918044 -0.08217078
vn 0.09783774 0.9918044 -0.08217078
vn 0.09783774 0.9918044 -0.08217078
vn 0.09783774 0.9918044 -0.08217078
vn 0.09783774 0.9918044 -0.08217078
vn 0.09783774 0.9918044 -0.08217078
vn -0.9521399 -0.1382686 0.2726015
vn -0.9521399 -0.1382686 0.2726015
vn -0.9521399 -0.1382686 0.2726015
vn -0.4923236 -0.5899071 0.6400211
vn -0.4923236 -0.5899071 0.6400211
vn -0.4923236 -0.5899071 0.6400211
vn -0.4923236 -0.5899071 0.6400211
vn -0.4923236 -0.5899071 0.6400211
vn -0.4923236 -0.5899071 0.6400211
vn -0.4923236 -0.5899071 0.6400211
vn -0.4923236 -0.5899071 0.6400211
vn -0.4923236 -0.5899071 0.6400211
vn -0.4923236 -0.5899071 0.6400211
vn -0.4923236 -0.5899071 0.6400211
vn -0.4923236 -0.5899071 0.6400211
vn -0.4923236 -0.5899071 0.6400211
vn -0.4923236 -0.5899071 0.6400211
vn -0.4923236 -0.5899071 0.6400211
vn -0.4923236 -0.5899071 0.6400211
vn -0.4923236 -0.5899071 0.6400211
vn -0.4923236 -0.5899071 0.6400211
vn -0.2401557 -0.4386686 -0.8659648
vn -0.2401557 -0.4386686 -0.8659648
vn -0.2401557 -0.4386686 -0.8659648
vn -0.2401557 -0.4386686 -0.8659648
vn -0.2401557 -0.4386686 -0.8659648
vn -0.2401557 -0.4386686 -0.8659648
vn -0.2401557 -0.4386686 -0.8659648
vn -0.2401557 -0.4386686 -0.8659648
vn -0.2401557 -0.4386686 -0.8659648
vn -0.2401557 -0.4386686 -0.8659648
vn -0.2401557 -0.4386686 -0.8659648
vn -0.2401557 -0.4386686 -0.8659648
vn 0.6631876 -0.3087663 -0.6817958
vn 0.6631876 -0.3087663 -0.6817958
vn 0.6631876 -0.3087663 -0.6817958
vn 0.6631876 -0.3087663 -0.6817958
vn 0.6631876 -0.3087663 -0.6817958
vn 0.6631876 -0.3087663 -0.6817958
vn 0.6631876 -0.3087663 -0.6817958
vn 0.6631876 -0.3087663 -0.6817958
vn 0.6631876 -0.3087663 -0.6817958
vn 0.6631876 -0.3087663 -0.6817958
vn 0.6631876 -0.3087663 -0.6817958
vn 0.6631876 -0.3087663 -0.6817958
vn 0.6631876 -0.3087663 -0.6817958
vn 0.6631876 -0.3087663 -0.6817958
vn 0.6631876 -0.3087663 -0.6817958
vn 0.6631876 -0.3087663 -0.6817958
vn 0.6631876 -0.3087663 -0.6817958
vn 0.6631876 -0.3087663 -0.6817958
vn 0.6631876 -0.3087663 -0.6817958
vn 0.6631876 -0.3087663 -0.6817958
vn 0.6631876 -0.3087663 -0.6817958
vn 0.4618118 -0.6870005 0.561035
vn 0.4618118 -0.6870005 0.561035
vn 0.4618118 -0.6870005 0.561035
vn 0.07157999 0.9000657 0.4298352
vn 0.07157999 0.9000657 0.4298352
vn 0.07157999 0.9000657 0.4298352
vn 0.07157999 0.9000657 0.4298352
vn 0.07157999 0.9000657 0.4298352
vn 0.07157999 0.9000657 0.4298352
vn 0.9797147 -0.01975685 -0.1994214
vn 0.9797147 -0.01975685 -0.1994214
vn 0.9797147 -0.01975685 -0.1994214
vn -0.2788815 -0.9031578 0.326391
vn -0.2788815 -0.9031578 0.326391
vn -0.2788815 -0.9031578 0.326391
vn 0.3754391 0.6539201 -0.6568365
vn 0.3754391 0.6539201 -0.6568365
vn 0.3754391 0.6539201 -0.6568365
vn 0.3754391 0.6539201 -0.6568365
vn 0.3754391 0.6539201 -0.6568365
vn 0.3754391 0.6539201 -0.6568365
vn 0.3754391 0.6539201 -0.6568365
vn 0.3754391 0.6539201 -0.6568365
vn 0.3754391 0.6539201 -0.6568365
vn 0.3754391 0.6539201 -0.6568365
vn 0.3754391 0.6539201 -0.6568365
vn 0.3754391 0.6539201 -0.6568365
vn 0.8818873 -0.1706028 0.4395105
vn 0.8818873 -0.1706028 0.4395105
vn 0.8818873 -0.1706028 0.4395105
vn 0.8818873 -0.1706028 0.4395105
vn 0.8818873 -0.1706028 0.4395105
vn 0.8818873 -0.1706028 0.4395105
vn 0.8818873 -0.1706028 0.4395105
vn 0.8818873 -0.1706028 0.4395105
vn 0.8818873 -0.1706028 0.4395105
vn 0.8818873 -0.1706028 0.4395105
vn 0.8818873 -0.1706028 0.4395105
vn 0.8818873 -0.1706028 0.4395105
vn 0.8818873 -0.1706028 0.4395105
vn 0.8818873 -0.1706028 0.4395105
vn 0.8818873 -0.1706028 0.4395105
vn -0.6342345 0.7169262 -0.2894195
vn -0.6342345 0.7169262 -0.2894195
vn -0.6342345 0.7169262 -0.2894195
vn -0.6342345 0.7169262 -0.2894195
vn -0.6342345 0.7169262 -0.2894195
vn -0.6342345 0.7169262 -0.2894195
vn -0.6342345 0.7169262 -0.2894195
vn -0.6342345 0.7169262 -0.2894195
vn -0.6342345 0.7169262 -0.2894195
vn -0.6342345 0.7169262 -0.2894195
vn -0.6342345 0.7169262 -0.2894195
vn -0.6342345 0.7169262 -0.2894195
vn -0.6342345 0.7169262 -0.2894195
vn -0.6342345 0.7169262 -0.2894195
vn -0.6342345 0.7169262 -0.2894195
vn -0.6342345 0.7169262 -0.2894195
vn -0.6342345 0.7169262 -0.2894195
vn -0.6342345 0.7169262 -0.2894195
vn -0.2123918 -0.358714 -0.9089632
vn -0.2123918 -0.358714 -0.9089632
vn -0.2123918 -0.358714 -0.9089632
vn -0.2123918 -0.358714 -0.9089632
vn -0.2123918 -0.358714 -0.9089632
vn -0.2123918 -0.358714 -0.9089632

vt 0.5163017 0.419293
vt 0.6087351 0.4894454
vt 0.4705912 0.4865578
vt 0.4705912 0.4865578
vt 0.6087351 0.4894454
vt 0.5678578 0.5773131
vt 0.501629 0.5647967
vt 0.4711163 0.4736524
vt 0.6571504 0.4843358
vt 0.6571504 0.4843358
vt 0.4711163 0.4736524
vt 0.6490781 0.4675864
vt 0.5093732 0.531251
vt 0.442774 0.6577646
vt 0.4091392 0.6430824
vt 0.5283118 0.7303406
vt 0.3415135 0.7118989
vt 0.5962657 0.5549992
vt 0.5962657 0.5549992
vt 0.3415135 0.7118989
vt 0.6163669 0.4088674
vt 0.6163669 0.4088674
vt 0.3415135 0.7118989
vt 0.4182945 0.2799959
vt 0.4182945 0.2799959
vt 0.3415135 0.7118989
vt 0.2703062 0.4690677
vt 0.2703062 0.4690677
vt 0.3415135 0.7118989
vt 0.2401686 0.5537335
vt 0.2401686 0.5537335
vt 0.3415135 0.7118989
vt 0.3072881 0.6713029
vt 0.6505876 0.4166444
vt 0.6171638 0.4873828
vt 0.6055194 0.3622803
vt 0.6055194 0.3622803
vt 0.6171638 0.4873828
vt 0.3204373 0.318745
vt 0.3204373 0.318745
vt 0.6171638 0.4873828
vt 0.3055255 0.3216655
vt 0.3055255 0.3216655
vt 0.6171638 0.4873828
vt 0.4086611 0.5186222
vt 0.5942218 0.3220545
vt 0.639712 0.3438386
vt 0.3818799 0.372509
vt 0.3818799 0.372509
vt 0.639712 0.3438386
vt 0.3455262 0.4034155
vt 0.3455262 0.4034155
vt 0.639712 0.3438386
vt 0.4381284 0.5627528
vt 0.4381284 0.5627528
vt 0.639712 0.3438386
vt 0.5874246 0.6151902
vt 0.5874246 0.6151902
vt 0.639712 0.3438386
vt 0.5931436 0.6117588
vt 0.5931436 0.6117588
vt 0.639712 0.3438386
vt 0.7140694 0.5197003
vt 0.7140694 0.5197003
vt 0.639712 0.3438386
vt 0.6979903 0.4735492
vt 0.4569826 0.5654717
vt 0.4974475 0.6384134
vt 0.4562514 0.6214062
vt 0.4076814 0.4463742
vt 0.5858026 0.3530454
vt 0.4711585 0.5263382
vt 0.4711585 0.5263382
vt 0.5858026 0.3530454
vt 0.6675761 0.5189503
vt 0.4211587 0.4668973
vt 0.4800137 0.4817013
vt 0.4488353 0.4989241
vt 0.4278294 0.6557769
vt 0.4020138 0.6281378
vt 0.4358267 0.6549613
vt 0.456917 0.4989616
vt 0.6407807 0.3584082
vt 0.4582624 0.5694657
vt 0.4582624 0.5694657
vt 0.6407807 0.3584082
vt 0.565167 0.5815414
vt 0.565167 0.5815414
vt 0.6407807 0.3584082
vt 0.6625133 0.4315656
vt 0.6625133 0.4315656
vt 0.6407807 0.3584082
vt 0.6525096 0.3774734
vt 0.3825362 0.5824414
vt 0.3693963 0.5690063
vt 0.4463555 0.6000675
vt 0.4463555 0.6000675
vt 0.3693963 0.5690063
vt 0.6209328 0.5666062
vt 0.6209328 0.5666062
vt 0.3693963 0.5690063
vt 0.6009066 0.5191003
vt 0.6009066 0.5191003
vt 0.3693963 0.5690063
vt 0.4491119 0.3807595
vt 0.4491119 0.3807595
vt 0.3693963 0.5690063
vt 0.3687166 0.5483989
vt 0.5302712 0.6004612
vt 0.3957557 0.6339507
vt 0.5645013 0.556715
vt 0.5645013 0.556715
vt 0.3957557 0.6339507
vt 0.5486098 0.4579155
vt 0.5486098 0.4579155
vt 0.3957557 0.6339507
vt 0.4837029 0.3867645
vt 0.4837029 0.3867645
vt 0.3957557 0.6339507
vt 0.4119144 0.4809137
vt 0.4119144 0.4809137
vt 0.3957557 0.6339507
vt 0.3462294 0.6087399
vt 0.3462294 0.6087399
vt 0.3957557 0.6339507
vt 0.3822549 0.6280441
vt 0.5024728 0.4393097
vt 0.5074512 0.4395348
vt 0.4650175 0.5308666
vt 0.4650175 0.5308666
vt 0.5074512 0.4395348
vt 0.4740321 0.542136

usemtl Material0
usemap Material0

usemtl Material1
usemap Material1
f 1/1/1 2/2/2 3/3/3
f 4/4/4 5/5/5 6/6/6
f 7/7/7 8/8/8 9/9/9
f 10/10/10 11/11/11 12/12/12
f 13/13/13 14/14/14 15/15/15
f 16/16/16 17/17/17 18/18/18
f 19/19/19 20/20/20 21/21/21
f 22/22/22 23/23/23 24/24/24
f 25/25/25 26/26/26 27/27/27
f 28/28/28 29/29/29 30/30/30
f 31/31/31 32/32/32 33/33/33
f 34/34/34 35/35/35 36/36/36
f 37/37/37 38/38/38 39/39/39
f 40/40/40 41/41/41 42/42/42
f 43/43/43 44/44/44 45/45/45
f 46/46/46 47/47/47 48/48/48
f 49/49/49 50/50/50 51/51/51
f 52/52/52 53/53/53 54/54/54
f 55/55/55 56/56/56 57/57/57
f 58/58/58 59/59/59 60/60/60
f 61/61/61 62/62/62 63/63/63
f 64/64/64 65/65/65 66/66/66
f 67/67/67 68/68/68 69/69/69
f 70/70/70 71/71/71 72/72/72
f 73/73/73 74/74/74 75/75/75
f 76/76/76 77/77/77 78/78/78
f 79/79/79 80/80/80 81/81/81
f 82/82/82 83/83/83 84/84/84
f 85/85/85 86/86/86 87/87/87
f 88/88/88 89/89/89 90/90/90
f 91/91/91 92/92/92 93/93/93
f 94/94/94 95/95/95 96/96/96
f 97/97/97 98/98/98 99/99/99
f 100/100/100 101/101/101 102/102/102
f 103/103/103 104/104/104 105/105/105
f 106/106/106 107/107/107 108/108/108
f 109/109/109 110/110/110 111/111/111
f 112/112/112 113/113/113 114/114/114
f 115/115/115 116/116/116 117/117/117
f 118/118/118 119/119/119 120/120/120
f 121/121/121 122/122/122 123/123/123
f 124/124/124 125/125/125 126/126/126
f 127/127/127 128/128/128 129/129/129
f 130/130/130 131/131/131 132/132/132
