g  Instance
v 0.009990683 -51.69659 7.122669
v 0.1472107 -53.61683 6.548011
v 0.1783166 -51.39835 7.406288
v 0.1783166 -51.39835 7.406288
v 0.1472107 -53.61683 6.548011
v 1.667108 -51.1157 9.037523
v 1.667108 -51.1157 9.037523
v 0.1472107 -53.61683 6.548011
v 1.912493 -51.11787 9.288221
v 1.912493 -51.11787 9.288221
v 0.1472107 -53.61683 6.548011
v 2.190846 -51.99518 9.246718
v 2.190846 -51.99518 9.246718
v 0.1472107 -53.61683 6.548011
v 1.591045 -54.15518 7.827339
v 1.591045 -54.15518 7.827339
v 0.1472107 -53.61683 6.548011
v 0.3671829 -53.81446 6.699853
v 0.02212637 -51.65505 7.098126
v 0.4361249 -53.01464 5.915674
v 0.009990683 -51.69659 7.122669
v 0.009990683 -51.69659 7.122669
v 0.4361249 -53.01464 5.915674
v 0.1472107 -53.61683 6.548011
v 0.2018802 -51.26534 7.241003
v 0.1783166 -51.39835 7.406288
v 0.5945371 -50.89482 7.23124
v 0.5945371 -50.89482 7.23124
v 0.1783166 -51.39835 7.406288
v 1.130992 -50.4129 7.253994
v 1.130992 -50.4129 7.253994
v 0.1783166 -51.39835 7.406288
v 1.741359 -50.3968 8.071111
v 1.741359 -50.3968 8.071111
v 0.1783166 -51.39835 7.406288
v 1.998405 -50.65426 8.808042
v 1.998405 -50.65426 8.808042
v 0.1783166 -51.39835 7.406288
v 1.902209 -51.05397 9.269716
v 1.902209 -51.05397 9.269716
v 0.1783166 -51.39835 7.406288
v 1.667108 -51.1157 9.037523
v 2.357724 -50.59089 7.993402
v 2.825845 -50.91195 7.188954
v 1.741359 -50.3968 8.071111
v 1.741359 -50.3968 8.071111
v 2.825845 -50.91195 7.188954
v 1.130992 -50.4129 7.253994
v 1.130992 -50.4129 7.253994
v 2.825845 -50.91195 7.188954
v 1.139507 -50.43177 7.183406
v 1.139507 -50.43177 7.183406
v 2.825845 -50.91195 7.188954
v 2.064839 -50.91258 6.253613
v 0.4361249 -53.01464 5.915674
v 1.275338 -52.76828 5.529433
v 0.1472107 -53.61683 6.548011
v 0.1472107 -53.61683 6.548011
v 1.275338 -52.76828 5.529433
v 0.3671829 -53.81446 6.699853
v 0.009990683 -51.69659 7.122669
v 0.1783166 -51.39835 7.406288
v 0.02212637 -51.65505 7.098126
v 0.02212637 -51.65505 7.098126
v 0.1783166 -51.39835 7.406288
v 0.2018802 -51.26534 7.241003
v 1.139507 -50.43177 7.183406
v 2.064839 -50.91258 6.253613
v 0.5945371 -50.89482 7.23124
v 0.5945371 -50.89482 7.23124
v 2.064839 -50.91258 6.253613
v 0.2018802 -51.26534 7.241003
v 0.2018802 -51.26534 7.241003
v 2.064839 -50.91258 6.253613
v 0.02212637 -51.65505 7.098126
v 0.02212637 -51.65505 7.098126
v 2.064839 -50.91258 6.253613
v 0.4361249 -53.01464 5.915674
v 0.4361249 -53.01464 5.915674
v 2.064839 -50.91258 6.253613
v 1.275338 -52.76828 5.529433
v 1.275338 -52.76828 5.529433
v 2.064839 -50.91258 6.253613
v 1.568221 -52.61647 5.438717
v 1.912493 -51.11787 9.288221
v 2.190846 -51.99518 9.246718
v 1.902209 -51.05397 9.269716
v 1.902209 -51.05397 9.269716
v 2.190846 -51.99518 9.246718
v 1.998405 -50.65426 8.808042
v 1.998405 -50.65426 8.808042
v 2.190846 -51.99518 9.246718
v 2.357724 -50.59089 7.993402
v 2.357724 -50.59089 7.993402
v 2.190846 -51.99518 9.246718
v 2.825845 -50.91195 7.188954
v 2.825845 -50.91195 7.188954
v 2.190846 -51.99518 9.246718
v 3.042977 -51.88324 7.33919
v 3.042977 -51.88324 7.33919
v 2.190846 -51.99518 9.246718
v 2.755165 -52.30621 8.228592
v 2.825845 -50.91195 7.188954
v 3.042977 -51.88324 7.33919
v 2.064839 -50.91258 6.253613
v 2.064839 -50.91258 6.253613
v 3.042977 -51.88324 7.33919
v 1.568221 -52.61647 5.438717
v 1.568221 -52.61647 5.438717
v 3.042977 -51.88324 7.33919
v 2.629859 -53.08692 6.686965
v 1.568221 -52.61647 5.438717
v 2.629859 -53.08692 6.686965
v 1.275338 -52.76828 5.529433
v 1.275338 -52.76828 5.529433
v 2.629859 -53.08692 6.686965
v 0.3671829 -53.81446 6.699853
v 0.3671829 -53.81446 6.699853
v 2.629859 -53.08692 6.686965
v 1.591045 -54.15518 7.827339
v 1.591045 -54.15518 7.827339
v 2.629859 -53.08692 6.686965
v 2.291816 -53.67644 7.431806
v 1.741359 -50.3968 8.071111
v 1.998405 -50.65426 8.808042
v 2.357724 -50.59089 7.993402
v 1.902209 -51.05397 9.269716
v 1.667108 -51.1157 9.037523
v 1.912493 -51.11787 9.288221
v 0.5945371 -50.89482 7.23124
v 1.130992 -50.4129 7.253994
v 1.139507 -50.43177 7.183406
v 1.591045 -54.15518 7.827339
v 2.291816 -53.67644 7.431806
v 2.190846 -51.99518 9.246718
v 2.190846 -51.99518 9.246718
v 2.291816 -53.67644 7.431806
v 2.755165 -52.30621 8.228592
v 3.042977 -51.88324 7.33919
v 2.755165 -52.30621 8.228592
v 2.629859 -53.08692 6.686965
v 2.629859 -53.08692 6.686965
v 2.755165 -52.30621 8.228592
v 2.291816 -53.67644 7.431806

vn -0.6927122 -0.2517562 0.6758466
vn -0.6927122 -0.2517562 0.6758466
vn -0.6927122 -0.2517562 0.6758466
vn -0.6927122 -0.2517562 0.6758466
vn -0.6927122 -0.2517562 0.6758466
vn -0.6927122 -0.2517562 0.6758466
vn -0.6927122 -0.2517562 0.6758466
vn -0.6927122 -0.2517562 0.6758466
vn -0.6927122 -0.2517562 0.6758466
vn -0.6927122 -0.2517562 0.6758466
vn -0.6927122 -0.2517562 0.6758466
vn -0.6927122 -0.2517562 0.6758466
vn -0.6927122 -0.2517562 0.6758466
vn -0.6927122 -0.2517562 0.6758466
vn -0.6927122 -0.2517562 0.6758466
vn -0.6927122 -0.2517562 0.6758466
vn -0.6927122 -0.2517562 0.6758466
vn -0.6927122 -0.2517562 0.6758466
vn -0.924709 0.04697172 -0.3777657
vn -0.924709 0.04697172 -0.3777657
vn -0.924709 0.04697172 -0.3777657
vn -0.924709 0.04697172 -0.3777657
vn -0.924709 0.04697172 -0.3777657
vn -0.924709 0.04697172 -0.3777657
vn -0.6096345 0.6577254 0.4424289
vn -0.6096345 0.6577254 0.4424289
vn -0.6096345 0.6577254 0.4424289
vn -0.6096345 0.6577254 0.4424289
vn -0.6096345 0.6577254 0.4424289
vn -0.6096345 0.6577254 0.4424289
vn -0.6096345 0.6577254 0.4424289
vn -0.6096345 0.6577254 0.4424289
vn -0.6096345 0.6577254 0.4424289
vn -0.6096345 0.6577254 0.4424289
vn -0.6096345 0.6577254 0.4424289
vn -0.6096345 0.6577254 0.4424289
vn -0.6096345 0.6577254 0.4424289
vn -0.6096345 0.6577254 0.4424289
vn -0.6096345 0.6577254 0.4424289
vn -0.6096345 0.6577254 0.4424289
vn -0.6096345 0.6577254 0.4424289
vn -0.6096345 0.6577254 0.4424289
vn 0.2679038 0.9383191 -0.2185975
vn 0.2679038 0.9383191 -0.2185975
vn 0.2679038 0.9383191 -0.2185975
vn 0.2679038 0.9383191 -0.2185975
vn 0.2679038 0.9383191 -0.2185975
vn 0.2679038 0.9383191 -0.2185975
vn 0.2679038 0.9383191 -0.2185975
vn 0.2679038 0.9383191 -0.2185975
vn 0.2679038 0.9383191 -0.2185975
vn 0.2679038 0.9383191 -0.2185975
vn 0.2679038 0.9383191 -0.2185975
vn 0.2679038 0.9383191 -0.2185975
vn -0.1262634 -0.6889198 -0.7137557
vn -0.1262634 -0.6889198 -0.7137557
vn -0.1262634 -0.6889198 -0.7137557
vn -0.1262634 -0.6889198 -0.7137557
vn -0.1262634 -0.6889198 -0.7137557
vn -0.1262634 -0.6889198 -0.7137557
vn -0.9173164 0.3637342 0.1619512
vn -0.9173164 0.3637342 0.1619512
vn -0.9173164 0.3637342 0.1619512
vn -0.9173164 0.3637342 0.1619512
vn -0.9173164 0.3637342 0.1619512
vn -0.9173164 0.3637342 0.1619512
vn -0.4790523 0.4884357 -0.7293418
vn -0.4790523 0.4884357 -0.7293418
vn -0.4790523 0.4884357 -0.7293418
vn -0.4790523 0.4884357 -0.7293418
vn -0.4790523 0.4884357 -0.7293418
vn -0.4790523 0.4884357 -0.7293418
vn -0.4790523 0.4884357 -0.7293418
vn -0.4790523 0.4884357 -0.7293418
vn -0.4790523 0.4884357 -0.7293418
vn -0.4790523 0.4884357 -0.7293418
vn -0.4790523 0.4884357 -0.7293418
vn -0.4790523 0.4884357 -0.7293418
vn -0.4790523 0.4884357 -0.7293418
vn -0.4790523 0.4884357 -0.7293418
vn -0.4790523 0.4884357 -0.7293418
vn -0.4790523 0.4884357 -0.7293418
vn -0.4790523 0.4884357 -0.7293418
vn -0.4790523 0.4884357 -0.7293418
vn 0.8761949 0.2587648 0.4065996
vn 0.8761949 0.2587648 0.4065996
vn 0.8761949 0.2587648 0.4065996
vn 0.8761949 0.2587648 0.4065996
vn 0.8761949 0.2587648 0.4065996
vn 0.8761949 0.2587648 0.4065996
vn 0.8761949 0.2587648 0.4065996
vn 0.8761949 0.2587648 0.4065996
vn 0.8761949 0.2587648 0.4065996
vn 0.8761949 0.2587648 0.4065996
vn 0.8761949 0.2587648 0.4065996
vn 0.8761949 0.2587648 0.4065996
vn 0.8761949 0.2587648 0.4065996
vn 0.8761949 0.2587648 0.4065996
vn 0.8761949 0.2587648 0.4065996
vn 0.8761949 0.2587648 0.4065996
vn 0.8761949 0.2587648 0.4065996
vn 0.8761949 0.2587648 0.4065996
vn 0.7734467 0.07555898 -0.6293418
vn 0.7734467 0.07555898 -0.6293418
vn 0.7734467 0.07555898 -0.6293418
vn 0.7734467 0.07555898 -0.6293418
vn 0.7734467 0.07555898 -0.6293418
vn 0.7734467 0.07555898 -0.6293418
vn 0.7734467 0.07555898 -0.6293418
vn 0.7734467 0.07555898 -0.6293418
vn 0.7734467 0.07555898 -0.6293418
vn 0.2578155 -0.8111269 -0.5249804
vn 0.2578155 -0.8111269 -0.5249804
vn 0.2578155 -0.8111269 -0.5249804
vn 0.2578155 -0.8111269 -0.5249804
vn 0.2578155 -0.8111269 -0.5249804
vn 0.2578155 -0.8111269 -0.5249804
vn 0.2578155 -0.8111269 -0.5249804
vn 0.2578155 -0.8111269 -0.5249804
vn 0.2578155 -0.8111269 -0.5249804
vn 0.2578155 -0.8111269 -0.5249804
vn 0.2578155 -0.8111269 -0.5249804
vn 0.2578155 -0.8111269 -0.5249804
vn 0.3177434 0.9241658 0.2120297
vn 0.3177434 0.9241658 0.2120297
vn 0.3177434 0.9241658 0.2120297
vn -0.7115247 0.08738894 0.6972058
vn -0.7115247 0.08738894 0.6972058
vn -0.7115247 0.08738894 0.6972058
vn -0.6371069 0.7219691 -0.2699176
vn -0.6371069 0.7219691 -0.2699176
vn -0.6371069 0.7219691 -0.2699176
vn 0.6616162 -0.5313742 0.5290609
vn 0.6616162 -0.5313742 0.5290609
vn 0.6616162 -0.5313742 0.5290609
vn 0.6616162 -0.5313742 0.5290609
vn 0.6616162 -0.5313742 0.5290609
vn 0.6616162 -0.5313742 0.5290609
vn 0.9181412 -0.3785624 0.1170782
vn 0.9181412 -0.3785624 0.1170782
vn 0.9181412 -0.3785624 0.1170782
vn 0.9181412 -0.3785624 0.1170782
vn 0.9181412 -0.3785624 0.1170782
vn 0.9181412 -0.3785624 0.1170782

vt 0.6443247 0.596336
vt 0.3973495 0.7003295
vt 0.6740452 0.5450049
vt 0.6740452 0.5450049
vt 0.3973495 0.7003295
vt 0.6416527 0.2497926
vt 0.6416527 0.2497926
vt 0.3973495 0.7003295
vt 0.6301958 0.2044243
vt 0.6301958 0.2044243
vt 0.3973495 0.7003295
vt 0.5075356 0.2119341
vt 0.5075356 0.2119341
vt 0.3973495 0.7003295
vt 0.2640809 0.4688052
vt 0.2640809 0.4688052
vt 0.3973495 0.7003295
vt 0.3625522 0.6728498
vt 0.5530163 0.4130161
vt 0.4110753 0.5486145
vt 0.5485442 0.4102034
vt 0.5485442 0.4102034
vt 0.4110753 0.5486145
vt 0.3456621 0.4761041
vt 0.4531715 0.5511553
vt 0.441363 0.530951
vt 0.5123452 0.552346
vt 0.5123452 0.552346
vt 0.441363 0.530951
vt 0.5913904 0.5495708
vt 0.5913904 0.5495708
vt 0.441363 0.530951
vt 0.6416621 0.4496885
vt 0.6416621 0.4496885
vt 0.441363 0.530951
vt 0.6431434 0.3596083
vt 0.6431434 0.3596083
vt 0.441363 0.530951
vt 0.6056225 0.3031722
vt 0.6056225 0.3031722
vt 0.441363 0.530951
vt 0.5821274 0.3315566
vt 0.5104139 0.3503359
vt 0.564642 0.4333891
vt 0.4453335 0.3423151
vt 0.4453335 0.3423151
vt 0.564642 0.4333891
vt 0.386652 0.4266762
vt 0.386652 0.4266762
vt 0.564642 0.4333891
vt 0.3879974 0.433961
vt 0.3879974 0.433961
vt 0.564642 0.4333891
vt 0.4909409 0.5299572
vt 0.6399932 0.506734
vt 0.530365 0.5841385
vt 0.6646415 0.3800048
vt 0.6646415 0.3800048
vt 0.530365 0.5841385
vt 0.6292676 0.3495764
vt 0.4886767 0.5054777
vt 0.5224802 0.4768494
vt 0.492966 0.5079528
vt 0.492966 0.5079528
vt 0.5224802 0.4768494
vt 0.5356622 0.4935332
vt 0.6289957 0.2915465
vt 0.6755453 0.4868391
vt 0.5264929 0.281496
vt 0.5264929 0.281496
vt 0.6755453 0.4868391
vt 0.4489338 0.2794427
vt 0.4489338 0.2794427
vt 0.6755453 0.4868391
vt 0.3912835 0.3094585
vt 0.3912835 0.3094585
vt 0.6755453 0.4868391
vt 0.2969609 0.5578119
vt 0.2969609 0.5578119
vt 0.6755453 0.4868391
vt 0.4078408 0.6389385
vt 0.4078408 0.6389385
vt 0.6755453 0.4868391
vt 0.4531621 0.6579896
vt 0.3725137 0.2903746
vt 0.4715382 0.2952639
vt 0.3656086 0.2925544
vt 0.3656086 0.2925544
vt 0.4715382 0.2952639
vt 0.3272861 0.3469325
vt 0.3272861 0.3469325
vt 0.4715382 0.2952639
vt 0.3316973 0.4428818
vt 0.3316973 0.4428818
vt 0.4715382 0.2952639
vt 0.3790953 0.5376357
vt 0.3790953 0.5376357
vt 0.4715382 0.2952639
vt 0.4859484 0.5199347
vt 0.4859484 0.5199347
vt 0.4715382 0.2952639
vt 0.5208301 0.4151818
vt 0.3254297 0.3662977
vt 0.4503869 0.3418416
vt 0.3161526 0.5185659
vt 0.3161526 0.5185659
vt 0.4503869 0.3418416
vt 0.5245709 0.6512111
vt 0.5245709 0.6512111
vt 0.4503869 0.3418416
vt 0.5968564 0.4480103
vt 0.5086138 0.6277722
vt 0.4082064 0.4583655
vt 0.5461722 0.6154621
vt 0.5461722 0.6154621
vt 0.4082064 0.4583655
vt 0.6827363 0.4566123
vt 0.6827363 0.4566123
vt 0.4082064 0.4583655
vt 0.5599355 0.3035988
vt 0.5599355 0.3035988
vt 0.4082064 0.4583655
vt 0.4660441 0.3572784
vt 0.4353954 0.4235823
vt 0.4682708 0.3477248
vt 0.500382 0.4315796
vt 0.6682417 0.256857
vt 0.6559035 0.3012784
vt 0.65971 0.2533177
vt 0.506373 0.4175163
vt 0.5799991 0.4151021
vt 0.5793803 0.4225885
vt 0.658613 0.4750446
vt 0.5645388 0.5290384
vt 0.4200008 0.2812616
vt 0.4200008 0.2812616
vt 0.5645388 0.5290384
vt 0.4071563 0.420254
vt 0.3960838 0.4687912
vt 0.4456523 0.380136
vt 0.5218239 0.5338011
vt 0.5218239 0.5338011
vt 0.4456523 0.380136
vt 0.5885309 0.4595609

usemtl Material0
usemap Material0

usemtl Material1
usemap Material1
f 1/1/1 2/2/2 3/3/3
f 4/4/4 5/5/5 6/6/6
f 7/7/7 8/8/8 9/9/9
f 10/10/10 11/11/11 12/12/12
f 13/13/13 14/14/14 15/15/15
f 16/16/16 17/17/17 18/18/18
f 19/19/19 20/20/20 21/21/21
f 22/22/22 23/23/23 24/24/24
f 25/25/25 26/26/26 27/27/27
f 28/28/28 29/29/29 30/30/30
f 31/31/31 32/32/32 33/33/33
f 34/34/34 35/35/35 36/36/36
f 37/37/37 38/38/38 39/39/39
f 40/40/40 41/41/41 42/42/42
f 43/43/43 44/44/44 45/45/45
f 46/46/46 47/47/47 48/48/48
f 49/49/49 50/50/50 51/51/51
f 52/52/52 53/53/53 54/54/54
f 55/55/55 56/56/56 57/57/57
f 58/58/58 59/59/59 60/60/60
f 61/61/61 62/62/62 63/63/63
f 64/64/64 65/65/65 66/66/66
f 67/67/67 68/68/68 69/69/69
f 70/70/70 71/71/71 72/72/72
f 73/73/73 74/74/74 75/75/75
f 76/76/76 77/77/77 78/78/78
f 79/79/79 80/80/80 81/81/81
f 82/82/82 83/83/83 84/84/84
f 85/85/85 86/86/86 87/87/87
f 88/88/88 89/89/89 90/90/90
f 91/91/91 92/92/92 93/93/93
f 94/94/94 95/95/95 96/96/96
f 97/97/97 98/98/98 99/99/99
f 100/100/100 101/101/101 102/102/102
f 103/103/103 104/104/104 105/105/105
f 106/106/106 107/107/107 108/108/108
f 109/109/109 110/110/110 111/111/111
f 112/112/112 113/113/113 114/114/114
f 115/115/115 116/116/116 117/117/117
f 118/118/118 119/119/119 120/120/120
f 121/121/121 122/122/122 123/123/123
f 124/124/124 125/125/125 126/126/126
f 127/127/127 128/128/128 129/129/129
f 130/130/130 131/131/131 132/132/132
f 133/133/133 134/134/134 135/135/135
f 136/136/136 137/137/137 138/138/138
f 139/139/139 140/140/140 141/141/141
f 142/142/142 143/143/143 144/144/144
