g  Instance
v -4.012866 -48.67657 0.7465106
v -3.906898 -48.74916 0.3643604
v -4.407677 -48.84703 0.8750784
v -4.407677 -48.84703 0.8750784
v -3.906898 -48.74916 0.3643604
v -4.818317 -49.32271 0.1321511
v -4.407677 -48.84703 0.8750784
v -4.818317 -49.32271 0.1321511
v -4.352995 -48.86268 1.079939
v -4.352995 -48.86268 1.079939
v -4.818317 -49.32271 0.1321511
v -5.142015 -50.16886 0.178322
v -5.142015 -50.16886 0.178322
v -4.818317 -49.32271 0.1321511
v -5.152609 -50.05748 -0.006650034
v -5.152609 -50.05748 -0.006650034
v -4.818317 -49.32271 0.1321511
v -4.855111 -49.39323 0.1029999
v -1.902021 -50.78987 1.655468
v -1.904159 -50.74005 1.688859
v -1.933834 -50.813 1.688423
v -3.834522 -48.76796 1.643248
v -3.617906 -49.05356 1.866185
v -3.801379 -48.7393 1.551044
v -3.801379 -48.7393 1.551044
v -3.617906 -49.05356 1.866185
v -2.53484 -49.39219 1.079266
v -2.53484 -49.39219 1.079266
v -3.617906 -49.05356 1.866185
v -1.976686 -50.25583 1.876708
v -1.976686 -50.25583 1.876708
v -3.617906 -49.05356 1.866185
v -2.34589 -50.14928 2.160464
v -2.34589 -50.14928 2.160464
v -3.617906 -49.05356 1.866185
v -2.819423 -49.80005 2.153341
v -5.044387 -50.37143 -0.07672536
v -3.647132 -51.12264 -0.3279532
v -5.024459 -50.4582 -0.02071552
v -5.024459 -50.4582 -0.02071552
v -3.647132 -51.12264 -0.3279532
v -3.240213 -51.93887 0.06697083
v -5.024459 -50.4582 -0.02071552
v -3.240213 -51.93887 0.06697083
v -5.087977 -50.36176 0.229306
v -5.087977 -50.36176 0.229306
v -3.240213 -51.93887 0.06697083
v -4.11014 -51.00343 1.260318
v -4.11014 -51.00343 1.260318
v -3.240213 -51.93887 0.06697083
v -3.383049 -51.58951 1.396238
v -3.383049 -51.58951 1.396238
v -3.240213 -51.93887 0.06697083
v -3.043647 -51.94784 0.9690648
v -3.043647 -51.94784 0.9690648
v -3.240213 -51.93887 0.06697083
v -3.042372 -52.08809 0.1632932
v -2.930539 -49.24465 0.1497996
v -2.826375 -49.99838 -0.1656609
v -3.906898 -48.74916 0.3643604
v -3.906898 -48.74916 0.3643604
v -2.826375 -49.99838 -0.1656609
v -4.818317 -49.32271 0.1321511
v -4.818317 -49.32271 0.1321511
v -2.826375 -49.99838 -0.1656609
v -4.855111 -49.39323 0.1029999
v -2.679803 -50.67779 -0.3108938
v -2.826375 -49.99838 -0.1656609
v -2.313204 -51.44412 0.05688492
v -2.313204 -51.44412 0.05688492
v -2.826375 -49.99838 -0.1656609
v -1.902021 -50.78987 1.655468
v -1.902021 -50.78987 1.655468
v -2.826375 -49.99838 -0.1656609
v -1.904159 -50.74005 1.688859
v -1.904159 -50.74005 1.688859
v -2.826375 -49.99838 -0.1656609
v -1.976686 -50.25583 1.876708
v -1.976686 -50.25583 1.876708
v -2.826375 -49.99838 -0.1656609
v -2.53484 -49.39219 1.079266
v -2.53484 -49.39219 1.079266
v -2.826375 -49.99838 -0.1656609
v -2.930539 -49.24465 0.1497996
v -3.042372 -52.08809 0.1632932
v -2.313204 -51.44412 0.05688492
v -3.043647 -51.94784 0.9690648
v -3.043647 -51.94784 0.9690648
v -2.313204 -51.44412 0.05688492
v -2.238078 -51.06548 1.825243
v -2.238078 -51.06548 1.825243
v -2.313204 -51.44412 0.05688492
v -1.933834 -50.813 1.688423
v -1.933834 -50.813 1.688423
v -2.313204 -51.44412 0.05688492
v -1.902021 -50.78987 1.655468
v -2.930539 -49.24465 0.1497996
v -3.906898 -48.74916 0.3643604
v -2.53484 -49.39219 1.079266
v -2.53484 -49.39219 1.079266
v -3.906898 -48.74916 0.3643604
v -3.801379 -48.7393 1.551044
v -3.801379 -48.7393 1.551044
v -3.906898 -48.74916 0.3643604
v -4.012866 -48.67657 0.7465106
v -5.024459 -50.4582 -0.02071552
v -5.087977 -50.36176 0.229306
v -5.044387 -50.37143 -0.07672536
v -5.044387 -50.37143 -0.07672536
v -5.087977 -50.36176 0.229306
v -5.152609 -50.05748 -0.006650034
v -5.152609 -50.05748 -0.006650034
v -5.087977 -50.36176 0.229306
v -5.142015 -50.16886 0.178322
v -4.407677 -48.84703 0.8750784
v -4.352995 -48.86268 1.079939
v -4.012866 -48.67657 0.7465106
v -4.012866 -48.67657 0.7465106
v -4.352995 -48.86268 1.079939
v -3.801379 -48.7393 1.551044
v -3.801379 -48.7393 1.551044
v -4.352995 -48.86268 1.079939
v -3.834522 -48.76796 1.643248
v -1.904159 -50.74005 1.688859
v -1.976686 -50.25583 1.876708
v -1.933834 -50.813 1.688423
v -1.933834 -50.813 1.688423
v -1.976686 -50.25583 1.876708
v -2.238078 -51.06548 1.825243
v -2.238078 -51.06548 1.825243
v -1.976686 -50.25583 1.876708
v -2.570862 -50.82779 2.121405
v -2.570862 -50.82779 2.121405
v -1.976686 -50.25583 1.876708
v -2.616055 -50.37479 2.28158
v -2.616055 -50.37479 2.28158
v -1.976686 -50.25583 1.876708
v -2.34589 -50.14928 2.160464
v -2.34589 -50.14928 2.160464
v -2.819423 -49.80005 2.153341
v -2.616055 -50.37479 2.28158
v -2.616055 -50.37479 2.28158
v -2.819423 -49.80005 2.153341
v -2.731363 -50.25684 2.270147
v -2.616055 -50.37479 2.28158
v -2.731363 -50.25684 2.270147
v -2.570862 -50.82779 2.121405
v -2.570862 -50.82779 2.121405
v -2.731363 -50.25684 2.270147
v -3.383049 -51.58951 1.396238
v -3.383049 -51.58951 1.396238
v -2.731363 -50.25684 2.270147
v -4.11014 -51.00343 1.260318
v -4.11014 -51.00343 1.260318
v -2.731363 -50.25684 2.270147
v -3.382617 -49.87961 2.088616
v -2.826375 -49.99838 -0.1656609
v -2.679803 -50.67779 -0.3108938
v -4.855111 -49.39323 0.1029999
v -4.855111 -49.39323 0.1029999
v -2.679803 -50.67779 -0.3108938
v -5.152609 -50.05748 -0.006650034
v -5.152609 -50.05748 -0.006650034
v -2.679803 -50.67779 -0.3108938
v -5.044387 -50.37143 -0.07672536
v -5.044387 -50.37143 -0.07672536
v -2.679803 -50.67779 -0.3108938
v -3.647132 -51.12264 -0.3279532
v -3.383049 -51.58951 1.396238
v -3.043647 -51.94784 0.9690648
v -2.570862 -50.82779 2.121405
v -2.570862 -50.82779 2.121405
v -3.043647 -51.94784 0.9690648
v -2.238078 -51.06548 1.825243
v -4.11014 -51.00343 1.260318
v -3.382617 -49.87961 2.088616
v -5.087977 -50.36176 0.229306
v -5.087977 -50.36176 0.229306
v -3.382617 -49.87961 2.088616
v -5.142015 -50.16886 0.178322
v -5.142015 -50.16886 0.178322
v -3.382617 -49.87961 2.088616
v -4.352995 -48.86268 1.079939
v -4.352995 -48.86268 1.079939
v -3.382617 -49.87961 2.088616
v -3.834522 -48.76796 1.643248
v -3.834522 -48.76796 1.643248
v -3.382617 -49.87961 2.088616
v -3.617906 -49.05356 1.866185
v -2.313204 -51.44412 0.05688492
v -3.042372 -52.08809 0.1632932
v -2.679803 -50.67779 -0.3108938
v -2.679803 -50.67779 -0.3108938
v -3.042372 -52.08809 0.1632932
v -3.647132 -51.12264 -0.3279532
v -3.647132 -51.12264 -0.3279532
v -3.042372 -52.08809 0.1632932
v -3.240213 -51.93887 0.06697083
v -3.382617 -49.87961 2.088616
v -2.731363 -50.25684 2.270147
v -3.617906 -49.05356 1.866185
v -3.617906 -49.05356 1.866185
v -2.731363 -50.25684 2.270147
v -2.819423 -49.80005 2.153341

vn -0.456887 0.8420793 -0.2866297
vn -0.456887 0.8420793 -0.2866297
vn -0.456887 0.8420793 -0.2866297
vn -0.456887 0.8420793 -0.2866297
vn -0.456887 0.8420793 -0.2866297
vn -0.456887 0.8420793 -0.2866297
vn -0.8953325 0.3570414 0.266273
vn -0.8953325 0.3570414 0.266273
vn -0.8953325 0.3570414 0.266273
vn -0.8953325 0.3570414 0.266273
vn -0.8953325 0.3570414 0.266273
vn -0.8953325 0.3570414 0.266273
vn -0.8953325 0.3570414 0.266273
vn -0.8953325 0.3570414 0.266273
vn -0.8953325 0.3570414 0.266273
vn -0.8953325 0.3570414 0.266273
vn -0.8953325 0.3570414 0.266273
vn -0.8953325 0.3570414 0.266273
vn 0.7839429 -0.3220608 0.530764
vn 0.7839429 -0.3220608 0.530764
vn 0.7839429 -0.3220608 0.530764
vn 0.5345187 0.7333528 0.4200996
vn 0.5345187 0.7333528 0.4200996
vn 0.5345187 0.7333528 0.4200996
vn 0.5345187 0.7333528 0.4200996
vn 0.5345187 0.7333528 0.4200996
vn 0.5345187 0.7333528 0.4200996
vn 0.5345187 0.7333528 0.4200996
vn 0.5345187 0.7333528 0.4200996
vn 0.5345187 0.7333528 0.4200996
vn 0.5345187 0.7333528 0.4200996
vn 0.5345187 0.7333528 0.4200996
vn 0.5345187 0.7333528 0.4200996
vn 0.5345187 0.7333528 0.4200996
vn 0.5345187 0.7333528 0.4200996
vn 0.5345187 0.7333528 0.4200996
vn -0.4276639 -0.5574856 -0.7115571
vn -0.4276639 -0.5574856 -0.7115571
vn -0.4276639 -0.5574856 -0.7115571
vn -0.4276639 -0.5574856 -0.7115571
vn -0.4276639 -0.5574856 -0.7115571
vn -0.4276639 -0.5574856 -0.7115571
vn -0.6368913 -0.7597017 0.1312356
vn -0.6368913 -0.7597017 0.1312356
vn -0.6368913 -0.7597017 0.1312356
vn -0.6368913 -0.7597017 0.1312356
vn -0.6368913 -0.7597017 0.1312356
vn -0.6368913 -0.7597017 0.1312356
vn -0.6368913 -0.7597017 0.1312356
vn -0.6368913 -0.7597017 0.1312356
vn -0.6368913 -0.7597017 0.1312356
vn -0.6368913 -0.7597017 0.1312356
vn -0.6368913 -0.7597017 0.1312356
vn -0.6368913 -0.7597017 0.1312356
vn -0.6368913 -0.7597017 0.1312356
vn -0.6368913 -0.7597017 0.1312356
vn -0.6368913 -0.7597017 0.1312356
vn -0.007288253 0.3852224 -0.9227951
vn -0.007288253 0.3852224 -0.9227951
vn -0.007288253 0.3852224 -0.9227951
vn -0.007288253 0.3852224 -0.9227951
vn -0.007288253 0.3852224 -0.9227951
vn -0.007288253 0.3852224 -0.9227951
vn -0.007288253 0.3852224 -0.9227951
vn -0.007288253 0.3852224 -0.9227951
vn -0.007288253 0.3852224 -0.9227951
vn 0.9011655 0.2673401 -0.3412184
vn 0.9011655 0.2673401 -0.3412184
vn 0.9011655 0.2673401 -0.3412184
vn 0.9011655 0.2673401 -0.3412184
vn 0.9011655 0.2673401 -0.3412184
vn 0.9011655 0.2673401 -0.3412184
vn 0.9011655 0.2673401 -0.3412184
vn 0.9011655 0.2673401 -0.3412184
vn 0.9011655 0.2673401 -0.3412184
vn 0.9011655 0.2673401 -0.3412184
vn 0.9011655 0.2673401 -0.3412184
vn 0.9011655 0.2673401 -0.3412184
vn 0.9011655 0.2673401 -0.3412184
vn 0.9011655 0.2673401 -0.3412184
vn 0.9011655 0.2673401 -0.3412184
vn 0.9011655 0.2673401 -0.3412184
vn 0.9011655 0.2673401 -0.3412184
vn 0.9011655 0.2673401 -0.3412184
vn 0.666943 -0.7338924 0.1287984
vn 0.666943 -0.7338924 0.1287984
vn 0.666943 -0.7338924 0.1287984
vn 0.666943 -0.7338924 0.1287984
vn 0.666943 -0.7338924 0.1287984
vn 0.666943 -0.7338924 0.1287984
vn 0.666943 -0.7338924 0.1287984
vn 0.666943 -0.7338924 0.1287984
vn 0.666943 -0.7338924 0.1287984
vn 0.666943 -0.7338924 0.1287984
vn 0.666943 -0.7338924 0.1287984
vn 0.666943 -0.7338924 0.1287984
vn 0.443832 0.8948815 -0.04690905
vn 0.443832 0.8948815 -0.04690905
vn 0.443832 0.8948815 -0.04690905
vn 0.443832 0.8948815 -0.04690905
vn 0.443832 0.8948815 -0.04690905
vn 0.443832 0.8948815 -0.04690905
vn 0.443832 0.8948815 -0.04690905
vn 0.443832 0.8948815 -0.04690905
vn 0.443832 0.8948815 -0.04690905
vn -0.9462385 -0.2981856 -0.1253722
vn -0.9462385 -0.2981856 -0.1253722
vn -0.9462385 -0.2981856 -0.1253722
vn -0.9462385 -0.2981856 -0.1253722
vn -0.9462385 -0.2981856 -0.1253722
vn -0.9462385 -0.2981856 -0.1253722
vn -0.9462385 -0.2981856 -0.1253722
vn -0.9462385 -0.2981856 -0.1253722
vn -0.9462385 -0.2981856 -0.1253722
vn -0.3458399 0.9240396 0.1629284
vn -0.3458399 0.9240396 0.1629284
vn -0.3458399 0.9240396 0.1629284
vn -0.3458399 0.9240396 0.1629284
vn -0.3458399 0.9240396 0.1629284
vn -0.3458399 0.9240396 0.1629284
vn -0.3458399 0.9240396 0.1629284
vn -0.3458399 0.9240396 0.1629284
vn -0.3458399 0.9240396 0.1629284
vn 0.5508349 -0.2288281 0.8026324
vn 0.5508349 -0.2288281 0.8026324
vn 0.5508349 -0.2288281 0.8026324
vn 0.5508349 -0.2288281 0.8026324
vn 0.5508349 -0.2288281 0.8026324
vn 0.5508349 -0.2288281 0.8026324
vn 0.5508349 -0.2288281 0.8026324
vn 0.5508349 -0.2288281 0.8026324
vn 0.5508349 -0.2288281 0.8026324
vn 0.5508349 -0.2288281 0.8026324
vn 0.5508349 -0.2288281 0.8026324
vn 0.5508349 -0.2288281 0.8026324
vn 0.5508349 -0.2288281 0.8026324
vn 0.5508349 -0.2288281 0.8026324
vn 0.5508349 -0.2288281 0.8026324
vn 0.1905043 0.2775071 0.9416463
vn 0.1905043 0.2775071 0.9416463
vn 0.1905043 0.2775071 0.9416463
vn 0.1905043 0.2775071 0.9416463
vn 0.1905043 0.2775071 0.9416463
vn 0.1905043 0.2775071 0.9416463
vn -0.4295819 -0.3388281 0.8370513
vn -0.4295819 -0.3388281 0.8370513
vn -0.4295819 -0.3388281 0.8370513
vn -0.4295819 -0.3388281 0.8370513
vn -0.4295819 -0.3388281 0.8370513
vn -0.4295819 -0.3388281 0.8370513
vn -0.4295819 -0.3388281 0.8370513
vn -0.4295819 -0.3388281 0.8370513
vn -0.4295819 -0.3388281 0.8370513
vn -0.4295819 -0.3388281 0.8370513
vn -0.4295819 -0.3388281 0.8370513
vn -0.4295819 -0.3388281 0.8370513
vn -0.0718054 0.1936576 -0.978438
vn -0.0718054 0.1936576 -0.978438
vn -0.0718054 0.1936576 -0.978438
vn -0.0718054 0.1936576 -0.978438
vn -0.0718054 0.1936576 -0.978438
vn -0.0718054 0.1936576 -0.978438
vn -0.0718054 0.1936576 -0.978438
vn -0.0718054 0.1936576 -0.978438
vn -0.0718054 0.1936576 -0.978438
vn -0.0718054 0.1936576 -0.978438
vn -0.0718054 0.1936576 -0.978438
vn -0.0718054 0.1936576 -0.978438
vn 0.08079883 -0.731102 0.6774669
vn 0.08079883 -0.731102 0.6774669
vn 0.08079883 -0.731102 0.6774669
vn 0.08079883 -0.731102 0.6774669
vn 0.08079883 -0.731102 0.6774669
vn 0.08079883 -0.731102 0.6774669
vn -0.7333512 -0.02595114 0.6793545
vn -0.7333512 -0.02595114 0.6793545
vn -0.7333512 -0.02595114 0.6793545
vn -0.7333512 -0.02595114 0.6793545
vn -0.7333512 -0.02595114 0.6793545
vn -0.7333512 -0.02595114 0.6793545
vn -0.7333512 -0.02595114 0.6793545
vn -0.7333512 -0.02595114 0.6793545
vn -0.7333512 -0.02595114 0.6793545
vn -0.7333512 -0.02595114 0.6793545
vn -0.7333512 -0.02595114 0.6793545
vn -0.7333512 -0.02595114 0.6793545
vn -0.7333512 -0.02595114 0.6793545
vn -0.7333512 -0.02595114 0.6793545
vn -0.7333512 -0.02595114 0.6793545
vn 0.1792785 -0.3546308 -0.9176581
vn 0.1792785 -0.3546308 -0.9176581
vn 0.1792785 -0.3546308 -0.9176581
vn 0.1792785 -0.3546308 -0.9176581
vn 0.1792785 -0.3546308 -0.9176581
vn 0.1792785 -0.3546308 -0.9176581
vn 0.1792785 -0.3546308 -0.9176581
vn 0.1792785 -0.3546308 -0.9176581
vn 0.1792785 -0.3546308 -0.9176581
vn -0.141936 0.2194736 0.9652386
vn -0.141936 0.2194736 0.9652386
vn -0.141936 0.2194736 0.9652386
vn -0.141936 0.2194736 0.9652386
vn -0.141936 0.2194736 0.9652386
vn -0.141936 0.2194736 0.9652386

vt 0.4626595 0.4024451
vt 0.4686646 0.4433787
vt 0.4187117 0.3886724
vt 0.4187117 0.3886724
vt 0.4686646 0.4433787
vt 0.3583941 0.4682474
vt 0.5785928 0.5109717
vt 0.5180174 0.5895856
vt 0.5791741 0.4892955
vt 0.5791741 0.4892955
vt 0.5180174 0.5895856
vt 0.4256214 0.5846916
vt 0.4256214 0.5846916
vt 0.5180174 0.5895856
vt 0.4357752 0.6042677
vt 0.4357752 0.6042677
vt 0.5180174 0.5895856
vt 0.5099451 0.5926702
vt 0.4895627 0.4329719
vt 0.4843124 0.4284013
vt 0.4934441 0.4284622
vt 0.2882323 0.4102596
vt 0.3254203 0.3836472
vt 0.2893058 0.4212665
vt 0.2893058 0.4212665
vt 0.3254203 0.3836472
vt 0.4418505 0.4775807
vt 0.4418505 0.4775807
vt 0.3254203 0.3836472
vt 0.5458253 0.3823861
vt 0.5458253 0.3823861
vt 0.3254203 0.3836472
vt 0.5067012 0.3485123
vt 0.5067012 0.3485123
vt 0.3254203 0.3836472
vt 0.4429615 0.3493655
vt 0.7504465 0.4135364
vt 0.5313588 0.4635643
vt 0.7408459 0.4023842
vt 0.7408459 0.4023842
vt 0.5313588 0.4635643
vt 0.4166678 0.3849222
vt 0.6616039 0.5603808
vt 0.4316734 0.5515959
vt 0.6725732 0.5353669
vt 0.6725732 0.5353669
vt 0.4316734 0.5515959
vt 0.5573853 0.4322265
vt 0.5573853 0.4322265
vt 0.4316734 0.5515959
vt 0.4647878 0.4186273
vt 0.4647878 0.4186273
vt 0.4316734 0.5515959
vt 0.4161662 0.4613563
vt 0.4161662 0.4613563
vt 0.4316734 0.5515959
vt 0.4071329 0.5419579
vt 0.3982074 0.4969928
vt 0.478537 0.4867547
vt 0.3451278 0.592989
vt 0.3451278 0.592989
vt 0.478537 0.4867547
vt 0.4059516 0.682591
vt 0.4059516 0.682591
vt 0.478537 0.4867547
vt 0.413452 0.68621
vt 0.5155423 0.5696439
vt 0.44306 0.5534898
vt 0.603288 0.528729
vt 0.603288 0.528729
vt 0.44306 0.5534898
vt 0.549913 0.3508656
vt 0.549913 0.3508656
vt 0.44306 0.5534898
vt 0.5448502 0.3471482
vt 0.5448502 0.3471482
vt 0.44306 0.5534898
vt 0.4941473 0.3262501
vt 0.4941473 0.3262501
vt 0.44306 0.5534898
vt 0.3909507 0.4149755
vt 0.3909507 0.4149755
vt 0.44306 0.5534898
vt 0.3643851 0.5183877
vt 0.6208015 0.5361919
vt 0.5243741 0.5468238
vt 0.6115478 0.4556372
vt 0.6115478 0.4556372
vt 0.5243741 0.5468238
vt 0.4936223 0.3700432
vt 0.4936223 0.3700432
vt 0.5243741 0.5468238
vt 0.4544606 0.3837222
vt 0.4544606 0.3837222
vt 0.5243741 0.5468238
vt 0.4505838 0.3870177
vt 0.4217587 0.5198691
vt 0.3140056 0.4987273
vt 0.4631002 0.4282935
vt 0.4631002 0.4282935
vt 0.3140056 0.4987273
vt 0.3228796 0.3818142
vt 0.3228796 0.3818142
vt 0.3140056 0.4987273
vt 0.3014893 0.4610751
vt 0.5561478 0.5142531
vt 0.5671546 0.4892767
vt 0.564942 0.5198503
vt 0.564942 0.5198503
vt 0.5671546 0.4892767
vt 0.5978408 0.5128468
vt 0.5978408 0.5128468
vt 0.5671546 0.4892767
vt 0.5869933 0.4943676
vt 0.391171 0.4868484
vt 0.3957275 0.4661613
vt 0.4339704 0.4998336
vt 0.4339704 0.4998336
vt 0.3957275 0.4661613
vt 0.451512 0.4185851
vt 0.451512 0.4185851
vt 0.3957275 0.4661613
vt 0.4474196 0.4092752
vt 0.4813919 0.4918456
vt 0.4122754 0.4399473
vt 0.4943723 0.4919675
vt 0.4943723 0.4919675
vt 0.4122754 0.4399473
vt 0.5520413 0.4541606
vt 0.5520413 0.4541606
vt 0.4122754 0.4399473
vt 0.5368997 0.3723309
vt 0.5368997 0.3723309
vt 0.4122754 0.4399473
vt 0.4708069 0.3280737
vt 0.4708069 0.3280737
vt 0.4122754 0.4399473
vt 0.4194008 0.3615396
vt 0.4739852 0.4702725
vt 0.5077325 0.5185753
vt 0.4488962 0.4978366
vt 0.4488962 0.4978366
vt 0.5077325 0.5185753
vt 0.46055 0.5096029
vt 0.4843874 0.2923856
vt 0.5138547 0.2961406
vt 0.415449 0.3449918
vt 0.415449 0.3449918
vt 0.5138547 0.2961406
vt 0.3983621 0.5831446
vt 0.3983621 0.5831446
vt 0.5138547 0.2961406
vt 0.5619512 0.6277816
vt 0.5619512 0.6277816
vt 0.5138547 0.2961406
vt 0.6395526 0.3557549
vt 0.4615204 0.4814481
vt 0.52999 0.4669629
vt 0.3978745 0.6819347
vt 0.3978745 0.6819347
vt 0.52999 0.4669629
vt 0.4641971 0.711327
vt 0.4641971 0.711327
vt 0.52999 0.4669629
vt 0.4958912 0.7006295
vt 0.4958912 0.7006295
vt 0.52999 0.4669629
vt 0.5733331 0.5625559
vt 0.590481 0.4987929
vt 0.5506537 0.5764223
vt 0.4714022 0.3670337
vt 0.4714022 0.3670337
vt 0.5506537 0.5764223
vt 0.4306796 0.4208493
vt 0.4213368 0.540589
vt 0.5683641 0.3893662
vt 0.5118858 0.7288218
vt 0.5118858 0.7288218
vt 0.5683641 0.3893662
vt 0.5379686 0.7381317
vt 0.5379686 0.7381317
vt 0.5683641 0.3893662
vt 0.7091097 0.573516
vt 0.7091097 0.573516
vt 0.5683641 0.3893662
vt 0.7193291 0.4706756
vt 0.7193291 0.4706756
vt 0.5683641 0.3893662
vt 0.6800643 0.4299764
vt 0.5635544 0.4524918
vt 0.6274206 0.5265539
vt 0.4788792 0.4897267
vt 0.4788792 0.4897267
vt 0.6274206 0.5265539
vt 0.5197331 0.5879824
vt 0.5197331 0.5879824
vt 0.6274206 0.5265539
vt 0.6100383 0.5466456
vt 0.5117264 0.5198503
vt 0.4712006 0.4545122
vt 0.596622 0.5434673
vt 0.596622 0.5434673
vt 0.4712006 0.4545122
vt 0.5179987 0.4633533

usemtl Material0
usemap Material0

usemtl Material1
usemap Material1
f 1/1/1 2/2/2 3/3/3
f 4/4/4 5/5/5 6/6/6
f 7/7/7 8/8/8 9/9/9
f 10/10/10 11/11/11 12/12/12
f 13/13/13 14/14/14 15/15/15
f 16/16/16 17/17/17 18/18/18
f 19/19/19 20/20/20 21/21/21
f 22/22/22 23/23/23 24/24/24
f 25/25/25 26/26/26 27/27/27
f 28/28/28 29/29/29 30/30/30
f 31/31/31 32/32/32 33/33/33
f 34/34/34 35/35/35 36/36/36
f 37/37/37 38/38/38 39/39/39
f 40/40/40 41/41/41 42/42/42
f 43/43/43 44/44/44 45/45/45
f 46/46/46 47/47/47 48/48/48
f 49/49/49 50/50/50 51/51/51
f 52/52/52 53/53/53 54/54/54
f 55/55/55 56/56/56 57/57/57
f 58/58/58 59/59/59 60/60/60
f 61/61/61 62/62/62 63/63/63
f 64/64/64 65/65/65 66/66/66
f 67/67/67 68/68/68 69/69/69
f 70/70/70 71/71/71 72/72/72
f 73/73/73 74/74/74 75/75/75
f 76/76/76 77/77/77 78/78/78
f 79/79/79 80/80/80 81/81/81
f 82/82/82 83/83/83 84/84/84
f 85/85/85 86/86/86 87/87/87
f 88/88/88 89/89/89 90/90/90
f 91/91/91 92/92/92 93/93/93
f 94/94/94 95/95/95 96/96/96
f 97/97/97 98/98/98 99/99/99
f 100/100/100 101/101/101 102/102/102
f 103/103/103 104/104/104 105/105/105
f 106/106/106 107/107/107 108/108/108
f 109/109/109 110/110/110 111/111/111
f 112/112/112 113/113/113 114/114/114
f 115/115/115 116/116/116 117/117/117
f 118/118/118 119/119/119 120/120/120
f 121/121/121 122/122/122 123/123/123
f 124/124/124 125/125/125 126/126/126
f 127/127/127 128/128/128 129/129/129
f 130/130/130 131/131/131 132/132/132
f 133/133/133 134/134/134 135/135/135
f 136/136/136 137/137/137 138/138/138
f 139/139/139 140/140/140 141/141/141
f 142/142/142 143/143/143 144/144/144
f 145/145/145 146/146/146 147/147/147
f 148/148/148 149/149/149 150/150/150
f 151/151/151 152/152/152 153/153/153
f 154/154/154 155/155/155 156/156/156
f 157/157/157 158/158/158 159/159/159
f 160/160/160 161/161/161 162/162/162
f 163/163/163 164/164/164 165/165/165
f 166/166/166 167/167/167 168/168/168
f 169/169/169 170/170/170 171/171/171
f 172/172/172 173/173/173 174/174/174
f 175/175/175 176/176/176 177/177/177
f 178/178/178 179/179/179 180/180/180
f 181/181/181 182/182/182 183/183/183
f 184/184/184 185/185/185 186/186/186
f 187/187/187 188/188/188 189/189/189
f 190/190/190 191/191/191 192/192/192
f 193/193/193 194/194/194 195/195/195
f 196/196/196 197/197/197 198/198/198
f 199/199/199 200/200/200 201/201/201
f 202/202/202 203/203/203 204/204/204
