g  Instance
v 0.4801986 -51.08656 -4.106099
v 1.535908 -51.58068 -3.308052
v 0.5591586 -51.16298 -4.286993
v 0.5591586 -51.16298 -4.286993
v 1.535908 -51.58068 -3.308052
v 2.736224 -52.65164 -5.504752
v 2.736224 -52.65164 -5.504752
v 1.535908 -51.58068 -3.308052
v 2.79035 -52.67273 -5.437973
v 2.79035 -52.67273 -5.437973
v 1.535908 -51.58068 -3.308052
v 1.878993 -51.79531 -3.378175
v 2.321034 -52.99257 -6.012855
v 2.325868 -53.01185 -6.006755
v 2.267903 -52.89027 -6.039878
v 2.267903 -52.89027 -6.039878
v 2.325868 -53.01185 -6.006755
v 1.113734 -52.49716 -5.959196
v 1.113734 -52.49716 -5.959196
v 2.325868 -53.01185 -6.006755
v 0.7226303 -53.22158 -5.618763
v 2.158936 -53.81174 -3.456368
v 2.177844 -53.81196 -3.467726
v 2.166743 -53.77432 -3.451769
v 2.267903 -52.89027 -6.039878
v 2.428746 -52.82624 -5.881654
v 2.321034 -52.99257 -6.012855
v 2.811326 -53.43667 -5.23336
v 2.395495 -53.97351 -3.975916
v 2.565165 -53.49792 -5.444376
v 2.565165 -53.49792 -5.444376
v 2.395495 -53.97351 -3.975916
v 1.404934 -54.3567 -4.315969
v 1.822006 -51.95 -3.178361
v 2.166743 -53.77432 -3.451769
v 1.878993 -51.79531 -3.378175
v 1.878993 -51.79531 -3.378175
v 2.166743 -53.77432 -3.451769
v 2.79035 -52.67273 -5.437973
v 2.79035 -52.67273 -5.437973
v 2.166743 -53.77432 -3.451769
v 2.834786 -53.18521 -5.379245
v 2.834786 -53.18521 -5.379245
v 2.166743 -53.77432 -3.451769
v 2.811326 -53.43667 -5.23336
v 2.811326 -53.43667 -5.23336
v 2.166743 -53.77432 -3.451769
v 2.395495 -53.97351 -3.975916
v 2.395495 -53.97351 -3.975916
v 2.166743 -53.77432 -3.451769
v 2.177844 -53.81196 -3.467726
v 2.834786 -53.18521 -5.379245
v 2.811326 -53.43667 -5.23336
v 2.347478 -53.03571 -5.979979
v 2.347478 -53.03571 -5.979979
v 2.811326 -53.43667 -5.23336
v 2.565165 -53.49792 -5.444376
v 2.395495 -53.97351 -3.975916
v 2.177844 -53.81196 -3.467726
v 1.404934 -54.3567 -4.315969
v 1.404934 -54.3567 -4.315969
v 2.177844 -53.81196 -3.467726
v 0.471755 -54.48452 -4.083261
v 0.471755 -54.48452 -4.083261
v 2.177844 -53.81196 -3.467726
v 1.276099 -54.01178 -3.423879
v 1.276099 -54.01178 -3.423879
v 2.177844 -53.81196 -3.467726
v 2.158936 -53.81174 -3.456368
v 1.822006 -51.95 -3.178361
v 1.507356 -51.73896 -3.128089
v 2.166743 -53.77432 -3.451769
v 2.166743 -53.77432 -3.451769
v 1.507356 -51.73896 -3.128089
v 2.158936 -53.81174 -3.456368
v 2.158936 -53.81174 -3.456368
v 1.507356 -51.73896 -3.128089
v 1.276099 -54.01178 -3.423879
v 1.276099 -54.01178 -3.423879
v 1.507356 -51.73896 -3.128089
v 1.030923 -51.98188 -3.129052
v 1.030923 -51.98188 -3.129052
v 1.507356 -51.73896 -3.128089
v 1.130176 -51.81779 -3.113299
v 1.113734 -52.49716 -5.959196
v 0.5591586 -51.16298 -4.286993
v 2.267903 -52.89027 -6.039878
v 2.267903 -52.89027 -6.039878
v 0.5591586 -51.16298 -4.286993
v 2.428746 -52.82624 -5.881654
v 2.428746 -52.82624 -5.881654
v 0.5591586 -51.16298 -4.286993
v 2.736224 -52.65164 -5.504752
v 1.878993 -51.79531 -3.378175
v 1.535908 -51.58068 -3.308052
v 1.822006 -51.95 -3.178361
v 1.822006 -51.95 -3.178361
v 1.535908 -51.58068 -3.308052
v 1.507356 -51.73896 -3.128089
v 1.130176 -51.81779 -3.113299
v 1.507356 -51.73896 -3.128089
v 0.3707784 -51.29913 -3.879016
v 0.3707784 -51.29913 -3.879016
v 1.507356 -51.73896 -3.128089
v 0.3340778 -51.26155 -3.930723
v 0.3340778 -51.26155 -3.930723
v 1.507356 -51.73896 -3.128089
v 0.4801986 -51.08656 -4.106099
v 0.4801986 -51.08656 -4.106099
v 1.507356 -51.73896 -3.128089
v 1.535908 -51.58068 -3.308052
v 0.7226303 -53.22158 -5.618763
v -0.179916 -54.13244 -4.449862
v 1.113734 -52.49716 -5.959196
v 1.113734 -52.49716 -5.959196
v -0.179916 -54.13244 -4.449862
v 0.5591586 -51.16298 -4.286993
v 0.5591586 -51.16298 -4.286993
v -0.179916 -54.13244 -4.449862
v 0.4801986 -51.08656 -4.106099
v 0.4801986 -51.08656 -4.106099
v -0.179916 -54.13244 -4.449862
v 0.3340778 -51.26155 -3.930723
v 0.3340778 -51.26155 -3.930723
v -0.179916 -54.13244 -4.449862
v 0.325133 -51.27628 -3.922013
v 0.325133 -51.27628 -3.922013
v -0.179916 -54.13244 -4.449862
v 0.04453674 -52.10555 -3.833676
v 2.834786 -53.18521 -5.379245
v 2.347478 -53.03571 -5.979979
v 2.79035 -52.67273 -5.437973
v 2.79035 -52.67273 -5.437973
v 2.347478 -53.03571 -5.979979
v 2.736224 -52.65164 -5.504752
v 2.736224 -52.65164 -5.504752
v 2.347478 -53.03571 -5.979979
v 2.428746 -52.82624 -5.881654
v 2.428746 -52.82624 -5.881654
v 2.347478 -53.03571 -5.979979
v 2.321034 -52.99257 -6.012855
v 2.321034 -52.99257 -6.012855
v 2.347478 -53.03571 -5.979979
v 2.325868 -53.01185 -6.006755
v 1.404934 -54.3567 -4.315969
v 0.471755 -54.48452 -4.083261
v 2.565165 -53.49792 -5.444376
v 2.565165 -53.49792 -5.444376
v 0.471755 -54.48452 -4.083261
v 2.347478 -53.03571 -5.979979
v 2.347478 -53.03571 -5.979979
v 0.471755 -54.48452 -4.083261
v 2.325868 -53.01185 -6.006755
v 2.325868 -53.01185 -6.006755
v 0.471755 -54.48452 -4.083261
v 0.7226303 -53.22158 -5.618763
v 0.7226303 -53.22158 -5.618763
v 0.471755 -54.48452 -4.083261
v -0.179916 -54.13244 -4.449862
v 0.3340778 -51.26155 -3.930723
v 0.325133 -51.27628 -3.922013
v 0.3707784 -51.29913 -3.879016
v 0.325133 -51.27628 -3.922013
v 0.04453674 -52.10555 -3.833676
v 0.3707784 -51.29913 -3.879016
v 0.3707784 -51.29913 -3.879016
v 0.04453674 -52.10555 -3.833676
v 1.130176 -51.81779 -3.113299
v 1.130176 -51.81779 -3.113299
v 0.04453674 -52.10555 -3.833676
v 1.030923 -51.98188 -3.129052
v 0.471755 -54.48452 -4.083261
v 1.276099 -54.01178 -3.423879
v -0.179916 -54.13244 -4.449862
v -0.179916 -54.13244 -4.449862
v 1.276099 -54.01178 -3.423879
v 0.04453674 -52.10555 -3.833676
v 0.04453674 -52.10555 -3.833676
v 1.276099 -54.01178 -3.423879
v 1.030923 -51.98188 -3.129052

vn 0.5044536 0.8520529 -0.1397591
vn 0.5044536 0.8520529 -0.1397591
vn 0.5044536 0.8520529 -0.1397591
vn 0.5044536 0.8520529 -0.1397591
vn 0.5044536 0.8520529 -0.1397591
vn 0.5044536 0.8520529 -0.1397591
vn 0.5044536 0.8520529 -0.1397591
vn 0.5044536 0.8520529 -0.1397591
vn 0.5044536 0.8520529 -0.1397591
vn 0.5044536 0.8520529 -0.1397591
vn 0.5044536 0.8520529 -0.1397591
vn 0.5044536 0.8520529 -0.1397591
vn -0.1795042 -0.3373597 -0.9241033
vn -0.1795042 -0.3373597 -0.9241033
vn -0.1795042 -0.3373597 -0.9241033
vn -0.1795042 -0.3373597 -0.9241033
vn -0.1795042 -0.3373597 -0.9241033
vn -0.1795042 -0.3373597 -0.9241033
vn -0.1795042 -0.3373597 -0.9241033
vn -0.1795042 -0.3373597 -0.9241033
vn -0.1795042 -0.3373597 -0.9241033
vn 0.5019765 -0.2078896 0.8395246
vn 0.5019765 -0.2078896 0.8395246
vn 0.5019765 -0.2078896 0.8395246
vn 0.6623242 0.150093 -0.7340291
vn 0.6623242 0.150093 -0.7340291
vn 0.6623242 0.150093 -0.7340291
vn 0.419881 -0.8765304 -0.2353602
vn 0.419881 -0.8765304 -0.2353602
vn 0.419881 -0.8765304 -0.2353602
vn 0.419881 -0.8765304 -0.2353602
vn 0.419881 -0.8765304 -0.2353602
vn 0.419881 -0.8765304 -0.2353602
vn 0.9258221 0.1212964 0.3579674
vn 0.9258221 0.1212964 0.3579674
vn 0.9258221 0.1212964 0.3579674
vn 0.9258221 0.1212964 0.3579674
vn 0.9258221 0.1212964 0.3579674
vn 0.9258221 0.1212964 0.3579674
vn 0.9258221 0.1212964 0.3579674
vn 0.9258221 0.1212964 0.3579674
vn 0.9258221 0.1212964 0.3579674
vn 0.9258221 0.1212964 0.3579674
vn 0.9258221 0.1212964 0.3579674
vn 0.9258221 0.1212964 0.3579674
vn 0.9258221 0.1212964 0.3579674
vn 0.9258221 0.1212964 0.3579674
vn 0.9258221 0.1212964 0.3579674
vn 0.9258221 0.1212964 0.3579674
vn 0.9258221 0.1212964 0.3579674
vn 0.9258221 0.1212964 0.3579674
vn 0.6474789 -0.4267271 -0.6314072
vn 0.6474789 -0.4267271 -0.6314072
vn 0.6474789 -0.4267271 -0.6314072
vn 0.6474789 -0.4267271 -0.6314072
vn 0.6474789 -0.4267271 -0.6314072
vn 0.6474789 -0.4267271 -0.6314072
vn 0.2177273 -0.8993515 0.3791595
vn 0.2177273 -0.8993515 0.3791595
vn 0.2177273 -0.8993515 0.3791595
vn 0.2177273 -0.8993515 0.3791595
vn 0.2177273 -0.8993515 0.3791595
vn 0.2177273 -0.8993515 0.3791595
vn 0.2177273 -0.8993515 0.3791595
vn 0.2177273 -0.8993515 0.3791595
vn 0.2177273 -0.8993515 0.3791595
vn 0.2177273 -0.8993515 0.3791595
vn 0.2177273 -0.8993515 0.3791595
vn 0.2177273 -0.8993515 0.3791595
vn 0.06707343 -0.1354677 0.9885088
vn 0.06707343 -0.1354677 0.9885088
vn 0.06707343 -0.1354677 0.9885088
vn 0.06707343 -0.1354677 0.9885088
vn 0.06707343 -0.1354677 0.9885088
vn 0.06707343 -0.1354677 0.9885088
vn 0.06707343 -0.1354677 0.9885088
vn 0.06707343 -0.1354677 0.9885088
vn 0.06707343 -0.1354677 0.9885088
vn 0.06707343 -0.1354677 0.9885088
vn 0.06707343 -0.1354677 0.9885088
vn 0.06707343 -0.1354677 0.9885088
vn 0.06707343 -0.1354677 0.9885088
vn 0.06707343 -0.1354677 0.9885088
vn 0.06707343 -0.1354677 0.9885088
vn 0.2322171 0.7964002 -0.5584102
vn 0.2322171 0.7964002 -0.5584102
vn 0.2322171 0.7964002 -0.5584102
vn 0.2322171 0.7964002 -0.5584102
vn 0.2322171 0.7964002 -0.5584102
vn 0.2322171 0.7964002 -0.5584102
vn 0.2322171 0.7964002 -0.5584102
vn 0.2322171 0.7964002 -0.5584102
vn 0.2322171 0.7964002 -0.5584102
vn 0.5050523 0.6067657 0.6138058
vn 0.5050523 0.6067657 0.6138058
vn 0.5050523 0.6067657 0.6138058
vn 0.5050523 0.6067657 0.6138058
vn 0.5050523 0.6067657 0.6138058
vn 0.5050523 0.6067657 0.6138058
vn -0.1325103 0.7546507 0.6426067
vn -0.1325103 0.7546507 0.6426067
vn -0.1325103 0.7546507 0.6426067
vn -0.1325103 0.7546507 0.6426067
vn -0.1325103 0.7546507 0.6426067
vn -0.1325103 0.7546507 0.6426067
vn -0.1325103 0.7546507 0.6426067
vn -0.1325103 0.7546507 0.6426067
vn -0.1325103 0.7546507 0.6426067
vn -0.1325103 0.7546507 0.6426067
vn -0.1325103 0.7546507 0.6426067
vn -0.1325103 0.7546507 0.6426067
vn -0.8495759 0.2372878 -0.471079
vn -0.8495759 0.2372878 -0.471079
vn -0.8495759 0.2372878 -0.471079
vn -0.8495759 0.2372878 -0.471079
vn -0.8495759 0.2372878 -0.471079
vn -0.8495759 0.2372878 -0.471079
vn -0.8495759 0.2372878 -0.471079
vn -0.8495759 0.2372878 -0.471079
vn -0.8495759 0.2372878 -0.471079
vn -0.8495759 0.2372878 -0.471079
vn -0.8495759 0.2372878 -0.471079
vn -0.8495759 0.2372878 -0.471079
vn -0.8495759 0.2372878 -0.471079
vn -0.8495759 0.2372878 -0.471079
vn -0.8495759 0.2372878 -0.471079
vn -0.8495759 0.2372878 -0.471079
vn -0.8495759 0.2372878 -0.471079
vn -0.8495759 0.2372878 -0.471079
vn 0.7759891 -0.005022407 -0.6307263
vn 0.7759891 -0.005022407 -0.6307263
vn 0.7759891 -0.005022407 -0.6307263
vn 0.7759891 -0.005022407 -0.6307263
vn 0.7759891 -0.005022407 -0.6307263
vn 0.7759891 -0.005022407 -0.6307263
vn 0.7759891 -0.005022407 -0.6307263
vn 0.7759891 -0.005022407 -0.6307263
vn 0.7759891 -0.005022407 -0.6307263
vn 0.7759891 -0.005022407 -0.6307263
vn 0.7759891 -0.005022407 -0.6307263
vn 0.7759891 -0.005022407 -0.6307263
vn 0.7759891 -0.005022407 -0.6307263
vn 0.7759891 -0.005022407 -0.6307263
vn 0.7759891 -0.005022407 -0.6307263
vn -0.05447314 -0.7667921 -0.6395801
vn -0.05447314 -0.7667921 -0.6395801
vn -0.05447314 -0.7667921 -0.6395801
vn -0.05447314 -0.7667921 -0.6395801
vn -0.05447314 -0.7667921 -0.6395801
vn -0.05447314 -0.7667921 -0.6395801
vn -0.05447314 -0.7667921 -0.6395801
vn -0.05447314 -0.7667921 -0.6395801
vn -0.05447314 -0.7667921 -0.6395801
vn -0.05447314 -0.7667921 -0.6395801
vn -0.05447314 -0.7667921 -0.6395801
vn -0.05447314 -0.7667921 -0.6395801
vn -0.05447314 -0.7667921 -0.6395801
vn -0.05447314 -0.7667921 -0.6395801
vn -0.05447314 -0.7667921 -0.6395801
vn -0.3468326 0.6242976 0.6999712
vn -0.3468326 0.6242976 0.6999712
vn -0.3468326 0.6242976 0.6999712
vn -0.581175 0.2781185 0.7647783
vn -0.581175 0.2781185 0.7647783
vn -0.581175 0.2781185 0.7647783
vn -0.581175 0.2781185 0.7647783
vn -0.581175 0.2781185 0.7647783
vn -0.581175 0.2781185 0.7647783
vn -0.581175 0.2781185 0.7647783
vn -0.581175 0.2781185 0.7647783
vn -0.581175 0.2781185 0.7647783
vn -0.5558028 -0.1848434 0.8105037
vn -0.5558028 -0.1848434 0.8105037
vn -0.5558028 -0.1848434 0.8105037
vn -0.5558028 -0.1848434 0.8105037
vn -0.5558028 -0.1848434 0.8105037
vn -0.5558028 -0.1848434 0.8105037
vn -0.5558028 -0.1848434 0.8105037
vn -0.5558028 -0.1848434 0.8105037
vn -0.5558028 -0.1848434 0.8105037

vt 0.3385602 0.410269
vt 0.4537481 0.3302488
vt 0.3491686 0.428406
vt 0.3491686 0.428406
vt 0.4537481 0.3302488
vt 0.6104696 0.5505084
vt 0.6104696 0.5505084
vt 0.4537481 0.3302488
vt 0.6161512 0.5438142
vt 0.6161512 0.5438142
vt 0.4537481 0.3302488
vt 0.4939129 0.3372804
vt 0.4602407 0.3488123
vt 0.4622611 0.3483201
vt 0.4497119 0.354208
vt 0.4497119 0.354208
vt 0.4622611 0.3483201
vt 0.4155756 0.4714491
vt 0.4155756 0.4714491
vt 0.4622611 0.3483201
vt 0.4952442 0.511178
vt 0.5921311 0.5502927
vt 0.590856 0.5540711
vt 0.5853338 0.5487551
vt 0.5337965 0.5097623
vt 0.5299056 0.4760384
vt 0.5499411 0.5040057
vt 0.372659 0.5067996
vt 0.4340548 0.3759311
vt 0.3977902 0.5287665
vt 0.3977902 0.5287665
vt 0.4340548 0.3759311
vt 0.5411656 0.4113238
vt 0.4077283 0.3608271
vt 0.6028848 0.3916539
vt 0.3923571 0.3833612
vt 0.3923571 0.3833612
vt 0.6028848 0.3916539
vt 0.4964162 0.6156215
vt 0.4964162 0.6156215
vt 0.6028848 0.3916539
vt 0.5505224 0.608993
vt 0.5505224 0.608993
vt 0.6028848 0.3916539
vt 0.5764552 0.5925483
vt 0.5764552 0.5925483
vt 0.6028848 0.3916539
vt 0.6268112 0.4507573
vt 0.6268112 0.4507573
vt 0.6028848 0.3916539
vt 0.6069632 0.393454
vt 0.4170335 0.4270887
vt 0.4452867 0.4032373
vt 0.4351986 0.5252975
vt 0.4351986 0.5252975
vt 0.4452867 0.4032373
vt 0.4689458 0.4377347
vt 0.3983386 0.4692505
vt 0.4167756 0.4109019
vt 0.5102076 0.5082903
vt 0.5102076 0.5082903
vt 0.4167756 0.4109019
vt 0.6097571 0.48157
vt 0.6097571 0.48157
vt 0.4167756 0.4109019
vt 0.514886 0.4058672
vt 0.514886 0.4058672
vt 0.4167756 0.4109019
vt 0.4187211 0.4095986
vt 0.5941281 0.4306843
vt 0.6154011 0.4617548
vt 0.4123785 0.3966464
vt 0.4123785 0.3966464
vt 0.6154011 0.4617548
vt 0.4086611 0.3974151
vt 0.4086611 0.3974151
vt 0.6154011 0.4617548
vt 0.3895678 0.4845983
vt 0.3895678 0.4845983
vt 0.6154011 0.4617548
vt 0.5916717 0.5088059
vt 0.5916717 0.5088059
vt 0.6154011 0.4617548
vt 0.6079007 0.4989991
vt 0.4663066 0.5897544
vt 0.3589473 0.3508656
vt 0.6106572 0.6012769
vt 0.6106572 0.6012769
vt 0.3589473 0.3508656
vt 0.62683 0.5786725
vt 0.62683 0.5786725
vt 0.3589473 0.3508656
vt 0.656016 0.5248287
vt 0.4709381 0.4457601
vt 0.421004 0.434697
vt 0.4778104 0.4142396
vt 0.4778104 0.4142396
vt 0.421004 0.434697
vt 0.4308811 0.4063078
vt 0.4995851 0.4103768
vt 0.5490036 0.412852
vt 0.4151302 0.5386014
vt 0.4151302 0.5386014
vt 0.5490036 0.412852
vt 0.4113284 0.547255
vt 0.4113284 0.547255
vt 0.5490036 0.412852
vt 0.4336797 0.5766193
vt 0.4336797 0.5766193
vt 0.5490036 0.412852
vt 0.556129 0.442985
vt 0.4310499 0.554493
vt 0.3062146 0.4068094
vt 0.5205395 0.597508
vt 0.5205395 0.597508
vt 0.3062146 0.4068094
vt 0.647128 0.3862301
vt 0.647128 0.3862301
vt 0.3062146 0.4068094
vt 0.6529596 0.3633726
vt 0.6529596 0.3633726
vt 0.3062146 0.4068094
vt 0.6297926 0.3412135
vt 0.6297926 0.3412135
vt 0.3062146 0.4068094
vt 0.6279457 0.3401118
vt 0.6279457 0.3401118
vt 0.3062146 0.4068094
vt 0.530515 0.3289503
vt 0.5355028 0.4222275
vt 0.5169674 0.5203004
vt 0.4706147 0.4318093
vt 0.4706147 0.4318093
vt 0.5169674 0.5203004
vt 0.4679849 0.4427178
vt 0.4679849 0.4427178
vt 0.5169674 0.5203004
vt 0.4903596 0.5042495
vt 0.4903596 0.5042495
vt 0.5169674 0.5203004
vt 0.5115201 0.5256632
vt 0.5115201 0.5256632
vt 0.5169674 0.5203004
vt 0.5139578 0.5246693
vt 0.4533871 0.3214639
vt 0.5712705 0.2827523
vt 0.3131571 0.5091904
vt 0.3131571 0.5091904
vt 0.5712705 0.2827523
vt 0.3451137 0.5982955
vt 0.3451137 0.5982955
vt 0.5712705 0.2827523
vt 0.3480857 0.6027489
vt 0.3480857 0.6027489
vt 0.5712705 0.2827523
vt 0.5507005 0.5381983
vt 0.5507005 0.5381983
vt 0.5712705 0.2827523
vt 0.6575817 0.3437402
vt 0.4861031 0.5810445
vt 0.4840405 0.5793663
vt 0.4880063 0.5710783
vt 0.6421402 0.5800882
vt 0.5095232 0.559162
vt 0.6419996 0.5699064
vt 0.6419996 0.5699064
vt 0.5095232 0.559162
vt 0.6206234 0.3885693
vt 0.6206234 0.3885693
vt 0.5095232 0.559162
vt 0.5915029 0.3923008
vt 0.2640153 0.5927171
vt 0.2966984 0.4037764
vt 0.3546017 0.69777
vt 0.3546017 0.69777
vt 0.2966984 0.4037764
vt 0.6655228 0.5212004
vt 0.6655228 0.5212004
vt 0.2966984 0.4037764
vt 0.6329803 0.3192934

usemtl Material0
usemap Material0

usemtl Material1
usemap Material1
f 1/1/1 2/2/2 3/3/3
f 4/4/4 5/5/5 6/6/6
f 7/7/7 8/8/8 9/9/9
f 10/10/10 11/11/11 12/12/12
f 13/13/13 14/14/14 15/15/15
f 16/16/16 17/17/17 18/18/18
f 19/19/19 20/20/20 21/21/21
f 22/22/22 23/23/23 24/24/24
f 25/25/25 26/26/26 27/27/27
f 28/28/28 29/29/29 30/30/30
f 31/31/31 32/32/32 33/33/33
f 34/34/34 35/35/35 36/36/36
f 37/37/37 38/38/38 39/39/39
f 40/40/40 41/41/41 42/42/42
f 43/43/43 44/44/44 45/45/45
f 46/46/46 47/47/47 48/48/48
f 49/49/49 50/50/50 51/51/51
f 52/52/52 53/53/53 54/54/54
f 55/55/55 56/56/56 57/57/57
f 58/58/58 59/59/59 60/60/60
f 61/61/61 62/62/62 63/63/63
f 64/64/64 65/65/65 66/66/66
f 67/67/67 68/68/68 69/69/69
f 70/70/70 71/71/71 72/72/72
f 73/73/73 74/74/74 75/75/75
f 76/76/76 77/77/77 78/78/78
f 79/79/79 80/80/80 81/81/81
f 82/82/82 83/83/83 84/84/84
f 85/85/85 86/86/86 87/87/87
f 88/88/88 89/89/89 90/90/90
f 91/91/91 92/92/92 93/93/93
f 94/94/94 95/95/95 96/96/96
f 97/97/97 98/98/98 99/99/99
f 100/100/100 101/101/101 102/102/102
f 103/103/103 104/104/104 105/105/105
f 106/106/106 107/107/107 108/108/108
f 109/109/109 110/110/110 111/111/111
f 112/112/112 113/113/113 114/114/114
f 115/115/115 116/116/116 117/117/117
f 118/118/118 119/119/119 120/120/120
f 121/121/121 122/122/122 123/123/123
f 124/124/124 125/125/125 126/126/126
f 127/127/127 128/128/128 129/129/129
f 130/130/130 131/131/131 132/132/132
f 133/133/133 134/134/134 135/135/135
f 136/136/136 137/137/137 138/138/138
f 139/139/139 140/140/140 141/141/141
f 142/142/142 143/143/143 144/144/144
f 145/145/145 146/146/146 147/147/147
f 148/148/148 149/149/149 150/150/150
f 151/151/151 152/152/152 153/153/153
f 154/154/154 155/155/155 156/156/156
f 157/157/157 158/158/158 159/159/159
f 160/160/160 161/161/161 162/162/162
f 163/163/163 164/164/164 165/165/165
f 166/166/166 167/167/167 168/168/168
f 169/169/169 170/170/170 171/171/171
f 172/172/172 173/173/173 174/174/174
f 175/175/175 176/176/176 177/177/177
f 178/178/178 179/179/179 180/180/180
