g  Instance
v 6.075846 -42.07825 9.536743E-07
v 6.145566 -42.15121 0.2431232
v 7.042926 -42.9009 9.536743E-07
v 7.042926 -42.9009 9.536743E-07
v 6.145566 -42.15121 0.2431232
v 6.960119 -42.84079 0.184012
v 6.960119 -42.84079 0.184012
v 7.110077 -42.99109 0.1820341
v 7.042926 -42.9009 9.536743E-07
v 7.042926 -42.9009 9.536743E-07
v 7.110077 -42.99109 0.1820341
v 7.402943 -43.32074 9.536743E-07
v 7.402943 -43.32074 9.536743E-07
v 7.110077 -42.99109 0.1820341
v 7.363224 -43.28713 0.1948416
v 6.663487 -42.62522 -0.7588765
v 5.979723 -42.0123 -0.254789
v 7.042926 -42.9009 9.536743E-07
v 7.042926 -42.9009 9.536743E-07
v 5.979723 -42.0123 -0.254789
v 6.075846 -42.07825 9.536743E-07
v 7.405971 -43.40525 -1.115367
v 7.283816 -43.31067 -1.314997
v 7.042926 -42.9009 9.536743E-07
v 7.042926 -42.9009 9.536743E-07
v 7.283816 -43.31067 -1.314997
v 6.663487 -42.62522 -0.7588765
v 7.402943 -43.32074 9.536743E-07
v 7.504268 -43.50659 -0.93225
v 7.042926 -42.9009 9.536743E-07
v 7.042926 -42.9009 9.536743E-07
v 7.504268 -43.50659 -0.93225
v 7.405971 -43.40525 -1.115367
v 7.110077 -42.99109 0.1820341
v 6.960119 -42.84079 0.184012
v 7.363224 -43.28713 0.1948416
v 7.363224 -43.28713 0.1948416
v 6.960119 -42.84079 0.184012
v 6.510171 -43.43711 0.5894292
v 6.510171 -43.43711 0.5894292
v 6.960119 -42.84079 0.184012
v 5.85908 -43.25566 0.7777202
v 5.85908 -43.25566 0.7777202
v 6.960119 -42.84079 0.184012
v 6.032104 -42.23615 0.320399
v 6.032104 -42.23615 0.320399
v 6.960119 -42.84079 0.184012
v 6.145566 -42.15121 0.2431232
v 4.770926 -43.9746 0.3866014
v 4.301058 -42.7004 -0.6917441
v 5.014831 -44.20352 -0.90776
v 5.014831 -44.20352 -0.90776
v 4.301058 -42.7004 -0.6917441
v 4.824097 -43.6612 -1.453001
v 6.032104 -42.23615 0.320399
v 4.664174 -42.48557 -0.5468361
v 5.85908 -43.25566 0.7777202
v 5.85908 -43.25566 0.7777202
v 4.664174 -42.48557 -0.5468361
v 4.880474 -43.93085 0.4424055
v 4.880474 -43.93085 0.4424055
v 4.664174 -42.48557 -0.5468361
v 4.770926 -43.9746 0.3866014
v 4.770926 -43.9746 0.3866014
v 4.664174 -42.48557 -0.5468361
v 4.301058 -42.7004 -0.6917441
v 5.979723 -42.0123 -0.254789
v 4.664174 -42.48557 -0.5468361
v 6.075846 -42.07825 9.536743E-07
v 6.075846 -42.07825 9.536743E-07
v 4.664174 -42.48557 -0.5468361
v 6.145566 -42.15121 0.2431232
v 6.145566 -42.15121 0.2431232
v 4.664174 -42.48557 -0.5468361
v 6.032104 -42.23615 0.320399
v 5.014831 -44.20352 -0.90776
v 4.824097 -43.6612 -1.453001
v 6.845836 -43.77948 -1.310733
v 6.845836 -43.77948 -1.310733
v 4.824097 -43.6612 -1.453001
v 6.823252 -43.58813 -1.502589
v 5.85908 -43.25566 0.7777202
v 4.880474 -43.93085 0.4424055
v 6.510171 -43.43711 0.5894292
v 4.664174 -42.48557 -0.5468361
v 5.979723 -42.0123 -0.254789
v 4.301058 -42.7004 -0.6917441
v 4.301058 -42.7004 -0.6917441
v 5.979723 -42.0123 -0.254789
v 4.824097 -43.6612 -1.453001
v 4.824097 -43.6612 -1.453001
v 5.979723 -42.0123 -0.254789
v 6.823252 -43.58813 -1.502589
v 6.823252 -43.58813 -1.502589
v 5.979723 -42.0123 -0.254789
v 7.283816 -43.31067 -1.314997
v 7.283816 -43.31067 -1.314997
v 5.979723 -42.0123 -0.254789
v 6.663487 -42.62522 -0.7588765
v 7.283816 -43.31067 -1.314997
v 7.405971 -43.40525 -1.115367
v 6.823252 -43.58813 -1.502589
v 6.823252 -43.58813 -1.502589
v 7.405971 -43.40525 -1.115367
v 6.845836 -43.77948 -1.310733
v 6.845836 -43.77948 -1.310733
v 7.405971 -43.40525 -1.115367
v 7.504268 -43.50659 -0.93225
v 7.504268 -43.50659 -0.93225
v 7.402943 -43.32074 9.536743E-07
v 6.845836 -43.77948 -1.310733
v 6.845836 -43.77948 -1.310733
v 7.402943 -43.32074 9.536743E-07
v 5.014831 -44.20352 -0.90776
v 5.014831 -44.20352 -0.90776
v 7.402943 -43.32074 9.536743E-07
v 4.770926 -43.9746 0.3866014
v 4.770926 -43.9746 0.3866014
v 7.402943 -43.32074 9.536743E-07
v 4.880474 -43.93085 0.4424055
v 4.880474 -43.93085 0.4424055
v 7.402943 -43.32074 9.536743E-07
v 6.510171 -43.43711 0.5894292
v 6.510171 -43.43711 0.5894292
v 7.402943 -43.32074 9.536743E-07
v 7.363224 -43.28713 0.1948416

vn 0.6473452 0.7609991 0.04271317
vn 0.6473452 0.7609991 0.04271317
vn 0.6473452 0.7609991 0.04271317
vn 0.6473452 0.7609991 0.04271317
vn 0.6473452 0.7609991 0.04271317
vn 0.6473452 0.7609991 0.04271317
vn 0.7057352 0.702997 0.08793744
vn 0.7057352 0.702997 0.08793744
vn 0.7057352 0.702997 0.08793744
vn 0.7584321 0.6503698 0.04242576
vn 0.7584321 0.6503698 0.04242576
vn 0.7584321 0.6503698 0.04242576
vn 0.7584321 0.6503698 0.04242576
vn 0.7584321 0.6503698 0.04242576
vn 0.7584321 0.6503698 0.04242576
vn 0.6472146 0.7608443 -0.04721405
vn 0.6472146 0.7608443 -0.04721405
vn 0.6472146 0.7608443 -0.04721405
vn 0.6472146 0.7608443 -0.04721405
vn 0.6472146 0.7608443 -0.04721405
vn 0.6472146 0.7608443 -0.04721405
vn 0.6997516 0.7083662 -0.09254751
vn 0.6997516 0.7083662 -0.09254751
vn 0.6997516 0.7083662 -0.09254751
vn 0.6997516 0.7083662 -0.09254751
vn 0.6997516 0.7083662 -0.09254751
vn 0.6997516 0.7083662 -0.09254751
vn 0.7582692 0.6502296 -0.04721346
vn 0.7582692 0.6502296 -0.04721346
vn 0.7582692 0.6502296 -0.04721346
vn 0.7582692 0.6502296 -0.04721346
vn 0.7582692 0.6502296 -0.04721346
vn 0.7582692 0.6502296 -0.04721346
vn 0.3466164 0.334306 0.8764113
vn 0.3466164 0.334306 0.8764113
vn 0.3466164 0.334306 0.8764113
vn 0.3466164 0.334306 0.8764113
vn 0.3466164 0.334306 0.8764113
vn 0.3466164 0.334306 0.8764113
vn 0.3466164 0.334306 0.8764113
vn 0.3466164 0.334306 0.8764113
vn 0.3466164 0.334306 0.8764113
vn 0.3466164 0.334306 0.8764113
vn 0.3466164 0.334306 0.8764113
vn 0.3466164 0.334306 0.8764113
vn 0.3466164 0.334306 0.8764113
vn 0.3466164 0.334306 0.8764113
vn 0.3466164 0.334306 0.8764113
vn -0.9043988 -0.4155326 -0.09693099
vn -0.9043988 -0.4155326 -0.09693099
vn -0.9043988 -0.4155326 -0.09693099
vn -0.9043988 -0.4155326 -0.09693099
vn -0.9043988 -0.4155326 -0.09693099
vn -0.9043988 -0.4155326 -0.09693099
vn -0.5394176 0.4191403 0.7303083
vn -0.5394176 0.4191403 0.7303083
vn -0.5394176 0.4191403 0.7303083
vn -0.5394176 0.4191403 0.7303083
vn -0.5394176 0.4191403 0.7303083
vn -0.5394176 0.4191403 0.7303083
vn -0.5394176 0.4191403 0.7303083
vn -0.5394176 0.4191403 0.7303083
vn -0.5394176 0.4191403 0.7303083
vn -0.5394176 0.4191403 0.7303083
vn -0.5394176 0.4191403 0.7303083
vn -0.5394176 0.4191403 0.7303083
vn -0.3858322 0.8473324 0.364913
vn -0.3858322 0.8473324 0.364913
vn -0.3858322 0.8473324 0.364913
vn -0.3858322 0.8473324 0.364913
vn -0.3858322 0.8473324 0.364913
vn -0.3858322 0.8473324 0.364913
vn -0.3858322 0.8473324 0.364913
vn -0.3858322 0.8473324 0.364913
vn -0.3858322 0.8473324 0.364913
vn 0.008333837 -0.7075207 -0.7066435
vn 0.008333837 -0.7075207 -0.7066435
vn 0.008333837 -0.7075207 -0.7066435
vn 0.008333837 -0.7075207 -0.7066435
vn 0.008333837 -0.7075207 -0.7066435
vn 0.008333837 -0.7075207 -0.7066435
vn 0.08959762 -0.5441517 0.834189
vn 0.08959762 -0.5441517 0.834189
vn 0.08959762 -0.5441517 0.834189
vn -0.04186629 0.60637 -0.7940797
vn -0.04186629 0.60637 -0.7940797
vn -0.04186629 0.60637 -0.7940797
vn -0.04186629 0.60637 -0.7940797
vn -0.04186629 0.60637 -0.7940797
vn -0.04186629 0.60637 -0.7940797
vn -0.04186629 0.60637 -0.7940797
vn -0.04186629 0.60637 -0.7940797
vn -0.04186629 0.60637 -0.7940797
vn -0.04186629 0.60637 -0.7940797
vn -0.04186629 0.60637 -0.7940797
vn -0.04186629 0.60637 -0.7940797
vn -0.04186629 0.60637 -0.7940797
vn -0.04186629 0.60637 -0.7940797
vn -0.04186629 0.60637 -0.7940797
vn 0.5761284 -0.5437973 -0.6102136
vn 0.5761284 -0.5437973 -0.6102136
vn 0.5761284 -0.5437973 -0.6102136
vn 0.5761284 -0.5437973 -0.6102136
vn 0.5761284 -0.5437973 -0.6102136
vn 0.5761284 -0.5437973 -0.6102136
vn 0.5761284 -0.5437973 -0.6102136
vn 0.5761284 -0.5437973 -0.6102136
vn 0.5761284 -0.5437973 -0.6102136
vn 0.2651864 -0.9396571 0.2161502
vn 0.2651864 -0.9396571 0.2161502
vn 0.2651864 -0.9396571 0.2161502
vn 0.2651864 -0.9396571 0.2161502
vn 0.2651864 -0.9396571 0.2161502
vn 0.2651864 -0.9396571 0.2161502
vn 0.2651864 -0.9396571 0.2161502
vn 0.2651864 -0.9396571 0.2161502
vn 0.2651864 -0.9396571 0.2161502
vn 0.2651864 -0.9396571 0.2161502
vn 0.2651864 -0.9396571 0.2161502
vn 0.2651864 -0.9396571 0.2161502
vn 0.2651864 -0.9396571 0.2161502
vn 0.2651864 -0.9396571 0.2161502
vn 0.2651864 -0.9396571 0.2161502
vn 0.2651864 -0.9396571 0.2161502
vn 0.2651864 -0.9396571 0.2161502
vn 0.2651864 -0.9396571 0.2161502

vt 0.3143193 0.236191
vt 0.3129519 0.239875
vt 0.2954543 0.236191
vt 0.2954543 0.236191
vt 0.3129519 0.239875
vt 0.2970641 0.2389793
vt 0.2970641 0.2389793
vt 0.2938993 0.2388842
vt 0.2954543 0.236191
vt 0.2954543 0.236191
vt 0.2938993 0.2388842
vt 0.2876413 0.236191
vt 0.2876413 0.236191
vt 0.2938993 0.2388842
vt 0.2883988 0.2390737
vt 0.3017761 0.2252413
vt 0.3158318 0.2325147
vt 0.2954543 0.236191
vt 0.2954543 0.236191
vt 0.3158318 0.2325147
vt 0.3143193 0.236191
vt 0.2864048 0.2205168
vt 0.2885128 0.2176262
vt 0.2954543 0.236191
vt 0.2954543 0.236191
vt 0.2885128 0.2176262
vt 0.3017761 0.2252413
vt 0.2876413 0.236191
vt 0.2844638 0.2230901
vt 0.2954543 0.236191
vt 0.2954543 0.236191
vt 0.2844638 0.2230901
vt 0.2864048 0.2205168
vt 0.6608444 0.7677959
vt 0.6175013 0.7669521
vt 0.7402177 0.7623581
vt 0.7402177 0.7623581
vt 0.6175013 0.7669521
vt 0.6413621 0.5950797
vt 0.6413621 0.5950797
vt 0.6175013 0.7669521
vt 0.5224239 0.5152563
vt 0.5224239 0.5152563
vt 0.6175013 0.7669521
vt 0.3971432 0.7091331
vt 0.3971432 0.7091331
vt 0.6175013 0.7669521
vt 0.4007388 0.7418913
vt 0.4828779 0.3986246
vt 0.61662 0.505637
vt 0.4522714 0.5270789
vt 0.4522714 0.5270789
vt 0.61662 0.505637
vt 0.5088106 0.5811852
vt 0.7378645 0.4315187
vt 0.5887278 0.6142246
vt 0.6067288 0.3351756
vt 0.6067288 0.3351756
vt 0.5887278 0.6142246
vt 0.4435803 0.405811
vt 0.4435803 0.405811
vt 0.5887278 0.6142246
vt 0.4289357 0.4175679
vt 0.4289357 0.4175679
vt 0.5887278 0.6142246
vt 0.5322495 0.6447513
vt 0.6454498 0.512603
vt 0.49831 0.5457268
vt 0.6517971 0.4837076
vt 0.6517971 0.4837076
vt 0.49831 0.5457268
vt 0.6552941 0.4561435
vt 0.6552941 0.4561435
vt 0.49831 0.5457268
vt 0.6406776 0.4473774
vt 0.5082575 0.4833795
vt 0.5338715 0.5904481
vt 0.2531818 0.5625184
vt 0.2531818 0.5625184
vt 0.5338715 0.5904481
vt 0.2560085 0.6001894
vt 0.3500218 0.3126649
vt 0.5417094 0.4210603
vt 0.2407545 0.373531
vt 0.4266903 0.3314019
vt 0.6442403 0.2536881
vt 0.3657071 0.3699636
vt 0.3657071 0.3699636
vt 0.6442403 0.2536881
vt 0.4394035 0.5725409
vt 0.4394035 0.5725409
vt 0.6442403 0.2536881
vt 0.7627941 0.5857323
vt 0.7627941 0.5857323
vt 0.6442403 0.2536881
vt 0.8401985 0.5358075
vt 0.8401985 0.5358075
vt 0.6442403 0.2536881
vt 0.7477463 0.3878286
vt 0.2698937 0.4737508
vt 0.2680233 0.4424834
vt 0.3341584 0.5031338
vt 0.3341584 0.5031338
vt 0.2680233 0.4424834
vt 0.3495014 0.4730851
vt 0.3495014 0.4730851
vt 0.2680233 0.4424834
vt 0.2687921 0.4137989
vt 0.2549022 0.5418641
vt 0.2596369 0.4457179
vt 0.3261704 0.5808945
vt 0.3261704 0.5808945
vt 0.2596369 0.4457179
vt 0.5151954 0.5393327
vt 0.5151954 0.5393327
vt 0.2596369 0.4457179
vt 0.532587 0.4058484
vt 0.532587 0.4058484
vt 0.2596369 0.4457179
vt 0.5207738 0.4000919
vt 0.5207738 0.4000919
vt 0.2596369 0.4457179
vt 0.3493327 0.3849316
vt 0.3493327 0.3849316
vt 0.2596369 0.4457179
vt 0.2625667 0.4256262

usemtl Material0
usemap Material0
f 1/1/1 2/2/2 3/3/3
f 4/4/4 5/5/5 6/6/6
f 7/7/7 8/8/8 9/9/9
f 10/10/10 11/11/11 12/12/12
f 13/13/13 14/14/14 15/15/15
f 16/16/16 17/17/17 18/18/18
f 19/19/19 20/20/20 21/21/21
f 22/22/22 23/23/23 24/24/24
f 25/25/25 26/26/26 27/27/27
f 28/28/28 29/29/29 30/30/30
f 31/31/31 32/32/32 33/33/33

usemtl Material1
usemap Material1
f 34/34/34 35/35/35 36/36/36
f 37/37/37 38/38/38 39/39/39
f 40/40/40 41/41/41 42/42/42
f 43/43/43 44/44/44 45/45/45
f 46/46/46 47/47/47 48/48/48
f 49/49/49 50/50/50 51/51/51
f 52/52/52 53/53/53 54/54/54
f 55/55/55 56/56/56 57/57/57
f 58/58/58 59/59/59 60/60/60
f 61/61/61 62/62/62 63/63/63
f 64/64/64 65/65/65 66/66/66
f 67/67/67 68/68/68 69/69/69
f 70/70/70 71/71/71 72/72/72
f 73/73/73 74/74/74 75/75/75
f 76/76/76 77/77/77 78/78/78
f 79/79/79 80/80/80 81/81/81
f 82/82/82 83/83/83 84/84/84
f 85/85/85 86/86/86 87/87/87
f 88/88/88 89/89/89 90/90/90
f 91/91/91 92/92/92 93/93/93
f 94/94/94 95/95/95 96/96/96
f 97/97/97 98/98/98 99/99/99
f 100/100/100 101/101/101 102/102/102
f 103/103/103 104/104/104 105/105/105
f 106/106/106 107/107/107 108/108/108
f 109/109/109 110/110/110 111/111/111
f 112/112/112 113/113/113 114/114/114
f 115/115/115 116/116/116 117/117/117
f 118/118/118 119/119/119 120/120/120
f 121/121/121 122/122/122 123/123/123
f 124/124/124 125/125/125 126/126/126
