g  Instance
v -7.459432 -52.90109 0.5723524
v -7.640299 -53.08287 0.3566517
v -6.859924 -52.65532 1.381125
v -6.859924 -52.65532 1.381125
v -7.640299 -53.08287 0.3566517
v -6.853704 -52.65678 1.390577
v -6.853704 -52.65678 1.390577
v -7.640299 -53.08287 0.3566517
v -7.565444 -55.32915 1.056355
v -7.565444 -55.32915 1.056355
v -7.640299 -53.08287 0.3566517
v -7.739608 -55.34954 0.8079827
v -7.565444 -55.32915 1.056355
v -7.227003 -55.20636 1.192858
v -6.853704 -52.65678 1.390577
v -6.853704 -52.65678 1.390577
v -7.227003 -55.20636 1.192858
v -6.245522 -52.45753 1.635458
v -6.245522 -52.45753 1.635458
v -7.227003 -55.20636 1.192858
v -5.95824 -53.04698 1.737778
v -5.95824 -53.04698 1.737778
v -7.227003 -55.20636 1.192858
v -5.750901 -54.07716 1.799813
v -4.937032 -54.01262 0.6064171
v -4.706606 -53.66569 -0.39635
v -5.416102 -53.93291 1.631187
v -5.416102 -53.93291 1.631187
v -4.706606 -53.66569 -0.39635
v -5.95824 -53.04698 1.737778
v -5.95824 -53.04698 1.737778
v -4.706606 -53.66569 -0.39635
v -6.245522 -52.45753 1.635458
v -6.245522 -52.45753 1.635458
v -4.706606 -53.66569 -0.39635
v -6.242606 -52.44244 1.608615
v -6.242606 -52.44244 1.608615
v -4.706606 -53.66569 -0.39635
v -5.612075 -52.34759 -0.004502684
v -5.612075 -52.34759 -0.004502684
v -4.706606 -53.66569 -0.39635
v -5.226479 -52.71178 -0.4322532
v -6.242606 -52.44244 1.608615
v -5.612075 -52.34759 -0.004502684
v -6.859924 -52.65532 1.381125
v -6.859924 -52.65532 1.381125
v -5.612075 -52.34759 -0.004502684
v -7.459432 -52.90109 0.5723524
v -7.459432 -52.90109 0.5723524
v -5.612075 -52.34759 -0.004502684
v -7.221626 -52.90044 -0.5648524
v -4.937032 -54.01262 0.6064171
v -5.416102 -53.93291 1.631187
v -7.227003 -55.20636 1.192858
v -7.227003 -55.20636 1.192858
v -5.416102 -53.93291 1.631187
v -5.750901 -54.07716 1.799813
v -6.859924 -52.65532 1.381125
v -6.853704 -52.65678 1.390577
v -6.242606 -52.44244 1.608615
v -6.242606 -52.44244 1.608615
v -6.853704 -52.65678 1.390577
v -6.245522 -52.45753 1.635458
v -7.424082 -53.0999 -0.7823135
v -7.565161 -53.18107 -0.5892321
v -7.221626 -52.90044 -0.5648524
v -7.221626 -52.90044 -0.5648524
v -7.565161 -53.18107 -0.5892321
v -7.459432 -52.90109 0.5723524
v -7.459432 -52.90109 0.5723524
v -7.565161 -53.18107 -0.5892321
v -7.640299 -53.08287 0.3566517
v -7.54151 -53.33945 -0.929487
v -7.565161 -53.18107 -0.5892321
v -7.448999 -53.18911 -0.8822532
v -7.448999 -53.18911 -0.8822532
v -7.565161 -53.18107 -0.5892321
v -7.424082 -53.0999 -0.7823135
v -6.31662 -53.50556 -1.286309
v -6.370747 -53.75367 -1.386881
v -7.448999 -53.18911 -0.8822532
v -7.448999 -53.18911 -0.8822532
v -6.370747 -53.75367 -1.386881
v -7.54151 -53.33945 -0.929487
v -7.54151 -53.33945 -0.929487
v -6.370747 -53.75367 -1.386881
v -7.538178 -53.66487 -1.078457
v -7.538178 -53.66487 -1.078457
v -6.370747 -53.75367 -1.386881
v -6.447218 -53.78712 -1.384563
v -7.538178 -53.66487 -1.078457
v -6.447218 -53.78712 -1.384563
v -7.553071 -54.66671 -1.231427
v -7.5592 -54.78489 -1.196328
v -7.739608 -55.34954 0.8079827
v -7.553071 -54.66671 -1.231427
v -7.553071 -54.66671 -1.231427
v -7.739608 -55.34954 0.8079827
v -7.538178 -53.66487 -1.078457
v -7.538178 -53.66487 -1.078457
v -7.739608 -55.34954 0.8079827
v -7.54151 -53.33945 -0.929487
v -7.54151 -53.33945 -0.929487
v -7.739608 -55.34954 0.8079827
v -7.565161 -53.18107 -0.5892321
v -7.565161 -53.18107 -0.5892321
v -7.739608 -55.34954 0.8079827
v -7.640299 -53.08287 0.3566517
v -7.739608 -55.34954 0.8079827
v -7.5592 -54.78489 -1.196328
v -7.565444 -55.32915 1.056355
v -7.565444 -55.32915 1.056355
v -7.5592 -54.78489 -1.196328
v -7.227003 -55.20636 1.192858
v -7.227003 -55.20636 1.192858
v -7.5592 -54.78489 -1.196328
v -4.937032 -54.01262 0.6064171
v -4.937032 -54.01262 0.6064171
v -7.5592 -54.78489 -1.196328
v -4.706606 -53.66569 -0.39635
v -4.706606 -53.66569 -0.39635
v -7.5592 -54.78489 -1.196328
v -6.004576 -54.05524 -1.258387
v -4.706606 -53.66569 -0.39635
v -6.004576 -54.05524 -1.258387
v -5.226479 -52.71178 -0.4322532
v -5.226479 -52.71178 -0.4322532
v -6.004576 -54.05524 -1.258387
v -6.31662 -53.50556 -1.286309
v -6.31662 -53.50556 -1.286309
v -6.004576 -54.05524 -1.258387
v -6.370747 -53.75367 -1.386881
v -5.416102 -53.93291 1.631187
v -5.95824 -53.04698 1.737778
v -5.750901 -54.07716 1.799813
v -7.448999 -53.18911 -0.8822532
v -7.424082 -53.0999 -0.7823135
v -6.31662 -53.50556 -1.286309
v -6.31662 -53.50556 -1.286309
v -7.424082 -53.0999 -0.7823135
v -5.226479 -52.71178 -0.4322532
v -5.226479 -52.71178 -0.4322532
v -7.424082 -53.0999 -0.7823135
v -5.612075 -52.34759 -0.004502684
v -5.612075 -52.34759 -0.004502684
v -7.424082 -53.0999 -0.7823135
v -7.221626 -52.90044 -0.5648524
v -6.004576 -54.05524 -1.258387
v -7.5592 -54.78489 -1.196328
v -6.370747 -53.75367 -1.386881
v -6.370747 -53.75367 -1.386881
v -7.5592 -54.78489 -1.196328
v -6.447218 -53.78712 -1.384563
v -6.447218 -53.78712 -1.384563
v -7.5592 -54.78489 -1.196328
v -7.553071 -54.66671 -1.231427

vn -0.8154823 0.1471836 0.559755
vn -0.8154823 0.1471836 0.559755
vn -0.8154823 0.1471836 0.559755
vn -0.8154823 0.1471836 0.559755
vn -0.8154823 0.1471836 0.559755
vn -0.8154823 0.1471836 0.559755
vn -0.8154823 0.1471836 0.559755
vn -0.8154823 0.1471836 0.559755
vn -0.8154823 0.1471836 0.559755
vn -0.8154823 0.1471836 0.559755
vn -0.8154823 0.1471836 0.559755
vn -0.8154823 0.1471836 0.559755
vn -0.3683189 -0.01815602 0.9295223
vn -0.3683189 -0.01815602 0.9295223
vn -0.3683189 -0.01815602 0.9295223
vn -0.3683189 -0.01815602 0.9295223
vn -0.3683189 -0.01815602 0.9295223
vn -0.3683189 -0.01815602 0.9295223
vn -0.3683189 -0.01815602 0.9295223
vn -0.3683189 -0.01815602 0.9295223
vn -0.3683189 -0.01815602 0.9295223
vn -0.3683189 -0.01815602 0.9295223
vn -0.3683189 -0.01815602 0.9295223
vn -0.3683189 -0.01815602 0.9295223
vn 0.8180476 0.4588799 0.3467381
vn 0.8180476 0.4588799 0.3467381
vn 0.8180476 0.4588799 0.3467381
vn 0.8180476 0.4588799 0.3467381
vn 0.8180476 0.4588799 0.3467381
vn 0.8180476 0.4588799 0.3467381
vn 0.8180476 0.4588799 0.3467381
vn 0.8180476 0.4588799 0.3467381
vn 0.8180476 0.4588799 0.3467381
vn 0.8180476 0.4588799 0.3467381
vn 0.8180476 0.4588799 0.3467381
vn 0.8180476 0.4588799 0.3467381
vn 0.8180476 0.4588799 0.3467381
vn 0.8180476 0.4588799 0.3467381
vn 0.8180476 0.4588799 0.3467381
vn 0.8180476 0.4588799 0.3467381
vn 0.8180476 0.4588799 0.3467381
vn 0.8180476 0.4588799 0.3467381
vn -0.3044797 0.9504246 -0.06312785
vn -0.3044797 0.9504246 -0.06312785
vn -0.3044797 0.9504246 -0.06312785
vn -0.3044797 0.9504246 -0.06312785
vn -0.3044797 0.9504246 -0.06312785
vn -0.3044797 0.9504246 -0.06312785
vn -0.3044797 0.9504246 -0.06312785
vn -0.3044797 0.9504246 -0.06312785
vn -0.3044797 0.9504246 -0.06312785
vn 0.5000991 -0.8134223 0.2970609
vn 0.5000991 -0.8134223 0.2970609
vn 0.5000991 -0.8134223 0.2970609
vn 0.5000991 -0.8134223 0.2970609
vn 0.5000991 -0.8134223 0.2970609
vn 0.5000991 -0.8134223 0.2970609
vn -0.4282033 0.8068452 0.4069923
vn -0.4282033 0.8068452 0.4069923
vn -0.4282033 0.8068452 0.4069923
vn -0.4282033 0.8068452 0.4069923
vn -0.4282033 0.8068452 0.4069923
vn -0.4282033 0.8068452 0.4069923
vn -0.6217658 0.7724096 -0.1295788
vn -0.6217658 0.7724096 -0.1295788
vn -0.6217658 0.7724096 -0.1295788
vn -0.6217658 0.7724096 -0.1295788
vn -0.6217658 0.7724096 -0.1295788
vn -0.6217658 0.7724096 -0.1295788
vn -0.6217658 0.7724096 -0.1295788
vn -0.6217658 0.7724096 -0.1295788
vn -0.6217658 0.7724096 -0.1295788
vn -0.7601087 0.5672831 -0.3168985
vn -0.7601087 0.5672831 -0.3168985
vn -0.7601087 0.5672831 -0.3168985
vn -0.7601087 0.5672831 -0.3168985
vn -0.7601087 0.5672831 -0.3168985
vn -0.7601087 0.5672831 -0.3168985
vn -0.2044845 0.4057089 -0.8908346
vn -0.2044845 0.4057089 -0.8908346
vn -0.2044845 0.4057089 -0.8908346
vn -0.2044845 0.4057089 -0.8908346
vn -0.2044845 0.4057089 -0.8908346
vn -0.2044845 0.4057089 -0.8908346
vn -0.2044845 0.4057089 -0.8908346
vn -0.2044845 0.4057089 -0.8908346
vn -0.2044845 0.4057089 -0.8908346
vn -0.2044845 0.4057089 -0.8908346
vn -0.2044845 0.4057089 -0.8908346
vn -0.2044845 0.4057089 -0.8908346
vn -0.251511 0.1497394 -0.9562011
vn -0.251511 0.1497394 -0.9562011
vn -0.251511 0.1497394 -0.9562011
vn -0.9962597 0.02732573 -0.08197518
vn -0.9962597 0.02732573 -0.08197518
vn -0.9962597 0.02732573 -0.08197518
vn -0.9962597 0.02732573 -0.08197518
vn -0.9962597 0.02732573 -0.08197518
vn -0.9962597 0.02732573 -0.08197518
vn -0.9962597 0.02732573 -0.08197518
vn -0.9962597 0.02732573 -0.08197518
vn -0.9962597 0.02732573 -0.08197518
vn -0.9962597 0.02732573 -0.08197518
vn -0.9962597 0.02732573 -0.08197518
vn -0.9962597 0.02732573 -0.08197518
vn -0.9962597 0.02732573 -0.08197518
vn -0.9962597 0.02732573 -0.08197518
vn -0.9962597 0.02732573 -0.08197518
vn 0.4081003 -0.8876616 -0.2133333
vn 0.4081003 -0.8876616 -0.2133333
vn 0.4081003 -0.8876616 -0.2133333
vn 0.4081003 -0.8876616 -0.2133333
vn 0.4081003 -0.8876616 -0.2133333
vn 0.4081003 -0.8876616 -0.2133333
vn 0.4081003 -0.8876616 -0.2133333
vn 0.4081003 -0.8876616 -0.2133333
vn 0.4081003 -0.8876616 -0.2133333
vn 0.4081003 -0.8876616 -0.2133333
vn 0.4081003 -0.8876616 -0.2133333
vn 0.4081003 -0.8876616 -0.2133333
vn 0.4081003 -0.8876616 -0.2133333
vn 0.4081003 -0.8876616 -0.2133333
vn 0.4081003 -0.8876616 -0.2133333
vn 0.488055 0.2343432 -0.840765
vn 0.488055 0.2343432 -0.840765
vn 0.488055 0.2343432 -0.840765
vn 0.488055 0.2343432 -0.840765
vn 0.488055 0.2343432 -0.840765
vn 0.488055 0.2343432 -0.840765
vn 0.488055 0.2343432 -0.840765
vn 0.488055 0.2343432 -0.840765
vn 0.488055 0.2343432 -0.840765
vn 0.3987605 0.1348619 0.9070846
vn 0.3987605 0.1348619 0.9070846
vn 0.3987605 0.1348619 0.9070846
vn -0.02684785 0.7490631 -0.6619545
vn -0.02684785 0.7490631 -0.6619545
vn -0.02684785 0.7490631 -0.6619545
vn -0.02684785 0.7490631 -0.6619545
vn -0.02684785 0.7490631 -0.6619545
vn -0.02684785 0.7490631 -0.6619545
vn -0.02684785 0.7490631 -0.6619545
vn -0.02684785 0.7490631 -0.6619545
vn -0.02684785 0.7490631 -0.6619545
vn -0.02684785 0.7490631 -0.6619545
vn -0.02684785 0.7490631 -0.6619545
vn -0.02684785 0.7490631 -0.6619545
vn 0.09713214 -0.2879913 -0.9526943
vn 0.09713214 -0.2879913 -0.9526943
vn 0.09713214 -0.2879913 -0.9526943
vn 0.09713214 -0.2879913 -0.9526943
vn 0.09713214 -0.2879913 -0.9526943
vn 0.09713214 -0.2879913 -0.9526943
vn 0.09713214 -0.2879913 -0.9526943
vn 0.09713214 -0.2879913 -0.9526943
vn 0.09713214 -0.2879913 -0.9526943

vt 0.5483473 0.5175908
vt 0.5233146 0.5484739
vt 0.5896747 0.4018029
vt 0.5896747 0.4018029
vt 0.5233146 0.5484739
vt 0.5896372 0.4004481
vt 0.5896372 0.4004481
vt 0.5233146 0.5484739
vt 0.2626417 0.4483009
vt 0.2626417 0.4483009
vt 0.5233146 0.5484739
vt 0.2565898 0.4838576
vt 0.3083006 0.5591432
vt 0.3215623 0.5206473
vt 0.5915217 0.4781901
vt 0.5915217 0.4781901
vt 0.3215623 0.5206473
vt 0.6130948 0.4090174
vt 0.6130948 0.4090174
vt 0.3215623 0.5206473
vt 0.5509818 0.3763389
vt 0.5509818 0.3763389
vt 0.3215623 0.5206473
vt 0.4421974 0.3527547
vt 0.6028379 0.4751618
vt 0.582943 0.5872136
vt 0.5709893 0.3606536
vt 0.5709893 0.3606536
vt 0.582943 0.5872136
vt 0.4622048 0.3487467
vt 0.4622048 0.3487467
vt 0.582943 0.5872136
vt 0.3935899 0.3601802
vt 0.3935899 0.3601802
vt 0.582943 0.5872136
vt 0.3923617 0.3631757
vt 0.3923617 0.3631757
vt 0.582943 0.5872136
vt 0.4160256 0.5434299
vt 0.4160256 0.5434299
vt 0.582943 0.5872136
vt 0.4690865 0.5912263
vt 0.5386905 0.3313738
vt 0.600691 0.4905893
vt 0.4743837 0.3538283
vt 0.4743837 0.3538283
vt 0.600691 0.4905893
vt 0.4107565 0.4336563
vt 0.4107565 0.4336563
vt 0.600691 0.4905893
vt 0.4330891 0.545905
vt 0.3846597 0.4706709
vt 0.4223822 0.3601755
vt 0.6498844 0.4074376
vt 0.6498844 0.4074376
vt 0.4223822 0.3601755
vt 0.4595234 0.3419963
vt 0.4929472 0.4061625
vt 0.4934722 0.4050469
vt 0.5623825 0.3793626
vt 0.5623825 0.3793626
vt 0.4934722 0.4050469
vt 0.5613418 0.3761983
vt 0.4410489 0.5596964
vt 0.4251058 0.5403922
vt 0.4690865 0.5379545
vt 0.4690865 0.5379545
vt 0.4251058 0.5403922
vt 0.4506776 0.4242526
vt 0.4506776 0.4242526
vt 0.4251058 0.5403922
vt 0.4254058 0.4458164
vt 0.4398957 0.5522147
vt 0.451587 0.5150313
vt 0.4581218 0.5470488
vt 0.4581218 0.5470488
vt 0.451587 0.5150313
vt 0.4670754 0.5361357
vt 0.5134515 0.6139526
vt 0.4788277 0.6618523
vt 0.3254625 0.4215197
vt 0.3254625 0.4215197
vt 0.4788277 0.6618523
vt 0.2929435 0.4440163
vt 0.2929435 0.4440163
vt 0.4788277 0.6618523
vt 0.2618964 0.5149657
vt 0.2618964 0.5149657
vt 0.4788277 0.6618523
vt 0.4607938 0.6607553
vt 0.5164798 0.5615809
vt 0.5335527 0.4470868
vt 0.6194139 0.5631466
vt 0.369312 0.6045021
vt 0.3131478 0.406125
vt 0.3809845 0.6079804
vt 0.3809845 0.6079804
vt 0.3131478 0.406125
vt 0.4798121 0.5928389
vt 0.4798121 0.5928389
vt 0.3131478 0.406125
vt 0.5118858 0.5781006
vt 0.5118858 0.5781006
vt 0.3131478 0.406125
vt 0.5274398 0.5444236
vt 0.5274398 0.5444236
vt 0.3131478 0.406125
vt 0.5369279 0.4507995
vt 0.6866928 0.3944431
vt 0.6464623 0.6008738
vt 0.6699106 0.3688666
vt 0.6699106 0.3688666
vt 0.6464623 0.6008738
vt 0.6338053 0.354808
vt 0.6338053 0.354808
vt 0.6464623 0.6008738
vt 0.3742669 0.4152052
vt 0.3742669 0.4152052
vt 0.6464623 0.6008738
vt 0.3386211 0.5184909
vt 0.3386211 0.5184909
vt 0.6464623 0.6008738
vt 0.4736618 0.6072773
vt 0.6342085 0.3075131
vt 0.5959563 0.5966361
vt 0.4372002 0.319556
vt 0.4372002 0.319556
vt 0.5959563 0.5966361
vt 0.4814528 0.6060022
vt 0.4814528 0.6060022
vt 0.5959563 0.5966361
vt 0.5178112 0.6397354
vt 0.4307921 0.4439788
vt 0.5230615 0.5073434
vt 0.4128379 0.483117
vt 0.3534907 0.544358
vt 0.3571753 0.5268726
vt 0.5004289 0.615059
vt 0.5004289 0.615059
vt 0.3571753 0.5268726
vt 0.6470436 0.4656175
vt 0.6470436 0.4656175
vt 0.3571753 0.5268726
vt 0.5982158 0.3907632
vt 0.5982158 0.3907632
vt 0.3571753 0.5268726
vt 0.3846503 0.4888079
vt 0.4928816 0.4561623
vt 0.5636388 0.6104649
vt 0.4606954 0.4925019
vt 0.4606954 0.4925019
vt 0.5636388 0.6104649
vt 0.4639252 0.5000961
vt 0.4639252 0.5000961
vt 0.5636388 0.6104649
vt 0.55146 0.6098555

usemtl Material0
usemap Material0

usemtl Material1
usemap Material1
f 1/1/1 2/2/2 3/3/3
f 4/4/4 5/5/5 6/6/6
f 7/7/7 8/8/8 9/9/9
f 10/10/10 11/11/11 12/12/12
f 13/13/13 14/14/14 15/15/15
f 16/16/16 17/17/17 18/18/18
f 19/19/19 20/20/20 21/21/21
f 22/22/22 23/23/23 24/24/24
f 25/25/25 26/26/26 27/27/27
f 28/28/28 29/29/29 30/30/30
f 31/31/31 32/32/32 33/33/33
f 34/34/34 35/35/35 36/36/36
f 37/37/37 38/38/38 39/39/39
f 40/40/40 41/41/41 42/42/42
f 43/43/43 44/44/44 45/45/45
f 46/46/46 47/47/47 48/48/48
f 49/49/49 50/50/50 51/51/51
f 52/52/52 53/53/53 54/54/54
f 55/55/55 56/56/56 57/57/57
f 58/58/58 59/59/59 60/60/60
f 61/61/61 62/62/62 63/63/63
f 64/64/64 65/65/65 66/66/66
f 67/67/67 68/68/68 69/69/69
f 70/70/70 71/71/71 72/72/72
f 73/73/73 74/74/74 75/75/75
f 76/76/76 77/77/77 78/78/78
f 79/79/79 80/80/80 81/81/81
f 82/82/82 83/83/83 84/84/84
f 85/85/85 86/86/86 87/87/87
f 88/88/88 89/89/89 90/90/90
f 91/91/91 92/92/92 93/93/93
f 94/94/94 95/95/95 96/96/96
f 97/97/97 98/98/98 99/99/99
f 100/100/100 101/101/101 102/102/102
f 103/103/103 104/104/104 105/105/105
f 106/106/106 107/107/107 108/108/108
f 109/109/109 110/110/110 111/111/111
f 112/112/112 113/113/113 114/114/114
f 115/115/115 116/116/116 117/117/117
f 118/118/118 119/119/119 120/120/120
f 121/121/121 122/122/122 123/123/123
f 124/124/124 125/125/125 126/126/126
f 127/127/127 128/128/128 129/129/129
f 130/130/130 131/131/131 132/132/132
f 133/133/133 134/134/134 135/135/135
f 136/136/136 137/137/137 138/138/138
f 139/139/139 140/140/140 141/141/141
f 142/142/142 143/143/143 144/144/144
f 145/145/145 146/146/146 147/147/147
f 148/148/148 149/149/149 150/150/150
f 151/151/151 152/152/152 153/153/153
f 154/154/154 155/155/155 156/156/156
