g  Instance
v -8.606977 -45.57143 -2.511509
v -8.682726 -45.65653 -2.342666
v -8.452904 -44.82519 -1.330322
v -8.452904 -44.82519 -1.330322
v -8.682726 -45.65653 -2.342666
v -8.467901 -44.85435 -1.329648
v -8.467901 -44.85435 -1.329648
v -8.682726 -45.65653 -2.342666
v -8.722334 -45.69413 -2.236024
v -7.825016 -44.31485 -2.539335
v -7.910308 -44.86635 -3.274382
v -8.606977 -45.57143 -2.511509
v -8.606977 -45.57143 -2.511509
v -7.910308 -44.86635 -3.274382
v -8.176516 -45.26056 -3.205119
v -8.452904 -44.82519 -1.330322
v -8.467901 -44.85435 -1.329648
v -8.460684 -44.83617 -1.308536
v -8.452904 -44.82519 -1.330322
v -8.460684 -44.83617 -1.308536
v -8.422087 -44.76546 -1.217291
v -8.452904 -44.82519 -1.330322
v -7.825016 -44.31485 -2.539335
v -8.606977 -45.57143 -2.511509
v -7.686206 -43.95518 -1.963282
v -7.825016 -44.31485 -2.539335
v -8.072687 -44.30186 -1.330323
v -8.072687 -44.30186 -1.330323
v -7.825016 -44.31485 -2.539335
v -8.452904 -44.82519 -1.330322
v -8.452904 -44.82519 -1.330322
v -8.422087 -44.76546 -1.217291
v -8.072687 -44.30186 -1.330323
v -8.072687 -44.30186 -1.330323
v -8.422087 -44.76546 -1.217291
v -8.291029 -44.53937 -0.9189048
v -7.910308 -44.86635 -3.274382
v -7.825016 -44.31485 -2.539335
v -7.262432 -44.03077 -3.369466
v -7.075446 -43.81646 -3.380977
v -7.262432 -44.03077 -3.369466
v -6.967436 -43.48075 -2.920314
v -6.967436 -43.48075 -2.920314
v -7.262432 -44.03077 -3.369466
v -7.282771 -43.67104 -2.523516
v -7.282771 -43.67104 -2.523516
v -7.262432 -44.03077 -3.369466
v -7.825016 -44.31485 -2.539335
v -7.282771 -43.67104 -2.523516
v -7.825016 -44.31485 -2.539335
v -7.686206 -43.95518 -1.963282
v -6.858837 -43.5519 -3.287166
v -6.880709 -43.61863 -3.37791
v -6.891972 -43.44512 -3.002467
v -6.891972 -43.44512 -3.002467
v -6.880709 -43.61863 -3.37791
v -6.967436 -43.48075 -2.920314
v -6.967436 -43.48075 -2.920314
v -6.880709 -43.61863 -3.37791
v -7.075446 -43.81646 -3.380977
v -8.606977 -45.57143 -2.511509
v -8.616924 -45.59674 -2.514411
v -8.682726 -45.65653 -2.342666
v -8.606977 -45.57143 -2.511509
v -8.603474 -45.58803 -2.542408
v -8.616924 -45.59674 -2.514411
v -8.176516 -45.26056 -3.205119
v -8.263781 -45.40575 -3.172942
v -8.606977 -45.57143 -2.511509
v -8.606977 -45.57143 -2.511509
v -8.263781 -45.40575 -3.172942
v -8.603474 -45.58803 -2.542408
v -8.722334 -45.69413 -2.236024
v -8.682726 -45.65653 -2.342666
v -7.602727 -46.33932 -1.789456
v -7.602727 -46.33932 -1.789456
v -8.682726 -45.65653 -2.342666
v -7.150634 -46.48365 -1.844577
v -7.150634 -46.48365 -1.844577
v -8.682726 -45.65653 -2.342666
v -8.263781 -45.40575 -3.172942
v -8.263781 -45.40575 -3.172942
v -8.682726 -45.65653 -2.342666
v -8.603474 -45.58803 -2.542408
v -8.603474 -45.58803 -2.542408
v -8.682726 -45.65653 -2.342666
v -8.616924 -45.59674 -2.514411
v -7.086918 -46.49596 -1.797858
v -7.235491 -46.41157 -1.529269
v -7.150634 -46.48365 -1.844577
v -7.150634 -46.48365 -1.844577
v -7.235491 -46.41157 -1.529269
v -7.602727 -46.33932 -1.789456
v -6.690997 -45.71579 -2.01593
v -7.271239 -45.01997 -0.7856175
v -7.086918 -46.49596 -1.797858
v -7.086918 -46.49596 -1.797858
v -7.271239 -45.01997 -0.7856175
v -7.235491 -46.41157 -1.529269
v -7.235491 -46.41157 -1.529269
v -7.271239 -45.01997 -0.7856175
v -7.410892 -45.10186 -0.6129777
v -8.176516 -45.26056 -3.205119
v -7.910308 -44.86635 -3.274382
v -8.263781 -45.40575 -3.172942
v -8.263781 -45.40575 -3.172942
v -7.910308 -44.86635 -3.274382
v -7.150634 -46.48365 -1.844577
v -7.150634 -46.48365 -1.844577
v -7.910308 -44.86635 -3.274382
v -7.086918 -46.49596 -1.797858
v -7.086918 -46.49596 -1.797858
v -7.910308 -44.86635 -3.274382
v -6.690997 -45.71579 -2.01593
v -6.690997 -45.71579 -2.01593
v -7.910308 -44.86635 -3.274382
v -6.640555 -43.86003 -3.086068
v -6.640555 -43.86003 -3.086068
v -7.910308 -44.86635 -3.274382
v -6.799614 -43.65005 -3.309089
v -6.799614 -43.65005 -3.309089
v -7.910308 -44.86635 -3.274382
v -6.880709 -43.61863 -3.37791
v -6.880709 -43.61863 -3.37791
v -7.910308 -44.86635 -3.274382
v -7.075446 -43.81646 -3.380977
v -7.075446 -43.81646 -3.380977
v -7.910308 -44.86635 -3.274382
v -7.262432 -44.03077 -3.369466
v -6.799614 -43.65005 -3.309089
v -6.880709 -43.61863 -3.37791
v -6.858837 -43.5519 -3.287166
v -6.690997 -45.71579 -2.01593
v -6.640555 -43.86003 -3.086068
v -7.271239 -45.01997 -0.7856175
v -7.271239 -45.01997 -0.7856175
v -6.640555 -43.86003 -3.086068
v -6.77334 -43.60489 -2.85273
v -7.282771 -43.67104 -2.523516
v -7.686206 -43.95518 -1.963282
v -6.967436 -43.48075 -2.920314
v -6.967436 -43.48075 -2.920314
v -7.686206 -43.95518 -1.963282
v -6.891972 -43.44512 -3.002467
v -6.891972 -43.44512 -3.002467
v -7.686206 -43.95518 -1.963282
v -6.77334 -43.60489 -2.85273
v -6.77334 -43.60489 -2.85273
v -7.686206 -43.95518 -1.963282
v -7.271239 -45.01997 -0.7856175
v -7.271239 -45.01997 -0.7856175
v -7.686206 -43.95518 -1.963282
v -7.410892 -45.10186 -0.6129777
v -7.410892 -45.10186 -0.6129777
v -7.686206 -43.95518 -1.963282
v -8.291029 -44.53937 -0.9189048
v -8.291029 -44.53937 -0.9189048
v -7.686206 -43.95518 -1.963282
v -8.072687 -44.30186 -1.330323
v -8.291029 -44.53937 -0.9189048
v -8.422087 -44.76546 -1.217291
v -7.410892 -45.10186 -0.6129777
v -7.410892 -45.10186 -0.6129777
v -8.422087 -44.76546 -1.217291
v -7.235491 -46.41157 -1.529269
v -7.235491 -46.41157 -1.529269
v -8.422087 -44.76546 -1.217291
v -7.602727 -46.33932 -1.789456
v -7.602727 -46.33932 -1.789456
v -8.422087 -44.76546 -1.217291
v -8.722334 -45.69413 -2.236024
v -8.722334 -45.69413 -2.236024
v -8.422087 -44.76546 -1.217291
v -8.467901 -44.85435 -1.329648
v -8.467901 -44.85435 -1.329648
v -8.422087 -44.76546 -1.217291
v -8.460684 -44.83617 -1.308536
v -6.799614 -43.65005 -3.309089
v -6.858837 -43.5519 -3.287166
v -6.640555 -43.86003 -3.086068
v -6.640555 -43.86003 -3.086068
v -6.858837 -43.5519 -3.287166
v -6.77334 -43.60489 -2.85273
v -6.77334 -43.60489 -2.85273
v -6.858837 -43.5519 -3.287166
v -6.891972 -43.44512 -3.002467

vn -0.8781881 0.4477251 -0.1683088
vn -0.8781881 0.4477251 -0.1683088
vn -0.8781881 0.4477251 -0.1683088
vn -0.8781881 0.4477251 -0.1683088
vn -0.8781881 0.4477251 -0.1683088
vn -0.8781881 0.4477251 -0.1683088
vn -0.8781881 0.4477251 -0.1683088
vn -0.8781881 0.4477251 -0.1683088
vn -0.8781881 0.4477251 -0.1683088
vn -0.8173375 0.5023787 -0.2820907
vn -0.8173375 0.5023787 -0.2820907
vn -0.8173375 0.5023787 -0.2820907
vn -0.8173375 0.5023787 -0.2820907
vn -0.8173375 0.5023787 -0.2820907
vn -0.8173375 0.5023787 -0.2820907
vn -0.8866771 0.4539502 -0.08793657
vn -0.8866771 0.4539502 -0.08793657
vn -0.8866771 0.4539502 -0.08793657
vn -0.8529099 0.5203314 -0.04242483
vn -0.8529099 0.5203314 -0.04242483
vn -0.8529099 0.5203314 -0.04242483
vn -0.8312373 0.5125084 -0.2153597
vn -0.8312373 0.5125084 -0.2153597
vn -0.8312373 0.5125084 -0.2153597
vn -0.7973059 0.5792703 -0.1695564
vn -0.7973059 0.5792703 -0.1695564
vn -0.7973059 0.5792703 -0.1695564
vn -0.7973059 0.5792703 -0.1695564
vn -0.7973059 0.5792703 -0.1695564
vn -0.7973059 0.5792703 -0.1695564
vn -0.8057606 0.5854133 -0.08967265
vn -0.8057606 0.5854133 -0.08967265
vn -0.8057606 0.5854133 -0.08967265
vn -0.8057606 0.5854133 -0.08967265
vn -0.8057606 0.5854133 -0.08967265
vn -0.8057606 0.5854133 -0.08967265
vn -0.7642812 0.555277 -0.3279355
vn -0.7642812 0.555277 -0.3279355
vn -0.7642812 0.555277 -0.3279355
vn -0.7303675 0.6220829 -0.2820923
vn -0.7303675 0.6220829 -0.2820923
vn -0.7303675 0.6220829 -0.2820923
vn -0.7303675 0.6220829 -0.2820923
vn -0.7303675 0.6220829 -0.2820923
vn -0.7303675 0.6220829 -0.2820923
vn -0.7303675 0.6220829 -0.2820923
vn -0.7303675 0.6220829 -0.2820923
vn -0.7303675 0.6220829 -0.2820923
vn -0.7442957 0.6321738 -0.2153606
vn -0.7442957 0.6321738 -0.2153606
vn -0.7442957 0.6321738 -0.2153606
vn -0.67079 0.6653687 -0.3276054
vn -0.67079 0.6653687 -0.3276054
vn -0.67079 0.6653687 -0.3276054
vn -0.67079 0.6653687 -0.3276054
vn -0.67079 0.6653687 -0.3276054
vn -0.67079 0.6653687 -0.3276054
vn -0.67079 0.6653687 -0.3276054
vn -0.67079 0.6653687 -0.3276054
vn -0.67079 0.6653687 -0.3276054
vn -0.9007378 0.3783233 -0.2134078
vn -0.9007378 0.3783233 -0.2134078
vn -0.9007378 0.3783233 -0.2134078
vn -0.8748229 0.3783608 -0.302536
vn -0.8748229 0.3783608 -0.302536
vn -0.8748229 0.3783608 -0.302536
vn -0.8400935 0.4323409 -0.3276039
vn -0.8400935 0.4323409 -0.3276039
vn -0.8400935 0.4323409 -0.3276039
vn -0.8400935 0.4323409 -0.3276039
vn -0.8400935 0.4323409 -0.3276039
vn -0.8400935 0.4323409 -0.3276039
vn -0.3221111 -0.8489509 -0.4189595
vn -0.3221111 -0.8489509 -0.4189595
vn -0.3221111 -0.8489509 -0.4189595
vn -0.3221111 -0.8489509 -0.4189595
vn -0.3221111 -0.8489509 -0.4189595
vn -0.3221111 -0.8489509 -0.4189595
vn -0.3221111 -0.8489509 -0.4189595
vn -0.3221111 -0.8489509 -0.4189595
vn -0.3221111 -0.8489509 -0.4189595
vn -0.3221111 -0.8489509 -0.4189595
vn -0.3221111 -0.8489509 -0.4189595
vn -0.3221111 -0.8489509 -0.4189595
vn -0.3221111 -0.8489509 -0.4189595
vn -0.3221111 -0.8489509 -0.4189595
vn -0.3221111 -0.8489509 -0.4189595
vn -0.2856221 -0.9480794 0.1398767
vn -0.2856221 -0.9480794 0.1398767
vn -0.2856221 -0.9480794 0.1398767
vn -0.2856221 -0.9480794 0.1398767
vn -0.2856221 -0.9480794 0.1398767
vn -0.2856221 -0.9480794 0.1398767
vn 0.8073074 -0.2618708 0.5288465
vn 0.8073074 -0.2618708 0.5288465
vn 0.8073074 -0.2618708 0.5288465
vn 0.8073074 -0.2618708 0.5288465
vn 0.8073074 -0.2618708 0.5288465
vn 0.8073074 -0.2618708 0.5288465
vn 0.8073074 -0.2618708 0.5288465
vn 0.8073074 -0.2618708 0.5288465
vn 0.8073074 -0.2618708 0.5288465
vn 0.4696834 -0.4505679 -0.759201
vn 0.4696834 -0.4505679 -0.759201
vn 0.4696834 -0.4505679 -0.759201
vn 0.4696834 -0.4505679 -0.759201
vn 0.4696834 -0.4505679 -0.759201
vn 0.4696834 -0.4505679 -0.759201
vn 0.4696834 -0.4505679 -0.759201
vn 0.4696834 -0.4505679 -0.759201
vn 0.4696834 -0.4505679 -0.759201
vn 0.4696834 -0.4505679 -0.759201
vn 0.4696834 -0.4505679 -0.759201
vn 0.4696834 -0.4505679 -0.759201
vn 0.4696834 -0.4505679 -0.759201
vn 0.4696834 -0.4505679 -0.759201
vn 0.4696834 -0.4505679 -0.759201
vn 0.4696834 -0.4505679 -0.759201
vn 0.4696834 -0.4505679 -0.759201
vn 0.4696834 -0.4505679 -0.759201
vn 0.4696834 -0.4505679 -0.759201
vn 0.4696834 -0.4505679 -0.759201
vn 0.4696834 -0.4505679 -0.759201
vn 0.4696834 -0.4505679 -0.759201
vn 0.4696834 -0.4505679 -0.759201
vn 0.4696834 -0.4505679 -0.759201
vn 0.4696834 -0.4505679 -0.759201
vn 0.4696834 -0.4505679 -0.759201
vn 0.4696834 -0.4505679 -0.759201
vn 0.6608971 0.51967 -0.5414408
vn 0.6608971 0.51967 -0.5414408
vn 0.6608971 0.51967 -0.5414408
vn 0.9249241 0.1707279 0.3396578
vn 0.9249241 0.1707279 0.3396578
vn 0.9249241 0.1707279 0.3396578
vn 0.9249241 0.1707279 0.3396578
vn 0.9249241 0.1707279 0.3396578
vn 0.9249241 0.1707279 0.3396578
vn 0.2809622 0.759039 0.587299
vn 0.2809622 0.759039 0.587299
vn 0.2809622 0.759039 0.587299
vn 0.2809622 0.759039 0.587299
vn 0.2809622 0.759039 0.587299
vn 0.2809622 0.759039 0.587299
vn 0.2809622 0.759039 0.587299
vn 0.2809622 0.759039 0.587299
vn 0.2809622 0.759039 0.587299
vn 0.2809622 0.759039 0.587299
vn 0.2809622 0.759039 0.587299
vn 0.2809622 0.759039 0.587299
vn 0.2809622 0.759039 0.587299
vn 0.2809622 0.759039 0.587299
vn 0.2809622 0.759039 0.587299
vn 0.2809622 0.759039 0.587299
vn 0.2809622 0.759039 0.587299
vn 0.2809622 0.759039 0.587299
vn 0.2809622 0.759039 0.587299
vn 0.2809622 0.759039 0.587299
vn 0.2809622 0.759039 0.587299
vn -0.5585378 -0.5244163 0.6426688
vn -0.5585378 -0.5244163 0.6426688
vn -0.5585378 -0.5244163 0.6426688
vn -0.5585378 -0.5244163 0.6426688
vn -0.5585378 -0.5244163 0.6426688
vn -0.5585378 -0.5244163 0.6426688
vn -0.5585378 -0.5244163 0.6426688
vn -0.5585378 -0.5244163 0.6426688
vn -0.5585378 -0.5244163 0.6426688
vn -0.5585378 -0.5244163 0.6426688
vn -0.5585378 -0.5244163 0.6426688
vn -0.5585378 -0.5244163 0.6426688
vn -0.5585378 -0.5244163 0.6426688
vn -0.5585378 -0.5244163 0.6426688
vn -0.5585378 -0.5244163 0.6426688
vn -0.5585378 -0.5244163 0.6426688
vn -0.5585378 -0.5244163 0.6426688
vn -0.5585378 -0.5244163 0.6426688
vn 0.8417495 0.5303321 -0.1010236
vn 0.8417495 0.5303321 -0.1010236
vn 0.8417495 0.5303321 -0.1010236
vn 0.8417495 0.5303321 -0.1010236
vn 0.8417495 0.5303321 -0.1010236
vn 0.8417495 0.5303321 -0.1010236
vn 0.8417495 0.5303321 -0.1010236
vn 0.8417495 0.5303321 -0.1010236
vn 0.8417495 0.5303321 -0.1010236

vt 0.5681813 0.196826
vt 0.5697636 0.1995667
vt 0.5568177 0.2165085
vt 0.5568177 0.2165085
vt 0.5697636 0.1995667
vt 0.5573059 0.2165085
vt 0.5573059 0.2165085
vt 0.5697636 0.1995667
vt 0.5704929 0.2013038
vt 0.545454 0.196826
vt 0.5535005 0.182889
vt 0.5681813 0.196826
vt 0.5681813 0.196826
vt 0.5535005 0.182889
vt 0.5607867 0.184018
vt 0.5568177 0.2165085
vt 0.5573059 0.2165085
vt 0.5570037 0.2168308
vt 0.5568177 0.2165085
vt 0.5570037 0.2168308
vt 0.5558521 0.2181808
vt 0.5568177 0.2165085
vt 0.545454 0.196826
vt 0.5681813 0.196826
vt 0.5400397 0.2062041
vt 0.545454 0.196826
vt 0.547417 0.2165085
vt 0.547417 0.2165085
vt 0.545454 0.196826
vt 0.5568177 0.2165085
vt 0.5568177 0.2165085
vt 0.5558521 0.2181808
vt 0.547417 0.2165085
vt 0.547417 0.2165085
vt 0.5558521 0.2181808
vt 0.5520745 0.2225956
vt 0.5535005 0.182889
vt 0.545454 0.196826
vt 0.5363668 0.1810863
vt 0.5319962 0.1807708
vt 0.5363668 0.1810863
vt 0.527085 0.1892773
vt 0.527085 0.1892773
vt 0.5363668 0.1810863
vt 0.5325283 0.196826
vt 0.5325283 0.196826
vt 0.5363668 0.1810863
vt 0.545454 0.196826
vt 0.5325283 0.196826
vt 0.545454 0.196826
vt 0.5400397 0.2062041
vt 0.5261543 0.1833249
vt 0.5271366 0.1816467
vt 0.5256042 0.1881603
vt 0.5256042 0.1881603
vt 0.5271366 0.1816467
vt 0.527085 0.1892773
vt 0.527085 0.1892773
vt 0.5271366 0.1816467
vt 0.5319962 0.1807708
vt 0.5681813 0.196826
vt 0.5686236 0.196826
vt 0.5697636 0.1995667
vt 0.5681813 0.196826
vt 0.5684519 0.1963573
vt 0.5686236 0.196826
vt 0.5607867 0.184018
vt 0.5637063 0.1850495
vt 0.5681813 0.196826
vt 0.5681813 0.196826
vt 0.5637063 0.1850495
vt 0.5684519 0.1963573
vt 0.5391124 0.4620173
vt 0.5365528 0.4747352
vt 0.4010013 0.4087689
vt 0.4010013 0.4087689
vt 0.5365528 0.4747352
vt 0.3496936 0.4153412
vt 0.3496936 0.4153412
vt 0.5365528 0.4747352
vt 0.503776 0.5737316
vt 0.503776 0.5737316
vt 0.5365528 0.4747352
vt 0.5311619 0.4985491
vt 0.5311619 0.4985491
vt 0.5365528 0.4747352
vt 0.5321932 0.4952114
vt 0.3632554 0.4802949
vt 0.3797985 0.4533637
vt 0.3696635 0.4849827
vt 0.3696635 0.4849827
vt 0.3797985 0.4533637
vt 0.4167756 0.4794558
vt 0.5298025 0.5726065
vt 0.4738774 0.4046906
vt 0.6299145 0.5428485
vt 0.6299145 0.5428485
vt 0.4738774 0.4046906
vt 0.6259299 0.5061902
vt 0.6259299 0.5061902
vt 0.4738774 0.4046906
vt 0.4878891 0.3811298
vt 0.5478504 0.595014
vt 0.477051 0.6110837
vt 0.5727987 0.5875418
vt 0.5727987 0.5875418
vt 0.477051 0.6110837
vt 0.5738956 0.2792646
vt 0.5738956 0.2792646
vt 0.477051 0.6110837
vt 0.5685703 0.2684218
vt 0.5685703 0.2684218
vt 0.477051 0.6110837
vt 0.4421318 0.3190309
vt 0.4421318 0.3190309
vt 0.477051 0.6110837
vt 0.2345807 0.5673844
vt 0.2345807 0.5673844
vt 0.477051 0.6110837
vt 0.2283273 0.6191373
vt 0.2283273 0.6191373
vt 0.477051 0.6110837
vt 0.2333807 0.6351132
vt 0.2333807 0.6351132
vt 0.477051 0.6110837
vt 0.2753034 0.6358258
vt 0.2753034 0.6358258
vt 0.477051 0.6110837
vt 0.3182153 0.6331537
vt 0.4541559 0.503715
vt 0.4454086 0.5132875
vt 0.440852 0.500668
vt 0.5930687 0.5236099
vt 0.4032749 0.6425387
vt 0.5105357 0.3868864
vt 0.5105357 0.3868864
vt 0.4032749 0.6425387
vt 0.3745295 0.6166059
vt 0.512364 0.6362383
vt 0.478387 0.5521585
vt 0.5402562 0.6957918
vt 0.5402562 0.6957918
vt 0.478387 0.5521585
vt 0.5473535 0.7081206
vt 0.5473535 0.7081206
vt 0.478387 0.5521585
vt 0.5676047 0.6856474
vt 0.5676047 0.6856474
vt 0.478387 0.5521585
vt 0.570558 0.3754295
vt 0.570558 0.3754295
vt 0.478387 0.5521585
vt 0.5581073 0.3495202
vt 0.5581073 0.3495202
vt 0.478387 0.5521585
vt 0.4341345 0.3954322
vt 0.4341345 0.3954322
vt 0.478387 0.5521585
vt 0.4489853 0.4571748
vt 0.557601 0.3742622
vt 0.5479629 0.4242386
vt 0.4276794 0.3230249
vt 0.4276794 0.3230249
vt 0.5479629 0.4242386
vt 0.2897511 0.4764885
vt 0.2897511 0.4764885
vt 0.5479629 0.4242386
vt 0.3287627 0.520066
vt 0.3287627 0.520066
vt 0.5479629 0.4242386
vt 0.4874532 0.5948641
vt 0.4874532 0.5948641
vt 0.5479629 0.4242386
vt 0.5436689 0.4430553
vt 0.5436689 0.4430553
vt 0.5479629 0.4242386
vt 0.5447377 0.4395207
vt 0.4423287 0.5950797
vt 0.431003 0.5929046
vt 0.4682614 0.5729347
vt 0.4682614 0.5729347
vt 0.431003 0.5929046
vt 0.4399332 0.5497583
vt 0.4399332 0.5497583
vt 0.431003 0.5929046
vt 0.4203243 0.5646373

usemtl Material0
usemap Material0
f 1/1/1 2/2/2 3/3/3
f 4/4/4 5/5/5 6/6/6
f 7/7/7 8/8/8 9/9/9
f 10/10/10 11/11/11 12/12/12
f 13/13/13 14/14/14 15/15/15
f 16/16/16 17/17/17 18/18/18
f 19/19/19 20/20/20 21/21/21
f 22/22/22 23/23/23 24/24/24
f 25/25/25 26/26/26 27/27/27
f 28/28/28 29/29/29 30/30/30
f 31/31/31 32/32/32 33/33/33
f 34/34/34 35/35/35 36/36/36
f 37/37/37 38/38/38 39/39/39
f 40/40/40 41/41/41 42/42/42
f 43/43/43 44/44/44 45/45/45
f 46/46/46 47/47/47 48/48/48
f 49/49/49 50/50/50 51/51/51
f 52/52/52 53/53/53 54/54/54
f 55/55/55 56/56/56 57/57/57
f 58/58/58 59/59/59 60/60/60
f 61/61/61 62/62/62 63/63/63
f 64/64/64 65/65/65 66/66/66
f 67/67/67 68/68/68 69/69/69
f 70/70/70 71/71/71 72/72/72

usemtl Material1
usemap Material1
f 73/73/73 74/74/74 75/75/75
f 76/76/76 77/77/77 78/78/78
f 79/79/79 80/80/80 81/81/81
f 82/82/82 83/83/83 84/84/84
f 85/85/85 86/86/86 87/87/87
f 88/88/88 89/89/89 90/90/90
f 91/91/91 92/92/92 93/93/93
f 94/94/94 95/95/95 96/96/96
f 97/97/97 98/98/98 99/99/99
f 100/100/100 101/101/101 102/102/102
f 103/103/103 104/104/104 105/105/105
f 106/106/106 107/107/107 108/108/108
f 109/109/109 110/110/110 111/111/111
f 112/112/112 113/113/113 114/114/114
f 115/115/115 116/116/116 117/117/117
f 118/118/118 119/119/119 120/120/120
f 121/121/121 122/122/122 123/123/123
f 124/124/124 125/125/125 126/126/126
f 127/127/127 128/128/128 129/129/129
f 130/130/130 131/131/131 132/132/132
f 133/133/133 134/134/134 135/135/135
f 136/136/136 137/137/137 138/138/138
f 139/139/139 140/140/140 141/141/141
f 142/142/142 143/143/143 144/144/144
f 145/145/145 146/146/146 147/147/147
f 148/148/148 149/149/149 150/150/150
f 151/151/151 152/152/152 153/153/153
f 154/154/154 155/155/155 156/156/156
f 157/157/157 158/158/158 159/159/159
f 160/160/160 161/161/161 162/162/162
f 163/163/163 164/164/164 165/165/165
f 166/166/166 167/167/167 168/168/168
f 169/169/169 170/170/170 171/171/171
f 172/172/172 173/173/173 174/174/174
f 175/175/175 176/176/176 177/177/177
f 178/178/178 179/179/179 180/180/180
f 181/181/181 182/182/182 183/183/183
f 184/184/184 185/185/185 186/186/186
