g  Instance
v -1.832305 -48.7028 -6.698207
v -2.117915 -49.02905 -6.868517
v -1.925502 -47.93153 -6.200418
v -1.925502 -47.93153 -6.200418
v -2.117915 -49.02905 -6.868517
v -2.601319 -48.15937 -6.260363
v -2.601319 -48.15937 -6.260363
v -2.117915 -49.02905 -6.868517
v -2.613583 -48.18411 -6.27444
v -1.021728 -51.10168 -5.015201
v -1.316589 -51.00935 -5.713983
v -0.9286407 -51.04398 -4.898194
v -0.9286407 -51.04398 -4.898194
v -1.316589 -51.00935 -5.713983
v -0.8009902 -49.4307 -6.5678
v -0.8009902 -49.4307 -6.5678
v -1.316589 -51.00935 -5.713983
v -0.9347926 -49.52572 -6.721562
v -0.9347926 -49.52572 -6.721562
v -1.316589 -51.00935 -5.713983
v -1.731168 -50.45535 -7.202467
v -1.834657 -50.61071 -3.137316
v -1.878456 -50.49714 -3.130825
v -2.13259 -50.89939 -3.180329
v -2.13259 -50.89939 -3.180329
v -1.878456 -50.49714 -3.130825
v -2.282617 -50.89978 -3.190079
v -2.282617 -50.89978 -3.190079
v -1.878456 -50.49714 -3.130825
v -2.299286 -50.86677 -3.188448
v -1.698321 -47.83862 -5.811191
v -1.645046 -47.82684 -5.94636
v -2.211767 -48.00214 -5.640311
v -2.211767 -48.00214 -5.640311
v -1.645046 -47.82684 -5.94636
v -2.845201 -48.2299 -6.017547
v -2.845201 -48.2299 -6.017547
v -1.645046 -47.82684 -5.94636
v -2.601319 -48.15937 -6.260363
v -2.601319 -48.15937 -6.260363
v -1.645046 -47.82684 -5.94636
v -1.925502 -47.93153 -6.200418
v -3.281904 -50.62842 -6.466117
v -3.098433 -50.64608 -6.694039
v -2.23731 -51.00185 -3.218977
v -2.23731 -51.00185 -3.218977
v -3.098433 -50.64608 -6.694039
v -2.207133 -51.00703 -3.218653
v -2.207133 -51.00703 -3.218653
v -3.098433 -50.64608 -6.694039
v -1.363168 -51.11531 -3.816699
v -1.363168 -51.11531 -3.816699
v -3.098433 -50.64608 -6.694039
v -0.9912705 -51.12698 -4.680582
v -0.9912705 -51.12698 -4.680582
v -3.098433 -50.64608 -6.694039
v -1.021728 -51.10168 -5.015201
v -1.021728 -51.10168 -5.015201
v -3.098433 -50.64608 -6.694039
v -1.316589 -51.00935 -5.713983
v -0.9347926 -49.52572 -6.721562
v -1.731168 -50.45535 -7.202467
v -1.832305 -48.7028 -6.698207
v -1.832305 -48.7028 -6.698207
v -1.731168 -50.45535 -7.202467
v -2.117915 -49.02905 -6.868517
v -2.117915 -49.02905 -6.868517
v -1.731168 -50.45535 -7.202467
v -2.254279 -50.41182 -7.320657
v -0.8009902 -49.4307 -6.5678
v -1.645046 -47.82684 -5.94636
v -0.9286407 -51.04398 -4.898194
v -0.9286407 -51.04398 -4.898194
v -1.645046 -47.82684 -5.94636
v -0.9912705 -51.12698 -4.680582
v -0.9912705 -51.12698 -4.680582
v -1.645046 -47.82684 -5.94636
v -1.363168 -51.11531 -3.816699
v -1.363168 -51.11531 -3.816699
v -1.645046 -47.82684 -5.94636
v -1.834657 -50.61071 -3.137316
v -1.834657 -50.61071 -3.137316
v -1.645046 -47.82684 -5.94636
v -1.878456 -50.49714 -3.130825
v -1.878456 -50.49714 -3.130825
v -1.645046 -47.82684 -5.94636
v -1.85147 -47.9669 -5.342436
v -1.85147 -47.9669 -5.342436
v -1.645046 -47.82684 -5.94636
v -1.698321 -47.83862 -5.811191
v -3.75548 -49.20158 -5.990062
v -2.845201 -48.2299 -6.017547
v -3.711796 -49.21346 -6.063971
v -3.711796 -49.21346 -6.063971
v -2.845201 -48.2299 -6.017547
v -2.613583 -48.18411 -6.27444
v -2.613583 -48.18411 -6.27444
v -2.845201 -48.2299 -6.017547
v -2.601319 -48.15937 -6.260363
v -1.021728 -51.10168 -5.015201
v -0.9286407 -51.04398 -4.898194
v -0.9912705 -51.12698 -4.680582
v -1.85147 -47.9669 -5.342436
v -1.698321 -47.83862 -5.811191
v -2.211767 -48.00214 -5.640311
v -3.281904 -50.62842 -6.466117
v -2.23731 -51.00185 -3.218977
v -3.343106 -50.5195 -6.484345
v -3.343106 -50.5195 -6.484345
v -2.23731 -51.00185 -3.218977
v -3.795242 -49.34903 -5.896046
v -3.795242 -49.34903 -5.896046
v -2.23731 -51.00185 -3.218977
v -2.299286 -50.86677 -3.188448
v -2.299286 -50.86677 -3.188448
v -2.23731 -51.00185 -3.218977
v -2.282617 -50.89978 -3.190079
v -3.343106 -50.5195 -6.484345
v -3.155383 -50.41685 -6.82799
v -3.281904 -50.62842 -6.466117
v -3.281904 -50.62842 -6.466117
v -3.155383 -50.41685 -6.82799
v -3.098433 -50.64608 -6.694039
v -3.098433 -50.64608 -6.694039
v -3.155383 -50.41685 -6.82799
v -2.954724 -50.53785 -6.984234
v -2.117915 -49.02905 -6.868517
v -2.254279 -50.41182 -7.320657
v -2.613583 -48.18411 -6.27444
v -2.613583 -48.18411 -6.27444
v -2.254279 -50.41182 -7.320657
v -3.711796 -49.21346 -6.063971
v -3.711796 -49.21346 -6.063971
v -2.254279 -50.41182 -7.320657
v -3.155383 -50.41685 -6.82799
v -3.155383 -50.41685 -6.82799
v -2.254279 -50.41182 -7.320657
v -2.954724 -50.53785 -6.984234
v -1.878456 -50.49714 -3.130825
v -1.85147 -47.9669 -5.342436
v -2.299286 -50.86677 -3.188448
v -2.299286 -50.86677 -3.188448
v -1.85147 -47.9669 -5.342436
v -3.795242 -49.34903 -5.896046
v -3.795242 -49.34903 -5.896046
v -1.85147 -47.9669 -5.342436
v -3.75548 -49.20158 -5.990062
v -3.75548 -49.20158 -5.990062
v -1.85147 -47.9669 -5.342436
v -2.845201 -48.2299 -6.017547
v -2.845201 -48.2299 -6.017547
v -1.85147 -47.9669 -5.342436
v -2.211767 -48.00214 -5.640311
v -2.282617 -50.89978 -3.190079
v -2.23731 -51.00185 -3.218977
v -2.13259 -50.89939 -3.180329
v -2.13259 -50.89939 -3.180329
v -2.23731 -51.00185 -3.218977
v -2.207133 -51.00703 -3.218653
v -2.13259 -50.89939 -3.180329
v -2.207133 -51.00703 -3.218653
v -1.834657 -50.61071 -3.137316
v -1.834657 -50.61071 -3.137316
v -2.207133 -51.00703 -3.218653
v -1.363168 -51.11531 -3.816699
v -3.711796 -49.21346 -6.063971
v -3.155383 -50.41685 -6.82799
v -3.75548 -49.20158 -5.990062
v -3.75548 -49.20158 -5.990062
v -3.155383 -50.41685 -6.82799
v -3.795242 -49.34903 -5.896046
v -3.795242 -49.34903 -5.896046
v -3.155383 -50.41685 -6.82799
v -3.343106 -50.5195 -6.484345
v -1.645046 -47.82684 -5.94636
v -0.8009902 -49.4307 -6.5678
v -1.925502 -47.93153 -6.200418
v -1.925502 -47.93153 -6.200418
v -0.8009902 -49.4307 -6.5678
v -1.832305 -48.7028 -6.698207
v -1.832305 -48.7028 -6.698207
v -0.8009902 -49.4307 -6.5678
v -0.9347926 -49.52572 -6.721562
v -3.098433 -50.64608 -6.694039
v -2.954724 -50.53785 -6.984234
v -1.316589 -51.00935 -5.713983
v -1.316589 -51.00935 -5.713983
v -2.954724 -50.53785 -6.984234
v -1.731168 -50.45535 -7.202467
v -1.731168 -50.45535 -7.202467
v -2.954724 -50.53785 -6.984234
v -2.254279 -50.41182 -7.320657

vn -0.1041948 0.5304051 -0.8413168
vn -0.1041948 0.5304051 -0.8413168
vn -0.1041948 0.5304051 -0.8413168
vn -0.1041948 0.5304051 -0.8413168
vn -0.1041948 0.5304051 -0.8413168
vn -0.1041948 0.5304051 -0.8413168
vn -0.1041948 0.5304051 -0.8413168
vn -0.1041948 0.5304051 -0.8413168
vn -0.1041948 0.5304051 -0.8413168
vn 0.7886091 -0.4712192 -0.3950292
vn 0.7886091 -0.4712192 -0.3950292
vn 0.7886091 -0.4712192 -0.3950292
vn 0.7886091 -0.4712192 -0.3950292
vn 0.7886091 -0.4712192 -0.3950292
vn 0.7886091 -0.4712192 -0.3950292
vn 0.7886091 -0.4712192 -0.3950292
vn 0.7886091 -0.4712192 -0.3950292
vn 0.7886091 -0.4712192 -0.3950292
vn 0.7886091 -0.4712192 -0.3950292
vn 0.7886091 -0.4712192 -0.3950292
vn 0.7886091 -0.4712192 -0.3950292
vn -0.06442902 -0.08169584 0.9945727
vn -0.06442902 -0.08169584 0.9945727
vn -0.06442902 -0.08169584 0.9945727
vn -0.06442902 -0.08169584 0.9945727
vn -0.06442902 -0.08169584 0.9945727
vn -0.06442902 -0.08169584 0.9945727
vn -0.06442902 -0.08169584 0.9945727
vn -0.06442902 -0.08169584 0.9945727
vn -0.06442902 -0.08169584 0.9945727
vn -0.3158493 0.9478827 -0.04192398
vn -0.3158493 0.9478827 -0.04192398
vn -0.3158493 0.9478827 -0.04192398
vn -0.3158493 0.9478827 -0.04192398
vn -0.3158493 0.9478827 -0.04192398
vn -0.3158493 0.9478827 -0.04192398
vn -0.3158493 0.9478827 -0.04192398
vn -0.3158493 0.9478827 -0.04192398
vn -0.3158493 0.9478827 -0.04192398
vn -0.3158493 0.9478827 -0.04192398
vn -0.3158493 0.9478827 -0.04192398
vn -0.3158493 0.9478827 -0.04192398
vn -0.1681106 -0.983996 -0.05908236
vn -0.1681106 -0.983996 -0.05908236
vn -0.1681106 -0.983996 -0.05908236
vn -0.1681106 -0.983996 -0.05908236
vn -0.1681106 -0.983996 -0.05908236
vn -0.1681106 -0.983996 -0.05908236
vn -0.1681106 -0.983996 -0.05908236
vn -0.1681106 -0.983996 -0.05908236
vn -0.1681106 -0.983996 -0.05908236
vn -0.1681106 -0.983996 -0.05908236
vn -0.1681106 -0.983996 -0.05908236
vn -0.1681106 -0.983996 -0.05908236
vn -0.1681106 -0.983996 -0.05908236
vn -0.1681106 -0.983996 -0.05908236
vn -0.1681106 -0.983996 -0.05908236
vn -0.1681106 -0.983996 -0.05908236
vn -0.1681106 -0.983996 -0.05908236
vn -0.1681106 -0.983996 -0.05908236
vn 0.2336881 0.2812913 -0.9307337
vn 0.2336881 0.2812913 -0.9307337
vn 0.2336881 0.2812913 -0.9307337
vn 0.2336881 0.2812913 -0.9307337
vn 0.2336881 0.2812913 -0.9307337
vn 0.2336881 0.2812913 -0.9307337
vn 0.2336881 0.2812913 -0.9307337
vn 0.2336881 0.2812913 -0.9307337
vn 0.2336881 0.2812913 -0.9307337
vn 0.8731312 0.3154982 0.371622
vn 0.8731312 0.3154982 0.371622
vn 0.8731312 0.3154982 0.371622
vn 0.8731312 0.3154982 0.371622
vn 0.8731312 0.3154982 0.371622
vn 0.8731312 0.3154982 0.371622
vn 0.8731312 0.3154982 0.371622
vn 0.8731312 0.3154982 0.371622
vn 0.8731312 0.3154982 0.371622
vn 0.8731312 0.3154982 0.371622
vn 0.8731312 0.3154982 0.371622
vn 0.8731312 0.3154982 0.371622
vn 0.8731312 0.3154982 0.371622
vn 0.8731312 0.3154982 0.371622
vn 0.8731312 0.3154982 0.371622
vn 0.8731312 0.3154982 0.371622
vn 0.8731312 0.3154982 0.371622
vn 0.8731312 0.3154982 0.371622
vn 0.8731312 0.3154982 0.371622
vn 0.8731312 0.3154982 0.371622
vn 0.8731312 0.3154982 0.371622
vn -0.6476508 0.5931981 -0.4781888
vn -0.6476508 0.5931981 -0.4781888
vn -0.6476508 0.5931981 -0.4781888
vn -0.6476508 0.5931981 -0.4781888
vn -0.6476508 0.5931981 -0.4781888
vn -0.6476508 0.5931981 -0.4781888
vn -0.6476508 0.5931981 -0.4781888
vn -0.6476508 0.5931981 -0.4781888
vn -0.6476508 0.5931981 -0.4781888
vn 0.6239285 -0.7729407 -0.115221
vn 0.6239285 -0.7729407 -0.115221
vn 0.6239285 -0.7729407 -0.115221
vn -0.2431297 0.9528891 0.181357
vn -0.2431297 0.9528891 0.181357
vn -0.2431297 0.9528891 0.181357
vn -0.8648113 -0.4480121 0.2266862
vn -0.8648113 -0.4480121 0.2266862
vn -0.8648113 -0.4480121 0.2266862
vn -0.8648113 -0.4480121 0.2266862
vn -0.8648113 -0.4480121 0.2266862
vn -0.8648113 -0.4480121 0.2266862
vn -0.8648113 -0.4480121 0.2266862
vn -0.8648113 -0.4480121 0.2266862
vn -0.8648113 -0.4480121 0.2266862
vn -0.8648113 -0.4480121 0.2266862
vn -0.8648113 -0.4480121 0.2266862
vn -0.8648113 -0.4480121 0.2266862
vn -0.7004989 -0.481724 -0.5265389
vn -0.7004989 -0.481724 -0.5265389
vn -0.7004989 -0.481724 -0.5265389
vn -0.7004989 -0.481724 -0.5265389
vn -0.7004989 -0.481724 -0.5265389
vn -0.7004989 -0.481724 -0.5265389
vn -0.7004989 -0.481724 -0.5265389
vn -0.7004989 -0.481724 -0.5265389
vn -0.7004989 -0.481724 -0.5265389
vn -0.4563628 0.3168759 -0.8314582
vn -0.4563628 0.3168759 -0.8314582
vn -0.4563628 0.3168759 -0.8314582
vn -0.4563628 0.3168759 -0.8314582
vn -0.4563628 0.3168759 -0.8314582
vn -0.4563628 0.3168759 -0.8314582
vn -0.4563628 0.3168759 -0.8314582
vn -0.4563628 0.3168759 -0.8314582
vn -0.4563628 0.3168759 -0.8314582
vn -0.4563628 0.3168759 -0.8314582
vn -0.4563628 0.3168759 -0.8314582
vn -0.4563628 0.3168759 -0.8314582
vn -0.5647223 0.5465351 0.6183754
vn -0.5647223 0.5465351 0.6183754
vn -0.5647223 0.5465351 0.6183754
vn -0.5647223 0.5465351 0.6183754
vn -0.5647223 0.5465351 0.6183754
vn -0.5647223 0.5465351 0.6183754
vn -0.5647223 0.5465351 0.6183754
vn -0.5647223 0.5465351 0.6183754
vn -0.5647223 0.5465351 0.6183754
vn -0.5647223 0.5465351 0.6183754
vn -0.5647223 0.5465351 0.6183754
vn -0.5647223 0.5465351 0.6183754
vn -0.5647223 0.5465351 0.6183754
vn -0.5647223 0.5465351 0.6183754
vn -0.5647223 0.5465351 0.6183754
vn -0.06117687 -0.2969537 0.9529303
vn -0.06117687 -0.2969537 0.9529303
vn -0.06117687 -0.2969537 0.9529303
vn -0.06117687 -0.2969537 0.9529303
vn -0.06117687 -0.2969537 0.9529303
vn -0.06117687 -0.2969537 0.9529303
vn 0.4332441 -0.5531847 0.711538
vn 0.4332441 -0.5531847 0.711538
vn 0.4332441 -0.5531847 0.711538
vn 0.4332441 -0.5531847 0.711538
vn 0.4332441 -0.5531847 0.711538
vn 0.4332441 -0.5531847 0.711538
vn -0.8637363 -0.08389479 -0.4969117
vn -0.8637363 -0.08389479 -0.4969117
vn -0.8637363 -0.08389479 -0.4969117
vn -0.8637363 -0.08389479 -0.4969117
vn -0.8637363 -0.08389479 -0.4969117
vn -0.8637363 -0.08389479 -0.4969117
vn -0.8637363 -0.08389479 -0.4969117
vn -0.8637363 -0.08389479 -0.4969117
vn -0.8637363 -0.08389479 -0.4969117
vn 0.4584164 0.5203816 -0.7204565
vn 0.4584164 0.5203816 -0.7204565
vn 0.4584164 0.5203816 -0.7204565
vn 0.4584164 0.5203816 -0.7204565
vn 0.4584164 0.5203816 -0.7204565
vn 0.4584164 0.5203816 -0.7204565
vn 0.4584164 0.5203816 -0.7204565
vn 0.4584164 0.5203816 -0.7204565
vn 0.4584164 0.5203816 -0.7204565
vn 0.0009427296 -0.9371013 -0.3490562
vn 0.0009427296 -0.9371013 -0.3490562
vn 0.0009427296 -0.9371013 -0.3490562
vn 0.0009427296 -0.9371013 -0.3490562
vn 0.0009427296 -0.9371013 -0.3490562
vn 0.0009427296 -0.9371013 -0.3490562
vn 0.0009427296 -0.9371013 -0.3490562
vn 0.0009427296 -0.9371013 -0.3490562
vn 0.0009427296 -0.9371013 -0.3490562

vt 0.5911466 0.4772385
vt 0.5287337 0.5345418
vt 0.6015535 0.3097492
vt 0.6015535 0.3097492
vt 0.5287337 0.5345418
vt 0.4729586 0.3299206
vt 0.4729586 0.3299206
vt 0.5287337 0.5345418
vt 0.4699022 0.3346553
vt 0.5385686 0.4118722
vt 0.5462753 0.4932707
vt 0.5281524 0.3982449
vt 0.5281524 0.3982449
vt 0.5462753 0.4932707
vt 0.372945 0.5927358
vt 0.372945 0.5927358
vt 0.5462753 0.4932707
vt 0.3890193 0.6106524
vt 0.3890193 0.6106524
vt 0.5462753 0.4932707
vt 0.5181299 0.6666713
vt 0.4340407 0.4351517
vt 0.4452445 0.4394738
vt 0.4053468 0.4645628
vt 0.4053468 0.4645628
vt 0.4452445 0.4394738
vt 0.4052297 0.4793714
vt 0.4052297 0.4793714
vt 0.4452445 0.4394738
vt 0.408483 0.4810168
vt 0.5973626 0.5506115
vt 0.6027067 0.5639248
vt 0.5443439 0.5337824
vt 0.5443439 0.5337824
vt 0.6027067 0.5639248
vt 0.4781292 0.5709283
vt 0.4781292 0.5709283
vt 0.6027067 0.5639248
vt 0.5030916 0.5948453
vt 0.5030916 0.5948453
vt 0.6027067 0.5639248
vt 0.5732675 0.5889481
vt 0.5858026 0.6170653
vt 0.5676984 0.6395479
vt 0.4782089 0.2967171
vt 0.4782089 0.2967171
vt 0.5676984 0.6395479
vt 0.4751946 0.2966843
vt 0.4751946 0.2966843
vt 0.5676984 0.6395479
vt 0.3914663 0.3556846
vt 0.3914663 0.3556846
vt 0.5676984 0.6395479
vt 0.355169 0.4409083
vt 0.355169 0.4409083
vt 0.5676984 0.6395479
vt 0.3585488 0.4739196
vt 0.3585488 0.4739196
vt 0.5676984 0.6395479
vt 0.3887053 0.5428579
vt 0.5046854 0.3999465
vt 0.6087258 0.4827607
vt 0.4243605 0.4932801
vt 0.4243605 0.4932801
vt 0.6087258 0.4827607
vt 0.4609157 0.5229818
vt 0.4609157 0.5229818
vt 0.6087258 0.4827607
vt 0.6079664 0.5371576
vt 0.4935566 0.6890601
vt 0.3034535 0.618181
vt 0.6496407 0.4986241
vt 0.6496407 0.4986241
vt 0.3034535 0.618181
vt 0.6556504 0.4738024
vt 0.6556504 0.4738024
vt 0.3034535 0.618181
vt 0.6411089 0.3752701
vt 0.6411089 0.3752701
vt 0.3034535 0.618181
vt 0.5738863 0.2977813
vt 0.5738863 0.2977813
vt 0.3034535 0.618181
vt 0.5610043 0.2970406
vt 0.5610043 0.2970406
vt 0.3034535 0.618181
vt 0.3099742 0.5492989
vt 0.3099742 0.5492989
vt 0.3034535 0.618181
vt 0.3027081 0.6027676
vt 0.4263996 0.4881141
vt 0.5754238 0.4916112
vt 0.4287201 0.4975272
vt 0.4287201 0.4975272
vt 0.5754238 0.4916112
vt 0.5967157 0.5243506
vt 0.5967157 0.5243506
vt 0.5754238 0.4916112
vt 0.5996878 0.5225599
vt 0.4771635 0.4607891
vt 0.4664097 0.4491306
vt 0.47639 0.4274497
vt 0.5679234 0.5442549
vt 0.5859244 0.5919014
vt 0.5321464 0.5745285
vt 0.4752274 0.6528612
vt 0.3932571 0.3163355
vt 0.4878329 0.6547456
vt 0.4878329 0.6547456
vt 0.3932571 0.3163355
vt 0.613723 0.5937765
vt 0.613723 0.5937765
vt 0.3932571 0.3163355
vt 0.4082392 0.3131712
vt 0.4082392 0.3131712
vt 0.3932571 0.3163355
vt 0.4045078 0.31334
vt 0.5067105 0.5433829
vt 0.5041885 0.5901294
vt 0.4923191 0.5409078
vt 0.4923191 0.5409078
vt 0.5041885 0.5901294
vt 0.4786167 0.5719127
vt 0.4786167 0.5719127
vt 0.5041885 0.5901294
vt 0.4795121 0.6113837
vt 0.6196014 0.595886
vt 0.4048593 0.7398943
vt 0.6923838 0.4066829
vt 0.6923838 0.4066829
vt 0.4048593 0.7398943
vt 0.4319406 0.3396524
vt 0.4319406 0.3396524
vt 0.4048593 0.7398943
vt 0.3131853 0.5829852
vt 0.3131853 0.5829852
vt 0.4048593 0.7398943
vt 0.3158526 0.6327506
vt 0.4601844 0.2456626
vt 0.6899742 0.5977048
vt 0.390346 0.2548366
vt 0.390346 0.2548366
vt 0.6899742 0.5977048
vt 0.3966417 0.6858255
vt 0.3966417 0.6858255
vt 0.6899742 0.5977048
vt 0.4133536 0.7007889
vt 0.4133536 0.7007889
vt 0.6899742 0.5977048
vt 0.579896 0.7051673
vt 0.579896 0.7051673
vt 0.6899742 0.5977048
vt 0.6554629 0.6451169
vt 0.4482681 0.4791277
vt 0.4378237 0.4746649
vt 0.4485915 0.4643237
vt 0.4485915 0.4643237
vt 0.4378237 0.4746649
vt 0.4373456 0.4716882
vt 0.5733894 0.3808157
vt 0.5908841 0.3884474
vt 0.5156642 0.3722512
vt 0.5156642 0.3722512
vt 0.5908841 0.3884474
vt 0.5072543 0.5075309
vt 0.5827836 0.4999929
vt 0.441002 0.5997206
vt 0.5846025 0.4903361
vt 0.5846025 0.4903361
vt 0.441002 0.5997206
vt 0.5684109 0.4780682
vt 0.5684109 0.4780682
vt 0.441002 0.5997206
vt 0.4314859 0.554868
vt 0.3523282 0.3781484
vt 0.592403 0.5051776
vt 0.3323067 0.4300795
vt 0.3323067 0.4300795
vt 0.592403 0.5051776
vt 0.414488 0.5318323
vt 0.414488 0.5318323
vt 0.592403 0.5051776
vt 0.5870777 0.5366138
vt 0.5876683 0.6170653
vt 0.5725737 0.6495516
vt 0.4007716 0.5073528
vt 0.4007716 0.5073528
vt 0.5725737 0.6495516
vt 0.4442085 0.6739842
vt 0.4442085 0.6739842
vt 0.5725737 0.6495516
vt 0.4990788 0.6872225

usemtl Material0
usemap Material0

usemtl Material1
usemap Material1
f 1/1/1 2/2/2 3/3/3
f 4/4/4 5/5/5 6/6/6
f 7/7/7 8/8/8 9/9/9
f 10/10/10 11/11/11 12/12/12
f 13/13/13 14/14/14 15/15/15
f 16/16/16 17/17/17 18/18/18
f 19/19/19 20/20/20 21/21/21
f 22/22/22 23/23/23 24/24/24
f 25/25/25 26/26/26 27/27/27
f 28/28/28 29/29/29 30/30/30
f 31/31/31 32/32/32 33/33/33
f 34/34/34 35/35/35 36/36/36
f 37/37/37 38/38/38 39/39/39
f 40/40/40 41/41/41 42/42/42
f 43/43/43 44/44/44 45/45/45
f 46/46/46 47/47/47 48/48/48
f 49/49/49 50/50/50 51/51/51
f 52/52/52 53/53/53 54/54/54
f 55/55/55 56/56/56 57/57/57
f 58/58/58 59/59/59 60/60/60
f 61/61/61 62/62/62 63/63/63
f 64/64/64 65/65/65 66/66/66
f 67/67/67 68/68/68 69/69/69
f 70/70/70 71/71/71 72/72/72
f 73/73/73 74/74/74 75/75/75
f 76/76/76 77/77/77 78/78/78
f 79/79/79 80/80/80 81/81/81
f 82/82/82 83/83/83 84/84/84
f 85/85/85 86/86/86 87/87/87
f 88/88/88 89/89/89 90/90/90
f 91/91/91 92/92/92 93/93/93
f 94/94/94 95/95/95 96/96/96
f 97/97/97 98/98/98 99/99/99
f 100/100/100 101/101/101 102/102/102
f 103/103/103 104/104/104 105/105/105
f 106/106/106 107/107/107 108/108/108
f 109/109/109 110/110/110 111/111/111
f 112/112/112 113/113/113 114/114/114
f 115/115/115 116/116/116 117/117/117
f 118/118/118 119/119/119 120/120/120
f 121/121/121 122/122/122 123/123/123
f 124/124/124 125/125/125 126/126/126
f 127/127/127 128/128/128 129/129/129
f 130/130/130 131/131/131 132/132/132
f 133/133/133 134/134/134 135/135/135
f 136/136/136 137/137/137 138/138/138
f 139/139/139 140/140/140 141/141/141
f 142/142/142 143/143/143 144/144/144
f 145/145/145 146/146/146 147/147/147
f 148/148/148 149/149/149 150/150/150
f 151/151/151 152/152/152 153/153/153
f 154/154/154 155/155/155 156/156/156
f 157/157/157 158/158/158 159/159/159
f 160/160/160 161/161/161 162/162/162
f 163/163/163 164/164/164 165/165/165
f 166/166/166 167/167/167 168/168/168
f 169/169/169 170/170/170 171/171/171
f 172/172/172 173/173/173 174/174/174
f 175/175/175 176/176/176 177/177/177
f 178/178/178 179/179/179 180/180/180
f 181/181/181 182/182/182 183/183/183
f 184/184/184 185/185/185 186/186/186
f 187/187/187 188/188/188 189/189/189
f 190/190/190 191/191/191 192/192/192
