g  Instance
v 5.006901 -54.99892 7.048326
v 4.970091 -55.17479 6.965611
v 5.264817 -54.97936 6.863362
v 5.006901 -54.99892 7.048326
v 4.71034 -54.99662 7.236667
v 4.970091 -55.17479 6.965611
v 4.71034 -54.99662 7.236667
v 4.428793 -54.98341 7.404635
v 4.970091 -55.17479 6.965611
v 4.970091 -55.17479 6.965611
v 4.428793 -54.98341 7.404635
v 4.751359 -55.28852 7.009373
v 4.751359 -55.28852 7.009373
v 4.428793 -54.98341 7.404635
v 4.646515 -55.31731 7.048337
v 4.646515 -55.31731 7.048337
v 4.428793 -54.98341 7.404635
v 4.333466 -55.04538 7.415032
v 4.333466 -55.04538 7.415032
v 4.428793 -54.98341 7.404635
v 4.350575 -55.03043 7.415841
v 5.478928 -55.10366 6.578216
v 5.853096 -54.90331 6.41059
v 5.03137 -55.21385 6.881238
v 5.03137 -55.21385 6.881238
v 5.853096 -54.90331 6.41059
v 4.970091 -55.17479 6.965611
v 4.970091 -55.17479 6.965611
v 5.853096 -54.90331 6.41059
v 5.264817 -54.97936 6.863362
v 4.970091 -55.17479 6.965611
v 4.950668 -55.23457 6.926762
v 5.03137 -55.21385 6.881238
v 4.970091 -55.17479 6.965611
v 4.751359 -55.28852 7.009373
v 4.950668 -55.23457 6.926762
v 6.523589 -54.56306 5.645537
v 5.853096 -54.90331 6.41059
v 6.555391 -54.55642 5.374297
v 6.555391 -54.55642 5.374297
v 5.853096 -54.90331 6.41059
v 5.173841 -55.32967 5.164804
v 5.173841 -55.32967 5.164804
v 5.853096 -54.90331 6.41059
v 5.478928 -55.10366 6.578216
v 3.368735 -53.92108 5.443846
v 3.567306 -53.63321 6.002581
v 3.534171 -54.10939 4.559647
v 3.534171 -54.10939 4.559647
v 3.567306 -53.63321 6.002581
v 4.073613 -53.3648 5.95945
v 5.937822 -54.29978 4.790526
v 4.259865 -54.89188 4.253733
v 4.147672 -54.37164 4.252802
v 4.750653 -55.47356 5.025011
v 4.646515 -55.31731 7.048337
v 4.146761 -54.99949 4.272648
v 4.146761 -54.99949 4.272648
v 4.646515 -55.31731 7.048337
v 3.523748 -54.48114 4.34194
v 3.523748 -54.48114 4.34194
v 4.646515 -55.31731 7.048337
v 3.295 -54.25013 5.543655
v 3.295 -54.25013 5.543655
v 4.646515 -55.31731 7.048337
v 3.474742 -54.36358 6.566789
v 3.474742 -54.36358 6.566789
v 4.646515 -55.31731 7.048337
v 4.316297 -55.03151 7.40481
v 4.316297 -55.03151 7.40481
v 4.646515 -55.31731 7.048337
v 4.333466 -55.04538 7.415032
v 4.073613 -53.3648 5.95945
v 4.157731 -53.36094 5.985549
v 3.534171 -54.10939 4.559647
v 3.534171 -54.10939 4.559647
v 4.157731 -53.36094 5.985549
v 3.563228 -54.24793 4.329186
v 3.563228 -54.24793 4.329186
v 4.157731 -53.36094 5.985549
v 4.147672 -54.37164 4.252802
v 4.147672 -54.37164 4.252802
v 4.157731 -53.36094 5.985549
v 5.937822 -54.29978 4.790526
v 5.937822 -54.29978 4.790526
v 4.157731 -53.36094 5.985549
v 6.216735 -54.25832 4.926114
v 6.216735 -54.25832 4.926114
v 4.157731 -53.36094 5.985549
v 6.285245 -54.15208 5.123886
v 6.285245 -54.15208 5.123886
v 4.157731 -53.36094 5.985549
v 6.146013 -54.0062 5.341397
v 6.555391 -54.55642 5.374297
v 6.441661 -54.3646 5.149163
v 6.523589 -54.56306 5.645537
v 6.523589 -54.56306 5.645537
v 6.441661 -54.3646 5.149163
v 6.146013 -54.0062 5.341397
v 6.146013 -54.0062 5.341397
v 6.441661 -54.3646 5.149163
v 6.285245 -54.15208 5.123886
v 4.428793 -54.98341 7.404635
v 4.71034 -54.99662 7.236667
v 4.157731 -53.36094 5.985549
v 4.157731 -53.36094 5.985549
v 4.71034 -54.99662 7.236667
v 6.146013 -54.0062 5.341397
v 6.146013 -54.0062 5.341397
v 4.71034 -54.99662 7.236667
v 6.523589 -54.56306 5.645537
v 6.523589 -54.56306 5.645537
v 4.71034 -54.99662 7.236667
v 5.853096 -54.90331 6.41059
v 5.853096 -54.90331 6.41059
v 4.71034 -54.99662 7.236667
v 5.264817 -54.97936 6.863362
v 5.264817 -54.97936 6.863362
v 4.71034 -54.99662 7.236667
v 5.006901 -54.99892 7.048326
v 3.474742 -54.36358 6.566789
v 3.567306 -53.63321 6.002581
v 3.295 -54.25013 5.543655
v 3.295 -54.25013 5.543655
v 3.567306 -53.63321 6.002581
v 3.368735 -53.92108 5.443846
v 6.216735 -54.25832 4.926114
v 6.285245 -54.15208 5.123886
v 6.441661 -54.3646 5.149163
v 4.146761 -54.99949 4.272648
v 3.523748 -54.48114 4.34194
v 4.259865 -54.89188 4.253733
v 4.259865 -54.89188 4.253733
v 3.523748 -54.48114 4.34194
v 4.147672 -54.37164 4.252802
v 4.147672 -54.37164 4.252802
v 3.523748 -54.48114 4.34194
v 3.563228 -54.24793 4.329186
v 5.173841 -55.32967 5.164804
v 5.478928 -55.10366 6.578216
v 4.750653 -55.47356 5.025011
v 4.750653 -55.47356 5.025011
v 5.478928 -55.10366 6.578216
v 4.646515 -55.31731 7.048337
v 4.646515 -55.31731 7.048337
v 5.478928 -55.10366 6.578216
v 4.751359 -55.28852 7.009373
v 4.751359 -55.28852 7.009373
v 5.478928 -55.10366 6.578216
v 4.950668 -55.23457 6.926762
v 4.950668 -55.23457 6.926762
v 5.478928 -55.10366 6.578216
v 5.03137 -55.21385 6.881238
v 6.441661 -54.3646 5.149163
v 6.555391 -54.55642 5.374297
v 6.216735 -54.25832 4.926114
v 6.216735 -54.25832 4.926114
v 6.555391 -54.55642 5.374297
v 5.937822 -54.29978 4.790526
v 5.937822 -54.29978 4.790526
v 6.555391 -54.55642 5.374297
v 4.259865 -54.89188 4.253733
v 4.259865 -54.89188 4.253733
v 6.555391 -54.55642 5.374297
v 4.146761 -54.99949 4.272648
v 4.146761 -54.99949 4.272648
v 6.555391 -54.55642 5.374297
v 4.750653 -55.47356 5.025011
v 4.750653 -55.47356 5.025011
v 6.555391 -54.55642 5.374297
v 5.173841 -55.32967 5.164804
v 3.295 -54.25013 5.543655
v 3.368735 -53.92108 5.443846
v 3.523748 -54.48114 4.34194
v 3.523748 -54.48114 4.34194
v 3.368735 -53.92108 5.443846
v 3.563228 -54.24793 4.329186
v 3.563228 -54.24793 4.329186
v 3.368735 -53.92108 5.443846
v 3.534171 -54.10939 4.559647
v 4.316297 -55.03151 7.40481
v 4.333466 -55.04538 7.415032
v 4.350575 -55.03043 7.415841
v 4.316297 -55.03151 7.40481
v 4.350575 -55.03043 7.415841
v 3.474742 -54.36358 6.566789
v 3.474742 -54.36358 6.566789
v 4.350575 -55.03043 7.415841
v 3.567306 -53.63321 6.002581
v 3.567306 -53.63321 6.002581
v 4.350575 -55.03043 7.415841
v 4.073613 -53.3648 5.95945
v 4.073613 -53.3648 5.95945
v 4.350575 -55.03043 7.415841
v 4.157731 -53.36094 5.985549
v 4.157731 -53.36094 5.985549
v 4.350575 -55.03043 7.415841
v 4.428793 -54.98341 7.404635

vn 0.5432721 -0.4477229 0.7102109
vn 0.5432721 -0.4477229 0.7102109
vn 0.5432721 -0.4477229 0.7102109
vn 0.4751849 -0.453948 0.7537443
vn 0.4751849 -0.453948 0.7537443
vn 0.4751849 -0.453948 0.7537443
vn 0.4193774 -0.5203276 0.7438965
vn 0.4193774 -0.5203276 0.7438965
vn 0.4193774 -0.5203276 0.7438965
vn 0.4193774 -0.5203276 0.7438965
vn 0.4193774 -0.5203276 0.7438965
vn 0.4193774 -0.5203276 0.7438965
vn 0.4193774 -0.5203276 0.7438965
vn 0.4193774 -0.5203276 0.7438965
vn 0.4193774 -0.5203276 0.7438965
vn 0.4193774 -0.5203276 0.7438965
vn 0.4193774 -0.5203276 0.7438965
vn 0.4193774 -0.5203276 0.7438965
vn 0.4193774 -0.5203276 0.7438965
vn 0.4193774 -0.5203276 0.7438965
vn 0.4193774 -0.5203276 0.7438965
vn 0.5643606 -0.5125049 0.6471752
vn 0.5643606 -0.5125049 0.6471752
vn 0.5643606 -0.5125049 0.6471752
vn 0.5643606 -0.5125049 0.6471752
vn 0.5643606 -0.5125049 0.6471752
vn 0.5643606 -0.5125049 0.6471752
vn 0.5643606 -0.5125049 0.6471752
vn 0.5643606 -0.5125049 0.6471752
vn 0.5643606 -0.5125049 0.6471752
vn 0.508217 -0.5792679 0.63731
vn 0.508217 -0.5792679 0.63731
vn 0.508217 -0.5792679 0.63731
vn 0.4405513 -0.585411 0.6805944
vn 0.4405513 -0.585411 0.6805944
vn 0.4405513 -0.585411 0.6805944
vn 0.4840098 -0.8743489 0.03533458
vn 0.4840098 -0.8743489 0.03533458
vn 0.4840098 -0.8743489 0.03533458
vn 0.4840098 -0.8743489 0.03533458
vn 0.4840098 -0.8743489 0.03533458
vn 0.4840098 -0.8743489 0.03533458
vn 0.4840098 -0.8743489 0.03533458
vn 0.4840098 -0.8743489 0.03533458
vn 0.4840098 -0.8743489 0.03533458
vn -0.4690391 0.8418384 -0.2670404
vn -0.4690391 0.8418384 -0.2670404
vn -0.4690391 0.8418384 -0.2670404
vn -0.4690391 0.8418384 -0.2670404
vn -0.4690391 0.8418384 -0.2670404
vn -0.4690391 0.8418384 -0.2670404
vn 0.2849666 0.05974406 -0.9566737
vn 0.2849666 0.05974406 -0.9566737
vn 0.2849666 0.05974406 -0.9566737
vn -0.6375966 -0.7699098 0.02663971
vn -0.6375966 -0.7699098 0.02663971
vn -0.6375966 -0.7699098 0.02663971
vn -0.6375966 -0.7699098 0.02663971
vn -0.6375966 -0.7699098 0.02663971
vn -0.6375966 -0.7699098 0.02663971
vn -0.6375966 -0.7699098 0.02663971
vn -0.6375966 -0.7699098 0.02663971
vn -0.6375966 -0.7699098 0.02663971
vn -0.6375966 -0.7699098 0.02663971
vn -0.6375966 -0.7699098 0.02663971
vn -0.6375966 -0.7699098 0.02663971
vn -0.6375966 -0.7699098 0.02663971
vn -0.6375966 -0.7699098 0.02663971
vn -0.6375966 -0.7699098 0.02663971
vn -0.6375966 -0.7699098 0.02663971
vn -0.6375966 -0.7699098 0.02663971
vn -0.6375966 -0.7699098 0.02663971
vn 0.1160493 0.8576686 -0.5009362
vn 0.1160493 0.8576686 -0.5009362
vn 0.1160493 0.8576686 -0.5009362
vn 0.1160493 0.8576686 -0.5009362
vn 0.1160493 0.8576686 -0.5009362
vn 0.1160493 0.8576686 -0.5009362
vn 0.1160493 0.8576686 -0.5009362
vn 0.1160493 0.8576686 -0.5009362
vn 0.1160493 0.8576686 -0.5009362
vn 0.1160493 0.8576686 -0.5009362
vn 0.1160493 0.8576686 -0.5009362
vn 0.1160493 0.8576686 -0.5009362
vn 0.1160493 0.8576686 -0.5009362
vn 0.1160493 0.8576686 -0.5009362
vn 0.1160493 0.8576686 -0.5009362
vn 0.1160493 0.8576686 -0.5009362
vn 0.1160493 0.8576686 -0.5009362
vn 0.1160493 0.8576686 -0.5009362
vn 0.1160493 0.8576686 -0.5009362
vn 0.1160493 0.8576686 -0.5009362
vn 0.1160493 0.8576686 -0.5009362
vn 0.7945243 0.5975889 0.1077897
vn 0.7945243 0.5975889 0.1077897
vn 0.7945243 0.5975889 0.1077897
vn 0.7945243 0.5975889 0.1077897
vn 0.7945243 0.5975889 0.1077897
vn 0.7945243 0.5975889 0.1077897
vn 0.7945243 0.5975889 0.1077897
vn 0.7945243 0.5975889 0.1077897
vn 0.7945243 0.5975889 0.1077897
vn 0.4168124 0.6368917 0.648565
vn 0.4168124 0.6368917 0.648565
vn 0.4168124 0.6368917 0.648565
vn 0.4168124 0.6368917 0.648565
vn 0.4168124 0.6368917 0.648565
vn 0.4168124 0.6368917 0.648565
vn 0.4168124 0.6368917 0.648565
vn 0.4168124 0.6368917 0.648565
vn 0.4168124 0.6368917 0.648565
vn 0.4168124 0.6368917 0.648565
vn 0.4168124 0.6368917 0.648565
vn 0.4168124 0.6368917 0.648565
vn 0.4168124 0.6368917 0.648565
vn 0.4168124 0.6368917 0.648565
vn 0.4168124 0.6368917 0.648565
vn 0.4168124 0.6368917 0.648565
vn 0.4168124 0.6368917 0.648565
vn 0.4168124 0.6368917 0.648565
vn -0.9426218 0.2705649 0.1955988
vn -0.9426218 0.2705649 0.1955988
vn -0.9426218 0.2705649 0.1955988
vn -0.9426218 0.2705649 0.1955988
vn -0.9426218 0.2705649 0.1955988
vn -0.9426218 0.2705649 0.1955988
vn 0.7230526 0.4722014 -0.5042033
vn 0.7230526 0.4722014 -0.5042033
vn 0.7230526 0.4722014 -0.5042033
vn -0.1360163 -0.03110917 -0.9902181
vn -0.1360163 -0.03110917 -0.9902181
vn -0.1360163 -0.03110917 -0.9902181
vn -0.1360163 -0.03110917 -0.9902181
vn -0.1360163 -0.03110917 -0.9902181
vn -0.1360163 -0.03110917 -0.9902181
vn -0.1360163 -0.03110917 -0.9902181
vn -0.1360163 -0.03110917 -0.9902181
vn -0.1360163 -0.03110917 -0.9902181
vn 0.2943033 -0.951593 0.08863661
vn 0.2943033 -0.951593 0.08863661
vn 0.2943033 -0.951593 0.08863661
vn 0.2943033 -0.951593 0.08863661
vn 0.2943033 -0.951593 0.08863661
vn 0.2943033 -0.951593 0.08863661
vn 0.2943033 -0.951593 0.08863661
vn 0.2943033 -0.951593 0.08863661
vn 0.2943033 -0.951593 0.08863661
vn 0.2943033 -0.951593 0.08863661
vn 0.2943033 -0.951593 0.08863661
vn 0.2943033 -0.951593 0.08863661
vn 0.2943033 -0.951593 0.08863661
vn 0.2943033 -0.951593 0.08863661
vn 0.2943033 -0.951593 0.08863661
vn 0.4260028 -0.5710513 -0.701728
vn 0.4260028 -0.5710513 -0.701728
vn 0.4260028 -0.5710513 -0.701728
vn 0.4260028 -0.5710513 -0.701728
vn 0.4260028 -0.5710513 -0.701728
vn 0.4260028 -0.5710513 -0.701728
vn 0.4260028 -0.5710513 -0.701728
vn 0.4260028 -0.5710513 -0.701728
vn 0.4260028 -0.5710513 -0.701728
vn 0.4260028 -0.5710513 -0.701728
vn 0.4260028 -0.5710513 -0.701728
vn 0.4260028 -0.5710513 -0.701728
vn 0.4260028 -0.5710513 -0.701728
vn 0.4260028 -0.5710513 -0.701728
vn 0.4260028 -0.5710513 -0.701728
vn 0.4260028 -0.5710513 -0.701728
vn 0.4260028 -0.5710513 -0.701728
vn 0.4260028 -0.5710513 -0.701728
vn -0.9652201 0.1517251 -0.212908
vn -0.9652201 0.1517251 -0.212908
vn -0.9652201 0.1517251 -0.212908
vn -0.9652201 0.1517251 -0.212908
vn -0.9652201 0.1517251 -0.212908
vn -0.9652201 0.1517251 -0.212908
vn -0.9652201 0.1517251 -0.212908
vn -0.9652201 0.1517251 -0.212908
vn -0.9652201 0.1517251 -0.212908
vn -0.3010997 0.2955278 0.9066435
vn -0.3010997 0.2955278 0.9066435
vn -0.3010997 0.2955278 0.9066435
vn -0.2600802 0.6107201 0.7479166
vn -0.2600802 0.6107201 0.7479166
vn -0.2600802 0.6107201 0.7479166
vn -0.2600802 0.6107201 0.7479166
vn -0.2600802 0.6107201 0.7479166
vn -0.2600802 0.6107201 0.7479166
vn -0.2600802 0.6107201 0.7479166
vn -0.2600802 0.6107201 0.7479166
vn -0.2600802 0.6107201 0.7479166
vn -0.2600802 0.6107201 0.7479166
vn -0.2600802 0.6107201 0.7479166
vn -0.2600802 0.6107201 0.7479166
vn -0.2600802 0.6107201 0.7479166
vn -0.2600802 0.6107201 0.7479166
vn -0.2600802 0.6107201 0.7479166

vt 0.9560173 0.3568364
vt 0.954545 0.3542862
vt 0.9604971 0.3542862
vt 0.9560173 0.3568364
vt 0.951525 0.3595172
vt 0.954545 0.3542862
vt 0.951525 0.3595172
vt 0.9474783 0.3621827
vt 0.954545 0.3542862
vt 0.954545 0.3542862
vt 0.9474783 0.3621827
vt 0.9508682 0.3542862
vt 0.9508682 0.3542862
vt 0.9474783 0.3621827
vt 0.9492164 0.3547157
vt 0.9492164 0.3547157
vt 0.9474783 0.3621827
vt 0.9458225 0.3619755
vt 0.9458225 0.3619755
vt 0.9474783 0.3621827
vt 0.9461362 0.3620766
vt 0.9635926 0.3492526
vt 0.9709287 0.3483498
vt 0.9554148 0.3527796
vt 0.9554148 0.3527796
vt 0.9709287 0.3483498
vt 0.954545 0.3542862
vt 0.954545 0.3542862
vt 0.9709287 0.3483498
vt 0.9604971 0.3542862
vt 0.954545 0.3542862
vt 0.9540081 0.3533562
vt 0.9554148 0.3527796
vt 0.954545 0.3542862
vt 0.9508682 0.3542862
vt 0.9540081 0.3533562
vt 0.2988501 0.4698506
vt 0.3727669 0.3945462
vt 0.2957937 0.4965521
vt 0.2957937 0.4965521
vt 0.3727669 0.3945462
vt 0.4515401 0.5171689
vt 0.4515401 0.5171689
vt 0.3727669 0.3945462
vt 0.4145161 0.3780453
vt 0.4384378 0.4543809
vt 0.4704272 0.3952307
vt 0.4438334 0.5479863
vt 0.4438334 0.5479863
vt 0.4704272 0.3952307
vt 0.5288837 0.3998012
vt 0.4528715 0.3489905
vt 0.5169111 0.5285321
vt 0.4636674 0.5405328
vt 0.4139349 0.5286258
vt 0.4316218 0.329569
vt 0.4894126 0.6026364
vt 0.4894126 0.6026364
vt 0.4316218 0.329569
vt 0.5691235 0.5958204
vt 0.5691235 0.5958204
vt 0.4316218 0.329569
vt 0.6009347 0.4775901
vt 0.6009347 0.4775901
vt 0.4316218 0.329569
vt 0.5802054 0.3769343
vt 0.5802054 0.3769343
vt 0.4316218 0.329569
vt 0.4745571 0.2944998
vt 0.4745571 0.2944998
vt 0.4316218 0.329569
vt 0.4723867 0.2934966
vt 0.4345845 0.3625428
vt 0.4439928 0.359116
vt 0.3852035 0.5462613
vt 0.3852035 0.5462613
vt 0.4439928 0.359116
vt 0.3905851 0.5765067
vt 0.3905851 0.5765067
vt 0.4439928 0.359116
vt 0.4582483 0.5865292
vt 0.4582483 0.5865292
vt 0.4439928 0.359116
vt 0.6586599 0.5159595
vt 0.6586599 0.5159595
vt 0.4439928 0.359116
vt 0.6894211 0.4981647
vt 0.6894211 0.4981647
vt 0.4439928 0.359116
vt 0.6955152 0.4722085
vt 0.6955152 0.4722085
vt 0.4439928 0.359116
vt 0.6776173 0.44366
vt 0.6071413 0.5128093
vt 0.5852213 0.5351981
vt 0.6057725 0.4858359
vt 0.6057725 0.4858359
vt 0.5852213 0.5351981
vt 0.539328 0.5160814
vt 0.539328 0.5160814
vt 0.5852213 0.5351981
vt 0.5591292 0.5377107
vt 0.5143891 0.2764097
vt 0.5457503 0.3049114
vt 0.3703433 0.5172064
vt 0.3703433 0.5172064
vt 0.5457503 0.3049114
vt 0.6308708 0.6265065
vt 0.6308708 0.6265065
vt 0.5457503 0.3049114
vt 0.7110411 0.5748941
vt 0.7110411 0.5748941
vt 0.5457503 0.3049114
vt 0.6626539 0.4450804
vt 0.6626539 0.4450804
vt 0.5457503 0.3049114
vt 0.6044505 0.3682525
vt 0.6044505 0.3682525
vt 0.5457503 0.3049114
vt 0.5779647 0.3368679
vt 0.4977663 0.3950947
vt 0.5707173 0.4527684
vt 0.5037291 0.4996836
vt 0.5037291 0.4996836
vt 0.5707173 0.4527684
vt 0.5374811 0.5098841
vt 0.5612949 0.4352455
vt 0.5554352 0.4091721
vt 0.5854276 0.4058438
vt 0.515111 0.4865766
vt 0.4639159 0.5489802
vt 0.5043854 0.4752509
vt 0.5043854 0.4752509
vt 0.4639159 0.5489802
vt 0.4527871 0.4864922
vt 0.4527871 0.4864922
vt 0.4639159 0.5489802
vt 0.4407442 0.545033
vt 0.4335297 0.5212004
vt 0.3981699 0.3811439
vt 0.4776276 0.5350481
vt 0.4776276 0.5350481
vt 0.3981699 0.3811439
vt 0.4828919 0.3345615
vt 0.4828919 0.3345615
vt 0.3981699 0.3811439
vt 0.4721663 0.3384196
vt 0.4721663 0.3384196
vt 0.3981699 0.3811439
vt 0.451798 0.3466091
vt 0.451798 0.3466091
vt 0.3981699 0.3811439
vt 0.443585 0.3511187
vt 0.234037 0.4228275
vt 0.2372856 0.3792219
vt 0.2501488 0.4660254
vt 0.2501488 0.4660254
vt 0.2372856 0.3792219
vt 0.2844164 0.4922863
vt 0.2844164 0.4922863
vt 0.2372856 0.3792219
vt 0.5188519 0.596261
vt 0.5188519 0.596261
vt 0.2372856 0.3792219
vt 0.5402468 0.5925952
vt 0.5402468 0.5925952
vt 0.2372856 0.3792219
vt 0.5125796 0.4468711
vt 0.5125796 0.4468711
vt 0.2372856 0.3792219
vt 0.453884 0.4197946
vt 0.5182143 0.4521496
vt 0.5520788 0.4624299
vt 0.4988257 0.5758973
vt 0.4988257 0.5758973
vt 0.5520788 0.4624299
vt 0.5226208 0.5772193
vt 0.5226208 0.5772193
vt 0.5520788 0.4624299
vt 0.5359434 0.5534804
vt 0.3974292 0.433886
vt 0.3957416 0.4320296
vt 0.3971808 0.4301827
vt 0.4618673 0.2634949
vt 0.466602 0.2610338
vt 0.3859582 0.4504713
vt 0.3859582 0.4504713
vt 0.466602 0.2610338
vt 0.4409458 0.5763474
vt 0.4409458 0.5763474
vt 0.466602 0.2610338
vt 0.5255085 0.5859761
vt 0.5255085 0.5859761
vt 0.466602 0.2610338
vt 0.5371998 0.5801538
vt 0.5371998 0.5801538
vt 0.466602 0.2610338
vt 0.4799855 0.2635324

usemtl Material0
usemap Material0
f 1/1/1 2/2/2 3/3/3
f 4/4/4 5/5/5 6/6/6
f 7/7/7 8/8/8 9/9/9
f 10/10/10 11/11/11 12/12/12
f 13/13/13 14/14/14 15/15/15
f 16/16/16 17/17/17 18/18/18
f 19/19/19 20/20/20 21/21/21
f 22/22/22 23/23/23 24/24/24
f 25/25/25 26/26/26 27/27/27
f 28/28/28 29/29/29 30/30/30
f 31/31/31 32/32/32 33/33/33
f 34/34/34 35/35/35 36/36/36

usemtl Material1
usemap Material1
f 37/37/37 38/38/38 39/39/39
f 40/40/40 41/41/41 42/42/42
f 43/43/43 44/44/44 45/45/45
f 46/46/46 47/47/47 48/48/48
f 49/49/49 50/50/50 51/51/51
f 52/52/52 53/53/53 54/54/54
f 55/55/55 56/56/56 57/57/57
f 58/58/58 59/59/59 60/60/60
f 61/61/61 62/62/62 63/63/63
f 64/64/64 65/65/65 66/66/66
f 67/67/67 68/68/68 69/69/69
f 70/70/70 71/71/71 72/72/72
f 73/73/73 74/74/74 75/75/75
f 76/76/76 77/77/77 78/78/78
f 79/79/79 80/80/80 81/81/81
f 82/82/82 83/83/83 84/84/84
f 85/85/85 86/86/86 87/87/87
f 88/88/88 89/89/89 90/90/90
f 91/91/91 92/92/92 93/93/93
f 94/94/94 95/95/95 96/96/96
f 97/97/97 98/98/98 99/99/99
f 100/100/100 101/101/101 102/102/102
f 103/103/103 104/104/104 105/105/105
f 106/106/106 107/107/107 108/108/108
f 109/109/109 110/110/110 111/111/111
f 112/112/112 113/113/113 114/114/114
f 115/115/115 116/116/116 117/117/117
f 118/118/118 119/119/119 120/120/120
f 121/121/121 122/122/122 123/123/123
f 124/124/124 125/125/125 126/126/126
f 127/127/127 128/128/128 129/129/129
f 130/130/130 131/131/131 132/132/132
f 133/133/133 134/134/134 135/135/135
f 136/136/136 137/137/137 138/138/138
f 139/139/139 140/140/140 141/141/141
f 142/142/142 143/143/143 144/144/144
f 145/145/145 146/146/146 147/147/147
f 148/148/148 149/149/149 150/150/150
f 151/151/151 152/152/152 153/153/153
f 154/154/154 155/155/155 156/156/156
f 157/157/157 158/158/158 159/159/159
f 160/160/160 161/161/161 162/162/162
f 163/163/163 164/164/164 165/165/165
f 166/166/166 167/167/167 168/168/168
f 169/169/169 170/170/170 171/171/171
f 172/172/172 173/173/173 174/174/174
f 175/175/175 176/176/176 177/177/177
f 178/178/178 179/179/179 180/180/180
f 181/181/181 182/182/182 183/183/183
f 184/184/184 185/185/185 186/186/186
f 187/187/187 188/188/188 189/189/189
f 190/190/190 191/191/191 192/192/192
f 193/193/193 194/194/194 195/195/195
f 196/196/196 197/197/197 198/198/198
