g  Instance
v 2.852052 -52.36728 -5.671743
v 2.736155 -52.65164 -5.504817
v 3.454839 -51.86946 -5.61729
v 3.454839 -51.86946 -5.61729
v 2.736155 -52.65164 -5.504817
v 3.74167 -51.85861 -5.378831
v 3.74167 -51.85861 -5.378831
v 2.736155 -52.65164 -5.504817
v 2.790369 -52.67278 -5.437942
v 2.330054 -53.03149 -6.024794
v 2.325851 -53.01191 -6.006777
v 2.328785 -53.03373 -6.086971
v 2.328785 -53.03373 -6.086971
v 2.325851 -53.01191 -6.006777
v 2.320997 -52.99255 -6.012903
v 2.328785 -53.03373 -6.086971
v 2.320997 -52.99255 -6.012903
v 3.406763 -53.51097 -8.137095
v 3.406763 -53.51097 -8.137095
v 2.320997 -52.99255 -6.012903
v 4.297322 -52.34908 -7.387006
v 4.297322 -52.34908 -7.387006
v 2.320997 -52.99255 -6.012903
v 4.542284 -51.89727 -6.973061
v 4.542284 -51.89727 -6.973061
v 2.320997 -52.99255 -6.012903
v 3.454839 -51.86946 -5.61729
v 3.454839 -51.86946 -5.61729
v 2.320997 -52.99255 -6.012903
v 2.852052 -52.36728 -5.671743
v 2.852052 -52.36728 -5.671743
v 2.320997 -52.99255 -6.012903
v 2.428735 -52.82621 -5.881689
v 5.035054 -53.47755 -6.194052
v 5.109836 -53.47419 -6.438009
v 5.147786 -53.20683 -6.295328
v 5.147786 -53.20683 -6.295328
v 5.109836 -53.47419 -6.438009
v 5.156777 -53.2121 -6.330358
v 3.74167 -51.85861 -5.378831
v 2.790369 -52.67278 -5.437942
v 4.663105 -51.84298 -5.242972
v 4.663105 -51.84298 -5.242972
v 2.790369 -52.67278 -5.437942
v 4.748345 -52.41302 -5.172289
v 4.748345 -52.41302 -5.172289
v 2.790369 -52.67278 -5.437942
v 4.484475 -53.44102 -5.107112
v 4.484475 -53.44102 -5.107112
v 2.790369 -52.67278 -5.437942
v 4.050062 -53.61329 -5.154394
v 4.050062 -53.61329 -5.154394
v 2.790369 -52.67278 -5.437942
v 2.834846 -53.18531 -5.379188
v 2.330054 -53.03149 -6.024794
v 2.328785 -53.03373 -6.086971
v 2.347511 -53.03583 -5.979933
v 2.347511 -53.03583 -5.979933
v 2.328785 -53.03373 -6.086971
v 2.834846 -53.18531 -5.379188
v 2.834846 -53.18531 -5.379188
v 2.328785 -53.03373 -6.086971
v 4.050062 -53.61329 -5.154394
v 4.050062 -53.61329 -5.154394
v 2.328785 -53.03373 -6.086971
v 4.555815 -53.85243 -6.467353
v 4.555815 -53.85243 -6.467353
v 2.328785 -53.03373 -6.086971
v 4.653526 -53.91702 -7.144695
v 4.653526 -53.91702 -7.144695
v 2.328785 -53.03373 -6.086971
v 4.250668 -53.79537 -7.685708
v 4.250668 -53.79537 -7.685708
v 2.328785 -53.03373 -6.086971
v 3.406763 -53.51097 -8.137095
v 4.250668 -53.79537 -7.685708
v 3.406763 -53.51097 -8.137095
v 4.297322 -52.34908 -7.387006
v 2.428735 -52.82621 -5.881689
v 2.736155 -52.65164 -5.504817
v 2.852052 -52.36728 -5.671743
v 4.748345 -52.41302 -5.172289
v 4.484475 -53.44102 -5.107112
v 5.147786 -53.20683 -6.295328
v 5.147786 -53.20683 -6.295328
v 4.484475 -53.44102 -5.107112
v 5.035054 -53.47755 -6.194052
v 5.035054 -53.47755 -6.194052
v 4.484475 -53.44102 -5.107112
v 4.825839 -53.54568 -5.816775
v 4.050062 -53.61329 -5.154394
v 4.555815 -53.85243 -6.467353
v 4.484475 -53.44102 -5.107112
v 4.484475 -53.44102 -5.107112
v 4.555815 -53.85243 -6.467353
v 4.825839 -53.54568 -5.816775
v 4.748345 -52.41302 -5.172289
v 5.147786 -53.20683 -6.295328
v 4.663105 -51.84298 -5.242972
v 4.663105 -51.84298 -5.242972
v 5.147786 -53.20683 -6.295328
v 4.938836 -51.87538 -6.417618
v 4.938836 -51.87538 -6.417618
v 5.147786 -53.20683 -6.295328
v 5.156777 -53.2121 -6.330358
v 2.325851 -53.01191 -6.006777
v 2.330054 -53.03149 -6.024794
v 2.347511 -53.03583 -5.979933
v 4.663105 -51.84298 -5.242972
v 4.938836 -51.87538 -6.417618
v 3.74167 -51.85861 -5.378831
v 3.74167 -51.85861 -5.378831
v 4.938836 -51.87538 -6.417618
v 3.454839 -51.86946 -5.61729
v 3.454839 -51.86946 -5.61729
v 4.938836 -51.87538 -6.417618
v 4.542284 -51.89727 -6.973061
v 4.555815 -53.85243 -6.467353
v 4.653526 -53.91702 -7.144695
v 4.825839 -53.54568 -5.816775
v 4.825839 -53.54568 -5.816775
v 4.653526 -53.91702 -7.144695
v 5.035054 -53.47755 -6.194052
v 5.035054 -53.47755 -6.194052
v 4.653526 -53.91702 -7.144695
v 5.109836 -53.47419 -6.438009
v 4.653526 -53.91702 -7.144695
v 4.250668 -53.79537 -7.685708
v 5.109836 -53.47419 -6.438009
v 5.109836 -53.47419 -6.438009
v 4.250668 -53.79537 -7.685708
v 5.156777 -53.2121 -6.330358
v 5.156777 -53.2121 -6.330358
v 4.250668 -53.79537 -7.685708
v 4.938836 -51.87538 -6.417618
v 4.938836 -51.87538 -6.417618
v 4.250668 -53.79537 -7.685708
v 4.542284 -51.89727 -6.973061
v 4.542284 -51.89727 -6.973061
v 4.250668 -53.79537 -7.685708
v 4.297322 -52.34908 -7.387006
v 2.736155 -52.65164 -5.504817
v 2.428735 -52.82621 -5.881689
v 2.790369 -52.67278 -5.437942
v 2.790369 -52.67278 -5.437942
v 2.428735 -52.82621 -5.881689
v 2.834846 -53.18531 -5.379188
v 2.834846 -53.18531 -5.379188
v 2.428735 -52.82621 -5.881689
v 2.347511 -53.03583 -5.979933
v 2.347511 -53.03583 -5.979933
v 2.428735 -52.82621 -5.881689
v 2.325851 -53.01191 -6.006777
v 2.325851 -53.01191 -6.006777
v 2.428735 -52.82621 -5.881689
v 2.320997 -52.99255 -6.012903

vn -0.5339805 0.5792035 0.615945
vn -0.5339805 0.5792035 0.615945
vn -0.5339805 0.5792035 0.615945
vn -0.5339805 0.5792035 0.615945
vn -0.5339805 0.5792035 0.615945
vn -0.5339805 0.5792035 0.615945
vn -0.5339805 0.5792035 0.615945
vn -0.5339805 0.5792035 0.615945
vn -0.5339805 0.5792035 0.615945
vn -0.9716735 -0.2346293 0.02828043
vn -0.9716735 -0.2346293 0.02828043
vn -0.9716735 -0.2346293 0.02828043
vn -0.9716735 -0.2346293 0.02828043
vn -0.9716735 -0.2346293 0.02828043
vn -0.9716735 -0.2346293 0.02828043
vn -0.54386 0.707846 -0.4507442
vn -0.54386 0.707846 -0.4507442
vn -0.54386 0.707846 -0.4507442
vn -0.54386 0.707846 -0.4507442
vn -0.54386 0.707846 -0.4507442
vn -0.54386 0.707846 -0.4507442
vn -0.54386 0.707846 -0.4507442
vn -0.54386 0.707846 -0.4507442
vn -0.54386 0.707846 -0.4507442
vn -0.54386 0.707846 -0.4507442
vn -0.54386 0.707846 -0.4507442
vn -0.54386 0.707846 -0.4507442
vn -0.54386 0.707846 -0.4507442
vn -0.54386 0.707846 -0.4507442
vn -0.54386 0.707846 -0.4507442
vn -0.54386 0.707846 -0.4507442
vn -0.54386 0.707846 -0.4507442
vn -0.54386 0.707846 -0.4507442
vn 0.9192488 -0.2788003 0.2779424
vn 0.9192488 -0.2788003 0.2779424
vn 0.9192488 -0.2788003 0.2779424
vn 0.9192488 -0.2788003 0.2779424
vn 0.9192488 -0.2788003 0.2779424
vn 0.9192488 -0.2788003 0.2779424
vn -0.1468013 0.1000744 0.9840908
vn -0.1468013 0.1000744 0.9840908
vn -0.1468013 0.1000744 0.9840908
vn -0.1468013 0.1000744 0.9840908
vn -0.1468013 0.1000744 0.9840908
vn -0.1468013 0.1000744 0.9840908
vn -0.1468013 0.1000744 0.9840908
vn -0.1468013 0.1000744 0.9840908
vn -0.1468013 0.1000744 0.9840908
vn -0.1468013 0.1000744 0.9840908
vn -0.1468013 0.1000744 0.9840908
vn -0.1468013 0.1000744 0.9840908
vn -0.1468013 0.1000744 0.9840908
vn -0.1468013 0.1000744 0.9840908
vn -0.1468013 0.1000744 0.9840908
vn -0.338613 -0.9400415 0.0407818
vn -0.338613 -0.9400415 0.0407818
vn -0.338613 -0.9400415 0.0407818
vn -0.338613 -0.9400415 0.0407818
vn -0.338613 -0.9400415 0.0407818
vn -0.338613 -0.9400415 0.0407818
vn -0.338613 -0.9400415 0.0407818
vn -0.338613 -0.9400415 0.0407818
vn -0.338613 -0.9400415 0.0407818
vn -0.338613 -0.9400415 0.0407818
vn -0.338613 -0.9400415 0.0407818
vn -0.338613 -0.9400415 0.0407818
vn -0.338613 -0.9400415 0.0407818
vn -0.338613 -0.9400415 0.0407818
vn -0.338613 -0.9400415 0.0407818
vn -0.338613 -0.9400415 0.0407818
vn -0.338613 -0.9400415 0.0407818
vn -0.338613 -0.9400415 0.0407818
vn -0.338613 -0.9400415 0.0407818
vn -0.338613 -0.9400415 0.0407818
vn -0.338613 -0.9400415 0.0407818
vn 0.5067195 0.158666 -0.8473845
vn 0.5067195 0.158666 -0.8473845
vn 0.5067195 0.158666 -0.8473845
vn -0.7605782 0.5300626 0.3749062
vn -0.7605782 0.5300626 0.3749062
vn -0.7605782 0.5300626 0.3749062
vn 0.872214 -0.1954512 0.448377
vn 0.872214 -0.1954512 0.448377
vn 0.872214 -0.1954512 0.448377
vn 0.872214 -0.1954512 0.448377
vn 0.872214 -0.1954512 0.448377
vn 0.872214 -0.1954512 0.448377
vn 0.872214 -0.1954512 0.448377
vn 0.872214 -0.1954512 0.448377
vn 0.872214 -0.1954512 0.448377
vn 0.3254877 -0.9001946 0.2893224
vn 0.3254877 -0.9001946 0.2893224
vn 0.3254877 -0.9001946 0.2893224
vn 0.3254877 -0.9001946 0.2893224
vn 0.3254877 -0.9001946 0.2893224
vn 0.3254877 -0.9001946 0.2893224
vn 0.9602432 0.1709605 0.2206934
vn 0.9602432 0.1709605 0.2206934
vn 0.9602432 0.1709605 0.2206934
vn 0.9602432 0.1709605 0.2206934
vn 0.9602432 0.1709605 0.2206934
vn 0.9602432 0.1709605 0.2206934
vn 0.9602432 0.1709605 0.2206934
vn 0.9602432 0.1709605 0.2206934
vn 0.9602432 0.1709605 0.2206934
vn -0.8478923 -0.445911 0.2867788
vn -0.8478923 -0.445911 0.2867788
vn -0.8478923 -0.445911 0.2867788
vn -0.01246116 0.9994572 -0.03049527
vn -0.01246116 0.9994572 -0.03049527
vn -0.01246116 0.9994572 -0.03049527
vn -0.01246116 0.9994572 -0.03049527
vn -0.01246116 0.9994572 -0.03049527
vn -0.01246116 0.9994572 -0.03049527
vn -0.01246116 0.9994572 -0.03049527
vn -0.01246116 0.9994572 -0.03049527
vn -0.01246116 0.9994572 -0.03049527
vn 0.5510938 -0.8194201 0.1576274
vn 0.5510938 -0.8194201 0.1576274
vn 0.5510938 -0.8194201 0.1576274
vn 0.5510938 -0.8194201 0.1576274
vn 0.5510938 -0.8194201 0.1576274
vn 0.5510938 -0.8194201 0.1576274
vn 0.5510938 -0.8194201 0.1576274
vn 0.5510938 -0.8194201 0.1576274
vn 0.5510938 -0.8194201 0.1576274
vn 0.8085217 0.09388727 -0.5809286
vn 0.8085217 0.09388727 -0.5809286
vn 0.8085217 0.09388727 -0.5809286
vn 0.8085217 0.09388727 -0.5809286
vn 0.8085217 0.09388727 -0.5809286
vn 0.8085217 0.09388727 -0.5809286
vn 0.8085217 0.09388727 -0.5809286
vn 0.8085217 0.09388727 -0.5809286
vn 0.8085217 0.09388727 -0.5809286
vn 0.8085217 0.09388727 -0.5809286
vn 0.8085217 0.09388727 -0.5809286
vn 0.8085217 0.09388727 -0.5809286
vn 0.8085217 0.09388727 -0.5809286
vn 0.8085217 0.09388727 -0.5809286
vn 0.8085217 0.09388727 -0.5809286
vn -0.7759891 0.005022407 0.6307263
vn -0.7759891 0.005022407 0.6307263
vn -0.7759891 0.005022407 0.6307263
vn -0.7759891 0.005022407 0.6307263
vn -0.7759891 0.005022407 0.6307263
vn -0.7759891 0.005022407 0.6307263
vn -0.7759891 0.005022407 0.6307263
vn -0.7759891 0.005022407 0.6307263
vn -0.7759891 0.005022407 0.6307263
vn -0.7759891 0.005022407 0.6307263
vn -0.7759891 0.005022407 0.6307263
vn -0.7759891 0.005022407 0.6307263
vn -0.7759891 0.005022407 0.6307263
vn -0.7759891 0.005022407 0.6307263
vn -0.7759891 0.005022407 0.6307263

vt 0.4358267 0.4477524
vt 0.4011419 0.4213087
vt 0.5332433 0.4391269
vt 0.5332433 0.4391269
vt 0.4011419 0.4213087
vt 0.5604792 0.4013529
vt 0.5604792 0.4013529
vt 0.4011419 0.4213087
vt 0.4043296 0.4107144
vt 0.5063355 0.4074892
vt 0.5083044 0.4057172
vt 0.506148 0.4136067
vt 0.506148 0.4136067
vt 0.5083044 0.4057172
vt 0.5102639 0.4063172
vt 0.3417901 0.3706667
vt 0.3438761 0.3615303
vt 0.4039077 0.6236001
vt 0.4039077 0.6236001
vt 0.3438761 0.3615303
vt 0.5596355 0.5310541
vt 0.5596355 0.5310541
vt 0.3438761 0.3615303
vt 0.6113415 0.4799809
vt 0.6113415 0.4799809
vt 0.3438761 0.3615303
vt 0.5182518 0.3127212
vt 0.5182518 0.3127212
vt 0.3438761 0.3615303
vt 0.4322078 0.3194388
vt 0.4322078 0.3194388
vt 0.3438761 0.3615303
vt 0.364446 0.3453387
vt 0.518505 0.4568983
vt 0.5159548 0.4828919
vt 0.4886392 0.4676895
vt 0.4886392 0.4676895
vt 0.5159548 0.4828919
vt 0.4888876 0.471421
vt 0.5717487 0.4705022
vt 0.4918409 0.5660812
vt 0.5719268 0.3779234
vt 0.5719268 0.3779234
vt 0.4918409 0.5660812
vt 0.5148579 0.3693635
vt 0.5148579 0.3693635
vt 0.4918409 0.5660812
vt 0.412552 0.3958776
vt 0.412552 0.3958776
vt 0.4918409 0.5660812
vt 0.3959901 0.4395207
vt 0.3959901 0.4395207
vt 0.4918409 0.5660812
vt 0.4405708 0.5616184
vt 0.6257237 0.40605
vt 0.6257612 0.4121723
vt 0.623961 0.4016341
vt 0.623961 0.4016341
vt 0.6257612 0.4121723
vt 0.5738675 0.3424745
vt 0.5738675 0.3424745
vt 0.6257612 0.4121723
vt 0.4471008 0.3203388
vt 0.4471008 0.3203388
vt 0.6257612 0.4121723
vt 0.3923102 0.4496275
vt 0.3923102 0.4496275
vt 0.6257612 0.4121723
vt 0.3811064 0.5163251
vt 0.3811064 0.5163251
vt 0.6257612 0.4121723
vt 0.4224525 0.5695969
vt 0.4224525 0.5695969
vt 0.6257612 0.4121723
vt 0.5100576 0.6140558
vt 0.6812268 0.5545867
vt 0.5842838 0.7119833
vt 0.4282654 0.4504338
vt 0.4030217 0.4362486
vt 0.436844 0.3931399
vt 0.468613 0.4122332
vt 0.4237979 0.3571706
vt 0.5404719 0.3491499
vt 0.4993789 0.4953521
vt 0.4993789 0.4953521
vt 0.5404719 0.3491499
vt 0.5311525 0.4828919
vt 0.5311525 0.4828919
vt 0.5404719 0.3491499
vt 0.5434908 0.436469
vt 0.4997257 0.3412932
vt 0.4592328 0.4821607
vt 0.4517558 0.3362163
vt 0.4517558 0.3362163
vt 0.4592328 0.4821607
vt 0.4224385 0.4123551
vt 0.4638502 0.3402759
vt 0.549688 0.4563264
vt 0.4057781 0.3475841
vt 0.4057781 0.3475841
vt 0.549688 0.4563264
vt 0.4138645 0.4689693
vt 0.4138645 0.4689693
vt 0.549688 0.4563264
vt 0.5503724 0.4599453
vt 0.5472597 0.4441006
vt 0.5452815 0.446032
vt 0.5440533 0.441227
vt 0.5691423 0.3233999
vt 0.5962188 0.4389863
vt 0.4785089 0.3367741
vt 0.4785089 0.3367741
vt 0.5962188 0.4389863
vt 0.4502838 0.3602411
vt 0.4502838 0.3602411
vt 0.5962188 0.4389863
vt 0.5571978 0.4936457
vt 0.4898814 0.4660066
vt 0.4853999 0.5342887
vt 0.4505323 0.40042
vt 0.4505323 0.40042
vt 0.4853999 0.5342887
vt 0.4294654 0.4384519
vt 0.4294654 0.4384519
vt 0.4853999 0.5342887
vt 0.4230994 0.4630486
vt 0.6310114 0.4674364
vt 0.6107978 0.5477145
vt 0.5842369 0.3625709
vt 0.5842369 0.3625709
vt 0.6107978 0.5477145
vt 0.5534382 0.3465997
vt 0.5534382 0.3465997
vt 0.6107978 0.5477145
vt 0.3900319 0.3595473
vt 0.3900319 0.3595473
vt 0.6107978 0.5477145
vt 0.3871349 0.4419724
vt 0.3871349 0.4419724
vt 0.6107978 0.5477145
vt 0.4379269 0.5033963
vt 0.5117733 0.4427271
vt 0.4894033 0.5042588
vt 0.5091388 0.4318093
vt 0.5091388 0.4318093
vt 0.4894033 0.5042588
vt 0.4442507 0.4222181
vt 0.4442507 0.4222181
vt 0.4894033 0.5042588
vt 0.4627861 0.520291
vt 0.4627861 0.520291
vt 0.4894033 0.5042588
vt 0.4657957 0.5246788
vt 0.4657957 0.5246788
vt 0.4894033 0.5042588
vt 0.4682474 0.5256726

usemtl Material0
usemap Material0

usemtl Material1
usemap Material1
f 1/1/1 2/2/2 3/3/3
f 4/4/4 5/5/5 6/6/6
f 7/7/7 8/8/8 9/9/9
f 10/10/10 11/11/11 12/12/12
f 13/13/13 14/14/14 15/15/15
f 16/16/16 17/17/17 18/18/18
f 19/19/19 20/20/20 21/21/21
f 22/22/22 23/23/23 24/24/24
f 25/25/25 26/26/26 27/27/27
f 28/28/28 29/29/29 30/30/30
f 31/31/31 32/32/32 33/33/33
f 34/34/34 35/35/35 36/36/36
f 37/37/37 38/38/38 39/39/39
f 40/40/40 41/41/41 42/42/42
f 43/43/43 44/44/44 45/45/45
f 46/46/46 47/47/47 48/48/48
f 49/49/49 50/50/50 51/51/51
f 52/52/52 53/53/53 54/54/54
f 55/55/55 56/56/56 57/57/57
f 58/58/58 59/59/59 60/60/60
f 61/61/61 62/62/62 63/63/63
f 64/64/64 65/65/65 66/66/66
f 67/67/67 68/68/68 69/69/69
f 70/70/70 71/71/71 72/72/72
f 73/73/73 74/74/74 75/75/75
f 76/76/76 77/77/77 78/78/78
f 79/79/79 80/80/80 81/81/81
f 82/82/82 83/83/83 84/84/84
f 85/85/85 86/86/86 87/87/87
f 88/88/88 89/89/89 90/90/90
f 91/91/91 92/92/92 93/93/93
f 94/94/94 95/95/95 96/96/96
f 97/97/97 98/98/98 99/99/99
f 100/100/100 101/101/101 102/102/102
f 103/103/103 104/104/104 105/105/105
f 106/106/106 107/107/107 108/108/108
f 109/109/109 110/110/110 111/111/111
f 112/112/112 113/113/113 114/114/114
f 115/115/115 116/116/116 117/117/117
f 118/118/118 119/119/119 120/120/120
f 121/121/121 122/122/122 123/123/123
f 124/124/124 125/125/125 126/126/126
f 127/127/127 128/128/128 129/129/129
f 130/130/130 131/131/131 132/132/132
f 133/133/133 134/134/134 135/135/135
f 136/136/136 137/137/137 138/138/138
f 139/139/139 140/140/140 141/141/141
f 142/142/142 143/143/143 144/144/144
f 145/145/145 146/146/146 147/147/147
f 148/148/148 149/149/149 150/150/150
f 151/151/151 152/152/152 153/153/153
f 154/154/154 155/155/155 156/156/156
