g  Instance
v 0.5693421 -51.0754 3.383206
v 0.6198891 -51.47078 3.518278
v 0.7214293 -51.21276 3.338641
v 0.7214293 -51.21276 3.338641
v 0.6198891 -51.47078 3.518278
v 0.6950781 -51.52906 3.492122
v -1.024017 -49.97824 2.063917
v 0.1892692 -50.47342 2.980536
v -0.7288618 -49.87506 2.020016
v -0.7288618 -49.87506 2.020016
v 0.1892692 -50.47342 2.980536
v -0.02444049 -49.83898 2.166047
v -1.933807 -50.81299 1.688396
v -1.904158 -50.74011 1.688826
v -1.902023 -50.78988 1.655471
v 0.5164633 -50.30051 1.953903
v -0.02444049 -49.83898 2.166047
v 0.7214293 -51.21276 3.338641
v 0.7214293 -51.21276 3.338641
v -0.02444049 -49.83898 2.166047
v 0.5693421 -51.0754 3.383206
v 0.5693421 -51.0754 3.383206
v -0.02444049 -49.83898 2.166047
v 0.1892692 -50.47342 2.980536
v -0.1392117 -51.76119 0.8720678
v -1.503758 -50.70316 1.336792
v 0.5164633 -50.30051 1.953903
v 0.5164633 -50.30051 1.953903
v -1.503758 -50.70316 1.336792
v -0.02444049 -49.83898 2.166047
v -0.02444049 -49.83898 2.166047
v -1.503758 -50.70316 1.336792
v -0.7288618 -49.87506 2.020016
v -0.7288618 -49.87506 2.020016
v -1.503758 -50.70316 1.336792
v -1.517039 -50.25464 1.631781
v -1.024017 -49.97824 2.063917
v -0.7288618 -49.87506 2.020016
v -1.648222 -50.28286 1.736968
v -1.648222 -50.28286 1.736968
v -0.7288618 -49.87506 2.020016
v -1.517039 -50.25464 1.631781
v -1.503758 -50.70316 1.336792
v -1.902023 -50.78988 1.655471
v -1.517039 -50.25464 1.631781
v -1.517039 -50.25464 1.631781
v -1.902023 -50.78988 1.655471
v -1.648222 -50.28286 1.736968
v -1.648222 -50.28286 1.736968
v -1.902023 -50.78988 1.655471
v -1.904158 -50.74011 1.688826
v -1.282477 -52.46656 1.998151
v -1.824234 -51.53675 1.946728
v -1.125289 -52.56133 1.93207
v -1.125289 -52.56133 1.93207
v -1.824234 -51.53675 1.946728
v -0.1831966 -52.35191 1.176228
v -0.1831966 -52.35191 1.176228
v -1.824234 -51.53675 1.946728
v -0.1392117 -51.76119 0.8720678
v -0.1392117 -51.76119 0.8720678
v -1.824234 -51.53675 1.946728
v -1.503758 -50.70316 1.336792
v -1.503758 -50.70316 1.336792
v -1.824234 -51.53675 1.946728
v -1.902023 -50.78988 1.655471
v -1.902023 -50.78988 1.655471
v -1.824234 -51.53675 1.946728
v -1.933807 -50.81299 1.688396
v -1.824234 -51.53675 1.946728
v -1.095858 -52.55386 2.683105
v -1.933807 -50.81299 1.688396
v -1.933807 -50.81299 1.688396
v -1.095858 -52.55386 2.683105
v -1.904158 -50.74011 1.688826
v -1.904158 -50.74011 1.688826
v -1.095858 -52.55386 2.683105
v -1.648222 -50.28286 1.736968
v -1.648222 -50.28286 1.736968
v -1.095858 -52.55386 2.683105
v -1.024017 -49.97824 2.063917
v -1.024017 -49.97824 2.063917
v -1.095858 -52.55386 2.683105
v 0.1892692 -50.47342 2.980536
v 0.1892692 -50.47342 2.980536
v -1.095858 -52.55386 2.683105
v 0.5693421 -51.0754 3.383206
v 0.5693421 -51.0754 3.383206
v -1.095858 -52.55386 2.683105
v 0.6198891 -51.47078 3.518278
v 0.6198891 -51.47078 3.518278
v -1.095858 -52.55386 2.683105
v 0.5427762 -51.79068 3.550862
v 0.5427762 -51.79068 3.550862
v -1.095858 -52.55386 2.683105
v 0.01343212 -52.31852 3.343265
v 0.01343212 -52.31852 3.343265
v -1.095858 -52.55386 2.683105
v -1.090242 -52.55702 2.687571
v 0.6072311 -51.96429 3.530317
v 0.5341022 -52.20517 3.469277
v 0.6950781 -51.52906 3.492122
v 0.6950781 -51.52906 3.492122
v 0.5341022 -52.20517 3.469277
v 0.7214293 -51.21276 3.338641
v 0.7214293 -51.21276 3.338641
v 0.5341022 -52.20517 3.469277
v 0.5164633 -50.30051 1.953903
v 0.5164633 -50.30051 1.953903
v 0.5341022 -52.20517 3.469277
v -0.1392117 -51.76119 0.8720678
v -0.1392117 -51.76119 0.8720678
v 0.5341022 -52.20517 3.469277
v -0.1831966 -52.35191 1.176228
v -1.824234 -51.53675 1.946728
v -1.282477 -52.46656 1.998151
v -1.095858 -52.55386 2.683105
v 0.6198891 -51.47078 3.518278
v 0.5427762 -51.79068 3.550862
v 0.6950781 -51.52906 3.492122
v 0.6950781 -51.52906 3.492122
v 0.5427762 -51.79068 3.550862
v 0.6072311 -51.96429 3.530317
v 0.01343212 -52.31852 3.343265
v -1.090242 -52.55702 2.687571
v 0.5341022 -52.20517 3.469277
v 0.5341022 -52.20517 3.469277
v -1.090242 -52.55702 2.687571
v -0.1831966 -52.35191 1.176228
v -0.1831966 -52.35191 1.176228
v -1.090242 -52.55702 2.687571
v -1.125289 -52.56133 1.93207
v 0.6072311 -51.96429 3.530317
v 0.5427762 -51.79068 3.550862
v 0.5341022 -52.20517 3.469277
v 0.5341022 -52.20517 3.469277
v 0.5427762 -51.79068 3.550862
v 0.01343212 -52.31852 3.343265
v -1.282477 -52.46656 1.998151
v -1.125289 -52.56133 1.93207
v -1.095858 -52.55386 2.683105
v -1.095858 -52.55386 2.683105
v -1.125289 -52.56133 1.93207
v -1.090242 -52.55702 2.687571

vn 0.5300695 0.3340251 0.7793931
vn 0.5300695 0.3340251 0.7793931
vn 0.5300695 0.3340251 0.7793931
vn 0.5300695 0.3340251 0.7793931
vn 0.5300695 0.3340251 0.7793931
vn 0.5300695 0.3340251 0.7793931
vn -0.1699008 0.7553315 0.6329361
vn -0.1699008 0.7553315 0.6329361
vn -0.1699008 0.7553315 0.6329361
vn -0.1699008 0.7553315 0.6329361
vn -0.1699008 0.7553315 0.6329361
vn -0.1699008 0.7553315 0.6329361
vn -0.7839429 0.3220608 -0.530764
vn -0.7839429 0.3220608 -0.530764
vn -0.7839429 0.3220608 -0.530764
vn 0.6843308 0.6513371 0.3277977
vn 0.6843308 0.6513371 0.3277977
vn 0.6843308 0.6513371 0.3277977
vn 0.6843308 0.6513371 0.3277977
vn 0.6843308 0.6513371 0.3277977
vn 0.6843308 0.6513371 0.3277977
vn 0.6843308 0.6513371 0.3277977
vn 0.6843308 0.6513371 0.3277977
vn 0.6843308 0.6513371 0.3277977
vn 0.1430234 0.546806 -0.8249531
vn 0.1430234 0.546806 -0.8249531
vn 0.1430234 0.546806 -0.8249531
vn 0.1430234 0.546806 -0.8249531
vn 0.1430234 0.546806 -0.8249531
vn 0.1430234 0.546806 -0.8249531
vn 0.1430234 0.546806 -0.8249531
vn 0.1430234 0.546806 -0.8249531
vn 0.1430234 0.546806 -0.8249531
vn 0.1430234 0.546806 -0.8249531
vn 0.1430234 0.546806 -0.8249531
vn 0.1430234 0.546806 -0.8249531
vn -0.3489659 0.917888 -0.1889566
vn -0.3489659 0.917888 -0.1889566
vn -0.3489659 0.917888 -0.1889566
vn -0.3489659 0.917888 -0.1889566
vn -0.3489659 0.917888 -0.1889566
vn -0.3489659 0.917888 -0.1889566
vn -0.6213604 0.4176232 -0.6629497
vn -0.6213604 0.4176232 -0.6629497
vn -0.6213604 0.4176232 -0.6629497
vn -0.6213604 0.4176232 -0.6629497
vn -0.6213604 0.4176232 -0.6629497
vn -0.6213604 0.4176232 -0.6629497
vn -0.6213604 0.4176232 -0.6629497
vn -0.6213604 0.4176232 -0.6629497
vn -0.6213604 0.4176232 -0.6629497
vn -0.5359012 -0.3546126 -0.7661984
vn -0.5359012 -0.3546126 -0.7661984
vn -0.5359012 -0.3546126 -0.7661984
vn -0.5359012 -0.3546126 -0.7661984
vn -0.5359012 -0.3546126 -0.7661984
vn -0.5359012 -0.3546126 -0.7661984
vn -0.5359012 -0.3546126 -0.7661984
vn -0.5359012 -0.3546126 -0.7661984
vn -0.5359012 -0.3546126 -0.7661984
vn -0.5359012 -0.3546126 -0.7661984
vn -0.5359012 -0.3546126 -0.7661984
vn -0.5359012 -0.3546126 -0.7661984
vn -0.5359012 -0.3546126 -0.7661984
vn -0.5359012 -0.3546126 -0.7661984
vn -0.5359012 -0.3546126 -0.7661984
vn -0.5359012 -0.3546126 -0.7661984
vn -0.5359012 -0.3546126 -0.7661984
vn -0.5359012 -0.3546126 -0.7661984
vn -0.5325979 0.2118464 0.8194271
vn -0.5325979 0.2118464 0.8194271
vn -0.5325979 0.2118464 0.8194271
vn -0.5325979 0.2118464 0.8194271
vn -0.5325979 0.2118464 0.8194271
vn -0.5325979 0.2118464 0.8194271
vn -0.5325979 0.2118464 0.8194271
vn -0.5325979 0.2118464 0.8194271
vn -0.5325979 0.2118464 0.8194271
vn -0.5325979 0.2118464 0.8194271
vn -0.5325979 0.2118464 0.8194271
vn -0.5325979 0.2118464 0.8194271
vn -0.5325979 0.2118464 0.8194271
vn -0.5325979 0.2118464 0.8194271
vn -0.5325979 0.2118464 0.8194271
vn -0.5325979 0.2118464 0.8194271
vn -0.5325979 0.2118464 0.8194271
vn -0.5325979 0.2118464 0.8194271
vn -0.5325979 0.2118464 0.8194271
vn -0.5325979 0.2118464 0.8194271
vn -0.5325979 0.2118464 0.8194271
vn -0.5325979 0.2118464 0.8194271
vn -0.5325979 0.2118464 0.8194271
vn -0.5325979 0.2118464 0.8194271
vn -0.5325979 0.2118464 0.8194271
vn -0.5325979 0.2118464 0.8194271
vn -0.5325979 0.2118464 0.8194271
vn -0.5325979 0.2118464 0.8194271
vn -0.5325979 0.2118464 0.8194271
vn -0.5325979 0.2118464 0.8194271
vn 0.936204 -0.2134688 -0.2792009
vn 0.936204 -0.2134688 -0.2792009
vn 0.936204 -0.2134688 -0.2792009
vn 0.936204 -0.2134688 -0.2792009
vn 0.936204 -0.2134688 -0.2792009
vn 0.936204 -0.2134688 -0.2792009
vn 0.936204 -0.2134688 -0.2792009
vn 0.936204 -0.2134688 -0.2792009
vn 0.936204 -0.2134688 -0.2792009
vn 0.936204 -0.2134688 -0.2792009
vn 0.936204 -0.2134688 -0.2792009
vn 0.936204 -0.2134688 -0.2792009
vn 0.936204 -0.2134688 -0.2792009
vn 0.936204 -0.2134688 -0.2792009
vn 0.936204 -0.2134688 -0.2792009
vn -0.8554236 -0.4889727 0.1707517
vn -0.8554236 -0.4889727 0.1707517
vn -0.8554236 -0.4889727 0.1707517
vn 0.3383321 0.01428359 0.9409184
vn 0.3383321 0.01428359 0.9409184
vn 0.3383321 0.01428359 0.9409184
vn 0.3383321 0.01428359 0.9409184
vn 0.3383321 0.01428359 0.9409184
vn 0.3383321 0.01428359 0.9409184
vn 0.2136865 -0.9768928 -0.004333581
vn 0.2136865 -0.9768928 -0.004333581
vn 0.2136865 -0.9768928 -0.004333581
vn 0.2136865 -0.9768928 -0.004333581
vn 0.2136865 -0.9768928 -0.004333581
vn 0.2136865 -0.9768928 -0.004333581
vn 0.2136865 -0.9768928 -0.004333581
vn 0.2136865 -0.9768928 -0.004333581
vn 0.2136865 -0.9768928 -0.004333581
vn -0.1927508 -0.1856542 0.9635247
vn -0.1927508 -0.1856542 0.9635247
vn -0.1927508 -0.1856542 0.9635247
vn -0.1927508 -0.1856542 0.9635247
vn -0.1927508 -0.1856542 0.9635247
vn -0.1927508 -0.1856542 0.9635247
vn -0.5072895 -0.861305 0.0284788
vn -0.5072895 -0.861305 0.0284788
vn -0.5072895 -0.861305 0.0284788
vn -0.5072895 -0.861305 0.0284788
vn -0.5072895 -0.861305 0.0284788
vn -0.5072895 -0.861305 0.0284788

vt 0.5617543 0.4878516
vt 0.618467 0.4540247
vt 0.5927123 0.4990085
vt 0.5927123 0.4990085
vt 0.618467 0.4540247
vt 0.6324928 0.4605735
vt 0.4810965 0.5864823
vt 0.6176044 0.4361455
vt 0.5205395 0.5936827
vt 0.5205395 0.5936827
vt 0.6176044 0.4361455
vt 0.6088102 0.5697376
vt 0.4863093 0.4284763
vt 0.4954411 0.4284154
vt 0.4901908 0.4329813
vt 0.49816 0.5392952
vt 0.4245667 0.5159314
vt 0.5816211 0.3867692
vt 0.5816211 0.3867692
vt 0.4245667 0.5159314
vt 0.5603574 0.3818611
vt 0.5603574 0.3818611
vt 0.4245667 0.5159314
vt 0.4877204 0.4262168
vt 0.5966782 0.6376634
vt 0.3204841 0.4946489
vt 0.6427215 0.3047332
vt 0.6427215 0.3047332
vt 0.3204841 0.4946489
vt 0.531387 0.2394466
vt 0.531387 0.2394466
vt 0.3204841 0.4946489
vt 0.4144364 0.2843883
vt 0.4144364 0.2843883
vt 0.3204841 0.4946489
vt 0.2985079 0.4038702
vt 0.5025197 0.4499744
vt 0.5338152 0.4544513
vt 0.4332719 0.4833045
vt 0.4332719 0.4833045
vt 0.5338152 0.4544513
vt 0.4465524 0.4940301
vt 0.4932941 0.4568186
vt 0.4546669 0.4009263
vt 0.5412031 0.4050797
vt 0.5412031 0.4050797
vt 0.4546669 0.4009263
vt 0.528518 0.3866286
vt 0.528518 0.3866286
vt 0.4546669 0.4009263
vt 0.4599359 0.3950759
vt 0.3947244 0.3458872
vt 0.5590917 0.3581269
vt 0.3693635 0.361624
vt 0.3693635 0.361624
vt 0.5590917 0.3581269
vt 0.3165511 0.5415828
vt 0.3165511 0.5415828
vt 0.5590917 0.3581269
vt 0.3882037 0.6139995
vt 0.3882037 0.6139995
vt 0.5590917 0.3581269
vt 0.63839 0.5033588
vt 0.63839 0.5033588
vt 0.5590917 0.3581269
vt 0.6609476 0.4274684
vt 0.6609476 0.4274684
vt 0.5590917 0.3581269
vt 0.6606851 0.4196305
vt 0.3788516 0.628166
vt 0.262923 0.4078173
vt 0.4872516 0.7054673
vt 0.4872516 0.7054673
vt 0.262923 0.4078173
vt 0.5007477 0.705336
vt 0.5007477 0.705336
vt 0.262923 0.4078173
vt 0.5898435 0.6909353
vt 0.5898435 0.6909353
vt 0.262923 0.4078173
vt 0.6779548 0.5930921
vt 0.6779548 0.5930921
vt 0.262923 0.4078173
vt 0.6759484 0.3188153
vt 0.6759484 0.3188153
vt 0.262923 0.4078173
vt 0.6041036 0.1983255
vt 0.6041036 0.1983255
vt 0.262923 0.4078173
vt 0.544297 0.1579076
vt 0.544297 0.1579076
vt 0.262923 0.4078173
vt 0.4884282 0.148157
vt 0.4884282 0.148157
vt 0.262923 0.4078173
vt 0.3707511 0.2102747
vt 0.3707511 0.2102747
vt 0.262923 0.4078173
vt 0.2627777 0.4064813
vt 0.5269336 0.2924091
vt 0.5526413 0.2989204
vt 0.4814856 0.2964827
vt 0.4814856 0.2964827
vt 0.5526413 0.2989204
vt 0.4493135 0.3128478
vt 0.4493135 0.3128478
vt 0.5526413 0.2989204
vt 0.3629272 0.4604938
vt 0.3629272 0.4604938
vt 0.5526413 0.2989204
vt 0.5236521 0.5758224
vt 0.5236521 0.5758224
vt 0.5526413 0.2989204
vt 0.5836181 0.5433923
vt 0.5277399 0.5066965
vt 0.4203759 0.501493
vt 0.4035749 0.4321281
vt 0.4702303 0.4076392
vt 0.4367596 0.416199
vt 0.4641784 0.3992949
vt 0.4641784 0.3992949
vt 0.4367596 0.416199
vt 0.4186554 0.4090502
vt 0.4470071 0.3496702
vt 0.5580135 0.4141317
vt 0.3946212 0.3372804
vt 0.3946212 0.3372804
vt 0.5580135 0.4141317
vt 0.4665926 0.5627153
vt 0.4665926 0.5627153
vt 0.5580135 0.4141317
vt 0.5614731 0.4884048
vt 0.453659 0.3250453
vt 0.4711257 0.331627
vt 0.4288045 0.3325129
vt 0.4288045 0.3325129
vt 0.4711257 0.331627
vt 0.4152615 0.385677
vt 0.485128 0.4860796
vt 0.4670754 0.4925769
vt 0.4649519 0.4186882
vt 0.4649519 0.4186882
vt 0.4670754 0.4925769
vt 0.464319 0.4182476

usemtl Material0
usemap Material0

usemtl Material1
usemap Material1
f 1/1/1 2/2/2 3/3/3
f 4/4/4 5/5/5 6/6/6
f 7/7/7 8/8/8 9/9/9
f 10/10/10 11/11/11 12/12/12
f 13/13/13 14/14/14 15/15/15
f 16/16/16 17/17/17 18/18/18
f 19/19/19 20/20/20 21/21/21
f 22/22/22 23/23/23 24/24/24
f 25/25/25 26/26/26 27/27/27
f 28/28/28 29/29/29 30/30/30
f 31/31/31 32/32/32 33/33/33
f 34/34/34 35/35/35 36/36/36
f 37/37/37 38/38/38 39/39/39
f 40/40/40 41/41/41 42/42/42
f 43/43/43 44/44/44 45/45/45
f 46/46/46 47/47/47 48/48/48
f 49/49/49 50/50/50 51/51/51
f 52/52/52 53/53/53 54/54/54
f 55/55/55 56/56/56 57/57/57
f 58/58/58 59/59/59 60/60/60
f 61/61/61 62/62/62 63/63/63
f 64/64/64 65/65/65 66/66/66
f 67/67/67 68/68/68 69/69/69
f 70/70/70 71/71/71 72/72/72
f 73/73/73 74/74/74 75/75/75
f 76/76/76 77/77/77 78/78/78
f 79/79/79 80/80/80 81/81/81
f 82/82/82 83/83/83 84/84/84
f 85/85/85 86/86/86 87/87/87
f 88/88/88 89/89/89 90/90/90
f 91/91/91 92/92/92 93/93/93
f 94/94/94 95/95/95 96/96/96
f 97/97/97 98/98/98 99/99/99
f 100/100/100 101/101/101 102/102/102
f 103/103/103 104/104/104 105/105/105
f 106/106/106 107/107/107 108/108/108
f 109/109/109 110/110/110 111/111/111
f 112/112/112 113/113/113 114/114/114
f 115/115/115 116/116/116 117/117/117
f 118/118/118 119/119/119 120/120/120
f 121/121/121 122/122/122 123/123/123
f 124/124/124 125/125/125 126/126/126
f 127/127/127 128/128/128 129/129/129
f 130/130/130 131/131/131 132/132/132
f 133/133/133 134/134/134 135/135/135
f 136/136/136 137/137/137 138/138/138
f 139/139/139 140/140/140 141/141/141
f 142/142/142 143/143/143 144/144/144
