g  Instance
v 6.752997 -54.90628 5.506849
v 6.429976 -55.90048 4.860784
v 6.909805 -55.02021 5.170996
v 6.752997 -54.90628 5.506849
v 6.824364 -54.71447 5.565046
v 6.473955 -54.70355 5.960229
v 6.473955 -54.70355 5.960229
v 6.824364 -54.71447 5.565046
v 6.642642 -54.6407 5.818667
v 6.752997 -54.90628 5.506849
v 6.950463 -54.76282 5.355998
v 6.824364 -54.71447 5.565046
v 6.752997 -54.90628 5.506849
v 6.909805 -55.02021 5.170996
v 6.950463 -54.76282 5.355998
v 6.950463 -54.76282 5.355998
v 6.909805 -55.02021 5.170996
v 7.005486 -54.78322 5.256714
v 6.752997 -54.90628 5.506849
v 6.473955 -54.70355 5.960229
v 5.77066 -55.68513 5.863342
v 5.77066 -55.68513 5.863342
v 6.473955 -54.70355 5.960229
v 5.982307 -54.86634 6.32719
v 5.77066 -55.68513 5.863342
v 5.982307 -54.86634 6.32719
v 5.378125 -55.4349 6.403807
v 5.378125 -55.4349 6.403807
v 5.982307 -54.86634 6.32719
v 5.479095 -55.10359 6.578124
v 5.479095 -55.10359 6.578124
v 5.982307 -54.86634 6.32719
v 5.853242 -54.90325 6.410504
v 5.378125 -55.4349 6.403807
v 5.174919 -56.05628 6.001065
v 5.77066 -55.68513 5.863342
v 6.752997 -54.90628 5.506849
v 5.77066 -55.68513 5.863342
v 6.429976 -55.90048 4.860784
v 6.429976 -55.90048 4.860784
v 5.77066 -55.68513 5.863342
v 6.357973 -56.02501 4.817169
v 5.77066 -55.68513 5.863342
v 5.319407 -56.81712 5.023017
v 6.357973 -56.02501 4.817169
v 6.357973 -56.02501 4.817169
v 5.319407 -56.81712 5.023017
v 6.29754 -56.10381 4.790548
v 4.968356 -56.64301 5.540291
v 5.319407 -56.81712 5.023017
v 5.174919 -56.05628 6.001065
v 5.174919 -56.05628 6.001065
v 5.319407 -56.81712 5.023017
v 5.77066 -55.68513 5.863342
v 4.789197 -57.11214 5.095159
v 5.319407 -56.81712 5.023017
v 4.968356 -56.64301 5.540291
v 5.319407 -56.81712 5.023017
v 5.651944 -56.8469 4.544473
v 6.29754 -56.10381 4.790548
v 5.319407 -56.81712 5.023017
v 5.100489 -57.37373 4.376165
v 5.651944 -56.8469 4.544473
v 4.5747 -57.62706 4.508756
v 4.742982 -57.66031 4.288396
v 4.789197 -57.11214 5.095159
v 4.789197 -57.11214 5.095159
v 4.742982 -57.66031 4.288396
v 5.319407 -56.81712 5.023017
v 5.319407 -56.81712 5.023017
v 4.742982 -57.66031 4.288396
v 5.100489 -57.37373 4.376165
v 4.5747 -57.62706 4.508756
v 4.484724 -57.82455 4.241603
v 4.742982 -57.66031 4.288396
v 6.824364 -54.71447 5.565046
v 6.950463 -54.76282 5.355998
v 6.642642 -54.6407 5.818667
v 6.642642 -54.6407 5.818667
v 6.950463 -54.76282 5.355998
v 6.523536 -54.56311 5.645716
v 6.523536 -54.56311 5.645716
v 6.950463 -54.76282 5.355998
v 6.555356 -54.55647 5.374293
v 6.555356 -54.55647 5.374293
v 6.950463 -54.76282 5.355998
v 7.005486 -54.78322 5.256714
v 6.523536 -54.56311 5.645716
v 5.853242 -54.90325 6.410504
v 6.642642 -54.6407 5.818667
v 6.642642 -54.6407 5.818667
v 5.853242 -54.90325 6.410504
v 6.473955 -54.70355 5.960229
v 6.473955 -54.70355 5.960229
v 5.853242 -54.90325 6.410504
v 5.982307 -54.86634 6.32719
v 5.17403 -55.32957 5.164866
v 4.484724 -57.82455 4.241603
v 5.479095 -55.10359 6.578124
v 5.479095 -55.10359 6.578124
v 4.484724 -57.82455 4.241603
v 5.378125 -55.4349 6.403807
v 5.378125 -55.4349 6.403807
v 4.484724 -57.82455 4.241603
v 5.174919 -56.05628 6.001065
v 5.174919 -56.05628 6.001065
v 4.484724 -57.82455 4.241603
v 4.968356 -56.64301 5.540291
v 4.968356 -56.64301 5.540291
v 4.484724 -57.82455 4.241603
v 4.789197 -57.11214 5.095159
v 4.789197 -57.11214 5.095159
v 4.484724 -57.82455 4.241603
v 4.5747 -57.62706 4.508756
v 6.555356 -54.55647 5.374293
v 7.005486 -54.78322 5.256714
v 5.17403 -55.32957 5.164866
v 5.17403 -55.32957 5.164866
v 7.005486 -54.78322 5.256714
v 4.484724 -57.82455 4.241603
v 4.484724 -57.82455 4.241603
v 7.005486 -54.78322 5.256714
v 4.742982 -57.66031 4.288396
v 4.742982 -57.66031 4.288396
v 7.005486 -54.78322 5.256714
v 5.100489 -57.37373 4.376165
v 5.100489 -57.37373 4.376165
v 7.005486 -54.78322 5.256714
v 5.651944 -56.8469 4.544473
v 5.651944 -56.8469 4.544473
v 7.005486 -54.78322 5.256714
v 6.29754 -56.10381 4.790548
v 6.29754 -56.10381 4.790548
v 7.005486 -54.78322 5.256714
v 6.357973 -56.02501 4.817169
v 6.357973 -56.02501 4.817169
v 7.005486 -54.78322 5.256714
v 6.429976 -55.90048 4.860784
v 6.429976 -55.90048 4.860784
v 7.005486 -54.78322 5.256714
v 6.909805 -55.02021 5.170996
v 5.17403 -55.32957 5.164866
v 5.479095 -55.10359 6.578124
v 6.555356 -54.55647 5.374293
v 6.555356 -54.55647 5.374293
v 5.479095 -55.10359 6.578124
v 6.523536 -54.56311 5.645716
v 6.523536 -54.56311 5.645716
v 5.479095 -55.10359 6.578124
v 5.853242 -54.90325 6.410504

vn 0.6745633 -0.5436813 0.4993747
vn 0.6745633 -0.5436813 0.4993747
vn 0.6745633 -0.5436813 0.4993747
vn 0.6687127 -0.4323414 0.6049002
vn 0.6687127 -0.4323414 0.6049002
vn 0.6687127 -0.4323414 0.6049002
vn 0.6687127 -0.4323414 0.6049002
vn 0.6687127 -0.4323414 0.6049002
vn 0.6687127 -0.4323414 0.6049002
vn 0.7243628 -0.4324269 0.5369408
vn 0.7243628 -0.4324269 0.5369408
vn 0.7243628 -0.4324269 0.5369408
vn 0.7255292 -0.4735322 0.4993742
vn 0.7255292 -0.4735322 0.4993742
vn 0.7255292 -0.4735322 0.4993742
vn 0.7255292 -0.4735322 0.4993742
vn 0.7255292 -0.4735322 0.4993742
vn 0.7255292 -0.4735322 0.4993742
vn 0.6178299 -0.5023764 0.6049002
vn 0.6178299 -0.5023764 0.6049002
vn 0.6178299 -0.5023764 0.6049002
vn 0.6178299 -0.5023764 0.6049002
vn 0.6178299 -0.5023764 0.6049002
vn 0.6178299 -0.5023764 0.6049002
vn 0.5643606 -0.5125049 0.6471752
vn 0.5643606 -0.5125049 0.6471752
vn 0.5643606 -0.5125049 0.6471752
vn 0.5643606 -0.5125049 0.6471752
vn 0.5643606 -0.5125049 0.6471752
vn 0.5643606 -0.5125049 0.6471752
vn 0.5643606 -0.5125049 0.6471752
vn 0.5643606 -0.5125049 0.6471752
vn 0.5643606 -0.5125049 0.6471752
vn 0.508217 -0.5792679 0.63731
vn 0.508217 -0.5792679 0.63731
vn 0.508217 -0.5792679 0.63731
vn 0.6351078 -0.5552749 0.5369429
vn 0.6351078 -0.5552749 0.5369429
vn 0.6351078 -0.5552749 0.5369429
vn 0.6351078 -0.5552749 0.5369429
vn 0.6351078 -0.5552749 0.5369429
vn 0.6351078 -0.5552749 0.5369429
vn 0.5789374 -0.6220809 0.5271117
vn 0.5789374 -0.6220809 0.5271117
vn 0.5789374 -0.6220809 0.5271117
vn 0.5789374 -0.6220809 0.5271117
vn 0.5789374 -0.6220809 0.5271117
vn 0.5789374 -0.6220809 0.5271117
vn 0.5254799 -0.6321717 0.5694118
vn 0.5254799 -0.6321717 0.5694118
vn 0.5254799 -0.6321717 0.5694118
vn 0.5254799 -0.6321717 0.5694118
vn 0.5254799 -0.6321717 0.5694118
vn 0.5254799 -0.6321717 0.5694118
vn 0.4623329 -0.6968417 0.5483245
vn 0.4623329 -0.6968417 0.5483245
vn 0.4623329 -0.6968417 0.5483245
vn 0.5930014 -0.6653683 0.4534695
vn 0.5930014 -0.6653683 0.4534695
vn 0.5930014 -0.6653683 0.4534695
vn 0.5524184 -0.7150799 0.4283628
vn 0.5524184 -0.7150799 0.4283628
vn 0.5524184 -0.7150799 0.4283628
vn 0.47627 -0.7397361 0.4753498
vn 0.47627 -0.7397361 0.4753498
vn 0.47627 -0.7397361 0.4753498
vn 0.47627 -0.7397361 0.4753498
vn 0.47627 -0.7397361 0.4753498
vn 0.47627 -0.7397361 0.4753498
vn 0.47627 -0.7397361 0.4753498
vn 0.47627 -0.7397361 0.4753498
vn 0.47627 -0.7397361 0.4753498
vn 0.4228454 -0.7909431 0.442279
vn 0.4228454 -0.7909431 0.442279
vn 0.4228454 -0.7909431 0.442279
vn 0.464362 0.8823739 0.07605427
vn 0.464362 0.8823739 0.07605427
vn 0.464362 0.8823739 0.07605427
vn 0.464362 0.8823739 0.07605427
vn 0.464362 0.8823739 0.07605427
vn 0.464362 0.8823739 0.07605427
vn 0.464362 0.8823739 0.07605427
vn 0.464362 0.8823739 0.07605427
vn 0.464362 0.8823739 0.07605427
vn 0.464362 0.8823739 0.07605427
vn 0.464362 0.8823739 0.07605427
vn 0.464362 0.8823739 0.07605427
vn 0.002254182 0.9129706 0.4080194
vn 0.002254182 0.9129706 0.4080194
vn 0.002254182 0.9129706 0.4080194
vn 0.002254182 0.9129706 0.4080194
vn 0.002254182 0.9129706 0.4080194
vn 0.002254182 0.9129706 0.4080194
vn 0.002254182 0.9129706 0.4080194
vn 0.002254182 0.9129706 0.4080194
vn 0.002254182 0.9129706 0.4080194
vn -0.9636449 0.2011634 0.1758462
vn -0.9636449 0.2011634 0.1758462
vn -0.9636449 0.2011634 0.1758462
vn -0.9636449 0.2011634 0.1758462
vn -0.9636449 0.2011634 0.1758462
vn -0.9636449 0.2011634 0.1758462
vn -0.9636449 0.2011634 0.1758462
vn -0.9636449 0.2011634 0.1758462
vn -0.9636449 0.2011634 0.1758462
vn -0.9636449 0.2011634 0.1758462
vn -0.9636449 0.2011634 0.1758462
vn -0.9636449 0.2011634 0.1758462
vn -0.9636449 0.2011634 0.1758462
vn -0.9636449 0.2011634 0.1758462
vn -0.9636449 0.2011634 0.1758462
vn -0.9636449 0.2011634 0.1758462
vn -0.9636449 0.2011634 0.1758462
vn -0.9636449 0.2011634 0.1758462
vn -0.06109603 0.3612102 -0.9304808
vn -0.06109603 0.3612102 -0.9304808
vn -0.06109603 0.3612102 -0.9304808
vn -0.06109603 0.3612102 -0.9304808
vn -0.06109603 0.3612102 -0.9304808
vn -0.06109603 0.3612102 -0.9304808
vn -0.06109603 0.3612102 -0.9304808
vn -0.06109603 0.3612102 -0.9304808
vn -0.06109603 0.3612102 -0.9304808
vn -0.06109603 0.3612102 -0.9304808
vn -0.06109603 0.3612102 -0.9304808
vn -0.06109603 0.3612102 -0.9304808
vn -0.06109603 0.3612102 -0.9304808
vn -0.06109603 0.3612102 -0.9304808
vn -0.06109603 0.3612102 -0.9304808
vn -0.06109603 0.3612102 -0.9304808
vn -0.06109603 0.3612102 -0.9304808
vn -0.06109603 0.3612102 -0.9304808
vn -0.06109603 0.3612102 -0.9304808
vn -0.06109603 0.3612102 -0.9304808
vn -0.06109603 0.3612102 -0.9304808
vn -0.06109603 0.3612102 -0.9304808
vn -0.06109603 0.3612102 -0.9304808
vn -0.06109603 0.3612102 -0.9304808
vn -0.06109603 0.3612102 -0.9304808
vn -0.06109603 0.3612102 -0.9304808
vn -0.06109603 0.3612102 -0.9304808
vn -0.4840098 0.8743489 -0.03533458
vn -0.4840098 0.8743489 -0.03533458
vn -0.4840098 0.8743489 -0.03533458
vn -0.4840098 0.8743489 -0.03533458
vn -0.4840098 0.8743489 -0.03533458
vn -0.4840098 0.8743489 -0.03533458
vn -0.4840098 0.8743489 -0.03533458
vn -0.4840098 0.8743489 -0.03533458
vn -0.4840098 0.8743489 -0.03533458

vt 0.9886362 0.3346036
vt 0.9786743 0.3173489
vt 0.9923249 0.3282145
vt 0.1022726 0.3346036
vt 0.1059829 0.3346036
vt 0.1070951 0.3429565
vt 0.1070951 0.3429565
vt 0.1059829 0.3346036
vt 0.1079415 0.3395326
vt 0.1022726 0.3346036
vt 0.1045986 0.3305748
vt 0.1059829 0.3346036
vt 0.1022726 0.3346036
vt 0.09858393 0.3282145
vt 0.1045986 0.3305748
vt 0.1045986 0.3305748
vt 0.09858393 0.3282145
vt 0.1037799 0.328607
vt 0.9886362 0.3346036
vt 0.9838136 0.3429565
vt 0.9659088 0.3346036
vt 0.9659088 0.3346036
vt 0.9838136 0.3429565
vt 0.9733135 0.3474291
vt 0.9659088 0.3346036
vt 0.9733135 0.3474291
vt 0.9603369 0.3442544
vt 0.9603369 0.3442544
vt 0.9733135 0.3474291
vt 0.9635958 0.3492517
vt 0.9635958 0.3492517
vt 0.9733135 0.3474291
vt 0.9709315 0.348349
vt 0.9603369 0.3442544
vt 0.9547342 0.3346036
vt 0.9659088 0.3346036
vt 0.9886362 0.3346036
vt 0.9659088 0.3346036
vt 0.9786743 0.3173489
vt 0.9786743 0.3173489
vt 0.9659088 0.3346036
vt 0.9767811 0.3157723
vt 0.9659088 0.3346036
vt 0.9545451 0.314921
vt 0.9767811 0.3157723
vt 0.9767811 0.3157723
vt 0.9545451 0.314921
vt 0.9754165 0.314921
vt 0.9492988 0.324008
vt 0.9545451 0.314921
vt 0.9547342 0.3346036
vt 0.9547342 0.3346036
vt 0.9545451 0.314921
vt 0.9659088 0.3346036
vt 0.9450517 0.314921
vt 0.9545451 0.314921
vt 0.9492988 0.324008
vt 0.9545451 0.314921
vt 0.9590245 0.3071625
vt 0.9754165 0.314921
vt 0.9545451 0.314921
vt 0.9474228 0.3025848
vt 0.9590245 0.3071625
vt 0.9382975 0.3036978
vt 0.940376 0.3000977
vt 0.9450517 0.314921
vt 0.9450517 0.314921
vt 0.940376 0.3000977
vt 0.9545451 0.314921
vt 0.9545451 0.314921
vt 0.940376 0.3000977
vt 0.9474228 0.3025848
vt 0.9382975 0.3036978
vt 0.9359738 0.2989649
vt 0.940376 0.3000977
vt 0.5523975 0.4969553
vt 0.5656264 0.5176283
vt 0.5331495 0.4718757
vt 0.5331495 0.4718757
vt 0.5656264 0.5176283
vt 0.5191987 0.4889767
vt 0.5191987 0.4889767
vt 0.5656264 0.5176283
vt 0.5216739 0.5158188
vt 0.5216739 0.5158188
vt 0.5656264 0.5176283
vt 0.5713643 0.5274445
vt 0.6244486 0.5498052
vt 0.5523506 0.4596031
vt 0.637293 0.529404
vt 0.637293 0.529404
vt 0.5523506 0.4596031
vt 0.619142 0.5127156
vt 0.619142 0.5127156
vt 0.5523506 0.4596031
vt 0.5662358 0.4694287
vt 0.5835149 0.5254475
vt 0.3255376 0.6191186
vt 0.6118291 0.3820814
vt 0.6118291 0.3820814
vt 0.3255376 0.6191186
vt 0.5773833 0.3997637
vt 0.5773833 0.3997637
vt 0.3255376 0.6191186
vt 0.5124952 0.4406223
vt 0.5124952 0.4406223
vt 0.3255376 0.6191186
vt 0.4509167 0.4873641
vt 0.4509167 0.4873641
vt 0.3255376 0.6191186
vt 0.4013998 0.5325167
vt 0.4013998 0.5325167
vt 0.3255376 0.6191186
vt 0.3466794 0.5920139
vt 0.336235 0.3487842
vt 0.361249 0.3043676
vt 0.4146896 0.4850952
vt 0.4146896 0.4850952
vt 0.361249 0.3043676
vt 0.6766797 0.5531054
vt 0.6766797 0.5531054
vt 0.361249 0.3043676
vt 0.659935 0.5276321
vt 0.659935 0.5276321
vt 0.361249 0.3043676
vt 0.6304958 0.4923519
vt 0.6304958 0.4923519
vt 0.361249 0.3043676
vt 0.5761271 0.4379362
vt 0.5761271 0.4379362
vt 0.361249 0.3043676
vt 0.4991163 0.3742248
vt 0.4991163 0.3742248
vt 0.361249 0.3043676
vt 0.4909315 0.3682619
vt 0.4909315 0.3682619
vt 0.361249 0.3043676
vt 0.4779464 0.3611552
vt 0.4779464 0.3611552
vt 0.361249 0.3043676
vt 0.3860614 0.3138087
vt 0.5282367 0.5171689
vt 0.5652608 0.3780546
vt 0.6839458 0.4965428
vt 0.6839458 0.4965428
vt 0.5652608 0.3780546
vt 0.6808893 0.4698318
vt 0.6808893 0.4698318
vt 0.5652608 0.3780546
vt 0.6070007 0.3945556

usemtl Material0
usemap Material0
f 1/1/1 2/2/2 3/3/3
f 4/4/4 5/5/5 6/6/6
f 7/7/7 8/8/8 9/9/9
f 10/10/10 11/11/11 12/12/12
f 13/13/13 14/14/14 15/15/15
f 16/16/16 17/17/17 18/18/18
f 19/19/19 20/20/20 21/21/21
f 22/22/22 23/23/23 24/24/24
f 25/25/25 26/26/26 27/27/27
f 28/28/28 29/29/29 30/30/30
f 31/31/31 32/32/32 33/33/33
f 34/34/34 35/35/35 36/36/36
f 37/37/37 38/38/38 39/39/39
f 40/40/40 41/41/41 42/42/42
f 43/43/43 44/44/44 45/45/45
f 46/46/46 47/47/47 48/48/48
f 49/49/49 50/50/50 51/51/51
f 52/52/52 53/53/53 54/54/54
f 55/55/55 56/56/56 57/57/57
f 58/58/58 59/59/59 60/60/60
f 61/61/61 62/62/62 63/63/63
f 64/64/64 65/65/65 66/66/66
f 67/67/67 68/68/68 69/69/69
f 70/70/70 71/71/71 72/72/72
f 73/73/73 74/74/74 75/75/75

usemtl Material1
usemap Material1
f 76/76/76 77/77/77 78/78/78
f 79/79/79 80/80/80 81/81/81
f 82/82/82 83/83/83 84/84/84
f 85/85/85 86/86/86 87/87/87
f 88/88/88 89/89/89 90/90/90
f 91/91/91 92/92/92 93/93/93
f 94/94/94 95/95/95 96/96/96
f 97/97/97 98/98/98 99/99/99
f 100/100/100 101/101/101 102/102/102
f 103/103/103 104/104/104 105/105/105
f 106/106/106 107/107/107 108/108/108
f 109/109/109 110/110/110 111/111/111
f 112/112/112 113/113/113 114/114/114
f 115/115/115 116/116/116 117/117/117
f 118/118/118 119/119/119 120/120/120
f 121/121/121 122/122/122 123/123/123
f 124/124/124 125/125/125 126/126/126
f 127/127/127 128/128/128 129/129/129
f 130/130/130 131/131/131 132/132/132
f 133/133/133 134/134/134 135/135/135
f 136/136/136 137/137/137 138/138/138
f 139/139/139 140/140/140 141/141/141
f 142/142/142 143/143/143 144/144/144
f 145/145/145 146/146/146 147/147/147
f 148/148/148 149/149/149 150/150/150
