g  Instance
v -3.240282 -51.93884 0.06694317
v -3.042391 -52.08809 0.1632852
v -3.647161 -51.12267 -0.3279555
v -3.647161 -51.12267 -0.3279555
v -3.042391 -52.08809 0.1632852
v -2.679871 -50.67782 -0.3108923
v -2.679871 -50.67782 -0.3108923
v -3.042391 -52.08809 0.1632852
v -2.313253 -51.4442 0.05690165
v -2.987117 -52.35329 0.03603125
v -3.240282 -51.93884 0.06694317
v -2.654762 -52.79991 -0.2933966
v -2.654762 -52.79991 -0.2933966
v -3.240282 -51.93884 0.06694317
v -2.319534 -52.72589 -2.179678
v -2.319534 -52.72589 -2.179678
v -3.240282 -51.93884 0.06694317
v -2.55419 -52.04984 -3.015842
v -2.55419 -52.04984 -3.015842
v -3.240282 -51.93884 0.06694317
v -2.752286 -51.69644 -3.077829
v -2.752286 -51.69644 -3.077829
v -3.240282 -51.93884 0.06694317
v -3.326693 -50.84111 -2.755723
v -3.326693 -50.84111 -2.755723
v -3.240282 -51.93884 0.06694317
v -3.349908 -50.83067 -2.671197
v -3.349908 -50.83067 -2.671197
v -3.240282 -51.93884 0.06694317
v -3.647161 -51.12267 -0.3279555
v -3.240282 -51.93884 0.06694317
v -2.987117 -52.35329 0.03603125
v -3.042391 -52.08809 0.1632852
v -2.313253 -51.4442 0.05690165
v -1.748889 -51.24663 -0.1396747
v -2.679871 -50.67782 -0.3108923
v -2.679871 -50.67782 -0.3108923
v -1.748889 -51.24663 -0.1396747
v -2.439403 -50.56019 -0.4131737
v -2.439403 -50.56019 -0.4131737
v -1.748889 -51.24663 -0.1396747
v -1.813497 -50.57439 -0.5019734
v -1.404841 -50.69881 -1.503983
v -1.614204 -50.81268 -2.446892
v -1.813497 -50.57439 -0.5019734
v -1.813497 -50.57439 -0.5019734
v -1.614204 -50.81268 -2.446892
v -2.439403 -50.56019 -0.4131737
v -2.439403 -50.56019 -0.4131737
v -1.614204 -50.81268 -2.446892
v -3.349908 -50.83067 -2.671197
v -3.349908 -50.83067 -2.671197
v -1.614204 -50.81268 -2.446892
v -3.326693 -50.84111 -2.755723
v -3.326693 -50.84111 -2.755723
v -1.614204 -50.81268 -2.446892
v -2.282642 -50.89972 -3.190076
v -2.282642 -50.89972 -3.190076
v -1.614204 -50.81268 -2.446892
v -2.132513 -50.89934 -3.180322
v -1.748889 -51.24663 -0.1396747
v -1.204073 -52.27089 -0.7905772
v -1.813497 -50.57439 -0.5019734
v -1.813497 -50.57439 -0.5019734
v -1.204073 -52.27089 -0.7905772
v -1.404841 -50.69881 -1.503983
v -1.404841 -50.69881 -1.503983
v -1.204073 -52.27089 -0.7905772
v -1.227093 -51.22644 -1.561966
v -2.654762 -52.79991 -0.2933966
v -1.394848 -52.62521 -0.8332746
v -2.987117 -52.35329 0.03603125
v -2.987117 -52.35329 0.03603125
v -1.394848 -52.62521 -0.8332746
v -3.042391 -52.08809 0.1632852
v -3.042391 -52.08809 0.1632852
v -1.394848 -52.62521 -0.8332746
v -2.313253 -51.4442 0.05690165
v -2.313253 -51.4442 0.05690165
v -1.394848 -52.62521 -0.8332746
v -1.748889 -51.24663 -0.1396747
v -1.748889 -51.24663 -0.1396747
v -1.394848 -52.62521 -0.8332746
v -1.204073 -52.27089 -0.7905772
v -2.207051 -51.00703 -3.21867
v -2.55419 -52.04984 -3.015842
v -2.237305 -51.00184 -3.218996
v -2.237305 -51.00184 -3.218996
v -2.55419 -52.04984 -3.015842
v -2.752286 -51.69644 -3.077829
v -2.439403 -50.56019 -0.4131737
v -3.349908 -50.83067 -2.671197
v -2.679871 -50.67782 -0.3108923
v -2.679871 -50.67782 -0.3108923
v -3.349908 -50.83067 -2.671197
v -3.647161 -51.12267 -0.3279555
v -2.654762 -52.79991 -0.2933966
v -2.319534 -52.72589 -2.179678
v -1.394848 -52.62521 -0.8332746
v -2.752286 -51.69644 -3.077829
v -3.326693 -50.84111 -2.755723
v -2.237305 -51.00184 -3.218996
v -2.237305 -51.00184 -3.218996
v -3.326693 -50.84111 -2.755723
v -2.282642 -50.89972 -3.190076
v -1.404841 -50.69881 -1.503983
v -1.227093 -51.22644 -1.561966
v -1.614204 -50.81268 -2.446892
v -2.282642 -50.89972 -3.190076
v -2.132513 -50.89934 -3.180322
v -2.237305 -51.00184 -3.218996
v -2.237305 -51.00184 -3.218996
v -2.132513 -50.89934 -3.180322
v -2.207051 -51.00703 -3.21867
v -2.319534 -52.72589 -2.179678
v -2.55419 -52.04984 -3.015842
v -1.394848 -52.62521 -0.8332746
v -1.394848 -52.62521 -0.8332746
v -2.55419 -52.04984 -3.015842
v -1.204073 -52.27089 -0.7905772
v -1.204073 -52.27089 -0.7905772
v -2.55419 -52.04984 -3.015842
v -1.227093 -51.22644 -1.561966
v -1.227093 -51.22644 -1.561966
v -2.55419 -52.04984 -3.015842
v -1.614204 -50.81268 -2.446892
v -1.614204 -50.81268 -2.446892
v -2.55419 -52.04984 -3.015842
v -2.132513 -50.89934 -3.180322
v -2.132513 -50.89934 -3.180322
v -2.55419 -52.04984 -3.015842
v -2.207051 -51.00703 -3.21867

vn -0.1792785 0.3546308 0.9176581
vn -0.1792785 0.3546308 0.9176581
vn -0.1792785 0.3546308 0.9176581
vn -0.1792785 0.3546308 0.9176581
vn -0.1792785 0.3546308 0.9176581
vn -0.1792785 0.3546308 0.9176581
vn -0.1792785 0.3546308 0.9176581
vn -0.1792785 0.3546308 0.9176581
vn -0.1792785 0.3546308 0.9176581
vn -0.8465303 -0.504386 -0.1702389
vn -0.8465303 -0.504386 -0.1702389
vn -0.8465303 -0.504386 -0.1702389
vn -0.8465303 -0.504386 -0.1702389
vn -0.8465303 -0.504386 -0.1702389
vn -0.8465303 -0.504386 -0.1702389
vn -0.8465303 -0.504386 -0.1702389
vn -0.8465303 -0.504386 -0.1702389
vn -0.8465303 -0.504386 -0.1702389
vn -0.8465303 -0.504386 -0.1702389
vn -0.8465303 -0.504386 -0.1702389
vn -0.8465303 -0.504386 -0.1702389
vn -0.8465303 -0.504386 -0.1702389
vn -0.8465303 -0.504386 -0.1702389
vn -0.8465303 -0.504386 -0.1702389
vn -0.8465303 -0.504386 -0.1702389
vn -0.8465303 -0.504386 -0.1702389
vn -0.8465303 -0.504386 -0.1702389
vn -0.8465303 -0.504386 -0.1702389
vn -0.8465303 -0.504386 -0.1702389
vn -0.8465303 -0.504386 -0.1702389
vn -0.6382142 -0.4371044 0.633737
vn -0.6382142 -0.4371044 0.633737
vn -0.6382142 -0.4371044 0.633737
vn 0.133891 0.4801006 0.8669352
vn 0.133891 0.4801006 0.8669352
vn 0.133891 0.4801006 0.8669352
vn 0.133891 0.4801006 0.8669352
vn 0.133891 0.4801006 0.8669352
vn 0.133891 0.4801006 0.8669352
vn 0.133891 0.4801006 0.8669352
vn 0.133891 0.4801006 0.8669352
vn 0.133891 0.4801006 0.8669352
vn 0.005350946 0.9926298 -0.1210683
vn 0.005350946 0.9926298 -0.1210683
vn 0.005350946 0.9926298 -0.1210683
vn 0.005350946 0.9926298 -0.1210683
vn 0.005350946 0.9926298 -0.1210683
vn 0.005350946 0.9926298 -0.1210683
vn 0.005350946 0.9926298 -0.1210683
vn 0.005350946 0.9926298 -0.1210683
vn 0.005350946 0.9926298 -0.1210683
vn 0.005350946 0.9926298 -0.1210683
vn 0.005350946 0.9926298 -0.1210683
vn 0.005350946 0.9926298 -0.1210683
vn 0.005350946 0.9926298 -0.1210683
vn 0.005350946 0.9926298 -0.1210683
vn 0.005350946 0.9926298 -0.1210683
vn 0.005350946 0.9926298 -0.1210683
vn 0.005350946 0.9926298 -0.1210683
vn 0.005350946 0.9926298 -0.1210683
vn 0.9033715 0.2674887 0.3352159
vn 0.9033715 0.2674887 0.3352159
vn 0.9033715 0.2674887 0.3352159
vn 0.9033715 0.2674887 0.3352159
vn 0.9033715 0.2674887 0.3352159
vn 0.9033715 0.2674887 0.3352159
vn 0.9033715 0.2674887 0.3352159
vn 0.9033715 0.2674887 0.3352159
vn 0.9033715 0.2674887 0.3352159
vn 0.4102385 -0.3236211 0.8526276
vn 0.4102385 -0.3236211 0.8526276
vn 0.4102385 -0.3236211 0.8526276
vn 0.4102385 -0.3236211 0.8526276
vn 0.4102385 -0.3236211 0.8526276
vn 0.4102385 -0.3236211 0.8526276
vn 0.4102385 -0.3236211 0.8526276
vn 0.4102385 -0.3236211 0.8526276
vn 0.4102385 -0.3236211 0.8526276
vn 0.4102385 -0.3236211 0.8526276
vn 0.4102385 -0.3236211 0.8526276
vn 0.4102385 -0.3236211 0.8526276
vn 0.4102385 -0.3236211 0.8526276
vn 0.4102385 -0.3236211 0.8526276
vn 0.4102385 -0.3236211 0.8526276
vn -0.02100623 -0.1841399 -0.9826756
vn -0.02100623 -0.1841399 -0.9826756
vn -0.02100623 -0.1841399 -0.9826756
vn -0.02100623 -0.1841399 -0.9826756
vn -0.02100623 -0.1841399 -0.9826756
vn -0.02100623 -0.1841399 -0.9826756
vn -0.4179491 0.9064906 0.05994707
vn -0.4179491 0.9064906 0.05994707
vn -0.4179491 0.9064906 0.05994707
vn -0.4179491 0.9064906 0.05994707
vn -0.4179491 0.9064906 0.05994707
vn -0.4179491 0.9064906 0.05994707
vn 0.1307424 -0.9912927 -0.01566683
vn 0.1307424 -0.9912927 -0.01566683
vn 0.1307424 -0.9912927 -0.01566683
vn -0.3779814 0.09303679 -0.9211267
vn -0.3779814 0.09303679 -0.9211267
vn -0.3779814 0.09303679 -0.9211267
vn -0.3779814 0.09303679 -0.9211267
vn -0.3779814 0.09303679 -0.9211267
vn -0.3779814 0.09303679 -0.9211267
vn 0.9109918 0.3335539 -0.2425608
vn 0.9109918 0.3335539 -0.2425608
vn 0.9109918 0.3335539 -0.2425608
vn 0.06117687 0.2969537 -0.9529303
vn 0.06117687 0.2969537 -0.9529303
vn 0.06117687 0.2969537 -0.9529303
vn 0.06117687 0.2969537 -0.9529303
vn 0.06117687 0.2969537 -0.9529303
vn 0.06117687 0.2969537 -0.9529303
vn 0.7815759 -0.3593628 -0.5098996
vn 0.7815759 -0.3593628 -0.5098996
vn 0.7815759 -0.3593628 -0.5098996
vn 0.7815759 -0.3593628 -0.5098996
vn 0.7815759 -0.3593628 -0.5098996
vn 0.7815759 -0.3593628 -0.5098996
vn 0.7815759 -0.3593628 -0.5098996
vn 0.7815759 -0.3593628 -0.5098996
vn 0.7815759 -0.3593628 -0.5098996
vn 0.7815759 -0.3593628 -0.5098996
vn 0.7815759 -0.3593628 -0.5098996
vn 0.7815759 -0.3593628 -0.5098996
vn 0.7815759 -0.3593628 -0.5098996
vn 0.7815759 -0.3593628 -0.5098996
vn 0.7815759 -0.3593628 -0.5098996
vn 0.7815759 -0.3593628 -0.5098996
vn 0.7815759 -0.3593628 -0.5098996
vn 0.7815759 -0.3593628 -0.5098996

vt 0.3697292 0.546655
vt 0.3523469 0.5265539
vt 0.4600297 0.5879824
vt 0.4600297 0.5879824
vt 0.3523469 0.5265539
vt 0.5008789 0.4897267
vt 0.5008789 0.4897267
vt 0.3523469 0.5265539
vt 0.416199 0.4524918
vt 0.4119707 0.3481748
vt 0.4604188 0.3450434
vt 0.3567206 0.3815283
vt 0.3567206 0.3815283
vt 0.4604188 0.3450434
vt 0.3459481 0.5725034
vt 0.3459481 0.5725034
vt 0.4604188 0.3450434
vt 0.4158709 0.6571645
vt 0.4158709 0.6571645
vt 0.4604188 0.3450434
vt 0.4562748 0.6634368
vt 0.4562748 0.6634368
vt 0.4604188 0.3450434
vt 0.5589135 0.6308286
vt 0.5589135 0.6308286
vt 0.4604188 0.3450434
vt 0.5609949 0.6222687
vt 0.5609949 0.6222687
vt 0.4604188 0.3450434
vt 0.5511506 0.3850254
vt 0.4615063 0.4568842
vt 0.3998668 0.4619611
vt 0.4316452 0.4410536
vt 0.5277399 0.3142353
vt 0.6244954 0.3920289
vt 0.4174835 0.4597859
vt 0.4174835 0.4597859
vt 0.6244954 0.3920289
vt 0.4569358 0.5002648
vt 0.4569358 0.5002648
vt 0.6244954 0.3920289
vt 0.5766052 0.5354044
vt 0.5900028 0.5138125
vt 0.5693297 0.6078867
vt 0.549463 0.4138364
vt 0.549463 0.4138364
vt 0.5693297 0.6078867
vt 0.4874672 0.4049765
vt 0.4874672 0.4049765
vt 0.5693297 0.6078867
vt 0.3974433 0.6302567
vt 0.3974433 0.6302567
vt 0.5693297 0.6078867
vt 0.3997497 0.6386853
vt 0.3997497 0.6386853
vt 0.5693297 0.6078867
vt 0.5031759 0.6820191
vt 0.5031759 0.6820191
vt 0.5693297 0.6078867
vt 0.5180455 0.6810534
vt 0.5238678 0.4056469
vt 0.6424871 0.4777401
vt 0.454695 0.4457742
vt 0.454695 0.4457742
vt 0.6424871 0.4777401
vt 0.4792496 0.5567525
vt 0.4792496 0.5567525
vt 0.6424871 0.4777401
vt 0.5373123 0.5631747
vt 0.7678287 0.5382826
vt 0.5952063 0.7326845
vt 0.7405834 0.419668
vt 0.7405834 0.419668
vt 0.5952063 0.7326845
vt 0.707844 0.373845
vt 0.707844 0.373845
vt 0.5952063 0.7326845
vt 0.527768 0.4121629
vt 0.527768 0.4121629
vt 0.5952063 0.7326845
vt 0.4328266 0.4829388
vt 0.4328266 0.4829388
vt 0.5952063 0.7326845
vt 0.5206426 0.7173086
vt 0.4422349 0.4551357
vt 0.5466972 0.4892861
vt 0.4417287 0.4581124
vt 0.4417287 0.4581124
vt 0.5466972 0.4892861
vt 0.511417 0.5087684
vt 0.5104326 0.414474
vt 0.4178491 0.6372603
vt 0.484078 0.4043812
vt 0.484078 0.4043812
vt 0.4178491 0.6372603
vt 0.3792219 0.4060641
vt 0.5347528 0.3971854
vt 0.5011227 0.5826665
vt 0.4096877 0.4502744
vt 0.5733519 0.4368346
vt 0.4795449 0.5027118
vt 0.5014696 0.377764
vt 0.5014696 0.377764
vt 0.4795449 0.5027118
vt 0.490369 0.3829674
vt 0.4865203 0.4919112
vt 0.5429189 0.4979678
vt 0.4900596 0.5904013
vt 0.5314901 0.4791324
vt 0.5311713 0.464319
vt 0.5419438 0.4746696
vt 0.5419438 0.4746696
vt 0.5311713 0.464319
vt 0.5424219 0.4716835
vt 0.6534752 0.5404859
vt 0.594475 0.6515767
vt 0.5988721 0.3616287
vt 0.5988721 0.3616287
vt 0.594475 0.6515767
vt 0.5529695 0.3559518
vt 0.5529695 0.3559518
vt 0.594475 0.6515767
vt 0.4456242 0.4584312
vt 0.4456242 0.4584312
vt 0.594475 0.6515767
vt 0.4211493 0.5760005
vt 0.4211493 0.5760005
vt 0.594475 0.6515767
vt 0.4548825 0.6734311
vt 0.4548825 0.6734311
vt 0.594475 0.6515767
vt 0.4696256 0.6785314

usemtl Material0
usemap Material0

usemtl Material1
usemap Material1
f 1/1/1 2/2/2 3/3/3
f 4/4/4 5/5/5 6/6/6
f 7/7/7 8/8/8 9/9/9
f 10/10/10 11/11/11 12/12/12
f 13/13/13 14/14/14 15/15/15
f 16/16/16 17/17/17 18/18/18
f 19/19/19 20/20/20 21/21/21
f 22/22/22 23/23/23 24/24/24
f 25/25/25 26/26/26 27/27/27
f 28/28/28 29/29/29 30/30/30
f 31/31/31 32/32/32 33/33/33
f 34/34/34 35/35/35 36/36/36
f 37/37/37 38/38/38 39/39/39
f 40/40/40 41/41/41 42/42/42
f 43/43/43 44/44/44 45/45/45
f 46/46/46 47/47/47 48/48/48
f 49/49/49 50/50/50 51/51/51
f 52/52/52 53/53/53 54/54/54
f 55/55/55 56/56/56 57/57/57
f 58/58/58 59/59/59 60/60/60
f 61/61/61 62/62/62 63/63/63
f 64/64/64 65/65/65 66/66/66
f 67/67/67 68/68/68 69/69/69
f 70/70/70 71/71/71 72/72/72
f 73/73/73 74/74/74 75/75/75
f 76/76/76 77/77/77 78/78/78
f 79/79/79 80/80/80 81/81/81
f 82/82/82 83/83/83 84/84/84
f 85/85/85 86/86/86 87/87/87
f 88/88/88 89/89/89 90/90/90
f 91/91/91 92/92/92 93/93/93
f 94/94/94 95/95/95 96/96/96
f 97/97/97 98/98/98 99/99/99
f 100/100/100 101/101/101 102/102/102
f 103/103/103 104/104/104 105/105/105
f 106/106/106 107/107/107 108/108/108
f 109/109/109 110/110/110 111/111/111
f 112/112/112 113/113/113 114/114/114
f 115/115/115 116/116/116 117/117/117
f 118/118/118 119/119/119 120/120/120
f 121/121/121 122/122/122 123/123/123
f 124/124/124 125/125/125 126/126/126
f 127/127/127 128/128/128 129/129/129
f 130/130/130 131/131/131 132/132/132
