g  Instance
v 9.880226 -50.78193 -1.3303
v 9.708883 -50.13782 -2.32622
v 9.880226 -50.07181 -1.330304
v 9.880226 -50.07181 -1.330304
v 9.708883 -50.13782 -2.32622
v 9.822033 -49.81755 -1.668547
v 9.880226 -50.07181 -1.330304
v 9.908037 -50.30002 -1.021416
v 9.880226 -50.78193 -1.3303
v 9.880226 -50.78193 -1.3303
v 9.908037 -50.30002 -1.021416
v 9.912447 -50.57158 -0.9724225
v 9.877045 -51.05326 -0.8909811
v 9.880226 -50.78193 -1.3303
v 9.912447 -50.57158 -0.9724225
v 9.654968 -50.24037 -2.534778
v 9.566256 -51.47618 -2.511494
v 9.389273 -50.63569 -3.332045
v 9.389273 -50.63569 -3.332045
v 9.566256 -51.47618 -2.511494
v 9.342566 -50.79442 -3.448799
v 9.566256 -51.47618 -2.511494
v 9.654968 -50.24037 -2.534778
v 9.880226 -50.78193 -1.3303
v 9.880226 -50.78193 -1.3303
v 9.654968 -50.24037 -2.534778
v 9.708883 -50.13782 -2.32622
v 9.647112 -52.29041 -1.298925
v 9.566256 -51.47618 -2.511494
v 9.880226 -50.78193 -1.3303
v 9.880226 -50.78193 -1.3303
v 9.877045 -51.05326 -0.8909811
v 9.647112 -52.29041 -1.298925
v 9.647112 -52.29041 -1.298925
v 9.877045 -51.05326 -0.8909811
v 9.743284 -51.99483 -0.7399414
v 9.597591 -52.58047 -0.8278095
v 9.647112 -52.29041 -1.298925
v 9.615093 -52.53884 -0.6591093
v 9.615093 -52.53884 -0.6591093
v 9.647112 -52.29041 -1.298925
v 9.743284 -51.99483 -0.7399414
v 9.515158 -52.6968 -1.317679
v 9.647112 -52.29041 -1.298925
v 9.597591 -52.58047 -0.8278095
v 9.647112 -52.29041 -1.298925
v 9.215075 -52.82904 -2.66063
v 9.566256 -51.47618 -2.511494
v 9.231277 -51.0688 -3.645386
v 9.342566 -50.79442 -3.448799
v 9.157413 -51.40594 -3.707707
v 9.157413 -51.40594 -3.707707
v 9.342566 -50.79442 -3.448799
v 9.13995 -51.86116 -3.557365
v 9.13995 -51.86116 -3.557365
v 9.342566 -50.79442 -3.448799
v 9.566256 -51.47618 -2.511494
v 9.647112 -52.29041 -1.298925
v 9.515158 -52.6968 -1.317679
v 9.215075 -52.82904 -2.66063
v 9.215075 -52.82904 -2.66063
v 9.515158 -52.6968 -1.317679
v 9.211239 -52.95543 -2.473052
v 9.144209 -52.99808 -2.672895
v 9.215075 -52.82904 -2.66063
v 9.211239 -52.95543 -2.473052
v 9.215075 -52.82904 -2.66063
v 9.10186 -52.27134 -3.392325
v 9.566256 -51.47618 -2.511494
v 9.566256 -51.47618 -2.511494
v 9.10186 -52.27134 -3.392325
v 9.13995 -51.86116 -3.557365
v 9.014103 -52.97505 -3.062567
v 9.010937 -52.96596 -3.077892
v 9.215075 -52.82904 -2.66063
v 9.215075 -52.82904 -2.66063
v 9.010937 -52.96596 -3.077892
v 9.10186 -52.27134 -3.392325
v 9.03404 -53.04845 -2.925912
v 9.014103 -52.97505 -3.062567
v 9.144209 -52.99808 -2.672895
v 9.144209 -52.99808 -2.672895
v 9.014103 -52.97505 -3.062567
v 9.215075 -52.82904 -2.66063
v 9.158358 -51.2522 -3.75193
v 9.171629 -51.19993 -3.738232
v 9.157413 -51.40594 -3.707707
v 9.157413 -51.40594 -3.707707
v 9.171629 -51.19993 -3.738232
v 9.231277 -51.0688 -3.645386
v 9.128994 -51.19691 -3.728545
v 9.171629 -51.19993 -3.738232
v 9.158358 -51.2522 -3.75193
v 7.944273 -52.36204 -0.9017609
v 7.329119 -51.47186 -1.138264
v 7.540777 -52.37587 -1.176345
v 7.540777 -52.37587 -1.176345
v 7.329119 -51.47186 -1.138264
v 7.457777 -52.2842 -1.21394
v 7.457777 -52.2842 -1.21394
v 7.329119 -51.47186 -1.138264
v 7.305653 -51.65068 -1.189809
v 9.449759 -49.8067 -1.602886
v 9.822033 -49.81755 -1.668547
v 8.230881 -50.33456 -2.567786
v 8.230881 -50.33456 -2.567786
v 9.822033 -49.81755 -1.668547
v 8.607279 -50.60217 -3.171653
v 8.607279 -50.60217 -3.171653
v 9.822033 -49.81755 -1.668547
v 9.389273 -50.63569 -3.332045
v 9.389273 -50.63569 -3.332045
v 9.822033 -49.81755 -1.668547
v 9.654968 -50.24037 -2.534778
v 9.654968 -50.24037 -2.534778
v 9.822033 -49.81755 -1.668547
v 9.708883 -50.13782 -2.32622
v 9.515158 -52.6968 -1.317679
v 9.597591 -52.58047 -0.8278095
v 9.211239 -52.95543 -2.473052
v 9.211239 -52.95543 -2.473052
v 9.597591 -52.58047 -0.8278095
v 9.144209 -52.99808 -2.672895
v 9.144209 -52.99808 -2.672895
v 9.597591 -52.58047 -0.8278095
v 9.03404 -53.04845 -2.925912
v 9.03404 -53.04845 -2.925912
v 9.597591 -52.58047 -0.8278095
v 7.540777 -52.37587 -1.176345
v 7.540777 -52.37587 -1.176345
v 9.597591 -52.58047 -0.8278095
v 7.944273 -52.36204 -0.9017609
v 7.944273 -52.36204 -0.9017609
v 9.597591 -52.58047 -0.8278095
v 9.615093 -52.53884 -0.6591093
v 8.230881 -50.33456 -2.567786
v 8.607279 -50.60217 -3.171653
v 7.833236 -50.65957 -2.16474
v 7.833236 -50.65957 -2.16474
v 8.607279 -50.60217 -3.171653
v 8.624317 -50.65158 -3.213401
v 7.540777 -52.37587 -1.176345
v 7.457777 -52.2842 -1.21394
v 9.03404 -53.04845 -2.925912
v 9.03404 -53.04845 -2.925912
v 7.457777 -52.2842 -1.21394
v 9.014103 -52.97505 -3.062567
v 9.014103 -52.97505 -3.062567
v 7.457777 -52.2842 -1.21394
v 9.010937 -52.96596 -3.077892
v 7.329119 -51.47186 -1.138264
v 7.944273 -52.36204 -0.9017609
v 7.322366 -51.17394 -1.192254
v 7.322366 -51.17394 -1.192254
v 7.944273 -52.36204 -0.9017609
v 9.14831 -50.08316 -1.15609
v 9.14831 -50.08316 -1.15609
v 7.944273 -52.36204 -0.9017609
v 9.908037 -50.30002 -1.021416
v 9.908037 -50.30002 -1.021416
v 7.944273 -52.36204 -0.9017609
v 9.912447 -50.57158 -0.9724225
v 9.912447 -50.57158 -0.9724225
v 7.944273 -52.36204 -0.9017609
v 9.877045 -51.05326 -0.8909811
v 9.877045 -51.05326 -0.8909811
v 7.944273 -52.36204 -0.9017609
v 9.743284 -51.99483 -0.7399414
v 9.743284 -51.99483 -0.7399414
v 7.944273 -52.36204 -0.9017609
v 9.615093 -52.53884 -0.6591093
v 9.14831 -50.08316 -1.15609
v 9.449759 -49.8067 -1.602886
v 7.322366 -51.17394 -1.192254
v 7.322366 -51.17394 -1.192254
v 9.449759 -49.8067 -1.602886
v 7.287331 -51.17222 -1.299321
v 7.287331 -51.17222 -1.299321
v 9.449759 -49.8067 -1.602886
v 7.833236 -50.65957 -2.16474
v 7.833236 -50.65957 -2.16474
v 9.449759 -49.8067 -1.602886
v 8.230881 -50.33456 -2.567786
v 7.457777 -52.2842 -1.21394
v 7.305653 -51.65068 -1.189809
v 9.010937 -52.96596 -3.077892
v 9.010937 -52.96596 -3.077892
v 7.305653 -51.65068 -1.189809
v 9.10186 -52.27134 -3.392325
v 9.10186 -52.27134 -3.392325
v 7.305653 -51.65068 -1.189809
v 9.13995 -51.86116 -3.557365
v 9.13995 -51.86116 -3.557365
v 7.305653 -51.65068 -1.189809
v 9.157413 -51.40594 -3.707707
v 9.157413 -51.40594 -3.707707
v 7.305653 -51.65068 -1.189809
v 9.158358 -51.2522 -3.75193
v 9.158358 -51.2522 -3.75193
v 7.305653 -51.65068 -1.189809
v 9.128994 -51.19691 -3.728545
v 9.128994 -51.19691 -3.728545
v 7.305653 -51.65068 -1.189809
v 8.624317 -50.65158 -3.213401
v 8.624317 -50.65158 -3.213401
v 7.305653 -51.65068 -1.189809
v 7.833236 -50.65957 -2.16474
v 7.833236 -50.65957 -2.16474
v 7.305653 -51.65068 -1.189809
v 7.287331 -51.17222 -1.299321
v 9.14831 -50.08316 -1.15609
v 9.908037 -50.30002 -1.021416
v 9.449759 -49.8067 -1.602886
v 9.449759 -49.8067 -1.602886
v 9.908037 -50.30002 -1.021416
v 9.822033 -49.81755 -1.668547
v 9.822033 -49.81755 -1.668547
v 9.908037 -50.30002 -1.021416
v 9.880226 -50.07181 -1.330304
v 9.389273 -50.63569 -3.332045
v 9.342566 -50.79442 -3.448799
v 8.607279 -50.60217 -3.171653
v 8.607279 -50.60217 -3.171653
v 9.342566 -50.79442 -3.448799
v 8.624317 -50.65158 -3.213401
v 8.624317 -50.65158 -3.213401
v 9.342566 -50.79442 -3.448799
v 9.128994 -51.19691 -3.728545
v 9.128994 -51.19691 -3.728545
v 9.342566 -50.79442 -3.448799
v 9.171629 -51.19993 -3.738232
v 9.171629 -51.19993 -3.738232
v 9.342566 -50.79442 -3.448799
v 9.231277 -51.0688 -3.645386
v 7.305653 -51.65068 -1.189809
v 7.329119 -51.47186 -1.138264
v 7.287331 -51.17222 -1.299321
v 7.287331 -51.17222 -1.299321
v 7.329119 -51.47186 -1.138264
v 7.322366 -51.17394 -1.192254

vn 0.9855208 7.411471E-09 -0.1695546
vn 0.9855208 7.411471E-09 -0.1695546
vn 0.9855208 7.411471E-09 -0.1695546
vn 0.9855208 7.411471E-09 -0.1695546
vn 0.9855208 7.411471E-09 -0.1695546
vn 0.9855208 7.411471E-09 -0.1695546
vn 0.9959715 3.919629E-09 -0.08967057
vn 0.9959715 3.919629E-09 -0.08967057
vn 0.9959715 3.919629E-09 -0.08967057
vn 0.9959715 3.919629E-09 -0.08967057
vn 0.9959715 3.919629E-09 -0.08967057
vn 0.9959715 3.919629E-09 -0.08967057
vn 0.9958622 -0.080365 -0.04242394
vn 0.9958622 -0.080365 -0.04242394
vn 0.9958622 -0.080365 -0.04242394
vn 0.9565314 -0.0739788 -0.28209
vn 0.9565314 -0.0739788 -0.28209
vn 0.9565314 -0.0739788 -0.28209
vn 0.9565314 -0.0739788 -0.28209
vn 0.9565314 -0.0739788 -0.28209
vn 0.9565314 -0.0739788 -0.28209
vn 0.9737312 -0.07395511 -0.2153563
vn 0.9737312 -0.07395511 -0.2153563
vn 0.9737312 -0.07395511 -0.2153563
vn 0.9737312 -0.07395511 -0.2153563
vn 0.9737312 -0.07395511 -0.2153563
vn 0.9737312 -0.07395511 -0.2153563
vn 0.9736367 -0.1539614 -0.1683071
vn 0.9736367 -0.1539614 -0.1683071
vn 0.9736367 -0.1539614 -0.1683071
vn 0.9841632 -0.1539169 -0.08793495
vn 0.9841632 -0.1539169 -0.08793495
vn 0.9841632 -0.1539169 -0.08793495
vn 0.9841632 -0.1539169 -0.08793495
vn 0.9841632 -0.1539169 -0.08793495
vn 0.9841632 -0.1539169 -0.08793495
vn 0.9710179 -0.2351588 -0.04271366
vn 0.9710179 -0.2351588 -0.04271366
vn 0.9710179 -0.2351588 -0.04271366
vn 0.9710179 -0.2351588 -0.04271366
vn 0.9710179 -0.2351588 -0.04271366
vn 0.9710179 -0.2351588 -0.04271366
vn 0.9486526 -0.3039929 -0.08744326
vn 0.9486526 -0.3039929 -0.08744326
vn 0.9486526 -0.3039929 -0.08744326
vn 0.9510868 -0.2233642 -0.2134066
vn 0.9510868 -0.2233642 -0.2134066
vn 0.9510868 -0.2233642 -0.2134066
vn 0.9337744 -0.1440174 -0.3276037
vn 0.9337744 -0.1440174 -0.3276037
vn 0.9337744 -0.1440174 -0.3276037
vn 0.9337744 -0.1440174 -0.3276037
vn 0.9337744 -0.1440174 -0.3276037
vn 0.9337744 -0.1440174 -0.3276037
vn 0.9337744 -0.1440174 -0.3276037
vn 0.9337744 -0.1440174 -0.3276037
vn 0.9337744 -0.1440174 -0.3276037
vn 0.9379261 -0.2962193 -0.180413
vn 0.9379261 -0.2962193 -0.180413
vn 0.9379261 -0.2962193 -0.180413
vn 0.9379261 -0.2962193 -0.180413
vn 0.9379261 -0.2962193 -0.180413
vn 0.9379261 -0.2962193 -0.180413
vn 0.9041449 -0.362642 -0.2258599
vn 0.9041449 -0.362642 -0.2258599
vn 0.9041449 -0.362642 -0.2258599
vn 0.9301434 -0.2081015 -0.3025342
vn 0.9301434 -0.2081015 -0.3025342
vn 0.9301434 -0.2081015 -0.3025342
vn 0.9301434 -0.2081015 -0.3025342
vn 0.9301434 -0.2081015 -0.3025342
vn 0.9301434 -0.2081015 -0.3025342
vn 0.8961875 -0.274936 -0.3482215
vn 0.8961875 -0.274936 -0.3482215
vn 0.8961875 -0.274936 -0.3482215
vn 0.8961875 -0.274936 -0.3482215
vn 0.8961875 -0.274936 -0.3482215
vn 0.8961875 -0.274936 -0.3482215
vn 0.8831156 -0.3473303 -0.3153859
vn 0.8831156 -0.3473303 -0.3153859
vn 0.8831156 -0.3473303 -0.3153859
vn 0.8831156 -0.3473303 -0.3153859
vn 0.8831156 -0.3473303 -0.3153859
vn 0.8831156 -0.3473303 -0.3153859
vn 0.9047846 -0.1228473 -0.4077663
vn 0.9047846 -0.1228473 -0.4077663
vn 0.9047846 -0.1228473 -0.4077663
vn 0.9047846 -0.1228473 -0.4077663
vn 0.9047846 -0.1228473 -0.4077663
vn 0.9047846 -0.1228473 -0.4077663
vn -0.191863 0.2940804 -0.9363256
vn -0.191863 0.2940804 -0.9363256
vn -0.191863 0.2940804 -0.9363256
vn -0.5511919 -0.1635185 0.8181988
vn -0.5511919 -0.1635185 0.8181988
vn -0.5511919 -0.1635185 0.8181988
vn -0.5511919 -0.1635185 0.8181988
vn -0.5511919 -0.1635185 0.8181988
vn -0.5511919 -0.1635185 0.8181988
vn -0.5511919 -0.1635185 0.8181988
vn -0.5511919 -0.1635185 0.8181988
vn -0.5511919 -0.1635185 0.8181988
vn -0.0496337 0.9012924 -0.4303586
vn -0.0496337 0.9012924 -0.4303586
vn -0.0496337 0.9012924 -0.4303586
vn -0.0496337 0.9012924 -0.4303586
vn -0.0496337 0.9012924 -0.4303586
vn -0.0496337 0.9012924 -0.4303586
vn -0.0496337 0.9012924 -0.4303586
vn -0.0496337 0.9012924 -0.4303586
vn -0.0496337 0.9012924 -0.4303586
vn -0.0496337 0.9012924 -0.4303586
vn -0.0496337 0.9012924 -0.4303586
vn -0.0496337 0.9012924 -0.4303586
vn -0.0496337 0.9012924 -0.4303586
vn -0.0496337 0.9012924 -0.4303586
vn -0.0496337 0.9012924 -0.4303586
vn -0.137805 -0.9581958 0.2507402
vn -0.137805 -0.9581958 0.2507402
vn -0.137805 -0.9581958 0.2507402
vn -0.137805 -0.9581958 0.2507402
vn -0.137805 -0.9581958 0.2507402
vn -0.137805 -0.9581958 0.2507402
vn -0.137805 -0.9581958 0.2507402
vn -0.137805 -0.9581958 0.2507402
vn -0.137805 -0.9581958 0.2507402
vn -0.137805 -0.9581958 0.2507402
vn -0.137805 -0.9581958 0.2507402
vn -0.137805 -0.9581958 0.2507402
vn -0.137805 -0.9581958 0.2507402
vn -0.137805 -0.9581958 0.2507402
vn -0.137805 -0.9581958 0.2507402
vn -0.137805 -0.9581958 0.2507402
vn -0.137805 -0.9581958 0.2507402
vn -0.137805 -0.9581958 0.2507402
vn -0.7784349 0.2263193 -0.5855072
vn -0.7784349 0.2263193 -0.5855072
vn -0.7784349 0.2263193 -0.5855072
vn -0.7784349 0.2263193 -0.5855072
vn -0.7784349 0.2263193 -0.5855072
vn -0.7784349 0.2263193 -0.5855072
vn -0.6500054 -0.7049494 -0.2837947
vn -0.6500054 -0.7049494 -0.2837947
vn -0.6500054 -0.7049494 -0.2837947
vn -0.6500054 -0.7049494 -0.2837947
vn -0.6500054 -0.7049494 -0.2837947
vn -0.6500054 -0.7049494 -0.2837947
vn -0.6500054 -0.7049494 -0.2837947
vn -0.6500054 -0.7049494 -0.2837947
vn -0.6500054 -0.7049494 -0.2837947
vn -0.1234407 0.1742524 0.9769332
vn -0.1234407 0.1742524 0.9769332
vn -0.1234407 0.1742524 0.9769332
vn -0.1234407 0.1742524 0.9769332
vn -0.1234407 0.1742524 0.9769332
vn -0.1234407 0.1742524 0.9769332
vn -0.1234407 0.1742524 0.9769332
vn -0.1234407 0.1742524 0.9769332
vn -0.1234407 0.1742524 0.9769332
vn -0.1234407 0.1742524 0.9769332
vn -0.1234407 0.1742524 0.9769332
vn -0.1234407 0.1742524 0.9769332
vn -0.1234407 0.1742524 0.9769332
vn -0.1234407 0.1742524 0.9769332
vn -0.1234407 0.1742524 0.9769332
vn -0.1234407 0.1742524 0.9769332
vn -0.1234407 0.1742524 0.9769332
vn -0.1234407 0.1742524 0.9769332
vn -0.1234407 0.1742524 0.9769332
vn -0.1234407 0.1742524 0.9769332
vn -0.1234407 0.1742524 0.9769332
vn -0.5071248 0.8429833 0.1794544
vn -0.5071248 0.8429833 0.1794544
vn -0.5071248 0.8429833 0.1794544
vn -0.5071248 0.8429833 0.1794544
vn -0.5071248 0.8429833 0.1794544
vn -0.5071248 0.8429833 0.1794544
vn -0.5071248 0.8429833 0.1794544
vn -0.5071248 0.8429833 0.1794544
vn -0.5071248 0.8429833 0.1794544
vn -0.5071248 0.8429833 0.1794544
vn -0.5071248 0.8429833 0.1794544
vn -0.5071248 0.8429833 0.1794544
vn -0.7866086 -0.1662259 -0.5946563
vn -0.7866086 -0.1662259 -0.5946563
vn -0.7866086 -0.1662259 -0.5946563
vn -0.7866086 -0.1662259 -0.5946563
vn -0.7866086 -0.1662259 -0.5946563
vn -0.7866086 -0.1662259 -0.5946563
vn -0.7866086 -0.1662259 -0.5946563
vn -0.7866086 -0.1662259 -0.5946563
vn -0.7866086 -0.1662259 -0.5946563
vn -0.7866086 -0.1662259 -0.5946563
vn -0.7866086 -0.1662259 -0.5946563
vn -0.7866086 -0.1662259 -0.5946563
vn -0.7866086 -0.1662259 -0.5946563
vn -0.7866086 -0.1662259 -0.5946563
vn -0.7866086 -0.1662259 -0.5946563
vn -0.7866086 -0.1662259 -0.5946563
vn -0.7866086 -0.1662259 -0.5946563
vn -0.7866086 -0.1662259 -0.5946563
vn -0.7866086 -0.1662259 -0.5946563
vn -0.7866086 -0.1662259 -0.5946563
vn -0.7866086 -0.1662259 -0.5946563
vn -0.7866086 -0.1662259 -0.5946563
vn -0.7866086 -0.1662259 -0.5946563
vn -0.7866086 -0.1662259 -0.5946563
vn -0.7866086 -0.1662259 -0.5946563
vn -0.7866086 -0.1662259 -0.5946563
vn -0.7866086 -0.1662259 -0.5946563
vn 0.1260885 0.8032644 0.5821238
vn 0.1260885 0.8032644 0.5821238
vn 0.1260885 0.8032644 0.5821238
vn 0.1260885 0.8032644 0.5821238
vn 0.1260885 0.8032644 0.5821238
vn 0.1260885 0.8032644 0.5821238
vn 0.1260885 0.8032644 0.5821238
vn 0.1260885 0.8032644 0.5821238
vn 0.1260885 0.8032644 0.5821238
vn -0.1335633 0.6124046 -0.77918
vn -0.1335633 0.6124046 -0.77918
vn -0.1335633 0.6124046 -0.77918
vn -0.1335633 0.6124046 -0.77918
vn -0.1335633 0.6124046 -0.77918
vn -0.1335633 0.6124046 -0.77918
vn -0.1335633 0.6124046 -0.77918
vn -0.1335633 0.6124046 -0.77918
vn -0.1335633 0.6124046 -0.77918
vn -0.1335633 0.6124046 -0.77918
vn -0.1335633 0.6124046 -0.77918
vn -0.1335633 0.6124046 -0.77918
vn -0.1335633 0.6124046 -0.77918
vn -0.1335633 0.6124046 -0.77918
vn -0.1335633 0.6124046 -0.77918
vn -0.949665 0.03490425 0.3113169
vn -0.949665 0.03490425 0.3113169
vn -0.949665 0.03490425 0.3113169
vn -0.949665 0.03490425 0.3113169
vn -0.949665 0.03490425 0.3113169
vn -0.949665 0.03490425 0.3113169

vt 0.1704544 0.2165085
vt 0.1798152 0.200295
vt 0.1807745 0.2165085
vt 0.1807745 0.2165085
vt 0.1798152 0.200295
vt 0.1844696 0.2110019
vt 0.1807745 0.2165085
vt 0.1774579 0.2210786
vt 0.1704544 0.2165085
vt 0.1704544 0.2165085
vt 0.1774579 0.2210786
vt 0.1735114 0.2218035
vt 0.1667017 0.2230084
vt 0.1704544 0.2165085
vt 0.1735114 0.2218035
vt 0.1781173 0.196826
vt 0.1590907 0.196826
vt 0.1715926 0.1817597
vt 0.1715926 0.1817597
vt 0.1590907 0.196826
vt 0.1690836 0.1795178
vt 0.1590907 0.196826
vt 0.1781173 0.196826
vt 0.1704544 0.2165085
vt 0.1704544 0.2165085
vt 0.1781173 0.196826
vt 0.1798152 0.200295
vt 0.1477271 0.2165085
vt 0.1590907 0.196826
vt 0.1704544 0.2165085
vt 0.1704544 0.2165085
vt 0.1667017 0.2230084
vt 0.1477271 0.2165085
vt 0.1477271 0.2165085
vt 0.1667017 0.2230084
vt 0.1526173 0.2249786
vt 0.1436056 0.2236473
vt 0.1477271 0.2165085
vt 0.1443541 0.2262035
vt 0.1443541 0.2262035
vt 0.1477271 0.2165085
vt 0.1526173 0.2249786
vt 0.1411871 0.2165085
vt 0.1477271 0.2165085
vt 0.1436056 0.2236473
vt 0.1477271 0.2165085
vt 0.1363635 0.196826
vt 0.1590907 0.196826
vt 0.1637806 0.1771435
vt 0.1690836 0.1795178
vt 0.1576647 0.1771435
vt 0.1576647 0.1771435
vt 0.1690836 0.1795178
vt 0.1499308 0.1809603
vt 0.1499308 0.1809603
vt 0.1690836 0.1795178
vt 0.1590907 0.196826
vt 0.1477271 0.2165085
vt 0.1411871 0.2165085
vt 0.1363635 0.196826
vt 0.1363635 0.196826
vt 0.1411871 0.2165085
vt 0.1347194 0.1996736
vt 0.1336659 0.196826
vt 0.1363635 0.196826
vt 0.1347194 0.1996736
vt 0.1363635 0.196826
vt 0.1436041 0.1842848
vt 0.1590907 0.196826
vt 0.1590907 0.196826
vt 0.1436041 0.1842848
vt 0.1499308 0.1809603
vt 0.1329301 0.1908792
vt 0.1330393 0.1906219
vt 0.1363635 0.196826
vt 0.1363635 0.196826
vt 0.1330393 0.1906219
vt 0.1436041 0.1842848
vt 0.1321591 0.1930367
vt 0.1329301 0.1908792
vt 0.1336659 0.196826
vt 0.1336659 0.196826
vt 0.1329301 0.1908792
vt 0.1363635 0.196826
vt 0.1602247 0.1758582
vt 0.1611856 0.1759296
vt 0.1576647 0.1771435
vt 0.1576647 0.1771435
vt 0.1611856 0.1759296
vt 0.1637806 0.1771435
vt 0.4983476 0.4326344
vt 0.4989288 0.4282841
vt 0.5043385 0.4296389
vt 0.4312983 0.5539773
vt 0.6071413 0.624322
vt 0.4486572 0.6356383
vt 0.4486572 0.6356383
vt 0.6071413 0.624322
vt 0.4677223 0.6468233
vt 0.4677223 0.6468233
vt 0.6071413 0.624322
vt 0.5789678 0.639651
vt 0.5480942 0.365168
vt 0.5885121 0.3730903
vt 0.4123879 0.4815888
vt 0.4123879 0.4815888
vt 0.5885121 0.3730903
vt 0.4517183 0.5544461
vt 0.4517183 0.5544461
vt 0.5885121 0.3730903
vt 0.5365623 0.5737972
vt 0.5365623 0.5737972
vt 0.5885121 0.3730903
vt 0.567811 0.4776088
vt 0.567811 0.4776088
vt 0.5885121 0.3730903
vt 0.5742894 0.4524402
vt 0.425298 0.4476399
vt 0.4186976 0.3962479
vt 0.4521167 0.5688469
vt 0.4521167 0.5688469
vt 0.4186976 0.3962479
vt 0.4582343 0.5898106
vt 0.4582343 0.5898106
vt 0.4186976 0.3962479
vt 0.4685802 0.6163528
vt 0.4685802 0.6163528
vt 0.4186976 0.3962479
vt 0.628405 0.4328125
vt 0.628405 0.4328125
vt 0.4186976 0.3962479
vt 0.5880433 0.4040062
vt 0.5880433 0.4040062
vt 0.4186976 0.3962479
vt 0.4175397 0.3785515
vt 0.6206327 0.4664145
vt 0.6022098 0.5567525
vt 0.5693204 0.4061203
vt 0.5693204 0.4061203
vt 0.6022098 0.5567525
vt 0.5970345 0.5629966
vt 0.5532882 0.3661899
vt 0.5659171 0.3702073
vt 0.3939837 0.5532554
vt 0.3939837 0.5532554
vt 0.5659171 0.3702073
vt 0.4005888 0.5678625
vt 0.4005888 0.5678625
vt 0.5659171 0.3702073
vt 0.4014607 0.5695032
vt 0.4977288 0.6366509
vt 0.4067954 0.575241
vt 0.5277211 0.6373165
vt 0.5277211 0.6373165
vt 0.4067954 0.575241
vt 0.6334679 0.4550372
vt 0.6334679 0.4550372
vt 0.4067954 0.575241
vt 0.6099727 0.3791938
vt 0.6099727 0.3791938
vt 0.4067954 0.575241
vt 0.5826337 0.3787531
vt 0.5826337 0.3787531
vt 0.4067954 0.575241
vt 0.5342465 0.3822877
vt 0.5342465 0.3822877
vt 0.4067954 0.575241
vt 0.4397926 0.3956432
vt 0.4397926 0.3956432
vt 0.4067954 0.575241
vt 0.3853348 0.4084408
vt 0.5836275 0.4315093
vt 0.6236798 0.4768963
vt 0.3710746 0.4351845
vt 0.3710746 0.4351845
vt 0.6236798 0.4768963
vt 0.3681635 0.4460602
vt 0.3681635 0.4460602
vt 0.6236798 0.4768963
vt 0.4413208 0.5339699
vt 0.4413208 0.5339699
vt 0.6236798 0.4768963
vt 0.4921128 0.5749129
vt 0.4577843 0.2937873
vt 0.5374154 0.2901168
vt 0.3369523 0.5772755
vt 0.3369523 0.5772755
vt 0.5374154 0.2901168
vt 0.4177554 0.6250908
vt 0.4177554 0.6250908
vt 0.5374154 0.2901168
vt 0.4658706 0.6501985
vt 0.4658706 0.6501985
vt 0.5374154 0.2901168
vt 0.5198925 0.6730654
vt 0.5198925 0.6730654
vt 0.5374154 0.2901168
vt 0.5382592 0.6797877
vt 0.5382592 0.6797877
vt 0.5374154 0.2901168
vt 0.545619 0.6762344
vt 0.545619 0.6762344
vt 0.5374154 0.2901168
vt 0.6236141 0.5978923
vt 0.6236141 0.5978923
vt 0.5374154 0.2901168
vt 0.6426558 0.4383956
vt 0.6426558 0.4383956
vt 0.5374154 0.2901168
vt 0.5951219 0.3067771
vt 0.4754056 0.5209661
vt 0.5702111 0.5009398
vt 0.5062324 0.5874011
vt 0.5062324 0.5874011
vt 0.5702111 0.5009398
vt 0.5508974 0.5971611
vt 0.5508974 0.5971611
vt 0.5702111 0.5009398
vt 0.5626169 0.5468706
vt 0.581893 0.5062464
vt 0.5694329 0.5354512
vt 0.4631799 0.4661098
vt 0.4631799 0.4661098
vt 0.5694329 0.5354512
vt 0.4641409 0.4765588
vt 0.4641409 0.4765588
vt 0.5694329 0.5354512
vt 0.523249 0.6054584
vt 0.523249 0.6054584
vt 0.5694329 0.5354512
vt 0.5296806 0.6078773
vt 0.5296806 0.6078773
vt 0.5694329 0.5354512
vt 0.5432095 0.5846447
vt 0.4870547 0.4665504
vt 0.505623 0.4609391
vt 0.5364404 0.4784667
vt 0.5364404 0.4784667
vt 0.505623 0.4609391
vt 0.5363935 0.4668082

usemtl Material0
usemap Material0
f 1/1/1 2/2/2 3/3/3
f 4/4/4 5/5/5 6/6/6
f 7/7/7 8/8/8 9/9/9
f 10/10/10 11/11/11 12/12/12
f 13/13/13 14/14/14 15/15/15
f 16/16/16 17/17/17 18/18/18
f 19/19/19 20/20/20 21/21/21
f 22/22/22 23/23/23 24/24/24
f 25/25/25 26/26/26 27/27/27
f 28/28/28 29/29/29 30/30/30
f 31/31/31 32/32/32 33/33/33
f 34/34/34 35/35/35 36/36/36
f 37/37/37 38/38/38 39/39/39
f 40/40/40 41/41/41 42/42/42
f 43/43/43 44/44/44 45/45/45
f 46/46/46 47/47/47 48/48/48
f 49/49/49 50/50/50 51/51/51
f 52/52/52 53/53/53 54/54/54
f 55/55/55 56/56/56 57/57/57
f 58/58/58 59/59/59 60/60/60
f 61/61/61 62/62/62 63/63/63
f 64/64/64 65/65/65 66/66/66
f 67/67/67 68/68/68 69/69/69
f 70/70/70 71/71/71 72/72/72
f 73/73/73 74/74/74 75/75/75
f 76/76/76 77/77/77 78/78/78
f 79/79/79 80/80/80 81/81/81
f 82/82/82 83/83/83 84/84/84
f 85/85/85 86/86/86 87/87/87
f 88/88/88 89/89/89 90/90/90

usemtl Material1
usemap Material1
f 91/91/91 92/92/92 93/93/93
f 94/94/94 95/95/95 96/96/96
f 97/97/97 98/98/98 99/99/99
f 100/100/100 101/101/101 102/102/102
f 103/103/103 104/104/104 105/105/105
f 106/106/106 107/107/107 108/108/108
f 109/109/109 110/110/110 111/111/111
f 112/112/112 113/113/113 114/114/114
f 115/115/115 116/116/116 117/117/117
f 118/118/118 119/119/119 120/120/120
f 121/121/121 122/122/122 123/123/123
f 124/124/124 125/125/125 126/126/126
f 127/127/127 128/128/128 129/129/129
f 130/130/130 131/131/131 132/132/132
f 133/133/133 134/134/134 135/135/135
f 136/136/136 137/137/137 138/138/138
f 139/139/139 140/140/140 141/141/141
f 142/142/142 143/143/143 144/144/144
f 145/145/145 146/146/146 147/147/147
f 148/148/148 149/149/149 150/150/150
f 151/151/151 152/152/152 153/153/153
f 154/154/154 155/155/155 156/156/156
f 157/157/157 158/158/158 159/159/159
f 160/160/160 161/161/161 162/162/162
f 163/163/163 164/164/164 165/165/165
f 166/166/166 167/167/167 168/168/168
f 169/169/169 170/170/170 171/171/171
f 172/172/172 173/173/173 174/174/174
f 175/175/175 176/176/176 177/177/177
f 178/178/178 179/179/179 180/180/180
f 181/181/181 182/182/182 183/183/183
f 184/184/184 185/185/185 186/186/186
f 187/187/187 188/188/188 189/189/189
f 190/190/190 191/191/191 192/192/192
f 193/193/193 194/194/194 195/195/195
f 196/196/196 197/197/197 198/198/198
f 199/199/199 200/200/200 201/201/201
f 202/202/202 203/203/203 204/204/204
f 205/205/205 206/206/206 207/207/207
f 208/208/208 209/209/209 210/210/210
f 211/211/211 212/212/212 213/213/213
f 214/214/214 215/215/215 216/216/216
f 217/217/217 218/218/218 219/219/219
f 220/220/220 221/221/221 222/222/222
f 223/223/223 224/224/224 225/225/225
f 226/226/226 227/227/227 228/228/228
f 229/229/229 230/230/230 231/231/231
f 232/232/232 233/233/233 234/234/234
f 235/235/235 236/236/236 237/237/237
f 238/238/238 239/239/239 240/240/240
