g  Instance
v -1.925452 -47.93152 -6.200392
v -1.656195 -45.70487 -7.061603
v -1.83225 -48.70287 -6.698223
v -1.83225 -48.70287 -6.698223
v -1.656195 -45.70487 -7.061603
v -1.294886 -47.36975 -8.819858
v 1.29318 -48.13146 -9.151015
v 0.4144957 -48.34092 -9.552749
v 0.6177396 -47.25934 -8.324959
v 0.6177396 -47.25934 -8.324959
v 0.4144957 -48.34092 -9.552749
v -1.274295 -45.49139 -6.752501
v -1.274295 -45.49139 -6.752501
v 0.4144957 -48.34092 -9.552749
v -1.656195 -45.70487 -7.061603
v -1.656195 -45.70487 -7.061603
v 0.4144957 -48.34092 -9.552749
v -1.294886 -47.36975 -8.819858
v -0.02676734 -49.74804 -7.449945
v -0.02616888 -49.74796 -7.450695
v -0.02610141 -49.74797 -7.449993
v -0.02610141 -49.74797 -7.449993
v 0.4748476 -49.38124 -6.851861
v -0.02676734 -49.74804 -7.449945
v -0.02676734 -49.74804 -7.449945
v 0.4748476 -49.38124 -6.851861
v -0.9348662 -49.52577 -6.721623
v -0.9348662 -49.52577 -6.721623
v 0.4748476 -49.38124 -6.851861
v -0.8010516 -49.43074 -6.567842
v -0.8010516 -49.43074 -6.567842
v 0.4748476 -49.38124 -6.851861
v 0.02939215 -49.19755 -6.342034
v -1.219696 -47.17842 -5.815553
v -1.274295 -45.49139 -6.752501
v -1.485341 -47.67104 -5.851688
v -1.485341 -47.67104 -5.851688
v -1.274295 -45.49139 -6.752501
v -1.645118 -47.82689 -5.946429
v -1.645118 -47.82689 -5.946429
v -1.274295 -45.49139 -6.752501
v -1.925452 -47.93152 -6.200392
v -1.925452 -47.93152 -6.200392
v -1.274295 -45.49139 -6.752501
v -1.656195 -45.70487 -7.061603
v -1.294886 -47.36975 -8.819858
v 0.4144957 -48.34092 -9.552749
v -1.83225 -48.70287 -6.698223
v -1.83225 -48.70287 -6.698223
v 0.4144957 -48.34092 -9.552749
v -0.9348662 -49.52577 -6.721623
v -0.9348662 -49.52577 -6.721623
v 0.4144957 -48.34092 -9.552749
v -0.02676734 -49.74804 -7.449945
v -0.02676734 -49.74804 -7.449945
v 0.4144957 -48.34092 -9.552749
v -0.02616888 -49.74796 -7.450695
v -0.02616888 -49.74796 -7.450695
v 0.4144957 -48.34092 -9.552749
v 0.3409833 -49.35211 -8.305803
v -1.187632 -47.44049 -5.702808
v -1.485341 -47.67104 -5.851688
v 0.02939215 -49.19755 -6.342034
v 0.02939215 -49.19755 -6.342034
v -1.485341 -47.67104 -5.851688
v -0.8010516 -49.43074 -6.567842
v -0.8010516 -49.43074 -6.567842
v -1.485341 -47.67104 -5.851688
v -1.645118 -47.82689 -5.946429
v 1.313143 -48.49031 -8.673304
v 0.3409833 -49.35211 -8.305803
v 1.29318 -48.13146 -9.151015
v 1.29318 -48.13146 -9.151015
v 0.3409833 -49.35211 -8.305803
v 0.4144957 -48.34092 -9.552749
v -0.02610141 -49.74797 -7.449993
v -0.02616888 -49.74796 -7.450695
v 0.4748476 -49.38124 -6.851861
v 0.4748476 -49.38124 -6.851861
v -0.02616888 -49.74796 -7.450695
v 1.273513 -48.5443 -8.466295
v 1.273513 -48.5443 -8.466295
v -0.02616888 -49.74796 -7.450695
v 1.313143 -48.49031 -8.673304
v 1.313143 -48.49031 -8.673304
v -0.02616888 -49.74796 -7.450695
v 0.3409833 -49.35211 -8.305803
v -1.485341 -47.67104 -5.851688
v -1.187632 -47.44049 -5.702808
v -1.219696 -47.17842 -5.815553
v 1.29318 -48.13146 -9.151015
v 0.6177396 -47.25934 -8.324959
v 1.313143 -48.49031 -8.673304
v 1.313143 -48.49031 -8.673304
v 0.6177396 -47.25934 -8.324959
v 1.273513 -48.5443 -8.466295
v -0.8010516 -49.43074 -6.567842
v -1.645118 -47.82689 -5.946429
v -0.9348662 -49.52577 -6.721623
v -0.9348662 -49.52577 -6.721623
v -1.645118 -47.82689 -5.946429
v -1.83225 -48.70287 -6.698223
v -1.83225 -48.70287 -6.698223
v -1.645118 -47.82689 -5.946429
v -1.925452 -47.93152 -6.200392
v -1.274295 -45.49139 -6.752501
v -1.219696 -47.17842 -5.815553
v 0.6177396 -47.25934 -8.324959
v 0.6177396 -47.25934 -8.324959
v -1.219696 -47.17842 -5.815553
v 1.273513 -48.5443 -8.466295
v 1.273513 -48.5443 -8.466295
v -1.219696 -47.17842 -5.815553
v 0.4748476 -49.38124 -6.851861
v 0.4748476 -49.38124 -6.851861
v -1.219696 -47.17842 -5.815553
v 0.02939215 -49.19755 -6.342034
v 0.02939215 -49.19755 -6.342034
v -1.219696 -47.17842 -5.815553
v -1.187632 -47.44049 -5.702808

vn -0.973226 0.02952303 -0.2279464
vn -0.973226 0.02952303 -0.2279464
vn -0.973226 0.02952303 -0.2279464
vn -0.973226 0.02952303 -0.2279464
vn -0.973226 0.02952303 -0.2279464
vn -0.973226 0.02952303 -0.2279464
vn 0.1303809 0.7331653 -0.6674351
vn 0.1303809 0.7331653 -0.6674351
vn 0.1303809 0.7331653 -0.6674351
vn 0.1303809 0.7331653 -0.6674351
vn 0.1303809 0.7331653 -0.6674351
vn 0.1303809 0.7331653 -0.6674351
vn 0.1303809 0.7331653 -0.6674351
vn 0.1303809 0.7331653 -0.6674351
vn 0.1303809 0.7331653 -0.6674351
vn 0.1303809 0.7331653 -0.6674351
vn 0.1303809 0.7331653 -0.6674351
vn 0.1303809 0.7331653 -0.6674351
vn 0.1100273 -0.993562 -0.02699376
vn 0.1100273 -0.993562 -0.02699376
vn 0.1100273 -0.993562 -0.02699376
vn 0.1315439 -0.8904037 0.4357493
vn 0.1315439 -0.8904037 0.4357493
vn 0.1315439 -0.8904037 0.4357493
vn 0.1315439 -0.8904037 0.4357493
vn 0.1315439 -0.8904037 0.4357493
vn 0.1315439 -0.8904037 0.4357493
vn 0.1315439 -0.8904037 0.4357493
vn 0.1315439 -0.8904037 0.4357493
vn 0.1315439 -0.8904037 0.4357493
vn 0.1315439 -0.8904037 0.4357493
vn 0.1315439 -0.8904037 0.4357493
vn 0.1315439 -0.8904037 0.4357493
vn -0.6984542 0.3300607 0.6349975
vn -0.6984542 0.3300607 0.6349975
vn -0.6984542 0.3300607 0.6349975
vn -0.6984542 0.3300607 0.6349975
vn -0.6984542 0.3300607 0.6349975
vn -0.6984542 0.3300607 0.6349975
vn -0.6984542 0.3300607 0.6349975
vn -0.6984542 0.3300607 0.6349975
vn -0.6984542 0.3300607 0.6349975
vn -0.6984542 0.3300607 0.6349975
vn -0.6984542 0.3300607 0.6349975
vn -0.6984542 0.3300607 0.6349975
vn -0.5790071 -0.6162353 -0.5338585
vn -0.5790071 -0.6162353 -0.5338585
vn -0.5790071 -0.6162353 -0.5338585
vn -0.5790071 -0.6162353 -0.5338585
vn -0.5790071 -0.6162353 -0.5338585
vn -0.5790071 -0.6162353 -0.5338585
vn -0.5790071 -0.6162353 -0.5338585
vn -0.5790071 -0.6162353 -0.5338585
vn -0.5790071 -0.6162353 -0.5338585
vn -0.5790071 -0.6162353 -0.5338585
vn -0.5790071 -0.6162353 -0.5338585
vn -0.5790071 -0.6162353 -0.5338585
vn -0.5790071 -0.6162353 -0.5338585
vn -0.5790071 -0.6162353 -0.5338585
vn -0.5790071 -0.6162353 -0.5338585
vn -0.1279424 -0.4161343 0.9002572
vn -0.1279424 -0.4161343 0.9002572
vn -0.1279424 -0.4161343 0.9002572
vn -0.1279424 -0.4161343 0.9002572
vn -0.1279424 -0.4161343 0.9002572
vn -0.1279424 -0.4161343 0.9002572
vn -0.1279424 -0.4161343 0.9002572
vn -0.1279424 -0.4161343 0.9002572
vn -0.1279424 -0.4161343 0.9002572
vn 0.4243193 -0.7153947 -0.555125
vn 0.4243193 -0.7153947 -0.555125
vn 0.4243193 -0.7153947 -0.555125
vn 0.4243193 -0.7153947 -0.555125
vn 0.4243193 -0.7153947 -0.555125
vn 0.4243193 -0.7153947 -0.555125
vn 0.6455485 -0.7600606 -0.07466552
vn 0.6455485 -0.7600606 -0.07466552
vn 0.6455485 -0.7600606 -0.07466552
vn 0.6455485 -0.7600606 -0.07466552
vn 0.6455485 -0.7600606 -0.07466552
vn 0.6455485 -0.7600606 -0.07466552
vn 0.6455485 -0.7600606 -0.07466552
vn 0.6455485 -0.7600606 -0.07466552
vn 0.6455485 -0.7600606 -0.07466552
vn 0.6455485 -0.7600606 -0.07466552
vn 0.6455485 -0.7600606 -0.07466552
vn 0.6455485 -0.7600606 -0.07466552
vn -0.5849766 0.2590724 0.7685597
vn -0.5849766 0.2590724 0.7685597
vn -0.5849766 0.2590724 0.7685597
vn 0.8684896 0.413093 0.2740071
vn 0.8684896 0.413093 0.2740071
vn 0.8684896 0.413093 0.2740071
vn 0.8684896 0.413093 0.2740071
vn 0.8684896 0.413093 0.2740071
vn 0.8684896 0.413093 0.2740071
vn -0.4584164 -0.5203816 0.7204565
vn -0.4584164 -0.5203816 0.7204565
vn -0.4584164 -0.5203816 0.7204565
vn -0.4584164 -0.5203816 0.7204565
vn -0.4584164 -0.5203816 0.7204565
vn -0.4584164 -0.5203816 0.7204565
vn -0.4584164 -0.5203816 0.7204565
vn -0.4584164 -0.5203816 0.7204565
vn -0.4584164 -0.5203816 0.7204565
vn 0.7665172 0.3306178 0.5505843
vn 0.7665172 0.3306178 0.5505843
vn 0.7665172 0.3306178 0.5505843
vn 0.7665172 0.3306178 0.5505843
vn 0.7665172 0.3306178 0.5505843
vn 0.7665172 0.3306178 0.5505843
vn 0.7665172 0.3306178 0.5505843
vn 0.7665172 0.3306178 0.5505843
vn 0.7665172 0.3306178 0.5505843
vn 0.7665172 0.3306178 0.5505843
vn 0.7665172 0.3306178 0.5505843
vn 0.7665172 0.3306178 0.5505843
vn 0.7665172 0.3306178 0.5505843
vn 0.7665172 0.3306178 0.5505843
vn 0.7665172 0.3306178 0.5505843

vt 0.4744915 0.2796865
vt 0.7000342 0.3689932
vt 0.396937 0.3313129
vt 0.396937 0.3313129
vt 0.7000342 0.3689932
vt 0.5331214 0.551324
vt 0.710741 0.6069397
vt 0.6013753 0.6781564
vt 0.6027911 0.4604891
vt 0.6027911 0.4604891
vt 0.6013753 0.6781564
vt 0.3160026 0.1817167
vt 0.3160026 0.1817167
vt 0.6013753 0.6781564
vt 0.2712954 0.2365168
vt 0.2712954 0.2365168
vt 0.6013753 0.6781564
vt 0.3567441 0.5482301
vt 0.478912 0.4335016
vt 0.4788511 0.4335766
vt 0.4788464 0.4335063
vt 0.485353 0.5313916
vt 0.425373 0.4588015
vt 0.485428 0.5313823
vt 0.485428 0.5313823
vt 0.425373 0.4588015
vt 0.5800085 0.442999
vt 0.5800085 0.442999
vt 0.425373 0.4588015
vt 0.5640326 0.424337
vt 0.5640326 0.424337
vt 0.425373 0.4588015
vt 0.4705772 0.3969323
vt 0.5172955 0.363771
vt 0.7084441 0.5181159
vt 0.4461727 0.3697245
vt 0.4461727 0.3697245
vt 0.7084441 0.5181159
vt 0.4195555 0.3853301
vt 0.4195555 0.3853301
vt 0.7084441 0.5181159
vt 0.3922727 0.4271684
vt 0.3922727 0.4271684
vt 0.7084441 0.5181159
vt 0.6631133 0.5690345
vt 0.6061662 0.5539305
vt 0.3840128 0.6546987
vt 0.5455722 0.2622105
vt 0.5455722 0.2622105
vt 0.3840128 0.6546987
vt 0.4040202 0.265431
vt 0.4040202 0.265431
vt 0.3840128 0.6546987
vt 0.3093788 0.3655711
vt 0.3093788 0.3655711
vt 0.3840128 0.6546987
vt 0.3093366 0.3656743
vt 0.3093366 0.3656743
vt 0.3840128 0.6546987
vt 0.3097398 0.4832482
vt 0.6148387 0.5393702
vt 0.5879027 0.5691282
vt 0.4301592 0.4177319
vt 0.4301592 0.4177319
vt 0.5879027 0.5691282
vt 0.3997872 0.5007336
vt 0.3997872 0.5007336
vt 0.5879027 0.5691282
vt 0.5699392 0.5850947
vt 0.3606255 0.4657488
vt 0.511417 0.4135317
vt 0.3410119 0.5336324
vt 0.3410119 0.5336324
vt 0.511417 0.4135317
vt 0.4429662 0.5907201
vt 0.5880058 0.4263387
vt 0.5880152 0.4264043
vt 0.5269617 0.3672071
vt 0.5269617 0.3672071
vt 0.5880152 0.4264043
vt 0.4135411 0.5267976
vt 0.4135411 0.5267976
vt 0.5880152 0.4264043
vt 0.4071188 0.5472644
vt 0.4071188 0.5472644
vt 0.5880152 0.4264043
vt 0.5351653 0.5109342
vt 0.4412364 0.41138
vt 0.4921597 0.3756217
vt 0.5269805 0.402703
vt 0.5902372 0.6438419
vt 0.4800699 0.5560399
vt 0.6242423 0.593064
vt 0.6242423 0.593064
vt 0.4800699 0.5560399
vt 0.6274862 0.5710595
vt 0.3873599 0.505187
vt 0.6274394 0.3781625
vt 0.3926899 0.5366232
vt 0.3926899 0.5366232
vt 0.6274394 0.3781625
vt 0.5652608 0.5318323
vt 0.5652608 0.5318323
vt 0.6274394 0.3781625
vt 0.6474562 0.4300748
vt 0.1943268 0.3751436
vt 0.3792922 0.2429625
vt 0.4737461 0.5969829
vt 0.4737461 0.5969829
vt 0.3792922 0.2429625
vt 0.6432934 0.6169247
vt 0.6432934 0.6169247
vt 0.3792922 0.2429625
vt 0.6965371 0.3891694
vt 0.6965371 0.3891694
vt 0.3792922 0.2429625
vt 0.6559035 0.3172402
vt 0.6559035 0.3172402
vt 0.3792922 0.2429625
vt 0.4091299 0.2270569

usemtl Material0
usemap Material0

usemtl Material1
usemap Material1
f 1/1/1 2/2/2 3/3/3
f 4/4/4 5/5/5 6/6/6
f 7/7/7 8/8/8 9/9/9
f 10/10/10 11/11/11 12/12/12
f 13/13/13 14/14/14 15/15/15
f 16/16/16 17/17/17 18/18/18
f 19/19/19 20/20/20 21/21/21
f 22/22/22 23/23/23 24/24/24
f 25/25/25 26/26/26 27/27/27
f 28/28/28 29/29/29 30/30/30
f 31/31/31 32/32/32 33/33/33
f 34/34/34 35/35/35 36/36/36
f 37/37/37 38/38/38 39/39/39
f 40/40/40 41/41/41 42/42/42
f 43/43/43 44/44/44 45/45/45
f 46/46/46 47/47/47 48/48/48
f 49/49/49 50/50/50 51/51/51
f 52/52/52 53/53/53 54/54/54
f 55/55/55 56/56/56 57/57/57
f 58/58/58 59/59/59 60/60/60
f 61/61/61 62/62/62 63/63/63
f 64/64/64 65/65/65 66/66/66
f 67/67/67 68/68/68 69/69/69
f 70/70/70 71/71/71 72/72/72
f 73/73/73 74/74/74 75/75/75
f 76/76/76 77/77/77 78/78/78
f 79/79/79 80/80/80 81/81/81
f 82/82/82 83/83/83 84/84/84
f 85/85/85 86/86/86 87/87/87
f 88/88/88 89/89/89 90/90/90
f 91/91/91 92/92/92 93/93/93
f 94/94/94 95/95/95 96/96/96
f 97/97/97 98/98/98 99/99/99
f 100/100/100 101/101/101 102/102/102
f 103/103/103 104/104/104 105/105/105
f 106/106/106 107/107/107 108/108/108
f 109/109/109 110/110/110 111/111/111
f 112/112/112 113/113/113 114/114/114
f 115/115/115 116/116/116 117/117/117
f 118/118/118 119/119/119 120/120/120
