g  Instance
v 4.584099 -55.37548 7.042838
v 4.751361 -55.28852 7.009373
v 4.64655 -55.31731 7.048325
v 5.031366 -55.21385 6.881244
v 5.378118 -55.43489 6.403816
v 5.479081 -55.10361 6.57812
v 4.559021 -56.43998 6.143446
v 5.174907 -56.05629 6.001067
v 4.950669 -55.23457 6.926764
v 4.950669 -55.23457 6.926764
v 5.174907 -56.05629 6.001067
v 5.031366 -55.21385 6.881244
v 5.031366 -55.21385 6.881244
v 5.174907 -56.05629 6.001067
v 5.378118 -55.43489 6.403816
v 4.751361 -55.28852 7.009373
v 4.584099 -55.37548 7.042838
v 4.950669 -55.23457 6.926764
v 4.950669 -55.23457 6.926764
v 4.584099 -55.37548 7.042838
v 4.559021 -56.43998 6.143446
v 4.559021 -56.43998 6.143446
v 4.584099 -55.37548 7.042838
v 3.882354 -56.03571 6.929193
v 4.559021 -56.43998 6.143446
v 3.882354 -56.03571 6.929193
v 3.149705 -57.09904 6.29944
v 3.149705 -57.09904 6.29944
v 3.882354 -56.03571 6.929193
v 3.365556 -56.53617 6.731152
v 2.928282 -56.96534 6.517754
v 3.149705 -57.09904 6.29944
v 3.365556 -56.53617 6.731152
v 2.928282 -56.96534 6.517754
v 2.640359 -57.25656 6.307912
v 3.149705 -57.09904 6.29944
v 3.149705 -57.09904 6.29944
v 2.640359 -57.25656 6.307912
v 2.646614 -57.26251 6.29944
v 4.559021 -56.43998 6.143446
v 4.968348 -56.643 5.540304
v 5.174907 -56.05629 6.001067
v 4.789184 -57.11214 5.09516
v 4.968348 -56.643 5.540304
v 4.050083 -57.52338 5.195724
v 4.050083 -57.52338 5.195724
v 4.968348 -56.643 5.540304
v 4.559021 -56.43998 6.143446
v 4.559021 -56.43998 6.143446
v 3.149705 -57.09904 6.29944
v 4.050083 -57.52338 5.195724
v 2.942345 -57.49348 5.88471
v 3.054048 -57.56408 5.723372
v 3.149705 -57.09904 6.29944
v 3.149705 -57.09904 6.29944
v 3.054048 -57.56408 5.723372
v 4.050083 -57.52338 5.195724
v 4.050083 -57.52338 5.195724
v 3.054048 -57.56408 5.723372
v 3.556231 -57.72029 5.217145
v 2.646614 -57.26251 6.29944
v 2.942345 -57.49348 5.88471
v 3.149705 -57.09904 6.29944
v 4.050083 -57.52338 5.195724
v 4.574689 -57.62706 4.508769
v 4.789184 -57.11214 5.09516
v 4.477071 -57.83065 4.237996
v 4.484705 -57.82456 4.241595
v 3.903053 -57.79144 4.856914
v 3.903053 -57.79144 4.856914
v 4.484705 -57.82456 4.241595
v 4.050083 -57.52338 5.195724
v 4.050083 -57.52338 5.195724
v 4.484705 -57.82456 4.241595
v 4.574689 -57.62706 4.508769
v 4.050083 -57.52338 5.195724
v 3.556231 -57.72029 5.217145
v 3.903053 -57.79144 4.856914
v 5.174907 -56.05629 6.001067
v 4.968348 -56.643 5.540304
v 5.378118 -55.43489 6.403816
v 5.378118 -55.43489 6.403816
v 4.968348 -56.643 5.540304
v 5.479081 -55.10361 6.57812
v 5.479081 -55.10361 6.57812
v 4.968348 -56.643 5.540304
v 5.17401 -55.32961 5.164861
v 5.17401 -55.32961 5.164861
v 4.968348 -56.643 5.540304
v 4.484705 -57.82456 4.241595
v 4.484705 -57.82456 4.241595
v 4.968348 -56.643 5.540304
v 4.574689 -57.62706 4.508769
v 4.574689 -57.62706 4.508769
v 4.968348 -56.643 5.540304
v 4.789184 -57.11214 5.09516
v 3.054048 -57.56408 5.723372
v 2.942345 -57.49348 5.88471
v 3.062542 -56.96352 5.540445
v 3.062542 -56.96352 5.540445
v 2.942345 -57.49348 5.88471
v 2.640359 -57.25656 6.307912
v 2.640359 -57.25656 6.307912
v 2.942345 -57.49348 5.88471
v 2.646614 -57.26251 6.29944
v 3.062542 -56.96352 5.540445
v 2.640359 -57.25656 6.307912
v 3.825795 -56.38607 4.53548
v 3.825795 -56.38607 4.53548
v 2.640359 -57.25656 6.307912
v 4.750684 -55.47357 5.025015
v 4.750684 -55.47357 5.025015
v 2.640359 -57.25656 6.307912
v 4.64655 -55.31731 7.048325
v 4.64655 -55.31731 7.048325
v 2.640359 -57.25656 6.307912
v 4.584099 -55.37548 7.042838
v 4.584099 -55.37548 7.042838
v 2.640359 -57.25656 6.307912
v 3.882354 -56.03571 6.929193
v 3.882354 -56.03571 6.929193
v 2.640359 -57.25656 6.307912
v 3.365556 -56.53617 6.731152
v 3.365556 -56.53617 6.731152
v 2.640359 -57.25656 6.307912
v 2.928282 -56.96534 6.517754
v 3.825795 -56.38607 4.53548
v 4.477071 -57.83065 4.237996
v 3.062542 -56.96352 5.540445
v 3.062542 -56.96352 5.540445
v 4.477071 -57.83065 4.237996
v 3.054048 -57.56408 5.723372
v 3.054048 -57.56408 5.723372
v 4.477071 -57.83065 4.237996
v 3.556231 -57.72029 5.217145
v 3.556231 -57.72029 5.217145
v 4.477071 -57.83065 4.237996
v 3.903053 -57.79144 4.856914
v 5.17401 -55.32961 5.164861
v 4.484705 -57.82456 4.241595
v 4.750684 -55.47357 5.025015
v 4.750684 -55.47357 5.025015
v 4.484705 -57.82456 4.241595
v 3.825795 -56.38607 4.53548
v 3.825795 -56.38607 4.53548
v 4.484705 -57.82456 4.241595
v 4.477071 -57.83065 4.237996
v 4.950669 -55.23457 6.926764
v 5.031366 -55.21385 6.881244
v 4.751361 -55.28852 7.009373
v 4.751361 -55.28852 7.009373
v 5.031366 -55.21385 6.881244
v 4.64655 -55.31731 7.048325
v 4.64655 -55.31731 7.048325
v 5.031366 -55.21385 6.881244
v 4.750684 -55.47357 5.025015
v 4.750684 -55.47357 5.025015
v 5.031366 -55.21385 6.881244
v 5.17401 -55.32961 5.164861
v 5.17401 -55.32961 5.164861
v 5.031366 -55.21385 6.881244
v 5.479081 -55.10361 6.57812

vn 0.4193774 -0.5203276 0.7438965
vn 0.4193774 -0.5203276 0.7438965
vn 0.4193774 -0.5203276 0.7438965
vn 0.5643606 -0.5125049 0.6471752
vn 0.5643606 -0.5125049 0.6471752
vn 0.5643606 -0.5125049 0.6471752
vn 0.508217 -0.5792679 0.63731
vn 0.508217 -0.5792679 0.63731
vn 0.508217 -0.5792679 0.63731
vn 0.508217 -0.5792679 0.63731
vn 0.508217 -0.5792679 0.63731
vn 0.508217 -0.5792679 0.63731
vn 0.508217 -0.5792679 0.63731
vn 0.508217 -0.5792679 0.63731
vn 0.508217 -0.5792679 0.63731
vn 0.4405513 -0.585411 0.6805944
vn 0.4405513 -0.585411 0.6805944
vn 0.4405513 -0.585411 0.6805944
vn 0.4405513 -0.585411 0.6805944
vn 0.4405513 -0.585411 0.6805944
vn 0.4405513 -0.585411 0.6805944
vn 0.4405513 -0.585411 0.6805944
vn 0.4405513 -0.585411 0.6805944
vn 0.4405513 -0.585411 0.6805944
vn 0.377127 -0.6503646 0.6593946
vn 0.377127 -0.6503646 0.6593946
vn 0.377127 -0.6503646 0.6593946
vn 0.377127 -0.6503646 0.6593946
vn 0.377127 -0.6503646 0.6593946
vn 0.377127 -0.6503646 0.6593946
vn 0.2968798 -0.6502249 0.6993354
vn 0.2968798 -0.6502249 0.6993354
vn 0.2968798 -0.6502249 0.6993354
vn 0.2301634 -0.7083591 0.6672723
vn 0.2301634 -0.7083591 0.6672723
vn 0.2301634 -0.7083591 0.6672723
vn 0.2301634 -0.7083591 0.6672723
vn 0.2301634 -0.7083591 0.6672723
vn 0.2301634 -0.7083591 0.6672723
vn 0.5254799 -0.6321717 0.5694118
vn 0.5254799 -0.6321717 0.5694118
vn 0.5254799 -0.6321717 0.5694118
vn 0.4623329 -0.6968417 0.5483245
vn 0.4623329 -0.6968417 0.5483245
vn 0.4623329 -0.6968417 0.5483245
vn 0.4623329 -0.6968417 0.5483245
vn 0.4623329 -0.6968417 0.5483245
vn 0.4623329 -0.6968417 0.5483245
vn 0.394269 -0.702992 0.591907
vn 0.394269 -0.702992 0.591907
vn 0.394269 -0.702992 0.591907
vn 0.3277065 -0.7609937 0.5599082
vn 0.3277065 -0.7609937 0.5599082
vn 0.3277065 -0.7609937 0.5599082
vn 0.3277065 -0.7609937 0.5599082
vn 0.3277065 -0.7609937 0.5599082
vn 0.3277065 -0.7609937 0.5599082
vn 0.3277065 -0.7609937 0.5599082
vn 0.3277065 -0.7609937 0.5599082
vn 0.3277065 -0.7609937 0.5599082
vn 0.2472158 -0.7608401 0.6000056
vn 0.2472158 -0.7608401 0.6000056
vn 0.2472158 -0.7608401 0.6000056
vn 0.47627 -0.7397361 0.4753498
vn 0.47627 -0.7397361 0.4753498
vn 0.47627 -0.7397361 0.4753498
vn 0.4228454 -0.7909431 0.442279
vn 0.4228454 -0.7909431 0.442279
vn 0.4228454 -0.7909431 0.442279
vn 0.4228454 -0.7909431 0.442279
vn 0.4228454 -0.7909431 0.442279
vn 0.4228454 -0.7909431 0.442279
vn 0.4228454 -0.7909431 0.442279
vn 0.4228454 -0.7909431 0.442279
vn 0.4228454 -0.7909431 0.442279
vn 0.341529 -0.8035373 0.4875303
vn 0.341529 -0.8035373 0.4875303
vn 0.341529 -0.8035373 0.4875303
vn 0.9636449 -0.2011634 -0.1758462
vn 0.9636449 -0.2011634 -0.1758462
vn 0.9636449 -0.2011634 -0.1758462
vn 0.9636449 -0.2011634 -0.1758462
vn 0.9636449 -0.2011634 -0.1758462
vn 0.9636449 -0.2011634 -0.1758462
vn 0.9636449 -0.2011634 -0.1758462
vn 0.9636449 -0.2011634 -0.1758462
vn 0.9636449 -0.2011634 -0.1758462
vn 0.9636449 -0.2011634 -0.1758462
vn 0.9636449 -0.2011634 -0.1758462
vn 0.9636449 -0.2011634 -0.1758462
vn 0.9636449 -0.2011634 -0.1758462
vn 0.9636449 -0.2011634 -0.1758462
vn 0.9636449 -0.2011634 -0.1758462
vn 0.9636449 -0.2011634 -0.1758462
vn 0.9636449 -0.2011634 -0.1758462
vn 0.9636449 -0.2011634 -0.1758462
vn -0.8421316 -0.146196 -0.5190774
vn -0.8421316 -0.146196 -0.5190774
vn -0.8421316 -0.146196 -0.5190774
vn -0.8421316 -0.146196 -0.5190774
vn -0.8421316 -0.146196 -0.5190774
vn -0.8421316 -0.146196 -0.5190774
vn -0.8421316 -0.146196 -0.5190774
vn -0.8421316 -0.146196 -0.5190774
vn -0.8421316 -0.146196 -0.5190774
vn -0.6744848 0.7326224 -0.09129466
vn -0.6744848 0.7326224 -0.09129466
vn -0.6744848 0.7326224 -0.09129466
vn -0.6744848 0.7326224 -0.09129466
vn -0.6744848 0.7326224 -0.09129466
vn -0.6744848 0.7326224 -0.09129466
vn -0.6744848 0.7326224 -0.09129466
vn -0.6744848 0.7326224 -0.09129466
vn -0.6744848 0.7326224 -0.09129466
vn -0.6744848 0.7326224 -0.09129466
vn -0.6744848 0.7326224 -0.09129466
vn -0.6744848 0.7326224 -0.09129466
vn -0.6744848 0.7326224 -0.09129466
vn -0.6744848 0.7326224 -0.09129466
vn -0.6744848 0.7326224 -0.09129466
vn -0.6744848 0.7326224 -0.09129466
vn -0.6744848 0.7326224 -0.09129466
vn -0.6744848 0.7326224 -0.09129466
vn -0.6744848 0.7326224 -0.09129466
vn -0.6744848 0.7326224 -0.09129466
vn -0.6744848 0.7326224 -0.09129466
vn -0.7257062 -0.1910596 -0.6609439
vn -0.7257062 -0.1910596 -0.6609439
vn -0.7257062 -0.1910596 -0.6609439
vn -0.7257062 -0.1910596 -0.6609439
vn -0.7257062 -0.1910596 -0.6609439
vn -0.7257062 -0.1910596 -0.6609439
vn -0.7257062 -0.1910596 -0.6609439
vn -0.7257062 -0.1910596 -0.6609439
vn -0.7257062 -0.1910596 -0.6609439
vn -0.7257062 -0.1910596 -0.6609439
vn -0.7257062 -0.1910596 -0.6609439
vn -0.7257062 -0.1910596 -0.6609439
vn 0.2108915 0.2874723 -0.9342829
vn 0.2108915 0.2874723 -0.9342829
vn 0.2108915 0.2874723 -0.9342829
vn 0.2108915 0.2874723 -0.9342829
vn 0.2108915 0.2874723 -0.9342829
vn 0.2108915 0.2874723 -0.9342829
vn 0.2108915 0.2874723 -0.9342829
vn 0.2108915 0.2874723 -0.9342829
vn 0.2108915 0.2874723 -0.9342829
vn -0.2943033 0.951593 -0.08863661
vn -0.2943033 0.951593 -0.08863661
vn -0.2943033 0.951593 -0.08863661
vn -0.2943033 0.951593 -0.08863661
vn -0.2943033 0.951593 -0.08863661
vn -0.2943033 0.951593 -0.08863661
vn -0.2943033 0.951593 -0.08863661
vn -0.2943033 0.951593 -0.08863661
vn -0.2943033 0.951593 -0.08863661
vn -0.2943033 0.951593 -0.08863661
vn -0.2943033 0.951593 -0.08863661
vn -0.2943033 0.951593 -0.08863661
vn -0.2943033 0.951593 -0.08863661
vn -0.2943033 0.951593 -0.08863661
vn -0.2943033 0.951593 -0.08863661

vt 0.9480568 0.3542862
vt 0.9508683 0.3542862
vt 0.949217 0.3547156
vt 0.9554148 0.3527797
vt 0.9603369 0.3442546
vt 0.9635954 0.3492515
vt 0.9431815 0.3346036
vt 0.954734 0.3346036
vt 0.9540081 0.3533562
vt 0.9540081 0.3533562
vt 0.954734 0.3346036
vt 0.9554148 0.3527797
vt 0.9554148 0.3527797
vt 0.954734 0.3346036
vt 0.9603369 0.3442546
vt 0.9508683 0.3542862
vt 0.9480568 0.3542862
vt 0.9540081 0.3533562
vt 0.9540081 0.3533562
vt 0.9480568 0.3542862
vt 0.9431815 0.3346036
vt 0.9431815 0.3346036
vt 0.9480568 0.3542862
vt 0.9350097 0.3487574
vt 0.9431815 0.3346036
vt 0.9350097 0.3487574
vt 0.9204541 0.3346036
vt 0.9204541 0.3346036
vt 0.9350097 0.3487574
vt 0.9256915 0.3436752
vt 0.9180551 0.3387589
vt 0.9204541 0.3346036
vt 0.9256915 0.3436752
vt 0.9180551 0.3387589
vt 0.9128985 0.3347649
vt 0.9204541 0.3346036
vt 0.9204541 0.3346036
vt 0.9128985 0.3347649
vt 0.9129568 0.3346036
vt 0.9431815 0.3346036
vt 0.9492987 0.3240082
vt 0.954734 0.3346036
vt 0.9450514 0.314921
vt 0.9492987 0.3240082
vt 0.9318178 0.314921
vt 0.9318178 0.314921
vt 0.9492987 0.3240082
vt 0.9431815 0.3346036
vt 0.9431815 0.3346036
vt 0.9204541 0.3346036
vt 0.9318178 0.314921
vt 0.9159315 0.3267701
vt 0.9172717 0.323877
vt 0.9204541 0.3346036
vt 0.9204541 0.3346036
vt 0.9172717 0.323877
vt 0.9318178 0.314921
vt 0.9318178 0.314921
vt 0.9172717 0.323877
vt 0.9239213 0.314921
vt 0.9129568 0.3346036
vt 0.9159315 0.3267701
vt 0.9204541 0.3346036
vt 0.9318178 0.314921
vt 0.9382973 0.303698
vt 0.9450514 0.314921
vt 0.9358364 0.298893
vt 0.9359735 0.2989648
vt 0.9283285 0.3088774
vt 0.9283285 0.3088774
vt 0.9359735 0.2989648
vt 0.9318178 0.314921
vt 0.9318178 0.314921
vt 0.9359735 0.2989648
vt 0.9382973 0.303698
vt 0.9318178 0.314921
vt 0.9239213 0.314921
vt 0.9283285 0.3088774
vt 0.4672723 0.4406223
vt 0.5288462 0.4873641
vt 0.4023795 0.3997684
vt 0.4023795 0.3997684
vt 0.5288462 0.4873641
vt 0.3679291 0.3820861
vt 0.3679291 0.3820861
vt 0.5288462 0.4873641
vt 0.3962526 0.5254569
vt 0.3962526 0.5254569
vt 0.5288462 0.4873641
vt 0.6542253 0.6191186
vt 0.6542253 0.6191186
vt 0.5288462 0.4873641
vt 0.633074 0.5920139
vt 0.633074 0.5920139
vt 0.5288462 0.4873641
vt 0.5783584 0.5325261
vt 0.3729262 0.3534392
vt 0.3831268 0.3317301
vt 0.4408192 0.3780546
vt 0.4408192 0.3780546
vt 0.3831268 0.3317301
vt 0.4159131 0.2747784
vt 0.4159131 0.2747784
vt 0.3831268 0.3317301
vt 0.4151162 0.2759175
vt 0.310232 0.4848796
vt 0.2599744 0.4087971
vt 0.404278 0.5845041
vt 0.404278 0.5845041
vt 0.2599744 0.4087971
vt 0.5324652 0.5359763
vt 0.5324652 0.5359763
vt 0.2599744 0.4087971
vt 0.5353528 0.3353959
vt 0.5353528 0.3353959
vt 0.2599744 0.4087971
vt 0.5269242 0.3359397
vt 0.5269242 0.3359397
vt 0.2599744 0.4087971
vt 0.431814 0.3472044
vt 0.431814 0.3472044
vt 0.2599744 0.4087971
vt 0.3608177 0.3668368
vt 0.3608177 0.3668368
vt 0.2599744 0.4087971
vt 0.3003595 0.3879927
vt 0.5030541 0.5001242
vt 0.2983204 0.5520647
vt 0.455356 0.3246891
vt 0.455356 0.3246891
vt 0.2983204 0.5520647
vt 0.3795547 0.292756
vt 0.3795547 0.292756
vt 0.2983204 0.5520647
vt 0.3430183 0.3811298
vt 0.3430183 0.3811298
vt 0.2983204 0.5520647
vt 0.3224342 0.4440163
vt 0.4186461 0.4637987
vt 0.685774 0.5347199
vt 0.436619 0.5073528
vt 0.436619 0.5073528
vt 0.685774 0.5347199
vt 0.5388124 0.6025145
vt 0.5388124 0.6025145
vt 0.685774 0.5347199
vt 0.6864678 0.5354981
vt 0.5279555 0.3466091
vt 0.5361779 0.3511187
vt 0.5075918 0.3384242
vt 0.5075918 0.3384242
vt 0.5361779 0.3511187
vt 0.4968756 0.3345662
vt 0.4968756 0.3345662
vt 0.5361779 0.3511187
vt 0.5021353 0.5350481
vt 0.5021353 0.5350481
vt 0.5361779 0.3511187
vt 0.5462472 0.5211911
vt 0.5462472 0.5211911
vt 0.5361779 0.3511187
vt 0.5816118 0.3811533

usemtl Material0
usemap Material0
f 1/1/1 2/2/2 3/3/3
f 4/4/4 5/5/5 6/6/6
f 7/7/7 8/8/8 9/9/9
f 10/10/10 11/11/11 12/12/12
f 13/13/13 14/14/14 15/15/15
f 16/16/16 17/17/17 18/18/18
f 19/19/19 20/20/20 21/21/21
f 22/22/22 23/23/23 24/24/24
f 25/25/25 26/26/26 27/27/27
f 28/28/28 29/29/29 30/30/30
f 31/31/31 32/32/32 33/33/33
f 34/34/34 35/35/35 36/36/36
f 37/37/37 38/38/38 39/39/39
f 40/40/40 41/41/41 42/42/42
f 43/43/43 44/44/44 45/45/45
f 46/46/46 47/47/47 48/48/48
f 49/49/49 50/50/50 51/51/51
f 52/52/52 53/53/53 54/54/54
f 55/55/55 56/56/56 57/57/57
f 58/58/58 59/59/59 60/60/60
f 61/61/61 62/62/62 63/63/63
f 64/64/64 65/65/65 66/66/66
f 67/67/67 68/68/68 69/69/69
f 70/70/70 71/71/71 72/72/72
f 73/73/73 74/74/74 75/75/75
f 76/76/76 77/77/77 78/78/78

usemtl Material1
usemap Material1
f 79/79/79 80/80/80 81/81/81
f 82/82/82 83/83/83 84/84/84
f 85/85/85 86/86/86 87/87/87
f 88/88/88 89/89/89 90/90/90
f 91/91/91 92/92/92 93/93/93
f 94/94/94 95/95/95 96/96/96
f 97/97/97 98/98/98 99/99/99
f 100/100/100 101/101/101 102/102/102
f 103/103/103 104/104/104 105/105/105
f 106/106/106 107/107/107 108/108/108
f 109/109/109 110/110/110 111/111/111
f 112/112/112 113/113/113 114/114/114
f 115/115/115 116/116/116 117/117/117
f 118/118/118 119/119/119 120/120/120
f 121/121/121 122/122/122 123/123/123
f 124/124/124 125/125/125 126/126/126
f 127/127/127 128/128/128 129/129/129
f 130/130/130 131/131/131 132/132/132
f 133/133/133 134/134/134 135/135/135
f 136/136/136 137/137/137 138/138/138
f 139/139/139 140/140/140 141/141/141
f 142/142/142 143/143/143 144/144/144
f 145/145/145 146/146/146 147/147/147
f 148/148/148 149/149/149 150/150/150
f 151/151/151 152/152/152 153/153/153
f 154/154/154 155/155/155 156/156/156
f 157/157/157 158/158/158 159/159/159
f 160/160/160 161/161/161 162/162/162
