g  Instance
v 0.3079537 -56.44766 -3.55814
v -0.2713254 -55.17281 -3.913181
v 0.9343271 -56.79356 -3.853844
v 0.9343271 -56.79356 -3.853844
v -0.2713254 -55.17281 -3.913181
v 1.777296 -56.53291 -4.729733
v 1.777296 -56.53291 -4.729733
v -0.2713254 -55.17281 -3.913181
v 1.777261 -56.50711 -4.746685
v 1.777261 -56.50711 -4.746685
v -0.2713254 -55.17281 -3.913181
v 0.8433503 -55.38353 -4.705856
v 0.8433503 -55.38353 -4.705856
v -0.2713254 -55.17281 -3.913181
v -0.1322204 -54.97458 -4.159874
v 1.777296 -56.53291 -4.729733
v 1.777261 -56.50711 -4.746685
v 1.859872 -56.50487 -4.725555
v 3.466153 -54.44398 -3.456264
v 2.177787 -53.81199 -3.4677
v 3.174378 -54.58393 -3.098917
v 3.174378 -54.58393 -3.098917
v 2.177787 -53.81199 -3.4677
v 2.570153 -54.36336 -3.007861
v 2.570153 -54.36336 -3.007861
v 2.177787 -53.81199 -3.4677
v 2.15551 -53.82339 -3.439496
v 2.15551 -53.82339 -3.439496
v 2.177787 -53.81199 -3.4677
v 2.158982 -53.81178 -3.456405
v 4.150211 -55.38858 -3.883159
v 2.608567 -56.2447 -4.475678
v 4.167439 -54.96825 -3.776544
v 4.167439 -54.96825 -3.776544
v 2.608567 -56.2447 -4.475678
v 3.996666 -54.73767 -3.76296
v 3.996666 -54.73767 -3.76296
v 2.608567 -56.2447 -4.475678
v 2.395437 -53.97354 -3.975904
v 2.395437 -53.97354 -3.975904
v 2.608567 -56.2447 -4.475678
v 1.405001 -54.35667 -4.315947
v 1.405001 -54.35667 -4.315947
v 2.608567 -56.2447 -4.475678
v 0.8433503 -55.38353 -4.705856
v 0.8433503 -55.38353 -4.705856
v 2.608567 -56.2447 -4.475678
v 1.777261 -56.50711 -4.746685
v 1.777261 -56.50711 -4.746685
v 2.608567 -56.2447 -4.475678
v 1.859872 -56.50487 -4.725555
v 2.307699 -55.01931 -2.574992
v 0.8204032 -55.19276 -2.629817
v 3.290092 -55.24102 -2.794662
v 3.290092 -55.24102 -2.794662
v 0.8204032 -55.19276 -2.629817
v 4.052461 -55.72076 -3.199274
v 4.052461 -55.72076 -3.199274
v 0.8204032 -55.19276 -2.629817
v 0.9343271 -56.79356 -3.853844
v 0.9343271 -56.79356 -3.853844
v 0.8204032 -55.19276 -2.629817
v 0.3079537 -56.44766 -3.55814
v 2.177787 -53.81199 -3.4677
v 3.466153 -54.44398 -3.456264
v 2.395437 -53.97354 -3.975904
v 2.395437 -53.97354 -3.975904
v 3.466153 -54.44398 -3.456264
v 3.996666 -54.73767 -3.76296
v 2.15551 -53.82339 -3.439496
v 2.158982 -53.81178 -3.456405
v 1.264156 -54.02975 -3.399872
v 1.264156 -54.02975 -3.399872
v 2.158982 -53.81178 -3.456405
v 1.276121 -54.01182 -3.423905
v 0.9343271 -56.79356 -3.853844
v 1.777296 -56.53291 -4.729733
v 4.052461 -55.72076 -3.199274
v 4.052461 -55.72076 -3.199274
v 1.777296 -56.53291 -4.729733
v 4.132811 -55.69609 -3.289007
v 4.132811 -55.69609 -3.289007
v 1.777296 -56.53291 -4.729733
v 2.608567 -56.2447 -4.475678
v 2.608567 -56.2447 -4.475678
v 1.777296 -56.53291 -4.729733
v 1.859872 -56.50487 -4.725555
v 4.329331 -55.35303 -3.685421
v 4.150211 -55.38858 -3.883159
v 4.167439 -54.96825 -3.776544
v 0.8204032 -55.19276 -2.629817
v 0.4977054 -54.83817 -2.91928
v 0.3079537 -56.44766 -3.55814
v 0.3079537 -56.44766 -3.55814
v 0.4977054 -54.83817 -2.91928
v -0.2713254 -55.17281 -3.913181
v 3.996666 -54.73767 -3.76296
v 3.466153 -54.44398 -3.456264
v 4.167439 -54.96825 -3.776544
v 4.167439 -54.96825 -3.776544
v 3.466153 -54.44398 -3.456264
v 4.329331 -55.35303 -3.685421
v 4.329331 -55.35303 -3.685421
v 3.466153 -54.44398 -3.456264
v 4.132811 -55.69609 -3.289007
v 4.132811 -55.69609 -3.289007
v 3.466153 -54.44398 -3.456264
v 4.052461 -55.72076 -3.199274
v 4.052461 -55.72076 -3.199274
v 3.466153 -54.44398 -3.456264
v 3.290092 -55.24102 -2.794662
v 3.290092 -55.24102 -2.794662
v 3.466153 -54.44398 -3.456264
v 3.174378 -54.58393 -3.098917
v 0.8433503 -55.38353 -4.705856
v -0.1322204 -54.97458 -4.159874
v 1.405001 -54.35667 -4.315947
v 1.405001 -54.35667 -4.315947
v -0.1322204 -54.97458 -4.159874
v 0.4718577 -54.48447 -4.083243
v 3.174378 -54.58393 -3.098917
v 2.570153 -54.36336 -3.007861
v 3.290092 -55.24102 -2.794662
v 3.290092 -55.24102 -2.794662
v 2.570153 -54.36336 -3.007861
v 2.307699 -55.01931 -2.574992
v 2.15551 -53.82339 -3.439496
v 1.264156 -54.02975 -3.399872
v 2.570153 -54.36336 -3.007861
v 2.570153 -54.36336 -3.007861
v 1.264156 -54.02975 -3.399872
v 2.307699 -55.01931 -2.574992
v 2.307699 -55.01931 -2.574992
v 1.264156 -54.02975 -3.399872
v 0.8204032 -55.19276 -2.629817
v 0.8204032 -55.19276 -2.629817
v 1.264156 -54.02975 -3.399872
v 0.4977054 -54.83817 -2.91928
v 2.395437 -53.97354 -3.975904
v 1.405001 -54.35667 -4.315947
v 2.177787 -53.81199 -3.4677
v 2.177787 -53.81199 -3.4677
v 1.405001 -54.35667 -4.315947
v 2.158982 -53.81178 -3.456405
v 2.158982 -53.81178 -3.456405
v 1.405001 -54.35667 -4.315947
v 1.276121 -54.01182 -3.423905
v 1.276121 -54.01182 -3.423905
v 1.405001 -54.35667 -4.315947
v 0.4718577 -54.48447 -4.083243
v 4.150211 -55.38858 -3.883159
v 4.329331 -55.35303 -3.685421
v 2.608567 -56.2447 -4.475678
v 2.608567 -56.2447 -4.475678
v 4.329331 -55.35303 -3.685421
v 4.132811 -55.69609 -3.289007
v -0.2713254 -55.17281 -3.913181
v 0.4977054 -54.83817 -2.91928
v -0.1322204 -54.97458 -4.159874
v -0.1322204 -54.97458 -4.159874
v 0.4977054 -54.83817 -2.91928
v 0.4718577 -54.48447 -4.083243
v 0.4718577 -54.48447 -4.083243
v 0.4977054 -54.83817 -2.91928
v 1.276121 -54.01182 -3.423905
v 1.276121 -54.01182 -3.423905
v 0.4977054 -54.83817 -2.91928
v 1.264156 -54.02975 -3.399872

vn -0.5723301 -0.4508237 -0.6849791
vn -0.5723301 -0.4508237 -0.6849791
vn -0.5723301 -0.4508237 -0.6849791
vn -0.5723301 -0.4508237 -0.6849791
vn -0.5723301 -0.4508237 -0.6849791
vn -0.5723301 -0.4508237 -0.6849791
vn -0.5723301 -0.4508237 -0.6849791
vn -0.5723301 -0.4508237 -0.6849791
vn -0.5723301 -0.4508237 -0.6849791
vn -0.5723301 -0.4508237 -0.6849791
vn -0.5723301 -0.4508237 -0.6849791
vn -0.5723301 -0.4508237 -0.6849791
vn -0.5723301 -0.4508237 -0.6849791
vn -0.5723301 -0.4508237 -0.6849791
vn -0.5723301 -0.4508237 -0.6849791
vn 0.2229284 -0.53507 -0.8148639
vn 0.2229284 -0.53507 -0.8148639
vn 0.2229284 -0.53507 -0.8148639
vn 0.3552986 0.7347538 0.5778406
vn 0.3552986 0.7347538 0.5778406
vn 0.3552986 0.7347538 0.5778406
vn 0.3552986 0.7347538 0.5778406
vn 0.3552986 0.7347538 0.5778406
vn 0.3552986 0.7347538 0.5778406
vn 0.3552986 0.7347538 0.5778406
vn 0.3552986 0.7347538 0.5778406
vn 0.3552986 0.7347538 0.5778406
vn 0.3552986 0.7347538 0.5778406
vn 0.3552986 0.7347538 0.5778406
vn 0.3552986 0.7347538 0.5778406
vn 0.2352914 0.229887 -0.9443464
vn 0.2352914 0.229887 -0.9443464
vn 0.2352914 0.229887 -0.9443464
vn 0.2352914 0.229887 -0.9443464
vn 0.2352914 0.229887 -0.9443464
vn 0.2352914 0.229887 -0.9443464
vn 0.2352914 0.229887 -0.9443464
vn 0.2352914 0.229887 -0.9443464
vn 0.2352914 0.229887 -0.9443464
vn 0.2352914 0.229887 -0.9443464
vn 0.2352914 0.229887 -0.9443464
vn 0.2352914 0.229887 -0.9443464
vn 0.2352914 0.229887 -0.9443464
vn 0.2352914 0.229887 -0.9443464
vn 0.2352914 0.229887 -0.9443464
vn 0.2352914 0.229887 -0.9443464
vn 0.2352914 0.229887 -0.9443464
vn 0.2352914 0.229887 -0.9443464
vn 0.2352914 0.229887 -0.9443464
vn 0.2352914 0.229887 -0.9443464
vn 0.2352914 0.229887 -0.9443464
vn 0.04125261 -0.6050414 0.7951246
vn 0.04125261 -0.6050414 0.7951246
vn 0.04125261 -0.6050414 0.7951246
vn 0.04125261 -0.6050414 0.7951246
vn 0.04125261 -0.6050414 0.7951246
vn 0.04125261 -0.6050414 0.7951246
vn 0.04125261 -0.6050414 0.7951246
vn 0.04125261 -0.6050414 0.7951246
vn 0.04125261 -0.6050414 0.7951246
vn 0.04125261 -0.6050414 0.7951246
vn 0.04125261 -0.6050414 0.7951246
vn 0.04125261 -0.6050414 0.7951246
vn 0.4390623 0.8933195 -0.09594011
vn 0.4390623 0.8933195 -0.09594011
vn 0.4390623 0.8933195 -0.09594011
vn 0.4390623 0.8933195 -0.09594011
vn 0.4390623 0.8933195 -0.09594011
vn 0.4390623 0.8933195 -0.09594011
vn -0.1679828 0.828227 0.534623
vn -0.1679828 0.828227 0.534623
vn -0.1679828 0.828227 0.534623
vn -0.1679828 0.828227 0.534623
vn -0.1679828 0.828227 0.534623
vn -0.1679828 0.828227 0.534623
vn 0.3202519 -0.9469637 0.02643199
vn 0.3202519 -0.9469637 0.02643199
vn 0.3202519 -0.9469637 0.02643199
vn 0.3202519 -0.9469637 0.02643199
vn 0.3202519 -0.9469637 0.02643199
vn 0.3202519 -0.9469637 0.02643199
vn 0.3202519 -0.9469637 0.02643199
vn 0.3202519 -0.9469637 0.02643199
vn 0.3202519 -0.9469637 0.02643199
vn 0.3202519 -0.9469637 0.02643199
vn 0.3202519 -0.9469637 0.02643199
vn 0.3202519 -0.9469637 0.02643199
vn 0.7206795 0.1425491 -0.6784548
vn 0.7206795 0.1425491 -0.6784548
vn 0.7206795 0.1425491 -0.6784548
vn -0.7525898 -0.1643771 0.6376433
vn -0.7525898 -0.1643771 0.6376433
vn -0.7525898 -0.1643771 0.6376433
vn -0.7525898 -0.1643771 0.6376433
vn -0.7525898 -0.1643771 0.6376433
vn -0.7525898 -0.1643771 0.6376433
vn 0.6168506 0.4175446 0.667197
vn 0.6168506 0.4175446 0.667197
vn 0.6168506 0.4175446 0.667197
vn 0.6168506 0.4175446 0.667197
vn 0.6168506 0.4175446 0.667197
vn 0.6168506 0.4175446 0.667197
vn 0.6168506 0.4175446 0.667197
vn 0.6168506 0.4175446 0.667197
vn 0.6168506 0.4175446 0.667197
vn 0.6168506 0.4175446 0.667197
vn 0.6168506 0.4175446 0.667197
vn 0.6168506 0.4175446 0.667197
vn 0.6168506 0.4175446 0.667197
vn 0.6168506 0.4175446 0.667197
vn 0.6168506 0.4175446 0.667197
vn 0.6168506 0.4175446 0.667197
vn 0.6168506 0.4175446 0.667197
vn 0.6168506 0.4175446 0.667197
vn -0.2736423 0.4686128 -0.8399537
vn -0.2736423 0.4686128 -0.8399537
vn -0.2736423 0.4686128 -0.8399537
vn -0.2736423 0.4686128 -0.8399537
vn -0.2736423 0.4686128 -0.8399537
vn -0.2736423 0.4686128 -0.8399537
vn 0.289769 0.4436921 0.8480397
vn 0.289769 0.4436921 0.8480397
vn 0.289769 0.4436921 0.8480397
vn 0.289769 0.4436921 0.8480397
vn 0.289769 0.4436921 0.8480397
vn 0.289769 0.4436921 0.8480397
vn -0.0969977 0.5749336 0.8124301
vn -0.0969977 0.5749336 0.8124301
vn -0.0969977 0.5749336 0.8124301
vn -0.0969977 0.5749336 0.8124301
vn -0.0969977 0.5749336 0.8124301
vn -0.0969977 0.5749336 0.8124301
vn -0.0969977 0.5749336 0.8124301
vn -0.0969977 0.5749336 0.8124301
vn -0.0969977 0.5749336 0.8124301
vn -0.0969977 0.5749336 0.8124301
vn -0.0969977 0.5749336 0.8124301
vn -0.0969977 0.5749336 0.8124301
vn -0.2177273 0.8993515 -0.3791595
vn -0.2177273 0.8993515 -0.3791595
vn -0.2177273 0.8993515 -0.3791595
vn -0.2177273 0.8993515 -0.3791595
vn -0.2177273 0.8993515 -0.3791595
vn -0.2177273 0.8993515 -0.3791595
vn -0.2177273 0.8993515 -0.3791595
vn -0.2177273 0.8993515 -0.3791595
vn -0.2177273 0.8993515 -0.3791595
vn -0.2177273 0.8993515 -0.3791595
vn -0.2177273 0.8993515 -0.3791595
vn -0.2177273 0.8993515 -0.3791595
vn 0.5556089 -0.7449536 -0.3692465
vn 0.5556089 -0.7449536 -0.3692465
vn 0.5556089 -0.7449536 -0.3692465
vn 0.5556089 -0.7449536 -0.3692465
vn 0.5556089 -0.7449536 -0.3692465
vn 0.5556089 -0.7449536 -0.3692465
vn -0.6299467 0.7390866 0.2385754
vn -0.6299467 0.7390866 0.2385754
vn -0.6299467 0.7390866 0.2385754
vn -0.6299467 0.7390866 0.2385754
vn -0.6299467 0.7390866 0.2385754
vn -0.6299467 0.7390866 0.2385754
vn -0.6299467 0.7390866 0.2385754
vn -0.6299467 0.7390866 0.2385754
vn -0.6299467 0.7390866 0.2385754
vn -0.6299467 0.7390866 0.2385754
vn -0.6299467 0.7390866 0.2385754
vn -0.6299467 0.7390866 0.2385754

vt 0.5348559 0.324
vt 0.718354 0.3897553
vt 0.4458914 0.3787672
vt 0.4458914 0.3787672
vt 0.718354 0.3897553
vt 0.4031342 0.5409922
vt 0.4031342 0.5409922
vt 0.718354 0.3897553
vt 0.4058719 0.544133
vt 0.4058719 0.544133
vt 0.718354 0.3897553
vt 0.6029505 0.5365669
vt 0.6029505 0.5365669
vt 0.718354 0.3897553
vt 0.7277671 0.435447
vt 0.5700048 0.4924363
vt 0.5683266 0.4973959
vt 0.5552477 0.4912174
vt 0.5977658 0.5982674
vt 0.4249136 0.599955
vt 0.5734644 0.54553
vt 0.5734644 0.54553
vt 0.4249136 0.599955
vt 0.4963693 0.5320854
vt 0.4963693 0.5320854
vt 0.4249136 0.599955
vt 0.4230947 0.5957922
vt 0.4230947 0.5957922
vt 0.4249136 0.599955
vt 0.4228604 0.5982862
vt 0.4774354 0.2700578
vt 0.575752 0.4305014
vt 0.4335766 0.2682624
vt 0.4335766 0.2682624
vt 0.575752 0.4305014
vt 0.4105878 0.2860337
vt 0.4105878 0.2860337
vt 0.575752 0.4305014
vt 0.3405853 0.4526746
vt 0.3405853 0.4526746
vt 0.575752 0.4305014
vt 0.3863755 0.5557587
vt 0.3863755 0.5557587
vt 0.575752 0.4305014
vt 0.4966224 0.6142152
vt 0.4966224 0.6142152
vt 0.575752 0.4305014
vt 0.6080226 0.5170189
vt 0.6080226 0.5170189
vt 0.575752 0.4305014
vt 0.6073007 0.5084215
vt 0.418346 0.31822
vt 0.6608069 0.3328739
vt 0.2619058 0.376939
vt 0.2619058 0.376939
vt 0.6608069 0.3328739
vt 0.1438958 0.4850952
vt 0.1438958 0.4850952
vt 0.6608069 0.3328739
vt 0.6600288 0.660071
vt 0.6600288 0.660071
vt 0.6608069 0.3328739
vt 0.757525 0.5810258
vt 0.4355127 0.4623923
vt 0.5772427 0.4612579
vt 0.4618439 0.5128281
vt 0.4618439 0.5128281
vt 0.5772427 0.4612579
vt 0.637068 0.4916956
vt 0.5597292 0.5820852
vt 0.5603949 0.5844103
vt 0.4533356 0.5766286
vt 0.4533356 0.5766286
vt 0.5603949 0.5844103
vt 0.4551122 0.5799382
vt 0.6175857 0.5189128
vt 0.5308338 0.605074
vt 0.2932904 0.4545075
vt 0.2932904 0.4545075
vt 0.5308338 0.605074
vt 0.2850305 0.4633346
vt 0.2850305 0.4633346
vt 0.5308338 0.605074
vt 0.444321 0.5800788
vt 0.444321 0.5800788
vt 0.5308338 0.605074
vt 0.5222645 0.6046615
vt 0.5186456 0.2798224
vt 0.5186644 0.3158385
vt 0.4639346 0.2964171
vt 0.5718705 0.4754712
vt 0.6248705 0.5234224
vt 0.4293576 0.6292723
vt 0.4293576 0.6292723
vt 0.6248705 0.5234224
vt 0.6040943 0.6880851
vt 0.5488629 0.7035547
vt 0.4775151 0.6492141
vt 0.5866933 0.7059642
vt 0.5866933 0.7059642
vt 0.4775151 0.6492141
vt 0.6407339 0.6898195
vt 0.6407339 0.6898195
vt 0.4775151 0.6492141
vt 0.6636852 0.619578
vt 0.6636852 0.619578
vt 0.4775151 0.6492141
vt 0.6604413 0.603677
vt 0.6604413 0.603677
vt 0.4775151 0.6492141
vt 0.55161 0.5319917
vt 0.55161 0.5319917
vt 0.4775151 0.6492141
vt 0.4712288 0.585901
vt 0.3446543 0.4888548
vt 0.2293867 0.3065755
vt 0.5263242 0.3586801
vt 0.5263242 0.3586801
vt 0.2293867 0.3065755
vt 0.368665 0.2809944
vt 0.5824836 0.6872975
vt 0.4662644 0.6554207
vt 0.6671166 0.5807914
vt 0.6671166 0.5807914
vt 0.4662644 0.6554207
vt 0.4920378 0.5038838
vt 0.581593 0.7121521
vt 0.4276044 0.7006952
vt 0.6353804 0.5873355
vt 0.6353804 0.5873355
vt 0.4276044 0.7006952
vt 0.5733425 0.4621579
vt 0.5733425 0.4621579
vt 0.4276044 0.7006952
vt 0.3212014 0.478012
vt 0.3212014 0.478012
vt 0.4276044 0.7006952
vt 0.2774973 0.5617215
vt 0.5814148 0.4692459
vt 0.4695693 0.5082903
vt 0.5629919 0.4108972
vt 0.5629919 0.4108972
vt 0.4695693 0.5082903
vt 0.5610512 0.4096034
vt 0.5610512 0.4096034
vt 0.4695693 0.5082903
vt 0.4648862 0.4058719
vt 0.4648862 0.4058719
vt 0.4695693 0.5082903
vt 0.3700198 0.48157
vt 0.285354 0.4743086
vt 0.2679202 0.4518027
vt 0.4702256 0.541761
vt 0.4702256 0.541761
vt 0.2679202 0.4518027
vt 0.3062802 0.4066782
vt 0.3510625 0.5648436
vt 0.4322875 0.4612392
vt 0.3748013 0.5905607
vt 0.3748013 0.5905607
vt 0.4322875 0.4612392
vt 0.4535231 0.5825727
vt 0.4535231 0.5825727
vt 0.4322875 0.4612392
vt 0.5465285 0.5138406
vt 0.5465285 0.5138406
vt 0.4322875 0.4612392
vt 0.5444283 0.5113373

usemtl Material0
usemap Material0

usemtl Material1
usemap Material1
f 1/1/1 2/2/2 3/3/3
f 4/4/4 5/5/5 6/6/6
f 7/7/7 8/8/8 9/9/9
f 10/10/10 11/11/11 12/12/12
f 13/13/13 14/14/14 15/15/15
f 16/16/16 17/17/17 18/18/18
f 19/19/19 20/20/20 21/21/21
f 22/22/22 23/23/23 24/24/24
f 25/25/25 26/26/26 27/27/27
f 28/28/28 29/29/29 30/30/30
f 31/31/31 32/32/32 33/33/33
f 34/34/34 35/35/35 36/36/36
f 37/37/37 38/38/38 39/39/39
f 40/40/40 41/41/41 42/42/42
f 43/43/43 44/44/44 45/45/45
f 46/46/46 47/47/47 48/48/48
f 49/49/49 50/50/50 51/51/51
f 52/52/52 53/53/53 54/54/54
f 55/55/55 56/56/56 57/57/57
f 58/58/58 59/59/59 60/60/60
f 61/61/61 62/62/62 63/63/63
f 64/64/64 65/65/65 66/66/66
f 67/67/67 68/68/68 69/69/69
f 70/70/70 71/71/71 72/72/72
f 73/73/73 74/74/74 75/75/75
f 76/76/76 77/77/77 78/78/78
f 79/79/79 80/80/80 81/81/81
f 82/82/82 83/83/83 84/84/84
f 85/85/85 86/86/86 87/87/87
f 88/88/88 89/89/89 90/90/90
f 91/91/91 92/92/92 93/93/93
f 94/94/94 95/95/95 96/96/96
f 97/97/97 98/98/98 99/99/99
f 100/100/100 101/101/101 102/102/102
f 103/103/103 104/104/104 105/105/105
f 106/106/106 107/107/107 108/108/108
f 109/109/109 110/110/110 111/111/111
f 112/112/112 113/113/113 114/114/114
f 115/115/115 116/116/116 117/117/117
f 118/118/118 119/119/119 120/120/120
f 121/121/121 122/122/122 123/123/123
f 124/124/124 125/125/125 126/126/126
f 127/127/127 128/128/128 129/129/129
f 130/130/130 131/131/131 132/132/132
f 133/133/133 134/134/134 135/135/135
f 136/136/136 137/137/137 138/138/138
f 139/139/139 140/140/140 141/141/141
f 142/142/142 143/143/143 144/144/144
f 145/145/145 146/146/146 147/147/147
f 148/148/148 149/149/149 150/150/150
f 151/151/151 152/152/152 153/153/153
f 154/154/154 155/155/155 156/156/156
f 157/157/157 158/158/158 159/159/159
f 160/160/160 161/161/161 162/162/162
f 163/163/163 164/164/164 165/165/165
f 166/166/166 167/167/167 168/168/168
