g  Instance
v -1.702145 -45.31411 2.813234
v -2.44099 -47.48663 3.099861
v -2.629122 -46.07848 2.039137
v -2.629122 -46.07848 2.039137
v -2.44099 -47.48663 3.099861
v -2.985824 -46.78228 1.978071
v -2.985824 -46.78228 1.978071
v -2.44099 -47.48663 3.099861
v -3.159966 -47.69452 2.276942
v -3.159966 -47.69452 2.276942
v -2.44099 -47.48663 3.099861
v -2.943719 -47.84832 2.649494
v -1.879989 -46.10238 3.603054
v -2.370042 -47.37955 3.348189
v -1.681658 -45.30564 2.945943
v -1.681658 -45.30564 2.945943
v -2.370042 -47.37955 3.348189
v -1.694167 -45.29466 2.821021
v -1.694167 -45.29466 2.821021
v -2.370042 -47.37955 3.348189
v -1.702145 -45.31411 2.813234
v -1.702145 -45.31411 2.813234
v -2.370042 -47.37955 3.348189
v -2.44099 -47.48663 3.099861
v -4.975865 -45.91249 2.544669
v -4.663649 -44.64006 2.714956
v -4.66497 -46.2429 2.323569
v -4.66497 -46.2429 2.323569
v -4.663649 -44.64006 2.714956
v -3.323503 -45.83172 1.818765
v -3.323503 -45.83172 1.818765
v -4.663649 -44.64006 2.714956
v -2.977686 -44.99192 1.868088
v -2.977686 -44.99192 1.868088
v -4.663649 -44.64006 2.714956
v -2.926474 -44.59632 1.941723
v -2.926474 -44.59632 1.941723
v -4.663649 -44.64006 2.714956
v -4.29737 -44.47595 2.5898
v -4.66497 -46.2429 2.323569
v -3.323503 -45.83172 1.818765
v -3.159966 -47.69452 2.276942
v -3.159966 -47.69452 2.276942
v -3.323503 -45.83172 1.818765
v -2.985824 -46.78228 1.978071
v -2.492366 -44.28841 2.827662
v -2.469216 -44.32179 2.717875
v -2.775509 -44.27732 2.9181
v -2.775509 -44.27732 2.9181
v -2.469216 -44.32179 2.717875
v -4.29737 -44.47595 2.5898
v -4.29737 -44.47595 2.5898
v -2.469216 -44.32179 2.717875
v -2.926474 -44.59632 1.941723
v -2.926474 -44.59632 1.941723
v -2.469216 -44.32179 2.717875
v -2.738367 -44.53749 2.090402
v -4.66497 -46.2429 2.323569
v -3.159966 -47.69452 2.276942
v -4.975865 -45.91249 2.544669
v -4.975865 -45.91249 2.544669
v -3.159966 -47.69452 2.276942
v -4.135725 -46.37303 4.940466
v -4.135725 -46.37303 4.940466
v -3.159966 -47.69452 2.276942
v -3.45009 -47.04301 4.85928
v -3.45009 -47.04301 4.85928
v -3.159966 -47.69452 2.276942
v -3.117326 -47.45943 4.188008
v -3.117326 -47.45943 4.188008
v -3.159966 -47.69452 2.276942
v -2.943719 -47.84832 2.649494
v -1.930382 -44.98019 3.259081
v -2.492366 -44.28841 2.827662
v -2.270231 -45.88942 4.209135
v -2.270231 -45.88942 4.209135
v -2.492366 -44.28841 2.827662
v -3.165737 -46.368 4.963708
v -3.165737 -46.368 4.963708
v -2.492366 -44.28841 2.827662
v -3.685694 -46.1819 4.978616
v -3.685694 -46.1819 4.978616
v -2.492366 -44.28841 2.827662
v -4.063764 -45.98297 4.931433
v -4.063764 -45.98297 4.931433
v -2.492366 -44.28841 2.827662
v -4.123921 -45.55607 4.563401
v -4.123921 -45.55607 4.563401
v -2.492366 -44.28841 2.827662
v -2.775509 -44.27732 2.9181
v -3.117326 -47.45943 4.188008
v -2.370042 -47.37955 3.348189
v -3.45009 -47.04301 4.85928
v -3.45009 -47.04301 4.85928
v -2.370042 -47.37955 3.348189
v -3.165737 -46.368 4.963708
v -3.165737 -46.368 4.963708
v -2.370042 -47.37955 3.348189
v -2.270231 -45.88942 4.209135
v -2.270231 -45.88942 4.209135
v -2.370042 -47.37955 3.348189
v -1.879989 -46.10238 3.603054
v -2.469216 -44.32179 2.717875
v -2.492366 -44.28841 2.827662
v -2.329102 -44.51035 2.405069
v -2.329102 -44.51035 2.405069
v -2.492366 -44.28841 2.827662
v -1.694167 -45.29466 2.821021
v -1.694167 -45.29466 2.821021
v -2.492366 -44.28841 2.827662
v -1.681658 -45.30564 2.945943
v -1.681658 -45.30564 2.945943
v -2.492366 -44.28841 2.827662
v -1.930382 -44.98019 3.259081
v -4.09 -46.19155 4.967832
v -3.685694 -46.1819 4.978616
v -4.063764 -45.98297 4.931433
v -2.270231 -45.88942 4.209135
v -1.879989 -46.10238 3.603054
v -1.930382 -44.98019 3.259081
v -1.930382 -44.98019 3.259081
v -1.879989 -46.10238 3.603054
v -1.681658 -45.30564 2.945943
v -2.738367 -44.53749 2.090402
v -2.329102 -44.51035 2.405069
v -2.926474 -44.59632 1.941723
v -2.926474 -44.59632 1.941723
v -2.329102 -44.51035 2.405069
v -2.977686 -44.99192 1.868088
v -2.977686 -44.99192 1.868088
v -2.329102 -44.51035 2.405069
v -2.629122 -46.07848 2.039137
v -2.629122 -46.07848 2.039137
v -2.329102 -44.51035 2.405069
v -1.702145 -45.31411 2.813234
v -1.702145 -45.31411 2.813234
v -2.329102 -44.51035 2.405069
v -1.694167 -45.29466 2.821021
v -4.063764 -45.98297 4.931433
v -4.123921 -45.55607 4.563401
v -4.09 -46.19155 4.967832
v -4.09 -46.19155 4.967832
v -4.123921 -45.55607 4.563401
v -4.135725 -46.37303 4.940466
v -4.135725 -46.37303 4.940466
v -4.123921 -45.55607 4.563401
v -4.975865 -45.91249 2.544669
v -4.975865 -45.91249 2.544669
v -4.123921 -45.55607 4.563401
v -4.663649 -44.64006 2.714956
v -4.09 -46.19155 4.967832
v -4.135725 -46.37303 4.940466
v -3.685694 -46.1819 4.978616
v -3.685694 -46.1819 4.978616
v -4.135725 -46.37303 4.940466
v -3.165737 -46.368 4.963708
v -3.165737 -46.368 4.963708
v -4.135725 -46.37303 4.940466
v -3.45009 -47.04301 4.85928
v -4.123921 -45.55607 4.563401
v -2.775509 -44.27732 2.9181
v -4.663649 -44.64006 2.714956
v -4.663649 -44.64006 2.714956
v -2.775509 -44.27732 2.9181
v -4.29737 -44.47595 2.5898
v -2.738367 -44.53749 2.090402
v -2.469216 -44.32179 2.717875
v -2.329102 -44.51035 2.405069
v -2.985824 -46.78228 1.978071
v -3.323503 -45.83172 1.818765
v -2.629122 -46.07848 2.039137
v -2.629122 -46.07848 2.039137
v -3.323503 -45.83172 1.818765
v -2.977686 -44.99192 1.868088
v -2.943719 -47.84832 2.649494
v -2.44099 -47.48663 3.099861
v -3.117326 -47.45943 4.188008
v -3.117326 -47.45943 4.188008
v -2.44099 -47.48663 3.099861
v -2.370042 -47.37955 3.348189

vn 0.750504 -0.3307228 -0.5721593
vn 0.750504 -0.3307228 -0.5721593
vn 0.750504 -0.3307228 -0.5721593
vn 0.750504 -0.3307228 -0.5721593
vn 0.750504 -0.3307228 -0.5721593
vn 0.750504 -0.3307228 -0.5721593
vn 0.750504 -0.3307228 -0.5721593
vn 0.750504 -0.3307228 -0.5721593
vn 0.750504 -0.3307228 -0.5721593
vn 0.750504 -0.3307228 -0.5721593
vn 0.750504 -0.3307228 -0.5721593
vn 0.750504 -0.3307228 -0.5721593
vn 0.9345065 -0.3340352 -0.1229562
vn 0.9345065 -0.3340352 -0.1229562
vn 0.9345065 -0.3340352 -0.1229562
vn 0.9345065 -0.3340352 -0.1229562
vn 0.9345065 -0.3340352 -0.1229562
vn 0.9345065 -0.3340352 -0.1229562
vn 0.9345065 -0.3340352 -0.1229562
vn 0.9345065 -0.3340352 -0.1229562
vn 0.9345065 -0.3340352 -0.1229562
vn 0.9345065 -0.3340352 -0.1229562
vn 0.9345065 -0.3340352 -0.1229562
vn 0.9345065 -0.3340352 -0.1229562
vn -0.4014719 0.217569 -0.8896539
vn -0.4014719 0.217569 -0.8896539
vn -0.4014719 0.217569 -0.8896539
vn -0.4014719 0.217569 -0.8896539
vn -0.4014719 0.217569 -0.8896539
vn -0.4014719 0.217569 -0.8896539
vn -0.4014719 0.217569 -0.8896539
vn -0.4014719 0.217569 -0.8896539
vn -0.4014719 0.217569 -0.8896539
vn -0.4014719 0.217569 -0.8896539
vn -0.4014719 0.217569 -0.8896539
vn -0.4014719 0.217569 -0.8896539
vn -0.4014719 0.217569 -0.8896539
vn -0.4014719 0.217569 -0.8896539
vn -0.4014719 0.217569 -0.8896539
vn -0.2721089 -0.2522933 -0.9286037
vn -0.2721089 -0.2522933 -0.9286037
vn -0.2721089 -0.2522933 -0.9286037
vn -0.2721089 -0.2522933 -0.9286037
vn -0.2721089 -0.2522933 -0.9286037
vn -0.2721089 -0.2522933 -0.9286037
vn -0.059105 0.9515517 -0.3017552
vn -0.059105 0.9515517 -0.3017552
vn -0.059105 0.9515517 -0.3017552
vn -0.059105 0.9515517 -0.3017552
vn -0.059105 0.9515517 -0.3017552
vn -0.059105 0.9515517 -0.3017552
vn -0.059105 0.9515517 -0.3017552
vn -0.059105 0.9515517 -0.3017552
vn -0.059105 0.9515517 -0.3017552
vn -0.059105 0.9515517 -0.3017552
vn -0.059105 0.9515517 -0.3017552
vn -0.059105 0.9515517 -0.3017552
vn -0.6888216 -0.7174855 0.1036315
vn -0.6888216 -0.7174855 0.1036315
vn -0.6888216 -0.7174855 0.1036315
vn -0.6888216 -0.7174855 0.1036315
vn -0.6888216 -0.7174855 0.1036315
vn -0.6888216 -0.7174855 0.1036315
vn -0.6888216 -0.7174855 0.1036315
vn -0.6888216 -0.7174855 0.1036315
vn -0.6888216 -0.7174855 0.1036315
vn -0.6888216 -0.7174855 0.1036315
vn -0.6888216 -0.7174855 0.1036315
vn -0.6888216 -0.7174855 0.1036315
vn -0.6888216 -0.7174855 0.1036315
vn -0.6888216 -0.7174855 0.1036315
vn -0.6888216 -0.7174855 0.1036315
vn 0.2537919 0.6518443 0.714625
vn 0.2537919 0.6518443 0.714625
vn 0.2537919 0.6518443 0.714625
vn 0.2537919 0.6518443 0.714625
vn 0.2537919 0.6518443 0.714625
vn 0.2537919 0.6518443 0.714625
vn 0.2537919 0.6518443 0.714625
vn 0.2537919 0.6518443 0.714625
vn 0.2537919 0.6518443 0.714625
vn 0.2537919 0.6518443 0.714625
vn 0.2537919 0.6518443 0.714625
vn 0.2537919 0.6518443 0.714625
vn 0.2537919 0.6518443 0.714625
vn 0.2537919 0.6518443 0.714625
vn 0.2537919 0.6518443 0.714625
vn 0.2537919 0.6518443 0.714625
vn 0.2537919 0.6518443 0.714625
vn 0.2537919 0.6518443 0.714625
vn 0.7062836 -0.3890243 0.591459
vn 0.7062836 -0.3890243 0.591459
vn 0.7062836 -0.3890243 0.591459
vn 0.7062836 -0.3890243 0.591459
vn 0.7062836 -0.3890243 0.591459
vn 0.7062836 -0.3890243 0.591459
vn 0.7062836 -0.3890243 0.591459
vn 0.7062836 -0.3890243 0.591459
vn 0.7062836 -0.3890243 0.591459
vn 0.7062836 -0.3890243 0.591459
vn 0.7062836 -0.3890243 0.591459
vn 0.7062836 -0.3890243 0.591459
vn 0.7831331 0.6213994 -0.02377591
vn 0.7831331 0.6213994 -0.02377591
vn 0.7831331 0.6213994 -0.02377591
vn 0.7831331 0.6213994 -0.02377591
vn 0.7831331 0.6213994 -0.02377591
vn 0.7831331 0.6213994 -0.02377591
vn 0.7831331 0.6213994 -0.02377591
vn 0.7831331 0.6213994 -0.02377591
vn 0.7831331 0.6213994 -0.02377591
vn 0.7831331 0.6213994 -0.02377591
vn 0.7831331 0.6213994 -0.02377591
vn 0.7831331 0.6213994 -0.02377591
vn -0.03043962 0.1755395 0.9840017
vn -0.03043962 0.1755395 0.9840017
vn -0.03043962 0.1755395 0.9840017
vn 0.8545645 0.1869097 0.4845455
vn 0.8545645 0.1869097 0.4845455
vn 0.8545645 0.1869097 0.4845455
vn 0.8545645 0.1869097 0.4845455
vn 0.8545645 0.1869097 0.4845455
vn 0.8545645 0.1869097 0.4845455
vn 0.6051542 0.06928486 -0.7930877
vn 0.6051542 0.06928486 -0.7930877
vn 0.6051542 0.06928486 -0.7930877
vn 0.6051542 0.06928486 -0.7930877
vn 0.6051542 0.06928486 -0.7930877
vn 0.6051542 0.06928486 -0.7930877
vn 0.6051542 0.06928486 -0.7930877
vn 0.6051542 0.06928486 -0.7930877
vn 0.6051542 0.06928486 -0.7930877
vn 0.6051542 0.06928486 -0.7930877
vn 0.6051542 0.06928486 -0.7930877
vn 0.6051542 0.06928486 -0.7930877
vn 0.6051542 0.06928486 -0.7930877
vn 0.6051542 0.06928486 -0.7930877
vn 0.6051542 0.06928486 -0.7930877
vn -0.9175221 0.1775002 0.355875
vn -0.9175221 0.1775002 0.355875
vn -0.9175221 0.1775002 0.355875
vn -0.9175221 0.1775002 0.355875
vn -0.9175221 0.1775002 0.355875
vn -0.9175221 0.1775002 0.355875
vn -0.9175221 0.1775002 0.355875
vn -0.9175221 0.1775002 0.355875
vn -0.9175221 0.1775002 0.355875
vn -0.9175221 0.1775002 0.355875
vn -0.9175221 0.1775002 0.355875
vn -0.9175221 0.1775002 0.355875
vn -0.02294443 -0.1434028 0.9893984
vn -0.02294443 -0.1434028 0.9893984
vn -0.02294443 -0.1434028 0.9893984
vn -0.02294443 -0.1434028 0.9893984
vn -0.02294443 -0.1434028 0.9893984
vn -0.02294443 -0.1434028 0.9893984
vn -0.02294443 -0.1434028 0.9893984
vn -0.02294443 -0.1434028 0.9893984
vn -0.02294443 -0.1434028 0.9893984
vn -0.2150466 0.8486127 0.4833338
vn -0.2150466 0.8486127 0.4833338
vn -0.2150466 0.8486127 0.4833338
vn -0.2150466 0.8486127 0.4833338
vn -0.2150466 0.8486127 0.4833338
vn -0.2150466 0.8486127 0.4833338
vn 0.2582184 0.8741819 -0.4112536
vn 0.2582184 0.8741819 -0.4112536
vn 0.2582184 0.8741819 -0.4112536
vn 0.2824831 -0.06010255 -0.9573876
vn 0.2824831 -0.06010255 -0.9573876
vn 0.2824831 -0.06010255 -0.9573876
vn 0.2824831 -0.06010255 -0.9573876
vn 0.2824831 -0.06010255 -0.9573876
vn 0.2824831 -0.06010255 -0.9573876
vn 0.3938214 -0.8796222 0.2667764
vn 0.3938214 -0.8796222 0.2667764
vn 0.3938214 -0.8796222 0.2667764
vn 0.3938214 -0.8796222 0.2667764
vn 0.3938214 -0.8796222 0.2667764
vn 0.3938214 -0.8796222 0.2667764

vt 0.3061161 0.3952353
vt 0.5801398 0.3533407
vt 0.4347673 0.5083747
vt 0.4347673 0.5083747
vt 0.5801398 0.3533407
vt 0.5292118 0.5173002
vt 0.5292118 0.5173002
vt 0.5801398 0.3533407
vt 0.6376962 0.4736149
vt 0.6376962 0.4736149
vt 0.5801398 0.3533407
vt 0.6441091 0.4191664
vt 0.4285607 0.3999325
vt 0.5640326 0.425373
vt 0.3476216 0.4655238
vt 0.3476216 0.4655238
vt 0.5640326 0.425373
vt 0.3470169 0.4779932
vt 0.3470169 0.4779932
vt 0.5640326 0.425373
vt 0.3490983 0.4787714
vt 0.3490983 0.4787714
vt 0.5640326 0.425373
vt 0.5763896 0.4501619
vt 0.3961401 0.2913168
vt 0.6690105 0.2110294
vt 0.3654914 0.3955588
vt 0.3654914 0.3955588
vt 0.6690105 0.2110294
vt 0.5809273 0.6335663
vt 0.5809273 0.6335663
vt 0.6690105 0.2110294
vt 0.7753573 0.6103055
vt 0.7753573 0.6103055
vt 0.6690105 0.2110294
vt 0.85549 0.5755879
vt 0.85549 0.5755879
vt 0.6690105 0.2110294
vt 0.7376488 0.270039
vt 0.4848468 0.5562181
vt 0.4307874 0.4137942
vt 0.6267081 0.3964307
vt 0.6267081 0.3964307
vt 0.4307874 0.4137942
vt 0.5287618 0.3779375
vt 0.6254892 0.4427084
vt 0.627655 0.4545825
vt 0.5964157 0.432925
vt 0.5964157 0.432925
vt 0.627655 0.4545825
vt 0.4385222 0.4684302
vt 0.4385222 0.4684302
vt 0.627655 0.4545825
vt 0.5788459 0.5385264
vt 0.5788459 0.5385264
vt 0.627655 0.4545825
vt 0.5985814 0.5224473
vt 0.5498568 0.5543711
vt 0.3431776 0.5590026
vt 0.5946437 0.5323948
vt 0.5946437 0.5323948
vt 0.3431776 0.5590026
vt 0.5032135 0.294317
vt 0.5032135 0.294317
vt 0.3431776 0.5590026
vt 0.4084595 0.3023846
vt 0.4084595 0.3023846
vt 0.3431776 0.5590026
vt 0.3562284 0.3690916
vt 0.3562284 0.3690916
vt 0.3431776 0.5590026
vt 0.3172308 0.5219786
vt 0.6635727 0.6246877
vt 0.5546945 0.7113739
vt 0.6654291 0.4338157
vt 0.6654291 0.4338157
vt 0.5546945 0.7113739
vt 0.5725549 0.2822132
vt 0.5725549 0.2822132
vt 0.5546945 0.7113739
vt 0.4949723 0.2792177
vt 0.4949723 0.2792177
vt 0.5546945 0.7113739
vt 0.4353158 0.2886964
vt 0.4353158 0.2886964
vt 0.5546945 0.7113739
vt 0.4056703 0.3626413
vt 0.4056703 0.3626413
vt 0.5546945 0.7113739
vt 0.5170518 0.6932041
vt 0.5998659 0.4467586
vt 0.5473816 0.573741
vt 0.5749738 0.345259
vt 0.5749738 0.345259
vt 0.5473816 0.573741
vt 0.4861546 0.3294706
vt 0.4861546 0.3294706
vt 0.5473816 0.573741
vt 0.3823674 0.4435663
vt 0.3823674 0.4435663
vt 0.5473816 0.573741
vt 0.3821565 0.5352075
vt 0.4271262 0.5029088
vt 0.4231416 0.4921081
vt 0.4502182 0.5336792
vt 0.4502182 0.5336792
vt 0.4231416 0.4921081
vt 0.5494443 0.4927644
vt 0.5494443 0.4927644
vt 0.4231416 0.4921081
vt 0.5510569 0.4804731
vt 0.5510569 0.4804731
vt 0.4231416 0.4921081
vt 0.5107795 0.4496697
vt 0.4480149 0.5130249
vt 0.4487603 0.4732445
vt 0.468838 0.5104467
vt 0.4998758 0.4396098
vt 0.5326245 0.5174783
vt 0.4082158 0.5616747
vt 0.4082158 0.5616747
vt 0.5326245 0.5174783
vt 0.4499182 0.6018957
vt 0.2552491 0.4246698
vt 0.2584134 0.3412932
vt 0.2612307 0.4640659
vt 0.2612307 0.4640659
vt 0.2584134 0.3412932
vt 0.3237234 0.4835764
vt 0.3237234 0.4835764
vt 0.2584134 0.3412932
vt 0.5043573 0.438255
vt 0.5043573 0.438255
vt 0.2584134 0.3412932
vt 0.3988074 0.2331369
vt 0.3988074 0.2331369
vt 0.2584134 0.3412932
vt 0.3958354 0.2310743
vt 0.4957036 0.3045363
vt 0.5385967 0.3459622
vt 0.4736383 0.3004392
vt 0.4736383 0.3004392
vt 0.5385967 0.3459622
vt 0.4539778 0.3035238
vt 0.4539778 0.3035238
vt 0.5385967 0.3459622
vt 0.4847624 0.5732065
vt 0.4847624 0.5732065
vt 0.5385967 0.3459622
vt 0.6224141 0.5540429
vt 0.5097576 0.5143657
vt 0.4917096 0.5188659
vt 0.5108545 0.4745946
vt 0.5108545 0.4745946
vt 0.4917096 0.5188659
vt 0.4925347 0.4234463
vt 0.4925347 0.4234463
vt 0.4917096 0.5188659
vt 0.425373 0.4514136
vt 0.4586655 0.3611881
vt 0.6407245 0.5722409
vt 0.4251902 0.5983049
vt 0.4251902 0.5983049
vt 0.6407245 0.5722409
vt 0.4695881 0.6143558
vt 0.5409406 0.4904955
vt 0.562195 0.4162506
vt 0.5824462 0.4532652
vt 0.5520507 0.4409505
vt 0.4538043 0.4770276
vt 0.4804496 0.4028436
vt 0.4804496 0.4028436
vt 0.4538043 0.4770276
vt 0.3682197 0.4400786
vt 0.4922159 0.5660155
vt 0.430342 0.5183502
vt 0.4921784 0.4031811
vt 0.4921784 0.4031811
vt 0.430342 0.5183502
vt 0.4192742 0.4920706

usemtl Material0
usemap Material0

usemtl Material1
usemap Material1
f 1/1/1 2/2/2 3/3/3
f 4/4/4 5/5/5 6/6/6
f 7/7/7 8/8/8 9/9/9
f 10/10/10 11/11/11 12/12/12
f 13/13/13 14/14/14 15/15/15
f 16/16/16 17/17/17 18/18/18
f 19/19/19 20/20/20 21/21/21
f 22/22/22 23/23/23 24/24/24
f 25/25/25 26/26/26 27/27/27
f 28/28/28 29/29/29 30/30/30
f 31/31/31 32/32/32 33/33/33
f 34/34/34 35/35/35 36/36/36
f 37/37/37 38/38/38 39/39/39
f 40/40/40 41/41/41 42/42/42
f 43/43/43 44/44/44 45/45/45
f 46/46/46 47/47/47 48/48/48
f 49/49/49 50/50/50 51/51/51
f 52/52/52 53/53/53 54/54/54
f 55/55/55 56/56/56 57/57/57
f 58/58/58 59/59/59 60/60/60
f 61/61/61 62/62/62 63/63/63
f 64/64/64 65/65/65 66/66/66
f 67/67/67 68/68/68 69/69/69
f 70/70/70 71/71/71 72/72/72
f 73/73/73 74/74/74 75/75/75
f 76/76/76 77/77/77 78/78/78
f 79/79/79 80/80/80 81/81/81
f 82/82/82 83/83/83 84/84/84
f 85/85/85 86/86/86 87/87/87
f 88/88/88 89/89/89 90/90/90
f 91/91/91 92/92/92 93/93/93
f 94/94/94 95/95/95 96/96/96
f 97/97/97 98/98/98 99/99/99
f 100/100/100 101/101/101 102/102/102
f 103/103/103 104/104/104 105/105/105
f 106/106/106 107/107/107 108/108/108
f 109/109/109 110/110/110 111/111/111
f 112/112/112 113/113/113 114/114/114
f 115/115/115 116/116/116 117/117/117
f 118/118/118 119/119/119 120/120/120
f 121/121/121 122/122/122 123/123/123
f 124/124/124 125/125/125 126/126/126
f 127/127/127 128/128/128 129/129/129
f 130/130/130 131/131/131 132/132/132
f 133/133/133 134/134/134 135/135/135
f 136/136/136 137/137/137 138/138/138
f 139/139/139 140/140/140 141/141/141
f 142/142/142 143/143/143 144/144/144
f 145/145/145 146/146/146 147/147/147
f 148/148/148 149/149/149 150/150/150
f 151/151/151 152/152/152 153/153/153
f 154/154/154 155/155/155 156/156/156
f 157/157/157 158/158/158 159/159/159
f 160/160/160 161/161/161 162/162/162
f 163/163/163 164/164/164 165/165/165
f 166/166/166 167/167/167 168/168/168
f 169/169/169 170/170/170 171/171/171
f 172/172/172 173/173/173 174/174/174
f 175/175/175 176/176/176 177/177/177
f 178/178/178 179/179/179 180/180/180
