g  Instance
v 3.090163 -40.48943 -3.814697E-06
v 2.600654 -40.40935 -0.8341507
v 2.172757 -40.27111 -3.25568E-06
v 3.090163 -40.48943 -3.814697E-06
v 2.172757 -40.27111 -3.25568E-06
v 2.76225 -40.43848 0.5573775
v 2.76225 -40.43848 0.5573775
v 2.172757 -40.27111 -3.25568E-06
v 2.099305 -40.26015 0.1343319
v 2.76225 -40.43848 0.5573775
v 3.233839 -40.62531 0.8943362
v 3.090163 -40.48943 -3.814697E-06
v 3.090163 -40.48943 -3.814697E-06
v 3.233839 -40.62531 0.8943362
v 3.21247 -40.5522 0.2308911
v 3.188643 -40.61391 -0.9768451
v 2.749921 -40.48735 -1.145768
v 3.201515 -40.54546 -0.2096358
v 3.201515 -40.54546 -0.2096358
v 2.749921 -40.48735 -1.145768
v 3.090163 -40.48943 -3.814697E-06
v 3.090163 -40.48943 -3.814697E-06
v 2.749921 -40.48735 -1.145768
v 2.600654 -40.40935 -0.8341507
v 3.090163 -40.48943 -3.814697E-06
v 3.205874 -40.53763 -3.740393E-06
v 3.201515 -40.54546 -0.2096358
v 3.090163 -40.48943 -3.814697E-06
v 3.21247 -40.5522 0.2308911
v 3.205874 -40.53763 -3.740393E-06
v 2.099305 -40.26015 0.1343319
v 2.172757 -40.27111 -3.25568E-06
v 0.8112382 -42.45311 0.8373734
v 0.8112382 -42.45311 0.8373734
v 2.172757 -40.27111 -3.25568E-06
v 0.9133291 -43.20092 0.143028
v 0.9133291 -43.20092 0.143028
v 2.172757 -40.27111 -3.25568E-06
v 2.671576 -40.81256 -1.235928
v 2.671576 -40.81256 -1.235928
v 2.172757 -40.27111 -3.25568E-06
v 2.749921 -40.48735 -1.145768
v 2.749921 -40.48735 -1.145768
v 2.172757 -40.27111 -3.25568E-06
v 2.600654 -40.40935 -0.8341507
v 2.828084 -43.45751 -0.1642584
v 2.575377 -43.83378 0.1288786
v 2.518925 -43.86259 0.0719866
v 2.575377 -43.83378 0.1288786
v 2.828084 -43.45751 -0.1642584
v 3.228242 -42.71041 2.078268
v 3.228242 -42.71041 2.078268
v 2.828084 -43.45751 -0.1642584
v 3.294169 -42.60606 2.112582
v 3.294169 -42.60606 2.112582
v 2.828084 -43.45751 -0.1642584
v 3.402072 -42.44106 2.064925
v 3.402072 -42.44106 2.064925
v 2.828084 -43.45751 -0.1642584
v 3.355837 -42.66246 -0.6108332
v 3.205874 -40.53763 -3.740393E-06
v 3.21247 -40.5522 0.2308911
v 3.201515 -40.54546 -0.2096358
v 3.201515 -40.54546 -0.2096358
v 3.21247 -40.5522 0.2308911
v 3.188643 -40.61391 -0.9768451
v 3.188643 -40.61391 -0.9768451
v 3.21247 -40.5522 0.2308911
v 3.250661 -41.45128 -1.094321
v 3.250661 -41.45128 -1.094321
v 3.21247 -40.5522 0.2308911
v 3.355837 -42.66246 -0.6108332
v 3.355837 -42.66246 -0.6108332
v 3.21247 -40.5522 0.2308911
v 3.402072 -42.44106 2.064925
v 3.402072 -42.44106 2.064925
v 3.21247 -40.5522 0.2308911
v 3.233839 -40.62531 0.8943362
v 0.9133291 -43.20092 0.143028
v 0.9382057 -43.38512 0.2146354
v 0.8112382 -42.45311 0.8373734
v 0.8112382 -42.45311 0.8373734
v 0.9382057 -43.38512 0.2146354
v 0.8846951 -42.99828 1.199771
v 0.8846951 -42.99828 1.199771
v 0.9382057 -43.38512 0.2146354
v 0.9422247 -43.41734 0.5250655
v 3.233839 -40.62531 0.8943362
v 2.76225 -40.43848 0.5573775
v 3.402072 -42.44106 2.064925
v 3.402072 -42.44106 2.064925
v 2.76225 -40.43848 0.5573775
v 3.294169 -42.60606 2.112582
v 3.294169 -42.60606 2.112582
v 2.76225 -40.43848 0.5573775
v 3.14933 -42.69175 2.095015
v 3.14933 -42.69175 2.095015
v 2.76225 -40.43848 0.5573775
v 0.8846951 -42.99828 1.199771
v 0.8846951 -42.99828 1.199771
v 2.76225 -40.43848 0.5573775
v 0.8112382 -42.45311 0.8373734
v 0.8112382 -42.45311 0.8373734
v 2.76225 -40.43848 0.5573775
v 2.099305 -40.26015 0.1343319
v 1.950482 -43.75439 0.1498303
v 0.9382057 -43.38512 0.2146354
v 2.518925 -43.86259 0.0719866
v 2.518925 -43.86259 0.0719866
v 0.9382057 -43.38512 0.2146354
v 2.828084 -43.45751 -0.1642584
v 2.828084 -43.45751 -0.1642584
v 0.9382057 -43.38512 0.2146354
v 3.355837 -42.66246 -0.6108332
v 3.355837 -42.66246 -0.6108332
v 0.9382057 -43.38512 0.2146354
v 3.250661 -41.45128 -1.094321
v 3.250661 -41.45128 -1.094321
v 0.9382057 -43.38512 0.2146354
v 2.671576 -40.81256 -1.235928
v 2.671576 -40.81256 -1.235928
v 0.9382057 -43.38512 0.2146354
v 0.9133291 -43.20092 0.143028
v 0.8846951 -42.99828 1.199771
v 0.9422247 -43.41734 0.5250655
v 3.14933 -42.69175 2.095015
v 3.14933 -42.69175 2.095015
v 0.9422247 -43.41734 0.5250655
v 3.228242 -42.71041 2.078268
v 3.228242 -42.71041 2.078268
v 0.9422247 -43.41734 0.5250655
v 2.575377 -43.83378 0.1288786
v 2.575377 -43.83378 0.1288786
v 0.9422247 -43.41734 0.5250655
v 2.518925 -43.86259 0.0719866
v 2.518925 -43.86259 0.0719866
v 0.9422247 -43.41734 0.5250655
v 1.950482 -43.75439 0.1498303
v 2.671576 -40.81256 -1.235928
v 2.749921 -40.48735 -1.145768
v 3.250661 -41.45128 -1.094321
v 3.250661 -41.45128 -1.094321
v 2.749921 -40.48735 -1.145768
v 3.188643 -40.61391 -0.9768451
v 3.14933 -42.69175 2.095015
v 3.228242 -42.71041 2.078268
v 3.294169 -42.60606 2.112582
v 1.950482 -43.75439 0.1498303
v 0.9422247 -43.41734 0.5250655
v 0.9382057 -43.38512 0.2146354

vn 0.2313047 0.9719559 -0.04242451
vn 0.2313047 0.9719559 -0.04242451
vn 0.2313047 0.9719559 -0.04242451
vn 0.2312548 0.9717469 0.04721364
vn 0.2312548 0.9717469 0.04721364
vn 0.2312548 0.9717469 0.04721364
vn 0.2312548 0.9717469 0.04721364
vn 0.2312548 0.9717469 0.04721364
vn 0.2312548 0.9717469 0.04721364
vn 0.3076367 0.9468066 0.0944289
vn 0.3076367 0.9468066 0.0944289
vn 0.3076367 0.9468066 0.0944289
vn 0.3076367 0.9468066 0.0944289
vn 0.3076367 0.9468066 0.0944289
vn 0.3076367 0.9468066 0.0944289
vn 0.3077708 0.9472254 -0.08967322
vn 0.3077708 0.9472254 -0.08967322
vn 0.3077708 0.9472254 -0.08967322
vn 0.3077708 0.9472254 -0.08967322
vn 0.3077708 0.9472254 -0.08967322
vn 0.3077708 0.9472254 -0.08967322
vn 0.3077708 0.9472254 -0.08967322
vn 0.3077708 0.9472254 -0.08967322
vn 0.3077708 0.9472254 -0.08967322
vn 0.3841714 0.9222866 -0.04242435
vn 0.3841714 0.9222866 -0.04242435
vn 0.3841714 0.9222866 -0.04242435
vn 0.3840886 0.9220884 0.0472115
vn 0.3840886 0.9220884 0.0472115
vn 0.3840886 0.9220884 0.0472115
vn -0.817283 0.3282006 -0.4736381
vn -0.817283 0.3282006 -0.4736381
vn -0.817283 0.3282006 -0.4736381
vn -0.817283 0.3282006 -0.4736381
vn -0.817283 0.3282006 -0.4736381
vn -0.817283 0.3282006 -0.4736381
vn -0.817283 0.3282006 -0.4736381
vn -0.817283 0.3282006 -0.4736381
vn -0.817283 0.3282006 -0.4736381
vn -0.817283 0.3282006 -0.4736381
vn -0.817283 0.3282006 -0.4736381
vn -0.817283 0.3282006 -0.4736381
vn -0.817283 0.3282006 -0.4736381
vn -0.817283 0.3282006 -0.4736381
vn -0.817283 0.3282006 -0.4736381
vn 0.6605349 -0.6842972 -0.3089191
vn 0.6605349 -0.6842972 -0.3089191
vn 0.6605349 -0.6842972 -0.3089191
vn 0.8405128 -0.5409475 0.03023637
vn 0.8405128 -0.5409475 0.03023637
vn 0.8405128 -0.5409475 0.03023637
vn 0.8405128 -0.5409475 0.03023637
vn 0.8405128 -0.5409475 0.03023637
vn 0.8405128 -0.5409475 0.03023637
vn 0.8405128 -0.5409475 0.03023637
vn 0.8405128 -0.5409475 0.03023637
vn 0.8405128 -0.5409475 0.03023637
vn 0.8405128 -0.5409475 0.03023637
vn 0.8405128 -0.5409475 0.03023637
vn 0.8405128 -0.5409475 0.03023637
vn 0.9967414 0.07713266 -0.02360509
vn 0.9967414 0.07713266 -0.02360509
vn 0.9967414 0.07713266 -0.02360509
vn 0.9967414 0.07713266 -0.02360509
vn 0.9967414 0.07713266 -0.02360509
vn 0.9967414 0.07713266 -0.02360509
vn 0.9967414 0.07713266 -0.02360509
vn 0.9967414 0.07713266 -0.02360509
vn 0.9967414 0.07713266 -0.02360509
vn 0.9967414 0.07713266 -0.02360509
vn 0.9967414 0.07713266 -0.02360509
vn 0.9967414 0.07713266 -0.02360509
vn 0.9967414 0.07713266 -0.02360509
vn 0.9967414 0.07713266 -0.02360509
vn 0.9967414 0.07713266 -0.02360509
vn 0.9967414 0.07713266 -0.02360509
vn 0.9967414 0.07713266 -0.02360509
vn 0.9967414 0.07713266 -0.02360509
vn -0.9909462 -0.1342554 -0.001107994
vn -0.9909462 -0.1342554 -0.001107994
vn -0.9909462 -0.1342554 -0.001107994
vn -0.9909462 -0.1342554 -0.001107994
vn -0.9909462 -0.1342554 -0.001107994
vn -0.9909462 -0.1342554 -0.001107994
vn -0.9909462 -0.1342554 -0.001107994
vn -0.9909462 -0.1342554 -0.001107994
vn -0.9909462 -0.1342554 -0.001107994
vn -0.378231 0.4765834 0.7936054
vn -0.378231 0.4765834 0.7936054
vn -0.378231 0.4765834 0.7936054
vn -0.378231 0.4765834 0.7936054
vn -0.378231 0.4765834 0.7936054
vn -0.378231 0.4765834 0.7936054
vn -0.378231 0.4765834 0.7936054
vn -0.378231 0.4765834 0.7936054
vn -0.378231 0.4765834 0.7936054
vn -0.378231 0.4765834 0.7936054
vn -0.378231 0.4765834 0.7936054
vn -0.378231 0.4765834 0.7936054
vn -0.378231 0.4765834 0.7936054
vn -0.378231 0.4765834 0.7936054
vn -0.378231 0.4765834 0.7936054
vn -0.378231 0.4765834 0.7936054
vn -0.378231 0.4765834 0.7936054
vn -0.378231 0.4765834 0.7936054
vn -0.1958752 -0.378186 -0.9047698
vn -0.1958752 -0.378186 -0.9047698
vn -0.1958752 -0.378186 -0.9047698
vn -0.1958752 -0.378186 -0.9047698
vn -0.1958752 -0.378186 -0.9047698
vn -0.1958752 -0.378186 -0.9047698
vn -0.1958752 -0.378186 -0.9047698
vn -0.1958752 -0.378186 -0.9047698
vn -0.1958752 -0.378186 -0.9047698
vn -0.1958752 -0.378186 -0.9047698
vn -0.1958752 -0.378186 -0.9047698
vn -0.1958752 -0.378186 -0.9047698
vn -0.1958752 -0.378186 -0.9047698
vn -0.1958752 -0.378186 -0.9047698
vn -0.1958752 -0.378186 -0.9047698
vn -0.1958752 -0.378186 -0.9047698
vn -0.1958752 -0.378186 -0.9047698
vn -0.1958752 -0.378186 -0.9047698
vn -0.09050541 -0.8494595 0.5198341
vn -0.09050541 -0.8494595 0.5198341
vn -0.09050541 -0.8494595 0.5198341
vn -0.09050541 -0.8494595 0.5198341
vn -0.09050541 -0.8494595 0.5198341
vn -0.09050541 -0.8494595 0.5198341
vn -0.09050541 -0.8494595 0.5198341
vn -0.09050541 -0.8494595 0.5198341
vn -0.09050541 -0.8494595 0.5198341
vn -0.09050541 -0.8494595 0.5198341
vn -0.09050541 -0.8494595 0.5198341
vn -0.09050541 -0.8494595 0.5198341
vn -0.09050541 -0.8494595 0.5198341
vn -0.09050541 -0.8494595 0.5198341
vn -0.09050541 -0.8494595 0.5198341
vn 0.3938354 0.1562474 -0.9058039
vn 0.3938354 0.1562474 -0.9058039
vn 0.3938354 0.1562474 -0.9058039
vn 0.3938354 0.1562474 -0.9058039
vn 0.3938354 0.1562474 -0.9058039
vn 0.3938354 0.1562474 -0.9058039
vn 0.1078818 -0.3714087 0.9221807
vn 0.1078818 -0.3714087 0.9221807
vn 0.1078818 -0.3714087 0.9221807
vn -0.3464496 -0.9335071 -0.09239692
vn -0.3464496 -0.9335071 -0.09239692
vn -0.3464496 -0.9335071 -0.09239692

vt 0.363636 0.236191
vt 0.3707613 0.2238496
vt 0.3769581 0.236191
vt 0.363636 0.236191
vt 0.3769581 0.236191
vt 0.3681583 0.2440239
vt 0.3681583 0.2440239
vt 0.3769581 0.236191
vt 0.377967 0.2380788
vt 0.3681583 0.2440239
vt 0.3611703 0.2487591
vt 0.363636 0.236191
vt 0.363636 0.236191
vt 0.3611703 0.2487591
vt 0.3617626 0.2394358
vt 0.3617157 0.2217384
vt 0.3683478 0.2192391
vt 0.3618453 0.2330894
vt 0.3618453 0.2330894
vt 0.3683478 0.2192391
vt 0.363636 0.236191
vt 0.363636 0.236191
vt 0.3683478 0.2192391
vt 0.3707613 0.2238496
vt 0.363636 0.236191
vt 0.3618652 0.236191
vt 0.3618453 0.2330894
vt 0.363636 0.236191
vt 0.3617626 0.2394358
vt 0.3618652 0.236191
vt 0.6436591 0.4703287
vt 0.6455811 0.4873547
vt 0.3629225 0.3812236
vt 0.3629225 0.3812236
vt 0.6455811 0.4873547
vt 0.2897089 0.4692271
vt 0.2897089 0.4692271
vt 0.6455811 0.4873547
vt 0.6102446 0.6439919
vt 0.6102446 0.6439919
vt 0.6455811 0.4873547
vt 0.6471843 0.6325631
vt 0.6471843 0.6325631
vt 0.6455811 0.4873547
vt 0.6490594 0.5930733
vt 0.5723206 0.4999554
vt 0.6181294 0.4680974
vt 0.6243923 0.4742805
vt 0.6433403 0.5208254
vt 0.5987689 0.5496739
vt 0.5156735 0.3290112
vt 0.5156735 0.3290112
vt 0.5987689 0.5496739
vt 0.5035322 0.325636
vt 0.5035322 0.325636
vt 0.5987689 0.5496739
vt 0.4841436 0.3303238
vt 0.4841436 0.3303238
vt 0.5987689 0.5496739
vt 0.5049198 0.5936171
vt 0.3658289 0.5277914
vt 0.3673056 0.5050839
vt 0.3665603 0.5484176
vt 0.3665603 0.5484176
vt 0.3673056 0.5050839
vt 0.3731747 0.6238813
vt 0.3731747 0.6238813
vt 0.3673056 0.5050839
vt 0.4557451 0.635432
vt 0.4557451 0.635432
vt 0.3673056 0.5050839
vt 0.5752926 0.5878793
vt 0.5752926 0.5878793
vt 0.3673056 0.5050839
vt 0.5539351 0.324675
vt 0.5539351 0.324675
vt 0.3673056 0.5050839
vt 0.3746326 0.4398207
vt 0.3793907 0.5156501
vt 0.3611178 0.5086091
vt 0.4535887 0.4473868
vt 0.4535887 0.4473868
vt 0.3611178 0.5086091
vt 0.3995059 0.4117597
vt 0.3995059 0.4117597
vt 0.3611178 0.5086091
vt 0.3579254 0.4780917
vt 0.7200134 0.5000211
vt 0.6790892 0.5895013
vt 0.5589229 0.1891516
vt 0.5589229 0.1891516
vt 0.6790892 0.5895013
vt 0.5286962 0.1764946
vt 0.5286962 0.1764946
vt 0.6790892 0.5895013
vt 0.5017602 0.1811636
vt 0.5017602 0.1811636
vt 0.6790892 0.5895013
vt 0.1843372 0.4189039
vt 0.1843372 0.4189039
vt 0.6790892 0.5895013
vt 0.2297992 0.5151438
vt 0.2297992 0.5151438
vt 0.6790892 0.5895013
vt 0.6130948 0.7018483
vt 0.6508313 0.5035182
vt 0.6191795 0.6070054
vt 0.6578349 0.4453992
vt 0.6578349 0.4453992
vt 0.6191795 0.6070054
vt 0.6112291 0.4137942
vt 0.6112291 0.4137942
vt 0.6191795 0.6070054
vt 0.5204269 0.3598427
vt 0.5204269 0.3598427
vt 0.6191795 0.6070054
vt 0.3897038 0.3705964
vt 0.3897038 0.3705964
vt 0.6191795 0.6070054
vt 0.3251438 0.4297936
vt 0.3251438 0.4297936
vt 0.6191795 0.6070054
vt 0.599369 0.6095461
vt 0.649425 0.4889392
vt 0.6377337 0.5798351
vt 0.3940212 0.3683463
vt 0.3940212 0.3683463
vt 0.6377337 0.5798351
vt 0.3847629 0.3706011
vt 0.3847629 0.3706011
vt 0.6377337 0.5798351
vt 0.4457742 0.63321
vt 0.4457742 0.63321
vt 0.6377337 0.5798351
vt 0.451887 0.6408699
vt 0.451887 0.6408699
vt 0.6377337 0.5798351
vt 0.5182518 0.630388
vt 0.4106019 0.5332386
vt 0.3746842 0.5241256
vt 0.4753447 0.4658566
vt 0.4753447 0.4658566
vt 0.3746842 0.5241256
vt 0.3849504 0.4730758
vt 0.4727617 0.425434
vt 0.4704319 0.4175866
vt 0.48127 0.4110284
vt 0.4665691 0.4975741
vt 0.5714674 0.4603672
vt 0.5729487 0.4911518

usemtl Material0
usemap Material0
f 1/1/1 2/2/2 3/3/3
f 4/4/4 5/5/5 6/6/6
f 7/7/7 8/8/8 9/9/9
f 10/10/10 11/11/11 12/12/12
f 13/13/13 14/14/14 15/15/15
f 16/16/16 17/17/17 18/18/18
f 19/19/19 20/20/20 21/21/21
f 22/22/22 23/23/23 24/24/24
f 25/25/25 26/26/26 27/27/27
f 28/28/28 29/29/29 30/30/30

usemtl Material1
usemap Material1
f 31/31/31 32/32/32 33/33/33
f 34/34/34 35/35/35 36/36/36
f 37/37/37 38/38/38 39/39/39
f 40/40/40 41/41/41 42/42/42
f 43/43/43 44/44/44 45/45/45
f 46/46/46 47/47/47 48/48/48
f 49/49/49 50/50/50 51/51/51
f 52/52/52 53/53/53 54/54/54
f 55/55/55 56/56/56 57/57/57
f 58/58/58 59/59/59 60/60/60
f 61/61/61 62/62/62 63/63/63
f 64/64/64 65/65/65 66/66/66
f 67/67/67 68/68/68 69/69/69
f 70/70/70 71/71/71 72/72/72
f 73/73/73 74/74/74 75/75/75
f 76/76/76 77/77/77 78/78/78
f 79/79/79 80/80/80 81/81/81
f 82/82/82 83/83/83 84/84/84
f 85/85/85 86/86/86 87/87/87
f 88/88/88 89/89/89 90/90/90
f 91/91/91 92/92/92 93/93/93
f 94/94/94 95/95/95 96/96/96
f 97/97/97 98/98/98 99/99/99
f 100/100/100 101/101/101 102/102/102
f 103/103/103 104/104/104 105/105/105
f 106/106/106 107/107/107 108/108/108
f 109/109/109 110/110/110 111/111/111
f 112/112/112 113/113/113 114/114/114
f 115/115/115 116/116/116 117/117/117
f 118/118/118 119/119/119 120/120/120
f 121/121/121 122/122/122 123/123/123
f 124/124/124 125/125/125 126/126/126
f 127/127/127 128/128/128 129/129/129
f 130/130/130 131/131/131 132/132/132
f 133/133/133 134/134/134 135/135/135
f 136/136/136 137/137/137 138/138/138
f 139/139/139 140/140/140 141/141/141
f 142/142/142 143/143/143 144/144/144
f 145/145/145 146/146/146 147/147/147
f 148/148/148 149/149/149 150/150/150
