g  Instance
v 4.054719 -46.82075 8.553403
v 4.131796 -46.99811 8.584097
v 4.253225 -46.90989 8.506542
v 4.253225 -46.90989 8.506542
v 4.079244 -45.96533 8.158568
v 4.054719 -46.82075 8.553403
v 4.054719 -46.82075 8.553403
v 4.079244 -45.96533 8.158568
v 3.846359 -46.36789 8.441256
v 4.521307 -45.78349 7.825666
v 4.092949 -45.9407 8.139297
v 5.254195 -46.18265 7.604027
v 5.254195 -46.18265 7.604027
v 4.092949 -45.9407 8.139297
v 4.253225 -46.90989 8.506542
v 4.253225 -46.90989 8.506542
v 4.092949 -45.9407 8.139297
v 4.079244 -45.96533 8.158568
v 5.126908 -45.57447 7.317997
v 4.521307 -45.78349 7.825666
v 5.254195 -46.18265 7.604027
v 5.796675 -45.78852 6.940595
v 5.307167 -45.51701 7.143881
v 5.254195 -46.18265 7.604027
v 5.254195 -46.18265 7.604027
v 5.307167 -45.51701 7.143881
v 5.126908 -45.57447 7.317997
v 4.131796 -46.99811 8.584097
v 4.233686 -47.25012 8.6054
v 4.253225 -46.90989 8.506542
v 4.253225 -46.90989 8.506542
v 4.233686 -47.25012 8.6054
v 4.296712 -47.31141 8.593517
v 5.517792 -47.59468 7.985512
v 5.254195 -46.18265 7.604027
v 4.253225 -46.90989 8.506542
v 6.457397 -46.87232 6.965605
v 6.256445 -46.15005 6.748838
v 5.254195 -46.18265 7.604027
v 5.254195 -46.18265 7.604027
v 6.256445 -46.15005 6.748838
v 5.796675 -45.78852 6.940595
v 5.796675 -45.78852 6.940595
v 6.256445 -46.15005 6.748838
v 6.055323 -45.95382 6.812435
v 5.517792 -47.59468 7.985512
v 4.253225 -46.90989 8.506542
v 4.96177 -47.99865 8.410267
v 4.96177 -47.99865 8.410267
v 4.253225 -46.90989 8.506542
v 4.296712 -47.31141 8.593517
v 5.517792 -47.59468 7.985512
v 4.96177 -47.99865 8.410267
v 5.625079 -48.74467 8.140781
v 5.254195 -46.18265 7.604027
v 5.517792 -47.59468 7.985512
v 6.457397 -46.87232 6.965605
v 5.517792 -47.59468 7.985512
v 6.708165 -48.37543 7.236109
v 6.457397 -46.87232 6.965605
v 5.625079 -48.74467 8.140781
v 5.860095 -49.02716 8.019313
v 5.517792 -47.59468 7.985512
v 5.517792 -47.59468 7.985512
v 5.860095 -49.02716 8.019313
v 6.708165 -48.37543 7.236109
v 6.085656 -49.32707 7.861523
v 6.757704 -49.26655 7.289547
v 5.860095 -49.02716 8.019313
v 5.860095 -49.02716 8.019313
v 6.757704 -49.26655 7.289547
v 6.708165 -48.37543 7.236109
v 6.6434 -46.58076 6.604937
v 6.256445 -46.15005 6.748838
v 6.676234 -46.69204 6.636414
v 6.676234 -46.69204 6.636414
v 6.256445 -46.15005 6.748838
v 6.457397 -46.87232 6.965605
v 6.757759 -47.09055 6.736149
v 6.676234 -46.69204 6.636414
v 6.457397 -46.87232 6.965605
v 6.708165 -48.37543 7.236109
v 6.898374 -48.20925 6.984328
v 6.457397 -46.87232 6.965605
v 6.457397 -46.87232 6.965605
v 6.898374 -48.20925 6.984328
v 6.757759 -47.09055 6.736149
v 6.912439 -48.54074 7.047921
v 6.898374 -48.20925 6.984328
v 6.708165 -48.37543 7.236109
v 6.757704 -49.26655 7.289547
v 6.881403 -49.25083 7.162106
v 6.708165 -48.37543 7.236109
v 6.708165 -48.37543 7.236109
v 6.881403 -49.25083 7.162106
v 6.912439 -48.54074 7.047921
v 6.085656 -49.32707 7.861523
v 5.860095 -49.02716 8.019313
v 4.296497 -48.86577 6.368935
v 4.296497 -48.86577 6.368935
v 5.860095 -49.02716 8.019313
v 4.001908 -48.44606 6.615102
v 4.001908 -48.44606 6.615102
v 5.860095 -49.02716 8.019313
v 4.233686 -47.25012 8.6054
v 4.233686 -47.25012 8.6054
v 5.860095 -49.02716 8.019313
v 4.296712 -47.31141 8.593517
v 4.296712 -47.31141 8.593517
v 5.860095 -49.02716 8.019313
v 4.96177 -47.99865 8.410267
v 4.96177 -47.99865 8.410267
v 5.860095 -49.02716 8.019313
v 5.625079 -48.74467 8.140781
v 4.771944 -45.87722 6.742007
v 6.055323 -45.95382 6.812435
v 4.654914 -45.94547 6.705107
v 4.654914 -45.94547 6.705107
v 6.055323 -45.95382 6.812435
v 3.49218 -47.2935 6.067054
v 3.49218 -47.2935 6.067054
v 6.055323 -45.95382 6.812435
v 3.891006 -47.91177 5.848109
v 3.891006 -47.91177 5.848109
v 6.055323 -45.95382 6.812435
v 6.6434 -46.58076 6.604937
v 6.6434 -46.58076 6.604937
v 6.055323 -45.95382 6.812435
v 6.256445 -46.15005 6.748838
v 4.001908 -48.44606 6.615102
v 3.423799 -47.24711 6.240777
v 4.296497 -48.86577 6.368935
v 4.296497 -48.86577 6.368935
v 3.423799 -47.24711 6.240777
v 4.324081 -48.82616 6.165607
v 4.324081 -48.82616 6.165607
v 3.423799 -47.24711 6.240777
v 3.891006 -47.91177 5.848109
v 3.891006 -47.91177 5.848109
v 3.423799 -47.24711 6.240777
v 3.49218 -47.2935 6.067054
v 4.324081 -48.82616 6.165607
v 6.881403 -49.25083 7.162106
v 4.296497 -48.86577 6.368935
v 4.296497 -48.86577 6.368935
v 6.881403 -49.25083 7.162106
v 6.085656 -49.32707 7.861523
v 6.085656 -49.32707 7.861523
v 6.881403 -49.25083 7.162106
v 6.757704 -49.26655 7.289547
v 3.423799 -47.24711 6.240777
v 4.001908 -48.44606 6.615102
v 3.534503 -46.42675 7.464855
v 3.534503 -46.42675 7.464855
v 4.001908 -48.44606 6.615102
v 3.846359 -46.36789 8.441256
v 3.846359 -46.36789 8.441256
v 4.001908 -48.44606 6.615102
v 4.054719 -46.82075 8.553403
v 4.054719 -46.82075 8.553403
v 4.001908 -48.44606 6.615102
v 4.131796 -46.99811 8.584097
v 4.131796 -46.99811 8.584097
v 4.001908 -48.44606 6.615102
v 4.233686 -47.25012 8.6054
v 4.092949 -45.9407 8.139297
v 4.521307 -45.78349 7.825666
v 3.648406 -46.29865 7.5207
v 3.648406 -46.29865 7.5207
v 4.521307 -45.78349 7.825666
v 4.654914 -45.94547 6.705107
v 4.654914 -45.94547 6.705107
v 4.521307 -45.78349 7.825666
v 4.771944 -45.87722 6.742007
v 4.771944 -45.87722 6.742007
v 4.521307 -45.78349 7.825666
v 5.307167 -45.51701 7.143881
v 5.307167 -45.51701 7.143881
v 4.521307 -45.78349 7.825666
v 5.126908 -45.57447 7.317997
v 5.307167 -45.51701 7.143881
v 5.796675 -45.78852 6.940595
v 4.771944 -45.87722 6.742007
v 4.771944 -45.87722 6.742007
v 5.796675 -45.78852 6.940595
v 6.055323 -45.95382 6.812435
v 6.757759 -47.09055 6.736149
v 6.898374 -48.20925 6.984328
v 6.676234 -46.69204 6.636414
v 6.676234 -46.69204 6.636414
v 6.898374 -48.20925 6.984328
v 6.6434 -46.58076 6.604937
v 6.6434 -46.58076 6.604937
v 6.898374 -48.20925 6.984328
v 3.891006 -47.91177 5.848109
v 3.891006 -47.91177 5.848109
v 6.898374 -48.20925 6.984328
v 4.324081 -48.82616 6.165607
v 4.324081 -48.82616 6.165607
v 6.898374 -48.20925 6.984328
v 6.881403 -49.25083 7.162106
v 6.881403 -49.25083 7.162106
v 6.898374 -48.20925 6.984328
v 6.912439 -48.54074 7.047921
v 3.534503 -46.42675 7.464855
v 3.846359 -46.36789 8.441256
v 3.648406 -46.29865 7.5207
v 3.648406 -46.29865 7.5207
v 3.846359 -46.36789 8.441256
v 4.092949 -45.9407 8.139297
v 4.092949 -45.9407 8.139297
v 3.846359 -46.36789 8.441256
v 4.079244 -45.96533 8.158568
v 3.534503 -46.42675 7.464855
v 3.648406 -46.29865 7.5207
v 3.423799 -47.24711 6.240777
v 3.423799 -47.24711 6.240777
v 3.648406 -46.29865 7.5207
v 3.49218 -47.2935 6.067054
v 3.49218 -47.2935 6.067054
v 3.648406 -46.29865 7.5207
v 4.654914 -45.94547 6.705107

vn 0.3460387 0.3039909 0.8876073
vn 0.3460387 0.3039909 0.8876073
vn 0.3460387 0.3039909 0.8876073
vn 0.3708198 0.3804156 0.847217
vn 0.3708198 0.3804156 0.847217
vn 0.3708198 0.3804156 0.847217
vn 0.3708198 0.3804156 0.847217
vn 0.3708198 0.3804156 0.847217
vn 0.3708198 0.3804156 0.847217
vn 0.4513349 0.3804928 0.8071692
vn 0.4513349 0.3804928 0.8071692
vn 0.4513349 0.3804928 0.8071692
vn 0.4513349 0.3804928 0.8071692
vn 0.4513349 0.3804928 0.8071692
vn 0.4513349 0.3804928 0.8071692
vn 0.4513349 0.3804928 0.8071692
vn 0.4513349 0.3804928 0.8071692
vn 0.4513349 0.3804928 0.8071692
vn 0.475185 0.4539475 0.7537445
vn 0.475185 0.4539475 0.7537445
vn 0.475185 0.4539475 0.7537445
vn 0.5432721 0.4477229 0.7102109
vn 0.5432721 0.4477229 0.7102109
vn 0.5432721 0.4477229 0.7102109
vn 0.5432721 0.4477229 0.7102109
vn 0.5432721 0.4477229 0.7102109
vn 0.5432721 0.4477229 0.7102109
vn 0.3960461 0.2351577 0.8876082
vn 0.3960461 0.2351577 0.8876082
vn 0.3960461 0.2351577 0.8876082
vn 0.3960461 0.2351577 0.8876082
vn 0.3960461 0.2351577 0.8876082
vn 0.3960461 0.2351577 0.8876082
vn 0.5013447 0.3116606 0.8071687
vn 0.5013447 0.3116606 0.8071687
vn 0.5013447 0.3116606 0.8071687
vn 0.593694 0.3783237 0.7102103
vn 0.593694 0.3783237 0.7102103
vn 0.593694 0.3783237 0.7102103
vn 0.593694 0.3783237 0.7102103
vn 0.593694 0.3783237 0.7102103
vn 0.593694 0.3783237 0.7102103
vn 0.593694 0.3783237 0.7102103
vn 0.593694 0.3783237 0.7102103
vn 0.593694 0.3783237 0.7102103
vn 0.4763886 0.2351103 0.8472173
vn 0.4763886 0.2351103 0.8472173
vn 0.4763886 0.2351103 0.8472173
vn 0.4763886 0.2351103 0.8472173
vn 0.4763886 0.2351103 0.8472173
vn 0.4763886 0.2351103 0.8472173
vn 0.5221487 0.1617736 0.8373709
vn 0.5221487 0.1617736 0.8373709
vn 0.5221487 0.1617736 0.8373709
vn 0.578572 0.3116444 0.7537454
vn 0.578572 0.3116444 0.7537454
vn 0.578572 0.3116444 0.7537454
vn 0.6244591 0.238054 0.7438959
vn 0.6244591 0.238054 0.7438959
vn 0.6244591 0.238054 0.7438959
vn 0.5995541 0.1617641 0.7838158
vn 0.5995541 0.1617641 0.7838158
vn 0.5995541 0.1617641 0.7838158
vn 0.5995541 0.1617641 0.7838158
vn 0.5995541 0.1617641 0.7838158
vn 0.5995541 0.1617641 0.7838158
vn 0.6417183 0.08140682 0.7626077
vn 0.6417183 0.08140682 0.7626077
vn 0.6417183 0.08140682 0.7626077
vn 0.6417183 0.08140682 0.7626077
vn 0.6417183 0.08140682 0.7626077
vn 0.6417183 0.08140682 0.7626077
vn 0.6618217 0.3783604 0.6471751
vn 0.6618217 0.3783604 0.6471751
vn 0.6618217 0.3783604 0.6471751
vn 0.6618217 0.3783604 0.6471751
vn 0.6618217 0.3783604 0.6471751
vn 0.6618217 0.3783604 0.6471751
vn 0.7079682 0.3043318 0.6373093
vn 0.7079682 0.3043318 0.6373093
vn 0.7079682 0.3043318 0.6373093
vn 0.6928997 0.2380804 0.6805937
vn 0.6928997 0.2380804 0.6805937
vn 0.6928997 0.2380804 0.6805937
vn 0.6928997 0.2380804 0.6805937
vn 0.6928997 0.2380804 0.6805937
vn 0.6928997 0.2380804 0.6805937
vn 0.7350746 0.1576897 0.659393
vn 0.7350746 0.1576897 0.659393
vn 0.7350746 0.1576897 0.659393
vn 0.7101454 0.08141633 0.6993318
vn 0.7101454 0.08141633 0.6993318
vn 0.7101454 0.08141633 0.6993318
vn 0.7101454 0.08141633 0.6993318
vn 0.7101454 0.08141633 0.6993318
vn 0.7101454 0.08141633 0.6993318
vn -0.5674779 -0.6749271 0.4716379
vn -0.5674779 -0.6749271 0.4716379
vn -0.5674779 -0.6749271 0.4716379
vn -0.5674779 -0.6749271 0.4716379
vn -0.5674779 -0.6749271 0.4716379
vn -0.5674779 -0.6749271 0.4716379
vn -0.5674779 -0.6749271 0.4716379
vn -0.5674779 -0.6749271 0.4716379
vn -0.5674779 -0.6749271 0.4716379
vn -0.5674779 -0.6749271 0.4716379
vn -0.5674779 -0.6749271 0.4716379
vn -0.5674779 -0.6749271 0.4716379
vn -0.5674779 -0.6749271 0.4716379
vn -0.5674779 -0.6749271 0.4716379
vn -0.5674779 -0.6749271 0.4716379
vn -0.5674779 -0.6749271 0.4716379
vn -0.5674779 -0.6749271 0.4716379
vn -0.5674779 -0.6749271 0.4716379
vn 0.07307787 0.3744805 -0.9243506
vn 0.07307787 0.3744805 -0.9243506
vn 0.07307787 0.3744805 -0.9243506
vn 0.07307787 0.3744805 -0.9243506
vn 0.07307787 0.3744805 -0.9243506
vn 0.07307787 0.3744805 -0.9243506
vn 0.07307787 0.3744805 -0.9243506
vn 0.07307787 0.3744805 -0.9243506
vn 0.07307787 0.3744805 -0.9243506
vn 0.07307787 0.3744805 -0.9243506
vn 0.07307787 0.3744805 -0.9243506
vn 0.07307787 0.3744805 -0.9243506
vn 0.07307787 0.3744805 -0.9243506
vn 0.07307787 0.3744805 -0.9243506
vn 0.07307787 0.3744805 -0.9243506
vn -0.8538315 -0.4768684 -0.2087305
vn -0.8538315 -0.4768684 -0.2087305
vn -0.8538315 -0.4768684 -0.2087305
vn -0.8538315 -0.4768684 -0.2087305
vn -0.8538315 -0.4768684 -0.2087305
vn -0.8538315 -0.4768684 -0.2087305
vn -0.8538315 -0.4768684 -0.2087305
vn -0.8538315 -0.4768684 -0.2087305
vn -0.8538315 -0.4768684 -0.2087305
vn -0.8538315 -0.4768684 -0.2087305
vn -0.8538315 -0.4768684 -0.2087305
vn -0.8538315 -0.4768684 -0.2087305
vn -0.08356548 -0.975927 -0.2014531
vn -0.08356548 -0.975927 -0.2014531
vn -0.08356548 -0.975927 -0.2014531
vn -0.08356548 -0.975927 -0.2014531
vn -0.08356548 -0.975927 -0.2014531
vn -0.08356548 -0.975927 -0.2014531
vn -0.08356548 -0.975927 -0.2014531
vn -0.08356548 -0.975927 -0.2014531
vn -0.08356548 -0.975927 -0.2014531
vn -0.8916135 -0.3347088 0.3049517
vn -0.8916135 -0.3347088 0.3049517
vn -0.8916135 -0.3347088 0.3049517
vn -0.8916135 -0.3347088 0.3049517
vn -0.8916135 -0.3347088 0.3049517
vn -0.8916135 -0.3347088 0.3049517
vn -0.8916135 -0.3347088 0.3049517
vn -0.8916135 -0.3347088 0.3049517
vn -0.8916135 -0.3347088 0.3049517
vn -0.8916135 -0.3347088 0.3049517
vn -0.8916135 -0.3347088 0.3049517
vn -0.8916135 -0.3347088 0.3049517
vn -0.8916135 -0.3347088 0.3049517
vn -0.8916135 -0.3347088 0.3049517
vn -0.8916135 -0.3347088 0.3049517
vn -0.4524882 0.8733747 -0.1801977
vn -0.4524882 0.8733747 -0.1801977
vn -0.4524882 0.8733747 -0.1801977
vn -0.4524882 0.8733747 -0.1801977
vn -0.4524882 0.8733747 -0.1801977
vn -0.4524882 0.8733747 -0.1801977
vn -0.4524882 0.8733747 -0.1801977
vn -0.4524882 0.8733747 -0.1801977
vn -0.4524882 0.8733747 -0.1801977
vn -0.4524882 0.8733747 -0.1801977
vn -0.4524882 0.8733747 -0.1801977
vn -0.4524882 0.8733747 -0.1801977
vn -0.4524882 0.8733747 -0.1801977
vn -0.4524882 0.8733747 -0.1801977
vn -0.4524882 0.8733747 -0.1801977
vn 0.08063343 0.6864608 -0.7226824
vn 0.08063343 0.6864608 -0.7226824
vn 0.08063343 0.6864608 -0.7226824
vn 0.08063343 0.6864608 -0.7226824
vn 0.08063343 0.6864608 -0.7226824
vn 0.08063343 0.6864608 -0.7226824
vn 0.3344267 -0.1638562 -0.9280679
vn 0.3344267 -0.1638562 -0.9280679
vn 0.3344267 -0.1638562 -0.9280679
vn 0.3344267 -0.1638562 -0.9280679
vn 0.3344267 -0.1638562 -0.9280679
vn 0.3344267 -0.1638562 -0.9280679
vn 0.3344267 -0.1638562 -0.9280679
vn 0.3344267 -0.1638562 -0.9280679
vn 0.3344267 -0.1638562 -0.9280679
vn 0.3344267 -0.1638562 -0.9280679
vn 0.3344267 -0.1638562 -0.9280679
vn 0.3344267 -0.1638562 -0.9280679
vn 0.3344267 -0.1638562 -0.9280679
vn 0.3344267 -0.1638562 -0.9280679
vn 0.3344267 -0.1638562 -0.9280679
vn 0.3344267 -0.1638562 -0.9280679
vn 0.3344267 -0.1638562 -0.9280679
vn 0.3344267 -0.1638562 -0.9280679
vn -0.774353 0.5964063 0.2113693
vn -0.774353 0.5964063 0.2113693
vn -0.774353 0.5964063 0.2113693
vn -0.774353 0.5964063 0.2113693
vn -0.774353 0.5964063 0.2113693
vn -0.774353 0.5964063 0.2113693
vn -0.774353 0.5964063 0.2113693
vn -0.774353 0.5964063 0.2113693
vn -0.774353 0.5964063 0.2113693
vn -0.5820769 0.6988294 -0.4157211
vn -0.5820769 0.6988294 -0.4157211
vn -0.5820769 0.6988294 -0.4157211
vn -0.5820769 0.6988294 -0.4157211
vn -0.5820769 0.6988294 -0.4157211
vn -0.5820769 0.6988294 -0.4157211
vn -0.5820769 0.6988294 -0.4157211
vn -0.5820769 0.6988294 -0.4157211
vn -0.5820769 0.6988294 -0.4157211

vt 0.3214889 0.3936515
vt 0.3194351 0.3958229
vt 0.3181815 0.3936515
vt 0.3181815 0.3936515
vt 0.3257709 0.3805061
vt 0.3214889 0.3936515
vt 0.3214889 0.3936515
vt 0.3257709 0.3805061
vt 0.3269056 0.3882003
vt 0.3200219 0.3739689
vt 0.3256922 0.3800098
vt 0.3068179 0.3739689
vt 0.3068179 0.3739689
vt 0.3256922 0.3800098
vt 0.3181815 0.3936515
vt 0.3181815 0.3936515
vt 0.3256922 0.3800098
vt 0.3257709 0.3805061
vt 0.3119091 0.3651505
vt 0.3200219 0.3739689
vt 0.3068179 0.3739689
vt 0.2994902 0.3612768
vt 0.3091205 0.3621705
vt 0.3068179 0.3739689
vt 0.3068179 0.3739689
vt 0.3091205 0.3621705
vt 0.3119091 0.3651505
vt 0.2260189 0.3958229
vt 0.2221119 0.3945862
vt 0.2272725 0.3936515
vt 0.2272725 0.3936515
vt 0.2221119 0.3945862
vt 0.2211338 0.3936515
vt 0.2159089 0.3739689
vt 0.2386361 0.3739689
vt 0.2272725 0.3936515
vt 0.2272725 0.3542862
vt 0.2398911 0.3542863
vt 0.2386361 0.3739689
vt 0.2386361 0.3739689
vt 0.2398911 0.3542863
vt 0.2459638 0.3612768
vt 0.2459638 0.3612768
vt 0.2398911 0.3542863
vt 0.24322 0.357138
vt 0.2159089 0.3739689
vt 0.2272725 0.3936515
vt 0.2101834 0.3838858
vt 0.2101834 0.3838858
vt 0.2272725 0.3936515
vt 0.2211338 0.3936515
vt 0.2159089 0.3739689
vt 0.2101834 0.3838858
vt 0.199389 0.3739689
vt 0.2386361 0.3739689
vt 0.2159089 0.3739689
vt 0.2272725 0.3542862
vt 0.2159089 0.3739689
vt 0.2045452 0.3542863
vt 0.2272725 0.3542862
vt 0.199389 0.3739689
vt 0.1953034 0.3702938
vt 0.2159089 0.3739689
vt 0.2159089 0.3739689
vt 0.1953034 0.3702938
vt 0.2045452 0.3542863
vt 0.1911371 0.3665125
vt 0.1920788 0.3542863
vt 0.1953034 0.3702938
vt 0.1953034 0.3702938
vt 0.1920788 0.3542863
vt 0.2045452 0.3542863
vt 0.2326086 0.348449
vt 0.2398911 0.3542863
vt 0.2306662 0.348408
vt 0.2306662 0.348408
vt 0.2398911 0.3542863
vt 0.2272725 0.3542862
vt 0.2241011 0.3487931
vt 0.2306662 0.348408
vt 0.2272725 0.3542862
vt 0.2045452 0.3542863
vt 0.2071637 0.3497509
vt 0.2272725 0.3542862
vt 0.2272725 0.3542862
vt 0.2071637 0.3497509
vt 0.2241011 0.3487931
vt 0.2022622 0.3503319
vt 0.2071637 0.3497509
vt 0.2045452 0.3542863
vt 0.1920788 0.3542863
vt 0.1923175 0.3517611
vt 0.2045452 0.3542863
vt 0.2045452 0.3542863
vt 0.1923175 0.3517611
vt 0.2022622 0.3503319
vt 0.3143713 0.4505604
vt 0.3551408 0.4306139
vt 0.5001476 0.639276
vt 0.5001476 0.639276
vt 0.3551408 0.4306139
vt 0.5553977 0.6081492
vt 0.5553977 0.6081492
vt 0.3551408 0.4306139
vt 0.6214203 0.3565097
vt 0.6214203 0.3565097
vt 0.3551408 0.4306139
vt 0.6116416 0.3580098
vt 0.6116416 0.3580098
vt 0.3551408 0.4306139
vt 0.5055948 0.3811814
vt 0.5055948 0.3811814
vt 0.3551408 0.4306139
vt 0.395465 0.4152568
vt 0.3412697 0.5531054
vt 0.3456575 0.426259
vt 0.3488686 0.5646748
vt 0.3488686 0.5646748
vt 0.3456575 0.426259
vt 0.4956474 0.6795908
vt 0.4956474 0.6795908
vt 0.3456575 0.426259
vt 0.5602355 0.6401761
vt 0.5602355 0.6401761
vt 0.3456575 0.426259
vt 0.4106159 0.3681353
vt 0.4106159 0.3681353
vt 0.3456575 0.426259
vt 0.3659415 0.4063829
vt 0.4903033 0.4926988
vt 0.6238579 0.5311854
vt 0.4390285 0.5180033
vt 0.4390285 0.5180033
vt 0.6238579 0.5311854
vt 0.441152 0.5389014
vt 0.441152 0.5389014
vt 0.6238579 0.5311854
vt 0.5426282 0.5715471
vt 0.5426282 0.5715471
vt 0.6238579 0.5311854
vt 0.6164325 0.5490458
vt 0.5915498 0.5457643
vt 0.3321754 0.4436553
vt 0.5939687 0.5249319
vt 0.5939687 0.5249319
vt 0.3321754 0.4436553
vt 0.4110987 0.3719887
vt 0.4110987 0.3719887
vt 0.3321754 0.4436553
vt 0.3444105 0.4305952
vt 0.6017129 0.6191092
vt 0.4648722 0.5785412
vt 0.6769797 0.4864359
vt 0.6769797 0.4864359
vt 0.4648722 0.5785412
vt 0.6713544 0.3806048
vt 0.6713544 0.3806048
vt 0.4648722 0.5785412
vt 0.6200327 0.3684494
vt 0.6200327 0.3684494
vt 0.4648722 0.5785412
vt 0.6000909 0.3651211
vt 0.6000909 0.3651211
vt 0.4648722 0.5785412
vt 0.5720393 0.36281
vt 0.4486197 0.3389633
vt 0.493866 0.3708355
vt 0.3927133 0.401817
vt 0.3927133 0.401817
vt 0.493866 0.3708355
vt 0.4982725 0.4846921
vt 0.4982725 0.4846921
vt 0.493866 0.3708355
vt 0.5117921 0.4809418
vt 0.5117921 0.4809418
vt 0.493866 0.3708355
vt 0.5758551 0.4401067
vt 0.5758551 0.4401067
vt 0.493866 0.3708355
vt 0.5572166 0.422415
vt 0.4355361 0.2594728
vt 0.5091857 0.3013112
vt 0.3659039 0.3421744
vt 0.3659039 0.3421744
vt 0.5091857 0.3013112
vt 0.5484692 0.3276846
vt 0.4262449 0.3596833
vt 0.5456659 0.3441152
vt 0.3834971 0.3687026
vt 0.3834971 0.3687026
vt 0.5456659 0.3441152
vt 0.3714965 0.3723356
vt 0.3714965 0.3723356
vt 0.5456659 0.3441152
vt 0.4944942 0.6770031
vt 0.4944942 0.6770031
vt 0.5456659 0.3441152
vt 0.5941937 0.6290566
vt 0.5941937 0.6290566
vt 0.5456659 0.3441152
vt 0.6558847 0.345995
vt 0.6558847 0.345995
vt 0.5456659 0.3441152
vt 0.580871 0.3425589
vt 0.4700381 0.4916675
vt 0.493866 0.3911898
vt 0.4872375 0.4859203
vt 0.4872375 0.4859203
vt 0.493866 0.3911898
vt 0.5430408 0.4222603
vt 0.5430408 0.4222603
vt 0.493866 0.3911898
vt 0.5402375 0.4202774
vt 0.4158709 0.3467497
vt 0.4341907 0.3401118
vt 0.3499233 0.49223
vt 0.3499233 0.49223
vt 0.4341907 0.3401118
vt 0.3523938 0.512875
vt 0.3523938 0.512875
vt 0.4341907 0.3401118
vt 0.5422251 0.4370455

usemtl Material0
usemap Material0
f 1/1/1 2/2/2 3/3/3
f 4/4/4 5/5/5 6/6/6
f 7/7/7 8/8/8 9/9/9
f 10/10/10 11/11/11 12/12/12
f 13/13/13 14/14/14 15/15/15
f 16/16/16 17/17/17 18/18/18
f 19/19/19 20/20/20 21/21/21
f 22/22/22 23/23/23 24/24/24
f 25/25/25 26/26/26 27/27/27
f 28/28/28 29/29/29 30/30/30
f 31/31/31 32/32/32 33/33/33
f 34/34/34 35/35/35 36/36/36
f 37/37/37 38/38/38 39/39/39
f 40/40/40 41/41/41 42/42/42
f 43/43/43 44/44/44 45/45/45
f 46/46/46 47/47/47 48/48/48
f 49/49/49 50/50/50 51/51/51
f 52/52/52 53/53/53 54/54/54
f 55/55/55 56/56/56 57/57/57
f 58/58/58 59/59/59 60/60/60
f 61/61/61 62/62/62 63/63/63
f 64/64/64 65/65/65 66/66/66
f 67/67/67 68/68/68 69/69/69
f 70/70/70 71/71/71 72/72/72
f 73/73/73 74/74/74 75/75/75
f 76/76/76 77/77/77 78/78/78
f 79/79/79 80/80/80 81/81/81
f 82/82/82 83/83/83 84/84/84
f 85/85/85 86/86/86 87/87/87
f 88/88/88 89/89/89 90/90/90
f 91/91/91 92/92/92 93/93/93
f 94/94/94 95/95/95 96/96/96

usemtl Material1
usemap Material1
f 97/97/97 98/98/98 99/99/99
f 100/100/100 101/101/101 102/102/102
f 103/103/103 104/104/104 105/105/105
f 106/106/106 107/107/107 108/108/108
f 109/109/109 110/110/110 111/111/111
f 112/112/112 113/113/113 114/114/114
f 115/115/115 116/116/116 117/117/117
f 118/118/118 119/119/119 120/120/120
f 121/121/121 122/122/122 123/123/123
f 124/124/124 125/125/125 126/126/126
f 127/127/127 128/128/128 129/129/129
f 130/130/130 131/131/131 132/132/132
f 133/133/133 134/134/134 135/135/135
f 136/136/136 137/137/137 138/138/138
f 139/139/139 140/140/140 141/141/141
f 142/142/142 143/143/143 144/144/144
f 145/145/145 146/146/146 147/147/147
f 148/148/148 149/149/149 150/150/150
f 151/151/151 152/152/152 153/153/153
f 154/154/154 155/155/155 156/156/156
f 157/157/157 158/158/158 159/159/159
f 160/160/160 161/161/161 162/162/162
f 163/163/163 164/164/164 165/165/165
f 166/166/166 167/167/167 168/168/168
f 169/169/169 170/170/170 171/171/171
f 172/172/172 173/173/173 174/174/174
f 175/175/175 176/176/176 177/177/177
f 178/178/178 179/179/179 180/180/180
f 181/181/181 182/182/182 183/183/183
f 184/184/184 185/185/185 186/186/186
f 187/187/187 188/188/188 189/189/189
f 190/190/190 191/191/191 192/192/192
f 193/193/193 194/194/194 195/195/195
f 196/196/196 197/197/197 198/198/198
f 199/199/199 200/200/200 201/201/201
f 202/202/202 203/203/203 204/204/204
f 205/205/205 206/206/206 207/207/207
f 208/208/208 209/209/209 210/210/210
f 211/211/211 212/212/212 213/213/213
f 214/214/214 215/215/215 216/216/216
f 217/217/217 218/218/218 219/219/219
f 220/220/220 221/221/221 222/222/222
