g  Instance
v 7.233301 -54.6619 -4.96194
v 6.680115 -55.4834 -4.716482
v 7.512439 -52.80236 -5.802798
v 7.512439 -52.80236 -5.802798
v 6.680115 -55.4834 -4.716482
v 5.147768 -53.20683 -6.295308
v 5.147768 -53.20683 -6.295308
v 6.680115 -55.4834 -4.716482
v 5.035032 -53.47757 -6.19402
v 5.535883 -52.61763 -3.736238
v 5.34488 -51.97501 -4.379977
v 5.062943 -54.41864 -3.640103
v 5.062943 -54.41864 -3.640103
v 5.34488 -51.97501 -4.379977
v 5.033459 -54.45961 -3.669639
v 5.033459 -54.45961 -3.669639
v 5.34488 -51.97501 -4.379977
v 4.48447 -53.44107 -5.107119
v 4.48447 -53.44107 -5.107119
v 5.34488 -51.97501 -4.379977
v 4.74835 -52.41303 -5.172295
v 4.74835 -52.41303 -5.172295
v 5.34488 -51.97501 -4.379977
v 5.246095 -51.96046 -4.554574
v 6.69844 -52.04031 -4.711325
v 5.437456 -51.90536 -4.483438
v 6.457778 -52.38588 -4.263041
v 6.457778 -52.38588 -4.263041
v 5.437456 -51.90536 -4.483438
v 5.535883 -52.61763 -3.736238
v 5.535883 -52.61763 -3.736238
v 5.437456 -51.90536 -4.483438
v 5.34488 -51.97501 -4.379977
v 7.233301 -54.6619 -4.96194
v 7.512439 -52.80236 -5.802798
v 6.457778 -52.38588 -4.263041
v 6.457778 -52.38588 -4.263041
v 7.512439 -52.80236 -5.802798
v 6.69844 -52.04031 -4.711325
v 4.48447 -53.44107 -5.107119
v 4.825774 -53.54571 -5.816661
v 5.033459 -54.45961 -3.669639
v 5.033459 -54.45961 -3.669639
v 4.825774 -53.54571 -5.816661
v 5.072866 -54.50358 -3.654823
v 5.072866 -54.50358 -3.654823
v 4.825774 -53.54571 -5.816661
v 6.078418 -55.27664 -4.335602
v 5.147768 -53.20683 -6.295308
v 5.035032 -53.47757 -6.19402
v 4.74835 -52.41303 -5.172295
v 4.74835 -52.41303 -5.172295
v 5.035032 -53.47757 -6.19402
v 4.48447 -53.44107 -5.107119
v 4.48447 -53.44107 -5.107119
v 5.035032 -53.47757 -6.19402
v 4.825774 -53.54571 -5.816661
v 5.437456 -51.90536 -4.483438
v 5.246095 -51.96046 -4.554574
v 5.34488 -51.97501 -4.379977
v 5.072866 -54.50358 -3.654823
v 5.062943 -54.41864 -3.640103
v 5.033459 -54.45961 -3.669639
v 6.69844 -52.04031 -4.711325
v 7.512439 -52.80236 -5.802798
v 5.437456 -51.90536 -4.483438
v 5.437456 -51.90536 -4.483438
v 7.512439 -52.80236 -5.802798
v 5.246095 -51.96046 -4.554574
v 5.246095 -51.96046 -4.554574
v 7.512439 -52.80236 -5.802798
v 4.74835 -52.41303 -5.172295
v 4.74835 -52.41303 -5.172295
v 7.512439 -52.80236 -5.802798
v 5.147768 -53.20683 -6.295308
v 5.535883 -52.61763 -3.736238
v 5.062943 -54.41864 -3.640103
v 6.457778 -52.38588 -4.263041
v 6.457778 -52.38588 -4.263041
v 5.062943 -54.41864 -3.640103
v 7.233301 -54.6619 -4.96194
v 7.233301 -54.6619 -4.96194
v 5.062943 -54.41864 -3.640103
v 6.680115 -55.4834 -4.716482
v 6.680115 -55.4834 -4.716482
v 5.062943 -54.41864 -3.640103
v 6.078418 -55.27664 -4.335602
v 6.078418 -55.27664 -4.335602
v 5.062943 -54.41864 -3.640103
v 5.072866 -54.50358 -3.654823
v 5.035032 -53.47757 -6.19402
v 6.680115 -55.4834 -4.716482
v 4.825774 -53.54571 -5.816661
v 4.825774 -53.54571 -5.816661
v 6.680115 -55.4834 -4.716482
v 6.078418 -55.27664 -4.335602

vn 0.253989 -0.4299075 -0.8664117
vn 0.253989 -0.4299075 -0.8664117
vn 0.253989 -0.4299075 -0.8664117
vn 0.253989 -0.4299075 -0.8664117
vn 0.253989 -0.4299075 -0.8664117
vn 0.253989 -0.4299075 -0.8664117
vn 0.253989 -0.4299075 -0.8664117
vn 0.253989 -0.4299075 -0.8664117
vn 0.253989 -0.4299075 -0.8664117
vn -0.8347974 0.2455187 0.4927818
vn -0.8347974 0.2455187 0.4927818
vn -0.8347974 0.2455187 0.4927818
vn -0.8347974 0.2455187 0.4927818
vn -0.8347974 0.2455187 0.4927818
vn -0.8347974 0.2455187 0.4927818
vn -0.8347974 0.2455187 0.4927818
vn -0.8347974 0.2455187 0.4927818
vn -0.8347974 0.2455187 0.4927818
vn -0.8347974 0.2455187 0.4927818
vn -0.8347974 0.2455187 0.4927818
vn -0.8347974 0.2455187 0.4927818
vn -0.8347974 0.2455187 0.4927818
vn -0.8347974 0.2455187 0.4927818
vn -0.8347974 0.2455187 0.4927818
vn 0.1970881 0.7224641 0.6627232
vn 0.1970881 0.7224641 0.6627232
vn 0.1970881 0.7224641 0.6627232
vn 0.1970881 0.7224641 0.6627232
vn 0.1970881 0.7224641 0.6627232
vn 0.1970881 0.7224641 0.6627232
vn 0.1970881 0.7224641 0.6627232
vn 0.1970881 0.7224641 0.6627232
vn 0.1970881 0.7224641 0.6627232
vn 0.8338639 0.1185915 0.5390799
vn 0.8338639 0.1185915 0.5390799
vn 0.8338639 0.1185915 0.5390799
vn 0.8338639 0.1185915 0.5390799
vn 0.8338639 0.1185915 0.5390799
vn 0.8338639 0.1185915 0.5390799
vn -0.6857284 -0.6912563 -0.2279064
vn -0.6857284 -0.6912563 -0.2279064
vn -0.6857284 -0.6912563 -0.2279064
vn -0.6857284 -0.6912563 -0.2279064
vn -0.6857284 -0.6912563 -0.2279064
vn -0.6857284 -0.6912563 -0.2279064
vn -0.6857284 -0.6912563 -0.2279064
vn -0.6857284 -0.6912563 -0.2279064
vn -0.6857284 -0.6912563 -0.2279064
vn -0.872214 0.1954512 -0.448377
vn -0.872214 0.1954512 -0.448377
vn -0.872214 0.1954512 -0.448377
vn -0.872214 0.1954512 -0.448377
vn -0.872214 0.1954512 -0.448377
vn -0.872214 0.1954512 -0.448377
vn -0.872214 0.1954512 -0.448377
vn -0.872214 0.1954512 -0.448377
vn -0.872214 0.1954512 -0.448377
vn -0.3597319 0.8907427 0.2777959
vn -0.3597319 0.8907427 0.2777959
vn -0.3597319 0.8907427 0.2777959
vn -0.5361681 -0.2045512 0.8189521
vn -0.5361681 -0.2045512 0.8189521
vn -0.5361681 -0.2045512 0.8189521
vn -0.01804229 0.8134316 -0.5813807
vn -0.01804229 0.8134316 -0.5813807
vn -0.01804229 0.8134316 -0.5813807
vn -0.01804229 0.8134316 -0.5813807
vn -0.01804229 0.8134316 -0.5813807
vn -0.01804229 0.8134316 -0.5813807
vn -0.01804229 0.8134316 -0.5813807
vn -0.01804229 0.8134316 -0.5813807
vn -0.01804229 0.8134316 -0.5813807
vn -0.01804229 0.8134316 -0.5813807
vn -0.01804229 0.8134316 -0.5813807
vn -0.01804229 0.8134316 -0.5813807
vn 0.5108653 -0.08850839 0.8550923
vn 0.5108653 -0.08850839 0.8550923
vn 0.5108653 -0.08850839 0.8550923
vn 0.5108653 -0.08850839 0.8550923
vn 0.5108653 -0.08850839 0.8550923
vn 0.5108653 -0.08850839 0.8550923
vn 0.5108653 -0.08850839 0.8550923
vn 0.5108653 -0.08850839 0.8550923
vn 0.5108653 -0.08850839 0.8550923
vn 0.5108653 -0.08850839 0.8550923
vn 0.5108653 -0.08850839 0.8550923
vn 0.5108653 -0.08850839 0.8550923
vn 0.5108653 -0.08850839 0.8550923
vn 0.5108653 -0.08850839 0.8550923
vn 0.5108653 -0.08850839 0.8550923
vn -0.5223442 -0.740235 -0.4233306
vn -0.5223442 -0.740235 -0.4233306
vn -0.5223442 -0.740235 -0.4233306
vn -0.5223442 -0.740235 -0.4233306
vn -0.5223442 -0.740235 -0.4233306
vn -0.5223442 -0.740235 -0.4233306

vt 0.466677 0.159042
vt 0.6427121 0.06225828
vt 0.2331369 0.4905893
vt 0.2331369 0.4905893
vt 0.6427121 0.06225828
vt 0.6744764 0.6847849
vt 0.6744764 0.6847849
vt 0.6427121 0.06225828
vt 0.7206979 0.6448451
vt 0.5474473 0.3583707
vt 0.6110134 0.4419537
vt 0.3371679 0.3458919
vt 0.3371679 0.3458919
vt 0.6110134 0.4419537
vt 0.3317864 0.3497264
vt 0.3317864 0.3497264
vt 0.6110134 0.4419537
vt 0.4246839 0.53637
vt 0.4246839 0.53637
vt 0.6110134 0.4419537
vt 0.5445221 0.5448268
vt 0.5445221 0.5448268
vt 0.6110134 0.4419537
vt 0.6094384 0.4646237
vt 0.4884423 0.5201691
vt 0.3240797 0.4802105
vt 0.4699022 0.4415833
vt 0.4699022 0.4415833
vt 0.3240797 0.4802105
vt 0.3611506 0.3492295
vt 0.3611506 0.3492295
vt 0.3240797 0.4802105
vt 0.3147604 0.4620782
vt 0.6519658 0.4678817
vt 0.4416677 0.5844103
vt 0.376203 0.3710277
vt 0.376203 0.3710277
vt 0.4416677 0.5844103
vt 0.3402244 0.4331547
vt 0.6191608 0.4069735
vt 0.5872558 0.4805481
vt 0.5073856 0.2579118
vt 0.5073856 0.2579118
vt 0.5872558 0.4805481
vt 0.5014321 0.2563742
vt 0.5014321 0.2563742
vt 0.5872558 0.4805481
vt 0.3743841 0.3269673
vt 0.4803793 0.4953521
vt 0.4486103 0.4828919
vt 0.5559602 0.3571706
vt 0.5559602 0.3571706
vt 0.4486103 0.4828919
vt 0.4392816 0.3491545
vt 0.4392816 0.3491545
vt 0.4486103 0.4828919
vt 0.4362627 0.4364596
vt 0.4607235 0.4253308
vt 0.4404536 0.4329109
vt 0.4492713 0.4143099
vt 0.3885365 0.5175346
vt 0.4027404 0.5131468
vt 0.3979824 0.5219598
vt 0.5364591 0.3051082
vt 0.6327459 0.467202
vt 0.384491 0.2712672
vt 0.384491 0.2712672
vt 0.6327459 0.467202
vt 0.3612303 0.2818335
vt 0.3612303 0.2818335
vt 0.6327459 0.467202
vt 0.2998954 0.3735684
vt 0.2998954 0.3735684
vt 0.6327459 0.467202
vt 0.3460184 0.5403453
vt 0.3724293 0.153051
vt 0.7242324 0.1178881
vt 0.2993001 0.3457043
vt 0.2993001 0.3457043
vt 0.7242324 0.1178881
vt 0.6994248 0.6013051
vt 0.6994248 0.6013051
vt 0.7242324 0.1178881
vt 0.8708097 0.5115342
vt 0.8708097 0.5115342
vt 0.7242324 0.1178881
vt 0.8516554 0.3722465
vt 0.8516554 0.3722465
vt 0.7242324 0.1178881
vt 0.7397771 0.1232743
vt 0.6000909 0.5067621
vt 0.3287487 0.3297987
vt 0.6143792 0.4615626
vt 0.6143792 0.4615626
vt 0.3287487 0.3297987
vt 0.3950291 0.2841774

usemtl Material0
usemap Material0

usemtl Material1
usemap Material1
f 1/1/1 2/2/2 3/3/3
f 4/4/4 5/5/5 6/6/6
f 7/7/7 8/8/8 9/9/9
f 10/10/10 11/11/11 12/12/12
f 13/13/13 14/14/14 15/15/15
f 16/16/16 17/17/17 18/18/18
f 19/19/19 20/20/20 21/21/21
f 22/22/22 23/23/23 24/24/24
f 25/25/25 26/26/26 27/27/27
f 28/28/28 29/29/29 30/30/30
f 31/31/31 32/32/32 33/33/33
f 34/34/34 35/35/35 36/36/36
f 37/37/37 38/38/38 39/39/39
f 40/40/40 41/41/41 42/42/42
f 43/43/43 44/44/44 45/45/45
f 46/46/46 47/47/47 48/48/48
f 49/49/49 50/50/50 51/51/51
f 52/52/52 53/53/53 54/54/54
f 55/55/55 56/56/56 57/57/57
f 58/58/58 59/59/59 60/60/60
f 61/61/61 62/62/62 63/63/63
f 64/64/64 65/65/65 66/66/66
f 67/67/67 68/68/68 69/69/69
f 70/70/70 71/71/71 72/72/72
f 73/73/73 74/74/74 75/75/75
f 76/76/76 77/77/77 78/78/78
f 79/79/79 80/80/80 81/81/81
f 82/82/82 83/83/83 84/84/84
f 85/85/85 86/86/86 87/87/87
f 88/88/88 89/89/89 90/90/90
f 91/91/91 92/92/92 93/93/93
f 94/94/94 95/95/95 96/96/96
