g  Instance
v 3.228682 -49.21809 9.432085
v 3.221518 -49.07621 9.411155
v 3.165353 -49.18135 9.445176
v 4.296714 -47.31144 8.593522
v 4.23376 -47.25021 8.60539
v 4.414226 -48.39646 8.828547
v 4.414226 -48.39646 8.828547
v 4.23376 -47.25021 8.60539
v 3.77938 -48.05086 9.02025
v 3.228682 -49.21809 9.432085
v 3.165353 -49.18135 9.445176
v 3.103702 -49.3013 9.469826
v 3.103702 -49.3013 9.469826
v 2.585121 -50.32841 9.626426
v 3.228682 -49.21809 9.432085
v 3.228682 -49.21809 9.432085
v 2.585121 -50.32841 9.626426
v 3.228682 -50.33364 9.432085
v 3.228682 -49.21809 9.432085
v 4.414226 -48.39646 8.828547
v 3.221518 -49.07621 9.411155
v 3.221518 -49.07621 9.411155
v 4.414226 -48.39646 8.828547
v 3.77938 -48.05086 9.02025
v 3.228682 -49.21809 9.432085
v 4.472097 -50 8.94429
v 4.414226 -48.39646 8.828547
v 3.9283 -50.34196 9.157623
v 4.472097 -50 8.94429
v 3.228682 -50.33364 9.432085
v 3.228682 -50.33364 9.432085
v 4.472097 -50 8.94429
v 3.228682 -49.21809 9.432085
v 4.472097 -50 8.94429
v 3.9283 -50.34196 9.157623
v 4.459482 -50.34956 8.919059
v 4.296714 -47.31144 8.593522
v 4.414226 -48.39646 8.828547
v 4.961751 -47.99866 8.410281
v 5.665392 -49.17678 8.199123
v 5.625083 -48.74472 8.140787
v 4.414226 -48.39646 8.828547
v 4.414226 -48.39646 8.828547
v 5.625083 -48.74472 8.140787
v 4.961751 -47.99866 8.410281
v 4.472097 -50 8.94429
v 5.665392 -49.17678 8.199123
v 4.414226 -48.39646 8.828547
v 5.505687 -50.37081 8.298854
v 5.665392 -50.11019 8.199123
v 4.993534 -50.35972 8.618673
v 4.993534 -50.35972 8.618673
v 5.665392 -50.11019 8.199123
v 4.472097 -50 8.94429
v 4.472097 -50 8.94429
v 5.665392 -50.11019 8.199123
v 5.665392 -49.17678 8.199123
v 4.472097 -50 8.94429
v 4.459482 -50.34956 8.919059
v 4.993534 -50.35972 8.618673
v 5.665392 -49.17678 8.199123
v 5.860074 -49.02717 8.019332
v 5.625083 -48.74472 8.140787
v 5.665392 -49.17678 8.199123
v 6.033009 -49.44386 7.918293
v 5.860074 -49.02717 8.019332
v 5.860074 -49.02717 8.019332
v 6.033009 -49.44386 7.918293
v 6.085619 -49.32706 7.861554
v 5.665392 -50.11019 8.199123
v 6.033009 -49.44386 7.918293
v 5.665392 -49.17678 8.199123
v 2.865269 -50.4047 7.777163
v 4.001985 -48.44615 6.615091
v 3.580278 -50.42898 7.120707
v 3.580278 -50.42898 7.120707
v 4.001985 -48.44615 6.615091
v 4.296493 -48.86577 6.368995
v 6.033009 -49.44386 7.918293
v 5.665392 -50.11019 8.199123
v 6.085619 -49.32706 7.861554
v 6.085619 -49.32706 7.861554
v 5.665392 -50.11019 8.199123
v 4.296493 -48.86577 6.368995
v 4.296493 -48.86577 6.368995
v 5.665392 -50.11019 8.199123
v 3.580278 -50.42898 7.120707
v 3.580278 -50.42898 7.120707
v 5.665392 -50.11019 8.199123
v 5.505687 -50.37081 8.298854
v 3.580278 -50.42898 7.120707
v 5.505687 -50.37081 8.298854
v 2.865269 -50.4047 7.777163
v 2.865269 -50.4047 7.777163
v 5.505687 -50.37081 8.298854
v 2.585121 -50.32841 9.626426
v 2.585121 -50.32841 9.626426
v 5.505687 -50.37081 8.298854
v 3.228682 -50.33364 9.432085
v 3.228682 -50.33364 9.432085
v 5.505687 -50.37081 8.298854
v 3.9283 -50.34196 9.157623
v 3.9283 -50.34196 9.157623
v 5.505687 -50.37081 8.298854
v 4.459482 -50.34956 8.919059
v 4.459482 -50.34956 8.919059
v 5.505687 -50.37081 8.298854
v 4.993534 -50.35972 8.618673
v 3.221518 -49.07621 9.411155
v 3.77938 -48.05086 9.02025
v 3.165353 -49.18135 9.445176
v 3.165353 -49.18135 9.445176
v 3.77938 -48.05086 9.02025
v 3.103702 -49.3013 9.469826
v 3.103702 -49.3013 9.469826
v 3.77938 -48.05086 9.02025
v 2.585121 -50.32841 9.626426
v 2.585121 -50.32841 9.626426
v 3.77938 -48.05086 9.02025
v 2.865269 -50.4047 7.777163
v 2.865269 -50.4047 7.777163
v 3.77938 -48.05086 9.02025
v 4.001985 -48.44615 6.615091
v 4.001985 -48.44615 6.615091
v 3.77938 -48.05086 9.02025
v 4.23376 -47.25021 8.60539
v 4.961751 -47.99866 8.410281
v 5.625083 -48.74472 8.140787
v 4.296714 -47.31144 8.593522
v 4.296714 -47.31144 8.593522
v 5.625083 -48.74472 8.140787
v 4.23376 -47.25021 8.60539
v 4.23376 -47.25021 8.60539
v 5.625083 -48.74472 8.140787
v 4.001985 -48.44615 6.615091
v 4.001985 -48.44615 6.615091
v 5.625083 -48.74472 8.140787
v 4.296493 -48.86577 6.368995
v 4.296493 -48.86577 6.368995
v 5.625083 -48.74472 8.140787
v 6.085619 -49.32706 7.861554
v 6.085619 -49.32706 7.861554
v 5.625083 -48.74472 8.140787
v 5.860074 -49.02717 8.019332

vn 0.2848841 0.1539607 0.9461169
vn 0.2848841 0.1539607 0.9461169
vn 0.2848841 0.1539607 0.9461169
vn 0.3960461 0.2351577 0.8876082
vn 0.3960461 0.2351577 0.8876082
vn 0.3960461 0.2351577 0.8876082
vn 0.3960461 0.2351577 0.8876082
vn 0.3960461 0.2351577 0.8876082
vn 0.3960461 0.2351577 0.8876082
vn 0.2428408 0.07395602 0.967243
vn 0.2428408 0.07395602 0.967243
vn 0.2428408 0.07395602 0.967243
vn 0.2890823 -4.18451E-08 0.9573042
vn 0.2890823 -4.18451E-08 0.9573042
vn 0.2890823 -4.18451E-08 0.9573042
vn 0.2890823 -4.18451E-08 0.9573042
vn 0.2890823 -4.18451E-08 0.9573042
vn 0.2890823 -4.18451E-08 0.9573042
vn 0.3614759 0.1539151 0.9195898
vn 0.3614759 0.1539151 0.9195898
vn 0.3614759 0.1539151 0.9195898
vn 0.3614759 0.1539151 0.9195898
vn 0.3614759 0.1539151 0.9195898
vn 0.3614759 0.1539151 0.9195898
vn 0.4074161 0.08036553 0.9096996
vn 0.4074161 0.08036553 0.9096996
vn 0.4074161 0.08036553 0.9096996
vn 0.3652062 -4.06921E-08 0.9309266
vn 0.3652062 -4.06921E-08 0.9309266
vn 0.3652062 -4.06921E-08 0.9309266
vn 0.3652062 -4.06921E-08 0.9309266
vn 0.3652062 -4.06921E-08 0.9309266
vn 0.3652062 -4.06921E-08 0.9309266
vn 0.4074139 -0.08036572 0.9097007
vn 0.4074139 -0.08036572 0.9097007
vn 0.4074139 -0.08036572 0.9097007
vn 0.4763886 0.2351103 0.8472173
vn 0.4763886 0.2351103 0.8472173
vn 0.4763886 0.2351103 0.8472173
vn 0.5221487 0.1617736 0.8373709
vn 0.5221487 0.1617736 0.8373709
vn 0.5221487 0.1617736 0.8373709
vn 0.5221487 0.1617736 0.8373709
vn 0.5221487 0.1617736 0.8373709
vn 0.5221487 0.1617736 0.8373709
vn 0.4874893 0.08034822 0.8694242
vn 0.4874893 0.08034822 0.8694242
vn 0.4874893 0.08034822 0.8694242
vn 0.529672 -3.707611E-08 0.8482025
vn 0.529672 -3.707611E-08 0.8482025
vn 0.529672 -3.707611E-08 0.8482025
vn 0.529672 -3.707611E-08 0.8482025
vn 0.529672 -3.707611E-08 0.8482025
vn 0.529672 -3.707611E-08 0.8482025
vn 0.529672 -3.707611E-08 0.8482025
vn 0.529672 -3.707611E-08 0.8482025
vn 0.529672 -3.707611E-08 0.8482025
vn 0.4874904 -0.08034826 0.8694235
vn 0.4874904 -0.08034826 0.8694235
vn 0.4874904 -0.08034826 0.8694235
vn 0.5995541 0.1617641 0.7838158
vn 0.5995541 0.1617641 0.7838158
vn 0.5995541 0.1617641 0.7838158
vn 0.6417183 0.08140682 0.7626077
vn 0.6417183 0.08140682 0.7626077
vn 0.6417183 0.08140682 0.7626077
vn 0.6417183 0.08140682 0.7626077
vn 0.6417183 0.08140682 0.7626077
vn 0.6417183 0.08140682 0.7626077
vn 0.6070582 -3.473558E-08 0.7946574
vn 0.6070582 -3.473558E-08 0.7946574
vn 0.6070582 -3.473558E-08 0.7946574
vn -0.6764614 -0.04360073 -0.7351863
vn -0.6764614 -0.04360073 -0.7351863
vn -0.6764614 -0.04360073 -0.7351863
vn -0.6764614 -0.04360073 -0.7351863
vn -0.6764614 -0.04360073 -0.7351863
vn -0.6764614 -0.04360073 -0.7351863
vn 0.4492379 -0.5459153 -0.7072212
vn 0.4492379 -0.5459153 -0.7072212
vn 0.4492379 -0.5459153 -0.7072212
vn 0.4492379 -0.5459153 -0.7072212
vn 0.4492379 -0.5459153 -0.7072212
vn 0.4492379 -0.5459153 -0.7072212
vn 0.4492379 -0.5459153 -0.7072212
vn 0.4492379 -0.5459153 -0.7072212
vn 0.4492379 -0.5459153 -0.7072212
vn 0.4492379 -0.5459153 -0.7072212
vn 0.4492379 -0.5459153 -0.7072212
vn 0.4492379 -0.5459153 -0.7072212
vn 0.004544437 -0.9991114 0.04190284
vn 0.004544437 -0.9991114 0.04190284
vn 0.004544437 -0.9991114 0.04190284
vn 0.004544437 -0.9991114 0.04190284
vn 0.004544437 -0.9991114 0.04190284
vn 0.004544437 -0.9991114 0.04190284
vn 0.004544437 -0.9991114 0.04190284
vn 0.004544437 -0.9991114 0.04190284
vn 0.004544437 -0.9991114 0.04190284
vn 0.004544437 -0.9991114 0.04190284
vn 0.004544437 -0.9991114 0.04190284
vn 0.004544437 -0.9991114 0.04190284
vn 0.004544437 -0.9991114 0.04190284
vn 0.004544437 -0.9991114 0.04190284
vn 0.004544437 -0.9991114 0.04190284
vn 0.004544437 -0.9991114 0.04190284
vn 0.004544437 -0.9991114 0.04190284
vn 0.004544437 -0.9991114 0.04190284
vn -0.8913812 0.4267785 -0.1526423
vn -0.8913812 0.4267785 -0.1526423
vn -0.8913812 0.4267785 -0.1526423
vn -0.8913812 0.4267785 -0.1526423
vn -0.8913812 0.4267785 -0.1526423
vn -0.8913812 0.4267785 -0.1526423
vn -0.8913812 0.4267785 -0.1526423
vn -0.8913812 0.4267785 -0.1526423
vn -0.8913812 0.4267785 -0.1526423
vn -0.8913812 0.4267785 -0.1526423
vn -0.8913812 0.4267785 -0.1526423
vn -0.8913812 0.4267785 -0.1526423
vn -0.8913812 0.4267785 -0.1526423
vn -0.8913812 0.4267785 -0.1526423
vn -0.8913812 0.4267785 -0.1526423
vn -0.8913812 0.4267785 -0.1526423
vn -0.8913812 0.4267785 -0.1526423
vn -0.8913812 0.4267785 -0.1526423
vn 0.5674779 0.6749271 -0.4716379
vn 0.5674779 0.6749271 -0.4716379
vn 0.5674779 0.6749271 -0.4716379
vn 0.5674779 0.6749271 -0.4716379
vn 0.5674779 0.6749271 -0.4716379
vn 0.5674779 0.6749271 -0.4716379
vn 0.5674779 0.6749271 -0.4716379
vn 0.5674779 0.6749271 -0.4716379
vn 0.5674779 0.6749271 -0.4716379
vn 0.5674779 0.6749271 -0.4716379
vn 0.5674779 0.6749271 -0.4716379
vn 0.5674779 0.6749271 -0.4716379
vn 0.5674779 0.6749271 -0.4716379
vn 0.5674779 0.6749271 -0.4716379
vn 0.5674779 0.6749271 -0.4716379
vn 0.5674779 0.6749271 -0.4716379
vn 0.5674779 0.6749271 -0.4716379
vn 0.5674779 0.6749271 -0.4716379

vt 0.1931816 0.4133341
vt 0.1953191 0.4133341
vt 0.1937829 0.4143755
vt 0.2211335 0.3936515
vt 0.2221105 0.3945852
vt 0.2045453 0.3936515
vt 0.2045453 0.3936515
vt 0.2221105 0.3945852
vt 0.210263 0.403555
vt 0.1931816 0.4133341
vt 0.1937829 0.4143755
vt 0.1919723 0.4154288
vt 0.1919723 0.4154288
vt 0.1770452 0.4241203
vt 0.1931816 0.4133341
vt 0.1931816 0.4133341
vt 0.1770452 0.4241203
vt 0.1769693 0.4133341
vt 0.1931816 0.4133341
vt 0.2045453 0.3936515
vt 0.1953191 0.4133341
vt 0.1953191 0.4133341
vt 0.2045453 0.3936515
vt 0.210263 0.403555
vt 0.1931816 0.4133341
vt 0.181818 0.3936515
vt 0.2045453 0.3936515
vt 0.1768482 0.4022595
vt 0.181818 0.3936515
vt 0.1769693 0.4133341
vt 0.1769693 0.4133341
vt 0.181818 0.3936515
vt 0.1931816 0.4133341
vt 0.181818 0.3936515
vt 0.1768482 0.4022595
vt 0.1768637 0.3936515
vt 0.2211335 0.3936515
vt 0.2045453 0.3936515
vt 0.2101832 0.3838861
vt 0.1931816 0.3739689
vt 0.1993883 0.3739689
vt 0.2045453 0.3936515
vt 0.2045453 0.3936515
vt 0.1993883 0.3739689
vt 0.2101832 0.3838861
vt 0.181818 0.3936515
vt 0.1931816 0.3739689
vt 0.2045453 0.3936515
vt 0.1766994 0.3766031
vt 0.180297 0.3739689
vt 0.1768524 0.3850508
vt 0.1768524 0.3850508
vt 0.180297 0.3739689
vt 0.181818 0.3936515
vt 0.181818 0.3936515
vt 0.180297 0.3739689
vt 0.1931816 0.3739689
vt 0.181818 0.3936515
vt 0.1768637 0.3936515
vt 0.1768524 0.3850508
vt 0.1931816 0.3739689
vt 0.1953032 0.3702942
vt 0.1993883 0.3739689
vt 0.1931816 0.3739689
vt 0.1894948 0.3675831
vt 0.1953032 0.3702942
vt 0.1953032 0.3702942
vt 0.1894948 0.3675831
vt 0.1911371 0.3665132
vt 0.180297 0.3739689
vt 0.1894948 0.3675831
vt 0.1931816 0.3739689
vt 0.3236343 0.371773
vt 0.5964907 0.6203936
vt 0.3134478 0.5122187
vt 0.3134478 0.5122187
vt 0.5964907 0.6203936
vt 0.5330089 0.6730467
vt 0.3125946 0.3662602
vt 0.4109394 0.3110289
vt 0.2966234 0.3774218
vt 0.2966234 0.3774218
vt 0.4109394 0.3110289
vt 0.4479681 0.6709841
vt 0.4479681 0.6709841
vt 0.4109394 0.3110289
vt 0.6629914 0.5231318
vt 0.6629914 0.5231318
vt 0.4109394 0.3110289
vt 0.4511183 0.2914106
vt 0.5473629 0.5875511
vt 0.3578879 0.4715241
vt 0.6177076 0.5228974
vt 0.6177076 0.5228974
vt 0.3578879 0.4715241
vt 0.6452342 0.3407775
vt 0.6452342 0.3407775
vt 0.3578879 0.4715241
vt 0.5819117 0.3599177
vt 0.5819117 0.3599177
vt 0.3578879 0.4715241
vt 0.5130765 0.3869474
vt 0.5130765 0.3869474
vt 0.3578879 0.4715241
vt 0.4608172 0.4104425
vt 0.4608172 0.4104425
vt 0.3578879 0.4715241
vt 0.4082767 0.440027
vt 0.4582718 0.3437355
vt 0.5742332 0.3830846
vt 0.4464258 0.3403134
vt 0.4464258 0.3403134
vt 0.5742332 0.3830846
vt 0.4330141 0.3378289
vt 0.4330141 0.3378289
vt 0.5742332 0.3830846
vt 0.3185856 0.3220686
vt 0.3185856 0.3220686
vt 0.5742332 0.3830846
vt 0.323775 0.5082059
vt 0.323775 0.5082059
vt 0.5742332 0.3830846
vt 0.5483286 0.6251752
vt 0.5483286 0.6251752
vt 0.5742332 0.3830846
vt 0.6655791 0.4248433
vt 0.4741727 0.3811861
vt 0.5843119 0.4152662
vt 0.3681166 0.3580191
vt 0.3681166 0.3580191
vt 0.5843119 0.4152662
vt 0.3583519 0.356519
vt 0.3583519 0.356519
vt 0.5843119 0.4152662
vt 0.4243839 0.6081586
vt 0.4243839 0.6081586
vt 0.5843119 0.4152662
vt 0.4796152 0.639276
vt 0.4796152 0.639276
vt 0.5843119 0.4152662
vt 0.6653916 0.4505651
vt 0.6653916 0.4505651
vt 0.5843119 0.4152662
vt 0.6246267 0.4306233

usemtl Material0
usemap Material0
f 1/1/1 2/2/2 3/3/3
f 4/4/4 5/5/5 6/6/6
f 7/7/7 8/8/8 9/9/9
f 10/10/10 11/11/11 12/12/12
f 13/13/13 14/14/14 15/15/15
f 16/16/16 17/17/17 18/18/18
f 19/19/19 20/20/20 21/21/21
f 22/22/22 23/23/23 24/24/24
f 25/25/25 26/26/26 27/27/27
f 28/28/28 29/29/29 30/30/30
f 31/31/31 32/32/32 33/33/33
f 34/34/34 35/35/35 36/36/36
f 37/37/37 38/38/38 39/39/39
f 40/40/40 41/41/41 42/42/42
f 43/43/43 44/44/44 45/45/45
f 46/46/46 47/47/47 48/48/48
f 49/49/49 50/50/50 51/51/51
f 52/52/52 53/53/53 54/54/54
f 55/55/55 56/56/56 57/57/57
f 58/58/58 59/59/59 60/60/60
f 61/61/61 62/62/62 63/63/63
f 64/64/64 65/65/65 66/66/66
f 67/67/67 68/68/68 69/69/69
f 70/70/70 71/71/71 72/72/72

usemtl Material1
usemap Material1
f 73/73/73 74/74/74 75/75/75
f 76/76/76 77/77/77 78/78/78
f 79/79/79 80/80/80 81/81/81
f 82/82/82 83/83/83 84/84/84
f 85/85/85 86/86/86 87/87/87
f 88/88/88 89/89/89 90/90/90
f 91/91/91 92/92/92 93/93/93
f 94/94/94 95/95/95 96/96/96
f 97/97/97 98/98/98 99/99/99
f 100/100/100 101/101/101 102/102/102
f 103/103/103 104/104/104 105/105/105
f 106/106/106 107/107/107 108/108/108
f 109/109/109 110/110/110 111/111/111
f 112/112/112 113/113/113 114/114/114
f 115/115/115 116/116/116 117/117/117
f 118/118/118 119/119/119 120/120/120
f 121/121/121 122/122/122 123/123/123
f 124/124/124 125/125/125 126/126/126
f 127/127/127 128/128/128 129/129/129
f 130/130/130 131/131/131 132/132/132
f 133/133/133 134/134/134 135/135/135
f 136/136/136 137/137/137 138/138/138
f 139/139/139 140/140/140 141/141/141
f 142/142/142 143/143/143 144/144/144
