g  Instance
v -8.732437 -52.39768 0.5916606
v -7.640313 -53.0829 0.3566734
v -8.964287 -51.93941 0.9112905
v -8.964287 -51.93941 0.9112905
v -7.640313 -53.0829 0.3566734
v -7.563814 -52.43909 0.936799
v -7.563814 -52.43909 0.936799
v -7.640313 -53.0829 0.3566734
v -7.459419 -52.9011 0.5724071
v -8.941282 -51.533 0.7500668
v -8.605333 -51.15419 0.5617801
v -8.486128 -51.98037 -0.007029474
v -8.486128 -51.98037 -0.007029474
v -8.605333 -51.15419 0.5617801
v -7.502268 -51.97333 -1.134512
v -7.502268 -51.97333 -1.134512
v -8.605333 -51.15419 0.5617801
v -7.241801 -51.11943 -0.987733
v -7.241801 -51.11943 -0.987733
v -8.605333 -51.15419 0.5617801
v -7.44131 -50.22962 -0.2933479
v -7.459419 -52.9011 0.5724071
v -7.221591 -52.90044 -0.5649012
v -7.563814 -52.43909 0.936799
v -7.563814 -52.43909 0.936799
v -7.221591 -52.90044 -0.5649012
v -7.544307 -51.51321 0.5734859
v -7.544307 -51.51321 0.5734859
v -7.221591 -52.90044 -0.5649012
v -7.44131 -50.22962 -0.2933479
v -7.44131 -50.22962 -0.2933479
v -7.221591 -52.90044 -0.5649012
v -7.241801 -51.11943 -0.987733
v -7.424112 -53.09996 -0.7824239
v -7.221591 -52.90044 -0.5649012
v -7.565168 -53.18112 -0.5893741
v -7.565168 -53.18112 -0.5893741
v -7.221591 -52.90044 -0.5649012
v -7.640313 -53.0829 0.3566734
v -7.640313 -53.0829 0.3566734
v -7.221591 -52.90044 -0.5649012
v -7.459419 -52.9011 0.5724071
v -7.563814 -52.43909 0.936799
v -7.544307 -51.51321 0.5734859
v -8.964287 -51.93941 0.9112905
v -8.964287 -51.93941 0.9112905
v -7.544307 -51.51321 0.5734859
v -8.941282 -51.533 0.7500668
v -8.941282 -51.533 0.7500668
v -7.544307 -51.51321 0.5734859
v -8.605333 -51.15419 0.5617801
v -8.486128 -51.98037 -0.007029474
v -7.502268 -51.97333 -1.134512
v -8.557234 -52.5223 0.2865897
v -8.557234 -52.5223 0.2865897
v -7.502268 -51.97333 -1.134512
v -7.565168 -53.18112 -0.5893741
v -7.565168 -53.18112 -0.5893741
v -7.502268 -51.97333 -1.134512
v -7.424112 -53.09996 -0.7824239
v -8.486128 -51.98037 -0.007029474
v -8.557234 -52.5223 0.2865897
v -8.941282 -51.533 0.7500668
v -8.941282 -51.533 0.7500668
v -8.557234 -52.5223 0.2865897
v -8.964287 -51.93941 0.9112905
v -8.964287 -51.93941 0.9112905
v -8.557234 -52.5223 0.2865897
v -8.732437 -52.39768 0.5916606
v -7.565168 -53.18112 -0.5893741
v -7.640313 -53.0829 0.3566734
v -8.557234 -52.5223 0.2865897
v -8.557234 -52.5223 0.2865897
v -7.640313 -53.0829 0.3566734
v -8.732437 -52.39768 0.5916606
v -7.424112 -53.09996 -0.7824239
v -7.502268 -51.97333 -1.134512
v -7.221591 -52.90044 -0.5649012
v -7.221591 -52.90044 -0.5649012
v -7.502268 -51.97333 -1.134512
v -7.241801 -51.11943 -0.987733
v -7.544307 -51.51321 0.5734859
v -7.44131 -50.22962 -0.2933479
v -8.605333 -51.15419 0.5617801

vn -0.2396102 -0.6340385 0.7352429
vn -0.2396102 -0.6340385 0.7352429
vn -0.2396102 -0.6340385 0.7352429
vn -0.2396102 -0.6340385 0.7352429
vn -0.2396102 -0.6340385 0.7352429
vn -0.2396102 -0.6340385 0.7352429
vn -0.2396102 -0.6340385 0.7352429
vn -0.2396102 -0.6340385 0.7352429
vn -0.2396102 -0.6340385 0.7352429
vn -0.7137182 0.3244124 -0.6207761
vn -0.7137182 0.3244124 -0.6207761
vn -0.7137182 0.3244124 -0.6207761
vn -0.7137182 0.3244124 -0.6207761
vn -0.7137182 0.3244124 -0.6207761
vn -0.7137182 0.3244124 -0.6207761
vn -0.7137182 0.3244124 -0.6207761
vn -0.7137182 0.3244124 -0.6207761
vn -0.7137182 0.3244124 -0.6207761
vn -0.7137182 0.3244124 -0.6207761
vn -0.7137182 0.3244124 -0.6207761
vn -0.7137182 0.3244124 -0.6207761
vn 0.9770805 0.05960222 0.204356
vn 0.9770805 0.05960222 0.204356
vn 0.9770805 0.05960222 0.204356
vn 0.9770805 0.05960222 0.204356
vn 0.9770805 0.05960222 0.204356
vn 0.9770805 0.05960222 0.204356
vn 0.9770805 0.05960222 0.204356
vn 0.9770805 0.05960222 0.204356
vn 0.9770805 0.05960222 0.204356
vn 0.9770805 0.05960222 0.204356
vn 0.9770805 0.05960222 0.204356
vn 0.9770805 0.05960222 0.204356
vn 0.6217658 -0.7724096 0.1295788
vn 0.6217658 -0.7724096 0.1295788
vn 0.6217658 -0.7724096 0.1295788
vn 0.6217658 -0.7724096 0.1295788
vn 0.6217658 -0.7724096 0.1295788
vn 0.6217658 -0.7724096 0.1295788
vn 0.6217658 -0.7724096 0.1295788
vn 0.6217658 -0.7724096 0.1295788
vn 0.6217658 -0.7724096 0.1295788
vn 0.1119113 0.3609425 0.9258491
vn 0.1119113 0.3609425 0.9258491
vn 0.1119113 0.3609425 0.9258491
vn 0.1119113 0.3609425 0.9258491
vn 0.1119113 0.3609425 0.9258491
vn 0.1119113 0.3609425 0.9258491
vn 0.1119113 0.3609425 0.9258491
vn 0.1119113 0.3609425 0.9258491
vn 0.1119113 0.3609425 0.9258491
vn -0.7288035 -0.249798 -0.6375315
vn -0.7288035 -0.249798 -0.6375315
vn -0.7288035 -0.249798 -0.6375315
vn -0.7288035 -0.249798 -0.6375315
vn -0.7288035 -0.249798 -0.6375315
vn -0.7288035 -0.249798 -0.6375315
vn -0.7288035 -0.249798 -0.6375315
vn -0.7288035 -0.249798 -0.6375315
vn -0.7288035 -0.249798 -0.6375315
vn -0.8818138 -0.1299254 -0.4533474
vn -0.8818138 -0.1299254 -0.4533474
vn -0.8818138 -0.1299254 -0.4533474
vn -0.8818138 -0.1299254 -0.4533474
vn -0.8818138 -0.1299254 -0.4533474
vn -0.8818138 -0.1299254 -0.4533474
vn -0.8818138 -0.1299254 -0.4533474
vn -0.8818138 -0.1299254 -0.4533474
vn -0.8818138 -0.1299254 -0.4533474
vn -0.5236447 -0.8506551 0.04671577
vn -0.5236447 -0.8506551 0.04671577
vn -0.5236447 -0.8506551 0.04671577
vn -0.5236447 -0.8506551 0.04671577
vn -0.5236447 -0.8506551 0.04671577
vn -0.5236447 -0.8506551 0.04671577
vn 0.7839521 -0.1349715 -0.605972
vn 0.7839521 -0.1349715 -0.605972
vn 0.7839521 -0.1349715 -0.605972
vn 0.7839521 -0.1349715 -0.605972
vn 0.7839521 -0.1349715 -0.605972
vn 0.7839521 -0.1349715 -0.605972
vn 0.1741223 0.5414575 0.8224994
vn 0.1741223 0.5414575 0.8224994
vn 0.1741223 0.5414575 0.8224994

vt 0.5847244 0.5002648
vt 0.4014138 0.5505459
vt 0.6396838 0.4318656
vt 0.6396838 0.4318656
vt 0.4014138 0.5505459
vt 0.4240464 0.4264043
vt 0.4240464 0.4264043
vt 0.4014138 0.5505459
vt 0.3861926 0.5043807
vt 0.4649987 0.3040629
vt 0.5256773 0.3341771
vt 0.4375425 0.4251574
vt 0.4375425 0.4251574
vt 0.5256773 0.3341771
vt 0.4893986 0.6054959
vt 0.4893986 0.6054959
vt 0.5256773 0.3341771
vt 0.6003909 0.5820196
vt 0.6003909 0.5820196
vt 0.5256773 0.3341771
vt 0.6916149 0.4709569
vt 0.5998471 0.4165975
vt 0.6012441 0.5332761
vt 0.5528944 0.3792125
vt 0.5528944 0.3792125
vt 0.6012441 0.5332761
vt 0.4602031 0.416485
vt 0.4602031 0.416485
vt 0.6012441 0.5332761
vt 0.3321708 0.505412
vt 0.3321708 0.505412
vt 0.6012441 0.5332761
vt 0.4225885 0.5766568
vt 0.5387186 0.5597245
vt 0.5106764 0.5379733
vt 0.554657 0.5404203
vt 0.554657 0.5404203
vt 0.5106764 0.5379733
vt 0.5543571 0.4458258
vt 0.5543571 0.4458258
vt 0.5106764 0.5379733
vt 0.5290899 0.4242573
vt 0.394865 0.4637799
vt 0.493266 0.4618392
vt 0.4418412 0.6032083
vt 0.4418412 0.6032083
vt 0.493266 0.4618392
vt 0.4850952 0.6009207
vt 0.4850952 0.6009207
vt 0.493266 0.4618392
vt 0.5267742 0.5674687
vt 0.4989007 0.4120363
vt 0.45905 0.598783
vt 0.4364315 0.3634007
vt 0.4364315 0.3634007
vt 0.45905 0.598783
vt 0.315862 0.5084872
vt 0.315862 0.5084872
vt 0.45905 0.598783
vt 0.3198232 0.5404578
vt 0.4837826 0.4333657
vt 0.4257902 0.3970354
vt 0.5399187 0.3396853
vt 0.5399187 0.3396853
vt 0.4257902 0.3970354
vt 0.495938 0.3197341
vt 0.495938 0.3197341
vt 0.4257902 0.3970354
vt 0.4422068 0.3592848
vt 0.3988309 0.5295259
vt 0.4101987 0.4363143
vt 0.5159642 0.4432147
vt 0.5159642 0.4432147
vt 0.4101987 0.4363143
vt 0.5370779 0.4131614
vt 0.6368055 0.498596
vt 0.5012352 0.5532929
vt 0.6082476 0.4647972
vt 0.6082476 0.4647972
vt 0.5012352 0.5532929
vt 0.3917664 0.5304916
vt 0.5182612 0.4647081
vt 0.4672817 0.7281374
vt 0.3246656 0.4682661

usemtl Material0
usemap Material0

usemtl Material1
usemap Material1
f 1/1/1 2/2/2 3/3/3
f 4/4/4 5/5/5 6/6/6
f 7/7/7 8/8/8 9/9/9
f 10/10/10 11/11/11 12/12/12
f 13/13/13 14/14/14 15/15/15
f 16/16/16 17/17/17 18/18/18
f 19/19/19 20/20/20 21/21/21
f 22/22/22 23/23/23 24/24/24
f 25/25/25 26/26/26 27/27/27
f 28/28/28 29/29/29 30/30/30
f 31/31/31 32/32/32 33/33/33
f 34/34/34 35/35/35 36/36/36
f 37/37/37 38/38/38 39/39/39
f 40/40/40 41/41/41 42/42/42
f 43/43/43 44/44/44 45/45/45
f 46/46/46 47/47/47 48/48/48
f 49/49/49 50/50/50 51/51/51
f 52/52/52 53/53/53 54/54/54
f 55/55/55 56/56/56 57/57/57
f 58/58/58 59/59/59 60/60/60
f 61/61/61 62/62/62 63/63/63
f 64/64/64 65/65/65 66/66/66
f 67/67/67 68/68/68 69/69/69
f 70/70/70 71/71/71 72/72/72
f 73/73/73 74/74/74 75/75/75
f 76/76/76 77/77/77 78/78/78
f 79/79/79 80/80/80 81/81/81
f 82/82/82 83/83/83 84/84/84
