g  Instance
v -2.702062 -41.68377 4.818846
v -2.659388 -41.81511 5.058141
v -2.412415 -41.45283 4.563237
v -2.412415 -41.45283 4.563237
v -2.659388 -41.81511 5.058141
v -1.614654 -41.36049 4.769877
v -1.614654 -41.36049 4.769877
v -2.659388 -41.81511 5.058141
v -2.324798 -41.87644 5.31238
v -2.702062 -41.68377 4.818846
v -2.77851 -41.75334 4.884384
v -2.659388 -41.81511 5.058141
v -2.659388 -41.81511 5.058141
v -2.77851 -41.75334 4.884384
v -2.753922 -41.80112 4.97704
v -1.642915 -42.02201 5.773385
v -1.40836 -42.07592 5.921291
v -1.326844 -42.00871 5.863344
v -1.326844 -42.00871 5.863344
v -1.40836 -42.07592 5.921291
v -1.287989 -42.10744 5.986524
v 0.09708325 -42.11022 6.143448
v -1.326844 -42.00871 5.863344
v -0.2962019 -42.39596 6.44389
v -0.2962019 -42.39596 6.44389
v -1.326844 -42.00871 5.863344
v -1.287989 -42.10744 5.986524
v 0.2087681 -42.5599 6.629477
v 0.2763532 -42.52964 6.598134
v -0.2962019 -42.39596 6.44389
v -0.2962019 -42.39596 6.44389
v 0.2763532 -42.52964 6.598134
v 0.09708325 -42.11022 6.143448
v 0.9677985 -42.27849 6.232365
v 0.09708325 -42.11022 6.143448
v 0.2763532 -42.52964 6.598134
v -1.614654 -41.36049 4.769877
v -2.324798 -41.87644 5.31238
v -1.326844 -42.00871 5.863344
v -1.326844 -42.00871 5.863344
v -2.324798 -41.87644 5.31238
v -1.642915 -42.02201 5.773385
v -1.326844 -42.00871 5.863344
v -0.2963942 -41.35816 5.02302
v -1.614654 -41.36049 4.769877
v 0.09708325 -42.11022 6.143448
v -0.2963942 -41.35816 5.02302
v -1.326844 -42.00871 5.863344
v 0.09708325 -42.11022 6.143448
v 1.145638 -41.53289 5.195724
v -0.2963942 -41.35816 5.02302
v 0.09708325 -42.11022 6.143448
v 0.9677985 -42.27849 6.232365
v 1.145638 -41.53289 5.195724
v 1.145638 -41.53289 5.195724
v 0.9677985 -42.27849 6.232365
v 1.47048 -42.12462 5.944245
v 1.510811 -42.11581 5.9184
v 1.928917 -41.83923 5.383079
v 1.47048 -42.12462 5.944245
v 1.47048 -42.12462 5.944245
v 1.928917 -41.83923 5.383079
v 1.145638 -41.53289 5.195724
v 1.145638 -41.53289 5.195724
v 1.928917 -41.83923 5.383079
v 1.810737 -41.70196 5.223374
v 1.810737 -41.70196 5.223374
v 1.928917 -41.83923 5.383079
v 1.909564 -41.76407 5.280881
v -2.412415 -41.45283 4.563237
v -1.614654 -41.36049 4.769877
v -2.277683 -41.36112 4.440823
v -2.277683 -41.36112 4.440823
v -1.614654 -41.36049 4.769877
v -1.806385 -41.22118 4.386418
v -1.296066 -41.0985 4.319789
v -1.806385 -41.22118 4.386418
v -1.614654 -41.36049 4.769877
v -1.614654 -41.36049 4.769877
v -0.2963942 -41.35816 5.02302
v -1.296066 -41.0985 4.319789
v -1.296066 -41.0985 4.319789
v -0.2963942 -41.35816 5.02302
v -0.711478 -40.99586 4.233322
v -0.2963942 -41.35816 5.02302
v 0.2621611 -41.0019 4.306524
v -0.711478 -40.99586 4.233322
v -0.711478 -40.99586 4.233322
v 0.2621611 -41.0019 4.306524
v -0.04304303 -40.92356 4.12239
v -0.2963942 -41.35816 5.02302
v 1.145638 -41.53289 5.195724
v 0.2621611 -41.0019 4.306524
v 0.2621611 -41.0019 4.306524
v 1.145638 -41.53289 5.195724
v 0.8654859 -41.23058 4.666267
v 1.145638 -41.53289 5.195724
v 1.345417 -41.43864 4.950928
v 0.8654859 -41.23058 4.666267
v 1.145638 -41.53289 5.195724
v 1.810737 -41.70196 5.223374
v 1.345417 -41.43864 4.950928
v 0.6751571 -43.31151 4.473593
v 0.7076583 -43.26815 4.451318
v 0.5662003 -43.46351 4.574958
v 0.5662003 -43.46351 4.574958
v 0.7076583 -43.26815 4.451318
v 0.8753882 -43.30793 5.399013
v 0.8753882 -43.30793 5.399013
v 0.7076583 -43.26815 4.451318
v 1.581455 -42.43536 5.195343
v 1.581455 -42.43536 5.195343
v 0.7076583 -43.26815 4.451318
v 1.324916 -42.65292 4.868295
v 0.700572 -43.27094 4.446777
v 0.7076583 -43.26815 4.451318
v 0.6751571 -43.31151 4.473593
v 0.2621611 -41.0019 4.306524
v 0.8654859 -41.23058 4.666267
v -0.04304303 -40.92356 4.12239
v -0.04304303 -40.92356 4.12239
v 0.8654859 -41.23058 4.666267
v -0.3700859 -42.18953 3.847304
v -0.3700859 -42.18953 3.847304
v 0.8654859 -41.23058 4.666267
v 0.700572 -43.27094 4.446777
v 0.700572 -43.27094 4.446777
v 0.8654859 -41.23058 4.666267
v 0.7076583 -43.26815 4.451318
v 0.7076583 -43.26815 4.451318
v 0.8654859 -41.23058 4.666267
v 1.324916 -42.65292 4.868295
v 1.324916 -42.65292 4.868295
v 0.8654859 -41.23058 4.666267
v 1.909564 -41.76407 5.280881
v 1.909564 -41.76407 5.280881
v 0.8654859 -41.23058 4.666267
v 1.810737 -41.70196 5.223374
v 1.810737 -41.70196 5.223374
v 0.8654859 -41.23058 4.666267
v 1.345417 -41.43864 4.950928
v -1.296066 -41.0985 4.319789
v -0.711478 -40.99586 4.233322
v -1.806385 -41.22118 4.386418
v -1.806385 -41.22118 4.386418
v -0.711478 -40.99586 4.233322
v -2.277683 -41.36112 4.440823
v -2.277683 -41.36112 4.440823
v -0.711478 -40.99586 4.233322
v -2.233335 -42.23186 4.199132
v -2.233335 -42.23186 4.199132
v -0.711478 -40.99586 4.233322
v -2.041175 -42.43241 4.108001
v -2.041175 -42.43241 4.108001
v -0.711478 -40.99586 4.233322
v -0.3700859 -42.18953 3.847304
v -0.3700859 -42.18953 3.847304
v -0.711478 -40.99586 4.233322
v -0.04304303 -40.92356 4.12239
v -2.77851 -41.75334 4.884384
v -2.233335 -42.23186 4.199132
v -2.753922 -41.80112 4.97704
v -2.753922 -41.80112 4.97704
v -2.233335 -42.23186 4.199132
v -2.034331 -42.44132 4.113068
v -2.034331 -42.44132 4.113068
v -2.233335 -42.23186 4.199132
v -2.041175 -42.43241 4.108001
v 0.5662003 -43.46351 4.574958
v -2.034331 -42.44132 4.113068
v 0.6751571 -43.31151 4.473593
v 0.6751571 -43.31151 4.473593
v -2.034331 -42.44132 4.113068
v 0.700572 -43.27094 4.446777
v 0.700572 -43.27094 4.446777
v -2.034331 -42.44132 4.113068
v -0.3700859 -42.18953 3.847304
v -0.3700859 -42.18953 3.847304
v -2.034331 -42.44132 4.113068
v -2.041175 -42.43241 4.108001
v 1.581455 -42.43536 5.195343
v 1.928917 -41.83923 5.383079
v 0.8753882 -43.30793 5.399013
v 0.8753882 -43.30793 5.399013
v 1.928917 -41.83923 5.383079
v 0.852756 -43.22824 5.591464
v 0.852756 -43.22824 5.591464
v 1.928917 -41.83923 5.383079
v 1.510811 -42.11581 5.9184
v 1.324916 -42.65292 4.868295
v 1.909564 -41.76407 5.280881
v 1.581455 -42.43536 5.195343
v 1.581455 -42.43536 5.195343
v 1.909564 -41.76407 5.280881
v 1.928917 -41.83923 5.383079
v -2.324798 -41.87644 5.31238
v -2.659388 -41.81511 5.058141
v -1.642915 -42.02201 5.773385
v -1.642915 -42.02201 5.773385
v -2.659388 -41.81511 5.058141
v -1.40836 -42.07592 5.921291
v -1.40836 -42.07592 5.921291
v -2.659388 -41.81511 5.058141
v -1.287989 -42.10744 5.986524
v -1.287989 -42.10744 5.986524
v -2.659388 -41.81511 5.058141
v -0.2962019 -42.39596 6.44389
v -0.2962019 -42.39596 6.44389
v -2.659388 -41.81511 5.058141
v 0.2087681 -42.5599 6.629477
v 0.2087681 -42.5599 6.629477
v -2.659388 -41.81511 5.058141
v 0.852756 -43.22824 5.591464
v 0.852756 -43.22824 5.591464
v -2.659388 -41.81511 5.058141
v 0.8753882 -43.30793 5.399013
v 0.8753882 -43.30793 5.399013
v -2.659388 -41.81511 5.058141
v 0.5662003 -43.46351 4.574958
v 0.5662003 -43.46351 4.574958
v -2.659388 -41.81511 5.058141
v -2.034331 -42.44132 4.113068
v -2.034331 -42.44132 4.113068
v -2.659388 -41.81511 5.058141
v -2.753922 -41.80112 4.97704
v -2.233335 -42.23186 4.199132
v -2.77851 -41.75334 4.884384
v -2.277683 -41.36112 4.440823
v -2.277683 -41.36112 4.440823
v -2.77851 -41.75334 4.884384
v -2.412415 -41.45283 4.563237
v -2.412415 -41.45283 4.563237
v -2.77851 -41.75334 4.884384
v -2.702062 -41.68377 4.818846
v 1.47048 -42.12462 5.944245
v 0.9677985 -42.27849 6.232365
v 1.510811 -42.11581 5.9184
v 1.510811 -42.11581 5.9184
v 0.9677985 -42.27849 6.232365
v 0.852756 -43.22824 5.591464
v 0.852756 -43.22824 5.591464
v 0.9677985 -42.27849 6.232365
v 0.2087681 -42.5599 6.629477
v 0.2087681 -42.5599 6.629477
v 0.9677985 -42.27849 6.232365
v 0.2763532 -42.52964 6.598134

vn -0.2261556 0.8363472 0.4993767
vn -0.2261556 0.8363472 0.4993767
vn -0.2261556 0.8363472 0.4993767
vn -0.2261556 0.8363472 0.4993767
vn -0.2261556 0.8363472 0.4993767
vn -0.2261556 0.8363472 0.4993767
vn -0.2261556 0.8363472 0.4993767
vn -0.2261556 0.8363472 0.4993767
vn -0.2261556 0.8363472 0.4993767
vn -0.308623 0.8095537 0.4993744
vn -0.308623 0.8095537 0.4993744
vn -0.308623 0.8095537 0.4993744
vn -0.308623 0.8095537 0.4993744
vn -0.308623 0.8095537 0.4993744
vn -0.308623 0.8095537 0.4993744
vn -0.2045345 0.7695851 0.6049002
vn -0.2045345 0.7695851 0.6049002
vn -0.2045345 0.7695851 0.6049002
vn -0.1553253 0.7463491 0.6471761
vn -0.1553253 0.7463491 0.6471761
vn -0.1553253 0.7463491 0.6471761
vn -0.0706614 0.7673612 0.6373098
vn -0.0706614 0.7673612 0.6373098
vn -0.0706614 0.7673612 0.6373098
vn -0.0706614 0.7673612 0.6373098
vn -0.0706614 0.7673612 0.6373098
vn -0.0706614 0.7673612 0.6373098
vn -0.01231014 0.7325568 0.6805947
vn -0.01231014 0.7325568 0.6805947
vn -0.01231014 0.7325568 0.6805947
vn -0.01231014 0.7325568 0.6805947
vn -0.01231014 0.7325568 0.6805947
vn -0.01231014 0.7325568 0.6805947
vn 0.07718012 0.7478243 0.6593953
vn 0.07718012 0.7478243 0.6593953
vn 0.07718012 0.7478243 0.6593953
vn -0.1874212 0.8225359 0.5369434
vn -0.1874212 0.8225359 0.5369434
vn -0.1874212 0.8225359 0.5369434
vn -0.1874212 0.8225359 0.5369434
vn -0.1874212 0.8225359 0.5369434
vn -0.1874212 0.8225359 0.5369434
vn -0.1027115 0.8435649 0.5271136
vn -0.1027115 0.8435649 0.5271136
vn -0.1027115 0.8435649 0.5271136
vn -0.05353294 0.820307 0.5694125
vn -0.05353294 0.820307 0.5694125
vn -0.05353294 0.820307 0.5694125
vn 0.03556905 0.8355082 0.5483254
vn 0.03556905 0.8355082 0.5483254
vn 0.03556905 0.8355082 0.5483254
vn 0.09424844 0.800477 0.591907
vn 0.09424844 0.800477 0.591907
vn 0.09424844 0.800477 0.591907
vn 0.09424844 0.800477 0.591907
vn 0.09424844 0.800477 0.591907
vn 0.09424844 0.800477 0.591907
vn 0.1821897 0.8082769 0.5599067
vn 0.1821897 0.8082769 0.5599067
vn 0.1821897 0.8082769 0.5599067
vn 0.1821897 0.8082769 0.5599067
vn 0.1821897 0.8082769 0.5599067
vn 0.1821897 0.8082769 0.5599067
vn 0.1821897 0.8082769 0.5599067
vn 0.1821897 0.8082769 0.5599067
vn 0.1821897 0.8082769 0.5599067
vn 0.1821897 0.8082769 0.5599067
vn 0.1821897 0.8082769 0.5599067
vn 0.1821897 0.8082769 0.5599067
vn -0.2120682 0.8797053 0.4256122
vn -0.2120682 0.8797053 0.4256122
vn -0.2120682 0.8797053 0.4256122
vn -0.2120682 0.8797053 0.4256122
vn -0.2120682 0.8797053 0.4256122
vn -0.2120682 0.8797053 0.4256122
vn -0.1627541 0.8984621 0.4077708
vn -0.1627541 0.8984621 0.4077708
vn -0.1627541 0.8984621 0.4077708
vn -0.08864682 0.8868523 0.4534698
vn -0.08864682 0.8868523 0.4534698
vn -0.08864682 0.8868523 0.4534698
vn -0.08864682 0.8868523 0.4534698
vn -0.08864682 0.8868523 0.4534698
vn -0.08864682 0.8868523 0.4534698
vn -0.02659504 0.9032166 0.4283603
vn -0.02659504 0.9032166 0.4283603
vn -0.02659504 0.9032166 0.4283603
vn -0.02659504 0.9032166 0.4283603
vn -0.02659504 0.9032166 0.4283603
vn -0.02659504 0.9032166 0.4283603
vn 0.04950673 0.8784028 0.47535
vn 0.04950673 0.8784028 0.47535
vn 0.04950673 0.8784028 0.47535
vn 0.04950673 0.8784028 0.47535
vn 0.04950673 0.8784028 0.47535
vn 0.04950673 0.8784028 0.47535
vn 0.1228234 0.8884271 0.4422802
vn 0.1228234 0.8884271 0.4422802
vn 0.1228234 0.8884271 0.4422802
vn 0.1960119 0.8508184 0.4875321
vn 0.1960119 0.8508184 0.4875321
vn 0.1960119 0.8508184 0.4875321
vn 0.748879 -0.6432164 -0.1595397
vn 0.748879 -0.6432164 -0.1595397
vn 0.748879 -0.6432164 -0.1595397
vn 0.748879 -0.6432164 -0.1595397
vn 0.748879 -0.6432164 -0.1595397
vn 0.748879 -0.6432164 -0.1595397
vn 0.748879 -0.6432164 -0.1595397
vn 0.748879 -0.6432164 -0.1595397
vn 0.748879 -0.6432164 -0.1595397
vn 0.748879 -0.6432164 -0.1595397
vn 0.748879 -0.6432164 -0.1595397
vn 0.748879 -0.6432164 -0.1595397
vn 0.5690318 -0.6707964 -0.4756418
vn 0.5690318 -0.6707964 -0.4756418
vn 0.5690318 -0.6707964 -0.4756418
vn 0.5251458 0.04894981 -0.8496034
vn 0.5251458 0.04894981 -0.8496034
vn 0.5251458 0.04894981 -0.8496034
vn 0.5251458 0.04894981 -0.8496034
vn 0.5251458 0.04894981 -0.8496034
vn 0.5251458 0.04894981 -0.8496034
vn 0.5251458 0.04894981 -0.8496034
vn 0.5251458 0.04894981 -0.8496034
vn 0.5251458 0.04894981 -0.8496034
vn 0.5251458 0.04894981 -0.8496034
vn 0.5251458 0.04894981 -0.8496034
vn 0.5251458 0.04894981 -0.8496034
vn 0.5251458 0.04894981 -0.8496034
vn 0.5251458 0.04894981 -0.8496034
vn 0.5251458 0.04894981 -0.8496034
vn 0.5251458 0.04894981 -0.8496034
vn 0.5251458 0.04894981 -0.8496034
vn 0.5251458 0.04894981 -0.8496034
vn 0.5251458 0.04894981 -0.8496034
vn 0.5251458 0.04894981 -0.8496034
vn 0.5251458 0.04894981 -0.8496034
vn 0.5251458 0.04894981 -0.8496034
vn 0.5251458 0.04894981 -0.8496034
vn 0.5251458 0.04894981 -0.8496034
vn -0.185028 0.2540806 -0.9493197
vn -0.185028 0.2540806 -0.9493197
vn -0.185028 0.2540806 -0.9493197
vn -0.185028 0.2540806 -0.9493197
vn -0.185028 0.2540806 -0.9493197
vn -0.185028 0.2540806 -0.9493197
vn -0.185028 0.2540806 -0.9493197
vn -0.185028 0.2540806 -0.9493197
vn -0.185028 0.2540806 -0.9493197
vn -0.185028 0.2540806 -0.9493197
vn -0.185028 0.2540806 -0.9493197
vn -0.185028 0.2540806 -0.9493197
vn -0.185028 0.2540806 -0.9493197
vn -0.185028 0.2540806 -0.9493197
vn -0.185028 0.2540806 -0.9493197
vn -0.185028 0.2540806 -0.9493197
vn -0.185028 0.2540806 -0.9493197
vn -0.185028 0.2540806 -0.9493197
vn -0.7457564 -0.651724 -0.1382141
vn -0.7457564 -0.651724 -0.1382141
vn -0.7457564 -0.651724 -0.1382141
vn -0.7457564 -0.651724 -0.1382141
vn -0.7457564 -0.651724 -0.1382141
vn -0.7457564 -0.651724 -0.1382141
vn -0.7457564 -0.651724 -0.1382141
vn -0.7457564 -0.651724 -0.1382141
vn -0.7457564 -0.651724 -0.1382141
vn -0.0559615 -0.5258768 -0.8487179
vn -0.0559615 -0.5258768 -0.8487179
vn -0.0559615 -0.5258768 -0.8487179
vn -0.0559615 -0.5258768 -0.8487179
vn -0.0559615 -0.5258768 -0.8487179
vn -0.0559615 -0.5258768 -0.8487179
vn -0.0559615 -0.5258768 -0.8487179
vn -0.0559615 -0.5258768 -0.8487179
vn -0.0559615 -0.5258768 -0.8487179
vn -0.0559615 -0.5258768 -0.8487179
vn -0.0559615 -0.5258768 -0.8487179
vn -0.0559615 -0.5258768 -0.8487179
vn 0.7718547 -0.5502198 0.3185882
vn 0.7718547 -0.5502198 0.3185882
vn 0.7718547 -0.5502198 0.3185882
vn 0.7718547 -0.5502198 0.3185882
vn 0.7718547 -0.5502198 0.3185882
vn 0.7718547 -0.5502198 0.3185882
vn 0.7718547 -0.5502198 0.3185882
vn 0.7718547 -0.5502198 0.3185882
vn 0.7718547 -0.5502198 0.3185882
vn 0.8355733 -0.3549935 -0.4192818
vn 0.8355733 -0.3549935 -0.4192818
vn 0.8355733 -0.3549935 -0.4192818
vn 0.8355733 -0.3549935 -0.4192818
vn 0.8355733 -0.3549935 -0.4192818
vn 0.8355733 -0.3549935 -0.4192818
vn -0.3950372 -0.8642784 0.3113976
vn -0.3950372 -0.8642784 0.3113976
vn -0.3950372 -0.8642784 0.3113976
vn -0.3950372 -0.8642784 0.3113976
vn -0.3950372 -0.8642784 0.3113976
vn -0.3950372 -0.8642784 0.3113976
vn -0.3950372 -0.8642784 0.3113976
vn -0.3950372 -0.8642784 0.3113976
vn -0.3950372 -0.8642784 0.3113976
vn -0.3950372 -0.8642784 0.3113976
vn -0.3950372 -0.8642784 0.3113976
vn -0.3950372 -0.8642784 0.3113976
vn -0.3950372 -0.8642784 0.3113976
vn -0.3950372 -0.8642784 0.3113976
vn -0.3950372 -0.8642784 0.3113976
vn -0.3950372 -0.8642784 0.3113976
vn -0.3950372 -0.8642784 0.3113976
vn -0.3950372 -0.8642784 0.3113976
vn -0.3950372 -0.8642784 0.3113976
vn -0.3950372 -0.8642784 0.3113976
vn -0.3950372 -0.8642784 0.3113976
vn -0.3950372 -0.8642784 0.3113976
vn -0.3950372 -0.8642784 0.3113976
vn -0.3950372 -0.8642784 0.3113976
vn -0.3950372 -0.8642784 0.3113976
vn -0.3950372 -0.8642784 0.3113976
vn -0.3950372 -0.8642784 0.3113976
vn -0.3950372 -0.8642784 0.3113976
vn -0.3950372 -0.8642784 0.3113976
vn -0.3950372 -0.8642784 0.3113976
vn -0.7192097 0.1515791 -0.678057
vn -0.7192097 0.1515791 -0.678057
vn -0.7192097 0.1515791 -0.678057
vn -0.7192097 0.1515791 -0.678057
vn -0.7192097 0.1515791 -0.678057
vn -0.7192097 0.1515791 -0.678057
vn -0.7192097 0.1515791 -0.678057
vn -0.7192097 0.1515791 -0.678057
vn -0.7192097 0.1515791 -0.678057
vn 0.539459 -0.5149157 0.6662176
vn 0.539459 -0.5149157 0.6662176
vn 0.539459 -0.5149157 0.6662176
vn 0.539459 -0.5149157 0.6662176
vn 0.539459 -0.5149157 0.6662176
vn 0.539459 -0.5149157 0.6662176
vn 0.539459 -0.5149157 0.6662176
vn 0.539459 -0.5149157 0.6662176
vn 0.539459 -0.5149157 0.6662176
vn 0.539459 -0.5149157 0.6662176
vn 0.539459 -0.5149157 0.6662176
vn 0.539459 -0.5149157 0.6662176

vt 0.4507377 0.3215154
vt 0.4481096 0.3260676
vt 0.4475943 0.314921
vt 0.4475943 0.314921
vt 0.4481096 0.3260676
vt 0.4318177 0.314921
vt 0.4318177 0.314921
vt 0.4481096 0.3260676
vt 0.4401827 0.3294097
vt 0.4583522 0.3215154
vt 0.4606883 0.3222918
vt 0.4609804 0.3260676
vt 0.4609804 0.3260676
vt 0.4606883 0.3222918
vt 0.4615581 0.3240974
vt 0.4261893 0.3346036
vt 0.4213792 0.3362058
vt 0.4204541 0.3346036
vt 0.4204541 0.3346036
vt 0.4213792 0.3362058
vt 0.4191842 0.3368032
vt 0.3977269 0.3346036
vt 0.4204541 0.3346036
vt 0.4018795 0.3417962
vt 0.4018795 0.3417962
vt 0.4204541 0.3346036
vt 0.4191842 0.3368032
vt 0.3938091 0.3436367
vt 0.3929982 0.342794
vt 0.4018795 0.3417962
vt 0.4018795 0.3417962
vt 0.3929982 0.342794
vt 0.3977269 0.3346036
vt 0.3847721 0.3346036
vt 0.3977269 0.3346036
vt 0.3929982 0.342794
vt 0.4318177 0.314921
vt 0.4401827 0.3294097
vt 0.4204541 0.3346036
vt 0.4204541 0.3346036
vt 0.4401827 0.3294097
vt 0.4261893 0.3346036
vt 0.4204541 0.3346036
vt 0.4090905 0.314921
vt 0.4318177 0.314921
vt 0.3977269 0.3346036
vt 0.4090905 0.314921
vt 0.4204541 0.3346036
vt 0.3977269 0.3346036
vt 0.3863633 0.314921
vt 0.4090905 0.314921
vt 0.3977269 0.3346036
vt 0.3847721 0.3346036
vt 0.3863633 0.314921
vt 0.3863633 0.314921
vt 0.3847721 0.3346036
vt 0.3786567 0.3282694
vt 0.3781407 0.3277696
vt 0.3737851 0.3177321
vt 0.3786567 0.3282694
vt 0.3786567 0.3282694
vt 0.3737851 0.3177321
vt 0.3863633 0.314921
vt 0.3863633 0.314921
vt 0.3737851 0.3177321
vt 0.3761708 0.314921
vt 0.3761708 0.314921
vt 0.3737851 0.3177321
vt 0.3744581 0.3158908
vt 0.4475943 0.314921
vt 0.4318177 0.314921
vt 0.4448651 0.3119381
vt 0.4448651 0.3119381
vt 0.4318177 0.314921
vt 0.4354719 0.3085917
vt 0.4264949 0.3057014
vt 0.4354719 0.3085917
vt 0.4318177 0.314921
vt 0.4318177 0.314921
vt 0.4090905 0.314921
vt 0.4264949 0.3057014
vt 0.4264949 0.3057014
vt 0.4090905 0.314921
vt 0.4164823 0.3021179
vt 0.4090905 0.314921
vt 0.4012014 0.3012566
vt 0.4164823 0.3021179
vt 0.4164823 0.3021179
vt 0.4012014 0.3012566
vt 0.4061779 0.2987278
vt 0.4090905 0.314921
vt 0.3863633 0.314921
vt 0.4012014 0.3012566
vt 0.4012014 0.3012566
vt 0.3863633 0.314921
vt 0.3913572 0.3062711
vt 0.3863633 0.314921
vt 0.3838422 0.3105544
vt 0.3913572 0.3062711
vt 0.3863633 0.314921
vt 0.3761708 0.314921
vt 0.3838422 0.3105544
vt 0.5323245 0.5518866
vt 0.526943 0.5541367
vt 0.5508787 0.5416579
vt 0.5508787 0.5416579
vt 0.526943 0.5541367
vt 0.5190675 0.458539
vt 0.5190675 0.458539
vt 0.526943 0.5541367
vt 0.4073345 0.4790855
vt 0.4073345 0.4790855
vt 0.526943 0.5541367
vt 0.4404161 0.512078
vt 0.5035228 0.4926988
vt 0.5027165 0.4921175
vt 0.5086231 0.4892861
vt 0.3255 0.4961771
vt 0.3783781 0.3690354
vt 0.3056848 0.5612527
vt 0.3056848 0.5612527
vt 0.3783781 0.3690354
vt 0.5349778 0.6584677
vt 0.5349778 0.6584677
vt 0.3783781 0.3690354
vt 0.7541967 0.4466039
vt 0.7541967 0.4466039
vt 0.3783781 0.3690354
vt 0.7538029 0.4450007
vt 0.7538029 0.4450007
vt 0.3783781 0.3690354
vt 0.6502969 0.2976359
vt 0.6502969 0.2976359
vt 0.3783781 0.3690354
vt 0.4954505 0.1518228
vt 0.4954505 0.1518228
vt 0.3783781 0.3690354
vt 0.4822122 0.172149
vt 0.4822122 0.172149
vt 0.3783781 0.3690354
vt 0.4252933 0.2684311
vt 0.4384238 0.5564431
vt 0.4307405 0.4969365
vt 0.448554 0.608393
vt 0.448554 0.608393
vt 0.4307405 0.4969365
vt 0.4606625 0.6563676
vt 0.4606625 0.6563676
vt 0.4307405 0.4969365
vt 0.5510569 0.6518486
vt 0.5510569 0.6518486
vt 0.4307405 0.4969365
vt 0.5727987 0.6322912
vt 0.5727987 0.6322912
vt 0.4307405 0.4969365
vt 0.5560728 0.4621814
vt 0.5560728 0.4621814
vt 0.4307405 0.4969365
vt 0.4266247 0.4288888
vt 0.6674448 0.5128843
vt 0.5960688 0.5815696
vt 0.6622601 0.5036025
vt 0.6622601 0.5036025
vt 0.5960688 0.5815696
vt 0.5674078 0.5901951
vt 0.5674078 0.5901951
vt 0.5960688 0.5815696
vt 0.5685235 0.5907013
vt 0.3051692 0.342076
vt 0.8059778 0.504437
vt 0.2880166 0.3777077
vt 0.2880166 0.3777077
vt 0.8059778 0.504437
vt 0.2841164 0.3871349
vt 0.2841164 0.3871349
vt 0.8059778 0.504437
vt 0.5032978 0.5978549
vt 0.5032978 0.5978549
vt 0.8059778 0.504437
vt 0.8074216 0.5062183
vt 0.4204415 0.5659405
vt 0.349178 0.5453987
vt 0.5366372 0.5436549
vt 0.5366372 0.5436549
vt 0.349178 0.5453987
vt 0.5312744 0.5225974
vt 0.5312744 0.5225974
vt 0.349178 0.5453987
vt 0.3977105 0.4868297
vt 0.4936316 0.4593359
vt 0.380286 0.4101237
vt 0.4610797 0.4203243
vt 0.4610797 0.4203243
vt 0.380286 0.4101237
vt 0.3869567 0.3979308
vt 0.6857646 0.5207691
vt 0.7198822 0.5484551
vt 0.6153449 0.4705866
vt 0.6153449 0.4705866
vt 0.7198822 0.5484551
vt 0.5909591 0.4544841
vt 0.5909591 0.4544841
vt 0.7198822 0.5484551
vt 0.578274 0.4473821
vt 0.578274 0.4473821
vt 0.7198822 0.5484551
vt 0.4725554 0.3975933
vt 0.4725554 0.3975933
vt 0.7198822 0.5484551
vt 0.4179898 0.377389
vt 0.4179898 0.377389
vt 0.7198822 0.5484551
vt 0.3286549 0.4903924
vt 0.3286549 0.4903924
vt 0.7198822 0.5484551
vt 0.3230999 0.5113467
vt 0.3230999 0.5113467
vt 0.7198822 0.5484551
vt 0.3454981 0.6010519
vt 0.3454981 0.6010519
vt 0.7198822 0.5484551
vt 0.6341429 0.6513329
vt 0.6341429 0.6513329
vt 0.7198822 0.5484551
vt 0.7293797 0.5572775
vt 0.3971995 0.4358361
vt 0.4447851 0.3111414
vt 0.5099357 0.3918554
vt 0.5099357 0.3918554
vt 0.4447851 0.3111414
vt 0.4942129 0.3695792
vt 0.4942129 0.3695792
vt 0.4447851 0.3111414
vt 0.4560029 0.3230671
vt 0.3492624 0.5549149
vt 0.4096877 0.503987
vt 0.344748 0.5594808
vt 0.344748 0.5594808
vt 0.4096877 0.503987
vt 0.5107232 0.6172716
vt 0.5107232 0.6172716
vt 0.4096877 0.503987
vt 0.5056136 0.4337829
vt 0.5056136 0.4337829
vt 0.4096877 0.503987
vt 0.4965756 0.4393238

usemtl Material0
usemap Material0
f 1/1/1 2/2/2 3/3/3
f 4/4/4 5/5/5 6/6/6
f 7/7/7 8/8/8 9/9/9
f 10/10/10 11/11/11 12/12/12
f 13/13/13 14/14/14 15/15/15
f 16/16/16 17/17/17 18/18/18
f 19/19/19 20/20/20 21/21/21
f 22/22/22 23/23/23 24/24/24
f 25/25/25 26/26/26 27/27/27
f 28/28/28 29/29/29 30/30/30
f 31/31/31 32/32/32 33/33/33
f 34/34/34 35/35/35 36/36/36
f 37/37/37 38/38/38 39/39/39
f 40/40/40 41/41/41 42/42/42
f 43/43/43 44/44/44 45/45/45
f 46/46/46 47/47/47 48/48/48
f 49/49/49 50/50/50 51/51/51
f 52/52/52 53/53/53 54/54/54
f 55/55/55 56/56/56 57/57/57
f 58/58/58 59/59/59 60/60/60
f 61/61/61 62/62/62 63/63/63
f 64/64/64 65/65/65 66/66/66
f 67/67/67 68/68/68 69/69/69
f 70/70/70 71/71/71 72/72/72
f 73/73/73 74/74/74 75/75/75
f 76/76/76 77/77/77 78/78/78
f 79/79/79 80/80/80 81/81/81
f 82/82/82 83/83/83 84/84/84
f 85/85/85 86/86/86 87/87/87
f 88/88/88 89/89/89 90/90/90
f 91/91/91 92/92/92 93/93/93
f 94/94/94 95/95/95 96/96/96
f 97/97/97 98/98/98 99/99/99
f 100/100/100 101/101/101 102/102/102

usemtl Material1
usemap Material1
f 103/103/103 104/104/104 105/105/105
f 106/106/106 107/107/107 108/108/108
f 109/109/109 110/110/110 111/111/111
f 112/112/112 113/113/113 114/114/114
f 115/115/115 116/116/116 117/117/117
f 118/118/118 119/119/119 120/120/120
f 121/121/121 122/122/122 123/123/123
f 124/124/124 125/125/125 126/126/126
f 127/127/127 128/128/128 129/129/129
f 130/130/130 131/131/131 132/132/132
f 133/133/133 134/134/134 135/135/135
f 136/136/136 137/137/137 138/138/138
f 139/139/139 140/140/140 141/141/141
f 142/142/142 143/143/143 144/144/144
f 145/145/145 146/146/146 147/147/147
f 148/148/148 149/149/149 150/150/150
f 151/151/151 152/152/152 153/153/153
f 154/154/154 155/155/155 156/156/156
f 157/157/157 158/158/158 159/159/159
f 160/160/160 161/161/161 162/162/162
f 163/163/163 164/164/164 165/165/165
f 166/166/166 167/167/167 168/168/168
f 169/169/169 170/170/170 171/171/171
f 172/172/172 173/173/173 174/174/174
f 175/175/175 176/176/176 177/177/177
f 178/178/178 179/179/179 180/180/180
f 181/181/181 182/182/182 183/183/183
f 184/184/184 185/185/185 186/186/186
f 187/187/187 188/188/188 189/189/189
f 190/190/190 191/191/191 192/192/192
f 193/193/193 194/194/194 195/195/195
f 196/196/196 197/197/197 198/198/198
f 199/199/199 200/200/200 201/201/201
f 202/202/202 203/203/203 204/204/204
f 205/205/205 206/206/206 207/207/207
f 208/208/208 209/209/209 210/210/210
f 211/211/211 212/212/212 213/213/213
f 214/214/214 215/215/215 216/216/216
f 217/217/217 218/218/218 219/219/219
f 220/220/220 221/221/221 222/222/222
f 223/223/223 224/224/224 225/225/225
f 226/226/226 227/227/227 228/228/228
f 229/229/229 230/230/230 231/231/231
f 232/232/232 233/233/233 234/234/234
f 235/235/235 236/236/236 237/237/237
f 238/238/238 239/239/239 240/240/240
f 241/241/241 242/242/242 243/243/243
f 244/244/244 245/245/245 246/246/246
