g  Instance
v -0.4707322 -53.70106 -0.4931875
v -1.70491 -55.34127 -0.1347308
v -0.4072798 -55.21891 0.8632562
v -0.4072798 -55.21891 0.8632562
v -1.70491 -55.34127 -0.1347308
v -0.6886359 -55.88756 1.197889
v -0.6886359 -55.88756 1.197889
v -1.70491 -55.34127 -0.1347308
v -1.662822 -56.24864 0.6796867
v 0.5768804 -53.9019 -0.5100592
v 0.08296219 -54.08415 -1.164921
v 0.1871354 -53.44669 -0.317651
v 0.1871354 -53.44669 -0.317651
v 0.08296219 -54.08415 -1.164921
v -0.2094162 -53.39135 -0.6046774
v -0.2094162 -53.39135 -0.6046774
v 0.08296219 -54.08415 -1.164921
v -0.2030427 -53.45702 -0.6767649
v 0.5768804 -53.9019 -0.5100592
v 0.1871354 -53.44669 -0.317651
v 0.6820374 -54.03219 -0.4663225
v 0.6820374 -54.03219 -0.4663225
v 0.1871354 -53.44669 -0.317651
v 0.3453889 -53.65949 -0.03749412
v 0.1344706 -56.76481 0.1501905
v -0.01909906 -56.78848 0.3411105
v -0.6018974 -56.75377 -0.5629263
v -0.1941701 -56.57252 -0.6480414
v 0.4251603 -54.80452 -1.190427
v 0.2013443 -56.70851 0.06816773
v 0.2013443 -56.70851 0.06816773
v 0.4251603 -54.80452 -1.190427
v 0.8321826 -54.68724 -0.6694356
v -0.3250463 -56.66637 0.7255812
v -0.6886359 -55.88756 1.197889
v -1.570823 -56.37203 0.6138657
v -1.570823 -56.37203 0.6138657
v -0.6886359 -55.88756 1.197889
v -1.662822 -56.24864 0.6796867
v -1.662822 -56.24864 0.6796867
v -1.70491 -55.34127 -0.1347308
v -1.570823 -56.37203 0.6138657
v -1.570823 -56.37203 0.6138657
v -1.70491 -55.34127 -0.1347308
v -0.7752749 -56.72334 -0.6655836
v -0.7752749 -56.72334 -0.6655836
v -1.70491 -55.34127 -0.1347308
v -1.14276 -55.48536 -1.142152
v 0.8321826 -54.68724 -0.6694356
v 0.6820374 -54.03219 -0.4663225
v 0.2013443 -56.70851 0.06816773
v 0.2013443 -56.70851 0.06816773
v 0.6820374 -54.03219 -0.4663225
v 0.1344706 -56.76481 0.1501905
v 0.1344706 -56.76481 0.1501905
v 0.6820374 -54.03219 -0.4663225
v -0.01909906 -56.78848 0.3411105
v -0.01909906 -56.78848 0.3411105
v 0.6820374 -54.03219 -0.4663225
v -0.3250463 -56.66637 0.7255812
v -0.3250463 -56.66637 0.7255812
v 0.6820374 -54.03219 -0.4663225
v -0.6886359 -55.88756 1.197889
v -0.6886359 -55.88756 1.197889
v 0.6820374 -54.03219 -0.4663225
v -0.4072798 -55.21891 0.8632562
v -0.4072798 -55.21891 0.8632562
v 0.6820374 -54.03219 -0.4663225
v 0.3453889 -53.65949 -0.03749412
v -0.2094162 -53.39135 -0.6046774
v -0.2030427 -53.45702 -0.6767649
v -0.4707322 -53.70106 -0.4931875
v -0.4707322 -53.70106 -0.4931875
v -0.2030427 -53.45702 -0.6767649
v -1.70491 -55.34127 -0.1347308
v -1.70491 -55.34127 -0.1347308
v -0.2030427 -53.45702 -0.6767649
v -1.14276 -55.48536 -1.142152
v -1.14276 -55.48536 -1.142152
v -0.2030427 -53.45702 -0.6767649
v -0.2854193 -54.3808 -1.424175
v -1.14276 -55.48536 -1.142152
v -0.2854193 -54.3808 -1.424175
v -0.7752749 -56.72334 -0.6655836
v -0.7752749 -56.72334 -0.6655836
v -0.2854193 -54.3808 -1.424175
v -0.6704785 -56.74671 -0.6447646
v -0.6704785 -56.74671 -0.6447646
v -0.2854193 -54.3808 -1.424175
v -0.1941701 -56.57252 -0.6480414
v -0.1941701 -56.57252 -0.6480414
v -0.2854193 -54.3808 -1.424175
v 0.4251603 -54.80452 -1.190427
v 0.4251603 -54.80452 -1.190427
v -0.2854193 -54.3808 -1.424175
v 0.020229 -54.3637 -1.393225
v -0.3250463 -56.66637 0.7255812
v -1.570823 -56.37203 0.6138657
v -0.01909906 -56.78848 0.3411105
v -0.01909906 -56.78848 0.3411105
v -1.570823 -56.37203 0.6138657
v -0.6018974 -56.75377 -0.5629263
v -0.6018974 -56.75377 -0.5629263
v -1.570823 -56.37203 0.6138657
v -0.6704785 -56.74671 -0.6447646
v -0.6704785 -56.74671 -0.6447646
v -1.570823 -56.37203 0.6138657
v -0.7752749 -56.72334 -0.6655836
v 0.2013443 -56.70851 0.06816773
v 0.1344706 -56.76481 0.1501905
v -0.1941701 -56.57252 -0.6480414
v -0.1941701 -56.57252 -0.6480414
v 0.1344706 -56.76481 0.1501905
v -0.6704785 -56.74671 -0.6447646
v -0.6704785 -56.74671 -0.6447646
v 0.1344706 -56.76481 0.1501905
v -0.6018974 -56.75377 -0.5629263
v 0.4251603 -54.80452 -1.190427
v 0.020229 -54.3637 -1.393225
v 0.8321826 -54.68724 -0.6694356
v 0.8321826 -54.68724 -0.6694356
v 0.020229 -54.3637 -1.393225
v 0.6820374 -54.03219 -0.4663225
v 0.6820374 -54.03219 -0.4663225
v 0.020229 -54.3637 -1.393225
v 0.5768804 -53.9019 -0.5100592
v 0.5768804 -53.9019 -0.5100592
v 0.020229 -54.3637 -1.393225
v 0.08296219 -54.08415 -1.164921
v -0.2094162 -53.39135 -0.6046774
v -0.4707322 -53.70106 -0.4931875
v 0.1871354 -53.44669 -0.317651
v 0.1871354 -53.44669 -0.317651
v -0.4707322 -53.70106 -0.4931875
v 0.3453889 -53.65949 -0.03749412
v 0.3453889 -53.65949 -0.03749412
v -0.4707322 -53.70106 -0.4931875
v -0.4072798 -55.21891 0.8632562
v -0.2030427 -53.45702 -0.6767649
v 0.08296219 -54.08415 -1.164921
v -0.2854193 -54.3808 -1.424175
v -0.2854193 -54.3808 -1.424175
v 0.08296219 -54.08415 -1.164921
v 0.020229 -54.3637 -1.393225

vn -0.5420634 0.5472459 0.6377219
vn -0.5420634 0.5472459 0.6377219
vn -0.5420634 0.5472459 0.6377219
vn -0.5420634 0.5472459 0.6377219
vn -0.5420634 0.5472459 0.6377219
vn -0.5420634 0.5472459 0.6377219
vn -0.5420634 0.5472459 0.6377219
vn -0.5420634 0.5472459 0.6377219
vn -0.5420634 0.5472459 0.6377219
vn 0.497615 0.6626359 -0.5597259
vn 0.497615 0.6626359 -0.5597259
vn 0.497615 0.6626359 -0.5597259
vn 0.497615 0.6626359 -0.5597259
vn 0.497615 0.6626359 -0.5597259
vn 0.497615 0.6626359 -0.5597259
vn 0.497615 0.6626359 -0.5597259
vn 0.497615 0.6626359 -0.5597259
vn 0.497615 0.6626359 -0.5597259
vn 0.7689652 0.6373525 0.04974176
vn 0.7689652 0.6373525 0.04974176
vn 0.7689652 0.6373525 0.04974176
vn 0.7689652 0.6373525 0.04974176
vn 0.7689652 0.6373525 0.04974176
vn 0.7689652 0.6373525 0.04974176
vn 0.05876285 -0.9953673 -0.0760992
vn 0.05876285 -0.9953673 -0.0760992
vn 0.05876285 -0.9953673 -0.0760992
vn 0.7589223 -0.4188181 -0.4986266
vn 0.7589223 -0.4188181 -0.4986266
vn 0.7589223 -0.4188181 -0.4986266
vn 0.7589223 -0.4188181 -0.4986266
vn 0.7589223 -0.4188181 -0.4986266
vn 0.7589223 -0.4188181 -0.4986266
vn -0.2070351 -0.5761576 0.7906826
vn -0.2070351 -0.5761576 0.7906826
vn -0.2070351 -0.5761576 0.7906826
vn -0.2070351 -0.5761576 0.7906826
vn -0.2070351 -0.5761576 0.7906826
vn -0.2070351 -0.5761576 0.7906826
vn -0.8236865 -0.3994405 -0.4024773
vn -0.8236865 -0.3994405 -0.4024773
vn -0.8236865 -0.3994405 -0.4024773
vn -0.8236865 -0.3994405 -0.4024773
vn -0.8236865 -0.3994405 -0.4024773
vn -0.8236865 -0.3994405 -0.4024773
vn -0.8236865 -0.3994405 -0.4024773
vn -0.8236865 -0.3994405 -0.4024773
vn -0.8236865 -0.3994405 -0.4024773
vn 0.7800386 -0.0151727 0.6255475
vn 0.7800386 -0.0151727 0.6255475
vn 0.7800386 -0.0151727 0.6255475
vn 0.7800386 -0.0151727 0.6255475
vn 0.7800386 -0.0151727 0.6255475
vn 0.7800386 -0.0151727 0.6255475
vn 0.7800386 -0.0151727 0.6255475
vn 0.7800386 -0.0151727 0.6255475
vn 0.7800386 -0.0151727 0.6255475
vn 0.7800386 -0.0151727 0.6255475
vn 0.7800386 -0.0151727 0.6255475
vn 0.7800386 -0.0151727 0.6255475
vn 0.7800386 -0.0151727 0.6255475
vn 0.7800386 -0.0151727 0.6255475
vn 0.7800386 -0.0151727 0.6255475
vn 0.7800386 -0.0151727 0.6255475
vn 0.7800386 -0.0151727 0.6255475
vn 0.7800386 -0.0151727 0.6255475
vn 0.7800386 -0.0151727 0.6255475
vn 0.7800386 -0.0151727 0.6255475
vn 0.7800386 -0.0151727 0.6255475
vn -0.7473479 0.4569159 -0.482389
vn -0.7473479 0.4569159 -0.482389
vn -0.7473479 0.4569159 -0.482389
vn -0.7473479 0.4569159 -0.482389
vn -0.7473479 0.4569159 -0.482389
vn -0.7473479 0.4569159 -0.482389
vn -0.7473479 0.4569159 -0.482389
vn -0.7473479 0.4569159 -0.482389
vn -0.7473479 0.4569159 -0.482389
vn -0.7473479 0.4569159 -0.482389
vn -0.7473479 0.4569159 -0.482389
vn -0.7473479 0.4569159 -0.482389
vn 0.1133057 -0.3274693 -0.9380435
vn 0.1133057 -0.3274693 -0.9380435
vn 0.1133057 -0.3274693 -0.9380435
vn 0.1133057 -0.3274693 -0.9380435
vn 0.1133057 -0.3274693 -0.9380435
vn 0.1133057 -0.3274693 -0.9380435
vn 0.1133057 -0.3274693 -0.9380435
vn 0.1133057 -0.3274693 -0.9380435
vn 0.1133057 -0.3274693 -0.9380435
vn 0.1133057 -0.3274693 -0.9380435
vn 0.1133057 -0.3274693 -0.9380435
vn 0.1133057 -0.3274693 -0.9380435
vn 0.1133057 -0.3274693 -0.9380435
vn 0.1133057 -0.3274693 -0.9380435
vn 0.1133057 -0.3274693 -0.9380435
vn -0.2382629 -0.9641781 0.116582
vn -0.2382629 -0.9641781 0.116582
vn -0.2382629 -0.9641781 0.116582
vn -0.2382629 -0.9641781 0.116582
vn -0.2382629 -0.9641781 0.116582
vn -0.2382629 -0.9641781 0.116582
vn -0.2382629 -0.9641781 0.116582
vn -0.2382629 -0.9641781 0.116582
vn -0.2382629 -0.9641781 0.116582
vn -0.2382629 -0.9641781 0.116582
vn -0.2382629 -0.9641781 0.116582
vn -0.2382629 -0.9641781 0.116582
vn 0.3203744 -0.8824309 -0.3444939
vn 0.3203744 -0.8824309 -0.3444939
vn 0.3203744 -0.8824309 -0.3444939
vn 0.3203744 -0.8824309 -0.3444939
vn 0.3203744 -0.8824309 -0.3444939
vn 0.3203744 -0.8824309 -0.3444939
vn 0.3203744 -0.8824309 -0.3444939
vn 0.3203744 -0.8824309 -0.3444939
vn 0.3203744 -0.8824309 -0.3444939
vn 0.6970402 0.3531931 -0.624011
vn 0.6970402 0.3531931 -0.624011
vn 0.6970402 0.3531931 -0.624011
vn 0.6970402 0.3531931 -0.624011
vn 0.6970402 0.3531931 -0.624011
vn 0.6970402 0.3531931 -0.624011
vn 0.6970402 0.3531931 -0.624011
vn 0.6970402 0.3531931 -0.624011
vn 0.6970402 0.3531931 -0.624011
vn 0.6970402 0.3531931 -0.624011
vn 0.6970402 0.3531931 -0.624011
vn 0.6970402 0.3531931 -0.624011
vn -0.4141597 0.5968308 0.6872153
vn -0.4141597 0.5968308 0.6872153
vn -0.4141597 0.5968308 0.6872153
vn -0.4141597 0.5968308 0.6872153
vn -0.4141597 0.5968308 0.6872153
vn -0.4141597 0.5968308 0.6872153
vn -0.4141597 0.5968308 0.6872153
vn -0.4141597 0.5968308 0.6872153
vn -0.4141597 0.5968308 0.6872153
vn 0.04381603 0.6260183 -0.7785764
vn 0.04381603 0.6260183 -0.7785764
vn 0.04381603 0.6260183 -0.7785764
vn 0.04381603 0.6260183 -0.7785764
vn 0.04381603 0.6260183 -0.7785764
vn 0.04381603 0.6260183 -0.7785764

vt 0.6237548 0.6359196
vt 0.3645164 0.5765255
vt 0.4931722 0.4111644
vt 0.4931722 0.4111644
vt 0.3645164 0.5765255
vt 0.4076017 0.3557174
vt 0.4076017 0.3557174
vt 0.3645164 0.5765255
vt 0.2868353 0.4415833
vt 0.4610845 0.4129739
vt 0.4272153 0.5067246
vt 0.3916867 0.3854285
vt 0.3916867 0.3854285
vt 0.4272153 0.5067246
vt 0.3501249 0.4265215
vt 0.3501249 0.4265215
vt 0.4272153 0.5067246
vt 0.355408 0.436844
vt 0.4276278 0.5340543
vt 0.368651 0.5150875
vt 0.44411 0.5297415
vt 0.44411 0.5297415
vt 0.368651 0.5150875
vt 0.394715 0.4874766
vt 0.4596125 0.4509917
vt 0.4748665 0.4321093
vt 0.5320151 0.5215004
vt 0.6019754 0.5051308
vt 0.3924742 0.5760942
vt 0.5937999 0.4114222
vt 0.5937999 0.4114222
vt 0.3924742 0.5760942
vt 0.3585254 0.507934
vt 0.4326156 0.5578026
vt 0.52984 0.4339235
vt 0.6368524 0.5871011
vt 0.6368524 0.5871011
vt 0.52984 0.4339235
vt 0.6574505 0.5698407
vt 0.4750118 0.3386211
vt 0.5646607 0.4341626
vt 0.4587781 0.3463419
vt 0.4587781 0.3463419
vt 0.5646607 0.4341626
vt 0.3875568 0.4964396
vt 0.3875568 0.4964396
vt 0.5646607 0.4341626
vt 0.5244021 0.552346
vt 0.3960041 0.6262909
vt 0.3138463 0.5934858
vt 0.6522096 0.5071558
vt 0.6522096 0.5071558
vt 0.3138463 0.5934858
vt 0.6594662 0.4939082
vt 0.6594662 0.4939082
vt 0.3138463 0.5934858
vt 0.6628227 0.4630721
vt 0.6628227 0.4630721
vt 0.3138463 0.5934858
vt 0.6481875 0.4009778
vt 0.6481875 0.4009778
vt 0.3138463 0.5934858
vt 0.5509537 0.3246984
vt 0.5509537 0.3246984
vt 0.3138463 0.5934858
vt 0.4660254 0.3787438
vt 0.4660254 0.3787438
vt 0.3138463 0.5934858
vt 0.2677186 0.5242193
vt 0.685849 0.4804824
vt 0.679933 0.4897174
vt 0.6408933 0.4661988
vt 0.6408933 0.4661988
vt 0.679933 0.4897174
vt 0.4115863 0.4202727
vt 0.4115863 0.4202727
vt 0.679933 0.4897174
vt 0.430703 0.5493458
vt 0.430703 0.5493458
vt 0.679933 0.4897174
vt 0.5866557 0.5854791
vt 0.4609016 0.5795256
vt 0.3485217 0.4941332
vt 0.5920936 0.5429236
vt 0.5920936 0.5429236
vt 0.3485217 0.4941332
vt 0.5949531 0.5324886
vt 0.5949531 0.5324886
vt 0.3485217 0.4941332
vt 0.5785741 0.4850483
vt 0.5785741 0.4850483
vt 0.3485217 0.4941332
vt 0.3957275 0.4233666
vt 0.3957275 0.4233666
vt 0.3485217 0.4941332
vt 0.347931 0.4636955
vt 0.4670004 0.4189976
vt 0.5937062 0.4301264
vt 0.4347017 0.4573155
vt 0.4347017 0.4573155
vt 0.5937062 0.4301264
vt 0.4915315 0.5474144
vt 0.4915315 0.5474144
vt 0.5937062 0.4301264
vt 0.4982913 0.5555711
vt 0.4982913 0.5555711
vt 0.5937062 0.4301264
vt 0.5089138 0.5576432
vt 0.4915128 0.4197805
vt 0.5001101 0.41063
vt 0.5255929 0.4996742
vt 0.5255929 0.4996742
vt 0.5001101 0.41063
vt 0.578696 0.4993085
vt 0.578696 0.4993085
vt 0.5001101 0.41063
vt 0.5721987 0.4901768
vt 0.4603532 0.5240693
vt 0.3878521 0.556715
vt 0.4703428 0.4401911
vt 0.4703428 0.4401911
vt 0.3878521 0.556715
vt 0.3882834 0.4074939
vt 0.3882834 0.4074939
vt 0.3878521 0.556715
vt 0.3676853 0.4145349
vt 0.3676853 0.4145349
vt 0.3878521 0.556715
vt 0.3600489 0.5199628
vt 0.6505595 0.6875319
vt 0.5976158 0.6667651
vt 0.6903868 0.6340538
vt 0.6903868 0.6340538
vt 0.5976158 0.6667651
vt 0.6915587 0.5818695
vt 0.6915587 0.5818695
vt 0.5976158 0.6667651
vt 0.4875657 0.4140708
vt 0.4763103 0.3044051
vt 0.5278711 0.4262637
vt 0.4735399 0.490983
vt 0.4735399 0.490983
vt 0.5278711 0.4262637
vt 0.5211207 0.4832576

usemtl Material0
usemap Material0

usemtl Material1
usemap Material1
f 1/1/1 2/2/2 3/3/3
f 4/4/4 5/5/5 6/6/6
f 7/7/7 8/8/8 9/9/9
f 10/10/10 11/11/11 12/12/12
f 13/13/13 14/14/14 15/15/15
f 16/16/16 17/17/17 18/18/18
f 19/19/19 20/20/20 21/21/21
f 22/22/22 23/23/23 24/24/24
f 25/25/25 26/26/26 27/27/27
f 28/28/28 29/29/29 30/30/30
f 31/31/31 32/32/32 33/33/33
f 34/34/34 35/35/35 36/36/36
f 37/37/37 38/38/38 39/39/39
f 40/40/40 41/41/41 42/42/42
f 43/43/43 44/44/44 45/45/45
f 46/46/46 47/47/47 48/48/48
f 49/49/49 50/50/50 51/51/51
f 52/52/52 53/53/53 54/54/54
f 55/55/55 56/56/56 57/57/57
f 58/58/58 59/59/59 60/60/60
f 61/61/61 62/62/62 63/63/63
f 64/64/64 65/65/65 66/66/66
f 67/67/67 68/68/68 69/69/69
f 70/70/70 71/71/71 72/72/72
f 73/73/73 74/74/74 75/75/75
f 76/76/76 77/77/77 78/78/78
f 79/79/79 80/80/80 81/81/81
f 82/82/82 83/83/83 84/84/84
f 85/85/85 86/86/86 87/87/87
f 88/88/88 89/89/89 90/90/90
f 91/91/91 92/92/92 93/93/93
f 94/94/94 95/95/95 96/96/96
f 97/97/97 98/98/98 99/99/99
f 100/100/100 101/101/101 102/102/102
f 103/103/103 104/104/104 105/105/105
f 106/106/106 107/107/107 108/108/108
f 109/109/109 110/110/110 111/111/111
f 112/112/112 113/113/113 114/114/114
f 115/115/115 116/116/116 117/117/117
f 118/118/118 119/119/119 120/120/120
f 121/121/121 122/122/122 123/123/123
f 124/124/124 125/125/125 126/126/126
f 127/127/127 128/128/128 129/129/129
f 130/130/130 131/131/131 132/132/132
f 133/133/133 134/134/134 135/135/135
f 136/136/136 137/137/137 138/138/138
f 139/139/139 140/140/140 141/141/141
f 142/142/142 143/143/143 144/144/144
