g  Instance
v -4.458807 -48.7959 0.8734879
v -5.551058 -48.43382 0.2385484
v -4.407589 -48.84698 0.8751532
v -4.407589 -48.84698 0.8751532
v -5.551058 -48.43382 0.2385484
v -4.818339 -49.32279 0.1320276
v -4.818339 -49.32279 0.1320276
v -5.551058 -48.43382 0.2385484
v -4.91608 -49.36799 0.01125209
v -4.91608 -49.36799 0.01125209
v -5.551058 -48.43382 0.2385484
v -5.18139 -49.46782 -0.2977335
v -3.906842 -48.74918 0.3642808
v -4.012846 -48.67657 0.7465832
v -4.818339 -49.32279 0.1320276
v -4.818339 -49.32279 0.1320276
v -4.012846 -48.67657 0.7465832
v -4.407589 -48.84698 0.8751532
v -6.098989 -48.17966 -1.988576
v -5.692321 -48.20392 -2.332708
v -5.193867 -49.46549 -0.3566229
v -5.193867 -49.46549 -0.3566229
v -5.692321 -48.20392 -2.332708
v -5.011093 -49.27705 -0.89934
v -5.011093 -49.27705 -0.89934
v -5.692321 -48.20392 -2.332708
v -4.575838 -48.73292 -2.377395
v -4.575838 -48.73292 -2.377395
v -5.692321 -48.20392 -2.332708
v -4.663621 -48.64129 -2.471288
v -5.011093 -49.27705 -0.89934
v -4.575838 -48.73292 -2.377395
v -4.91608 -49.36799 0.01125209
v -4.91608 -49.36799 0.01125209
v -4.575838 -48.73292 -2.377395
v -4.818339 -49.32279 0.1320276
v -4.818339 -49.32279 0.1320276
v -4.575838 -48.73292 -2.377395
v -3.906842 -48.74918 0.3642808
v -3.906842 -48.74918 0.3642808
v -4.575838 -48.73292 -2.377395
v -3.363598 -48.26745 -0.3197592
v -3.363598 -48.26745 -0.3197592
v -4.575838 -48.73292 -2.377395
v -4.05007 -48.421 -2.132015
v -4.05007 -48.421 -2.132015
v -4.575838 -48.73292 -2.377395
v -4.309216 -48.55707 -2.356875
v -3.363598 -48.26745 -0.3197592
v -3.226772 -47.79364 0.03434781
v -3.906842 -48.74918 0.3642808
v -3.906842 -48.74918 0.3642808
v -3.226772 -47.79364 0.03434781
v -4.012846 -48.67657 0.7465832
v -4.012846 -48.67657 0.7465832
v -3.226772 -47.79364 0.03434781
v -3.469787 -47.93986 0.4437984
v -4.753844 -45.86401 -1.611434
v -4.819215 -46.01334 -2.465997
v -4.943549 -45.89965 -0.1404873
v -4.943549 -45.89965 -0.1404873
v -4.819215 -46.01334 -2.465997
v -6.249681 -47.19436 -0.4373167
v -6.249681 -47.19436 -0.4373167
v -4.819215 -46.01334 -2.465997
v -6.398011 -47.48397 -1.887462
v -6.398011 -47.48397 -1.887462
v -4.819215 -46.01334 -2.465997
v -6.274029 -47.37705 -2.018
v -6.274029 -47.37705 -2.018
v -4.819215 -46.01334 -2.465997
v -5.504647 -46.66722 -2.367878
v -4.012846 -48.67657 0.7465832
v -3.469787 -47.93986 0.4437984
v -4.407589 -48.84698 0.8751532
v -4.407589 -48.84698 0.8751532
v -3.469787 -47.93986 0.4437984
v -4.458807 -48.7959 0.8734879
v -4.458807 -48.7959 0.8734879
v -3.469787 -47.93986 0.4437984
v -4.395442 -46.14772 0.195896
v -4.395442 -46.14772 0.195896
v -3.469787 -47.93986 0.4437984
v -4.064299 -46.27905 0.1567913
v -4.360318 -48.3264 -2.514862
v -4.663621 -48.64129 -2.471288
v -4.200913 -47.87343 -2.539521
v -4.200913 -47.87343 -2.539521
v -4.663621 -48.64129 -2.471288
v -4.19476 -46.13767 -2.550984
v -4.19476 -46.13767 -2.550984
v -4.663621 -48.64129 -2.471288
v -4.819215 -46.01334 -2.465997
v -4.819215 -46.01334 -2.465997
v -4.663621 -48.64129 -2.471288
v -5.504647 -46.66722 -2.367878
v -5.504647 -46.66722 -2.367878
v -4.663621 -48.64129 -2.471288
v -5.939264 -47.38582 -2.303803
v -5.939264 -47.38582 -2.303803
v -4.663621 -48.64129 -2.471288
v -5.692321 -48.20392 -2.332708
v -4.91608 -49.36799 0.01125209
v -5.18139 -49.46782 -0.2977335
v -5.011093 -49.27705 -0.89934
v -5.011093 -49.27705 -0.89934
v -5.18139 -49.46782 -0.2977335
v -5.193867 -49.46549 -0.3566229
v -5.939264 -47.38582 -2.303803
v -6.274029 -47.37705 -2.018
v -5.504647 -46.66722 -2.367878
v -4.067019 -46.09647 -2.213962
v -3.433771 -46.48194 -0.5338253
v -4.19476 -46.13767 -2.550984
v -4.19476 -46.13767 -2.550984
v -3.433771 -46.48194 -0.5338253
v -4.200913 -47.87343 -2.539521
v -4.200913 -47.87343 -2.539521
v -3.433771 -46.48194 -0.5338253
v -4.05007 -48.421 -2.132015
v -4.05007 -48.421 -2.132015
v -3.433771 -46.48194 -0.5338253
v -3.363598 -48.26745 -0.3197592
v -3.363598 -48.26745 -0.3197592
v -3.433771 -46.48194 -0.5338253
v -3.226772 -47.79364 0.03434781
v -4.200913 -47.87343 -2.539521
v -4.05007 -48.421 -2.132015
v -4.360318 -48.3264 -2.514862
v -4.360318 -48.3264 -2.514862
v -4.05007 -48.421 -2.132015
v -4.309216 -48.55707 -2.356875
v -5.193867 -49.46549 -0.3566229
v -5.18139 -49.46782 -0.2977335
v -6.098989 -48.17966 -1.988576
v -6.098989 -48.17966 -1.988576
v -5.18139 -49.46782 -0.2977335
v -6.398011 -47.48397 -1.887462
v -6.398011 -47.48397 -1.887462
v -5.18139 -49.46782 -0.2977335
v -6.249681 -47.19436 -0.4373167
v -6.249681 -47.19436 -0.4373167
v -5.18139 -49.46782 -0.2977335
v -5.551058 -48.43382 0.2385484
v -5.551058 -48.43382 0.2385484
v -4.458807 -48.7959 0.8734879
v -6.249681 -47.19436 -0.4373167
v -6.249681 -47.19436 -0.4373167
v -4.458807 -48.7959 0.8734879
v -4.943549 -45.89965 -0.1404873
v -4.943549 -45.89965 -0.1404873
v -4.458807 -48.7959 0.8734879
v -4.395442 -46.14772 0.195896
v -4.575838 -48.73292 -2.377395
v -4.663621 -48.64129 -2.471288
v -4.309216 -48.55707 -2.356875
v -4.309216 -48.55707 -2.356875
v -4.663621 -48.64129 -2.471288
v -4.360318 -48.3264 -2.514862
v -4.395442 -46.14772 0.195896
v -4.064299 -46.27905 0.1567913
v -4.943549 -45.89965 -0.1404873
v -4.943549 -45.89965 -0.1404873
v -4.064299 -46.27905 0.1567913
v -4.753844 -45.86401 -1.611434
v -4.753844 -45.86401 -1.611434
v -4.064299 -46.27905 0.1567913
v -4.067019 -46.09647 -2.213962
v -4.067019 -46.09647 -2.213962
v -4.064299 -46.27905 0.1567913
v -3.433771 -46.48194 -0.5338253
v -4.19476 -46.13767 -2.550984
v -4.819215 -46.01334 -2.465997
v -4.067019 -46.09647 -2.213962
v -4.067019 -46.09647 -2.213962
v -4.819215 -46.01334 -2.465997
v -4.753844 -45.86401 -1.611434
v -3.433771 -46.48194 -0.5338253
v -4.064299 -46.27905 0.1567913
v -3.226772 -47.79364 0.03434781
v -3.226772 -47.79364 0.03434781
v -4.064299 -46.27905 0.1567913
v -3.469787 -47.93986 0.4437984
v -5.692321 -48.20392 -2.332708
v -6.098989 -48.17966 -1.988576
v -5.939264 -47.38582 -2.303803
v -5.939264 -47.38582 -2.303803
v -6.098989 -48.17966 -1.988576
v -6.274029 -47.37705 -2.018
v -6.274029 -47.37705 -2.018
v -6.098989 -48.17966 -1.988576
v -6.398011 -47.48397 -1.887462

vn -0.5505099 -0.5309419 0.6442357
vn -0.5505099 -0.5309419 0.6442357
vn -0.5505099 -0.5309419 0.6442357
vn -0.5505099 -0.5309419 0.6442357
vn -0.5505099 -0.5309419 0.6442357
vn -0.5505099 -0.5309419 0.6442357
vn -0.5505099 -0.5309419 0.6442357
vn -0.5505099 -0.5309419 0.6442357
vn -0.5505099 -0.5309419 0.6442357
vn -0.5505099 -0.5309419 0.6442357
vn -0.5505099 -0.5309419 0.6442357
vn -0.5505099 -0.5309419 0.6442357
vn 0.456887 -0.8420793 0.2866297
vn 0.456887 -0.8420793 0.2866297
vn 0.456887 -0.8420793 0.2866297
vn 0.456887 -0.8420793 0.2866297
vn 0.456887 -0.8420793 0.2866297
vn 0.456887 -0.8420793 0.2866297
vn -0.4025396 -0.8142443 -0.4182918
vn -0.4025396 -0.8142443 -0.4182918
vn -0.4025396 -0.8142443 -0.4182918
vn -0.4025396 -0.8142443 -0.4182918
vn -0.4025396 -0.8142443 -0.4182918
vn -0.4025396 -0.8142443 -0.4182918
vn -0.4025396 -0.8142443 -0.4182918
vn -0.4025396 -0.8142443 -0.4182918
vn -0.4025396 -0.8142443 -0.4182918
vn -0.4025396 -0.8142443 -0.4182918
vn -0.4025396 -0.8142443 -0.4182918
vn -0.4025396 -0.8142443 -0.4182918
vn 0.5526482 -0.8216186 -0.1397245
vn 0.5526482 -0.8216186 -0.1397245
vn 0.5526482 -0.8216186 -0.1397245
vn 0.5526482 -0.8216186 -0.1397245
vn 0.5526482 -0.8216186 -0.1397245
vn 0.5526482 -0.8216186 -0.1397245
vn 0.5526482 -0.8216186 -0.1397245
vn 0.5526482 -0.8216186 -0.1397245
vn 0.5526482 -0.8216186 -0.1397245
vn 0.5526482 -0.8216186 -0.1397245
vn 0.5526482 -0.8216186 -0.1397245
vn 0.5526482 -0.8216186 -0.1397245
vn 0.5526482 -0.8216186 -0.1397245
vn 0.5526482 -0.8216186 -0.1397245
vn 0.5526482 -0.8216186 -0.1397245
vn 0.5526482 -0.8216186 -0.1397245
vn 0.5526482 -0.8216186 -0.1397245
vn 0.5526482 -0.8216186 -0.1397245
vn 0.820892 -0.4745242 0.3177469
vn 0.820892 -0.4745242 0.3177469
vn 0.820892 -0.4745242 0.3177469
vn 0.820892 -0.4745242 0.3177469
vn 0.820892 -0.4745242 0.3177469
vn 0.820892 -0.4745242 0.3177469
vn 0.820892 -0.4745242 0.3177469
vn 0.820892 -0.4745242 0.3177469
vn 0.820892 -0.4745242 0.3177469
vn -0.6938491 0.7164993 -0.0721266
vn -0.6938491 0.7164993 -0.0721266
vn -0.6938491 0.7164993 -0.0721266
vn -0.6938491 0.7164993 -0.0721266
vn -0.6938491 0.7164993 -0.0721266
vn -0.6938491 0.7164993 -0.0721266
vn -0.6938491 0.7164993 -0.0721266
vn -0.6938491 0.7164993 -0.0721266
vn -0.6938491 0.7164993 -0.0721266
vn -0.6938491 0.7164993 -0.0721266
vn -0.6938491 0.7164993 -0.0721266
vn -0.6938491 0.7164993 -0.0721266
vn -0.6938491 0.7164993 -0.0721266
vn -0.6938491 0.7164993 -0.0721266
vn -0.6938491 0.7164993 -0.0721266
vn 0.2064351 0.2379045 0.9490975
vn 0.2064351 0.2379045 0.9490975
vn 0.2064351 0.2379045 0.9490975
vn 0.2064351 0.2379045 0.9490975
vn 0.2064351 0.2379045 0.9490975
vn 0.2064351 0.2379045 0.9490975
vn 0.2064351 0.2379045 0.9490975
vn 0.2064351 0.2379045 0.9490975
vn 0.2064351 0.2379045 0.9490975
vn 0.2064351 0.2379045 0.9490975
vn 0.2064351 0.2379045 0.9490975
vn 0.2064351 0.2379045 0.9490975
vn -0.1360358 -0.006060028 -0.9906854
vn -0.1360358 -0.006060028 -0.9906854
vn -0.1360358 -0.006060028 -0.9906854
vn -0.1360358 -0.006060028 -0.9906854
vn -0.1360358 -0.006060028 -0.9906854
vn -0.1360358 -0.006060028 -0.9906854
vn -0.1360358 -0.006060028 -0.9906854
vn -0.1360358 -0.006060028 -0.9906854
vn -0.1360358 -0.006060028 -0.9906854
vn -0.1360358 -0.006060028 -0.9906854
vn -0.1360358 -0.006060028 -0.9906854
vn -0.1360358 -0.006060028 -0.9906854
vn -0.1360358 -0.006060028 -0.9906854
vn -0.1360358 -0.006060028 -0.9906854
vn -0.1360358 -0.006060028 -0.9906854
vn -0.1360358 -0.006060028 -0.9906854
vn -0.1360358 -0.006060028 -0.9906854
vn -0.1360358 -0.006060028 -0.9906854
vn 0.4845025 -0.8640211 -0.1368391
vn 0.4845025 -0.8640211 -0.1368391
vn 0.4845025 -0.8640211 -0.1368391
vn 0.4845025 -0.8640211 -0.1368391
vn 0.4845025 -0.8640211 -0.1368391
vn 0.4845025 -0.8640211 -0.1368391
vn -0.6134768 0.306124 -0.727966
vn -0.6134768 0.306124 -0.727966
vn -0.6134768 0.306124 -0.727966
vn 0.9352992 -0.005656308 -0.3538127
vn 0.9352992 -0.005656308 -0.3538127
vn 0.9352992 -0.005656308 -0.3538127
vn 0.9352992 -0.005656308 -0.3538127
vn 0.9352992 -0.005656308 -0.3538127
vn 0.9352992 -0.005656308 -0.3538127
vn 0.9352992 -0.005656308 -0.3538127
vn 0.9352992 -0.005656308 -0.3538127
vn 0.9352992 -0.005656308 -0.3538127
vn 0.9352992 -0.005656308 -0.3538127
vn 0.9352992 -0.005656308 -0.3538127
vn 0.9352992 -0.005656308 -0.3538127
vn 0.9352992 -0.005656308 -0.3538127
vn 0.9352992 -0.005656308 -0.3538127
vn 0.9352992 -0.005656308 -0.3538127
vn 0.7091545 -0.2846795 -0.6450251
vn 0.7091545 -0.2846795 -0.6450251
vn 0.7091545 -0.2846795 -0.6450251
vn 0.7091545 -0.2846795 -0.6450251
vn 0.7091545 -0.2846795 -0.6450251
vn 0.7091545 -0.2846795 -0.6450251
vn -0.8953935 -0.4100872 0.173491
vn -0.8953935 -0.4100872 0.173491
vn -0.8953935 -0.4100872 0.173491
vn -0.8953935 -0.4100872 0.173491
vn -0.8953935 -0.4100872 0.173491
vn -0.8953935 -0.4100872 0.173491
vn -0.8953935 -0.4100872 0.173491
vn -0.8953935 -0.4100872 0.173491
vn -0.8953935 -0.4100872 0.173491
vn -0.8953935 -0.4100872 0.173491
vn -0.8953935 -0.4100872 0.173491
vn -0.8953935 -0.4100872 0.173491
vn -0.429667 0.23347 0.8722832
vn -0.429667 0.23347 0.8722832
vn -0.429667 0.23347 0.8722832
vn -0.429667 0.23347 0.8722832
vn -0.429667 0.23347 0.8722832
vn -0.429667 0.23347 0.8722832
vn -0.429667 0.23347 0.8722832
vn -0.429667 0.23347 0.8722832
vn -0.429667 0.23347 0.8722832
vn 0.3702656 -0.4676897 -0.8026019
vn 0.3702656 -0.4676897 -0.8026019
vn 0.3702656 -0.4676897 -0.8026019
vn 0.3702656 -0.4676897 -0.8026019
vn 0.3702656 -0.4676897 -0.8026019
vn 0.3702656 -0.4676897 -0.8026019
vn 0.374927 0.9243501 0.07075889
vn 0.374927 0.9243501 0.07075889
vn 0.374927 0.9243501 0.07075889
vn 0.374927 0.9243501 0.07075889
vn 0.374927 0.9243501 0.07075889
vn 0.374927 0.9243501 0.07075889
vn 0.374927 0.9243501 0.07075889
vn 0.374927 0.9243501 0.07075889
vn 0.374927 0.9243501 0.07075889
vn 0.374927 0.9243501 0.07075889
vn 0.374927 0.9243501 0.07075889
vn 0.374927 0.9243501 0.07075889
vn 0.1680997 0.9687958 -0.1821467
vn 0.1680997 0.9687958 -0.1821467
vn 0.1680997 0.9687958 -0.1821467
vn 0.1680997 0.9687958 -0.1821467
vn 0.1680997 0.9687958 -0.1821467
vn 0.1680997 0.9687958 -0.1821467
vn 0.7388345 0.3626176 0.5680071
vn 0.7388345 0.3626176 0.5680071
vn 0.7388345 0.3626176 0.5680071
vn 0.7388345 0.3626176 0.5680071
vn 0.7388345 0.3626176 0.5680071
vn 0.7388345 0.3626176 0.5680071
vn -0.6426412 -0.167556 -0.7476211
vn -0.6426412 -0.167556 -0.7476211
vn -0.6426412 -0.167556 -0.7476211
vn -0.6426412 -0.167556 -0.7476211
vn -0.6426412 -0.167556 -0.7476211
vn -0.6426412 -0.167556 -0.7476211
vn -0.6426412 -0.167556 -0.7476211
vn -0.6426412 -0.167556 -0.7476211
vn -0.6426412 -0.167556 -0.7476211

vt 0.3146479 0.4319921
vt 0.4456101 0.5387046
vt 0.305352 0.4317109
vt 0.305352 0.4317109
vt 0.4456101 0.5387046
vt 0.2979828 0.5566025
vt 0.2979828 0.5566025
vt 0.4456101 0.5387046
vt 0.3025206 0.5769005
vt 0.3025206 0.5769005
vt 0.4456101 0.5387046
vt 0.3169589 0.6288316
vt 0.5110889 0.4433834
vt 0.5170986 0.4024357
vt 0.6213734 0.4682614
vt 0.6213734 0.4682614
vt 0.5170986 0.4024357
vt 0.5610418 0.3886631
vt 0.5805523 0.5443299
vt 0.5399281 0.5853385
vt 0.4310593 0.3498765
vt 0.4310593 0.3498765
vt 0.5399281 0.5853385
vt 0.4223635 0.4145443
vt 0.4223635 0.4145443
vt 0.5399281 0.5853385
vt 0.4062328 0.5906638
vt 0.4062328 0.5906638
vt 0.5399281 0.5853385
vt 0.4191476 0.6018488
vt 0.6478124 0.4910674
vt 0.5817992 0.6392666
vt 0.6450185 0.3997637
vt 0.6450185 0.3997637
vt 0.5817992 0.6392666
vt 0.6344616 0.3876552
vt 0.6344616 0.3876552
vt 0.5817992 0.6392666
vt 0.5275899 0.3643664
vt 0.5275899 0.3643664
vt 0.5817992 0.6392666
vt 0.4561435 0.4329531
vt 0.4561435 0.4329531
vt 0.5817992 0.6392666
vt 0.5212051 0.6146652
vt 0.5212051 0.6146652
vt 0.5817992 0.6392666
vt 0.5501005 0.637204
vt 0.5360653 0.5122093
vt 0.4864312 0.4734883
vt 0.6074976 0.4374112
vt 0.6074976 0.4374112
vt 0.4864312 0.4734883
vt 0.6064757 0.3956057
vt 0.6064757 0.3956057
vt 0.4864312 0.4734883
vt 0.5121671 0.4287154
vt 0.5595136 0.5769099
vt 0.5446439 0.6613554
vt 0.5436314 0.4315421
vt 0.5436314 0.4315421
vt 0.5446439 0.6613554
vt 0.3623694 0.4608735
vt 0.3623694 0.4608735
vt 0.5446439 0.6613554
vt 0.3320067 0.6041833
vt 0.3320067 0.6041833
vt 0.5446439 0.6613554
vt 0.3481185 0.6170841
vt 0.3481185 0.6170841
vt 0.5446439 0.6613554
vt 0.4512729 0.6516611
vt 0.2983344 0.4403786
vt 0.3775296 0.3846128
vt 0.2785895 0.4809137
vt 0.2785895 0.4809137
vt 0.3775296 0.3846128
vt 0.2836101 0.4861734
vt 0.2836101 0.4861734
vt 0.3775296 0.3846128
vt 0.5582385 0.4796621
vt 0.5582385 0.4796621
vt 0.3775296 0.3846128
vt 0.5463972 0.445657
vt 0.6165169 0.4300326
vt 0.6477937 0.4604094
vt 0.5715517 0.4140661
vt 0.5715517 0.4140661
vt 0.6477937 0.4604094
vt 0.3993137 0.4134473
vt 0.3993137 0.4134473
vt 0.6477937 0.4604094
vt 0.3870317 0.4759915
vt 0.3870317 0.4759915
vt 0.6477937 0.4604094
vt 0.4519714 0.5446486
vt 0.4519714 0.5446486
vt 0.6477937 0.4604094
vt 0.5233146 0.5881793
vt 0.5233146 0.5881793
vt 0.6477937 0.4604094
vt 0.6044787 0.5634466
vt 0.630327 0.3986433
vt 0.6581443 0.4295967
vt 0.6341335 0.4898674
vt 0.6341335 0.4898674
vt 0.6581443 0.4295967
vt 0.65911 0.4354986
vt 0.3595426 0.5428392
vt 0.3392352 0.4830701
vt 0.4795683 0.5562462
vt 0.390571 0.6232813
vt 0.4306749 0.4344767
vt 0.3949869 0.6611585
vt 0.3949869 0.6611585
vt 0.4306749 0.4344767
vt 0.5774302 0.6598647
vt 0.5774302 0.6598647
vt 0.4306749 0.4344767
vt 0.6348835 0.6140745
vt 0.6348835 0.6140745
vt 0.4306749 0.4344767
vt 0.6182982 0.4104237
vt 0.6182982 0.4104237
vt 0.4306749 0.4344767
vt 0.5684109 0.3706292
vt 0.5704736 0.6183404
vt 0.6286207 0.5497302
vt 0.6321928 0.6141964
vt 0.6321928 0.6141964
vt 0.6286207 0.5497302
vt 0.6572911 0.5875886
vt 0.2942654 0.4871578
vt 0.2935341 0.4811856
vt 0.4485915 0.6525705
vt 0.4485915 0.6525705
vt 0.2935341 0.4811856
vt 0.5241584 0.642323
vt 0.5241584 0.642323
vt 0.2935341 0.4811856
vt 0.5442783 0.4953333
vt 0.5442783 0.4953333
vt 0.2935341 0.4811856
vt 0.4027404 0.4268309
vt 0.1520666 0.4314765
vt 0.1929486 0.170438
vt 0.303955 0.7093394
vt 0.303955 0.7093394
vt 0.1929486 0.170438
vt 0.6580318 0.5873074
vt 0.6580318 0.5873074
vt 0.1929486 0.170438
vt 0.6668167 0.4490088
vt 0.6601225 0.4812137
vt 0.6620914 0.5071558
vt 0.6076757 0.4755415
vt 0.6076757 0.4755415
vt 0.6620914 0.5071558
vt 0.5906873 0.5191941
vt 0.4755837 0.4122754
vt 0.5106951 0.4161381
vt 0.416335 0.4455117
vt 0.416335 0.4455117
vt 0.5106951 0.4161381
vt 0.4323437 0.5908419
vt 0.4323437 0.5908419
vt 0.5106951 0.4161381
vt 0.5036822 0.6503766
vt 0.5036822 0.6503766
vt 0.5106951 0.4161381
vt 0.5757895 0.4843733
vt 0.5144172 0.6586177
vt 0.450776 0.6499641
vt 0.526296 0.6243408
vt 0.526296 0.6243408
vt 0.450776 0.6499641
vt 0.4546622 0.5630716
vt 0.4916065 0.5653874
vt 0.4366659 0.4651534
vt 0.6431621 0.4829295
vt 0.6431621 0.4829295
vt 0.4366659 0.4651534
vt 0.6460498 0.4235026
vt 0.3637007 0.5050557
vt 0.3823627 0.4283497
vt 0.4901064 0.4986054
vt 0.4901064 0.4986054
vt 0.3823627 0.4283497
vt 0.5038604 0.4349032
vt 0.5038604 0.4349032
vt 0.3823627 0.4283497
vt 0.4931722 0.405811

usemtl Material0
usemap Material0

usemtl Material1
usemap Material1
f 1/1/1 2/2/2 3/3/3
f 4/4/4 5/5/5 6/6/6
f 7/7/7 8/8/8 9/9/9
f 10/10/10 11/11/11 12/12/12
f 13/13/13 14/14/14 15/15/15
f 16/16/16 17/17/17 18/18/18
f 19/19/19 20/20/20 21/21/21
f 22/22/22 23/23/23 24/24/24
f 25/25/25 26/26/26 27/27/27
f 28/28/28 29/29/29 30/30/30
f 31/31/31 32/32/32 33/33/33
f 34/34/34 35/35/35 36/36/36
f 37/37/37 38/38/38 39/39/39
f 40/40/40 41/41/41 42/42/42
f 43/43/43 44/44/44 45/45/45
f 46/46/46 47/47/47 48/48/48
f 49/49/49 50/50/50 51/51/51
f 52/52/52 53/53/53 54/54/54
f 55/55/55 56/56/56 57/57/57
f 58/58/58 59/59/59 60/60/60
f 61/61/61 62/62/62 63/63/63
f 64/64/64 65/65/65 66/66/66
f 67/67/67 68/68/68 69/69/69
f 70/70/70 71/71/71 72/72/72
f 73/73/73 74/74/74 75/75/75
f 76/76/76 77/77/77 78/78/78
f 79/79/79 80/80/80 81/81/81
f 82/82/82 83/83/83 84/84/84
f 85/85/85 86/86/86 87/87/87
f 88/88/88 89/89/89 90/90/90
f 91/91/91 92/92/92 93/93/93
f 94/94/94 95/95/95 96/96/96
f 97/97/97 98/98/98 99/99/99
f 100/100/100 101/101/101 102/102/102
f 103/103/103 104/104/104 105/105/105
f 106/106/106 107/107/107 108/108/108
f 109/109/109 110/110/110 111/111/111
f 112/112/112 113/113/113 114/114/114
f 115/115/115 116/116/116 117/117/117
f 118/118/118 119/119/119 120/120/120
f 121/121/121 122/122/122 123/123/123
f 124/124/124 125/125/125 126/126/126
f 127/127/127 128/128/128 129/129/129
f 130/130/130 131/131/131 132/132/132
f 133/133/133 134/134/134 135/135/135
f 136/136/136 137/137/137 138/138/138
f 139/139/139 140/140/140 141/141/141
f 142/142/142 143/143/143 144/144/144
f 145/145/145 146/146/146 147/147/147
f 148/148/148 149/149/149 150/150/150
f 151/151/151 152/152/152 153/153/153
f 154/154/154 155/155/155 156/156/156
f 157/157/157 158/158/158 159/159/159
f 160/160/160 161/161/161 162/162/162
f 163/163/163 164/164/164 165/165/165
f 166/166/166 167/167/167 168/168/168
f 169/169/169 170/170/170 171/171/171
f 172/172/172 173/173/173 174/174/174
f 175/175/175 176/176/176 177/177/177
f 178/178/178 179/179/179 180/180/180
f 181/181/181 182/182/182 183/183/183
f 184/184/184 185/185/185 186/186/186
f 187/187/187 188/188/188 189/189/189
f 190/190/190 191/191/191 192/192/192
