g  Instance
v -1.679068 -59.83498 0.2611416
v -1.250878 -59.86691 0.6720969
v -1.711256 -59.82494 0.3157325
v -1.711256 -59.82494 0.3157325
v -1.250878 -59.86691 0.6720969
v -1.887692 -59.72029 1.169709
v -1.887692 -59.72029 1.169709
v -1.250878 -59.86691 0.6720969
v -1.709115 -59.73606 1.313622
v -1.709115 -59.73606 1.313622
v -1.250878 -59.86691 0.6720969
v -1.238031 -59.82415 1.17337
v -1.696657 -59.83168 0.2408977
v -1.679068 -59.83498 0.2611416
v -1.711256 -59.82494 0.3157325
v -1.747377 -59.1052 -1.028503
v -1.870597 -58.72277 -1.105034
v -1.35307 -58.89866 -1.04859
v -1.35307 -58.89866 -1.04859
v -1.870597 -58.72277 -1.105034
v -1.246047 -57.62663 -1.279318
v -1.246047 -57.62663 -1.279318
v -1.870597 -58.72277 -1.105034
v -1.563271 -57.87471 -1.247982
v -0.03313923 -58.80994 0.9469703
v -1.238031 -59.82415 1.17337
v -0.5596172 -59.30089 0.2923852
v -0.5596172 -59.30089 0.2923852
v -1.238031 -59.82415 1.17337
v -1.250878 -59.86691 0.6720969
v -1.842375 -58.03908 1.531794
v -1.709115 -59.73606 1.313622
v 0.327871 -57.24293 1.01398
v 0.327871 -57.24293 1.01398
v -1.709115 -59.73606 1.313622
v -0.03313923 -58.80994 0.9469703
v -0.03313923 -58.80994 0.9469703
v -1.709115 -59.73606 1.313622
v -1.238031 -59.82415 1.17337
v -1.696657 -59.83168 0.2408977
v -1.711256 -59.82494 0.3157325
v -1.747377 -59.1052 -1.028503
v -1.747377 -59.1052 -1.028503
v -1.711256 -59.82494 0.3157325
v -1.870597 -58.72277 -1.105034
v -1.870597 -58.72277 -1.105034
v -1.711256 -59.82494 0.3157325
v -2.568851 -57.7206 0.9954668
v -2.568851 -57.7206 0.9954668
v -1.711256 -59.82494 0.3157325
v -1.887692 -59.72029 1.169709
v -2.568851 -57.7206 0.9954668
v -1.887692 -59.72029 1.169709
v -2.50523 -57.26444 1.13595
v -2.50523 -57.26444 1.13595
v -1.887692 -59.72029 1.169709
v -1.842375 -58.03908 1.531794
v -1.842375 -58.03908 1.531794
v -1.887692 -59.72029 1.169709
v -1.709115 -59.73606 1.313622
v 0.2923101 -57.00404 0.8853371
v 0.327871 -57.24293 1.01398
v -0.01906355 -56.78846 0.3411846
v -0.01906355 -56.78846 0.3411846
v 0.327871 -57.24293 1.01398
v -0.6021303 -56.75375 -0.5632676
v -0.6021303 -56.75375 -0.5632676
v 0.327871 -57.24293 1.01398
v -0.7256777 -56.81867 -0.7324815
v -0.7256777 -56.81867 -0.7324815
v 0.327871 -57.24293 1.01398
v -0.8144758 -56.90093 -0.8430565
v -0.8144758 -56.90093 -0.8430565
v 0.327871 -57.24293 1.01398
v -1.246047 -57.62663 -1.279318
v -1.246047 -57.62663 -1.279318
v 0.327871 -57.24293 1.01398
v -1.35307 -58.89866 -1.04859
v -1.35307 -58.89866 -1.04859
v 0.327871 -57.24293 1.01398
v -0.5596172 -59.30089 0.2923852
v -0.5596172 -59.30089 0.2923852
v 0.327871 -57.24293 1.01398
v -0.03313923 -58.80994 0.9469703
v 0.2923101 -57.00404 0.8853371
v -0.3249757 -56.66639 0.7255774
v 0.327871 -57.24293 1.01398
v 0.327871 -57.24293 1.01398
v -0.3249757 -56.66639 0.7255774
v -1.842375 -58.03908 1.531794
v -1.842375 -58.03908 1.531794
v -0.3249757 -56.66639 0.7255774
v -2.50523 -57.26444 1.13595
v -2.50523 -57.26444 1.13595
v -0.3249757 -56.66639 0.7255774
v -2.221642 -56.7471 0.8433259
v -2.221642 -56.7471 0.8433259
v -0.3249757 -56.66639 0.7255774
v -1.570841 -56.37204 0.6138537
v -1.563271 -57.87471 -1.247982
v -2.221642 -56.7471 0.8433259
v -1.246047 -57.62663 -1.279318
v -1.246047 -57.62663 -1.279318
v -2.221642 -56.7471 0.8433259
v -0.8144758 -56.90093 -0.8430565
v -0.8144758 -56.90093 -0.8430565
v -2.221642 -56.7471 0.8433259
v -0.7753091 -56.72333 -0.6656123
v -0.7753091 -56.72333 -0.6656123
v -2.221642 -56.7471 0.8433259
v -1.570841 -56.37204 0.6138537
v 0.2923101 -57.00404 0.8853371
v -0.01906355 -56.78846 0.3411846
v -0.3249757 -56.66639 0.7255774
v -1.563271 -57.87471 -1.247982
v -1.870597 -58.72277 -1.105034
v -2.221642 -56.7471 0.8433259
v -2.221642 -56.7471 0.8433259
v -1.870597 -58.72277 -1.105034
v -2.50523 -57.26444 1.13595
v -2.50523 -57.26444 1.13595
v -1.870597 -58.72277 -1.105034
v -2.568851 -57.7206 0.9954668
v -0.01906355 -56.78846 0.3411846
v -0.6021303 -56.75375 -0.5632676
v -0.3249757 -56.66639 0.7255774
v -0.3249757 -56.66639 0.7255774
v -0.6021303 -56.75375 -0.5632676
v -1.570841 -56.37204 0.6138537
v -1.570841 -56.37204 0.6138537
v -0.6021303 -56.75375 -0.5632676
v -0.7753091 -56.72333 -0.6656123
v -0.7753091 -56.72333 -0.6656123
v -0.6021303 -56.75375 -0.5632676
v -0.6704288 -56.74672 -0.644772
v -0.8144758 -56.90093 -0.8430565
v -0.7753091 -56.72333 -0.6656123
v -0.7256777 -56.81867 -0.7324815
v -0.7256777 -56.81867 -0.7324815
v -0.7753091 -56.72333 -0.6656123
v -0.6704288 -56.74672 -0.644772
v -0.6704288 -56.74672 -0.644772
v -0.6021303 -56.75375 -0.5632676
v -0.7256777 -56.81867 -0.7324815
v -0.5596172 -59.30089 0.2923852
v -1.250878 -59.86691 0.6720969
v -1.35307 -58.89866 -1.04859
v -1.35307 -58.89866 -1.04859
v -1.250878 -59.86691 0.6720969
v -1.747377 -59.1052 -1.028503
v -1.747377 -59.1052 -1.028503
v -1.250878 -59.86691 0.6720969
v -1.696657 -59.83168 0.2408977
v -1.696657 -59.83168 0.2408977
v -1.250878 -59.86691 0.6720969
v -1.679068 -59.83498 0.2611416

vn -0.157738 -0.9835578 0.08793645
vn -0.157738 -0.9835578 0.08793645
vn -0.157738 -0.9835578 0.08793645
vn -0.157738 -0.9835578 0.08793645
vn -0.157738 -0.9835578 0.08793645
vn -0.157738 -0.9835578 0.08793645
vn -0.157738 -0.9835578 0.08793645
vn -0.157738 -0.9835578 0.08793645
vn -0.157738 -0.9835578 0.08793645
vn -0.157738 -0.9835578 0.08793645
vn -0.157738 -0.9835578 0.08793645
vn -0.157738 -0.9835578 0.08793645
vn -0.231305 -0.9719558 0.04242511
vn -0.231305 -0.9719558 0.04242511
vn -0.231305 -0.9719558 0.04242511
vn 0.04528289 -0.1819778 -0.9822594
vn 0.04528289 -0.1819778 -0.9822594
vn 0.04528289 -0.1819778 -0.9822594
vn 0.04528289 -0.1819778 -0.9822594
vn 0.04528289 -0.1819778 -0.9822594
vn 0.04528289 -0.1819778 -0.9822594
vn 0.04528289 -0.1819778 -0.9822594
vn 0.04528289 -0.1819778 -0.9822594
vn 0.04528289 -0.1819778 -0.9822594
vn 0.6485083 -0.7596818 0.04817463
vn 0.6485083 -0.7596818 0.04817463
vn 0.6485083 -0.7596818 0.04817463
vn 0.6485083 -0.7596818 0.04817463
vn 0.6485083 -0.7596818 0.04817463
vn 0.6485083 -0.7596818 0.04817463
vn 0.2662227 -0.1023193 0.9584656
vn 0.2662227 -0.1023193 0.9584656
vn 0.2662227 -0.1023193 0.9584656
vn 0.2662227 -0.1023193 0.9584656
vn 0.2662227 -0.1023193 0.9584656
vn 0.2662227 -0.1023193 0.9584656
vn 0.2662227 -0.1023193 0.9584656
vn 0.2662227 -0.1023193 0.9584656
vn 0.2662227 -0.1023193 0.9584656
vn -0.9314832 -0.330533 -0.1519442
vn -0.9314832 -0.330533 -0.1519442
vn -0.9314832 -0.330533 -0.1519442
vn -0.9314832 -0.330533 -0.1519442
vn -0.9314832 -0.330533 -0.1519442
vn -0.9314832 -0.330533 -0.1519442
vn -0.9314832 -0.330533 -0.1519442
vn -0.9314832 -0.330533 -0.1519442
vn -0.9314832 -0.330533 -0.1519442
vn -0.9314832 -0.330533 -0.1519442
vn -0.9314832 -0.330533 -0.1519442
vn -0.9314832 -0.330533 -0.1519442
vn -0.6284871 -0.1475385 0.7636992
vn -0.6284871 -0.1475385 0.7636992
vn -0.6284871 -0.1475385 0.7636992
vn -0.6284871 -0.1475385 0.7636992
vn -0.6284871 -0.1475385 0.7636992
vn -0.6284871 -0.1475385 0.7636992
vn -0.6284871 -0.1475385 0.7636992
vn -0.6284871 -0.1475385 0.7636992
vn -0.6284871 -0.1475385 0.7636992
vn 0.8257183 -0.1671922 -0.5387355
vn 0.8257183 -0.1671922 -0.5387355
vn 0.8257183 -0.1671922 -0.5387355
vn 0.8257183 -0.1671922 -0.5387355
vn 0.8257183 -0.1671922 -0.5387355
vn 0.8257183 -0.1671922 -0.5387355
vn 0.8257183 -0.1671922 -0.5387355
vn 0.8257183 -0.1671922 -0.5387355
vn 0.8257183 -0.1671922 -0.5387355
vn 0.8257183 -0.1671922 -0.5387355
vn 0.8257183 -0.1671922 -0.5387355
vn 0.8257183 -0.1671922 -0.5387355
vn 0.8257183 -0.1671922 -0.5387355
vn 0.8257183 -0.1671922 -0.5387355
vn 0.8257183 -0.1671922 -0.5387355
vn 0.8257183 -0.1671922 -0.5387355
vn 0.8257183 -0.1671922 -0.5387355
vn 0.8257183 -0.1671922 -0.5387355
vn 0.8257183 -0.1671922 -0.5387355
vn 0.8257183 -0.1671922 -0.5387355
vn 0.8257183 -0.1671922 -0.5387355
vn 0.8257183 -0.1671922 -0.5387355
vn 0.8257183 -0.1671922 -0.5387355
vn 0.8257183 -0.1671922 -0.5387355
vn 0.03416967 0.4777884 0.8778102
vn 0.03416967 0.4777884 0.8778102
vn 0.03416967 0.4777884 0.8778102
vn 0.03416967 0.4777884 0.8778102
vn 0.03416967 0.4777884 0.8778102
vn 0.03416967 0.4777884 0.8778102
vn 0.03416967 0.4777884 0.8778102
vn 0.03416967 0.4777884 0.8778102
vn 0.03416967 0.4777884 0.8778102
vn 0.03416967 0.4777884 0.8778102
vn 0.03416967 0.4777884 0.8778102
vn 0.03416967 0.4777884 0.8778102
vn 0.03416967 0.4777884 0.8778102
vn 0.03416967 0.4777884 0.8778102
vn 0.03416967 0.4777884 0.8778102
vn -0.5564573 0.6454508 -0.5232098
vn -0.5564573 0.6454508 -0.5232098
vn -0.5564573 0.6454508 -0.5232098
vn -0.5564573 0.6454508 -0.5232098
vn -0.5564573 0.6454508 -0.5232098
vn -0.5564573 0.6454508 -0.5232098
vn -0.5564573 0.6454508 -0.5232098
vn -0.5564573 0.6454508 -0.5232098
vn -0.5564573 0.6454508 -0.5232098
vn -0.5564573 0.6454508 -0.5232098
vn -0.5564573 0.6454508 -0.5232098
vn -0.5564573 0.6454508 -0.5232098
vn 0.4608496 0.8832786 0.08623559
vn 0.4608496 0.8832786 0.08623559
vn 0.4608496 0.8832786 0.08623559
vn -0.8773425 0.2487693 -0.4103462
vn -0.8773425 0.2487693 -0.4103462
vn -0.8773425 0.2487693 -0.4103462
vn -0.8773425 0.2487693 -0.4103462
vn -0.8773425 0.2487693 -0.4103462
vn -0.8773425 0.2487693 -0.4103462
vn -0.8773425 0.2487693 -0.4103462
vn -0.8773425 0.2487693 -0.4103462
vn -0.8773425 0.2487693 -0.4103462
vn 0.2382629 0.9641781 -0.116582
vn 0.2382629 0.9641781 -0.116582
vn 0.2382629 0.9641781 -0.116582
vn 0.2382629 0.9641781 -0.116582
vn 0.2382629 0.9641781 -0.116582
vn 0.2382629 0.9641781 -0.116582
vn 0.2382629 0.9641781 -0.116582
vn 0.2382629 0.9641781 -0.116582
vn 0.2382629 0.9641781 -0.116582
vn 0.2382629 0.9641781 -0.116582
vn 0.2382629 0.9641781 -0.116582
vn 0.2382629 0.9641781 -0.116582
vn 0.2847944 0.6453702 -0.7087944
vn 0.2847944 0.6453702 -0.7087944
vn 0.2847944 0.6453702 -0.7087944
vn 0.2847944 0.6453702 -0.7087944
vn 0.2847944 0.6453702 -0.7087944
vn 0.2847944 0.6453702 -0.7087944
vn 0.7620173 0.1749752 -0.6234689
vn 0.7620173 0.1749752 -0.6234689
vn 0.7620173 0.1749752 -0.6234689
vn 0.3909695 -0.792004 -0.4689058
vn 0.3909695 -0.792004 -0.4689058
vn 0.3909695 -0.792004 -0.4689058
vn 0.3909695 -0.792004 -0.4689058
vn 0.3909695 -0.792004 -0.4689058
vn 0.3909695 -0.792004 -0.4689058
vn 0.3909695 -0.792004 -0.4689058
vn 0.3909695 -0.792004 -0.4689058
vn 0.3909695 -0.792004 -0.4689058
vn 0.3909695 -0.792004 -0.4689058
vn 0.3909695 -0.792004 -0.4689058
vn 0.3909695 -0.792004 -0.4689058

vt 0.8386776 0.2400547
vt 0.8452859 0.2463441
vt 0.8382112 0.2408624
vt 0.8382112 0.2408624
vt 0.8452859 0.2463441
vt 0.8358528 0.2535993
vt 0.8358528 0.2535993
vt 0.8452859 0.2463441
vt 0.838599 0.2558107
vt 0.838599 0.2558107
vt 0.8452859 0.2463441
vt 0.8456583 0.2538568
vt 0.8384218 0.2397552
vt 0.8386776 0.2400547
vt 0.8382112 0.2408624
vt 0.578424 0.5719408
vt 0.54005 0.5840822
vt 0.5580791 0.533098
vt 0.5580791 0.533098
vt 0.54005 0.5840822
vt 0.4308577 0.5225599
vt 0.4308577 0.5225599
vt 0.54005 0.5840822
vt 0.4554216 0.5538086
vt 0.4813778 0.418857
vt 0.6363837 0.3965479
vt 0.5521631 0.4833513
vt 0.5521631 0.4833513
vt 0.6363837 0.3965479
vt 0.6400776 0.4459383
vt 0.4945973 0.6091149
vt 0.3201419 0.595014
vt 0.5697423 0.3794844
vt 0.5697423 0.3794844
vt 0.3201419 0.595014
vt 0.4100956 0.4176804
vt 0.4100956 0.4176804
vt 0.3201419 0.595014
vt 0.3096929 0.5451643
vt 0.340679 0.461436
vt 0.3417994 0.4539075
vt 0.4104659 0.5891825
vt 0.4104659 0.5891825
vt 0.3417994 0.4539075
vt 0.4504104 0.5968798
vt 0.4504104 0.5968798
vt 0.3417994 0.4539075
vt 0.5675765 0.3854988
vt 0.5675765 0.3854988
vt 0.3417994 0.4539075
vt 0.3574753 0.3679619
vt 0.5827087 0.593439
vt 0.262548 0.5523366
vt 0.6481312 0.5603058
vt 0.6481312 0.5603058
vt 0.262548 0.5523366
vt 0.510217 0.4669301
vt 0.510217 0.4669301
vt 0.262548 0.5523366
vt 0.2539975 0.5183877
vt 0.3544986 0.3587598
vt 0.3809986 0.3409416
vt 0.3370554 0.4341298
vt 0.3370554 0.4341298
vt 0.3809986 0.3409416
vt 0.3465856 0.5594057
vt 0.3465856 0.5594057
vt 0.3809986 0.3409416
vt 0.3568706 0.5828446
vt 0.3568706 0.5828446
vt 0.3809986 0.3409416
vt 0.3683369 0.5981548
vt 0.3683369 0.5981548
vt 0.3809986 0.3409416
vt 0.4613282 0.6585802
vt 0.4613282 0.6585802
vt 0.3809986 0.3409416
vt 0.6092883 0.626619
vt 0.6092883 0.626619
vt 0.3809986 0.3409416
vt 0.6369181 0.4408849
vt 0.6369181 0.4408849
vt 0.3809986 0.3409416
vt 0.5685797 0.3502234
vt 0.7161039 0.6043427
vt 0.5847994 0.6727936
vt 0.7268857 0.5492239
vt 0.7268857 0.5492239
vt 0.5847994 0.6727936
vt 0.2942701 0.3273658
vt 0.2942701 0.3273658
vt 0.5847994 0.6727936
vt 0.1472335 0.4969646
vt 0.1472335 0.4969646
vt 0.5847994 0.6727936
vt 0.1977161 0.6223438
vt 0.1977161 0.6223438
vt 0.5847994 0.6727936
vt 0.3254485 0.7206651
vt 0.4359252 0.5985674
vt 0.4633346 0.3154776
vt 0.4823294 0.6028145
vt 0.4823294 0.6028145
vt 0.4633346 0.3154776
vt 0.5746925 0.543758
vt 0.5746925 0.543758
vt 0.4633346 0.3154776
vt 0.5914935 0.5197378
vt 0.5914935 0.5197378
vt 0.4633346 0.3154776
vt 0.5484504 0.3465388
vt 0.5492755 0.4309655
vt 0.5121952 0.4848608
vt 0.4798636 0.4467868
vt 0.4776416 0.5989705
vt 0.3806517 0.5820664
vt 0.5752457 0.3517422
vt 0.5752457 0.3517422
vt 0.3806517 0.5820664
vt 0.5132453 0.3171465
vt 0.5132453 0.3171465
vt 0.3806517 0.5820664
vt 0.4640612 0.3337552
vt 0.5450659 0.4573061
vt 0.4882126 0.5474426
vt 0.5127671 0.4189976
vt 0.5127671 0.4189976
vt 0.4882126 0.5474426
vt 0.3860614 0.4301311
vt 0.3860614 0.4301311
vt 0.4882126 0.5474426
vt 0.4708444 0.5576432
vt 0.4708444 0.5576432
vt 0.4882126 0.5474426
vt 0.4814809 0.5555618
vt 0.4392441 0.4916581
vt 0.434247 0.4565983
vt 0.4459383 0.4698131
vt 0.4459383 0.4698131
vt 0.434247 0.4565983
vt 0.4489338 0.4524824
vt 0.348292 0.5324698
vt 0.3510765 0.5193628
vt 0.3555534 0.54658
vt 0.5243928 0.4068891
vt 0.6212702 0.3590411
vt 0.5837775 0.5758786
vt 0.5837775 0.5758786
vt 0.6212702 0.3590411
vt 0.6332991 0.5733472
vt 0.6332991 0.5733472
vt 0.6212702 0.3590411
vt 0.6640321 0.4133817
vt 0.6640321 0.4133817
vt 0.6212702 0.3590411
vt 0.6624383 0.4108315

usemtl Material0
usemap Material0
f 1/1/1 2/2/2 3/3/3
f 4/4/4 5/5/5 6/6/6
f 7/7/7 8/8/8 9/9/9
f 10/10/10 11/11/11 12/12/12
f 13/13/13 14/14/14 15/15/15

usemtl Material1
usemap Material1
f 16/16/16 17/17/17 18/18/18
f 19/19/19 20/20/20 21/21/21
f 22/22/22 23/23/23 24/24/24
f 25/25/25 26/26/26 27/27/27
f 28/28/28 29/29/29 30/30/30
f 31/31/31 32/32/32 33/33/33
f 34/34/34 35/35/35 36/36/36
f 37/37/37 38/38/38 39/39/39
f 40/40/40 41/41/41 42/42/42
f 43/43/43 44/44/44 45/45/45
f 46/46/46 47/47/47 48/48/48
f 49/49/49 50/50/50 51/51/51
f 52/52/52 53/53/53 54/54/54
f 55/55/55 56/56/56 57/57/57
f 58/58/58 59/59/59 60/60/60
f 61/61/61 62/62/62 63/63/63
f 64/64/64 65/65/65 66/66/66
f 67/67/67 68/68/68 69/69/69
f 70/70/70 71/71/71 72/72/72
f 73/73/73 74/74/74 75/75/75
f 76/76/76 77/77/77 78/78/78
f 79/79/79 80/80/80 81/81/81
f 82/82/82 83/83/83 84/84/84
f 85/85/85 86/86/86 87/87/87
f 88/88/88 89/89/89 90/90/90
f 91/91/91 92/92/92 93/93/93
f 94/94/94 95/95/95 96/96/96
f 97/97/97 98/98/98 99/99/99
f 100/100/100 101/101/101 102/102/102
f 103/103/103 104/104/104 105/105/105
f 106/106/106 107/107/107 108/108/108
f 109/109/109 110/110/110 111/111/111
f 112/112/112 113/113/113 114/114/114
f 115/115/115 116/116/116 117/117/117
f 118/118/118 119/119/119 120/120/120
f 121/121/121 122/122/122 123/123/123
f 124/124/124 125/125/125 126/126/126
f 127/127/127 128/128/128 129/129/129
f 130/130/130 131/131/131 132/132/132
f 133/133/133 134/134/134 135/135/135
f 136/136/136 137/137/137 138/138/138
f 139/139/139 140/140/140 141/141/141
f 142/142/142 143/143/143 144/144/144
f 145/145/145 146/146/146 147/147/147
f 148/148/148 149/149/149 150/150/150
f 151/151/151 152/152/152 153/153/153
f 154/154/154 155/155/155 156/156/156
