g  Instance
v 3.544092 -41.36047 -3.577416
v 3.562857 -41.41822 -3.675674
v 3.340852 -41.39513 -3.8105
v 2.613131 -41.33915 -4.228272
v 2.210889 -40.92729 -3.577411
v 3.340852 -41.39513 -3.8105
v 3.340852 -41.39513 -3.8105
v 2.210889 -40.92729 -3.577411
v 3.544092 -41.36047 -3.577416
v 2.988852 -40.80117 -2.53934
v 2.210889 -40.92729 -3.577411
v 1.635149 -40.46631 -2.513123
v 1.635149 -40.46631 -2.513123
v 2.210889 -40.92729 -3.577411
v 1.588459 -40.47232 -2.570266
v 2.988852 -40.80117 -2.53934
v 1.635149 -40.46631 -2.513123
v 2.428054 -40.43842 -1.541345
v 3.796803 -40.84497 -1.330328
v 2.988852 -40.80117 -2.53934
v 2.599878 -40.45607 -1.330327
v 2.599878 -40.45607 -1.330327
v 2.988852 -40.80117 -2.53934
v 2.428054 -40.43842 -1.541345
v 3.796803 -40.84497 -1.330328
v 2.599878 -40.45607 -1.330327
v 3.647452 -40.76983 -1.04916
v 3.647452 -40.76983 -1.04916
v 2.599878 -40.45607 -1.330327
v 3.188632 -40.61391 -0.9768542
v 3.188632 -40.61391 -0.9768542
v 2.599878 -40.45607 -1.330327
v 2.749928 -40.48735 -1.145764
v 3.933126 -40.89104 -1.097363
v 3.796803 -40.84497 -1.330328
v 3.647452 -40.76983 -1.04916
v 2.210889 -40.92729 -3.577411
v 2.988852 -40.80117 -2.53934
v 3.544092 -41.36047 -3.577416
v 2.988852 -40.80117 -2.53934
v 4.360068 -41.35812 -2.511519
v 3.544092 -41.36047 -3.577416
v 3.796803 -40.84497 -1.330328
v 4.360068 -41.35812 -2.511519
v 2.988852 -40.80117 -2.53934
v 4.47433 -41.18699 -1.31472
v 4.731368 -41.43927 -1.948299
v 3.796803 -40.84497 -1.330328
v 3.796803 -40.84497 -1.330328
v 4.731368 -41.43927 -1.948299
v 4.360068 -41.35812 -2.511519
v 3.933126 -40.89104 -1.097363
v 4.412876 -41.14296 -1.184694
v 3.796803 -40.84497 -1.330328
v 3.796803 -40.84497 -1.330328
v 4.412876 -41.14296 -1.184694
v 4.47433 -41.18699 -1.31472
v 1.330699 -40.57321 -2.976721
v 1.307232 -40.55399 -2.923394
v 1.434903 -40.51324 -2.757818
v 1.434903 -40.51324 -2.757818
v 1.307232 -40.55399 -2.923394
v 1.318932 -40.54745 -2.899404
v 2.210889 -40.92729 -3.577411
v 1.651958 -40.87207 -3.678825
v 1.588459 -40.47232 -2.570266
v 1.588459 -40.47232 -2.570266
v 1.651958 -40.87207 -3.678825
v 1.434903 -40.51324 -2.757818
v 1.434903 -40.51324 -2.757818
v 1.651958 -40.87207 -3.678825
v 1.330699 -40.57321 -2.976721
v 1.651958 -40.87207 -3.678825
v 2.210889 -40.92729 -3.577411
v 1.903208 -41.15084 -4.19277
v 1.903208 -41.15084 -4.19277
v 2.210889 -40.92729 -3.577411
v 2.057878 -41.33606 -4.498536
v 2.057878 -41.33606 -4.498536
v 2.210889 -40.92729 -3.577411
v 2.613131 -41.33915 -4.228272
v 4.731368 -41.43927 -1.948299
v 4.94602 -41.73216 -2.58569
v 4.360068 -41.35812 -2.511519
v 4.360068 -41.35812 -2.511519
v 4.471395 -41.6072 -3.00829
v 3.544092 -41.36047 -3.577416
v 3.544092 -41.36047 -3.577416
v 4.471395 -41.6072 -3.00829
v 3.670654 -41.43459 -3.603899
v 4.94602 -41.73216 -2.58569
v 4.952251 -41.74457 -2.609339
v 4.360068 -41.35812 -2.511519
v 4.360068 -41.35812 -2.511519
v 4.952251 -41.74457 -2.609339
v 4.471395 -41.6072 -3.00829
v 3.544092 -41.36047 -3.577416
v 3.670654 -41.43459 -3.603899
v 3.562857 -41.41822 -3.675674
v 2.749928 -40.48735 -1.145764
v 2.599878 -40.45607 -1.330327
v 2.671589 -40.81255 -1.235917
v 2.671589 -40.81255 -1.235917
v 2.599878 -40.45607 -1.330327
v 1.318932 -40.54745 -2.899404
v 1.318932 -40.54745 -2.899404
v 2.599878 -40.45607 -1.330327
v 1.434903 -40.51324 -2.757818
v 1.434903 -40.51324 -2.757818
v 2.599878 -40.45607 -1.330327
v 1.588459 -40.47232 -2.570266
v 1.588459 -40.47232 -2.570266
v 2.599878 -40.45607 -1.330327
v 1.635149 -40.46631 -2.513123
v 1.635149 -40.46631 -2.513123
v 2.599878 -40.45607 -1.330327
v 2.428054 -40.43842 -1.541345
v 3.562857 -41.41822 -3.675674
v 3.670654 -41.43459 -3.603899
v 3.340852 -41.39513 -3.8105
v 3.340852 -41.39513 -3.8105
v 3.670654 -41.43459 -3.603899
v 2.613131 -41.33915 -4.228272
v 2.613131 -41.33915 -4.228272
v 3.670654 -41.43459 -3.603899
v 2.057878 -41.33606 -4.498536
v 2.057878 -41.33606 -4.498536
v 3.670654 -41.43459 -3.603899
v 1.960763 -42.07829 -3.63643
v 1.960763 -42.07829 -3.63643
v 3.670654 -41.43459 -3.603899
v 3.470723 -42.70746 -2.141497
v 3.470723 -42.70746 -2.141497
v 3.670654 -41.43459 -3.603899
v 4.952251 -41.74457 -2.609339
v 4.952251 -41.74457 -2.609339
v 3.670654 -41.43459 -3.603899
v 4.471395 -41.6072 -3.00829
v 4.412876 -41.14296 -1.184694
v 3.933126 -40.89104 -1.097363
v 3.540037 -41.92287 -1.189186
v 3.540037 -41.92287 -1.189186
v 3.933126 -40.89104 -1.097363
v 3.250638 -41.45121 -1.094323
v 3.250638 -41.45121 -1.094323
v 3.933126 -40.89104 -1.097363
v 3.188632 -40.61391 -0.9768542
v 3.188632 -40.61391 -0.9768542
v 3.933126 -40.89104 -1.097363
v 3.647452 -40.76983 -1.04916
v 2.671589 -40.81255 -1.235917
v 1.318932 -40.54745 -2.899404
v 3.250638 -41.45121 -1.094323
v 3.250638 -41.45121 -1.094323
v 1.318932 -40.54745 -2.899404
v 3.540037 -41.92287 -1.189186
v 3.540037 -41.92287 -1.189186
v 1.318932 -40.54745 -2.899404
v 3.470723 -42.70746 -2.141497
v 3.470723 -42.70746 -2.141497
v 1.318932 -40.54745 -2.899404
v 1.960763 -42.07829 -3.63643
v 1.960763 -42.07829 -3.63643
v 1.318932 -40.54745 -2.899404
v 1.307232 -40.55399 -2.923394
v 1.307232 -40.55399 -2.923394
v 1.330699 -40.57321 -2.976721
v 1.960763 -42.07829 -3.63643
v 1.960763 -42.07829 -3.63643
v 1.330699 -40.57321 -2.976721
v 2.057878 -41.33606 -4.498536
v 2.057878 -41.33606 -4.498536
v 1.330699 -40.57321 -2.976721
v 1.903208 -41.15084 -4.19277
v 1.903208 -41.15084 -4.19277
v 1.330699 -40.57321 -2.976721
v 1.651958 -40.87207 -3.678825
v 3.250638 -41.45121 -1.094323
v 3.188632 -40.61391 -0.9768542
v 2.671589 -40.81255 -1.235917
v 2.671589 -40.81255 -1.235917
v 3.188632 -40.61391 -0.9768542
v 2.749928 -40.48735 -1.145764
v 4.952251 -41.74457 -2.609339
v 4.94602 -41.73216 -2.58569
v 3.470723 -42.70746 -2.141497
v 3.470723 -42.70746 -2.141497
v 4.94602 -41.73216 -2.58569
v 3.540037 -41.92287 -1.189186
v 3.540037 -41.92287 -1.189186
v 4.94602 -41.73216 -2.58569
v 4.412876 -41.14296 -1.184694
v 4.412876 -41.14296 -1.184694
v 4.94602 -41.73216 -2.58569
v 4.47433 -41.18699 -1.31472
v 4.47433 -41.18699 -1.31472
v 4.94602 -41.73216 -2.58569
v 4.731368 -41.43927 -1.948299

vn 0.3455032 0.836349 -0.4256147
vn 0.3455032 0.836349 -0.4256147
vn 0.3455032 0.836349 -0.4256147
vn 0.2858292 0.8797045 -0.3800283
vn 0.2858292 0.8797045 -0.3800283
vn 0.2858292 0.8797045 -0.3800283
vn 0.2858292 0.8797045 -0.3800283
vn 0.2858292 0.8797045 -0.3800283
vn 0.2858292 0.8797045 -0.3800283
vn 0.2252226 0.9325763 -0.2820926
vn 0.2252226 0.9325763 -0.2820926
vn 0.2252226 0.9325763 -0.2820926
vn 0.2252226 0.9325763 -0.2820926
vn 0.2252226 0.9325763 -0.2820926
vn 0.2252226 0.9325763 -0.2820926
vn 0.2305599 0.948927 -0.2153592
vn 0.2305599 0.948927 -0.2153592
vn 0.2305599 0.948927 -0.2153592
vn 0.3045412 0.9372858 -0.1695576
vn 0.3045412 0.9372858 -0.1695576
vn 0.3045412 0.9372858 -0.1695576
vn 0.3045412 0.9372858 -0.1695576
vn 0.3045412 0.9372858 -0.1695576
vn 0.3045412 0.9372858 -0.1695576
vn 0.3077708 0.9472254 -0.08967322
vn 0.3077708 0.9472254 -0.08967322
vn 0.3077708 0.9472254 -0.08967322
vn 0.3077708 0.9472254 -0.08967322
vn 0.3077708 0.9472254 -0.08967322
vn 0.3077708 0.9472254 -0.08967322
vn 0.3077708 0.9472254 -0.08967322
vn 0.3077708 0.9472254 -0.08967322
vn 0.3077708 0.9472254 -0.08967322
vn 0.3841714 0.9222866 -0.04242435
vn 0.3841714 0.9222866 -0.04242435
vn 0.3841714 0.9222866 -0.04242435
vn 0.291925 0.8984637 -0.327937
vn 0.291925 0.8984637 -0.327937
vn 0.291925 0.8984637 -0.327937
vn 0.3659409 0.8868547 -0.282092
vn 0.3659409 0.8868547 -0.282092
vn 0.3659409 0.8868547 -0.282092
vn 0.371234 0.9032194 -0.2153597
vn 0.371234 0.9032194 -0.2153597
vn 0.371234 0.9032194 -0.2153597
vn 0.4472971 0.8784062 -0.1683086
vn 0.4472971 0.8784062 -0.1683086
vn 0.4472971 0.8784062 -0.1683086
vn 0.4472971 0.8784062 -0.1683086
vn 0.4472971 0.8784062 -0.1683086
vn 0.4472971 0.8784062 -0.1683086
vn 0.4505065 0.8884317 -0.08793725
vn 0.4505065 0.8884317 -0.08793725
vn 0.4505065 0.8884317 -0.08793725
vn 0.4505065 0.8884317 -0.08793725
vn 0.4505065 0.8884317 -0.08793725
vn 0.4505065 0.8884317 -0.08793725
vn 0.08950838 0.9489252 -0.3025379
vn 0.08950838 0.9489252 -0.3025379
vn 0.08950838 0.9489252 -0.3025379
vn 0.08950838 0.9489252 -0.3025379
vn 0.08950838 0.9489252 -0.3025379
vn 0.08950838 0.9489252 -0.3025379
vn 0.1515786 0.9325761 -0.3276061
vn 0.1515786 0.9325761 -0.3276061
vn 0.1515786 0.9325761 -0.3276061
vn 0.1515786 0.9325761 -0.3276061
vn 0.1515786 0.9325761 -0.3276061
vn 0.1515786 0.9325761 -0.3276061
vn 0.1515786 0.9325761 -0.3276061
vn 0.1515786 0.9325761 -0.3276061
vn 0.1515786 0.9325761 -0.3276061
vn 0.1627532 0.8984628 -0.4077694
vn 0.1627532 0.8984628 -0.4077694
vn 0.1627532 0.8984628 -0.4077694
vn 0.2120688 0.8797051 -0.4256121
vn 0.2120688 0.8797051 -0.4256121
vn 0.2120688 0.8797051 -0.4256121
vn 0.2120688 0.8797051 -0.4256121
vn 0.2120688 0.8797051 -0.4256121
vn 0.2120688 0.8797051 -0.4256121
vn 0.5063335 0.8355137 -0.2134084
vn 0.5063335 0.8355137 -0.2134084
vn 0.5063335 0.8355137 -0.2134084
vn 0.4255188 0.8435687 -0.3276059
vn 0.4255188 0.8435687 -0.3276059
vn 0.4255188 0.8435687 -0.3276059
vn 0.4255188 0.8435687 -0.3276059
vn 0.4255188 0.8435687 -0.3276059
vn 0.4255188 0.8435687 -0.3276059
vn 0.4853469 0.8203109 -0.3025367
vn 0.4853469 0.8203109 -0.3025367
vn 0.4853469 0.8203109 -0.3025367
vn 0.4853469 0.8203109 -0.3025367
vn 0.4853469 0.8203109 -0.3025367
vn 0.4853469 0.8203109 -0.3025367
vn 0.3964268 0.8225382 -0.4077703
vn 0.3964268 0.8225382 -0.4077703
vn 0.3964268 0.8225382 -0.4077703
vn -0.7749213 0.01148113 0.6319534
vn -0.7749213 0.01148113 0.6319534
vn -0.7749213 0.01148113 0.6319534
vn -0.7749213 0.01148113 0.6319534
vn -0.7749213 0.01148113 0.6319534
vn -0.7749213 0.01148113 0.6319534
vn -0.7749213 0.01148113 0.6319534
vn -0.7749213 0.01148113 0.6319534
vn -0.7749213 0.01148113 0.6319534
vn -0.7749213 0.01148113 0.6319534
vn -0.7749213 0.01148113 0.6319534
vn -0.7749213 0.01148113 0.6319534
vn -0.7749213 0.01148113 0.6319534
vn -0.7749213 0.01148113 0.6319534
vn -0.7749213 0.01148113 0.6319534
vn -0.7749213 0.01148113 0.6319534
vn -0.7749213 0.01148113 0.6319534
vn -0.7749213 0.01148113 0.6319534
vn 0.2905024 -0.7410812 -0.6053157
vn 0.2905024 -0.7410812 -0.6053157
vn 0.2905024 -0.7410812 -0.6053157
vn 0.2905024 -0.7410812 -0.6053157
vn 0.2905024 -0.7410812 -0.6053157
vn 0.2905024 -0.7410812 -0.6053157
vn 0.2905024 -0.7410812 -0.6053157
vn 0.2905024 -0.7410812 -0.6053157
vn 0.2905024 -0.7410812 -0.6053157
vn 0.2905024 -0.7410812 -0.6053157
vn 0.2905024 -0.7410812 -0.6053157
vn 0.2905024 -0.7410812 -0.6053157
vn 0.2905024 -0.7410812 -0.6053157
vn 0.2905024 -0.7410812 -0.6053157
vn 0.2905024 -0.7410812 -0.6053157
vn 0.2905024 -0.7410812 -0.6053157
vn 0.2905024 -0.7410812 -0.6053157
vn 0.2905024 -0.7410812 -0.6053157
vn 0.2905024 -0.7410812 -0.6053157
vn 0.2905024 -0.7410812 -0.6053157
vn 0.2905024 -0.7410812 -0.6053157
vn 0.1110904 -0.1300002 0.985271
vn 0.1110904 -0.1300002 0.985271
vn 0.1110904 -0.1300002 0.985271
vn 0.1110904 -0.1300002 0.985271
vn 0.1110904 -0.1300002 0.985271
vn 0.1110904 -0.1300002 0.985271
vn 0.1110904 -0.1300002 0.985271
vn 0.1110904 -0.1300002 0.985271
vn 0.1110904 -0.1300002 0.985271
vn 0.1110904 -0.1300002 0.985271
vn 0.1110904 -0.1300002 0.985271
vn 0.1110904 -0.1300002 0.985271
vn -0.698869 -0.5262315 0.4844199
vn -0.698869 -0.5262315 0.4844199
vn -0.698869 -0.5262315 0.4844199
vn -0.698869 -0.5262315 0.4844199
vn -0.698869 -0.5262315 0.4844199
vn -0.698869 -0.5262315 0.4844199
vn -0.698869 -0.5262315 0.4844199
vn -0.698869 -0.5262315 0.4844199
vn -0.698869 -0.5262315 0.4844199
vn -0.698869 -0.5262315 0.4844199
vn -0.698869 -0.5262315 0.4844199
vn -0.698869 -0.5262315 0.4844199
vn -0.698869 -0.5262315 0.4844199
vn -0.698869 -0.5262315 0.4844199
vn -0.698869 -0.5262315 0.4844199
vn -0.9167647 -0.2457671 -0.3148668
vn -0.9167647 -0.2457671 -0.3148668
vn -0.9167647 -0.2457671 -0.3148668
vn -0.9167647 -0.2457671 -0.3148668
vn -0.9167647 -0.2457671 -0.3148668
vn -0.9167647 -0.2457671 -0.3148668
vn -0.9167647 -0.2457671 -0.3148668
vn -0.9167647 -0.2457671 -0.3148668
vn -0.9167647 -0.2457671 -0.3148668
vn -0.9167647 -0.2457671 -0.3148668
vn -0.9167647 -0.2457671 -0.3148668
vn -0.9167647 -0.2457671 -0.3148668
vn -0.3938354 -0.1562474 0.9058039
vn -0.3938354 -0.1562474 0.9058039
vn -0.3938354 -0.1562474 0.9058039
vn -0.3938354 -0.1562474 0.9058039
vn -0.3938354 -0.1562474 0.9058039
vn -0.3938354 -0.1562474 0.9058039
vn 0.5781659 -0.6498905 0.4933219
vn 0.5781659 -0.6498905 0.4933219
vn 0.5781659 -0.6498905 0.4933219
vn 0.5781659 -0.6498905 0.4933219
vn 0.5781659 -0.6498905 0.4933219
vn 0.5781659 -0.6498905 0.4933219
vn 0.5781659 -0.6498905 0.4933219
vn 0.5781659 -0.6498905 0.4933219
vn 0.5781659 -0.6498905 0.4933219
vn 0.5781659 -0.6498905 0.4933219
vn 0.5781659 -0.6498905 0.4933219
vn 0.5781659 -0.6498905 0.4933219
vn 0.5781659 -0.6498905 0.4933219
vn 0.5781659 -0.6498905 0.4933219
vn 0.5781659 -0.6498905 0.4933219

vt 0.3522724 0.1771435
vt 0.351336 0.1755216
vt 0.3552325 0.1720164
vt 0.3667338 0.1628266
vt 0.3749996 0.1771435
vt 0.3552325 0.1720164
vt 0.3552325 0.1720164
vt 0.3749996 0.1771435
vt 0.3522724 0.1771435
vt 0.363636 0.196826
vt 0.3749996 0.1771435
vt 0.3850503 0.196826
vt 0.3850503 0.196826
vt 0.3749996 0.1771435
vt 0.3857369 0.1957411
vt 0.363636 0.196826
vt 0.3850503 0.196826
vt 0.3730162 0.2130732
vt 0.3522724 0.2165085
vt 0.363636 0.196826
vt 0.3705621 0.2165085
vt 0.3705621 0.2165085
vt 0.363636 0.196826
vt 0.3730162 0.2130732
vt 0.3522724 0.2165085
vt 0.3705621 0.2165085
vt 0.3546741 0.2206685
vt 0.3546741 0.2206685
vt 0.3705621 0.2165085
vt 0.3617159 0.2217382
vt 0.3617159 0.2217382
vt 0.3705621 0.2165085
vt 0.3683478 0.2192392
vt 0.3502824 0.2199553
vt 0.3522724 0.2165085
vt 0.3546741 0.2206685
vt 0.3749996 0.1771435
vt 0.363636 0.196826
vt 0.3522724 0.1771435
vt 0.363636 0.196826
vt 0.3409087 0.196826
vt 0.3522724 0.1771435
vt 0.3522724 0.2165085
vt 0.3409087 0.196826
vt 0.363636 0.196826
vt 0.3409721 0.2165085
vt 0.3356306 0.2059681
vt 0.3522724 0.2165085
vt 0.3522724 0.2165085
vt 0.3356306 0.2059681
vt 0.3409087 0.196826
vt 0.3502824 0.2199553
vt 0.3421594 0.2184798
vt 0.3522724 0.2165085
vt 0.3522724 0.2165085
vt 0.3421594 0.2184798
vt 0.3409721 0.2165085
vt 0.3904376 0.189769
vt 0.3907608 0.1906614
vt 0.3885204 0.1930897
vt 0.3885204 0.1930897
vt 0.3907608 0.1906614
vt 0.3905462 0.1910248
vt 0.3749996 0.1771435
vt 0.3849519 0.1771435
vt 0.3857369 0.1957411
vt 0.3857369 0.1957411
vt 0.3849519 0.1771435
vt 0.3885204 0.1930897
vt 0.3885204 0.1930897
vt 0.3849519 0.1771435
vt 0.3904376 0.189769
vt 0.3849519 0.1771435
vt 0.3749996 0.1771435
vt 0.3808637 0.1669866
vt 0.3808637 0.1669866
vt 0.3749996 0.1771435
vt 0.3776624 0.1604291
vt 0.3776624 0.1604291
vt 0.3749996 0.1771435
vt 0.3667338 0.1628266
vt 0.3356306 0.2059681
vt 0.3296051 0.196826
vt 0.3409087 0.196826
vt 0.3409087 0.196826
vt 0.3365579 0.1892901
vt 0.3522724 0.1771435
vt 0.3522724 0.1771435
vt 0.3365579 0.1892901
vt 0.3496734 0.1771435
vt 0.3296051 0.196826
vt 0.3293805 0.1964691
vt 0.3409087 0.196826
vt 0.3409087 0.196826
vt 0.3293805 0.1964691
vt 0.3365579 0.1892901
vt 0.3522724 0.1771435
vt 0.3496734 0.1771435
vt 0.351336 0.1755216
vt 0.5892622 0.4027592
vt 0.5929468 0.4329672
vt 0.5478691 0.4175163
vt 0.5478691 0.4175163
vt 0.5929468 0.4329672
vt 0.5789491 0.6897914
vt 0.5789491 0.6897914
vt 0.5929468 0.4329672
vt 0.5835056 0.6666244
vt 0.5835056 0.6666244
vt 0.5929468 0.4329672
vt 0.5889903 0.6359196
vt 0.5889903 0.6359196
vt 0.5929468 0.4329672
vt 0.5898435 0.6265721
vt 0.5898435 0.6265721
vt 0.5929468 0.4329672
vt 0.5948594 0.4675067
vt 0.5295681 0.5607184
vt 0.5179049 0.5495802
vt 0.5540476 0.5816352
vt 0.5540476 0.5816352
vt 0.5179049 0.5495802
vt 0.6352117 0.6464577
vt 0.6352117 0.6464577
vt 0.5179049 0.5495802
vt 0.6989185 0.6883851
vt 0.6989185 0.6883851
vt 0.5179049 0.5495802
vt 0.7435367 0.5546242
vt 0.7435367 0.5546242
vt 0.5179049 0.5495802
vt 0.5982721 0.3226686
vt 0.5982721 0.3226686
vt 0.5179049 0.5495802
vt 0.3845097 0.3952635
vt 0.3845097 0.3952635
vt 0.5179049 0.5495802
vt 0.4336141 0.4571655
vt 0.5255085 0.4433131
vt 0.5513475 0.4910674
vt 0.4489666 0.5301915
vt 0.4489666 0.5301915
vt 0.5513475 0.4910674
vt 0.4964537 0.5589932
vt 0.4964537 0.5589932
vt 0.5513475 0.4910674
vt 0.5800835 0.5651717
vt 0.5800835 0.5651717
vt 0.5513475 0.4910674
vt 0.5638545 0.5195035
vt 0.6125979 0.3579535
vt 0.7278327 0.5716314
vt 0.5161236 0.339765
vt 0.5161236 0.339765
vt 0.7278327 0.5716314
vt 0.4542215 0.3519485
vt 0.4542215 0.3519485
vt 0.7278327 0.5716314
vt 0.3884709 0.4742758
vt 0.3884709 0.4742758
vt 0.7278327 0.5716314
vt 0.547016 0.6663057
vt 0.547016 0.6663057
vt 0.7278327 0.5716314
vt 0.7280389 0.574716
vt 0.6316209 0.4137473
vt 0.6290707 0.4195696
vt 0.4615907 0.4915643
vt 0.4615907 0.4915643
vt 0.6290707 0.4195696
vt 0.5332433 0.5856385
vt 0.5332433 0.5856385
vt 0.6290707 0.4195696
vt 0.5559227 0.5522709
vt 0.5559227 0.5522709
vt 0.6290707 0.4195696
vt 0.590556 0.4961865
vt 0.5044229 0.4658613
vt 0.5948125 0.4730758
vt 0.569161 0.5332386
vt 0.569161 0.5332386
vt 0.5948125 0.4730758
vt 0.6050787 0.5241256
vt 0.4317203 0.5166252
vt 0.4313124 0.5135593
vt 0.6291551 0.4558435
vt 0.6291551 0.4558435
vt 0.4313124 0.5135593
vt 0.5643701 0.3321145
vt 0.5643701 0.3321145
vt 0.4313124 0.5135593
vt 0.4320765 0.3315332
vt 0.4320765 0.3315332
vt 0.4313124 0.5135593
vt 0.4301967 0.3484232
vt 0.4301967 0.3484232
vt 0.4313124 0.5135593
vt 0.427445 0.4307405

usemtl Material0
usemap Material0
f 1/1/1 2/2/2 3/3/3
f 4/4/4 5/5/5 6/6/6
f 7/7/7 8/8/8 9/9/9
f 10/10/10 11/11/11 12/12/12
f 13/13/13 14/14/14 15/15/15
f 16/16/16 17/17/17 18/18/18
f 19/19/19 20/20/20 21/21/21
f 22/22/22 23/23/23 24/24/24
f 25/25/25 26/26/26 27/27/27
f 28/28/28 29/29/29 30/30/30
f 31/31/31 32/32/32 33/33/33
f 34/34/34 35/35/35 36/36/36
f 37/37/37 38/38/38 39/39/39
f 40/40/40 41/41/41 42/42/42
f 43/43/43 44/44/44 45/45/45
f 46/46/46 47/47/47 48/48/48
f 49/49/49 50/50/50 51/51/51
f 52/52/52 53/53/53 54/54/54
f 55/55/55 56/56/56 57/57/57
f 58/58/58 59/59/59 60/60/60
f 61/61/61 62/62/62 63/63/63
f 64/64/64 65/65/65 66/66/66
f 67/67/67 68/68/68 69/69/69
f 70/70/70 71/71/71 72/72/72
f 73/73/73 74/74/74 75/75/75
f 76/76/76 77/77/77 78/78/78
f 79/79/79 80/80/80 81/81/81
f 82/82/82 83/83/83 84/84/84
f 85/85/85 86/86/86 87/87/87
f 88/88/88 89/89/89 90/90/90
f 91/91/91 92/92/92 93/93/93
f 94/94/94 95/95/95 96/96/96
f 97/97/97 98/98/98 99/99/99

usemtl Material1
usemap Material1
f 100/100/100 101/101/101 102/102/102
f 103/103/103 104/104/104 105/105/105
f 106/106/106 107/107/107 108/108/108
f 109/109/109 110/110/110 111/111/111
f 112/112/112 113/113/113 114/114/114
f 115/115/115 116/116/116 117/117/117
f 118/118/118 119/119/119 120/120/120
f 121/121/121 122/122/122 123/123/123
f 124/124/124 125/125/125 126/126/126
f 127/127/127 128/128/128 129/129/129
f 130/130/130 131/131/131 132/132/132
f 133/133/133 134/134/134 135/135/135
f 136/136/136 137/137/137 138/138/138
f 139/139/139 140/140/140 141/141/141
f 142/142/142 143/143/143 144/144/144
f 145/145/145 146/146/146 147/147/147
f 148/148/148 149/149/149 150/150/150
f 151/151/151 152/152/152 153/153/153
f 154/154/154 155/155/155 156/156/156
f 157/157/157 158/158/158 159/159/159
f 160/160/160 161/161/161 162/162/162
f 163/163/163 164/164/164 165/165/165
f 166/166/166 167/167/167 168/168/168
f 169/169/169 170/170/170 171/171/171
f 172/172/172 173/173/173 174/174/174
f 175/175/175 176/176/176 177/177/177
f 178/178/178 179/179/179 180/180/180
f 181/181/181 182/182/182 183/183/183
f 184/184/184 185/185/185 186/186/186
f 187/187/187 188/188/188 189/189/189
f 190/190/190 191/191/191 192/192/192
f 193/193/193 194/194/194 195/195/195
f 196/196/196 197/197/197 198/198/198
