g  Instance
v -1.148551 -58.46637 -5.195847
v -1.518283 -58.60212 -4.810284
v -2.628688 -58.09012 -5.257377
v -2.628688 -58.09012 -5.257377
v -1.518283 -58.60212 -4.810284
v -2.365068 -58.45296 -4.730136
v -2.374274 -58.45064 -4.728871
v -2.860066 -58.1653 -4.971375
v -2.365068 -58.45296 -4.730136
v -2.365068 -58.45296 -4.730136
v -2.860066 -58.1653 -4.971375
v -2.628688 -58.09012 -5.257377
v -2.628688 -58.09012 -5.257377
v -2.860066 -58.1653 -4.971375
v -3.420817 -57.77428 -5.223019
v -0.4304042 -57.82537 -6.177482
v -1.624634 -57.59458 -6.299436
v -0.3355684 -57.6567 -6.379866
v -0.3355684 -57.6567 -6.379866
v -1.624634 -57.59458 -6.299436
v -0.3401325 -57.57893 -6.467542
v -0.3401325 -57.57893 -6.467542
v -1.624634 -57.59458 -6.299436
v -1.368821 -57.42834 -6.517918
v -0.6408408 -58.1816 -5.662217
v -1.146548 -58.46545 -5.19782
v -0.4304042 -57.82537 -6.177482
v -0.4304042 -57.82537 -6.177482
v -1.146548 -58.46545 -5.19782
v -1.624634 -57.59458 -6.299436
v -2.628688 -58.09012 -5.257377
v -1.624634 -57.59458 -6.299436
v -1.148551 -58.46637 -5.195847
v -1.148551 -58.46637 -5.195847
v -1.624634 -57.59458 -6.299436
v -1.146548 -58.46545 -5.19782
v -1.624634 -57.59458 -6.299436
v -1.723153 -57.36106 -6.513353
v -1.368821 -57.42834 -6.517918
v -3.149714 -57.09904 -6.299433
v -3.050713 -57.03926 -6.397045
v -1.624634 -57.59458 -6.299436
v -1.624634 -57.59458 -6.299436
v -3.050713 -57.03926 -6.397045
v -1.723153 -57.36106 -6.513353
v -3.149714 -57.09904 -6.299433
v -1.624634 -57.59458 -6.299436
v -2.628688 -58.09012 -5.257377
v -3.753224 -57.52671 -5.364952
v -3.451787 -57.24141 -5.929141
v -3.420817 -57.77428 -5.223019
v -3.420817 -57.77428 -5.223019
v -3.451787 -57.24141 -5.929141
v -2.628688 -58.09012 -5.257377
v -2.628688 -58.09012 -5.257377
v -3.451787 -57.24141 -5.929141
v -3.149714 -57.09904 -6.299433
v -3.187885 -56.99951 -6.375775
v -3.050713 -57.03926 -6.397045
v -3.149714 -57.09904 -6.299433
v -3.149714 -57.09904 -6.299433
v -3.253972 -57.05029 -6.287893
v -3.187885 -56.99951 -6.375775
v -3.187885 -56.99951 -6.375775
v -3.253972 -57.05029 -6.287893
v -3.200833 -56.99505 -6.372766
v -3.149714 -57.09904 -6.299433
v -3.451787 -57.24141 -5.929141
v -3.253972 -57.05029 -6.287893
v -0.6965728 -56.702 -5.311732
v -0.6989627 -57.00272 -4.831873
v -0.3401325 -57.57893 -6.467542
v -0.3401325 -57.57893 -6.467542
v -0.6989627 -57.00272 -4.831873
v -0.3355684 -57.6567 -6.379866
v -0.3355684 -57.6567 -6.379866
v -0.6989627 -57.00272 -4.831873
v -0.4387378 -57.68905 -5.604677
v -0.6965728 -56.702 -5.311732
v -0.3401325 -57.57893 -6.467542
v -3.124196 -56.74833 -6.002072
v -3.124196 -56.74833 -6.002072
v -0.3401325 -57.57893 -6.467542
v -3.200833 -56.99505 -6.372766
v -3.200833 -56.99505 -6.372766
v -0.3401325 -57.57893 -6.467542
v -3.187885 -56.99951 -6.375775
v -3.187885 -56.99951 -6.375775
v -0.3401325 -57.57893 -6.467542
v -3.050713 -57.03926 -6.397045
v -3.050713 -57.03926 -6.397045
v -0.3401325 -57.57893 -6.467542
v -1.723153 -57.36106 -6.513353
v -1.723153 -57.36106 -6.513353
v -0.3401325 -57.57893 -6.467542
v -1.368821 -57.42834 -6.517918
v -2.374274 -58.45064 -4.728871
v -2.365068 -58.45296 -4.730136
v -2.269482 -57.65528 -4.283498
v -2.269482 -57.65528 -4.283498
v -2.365068 -58.45296 -4.730136
v -1.450279 -57.53717 -4.21423
v -1.450279 -57.53717 -4.21423
v -2.365068 -58.45296 -4.730136
v -1.518283 -58.60212 -4.810284
v -0.4387378 -57.68905 -5.604677
v -0.6408408 -58.1816 -5.662217
v -0.3355684 -57.6567 -6.379866
v -0.3355684 -57.6567 -6.379866
v -0.6408408 -58.1816 -5.662217
v -0.4304042 -57.82537 -6.177482
v -3.253972 -57.05029 -6.287893
v -3.451787 -57.24141 -5.929141
v -3.200833 -56.99505 -6.372766
v -3.200833 -56.99505 -6.372766
v -3.451787 -57.24141 -5.929141
v -3.124196 -56.74833 -6.002072
v -3.124196 -56.74833 -6.002072
v -3.451787 -57.24141 -5.929141
v -3.670399 -57.34617 -5.21848
v -3.670399 -57.34617 -5.21848
v -3.451787 -57.24141 -5.929141
v -3.753224 -57.52671 -5.364952
v -3.670399 -57.34617 -5.21848
v -3.753224 -57.52671 -5.364952
v -2.269482 -57.65528 -4.283498
v -2.269482 -57.65528 -4.283498
v -3.753224 -57.52671 -5.364952
v -2.374274 -58.45064 -4.728871
v -2.374274 -58.45064 -4.728871
v -3.753224 -57.52671 -5.364952
v -2.860066 -58.1653 -4.971375
v -2.860066 -58.1653 -4.971375
v -3.753224 -57.52671 -5.364952
v -3.420817 -57.77428 -5.223019
v -1.450279 -57.53717 -4.21423
v -1.518283 -58.60212 -4.810284
v -0.6989627 -57.00272 -4.831873
v -0.6989627 -57.00272 -4.831873
v -1.518283 -58.60212 -4.810284
v -0.4387378 -57.68905 -5.604677
v -0.4387378 -57.68905 -5.604677
v -1.518283 -58.60212 -4.810284
v -0.6408408 -58.1816 -5.662217
v -0.6408408 -58.1816 -5.662217
v -1.518283 -58.60212 -4.810284
v -1.146548 -58.46545 -5.19782
v -1.146548 -58.46545 -5.19782
v -1.518283 -58.60212 -4.810284
v -1.148551 -58.46637 -5.195847
v -1.450279 -57.53717 -4.21423
v -0.6989627 -57.00272 -4.831873
v -2.269482 -57.65528 -4.283498
v -2.269482 -57.65528 -4.283498
v -0.6989627 -57.00272 -4.831873
v -3.670399 -57.34617 -5.21848
v -3.670399 -57.34617 -5.21848
v -0.6989627 -57.00272 -4.831873
v -3.124196 -56.74833 -6.002072
v -3.124196 -56.74833 -6.002072
v -0.6989627 -57.00272 -4.831873
v -0.6965728 -56.702 -5.311732

vn -0.1960122 -0.8508186 -0.4875315
vn -0.1960122 -0.8508186 -0.4875315
vn -0.1960122 -0.8508186 -0.4875315
vn -0.1960122 -0.8508186 -0.4875315
vn -0.1960122 -0.8508186 -0.4875315
vn -0.1960122 -0.8508186 -0.4875315
vn -0.2763958 -0.8506467 -0.4472199
vn -0.2763958 -0.8506467 -0.4472199
vn -0.2763958 -0.8506467 -0.4472199
vn -0.2763958 -0.8506467 -0.4472199
vn -0.2763958 -0.8506467 -0.4472199
vn -0.2763958 -0.8506467 -0.4472199
vn -0.3415296 -0.8035368 -0.4875308
vn -0.3415296 -0.8035368 -0.4875308
vn -0.3415296 -0.8035368 -0.4875308
vn -0.07718155 -0.7478249 -0.6593943
vn -0.07718155 -0.7478249 -0.6593943
vn -0.07718155 -0.7478249 -0.6593943
vn -0.07718155 -0.7478249 -0.6593943
vn -0.07718155 -0.7478249 -0.6593943
vn -0.07718155 -0.7478249 -0.6593943
vn -0.07718155 -0.7478249 -0.6593943
vn -0.07718155 -0.7478249 -0.6593943
vn -0.07718155 -0.7478249 -0.6593943
vn -0.09424832 -0.8004767 -0.5919074
vn -0.09424832 -0.8004767 -0.5919074
vn -0.09424832 -0.8004767 -0.5919074
vn -0.09424832 -0.8004767 -0.5919074
vn -0.09424832 -0.8004767 -0.5919074
vn -0.09424832 -0.8004767 -0.5919074
vn -0.1821889 -0.8082767 -0.5599073
vn -0.1821889 -0.8082767 -0.5599073
vn -0.1821889 -0.8082767 -0.5599073
vn -0.1821889 -0.8082767 -0.5599073
vn -0.1821889 -0.8082767 -0.5599073
vn -0.1821889 -0.8082767 -0.5599073
vn -0.1420187 -0.7005444 -0.6993343
vn -0.1420187 -0.7005444 -0.6993343
vn -0.1420187 -0.7005444 -0.6993343
vn -0.2301646 -0.7083601 -0.6672708
vn -0.2301646 -0.7083601 -0.6672708
vn -0.2301646 -0.7083601 -0.6672708
vn -0.2301646 -0.7083601 -0.6672708
vn -0.2301646 -0.7083601 -0.6672708
vn -0.2301646 -0.7083601 -0.6672708
vn -0.2472163 -0.7608397 -0.6000058
vn -0.2472163 -0.7608397 -0.6000058
vn -0.2472163 -0.7608397 -0.6000058
vn -0.327707 -0.7609943 -0.559907
vn -0.327707 -0.7609943 -0.559907
vn -0.327707 -0.7609943 -0.559907
vn -0.327707 -0.7609943 -0.559907
vn -0.327707 -0.7609943 -0.559907
vn -0.327707 -0.7609943 -0.559907
vn -0.327707 -0.7609943 -0.559907
vn -0.327707 -0.7609943 -0.559907
vn -0.327707 -0.7609943 -0.559907
vn -0.2968826 -0.6502253 -0.6993338
vn -0.2968826 -0.6502253 -0.6993338
vn -0.2968826 -0.6502253 -0.6993338
vn -0.3771275 -0.6503647 -0.6593941
vn -0.3771275 -0.6503647 -0.6593941
vn -0.3771275 -0.6503647 -0.6593941
vn -0.3771275 -0.6503647 -0.6593941
vn -0.3771275 -0.6503647 -0.6593941
vn -0.3771275 -0.6503647 -0.6593941
vn -0.3942686 -0.7029923 -0.5919072
vn -0.3942686 -0.7029923 -0.5919072
vn -0.3942686 -0.7029923 -0.5919072
vn 0.9675544 0.2118992 0.1376132
vn 0.9675544 0.2118992 0.1376132
vn 0.9675544 0.2118992 0.1376132
vn 0.9675544 0.2118992 0.1376132
vn 0.9675544 0.2118992 0.1376132
vn 0.9675544 0.2118992 0.1376132
vn 0.9675544 0.2118992 0.1376132
vn 0.9675544 0.2118992 0.1376132
vn 0.9675544 0.2118992 0.1376132
vn 0.1463296 0.8092892 -0.5688926
vn 0.1463296 0.8092892 -0.5688926
vn 0.1463296 0.8092892 -0.5688926
vn 0.1463296 0.8092892 -0.5688926
vn 0.1463296 0.8092892 -0.5688926
vn 0.1463296 0.8092892 -0.5688926
vn 0.1463296 0.8092892 -0.5688926
vn 0.1463296 0.8092892 -0.5688926
vn 0.1463296 0.8092892 -0.5688926
vn 0.1463296 0.8092892 -0.5688926
vn 0.1463296 0.8092892 -0.5688926
vn 0.1463296 0.8092892 -0.5688926
vn 0.1463296 0.8092892 -0.5688926
vn 0.1463296 0.8092892 -0.5688926
vn 0.1463296 0.8092892 -0.5688926
vn 0.1463296 0.8092892 -0.5688926
vn 0.1463296 0.8092892 -0.5688926
vn 0.1463296 0.8092892 -0.5688926
vn -0.003398616 -0.4882343 0.872706
vn -0.003398616 -0.4882343 0.872706
vn -0.003398616 -0.4882343 0.872706
vn -0.003398616 -0.4882343 0.872706
vn -0.003398616 -0.4882343 0.872706
vn -0.003398616 -0.4882343 0.872706
vn -0.003398616 -0.4882343 0.872706
vn -0.003398616 -0.4882343 0.872706
vn -0.003398616 -0.4882343 0.872706
vn 0.915574 -0.3880205 0.1056626
vn 0.915574 -0.3880205 0.1056626
vn 0.915574 -0.3880205 0.1056626
vn 0.915574 -0.3880205 0.1056626
vn 0.915574 -0.3880205 0.1056626
vn 0.915574 -0.3880205 0.1056626
vn -0.8315396 0.5260915 -0.1782407
vn -0.8315396 0.5260915 -0.1782407
vn -0.8315396 0.5260915 -0.1782407
vn -0.8315396 0.5260915 -0.1782407
vn -0.8315396 0.5260915 -0.1782407
vn -0.8315396 0.5260915 -0.1782407
vn -0.8315396 0.5260915 -0.1782407
vn -0.8315396 0.5260915 -0.1782407
vn -0.8315396 0.5260915 -0.1782407
vn -0.8315396 0.5260915 -0.1782407
vn -0.8315396 0.5260915 -0.1782407
vn -0.8315396 0.5260915 -0.1782407
vn -0.5727127 -0.3417767 0.7451099
vn -0.5727127 -0.3417767 0.7451099
vn -0.5727127 -0.3417767 0.7451099
vn -0.5727127 -0.3417767 0.7451099
vn -0.5727127 -0.3417767 0.7451099
vn -0.5727127 -0.3417767 0.7451099
vn -0.5727127 -0.3417767 0.7451099
vn -0.5727127 -0.3417767 0.7451099
vn -0.5727127 -0.3417767 0.7451099
vn -0.5727127 -0.3417767 0.7451099
vn -0.5727127 -0.3417767 0.7451099
vn -0.5727127 -0.3417767 0.7451099
vn 0.7325169 -0.3674954 0.5730324
vn 0.7325169 -0.3674954 0.5730324
vn 0.7325169 -0.3674954 0.5730324
vn 0.7325169 -0.3674954 0.5730324
vn 0.7325169 -0.3674954 0.5730324
vn 0.7325169 -0.3674954 0.5730324
vn 0.7325169 -0.3674954 0.5730324
vn 0.7325169 -0.3674954 0.5730324
vn 0.7325169 -0.3674954 0.5730324
vn 0.7325169 -0.3674954 0.5730324
vn 0.7325169 -0.3674954 0.5730324
vn 0.7325169 -0.3674954 0.5730324
vn 0.7325169 -0.3674954 0.5730324
vn 0.7325169 -0.3674954 0.5730324
vn 0.7325169 -0.3674954 0.5730324
vn -0.1647274 0.8361546 0.5231733
vn -0.1647274 0.8361546 0.5231733
vn -0.1647274 0.8361546 0.5231733
vn -0.1647274 0.8361546 0.5231733
vn -0.1647274 0.8361546 0.5231733
vn -0.1647274 0.8361546 0.5231733
vn -0.1647274 0.8361546 0.5231733
vn -0.1647274 0.8361546 0.5231733
vn -0.1647274 0.8361546 0.5231733
vn -0.1647274 0.8361546 0.5231733
vn -0.1647274 0.8361546 0.5231733
vn -0.1647274 0.8361546 0.5231733

vt 0.8408636 0.157461
vt 0.8360538 0.1643781
vt 0.818181 0.157461
vt 0.818181 0.157461
vt 0.8360538 0.1643781
vt 0.8233235 0.1663681
vt 0.8231892 0.1663895
vt 0.8153914 0.1622927
vt 0.8233235 0.1663681
vt 0.8233235 0.1663681
vt 0.8153914 0.1622927
vt 0.818181 0.157461
vt 0.818181 0.157461
vt 0.8153914 0.1622927
vt 0.8055153 0.157461
vt 0.8473127 0.1377784
vt 0.8295446 0.1377784
vt 0.8477219 0.1337981
vt 0.8477219 0.1337981
vt 0.8295446 0.1377784
vt 0.8472421 0.1321612
vt 0.8472421 0.1321612
vt 0.8295446 0.1377784
vt 0.8321952 0.1331874
vt 0.8463379 0.1477943
vt 0.8408867 0.1574237
vt 0.8473127 0.1377784
vt 0.8473127 0.1377784
vt 0.8408867 0.1574237
vt 0.8295446 0.1377784
vt 0.818181 0.157461
vt 0.8295446 0.1377784
vt 0.8408636 0.157461
vt 0.8408636 0.157461
vt 0.8295446 0.1377784
vt 0.8408867 0.1574237
vt 0.8295446 0.1377784
vt 0.8271939 0.1337068
vt 0.8321952 0.1331874
vt 0.8068174 0.1377784
vt 0.80789 0.1359205
vt 0.8295446 0.1377784
vt 0.8295446 0.1377784
vt 0.80789 0.1359205
vt 0.8271939 0.1337068
vt 0.8068174 0.1377784
vt 0.8295446 0.1377784
vt 0.818181 0.157461
vt 0.799755 0.1545705
vt 0.8030049 0.1443819
vt 0.8055153 0.157461
vt 0.8055153 0.157461
vt 0.8030049 0.1443819
vt 0.818181 0.157461
vt 0.818181 0.157461
vt 0.8030049 0.1443819
vt 0.8068174 0.1377784
vt 0.8058912 0.1361742
vt 0.80789 0.1359205
vt 0.8068174 0.1377784
vt 0.8068174 0.1377784
vt 0.8051361 0.1377784
vt 0.8058912 0.1361742
vt 0.8058912 0.1361742
vt 0.8051361 0.1377784
vt 0.8056884 0.1362056
vt 0.8068174 0.1377784
vt 0.8030049 0.1443819
vt 0.8051361 0.1377784
vt 0.4553701 0.4653128
vt 0.4844717 0.4172257
vt 0.5479629 0.5811289
vt 0.5479629 0.5811289
vt 0.4844717 0.4172257
vt 0.5555946 0.572344
vt 0.5555946 0.572344
vt 0.4844717 0.4172257
vt 0.5565415 0.4946676
vt 0.5812179 0.404789
vt 0.6417933 0.5727847
vt 0.2966421 0.5051401
vt 0.2966421 0.5051401
vt 0.6417933 0.5727847
vt 0.2928732 0.5590214
vt 0.2928732 0.5590214
vt 0.6417933 0.5727847
vt 0.2944905 0.559462
vt 0.2944905 0.559462
vt 0.6417933 0.5727847
vt 0.3114696 0.5625559
vt 0.3114696 0.5625559
vt 0.6417933 0.5727847
vt 0.4744774 0.5794507
vt 0.4744774 0.5794507
vt 0.6417933 0.5727847
vt 0.5175862 0.580107
vt 0.649725 0.6067522
vt 0.6478687 0.6072679
vt 0.6297458 0.423076
vt 0.6297458 0.423076
vt 0.6478687 0.6072679
vt 0.4649612 0.3945087
vt 0.4649612 0.3945087
vt 0.6478687 0.6072679
vt 0.4771588 0.640326
vt 0.4861546 0.4935238
vt 0.5387936 0.4992523
vt 0.4792308 0.5705908
vt 0.4792308 0.5705908
vt 0.5387936 0.4992523
vt 0.4982444 0.5504709
vt 0.4168694 0.5207879
vt 0.3901679 0.4843639
vt 0.4243698 0.529404
vt 0.4243698 0.529404
vt 0.3901679 0.4843639
vt 0.4492947 0.4917706
vt 0.4492947 0.4917706
vt 0.3901679 0.4843639
vt 0.3696401 0.4122097
vt 0.3696401 0.4122097
vt 0.3901679 0.4843639
vt 0.3499749 0.4270841
vt 0.6361774 0.6462045
vt 0.6195827 0.6785783
vt 0.4912315 0.4395582
vt 0.4912315 0.4395582
vt 0.6195827 0.6785783
vt 0.3984699 0.537992
vt 0.3984699 0.537992
vt 0.6195827 0.6785783
vt 0.471285 0.5915826
vt 0.471285 0.5915826
vt 0.6195827 0.6785783
vt 0.5631419 0.6472077
vt 0.5141547 0.3604802
vt 0.6320053 0.447729
vt 0.4164381 0.4508839
vt 0.4164381 0.4508839
vt 0.6320053 0.447729
vt 0.4760291 0.5639998
vt 0.4760291 0.5639998
vt 0.6320053 0.447729
vt 0.5397124 0.572419
vt 0.5397124 0.572419
vt 0.6320053 0.447729
vt 0.5973439 0.5044557
vt 0.5973439 0.5044557
vt 0.6320053 0.447729
vt 0.5975502 0.5041651
vt 0.4972506 0.3256923
vt 0.5942031 0.4092987
vt 0.4018967 0.3350678
vt 0.4018967 0.3350678
vt 0.5942031 0.4092987
vt 0.2502332 0.4616282
vt 0.2502332 0.4616282
vt 0.5942031 0.4092987
vt 0.3253829 0.5676937
vt 0.3253829 0.5676937
vt 0.5942031 0.4092987
vt 0.6011785 0.4742524

usemtl Material0
usemap Material0
f 1/1/1 2/2/2 3/3/3
f 4/4/4 5/5/5 6/6/6
f 7/7/7 8/8/8 9/9/9
f 10/10/10 11/11/11 12/12/12
f 13/13/13 14/14/14 15/15/15
f 16/16/16 17/17/17 18/18/18
f 19/19/19 20/20/20 21/21/21
f 22/22/22 23/23/23 24/24/24
f 25/25/25 26/26/26 27/27/27
f 28/28/28 29/29/29 30/30/30
f 31/31/31 32/32/32 33/33/33
f 34/34/34 35/35/35 36/36/36
f 37/37/37 38/38/38 39/39/39
f 40/40/40 41/41/41 42/42/42
f 43/43/43 44/44/44 45/45/45
f 46/46/46 47/47/47 48/48/48
f 49/49/49 50/50/50 51/51/51
f 52/52/52 53/53/53 54/54/54
f 55/55/55 56/56/56 57/57/57
f 58/58/58 59/59/59 60/60/60
f 61/61/61 62/62/62 63/63/63
f 64/64/64 65/65/65 66/66/66
f 67/67/67 68/68/68 69/69/69

usemtl Material1
usemap Material1
f 70/70/70 71/71/71 72/72/72
f 73/73/73 74/74/74 75/75/75
f 76/76/76 77/77/77 78/78/78
f 79/79/79 80/80/80 81/81/81
f 82/82/82 83/83/83 84/84/84
f 85/85/85 86/86/86 87/87/87
f 88/88/88 89/89/89 90/90/90
f 91/91/91 92/92/92 93/93/93
f 94/94/94 95/95/95 96/96/96
f 97/97/97 98/98/98 99/99/99
f 100/100/100 101/101/101 102/102/102
f 103/103/103 104/104/104 105/105/105
f 106/106/106 107/107/107 108/108/108
f 109/109/109 110/110/110 111/111/111
f 112/112/112 113/113/113 114/114/114
f 115/115/115 116/116/116 117/117/117
f 118/118/118 119/119/119 120/120/120
f 121/121/121 122/122/122 123/123/123
f 124/124/124 125/125/125 126/126/126
f 127/127/127 128/128/128 129/129/129
f 130/130/130 131/131/131 132/132/132
f 133/133/133 134/134/134 135/135/135
f 136/136/136 137/137/137 138/138/138
f 139/139/139 140/140/140 141/141/141
f 142/142/142 143/143/143 144/144/144
f 145/145/145 146/146/146 147/147/147
f 148/148/148 149/149/149 150/150/150
f 151/151/151 152/152/152 153/153/153
f 154/154/154 155/155/155 156/156/156
f 157/157/157 158/158/158 159/159/159
f 160/160/160 161/161/161 162/162/162
