g  Instance
v 0.08137273 -43.59346 -1.77732
v 0.03025657 -44.11547 -1.726177
v 0.174469 -43.63992 -1.840425
v 0.174469 -43.63992 -1.840425
v 0.03025657 -44.11547 -1.726177
v 0.1441995 -44.15484 -1.80394
v 0.3031184 -43.467 -2.524446
v 0.174469 -43.63992 -1.840425
v 0.4558699 -43.9772 -3.524389
v 0.4558699 -43.9772 -3.524389
v 0.174469 -43.63992 -1.840425
v 0.4331221 -45.69295 -3.845689
v 0.4331221 -45.69295 -3.845689
v 0.174469 -43.63992 -1.840425
v 0.1762375 -47.15506 -2.772946
v 0.1762375 -47.15506 -2.772946
v 0.174469 -43.63992 -1.840425
v 0.1441995 -44.15484 -1.80394
v 0.4331221 -45.69295 -3.845689
v 0.1762375 -47.15506 -2.772946
v -0.7656933 -46.03806 -4.831434
v -0.7656933 -46.03806 -4.831434
v 0.1762375 -47.15506 -2.772946
v -0.8431736 -46.82673 -4.186303
v -0.8431736 -46.82673 -4.186303
v 0.1762375 -47.15506 -2.772946
v -0.5590049 -47.08744 -3.635825
v -0.5590049 -47.08744 -3.635825
v 0.1762375 -47.15506 -2.772946
v -0.02956891 -47.28375 -2.87794
v -0.02956891 -47.28375 -2.87794
v 0.1762375 -47.15506 -2.772946
v 0.1551596 -47.18326 -2.769804
v 0.08137273 -43.59346 -1.77732
v -0.08574593 -43.35764 -2.04764
v 0.03025657 -44.11547 -1.726177
v 0.03025657 -44.11547 -1.726177
v -0.08574593 -43.35764 -2.04764
v -0.4647649 -45.82563 -1.984368
v -0.4647649 -45.82563 -1.984368
v -0.08574593 -43.35764 -2.04764
v -1.437092 -45.43146 -3.33692
v 0.08137273 -43.59346 -1.77732
v 0.174469 -43.63992 -1.840425
v -0.08574593 -43.35764 -2.04764
v -0.08574593 -43.35764 -2.04764
v 0.174469 -43.63992 -1.840425
v 0.1324782 -43.39281 -2.381184
v 0.1324782 -43.39281 -2.381184
v 0.174469 -43.63992 -1.840425
v 0.3031184 -43.467 -2.524446
v -0.8431736 -46.82673 -4.186303
v -0.5590049 -47.08744 -3.635825
v -0.98282 -46.74089 -4.020997
v 0.4558699 -43.9772 -3.524389
v 0.3700748 -44.01352 -3.596993
v 0.3031184 -43.467 -2.524446
v 0.3031184 -43.467 -2.524446
v 0.3700748 -44.01352 -3.596993
v 0.1324782 -43.39281 -2.381184
v -0.7656933 -46.03806 -4.831434
v -0.8431736 -46.82673 -4.186303
v -0.811643 -45.90868 -4.843968
v -0.811643 -45.90868 -4.843968
v -0.8431736 -46.82673 -4.186303
v -1.472952 -45.81596 -3.853476
v -1.472952 -45.81596 -3.853476
v -0.8431736 -46.82673 -4.186303
v -0.98282 -46.74089 -4.020997
v -0.811643 -45.90868 -4.843968
v 0.3700748 -44.01352 -3.596993
v -0.7656933 -46.03806 -4.831434
v -0.7656933 -46.03806 -4.831434
v 0.3700748 -44.01352 -3.596993
v 0.4331221 -45.69295 -3.845689
v 0.4331221 -45.69295 -3.845689
v 0.3700748 -44.01352 -3.596993
v 0.4558699 -43.9772 -3.524389
v -0.02956891 -47.28375 -2.87794
v -0.01361016 -47.11573 -2.651688
v -0.5590049 -47.08744 -3.635825
v -0.5590049 -47.08744 -3.635825
v -0.01361016 -47.11573 -2.651688
v -0.98282 -46.74089 -4.020997
v -0.98282 -46.74089 -4.020997
v -0.01361016 -47.11573 -2.651688
v -1.472952 -45.81596 -3.853476
v -1.472952 -45.81596 -3.853476
v -0.01361016 -47.11573 -2.651688
v -1.437092 -45.43146 -3.33692
v -1.437092 -45.43146 -3.33692
v -0.01361016 -47.11573 -2.651688
v -0.4647649 -45.82563 -1.984368
v 0.1551596 -47.18326 -2.769804
v -0.01361016 -47.11573 -2.651688
v -0.02956891 -47.28375 -2.87794
v 0.1762375 -47.15506 -2.772946
v 0.1441995 -44.15484 -1.80394
v 0.1551596 -47.18326 -2.769804
v 0.1551596 -47.18326 -2.769804
v 0.1441995 -44.15484 -1.80394
v -0.01361016 -47.11573 -2.651688
v -0.01361016 -47.11573 -2.651688
v 0.1441995 -44.15484 -1.80394
v -0.4647649 -45.82563 -1.984368
v -0.4647649 -45.82563 -1.984368
v 0.1441995 -44.15484 -1.80394
v 0.03025657 -44.11547 -1.726177
v -0.08574593 -43.35764 -2.04764
v 0.1324782 -43.39281 -2.381184
v -1.437092 -45.43146 -3.33692
v -1.437092 -45.43146 -3.33692
v 0.1324782 -43.39281 -2.381184
v -1.472952 -45.81596 -3.853476
v -1.472952 -45.81596 -3.853476
v 0.1324782 -43.39281 -2.381184
v -0.811643 -45.90868 -4.843968
v -0.811643 -45.90868 -4.843968
v 0.1324782 -43.39281 -2.381184
v 0.3700748 -44.01352 -3.596993

vn 0.569358 0.0247539 0.821717
vn 0.569358 0.0247539 0.821717
vn 0.569358 0.0247539 0.821717
vn 0.569358 0.0247539 0.821717
vn 0.569358 0.0247539 0.821717
vn 0.569358 0.0247539 0.821717
vn 0.9837778 -0.04553658 0.1735158
vn 0.9837778 -0.04553658 0.1735158
vn 0.9837778 -0.04553658 0.1735158
vn 0.9837778 -0.04553658 0.1735158
vn 0.9837778 -0.04553658 0.1735158
vn 0.9837778 -0.04553658 0.1735158
vn 0.9837778 -0.04553658 0.1735158
vn 0.9837778 -0.04553658 0.1735158
vn 0.9837778 -0.04553658 0.1735158
vn 0.9837778 -0.04553658 0.1735158
vn 0.9837778 -0.04553658 0.1735158
vn 0.9837778 -0.04553658 0.1735158
vn 0.6242753 -0.5304533 -0.5734977
vn 0.6242753 -0.5304533 -0.5734977
vn 0.6242753 -0.5304533 -0.5734977
vn 0.6242753 -0.5304533 -0.5734977
vn 0.6242753 -0.5304533 -0.5734977
vn 0.6242753 -0.5304533 -0.5734977
vn 0.6242753 -0.5304533 -0.5734977
vn 0.6242753 -0.5304533 -0.5734977
vn 0.6242753 -0.5304533 -0.5734977
vn 0.6242753 -0.5304533 -0.5734977
vn 0.6242753 -0.5304533 -0.5734977
vn 0.6242753 -0.5304533 -0.5734977
vn 0.6242753 -0.5304533 -0.5734977
vn 0.6242753 -0.5304533 -0.5734977
vn 0.6242753 -0.5304533 -0.5734977
vn -0.785192 0.1360744 0.604117
vn -0.785192 0.1360744 0.604117
vn -0.785192 0.1360744 0.604117
vn -0.785192 0.1360744 0.604117
vn -0.785192 0.1360744 0.604117
vn -0.785192 0.1360744 0.604117
vn -0.785192 0.1360744 0.604117
vn -0.785192 0.1360744 0.604117
vn -0.785192 0.1360744 0.604117
vn 0.581122 0.7563094 0.3004884
vn 0.581122 0.7563094 0.3004884
vn 0.581122 0.7563094 0.3004884
vn 0.581122 0.7563094 0.3004884
vn 0.581122 0.7563094 0.3004884
vn 0.581122 0.7563094 0.3004884
vn 0.581122 0.7563094 0.3004884
vn 0.581122 0.7563094 0.3004884
vn 0.581122 0.7563094 0.3004884
vn -0.5875628 -0.805397 -0.0781383
vn -0.5875628 -0.805397 -0.0781383
vn -0.5875628 -0.805397 -0.0781383
vn 0.006618186 0.891145 -0.4536704
vn 0.006618186 0.891145 -0.4536704
vn 0.006618186 0.891145 -0.4536704
vn 0.006618186 0.891145 -0.4536704
vn 0.006618186 0.891145 -0.4536704
vn 0.006618186 0.891145 -0.4536704
vn -0.7985064 -0.3322073 -0.5020217
vn -0.7985064 -0.3322073 -0.5020217
vn -0.7985064 -0.3322073 -0.5020217
vn -0.7985064 -0.3322073 -0.5020217
vn -0.7985064 -0.3322073 -0.5020217
vn -0.7985064 -0.3322073 -0.5020217
vn -0.7985064 -0.3322073 -0.5020217
vn -0.7985064 -0.3322073 -0.5020217
vn -0.7985064 -0.3322073 -0.5020217
vn 0.6048254 0.138828 -0.784164
vn 0.6048254 0.138828 -0.784164
vn 0.6048254 0.138828 -0.784164
vn 0.6048254 0.138828 -0.784164
vn 0.6048254 0.138828 -0.784164
vn 0.6048254 0.138828 -0.784164
vn 0.6048254 0.138828 -0.784164
vn 0.6048254 0.138828 -0.784164
vn 0.6048254 0.138828 -0.784164
vn -0.7713741 -0.4836649 0.4135823
vn -0.7713741 -0.4836649 0.4135823
vn -0.7713741 -0.4836649 0.4135823
vn -0.7713741 -0.4836649 0.4135823
vn -0.7713741 -0.4836649 0.4135823
vn -0.7713741 -0.4836649 0.4135823
vn -0.7713741 -0.4836649 0.4135823
vn -0.7713741 -0.4836649 0.4135823
vn -0.7713741 -0.4836649 0.4135823
vn -0.7713741 -0.4836649 0.4135823
vn -0.7713741 -0.4836649 0.4135823
vn -0.7713741 -0.4836649 0.4135823
vn -0.7713741 -0.4836649 0.4135823
vn -0.7713741 -0.4836649 0.4135823
vn -0.7713741 -0.4836649 0.4135823
vn 0.0915013 -0.802555 0.5895194
vn 0.0915013 -0.802555 0.5895194
vn 0.0915013 -0.802555 0.5895194
vn 0.4794027 -0.2650807 0.8366035
vn 0.4794027 -0.2650807 0.8366035
vn 0.4794027 -0.2650807 0.8366035
vn 0.4794027 -0.2650807 0.8366035
vn 0.4794027 -0.2650807 0.8366035
vn 0.4794027 -0.2650807 0.8366035
vn 0.4794027 -0.2650807 0.8366035
vn 0.4794027 -0.2650807 0.8366035
vn 0.4794027 -0.2650807 0.8366035
vn 0.4794027 -0.2650807 0.8366035
vn 0.4794027 -0.2650807 0.8366035
vn 0.4794027 -0.2650807 0.8366035
vn -0.5891151 0.667241 -0.4557772
vn -0.5891151 0.667241 -0.4557772
vn -0.5891151 0.667241 -0.4557772
vn -0.5891151 0.667241 -0.4557772
vn -0.5891151 0.667241 -0.4557772
vn -0.5891151 0.667241 -0.4557772
vn -0.5891151 0.667241 -0.4557772
vn -0.5891151 0.667241 -0.4557772
vn -0.5891151 0.667241 -0.4557772
vn -0.5891151 0.667241 -0.4557772
vn -0.5891151 0.667241 -0.4557772
vn -0.5891151 0.667241 -0.4557772

vt 0.1661065 0.4432334
vt 0.2556898 0.4277544
vt 0.1748117 0.4623361
vt 0.1748117 0.4623361
vt 0.2556898 0.4277544
vt 0.2633261 0.4512917
vt 0.2866947 0.4763947
vt 0.3045317 0.4070626
vt 0.3368632 0.5777537
vt 0.3368632 0.5777537
vt 0.3045317 0.4070626
vt 0.5080606 0.6103243
vt 0.5080606 0.6103243
vt 0.3045317 0.4070626
vt 0.6550503 0.5015868
vt 0.6550503 0.5015868
vt 0.3045317 0.4070626
vt 0.3560174 0.4033639
vt 0.4624627 0.558937
vt 0.6161419 0.4017888
vt 0.5871808 0.703339
vt 0.5871808 0.703339
vt 0.6161419 0.4017888
vt 0.6653259 0.608843
vt 0.6653259 0.608843
vt 0.6161419 0.4017888
vt 0.6670885 0.528204
vt 0.6670885 0.528204
vt 0.6161419 0.4017888
vt 0.6439028 0.4171741
vt 0.6439028 0.4171741
vt 0.6161419 0.4017888
vt 0.6203514 0.4013294
vt 0.724795 0.4022436
vt 0.7499402 0.444096
vt 0.6602631 0.3943259
vt 0.6602631 0.3943259
vt 0.7499402 0.444096
vt 0.4419583 0.4342938
vt 0.4419583 0.4342938
vt 0.7499402 0.444096
vt 0.4693865 0.6436825
vt 0.3915132 0.4475181
vt 0.402042 0.4543388
vt 0.3630444 0.4767322
vt 0.3630444 0.4767322
vt 0.402042 0.4543388
vt 0.383094 0.5127812
vt 0.383094 0.5127812
vt 0.402042 0.4543388
vt 0.4016998 0.5282602
vt 0.465655 0.6218187
vt 0.4278669 0.5673656
vt 0.4817669 0.6054678
vt 0.5573665 0.4925956
vt 0.5479348 0.5015868
vt 0.5400968 0.3688151
vt 0.5400968 0.3688151
vt 0.5479348 0.5015868
vt 0.5212145 0.3510812
vt 0.4577608 0.6529643
vt 0.3783734 0.5681719
vt 0.4733477 0.6546144
vt 0.4733477 0.6546144
vt 0.3783734 0.5681719
vt 0.5119608 0.5244162
vt 0.5119608 0.5244162
vt 0.3783734 0.5681719
vt 0.3934821 0.5464393
vt 0.5327652 0.7878033
vt 0.2820257 0.4694615
vt 0.5543758 0.7846063
vt 0.5543758 0.7846063
vt 0.2820257 0.4694615
vt 0.5435752 0.5329574
vt 0.5435752 0.5329574
vt 0.2820257 0.4694615
vt 0.2794568 0.450926
vt 0.317259 0.5421547
vt 0.3317114 0.515322
vt 0.3655899 0.6320381
vt 0.3655899 0.6320381
vt 0.3317114 0.515322
vt 0.421604 0.6777251
vt 0.421604 0.6777251
vt 0.3317114 0.515322
vt 0.5343308 0.6578583
vt 0.5343308 0.6578583
vt 0.3317114 0.515322
vt 0.5674453 0.5965891
vt 0.5674453 0.5965891
vt 0.3317114 0.515322
vt 0.4756165 0.436183
vt 0.4743649 0.6178342
vt 0.4938473 0.6000394
vt 0.4980944 0.6341288
vt 0.7226949 0.6608772
vt 0.2542834 0.3434355
vt 0.7289484 0.6598459
vt 0.7289484 0.6598459
vt 0.2542834 0.3434355
vt 0.7329986 0.6211531
vt 0.7329986 0.6211531
vt 0.2542834 0.3434355
vt 0.5695642 0.4025483
vt 0.5695642 0.4025483
vt 0.2542834 0.3434355
vt 0.2579915 0.3179621
vt 0.6519658 0.3455075
vt 0.6674635 0.3868958
vt 0.388485 0.505487
vt 0.388485 0.505487
vt 0.6674635 0.3868958
vt 0.3574097 0.5695876
vt 0.3574097 0.5695876
vt 0.6674635 0.3868958
vt 0.4053797 0.6925009
vt 0.4053797 0.6925009
vt 0.6674635 0.3868958
vt 0.6417558 0.5377576

usemtl Material0
usemap Material0

usemtl Material1
usemap Material1
f 1/1/1 2/2/2 3/3/3
f 4/4/4 5/5/5 6/6/6
f 7/7/7 8/8/8 9/9/9
f 10/10/10 11/11/11 12/12/12
f 13/13/13 14/14/14 15/15/15
f 16/16/16 17/17/17 18/18/18
f 19/19/19 20/20/20 21/21/21
f 22/22/22 23/23/23 24/24/24
f 25/25/25 26/26/26 27/27/27
f 28/28/28 29/29/29 30/30/30
f 31/31/31 32/32/32 33/33/33
f 34/34/34 35/35/35 36/36/36
f 37/37/37 38/38/38 39/39/39
f 40/40/40 41/41/41 42/42/42
f 43/43/43 44/44/44 45/45/45
f 46/46/46 47/47/47 48/48/48
f 49/49/49 50/50/50 51/51/51
f 52/52/52 53/53/53 54/54/54
f 55/55/55 56/56/56 57/57/57
f 58/58/58 59/59/59 60/60/60
f 61/61/61 62/62/62 63/63/63
f 64/64/64 65/65/65 66/66/66
f 67/67/67 68/68/68 69/69/69
f 70/70/70 71/71/71 72/72/72
f 73/73/73 74/74/74 75/75/75
f 76/76/76 77/77/77 78/78/78
f 79/79/79 80/80/80 81/81/81
f 82/82/82 83/83/83 84/84/84
f 85/85/85 86/86/86 87/87/87
f 88/88/88 89/89/89 90/90/90
f 91/91/91 92/92/92 93/93/93
f 94/94/94 95/95/95 96/96/96
f 97/97/97 98/98/98 99/99/99
f 100/100/100 101/101/101 102/102/102
f 103/103/103 104/104/104 105/105/105
f 106/106/106 107/107/107 108/108/108
f 109/109/109 110/110/110 111/111/111
f 112/112/112 113/113/113 114/114/114
f 115/115/115 116/116/116 117/117/117
f 118/118/118 119/119/119 120/120/120
