g  Instance
v -6.598423 -44.15633 -4.695102
v -7.236074 -44.74275 -4.472195
v -6.712911 -43.95962 -4.238534
v -6.712911 -43.95962 -4.238534
v -7.236074 -44.74275 -4.472195
v -7.121504 -43.95961 -3.577414
v -7.121504 -43.95961 -3.577414
v -7.236074 -44.74275 -4.472195
v -7.94547 -45.09371 -3.577407
v -7.910308 -44.86635 -3.274376
v -7.94547 -45.09371 -3.577407
v -8.176519 -45.26057 -3.205112
v -7.94547 -45.09371 -3.577407
v -7.910308 -44.86635 -3.274376
v -7.121504 -43.95961 -3.577414
v -7.121504 -43.95961 -3.577414
v -7.910308 -44.86635 -3.274376
v -7.262437 -44.03077 -3.369459
v -7.075444 -43.81645 -3.380969
v -7.121504 -43.95961 -3.577414
v -7.262437 -44.03077 -3.369459
v -6.880712 -43.61862 -3.377903
v -6.845207 -43.71393 -3.644173
v -7.075444 -43.81645 -3.380969
v -7.075444 -43.81645 -3.380969
v -6.845207 -43.71393 -3.644173
v -7.121504 -43.95961 -3.577414
v -7.121504 -43.95961 -3.577414
v -6.845207 -43.71393 -3.644173
v -6.712911 -43.95962 -4.238534
v -7.94547 -45.09371 -3.577407
v -8.268751 -45.83218 -3.722962
v -8.176519 -45.26057 -3.205112
v -8.176519 -45.26057 -3.205112
v -8.268751 -45.83218 -3.722962
v -8.263754 -45.4057 -3.172947
v -8.21063 -46.43575 -4.389487
v -8.221254 -46.4374 -4.371675
v -7.878986 -46.28799 -4.869543
v -7.878986 -46.28799 -4.869543
v -8.221254 -46.4374 -4.371675
v -7.717713 -45.79461 -4.769869
v -7.717713 -45.79461 -4.769869
v -8.221254 -46.4374 -4.371675
v -8.254763 -46.13766 -4.074502
v -7.717713 -45.79461 -4.769869
v -8.254763 -46.13766 -4.074502
v -7.94547 -45.09371 -3.577407
v -7.94547 -45.09371 -3.577407
v -8.254763 -46.13766 -4.074502
v -8.268751 -45.83218 -3.722962
v -7.94547 -45.09371 -3.577407
v -7.236074 -44.74275 -4.472195
v -7.717713 -45.79461 -4.769869
v -6.598423 -44.15633 -4.695102
v -6.512739 -44.27777 -4.943052
v -7.236074 -44.74275 -4.472195
v -7.236074 -44.74275 -4.472195
v -6.512739 -44.27777 -4.943052
v -6.753 -45.09372 -5.50685
v -6.753 -45.09372 -5.50685
v -6.512739 -44.27777 -4.943052
v -6.660883 -44.8102 -5.322611
v -6.753 -45.09372 -5.50685
v -6.734987 -45.07943 -5.513387
v -6.739977 -45.10318 -5.528009
v -6.734987 -45.07943 -5.513387
v -6.753 -45.09372 -5.50685
v -6.660883 -44.8102 -5.322611
v -6.753 -45.09372 -5.50685
v -7.717713 -45.79461 -4.769869
v -7.236074 -44.74275 -4.472195
v -7.717713 -45.79461 -4.769869
v -7.36014 -46.11591 -5.511007
v -7.878986 -46.28799 -4.869543
v -6.753 -45.09372 -5.50685
v -7.107616 -46.04681 -5.796028
v -7.717713 -45.79461 -4.769869
v -7.717713 -45.79461 -4.769869
v -7.107616 -46.04681 -5.796028
v -7.36014 -46.11591 -5.511007
v -6.739977 -45.10318 -5.528009
v -6.881897 -46.00427 -6.015151
v -6.753 -45.09372 -5.50685
v -6.753 -45.09372 -5.50685
v -6.881897 -46.00427 -6.015151
v -7.107616 -46.04681 -5.796028
v -5.504581 -46.66722 -2.367921
v -6.273939 -47.37704 -2.018055
v -5.939189 -47.38578 -2.303833
v -8.268751 -45.83218 -3.722962
v -8.254763 -46.13766 -4.074502
v -8.263754 -45.4057 -3.172947
v -8.263754 -45.4057 -3.172947
v -8.254763 -46.13766 -4.074502
v -7.150514 -46.48369 -1.84447
v -7.150514 -46.48369 -1.84447
v -8.254763 -46.13766 -4.074502
v -6.944763 -47.1853 -2.23261
v -6.944763 -47.1853 -2.23261
v -8.254763 -46.13766 -4.074502
v -8.221254 -46.4374 -4.371675
v -7.150514 -46.48369 -1.84447
v -6.944763 -47.1853 -2.23261
v -7.086919 -46.49597 -1.797838
v -7.086919 -46.49597 -1.797838
v -6.944763 -47.1853 -2.23261
v -6.473189 -47.34996 -1.946775
v -6.273939 -47.37704 -2.018055
v -5.504581 -46.66722 -2.367921
v -6.473189 -47.34996 -1.946775
v -6.473189 -47.34996 -1.946775
v -5.504581 -46.66722 -2.367921
v -7.086919 -46.49597 -1.797838
v -7.086919 -46.49597 -1.797838
v -5.504581 -46.66722 -2.367921
v -6.691013 -45.71582 -2.015908
v -6.691013 -45.71582 -2.015908
v -5.504581 -46.66722 -2.367921
v -5.144109 -45.96618 -2.565619
v -5.939189 -47.38578 -2.303833
v -6.70089 -46.63447 -4.958781
v -5.504581 -46.66722 -2.367921
v -5.504581 -46.66722 -2.367921
v -6.70089 -46.63447 -4.958781
v -5.144109 -45.96618 -2.565619
v -5.144109 -45.96618 -2.565619
v -6.70089 -46.63447 -4.958781
v -4.938766 -45.31483 -3.025039
v -4.938766 -45.31483 -3.025039
v -6.70089 -46.63447 -4.958781
v -6.796524 -46.08482 -5.918793
v -6.512739 -44.27777 -4.943052
v -6.598423 -44.15633 -4.695102
v -5.493878 -44.53275 -3.56998
v -5.493878 -44.53275 -3.56998
v -6.598423 -44.15633 -4.695102
v -6.799685 -43.65002 -3.309138
v -6.799685 -43.65002 -3.309138
v -6.598423 -44.15633 -4.695102
v -6.880712 -43.61862 -3.377903
v -6.880712 -43.61862 -3.377903
v -6.598423 -44.15633 -4.695102
v -6.845207 -43.71393 -3.644173
v -6.845207 -43.71393 -3.644173
v -6.598423 -44.15633 -4.695102
v -6.712911 -43.95962 -4.238534
v -5.072741 -45.02975 -3.126128
v -6.640578 -43.86007 -3.08605
v -4.938766 -45.31483 -3.025039
v -4.938766 -45.31483 -3.025039
v -6.640578 -43.86007 -3.08605
v -5.144109 -45.96618 -2.565619
v -5.144109 -45.96618 -2.565619
v -6.640578 -43.86007 -3.08605
v -6.691013 -45.71582 -2.015908
v -6.70089 -46.63447 -4.958781
v -8.21063 -46.43575 -4.389487
v -6.796524 -46.08482 -5.918793
v -6.796524 -46.08482 -5.918793
v -8.21063 -46.43575 -4.389487
v -6.881897 -46.00427 -6.015151
v -6.881897 -46.00427 -6.015151
v -8.21063 -46.43575 -4.389487
v -7.107616 -46.04681 -5.796028
v -7.107616 -46.04681 -5.796028
v -8.21063 -46.43575 -4.389487
v -7.36014 -46.11591 -5.511007
v -7.36014 -46.11591 -5.511007
v -8.21063 -46.43575 -4.389487
v -7.878986 -46.28799 -4.869543
v -7.075444 -43.81645 -3.380969
v -7.262437 -44.03077 -3.369459
v -6.880712 -43.61862 -3.377903
v -6.880712 -43.61862 -3.377903
v -7.262437 -44.03077 -3.369459
v -6.799685 -43.65002 -3.309138
v -6.799685 -43.65002 -3.309138
v -7.262437 -44.03077 -3.369459
v -6.640578 -43.86007 -3.08605
v -6.640578 -43.86007 -3.08605
v -7.262437 -44.03077 -3.369459
v -6.691013 -45.71582 -2.015908
v -6.691013 -45.71582 -2.015908
v -7.262437 -44.03077 -3.369459
v -7.086919 -46.49597 -1.797838
v -7.086919 -46.49597 -1.797838
v -7.262437 -44.03077 -3.369459
v -7.150514 -46.48369 -1.84447
v -7.150514 -46.48369 -1.84447
v -7.262437 -44.03077 -3.369459
v -8.263754 -45.4057 -3.172947
v -8.263754 -45.4057 -3.172947
v -7.262437 -44.03077 -3.369459
v -8.176519 -45.26057 -3.205112
v -8.176519 -45.26057 -3.205112
v -7.262437 -44.03077 -3.369459
v -7.910308 -44.86635 -3.274376
v -6.796524 -46.08482 -5.918793
v -6.881897 -46.00427 -6.015151
v -4.938766 -45.31483 -3.025039
v -4.938766 -45.31483 -3.025039
v -6.881897 -46.00427 -6.015151
v -5.072741 -45.02975 -3.126128
v -5.072741 -45.02975 -3.126128
v -6.881897 -46.00427 -6.015151
v -5.493878 -44.53275 -3.56998
v -5.493878 -44.53275 -3.56998
v -6.881897 -46.00427 -6.015151
v -6.512739 -44.27777 -4.943052
v -6.512739 -44.27777 -4.943052
v -6.881897 -46.00427 -6.015151
v -6.660883 -44.8102 -5.322611
v -6.660883 -44.8102 -5.322611
v -6.881897 -46.00427 -6.015151
v -6.734987 -45.07943 -5.513387
v -6.734987 -45.07943 -5.513387
v -6.881897 -46.00427 -6.015151
v -6.739977 -45.10318 -5.528009
v -6.944763 -47.1853 -2.23261
v -8.221254 -46.4374 -4.371675
v -6.473189 -47.34996 -1.946775
v -6.473189 -47.34996 -1.946775
v -8.221254 -46.4374 -4.371675
v -6.273939 -47.37704 -2.018055
v -6.273939 -47.37704 -2.018055
v -8.221254 -46.4374 -4.371675
v -5.939189 -47.38578 -2.303833
v -5.939189 -47.38578 -2.303833
v -8.221254 -46.4374 -4.371675
v -6.70089 -46.63447 -4.958781
v -6.70089 -46.63447 -4.958781
v -8.221254 -46.4374 -4.371675
v -8.21063 -46.43575 -4.389487
v -5.072741 -45.02975 -3.126128
v -5.493878 -44.53275 -3.56998
v -6.640578 -43.86007 -3.08605
v -6.640578 -43.86007 -3.08605
v -5.493878 -44.53275 -3.56998
v -6.799685 -43.65002 -3.309138

vn -0.6886511 0.5870366 -0.4256142
vn -0.6886511 0.5870366 -0.4256142
vn -0.6886511 0.5870366 -0.4256142
vn -0.6886511 0.5870366 -0.4256142
vn -0.6886511 0.5870366 -0.4256142
vn -0.6886511 0.5870366 -0.4256142
vn -0.748323 0.5436826 -0.3800289
vn -0.748323 0.5436826 -0.3800289
vn -0.748323 0.5436826 -0.3800289
vn -0.8173375 0.5023787 -0.2820907
vn -0.8173375 0.5023787 -0.2820907
vn -0.8173375 0.5023787 -0.2820907
vn -0.7642812 0.555277 -0.3279355
vn -0.7642812 0.555277 -0.3279355
vn -0.7642812 0.555277 -0.3279355
vn -0.7642812 0.555277 -0.3279355
vn -0.7642812 0.555277 -0.3279355
vn -0.7642812 0.555277 -0.3279355
vn -0.7303675 0.6220829 -0.2820923
vn -0.7303675 0.6220829 -0.2820923
vn -0.7303675 0.6220829 -0.2820923
vn -0.67079 0.6653687 -0.3276054
vn -0.67079 0.6653687 -0.3276054
vn -0.67079 0.6653687 -0.3276054
vn -0.67079 0.6653687 -0.3276054
vn -0.67079 0.6653687 -0.3276054
vn -0.67079 0.6653687 -0.3276054
vn -0.6597781 0.6312017 -0.4077709
vn -0.6597781 0.6312017 -0.4077709
vn -0.6597781 0.6312017 -0.4077709
vn -0.8400935 0.4323409 -0.3276039
vn -0.8400935 0.4323409 -0.3276039
vn -0.8400935 0.4323409 -0.3276039
vn -0.8400935 0.4323409 -0.3276039
vn -0.8400935 0.4323409 -0.3276039
vn -0.8400935 0.4323409 -0.3276039
vn -0.8160545 0.3583601 -0.4534678
vn -0.8160545 0.3583601 -0.4534678
vn -0.8160545 0.3583601 -0.4534678
vn -0.8160545 0.3583601 -0.4534678
vn -0.8160545 0.3583601 -0.4534678
vn -0.8160545 0.3583601 -0.4534678
vn -0.8160545 0.3583601 -0.4534678
vn -0.8160545 0.3583601 -0.4534678
vn -0.8160545 0.3583601 -0.4534678
vn -0.8041961 0.4324256 -0.4077705
vn -0.8041961 0.4324256 -0.4077705
vn -0.8041961 0.4324256 -0.4077705
vn -0.8041961 0.4324256 -0.4077705
vn -0.8041961 0.4324256 -0.4077705
vn -0.8041961 0.4324256 -0.4077705
vn -0.7711153 0.4735338 -0.4256134
vn -0.7711153 0.4735338 -0.4256134
vn -0.7711153 0.4735338 -0.4256134
vn -0.6745633 0.5436814 -0.4993745
vn -0.6745633 0.5436814 -0.4993745
vn -0.6745633 0.5436814 -0.4993745
vn -0.6745633 0.5436814 -0.4993745
vn -0.6745633 0.5436814 -0.4993745
vn -0.6745633 0.5436814 -0.4993745
vn -0.6745633 0.5436814 -0.4993745
vn -0.6745633 0.5436814 -0.4993745
vn -0.6745633 0.5436814 -0.4993745
vn -0.6178288 0.5023774 -0.6049005
vn -0.6178288 0.5023774 -0.6049005
vn -0.6178288 0.5023774 -0.6049005
vn -0.6351075 0.5552754 -0.5369429
vn -0.6351075 0.5552754 -0.5369429
vn -0.6351075 0.5552754 -0.5369429
vn -0.7255289 0.4735324 -0.4993744
vn -0.7255289 0.4735324 -0.4993744
vn -0.7255289 0.4735324 -0.4993744
vn -0.7705389 0.3583604 -0.5271126
vn -0.7705389 0.3583604 -0.5271126
vn -0.7705389 0.3583604 -0.5271126
vn -0.7243624 0.4324258 -0.5369422
vn -0.7243624 0.4324258 -0.5369422
vn -0.7243624 0.4324258 -0.5369422
vn -0.7243624 0.4324258 -0.5369422
vn -0.7243624 0.4324258 -0.5369422
vn -0.7243624 0.4324258 -0.5369422
vn -0.6687137 0.4323395 -0.6049004
vn -0.6687137 0.4323395 -0.6049004
vn -0.6687137 0.4323395 -0.6049004
vn -0.6687137 0.4323395 -0.6049004
vn -0.6687137 0.4323395 -0.6049004
vn -0.6687137 0.4323395 -0.6049004
vn 0.6134768 -0.306124 0.727966
vn 0.6134768 -0.306124 0.727966
vn 0.6134768 -0.306124 0.727966
vn -0.8320783 -0.4346394 0.3445783
vn -0.8320783 -0.4346394 0.3445783
vn -0.8320783 -0.4346394 0.3445783
vn -0.8320783 -0.4346394 0.3445783
vn -0.8320783 -0.4346394 0.3445783
vn -0.8320783 -0.4346394 0.3445783
vn -0.8320783 -0.4346394 0.3445783
vn -0.8320783 -0.4346394 0.3445783
vn -0.8320783 -0.4346394 0.3445783
vn -0.8320783 -0.4346394 0.3445783
vn -0.8320783 -0.4346394 0.3445783
vn -0.8320783 -0.4346394 0.3445783
vn -0.5681978 -0.5196231 0.6380776
vn -0.5681978 -0.5196231 0.6380776
vn -0.5681978 -0.5196231 0.6380776
vn -0.5681978 -0.5196231 0.6380776
vn -0.5681978 -0.5196231 0.6380776
vn -0.5681978 -0.5196231 0.6380776
vn 0.3458892 0.08563958 0.9343589
vn 0.3458892 0.08563958 0.9343589
vn 0.3458892 0.08563958 0.9343589
vn 0.3458892 0.08563958 0.9343589
vn 0.3458892 0.08563958 0.9343589
vn 0.3458892 0.08563958 0.9343589
vn 0.3458892 0.08563958 0.9343589
vn 0.3458892 0.08563958 0.9343589
vn 0.3458892 0.08563958 0.9343589
vn 0.3458892 0.08563958 0.9343589
vn 0.3458892 0.08563958 0.9343589
vn 0.3458892 0.08563958 0.9343589
vn 0.7811007 -0.5051403 -0.3670354
vn 0.7811007 -0.5051403 -0.3670354
vn 0.7811007 -0.5051403 -0.3670354
vn 0.7811007 -0.5051403 -0.3670354
vn 0.7811007 -0.5051403 -0.3670354
vn 0.7811007 -0.5051403 -0.3670354
vn 0.7811007 -0.5051403 -0.3670354
vn 0.7811007 -0.5051403 -0.3670354
vn 0.7811007 -0.5051403 -0.3670354
vn 0.7811007 -0.5051403 -0.3670354
vn 0.7811007 -0.5051403 -0.3670354
vn 0.7811007 -0.5051403 -0.3670354
vn 0.5137333 0.8272132 -0.227589
vn 0.5137333 0.8272132 -0.227589
vn 0.5137333 0.8272132 -0.227589
vn 0.5137333 0.8272132 -0.227589
vn 0.5137333 0.8272132 -0.227589
vn 0.5137333 0.8272132 -0.227589
vn 0.5137333 0.8272132 -0.227589
vn 0.5137333 0.8272132 -0.227589
vn 0.5137333 0.8272132 -0.227589
vn 0.5137333 0.8272132 -0.227589
vn 0.5137333 0.8272132 -0.227589
vn 0.5137333 0.8272132 -0.227589
vn 0.5137333 0.8272132 -0.227589
vn 0.5137333 0.8272132 -0.227589
vn 0.5137333 0.8272132 -0.227589
vn 0.3625509 0.4581502 0.8115759
vn 0.3625509 0.4581502 0.8115759
vn 0.3625509 0.4581502 0.8115759
vn 0.3625509 0.4581502 0.8115759
vn 0.3625509 0.4581502 0.8115759
vn 0.3625509 0.4581502 0.8115759
vn 0.3625509 0.4581502 0.8115759
vn 0.3625509 0.4581502 0.8115759
vn 0.3625509 0.4581502 0.8115759
vn -0.2827802 -0.8442816 -0.4552187
vn -0.2827802 -0.8442816 -0.4552187
vn -0.2827802 -0.8442816 -0.4552187
vn -0.2827802 -0.8442816 -0.4552187
vn -0.2827802 -0.8442816 -0.4552187
vn -0.2827802 -0.8442816 -0.4552187
vn -0.2827802 -0.8442816 -0.4552187
vn -0.2827802 -0.8442816 -0.4552187
vn -0.2827802 -0.8442816 -0.4552187
vn -0.2827802 -0.8442816 -0.4552187
vn -0.2827802 -0.8442816 -0.4552187
vn -0.2827802 -0.8442816 -0.4552187
vn -0.2827802 -0.8442816 -0.4552187
vn -0.2827802 -0.8442816 -0.4552187
vn -0.2827802 -0.8442816 -0.4552187
vn -0.4696834 0.4505679 0.759201
vn -0.4696834 0.4505679 0.759201
vn -0.4696834 0.4505679 0.759201
vn -0.4696834 0.4505679 0.759201
vn -0.4696834 0.4505679 0.759201
vn -0.4696834 0.4505679 0.759201
vn -0.4696834 0.4505679 0.759201
vn -0.4696834 0.4505679 0.759201
vn -0.4696834 0.4505679 0.759201
vn -0.4696834 0.4505679 0.759201
vn -0.4696834 0.4505679 0.759201
vn -0.4696834 0.4505679 0.759201
vn -0.4696834 0.4505679 0.759201
vn -0.4696834 0.4505679 0.759201
vn -0.4696834 0.4505679 0.759201
vn -0.4696834 0.4505679 0.759201
vn -0.4696834 0.4505679 0.759201
vn -0.4696834 0.4505679 0.759201
vn -0.4696834 0.4505679 0.759201
vn -0.4696834 0.4505679 0.759201
vn -0.4696834 0.4505679 0.759201
vn -0.4696834 0.4505679 0.759201
vn -0.4696834 0.4505679 0.759201
vn -0.4696834 0.4505679 0.759201
vn -0.4696834 0.4505679 0.759201
vn -0.4696834 0.4505679 0.759201
vn -0.4696834 0.4505679 0.759201
vn 0.8057432 0.1784156 -0.5647529
vn 0.8057432 0.1784156 -0.5647529
vn 0.8057432 0.1784156 -0.5647529
vn 0.8057432 0.1784156 -0.5647529
vn 0.8057432 0.1784156 -0.5647529
vn 0.8057432 0.1784156 -0.5647529
vn 0.8057432 0.1784156 -0.5647529
vn 0.8057432 0.1784156 -0.5647529
vn 0.8057432 0.1784156 -0.5647529
vn 0.8057432 0.1784156 -0.5647529
vn 0.8057432 0.1784156 -0.5647529
vn 0.8057432 0.1784156 -0.5647529
vn 0.8057432 0.1784156 -0.5647529
vn 0.8057432 0.1784156 -0.5647529
vn 0.8057432 0.1784156 -0.5647529
vn 0.8057432 0.1784156 -0.5647529
vn 0.8057432 0.1784156 -0.5647529
vn 0.8057432 0.1784156 -0.5647529
vn 0.8057432 0.1784156 -0.5647529
vn 0.8057432 0.1784156 -0.5647529
vn 0.8057432 0.1784156 -0.5647529
vn -0.2055025 -0.9555405 -0.2114501
vn -0.2055025 -0.9555405 -0.2114501
vn -0.2055025 -0.9555405 -0.2114501
vn -0.2055025 -0.9555405 -0.2114501
vn -0.2055025 -0.9555405 -0.2114501
vn -0.2055025 -0.9555405 -0.2114501
vn -0.2055025 -0.9555405 -0.2114501
vn -0.2055025 -0.9555405 -0.2114501
vn -0.2055025 -0.9555405 -0.2114501
vn -0.2055025 -0.9555405 -0.2114501
vn -0.2055025 -0.9555405 -0.2114501
vn -0.2055025 -0.9555405 -0.2114501
vn -0.2055025 -0.9555405 -0.2114501
vn -0.2055025 -0.9555405 -0.2114501
vn -0.2055025 -0.9555405 -0.2114501
vn 0.5744022 0.7594725 0.3053912
vn 0.5744022 0.7594725 0.3053912
vn 0.5744022 0.7594725 0.3053912
vn 0.5744022 0.7594725 0.3053912
vn 0.5744022 0.7594725 0.3053912
vn 0.5744022 0.7594725 0.3053912

vt 0.5284355 0.157461
vt 0.545454 0.157461
vt 0.5277902 0.1662312
vt 0.5277902 0.1662312
vt 0.545454 0.157461
vt 0.5340904 0.1771435
vt 0.5340904 0.1771435
vt 0.545454 0.157461
vt 0.5568177 0.1771435
vt 0.5535004 0.1828892
vt 0.5568177 0.1771435
vt 0.5607867 0.1840182
vt 0.5568177 0.1771435
vt 0.5535004 0.1828892
vt 0.5340904 0.1771435
vt 0.5340904 0.1771435
vt 0.5535004 0.1828892
vt 0.5363668 0.1810864
vt 0.5319961 0.180771
vt 0.5340904 0.1771435
vt 0.5363668 0.1810864
vt 0.5271367 0.1816468
vt 0.5275389 0.1771435
vt 0.5319961 0.180771
vt 0.5319961 0.180771
vt 0.5275389 0.1771435
vt 0.5340904 0.1771435
vt 0.5340904 0.1771435
vt 0.5275389 0.1771435
vt 0.5277902 0.1662312
vt 0.5568177 0.1771435
vt 0.5711022 0.1771435
vt 0.5607867 0.1840182
vt 0.5607867 0.1840182
vt 0.5711022 0.1771435
vt 0.5637053 0.1850493
vt 0.5811448 0.1669592
vt 0.5812224 0.1672972
vt 0.5771302 0.157461
vt 0.5771302 0.157461
vt 0.5812224 0.1672972
vt 0.5681813 0.157461
vt 0.5681813 0.157461
vt 0.5812224 0.1672972
vt 0.5764049 0.1717048
vt 0.5681813 0.157461
vt 0.5764049 0.1717048
vt 0.5568177 0.1771435
vt 0.5568177 0.1771435
vt 0.5764049 0.1717048
vt 0.5711022 0.1771435
vt 0.5568177 0.1771435
vt 0.545454 0.157461
vt 0.5681813 0.157461
vt 0.5284355 0.157461
vt 0.5265338 0.1525051
vt 0.545454 0.157461
vt 0.545454 0.157461
vt 0.5265338 0.1525051
vt 0.5340904 0.1377784
vt 0.5340904 0.1377784
vt 0.5265338 0.1525051
vt 0.5312496 0.1426989
vt 0.5340904 0.1377784
vt 0.5336736 0.1377784
vt 0.5338653 0.1373886
vt 0.5336736 0.1377784
vt 0.5340904 0.1377784
vt 0.5312496 0.1426989
vt 0.5568177 0.1377784
vt 0.5681813 0.157461
vt 0.545454 0.157461
vt 0.5681813 0.157461
vt 0.5758834 0.1441204
vt 0.5771302 0.157461
vt 0.5568177 0.1377784
vt 0.5752538 0.1377784
vt 0.5681813 0.157461
vt 0.5681813 0.157461
vt 0.5752538 0.1377784
vt 0.5758834 0.1441204
vt 0.5570427 0.1373886
vt 0.5749643 0.1328325
vt 0.5568177 0.1377784
vt 0.5568177 0.1377784
vt 0.5749643 0.1328325
vt 0.5752538 0.1377784
vt 0.5001945 0.5562556
vt 0.6405276 0.4830795
vt 0.6202108 0.5428485
vt 0.5487036 0.54658
vt 0.5196675 0.5857979
vt 0.5880527 0.4852171
vt 0.5880527 0.4852171
vt 0.5196675 0.5857979
vt 0.4340126 0.3370226
vt 0.4340126 0.3370226
vt 0.5196675 0.5857979
vt 0.3589098 0.3803189
vt 0.3589098 0.3803189
vt 0.5196675 0.5857979
vt 0.4902189 0.6189498
vt 0.4373831 0.3655289
vt 0.353547 0.429892
vt 0.4307452 0.3577941
vt 0.4307452 0.3577941
vt 0.353547 0.429892
vt 0.2973969 0.382494
vt 0.3139728 0.4516526
vt 0.391382 0.3657352
vt 0.3161198 0.4739008
vt 0.3161198 0.4739008
vt 0.391382 0.3657352
vt 0.4037952 0.542436
vt 0.4037952 0.542436
vt 0.391382 0.3657352
vt 0.4872844 0.498221
vt 0.4872844 0.498221
vt 0.391382 0.3657352
vt 0.4664191 0.3254813
vt 0.5656358 0.2988032
vt 0.5426845 0.6004425
vt 0.4769244 0.3060786
vt 0.4769244 0.3060786
vt 0.5426845 0.6004425
vt 0.3940212 0.3285377
vt 0.3940212 0.3285377
vt 0.5426845 0.6004425
vt 0.3244312 0.3807361
vt 0.3244312 0.3807361
vt 0.5426845 0.6004425
vt 0.4993882 0.7095175
vt 0.4525386 0.5904388
vt 0.4387238 0.5647311
vt 0.5535039 0.4480806
vt 0.5535039 0.4480806
vt 0.4387238 0.5647311
vt 0.3944947 0.4210368
vt 0.3944947 0.4210368
vt 0.4387238 0.5647311
vt 0.3858739 0.4281669
vt 0.3858739 0.4281669
vt 0.4387238 0.5647311
vt 0.3939931 0.4557732
vt 0.3939931 0.4557732
vt 0.4387238 0.5647311
vt 0.4184257 0.5173939
vt 0.6662635 0.6996263
vt 0.3372476 0.6880851
vt 0.7137131 0.6705059
vt 0.7137131 0.6705059
vt 0.3372476 0.6880851
vt 0.7546279 0.5381983
vt 0.7546279 0.5381983
vt 0.3372476 0.6880851
vt 0.5243647 0.3798735
vt 0.4262543 0.5951453
vt 0.5912873 0.5245569
vt 0.4555388 0.714196
vt 0.4555388 0.714196
vt 0.5912873 0.5245569
vt 0.4673051 0.7261497
vt 0.4673051 0.7261497
vt 0.5912873 0.5245569
vt 0.4894408 0.6989701
vt 0.4894408 0.6989701
vt 0.5912873 0.5245569
vt 0.5134609 0.6636243
vt 0.5134609 0.6636243
vt 0.5912873 0.5245569
vt 0.5617543 0.5840822
vt 0.7044782 0.6358258
vt 0.6615663 0.6331537
vt 0.7464056 0.6351132
vt 0.7464056 0.6351132
vt 0.6615663 0.6331537
vt 0.7514496 0.6191561
vt 0.7514496 0.6191561
vt 0.6615663 0.6331537
vt 0.7451868 0.5673844
vt 0.7451868 0.5673844
vt 0.6615663 0.6331537
vt 0.537631 0.3190309
vt 0.537631 0.3190309
vt 0.6615663 0.6331537
vt 0.4111972 0.2684218
vt 0.4111972 0.2684218
vt 0.6615663 0.6331537
vt 0.4058859 0.2792458
vt 0.4058859 0.2792458
vt 0.6615663 0.6331537
vt 0.4069829 0.5875511
vt 0.4069829 0.5875511
vt 0.6615663 0.6331537
vt 0.4319218 0.595014
vt 0.4319218 0.595014
vt 0.6615663 0.6331537
vt 0.5027353 0.6110931
vt 0.5265961 0.7109145
vt 0.515036 0.7248184
vt 0.4848889 0.293206
vt 0.4848889 0.293206
vt 0.515036 0.7248184
vt 0.4482822 0.307799
vt 0.4482822 0.307799
vt 0.515036 0.7248184
vt 0.3796297 0.3718715
vt 0.3796297 0.3718715
vt 0.515036 0.7248184
vt 0.3237328 0.5700751
vt 0.3237328 0.5700751
vt 0.515036 0.7248184
vt 0.3818424 0.6248658
vt 0.3818424 0.6248658
vt 0.515036 0.7248184
vt 0.4112487 0.6524017
vt 0.4112487 0.6524017
vt 0.515036 0.7248184
vt 0.4138786 0.6545113
vt 0.452023 0.3325598
vt 0.5933686 0.5526929
vt 0.4021639 0.3031441
vt 0.4021639 0.3031441
vt 0.5933686 0.5526929
vt 0.3819971 0.3104804
vt 0.3819971 0.3104804
vt 0.5933686 0.5526929
vt 0.3488967 0.3398868
vt 0.3488967 0.3398868
vt 0.5933686 0.5526929
vt 0.4396848 0.6131089
vt 0.4396848 0.6131089
vt 0.5933686 0.5526929
vt 0.5923561 0.5545304
vt 0.6022379 0.5056089
vt 0.5366091 0.5537335
vt 0.4002934 0.5012587
vt 0.4002934 0.5012587
vt 0.5366091 0.5537335
vt 0.3741075 0.5254475

usemtl Material0
usemap Material0
f 1/1/1 2/2/2 3/3/3
f 4/4/4 5/5/5 6/6/6
f 7/7/7 8/8/8 9/9/9
f 10/10/10 11/11/11 12/12/12
f 13/13/13 14/14/14 15/15/15
f 16/16/16 17/17/17 18/18/18
f 19/19/19 20/20/20 21/21/21
f 22/22/22 23/23/23 24/24/24
f 25/25/25 26/26/26 27/27/27
f 28/28/28 29/29/29 30/30/30
f 31/31/31 32/32/32 33/33/33
f 34/34/34 35/35/35 36/36/36
f 37/37/37 38/38/38 39/39/39
f 40/40/40 41/41/41 42/42/42
f 43/43/43 44/44/44 45/45/45
f 46/46/46 47/47/47 48/48/48
f 49/49/49 50/50/50 51/51/51
f 52/52/52 53/53/53 54/54/54
f 55/55/55 56/56/56 57/57/57
f 58/58/58 59/59/59 60/60/60
f 61/61/61 62/62/62 63/63/63
f 64/64/64 65/65/65 66/66/66
f 67/67/67 68/68/68 69/69/69
f 70/70/70 71/71/71 72/72/72
f 73/73/73 74/74/74 75/75/75
f 76/76/76 77/77/77 78/78/78
f 79/79/79 80/80/80 81/81/81
f 82/82/82 83/83/83 84/84/84
f 85/85/85 86/86/86 87/87/87

usemtl Material1
usemap Material1
f 88/88/88 89/89/89 90/90/90
f 91/91/91 92/92/92 93/93/93
f 94/94/94 95/95/95 96/96/96
f 97/97/97 98/98/98 99/99/99
f 100/100/100 101/101/101 102/102/102
f 103/103/103 104/104/104 105/105/105
f 106/106/106 107/107/107 108/108/108
f 109/109/109 110/110/110 111/111/111
f 112/112/112 113/113/113 114/114/114
f 115/115/115 116/116/116 117/117/117
f 118/118/118 119/119/119 120/120/120
f 121/121/121 122/122/122 123/123/123
f 124/124/124 125/125/125 126/126/126
f 127/127/127 128/128/128 129/129/129
f 130/130/130 131/131/131 132/132/132
f 133/133/133 134/134/134 135/135/135
f 136/136/136 137/137/137 138/138/138
f 139/139/139 140/140/140 141/141/141
f 142/142/142 143/143/143 144/144/144
f 145/145/145 146/146/146 147/147/147
f 148/148/148 149/149/149 150/150/150
f 151/151/151 152/152/152 153/153/153
f 154/154/154 155/155/155 156/156/156
f 157/157/157 158/158/158 159/159/159
f 160/160/160 161/161/161 162/162/162
f 163/163/163 164/164/164 165/165/165
f 166/166/166 167/167/167 168/168/168
f 169/169/169 170/170/170 171/171/171
f 172/172/172 173/173/173 174/174/174
f 175/175/175 176/176/176 177/177/177
f 178/178/178 179/179/179 180/180/180
f 181/181/181 182/182/182 183/183/183
f 184/184/184 185/185/185 186/186/186
f 187/187/187 188/188/188 189/189/189
f 190/190/190 191/191/191 192/192/192
f 193/193/193 194/194/194 195/195/195
f 196/196/196 197/197/197 198/198/198
f 199/199/199 200/200/200 201/201/201
f 202/202/202 203/203/203 204/204/204
f 205/205/205 206/206/206 207/207/207
f 208/208/208 209/209/209 210/210/210
f 211/211/211 212/212/212 213/213/213
f 214/214/214 215/215/215 216/216/216
f 217/217/217 218/218/218 219/219/219
f 220/220/220 221/221/221 222/222/222
f 223/223/223 224/224/224 225/225/225
f 226/226/226 227/227/227 228/228/228
f 229/229/229 230/230/230 231/231/231
f 232/232/232 233/233/233 234/234/234
f 235/235/235 236/236/236 237/237/237
f 238/238/238 239/239/239 240/240/240
