g  Instance
v 4.473676 -56.47084 2.683105
v 4.477343 -56.48337 2.730239
v 4.433589 -56.39878 2.338788
v 4.433589 -56.39878 2.338788
v 4.477343 -56.48337 2.730239
v 4.385944 -56.47302 2.351023
v 4.385944 -56.47302 2.351023
v 4.477343 -56.48337 2.730239
v 4.383726 -56.68208 2.893579
v 1.723377 -56.44868 1.476558
v 1.688973 -56.45469 1.481707
v 2.620332 -56.11354 1.420609
v 2.620332 -56.11354 1.420609
v 1.688973 -56.45469 1.481707
v 3.591667 -55.38514 1.52044
v 3.591667 -55.38514 1.52044
v 1.688973 -56.45469 1.481707
v 3.443889 -55.0825 1.686735
v 3.443889 -55.0825 1.686735
v 1.688973 -56.45469 1.481707
v 2.86357 -54.46757 2.088024
v 2.86357 -54.46757 2.088024
v 1.688973 -56.45469 1.481707
v 1.24657 -55.15625 2.151795
v 2.545463 -56.78554 2.602363
v 2.980874 -55.46625 4.299511
v 1.604118 -56.496 1.563206
v 1.604118 -56.496 1.563206
v 2.980874 -55.46625 4.299511
v 1.230527 -55.16759 2.166632
v 1.230527 -55.16759 2.166632
v 2.980874 -55.46625 4.299511
v 2.600123 -55.18751 4.014497
v 2.620332 -56.11354 1.420609
v 3.576562 -56.42352 1.975798
v 1.723377 -56.44868 1.476558
v 3.754852 -55.43687 1.614666
v 3.591667 -55.38514 1.52044
v 3.443889 -55.0825 1.686735
v 3.637813 -55.73484 4.122437
v 3.190506 -55.22017 4.19763
v 3.033177 -55.46488 4.312979
v 1.230527 -55.16759 2.166632
v 2.600123 -55.18751 4.014497
v 1.24657 -55.15625 2.151795
v 1.24657 -55.15625 2.151795
v 2.600123 -55.18751 4.014497
v 2.86357 -54.46757 2.088024
v 2.86357 -54.46757 2.088024
v 2.600123 -55.18751 4.014497
v 3.037137 -55.008 4.018129
v 1.723377 -56.44868 1.476558
v 3.576562 -56.42352 1.975798
v 1.688973 -56.45469 1.481707
v 1.688973 -56.45469 1.481707
v 3.576562 -56.42352 1.975798
v 1.604118 -56.496 1.563206
v 1.604118 -56.496 1.563206
v 3.576562 -56.42352 1.975798
v 2.545463 -56.78554 2.602363
v 2.545463 -56.78554 2.602363
v 3.576562 -56.42352 1.975798
v 4.297345 -56.74935 3.042061
v 4.297345 -56.74935 3.042061
v 3.576562 -56.42352 1.975798
v 4.383726 -56.68208 2.893579
v 4.383726 -56.68208 2.893579
v 3.576562 -56.42352 1.975798
v 4.385944 -56.47302 2.351023
v 4.385944 -56.47302 2.351023
v 3.576562 -56.42352 1.975798
v 4.433589 -56.39878 2.338788
v 4.433589 -56.39878 2.338788
v 3.576562 -56.42352 1.975798
v 4.420972 -56.34355 2.308708
v 4.420972 -56.34355 2.308708
v 3.576562 -56.42352 1.975798
v 3.754852 -55.43687 1.614666
v 3.754852 -55.43687 1.614666
v 3.576562 -56.42352 1.975798
v 3.591667 -55.38514 1.52044
v 3.591667 -55.38514 1.52044
v 3.576562 -56.42352 1.975798
v 2.620332 -56.11354 1.420609
v 1.688973 -56.45469 1.481707
v 1.604118 -56.496 1.563206
v 1.24657 -55.15625 2.151795
v 1.24657 -55.15625 2.151795
v 1.604118 -56.496 1.563206
v 1.230527 -55.16759 2.166632
v 4.420972 -56.34355 2.308708
v 4.473676 -56.47084 2.683105
v 4.433589 -56.39878 2.338788
v 3.033177 -55.46488 4.312979
v 2.980874 -55.46625 4.299511
v 3.637813 -55.73484 4.122437
v 3.637813 -55.73484 4.122437
v 2.980874 -55.46625 4.299511
v 3.672704 -55.76997 4.08774
v 3.672704 -55.76997 4.08774
v 2.980874 -55.46625 4.299511
v 4.297345 -56.74935 3.042061
v 4.297345 -56.74935 3.042061
v 2.980874 -55.46625 4.299511
v 2.545463 -56.78554 2.602363
v 2.86357 -54.46757 2.088024
v 3.037137 -55.008 4.018129
v 3.443889 -55.0825 1.686735
v 3.443889 -55.0825 1.686735
v 3.037137 -55.008 4.018129
v 3.754852 -55.43687 1.614666
v 3.754852 -55.43687 1.614666
v 3.037137 -55.008 4.018129
v 4.420972 -56.34355 2.308708
v 4.420972 -56.34355 2.308708
v 3.037137 -55.008 4.018129
v 4.473676 -56.47084 2.683105
v 4.473676 -56.47084 2.683105
v 3.037137 -55.008 4.018129
v 4.477343 -56.48337 2.730239
v 4.477343 -56.48337 2.730239
v 3.037137 -55.008 4.018129
v 3.672704 -55.76997 4.08774
v 3.672704 -55.76997 4.08774
v 3.037137 -55.008 4.018129
v 3.637813 -55.73484 4.122437
v 3.637813 -55.73484 4.122437
v 3.037137 -55.008 4.018129
v 3.190506 -55.22017 4.19763
v 4.297345 -56.74935 3.042061
v 4.383726 -56.68208 2.893579
v 3.672704 -55.76997 4.08774
v 3.672704 -55.76997 4.08774
v 4.383726 -56.68208 2.893579
v 4.477343 -56.48337 2.730239
v 3.190506 -55.22017 4.19763
v 3.037137 -55.008 4.018129
v 3.033177 -55.46488 4.312979
v 3.033177 -55.46488 4.312979
v 3.037137 -55.008 4.018129
v 2.980874 -55.46625 4.299511
v 2.980874 -55.46625 4.299511
v 3.037137 -55.008 4.018129
v 2.600123 -55.18751 4.014497

vn 0.8068473 -0.5523534 -0.2095312
vn 0.8068473 -0.5523534 -0.2095312
vn 0.8068473 -0.5523534 -0.2095312
vn 0.8068473 -0.5523534 -0.2095312
vn 0.8068473 -0.5523534 -0.2095312
vn 0.8068473 -0.5523534 -0.2095312
vn 0.8068473 -0.5523534 -0.2095312
vn 0.8068473 -0.5523534 -0.2095312
vn 0.8068473 -0.5523534 -0.2095312
vn -0.2029774 0.3935581 -0.8966115
vn -0.2029774 0.3935581 -0.8966115
vn -0.2029774 0.3935581 -0.8966115
vn -0.2029774 0.3935581 -0.8966115
vn -0.2029774 0.3935581 -0.8966115
vn -0.2029774 0.3935581 -0.8966115
vn -0.2029774 0.3935581 -0.8966115
vn -0.2029774 0.3935581 -0.8966115
vn -0.2029774 0.3935581 -0.8966115
vn -0.2029774 0.3935581 -0.8966115
vn -0.2029774 0.3935581 -0.8966115
vn -0.2029774 0.3935581 -0.8966115
vn -0.2029774 0.3935581 -0.8966115
vn -0.2029774 0.3935581 -0.8966115
vn -0.2029774 0.3935581 -0.8966115
vn -0.7221278 -0.4440344 0.5304384
vn -0.7221278 -0.4440344 0.5304384
vn -0.7221278 -0.4440344 0.5304384
vn -0.7221278 -0.4440344 0.5304384
vn -0.7221278 -0.4440344 0.5304384
vn -0.7221278 -0.4440344 0.5304384
vn -0.7221278 -0.4440344 0.5304384
vn -0.7221278 -0.4440344 0.5304384
vn -0.7221278 -0.4440344 0.5304384
vn 0.2029987 -0.663511 -0.7201006
vn 0.2029987 -0.663511 -0.7201006
vn 0.2029987 -0.663511 -0.7201006
vn 0.5354263 0.5922907 -0.6020883
vn 0.5354263 0.5922907 -0.6020883
vn 0.5354263 0.5922907 -0.6020883
vn 0.3711822 0.1898016 0.908955
vn 0.3711822 0.1898016 0.908955
vn 0.3711822 0.1898016 0.908955
vn -0.3666166 0.8868324 0.281284
vn -0.3666166 0.8868324 0.281284
vn -0.3666166 0.8868324 0.281284
vn -0.3666166 0.8868324 0.281284
vn -0.3666166 0.8868324 0.281284
vn -0.3666166 0.8868324 0.281284
vn -0.3666166 0.8868324 0.281284
vn -0.3666166 0.8868324 0.281284
vn -0.3666166 0.8868324 0.281284
vn 0.1087547 -0.9277446 -0.3570189
vn 0.1087547 -0.9277446 -0.3570189
vn 0.1087547 -0.9277446 -0.3570189
vn 0.1087547 -0.9277446 -0.3570189
vn 0.1087547 -0.9277446 -0.3570189
vn 0.1087547 -0.9277446 -0.3570189
vn 0.1087547 -0.9277446 -0.3570189
vn 0.1087547 -0.9277446 -0.3570189
vn 0.1087547 -0.9277446 -0.3570189
vn 0.1087547 -0.9277446 -0.3570189
vn 0.1087547 -0.9277446 -0.3570189
vn 0.1087547 -0.9277446 -0.3570189
vn 0.1087547 -0.9277446 -0.3570189
vn 0.1087547 -0.9277446 -0.3570189
vn 0.1087547 -0.9277446 -0.3570189
vn 0.1087547 -0.9277446 -0.3570189
vn 0.1087547 -0.9277446 -0.3570189
vn 0.1087547 -0.9277446 -0.3570189
vn 0.3703583 -0.3775578 -0.8486961
vn 0.3703583 -0.3775578 -0.8486961
vn 0.3703583 -0.3775578 -0.8486961
vn 0.3703583 -0.3775578 -0.8486961
vn 0.3703583 -0.3775578 -0.8486961
vn 0.3703583 -0.3775578 -0.8486961
vn 0.3703583 -0.3775578 -0.8486961
vn 0.3703583 -0.3775578 -0.8486961
vn 0.3703583 -0.3775578 -0.8486961
vn 0.3703583 -0.3775578 -0.8486961
vn 0.3703583 -0.3775578 -0.8486961
vn 0.3703583 -0.3775578 -0.8486961
vn 0.3703583 -0.3775578 -0.8486961
vn 0.3703583 -0.3775578 -0.8486961
vn 0.3703583 -0.3775578 -0.8486961
vn -0.7161 0.1115954 -0.6890191
vn -0.7161 0.1115954 -0.6890191
vn -0.7161 0.1115954 -0.6890191
vn -0.7161 0.1115954 -0.6890191
vn -0.7161 0.1115954 -0.6890191
vn -0.7161 0.1115954 -0.6890191
vn 0.9802541 0.182592 -0.07590877
vn 0.9802541 0.182592 -0.07590877
vn 0.9802541 0.182592 -0.07590877
vn -0.1423305 -0.7634516 0.6299872
vn -0.1423305 -0.7634516 0.6299872
vn -0.1423305 -0.7634516 0.6299872
vn -0.1423305 -0.7634516 0.6299872
vn -0.1423305 -0.7634516 0.6299872
vn -0.1423305 -0.7634516 0.6299872
vn -0.1423305 -0.7634516 0.6299872
vn -0.1423305 -0.7634516 0.6299872
vn -0.1423305 -0.7634516 0.6299872
vn -0.1423305 -0.7634516 0.6299872
vn -0.1423305 -0.7634516 0.6299872
vn -0.1423305 -0.7634516 0.6299872
vn 0.7580937 0.6425046 0.1117233
vn 0.7580937 0.6425046 0.1117233
vn 0.7580937 0.6425046 0.1117233
vn 0.7580937 0.6425046 0.1117233
vn 0.7580937 0.6425046 0.1117233
vn 0.7580937 0.6425046 0.1117233
vn 0.7580937 0.6425046 0.1117233
vn 0.7580937 0.6425046 0.1117233
vn 0.7580937 0.6425046 0.1117233
vn 0.7580937 0.6425046 0.1117233
vn 0.7580937 0.6425046 0.1117233
vn 0.7580937 0.6425046 0.1117233
vn 0.7580937 0.6425046 0.1117233
vn 0.7580937 0.6425046 0.1117233
vn 0.7580937 0.6425046 0.1117233
vn 0.7580937 0.6425046 0.1117233
vn 0.7580937 0.6425046 0.1117233
vn 0.7580937 0.6425046 0.1117233
vn 0.7580937 0.6425046 0.1117233
vn 0.7580937 0.6425046 0.1117233
vn 0.7580937 0.6425046 0.1117233
vn 0.7580937 0.6425046 0.1117233
vn 0.7580937 0.6425046 0.1117233
vn 0.7580937 0.6425046 0.1117233
vn 0.8624203 0.009684756 0.5061004
vn 0.8624203 0.009684756 0.5061004
vn 0.8624203 0.009684756 0.5061004
vn 0.8624203 0.009684756 0.5061004
vn 0.8624203 0.009684756 0.5061004
vn 0.8624203 0.009684756 0.5061004
vn -0.2244247 0.5297587 0.8179177
vn -0.2244247 0.5297587 0.8179177
vn -0.2244247 0.5297587 0.8179177
vn -0.2244247 0.5297587 0.8179177
vn -0.2244247 0.5297587 0.8179177
vn -0.2244247 0.5297587 0.8179177
vn -0.2244247 0.5297587 0.8179177
vn -0.2244247 0.5297587 0.8179177
vn -0.2244247 0.5297587 0.8179177

vt 0.4529324 0.4578405
vt 0.4537621 0.4529934
vt 0.4492291 0.4932426
vt 0.4492291 0.4932426
vt 0.4537621 0.4529934
vt 0.4580936 0.4919862
vt 0.4580936 0.4919862
vt 0.4537621 0.4529934
vt 0.4755603 0.4362018
vt 0.2030555 0.6255877
vt 0.1956535 0.6230094
vt 0.4141411 0.6536393
vt 0.4141411 0.6536393
vt 0.1956535 0.6230094
vt 0.6799237 0.6035927
vt 0.6799237 0.6035927
vt 0.1956535 0.6230094
vt 0.6815644 0.520216
vt 0.6815644 0.520216
vt 0.1956535 0.6230094
vt 0.6296332 0.3190309
vt 0.6296332 0.3190309
vt 0.1956535 0.6230094
vt 0.2404967 0.2870556
vt 0.4104987 0.5494489
vt 0.5143797 0.3172824
vt 0.4962849 0.6916103
vt 0.4962849 0.6916103
vt 0.5143797 0.3172824
vt 0.6502032 0.609068
vt 0.6502032 0.609068
vt 0.5143797 0.3172824
vt 0.5650451 0.3562706
vt 0.5329714 0.5942922
vt 0.41626 0.4809231
vt 0.6683823 0.5828727
vt 0.5433033 0.533923
vt 0.5241303 0.5484551
vt 0.4856437 0.522813
vt 0.4685192 0.4522761
vt 0.5202301 0.5032744
vt 0.4923753 0.5212098
vt 0.3620225 0.5795444
vt 0.4909127 0.382269
vt 0.3639866 0.5811289
vt 0.3639866 0.5811289
vt 0.4909127 0.382269
vt 0.5440439 0.5879355
vt 0.5440439 0.5879355
vt 0.4909127 0.382269
vt 0.5393187 0.3818799
vt 0.6147918 0.5934765
vt 0.4207696 0.5372232
vt 0.6184576 0.5928952
vt 0.6184576 0.5928952
vt 0.4207696 0.5372232
vt 0.6278331 0.5837165
vt 0.6278331 0.5837165
vt 0.4207696 0.5372232
vt 0.5329808 0.4666301
vt 0.5329808 0.4666301
vt 0.4207696 0.5372232
vt 0.3494124 0.4170897
vt 0.3494124 0.4170897
vt 0.4207696 0.5372232
vt 0.3395587 0.4338204
vt 0.3395587 0.4338204
vt 0.4207696 0.5372232
vt 0.3367695 0.4949489
vt 0.3727106 0.2804365
vt 0.4736711 0.4123176
vt 0.3567253 0.2847352
vt 0.3567253 0.2847352
vt 0.4736711 0.4123176
vt 0.3512078 0.2953061
vt 0.3512078 0.2953061
vt 0.4736711 0.4123176
vt 0.3215764 0.5392483
vt 0.3215764 0.5392483
vt 0.4736711 0.4123176
vt 0.3364976 0.5723628
vt 0.3364976 0.5723628
vt 0.4736711 0.4123176
vt 0.5602074 0.607446
vt 0.3779703 0.5152376
vt 0.3706574 0.4999836
vt 0.5427595 0.389821
vt 0.5427595 0.389821
vt 0.3706574 0.4999836
vt 0.5409125 0.3870411
vt 0.5711299 0.5201316
vt 0.584415 0.4831076
vt 0.5767083 0.5171596
vt 0.4738633 0.3049489
vt 0.4803418 0.3071474
vt 0.3923617 0.3360054
vt 0.3923617 0.3360054
vt 0.4803418 0.3071474
vt 0.3872052 0.3416588
vt 0.3872052 0.3416588
vt 0.4803418 0.3071474
vt 0.2867556 0.5121061
vt 0.2867556 0.5121061
vt 0.4803418 0.3071474
vt 0.503926 0.5837821
vt 0.3907304 0.5623965
vt 0.4426193 0.3702542
vt 0.4742571 0.6023363
vt 0.4742571 0.6023363
vt 0.4426193 0.3702542
vt 0.5208957 0.6095181
vt 0.5208957 0.6095181
vt 0.4426193 0.3702542
vt 0.6319302 0.5404297
vt 0.6319302 0.5404297
vt 0.4426193 0.3702542
vt 0.644906 0.5031525
vt 0.644906 0.5031525
vt 0.4426193 0.3702542
vt 0.6460873 0.4984647
vt 0.6460873 0.4984647
vt 0.4426193 0.3702542
vt 0.5407813 0.363321
vt 0.5407813 0.363321
vt 0.4426193 0.3702542
vt 0.5358966 0.3598661
vt 0.5358966 0.3598661
vt 0.4426193 0.3702542
vt 0.4684443 0.3523797
vt 0.6000065 0.5422298
vt 0.5924498 0.5618528
vt 0.4875938 0.4040343
vt 0.4875938 0.4040343
vt 0.5924498 0.5618528
vt 0.5699392 0.5834447
vt 0.5832993 0.4008607
vt 0.573305 0.4541747
vt 0.5422251 0.3666024
vt 0.5422251 0.3666024
vt 0.573305 0.4541747
vt 0.533909 0.3706058
vt 0.533909 0.3706058
vt 0.573305 0.4541747
vt 0.4925816 0.4552529

usemtl Material0
usemap Material0

usemtl Material1
usemap Material1
f 1/1/1 2/2/2 3/3/3
f 4/4/4 5/5/5 6/6/6
f 7/7/7 8/8/8 9/9/9
f 10/10/10 11/11/11 12/12/12
f 13/13/13 14/14/14 15/15/15
f 16/16/16 17/17/17 18/18/18
f 19/19/19 20/20/20 21/21/21
f 22/22/22 23/23/23 24/24/24
f 25/25/25 26/26/26 27/27/27
f 28/28/28 29/29/29 30/30/30
f 31/31/31 32/32/32 33/33/33
f 34/34/34 35/35/35 36/36/36
f 37/37/37 38/38/38 39/39/39
f 40/40/40 41/41/41 42/42/42
f 43/43/43 44/44/44 45/45/45
f 46/46/46 47/47/47 48/48/48
f 49/49/49 50/50/50 51/51/51
f 52/52/52 53/53/53 54/54/54
f 55/55/55 56/56/56 57/57/57
f 58/58/58 59/59/59 60/60/60
f 61/61/61 62/62/62 63/63/63
f 64/64/64 65/65/65 66/66/66
f 67/67/67 68/68/68 69/69/69
f 70/70/70 71/71/71 72/72/72
f 73/73/73 74/74/74 75/75/75
f 76/76/76 77/77/77 78/78/78
f 79/79/79 80/80/80 81/81/81
f 82/82/82 83/83/83 84/84/84
f 85/85/85 86/86/86 87/87/87
f 88/88/88 89/89/89 90/90/90
f 91/91/91 92/92/92 93/93/93
f 94/94/94 95/95/95 96/96/96
f 97/97/97 98/98/98 99/99/99
f 100/100/100 101/101/101 102/102/102
f 103/103/103 104/104/104 105/105/105
f 106/106/106 107/107/107 108/108/108
f 109/109/109 110/110/110 111/111/111
f 112/112/112 113/113/113 114/114/114
f 115/115/115 116/116/116 117/117/117
f 118/118/118 119/119/119 120/120/120
f 121/121/121 122/122/122 123/123/123
f 124/124/124 125/125/125 126/126/126
f 127/127/127 128/128/128 129/129/129
f 130/130/130 131/131/131 132/132/132
f 133/133/133 134/134/134 135/135/135
f 136/136/136 137/137/137 138/138/138
f 139/139/139 140/140/140 141/141/141
f 142/142/142 143/143/143 144/144/144
