g  Instance
v -1.925452 -47.93151 -6.200411
v -2.601277 -48.15936 -6.260353
v -1.656191 -45.70478 -7.061649
v -1.656191 -45.70478 -7.061649
v -2.601277 -48.15936 -6.260353
v -2.299654 -44.65696 -7.642834
v -2.299654 -44.65696 -7.642834
v -2.601277 -48.15936 -6.260353
v -2.561713 -44.41789 -7.801762
v -2.561713 -44.41789 -7.801762
v -2.601277 -48.15936 -6.260353
v -3.459797 -45.3758 -7.609937
v -1.274428 -45.49139 -6.752657
v -1.656191 -45.70478 -7.061649
v -1.263557 -45.4615 -6.74488
v -1.263557 -45.4615 -6.74488
v -1.656191 -45.70478 -7.061649
v -2.299654 -44.65696 -7.642834
v -2.513086 -45.00372 -4.595472
v -1.481725 -44.84838 -6.083466
v -3.089749 -44.92757 -4.324235
v -3.089749 -44.92757 -4.324235
v -1.481725 -44.84838 -6.083466
v -2.43021 -44.26768 -7.204157
v -3.943833 -47.50034 -4.742271
v -4.657312 -46.62556 -5.625113
v -3.624846 -47.98657 -5.027876
v -3.624846 -47.98657 -5.027876
v -4.657312 -46.62556 -5.625113
v -3.555161 -48.15235 -5.516258
v -3.555161 -48.15235 -5.516258
v -4.657312 -46.62556 -5.625113
v -4.663555 -46.63422 -5.749519
v -0.9444324 -45.5774 -5.584595
v -0.877781 -45.7234 -5.822734
v -1.109539 -45.22816 -5.934878
v -1.109539 -45.22816 -5.934878
v -0.877781 -45.7234 -5.822734
v -0.9860783 -45.4957 -6.156945
v -4.657312 -46.62556 -5.625113
v -3.943833 -47.50034 -4.742271
v -4.194135 -46.10743 -4.209445
v -1.698277 -47.8386 -5.811219
v -1.645012 -47.82682 -5.94636
v -1.485304 -47.67105 -5.851664
v -2.601277 -48.15936 -6.260353
v -2.845146 -48.22988 -6.017542
v -3.459797 -45.3758 -7.609937
v -3.459797 -45.3758 -7.609937
v -2.845146 -48.22988 -6.017542
v -4.663555 -46.63422 -5.749519
v -4.663555 -46.63422 -5.749519
v -2.845146 -48.22988 -6.017542
v -3.555161 -48.15235 -5.516258
v -1.698277 -47.8386 -5.811219
v -1.485304 -47.67105 -5.851664
v -2.211708 -48.00212 -5.640338
v -2.211708 -48.00212 -5.640338
v -1.485304 -47.67105 -5.851664
v -3.624846 -47.98657 -5.027876
v -3.624846 -47.98657 -5.027876
v -1.485304 -47.67105 -5.851664
v -3.943833 -47.50034 -4.742271
v -3.943833 -47.50034 -4.742271
v -1.485304 -47.67105 -5.851664
v -4.194135 -46.10743 -4.209445
v -4.194135 -46.10743 -4.209445
v -1.485304 -47.67105 -5.851664
v -3.089749 -44.92757 -4.324235
v -3.089749 -44.92757 -4.324235
v -1.485304 -47.67105 -5.851664
v -2.513086 -45.00372 -4.595472
v -2.513086 -45.00372 -4.595472
v -1.485304 -47.67105 -5.851664
v -0.9353552 -45.65536 -5.472881
v -0.9353552 -45.65536 -5.472881
v -1.485304 -47.67105 -5.851664
v -0.8336666 -45.96838 -5.612158
v -0.8336666 -45.96838 -5.612158
v -1.485304 -47.67105 -5.851664
v -1.219714 -47.17853 -5.815536
v -0.9444324 -45.5774 -5.584595
v -0.9353552 -45.65536 -5.472881
v -0.877781 -45.7234 -5.822734
v -0.877781 -45.7234 -5.822734
v -0.9353552 -45.65536 -5.472881
v -0.8336666 -45.96838 -5.612158
v -1.263557 -45.4615 -6.74488
v -2.299654 -44.65696 -7.642834
v -0.9860783 -45.4957 -6.156945
v -0.9860783 -45.4957 -6.156945
v -2.299654 -44.65696 -7.642834
v -1.109539 -45.22816 -5.934878
v -1.109539 -45.22816 -5.934878
v -2.299654 -44.65696 -7.642834
v -1.481725 -44.84838 -6.083466
v -1.481725 -44.84838 -6.083466
v -2.299654 -44.65696 -7.642834
v -2.43021 -44.26768 -7.204157
v -2.43021 -44.26768 -7.204157
v -2.299654 -44.65696 -7.642834
v -2.561713 -44.41789 -7.801762
v -3.555161 -48.15235 -5.516258
v -2.845146 -48.22988 -6.017542
v -3.624846 -47.98657 -5.027876
v -3.624846 -47.98657 -5.027876
v -2.845146 -48.22988 -6.017542
v -2.211708 -48.00212 -5.640338
v -2.845146 -48.22988 -6.017542
v -2.601277 -48.15936 -6.260353
v -2.211708 -48.00212 -5.640338
v -2.211708 -48.00212 -5.640338
v -2.601277 -48.15936 -6.260353
v -1.698277 -47.8386 -5.811219
v -1.698277 -47.8386 -5.811219
v -2.601277 -48.15936 -6.260353
v -1.645012 -47.82682 -5.94636
v -1.645012 -47.82682 -5.94636
v -2.601277 -48.15936 -6.260353
v -1.925452 -47.93151 -6.200411
v -4.194135 -46.10743 -4.209445
v -3.089749 -44.92757 -4.324235
v -4.657312 -46.62556 -5.625113
v -4.657312 -46.62556 -5.625113
v -3.089749 -44.92757 -4.324235
v -4.663555 -46.63422 -5.749519
v -4.663555 -46.63422 -5.749519
v -3.089749 -44.92757 -4.324235
v -3.459797 -45.3758 -7.609937
v -3.459797 -45.3758 -7.609937
v -3.089749 -44.92757 -4.324235
v -2.561713 -44.41789 -7.801762
v -2.561713 -44.41789 -7.801762
v -3.089749 -44.92757 -4.324235
v -2.43021 -44.26768 -7.204157
v -1.656191 -45.70478 -7.061649
v -1.274428 -45.49139 -6.752657
v -1.925452 -47.93151 -6.200411
v -1.925452 -47.93151 -6.200411
v -1.274428 -45.49139 -6.752657
v -1.645012 -47.82682 -5.94636
v -1.645012 -47.82682 -5.94636
v -1.274428 -45.49139 -6.752657
v -1.485304 -47.67105 -5.851664
v -1.485304 -47.67105 -5.851664
v -1.274428 -45.49139 -6.752657
v -1.219714 -47.17853 -5.815536
v -0.9353552 -45.65536 -5.472881
v -0.9444324 -45.5774 -5.584595
v -2.513086 -45.00372 -4.595472
v -2.513086 -45.00372 -4.595472
v -0.9444324 -45.5774 -5.584595
v -1.481725 -44.84838 -6.083466
v -1.481725 -44.84838 -6.083466
v -0.9444324 -45.5774 -5.584595
v -1.109539 -45.22816 -5.934878
v -1.263557 -45.4615 -6.74488
v -0.9860783 -45.4957 -6.156945
v -1.274428 -45.49139 -6.752657
v -1.274428 -45.49139 -6.752657
v -0.9860783 -45.4957 -6.156945
v -1.219714 -47.17853 -5.815536
v -1.219714 -47.17853 -5.815536
v -0.9860783 -45.4957 -6.156945
v -0.8336666 -45.96838 -5.612158
v -0.8336666 -45.96838 -5.612158
v -0.9860783 -45.4957 -6.156945
v -0.877781 -45.7234 -5.822734

vn 0.2064626 -0.3745777 -0.9039163
vn 0.2064626 -0.3745777 -0.9039163
vn 0.2064626 -0.3745777 -0.9039163
vn 0.2064626 -0.3745777 -0.9039163
vn 0.2064626 -0.3745777 -0.9039163
vn 0.2064626 -0.3745777 -0.9039163
vn 0.2064626 -0.3745777 -0.9039163
vn 0.2064626 -0.3745777 -0.9039163
vn 0.2064626 -0.3745777 -0.9039163
vn 0.2064626 -0.3745777 -0.9039163
vn 0.2064626 -0.3745777 -0.9039163
vn 0.2064626 -0.3745777 -0.9039163
vn 0.6398491 -0.0329357 -0.7677944
vn 0.6398491 -0.0329357 -0.7677944
vn 0.6398491 -0.0329357 -0.7677944
vn 0.6398491 -0.0329357 -0.7677944
vn 0.6398491 -0.0329357 -0.7677944
vn 0.6398491 -0.0329357 -0.7677944
vn 0.2499064 0.9297833 0.2702775
vn 0.2499064 0.9297833 0.2702775
vn 0.2499064 0.9297833 0.2702775
vn 0.2499064 0.9297833 0.2702775
vn 0.2499064 0.9297833 0.2702775
vn 0.2499064 0.9297833 0.2702775
vn -0.8108799 -0.5795748 0.08103549
vn -0.8108799 -0.5795748 0.08103549
vn -0.8108799 -0.5795748 0.08103549
vn -0.8108799 -0.5795748 0.08103549
vn -0.8108799 -0.5795748 0.08103549
vn -0.8108799 -0.5795748 0.08103549
vn -0.8108799 -0.5795748 0.08103549
vn -0.8108799 -0.5795748 0.08103549
vn -0.8108799 -0.5795748 0.08103549
vn 0.9062001 0.4228125 -0.005584034
vn 0.9062001 0.4228125 -0.005584034
vn 0.9062001 0.4228125 -0.005584034
vn 0.9062001 0.4228125 -0.005584034
vn 0.9062001 0.4228125 -0.005584034
vn 0.9062001 0.4228125 -0.005584034
vn -0.8656696 -0.3068602 0.3955414
vn -0.8656696 -0.3068602 0.3955414
vn -0.8656696 -0.3068602 0.3955414
vn 0.6290822 -0.7557029 0.1821232
vn 0.6290822 -0.7557029 0.1821232
vn 0.6290822 -0.7557029 0.1821232
vn -0.5362011 -0.4963809 -0.6827111
vn -0.5362011 -0.4963809 -0.6827111
vn -0.5362011 -0.4963809 -0.6827111
vn -0.5362011 -0.4963809 -0.6827111
vn -0.5362011 -0.4963809 -0.6827111
vn -0.5362011 -0.4963809 -0.6827111
vn -0.5362011 -0.4963809 -0.6827111
vn -0.5362011 -0.4963809 -0.6827111
vn -0.5362011 -0.4963809 -0.6827111
vn 0.3803919 -0.2700012 0.8845345
vn 0.3803919 -0.2700012 0.8845345
vn 0.3803919 -0.2700012 0.8845345
vn 0.3803919 -0.2700012 0.8845345
vn 0.3803919 -0.2700012 0.8845345
vn 0.3803919 -0.2700012 0.8845345
vn 0.3803919 -0.2700012 0.8845345
vn 0.3803919 -0.2700012 0.8845345
vn 0.3803919 -0.2700012 0.8845345
vn 0.3803919 -0.2700012 0.8845345
vn 0.3803919 -0.2700012 0.8845345
vn 0.3803919 -0.2700012 0.8845345
vn 0.3803919 -0.2700012 0.8845345
vn 0.3803919 -0.2700012 0.8845345
vn 0.3803919 -0.2700012 0.8845345
vn 0.3803919 -0.2700012 0.8845345
vn 0.3803919 -0.2700012 0.8845345
vn 0.3803919 -0.2700012 0.8845345
vn 0.3803919 -0.2700012 0.8845345
vn 0.3803919 -0.2700012 0.8845345
vn 0.3803919 -0.2700012 0.8845345
vn 0.3803919 -0.2700012 0.8845345
vn 0.3803919 -0.2700012 0.8845345
vn 0.3803919 -0.2700012 0.8845345
vn 0.3803919 -0.2700012 0.8845345
vn 0.3803919 -0.2700012 0.8845345
vn 0.3803919 -0.2700012 0.8845345
vn 0.9586135 0.2640809 0.1064022
vn 0.9586135 0.2640809 0.1064022
vn 0.9586135 0.2640809 0.1064022
vn 0.9586135 0.2640809 0.1064022
vn 0.9586135 0.2640809 0.1064022
vn 0.9586135 0.2640809 0.1064022
vn 0.7366638 0.5995802 -0.312778
vn 0.7366638 0.5995802 -0.312778
vn 0.7366638 0.5995802 -0.312778
vn 0.7366638 0.5995802 -0.312778
vn 0.7366638 0.5995802 -0.312778
vn 0.7366638 0.5995802 -0.312778
vn 0.7366638 0.5995802 -0.312778
vn 0.7366638 0.5995802 -0.312778
vn 0.7366638 0.5995802 -0.312778
vn 0.7366638 0.5995802 -0.312778
vn 0.7366638 0.5995802 -0.312778
vn 0.7366638 0.5995802 -0.312778
vn 0.7366638 0.5995802 -0.312778
vn 0.7366638 0.5995802 -0.312778
vn 0.7366638 0.5995802 -0.312778
vn 0.1352544 -0.9321938 0.3357398
vn 0.1352544 -0.9321938 0.3357398
vn 0.1352544 -0.9321938 0.3357398
vn 0.1352544 -0.9321938 0.3357398
vn 0.1352544 -0.9321938 0.3357398
vn 0.1352544 -0.9321938 0.3357398
vn 0.3158493 -0.9478827 0.04192398
vn 0.3158493 -0.9478827 0.04192398
vn 0.3158493 -0.9478827 0.04192398
vn 0.3158493 -0.9478827 0.04192398
vn 0.3158493 -0.9478827 0.04192398
vn 0.3158493 -0.9478827 0.04192398
vn 0.3158493 -0.9478827 0.04192398
vn 0.3158493 -0.9478827 0.04192398
vn 0.3158493 -0.9478827 0.04192398
vn 0.3158493 -0.9478827 0.04192398
vn 0.3158493 -0.9478827 0.04192398
vn 0.3158493 -0.9478827 0.04192398
vn -0.7305547 0.6827679 -0.0108606
vn -0.7305547 0.6827679 -0.0108606
vn -0.7305547 0.6827679 -0.0108606
vn -0.7305547 0.6827679 -0.0108606
vn -0.7305547 0.6827679 -0.0108606
vn -0.7305547 0.6827679 -0.0108606
vn -0.7305547 0.6827679 -0.0108606
vn -0.7305547 0.6827679 -0.0108606
vn -0.7305547 0.6827679 -0.0108606
vn -0.7305547 0.6827679 -0.0108606
vn -0.7305547 0.6827679 -0.0108606
vn -0.7305547 0.6827679 -0.0108606
vn -0.7305547 0.6827679 -0.0108606
vn -0.7305547 0.6827679 -0.0108606
vn -0.7305547 0.6827679 -0.0108606
vn 0.6984542 -0.3300607 -0.6349975
vn 0.6984542 -0.3300607 -0.6349975
vn 0.6984542 -0.3300607 -0.6349975
vn 0.6984542 -0.3300607 -0.6349975
vn 0.6984542 -0.3300607 -0.6349975
vn 0.6984542 -0.3300607 -0.6349975
vn 0.6984542 -0.3300607 -0.6349975
vn 0.6984542 -0.3300607 -0.6349975
vn 0.6984542 -0.3300607 -0.6349975
vn 0.6984542 -0.3300607 -0.6349975
vn 0.6984542 -0.3300607 -0.6349975
vn 0.6984542 -0.3300607 -0.6349975
vn 0.543163 0.7085821 0.4504281
vn 0.543163 0.7085821 0.4504281
vn 0.543163 0.7085821 0.4504281
vn 0.543163 0.7085821 0.4504281
vn 0.543163 0.7085821 0.4504281
vn 0.543163 0.7085821 0.4504281
vn 0.543163 0.7085821 0.4504281
vn 0.543163 0.7085821 0.4504281
vn 0.543163 0.7085821 0.4504281
vn 0.8796811 -0.2088176 -0.4272661
vn 0.8796811 -0.2088176 -0.4272661
vn 0.8796811 -0.2088176 -0.4272661
vn 0.8796811 -0.2088176 -0.4272661
vn 0.8796811 -0.2088176 -0.4272661
vn 0.8796811 -0.2088176 -0.4272661
vn 0.8796811 -0.2088176 -0.4272661
vn 0.8796811 -0.2088176 -0.4272661
vn 0.8796811 -0.2088176 -0.4272661
vn 0.8796811 -0.2088176 -0.4272661
vn 0.8796811 -0.2088176 -0.4272661
vn 0.8796811 -0.2088176 -0.4272661

vt 0.5902935 0.3745669
vt 0.6091383 0.4439694
vt 0.3504812 0.3469232
vt 0.3504812 0.3469232
vt 0.6091383 0.4439694
vt 0.230868 0.4129973
vt 0.230868 0.4129973
vt 0.6091383 0.4439694
vt 0.2025633 0.4399051
vt 0.2025633 0.4399051
vt 0.6091383 0.4439694
vt 0.2988594 0.5321229
vt 0.3308957 0.4003263
vt 0.3666071 0.4743227
vt 0.3262267 0.3984652
vt 0.3262267 0.3984652
vt 0.3666071 0.4743227
vt 0.2111138 0.613512
vt 0.5319495 0.4670707
vt 0.6295395 0.6248845
vt 0.4730664 0.4383066
vt 0.4730664 0.4383066
vt 0.6295395 0.6248845
vt 0.5206144 0.7437383
vt 0.4391691 0.4469274
vt 0.550288 0.5342887
vt 0.3818564 0.47519
vt 0.3818564 0.47519
vt 0.550288 0.5342887
vt 0.3645585 0.5235162
vt 0.3645585 0.5235162
vt 0.550288 0.5342887
vt 0.5499505 0.5466082
vt 0.5133109 0.5192972
vt 0.5290899 0.5427173
vt 0.4753306 0.5537429
vt 0.4753306 0.5537429
vt 0.5290899 0.5427173
vt 0.504301 0.5755692
vt 0.5172674 0.5808383
vt 0.4034999 0.477951
vt 0.5529788 0.4158522
vt 0.4556841 0.5816727
vt 0.450837 0.5954172
vt 0.4286029 0.5857885
vt 0.2526849 0.5273414
vt 0.2680139 0.4826294
vt 0.6059787 0.7758401
vt 0.6059787 0.7758401
vt 0.2680139 0.4826294
vt 0.591756 0.4332766
vt 0.591756 0.4332766
vt 0.2680139 0.4826294
vt 0.3405619 0.3903225
vt 0.5350809 0.9423779
vt 0.480309 0.9606508
vt 0.6258174 0.8651703
vt 0.6258174 0.8651703
vt 0.480309 0.9606508
vt 0.7955241 0.5884606
vt 0.7955241 0.5884606
vt 0.480309 0.9606508
vt 0.7508777 0.459425
vt 0.7508777 0.459425
vt 0.480309 0.9606508
vt 0.5420282 0.2187033
vt 0.5420282 0.2187033
vt 0.480309 0.9606508
vt 0.2045415 0.2705688
vt 0.2045415 0.2705688
vt 0.480309 0.9606508
vt 0.1472851 0.3931118
vt 0.1472851 0.3931118
vt 0.480309 0.9606508
vt 0.06681011 0.7895191
vt 0.06681011 0.7895191
vt 0.480309 0.9606508
vt 0.1081984 0.8524477
vt 0.1081984 0.8524477
vt 0.480309 0.9606508
vt 0.3632647 0.944328
vt 0.471646 0.5471519
vt 0.4793199 0.5360419
vt 0.4873125 0.5708345
vt 0.4873125 0.5708345
vt 0.4793199 0.5360419
vt 0.5118296 0.5498896
vt 0.5471004 0.5634372
vt 0.4148208 0.6612804
vt 0.5679797 0.4993648
vt 0.5679797 0.4993648
vt 0.4148208 0.6612804
vt 0.5384279 0.4751618
vt 0.5384279 0.4751618
vt 0.4148208 0.6612804
vt 0.4836232 0.4913487
vt 0.4836232 0.4913487
vt 0.4148208 0.6612804
vt 0.3750404 0.6134745
vt 0.3750404 0.6134745
vt 0.4148208 0.6612804
vt 0.3785094 0.678597
vt 0.5399374 0.5727378
vt 0.4677692 0.6282691
vt 0.5446627 0.5186222
vt 0.5446627 0.5186222
vt 0.4677692 0.6282691
vt 0.398934 0.5864823
vt 0.5016196 0.5709377
vt 0.4766666 0.5948453
vt 0.4354002 0.5337824
vt 0.4354002 0.5337824
vt 0.4766666 0.5948453
vt 0.3823861 0.5506115
vt 0.3823861 0.5506115
vt 0.4766666 0.5948453
vt 0.3770468 0.5639248
vt 0.3770468 0.5639248
vt 0.4766666 0.5948453
vt 0.406486 0.5889481
vt 0.4539965 0.38458
vt 0.6128885 0.3958682
vt 0.3856863 0.5237693
vt 0.3856863 0.5237693
vt 0.6128885 0.3958682
vt 0.3846457 0.5360044
vt 0.3846457 0.5360044
vt 0.6128885 0.3958682
vt 0.5558478 0.7189212
vt 0.5558478 0.7189212
vt 0.6128885 0.3958682
vt 0.6849396 0.7377848
vt 0.6849396 0.7377848
vt 0.6128885 0.3958682
vt 0.7045626 0.6790283
vt 0.3166402 0.5690532
vt 0.2713375 0.518144
vt 0.5874902 0.4271731
vt 0.5874902 0.4271731
vt 0.2713375 0.518144
vt 0.560198 0.3853207
vt 0.560198 0.3853207
vt 0.2713375 0.518144
vt 0.5335902 0.3697198
vt 0.5335902 0.3697198
vt 0.2713375 0.518144
vt 0.4624814 0.3637663
vt 0.6469405 0.6119275
vt 0.6409214 0.6257096
vt 0.4654019 0.5037244
vt 0.4654019 0.5037244
vt 0.6409214 0.6257096
vt 0.5451315 0.6872413
vt 0.5451315 0.6872413
vt 0.6409214 0.6257096
vt 0.6030911 0.6689121
vt 0.3364366 0.5520553
vt 0.3330755 0.481345
vt 0.3398727 0.5529929
vt 0.3398727 0.5529929
vt 0.3330755 0.481345
vt 0.5169767 0.4402848
vt 0.5169767 0.4402848
vt 0.3330755 0.481345
vt 0.3792547 0.4158287
vt 0.3792547 0.4158287
vt 0.3330755 0.481345
vt 0.3544424 0.441152

usemtl Material0
usemap Material0

usemtl Material1
usemap Material1
f 1/1/1 2/2/2 3/3/3
f 4/4/4 5/5/5 6/6/6
f 7/7/7 8/8/8 9/9/9
f 10/10/10 11/11/11 12/12/12
f 13/13/13 14/14/14 15/15/15
f 16/16/16 17/17/17 18/18/18
f 19/19/19 20/20/20 21/21/21
f 22/22/22 23/23/23 24/24/24
f 25/25/25 26/26/26 27/27/27
f 28/28/28 29/29/29 30/30/30
f 31/31/31 32/32/32 33/33/33
f 34/34/34 35/35/35 36/36/36
f 37/37/37 38/38/38 39/39/39
f 40/40/40 41/41/41 42/42/42
f 43/43/43 44/44/44 45/45/45
f 46/46/46 47/47/47 48/48/48
f 49/49/49 50/50/50 51/51/51
f 52/52/52 53/53/53 54/54/54
f 55/55/55 56/56/56 57/57/57
f 58/58/58 59/59/59 60/60/60
f 61/61/61 62/62/62 63/63/63
f 64/64/64 65/65/65 66/66/66
f 67/67/67 68/68/68 69/69/69
f 70/70/70 71/71/71 72/72/72
f 73/73/73 74/74/74 75/75/75
f 76/76/76 77/77/77 78/78/78
f 79/79/79 80/80/80 81/81/81
f 82/82/82 83/83/83 84/84/84
f 85/85/85 86/86/86 87/87/87
f 88/88/88 89/89/89 90/90/90
f 91/91/91 92/92/92 93/93/93
f 94/94/94 95/95/95 96/96/96
f 97/97/97 98/98/98 99/99/99
f 100/100/100 101/101/101 102/102/102
f 103/103/103 104/104/104 105/105/105
f 106/106/106 107/107/107 108/108/108
f 109/109/109 110/110/110 111/111/111
f 112/112/112 113/113/113 114/114/114
f 115/115/115 116/116/116 117/117/117
f 118/118/118 119/119/119 120/120/120
f 121/121/121 122/122/122 123/123/123
f 124/124/124 125/125/125 126/126/126
f 127/127/127 128/128/128 129/129/129
f 130/130/130 131/131/131 132/132/132
f 133/133/133 134/134/134 135/135/135
f 136/136/136 137/137/137 138/138/138
f 139/139/139 140/140/140 141/141/141
f 142/142/142 143/143/143 144/144/144
f 145/145/145 146/146/146 147/147/147
f 148/148/148 149/149/149 150/150/150
f 151/151/151 152/152/152 153/153/153
f 154/154/154 155/155/155 156/156/156
f 157/157/157 158/158/158 159/159/159
f 160/160/160 161/161/161 162/162/162
f 163/163/163 164/164/164 165/165/165
f 166/166/166 167/167/167 168/168/168
