g  Instance
v 9.615093 -52.53883 -0.6591275
v 9.549597 -52.929 2.504123E-06
v 9.597591 -52.58046 -0.8278179
v 9.597591 -52.58046 -0.8278179
v 9.549597 -52.929 2.504123E-06
v 9.510576 -53.09013 9.536743E-07
v 9.549597 -52.929 2.504123E-06
v 9.521338 -53.01607 0.1475275
v 9.510576 -53.09013 9.536743E-07
v 9.521338 -53.01607 0.1475275
v 9.458735 -53.14475 0.3662687
v 9.510576 -53.09013 9.536743E-07
v 9.510576 -53.09013 9.536743E-07
v 9.458735 -53.14475 0.3662687
v 9.420864 -53.27156 0.324064
v 9.045332 -54.21968 9.536743E-07
v 9.510576 -53.09013 9.536743E-07
v 9.420864 -53.27156 0.324064
v 9.51516 -52.69679 -1.317678
v 9.597591 -52.58046 -0.8278179
v 9.188557 -53.70265 -1.364097
v 9.188557 -53.70265 -1.364097
v 9.597591 -52.58046 -0.8278179
v 9.510576 -53.09013 9.536743E-07
v 8.943642 -54.45644 -0.08165121
v 9.188557 -53.70265 -1.364097
v 9.045332 -54.21968 9.536743E-07
v 9.045332 -54.21968 9.536743E-07
v 9.188557 -53.70265 -1.364097
v 9.510576 -53.09013 9.536743E-07
v 9.188557 -53.70265 -1.364097
v 8.943642 -54.45644 -0.08165121
v 8.466585 -55.13374 -1.40059
v 8.466585 -55.13374 -1.40059
v 8.943642 -54.45644 -0.08165121
v 8.889364 -54.55719 -0.1174098
v 8.889364 -54.55719 -0.1174098
v 8.568802 -55.06587 -0.3022417
v 8.466585 -55.13374 -1.40059
v 8.466585 -55.13374 -1.40059
v 8.568802 -55.06587 -0.3022417
v 8.333817 -55.3962 -0.9065599
v 8.333817 -55.3962 -0.9065599
v 8.33285 -55.3972 -0.9086434
v 8.466585 -55.13374 -1.40059
v 8.466585 -55.13374 -1.40059
v 8.33285 -55.3972 -0.9086434
v 8.32151 -55.33342 -1.40059
v 9.51516 -52.69679 -1.317678
v 9.188557 -53.70265 -1.364097
v 9.211239 -52.95543 -2.473054
v 8.63246 -54.23931 -2.728558
v 8.67988 -54.10571 -2.753258
v 9.188557 -53.70265 -1.364097
v 9.188557 -53.70265 -1.364097
v 8.67988 -54.10571 -2.753258
v 9.211239 -52.95543 -2.473054
v 9.211239 -52.95543 -2.473054
v 8.67988 -54.10571 -2.753258
v 9.144209 -52.99808 -2.672894
v 8.612717 -54.28414 -2.716121
v 8.63246 -54.23931 -2.728558
v 8.466585 -55.13374 -1.40059
v 8.466585 -55.13374 -1.40059
v 8.63246 -54.23931 -2.728558
v 9.188557 -53.70265 -1.364097
v 8.466585 -55.13374 -1.40059
v 8.289759 -55.26221 -1.754241
v 8.612717 -54.28414 -2.716121
v 8.612717 -54.28414 -2.716121
v 8.289759 -55.26221 -1.754241
v 8.200851 -55.0956 -2.432082
v 8.466585 -55.13374 -1.40059
v 8.32151 -55.33342 -1.40059
v 8.289759 -55.26221 -1.754241
v 9.144209 -52.99808 -2.672894
v 8.67988 -54.10571 -2.753258
v 9.034037 -53.04845 -2.925921
v 7.835456 -53.6925 0.04950151
v 8.861696 -53.10721 0.3227241
v 7.29643 -53.29203 -0.641068
v 7.29643 -53.29203 -0.641068
v 8.861696 -53.10721 0.3227241
v 7.172708 -53.05325 -0.9130661
v 7.172708 -53.05325 -0.9130661
v 8.861696 -53.10721 0.3227241
v 7.540737 -52.37585 -1.176369
v 7.540737 -52.37585 -1.176369
v 8.861696 -53.10721 0.3227241
v 7.944227 -52.36203 -0.9017872
v 7.681983 -54.07104 -0.08021212
v 7.835456 -53.6925 0.04950151
v 7.567102 -54.08737 -0.2135778
v 7.567102 -54.08737 -0.2135778
v 7.835456 -53.6925 0.04950151
v 7.29643 -53.29203 -0.641068
v 8.289759 -55.26221 -1.754241
v 8.32151 -55.33342 -1.40059
v 8.200851 -55.0956 -2.432082
v 8.200851 -55.0956 -2.432082
v 8.32151 -55.33342 -1.40059
v 7.282148 -54.231 -1.265969
v 7.282148 -54.231 -1.265969
v 8.32151 -55.33342 -1.40059
v 7.480579 -54.49744 -0.7581356
v 7.480579 -54.49744 -0.7581356
v 8.32151 -55.33342 -1.40059
v 8.33285 -55.3972 -0.9086434
v 9.034037 -53.04845 -2.925921
v 8.67988 -54.10571 -2.753258
v 7.540737 -52.37585 -1.176369
v 7.540737 -52.37585 -1.176369
v 8.67988 -54.10571 -2.753258
v 7.172708 -53.05325 -0.9130661
v 7.172708 -53.05325 -0.9130661
v 8.67988 -54.10571 -2.753258
v 7.282148 -54.231 -1.265969
v 7.282148 -54.231 -1.265969
v 8.67988 -54.10571 -2.753258
v 8.200851 -55.0956 -2.432082
v 8.200851 -55.0956 -2.432082
v 8.67988 -54.10571 -2.753258
v 8.612717 -54.28414 -2.716121
v 8.612717 -54.28414 -2.716121
v 8.67988 -54.10571 -2.753258
v 8.63246 -54.23931 -2.728558
v 8.33285 -55.3972 -0.9086434
v 8.333817 -55.3962 -0.9065599
v 7.480579 -54.49744 -0.7581356
v 7.480579 -54.49744 -0.7581356
v 8.333817 -55.3962 -0.9065599
v 7.567102 -54.08737 -0.2135778
v 7.567102 -54.08737 -0.2135778
v 8.333817 -55.3962 -0.9065599
v 7.681983 -54.07104 -0.08021212
v 7.681983 -54.07104 -0.08021212
v 8.333817 -55.3962 -0.9065599
v 8.568802 -55.06587 -0.3022417
v 9.521338 -53.01607 0.1475275
v 9.549597 -52.929 2.504123E-06
v 9.458735 -53.14475 0.3662687
v 9.458735 -53.14475 0.3662687
v 9.549597 -52.929 2.504123E-06
v 8.861696 -53.10721 0.3227241
v 8.861696 -53.10721 0.3227241
v 9.549597 -52.929 2.504123E-06
v 7.944227 -52.36203 -0.9017872
v 7.944227 -52.36203 -0.9017872
v 9.549597 -52.929 2.504123E-06
v 9.615093 -52.53883 -0.6591275
v 7.567102 -54.08737 -0.2135778
v 7.29643 -53.29203 -0.641068
v 7.480579 -54.49744 -0.7581356
v 7.480579 -54.49744 -0.7581356
v 7.29643 -53.29203 -0.641068
v 7.282148 -54.231 -1.265969
v 7.282148 -54.231 -1.265969
v 7.29643 -53.29203 -0.641068
v 7.172708 -53.05325 -0.9130661
v 8.943642 -54.45644 -0.08165121
v 9.045332 -54.21968 9.536743E-07
v 8.889364 -54.55719 -0.1174098
v 8.889364 -54.55719 -0.1174098
v 9.045332 -54.21968 9.536743E-07
v 8.568802 -55.06587 -0.3022417
v 8.568802 -55.06587 -0.3022417
v 9.045332 -54.21968 9.536743E-07
v 7.681983 -54.07104 -0.08021212
v 7.681983 -54.07104 -0.08021212
v 9.045332 -54.21968 9.536743E-07
v 7.835456 -53.6925 0.04950151
v 7.835456 -53.6925 0.04950151
v 9.045332 -54.21968 9.536743E-07
v 8.861696 -53.10721 0.3227241
v 8.861696 -53.10721 0.3227241
v 9.045332 -54.21968 9.536743E-07
v 9.458735 -53.14475 0.3662687
v 9.458735 -53.14475 0.3662687
v 9.045332 -54.21968 9.536743E-07
v 9.420864 -53.27156 0.324064
v 9.597591 -52.58046 -0.8278179
v 9.51516 -52.69679 -1.317678
v 9.615093 -52.53883 -0.6591275
v 9.615093 -52.53883 -0.6591275
v 9.51516 -52.69679 -1.317678
v 7.944227 -52.36203 -0.9017872
v 7.944227 -52.36203 -0.9017872
v 9.51516 -52.69679 -1.317678
v 7.540737 -52.37585 -1.176369
v 7.540737 -52.37585 -1.176369
v 9.51516 -52.69679 -1.317678
v 9.034037 -53.04845 -2.925921
v 9.034037 -53.04845 -2.925921
v 9.51516 -52.69679 -1.317678
v 9.144209 -52.99808 -2.672894
v 9.144209 -52.99808 -2.672894
v 9.51516 -52.69679 -1.317678
v 9.211239 -52.95543 -2.473054

vn 0.9710179 -0.2351588 -0.04271366
vn 0.9710179 -0.2351588 -0.04271366
vn 0.9710179 -0.2351588 -0.04271366
vn 0.9710179 -0.2351588 -0.04271366
vn 0.9710179 -0.2351588 -0.04271366
vn 0.9710179 -0.2351588 -0.04271366
vn 0.9708209 -0.2351119 0.04721594
vn 0.9708209 -0.2351119 0.04721594
vn 0.9708209 -0.2351119 0.04721594
vn 0.9461613 -0.3116613 0.08744236
vn 0.9461613 -0.3116613 0.08744236
vn 0.9461613 -0.3116613 0.08744236
vn 0.9461613 -0.3116613 0.08744236
vn 0.9461613 -0.3116613 0.08744236
vn 0.9461613 -0.3116613 0.08744236
vn 0.9237956 -0.3804964 0.04271177
vn 0.9237956 -0.3804964 0.04271177
vn 0.9237956 -0.3804964 0.04271177
vn 0.9486526 -0.3039929 -0.08744326
vn 0.9486526 -0.3039929 -0.08744326
vn 0.9486526 -0.3039929 -0.08744326
vn 0.9486526 -0.3039929 -0.08744326
vn 0.9486526 -0.3039929 -0.08744326
vn 0.9486526 -0.3039929 -0.08744326
vn 0.9236083 -0.380419 -0.0472131
vn 0.9236083 -0.380419 -0.0472131
vn 0.9236083 -0.380419 -0.0472131
vn 0.9236083 -0.380419 -0.0472131
vn 0.9236083 -0.380419 -0.0472131
vn 0.9236083 -0.380419 -0.0472131
vn 0.8899322 -0.4466047 -0.09254695
vn 0.8899322 -0.4466047 -0.09254695
vn 0.8899322 -0.4466047 -0.09254695
vn 0.8899322 -0.4466047 -0.09254695
vn 0.8899322 -0.4466047 -0.09254695
vn 0.8899322 -0.4466047 -0.09254695
vn 0.8527264 -0.52022 -0.04721207
vn 0.8527264 -0.52022 -0.04721207
vn 0.8527264 -0.52022 -0.04721207
vn 0.8527264 -0.52022 -0.04721207
vn 0.8527264 -0.52022 -0.04721207
vn 0.8527264 -0.52022 -0.04721207
vn 0.8054025 -0.5851579 -0.09443065
vn 0.8054025 -0.5851579 -0.09443065
vn 0.8054025 -0.5851579 -0.09443065
vn 0.8054025 -0.5851579 -0.09443065
vn 0.8054025 -0.5851579 -0.09443065
vn 0.8054025 -0.5851579 -0.09443065
vn 0.9379261 -0.2962193 -0.180413
vn 0.9379261 -0.2962193 -0.180413
vn 0.9379261 -0.2962193 -0.180413
vn 0.9041449 -0.362642 -0.2258599
vn 0.9041449 -0.362642 -0.2258599
vn 0.9041449 -0.362642 -0.2258599
vn 0.9041449 -0.362642 -0.2258599
vn 0.9041449 -0.362642 -0.2258599
vn 0.9041449 -0.362642 -0.2258599
vn 0.9041449 -0.362642 -0.2258599
vn 0.9041449 -0.362642 -0.2258599
vn 0.9041449 -0.362642 -0.2258599
vn 0.8791794 -0.4388033 -0.1857292
vn 0.8791794 -0.4388033 -0.1857292
vn 0.8791794 -0.4388033 -0.1857292
vn 0.8791794 -0.4388033 -0.1857292
vn 0.8791794 -0.4388033 -0.1857292
vn 0.8791794 -0.4388033 -0.1857292
vn 0.8318526 -0.5037504 -0.2329306
vn 0.8318526 -0.5037504 -0.2329306
vn 0.8318526 -0.5037504 -0.2329306
vn 0.8318526 -0.5037504 -0.2329306
vn 0.8318526 -0.5037504 -0.2329306
vn 0.8318526 -0.5037504 -0.2329306
vn 0.7946551 -0.5773485 -0.1875954
vn 0.7946551 -0.5773485 -0.1875954
vn 0.7946551 -0.5773485 -0.1875954
vn 0.8831156 -0.3473303 -0.3153859
vn 0.8831156 -0.3473303 -0.3153859
vn 0.8831156 -0.3473303 -0.3153859
vn -0.4882106 0.5336567 0.6905512
vn -0.4882106 0.5336567 0.6905512
vn -0.4882106 0.5336567 0.6905512
vn -0.4882106 0.5336567 0.6905512
vn -0.4882106 0.5336567 0.6905512
vn -0.4882106 0.5336567 0.6905512
vn -0.4882106 0.5336567 0.6905512
vn -0.4882106 0.5336567 0.6905512
vn -0.4882106 0.5336567 0.6905512
vn -0.4882106 0.5336567 0.6905512
vn -0.4882106 0.5336567 0.6905512
vn -0.4882106 0.5336567 0.6905512
vn -0.7600304 0.08747543 0.6439735
vn -0.7600304 0.08747543 0.6439735
vn -0.7600304 0.08747543 0.6439735
vn -0.7600304 0.08747543 0.6439735
vn -0.7600304 0.08747543 0.6439735
vn -0.7600304 0.08747543 0.6439735
vn -0.7300873 -0.679625 -0.07129072
vn -0.7300873 -0.679625 -0.07129072
vn -0.7300873 -0.679625 -0.07129072
vn -0.7300873 -0.679625 -0.07129072
vn -0.7300873 -0.679625 -0.07129072
vn -0.7300873 -0.679625 -0.07129072
vn -0.7300873 -0.679625 -0.07129072
vn -0.7300873 -0.679625 -0.07129072
vn -0.7300873 -0.679625 -0.07129072
vn -0.7300873 -0.679625 -0.07129072
vn -0.7300873 -0.679625 -0.07129072
vn -0.7300873 -0.679625 -0.07129072
vn -0.727748 0.1339271 -0.6726414
vn -0.727748 0.1339271 -0.6726414
vn -0.727748 0.1339271 -0.6726414
vn -0.727748 0.1339271 -0.6726414
vn -0.727748 0.1339271 -0.6726414
vn -0.727748 0.1339271 -0.6726414
vn -0.727748 0.1339271 -0.6726414
vn -0.727748 0.1339271 -0.6726414
vn -0.727748 0.1339271 -0.6726414
vn -0.727748 0.1339271 -0.6726414
vn -0.727748 0.1339271 -0.6726414
vn -0.727748 0.1339271 -0.6726414
vn -0.727748 0.1339271 -0.6726414
vn -0.727748 0.1339271 -0.6726414
vn -0.727748 0.1339271 -0.6726414
vn -0.727748 0.1339271 -0.6726414
vn -0.727748 0.1339271 -0.6726414
vn -0.727748 0.1339271 -0.6726414
vn -0.5558126 -0.6192489 0.5546199
vn -0.5558126 -0.6192489 0.5546199
vn -0.5558126 -0.6192489 0.5546199
vn -0.5558126 -0.6192489 0.5546199
vn -0.5558126 -0.6192489 0.5546199
vn -0.5558126 -0.6192489 0.5546199
vn -0.5558126 -0.6192489 0.5546199
vn -0.5558126 -0.6192489 0.5546199
vn -0.5558126 -0.6192489 0.5546199
vn -0.5558126 -0.6192489 0.5546199
vn -0.5558126 -0.6192489 0.5546199
vn -0.5558126 -0.6192489 0.5546199
vn 0.01681765 0.8596777 0.5105597
vn 0.01681765 0.8596777 0.5105597
vn 0.01681765 0.8596777 0.5105597
vn 0.01681765 0.8596777 0.5105597
vn 0.01681765 0.8596777 0.5105597
vn 0.01681765 0.8596777 0.5105597
vn 0.01681765 0.8596777 0.5105597
vn 0.01681765 0.8596777 0.5105597
vn 0.01681765 0.8596777 0.5105597
vn 0.01681765 0.8596777 0.5105597
vn 0.01681765 0.8596777 0.5105597
vn 0.01681765 0.8596777 0.5105597
vn -0.9447947 -0.1714642 0.2792186
vn -0.9447947 -0.1714642 0.2792186
vn -0.9447947 -0.1714642 0.2792186
vn -0.9447947 -0.1714642 0.2792186
vn -0.9447947 -0.1714642 0.2792186
vn -0.9447947 -0.1714642 0.2792186
vn -0.9447947 -0.1714642 0.2792186
vn -0.9447947 -0.1714642 0.2792186
vn -0.9447947 -0.1714642 0.2792186
vn -0.08777567 -0.2908782 0.9527252
vn -0.08777567 -0.2908782 0.9527252
vn -0.08777567 -0.2908782 0.9527252
vn -0.08777567 -0.2908782 0.9527252
vn -0.08777567 -0.2908782 0.9527252
vn -0.08777567 -0.2908782 0.9527252
vn -0.08777567 -0.2908782 0.9527252
vn -0.08777567 -0.2908782 0.9527252
vn -0.08777567 -0.2908782 0.9527252
vn -0.08777567 -0.2908782 0.9527252
vn -0.08777567 -0.2908782 0.9527252
vn -0.08777567 -0.2908782 0.9527252
vn -0.08777567 -0.2908782 0.9527252
vn -0.08777567 -0.2908782 0.9527252
vn -0.08777567 -0.2908782 0.9527252
vn -0.08777567 -0.2908782 0.9527252
vn -0.08777567 -0.2908782 0.9527252
vn -0.08777567 -0.2908782 0.9527252
vn -0.08777567 -0.2908782 0.9527252
vn -0.08777567 -0.2908782 0.9527252
vn -0.08777567 -0.2908782 0.9527252
vn 0.137805 0.9581958 -0.2507402
vn 0.137805 0.9581958 -0.2507402
vn 0.137805 0.9581958 -0.2507402
vn 0.137805 0.9581958 -0.2507402
vn 0.137805 0.9581958 -0.2507402
vn 0.137805 0.9581958 -0.2507402
vn 0.137805 0.9581958 -0.2507402
vn 0.137805 0.9581958 -0.2507402
vn 0.137805 0.9581958 -0.2507402
vn 0.137805 0.9581958 -0.2507402
vn 0.137805 0.9581958 -0.2507402
vn 0.137805 0.9581958 -0.2507402
vn 0.137805 0.9581958 -0.2507402
vn 0.137805 0.9581958 -0.2507402
vn 0.137805 0.9581958 -0.2507402
vn 0.137805 0.9581958 -0.2507402
vn 0.137805 0.9581958 -0.2507402
vn 0.137805 0.9581958 -0.2507402

vt 0.1443541 0.2262033
vt 0.1388268 0.236191
vt 0.1436056 0.2236471
vt 0.1436056 0.2236471
vt 0.1388268 0.236191
vt 0.1363635 0.236191
vt 0.1388268 0.236191
vt 0.1375924 0.2383196
vt 0.1363635 0.236191
vt 0.1375924 0.2383196
vt 0.1355788 0.2416384
vt 0.1363635 0.236191
vt 0.1363635 0.236191
vt 0.1355788 0.2416384
vt 0.1335284 0.2411015
vt 0.1182121 0.236191
vt 0.1363635 0.236191
vt 0.1335284 0.2411015
vt 0.1411872 0.2165085
vt 0.1436056 0.2236471
vt 0.1249999 0.2165085
vt 0.1249999 0.2165085
vt 0.1436056 0.2236471
vt 0.1363635 0.236191
vt 0.1143164 0.2350128
vt 0.1249999 0.2165085
vt 0.1182121 0.236191
vt 0.1182121 0.236191
vt 0.1249999 0.2165085
vt 0.1363635 0.236191
vt 0.1249999 0.2165085
vt 0.1143164 0.2350128
vt 0.1022726 0.2165085
vt 0.1022726 0.2165085
vt 0.1143164 0.2350128
vt 0.1126836 0.234541
vt 0.1126836 0.234541
vt 0.1041406 0.2319436
vt 0.1022726 0.2165085
vt 0.1022726 0.2165085
vt 0.1041406 0.2319436
vt 0.09826433 0.2234511
vt 0.09826433 0.2234511
vt 0.09824534 0.2234218
vt 0.1022726 0.2165085
vt 0.1022726 0.2165085
vt 0.09824534 0.2234218
vt 0.09886569 0.2165085
vt 0.1411872 0.2165085
vt 0.1249999 0.2165085
vt 0.1347195 0.1996735
vt 0.1139237 0.1973238
vt 0.1159906 0.196826
vt 0.1249999 0.2165085
vt 0.1249999 0.2165085
vt 0.1159906 0.196826
vt 0.1347195 0.1996735
vt 0.1347195 0.1996735
vt 0.1159906 0.196826
vt 0.1336659 0.196826
vt 0.1132375 0.1975167
vt 0.1139237 0.1973238
vt 0.1022726 0.2165085
vt 0.1022726 0.2165085
vt 0.1139237 0.1973238
vt 0.1249999 0.2165085
vt 0.1022726 0.2165085
vt 0.09940329 0.2115386
vt 0.1132375 0.1975167
vt 0.1132375 0.1975167
vt 0.09940329 0.2115386
vt 0.1006332 0.201856
vt 0.1022726 0.2165085
vt 0.09886569 0.2165085
vt 0.09940329 0.2115386
vt 0.1336659 0.196826
vt 0.1159906 0.196826
vt 0.1321591 0.1930366
vt 0.3994449 0.3971667
vt 0.5560634 0.3458215
vt 0.3821283 0.5269383
vt 0.3821283 0.5269383
vt 0.5560634 0.3458215
vt 0.3916304 0.5780537
vt 0.3916304 0.5780537
vt 0.5560634 0.3458215
vt 0.4906877 0.6275378
vt 0.4906877 0.6275378
vt 0.5560634 0.3458215
vt 0.5324183 0.5759348
vt 0.4252042 0.4362862
vt 0.4757806 0.4144974
vt 0.4214306 0.458689
vt 0.4214306 0.458689
vt 0.4757806 0.4144974
vt 0.5189831 0.5304916
vt 0.4057031 0.5084872
vt 0.3984324 0.4735492
vt 0.4236948 0.575466
vt 0.4236948 0.575466
vt 0.3984324 0.4735492
vt 0.547766 0.4602453
vt 0.547766 0.4602453
vt 0.3984324 0.4735492
vt 0.5152141 0.4100674
vt 0.5152141 0.4100674
vt 0.3984324 0.4735492
vt 0.3930696 0.424937
vt 0.5803648 0.6498798
vt 0.4337079 0.6188936
vt 0.6323428 0.3357663
vt 0.6323428 0.3357663
vt 0.4337079 0.6188936
vt 0.5349872 0.2884901
vt 0.5349872 0.2884901
vt 0.4337079 0.6188936
vt 0.3837269 0.3518547
vt 0.3837269 0.3518547
vt 0.4337079 0.6188936
vt 0.2928497 0.5612246
vt 0.2928497 0.5612246
vt 0.4337079 0.6188936
vt 0.408783 0.6122276
vt 0.408783 0.6122276
vt 0.4337079 0.6188936
vt 0.4151115 0.6144589
vt 0.3897178 0.5360794
vt 0.3897131 0.5357888
vt 0.5356622 0.5147126
vt 0.5356622 0.5147126
vt 0.3897131 0.5357888
vt 0.560423 0.4373924
vt 0.560423 0.4373924
vt 0.3897131 0.5357888
vt 0.55161 0.4184539
vt 0.55161 0.4184539
vt 0.3897131 0.5357888
vt 0.3951275 0.4499791
vt 0.5787991 0.3712996
vt 0.5818368 0.3909179
vt 0.5719268 0.342212
vt 0.5719268 0.342212
vt 0.5818368 0.3909179
vt 0.5035979 0.3480014
vt 0.5035979 0.3480014
vt 0.5818368 0.3909179
vt 0.3970542 0.5108217
vt 0.3970542 0.5108217
vt 0.5818368 0.3909179
vt 0.5884559 0.4785558
vt 0.4706287 0.4016294
vt 0.5556977 0.447204
vt 0.4309046 0.4596922
vt 0.4309046 0.4596922
vt 0.5556977 0.447204
vt 0.4613751 0.5138406
vt 0.4613751 0.5138406
vt 0.5556977 0.447204
vt 0.5820149 0.4762072
vt 0.4540809 0.4465617
vt 0.4787808 0.4364877
vt 0.4435428 0.4519433
vt 0.4435428 0.4519433
vt 0.4787808 0.4364877
vt 0.3902007 0.4836982
vt 0.3902007 0.4836982
vt 0.4787808 0.4364877
vt 0.4905002 0.5715564
vt 0.4905002 0.5715564
vt 0.4787808 0.4364877
vt 0.5299712 0.5563587
vt 0.5299712 0.5563587
vt 0.4787808 0.4364877
vt 0.5930874 0.4546856
vt 0.5930874 0.4546856
vt 0.4787808 0.4364877
vt 0.5907997 0.3955353
vt 0.5907997 0.3955353
vt 0.4787808 0.4364877
vt 0.5776083 0.3992856
vt 0.5610699 0.3962479
vt 0.5544695 0.4476399
vt 0.5622231 0.3785515
vt 0.5622231 0.3785515
vt 0.5544695 0.4476399
vt 0.3917148 0.4040062
vt 0.3917148 0.4040062
vt 0.5544695 0.4476399
vt 0.3513531 0.4328125
vt 0.3513531 0.4328125
vt 0.5544695 0.4476399
vt 0.5111827 0.6163528
vt 0.5111827 0.6163528
vt 0.5544695 0.4476399
vt 0.5215333 0.5898106
vt 0.5215333 0.5898106
vt 0.5544695 0.4476399
vt 0.5276555 0.5688469

usemtl Material0
usemap Material0
f 1/1/1 2/2/2 3/3/3
f 4/4/4 5/5/5 6/6/6
f 7/7/7 8/8/8 9/9/9
f 10/10/10 11/11/11 12/12/12
f 13/13/13 14/14/14 15/15/15
f 16/16/16 17/17/17 18/18/18
f 19/19/19 20/20/20 21/21/21
f 22/22/22 23/23/23 24/24/24
f 25/25/25 26/26/26 27/27/27
f 28/28/28 29/29/29 30/30/30
f 31/31/31 32/32/32 33/33/33
f 34/34/34 35/35/35 36/36/36
f 37/37/37 38/38/38 39/39/39
f 40/40/40 41/41/41 42/42/42
f 43/43/43 44/44/44 45/45/45
f 46/46/46 47/47/47 48/48/48
f 49/49/49 50/50/50 51/51/51
f 52/52/52 53/53/53 54/54/54
f 55/55/55 56/56/56 57/57/57
f 58/58/58 59/59/59 60/60/60
f 61/61/61 62/62/62 63/63/63
f 64/64/64 65/65/65 66/66/66
f 67/67/67 68/68/68 69/69/69
f 70/70/70 71/71/71 72/72/72
f 73/73/73 74/74/74 75/75/75
f 76/76/76 77/77/77 78/78/78

usemtl Material1
usemap Material1
f 79/79/79 80/80/80 81/81/81
f 82/82/82 83/83/83 84/84/84
f 85/85/85 86/86/86 87/87/87
f 88/88/88 89/89/89 90/90/90
f 91/91/91 92/92/92 93/93/93
f 94/94/94 95/95/95 96/96/96
f 97/97/97 98/98/98 99/99/99
f 100/100/100 101/101/101 102/102/102
f 103/103/103 104/104/104 105/105/105
f 106/106/106 107/107/107 108/108/108
f 109/109/109 110/110/110 111/111/111
f 112/112/112 113/113/113 114/114/114
f 115/115/115 116/116/116 117/117/117
f 118/118/118 119/119/119 120/120/120
f 121/121/121 122/122/122 123/123/123
f 124/124/124 125/125/125 126/126/126
f 127/127/127 128/128/128 129/129/129
f 130/130/130 131/131/131 132/132/132
f 133/133/133 134/134/134 135/135/135
f 136/136/136 137/137/137 138/138/138
f 139/139/139 140/140/140 141/141/141
f 142/142/142 143/143/143 144/144/144
f 145/145/145 146/146/146 147/147/147
f 148/148/148 149/149/149 150/150/150
f 151/151/151 152/152/152 153/153/153
f 154/154/154 155/155/155 156/156/156
f 157/157/157 158/158/158 159/159/159
f 160/160/160 161/161/161 162/162/162
f 163/163/163 164/164/164 165/165/165
f 166/166/166 167/167/167 168/168/168
f 169/169/169 170/170/170 171/171/171
f 172/172/172 173/173/173 174/174/174
f 175/175/175 176/176/176 177/177/177
f 178/178/178 179/179/179 180/180/180
f 181/181/181 182/182/182 183/183/183
f 184/184/184 185/185/185 186/186/186
f 187/187/187 188/188/188 189/189/189
f 190/190/190 191/191/191 192/192/192
f 193/193/193 194/194/194 195/195/195
f 196/196/196 197/197/197 198/198/198
