g  Instance
v 1.680154 -52.16335 2.876125
v 1.735458 -53.27761 1.818801
v 3.357882 -53.07994 3.0318
v 3.357882 -53.07994 3.0318
v 1.735458 -53.27761 1.818801
v 3.569932 -53.29807 2.951232
v 3.569932 -53.29807 2.951232
v 1.735458 -53.27761 1.818801
v 3.276064 -53.56249 2.507462
v 3.276064 -53.56249 2.507462
v 1.735458 -53.27761 1.818801
v 1.888667 -53.37803 1.816641
v 2.093064 -50.80439 2.438925
v 2.090802 -50.85975 2.602426
v 2.293099 -50.69958 1.800632
v 2.293099 -50.69958 1.800632
v 2.090802 -50.85975 2.602426
v 3.084949 -50.86333 0.9429219
v 3.084949 -50.86333 0.9429219
v 2.090802 -50.85975 2.602426
v 3.906011 -51.28519 0.7807294
v 3.906011 -51.28519 0.7807294
v 2.090802 -50.85975 2.602426
v 4.162188 -51.79664 1.825734
v 4.162188 -51.79664 1.825734
v 2.090802 -50.85975 2.602426
v 4.022831 -52.05692 2.810596
v 3.084949 -50.86333 0.9429219
v 3.087519 -50.92383 0.8067965
v 2.293099 -50.69958 1.800632
v 2.293099 -50.69958 1.800632
v 3.087519 -50.92383 0.8067965
v 2.380433 -50.87818 1.349084
v 2.380433 -50.87818 1.349084
v 3.087519 -50.92383 0.8067965
v 2.592188 -50.94298 1.072997
v 2.913814 -53.79801 1.89552
v 2.279136 -53.58317 1.777967
v 2.916198 -53.60761 1.51218
v 3.811155 -51.38654 0.4555073
v 3.741158 -52.19392 0.3710502
v 3.754109 -51.37886 0.4172098
v 2.093064 -50.80439 2.438925
v 2.022401 -50.90754 2.613457
v 2.090802 -50.85975 2.602426
v 1.850925 -53.02196 1.600717
v 2.299399 -52.59487 1.12336
v 1.735458 -53.27761 1.818801
v 1.735458 -53.27761 1.818801
v 2.299399 -52.59487 1.12336
v 1.888667 -53.37803 1.816641
v 1.888667 -53.37803 1.816641
v 2.299399 -52.59487 1.12336
v 2.279136 -53.58317 1.777967
v 2.279136 -53.58317 1.777967
v 2.299399 -52.59487 1.12336
v 2.916198 -53.60761 1.51218
v 2.916198 -53.60761 1.51218
v 2.299399 -52.59487 1.12336
v 3.740601 -52.52271 0.4388238
v 3.740601 -52.52271 0.4388238
v 2.299399 -52.59487 1.12336
v 3.727475 -52.40075 0.3649485
v 3.740601 -52.52271 0.4388238
v 4.269622 -53.18757 2.513741
v 2.916198 -53.60761 1.51218
v 2.916198 -53.60761 1.51218
v 4.269622 -53.18757 2.513741
v 2.913814 -53.79801 1.89552
v 2.913814 -53.79801 1.89552
v 4.269622 -53.18757 2.513741
v 3.127264 -53.75775 2.106232
v 2.913814 -53.79801 1.89552
v 3.127264 -53.75775 2.106232
v 2.279136 -53.58317 1.777967
v 2.279136 -53.58317 1.777967
v 3.127264 -53.75775 2.106232
v 1.888667 -53.37803 1.816641
v 1.888667 -53.37803 1.816641
v 3.127264 -53.75775 2.106232
v 3.276064 -53.56249 2.507462
v 1.680154 -52.16335 2.876125
v 3.357882 -53.07994 3.0318
v 2.022401 -50.90754 2.613457
v 2.022401 -50.90754 2.613457
v 3.357882 -53.07994 3.0318
v 2.090802 -50.85975 2.602426
v 2.090802 -50.85975 2.602426
v 3.357882 -53.07994 3.0318
v 4.022831 -52.05692 2.810596
v 4.022831 -52.05692 2.810596
v 3.357882 -53.07994 3.0318
v 4.127934 -52.84799 2.970064
v 2.022401 -50.90754 2.613457
v 2.093064 -50.80439 2.438925
v 1.680154 -52.16335 2.876125
v 1.680154 -52.16335 2.876125
v 2.093064 -50.80439 2.438925
v 1.735458 -53.27761 1.818801
v 1.735458 -53.27761 1.818801
v 2.093064 -50.80439 2.438925
v 1.850925 -53.02196 1.600717
v 1.850925 -53.02196 1.600717
v 2.093064 -50.80439 2.438925
v 2.380433 -50.87818 1.349084
v 2.380433 -50.87818 1.349084
v 2.093064 -50.80439 2.438925
v 2.293099 -50.69958 1.800632
v 3.906011 -51.28519 0.7807294
v 4.162188 -51.79664 1.825734
v 3.811155 -51.38654 0.4555073
v 3.811155 -51.38654 0.4555073
v 4.162188 -51.79664 1.825734
v 3.741158 -52.19392 0.3710502
v 3.741158 -52.19392 0.3710502
v 4.162188 -51.79664 1.825734
v 3.727475 -52.40075 0.3649485
v 3.727475 -52.40075 0.3649485
v 4.162188 -51.79664 1.825734
v 3.740601 -52.52271 0.4388238
v 3.740601 -52.52271 0.4388238
v 4.162188 -51.79664 1.825734
v 4.269622 -53.18757 2.513741
v 4.269622 -53.18757 2.513741
v 4.162188 -51.79664 1.825734
v 4.270347 -53.18646 2.516155
v 3.811155 -51.38654 0.4555073
v 3.754109 -51.37886 0.4172098
v 3.906011 -51.28519 0.7807294
v 3.906011 -51.28519 0.7807294
v 3.754109 -51.37886 0.4172098
v 3.084949 -50.86333 0.9429219
v 3.084949 -50.86333 0.9429219
v 3.754109 -51.37886 0.4172098
v 3.087519 -50.92383 0.8067965
v 3.569932 -53.29807 2.951232
v 4.179533 -53.08397 2.909231
v 3.357882 -53.07994 3.0318
v 3.357882 -53.07994 3.0318
v 4.179533 -53.08397 2.909231
v 4.127934 -52.84799 2.970064
v 1.850925 -53.02196 1.600717
v 2.380433 -50.87818 1.349084
v 2.299399 -52.59487 1.12336
v 2.299399 -52.59487 1.12336
v 2.380433 -50.87818 1.349084
v 2.592188 -50.94298 1.072997
v 3.087519 -50.92383 0.8067965
v 3.754109 -51.37886 0.4172098
v 2.592188 -50.94298 1.072997
v 2.592188 -50.94298 1.072997
v 3.754109 -51.37886 0.4172098
v 2.299399 -52.59487 1.12336
v 2.299399 -52.59487 1.12336
v 3.754109 -51.37886 0.4172098
v 3.727475 -52.40075 0.3649485
v 3.727475 -52.40075 0.3649485
v 3.754109 -51.37886 0.4172098
v 3.741158 -52.19392 0.3710502
v 4.269622 -53.18757 2.513741
v 4.270347 -53.18646 2.516155
v 3.127264 -53.75775 2.106232
v 3.127264 -53.75775 2.106232
v 4.270347 -53.18646 2.516155
v 3.276064 -53.56249 2.507462
v 3.276064 -53.56249 2.507462
v 4.270347 -53.18646 2.516155
v 3.569932 -53.29807 2.951232
v 3.569932 -53.29807 2.951232
v 4.270347 -53.18646 2.516155
v 4.179533 -53.08397 2.909231
v 4.127934 -52.84799 2.970064
v 4.179533 -53.08397 2.909231
v 4.022831 -52.05692 2.810596
v 4.022831 -52.05692 2.810596
v 4.179533 -53.08397 2.909231
v 4.162188 -51.79664 1.825734
v 4.162188 -51.79664 1.825734
v 4.179533 -53.08397 2.909231
v 4.270347 -53.18646 2.516155

vn -0.4093588 -0.6386214 0.6516042
vn -0.4093588 -0.6386214 0.6516042
vn -0.4093588 -0.6386214 0.6516042
vn -0.4093588 -0.6386214 0.6516042
vn -0.4093588 -0.6386214 0.6516042
vn -0.4093588 -0.6386214 0.6516042
vn -0.4093588 -0.6386214 0.6516042
vn -0.4093588 -0.6386214 0.6516042
vn -0.4093588 -0.6386214 0.6516042
vn -0.4093588 -0.6386214 0.6516042
vn -0.4093588 -0.6386214 0.6516042
vn -0.4093588 -0.6386214 0.6516042
vn 0.4820316 0.8278201 0.2869832
vn 0.4820316 0.8278201 0.2869832
vn 0.4820316 0.8278201 0.2869832
vn 0.4820316 0.8278201 0.2869832
vn 0.4820316 0.8278201 0.2869832
vn 0.4820316 0.8278201 0.2869832
vn 0.4820316 0.8278201 0.2869832
vn 0.4820316 0.8278201 0.2869832
vn 0.4820316 0.8278201 0.2869832
vn 0.4820316 0.8278201 0.2869832
vn 0.4820316 0.8278201 0.2869832
vn 0.4820316 0.8278201 0.2869832
vn 0.4820316 0.8278201 0.2869832
vn 0.4820316 0.8278201 0.2869832
vn 0.4820316 0.8278201 0.2869832
vn -0.2477262 0.8835819 -0.3973849
vn -0.2477262 0.8835819 -0.3973849
vn -0.2477262 0.8835819 -0.3973849
vn -0.2477262 0.8835819 -0.3973849
vn -0.2477262 0.8835819 -0.3973849
vn -0.2477262 0.8835819 -0.3973849
vn -0.2477262 0.8835819 -0.3973849
vn -0.2477262 0.8835819 -0.3973849
vn -0.2477262 0.8835819 -0.3973849
vn -0.2152228 -0.8740864 -0.4354907
vn -0.2152228 -0.8740864 -0.4354907
vn -0.2152228 -0.8740864 -0.4354907
vn 0.5605004 0.0379425 -0.8272845
vn 0.5605004 0.0379425 -0.8272845
vn 0.5605004 0.0379425 -0.8272845
vn -0.5226518 0.8096762 0.2669448
vn -0.5226518 0.8096762 0.2669448
vn -0.5226518 0.8096762 0.2669448
vn -0.3472222 -0.5128915 -0.7850982
vn -0.3472222 -0.5128915 -0.7850982
vn -0.3472222 -0.5128915 -0.7850982
vn -0.3472222 -0.5128915 -0.7850982
vn -0.3472222 -0.5128915 -0.7850982
vn -0.3472222 -0.5128915 -0.7850982
vn -0.3472222 -0.5128915 -0.7850982
vn -0.3472222 -0.5128915 -0.7850982
vn -0.3472222 -0.5128915 -0.7850982
vn -0.3472222 -0.5128915 -0.7850982
vn -0.3472222 -0.5128915 -0.7850982
vn -0.3472222 -0.5128915 -0.7850982
vn -0.3472222 -0.5128915 -0.7850982
vn -0.3472222 -0.5128915 -0.7850982
vn -0.3472222 -0.5128915 -0.7850982
vn -0.3472222 -0.5128915 -0.7850982
vn -0.3472222 -0.5128915 -0.7850982
vn -0.3472222 -0.5128915 -0.7850982
vn 0.5178597 -0.7674541 -0.3779361
vn 0.5178597 -0.7674541 -0.3779361
vn 0.5178597 -0.7674541 -0.3779361
vn 0.5178597 -0.7674541 -0.3779361
vn 0.5178597 -0.7674541 -0.3779361
vn 0.5178597 -0.7674541 -0.3779361
vn 0.5178597 -0.7674541 -0.3779361
vn 0.5178597 -0.7674541 -0.3779361
vn 0.5178597 -0.7674541 -0.3779361
vn -0.3589787 -0.7799261 0.5126888
vn -0.3589787 -0.7799261 0.5126888
vn -0.3589787 -0.7799261 0.5126888
vn -0.3589787 -0.7799261 0.5126888
vn -0.3589787 -0.7799261 0.5126888
vn -0.3589787 -0.7799261 0.5126888
vn -0.3589787 -0.7799261 0.5126888
vn -0.3589787 -0.7799261 0.5126888
vn -0.3589787 -0.7799261 0.5126888
vn 0.01832269 0.1999197 0.979641
vn 0.01832269 0.1999197 0.979641
vn 0.01832269 0.1999197 0.979641
vn 0.01832269 0.1999197 0.979641
vn 0.01832269 0.1999197 0.979641
vn 0.01832269 0.1999197 0.979641
vn 0.01832269 0.1999197 0.979641
vn 0.01832269 0.1999197 0.979641
vn 0.01832269 0.1999197 0.979641
vn 0.01832269 0.1999197 0.979641
vn 0.01832269 0.1999197 0.979641
vn 0.01832269 0.1999197 0.979641
vn -0.9435052 0.2022401 -0.2624826
vn -0.9435052 0.2022401 -0.2624826
vn -0.9435052 0.2022401 -0.2624826
vn -0.9435052 0.2022401 -0.2624826
vn -0.9435052 0.2022401 -0.2624826
vn -0.9435052 0.2022401 -0.2624826
vn -0.9435052 0.2022401 -0.2624826
vn -0.9435052 0.2022401 -0.2624826
vn -0.9435052 0.2022401 -0.2624826
vn -0.9435052 0.2022401 -0.2624826
vn -0.9435052 0.2022401 -0.2624826
vn -0.9435052 0.2022401 -0.2624826
vn -0.9435052 0.2022401 -0.2624826
vn -0.9435052 0.2022401 -0.2624826
vn -0.9435052 0.2022401 -0.2624826
vn 0.9630475 -0.05593462 -0.2634597
vn 0.9630475 -0.05593462 -0.2634597
vn 0.9630475 -0.05593462 -0.2634597
vn 0.9630475 -0.05593462 -0.2634597
vn 0.9630475 -0.05593462 -0.2634597
vn 0.9630475 -0.05593462 -0.2634597
vn 0.9630475 -0.05593462 -0.2634597
vn 0.9630475 -0.05593462 -0.2634597
vn 0.9630475 -0.05593462 -0.2634597
vn 0.9630475 -0.05593462 -0.2634597
vn 0.9630475 -0.05593462 -0.2634597
vn 0.9630475 -0.05593462 -0.2634597
vn 0.9630475 -0.05593462 -0.2634597
vn 0.9630475 -0.05593462 -0.2634597
vn 0.9630475 -0.05593462 -0.2634597
vn 0.9630475 -0.05593462 -0.2634597
vn 0.9630475 -0.05593462 -0.2634597
vn 0.9630475 -0.05593462 -0.2634597
vn 0.3648851 0.8533519 -0.3723568
vn 0.3648851 0.8533519 -0.3723568
vn 0.3648851 0.8533519 -0.3723568
vn 0.3648851 0.8533519 -0.3723568
vn 0.3648851 0.8533519 -0.3723568
vn 0.3648851 0.8533519 -0.3723568
vn 0.3648851 0.8533519 -0.3723568
vn 0.3648851 0.8533519 -0.3723568
vn 0.3648851 0.8533519 -0.3723568
vn 0.142932 -0.2176409 0.9655066
vn 0.142932 -0.2176409 0.9655066
vn 0.142932 -0.2176409 0.9655066
vn 0.142932 -0.2176409 0.9655066
vn 0.142932 -0.2176409 0.9655066
vn 0.142932 -0.2176409 0.9655066
vn -0.774313 0.1182785 -0.6216506
vn -0.774313 0.1182785 -0.6216506
vn -0.774313 0.1182785 -0.6216506
vn -0.774313 0.1182785 -0.6216506
vn -0.774313 0.1182785 -0.6216506
vn -0.774313 0.1182785 -0.6216506
vn -0.4743241 0.05728661 -0.8784844
vn -0.4743241 0.05728661 -0.8784844
vn -0.4743241 0.05728661 -0.8784844
vn -0.4743241 0.05728661 -0.8784844
vn -0.4743241 0.05728661 -0.8784844
vn -0.4743241 0.05728661 -0.8784844
vn -0.4743241 0.05728661 -0.8784844
vn -0.4743241 0.05728661 -0.8784844
vn -0.4743241 0.05728661 -0.8784844
vn -0.4743241 0.05728661 -0.8784844
vn -0.4743241 0.05728661 -0.8784844
vn -0.4743241 0.05728661 -0.8784844
vn 0.3340333 -0.8903478 0.3093583
vn 0.3340333 -0.8903478 0.3093583
vn 0.3340333 -0.8903478 0.3093583
vn 0.3340333 -0.8903478 0.3093583
vn 0.3340333 -0.8903478 0.3093583
vn 0.3340333 -0.8903478 0.3093583
vn 0.3340333 -0.8903478 0.3093583
vn 0.3340333 -0.8903478 0.3093583
vn 0.3340333 -0.8903478 0.3093583
vn 0.3340333 -0.8903478 0.3093583
vn 0.3340333 -0.8903478 0.3093583
vn 0.3340333 -0.8903478 0.3093583
vn 0.9695151 0.1652964 0.1808799
vn 0.9695151 0.1652964 0.1808799
vn 0.9695151 0.1652964 0.1808799
vn 0.9695151 0.1652964 0.1808799
vn 0.9695151 0.1652964 0.1808799
vn 0.9695151 0.1652964 0.1808799
vn 0.9695151 0.1652964 0.1808799
vn 0.9695151 0.1652964 0.1808799
vn 0.9695151 0.1652964 0.1808799

vt 0.6351648 0.4665504
vt 0.5511975 0.6471983
vt 0.3880021 0.439952
vt 0.3880021 0.439952
vt 0.5511975 0.6471983
vt 0.3496093 0.4537153
vt 0.3496093 0.4537153
vt 0.5511975 0.6471983
vt 0.3631804 0.5295353
vt 0.3631804 0.5295353
vt 0.5511975 0.6471983
vt 0.5274586 0.647564
vt 0.338007 0.4639815
vt 0.340665 0.4464633
vt 0.3503359 0.5323667
vt 0.3503359 0.5323667
vt 0.340665 0.4464633
vt 0.4290201 0.624247
vt 0.4290201 0.624247
vt 0.340665 0.4464633
vt 0.523624 0.6416293
vt 0.523624 0.6416293
vt 0.340665 0.4464633
vt 0.5727518 0.5296759
vt 0.5727518 0.5296759
vt 0.340665 0.4464633
vt 0.57383 0.4241589
vt 0.5309182 0.5406078
vt 0.5294368 0.5564994
vt 0.4539778 0.4404676
vt 0.4539778 0.4404676
vt 0.5294368 0.5564994
vt 0.4578218 0.4931863
vt 0.4578218 0.4931863
vt 0.5294368 0.5564994
vt 0.4777917 0.5254194
vt 0.4593875 0.4190258
vt 0.5323058 0.433286
vt 0.464108 0.4655331
vt 0.3709199 0.5208442
vt 0.5110608 0.5471613
vt 0.3689041 0.5327699
vt 0.4815747 0.4885923
vt 0.4698084 0.4701225
vt 0.4783167 0.4712897
vt 0.565842 0.3508281
vt 0.5448971 0.4731601
vt 0.5582666 0.2949405
vt 0.5582666 0.2949405
vt 0.5448971 0.4731601
vt 0.529193 0.2954936
vt 0.529193 0.2954936
vt 0.5448971 0.4731601
vt 0.4596125 0.3054083
vt 0.4596125 0.3054083
vt 0.5448971 0.4731601
vt 0.3737091 0.3735216
vt 0.3737091 0.3735216
vt 0.5448971 0.4731601
vt 0.3618912 0.6485859
vt 0.3618912 0.6485859
vt 0.5448971 0.4731601
vt 0.3744685 0.6675151
vt 0.4520652 0.6120119
vt 0.4449913 0.3740372
vt 0.5890653 0.4889017
vt 0.5890653 0.4889017
vt 0.4449913 0.3740372
vt 0.6005878 0.4449398
vt 0.6005878 0.4449398
vt 0.4449913 0.3740372
vt 0.5794085 0.4207743
vt 0.4226025 0.590495
vt 0.4023279 0.5623965
vt 0.4989101 0.606171
vt 0.4989101 0.606171
vt 0.4023279 0.5623965
vt 0.5493411 0.6010144
vt 0.5493411 0.6010144
vt 0.4023279 0.5623965
vt 0.396201 0.508881
vt 0.47001 0.615134
vt 0.3786453 0.4501432
vt 0.5961626 0.5814758
vt 0.5961626 0.5814758
vt 0.3786453 0.4501432
vt 0.6009816 0.5747535
vt 0.6009816 0.5747535
vt 0.3786453 0.4501432
vt 0.4815513 0.3847488
vt 0.4815513 0.3847488
vt 0.3786453 0.4501432
vt 0.4022014 0.3744123
vt 0.5889621 0.3939696
vt 0.6007472 0.4123973
vt 0.4565514 0.3662415
vt 0.4565514 0.3662415
vt 0.6007472 0.4123973
vt 0.3467357 0.477876
vt 0.3467357 0.477876
vt 0.6007472 0.4123973
vt 0.3746701 0.5009024
vt 0.3746701 0.5009024
vt 0.6007472 0.4123973
vt 0.5995377 0.5274727
vt 0.5995377 0.5274727
vt 0.6007472 0.4123973
vt 0.6154668 0.4797933
vt 0.3998106 0.585601
vt 0.4503354 0.475204
vt 0.4106815 0.6199624
vt 0.4106815 0.6199624
vt 0.4503354 0.475204
vt 0.4932379 0.6288879
vt 0.4932379 0.6288879
vt 0.4503354 0.475204
vt 0.514361 0.6295348
vt 0.514361 0.6295348
vt 0.4503354 0.475204
vt 0.5266898 0.621725
vt 0.5266898 0.621725
vt 0.4503354 0.475204
vt 0.5912123 0.4025248
vt 0.5912123 0.4025248
vt 0.4503354 0.475204
vt 0.5910904 0.4022717
vt 0.534509 0.60093
vt 0.5286306 0.6052991
vt 0.5395249 0.5638123
vt 0.5395249 0.5638123
vt 0.5286306 0.6052991
vt 0.4419818 0.545305
vt 0.4419818 0.545305
vt 0.5286306 0.6052991
vt 0.4447522 0.5608402
vt 0.3948509 0.4437444
vt 0.4146708 0.3825596
vt 0.417746 0.4650269
vt 0.417746 0.4650269
vt 0.4146708 0.3825596
vt 0.4388644 0.3877396
vt 0.355469 0.445882
vt 0.6314802 0.4862015
vt 0.4169538 0.5223724
vt 0.4169538 0.5223724
vt 0.6314802 0.4862015
vt 0.6274581 0.5304353
vt 0.735455 0.5876824
vt 0.6589412 0.7554765
vt 0.7193103 0.4730336
vt 0.7193103 0.4730336
vt 0.6589412 0.7554765
vt 0.374642 0.4513433
vt 0.374642 0.4513433
vt 0.6589412 0.7554765
vt 0.4495338 0.7779778
vt 0.4495338 0.7779778
vt 0.6589412 0.7554765
vt 0.4921222 0.7753526
vt 0.4095612 0.4829482
vt 0.4094487 0.4826857
vt 0.5408375 0.5272477
vt 0.5408375 0.5272477
vt 0.4094487 0.4826857
vt 0.5193487 0.4836232
vt 0.5193487 0.4836232
vt 0.4094487 0.4826857
vt 0.4812981 0.4353814
vt 0.4812981 0.4353814
vt 0.4094487 0.4826857
vt 0.4145208 0.439952
vt 0.5798866 0.4094861
vt 0.6040005 0.4156834
vt 0.5001664 0.4257011
vt 0.5001664 0.4257011
vt 0.6040005 0.4156834
vt 0.4768588 0.5257944
vt 0.4768588 0.5257944
vt 0.6040005 0.4156834
vt 0.6156356 0.4556185

usemtl Material0
usemap Material0

usemtl Material1
usemap Material1
f 1/1/1 2/2/2 3/3/3
f 4/4/4 5/5/5 6/6/6
f 7/7/7 8/8/8 9/9/9
f 10/10/10 11/11/11 12/12/12
f 13/13/13 14/14/14 15/15/15
f 16/16/16 17/17/17 18/18/18
f 19/19/19 20/20/20 21/21/21
f 22/22/22 23/23/23 24/24/24
f 25/25/25 26/26/26 27/27/27
f 28/28/28 29/29/29 30/30/30
f 31/31/31 32/32/32 33/33/33
f 34/34/34 35/35/35 36/36/36
f 37/37/37 38/38/38 39/39/39
f 40/40/40 41/41/41 42/42/42
f 43/43/43 44/44/44 45/45/45
f 46/46/46 47/47/47 48/48/48
f 49/49/49 50/50/50 51/51/51
f 52/52/52 53/53/53 54/54/54
f 55/55/55 56/56/56 57/57/57
f 58/58/58 59/59/59 60/60/60
f 61/61/61 62/62/62 63/63/63
f 64/64/64 65/65/65 66/66/66
f 67/67/67 68/68/68 69/69/69
f 70/70/70 71/71/71 72/72/72
f 73/73/73 74/74/74 75/75/75
f 76/76/76 77/77/77 78/78/78
f 79/79/79 80/80/80 81/81/81
f 82/82/82 83/83/83 84/84/84
f 85/85/85 86/86/86 87/87/87
f 88/88/88 89/89/89 90/90/90
f 91/91/91 92/92/92 93/93/93
f 94/94/94 95/95/95 96/96/96
f 97/97/97 98/98/98 99/99/99
f 100/100/100 101/101/101 102/102/102
f 103/103/103 104/104/104 105/105/105
f 106/106/106 107/107/107 108/108/108
f 109/109/109 110/110/110 111/111/111
f 112/112/112 113/113/113 114/114/114
f 115/115/115 116/116/116 117/117/117
f 118/118/118 119/119/119 120/120/120
f 121/121/121 122/122/122 123/123/123
f 124/124/124 125/125/125 126/126/126
f 127/127/127 128/128/128 129/129/129
f 130/130/130 131/131/131 132/132/132
f 133/133/133 134/134/134 135/135/135
f 136/136/136 137/137/137 138/138/138
f 139/139/139 140/140/140 141/141/141
f 142/142/142 143/143/143 144/144/144
f 145/145/145 146/146/146 147/147/147
f 148/148/148 149/149/149 150/150/150
f 151/151/151 152/152/152 153/153/153
f 154/154/154 155/155/155 156/156/156
f 157/157/157 158/158/158 159/159/159
f 160/160/160 161/161/161 162/162/162
f 163/163/163 164/164/164 165/165/165
f 166/166/166 167/167/167 168/168/168
f 169/169/169 170/170/170 171/171/171
f 172/172/172 173/173/173 174/174/174
f 175/175/175 176/176/176 177/177/177
f 178/178/178 179/179/179 180/180/180
