g  Instance
v -8.061302 -53.15426 -4.982222
v -8.097775 -53.11703 -4.946009
v -8.127293 -52.95238 -5.023007
v -8.127293 -52.95238 -5.023007
v -8.097775 -53.11703 -4.946009
v -8.158314 -53.02505 -4.909752
v -8.260038 -52.84307 -4.837032
v -8.127293 -52.95238 -5.023007
v -8.158314 -53.02505 -4.909752
v -8.260038 -52.84307 -4.837032
v -8.39156 -52.57418 -4.728565
v -8.127293 -52.95238 -5.023007
v -8.127293 -52.95238 -5.023007
v -8.39156 -52.57418 -4.728565
v -8.335938 -51.88805 -5.151959
v -7.978539 -50.5416 -5.961274
v -7.724926 -50.80178 -6.299419
v -8.226498 -51.33525 -5.487466
v -8.127293 -52.95238 -5.023007
v -8.335938 -51.88805 -5.151959
v -7.533638 -52.34576 -6.143427
v -7.533638 -52.34576 -6.143427
v -8.335938 -51.88805 -5.151959
v -8.299896 -51.62713 -5.31167
v -8.127293 -52.95238 -5.023007
v -7.190159 -53.73135 -5.863328
v -8.061302 -53.15426 -4.982222
v -8.061302 -53.15426 -4.982222
v -7.190159 -53.73135 -5.863328
v -7.272705 -53.80553 -5.692237
v -7.978539 -50.5416 -5.961274
v -7.724926 -49.96453 -6.29942
v -7.724926 -50.80178 -6.299419
v -7.540265 -49.6086 -6.505543
v -7.175925 -50.32665 -6.912223
v -7.724926 -49.96453 -6.29942
v -7.724926 -49.96453 -6.29942
v -7.175925 -50.32665 -6.912223
v -7.724926 -50.80178 -6.299419
v -8.299896 -51.62713 -5.31167
v -8.226498 -51.33525 -5.487466
v -7.533638 -52.34576 -6.143427
v -7.533638 -52.34576 -6.143427
v -8.226498 -51.33525 -5.487466
v -7.724926 -50.80178 -6.299419
v -6.708176 -51.62458 -7.236101
v -7.533638 -52.34576 -6.143427
v -7.724926 -50.80178 -6.299419
v -7.175925 -50.32665 -6.912223
v -6.736742 -51.11071 -7.266917
v -7.724926 -50.80178 -6.299419
v -7.724926 -50.80178 -6.299419
v -6.736742 -51.11071 -7.266917
v -6.708176 -51.62458 -7.236101
v -6.708176 -51.62458 -7.236101
v -6.736742 -51.11071 -7.266917
v -6.587306 -51.53169 -7.347727
v -6.587306 -51.53169 -7.347727
v -6.736742 -51.11071 -7.266917
v -6.601621 -51.33997 -7.356147
v -8.127293 -52.95238 -5.023007
v -7.533638 -52.34576 -6.143427
v -7.190159 -53.73135 -5.863328
v -6.457408 -53.12769 -6.965591
v -7.190159 -53.73135 -5.863328
v -7.533638 -52.34576 -6.143427
v -6.457408 -53.12769 -6.965591
v -7.533638 -52.34576 -6.143427
v -6.708176 -51.62458 -7.236101
v -6.708176 -51.62458 -7.236101
v -6.566716 -51.71736 -7.325158
v -6.457408 -53.12769 -6.965591
v -6.457408 -53.12769 -6.965591
v -6.566716 -51.71736 -7.325158
v -6.370286 -53.06071 -7.06016
v -6.566716 -51.71736 -7.325158
v -6.708176 -51.62458 -7.236101
v -6.587306 -51.53169 -7.347727
v -7.190159 -53.73135 -5.863328
v -7.126943 -53.90126 -5.811779
v -7.272705 -53.80553 -5.692237
v -6.792722 -54.06904 -6.061341
v -7.126943 -53.90126 -5.811779
v -6.708165 -54.03834 -6.176762
v -6.708165 -54.03834 -6.176762
v -7.126943 -53.90126 -5.811779
v -7.190159 -53.73135 -5.863328
v -6.390421 -53.36845 -6.893337
v -6.520273 -53.94863 -6.421351
v -6.457408 -53.12769 -6.965591
v -6.457408 -53.12769 -6.965591
v -6.520273 -53.94863 -6.421351
v -7.190159 -53.73135 -5.863328
v -7.190159 -53.73135 -5.863328
v -6.520273 -53.94863 -6.421351
v -6.708165 -54.03834 -6.176762
v -6.457408 -53.12769 -6.965591
v -6.349692 -53.18943 -7.022747
v -6.390421 -53.36845 -6.893337
v -6.457408 -53.12769 -6.965591
v -6.370286 -53.06071 -7.06016
v -6.349692 -53.18943 -7.022747
v -6.349692 -53.18943 -7.022747
v -6.370286 -53.06071 -7.06016
v -6.348106 -53.18262 -7.02678
v -6.016061 -51.04927 -5.607366
v -6.110734 -50.90517 -5.572345
v -6.632884 -51.91816 -5.122079
v -6.632884 -51.91816 -5.122079
v -6.110734 -50.90517 -5.572345
v -6.819011 -51.89465 -5.016279
v -6.632884 -51.91816 -5.122079
v -6.792722 -54.06904 -6.061341
v -6.016061 -51.04927 -5.607366
v -6.016061 -51.04927 -5.607366
v -6.792722 -54.06904 -6.061341
v -5.927177 -51.34776 -5.911619
v -5.927177 -51.34776 -5.911619
v -6.792722 -54.06904 -6.061341
v -6.000641 -51.97136 -6.141471
v -6.000641 -51.97136 -6.141471
v -6.792722 -54.06904 -6.061341
v -6.520273 -53.94863 -6.421351
v -6.520273 -53.94863 -6.421351
v -6.792722 -54.06904 -6.061341
v -6.708165 -54.03834 -6.176762
v -6.390421 -53.36845 -6.893337
v -6.349692 -53.18943 -7.022747
v -6.520273 -53.94863 -6.421351
v -6.520273 -53.94863 -6.421351
v -6.349692 -53.18943 -7.022747
v -6.000641 -51.97136 -6.141471
v -6.000641 -51.97136 -6.141471
v -6.349692 -53.18943 -7.022747
v -6.348106 -53.18262 -7.02678
v -8.054129 -52.56386 -4.705739
v -8.097775 -53.11703 -4.946009
v -6.819011 -51.89465 -5.016279
v -6.819011 -51.89465 -5.016279
v -8.097775 -53.11703 -4.946009
v -6.632884 -51.91816 -5.122079
v -6.632884 -51.91816 -5.122079
v -8.097775 -53.11703 -4.946009
v -6.792722 -54.06904 -6.061341
v -6.792722 -54.06904 -6.061341
v -8.097775 -53.11703 -4.946009
v -7.126943 -53.90126 -5.811779
v -7.126943 -53.90126 -5.811779
v -8.097775 -53.11703 -4.946009
v -7.272705 -53.80553 -5.692237
v -7.272705 -53.80553 -5.692237
v -8.097775 -53.11703 -4.946009
v -8.061302 -53.15426 -4.982222
v -8.054129 -52.56386 -4.705739
v -8.39156 -52.57418 -4.728565
v -8.097775 -53.11703 -4.946009
v -8.097775 -53.11703 -4.946009
v -8.39156 -52.57418 -4.728565
v -8.158314 -53.02505 -4.909752
v -8.158314 -53.02505 -4.909752
v -8.39156 -52.57418 -4.728565
v -8.260038 -52.84307 -4.837032
v -6.566716 -51.71736 -7.325158
v -6.587306 -51.53169 -7.347727
v -6.370286 -53.06071 -7.06016
v -6.370286 -53.06071 -7.06016
v -6.587306 -51.53169 -7.347727
v -6.348106 -53.18262 -7.02678
v -6.348106 -53.18262 -7.02678
v -6.587306 -51.53169 -7.347727
v -6.000641 -51.97136 -6.141471
v -6.000641 -51.97136 -6.141471
v -6.587306 -51.53169 -7.347727
v -5.927177 -51.34776 -5.911619
v -5.927177 -51.34776 -5.911619
v -6.587306 -51.53169 -7.347727
v -6.601621 -51.33997 -7.356147
v -6.601621 -51.33997 -7.356147
v -6.736742 -51.11071 -7.266917
v -5.927177 -51.34776 -5.911619
v -5.927177 -51.34776 -5.911619
v -6.736742 -51.11071 -7.266917
v -6.016061 -51.04927 -5.607366
v -6.016061 -51.04927 -5.607366
v -6.736742 -51.11071 -7.266917
v -6.110734 -50.90517 -5.572345
v -6.110734 -50.90517 -5.572345
v -6.736742 -51.11071 -7.266917
v -7.540265 -49.6086 -6.505543
v -7.540265 -49.6086 -6.505543
v -6.736742 -51.11071 -7.266917
v -7.175925 -50.32665 -6.912223
v -7.724926 -49.96453 -6.29942
v -7.978539 -50.5416 -5.961274
v -7.540265 -49.6086 -6.505543
v -7.540265 -49.6086 -6.505543
v -7.978539 -50.5416 -5.961274
v -6.110734 -50.90517 -5.572345
v -6.110734 -50.90517 -5.572345
v -7.978539 -50.5416 -5.961274
v -6.819011 -51.89465 -5.016279
v -6.819011 -51.89465 -5.016279
v -7.978539 -50.5416 -5.961274
v -8.054129 -52.56386 -4.705739
v -8.054129 -52.56386 -4.705739
v -7.978539 -50.5416 -5.961274
v -8.39156 -52.57418 -4.728565
v -8.39156 -52.57418 -4.728565
v -7.978539 -50.5416 -5.961274
v -8.335938 -51.88805 -5.151959
v -8.335938 -51.88805 -5.151959
v -7.978539 -50.5416 -5.961274
v -8.299896 -51.62713 -5.31167
v -8.299896 -51.62713 -5.31167
v -7.978539 -50.5416 -5.961274
v -8.226498 -51.33525 -5.487466

vn -0.8160545 -0.3583601 -0.4534678
vn -0.8160545 -0.3583601 -0.4534678
vn -0.8160545 -0.3583601 -0.4534678
vn -0.8160545 -0.3583601 -0.4534678
vn -0.8160545 -0.3583601 -0.4534678
vn -0.8160545 -0.3583601 -0.4534678
vn -0.8507915 -0.3044032 -0.4283602
vn -0.8507915 -0.3044032 -0.4283602
vn -0.8507915 -0.3044032 -0.4283602
vn -0.8507096 -0.22436 -0.4753481
vn -0.8507096 -0.22436 -0.4753481
vn -0.8507096 -0.22436 -0.4753481
vn -0.8507096 -0.22436 -0.4753481
vn -0.8507096 -0.22436 -0.4753481
vn -0.8507096 -0.22436 -0.4753481
vn -0.8250164 -0.07650203 -0.5599067
vn -0.8250164 -0.07650203 -0.5599067
vn -0.8250164 -0.07650203 -0.5599067
vn -0.8056075 -0.2243608 -0.5483235
vn -0.8056075 -0.2243608 -0.5483235
vn -0.8056075 -0.2243608 -0.5483235
vn -0.8056075 -0.2243608 -0.5483235
vn -0.8056075 -0.2243608 -0.5483235
vn -0.8056075 -0.2243608 -0.5483235
vn -0.770539 -0.3583607 -0.5271122
vn -0.770539 -0.3583607 -0.5271122
vn -0.770539 -0.3583607 -0.5271122
vn -0.770539 -0.3583607 -0.5271122
vn -0.770539 -0.3583607 -0.5271122
vn -0.770539 -0.3583607 -0.5271122
vn -0.7999972 2.6227E-08 -0.6000037
vn -0.7999972 2.6227E-08 -0.6000037
vn -0.7999972 2.6227E-08 -0.6000037
vn -0.7448163 2.916729E-08 -0.6672697
vn -0.7448163 2.916729E-08 -0.6672697
vn -0.7448163 2.916729E-08 -0.6672697
vn -0.7448163 2.916729E-08 -0.6672697
vn -0.7448163 2.916729E-08 -0.6672697
vn -0.7448163 2.916729E-08 -0.6672697
vn -0.7904239 -0.1577286 -0.5919051
vn -0.7904239 -0.1577286 -0.5919051
vn -0.7904239 -0.1577286 -0.5919051
vn -0.7904239 -0.1577286 -0.5919051
vn -0.7904239 -0.1577286 -0.5919051
vn -0.7904239 -0.1577286 -0.5919051
vn -0.7350754 -0.1576898 -0.6593922
vn -0.7350754 -0.1576898 -0.6593922
vn -0.7350754 -0.1576898 -0.6593922
vn -0.7101452 -0.08141637 -0.6993319
vn -0.7101452 -0.08141637 -0.6993319
vn -0.7101452 -0.08141637 -0.6993319
vn -0.7101452 -0.08141637 -0.6993319
vn -0.7101452 -0.08141637 -0.6993319
vn -0.7101452 -0.08141637 -0.6993319
vn -0.6417196 -0.08140662 -0.7626067
vn -0.6417196 -0.08140662 -0.7626067
vn -0.6417196 -0.08140662 -0.7626067
vn -0.6417196 -0.08140662 -0.7626067
vn -0.6417196 -0.08140662 -0.7626067
vn -0.6417196 -0.08140662 -0.7626067
vn -0.7636167 -0.3044028 -0.5694107
vn -0.7636167 -0.3044028 -0.5694107
vn -0.7636167 -0.3044028 -0.5694107
vn -0.7079685 -0.3043343 -0.6373078
vn -0.7079685 -0.3043343 -0.6373078
vn -0.7079685 -0.3043343 -0.6373078
vn -0.692901 -0.238082 -0.6805919
vn -0.692901 -0.238082 -0.6805919
vn -0.692901 -0.238082 -0.6805919
vn -0.6244595 -0.2380565 -0.7438948
vn -0.6244595 -0.2380565 -0.7438948
vn -0.6244595 -0.2380565 -0.7438948
vn -0.6244595 -0.2380565 -0.7438948
vn -0.6244595 -0.2380565 -0.7438948
vn -0.6244595 -0.2380565 -0.7438948
vn -0.5995532 -0.1617651 -0.7838163
vn -0.5995532 -0.1617651 -0.7838163
vn -0.5995532 -0.1617651 -0.7838163
vn -0.7243626 -0.4324264 -0.5369416
vn -0.7243626 -0.4324264 -0.5369416
vn -0.7243626 -0.4324264 -0.5369416
vn -0.6687137 -0.4323398 -0.6049002
vn -0.6687137 -0.4323398 -0.6049002
vn -0.6687137 -0.4323398 -0.6049002
vn -0.6687137 -0.4323398 -0.6049002
vn -0.6687137 -0.4323398 -0.6049002
vn -0.6687137 -0.4323398 -0.6049002
vn -0.6618235 -0.3783591 -0.6471738
vn -0.6618235 -0.3783591 -0.6471738
vn -0.6618235 -0.3783591 -0.6471738
vn -0.6618235 -0.3783591 -0.6471738
vn -0.6618235 -0.3783591 -0.6471738
vn -0.6618235 -0.3783591 -0.6471738
vn -0.6618235 -0.3783591 -0.6471738
vn -0.6618235 -0.3783591 -0.6471738
vn -0.6618235 -0.3783591 -0.6471738
vn -0.5936946 -0.3783225 -0.7102104
vn -0.5936946 -0.3783225 -0.7102104
vn -0.5936946 -0.3783225 -0.7102104
vn -0.5785754 -0.311645 -0.7537427
vn -0.5785754 -0.311645 -0.7537427
vn -0.5785754 -0.311645 -0.7537427
vn -0.5785754 -0.311645 -0.7537427
vn -0.5785754 -0.311645 -0.7537427
vn -0.5785754 -0.311645 -0.7537427
vn 0.5020753 0.1217815 0.8562066
vn 0.5020753 0.1217815 0.8562066
vn 0.5020753 0.1217815 0.8562066
vn 0.5020753 0.1217815 0.8562066
vn 0.5020753 0.1217815 0.8562066
vn 0.5020753 0.1217815 0.8562066
vn 0.8077583 -0.2853029 0.5158767
vn 0.8077583 -0.2853029 0.5158767
vn 0.8077583 -0.2853029 0.5158767
vn 0.8077583 -0.2853029 0.5158767
vn 0.8077583 -0.2853029 0.5158767
vn 0.8077583 -0.2853029 0.5158767
vn 0.8077583 -0.2853029 0.5158767
vn 0.8077583 -0.2853029 0.5158767
vn 0.8077583 -0.2853029 0.5158767
vn 0.8077583 -0.2853029 0.5158767
vn 0.8077583 -0.2853029 0.5158767
vn 0.8077583 -0.2853029 0.5158767
vn 0.8077583 -0.2853029 0.5158767
vn 0.8077583 -0.2853029 0.5158767
vn 0.8077583 -0.2853029 0.5158767
vn 0.9677645 -0.2487389 -0.03950931
vn 0.9677645 -0.2487389 -0.03950931
vn 0.9677645 -0.2487389 -0.03950931
vn 0.9677645 -0.2487389 -0.03950931
vn 0.9677645 -0.2487389 -0.03950931
vn 0.9677645 -0.2487389 -0.03950931
vn 0.9677645 -0.2487389 -0.03950931
vn 0.9677645 -0.2487389 -0.03950931
vn 0.9677645 -0.2487389 -0.03950931
vn 0.4174689 -0.3895278 0.8209676
vn 0.4174689 -0.3895278 0.8209676
vn 0.4174689 -0.3895278 0.8209676
vn 0.4174689 -0.3895278 0.8209676
vn 0.4174689 -0.3895278 0.8209676
vn 0.4174689 -0.3895278 0.8209676
vn 0.4174689 -0.3895278 0.8209676
vn 0.4174689 -0.3895278 0.8209676
vn 0.4174689 -0.3895278 0.8209676
vn 0.4174689 -0.3895278 0.8209676
vn 0.4174689 -0.3895278 0.8209676
vn 0.4174689 -0.3895278 0.8209676
vn 0.4174689 -0.3895278 0.8209676
vn 0.4174689 -0.3895278 0.8209676
vn 0.4174689 -0.3895278 0.8209676
vn 0.4174689 -0.3895278 0.8209676
vn 0.4174689 -0.3895278 0.8209676
vn 0.4174689 -0.3895278 0.8209676
vn -0.04999068 -0.3945768 0.9175021
vn -0.04999068 -0.3945768 0.9175021
vn -0.04999068 -0.3945768 0.9175021
vn -0.04999068 -0.3945768 0.9175021
vn -0.04999068 -0.3945768 0.9175021
vn -0.04999068 -0.3945768 0.9175021
vn -0.04999068 -0.3945768 0.9175021
vn -0.04999068 -0.3945768 0.9175021
vn -0.04999068 -0.3945768 0.9175021
vn 0.9051144 0.04903916 -0.4223305
vn 0.9051144 0.04903916 -0.4223305
vn 0.9051144 0.04903916 -0.4223305
vn 0.9051144 0.04903916 -0.4223305
vn 0.9051144 0.04903916 -0.4223305
vn 0.9051144 0.04903916 -0.4223305
vn 0.9051144 0.04903916 -0.4223305
vn 0.9051144 0.04903916 -0.4223305
vn 0.9051144 0.04903916 -0.4223305
vn 0.9051144 0.04903916 -0.4223305
vn 0.9051144 0.04903916 -0.4223305
vn 0.9051144 0.04903916 -0.4223305
vn 0.9051144 0.04903916 -0.4223305
vn 0.9051144 0.04903916 -0.4223305
vn 0.9051144 0.04903916 -0.4223305
vn 0.7440717 0.5725396 -0.344319
vn 0.7440717 0.5725396 -0.344319
vn 0.7440717 0.5725396 -0.344319
vn 0.7440717 0.5725396 -0.344319
vn 0.7440717 0.5725396 -0.344319
vn 0.7440717 0.5725396 -0.344319
vn 0.7440717 0.5725396 -0.344319
vn 0.7440717 0.5725396 -0.344319
vn 0.7440717 0.5725396 -0.344319
vn 0.7440717 0.5725396 -0.344319
vn 0.7440717 0.5725396 -0.344319
vn 0.7440717 0.5725396 -0.344319
vn 0.7440717 0.5725396 -0.344319
vn 0.7440717 0.5725396 -0.344319
vn 0.7440717 0.5725396 -0.344319
vn -0.07339295 0.5280195 0.8460548
vn -0.07339295 0.5280195 0.8460548
vn -0.07339295 0.5280195 0.8460548
vn -0.07339295 0.5280195 0.8460548
vn -0.07339295 0.5280195 0.8460548
vn -0.07339295 0.5280195 0.8460548
vn -0.07339295 0.5280195 0.8460548
vn -0.07339295 0.5280195 0.8460548
vn -0.07339295 0.5280195 0.8460548
vn -0.07339295 0.5280195 0.8460548
vn -0.07339295 0.5280195 0.8460548
vn -0.07339295 0.5280195 0.8460548
vn -0.07339295 0.5280195 0.8460548
vn -0.07339295 0.5280195 0.8460548
vn -0.07339295 0.5280195 0.8460548
vn -0.07339295 0.5280195 0.8460548
vn -0.07339295 0.5280195 0.8460548
vn -0.07339295 0.5280195 0.8460548
vn -0.07339295 0.5280195 0.8460548
vn -0.07339295 0.5280195 0.8460548
vn -0.07339295 0.5280195 0.8460548
vn -0.07339295 0.5280195 0.8460548
vn -0.07339295 0.5280195 0.8460548
vn -0.07339295 0.5280195 0.8460548

vt 0.6854792 0.157461
vt 0.6846894 0.1582757
vt 0.6818175 0.157461
vt 0.6818175 0.157461
vt 0.6846894 0.1582757
vt 0.6828776 0.1592972
vt 0.6797698 0.1610077
vt 0.6818175 0.157461
vt 0.6828776 0.1592972
vt 0.6797698 0.1610077
vt 0.6752669 0.1635188
vt 0.6818175 0.157461
vt 0.6818175 0.157461
vt 0.6752669 0.1635188
vt 0.6648477 0.157461
vt 0.6440392 0.1441654
vt 0.6477267 0.1377784
vt 0.6560864 0.1522581
vt 0.6818175 0.157461
vt 0.6648477 0.157461
vt 0.6704538 0.1377784
vt 0.6704538 0.1377784
vt 0.6648477 0.157461
vt 0.6604807 0.1550527
vt 0.6818175 0.157461
vt 0.6931811 0.1377784
vt 0.6854792 0.157461
vt 0.6854792 0.157461
vt 0.6931811 0.1377784
vt 0.6949592 0.1408581
vt 0.6440392 0.1441654
vt 0.6358604 0.1377784
vt 0.6477267 0.1377784
vt 0.6308156 0.1338552
vt 0.6409926 0.1261146
vt 0.6358604 0.1377784
vt 0.6358604 0.1377784
vt 0.6409926 0.1261146
vt 0.6477267 0.1377784
vt 0.6604807 0.1550527
vt 0.6560864 0.1522581
vt 0.6704538 0.1377784
vt 0.6704538 0.1377784
vt 0.6560864 0.1522581
vt 0.6477267 0.1377784
vt 0.6590902 0.1180957
vt 0.6704538 0.1377784
vt 0.6477267 0.1377784
vt 0.6409926 0.1261146
vt 0.6519014 0.1180957
vt 0.6477267 0.1377784
vt 0.6477267 0.1377784
vt 0.6519014 0.1180957
vt 0.6590902 0.1180957
vt 0.6590902 0.1180957
vt 0.6519014 0.1180957
vt 0.657773 0.1158143
vt 0.657773 0.1158143
vt 0.6519014 0.1180957
vt 0.6550915 0.1158805
vt 0.6818175 0.157461
vt 0.6704538 0.1377784
vt 0.6931811 0.1377784
vt 0.6818175 0.1180958
vt 0.6931811 0.1377784
vt 0.6704538 0.1377784
vt 0.6818175 0.1180958
vt 0.6704538 0.1377784
vt 0.6590902 0.1180957
vt 0.6590902 0.1180957
vt 0.6604406 0.1157567
vt 0.6818175 0.1180958
vt 0.6818175 0.1180958
vt 0.6604406 0.1157567
vt 0.6807638 0.1162707
vt 0.6604406 0.1157567
vt 0.6590902 0.1180957
vt 0.657773 0.1158143
vt 0.6931811 0.1377784
vt 0.6964676 0.1377784
vt 0.6949592 0.1408581
vt 0.6990223 0.1313738
vt 0.6964676 0.1377784
vt 0.6981845 0.1291121
vt 0.6981845 0.1291121
vt 0.6964676 0.1377784
vt 0.6931811 0.1377784
vt 0.6860238 0.1180958
vt 0.6964242 0.1244608
vt 0.6818175 0.1180958
vt 0.6818175 0.1180958
vt 0.6964242 0.1244608
vt 0.6931811 0.1377784
vt 0.6931811 0.1377784
vt 0.6964242 0.1244608
vt 0.6981845 0.1291121
vt 0.6818175 0.1180958
vt 0.6828348 0.1163337
vt 0.6860238 0.1180958
vt 0.6818175 0.1180958
vt 0.6807638 0.1162707
vt 0.6828348 0.1163337
vt 0.6828348 0.1163337
vt 0.6807638 0.1162707
vt 0.6827259 0.1162813
vt 0.4040296 0.7181524
vt 0.3731372 0.7052517
vt 0.5370404 0.5394077
vt 0.5370404 0.5394077
vt 0.3731372 0.7052517
vt 0.5243459 0.500443
vt 0.4652894 0.4598141
vt 0.7041407 0.5856385
vt 0.3476967 0.5248194
vt 0.3476967 0.5248194
vt 0.7041407 0.5856385
vt 0.3765967 0.5655842
vt 0.3765967 0.5655842
vt 0.7041407 0.5856385
vt 0.4468852 0.5963735
vt 0.4468852 0.5963735
vt 0.7041407 0.5856385
vt 0.6807018 0.6338663
vt 0.6807018 0.6338663
vt 0.7041407 0.5856385
vt 0.6975872 0.6010988
vt 0.6078914 0.582179
vt 0.5898341 0.5949203
vt 0.6663572 0.5357044
vt 0.6663572 0.5357044
vt 0.5898341 0.5949203
vt 0.4652191 0.5081497
vt 0.4652191 0.5081497
vt 0.5898341 0.5949203
vt 0.5891497 0.5953141
vt 0.6503907 0.3772577
vt 0.7251512 0.4497072
vt 0.4210649 0.4709007
vt 0.4210649 0.4709007
vt 0.7251512 0.4497072
vt 0.4021592 0.5028056
vt 0.4021592 0.5028056
vt 0.7251512 0.4497072
vt 0.6917087 0.7860407
vt 0.6917087 0.7860407
vt 0.7251512 0.4497072
vt 0.709841 0.7107926
vt 0.709841 0.7107926
vt 0.7251512 0.4497072
vt 0.7149132 0.6747437
vt 0.7149132 0.6747437
vt 0.7251512 0.4497072
vt 0.7255544 0.4606297
vt 0.4687443 0.533923
vt 0.4669207 0.5671781
vt 0.4093783 0.5382264
vt 0.4093783 0.5382264
vt 0.4669207 0.5671781
vt 0.4191101 0.5441893
vt 0.4191101 0.5441893
vt 0.4669207 0.5671781
vt 0.4383909 0.5542211
vt 0.4796246 0.5896325
vt 0.4593922 0.5923327
vt 0.6262674 0.5579338
vt 0.6262674 0.5579338
vt 0.4593922 0.5923327
vt 0.6395994 0.5539398
vt 0.6395994 0.5539398
vt 0.4593922 0.5923327
vt 0.5104514 0.4480056
vt 0.5104514 0.4480056
vt 0.4593922 0.5923327
vt 0.4433459 0.4205024
vt 0.4433459 0.4205024
vt 0.4593922 0.5923327
vt 0.4385456 0.5933452
vt 0.5004664 0.5976392
vt 0.4728179 0.5876824
vt 0.5441846 0.4365299
vt 0.5441846 0.4365299
vt 0.4728179 0.5876824
vt 0.5137421 0.4025951
vt 0.5137421 0.4025951
vt 0.4728179 0.5876824
vt 0.4957411 0.3986902
vt 0.4957411 0.3986902
vt 0.4728179 0.5876824
vt 0.2968437 0.5027681
vt 0.2968437 0.5027681
vt 0.4728179 0.5876824
vt 0.3797001 0.548127
vt 0.4864172 0.8281088
vt 0.4254386 0.7111395
vt 0.5291837 0.8994191
vt 0.5291837 0.8994191
vt 0.4254386 0.7111395
vt 0.757375 0.5766005
vt 0.757375 0.5766005
vt 0.4254386 0.7111395
vt 0.6028848 0.3842425
vt 0.6028848 0.3842425
vt 0.4254386 0.7111395
vt 0.3602927 0.2768176
vt 0.3602927 0.2768176
vt 0.4254386 0.7111395
vt 0.2983954 0.2847117
vt 0.2983954 0.2847117
vt 0.4254386 0.7111395
vt 0.3259782 0.4311765
vt 0.3259782 0.4311765
vt 0.4254386 0.7111395
vt 0.3391837 0.4864265
vt 0.3391837 0.4864265
vt 0.4254386 0.7111395
vt 0.360002 0.5472363

usemtl Material0
usemap Material0
f 1/1/1 2/2/2 3/3/3
f 4/4/4 5/5/5 6/6/6
f 7/7/7 8/8/8 9/9/9
f 10/10/10 11/11/11 12/12/12
f 13/13/13 14/14/14 15/15/15
f 16/16/16 17/17/17 18/18/18
f 19/19/19 20/20/20 21/21/21
f 22/22/22 23/23/23 24/24/24
f 25/25/25 26/26/26 27/27/27
f 28/28/28 29/29/29 30/30/30
f 31/31/31 32/32/32 33/33/33
f 34/34/34 35/35/35 36/36/36
f 37/37/37 38/38/38 39/39/39
f 40/40/40 41/41/41 42/42/42
f 43/43/43 44/44/44 45/45/45
f 46/46/46 47/47/47 48/48/48
f 49/49/49 50/50/50 51/51/51
f 52/52/52 53/53/53 54/54/54
f 55/55/55 56/56/56 57/57/57
f 58/58/58 59/59/59 60/60/60
f 61/61/61 62/62/62 63/63/63
f 64/64/64 65/65/65 66/66/66
f 67/67/67 68/68/68 69/69/69
f 70/70/70 71/71/71 72/72/72
f 73/73/73 74/74/74 75/75/75
f 76/76/76 77/77/77 78/78/78
f 79/79/79 80/80/80 81/81/81
f 82/82/82 83/83/83 84/84/84
f 85/85/85 86/86/86 87/87/87
f 88/88/88 89/89/89 90/90/90
f 91/91/91 92/92/92 93/93/93
f 94/94/94 95/95/95 96/96/96
f 97/97/97 98/98/98 99/99/99
f 100/100/100 101/101/101 102/102/102
f 103/103/103 104/104/104 105/105/105

usemtl Material1
usemap Material1
f 106/106/106 107/107/107 108/108/108
f 109/109/109 110/110/110 111/111/111
f 112/112/112 113/113/113 114/114/114
f 115/115/115 116/116/116 117/117/117
f 118/118/118 119/119/119 120/120/120
f 121/121/121 122/122/122 123/123/123
f 124/124/124 125/125/125 126/126/126
f 127/127/127 128/128/128 129/129/129
f 130/130/130 131/131/131 132/132/132
f 133/133/133 134/134/134 135/135/135
f 136/136/136 137/137/137 138/138/138
f 139/139/139 140/140/140 141/141/141
f 142/142/142 143/143/143 144/144/144
f 145/145/145 146/146/146 147/147/147
f 148/148/148 149/149/149 150/150/150
f 151/151/151 152/152/152 153/153/153
f 154/154/154 155/155/155 156/156/156
f 157/157/157 158/158/158 159/159/159
f 160/160/160 161/161/161 162/162/162
f 163/163/163 164/164/164 165/165/165
f 166/166/166 167/167/167 168/168/168
f 169/169/169 170/170/170 171/171/171
f 172/172/172 173/173/173 174/174/174
f 175/175/175 176/176/176 177/177/177
f 178/178/178 179/179/179 180/180/180
f 181/181/181 182/182/182 183/183/183
f 184/184/184 185/185/185 186/186/186
f 187/187/187 188/188/188 189/189/189
f 190/190/190 191/191/191 192/192/192
f 193/193/193 194/194/194 195/195/195
f 196/196/196 197/197/197 198/198/198
f 199/199/199 200/200/200 201/201/201
f 202/202/202 203/203/203 204/204/204
f 205/205/205 206/206/206 207/207/207
f 208/208/208 209/209/209 210/210/210
f 211/211/211 212/212/212 213/213/213
f 214/214/214 215/215/215 216/216/216
