g  Instance
v -6.162146 -42.23181 -1.044502
v -5.758371 -41.96777 -1.33692
v -6.169239 -42.23709 -1.045296
v -6.169239 -42.23709 -1.045296
v -5.758371 -41.96777 -1.33692
v -6.279768 -42.34674 -1.308631
v -6.35733 -42.449 -1.505543
v -5.792292 -42.29479 -2.66065
v -6.737805 -43.07277 -2.530005
v -6.78546 -43.17367 -2.669229
v -6.469635 -43.14001 -3.24755
v -6.891984 -43.44511 -3.002422
v -6.891984 -43.44511 -3.002422
v -6.469635 -43.14001 -3.24755
v -6.858858 -43.55194 -3.287212
v -6.279768 -42.34674 -1.308631
v -5.758371 -41.96777 -1.33692
v -6.35733 -42.449 -1.505543
v -6.35733 -42.449 -1.505543
v -5.758371 -41.96777 -1.33692
v -5.792292 -42.29479 -2.66065
v -5.792292 -42.29479 -2.66065
v -5.758371 -41.96777 -1.33692
v -5.358407 -41.73419 -1.609087
v -5.792292 -42.29479 -2.66065
v -5.358407 -41.73419 -1.609087
v -4.472157 -41.49352 -2.763977
v -4.472157 -41.49352 -2.763977
v -5.358407 -41.73419 -1.609087
v -4.99752 -41.56716 -1.827312
v -4.472157 -41.49352 -2.763977
v -4.99752 -41.56716 -1.827312
v -4.234791 -41.26236 -2.258385
v -3.226079 -40.97766 -2.794773
v -4.472157 -41.49352 -2.763977
v -3.298331 -40.98969 -2.724136
v -3.298331 -40.98969 -2.724136
v -4.472157 -41.49352 -2.763977
v -4.234791 -41.26236 -2.258385
v -5.792292 -42.29479 -2.66065
v -5.969368 -42.6829 -3.209153
v -6.737805 -43.07277 -2.530005
v -6.737805 -43.07277 -2.530005
v -5.969368 -42.6829 -3.209153
v -6.78546 -43.17367 -2.669229
v -6.78546 -43.17367 -2.669229
v -5.969368 -42.6829 -3.209153
v -6.469635 -43.14001 -3.24755
v -5.792292 -42.29479 -2.66065
v -5.469644 -42.29479 -3.182714
v -5.969368 -42.6829 -3.209153
v -4.472157 -41.49352 -2.763977
v -4.631596 -41.75007 -3.156836
v -5.792292 -42.29479 -2.66065
v -5.792292 -42.29479 -2.66065
v -4.631596 -41.75007 -3.156836
v -5.469644 -42.29479 -3.182714
v -4.472157 -41.49352 -2.763977
v -4.208597 -41.52573 -3.152575
v -4.631596 -41.75007 -3.156836
v -3.226079 -40.97766 -2.794773
v -3.141647 -40.97097 -2.87325
v -4.472157 -41.49352 -2.763977
v -4.472157 -41.49352 -2.763977
v -3.141647 -40.97097 -2.87325
v -4.208597 -41.52573 -3.152575
v -4.208597 -41.52573 -3.152575
v -3.141647 -40.97097 -2.87325
v -3.389873 -41.18208 -3.160083
v -4.080064 -44.21232 -3.630413
v -3.389873 -41.18208 -3.160083
v -3.79176 -44.71939 -3.196523
v -3.79176 -44.71939 -3.196523
v -3.389873 -41.18208 -3.160083
v -2.839952 -43.31452 -2.176416
v -2.839952 -43.31452 -2.176416
v -3.389873 -41.18208 -3.160083
v -2.732954 -43.06875 -2.073505
v -2.732954 -43.06875 -2.073505
v -3.389873 -41.18208 -3.160083
v -3.141647 -40.97097 -2.87325
v -3.298331 -40.98969 -2.724136
v -4.234791 -41.26236 -2.258385
v -3.550022 -42.99395 -1.391395
v -3.550022 -42.99395 -1.391395
v -4.234791 -41.26236 -2.258385
v -4.611739 -43.16353 -0.950627
v -4.611739 -43.16353 -0.950627
v -4.234791 -41.26236 -2.258385
v -6.162146 -42.23181 -1.044502
v -6.162146 -42.23181 -1.044502
v -4.234791 -41.26236 -2.258385
v -5.758371 -41.96777 -1.33692
v -5.758371 -41.96777 -1.33692
v -4.234791 -41.26236 -2.258385
v -5.358407 -41.73419 -1.609087
v -5.358407 -41.73419 -1.609087
v -4.234791 -41.26236 -2.258385
v -4.99752 -41.56716 -1.827312
v -5.072733 -45.02976 -3.126111
v -6.640553 -43.86011 -3.08601
v -5.493921 -44.53273 -3.56996
v -5.493921 -44.53273 -3.56996
v -6.640553 -43.86011 -3.08601
v -6.799684 -43.65004 -3.309137
v -5.469644 -42.29479 -3.182714
v -4.631596 -41.75007 -3.156836
v -5.969368 -42.6829 -3.209153
v -5.969368 -42.6829 -3.209153
v -4.631596 -41.75007 -3.156836
v -6.469635 -43.14001 -3.24755
v -6.469635 -43.14001 -3.24755
v -4.631596 -41.75007 -3.156836
v -6.858858 -43.55194 -3.287212
v -6.858858 -43.55194 -3.287212
v -4.631596 -41.75007 -3.156836
v -6.799684 -43.65004 -3.309137
v -6.799684 -43.65004 -3.309137
v -4.631596 -41.75007 -3.156836
v -5.493921 -44.53273 -3.56996
v -5.493921 -44.53273 -3.56996
v -4.631596 -41.75007 -3.156836
v -4.080064 -44.21232 -3.630413
v -4.080064 -44.21232 -3.630413
v -4.631596 -41.75007 -3.156836
v -3.389873 -41.18208 -3.160083
v -3.389873 -41.18208 -3.160083
v -4.631596 -41.75007 -3.156836
v -4.208597 -41.52573 -3.152575
v -4.848629 -45.1232 -3.023253
v -5.178813 -43.5164 -1.011503
v -5.072733 -45.02976 -3.126111
v -5.072733 -45.02976 -3.126111
v -5.178813 -43.5164 -1.011503
v -6.640553 -43.86011 -3.08601
v -6.640553 -43.86011 -3.08601
v -5.178813 -43.5164 -1.011503
v -6.773349 -43.60489 -2.852683
v -6.773349 -43.60489 -2.852683
v -5.178813 -43.5164 -1.011503
v -5.996381 -42.9524 -1.058226
v -6.169239 -42.23709 -1.045296
v -6.279768 -42.34674 -1.308631
v -5.996381 -42.9524 -1.058226
v -5.996381 -42.9524 -1.058226
v -6.279768 -42.34674 -1.308631
v -6.773349 -43.60489 -2.852683
v -6.773349 -43.60489 -2.852683
v -6.279768 -42.34674 -1.308631
v -6.891984 -43.44511 -3.002422
v -6.891984 -43.44511 -3.002422
v -6.279768 -42.34674 -1.308631
v -6.78546 -43.17367 -2.669229
v -6.78546 -43.17367 -2.669229
v -6.279768 -42.34674 -1.308631
v -6.737805 -43.07277 -2.530005
v -6.737805 -43.07277 -2.530005
v -6.279768 -42.34674 -1.308631
v -6.35733 -42.449 -1.505543
v -6.891984 -43.44511 -3.002422
v -6.858858 -43.55194 -3.287212
v -6.773349 -43.60489 -2.852683
v -6.773349 -43.60489 -2.852683
v -6.858858 -43.55194 -3.287212
v -6.640553 -43.86011 -3.08601
v -6.640553 -43.86011 -3.08601
v -6.858858 -43.55194 -3.287212
v -6.799684 -43.65004 -3.309137
v -4.848629 -45.1232 -3.023253
v -3.79176 -44.71939 -3.196523
v -5.178813 -43.5164 -1.011503
v -5.178813 -43.5164 -1.011503
v -3.79176 -44.71939 -3.196523
v -4.611739 -43.16353 -0.950627
v -4.611739 -43.16353 -0.950627
v -3.79176 -44.71939 -3.196523
v -3.550022 -42.99395 -1.391395
v -3.550022 -42.99395 -1.391395
v -3.79176 -44.71939 -3.196523
v -2.736365 -43.1341 -2.034297
v -2.736365 -43.1341 -2.034297
v -3.79176 -44.71939 -3.196523
v -2.839952 -43.31452 -2.176416
v -5.493921 -44.53273 -3.56996
v -4.080064 -44.21232 -3.630413
v -5.072733 -45.02976 -3.126111
v -5.072733 -45.02976 -3.126111
v -4.080064 -44.21232 -3.630413
v -4.848629 -45.1232 -3.023253
v -4.848629 -45.1232 -3.023253
v -4.080064 -44.21232 -3.630413
v -3.79176 -44.71939 -3.196523
v -3.141647 -40.97097 -2.87325
v -3.226079 -40.97766 -2.794773
v -2.732954 -43.06875 -2.073505
v -2.732954 -43.06875 -2.073505
v -3.226079 -40.97766 -2.794773
v -2.736365 -43.1341 -2.034297
v -2.736365 -43.1341 -2.034297
v -3.226079 -40.97766 -2.794773
v -3.550022 -42.99395 -1.391395
v -3.550022 -42.99395 -1.391395
v -3.226079 -40.97766 -2.794773
v -3.298331 -40.98969 -2.724136
v -2.839952 -43.31452 -2.176416
v -2.732954 -43.06875 -2.073505
v -2.736365 -43.1341 -2.034297
v -4.611739 -43.16353 -0.950627
v -6.162146 -42.23181 -1.044502
v -5.178813 -43.5164 -1.011503
v -5.178813 -43.5164 -1.011503
v -6.162146 -42.23181 -1.044502
v -5.996381 -42.9524 -1.058226
v -5.996381 -42.9524 -1.058226
v -6.162146 -42.23181 -1.044502
v -6.169239 -42.23709 -1.045296

vn -0.5887925 0.8035403 -0.08744369
vn -0.5887925 0.8035403 -0.08744369
vn -0.5887925 0.8035403 -0.08744369
vn -0.5887925 0.8035403 -0.08744369
vn -0.5887925 0.8035403 -0.08744369
vn -0.5887925 0.8035403 -0.08744369
vn -0.6381555 0.7397397 -0.2134075
vn -0.6381555 0.7397397 -0.2134075
vn -0.6381555 0.7397397 -0.2134075
vn -0.67079 0.6653687 -0.3276054
vn -0.67079 0.6653687 -0.3276054
vn -0.67079 0.6653687 -0.3276054
vn -0.67079 0.6653687 -0.3276054
vn -0.67079 0.6653687 -0.3276054
vn -0.67079 0.6653687 -0.3276054
vn -0.5846841 0.7909454 -0.1804158
vn -0.5846841 0.7909454 -0.1804158
vn -0.5846841 0.7909454 -0.1804158
vn -0.5846841 0.7909454 -0.1804158
vn -0.5846841 0.7909454 -0.1804158
vn -0.5846841 0.7909454 -0.1804158
vn -0.5846841 0.7909454 -0.1804158
vn -0.5846841 0.7909454 -0.1804158
vn -0.5846841 0.7909454 -0.1804158
vn -0.5183145 0.8248253 -0.2258611
vn -0.5183145 0.8248253 -0.2258611
vn -0.5183145 0.8248253 -0.2258611
vn -0.5183145 0.8248253 -0.2258611
vn -0.5183145 0.8248253 -0.2258611
vn -0.5183145 0.8248253 -0.2258611
vn -0.4533475 0.8717683 -0.185731
vn -0.4533475 0.8717683 -0.185731
vn -0.4533475 0.8717683 -0.185731
vn -0.376888 0.8964924 -0.2329312
vn -0.376888 0.8964924 -0.2329312
vn -0.376888 0.8964924 -0.2329312
vn -0.376888 0.8964924 -0.2329312
vn -0.376888 0.8964924 -0.2329312
vn -0.376888 0.8964924 -0.2329312
vn -0.6301824 0.7150813 -0.3025372
vn -0.6301824 0.7150813 -0.3025372
vn -0.6301824 0.7150813 -0.3025372
vn -0.6301824 0.7150813 -0.3025372
vn -0.6301824 0.7150813 -0.3025372
vn -0.6301824 0.7150813 -0.3025372
vn -0.6301824 0.7150813 -0.3025372
vn -0.6301824 0.7150813 -0.3025372
vn -0.6301824 0.7150813 -0.3025372
vn -0.5634297 0.7491916 -0.3482224
vn -0.5634297 0.7491916 -0.3482224
vn -0.5634297 0.7491916 -0.3482224
vn -0.5103005 0.8000775 -0.3153875
vn -0.5103005 0.8000775 -0.3153875
vn -0.5103005 0.8000775 -0.3153875
vn -0.5103005 0.8000775 -0.3153875
vn -0.5103005 0.8000775 -0.3153875
vn -0.5103005 0.8000775 -0.3153875
vn -0.4338127 0.8248243 -0.36259
vn -0.4338127 0.8248243 -0.36259
vn -0.4338127 0.8248243 -0.36259
vn -0.3688638 0.8717665 -0.3224323
vn -0.3688638 0.8717665 -0.3224323
vn -0.3688638 0.8717665 -0.3224323
vn -0.3688638 0.8717665 -0.3224323
vn -0.3688638 0.8717665 -0.3224323
vn -0.3688638 0.8717665 -0.3224323
vn -0.3688638 0.8717665 -0.3224323
vn -0.3688638 0.8717665 -0.3224323
vn -0.3688638 0.8717665 -0.3224323
vn 0.7828541 -0.08259019 -0.6166996
vn 0.7828541 -0.08259019 -0.6166996
vn 0.7828541 -0.08259019 -0.6166996
vn 0.7828541 -0.08259019 -0.6166996
vn 0.7828541 -0.08259019 -0.6166996
vn 0.7828541 -0.08259019 -0.6166996
vn 0.7828541 -0.08259019 -0.6166996
vn 0.7828541 -0.08259019 -0.6166996
vn 0.7828541 -0.08259019 -0.6166996
vn 0.7828541 -0.08259019 -0.6166996
vn 0.7828541 -0.08259019 -0.6166996
vn 0.7828541 -0.08259019 -0.6166996
vn 0.2582329 0.5122359 0.8191032
vn 0.2582329 0.5122359 0.8191032
vn 0.2582329 0.5122359 0.8191032
vn 0.2582329 0.5122359 0.8191032
vn 0.2582329 0.5122359 0.8191032
vn 0.2582329 0.5122359 0.8191032
vn 0.2582329 0.5122359 0.8191032
vn 0.2582329 0.5122359 0.8191032
vn 0.2582329 0.5122359 0.8191032
vn 0.2582329 0.5122359 0.8191032
vn 0.2582329 0.5122359 0.8191032
vn 0.2582329 0.5122359 0.8191032
vn 0.2582329 0.5122359 0.8191032
vn 0.2582329 0.5122359 0.8191032
vn 0.2582329 0.5122359 0.8191032
vn 0.2582329 0.5122359 0.8191032
vn 0.2582329 0.5122359 0.8191032
vn 0.2582329 0.5122359 0.8191032
vn -0.5744022 -0.7594725 -0.3053912
vn -0.5744022 -0.7594725 -0.3053912
vn -0.5744022 -0.7594725 -0.3053912
vn -0.5744022 -0.7594725 -0.3053912
vn -0.5744022 -0.7594725 -0.3053912
vn -0.5744022 -0.7594725 -0.3053912
vn -0.08069534 0.1707936 -0.9819968
vn -0.08069534 0.1707936 -0.9819968
vn -0.08069534 0.1707936 -0.9819968
vn -0.08069534 0.1707936 -0.9819968
vn -0.08069534 0.1707936 -0.9819968
vn -0.08069534 0.1707936 -0.9819968
vn -0.08069534 0.1707936 -0.9819968
vn -0.08069534 0.1707936 -0.9819968
vn -0.08069534 0.1707936 -0.9819968
vn -0.08069534 0.1707936 -0.9819968
vn -0.08069534 0.1707936 -0.9819968
vn -0.08069534 0.1707936 -0.9819968
vn -0.08069534 0.1707936 -0.9819968
vn -0.08069534 0.1707936 -0.9819968
vn -0.08069534 0.1707936 -0.9819968
vn -0.08069534 0.1707936 -0.9819968
vn -0.08069534 0.1707936 -0.9819968
vn -0.08069534 0.1707936 -0.9819968
vn -0.08069534 0.1707936 -0.9819968
vn -0.08069534 0.1707936 -0.9819968
vn -0.08069534 0.1707936 -0.9819968
vn -0.08069534 0.1707936 -0.9819968
vn -0.08069534 0.1707936 -0.9819968
vn -0.08069534 0.1707936 -0.9819968
vn -0.516258 -0.7084978 0.4811534
vn -0.516258 -0.7084978 0.4811534
vn -0.516258 -0.7084978 0.4811534
vn -0.516258 -0.7084978 0.4811534
vn -0.516258 -0.7084978 0.4811534
vn -0.516258 -0.7084978 0.4811534
vn -0.516258 -0.7084978 0.4811534
vn -0.516258 -0.7084978 0.4811534
vn -0.516258 -0.7084978 0.4811534
vn -0.516258 -0.7084978 0.4811534
vn -0.516258 -0.7084978 0.4811534
vn -0.516258 -0.7084978 0.4811534
vn -0.8645266 -0.217116 0.4532709
vn -0.8645266 -0.217116 0.4532709
vn -0.8645266 -0.217116 0.4532709
vn -0.8645266 -0.217116 0.4532709
vn -0.8645266 -0.217116 0.4532709
vn -0.8645266 -0.217116 0.4532709
vn -0.8645266 -0.217116 0.4532709
vn -0.8645266 -0.217116 0.4532709
vn -0.8645266 -0.217116 0.4532709
vn -0.8645266 -0.217116 0.4532709
vn -0.8645266 -0.217116 0.4532709
vn -0.8645266 -0.217116 0.4532709
vn -0.8645266 -0.217116 0.4532709
vn -0.8645266 -0.217116 0.4532709
vn -0.8645266 -0.217116 0.4532709
vn -0.8645266 -0.217116 0.4532709
vn -0.8645266 -0.217116 0.4532709
vn -0.8645266 -0.217116 0.4532709
vn -0.8417495 -0.5303321 0.1010236
vn -0.8417495 -0.5303321 0.1010236
vn -0.8417495 -0.5303321 0.1010236
vn -0.8417495 -0.5303321 0.1010236
vn -0.8417495 -0.5303321 0.1010236
vn -0.8417495 -0.5303321 0.1010236
vn -0.8417495 -0.5303321 0.1010236
vn -0.8417495 -0.5303321 0.1010236
vn -0.8417495 -0.5303321 0.1010236
vn 0.3671972 -0.6964586 0.616532
vn 0.3671972 -0.6964586 0.616532
vn 0.3671972 -0.6964586 0.616532
vn 0.3671972 -0.6964586 0.616532
vn 0.3671972 -0.6964586 0.616532
vn 0.3671972 -0.6964586 0.616532
vn 0.3671972 -0.6964586 0.616532
vn 0.3671972 -0.6964586 0.616532
vn 0.3671972 -0.6964586 0.616532
vn 0.3671972 -0.6964586 0.616532
vn 0.3671972 -0.6964586 0.616532
vn 0.3671972 -0.6964586 0.616532
vn 0.3671972 -0.6964586 0.616532
vn 0.3671972 -0.6964586 0.616532
vn 0.3671972 -0.6964586 0.616532
vn 0.1050313 -0.6114259 -0.7843001
vn 0.1050313 -0.6114259 -0.7843001
vn 0.1050313 -0.6114259 -0.7843001
vn 0.1050313 -0.6114259 -0.7843001
vn 0.1050313 -0.6114259 -0.7843001
vn 0.1050313 -0.6114259 -0.7843001
vn 0.1050313 -0.6114259 -0.7843001
vn 0.1050313 -0.6114259 -0.7843001
vn 0.1050313 -0.6114259 -0.7843001
vn 0.6124178 0.3829614 0.6915816
vn 0.6124178 0.3829614 0.6915816
vn 0.6124178 0.3829614 0.6915816
vn 0.6124178 0.3829614 0.6915816
vn 0.6124178 0.3829614 0.6915816
vn 0.6124178 0.3829614 0.6915816
vn 0.6124178 0.3829614 0.6915816
vn 0.6124178 0.3829614 0.6915816
vn 0.6124178 0.3829614 0.6915816
vn 0.6124178 0.3829614 0.6915816
vn 0.6124178 0.3829614 0.6915816
vn 0.6124178 0.3829614 0.6915816
vn 0.9058486 -0.2517048 -0.34071
vn 0.9058486 -0.2517048 -0.34071
vn 0.9058486 -0.2517048 -0.34071
vn -0.08319031 -0.03810247 0.995805
vn -0.08319031 -0.03810247 0.995805
vn -0.08319031 -0.03810247 0.995805
vn -0.08319031 -0.03810247 0.995805
vn -0.08319031 -0.03810247 0.995805
vn -0.08319031 -0.03810247 0.995805
vn -0.08319031 -0.03810247 0.995805
vn -0.08319031 -0.03810247 0.995805
vn -0.08319031 -0.03810247 0.995805

vt 0.5056805 0.2205104
vt 0.498117 0.2165085
vt 0.505815 0.220493
vt 0.505815 0.220493
vt 0.498117 0.2165085
vt 0.5079831 0.2165085
vt 0.509639 0.2135222
vt 0.4999995 0.196826
vt 0.5199097 0.196826
vt 0.5213455 0.1944336
vt 0.5162805 0.1856606
vt 0.5256043 0.188161
vt 0.5256043 0.188161
vt 0.5162805 0.1856606
vt 0.5261552 0.183324
vt 0.5079831 0.2165085
vt 0.498117 0.2165085
vt 0.509639 0.2135222
vt 0.509639 0.2135222
vt 0.498117 0.2165085
vt 0.4999995 0.196826
vt 0.4999995 0.196826
vt 0.498117 0.2165085
vt 0.490783 0.2127895
vt 0.4999995 0.196826
vt 0.490783 0.2127895
vt 0.4772723 0.196826
vt 0.4772723 0.196826
vt 0.490783 0.2127895
vt 0.4848758 0.2099957
vt 0.4772723 0.196826
vt 0.4848758 0.2099957
vt 0.4730582 0.204125
vt 0.4584635 0.196826
vt 0.4772723 0.196826
vt 0.4594691 0.1978086
vt 0.4594691 0.1978086
vt 0.4772723 0.196826
vt 0.4730582 0.204125
vt 0.4999995 0.196826
vt 0.5054273 0.1874248
vt 0.5199097 0.196826
vt 0.5199097 0.196826
vt 0.5054273 0.1874248
vt 0.5213455 0.1944336
vt 0.5213455 0.1944336
vt 0.5054273 0.1874248
vt 0.5162805 0.1856606
vt 0.4999995 0.196826
vt 0.49554 0.1891019
vt 0.5054273 0.1874248
vt 0.4772723 0.196826
vt 0.4809107 0.190524
vt 0.4999995 0.196826
vt 0.4999995 0.196826
vt 0.4809107 0.190524
vt 0.49554 0.1891019
vt 0.4772723 0.196826
vt 0.4739479 0.191068
vt 0.4809107 0.190524
vt 0.4584635 0.196826
vt 0.4573197 0.1956748
vt 0.4772723 0.196826
vt 0.4772723 0.196826
vt 0.4573197 0.1956748
vt 0.4739479 0.191068
vt 0.4739479 0.191068
vt 0.4573197 0.1956748
vt 0.461568 0.1912598
vt 0.6236985 0.5327323
vt 0.2383122 0.4581124
vt 0.6828957 0.4638924
vt 0.6828957 0.4638924
vt 0.2383122 0.4581124
vt 0.4959474 0.3020612
vt 0.4959474 0.3020612
vt 0.2383122 0.4581124
vt 0.4640237 0.2857337
vt 0.4640237 0.2857337
vt 0.2383122 0.4581124
vt 0.2088402 0.4126129
vt 0.5819305 0.8796649
vt 0.4596688 0.7405224
vt 0.6980466 0.4815044
vt 0.6980466 0.4815044
vt 0.4596688 0.7405224
vt 0.5486567 0.3498249
vt 0.5486567 0.3498249
vt 0.4596688 0.7405224
vt 0.239517 0.3778671
vt 0.239517 0.3778671
vt 0.4596688 0.7405224
vt 0.2809334 0.4652331
vt 0.2809334 0.4652331
vt 0.4596688 0.7405224
vt 0.3241219 0.5465425
vt 0.3241219 0.5465425
vt 0.4596688 0.7405224
vt 0.3664618 0.6117401
vt 0.3775202 0.5056089
vt 0.5794647 0.5012587
vt 0.4431537 0.5537335
vt 0.4431537 0.5537335
vt 0.5794647 0.5012587
vt 0.6056506 0.5254475
vt 0.4314015 0.5249131
vt 0.3780265 0.4419865
vt 0.4695599 0.5743691
vt 0.4695599 0.5743691
vt 0.3780265 0.4419865
vt 0.5146329 0.623872
vt 0.5146329 0.623872
vt 0.3780265 0.4419865
vt 0.5553321 0.6623867
vt 0.5553321 0.6623867
vt 0.3780265 0.4419865
vt 0.5652326 0.6565363
vt 0.5652326 0.6565363
vt 0.3780265 0.4419865
vt 0.655416 0.5273226
vt 0.655416 0.5273226
vt 0.3780265 0.4419865
vt 0.6252924 0.3874114
vt 0.6252924 0.3874114
vt 0.3780265 0.4419865
vt 0.322889 0.3191059
vt 0.322889 0.3191059
vt 0.3780265 0.4419865
vt 0.3561534 0.4001247
vt 0.3447058 0.6359008
vt 0.480745 0.3785469
vt 0.3711918 0.6490641
vt 0.3711918 0.6490641
vt 0.480745 0.3785469
vt 0.5905373 0.6439356
vt 0.5905373 0.6439356
vt 0.480745 0.3785469
vt 0.6194326 0.6140839
vt 0.6194326 0.6140839
vt 0.480745 0.3785469
vt 0.5920936 0.3845238
vt 0.6093915 0.4035421
vt 0.6006253 0.4361268
vt 0.5282274 0.4051453
vt 0.5282274 0.4051453
vt 0.6006253 0.4361268
vt 0.4793105 0.6271815
vt 0.4793105 0.6271815
vt 0.6006253 0.4361268
vt 0.4995851 0.6457076
vt 0.4995851 0.6457076
vt 0.6006253 0.4361268
vt 0.5257616 0.604474
vt 0.5257616 0.604474
vt 0.6006253 0.4361268
vt 0.5352684 0.5872511
vt 0.5352684 0.5872511
vt 0.6006253 0.4361268
vt 0.5917748 0.4604891
vt 0.5594386 0.5646279
vt 0.5487598 0.5929139
vt 0.5398343 0.5497583
vt 0.5398343 0.5497583
vt 0.5487598 0.5929139
vt 0.5115014 0.5729347
vt 0.5115014 0.5729347
vt 0.5487598 0.5929139
vt 0.5374435 0.5950891
vt 0.6013097 0.6927072
vt 0.4610657 0.7201869
vt 0.5442127 0.3736575
vt 0.5442127 0.3736575
vt 0.4610657 0.7201869
vt 0.4610235 0.3640007
vt 0.4610235 0.3640007
vt 0.4610657 0.7201869
vt 0.3338771 0.4339048
vt 0.3338771 0.4339048
vt 0.4610657 0.7201869
vt 0.2521693 0.5358731
vt 0.2521693 0.5358731
vt 0.4610657 0.7201869
vt 0.2741174 0.558412
vt 0.6169763 0.431214
vt 0.3875708 0.4466555
vt 0.5645388 0.3178402
vt 0.5645388 0.3178402
vt 0.3875708 0.4466555
vt 0.5320432 0.2915653
vt 0.5320432 0.2915653
vt 0.3875708 0.4466555
vt 0.3561534 0.3358272
vt 0.3800563 0.7799466
vt 0.3747357 0.765152
vt 0.6516376 0.6292441
vt 0.6516376 0.6292441
vt 0.3747357 0.765152
vt 0.6589318 0.6218562
vt 0.6589318 0.6218562
vt 0.3747357 0.765152
vt 0.58404 0.5007055
vt 0.58404 0.5007055
vt 0.3747357 0.765152
vt 0.3709105 0.7518387
vt 0.4584171 0.3902522
vt 0.4306608 0.3788047
vt 0.4373409 0.3744451
vt 0.4833654 0.4368909
vt 0.5748519 0.5903732
vt 0.4483525 0.4930269
vt 0.4483525 0.4930269
vt 0.5748519 0.5903732
vt 0.5037666 0.5739566
vt 0.5037666 0.5739566
vt 0.5748519 0.5903732
vt 0.5743269 0.5910763

usemtl Material0
usemap Material0
f 1/1/1 2/2/2 3/3/3
f 4/4/4 5/5/5 6/6/6
f 7/7/7 8/8/8 9/9/9
f 10/10/10 11/11/11 12/12/12
f 13/13/13 14/14/14 15/15/15
f 16/16/16 17/17/17 18/18/18
f 19/19/19 20/20/20 21/21/21
f 22/22/22 23/23/23 24/24/24
f 25/25/25 26/26/26 27/27/27
f 28/28/28 29/29/29 30/30/30
f 31/31/31 32/32/32 33/33/33
f 34/34/34 35/35/35 36/36/36
f 37/37/37 38/38/38 39/39/39
f 40/40/40 41/41/41 42/42/42
f 43/43/43 44/44/44 45/45/45
f 46/46/46 47/47/47 48/48/48
f 49/49/49 50/50/50 51/51/51
f 52/52/52 53/53/53 54/54/54
f 55/55/55 56/56/56 57/57/57
f 58/58/58 59/59/59 60/60/60
f 61/61/61 62/62/62 63/63/63
f 64/64/64 65/65/65 66/66/66
f 67/67/67 68/68/68 69/69/69

usemtl Material1
usemap Material1
f 70/70/70 71/71/71 72/72/72
f 73/73/73 74/74/74 75/75/75
f 76/76/76 77/77/77 78/78/78
f 79/79/79 80/80/80 81/81/81
f 82/82/82 83/83/83 84/84/84
f 85/85/85 86/86/86 87/87/87
f 88/88/88 89/89/89 90/90/90
f 91/91/91 92/92/92 93/93/93
f 94/94/94 95/95/95 96/96/96
f 97/97/97 98/98/98 99/99/99
f 100/100/100 101/101/101 102/102/102
f 103/103/103 104/104/104 105/105/105
f 106/106/106 107/107/107 108/108/108
f 109/109/109 110/110/110 111/111/111
f 112/112/112 113/113/113 114/114/114
f 115/115/115 116/116/116 117/117/117
f 118/118/118 119/119/119 120/120/120
f 121/121/121 122/122/122 123/123/123
f 124/124/124 125/125/125 126/126/126
f 127/127/127 128/128/128 129/129/129
f 130/130/130 131/131/131 132/132/132
f 133/133/133 134/134/134 135/135/135
f 136/136/136 137/137/137 138/138/138
f 139/139/139 140/140/140 141/141/141
f 142/142/142 143/143/143 144/144/144
f 145/145/145 146/146/146 147/147/147
f 148/148/148 149/149/149 150/150/150
f 151/151/151 152/152/152 153/153/153
f 154/154/154 155/155/155 156/156/156
f 157/157/157 158/158/158 159/159/159
f 160/160/160 161/161/161 162/162/162
f 163/163/163 164/164/164 165/165/165
f 166/166/166 167/167/167 168/168/168
f 169/169/169 170/170/170 171/171/171
f 172/172/172 173/173/173 174/174/174
f 175/175/175 176/176/176 177/177/177
f 178/178/178 179/179/179 180/180/180
f 181/181/181 182/182/182 183/183/183
f 184/184/184 185/185/185 186/186/186
f 187/187/187 188/188/188 189/189/189
f 190/190/190 191/191/191 192/192/192
f 193/193/193 194/194/194 195/195/195
f 196/196/196 197/197/197 198/198/198
f 199/199/199 200/200/200 201/201/201
f 202/202/202 203/203/203 204/204/204
f 205/205/205 206/206/206 207/207/207
f 208/208/208 209/209/209 210/210/210
f 211/211/211 212/212/212 213/213/213
f 214/214/214 215/215/215 216/216/216
