g  Instance
v 1.527956 -59.20194 -3.525519
v 1.437385 -59.33389 -3.191815
v 1.286557 -59.16403 -3.745125
v 1.286557 -59.16403 -3.745125
v 1.437385 -59.33389 -3.191815
v 0.9345087 -59.19881 -3.809002
v 0.9345087 -59.19881 -3.809002
v 1.437385 -59.33389 -3.191815
v 1.187897 -59.34462 -3.276707
v 0.9345087 -59.19881 -3.809002
v 1.187897 -59.34462 -3.276707
v 0.6851947 -59.33973 -3.440776
v 0.9345087 -59.19881 -3.809002
v 0.6851947 -59.33973 -3.440776
v -0.5081663 -59.15499 -3.990966
v -0.5081663 -59.15499 -3.990966
v 0.6851947 -59.33973 -3.440776
v -0.4052474 -59.22977 -3.785128
v -0.4052474 -59.22977 -3.785128
v 0.6851947 -59.33973 -3.440776
v -0.386624 -59.23651 -3.766157
v -0.5081663 -59.15499 -3.990966
v -0.4052474 -59.22977 -3.785128
v -0.5507984 -59.17234 -3.931104
v -0.5081663 -59.15499 -3.990966
v -0.5507984 -59.17234 -3.931104
v -0.6221642 -59.1355 -3.998477
v 0.9345087 -59.19881 -3.809002
v 1.046987 -59.10632 -3.967907
v 1.286557 -59.16403 -3.745125
v 0.9345087 -59.19881 -3.809002
v 0.6484215 -58.94911 -4.353284
v 1.046987 -59.10632 -3.967907
v -0.5081663 -59.15499 -3.990966
v 0.1520702 -58.73389 -4.837889
v 0.9345087 -59.19881 -3.809002
v 0.9345087 -59.19881 -3.809002
v 0.1520702 -58.73389 -4.837889
v 0.6484215 -58.94911 -4.353284
v -0.5081663 -59.15499 -3.990966
v -1.14564 -58.46711 -5.195725
v 0.1520702 -58.73389 -4.837889
v 0.1520702 -58.73389 -4.837889
v -1.14564 -58.46711 -5.195725
v -0.07322937 -58.59705 -5.067287
v -0.5081663 -59.15499 -3.990966
v -0.6221642 -59.1355 -3.998477
v -1.14564 -58.46711 -5.195725
v -1.14564 -58.46711 -5.195725
v -0.6221642 -59.1355 -3.998477
v -1.483951 -58.62671 -4.781185
v -1.14564 -58.46711 -5.195725
v -1.483951 -58.62671 -4.781185
v -1.148581 -58.46636 -5.195848
v -1.148581 -58.46636 -5.195848
v -1.483951 -58.62671 -4.781185
v -1.518291 -58.60212 -4.810288
v -0.6356927 -58.18633 -5.656634
v -0.07322937 -58.59705 -5.067287
v -1.14564 -58.46711 -5.195725
v -1.14564 -58.46711 -5.195725
v -1.146558 -58.46544 -5.197841
v -0.6356927 -58.18633 -5.656634
v -0.6356927 -58.18633 -5.656634
v -1.146558 -58.46544 -5.197841
v -0.6408412 -58.18156 -5.662274
v -1.14564 -58.46711 -5.195725
v -1.148581 -58.46636 -5.195848
v -1.146558 -58.46544 -5.197841
v -0.4602566 -56.25599 -3.690407
v 0.3117562 -56.48234 -3.549808
v -0.6989571 -57.00273 -4.83197
v -0.6989571 -57.00273 -4.83197
v 0.3117562 -56.48234 -3.549808
v -0.4387517 -57.68903 -5.604751
v -0.4387517 -57.68903 -5.604751
v 0.3117562 -56.48234 -3.549808
v 1.207236 -57.38222 -4.243612
v 1.207236 -57.38222 -4.243612
v 0.3117562 -56.48234 -3.549808
v 0.8468768 -56.87685 -3.771819
v -0.386624 -59.23651 -3.766157
v 0.6851947 -59.33973 -3.440776
v -1.022978 -56.73675 -3.317182
v -1.022978 -56.73675 -3.317182
v 0.6851947 -59.33973 -3.440776
v 0.05623272 -57.12827 -3.065294
v 0.05623272 -57.12827 -3.065294
v 0.6851947 -59.33973 -3.440776
v 1.138839 -58.56895 -3.088574
v 1.138839 -58.56895 -3.088574
v 0.6851947 -59.33973 -3.440776
v 1.437385 -59.33389 -3.191815
v 1.437385 -59.33389 -3.191815
v 0.6851947 -59.33973 -3.440776
v 1.187897 -59.34462 -3.276707
v -0.5507984 -59.17234 -3.931104
v -0.4052474 -59.22977 -3.785128
v -0.6221642 -59.1355 -3.998477
v -0.6221642 -59.1355 -3.998477
v -0.4052474 -59.22977 -3.785128
v -1.483951 -58.62671 -4.781185
v -1.483951 -58.62671 -4.781185
v -0.4052474 -59.22977 -3.785128
v -1.518291 -58.60212 -4.810288
v -1.518291 -58.60212 -4.810288
v -0.4052474 -59.22977 -3.785128
v -1.450296 -57.53721 -4.214262
v -1.450296 -57.53721 -4.214262
v -0.4052474 -59.22977 -3.785128
v -1.040612 -56.71901 -3.329654
v -1.040612 -56.71901 -3.329654
v -0.4052474 -59.22977 -3.785128
v -1.022978 -56.73675 -3.317182
v -1.022978 -56.73675 -3.317182
v -0.4052474 -59.22977 -3.785128
v -0.386624 -59.23651 -3.766157
v 0.3855987 -56.68334 -3.404249
v 0.7879431 -57.06289 -3.471467
v 0.3117562 -56.48234 -3.549808
v 0.3117562 -56.48234 -3.549808
v 0.7879431 -57.06289 -3.471467
v 0.8468768 -56.87685 -3.771819
v 0.3855987 -56.68334 -3.404249
v 0.05623272 -57.12827 -3.065294
v 0.7879431 -57.06289 -3.471467
v 0.7879431 -57.06289 -3.471467
v 0.05623272 -57.12827 -3.065294
v 1.138839 -58.56895 -3.088574
v 1.138839 -58.56895 -3.088574
v 1.437385 -59.33389 -3.191815
v 0.7879431 -57.06289 -3.471467
v 0.7879431 -57.06289 -3.471467
v 1.437385 -59.33389 -3.191815
v 0.8468768 -56.87685 -3.771819
v 0.8468768 -56.87685 -3.771819
v 1.437385 -59.33389 -3.191815
v 1.207236 -57.38222 -4.243612
v 1.207236 -57.38222 -4.243612
v 1.437385 -59.33389 -3.191815
v 1.527956 -59.20194 -3.525519
v -0.07322937 -58.59705 -5.067287
v -0.6356927 -58.18633 -5.656634
v 0.1520702 -58.73389 -4.837889
v 0.1520702 -58.73389 -4.837889
v -0.6356927 -58.18633 -5.656634
v 0.6484215 -58.94911 -4.353284
v 0.6484215 -58.94911 -4.353284
v -0.6356927 -58.18633 -5.656634
v 1.046987 -59.10632 -3.967907
v 1.046987 -59.10632 -3.967907
v -0.6356927 -58.18633 -5.656634
v 1.286557 -59.16403 -3.745125
v 1.286557 -59.16403 -3.745125
v -0.6356927 -58.18633 -5.656634
v 1.527956 -59.20194 -3.525519
v 1.527956 -59.20194 -3.525519
v -0.6356927 -58.18633 -5.656634
v 1.207236 -57.38222 -4.243612
v 1.207236 -57.38222 -4.243612
v -0.6356927 -58.18633 -5.656634
v -0.4387517 -57.68903 -5.604751
v -0.4387517 -57.68903 -5.604751
v -0.6356927 -58.18633 -5.656634
v -0.6408412 -58.18156 -5.662274
v -1.146558 -58.46544 -5.197841
v -1.148581 -58.46636 -5.195848
v -0.6408412 -58.18156 -5.662274
v -0.6408412 -58.18156 -5.662274
v -1.148581 -58.46636 -5.195848
v -0.4387517 -57.68903 -5.604751
v -0.4387517 -57.68903 -5.604751
v -1.148581 -58.46636 -5.195848
v -0.6989571 -57.00273 -4.83197
v -0.6989571 -57.00273 -4.83197
v -1.148581 -58.46636 -5.195848
v -1.450296 -57.53721 -4.214262
v -1.450296 -57.53721 -4.214262
v -1.148581 -58.46636 -5.195848
v -1.518291 -58.60212 -4.810288
v 0.3117562 -56.48234 -3.549808
v -0.4602566 -56.25599 -3.690407
v 0.3855987 -56.68334 -3.404249
v 0.3855987 -56.68334 -3.404249
v -0.4602566 -56.25599 -3.690407
v 0.05623272 -57.12827 -3.065294
v 0.05623272 -57.12827 -3.065294
v -0.4602566 -56.25599 -3.690407
v -1.022978 -56.73675 -3.317182
v -1.022978 -56.73675 -3.317182
v -0.4602566 -56.25599 -3.690407
v -1.040612 -56.71901 -3.329654
v -1.040612 -56.71901 -3.329654
v -0.4602566 -56.25599 -3.690407
v -1.450296 -57.53721 -4.214262
v -1.450296 -57.53721 -4.214262
v -0.4602566 -56.25599 -3.690407
v -0.6989571 -57.00273 -4.83197

vn 0.1515796 -0.9325763 -0.3276049
vn 0.1515796 -0.9325763 -0.3276049
vn 0.1515796 -0.9325763 -0.3276049
vn 0.1515796 -0.9325763 -0.3276049
vn 0.1515796 -0.9325763 -0.3276049
vn 0.1515796 -0.9325763 -0.3276049
vn 0.1515796 -0.9325763 -0.3276049
vn 0.1515796 -0.9325763 -0.3276049
vn 0.1515796 -0.9325763 -0.3276049
vn 0.0895078 -0.9489261 -0.3025352
vn 0.0895078 -0.9489261 -0.3025352
vn 0.0895078 -0.9489261 -0.3025352
vn 0.01545186 -0.9372847 -0.3482223
vn 0.01545186 -0.9372847 -0.3482223
vn 0.01545186 -0.9372847 -0.3482223
vn 0.01545186 -0.9372847 -0.3482223
vn 0.01545186 -0.9372847 -0.3482223
vn 0.01545186 -0.9372847 -0.3482223
vn 0.01545186 -0.9372847 -0.3482223
vn 0.01545186 -0.9372847 -0.3482223
vn 0.01545186 -0.9372847 -0.3482223
vn -0.0574371 -0.9472232 -0.3153873
vn -0.0574371 -0.9472232 -0.3153873
vn -0.0574371 -0.9472232 -0.3153873
vn -0.1338657 -0.9222844 -0.3625903
vn -0.1338657 -0.9222844 -0.3625903
vn -0.1338657 -0.9222844 -0.3625903
vn 0.162754 -0.898462 -0.4077711
vn 0.162754 -0.898462 -0.4077711
vn 0.162754 -0.898462 -0.4077711
vn 0.08864576 -0.8868527 -0.4534693
vn 0.08864576 -0.8868527 -0.4534693
vn 0.08864576 -0.8868527 -0.4534693
vn 0.02659483 -0.9032158 -0.4283618
vn 0.02659483 -0.9032158 -0.4283618
vn 0.02659483 -0.9032158 -0.4283618
vn 0.02659483 -0.9032158 -0.4283618
vn 0.02659483 -0.9032158 -0.4283618
vn 0.02659483 -0.9032158 -0.4283618
vn -0.04950625 -0.8784028 -0.47535
vn -0.04950625 -0.8784028 -0.47535
vn -0.04950625 -0.8784028 -0.47535
vn -0.04950625 -0.8784028 -0.47535
vn -0.04950625 -0.8784028 -0.47535
vn -0.04950625 -0.8784028 -0.47535
vn -0.1228236 -0.888427 -0.4422804
vn -0.1228236 -0.888427 -0.4422804
vn -0.1228236 -0.888427 -0.4422804
vn -0.1228236 -0.888427 -0.4422804
vn -0.1228236 -0.888427 -0.4422804
vn -0.1228236 -0.888427 -0.4422804
vn -0.1960122 -0.8508186 -0.4875315
vn -0.1960122 -0.8508186 -0.4875315
vn -0.1960122 -0.8508186 -0.4875315
vn -0.1960122 -0.8508186 -0.4875315
vn -0.1960122 -0.8508186 -0.4875315
vn -0.1960122 -0.8508186 -0.4875315
vn -0.03556867 -0.8355086 -0.548325
vn -0.03556867 -0.8355086 -0.548325
vn -0.03556867 -0.8355086 -0.548325
vn -0.09424832 -0.8004767 -0.5919074
vn -0.09424832 -0.8004767 -0.5919074
vn -0.09424832 -0.8004767 -0.5919074
vn -0.09424832 -0.8004767 -0.5919074
vn -0.09424832 -0.8004767 -0.5919074
vn -0.09424832 -0.8004767 -0.5919074
vn -0.1821889 -0.8082767 -0.5599073
vn -0.1821889 -0.8082767 -0.5599073
vn -0.1821889 -0.8082767 -0.5599073
vn 0.3252436 0.7587683 -0.5643468
vn 0.3252436 0.7587683 -0.5643468
vn 0.3252436 0.7587683 -0.5643468
vn 0.3252436 0.7587683 -0.5643468
vn 0.3252436 0.7587683 -0.5643468
vn 0.3252436 0.7587683 -0.5643468
vn 0.3252436 0.7587683 -0.5643468
vn 0.3252436 0.7587683 -0.5643468
vn 0.3252436 0.7587683 -0.5643468
vn 0.3252436 0.7587683 -0.5643468
vn 0.3252436 0.7587683 -0.5643468
vn 0.3252436 0.7587683 -0.5643468
vn -0.3031275 -0.2426796 0.9215315
vn -0.3031275 -0.2426796 0.9215315
vn -0.3031275 -0.2426796 0.9215315
vn -0.3031275 -0.2426796 0.9215315
vn -0.3031275 -0.2426796 0.9215315
vn -0.3031275 -0.2426796 0.9215315
vn -0.3031275 -0.2426796 0.9215315
vn -0.3031275 -0.2426796 0.9215315
vn -0.3031275 -0.2426796 0.9215315
vn -0.3031275 -0.2426796 0.9215315
vn -0.3031275 -0.2426796 0.9215315
vn -0.3031275 -0.2426796 0.9215315
vn -0.3031275 -0.2426796 0.9215315
vn -0.3031275 -0.2426796 0.9215315
vn -0.3031275 -0.2426796 0.9215315
vn -0.7320853 -0.2965159 0.6132939
vn -0.7320853 -0.2965159 0.6132939
vn -0.7320853 -0.2965159 0.6132939
vn -0.7320853 -0.2965159 0.6132939
vn -0.7320853 -0.2965159 0.6132939
vn -0.7320853 -0.2965159 0.6132939
vn -0.7320853 -0.2965159 0.6132939
vn -0.7320853 -0.2965159 0.6132939
vn -0.7320853 -0.2965159 0.6132939
vn -0.7320853 -0.2965159 0.6132939
vn -0.7320853 -0.2965159 0.6132939
vn -0.7320853 -0.2965159 0.6132939
vn -0.7320853 -0.2965159 0.6132939
vn -0.7320853 -0.2965159 0.6132939
vn -0.7320853 -0.2965159 0.6132939
vn -0.7320853 -0.2965159 0.6132939
vn -0.7320853 -0.2965159 0.6132939
vn -0.7320853 -0.2965159 0.6132939
vn -0.7320853 -0.2965159 0.6132939
vn -0.7320853 -0.2965159 0.6132939
vn -0.7320853 -0.2965159 0.6132939
vn 0.6396121 0.5909642 0.4915871
vn 0.6396121 0.5909642 0.4915871
vn 0.6396121 0.5909642 0.4915871
vn 0.6396121 0.5909642 0.4915871
vn 0.6396121 0.5909642 0.4915871
vn 0.6396121 0.5909642 0.4915871
vn 0.4387082 0.3160782 0.8412073
vn 0.4387082 0.3160782 0.8412073
vn 0.4387082 0.3160782 0.8412073
vn 0.4387082 0.3160782 0.8412073
vn 0.4387082 0.3160782 0.8412073
vn 0.4387082 0.3160782 0.8412073
vn 0.8852407 0.2972063 0.3577954
vn 0.8852407 0.2972063 0.3577954
vn 0.8852407 0.2972063 0.3577954
vn 0.8852407 0.2972063 0.3577954
vn 0.8852407 0.2972063 0.3577954
vn 0.8852407 0.2972063 0.3577954
vn 0.8852407 0.2972063 0.3577954
vn 0.8852407 0.2972063 0.3577954
vn 0.8852407 0.2972063 0.3577954
vn 0.8852407 0.2972063 0.3577954
vn 0.8852407 0.2972063 0.3577954
vn 0.8852407 0.2972063 0.3577954
vn 0.6465887 -0.178691 -0.7416149
vn 0.6465887 -0.178691 -0.7416149
vn 0.6465887 -0.178691 -0.7416149
vn 0.6465887 -0.178691 -0.7416149
vn 0.6465887 -0.178691 -0.7416149
vn 0.6465887 -0.178691 -0.7416149
vn 0.6465887 -0.178691 -0.7416149
vn 0.6465887 -0.178691 -0.7416149
vn 0.6465887 -0.178691 -0.7416149
vn 0.6465887 -0.178691 -0.7416149
vn 0.6465887 -0.178691 -0.7416149
vn 0.6465887 -0.178691 -0.7416149
vn 0.6465887 -0.178691 -0.7416149
vn 0.6465887 -0.178691 -0.7416149
vn 0.6465887 -0.178691 -0.7416149
vn 0.6465887 -0.178691 -0.7416149
vn 0.6465887 -0.178691 -0.7416149
vn 0.6465887 -0.178691 -0.7416149
vn 0.6465887 -0.178691 -0.7416149
vn 0.6465887 -0.178691 -0.7416149
vn 0.6465887 -0.178691 -0.7416149
vn 0.6465887 -0.178691 -0.7416149
vn 0.6465887 -0.178691 -0.7416149
vn 0.6465887 -0.178691 -0.7416149
vn -0.7325169 0.3674954 -0.5730324
vn -0.7325169 0.3674954 -0.5730324
vn -0.7325169 0.3674954 -0.5730324
vn -0.7325169 0.3674954 -0.5730324
vn -0.7325169 0.3674954 -0.5730324
vn -0.7325169 0.3674954 -0.5730324
vn -0.7325169 0.3674954 -0.5730324
vn -0.7325169 0.3674954 -0.5730324
vn -0.7325169 0.3674954 -0.5730324
vn -0.7325169 0.3674954 -0.5730324
vn -0.7325169 0.3674954 -0.5730324
vn -0.7325169 0.3674954 -0.5730324
vn -0.7325169 0.3674954 -0.5730324
vn -0.7325169 0.3674954 -0.5730324
vn -0.7325169 0.3674954 -0.5730324
vn 0.02726332 0.5928835 0.8048267
vn 0.02726332 0.5928835 0.8048267
vn 0.02726332 0.5928835 0.8048267
vn 0.02726332 0.5928835 0.8048267
vn 0.02726332 0.5928835 0.8048267
vn 0.02726332 0.5928835 0.8048267
vn 0.02726332 0.5928835 0.8048267
vn 0.02726332 0.5928835 0.8048267
vn 0.02726332 0.5928835 0.8048267
vn 0.02726332 0.5928835 0.8048267
vn 0.02726332 0.5928835 0.8048267
vn 0.02726332 0.5928835 0.8048267
vn -0.6994812 0.6562309 -0.2829965
vn -0.6994812 0.6562309 -0.2829965
vn -0.6994812 0.6562309 -0.2829965
vn -0.6994812 0.6562309 -0.2829965
vn -0.6994812 0.6562309 -0.2829965
vn -0.6994812 0.6562309 -0.2829965

vt 0.8856202 0.1800625
vt 0.8841156 0.1858762
vt 0.8812677 0.1771435
vt 0.8812677 0.1771435
vt 0.8841156 0.1858762
vt 0.8749991 0.1771435
vt 0.8749991 0.1771435
vt 0.8841156 0.1858762
vt 0.879661 0.1852183
vt 0.8749991 0.1771435
vt 0.879661 0.1852183
vt 0.8713553 0.1834548
vt 0.8749991 0.1771435
vt 0.8713553 0.1834548
vt 0.8522719 0.1771435
vt 0.8522719 0.1771435
vt 0.8713553 0.1834548
vt 0.8540301 0.1801889
vt 0.8540301 0.1801889
vt 0.8713553 0.1834548
vt 0.8543353 0.1804514
vt 0.8522719 0.1771435
vt 0.8540301 0.1801889
vt 0.8517175 0.1781037
vt 0.8522719 0.1771435
vt 0.8517175 0.1781037
vt 0.8505872 0.1771435
vt 0.8749991 0.1771435
vt 0.8768784 0.1738885
vt 0.8812677 0.1771435
vt 0.8749991 0.1771435
vt 0.8699045 0.1683192
vt 0.8768784 0.1738885
vt 0.8522719 0.1771435
vt 0.8615971 0.1609917
vt 0.8749991 0.1771435
vt 0.8749991 0.1771435
vt 0.8615971 0.1609917
vt 0.8699045 0.1683192
vt 0.8522719 0.1771435
vt 0.8409082 0.157461
vt 0.8615971 0.1609917
vt 0.8615971 0.1609917
vt 0.8409082 0.157461
vt 0.85781 0.157461
vt 0.8522719 0.1771435
vt 0.8505872 0.1771435
vt 0.8409082 0.157461
vt 0.8409082 0.157461
vt 0.8505872 0.1771435
vt 0.8366391 0.1648555
vt 0.8409082 0.157461
vt 0.8366391 0.1648555
vt 0.8408632 0.157461
vt 0.8408632 0.157461
vt 0.8366391 0.1648555
vt 0.8360537 0.164378
vt 0.8464348 0.1478887
vt 0.85781 0.157461
vt 0.8409082 0.157461
vt 0.8409082 0.157461
vt 0.8408865 0.1574233
vt 0.8464348 0.1478887
vt 0.8464348 0.1478887
vt 0.8408865 0.1574233
vt 0.8463376 0.1477932
vt 0.8409082 0.157461
vt 0.8408632 0.157461
vt 0.8408865 0.1574233
vt 0.3725559 0.3065521
vt 0.4676754 0.2862681
vt 0.3814673 0.4712194
vt 0.3814673 0.4712194
vt 0.4676754 0.2862681
vt 0.4421459 0.5826946
vt 0.4421459 0.5826946
vt 0.4676754 0.2862681
vt 0.6079101 0.386352
vt 0.6079101 0.386352
vt 0.4676754 0.2862681
vt 0.5447565 0.3182949
vt 0.3824471 0.4745899
vt 0.3807032 0.3585629
vt 0.6436216 0.5434767
vt 0.6436216 0.5434767
vt 0.3807032 0.3585629
vt 0.6111916 0.4266481
vt 0.6111916 0.4266481
vt 0.3807032 0.3585629
vt 0.4668504 0.3094491
vt 0.4668504 0.3094491
vt 0.3807032 0.3585629
vt 0.387824 0.2771269
vt 0.387824 0.2771269
vt 0.3807032 0.3585629
vt 0.3845238 0.3041379
vt 0.3716746 0.4919487
vt 0.3582488 0.4689458
vt 0.3792594 0.5025712
vt 0.3792594 0.5025712
vt 0.3582488 0.4689458
vt 0.4782276 0.6259065
vt 0.4782276 0.6259065
vt 0.3582488 0.4689458
vt 0.4826669 0.6304911
vt 0.4826669 0.6304911
vt 0.3582488 0.4689458
vt 0.6023411 0.5365763
vt 0.6023411 0.5365763
vt 0.3582488 0.4689458
vt 0.6775798 0.3971714
vt 0.6775798 0.3971714
vt 0.3582488 0.4689458
vt 0.6747109 0.3952072
vt 0.6747109 0.3952072
vt 0.3582488 0.4689458
vt 0.3565987 0.4659597
vt 0.4218994 0.4452538
vt 0.4841951 0.4539684
vt 0.3995762 0.4641221
vt 0.3995762 0.4641221
vt 0.4841951 0.4539684
vt 0.473282 0.4929051
vt 0.3535892 0.5546899
vt 0.3842238 0.4407161
vt 0.4523418 0.5772943
vt 0.4523418 0.5772943
vt 0.3842238 0.4407161
vt 0.7118099 0.4485447
vt 0.5914842 0.3827518
vt 0.6778329 0.3943869
vt 0.4294092 0.4259215
vt 0.4294092 0.4259215
vt 0.6778329 0.3943869
vt 0.4128239 0.4597766
vt 0.4128239 0.4597766
vt 0.6778329 0.3943869
vt 0.4753353 0.5129687
vt 0.4753353 0.5129687
vt 0.6778329 0.3943869
vt 0.667698 0.4320109
vt 0.5756489 0.5157908
vt 0.5395999 0.644545
vt 0.586187 0.4656738
vt 0.586187 0.4656738
vt 0.5395999 0.644545
vt 0.5972126 0.3598052
vt 0.5972126 0.3598052
vt 0.5395999 0.644545
vt 0.6038599 0.2756128
vt 0.6038599 0.2756128
vt 0.5395999 0.644545
vt 0.6026598 0.2269397
vt 0.6026598 0.2269397
vt 0.5395999 0.644545
vt 0.5985909 0.178965
vt 0.5985909 0.178965
vt 0.5395999 0.644545
vt 0.3540626 0.335846
vt 0.3540626 0.335846
vt 0.5395999 0.644545
vt 0.4616657 0.63321
vt 0.4616657 0.63321
vt 0.5395999 0.644545
vt 0.5391217 0.6457732
vt 0.3824096 0.5044557
vt 0.3821986 0.5041651
vt 0.4400504 0.5724378
vt 0.4400504 0.5724378
vt 0.3821986 0.5041651
vt 0.5037291 0.5640185
vt 0.5037291 0.5640185
vt 0.3821986 0.5041651
vt 0.56332 0.4508979
vt 0.56332 0.4508979
vt 0.3821986 0.5041651
vt 0.4655894 0.3604849
vt 0.4655894 0.3604849
vt 0.3821986 0.5041651
vt 0.3477529 0.4477243
vt 0.5508506 0.5915732
vt 0.4213931 0.6308193
vt 0.5646045 0.5509584
vt 0.5646045 0.5509584
vt 0.4213931 0.6308193
vt 0.513489 0.4563592
vt 0.513489 0.4563592
vt 0.4213931 0.6308193
vt 0.3319364 0.526657
vt 0.3319364 0.526657
vt 0.4213931 0.6308193
vt 0.3288846 0.5301353
vt 0.5196207 0.3241265
vt 0.5949343 0.3626834
vt 0.4297279 0.4186648
vt 0.4297279 0.4186648
vt 0.5949343 0.3626834
vt 0.5223677 0.4846827

usemtl Material0
usemap Material0
f 1/1/1 2/2/2 3/3/3
f 4/4/4 5/5/5 6/6/6
f 7/7/7 8/8/8 9/9/9
f 10/10/10 11/11/11 12/12/12
f 13/13/13 14/14/14 15/15/15
f 16/16/16 17/17/17 18/18/18
f 19/19/19 20/20/20 21/21/21
f 22/22/22 23/23/23 24/24/24
f 25/25/25 26/26/26 27/27/27
f 28/28/28 29/29/29 30/30/30
f 31/31/31 32/32/32 33/33/33
f 34/34/34 35/35/35 36/36/36
f 37/37/37 38/38/38 39/39/39
f 40/40/40 41/41/41 42/42/42
f 43/43/43 44/44/44 45/45/45
f 46/46/46 47/47/47 48/48/48
f 49/49/49 50/50/50 51/51/51
f 52/52/52 53/53/53 54/54/54
f 55/55/55 56/56/56 57/57/57
f 58/58/58 59/59/59 60/60/60
f 61/61/61 62/62/62 63/63/63
f 64/64/64 65/65/65 66/66/66
f 67/67/67 68/68/68 69/69/69

usemtl Material1
usemap Material1
f 70/70/70 71/71/71 72/72/72
f 73/73/73 74/74/74 75/75/75
f 76/76/76 77/77/77 78/78/78
f 79/79/79 80/80/80 81/81/81
f 82/82/82 83/83/83 84/84/84
f 85/85/85 86/86/86 87/87/87
f 88/88/88 89/89/89 90/90/90
f 91/91/91 92/92/92 93/93/93
f 94/94/94 95/95/95 96/96/96
f 97/97/97 98/98/98 99/99/99
f 100/100/100 101/101/101 102/102/102
f 103/103/103 104/104/104 105/105/105
f 106/106/106 107/107/107 108/108/108
f 109/109/109 110/110/110 111/111/111
f 112/112/112 113/113/113 114/114/114
f 115/115/115 116/116/116 117/117/117
f 118/118/118 119/119/119 120/120/120
f 121/121/121 122/122/122 123/123/123
f 124/124/124 125/125/125 126/126/126
f 127/127/127 128/128/128 129/129/129
f 130/130/130 131/131/131 132/132/132
f 133/133/133 134/134/134 135/135/135
f 136/136/136 137/137/137 138/138/138
f 139/139/139 140/140/140 141/141/141
f 142/142/142 143/143/143 144/144/144
f 145/145/145 146/146/146 147/147/147
f 148/148/148 149/149/149 150/150/150
f 151/151/151 152/152/152 153/153/153
f 154/154/154 155/155/155 156/156/156
f 157/157/157 158/158/158 159/159/159
f 160/160/160 161/161/161 162/162/162
f 163/163/163 164/164/164 165/165/165
f 166/166/166 167/167/167 168/168/168
f 169/169/169 170/170/170 171/171/171
f 172/172/172 173/173/173 174/174/174
f 175/175/175 176/176/176 177/177/177
f 178/178/178 179/179/179 180/180/180
f 181/181/181 182/182/182 183/183/183
f 184/184/184 185/185/185 186/186/186
f 187/187/187 188/188/188 189/189/189
f 190/190/190 191/191/191 192/192/192
f 193/193/193 194/194/194 195/195/195
f 196/196/196 197/197/197 198/198/198
