g  Instance
v -7.105148 -44.96095 3.604746
v -6.876797 -45.08766 2.939615
v -7.290266 -45.98705 4.303456
v -7.290266 -45.98705 4.303456
v -6.876797 -45.08766 2.939615
v -7.210475 -46.20334 4.095353
v -7.210475 -46.20334 4.095353
v -6.876797 -45.08766 2.939615
v -7.108138 -46.33797 3.808268
v -4.975896 -45.91257 2.544663
v -5.137641 -45.99321 2.467374
v -4.663663 -44.64002 2.714966
v -4.663663 -44.64002 2.714966
v -5.137641 -45.99321 2.467374
v -5.015341 -44.33962 2.555908
v -5.015341 -44.33962 2.555908
v -5.137641 -45.99321 2.467374
v -5.80248 -44.84703 2.177606
v -7.210475 -46.20334 4.095353
v -7.108138 -46.33797 3.808268
v -7.06593 -46.15067 4.500036
v -7.06593 -46.15067 4.500036
v -7.108138 -46.33797 3.808268
v -5.516165 -46.62509 5.371753
v -5.516165 -46.62509 5.371753
v -7.108138 -46.33797 3.808268
v -5.029354 -46.87444 5.310886
v -5.029354 -46.87444 5.310886
v -7.108138 -46.33797 3.808268
v -4.86233 -46.99342 5.178435
v -4.86233 -46.99342 5.178435
v -7.108138 -46.33797 3.808268
v -5.47405 -46.99612 4.200578
v -5.47405 -46.99612 4.200578
v -7.108138 -46.33797 3.808268
v -6.924779 -46.43896 3.761732
v -7.06593 -46.15067 4.500036
v -5.516165 -46.62509 5.371753
v -7.290266 -45.98705 4.303456
v -7.290266 -45.98705 4.303456
v -5.516165 -46.62509 5.371753
v -7.105148 -44.96095 3.604746
v -7.105148 -44.96095 3.604746
v -5.516165 -46.62509 5.371753
v -5.561228 -44.23514 3.584576
v -5.561228 -44.23514 3.584576
v -5.516165 -46.62509 5.371753
v -4.323531 -45.52193 4.953929
v -4.323531 -45.52193 4.953929
v -5.516165 -46.62509 5.371753
v -4.305573 -45.62733 5.038108
v -4.305573 -45.62733 5.038108
v -5.516165 -46.62509 5.371753
v -4.688896 -46.1801 5.319361
v -4.688896 -46.1801 5.319361
v -5.516165 -46.62509 5.371753
v -5.239685 -46.66624 5.495024
v -6.876797 -45.08766 2.939615
v -7.105148 -44.96095 3.604746
v -5.80248 -44.84703 2.177606
v -5.80248 -44.84703 2.177606
v -7.105148 -44.96095 3.604746
v -5.015341 -44.33962 2.555908
v -5.015341 -44.33962 2.555908
v -7.105148 -44.96095 3.604746
v -5.561228 -44.23514 3.584576
v -4.975896 -45.91257 2.544663
v -4.663663 -44.64002 2.714966
v -4.13573 -46.37312 4.940475
v -4.13573 -46.37312 4.940475
v -4.663663 -44.64002 2.714966
v -4.090006 -46.19162 4.967834
v -4.090006 -46.19162 4.967834
v -4.663663 -44.64002 2.714966
v -4.063759 -45.98293 4.931419
v -4.063759 -45.98293 4.931419
v -4.663663 -44.64002 2.714966
v -4.123916 -45.55608 4.563426
v -5.226922 -46.1094 2.587248
v -5.47405 -46.99612 4.200578
v -6.924779 -46.43896 3.761732
v -4.975896 -45.91257 2.544663
v -4.13573 -46.37312 4.940475
v -5.137641 -45.99321 2.467374
v -5.137641 -45.99321 2.467374
v -4.13573 -46.37312 4.940475
v -5.226922 -46.1094 2.587248
v -5.226922 -46.1094 2.587248
v -4.13573 -46.37312 4.940475
v -5.47405 -46.99612 4.200578
v -5.47405 -46.99612 4.200578
v -4.13573 -46.37312 4.940475
v -4.86233 -46.99342 5.178435
v -4.305573 -45.62733 5.038108
v -4.063759 -45.98293 4.931419
v -4.323531 -45.52193 4.953929
v -4.323531 -45.52193 4.953929
v -4.063759 -45.98293 4.931419
v -4.123916 -45.55608 4.563426
v -4.305573 -45.62733 5.038108
v -4.688896 -46.1801 5.319361
v -4.063759 -45.98293 4.931419
v -4.063759 -45.98293 4.931419
v -4.688896 -46.1801 5.319361
v -4.090006 -46.19162 4.967834
v -4.688896 -46.1801 5.319361
v -5.239685 -46.66624 5.495024
v -4.090006 -46.19162 4.967834
v -4.090006 -46.19162 4.967834
v -5.239685 -46.66624 5.495024
v -4.13573 -46.37312 4.940475
v -4.13573 -46.37312 4.940475
v -5.239685 -46.66624 5.495024
v -4.86233 -46.99342 5.178435
v -4.86233 -46.99342 5.178435
v -5.239685 -46.66624 5.495024
v -5.029354 -46.87444 5.310886
v -4.123916 -45.55608 4.563426
v -4.663663 -44.64002 2.714966
v -4.323531 -45.52193 4.953929
v -4.323531 -45.52193 4.953929
v -4.663663 -44.64002 2.714966
v -5.561228 -44.23514 3.584576
v -5.561228 -44.23514 3.584576
v -4.663663 -44.64002 2.714966
v -5.015341 -44.33962 2.555908
v -7.210475 -46.20334 4.095353
v -7.06593 -46.15067 4.500036
v -7.290266 -45.98705 4.303456
v -5.029354 -46.87444 5.310886
v -5.239685 -46.66624 5.495024
v -5.516165 -46.62509 5.371753
v -6.876797 -45.08766 2.939615
v -5.80248 -44.84703 2.177606
v -7.108138 -46.33797 3.808268
v -7.108138 -46.33797 3.808268
v -5.80248 -44.84703 2.177606
v -6.924779 -46.43896 3.761732
v -6.924779 -46.43896 3.761732
v -5.80248 -44.84703 2.177606
v -5.226922 -46.1094 2.587248
v -5.226922 -46.1094 2.587248
v -5.80248 -44.84703 2.177606
v -5.137641 -45.99321 2.467374

vn -0.9474525 -0.04475803 -0.31675
vn -0.9474525 -0.04475803 -0.31675
vn -0.9474525 -0.04475803 -0.31675
vn -0.9474525 -0.04475803 -0.31675
vn -0.9474525 -0.04475803 -0.31675
vn -0.9474525 -0.04475803 -0.31675
vn -0.9474525 -0.04475803 -0.31675
vn -0.9474525 -0.04475803 -0.31675
vn -0.9474525 -0.04475803 -0.31675
vn 0.4241295 0.01710873 -0.90544
vn 0.4241295 0.01710873 -0.90544
vn 0.4241295 0.01710873 -0.90544
vn 0.4241295 0.01710873 -0.90544
vn 0.4241295 0.01710873 -0.90544
vn 0.4241295 0.01710873 -0.90544
vn 0.4241295 0.01710873 -0.90544
vn 0.4241295 0.01710873 -0.90544
vn 0.4241295 0.01710873 -0.90544
vn -0.4139446 -0.8719767 0.2613554
vn -0.4139446 -0.8719767 0.2613554
vn -0.4139446 -0.8719767 0.2613554
vn -0.4139446 -0.8719767 0.2613554
vn -0.4139446 -0.8719767 0.2613554
vn -0.4139446 -0.8719767 0.2613554
vn -0.4139446 -0.8719767 0.2613554
vn -0.4139446 -0.8719767 0.2613554
vn -0.4139446 -0.8719767 0.2613554
vn -0.4139446 -0.8719767 0.2613554
vn -0.4139446 -0.8719767 0.2613554
vn -0.4139446 -0.8719767 0.2613554
vn -0.4139446 -0.8719767 0.2613554
vn -0.4139446 -0.8719767 0.2613554
vn -0.4139446 -0.8719767 0.2613554
vn -0.4139446 -0.8719767 0.2613554
vn -0.4139446 -0.8719767 0.2613554
vn -0.4139446 -0.8719767 0.2613554
vn -0.2602176 0.5750828 0.7756073
vn -0.2602176 0.5750828 0.7756073
vn -0.2602176 0.5750828 0.7756073
vn -0.2602176 0.5750828 0.7756073
vn -0.2602176 0.5750828 0.7756073
vn -0.2602176 0.5750828 0.7756073
vn -0.2602176 0.5750828 0.7756073
vn -0.2602176 0.5750828 0.7756073
vn -0.2602176 0.5750828 0.7756073
vn -0.2602176 0.5750828 0.7756073
vn -0.2602176 0.5750828 0.7756073
vn -0.2602176 0.5750828 0.7756073
vn -0.2602176 0.5750828 0.7756073
vn -0.2602176 0.5750828 0.7756073
vn -0.2602176 0.5750828 0.7756073
vn -0.2602176 0.5750828 0.7756073
vn -0.2602176 0.5750828 0.7756073
vn -0.2602176 0.5750828 0.7756073
vn -0.2602176 0.5750828 0.7756073
vn -0.2602176 0.5750828 0.7756073
vn -0.2602176 0.5750828 0.7756073
vn -0.4085341 0.8605583 -0.3042029
vn -0.4085341 0.8605583 -0.3042029
vn -0.4085341 0.8605583 -0.3042029
vn -0.4085341 0.8605583 -0.3042029
vn -0.4085341 0.8605583 -0.3042029
vn -0.4085341 0.8605583 -0.3042029
vn -0.4085341 0.8605583 -0.3042029
vn -0.4085341 0.8605583 -0.3042029
vn -0.4085341 0.8605583 -0.3042029
vn 0.9175221 -0.1775002 -0.355875
vn 0.9175221 -0.1775002 -0.355875
vn 0.9175221 -0.1775002 -0.355875
vn 0.9175221 -0.1775002 -0.355875
vn 0.9175221 -0.1775002 -0.355875
vn 0.9175221 -0.1775002 -0.355875
vn 0.9175221 -0.1775002 -0.355875
vn 0.9175221 -0.1775002 -0.355875
vn 0.9175221 -0.1775002 -0.355875
vn 0.9175221 -0.1775002 -0.355875
vn 0.9175221 -0.1775002 -0.355875
vn 0.9175221 -0.1775002 -0.355875
vn -0.177095 -0.850801 -0.4947474
vn -0.177095 -0.850801 -0.4947474
vn -0.177095 -0.850801 -0.4947474
vn 0.5444007 -0.7675158 -0.3384487
vn 0.5444007 -0.7675158 -0.3384487
vn 0.5444007 -0.7675158 -0.3384487
vn 0.5444007 -0.7675158 -0.3384487
vn 0.5444007 -0.7675158 -0.3384487
vn 0.5444007 -0.7675158 -0.3384487
vn 0.5444007 -0.7675158 -0.3384487
vn 0.5444007 -0.7675158 -0.3384487
vn 0.5444007 -0.7675158 -0.3384487
vn 0.5444007 -0.7675158 -0.3384487
vn 0.5444007 -0.7675158 -0.3384487
vn 0.5444007 -0.7675158 -0.3384487
vn 0.8144262 0.4404508 0.3777738
vn 0.8144262 0.4404508 0.3777738
vn 0.8144262 0.4404508 0.3777738
vn 0.8144262 0.4404508 0.3777738
vn 0.8144262 0.4404508 0.3777738
vn 0.8144262 0.4404508 0.3777738
vn 0.5055431 0.08622414 0.8584822
vn 0.5055431 0.08622414 0.8584822
vn 0.5055431 0.08622414 0.8584822
vn 0.5055431 0.08622414 0.8584822
vn 0.5055431 0.08622414 0.8584822
vn 0.5055431 0.08622414 0.8584822
vn 0.4867343 -0.2488839 0.8373449
vn 0.4867343 -0.2488839 0.8373449
vn 0.4867343 -0.2488839 0.8373449
vn 0.4867343 -0.2488839 0.8373449
vn 0.4867343 -0.2488839 0.8373449
vn 0.4867343 -0.2488839 0.8373449
vn 0.4867343 -0.2488839 0.8373449
vn 0.4867343 -0.2488839 0.8373449
vn 0.4867343 -0.2488839 0.8373449
vn 0.4867343 -0.2488839 0.8373449
vn 0.4867343 -0.2488839 0.8373449
vn 0.4867343 -0.2488839 0.8373449
vn 0.5725447 0.7887649 0.2237022
vn 0.5725447 0.7887649 0.2237022
vn 0.5725447 0.7887649 0.2237022
vn 0.5725447 0.7887649 0.2237022
vn 0.5725447 0.7887649 0.2237022
vn 0.5725447 0.7887649 0.2237022
vn 0.5725447 0.7887649 0.2237022
vn 0.5725447 0.7887649 0.2237022
vn 0.5725447 0.7887649 0.2237022
vn -0.7296853 -0.5944122 0.3379844
vn -0.7296853 -0.5944122 0.3379844
vn -0.7296853 -0.5944122 0.3379844
vn -0.3428316 -0.7924908 0.5044055
vn -0.3428316 -0.7924908 0.5044055
vn -0.3428316 -0.7924908 0.5044055
vn -0.4457387 -0.4536543 -0.7716962
vn -0.4457387 -0.4536543 -0.7716962
vn -0.4457387 -0.4536543 -0.7716962
vn -0.4457387 -0.4536543 -0.7716962
vn -0.4457387 -0.4536543 -0.7716962
vn -0.4457387 -0.4536543 -0.7716962
vn -0.4457387 -0.4536543 -0.7716962
vn -0.4457387 -0.4536543 -0.7716962
vn -0.4457387 -0.4536543 -0.7716962
vn -0.4457387 -0.4536543 -0.7716962
vn -0.4457387 -0.4536543 -0.7716962
vn -0.4457387 -0.4536543 -0.7716962

vt 0.5776834 0.4462758
vt 0.5634513 0.5189596
vt 0.4723492 0.3699261
vt 0.4723492 0.3699261
vt 0.5634513 0.5189596
vt 0.4495666 0.3926664
vt 0.4495666 0.3926664
vt 0.5634513 0.5189596
vt 0.4351283 0.424037
vt 0.5112202 0.4720538
vt 0.5201363 0.4914424
vt 0.3727528 0.4346267
vt 0.3727528 0.4346267
vt 0.5201363 0.4914424
vt 0.3404728 0.4767791
vt 0.3404728 0.4767791
vt 0.5201363 0.4914424
vt 0.3963229 0.5711439
vt 0.6160949 0.4749602
vt 0.6007941 0.5052526
vt 0.6050975 0.4322594
vt 0.6050975 0.4322594
vt 0.6007941 0.5052526
vt 0.4417849 0.3402759
vt 0.4417849 0.3402759
vt 0.6007941 0.5052526
vt 0.3861035 0.3467028
vt 0.3861035 0.3467028
vt 0.6007941 0.5052526
vt 0.3655383 0.3606771
vt 0.3655383 0.3606771
vt 0.6007941 0.5052526
vt 0.4216978 0.4638596
vt 0.4216978 0.4638596
vt 0.6007941 0.5052526
vt 0.5795116 0.5101654
vt 0.2579915 0.4325828
vt 0.4474337 0.2174938
vt 0.2366668 0.4810825
vt 0.2366668 0.4810825
vt 0.4474337 0.2174938
vt 0.3288143 0.6534893
vt 0.3288143 0.6534893
vt 0.4474337 0.2174938
vt 0.5944843 0.6584677
vt 0.5944843 0.6584677
vt 0.4474337 0.2174938
vt 0.6874991 0.3205873
vt 0.6874991 0.3205873
vt 0.4474337 0.2174938
vt 0.6832801 0.2998157
vt 0.6832801 0.2998157
vt 0.4474337 0.2174938
vt 0.5933968 0.2304227
vt 0.5933968 0.2304227
vt 0.4474337 0.2174938
vt 0.4840264 0.1870749
vt 0.4013529 0.5238162
vt 0.3856723 0.4517605
vt 0.5121671 0.6063585
vt 0.5121671 0.6063585
vt 0.3856723 0.4517605
vt 0.6080039 0.5653874
vt 0.6080039 0.5653874
vt 0.3856723 0.4517605
vt 0.5617262 0.453945
vt 0.4950098 0.5732065
vt 0.3573394 0.5540429
vt 0.5257897 0.3035238
vt 0.5257897 0.3035238
vt 0.3573394 0.5540429
vt 0.5061293 0.3004439
vt 0.5061293 0.3004439
vt 0.3573394 0.5540429
vt 0.4840545 0.304541
vt 0.4840545 0.304541
vt 0.3573394 0.5540429
vt 0.4411708 0.3459668
vt 0.4380066 0.5780162
vt 0.4449351 0.3680088
vt 0.6184482 0.4251339
vt 0.445657 0.5799007
vt 0.4019013 0.3138978
vt 0.4643143 0.5884793
vt 0.4643143 0.5884793
vt 0.4019013 0.3138978
vt 0.4789449 0.575166
vt 0.4789449 0.575166
vt 0.4019013 0.3138978
vt 0.553607 0.3960463
vt 0.553607 0.3960463
vt 0.4019013 0.3138978
vt 0.5013102 0.2874776
vt 0.5457784 0.4013576
vt 0.5912029 0.4135973
vt 0.5350246 0.4110097
vt 0.5350246 0.4110097
vt 0.5912029 0.4135973
vt 0.5483004 0.4557966
vt 0.5111452 0.5689313
vt 0.6032504 0.4638034
vt 0.5861307 0.6088148
vt 0.5861307 0.6088148
vt 0.6032504 0.4638034
vt 0.6247205 0.5952016
vt 0.4844717 0.4801168
vt 0.6074038 0.4223353
vt 0.4372846 0.5957641
vt 0.4372846 0.5957641
vt 0.6074038 0.4223353
vt 0.470085 0.6047646
vt 0.470085 0.6047646
vt 0.6074038 0.4223353
vt 0.6288926 0.5264788
vt 0.6288926 0.5264788
vt 0.6074038 0.4223353
vt 0.6235204 0.4829107
vt 0.6010284 0.4227338
vt 0.5026978 0.6140277
vt 0.582718 0.3823205
vt 0.582718 0.3823205
vt 0.5026978 0.6140277
vt 0.4054406 0.5240318
vt 0.4054406 0.5240318
vt 0.5026978 0.6140277
vt 0.4561904 0.6304911
vt 0.5573103 0.4995523
vt 0.5520319 0.4546435
vt 0.5800835 0.4764603
vt 0.377014 0.3725465
vt 0.4084033 0.3482686
vt 0.439155 0.3645211
vt 0.6991904 0.5093966
vt 0.6068038 0.6946011
vt 0.5892341 0.2982688
vt 0.5892341 0.2982688
vt 0.6068038 0.6946011
vt 0.5580791 0.3095804
vt 0.5580791 0.3095804
vt 0.6068038 0.6946011
vt 0.4065844 0.5950328
vt 0.4065844 0.5950328
vt 0.6068038 0.6946011
vt 0.4093268 0.624172

usemtl Material0
usemap Material0

usemtl Material1
usemap Material1
f 1/1/1 2/2/2 3/3/3
f 4/4/4 5/5/5 6/6/6
f 7/7/7 8/8/8 9/9/9
f 10/10/10 11/11/11 12/12/12
f 13/13/13 14/14/14 15/15/15
f 16/16/16 17/17/17 18/18/18
f 19/19/19 20/20/20 21/21/21
f 22/22/22 23/23/23 24/24/24
f 25/25/25 26/26/26 27/27/27
f 28/28/28 29/29/29 30/30/30
f 31/31/31 32/32/32 33/33/33
f 34/34/34 35/35/35 36/36/36
f 37/37/37 38/38/38 39/39/39
f 40/40/40 41/41/41 42/42/42
f 43/43/43 44/44/44 45/45/45
f 46/46/46 47/47/47 48/48/48
f 49/49/49 50/50/50 51/51/51
f 52/52/52 53/53/53 54/54/54
f 55/55/55 56/56/56 57/57/57
f 58/58/58 59/59/59 60/60/60
f 61/61/61 62/62/62 63/63/63
f 64/64/64 65/65/65 66/66/66
f 67/67/67 68/68/68 69/69/69
f 70/70/70 71/71/71 72/72/72
f 73/73/73 74/74/74 75/75/75
f 76/76/76 77/77/77 78/78/78
f 79/79/79 80/80/80 81/81/81
f 82/82/82 83/83/83 84/84/84
f 85/85/85 86/86/86 87/87/87
f 88/88/88 89/89/89 90/90/90
f 91/91/91 92/92/92 93/93/93
f 94/94/94 95/95/95 96/96/96
f 97/97/97 98/98/98 99/99/99
f 100/100/100 101/101/101 102/102/102
f 103/103/103 104/104/104 105/105/105
f 106/106/106 107/107/107 108/108/108
f 109/109/109 110/110/110 111/111/111
f 112/112/112 113/113/113 114/114/114
f 115/115/115 116/116/116 117/117/117
f 118/118/118 119/119/119 120/120/120
f 121/121/121 122/122/122 123/123/123
f 124/124/124 125/125/125 126/126/126
f 127/127/127 128/128/128 129/129/129
f 130/130/130 131/131/131 132/132/132
f 133/133/133 134/134/134 135/135/135
f 136/136/136 137/137/137 138/138/138
f 139/139/139 140/140/140 141/141/141
f 142/142/142 143/143/143 144/144/144
