g  Instance
v -6.660599 -52.21693 -3.426119
v -5.025655 -51.3172 -3.884907
v -6.225769 -52.14201 -4.395032
v -6.225769 -52.14201 -4.395032
v -5.025655 -51.3172 -3.884907
v -5.049436 -51.38163 -4.14278
v -4.200579 -52.37309 -4.051974
v -5.493246 -54.158 -4.3854
v -5.049436 -51.38163 -4.14278
v -5.049436 -51.38163 -4.14278
v -5.493246 -54.158 -4.3854
v -6.225769 -52.14201 -4.395032
v -6.225769 -52.14201 -4.395032
v -5.493246 -54.158 -4.3854
v -5.959002 -54.17002 -4.468156
v -5.953717 -53.04253 -2.881496
v -5.724887 -52.61646 -2.86304
v -6.534745 -52.50631 -3.137617
v -6.225769 -52.14201 -4.395032
v -5.959002 -54.17002 -4.468156
v -6.660599 -52.21693 -3.426119
v -6.660599 -52.21693 -3.426119
v -5.959002 -54.17002 -4.468156
v -6.70303 -52.37331 -3.294103
v -6.70303 -52.37331 -3.294103
v -5.959002 -54.17002 -4.468156
v -6.621964 -52.79778 -3.364537
v -6.621964 -52.79778 -3.364537
v -5.959002 -54.17002 -4.468156
v -6.426636 -53.59505 -3.590921
v -6.621964 -52.79778 -3.364537
v -6.660003 -52.44479 -3.220258
v -6.70303 -52.37331 -3.294103
v -3.976717 -52.45015 -3.5174
v -4.761496 -53.69216 -3.524247
v -4.200579 -52.37309 -4.051974
v -4.200579 -52.37309 -4.051974
v -4.761496 -53.69216 -3.524247
v -5.493246 -54.158 -4.3854
v -4.353248 -51.88945 -3.222838
v -3.976717 -52.45015 -3.5174
v -5.025655 -51.3172 -3.884907
v -5.025655 -51.3172 -3.884907
v -3.976717 -52.45015 -3.5174
v -5.049436 -51.38163 -4.14278
v -5.049436 -51.38163 -4.14278
v -3.976717 -52.45015 -3.5174
v -4.200579 -52.37309 -4.051974
v -6.534745 -52.50631 -3.137617
v -5.724887 -52.61646 -2.86304
v -6.660003 -52.44479 -3.220258
v -6.660003 -52.44479 -3.220258
v -5.724887 -52.61646 -2.86304
v -6.70303 -52.37331 -3.294103
v -6.70303 -52.37331 -3.294103
v -5.724887 -52.61646 -2.86304
v -6.660599 -52.21693 -3.426119
v -6.660599 -52.21693 -3.426119
v -5.724887 -52.61646 -2.86304
v -5.025655 -51.3172 -3.884907
v -5.025655 -51.3172 -3.884907
v -5.724887 -52.61646 -2.86304
v -4.353248 -51.88945 -3.222838
v -6.621964 -52.79778 -3.364537
v -6.426636 -53.59505 -3.590921
v -6.660003 -52.44479 -3.220258
v -6.660003 -52.44479 -3.220258
v -6.426636 -53.59505 -3.590921
v -6.534745 -52.50631 -3.137617
v -6.534745 -52.50631 -3.137617
v -6.426636 -53.59505 -3.590921
v -5.953717 -53.04253 -2.881496
v -5.953717 -53.04253 -2.881496
v -6.426636 -53.59505 -3.590921
v -5.915138 -53.24504 -2.94903
v -5.724887 -52.61646 -2.86304
v -5.953717 -53.04253 -2.881496
v -4.353248 -51.88945 -3.222838
v -4.353248 -51.88945 -3.222838
v -5.953717 -53.04253 -2.881496
v -3.976717 -52.45015 -3.5174
v -3.976717 -52.45015 -3.5174
v -5.953717 -53.04253 -2.881496
v -4.761496 -53.69216 -3.524247
v -4.761496 -53.69216 -3.524247
v -5.953717 -53.04253 -2.881496
v -5.915138 -53.24504 -2.94903
v -5.915138 -53.24504 -2.94903
v -6.426636 -53.59505 -3.590921
v -4.761496 -53.69216 -3.524247
v -4.761496 -53.69216 -3.524247
v -6.426636 -53.59505 -3.590921
v -5.493246 -54.158 -4.3854
v -5.493246 -54.158 -4.3854
v -6.426636 -53.59505 -3.590921
v -5.959002 -54.17002 -4.468156

vn -0.5105084 0.8441198 -0.1638384
vn -0.5105084 0.8441198 -0.1638384
vn -0.5105084 0.8441198 -0.1638384
vn -0.5105084 0.8441198 -0.1638384
vn -0.5105084 0.8441198 -0.1638384
vn -0.5105084 0.8441198 -0.1638384
vn 0.1731881 0.05823183 -0.9831658
vn 0.1731881 0.05823183 -0.9831658
vn 0.1731881 0.05823183 -0.9831658
vn 0.1731881 0.05823183 -0.9831658
vn 0.1731881 0.05823183 -0.9831658
vn 0.1731881 0.05823183 -0.9831658
vn 0.1731881 0.05823183 -0.9831658
vn 0.1731881 0.05823183 -0.9831658
vn 0.1731881 0.05823183 -0.9831658
vn -0.3037368 0.1222005 0.9448869
vn -0.3037368 0.1222005 0.9448869
vn -0.3037368 0.1222005 0.9448869
vn -0.9043544 -0.1040357 -0.4139079
vn -0.9043544 -0.1040357 -0.4139079
vn -0.9043544 -0.1040357 -0.4139079
vn -0.9043544 -0.1040357 -0.4139079
vn -0.9043544 -0.1040357 -0.4139079
vn -0.9043544 -0.1040357 -0.4139079
vn -0.9043544 -0.1040357 -0.4139079
vn -0.9043544 -0.1040357 -0.4139079
vn -0.9043544 -0.1040357 -0.4139079
vn -0.9043544 -0.1040357 -0.4139079
vn -0.9043544 -0.1040357 -0.4139079
vn -0.9043544 -0.1040357 -0.4139079
vn -0.9209965 -0.2282778 0.3156815
vn -0.9209965 -0.2282778 0.3156815
vn -0.9209965 -0.2282778 0.3156815
vn 0.7772617 -0.4889444 -0.3959769
vn 0.7772617 -0.4889444 -0.3959769
vn 0.7772617 -0.4889444 -0.3959769
vn 0.7772617 -0.4889444 -0.3959769
vn 0.7772617 -0.4889444 -0.3959769
vn 0.7772617 -0.4889444 -0.3959769
vn 0.7502847 0.6218084 -0.2245601
vn 0.7502847 0.6218084 -0.2245601
vn 0.7502847 0.6218084 -0.2245601
vn 0.7502847 0.6218084 -0.2245601
vn 0.7502847 0.6218084 -0.2245601
vn 0.7502847 0.6218084 -0.2245601
vn 0.7502847 0.6218084 -0.2245601
vn 0.7502847 0.6218084 -0.2245601
vn 0.7502847 0.6218084 -0.2245601
vn -0.1584795 0.6616721 0.7328535
vn -0.1584795 0.6616721 0.7328535
vn -0.1584795 0.6616721 0.7328535
vn -0.1584795 0.6616721 0.7328535
vn -0.1584795 0.6616721 0.7328535
vn -0.1584795 0.6616721 0.7328535
vn -0.1584795 0.6616721 0.7328535
vn -0.1584795 0.6616721 0.7328535
vn -0.1584795 0.6616721 0.7328535
vn -0.1584795 0.6616721 0.7328535
vn -0.1584795 0.6616721 0.7328535
vn -0.1584795 0.6616721 0.7328535
vn -0.1584795 0.6616721 0.7328535
vn -0.1584795 0.6616721 0.7328535
vn -0.1584795 0.6616721 0.7328535
vn -0.6295387 -0.3510635 0.6931345
vn -0.6295387 -0.3510635 0.6931345
vn -0.6295387 -0.3510635 0.6931345
vn -0.6295387 -0.3510635 0.6931345
vn -0.6295387 -0.3510635 0.6931345
vn -0.6295387 -0.3510635 0.6931345
vn -0.6295387 -0.3510635 0.6931345
vn -0.6295387 -0.3510635 0.6931345
vn -0.6295387 -0.3510635 0.6931345
vn -0.6295387 -0.3510635 0.6931345
vn -0.6295387 -0.3510635 0.6931345
vn -0.6295387 -0.3510635 0.6931345
vn 0.3602845 -0.2326312 0.9033703
vn 0.3602845 -0.2326312 0.9033703
vn 0.3602845 -0.2326312 0.9033703
vn 0.3602845 -0.2326312 0.9033703
vn 0.3602845 -0.2326312 0.9033703
vn 0.3602845 -0.2326312 0.9033703
vn 0.3602845 -0.2326312 0.9033703
vn 0.3602845 -0.2326312 0.9033703
vn 0.3602845 -0.2326312 0.9033703
vn 0.3602845 -0.2326312 0.9033703
vn 0.3602845 -0.2326312 0.9033703
vn 0.3602845 -0.2326312 0.9033703
vn -0.07046666 -0.8511026 0.5202489
vn -0.07046666 -0.8511026 0.5202489
vn -0.07046666 -0.8511026 0.5202489
vn -0.07046666 -0.8511026 0.5202489
vn -0.07046666 -0.8511026 0.5202489
vn -0.07046666 -0.8511026 0.5202489
vn -0.07046666 -0.8511026 0.5202489
vn -0.07046666 -0.8511026 0.5202489
vn -0.07046666 -0.8511026 0.5202489

vt 0.4419208 0.4183179
vt 0.6277488 0.4646612
vt 0.4828685 0.5161939
vt 0.4828685 0.5161939
vt 0.6277488 0.4646612
vt 0.6223953 0.4907112
vt 0.4789308 0.3115446
vt 0.6587537 0.4425537
vt 0.3806751 0.3975745
vt 0.3806751 0.3975745
vt 0.6587537 0.4425537
vt 0.4579296 0.5167939
vt 0.4579296 0.5167939
vt 0.6587537 0.4425537
vt 0.6604413 0.4897549
vt 0.4190305 0.4509823
vt 0.4623877 0.4261981
vt 0.4772901 0.5139062
vt 0.5306932 0.5123031
vt 0.3098241 0.5209754
vt 0.5280212 0.3973589
vt 0.5280212 0.3973589
vt 0.3098241 0.5209754
vt 0.5117639 0.3816971
vt 0.5117639 0.3816971
vt 0.3098241 0.5209754
vt 0.4652238 0.3900506
vt 0.4652238 0.3900506
vt 0.3098241 0.5209754
vt 0.3772765 0.4169069
vt 0.4759634 0.446482
vt 0.5124109 0.4307264
vt 0.5206707 0.4387941
vt 0.3748248 0.3678728
vt 0.5321088 0.3686697
vt 0.3806048 0.4301967
vt 0.3806048 0.4301967
vt 0.5321088 0.3686697
vt 0.6160481 0.4690677
vt 0.5450752 0.3720356
vt 0.6128698 0.4025295
vt 0.4573389 0.4405801
vt 0.4573389 0.4405801
vt 0.6128698 0.4025295
vt 0.4608126 0.467277
vt 0.4608126 0.467277
vt 0.6128698 0.4025295
vt 0.5924686 0.4578733
vt 0.4048359 0.4129082
vt 0.5149235 0.354597
vt 0.38931 0.4304592
vt 0.38931 0.4304592
vt 0.5149235 0.354597
vt 0.3856676 0.4461398
vt 0.3856676 0.4461398
vt 0.5149235 0.354597
vt 0.3968948 0.4741774
vt 0.3968948 0.4741774
vt 0.5149235 0.354597
vt 0.6569161 0.5716034
vt 0.6569161 0.5716034
vt 0.5149235 0.354597
vt 0.7321361 0.431003
vt 0.4987882 0.4932519
vt 0.3908429 0.5360888
vt 0.5433689 0.4659597
vt 0.5433689 0.4659597
vt 0.3908429 0.5360888
vt 0.5277211 0.450326
vt 0.5277211 0.450326
vt 0.3908429 0.5360888
vt 0.4252511 0.4018592
vt 0.4252511 0.4018592
vt 0.3908429 0.5360888
vt 0.3985637 0.414638
vt 0.5055104 0.500893
vt 0.4615439 0.5267507
vt 0.570258 0.3459387
vt 0.570258 0.3459387
vt 0.4615439 0.5267507
vt 0.5052854 0.3034019
vt 0.5052854 0.3034019
vt 0.4615439 0.5267507
vt 0.37835 0.3920664
vt 0.37835 0.3920664
vt 0.4615439 0.5267507
vt 0.4390988 0.5223911
vt 0.4805715 0.4263949
vt 0.5359247 0.5129218
vt 0.3439746 0.5039307
vt 0.3439746 0.5039307
vt 0.5359247 0.5129218
vt 0.4235026 0.6200092
vt 0.4235026 0.6200092
vt 0.5359247 0.5129218
vt 0.4768166 0.6311662

usemtl Material0
usemap Material0

usemtl Material1
usemap Material1
f 1/1/1 2/2/2 3/3/3
f 4/4/4 5/5/5 6/6/6
f 7/7/7 8/8/8 9/9/9
f 10/10/10 11/11/11 12/12/12
f 13/13/13 14/14/14 15/15/15
f 16/16/16 17/17/17 18/18/18
f 19/19/19 20/20/20 21/21/21
f 22/22/22 23/23/23 24/24/24
f 25/25/25 26/26/26 27/27/27
f 28/28/28 29/29/29 30/30/30
f 31/31/31 32/32/32 33/33/33
f 34/34/34 35/35/35 36/36/36
f 37/37/37 38/38/38 39/39/39
f 40/40/40 41/41/41 42/42/42
f 43/43/43 44/44/44 45/45/45
f 46/46/46 47/47/47 48/48/48
f 49/49/49 50/50/50 51/51/51
f 52/52/52 53/53/53 54/54/54
f 55/55/55 56/56/56 57/57/57
f 58/58/58 59/59/59 60/60/60
f 61/61/61 62/62/62 63/63/63
f 64/64/64 65/65/65 66/66/66
f 67/67/67 68/68/68 69/69/69
f 70/70/70 71/71/71 72/72/72
f 73/73/73 74/74/74 75/75/75
f 76/76/76 77/77/77 78/78/78
f 79/79/79 80/80/80 81/81/81
f 82/82/82 83/83/83 84/84/84
f 85/85/85 86/86/86 87/87/87
f 88/88/88 89/89/89 90/90/90
f 91/91/91 92/92/92 93/93/93
f 94/94/94 95/95/95 96/96/96
