g  Instance
v 6.881894 -54.99997 -5.257361
v 7.366607 -54.23211 -5.220771
v 7.152315 -54.91211 -4.923099
v 7.152315 -54.91211 -4.923099
v 7.366607 -54.23211 -5.220771
v 7.252101 -54.69617 -4.968892
v 6.881894 -54.99997 -5.257361
v 7.152315 -54.91211 -4.923099
v 6.88189 -55.3878 -4.801447
v 6.881894 -54.99997 -5.257361
v 6.88189 -55.3878 -4.801447
v 6.642449 -55.28799 -5.242272
v 6.642449 -55.28799 -5.242272
v 6.88189 -55.3878 -4.801447
v 6.770397 -55.55811 -4.751869
v 7.556657 -52.96388 -5.793943
v 7.529106 -52.81996 -5.909961
v 7.571533 -52.80465 -5.857485
v 6.516572 -53.13042 -6.864038
v 7.266038 -52.90591 -6.186441
v 6.720882 -53.89193 -6.299414
v 7.529106 -52.81996 -5.909961
v 7.556657 -52.96388 -5.793943
v 7.266038 -52.90591 -6.186441
v 7.266038 -52.90591 -6.186441
v 7.556657 -52.96388 -5.793943
v 6.720882 -53.89193 -6.299414
v 6.720882 -53.89193 -6.299414
v 7.556657 -52.96388 -5.793943
v 7.463341 -53.75075 -5.46138
v 7.366607 -54.23211 -5.220771
v 6.881894 -54.99997 -5.257361
v 7.463341 -53.75075 -5.46138
v 7.463341 -53.75075 -5.46138
v 6.881894 -54.99997 -5.257361
v 6.720882 -53.89193 -6.299414
v 6.516572 -53.13042 -6.864038
v 6.720882 -53.89193 -6.299414
v 6.100983 -53.24335 -7.177129
v 6.100983 -53.24335 -7.177129
v 6.720882 -53.89193 -6.299414
v 5.740012 -53.83939 -7.198758
v 5.740012 -53.83939 -7.198758
v 6.720882 -53.89193 -6.299414
v 5.829528 -53.96795 -7.054465
v 6.720882 -53.89193 -6.299414
v 6.226197 -54.5728 -6.299417
v 5.829528 -53.96795 -7.054465
v 6.720882 -53.89193 -6.299414
v 6.881894 -54.99997 -5.257361
v 6.226197 -54.5728 -6.299417
v 6.226197 -54.5728 -6.299417
v 6.881894 -54.99997 -5.257361
v 6.518833 -55.06224 -5.600184
v 6.518833 -55.06224 -5.600184
v 6.881894 -54.99997 -5.257361
v 6.642449 -55.28799 -5.242272
v 7.512436 -52.80238 -5.802796
v 5.147776 -53.20684 -6.295304
v 7.233298 -54.66191 -4.96194
v 7.233298 -54.66191 -4.96194
v 5.147776 -53.20684 -6.295304
v 6.680107 -55.48343 -4.716476
v 6.680107 -55.48343 -4.716476
v 5.147776 -53.20684 -6.295304
v 5.035045 -53.47756 -6.194022
v 7.463341 -53.75075 -5.46138
v 7.556657 -52.96388 -5.793943
v 7.366607 -54.23211 -5.220771
v 7.366607 -54.23211 -5.220771
v 7.556657 -52.96388 -5.793943
v 7.252101 -54.69617 -4.968892
v 7.252101 -54.69617 -4.968892
v 7.556657 -52.96388 -5.793943
v 7.233298 -54.66191 -4.96194
v 7.233298 -54.66191 -4.96194
v 7.556657 -52.96388 -5.793943
v 7.512436 -52.80238 -5.802796
v 7.512436 -52.80238 -5.802796
v 7.556657 -52.96388 -5.793943
v 7.571533 -52.80465 -5.857485
v 5.147776 -53.20684 -6.295304
v 5.156762 -53.21211 -6.330317
v 5.035045 -53.47756 -6.194022
v 5.035045 -53.47756 -6.194022
v 5.156762 -53.21211 -6.330317
v 5.109828 -53.47421 -6.437989
v 7.529106 -52.81996 -5.909961
v 7.266038 -52.90591 -6.186441
v 7.571533 -52.80465 -5.857485
v 7.571533 -52.80465 -5.857485
v 7.266038 -52.90591 -6.186441
v 7.512436 -52.80238 -5.802796
v 7.512436 -52.80238 -5.802796
v 7.266038 -52.90591 -6.186441
v 5.147776 -53.20684 -6.295304
v 5.147776 -53.20684 -6.295304
v 7.266038 -52.90591 -6.186441
v 5.156762 -53.21211 -6.330317
v 5.156762 -53.21211 -6.330317
v 7.266038 -52.90591 -6.186441
v 6.100983 -53.24335 -7.177129
v 6.100983 -53.24335 -7.177129
v 7.266038 -52.90591 -6.186441
v 6.516572 -53.13042 -6.864038
v 6.770397 -55.55811 -4.751869
v 6.88189 -55.3878 -4.801447
v 6.680107 -55.48343 -4.716476
v 6.680107 -55.48343 -4.716476
v 6.88189 -55.3878 -4.801447
v 7.233298 -54.66191 -4.96194
v 7.233298 -54.66191 -4.96194
v 6.88189 -55.3878 -4.801447
v 7.252101 -54.69617 -4.968892
v 7.252101 -54.69617 -4.968892
v 6.88189 -55.3878 -4.801447
v 7.152315 -54.91211 -4.923099
v 5.740012 -53.83939 -7.198758
v 5.829528 -53.96795 -7.054465
v 5.109828 -53.47421 -6.437989
v 5.109828 -53.47421 -6.437989
v 5.829528 -53.96795 -7.054465
v 5.035045 -53.47756 -6.194022
v 5.035045 -53.47756 -6.194022
v 5.829528 -53.96795 -7.054465
v 6.680107 -55.48343 -4.716476
v 6.680107 -55.48343 -4.716476
v 5.829528 -53.96795 -7.054465
v 6.770397 -55.55811 -4.751869
v 6.770397 -55.55811 -4.751869
v 5.829528 -53.96795 -7.054465
v 6.642449 -55.28799 -5.242272
v 6.642449 -55.28799 -5.242272
v 5.829528 -53.96795 -7.054465
v 6.518833 -55.06224 -5.600184
v 6.518833 -55.06224 -5.600184
v 5.829528 -53.96795 -7.054465
v 6.226197 -54.5728 -6.299417
v 5.156762 -53.21211 -6.330317
v 6.100983 -53.24335 -7.177129
v 5.109828 -53.47421 -6.437989
v 5.109828 -53.47421 -6.437989
v 6.100983 -53.24335 -7.177129
v 5.740012 -53.83939 -7.198758

vn 0.7486099 -0.449332 -0.4875285
vn 0.7486099 -0.449332 -0.4875285
vn 0.7486099 -0.449332 -0.4875285
vn 0.7486099 -0.449332 -0.4875285
vn 0.7486099 -0.449332 -0.4875285
vn 0.7486099 -0.449332 -0.4875285
vn 0.7236052 -0.5257292 -0.4472183
vn 0.7236052 -0.5257292 -0.4472183
vn 0.7236052 -0.5257292 -0.4472183
vn 0.6586743 -0.5731165 -0.4875302
vn 0.6586743 -0.5731165 -0.4875302
vn 0.6586743 -0.5731165 -0.4875302
vn 0.6586743 -0.5731165 -0.4875302
vn 0.6586743 -0.5731165 -0.4875302
vn 0.6586743 -0.5731165 -0.4875302
vn 0.7836289 -0.2920089 -0.5483215
vn 0.7836289 -0.2920089 -0.5483215
vn 0.7836289 -0.2920089 -0.5483215
vn 0.6873776 -0.3044902 -0.659392
vn 0.6873776 -0.3044902 -0.659392
vn 0.6873776 -0.3044902 -0.659392
vn 0.7321783 -0.3369912 -0.5919052
vn 0.7321783 -0.3369912 -0.5919052
vn 0.7321783 -0.3369912 -0.5919052
vn 0.7321783 -0.3369912 -0.5919052
vn 0.7321783 -0.3369912 -0.5919052
vn 0.7321783 -0.3369912 -0.5919052
vn 0.7321783 -0.3369912 -0.5919052
vn 0.7321783 -0.3369912 -0.5919052
vn 0.7321783 -0.3369912 -0.5919052
vn 0.7124215 -0.4230385 -0.5599055
vn 0.7124215 -0.4230385 -0.5599055
vn 0.7124215 -0.4230385 -0.5599055
vn 0.7124215 -0.4230385 -0.5599055
vn 0.7124215 -0.4230385 -0.5599055
vn 0.7124215 -0.4230385 -0.5599055
vn 0.6223752 -0.351544 -0.6993325
vn 0.6223752 -0.351544 -0.6993325
vn 0.6223752 -0.351544 -0.6993325
vn 0.6223752 -0.351544 -0.6993325
vn 0.6223752 -0.351544 -0.6993325
vn 0.6223752 -0.351544 -0.6993325
vn 0.6223752 -0.351544 -0.6993325
vn 0.6223752 -0.351544 -0.6993325
vn 0.6223752 -0.351544 -0.6993325
vn 0.6025702 -0.4377916 -0.6672688
vn 0.6025702 -0.4377916 -0.6672688
vn 0.6025702 -0.4377916 -0.6672688
vn 0.6472109 -0.4702261 -0.6000046
vn 0.6472109 -0.4702261 -0.6000046
vn 0.6472109 -0.4702261 -0.6000046
vn 0.6472109 -0.4702261 -0.6000046
vn 0.6472109 -0.4702261 -0.6000046
vn 0.6472109 -0.4702261 -0.6000046
vn 0.6224856 -0.5468239 -0.5599065
vn 0.6224856 -0.5468239 -0.5599065
vn 0.6224856 -0.5468239 -0.5599065
vn -0.253989 0.4299075 0.8664117
vn -0.253989 0.4299075 0.8664117
vn -0.253989 0.4299075 0.8664117
vn -0.253989 0.4299075 0.8664117
vn -0.253989 0.4299075 0.8664117
vn -0.253989 0.4299075 0.8664117
vn -0.253989 0.4299075 0.8664117
vn -0.253989 0.4299075 0.8664117
vn -0.253989 0.4299075 0.8664117
vn 0.6668873 0.2215986 0.711446
vn 0.6668873 0.2215986 0.711446
vn 0.6668873 0.2215986 0.711446
vn 0.6668873 0.2215986 0.711446
vn 0.6668873 0.2215986 0.711446
vn 0.6668873 0.2215986 0.711446
vn 0.6668873 0.2215986 0.711446
vn 0.6668873 0.2215986 0.711446
vn 0.6668873 0.2215986 0.711446
vn 0.6668873 0.2215986 0.711446
vn 0.6668873 0.2215986 0.711446
vn 0.6668873 0.2215986 0.711446
vn 0.6668873 0.2215986 0.711446
vn 0.6668873 0.2215986 0.711446
vn 0.6668873 0.2215986 0.711446
vn -0.9192488 0.2788003 -0.2779424
vn -0.9192488 0.2788003 -0.2779424
vn -0.9192488 0.2788003 -0.2779424
vn -0.9192488 0.2788003 -0.2779424
vn -0.9192488 0.2788003 -0.2779424
vn -0.9192488 0.2788003 -0.2779424
vn -0.1292736 0.9751146 -0.1801106
vn -0.1292736 0.9751146 -0.1801106
vn -0.1292736 0.9751146 -0.1801106
vn -0.1292736 0.9751146 -0.1801106
vn -0.1292736 0.9751146 -0.1801106
vn -0.1292736 0.9751146 -0.1801106
vn -0.1292736 0.9751146 -0.1801106
vn -0.1292736 0.9751146 -0.1801106
vn -0.1292736 0.9751146 -0.1801106
vn -0.1292736 0.9751146 -0.1801106
vn -0.1292736 0.9751146 -0.1801106
vn -0.1292736 0.9751146 -0.1801106
vn -0.1292736 0.9751146 -0.1801106
vn -0.1292736 0.9751146 -0.1801106
vn -0.1292736 0.9751146 -0.1801106
vn -0.1292736 0.9751146 -0.1801106
vn -0.1292736 0.9751146 -0.1801106
vn -0.1292736 0.9751146 -0.1801106
vn 0.3796644 0.0206949 0.9248928
vn 0.3796644 0.0206949 0.9248928
vn 0.3796644 0.0206949 0.9248928
vn 0.3796644 0.0206949 0.9248928
vn 0.3796644 0.0206949 0.9248928
vn 0.3796644 0.0206949 0.9248928
vn 0.3796644 0.0206949 0.9248928
vn 0.3796644 0.0206949 0.9248928
vn 0.3796644 0.0206949 0.9248928
vn 0.3796644 0.0206949 0.9248928
vn 0.3796644 0.0206949 0.9248928
vn 0.3796644 0.0206949 0.9248928
vn -0.671197 -0.709252 -0.2155374
vn -0.671197 -0.709252 -0.2155374
vn -0.671197 -0.709252 -0.2155374
vn -0.671197 -0.709252 -0.2155374
vn -0.671197 -0.709252 -0.2155374
vn -0.671197 -0.709252 -0.2155374
vn -0.671197 -0.709252 -0.2155374
vn -0.671197 -0.709252 -0.2155374
vn -0.671197 -0.709252 -0.2155374
vn -0.671197 -0.709252 -0.2155374
vn -0.671197 -0.709252 -0.2155374
vn -0.671197 -0.709252 -0.2155374
vn -0.671197 -0.709252 -0.2155374
vn -0.671197 -0.709252 -0.2155374
vn -0.671197 -0.709252 -0.2155374
vn -0.671197 -0.709252 -0.2155374
vn -0.671197 -0.709252 -0.2155374
vn -0.671197 -0.709252 -0.2155374
vn -0.671197 -0.709252 -0.2155374
vn -0.671197 -0.709252 -0.2155374
vn -0.671197 -0.709252 -0.2155374
vn -0.6068182 0.3926006 -0.6911125
vn -0.6068182 0.3926006 -0.6911125
vn -0.6068182 0.3926006 -0.6911125
vn -0.6068182 0.3926006 -0.6911125
vn -0.6068182 0.3926006 -0.6911125
vn -0.6068182 0.3926006 -0.6911125

vt 0.090909 0.157461
vt 0.1043956 0.157461
vt 0.09416926 0.163108
vt 0.09416926 0.163108
vt 0.1043956 0.157461
vt 0.09767016 0.1621485
vt 0.090909 0.157461
vt 0.09416926 0.163108
vt 0.08646218 0.1651632
vt 0.090909 0.157461
vt 0.08646218 0.1651632
vt 0.085346 0.157461
vt 0.085346 0.157461
vt 0.08646218 0.1651632
vt 0.08345683 0.1658821
vt 0.1208095 0.1450364
vt 0.1222006 0.1426269
vt 0.1228733 0.1435284
vt 0.1091226 0.1259138
vt 0.1187313 0.1377784
vt 0.1022726 0.1377784
vt 0.1222006 0.1426269
vt 0.1208095 0.1450364
vt 0.1187313 0.1377784
vt 0.1187313 0.1377784
vt 0.1208095 0.1450364
vt 0.1022726 0.1377784
vt 0.1022726 0.1377784
vt 0.1208095 0.1450364
vt 0.1109009 0.1527231
vt 0.1043956 0.157461
vt 0.090909 0.157461
vt 0.1109009 0.1527231
vt 0.1109009 0.1527231
vt 0.090909 0.157461
vt 0.1022726 0.1377784
vt 0.1091226 0.1259138
vt 0.1022726 0.1377784
vt 0.1043835 0.1200658
vt 0.1043835 0.1200658
vt 0.1022726 0.1377784
vt 0.09467249 0.1204653
vt 0.09467249 0.1204653
vt 0.1022726 0.1377784
vt 0.09397551 0.1234072
vt 0.1022726 0.1377784
vt 0.09034468 0.1377784
vt 0.09397551 0.1234072
vt 0.1022726 0.1377784
vt 0.090909 0.157461
vt 0.09034468 0.1377784
vt 0.09034468 0.1377784
vt 0.090909 0.157461
vt 0.08717053 0.1509857
vt 0.08717053 0.1509857
vt 0.090909 0.157461
vt 0.085346 0.157461
vt 0.7466119 0.4905893
vt 0.3052676 0.6847849
vt 0.5130671 0.1590467
vt 0.5130671 0.1590467
vt 0.3052676 0.6847849
vt 0.3370226 0.06226297
vt 0.3370226 0.06226297
vt 0.3052676 0.6847849
vt 0.2590462 0.6448451
vt 0.5498286 0.5140844
vt 0.4494869 0.5802944
vt 0.6094664 0.4661941
vt 0.6094664 0.4661941
vt 0.4494869 0.5802944
vt 0.6660291 0.416049
vt 0.6660291 0.416049
vt 0.4494869 0.5802944
vt 0.6606475 0.4146661
vt 0.6606475 0.4146661
vt 0.4494869 0.5802944
vt 0.4260949 0.5820571
vt 0.4260949 0.5820571
vt 0.4494869 0.5802944
vt 0.429006 0.5929421
vt 0.4911284 0.4676848
vt 0.4908752 0.4714163
vt 0.4612673 0.4568936
vt 0.4612673 0.4568936
vt 0.4908752 0.4714163
vt 0.4638127 0.4828826
vt 0.604038 0.4577374
vt 0.5768396 0.4858265
vt 0.6084352 0.4524027
vt 0.6084352 0.4524027
vt 0.5768396 0.4858265
vt 0.6026129 0.4468477
vt 0.6026129 0.4468477
vt 0.5768396 0.4858265
vt 0.3630116 0.4968897
vt 0.3630116 0.4968897
vt 0.5768396 0.4858265
vt 0.363832 0.500443
vt 0.363832 0.500443
vt 0.5768396 0.4858265
vt 0.4569733 0.5864823
vt 0.4569733 0.5864823
vt 0.5768396 0.4858265
vt 0.499632 0.5546711
vt 0.2814631 0.5012118
vt 0.2996751 0.4884048
vt 0.2893152 0.5115811
vt 0.2893152 0.5115811
vt 0.2996751 0.4884048
vt 0.377178 0.4480337
vt 0.377178 0.4480337
vt 0.2996751 0.4884048
vt 0.3735544 0.4458726
vt 0.3735544 0.4458726
vt 0.2996751 0.4884048
vt 0.3505046 0.4573389
vt 0.5293993 0.5818508
vt 0.5139484 0.5669718
vt 0.6007472 0.503415
vt 0.6007472 0.503415
vt 0.5139484 0.5669718
vt 0.6059881 0.4782651
vt 0.6059881 0.4782651
vt 0.5139484 0.5669718
vt 0.346895 0.3259266
vt 0.346895 0.3259266
vt 0.5139484 0.5669718
vt 0.335124 0.3295784
vt 0.335124 0.3295784
vt 0.5139484 0.5669718
vt 0.363171 0.380136
vt 0.363171 0.380136
vt 0.5139484 0.5669718
vt 0.3878333 0.4170381
vt 0.3878333 0.4170381
vt 0.5139484 0.5669718
vt 0.4430975 0.4891267
vt 0.4389535 0.3851519
vt 0.5051542 0.5445174
vt 0.4055531 0.4054172
vt 0.4055531 0.4054172
vt 0.5051542 0.5445174
vt 0.4104097 0.5485957

usemtl Material0
usemap Material0
f 1/1/1 2/2/2 3/3/3
f 4/4/4 5/5/5 6/6/6
f 7/7/7 8/8/8 9/9/9
f 10/10/10 11/11/11 12/12/12
f 13/13/13 14/14/14 15/15/15
f 16/16/16 17/17/17 18/18/18
f 19/19/19 20/20/20 21/21/21
f 22/22/22 23/23/23 24/24/24
f 25/25/25 26/26/26 27/27/27
f 28/28/28 29/29/29 30/30/30
f 31/31/31 32/32/32 33/33/33
f 34/34/34 35/35/35 36/36/36
f 37/37/37 38/38/38 39/39/39
f 40/40/40 41/41/41 42/42/42
f 43/43/43 44/44/44 45/45/45
f 46/46/46 47/47/47 48/48/48
f 49/49/49 50/50/50 51/51/51
f 52/52/52 53/53/53 54/54/54
f 55/55/55 56/56/56 57/57/57

usemtl Material1
usemap Material1
f 58/58/58 59/59/59 60/60/60
f 61/61/61 62/62/62 63/63/63
f 64/64/64 65/65/65 66/66/66
f 67/67/67 68/68/68 69/69/69
f 70/70/70 71/71/71 72/72/72
f 73/73/73 74/74/74 75/75/75
f 76/76/76 77/77/77 78/78/78
f 79/79/79 80/80/80 81/81/81
f 82/82/82 83/83/83 84/84/84
f 85/85/85 86/86/86 87/87/87
f 88/88/88 89/89/89 90/90/90
f 91/91/91 92/92/92 93/93/93
f 94/94/94 95/95/95 96/96/96
f 97/97/97 98/98/98 99/99/99
f 100/100/100 101/101/101 102/102/102
f 103/103/103 104/104/104 105/105/105
f 106/106/106 107/107/107 108/108/108
f 109/109/109 110/110/110 111/111/111
f 112/112/112 113/113/113 114/114/114
f 115/115/115 116/116/116 117/117/117
f 118/118/118 119/119/119 120/120/120
f 121/121/121 122/122/122 123/123/123
f 124/124/124 125/125/125 126/126/126
f 127/127/127 128/128/128 129/129/129
f 130/130/130 131/131/131 132/132/132
f 133/133/133 134/134/134 135/135/135
f 136/136/136 137/137/137 138/138/138
f 139/139/139 140/140/140 141/141/141
f 142/142/142 143/143/143 144/144/144
