g  Instance
v 7.647621 -45.64154 4.726551
v 7.236072 -44.74275 4.472196
v 7.04269 -44.88325 4.886384
v 5.434998 -43.38179 5.130811
v 6.234068 -44.0467 5.037879
v 5.367992 -43.21831 5.011472
v 5.367992 -43.21831 5.011472
v 6.234068 -44.0467 5.037879
v 6.384523 -43.95963 4.769875
v 6.234068 -44.0467 5.037879
v 6.496418 -44.30402 4.993673
v 6.384523 -43.95963 4.769875
v 7.236072 -44.74275 4.472196
v 6.384523 -43.95963 4.769875
v 7.04269 -44.88325 4.886384
v 7.04269 -44.88325 4.886384
v 6.384523 -43.95963 4.769875
v 6.496418 -44.30402 4.993673
v 5.228595 -42.95198 4.754694
v 5.218871 -42.9679 4.78921
v 5.260938 -43.03422 4.850257
v 5.228595 -42.95198 4.754694
v 5.260938 -43.03422 4.850257
v 5.277792 -42.87057 4.555334
v 5.277792 -42.87057 4.555334
v 5.260938 -43.03422 4.850257
v 5.852532 -43.13514 4.255812
v 5.852532 -43.13514 4.255812
v 5.260938 -43.03422 4.850257
v 5.348836 -43.18024 4.980667
v 6.384523 -43.95963 4.769875
v 6.217515 -43.31704 4.045411
v 5.367992 -43.21831 5.011472
v 5.367992 -43.21831 5.011472
v 6.217515 -43.31704 4.045411
v 5.348836 -43.18024 4.980667
v 5.348836 -43.18024 4.980667
v 6.217515 -43.31704 4.045411
v 5.852532 -43.13514 4.255812
v 7.082997 -43.83993 3.41319
v 6.753366 -43.63227 3.666363
v 7.121502 -43.95961 3.577415
v 7.121502 -43.95961 3.577415
v 6.753366 -43.63227 3.666363
v 6.384523 -43.95963 4.769875
v 6.384523 -43.95963 4.769875
v 6.753366 -43.63227 3.666363
v 6.217515 -43.31704 4.045411
v 7.236072 -44.74275 4.472196
v 7.121502 -43.95961 3.577415
v 6.384523 -43.95963 4.769875
v 7.236072 -44.74275 4.472196
v 7.647621 -45.64154 4.726551
v 7.881597 -45.06211 3.657972
v 7.881597 -45.06211 3.657972
v 7.647621 -45.64154 4.726551
v 7.856701 -45.36689 4.042165
v 7.856701 -45.36689 4.042165
v 7.647621 -45.64154 4.726551
v 7.759728 -45.66531 4.549883
v 7.759728 -45.66531 4.549883
v 7.647621 -45.64154 4.726551
v 7.68385 -45.69074 4.715651
v 7.759728 -45.66531 4.549883
v 7.830788 -45.64074 4.383677
v 7.856701 -45.36689 4.042165
v 7.121502 -43.95961 3.577415
v 7.236072 -44.74275 4.472196
v 7.879945 -45.00352 3.577408
v 7.879945 -45.00352 3.577408
v 7.236072 -44.74275 4.472196
v 7.881597 -45.06211 3.657972
v 7.082997 -43.83993 3.41319
v 7.121502 -43.95961 3.577415
v 7.485158 -44.14072 3.035263
v 7.485158 -44.14072 3.035263
v 7.121502 -43.95961 3.577415
v 7.488331 -44.14484 3.036132
v 7.848877 -44.70195 3.13917
v 7.488331 -44.14484 3.036132
v 7.879945 -45.00352 3.577408
v 7.879945 -45.00352 3.577408
v 7.488331 -44.14484 3.036132
v 7.121502 -43.95961 3.577415
v 5.250542 -44.19136 2.628817
v 4.931024 -43.36629 3.782149
v 5.379537 -44.22871 2.59365
v 5.379537 -44.22871 2.59365
v 4.931024 -43.36629 3.782149
v 7.485158 -44.14072 3.035263
v 7.485158 -44.14072 3.035263
v 4.931024 -43.36629 3.782149
v 7.082997 -43.83993 3.41319
v 7.082997 -43.83993 3.41319
v 4.931024 -43.36629 3.782149
v 6.753366 -43.63227 3.666363
v 6.753366 -43.63227 3.666363
v 4.931024 -43.36629 3.782149
v 6.217515 -43.31704 4.045411
v 6.217515 -43.31704 4.045411
v 4.931024 -43.36629 3.782149
v 5.852532 -43.13514 4.255812
v 5.852532 -43.13514 4.255812
v 4.931024 -43.36629 3.782149
v 5.277792 -42.87057 4.555334
v 4.302787 -45.24465 4.278003
v 4.269575 -45.15269 4.220763
v 5.391696 -46.07252 4.178802
v 5.391696 -46.07252 4.178802
v 4.269575 -45.15269 4.220763
v 6.420017 -45.81232 3.143695
v 6.420017 -45.81232 3.143695
v 4.269575 -45.15269 4.220763
v 6.476282 -45.5807 2.89066
v 6.476282 -45.5807 2.89066
v 4.269575 -45.15269 4.220763
v 5.347672 -44.2751 2.589126
v 5.347672 -44.2751 2.589126
v 4.269575 -45.15269 4.220763
v 5.245272 -44.22357 2.622238
v 5.379537 -44.22871 2.59365
v 7.485158 -44.14072 3.035263
v 5.347672 -44.2751 2.589126
v 5.347672 -44.2751 2.589126
v 7.485158 -44.14072 3.035263
v 6.476282 -45.5807 2.89066
v 6.476282 -45.5807 2.89066
v 7.485158 -44.14072 3.035263
v 7.848877 -44.70195 3.13917
v 7.848877 -44.70195 3.13917
v 7.485158 -44.14072 3.035263
v 7.488331 -44.14484 3.036132
v 7.879945 -45.00352 3.577408
v 7.881597 -45.06211 3.657972
v 7.848877 -44.70195 3.13917
v 7.848877 -44.70195 3.13917
v 7.881597 -45.06211 3.657972
v 6.476282 -45.5807 2.89066
v 6.476282 -45.5807 2.89066
v 7.881597 -45.06211 3.657972
v 6.420017 -45.81232 3.143695
v 6.420017 -45.81232 3.143695
v 7.881597 -45.06211 3.657972
v 7.830788 -45.64074 4.383677
v 7.830788 -45.64074 4.383677
v 7.881597 -45.06211 3.657972
v 7.856701 -45.36689 4.042165
v 5.250542 -44.19136 2.628817
v 5.379537 -44.22871 2.59365
v 5.245272 -44.22357 2.622238
v 5.245272 -44.22357 2.622238
v 5.379537 -44.22871 2.59365
v 5.347672 -44.2751 2.589126
v 4.269575 -45.15269 4.220763
v 4.458213 -44.10211 4.397491
v 5.245272 -44.22357 2.622238
v 5.245272 -44.22357 2.622238
v 4.458213 -44.10211 4.397491
v 5.250542 -44.19136 2.628817
v 5.250542 -44.19136 2.628817
v 4.458213 -44.10211 4.397491
v 4.931024 -43.36629 3.782149
v 5.218871 -42.9679 4.78921
v 5.228595 -42.95198 4.754694
v 4.631521 -43.84872 4.627007
v 4.631521 -43.84872 4.627007
v 5.228595 -42.95198 4.754694
v 4.458213 -44.10211 4.397491
v 4.458213 -44.10211 4.397491
v 5.228595 -42.95198 4.754694
v 4.931024 -43.36629 3.782149
v 4.931024 -43.36629 3.782149
v 5.228595 -42.95198 4.754694
v 5.277792 -42.87057 4.555334
v 5.434998 -43.38179 5.130811
v 5.367992 -43.21831 5.011472
v 4.720401 -44.03817 4.774838
v 4.720401 -44.03817 4.774838
v 5.367992 -43.21831 5.011472
v 4.631521 -43.84872 4.627007
v 4.631521 -43.84872 4.627007
v 5.367992 -43.21831 5.011472
v 5.218871 -42.9679 4.78921
v 5.218871 -42.9679 4.78921
v 5.367992 -43.21831 5.011472
v 5.260938 -43.03422 4.850257
v 5.260938 -43.03422 4.850257
v 5.367992 -43.21831 5.011472
v 5.348836 -43.18024 4.980667
v 6.420017 -45.81232 3.143695
v 7.830788 -45.64074 4.383677
v 5.391696 -46.07252 4.178802
v 5.391696 -46.07252 4.178802
v 7.830788 -45.64074 4.383677
v 7.68385 -45.69074 4.715651
v 7.68385 -45.69074 4.715651
v 7.830788 -45.64074 4.383677
v 7.759728 -45.66531 4.549883
v 5.391696 -46.07252 4.178802
v 7.68385 -45.69074 4.715651
v 4.302787 -45.24465 4.278003
v 4.302787 -45.24465 4.278003
v 7.68385 -45.69074 4.715651
v 4.720401 -44.03817 4.774838
v 4.720401 -44.03817 4.774838
v 7.68385 -45.69074 4.715651
v 5.434998 -43.38179 5.130811
v 5.434998 -43.38179 5.130811
v 7.68385 -45.69074 4.715651
v 6.234068 -44.0467 5.037879
v 6.234068 -44.0467 5.037879
v 7.68385 -45.69074 4.715651
v 6.496418 -44.30402 4.993673
v 6.496418 -44.30402 4.993673
v 7.68385 -45.69074 4.715651
v 7.04269 -44.88325 4.886384
v 7.04269 -44.88325 4.886384
v 7.68385 -45.69074 4.715651
v 7.647621 -45.64154 4.726551
v 4.631521 -43.84872 4.627007
v 4.458213 -44.10211 4.397491
v 4.720401 -44.03817 4.774838
v 4.720401 -44.03817 4.774838
v 4.458213 -44.10211 4.397491
v 4.302787 -45.24465 4.278003
v 4.302787 -45.24465 4.278003
v 4.458213 -44.10211 4.397491
v 4.269575 -45.15269 4.220763

vn 0.7255289 0.4735325 0.4993743
vn 0.7255289 0.4735325 0.4993743
vn 0.7255289 0.4735325 0.4993743
vn 0.5789369 0.6220804 0.5271128
vn 0.5789369 0.6220804 0.5271128
vn 0.5789369 0.6220804 0.5271128
vn 0.5789369 0.6220804 0.5271128
vn 0.5789369 0.6220804 0.5271128
vn 0.5789369 0.6220804 0.5271128
vn 0.6351071 0.5552766 0.536942
vn 0.6351071 0.5552766 0.536942
vn 0.6351071 0.5552766 0.536942
vn 0.6745641 0.5436813 0.4993737
vn 0.6745641 0.5436813 0.4993737
vn 0.6745641 0.5436813 0.4993737
vn 0.6745641 0.5436813 0.4993737
vn 0.6745641 0.5436813 0.4993737
vn 0.6745641 0.5436813 0.4993737
vn 0.4762682 0.7397367 0.4753505
vn 0.4762682 0.7397367 0.4753505
vn 0.4762682 0.7397367 0.4753505
vn 0.5524198 0.7150801 0.4283606
vn 0.5524198 0.7150801 0.4283606
vn 0.5524198 0.7150801 0.4283606
vn 0.5524198 0.7150801 0.4283606
vn 0.5524198 0.7150801 0.4283606
vn 0.5524198 0.7150801 0.4283606
vn 0.5524198 0.7150801 0.4283606
vn 0.5524198 0.7150801 0.4283606
vn 0.5524198 0.7150801 0.4283606
vn 0.5930023 0.6653676 0.4534692
vn 0.5930023 0.6653676 0.4534692
vn 0.5930023 0.6653676 0.4534692
vn 0.5930023 0.6653676 0.4534692
vn 0.5930023 0.6653676 0.4534692
vn 0.5930023 0.6653676 0.4534692
vn 0.5930023 0.6653676 0.4534692
vn 0.5930023 0.6653676 0.4534692
vn 0.5930023 0.6653676 0.4534692
vn 0.6707896 0.6653691 0.3276056
vn 0.6707896 0.6653691 0.3276056
vn 0.6707896 0.6653691 0.3276056
vn 0.6597779 0.6312014 0.4077717
vn 0.6597779 0.6312014 0.4077717
vn 0.6597779 0.6312014 0.4077717
vn 0.6597779 0.6312014 0.4077717
vn 0.6597779 0.6312014 0.4077717
vn 0.6597779 0.6312014 0.4077717
vn 0.6886502 0.5870379 0.4256141
vn 0.6886502 0.5870379 0.4256141
vn 0.6886502 0.5870379 0.4256141
vn 0.7711143 0.4735349 0.4256141
vn 0.7711143 0.4735349 0.4256141
vn 0.7711143 0.4735349 0.4256141
vn 0.7711143 0.4735349 0.4256141
vn 0.7711143 0.4735349 0.4256141
vn 0.7711143 0.4735349 0.4256141
vn 0.7711143 0.4735349 0.4256141
vn 0.7711143 0.4735349 0.4256141
vn 0.7711143 0.4735349 0.4256141
vn 0.7711143 0.4735349 0.4256141
vn 0.7711143 0.4735349 0.4256141
vn 0.7711143 0.4735349 0.4256141
vn 0.8041972 0.4324242 0.4077698
vn 0.8041972 0.4324242 0.4077698
vn 0.8041972 0.4324242 0.4077698
vn 0.7483228 0.5436828 0.3800288
vn 0.7483228 0.5436828 0.3800288
vn 0.7483228 0.5436828 0.3800288
vn 0.7483228 0.5436828 0.3800288
vn 0.7483228 0.5436828 0.3800288
vn 0.7483228 0.5436828 0.3800288
vn 0.7303683 0.6220822 0.2820922
vn 0.7303683 0.6220822 0.2820922
vn 0.7303683 0.6220822 0.2820922
vn 0.7303683 0.6220822 0.2820922
vn 0.7303683 0.6220822 0.2820922
vn 0.7303683 0.6220822 0.2820922
vn 0.76428 0.5552776 0.3279374
vn 0.76428 0.5552776 0.3279374
vn 0.76428 0.5552776 0.3279374
vn 0.76428 0.5552776 0.3279374
vn 0.76428 0.5552776 0.3279374
vn 0.76428 0.5552776 0.3279374
vn 0.08402209 0.821308 -0.5642639
vn 0.08402209 0.821308 -0.5642639
vn 0.08402209 0.821308 -0.5642639
vn 0.08402209 0.821308 -0.5642639
vn 0.08402209 0.821308 -0.5642639
vn 0.08402209 0.821308 -0.5642639
vn 0.08402209 0.821308 -0.5642639
vn 0.08402209 0.821308 -0.5642639
vn 0.08402209 0.821308 -0.5642639
vn 0.08402209 0.821308 -0.5642639
vn 0.08402209 0.821308 -0.5642639
vn 0.08402209 0.821308 -0.5642639
vn 0.08402209 0.821308 -0.5642639
vn 0.08402209 0.821308 -0.5642639
vn 0.08402209 0.821308 -0.5642639
vn 0.08402209 0.821308 -0.5642639
vn 0.08402209 0.821308 -0.5642639
vn 0.08402209 0.821308 -0.5642639
vn 0.08402209 0.821308 -0.5642639
vn 0.08402209 0.821308 -0.5642639
vn 0.08402209 0.821308 -0.5642639
vn -0.4999533 -0.5805913 -0.64262
vn -0.4999533 -0.5805913 -0.64262
vn -0.4999533 -0.5805913 -0.64262
vn -0.4999533 -0.5805913 -0.64262
vn -0.4999533 -0.5805913 -0.64262
vn -0.4999533 -0.5805913 -0.64262
vn -0.4999533 -0.5805913 -0.64262
vn -0.4999533 -0.5805913 -0.64262
vn -0.4999533 -0.5805913 -0.64262
vn -0.4999533 -0.5805913 -0.64262
vn -0.4999533 -0.5805913 -0.64262
vn -0.4999533 -0.5805913 -0.64262
vn -0.4999533 -0.5805913 -0.64262
vn -0.4999533 -0.5805913 -0.64262
vn -0.4999533 -0.5805913 -0.64262
vn 0.2069138 -0.04683283 -0.9772376
vn 0.2069138 -0.04683283 -0.9772376
vn 0.2069138 -0.04683283 -0.9772376
vn 0.2069138 -0.04683283 -0.9772376
vn 0.2069138 -0.04683283 -0.9772376
vn 0.2069138 -0.04683283 -0.9772376
vn 0.2069138 -0.04683283 -0.9772376
vn 0.2069138 -0.04683283 -0.9772376
vn 0.2069138 -0.04683283 -0.9772376
vn 0.2069138 -0.04683283 -0.9772376
vn 0.2069138 -0.04683283 -0.9772376
vn 0.2069138 -0.04683283 -0.9772376
vn 0.5280805 -0.6816106 -0.5064958
vn 0.5280805 -0.6816106 -0.5064958
vn 0.5280805 -0.6816106 -0.5064958
vn 0.5280805 -0.6816106 -0.5064958
vn 0.5280805 -0.6816106 -0.5064958
vn 0.5280805 -0.6816106 -0.5064958
vn 0.5280805 -0.6816106 -0.5064958
vn 0.5280805 -0.6816106 -0.5064958
vn 0.5280805 -0.6816106 -0.5064958
vn 0.5280805 -0.6816106 -0.5064958
vn 0.5280805 -0.6816106 -0.5064958
vn 0.5280805 -0.6816106 -0.5064958
vn 0.5280805 -0.6816106 -0.5064958
vn 0.5280805 -0.6816106 -0.5064958
vn 0.5280805 -0.6816106 -0.5064958
vn -0.1945239 0.226713 -0.9543383
vn -0.1945239 0.226713 -0.9543383
vn -0.1945239 0.226713 -0.9543383
vn -0.1945239 0.226713 -0.9543383
vn -0.1945239 0.226713 -0.9543383
vn -0.1945239 0.226713 -0.9543383
vn -0.8843797 0.2273573 -0.4076533
vn -0.8843797 0.2273573 -0.4076533
vn -0.8843797 0.2273573 -0.4076533
vn -0.8843797 0.2273573 -0.4076533
vn -0.8843797 0.2273573 -0.4076533
vn -0.8843797 0.2273573 -0.4076533
vn -0.8843797 0.2273573 -0.4076533
vn -0.8843797 0.2273573 -0.4076533
vn -0.8843797 0.2273573 -0.4076533
vn -0.8335094 0.5521501 0.01981365
vn -0.8335094 0.5521501 0.01981365
vn -0.8335094 0.5521501 0.01981365
vn -0.8335094 0.5521501 0.01981365
vn -0.8335094 0.5521501 0.01981365
vn -0.8335094 0.5521501 0.01981365
vn -0.8335094 0.5521501 0.01981365
vn -0.8335094 0.5521501 0.01981365
vn -0.8335094 0.5521501 0.01981365
vn -0.8335094 0.5521501 0.01981365
vn -0.8335094 0.5521501 0.01981365
vn -0.8335094 0.5521501 0.01981365
vn -0.6214057 0.2795803 0.7319084
vn -0.6214057 0.2795803 0.7319084
vn -0.6214057 0.2795803 0.7319084
vn -0.6214057 0.2795803 0.7319084
vn -0.6214057 0.2795803 0.7319084
vn -0.6214057 0.2795803 0.7319084
vn -0.6214057 0.2795803 0.7319084
vn -0.6214057 0.2795803 0.7319084
vn -0.6214057 0.2795803 0.7319084
vn -0.6214057 0.2795803 0.7319084
vn -0.6214057 0.2795803 0.7319084
vn -0.6214057 0.2795803 0.7319084
vn -0.6214057 0.2795803 0.7319084
vn -0.6214057 0.2795803 0.7319084
vn -0.6214057 0.2795803 0.7319084
vn 0.1794759 -0.981382 -0.0683945
vn 0.1794759 -0.981382 -0.0683945
vn 0.1794759 -0.981382 -0.0683945
vn 0.1794759 -0.981382 -0.0683945
vn 0.1794759 -0.981382 -0.0683945
vn 0.1794759 -0.981382 -0.0683945
vn 0.1794759 -0.981382 -0.0683945
vn 0.1794759 -0.981382 -0.0683945
vn 0.1794759 -0.981382 -0.0683945
vn -0.1635993 -0.3267253 0.9308523
vn -0.1635993 -0.3267253 0.9308523
vn -0.1635993 -0.3267253 0.9308523
vn -0.1635993 -0.3267253 0.9308523
vn -0.1635993 -0.3267253 0.9308523
vn -0.1635993 -0.3267253 0.9308523
vn -0.1635993 -0.3267253 0.9308523
vn -0.1635993 -0.3267253 0.9308523
vn -0.1635993 -0.3267253 0.9308523
vn -0.1635993 -0.3267253 0.9308523
vn -0.1635993 -0.3267253 0.9308523
vn -0.1635993 -0.3267253 0.9308523
vn -0.1635993 -0.3267253 0.9308523
vn -0.1635993 -0.3267253 0.9308523
vn -0.1635993 -0.3267253 0.9308523
vn -0.1635993 -0.3267253 0.9308523
vn -0.1635993 -0.3267253 0.9308523
vn -0.1635993 -0.3267253 0.9308523
vn -0.1635993 -0.3267253 0.9308523
vn -0.1635993 -0.3267253 0.9308523
vn -0.1635993 -0.3267253 0.9308523
vn -0.8242751 0.05318493 0.563686
vn -0.8242751 0.05318493 0.563686
vn -0.8242751 0.05318493 0.563686
vn -0.8242751 0.05318493 0.563686
vn -0.8242751 0.05318493 0.563686
vn -0.8242751 0.05318493 0.563686
vn -0.8242751 0.05318493 0.563686
vn -0.8242751 0.05318493 0.563686
vn -0.8242751 0.05318493 0.563686

vt 0.2533071 0.314921
vt 0.272727 0.314921
vt 0.268178 0.3228002
vt 0.3154674 0.3177307
vt 0.2982394 0.3197451
vt 0.3171448 0.314921
vt 0.3171448 0.314921
vt 0.2982394 0.3197451
vt 0.2954543 0.314921
vt 0.2982394 0.3197451
vt 0.2920035 0.320898
vt 0.2954543 0.314921
vt 0.272727 0.314921
vt 0.2954543 0.314921
vt 0.277276 0.3228002
vt 0.277276 0.3228002
vt 0.2954543 0.314921
vt 0.2920035 0.320898
vt 0.3211359 0.3098038
vt 0.321153 0.3104089
vt 0.3200837 0.3116263
vt 0.3211359 0.3098038
vt 0.3200837 0.3116263
vt 0.3210311 0.3063244
vt 0.3210311 0.3063244
vt 0.3200837 0.3116263
vt 0.3110002 0.3024825
vt 0.3110002 0.3024825
vt 0.3200837 0.3116263
vt 0.3177851 0.3142344
vt 0.2954543 0.314921
vt 0.304022 0.3000811
vt 0.3171448 0.314921
vt 0.3171448 0.314921
vt 0.304022 0.3000811
vt 0.3177851 0.3142344
vt 0.3177851 0.3142344
vt 0.304022 0.3000811
vt 0.3110002 0.3024825
vt 0.2858415 0.292206
vt 0.2928197 0.2952385
vt 0.2840906 0.2952385
vt 0.2840906 0.2952385
vt 0.2928197 0.2952385
vt 0.2954543 0.314921
vt 0.2954543 0.314921
vt 0.2928197 0.2952385
vt 0.304022 0.3000811
vt 0.272727 0.314921
vt 0.2840906 0.2952385
vt 0.2954543 0.314921
vt 0.272727 0.314921
vt 0.2533071 0.314921
vt 0.2623865 0.2970107
vt 0.2623865 0.2970107
vt 0.2533071 0.314921
vt 0.2569345 0.3029097
vt 0.2569345 0.3029097
vt 0.2533071 0.314921
vt 0.2520961 0.31129
vt 0.2520961 0.31129
vt 0.2533071 0.314921
vt 0.2521497 0.3144295
vt 0.2520961 0.31129
vt 0.2522357 0.3082775
vt 0.2569345 0.3029097
vt 0.2840906 0.2952385
vt 0.272727 0.314921
vt 0.2631707 0.2952385
vt 0.2631707 0.2952385
vt 0.272727 0.314921
vt 0.2623865 0.2970107
vt 0.2858415 0.292206
vt 0.2840906 0.2952385
vt 0.2782449 0.2849611
vt 0.2782449 0.2849611
vt 0.2840906 0.2952385
vt 0.2781653 0.2849755
vt 0.2674223 0.2869292
vt 0.2781653 0.2849755
vt 0.2631707 0.2952385
vt 0.2631707 0.2952385
vt 0.2781653 0.2849755
vt 0.2840906 0.2952385
vt 0.4020185 0.5315791
vt 0.3541705 0.3652336
vt 0.4177554 0.5366513
vt 0.4177554 0.5366513
vt 0.3541705 0.3652336
vt 0.6661229 0.4729586
vt 0.6661229 0.4729586
vt 0.3541705 0.3652336
vt 0.6148387 0.4184492
vt 0.6148387 0.4184492
vt 0.3541705 0.3652336
vt 0.5732769 0.3819314
vt 0.5732769 0.3819314
vt 0.3541705 0.3652336
vt 0.5059792 0.327258
vt 0.5059792 0.327258
vt 0.3541705 0.3652336
vt 0.4605313 0.296914
vt 0.4605313 0.296914
vt 0.3541705 0.3652336
vt 0.3892397 0.2537115
vt 0.6464811 0.3555768
vt 0.6574036 0.3651633
vt 0.4712897 0.3721902
vt 0.4712897 0.3721902
vt 0.6574036 0.3651633
vt 0.3930883 0.5455393
vt 0.3930883 0.5455393
vt 0.6574036 0.3651633
vt 0.407011 0.5879168
vt 0.407011 0.5879168
vt 0.6574036 0.3651633
vt 0.6260611 0.6384134
vt 0.6260611 0.6384134
vt 0.6574036 0.3651633
vt 0.6403307 0.6328631
vt 0.37805 0.5544273
vt 0.3713418 0.3381664
vt 0.3826815 0.5576994
vt 0.3826815 0.5576994
vt 0.3713418 0.3381664
vt 0.5151767 0.4417849
vt 0.5151767 0.4417849
vt 0.3713418 0.3381664
vt 0.4281716 0.3008096
vt 0.4281716 0.3008096
vt 0.3713418 0.3381664
vt 0.371759 0.3378429
vt 0.2901824 0.4489947
vt 0.2941248 0.4383441
vt 0.2719235 0.5069496
vt 0.2719235 0.5069496
vt 0.2941248 0.4383441
vt 0.4570014 0.5398109
vt 0.4570014 0.5398109
vt 0.2941248 0.4383441
vt 0.4782464 0.5063496
vt 0.4782464 0.5063496
vt 0.2941248 0.4383441
vt 0.3391133 0.3423854
vt 0.3391133 0.3423854
vt 0.2941248 0.4383441
vt 0.3176527 0.3875427
vt 0.4117503 0.5139719
vt 0.4162084 0.5007899
vt 0.4150459 0.5145063
vt 0.4150459 0.5145063
vt 0.4162084 0.5007899
vt 0.4208353 0.5040432
vt 0.4602547 0.3738122
vt 0.5748519 0.3529751
vt 0.5832899 0.5622841
vt 0.5832899 0.5622841
vt 0.5748519 0.3529751
vt 0.5867964 0.5615059
vt 0.5867964 0.5615059
vt 0.5748519 0.3529751
vt 0.6642571 0.425523
vt 0.643706 0.391396
vt 0.6455342 0.39479
vt 0.5395999 0.4073532
vt 0.5395999 0.4073532
vt 0.6455342 0.39479
vt 0.50942 0.4299248
vt 0.50942 0.4299248
vt 0.6455342 0.39479
vt 0.5954125 0.4904393
vt 0.5954125 0.4904393
vt 0.6455342 0.39479
vt 0.6548816 0.4143989
vt 0.7136287 0.4795261
vt 0.7311704 0.5047932
vt 0.5849681 0.5548961
vt 0.5849681 0.5548961
vt 0.7311704 0.5047932
vt 0.6046287 0.5862011
vt 0.6046287 0.5862011
vt 0.7311704 0.5047932
vt 0.7552936 0.5518491
vt 0.7552936 0.5518491
vt 0.7311704 0.5047932
vt 0.7490589 0.5389202
vt 0.7490589 0.5389202
vt 0.7311704 0.5047932
vt 0.7350425 0.5113092
vt 0.4469742 0.5454456
vt 0.3071849 0.4229682
vt 0.5512631 0.4432053
vt 0.5512631 0.4432053
vt 0.3071849 0.4229682
vt 0.3223124 0.3901772
vt 0.3223124 0.3901772
vt 0.3071849 0.4229682
vt 0.3145072 0.4065516
vt 0.4264559 0.5188659
vt 0.4800699 0.2873322
vt 0.5075731 0.6288598
vt 0.5075731 0.6288598
vt 0.4800699 0.2873322
vt 0.6374056 0.5866792
vt 0.6374056 0.5866792
vt 0.4800699 0.2873322
vt 0.7108723 0.5144969
vt 0.7108723 0.5144969
vt 0.4800699 0.2873322
vt 0.6452904 0.4337782
vt 0.6452904 0.4337782
vt 0.4800699 0.2873322
vt 0.6196389 0.4072782
vt 0.6196389 0.4072782
vt 0.4800699 0.2873322
vt 0.5616325 0.3520938
vt 0.5616325 0.3520938
vt 0.4800699 0.2873322
vt 0.4850577 0.2909887
vt 0.6506345 0.4936082
vt 0.6192076 0.5266758
vt 0.6288176 0.4723023
vt 0.6288176 0.4723023
vt 0.6192076 0.5266758
vt 0.4823154 0.5438986
vt 0.4823154 0.5438986
vt 0.6192076 0.5266758
vt 0.4929847 0.5521397

usemtl Material0
usemap Material0
f 1/1/1 2/2/2 3/3/3
f 4/4/4 5/5/5 6/6/6
f 7/7/7 8/8/8 9/9/9
f 10/10/10 11/11/11 12/12/12
f 13/13/13 14/14/14 15/15/15
f 16/16/16 17/17/17 18/18/18
f 19/19/19 20/20/20 21/21/21
f 22/22/22 23/23/23 24/24/24
f 25/25/25 26/26/26 27/27/27
f 28/28/28 29/29/29 30/30/30
f 31/31/31 32/32/32 33/33/33
f 34/34/34 35/35/35 36/36/36
f 37/37/37 38/38/38 39/39/39
f 40/40/40 41/41/41 42/42/42
f 43/43/43 44/44/44 45/45/45
f 46/46/46 47/47/47 48/48/48
f 49/49/49 50/50/50 51/51/51
f 52/52/52 53/53/53 54/54/54
f 55/55/55 56/56/56 57/57/57
f 58/58/58 59/59/59 60/60/60
f 61/61/61 62/62/62 63/63/63
f 64/64/64 65/65/65 66/66/66
f 67/67/67 68/68/68 69/69/69
f 70/70/70 71/71/71 72/72/72
f 73/73/73 74/74/74 75/75/75
f 76/76/76 77/77/77 78/78/78
f 79/79/79 80/80/80 81/81/81
f 82/82/82 83/83/83 84/84/84

usemtl Material1
usemap Material1
f 85/85/85 86/86/86 87/87/87
f 88/88/88 89/89/89 90/90/90
f 91/91/91 92/92/92 93/93/93
f 94/94/94 95/95/95 96/96/96
f 97/97/97 98/98/98 99/99/99
f 100/100/100 101/101/101 102/102/102
f 103/103/103 104/104/104 105/105/105
f 106/106/106 107/107/107 108/108/108
f 109/109/109 110/110/110 111/111/111
f 112/112/112 113/113/113 114/114/114
f 115/115/115 116/116/116 117/117/117
f 118/118/118 119/119/119 120/120/120
f 121/121/121 122/122/122 123/123/123
f 124/124/124 125/125/125 126/126/126
f 127/127/127 128/128/128 129/129/129
f 130/130/130 131/131/131 132/132/132
f 133/133/133 134/134/134 135/135/135
f 136/136/136 137/137/137 138/138/138
f 139/139/139 140/140/140 141/141/141
f 142/142/142 143/143/143 144/144/144
f 145/145/145 146/146/146 147/147/147
f 148/148/148 149/149/149 150/150/150
f 151/151/151 152/152/152 153/153/153
f 154/154/154 155/155/155 156/156/156
f 157/157/157 158/158/158 159/159/159
f 160/160/160 161/161/161 162/162/162
f 163/163/163 164/164/164 165/165/165
f 166/166/166 167/167/167 168/168/168
f 169/169/169 170/170/170 171/171/171
f 172/172/172 173/173/173 174/174/174
f 175/175/175 176/176/176 177/177/177
f 178/178/178 179/179/179 180/180/180
f 181/181/181 182/182/182 183/183/183
f 184/184/184 185/185/185 186/186/186
f 187/187/187 188/188/188 189/189/189
f 190/190/190 191/191/191 192/192/192
f 193/193/193 194/194/194 195/195/195
f 196/196/196 197/197/197 198/198/198
f 199/199/199 200/200/200 201/201/201
f 202/202/202 203/203/203 204/204/204
f 205/205/205 206/206/206 207/207/207
f 208/208/208 209/209/209 210/210/210
f 211/211/211 212/212/212 213/213/213
f 214/214/214 215/215/215 216/216/216
f 217/217/217 218/218/218 219/219/219
f 220/220/220 221/221/221 222/222/222
f 223/223/223 224/224/224 225/225/225
f 226/226/226 227/227/227 228/228/228
