g  Instance
v -4.012859 -48.67658 0.746531
v -3.46985 -47.93994 0.4437813
v -3.906902 -48.74916 0.3643966
v -3.906902 -48.74916 0.3643966
v -3.46985 -47.93994 0.4437813
v -3.363618 -48.2674 -0.3196955
v -3.363618 -48.2674 -0.3196955
v -3.46985 -47.93994 0.4437813
v -3.226837 -47.79372 0.03433429
v -4.012859 -48.67658 0.746531
v -3.906902 -48.74916 0.3643966
v -3.80141 -48.73928 1.551017
v -3.80141 -48.73928 1.551017
v -3.906902 -48.74916 0.3643966
v -2.534965 -49.39212 1.079288
v -2.534965 -49.39212 1.079288
v -3.906902 -48.74916 0.3643966
v -2.93066 -49.24459 0.1498673
v -1.229199 -49.61983 0.5570231
v -0.3863891 -49.04528 -0.03010366
v -1.258352 -49.62399 0.6967945
v -1.258352 -49.62399 0.6967945
v -0.3863891 -49.04528 -0.03010366
v -0.3216947 -48.91124 0.6088498
v -1.258352 -49.62399 0.6967945
v -0.3216947 -48.91124 0.6088498
v -2.534965 -49.39212 1.079288
v -2.534965 -49.39212 1.079288
v -0.3216947 -48.91124 0.6088498
v -3.80141 -48.73928 1.551017
v -3.80141 -48.73928 1.551017
v -0.3216947 -48.91124 0.6088498
v -3.157667 -47.99976 1.545065
v -3.157667 -47.99976 1.545065
v -0.3216947 -48.91124 0.6088498
v -1.526791 -47.92567 1.137249
v -1.526791 -47.92567 1.137249
v -0.3216947 -48.91124 0.6088498
v -0.4145139 -48.51834 0.7187312
v -2.639146 -47.5514 0.694077
v -3.102688 -47.81302 1.218475
v -1.526791 -47.92567 1.137249
v -1.526791 -47.92567 1.137249
v -3.102688 -47.81302 1.218475
v -3.157667 -47.99976 1.545065
v -3.906902 -48.74916 0.3643966
v -3.363618 -48.2674 -0.3196955
v -2.93066 -49.24459 0.1498673
v -2.93066 -49.24459 0.1498673
v -3.363618 -48.2674 -0.3196955
v -1.595314 -49.47052 -0.4803547
v -1.595314 -49.47052 -0.4803547
v -3.363618 -48.2674 -0.3196955
v -1.512193 -49.33277 -0.6327599
v -1.512193 -49.33277 -0.6327599
v -3.363618 -48.2674 -0.3196955
v -2.594324 -48.3624 -0.7089719
v -1.258352 -49.62399 0.6967945
v -2.534965 -49.39212 1.079288
v -1.229199 -49.61983 0.5570231
v -1.229199 -49.61983 0.5570231
v -2.534965 -49.39212 1.079288
v -1.251518 -49.5728 -0.0315794
v -1.251518 -49.5728 -0.0315794
v -2.534965 -49.39212 1.079288
v -1.527776 -49.48351 -0.4904797
v -1.527776 -49.48351 -0.4904797
v -2.534965 -49.39212 1.079288
v -1.595314 -49.47052 -0.4803547
v -1.595314 -49.47052 -0.4803547
v -2.534965 -49.39212 1.079288
v -2.93066 -49.24459 0.1498673
v -1.527776 -49.48351 -0.4904797
v -1.595314 -49.47052 -0.4803547
v -1.440764 -49.37192 -0.6203387
v -1.440764 -49.37192 -0.6203387
v -1.595314 -49.47052 -0.4803547
v -1.512193 -49.33277 -0.6327599
v -1.527776 -49.48351 -0.4904797
v -1.440764 -49.37192 -0.6203387
v -1.251518 -49.5728 -0.0315794
v -1.251518 -49.5728 -0.0315794
v -1.440764 -49.37192 -0.6203387
v -0.4611309 -49.0732 -0.2015888
v -3.157667 -47.99976 1.545065
v -3.102688 -47.81302 1.218475
v -3.80141 -48.73928 1.551017
v -3.80141 -48.73928 1.551017
v -3.102688 -47.81302 1.218475
v -4.012859 -48.67658 0.746531
v -4.012859 -48.67658 0.746531
v -3.102688 -47.81302 1.218475
v -3.46985 -47.93994 0.4437813
v -3.363618 -48.2674 -0.3196955
v -3.226837 -47.79372 0.03433429
v -2.594324 -48.3624 -0.7089719
v -2.594324 -48.3624 -0.7089719
v -3.226837 -47.79372 0.03433429
v -2.31428 -47.99784 -0.5063162
v -2.31428 -47.99784 -0.5063162
v -3.226837 -47.79372 0.03433429
v -2.865407 -47.61783 0.04169967
v -2.31428 -47.99784 -0.5063162
v -2.865407 -47.61783 0.04169967
v -0.4975252 -48.68957 -0.09986802
v -0.4975252 -48.68957 -0.09986802
v -2.865407 -47.61783 0.04169967
v -0.4145139 -48.51834 0.7187312
v -0.4145139 -48.51834 0.7187312
v -2.865407 -47.61783 0.04169967
v -1.526791 -47.92567 1.137249
v -1.526791 -47.92567 1.137249
v -2.865407 -47.61783 0.04169967
v -2.639146 -47.5514 0.694077
v -0.4611309 -49.0732 -0.2015888
v -0.4099218 -49.04462 -0.1758462
v -1.251518 -49.5728 -0.0315794
v -1.251518 -49.5728 -0.0315794
v -0.4099218 -49.04462 -0.1758462
v -1.229199 -49.61983 0.5570231
v -1.229199 -49.61983 0.5570231
v -0.4099218 -49.04462 -0.1758462
v -0.3863891 -49.04528 -0.03010366
v -0.4099218 -49.04462 -0.1758462
v -0.4611309 -49.0732 -0.2015888
v -0.4975252 -48.68957 -0.09986802
v -0.4975252 -48.68957 -0.09986802
v -0.4611309 -49.0732 -0.2015888
v -2.31428 -47.99784 -0.5063162
v -2.31428 -47.99784 -0.5063162
v -0.4611309 -49.0732 -0.2015888
v -2.594324 -48.3624 -0.7089719
v -2.594324 -48.3624 -0.7089719
v -0.4611309 -49.0732 -0.2015888
v -1.512193 -49.33277 -0.6327599
v -1.512193 -49.33277 -0.6327599
v -0.4611309 -49.0732 -0.2015888
v -1.440764 -49.37192 -0.6203387
v -3.226837 -47.79372 0.03433429
v -3.46985 -47.93994 0.4437813
v -2.865407 -47.61783 0.04169967
v -2.865407 -47.61783 0.04169967
v -3.46985 -47.93994 0.4437813
v -2.639146 -47.5514 0.694077
v -2.639146 -47.5514 0.694077
v -3.46985 -47.93994 0.4437813
v -3.102688 -47.81302 1.218475
v -0.3216947 -48.91124 0.6088498
v -0.3863891 -49.04528 -0.03010366
v -0.4145139 -48.51834 0.7187312
v -0.4145139 -48.51834 0.7187312
v -0.3863891 -49.04528 -0.03010366
v -0.4975252 -48.68957 -0.09986802
v -0.4975252 -48.68957 -0.09986802
v -0.3863891 -49.04528 -0.03010366
v -0.4099218 -49.04462 -0.1758462

vn -0.820892 0.4745242 -0.3177469
vn -0.820892 0.4745242 -0.3177469
vn -0.820892 0.4745242 -0.3177469
vn -0.820892 0.4745242 -0.3177469
vn -0.820892 0.4745242 -0.3177469
vn -0.820892 0.4745242 -0.3177469
vn -0.820892 0.4745242 -0.3177469
vn -0.820892 0.4745242 -0.3177469
vn -0.820892 0.4745242 -0.3177469
vn -0.443832 -0.8948815 0.04690905
vn -0.443832 -0.8948815 0.04690905
vn -0.443832 -0.8948815 0.04690905
vn -0.443832 -0.8948815 0.04690905
vn -0.443832 -0.8948815 0.04690905
vn -0.443832 -0.8948815 0.04690905
vn -0.443832 -0.8948815 0.04690905
vn -0.443832 -0.8948815 0.04690905
vn -0.443832 -0.8948815 0.04690905
vn 0.6084492 -0.78682 0.1034601
vn 0.6084492 -0.78682 0.1034601
vn 0.6084492 -0.78682 0.1034601
vn 0.6084492 -0.78682 0.1034601
vn 0.6084492 -0.78682 0.1034601
vn 0.6084492 -0.78682 0.1034601
vn 0.2461792 -0.2066736 0.9469329
vn 0.2461792 -0.2066736 0.9469329
vn 0.2461792 -0.2066736 0.9469329
vn 0.2461792 -0.2066736 0.9469329
vn 0.2461792 -0.2066736 0.9469329
vn 0.2461792 -0.2066736 0.9469329
vn 0.2461792 -0.2066736 0.9469329
vn 0.2461792 -0.2066736 0.9469329
vn 0.2461792 -0.2066736 0.9469329
vn 0.2461792 -0.2066736 0.9469329
vn 0.2461792 -0.2066736 0.9469329
vn 0.2461792 -0.2066736 0.9469329
vn 0.2461792 -0.2066736 0.9469329
vn 0.2461792 -0.2066736 0.9469329
vn 0.2461792 -0.2066736 0.9469329
vn 0.08741241 0.8583784 0.5055152
vn 0.08741241 0.8583784 0.5055152
vn 0.08741241 0.8583784 0.5055152
vn 0.08741241 0.8583784 0.5055152
vn 0.08741241 0.8583784 0.5055152
vn 0.08741241 0.8583784 0.5055152
vn -0.4323638 -0.5389379 -0.7229161
vn -0.4323638 -0.5389379 -0.7229161
vn -0.4323638 -0.5389379 -0.7229161
vn -0.4323638 -0.5389379 -0.7229161
vn -0.4323638 -0.5389379 -0.7229161
vn -0.4323638 -0.5389379 -0.7229161
vn -0.4323638 -0.5389379 -0.7229161
vn -0.4323638 -0.5389379 -0.7229161
vn -0.4323638 -0.5389379 -0.7229161
vn -0.4323638 -0.5389379 -0.7229161
vn -0.4323638 -0.5389379 -0.7229161
vn -0.4323638 -0.5389379 -0.7229161
vn -0.1986887 -0.9775184 -0.07057257
vn -0.1986887 -0.9775184 -0.07057257
vn -0.1986887 -0.9775184 -0.07057257
vn -0.1986887 -0.9775184 -0.07057257
vn -0.1986887 -0.9775184 -0.07057257
vn -0.1986887 -0.9775184 -0.07057257
vn -0.1986887 -0.9775184 -0.07057257
vn -0.1986887 -0.9775184 -0.07057257
vn -0.1986887 -0.9775184 -0.07057257
vn -0.1986887 -0.9775184 -0.07057257
vn -0.1986887 -0.9775184 -0.07057257
vn -0.1986887 -0.9775184 -0.07057257
vn -0.1986887 -0.9775184 -0.07057257
vn -0.1986887 -0.9775184 -0.07057257
vn -0.1986887 -0.9775184 -0.07057257
vn -0.2337476 -0.6544935 -0.7190273
vn -0.2337476 -0.6544935 -0.7190273
vn -0.2337476 -0.6544935 -0.7190273
vn -0.2337476 -0.6544935 -0.7190273
vn -0.2337476 -0.6544935 -0.7190273
vn -0.2337476 -0.6544935 -0.7190273
vn 0.4221566 -0.80784 -0.4113131
vn 0.4221566 -0.80784 -0.4113131
vn 0.4221566 -0.80784 -0.4113131
vn 0.4221566 -0.80784 -0.4113131
vn 0.4221566 -0.80784 -0.4113131
vn 0.4221566 -0.80784 -0.4113131
vn -0.7309035 0.6381875 0.2418613
vn -0.7309035 0.6381875 0.2418613
vn -0.7309035 0.6381875 0.2418613
vn -0.7309035 0.6381875 0.2418613
vn -0.7309035 0.6381875 0.2418613
vn -0.7309035 0.6381875 0.2418613
vn -0.7309035 0.6381875 0.2418613
vn -0.7309035 0.6381875 0.2418613
vn -0.7309035 0.6381875 0.2418613
vn -0.2895083 0.6252511 -0.7247387
vn -0.2895083 0.6252511 -0.7247387
vn -0.2895083 0.6252511 -0.7247387
vn -0.2895083 0.6252511 -0.7247387
vn -0.2895083 0.6252511 -0.7247387
vn -0.2895083 0.6252511 -0.7247387
vn -0.2895083 0.6252511 -0.7247387
vn -0.2895083 0.6252511 -0.7247387
vn -0.2895083 0.6252511 -0.7247387
vn 0.3904003 0.8924164 -0.2262314
vn 0.3904003 0.8924164 -0.2262314
vn 0.3904003 0.8924164 -0.2262314
vn 0.3904003 0.8924164 -0.2262314
vn 0.3904003 0.8924164 -0.2262314
vn 0.3904003 0.8924164 -0.2262314
vn 0.3904003 0.8924164 -0.2262314
vn 0.3904003 0.8924164 -0.2262314
vn 0.3904003 0.8924164 -0.2262314
vn 0.3904003 0.8924164 -0.2262314
vn 0.3904003 0.8924164 -0.2262314
vn 0.3904003 0.8924164 -0.2262314
vn 0.5186772 -0.8504634 -0.08767097
vn 0.5186772 -0.8504634 -0.08767097
vn 0.5186772 -0.8504634 -0.08767097
vn 0.5186772 -0.8504634 -0.08767097
vn 0.5186772 -0.8504634 -0.08767097
vn 0.5186772 -0.8504634 -0.08767097
vn 0.5186772 -0.8504634 -0.08767097
vn 0.5186772 -0.8504634 -0.08767097
vn 0.5186772 -0.8504634 -0.08767097
vn 0.3072765 0.271032 -0.9122077
vn 0.3072765 0.271032 -0.9122077
vn 0.3072765 0.271032 -0.9122077
vn 0.3072765 0.271032 -0.9122077
vn 0.3072765 0.271032 -0.9122077
vn 0.3072765 0.271032 -0.9122077
vn 0.3072765 0.271032 -0.9122077
vn 0.3072765 0.271032 -0.9122077
vn 0.3072765 0.271032 -0.9122077
vn 0.3072765 0.271032 -0.9122077
vn 0.3072765 0.271032 -0.9122077
vn 0.3072765 0.271032 -0.9122077
vn 0.3072765 0.271032 -0.9122077
vn 0.3072765 0.271032 -0.9122077
vn 0.3072765 0.271032 -0.9122077
vn -0.4377792 0.897043 0.06052668
vn -0.4377792 0.897043 0.06052668
vn -0.4377792 0.897043 0.06052668
vn -0.4377792 0.897043 0.06052668
vn -0.4377792 0.897043 0.06052668
vn -0.4377792 0.897043 0.06052668
vn -0.4377792 0.897043 0.06052668
vn -0.4377792 0.897043 0.06052668
vn -0.4377792 0.897043 0.06052668
vn 0.9514592 0.2674023 -0.1523859
vn 0.9514592 0.2674023 -0.1523859
vn 0.9514592 0.2674023 -0.1523859
vn 0.9514592 0.2674023 -0.1523859
vn 0.9514592 0.2674023 -0.1523859
vn 0.9514592 0.2674023 -0.1523859
vn 0.9514592 0.2674023 -0.1523859
vn 0.9514592 0.2674023 -0.1523859
vn 0.9514592 0.2674023 -0.1523859

vt 0.3732825 0.3956104
vt 0.4675817 0.4287201
vt 0.3722652 0.4373972
vt 0.3722652 0.4373972
vt 0.4675817 0.4287201
vt 0.4437022 0.5121999
vt 0.4437022 0.5121999
vt 0.4675817 0.4287201
vt 0.4933223 0.4734883
vt 0.6782642 0.4610751
vt 0.6657478 0.4987273
vt 0.6568786 0.3818142
vt 0.6568786 0.3818142
vt 0.6657478 0.4987273
vt 0.5166674 0.4282935
vt 0.5166674 0.4282935
vt 0.6657478 0.4987273
vt 0.5580135 0.5198691
vt 0.501254 0.4869984
vt 0.4006122 0.5453518
vt 0.5037854 0.4731133
vt 0.5037854 0.4731133
vt 0.4006122 0.5453518
vt 0.3874536 0.4818606
vt 0.3952072 0.4317671
vt 0.4639393 0.3337412
vt 0.4264559 0.5653686
vt 0.4264559 0.5653686
vt 0.4639393 0.3337412
vt 0.5013477 0.6979012
vt 0.5013477 0.6979012
vt 0.4639393 0.3337412
vt 0.5745144 0.6305286
vt 0.5745144 0.6305286
vt 0.4639393 0.3337412
vt 0.5730331 0.4598562
vt 0.5730331 0.4598562
vt 0.4639393 0.3337412
vt 0.505248 0.3434542
vt 0.3881943 0.5186315
vt 0.338668 0.4493838
vt 0.5185987 0.4601047
vt 0.5185987 0.4601047
vt 0.338668 0.4493838
vt 0.3345896 0.4062563
vt 0.7071127 0.3519109
vt 0.6897117 0.4927832
vt 0.554657 0.3960885
vt 0.554657 0.3960885
vt 0.6897117 0.4927832
vt 0.3863379 0.5258694
vt 0.3863379 0.5258694
vt 0.6897117 0.4927832
vt 0.3893756 0.5572494
vt 0.3893756 0.5572494
vt 0.6897117 0.4927832
vt 0.5958719 0.572944
vt 0.4130207 0.455356
vt 0.5408656 0.4175632
vt 0.4102878 0.4691662
vt 0.4102878 0.4691662
vt 0.5408656 0.4175632
vt 0.4133676 0.5273133
vt 0.4133676 0.5273133
vt 0.5408656 0.4175632
vt 0.441799 0.5726628
vt 0.441799 0.5726628
vt 0.5408656 0.4175632
vt 0.4485775 0.5716596
vt 0.4485775 0.5716596
vt 0.5408656 0.4175632
vt 0.5819867 0.5093966
vt 0.4059938 0.5070902
vt 0.4156084 0.5050276
vt 0.3997121 0.5335199
vt 0.3997121 0.5335199
vt 0.4156084 0.5050276
vt 0.4110894 0.5360513
vt 0.5017228 0.5377201
vt 0.4878329 0.5530866
vt 0.4797699 0.483417
vt 0.4797699 0.483417
vt 0.4878329 0.5530866
vt 0.3792594 0.5035369
vt 0.4507151 0.4121535
vt 0.4686271 0.446257
vt 0.3513765 0.41153
vt 0.3513765 0.41153
vt 0.4686271 0.446257
vt 0.3420666 0.4955302
vt 0.3420666 0.4955302
vt 0.4686271 0.446257
vt 0.4344767 0.5271445
vt 0.3156651 0.4618298
vt 0.3617693 0.3885131
vt 0.4095752 0.542436
vt 0.4095752 0.542436
vt 0.3617693 0.3885131
vt 0.4676848 0.5004711
vt 0.4676848 0.5004711
vt 0.3617693 0.3885131
vt 0.4191101 0.3869895
vt 0.4216462 0.5706846
vt 0.355319 0.5138969
vt 0.6176138 0.5285696
vt 0.6176138 0.5285696
vt 0.355319 0.5138969
vt 0.6183639 0.4437491
vt 0.6183639 0.4437491
vt 0.355319 0.5138969
vt 0.4915409 0.4003872
vt 0.4915409 0.4003872
vt 0.355319 0.5138969
vt 0.3735497 0.4463039
vt 0.3956619 0.5400921
vt 0.3898772 0.537542
vt 0.4879313 0.5232443
vt 0.4879313 0.5232443
vt 0.3898772 0.537542
vt 0.488461 0.4649284
vt 0.488461 0.4649284
vt 0.3898772 0.537542
vt 0.3879271 0.5230943
vt 0.5513006 0.3553471
vt 0.5548914 0.3609068
vt 0.5139015 0.3648586
vt 0.5139015 0.3648586
vt 0.5548914 0.3609068
vt 0.4573624 0.5620872
vt 0.4573624 0.5620872
vt 0.5548914 0.3609068
vt 0.4994257 0.592492
vt 0.4994257 0.592492
vt 0.5548914 0.3609068
vt 0.5932842 0.4750118
vt 0.5932842 0.4750118
vt 0.5548914 0.3609068
vt 0.5967907 0.4672582
vt 0.4041468 0.5345137
vt 0.3763202 0.4941145
vt 0.443735 0.5337824
vt 0.443735 0.5337824
vt 0.3763202 0.4941145
vt 0.4666301 0.4694193
vt 0.4666301 0.4694193
vt 0.3763202 0.4941145
vt 0.4143005 0.417671
vt 0.558276 0.4488165
vt 0.5693579 0.5131281
vt 0.5181581 0.4377534
vt 0.5181581 0.4377534
vt 0.5693579 0.5131281
vt 0.5323245 0.5201504
vt 0.5323245 0.5201504
vt 0.5693579 0.5131281
vt 0.5686641 0.5277914

usemtl Material0
usemap Material0

usemtl Material1
usemap Material1
f 1/1/1 2/2/2 3/3/3
f 4/4/4 5/5/5 6/6/6
f 7/7/7 8/8/8 9/9/9
f 10/10/10 11/11/11 12/12/12
f 13/13/13 14/14/14 15/15/15
f 16/16/16 17/17/17 18/18/18
f 19/19/19 20/20/20 21/21/21
f 22/22/22 23/23/23 24/24/24
f 25/25/25 26/26/26 27/27/27
f 28/28/28 29/29/29 30/30/30
f 31/31/31 32/32/32 33/33/33
f 34/34/34 35/35/35 36/36/36
f 37/37/37 38/38/38 39/39/39
f 40/40/40 41/41/41 42/42/42
f 43/43/43 44/44/44 45/45/45
f 46/46/46 47/47/47 48/48/48
f 49/49/49 50/50/50 51/51/51
f 52/52/52 53/53/53 54/54/54
f 55/55/55 56/56/56 57/57/57
f 58/58/58 59/59/59 60/60/60
f 61/61/61 62/62/62 63/63/63
f 64/64/64 65/65/65 66/66/66
f 67/67/67 68/68/68 69/69/69
f 70/70/70 71/71/71 72/72/72
f 73/73/73 74/74/74 75/75/75
f 76/76/76 77/77/77 78/78/78
f 79/79/79 80/80/80 81/81/81
f 82/82/82 83/83/83 84/84/84
f 85/85/85 86/86/86 87/87/87
f 88/88/88 89/89/89 90/90/90
f 91/91/91 92/92/92 93/93/93
f 94/94/94 95/95/95 96/96/96
f 97/97/97 98/98/98 99/99/99
f 100/100/100 101/101/101 102/102/102
f 103/103/103 104/104/104 105/105/105
f 106/106/106 107/107/107 108/108/108
f 109/109/109 110/110/110 111/111/111
f 112/112/112 113/113/113 114/114/114
f 115/115/115 116/116/116 117/117/117
f 118/118/118 119/119/119 120/120/120
f 121/121/121 122/122/122 123/123/123
f 124/124/124 125/125/125 126/126/126
f 127/127/127 128/128/128 129/129/129
f 130/130/130 131/131/131 132/132/132
f 133/133/133 134/134/134 135/135/135
f 136/136/136 137/137/137 138/138/138
f 139/139/139 140/140/140 141/141/141
f 142/142/142 143/143/143 144/144/144
f 145/145/145 146/146/146 147/147/147
f 148/148/148 149/149/149 150/150/150
f 151/151/151 152/152/152 153/153/153
f 154/154/154 155/155/155 156/156/156
