g  Instance
v -1.903852 -49.97107 2.329467
v -1.606337 -48.42269 2.903303
v -1.772885 -50.24094 3.000278
v -1.772885 -50.24094 3.000278
v -1.606337 -48.42269 2.903303
v -1.609603 -49.98534 3.576374
v -1.609603 -49.98534 3.576374
v -1.606337 -48.42269 2.903303
v -1.547958 -48.61388 3.233478
v -2.616086 -50.37478 2.281588
v -2.731404 -50.25682 2.270154
v -2.345896 -50.14921 2.16045
v -2.345896 -50.14921 2.16045
v -2.731404 -50.25682 2.270154
v -2.819453 -49.79997 2.153333
v -2.819453 -49.79997 2.153333
v -2.951143 -48.81362 2.437757
v -2.345896 -50.14921 2.16045
v -2.345896 -50.14921 2.16045
v -2.951143 -48.81362 2.437757
v -1.903852 -49.97107 2.329467
v -1.903852 -49.97107 2.329467
v -2.951143 -48.81362 2.437757
v -1.606337 -48.42269 2.903303
v -2.606313 -50.53091 2.59326
v -1.906106 -50.33002 3.017424
v -2.646503 -50.51949 2.65239
v -2.646503 -50.51949 2.65239
v -1.906106 -50.33002 3.017424
v -2.530265 -49.99181 4.52035
v -2.530265 -49.99181 4.52035
v -1.906106 -50.33002 3.017424
v -2.474484 -49.97857 4.544093
v -2.474484 -49.97857 4.544093
v -1.906106 -50.33002 3.017424
v -1.861819 -50.08765 3.879392
v -1.903852 -49.97107 2.329467
v -1.772885 -50.24094 3.000278
v -2.345896 -50.14921 2.16045
v -2.345896 -50.14921 2.16045
v -1.772885 -50.24094 3.000278
v -2.616086 -50.37478 2.281588
v -2.616086 -50.37478 2.281588
v -1.772885 -50.24094 3.000278
v -2.606313 -50.53091 2.59326
v -2.606313 -50.53091 2.59326
v -1.772885 -50.24094 3.000278
v -1.906106 -50.33002 3.017424
v -2.606313 -50.53091 2.59326
v -2.646503 -50.51949 2.65239
v -2.616086 -50.37478 2.281588
v -2.616086 -50.37478 2.281588
v -2.646503 -50.51949 2.65239
v -2.731404 -50.25682 2.270154
v -1.861819 -50.08765 3.879392
v -1.906106 -50.33002 3.017424
v -1.609603 -49.98534 3.576374
v -1.609603 -49.98534 3.576374
v -1.906106 -50.33002 3.017424
v -1.772885 -50.24094 3.000278
v -1.609603 -49.98534 3.576374
v -1.547958 -48.61388 3.233478
v -1.861819 -50.08765 3.879392
v -1.861819 -50.08765 3.879392
v -1.547958 -48.61388 3.233478
v -2.474484 -49.97857 4.544093
v -2.646503 -50.51949 2.65239
v -2.530265 -49.99181 4.52035
v -2.731404 -50.25682 2.270154
v -2.731404 -50.25682 2.270154
v -2.530265 -49.99181 4.52035
v -2.819453 -49.79997 2.153333
v -2.819453 -49.79997 2.153333
v -2.530265 -49.99181 4.52035
v -2.951143 -48.81362 2.437757
v -2.474484 -49.97857 4.544093
v -1.547958 -48.61388 3.233478
v -2.530265 -49.99181 4.52035
v -2.530265 -49.99181 4.52035
v -1.547958 -48.61388 3.233478
v -2.951143 -48.81362 2.437757
v -2.951143 -48.81362 2.437757
v -1.547958 -48.61388 3.233478
v -1.606337 -48.42269 2.903303

vn 0.9680401 -0.1009157 -0.2295965
vn 0.9680401 -0.1009157 -0.2295965
vn 0.9680401 -0.1009157 -0.2295965
vn 0.9680401 -0.1009157 -0.2295965
vn 0.9680401 -0.1009157 -0.2295965
vn 0.9680401 -0.1009157 -0.2295965
vn 0.9680401 -0.1009157 -0.2295965
vn 0.9680401 -0.1009157 -0.2295965
vn 0.9680401 -0.1009157 -0.2295965
vn -0.1905043 -0.2775071 -0.9416463
vn -0.1905043 -0.2775071 -0.9416463
vn -0.1905043 -0.2775071 -0.9416463
vn -0.1905043 -0.2775071 -0.9416463
vn -0.1905043 -0.2775071 -0.9416463
vn -0.1905043 -0.2775071 -0.9416463
vn 0.2337341 0.2980776 -0.9254827
vn 0.2337341 0.2980776 -0.9254827
vn 0.2337341 0.2980776 -0.9254827
vn 0.2337341 0.2980776 -0.9254827
vn 0.2337341 0.2980776 -0.9254827
vn 0.2337341 0.2980776 -0.9254827
vn 0.2337341 0.2980776 -0.9254827
vn 0.2337341 0.2980776 -0.9254827
vn 0.2337341 0.2980776 -0.9254827
vn 0.1152325 -0.9577826 0.2633894
vn 0.1152325 -0.9577826 0.2633894
vn 0.1152325 -0.9577826 0.2633894
vn 0.1152325 -0.9577826 0.2633894
vn 0.1152325 -0.9577826 0.2633894
vn 0.1152325 -0.9577826 0.2633894
vn 0.1152325 -0.9577826 0.2633894
vn 0.1152325 -0.9577826 0.2633894
vn 0.1152325 -0.9577826 0.2633894
vn 0.1152325 -0.9577826 0.2633894
vn 0.1152325 -0.9577826 0.2633894
vn 0.1152325 -0.9577826 0.2633894
vn 0.4709985 -0.7827351 -0.4068001
vn 0.4709985 -0.7827351 -0.4068001
vn 0.4709985 -0.7827351 -0.4068001
vn 0.4709985 -0.7827351 -0.4068001
vn 0.4709985 -0.7827351 -0.4068001
vn 0.4709985 -0.7827351 -0.4068001
vn 0.4709985 -0.7827351 -0.4068001
vn 0.4709985 -0.7827351 -0.4068001
vn 0.4709985 -0.7827351 -0.4068001
vn 0.4709985 -0.7827351 -0.4068001
vn 0.4709985 -0.7827351 -0.4068001
vn 0.4709985 -0.7827351 -0.4068001
vn -0.662078 -0.6781653 -0.3189743
vn -0.662078 -0.6781653 -0.3189743
vn -0.662078 -0.6781653 -0.3189743
vn -0.662078 -0.6781653 -0.3189743
vn -0.662078 -0.6781653 -0.3189743
vn -0.662078 -0.6781653 -0.3189743
vn 0.5623625 -0.8031003 0.1969225
vn 0.5623625 -0.8031003 0.1969225
vn 0.5623625 -0.8031003 0.1969225
vn 0.5623625 -0.8031003 0.1969225
vn 0.5623625 -0.8031003 0.1969225
vn 0.5623625 -0.8031003 0.1969225
vn 0.7395734 0.1317789 0.6600497
vn 0.7395734 0.1317789 0.6600497
vn 0.7395734 0.1317789 0.6600497
vn 0.7395734 0.1317789 0.6600497
vn 0.7395734 0.1317789 0.6600497
vn 0.7395734 0.1317789 0.6600497
vn -0.9810393 -0.1617661 0.1067415
vn -0.9810393 -0.1617661 0.1067415
vn -0.9810393 -0.1617661 0.1067415
vn -0.9810393 -0.1617661 0.1067415
vn -0.9810393 -0.1617661 0.1067415
vn -0.9810393 -0.1617661 0.1067415
vn -0.9810393 -0.1617661 0.1067415
vn -0.9810393 -0.1617661 0.1067415
vn -0.9810393 -0.1617661 0.1067415
vn -0.3983591 0.7614964 0.5113055
vn -0.3983591 0.7614964 0.5113055
vn -0.3983591 0.7614964 0.5113055
vn -0.3983591 0.7614964 0.5113055
vn -0.3983591 0.7614964 0.5113055
vn -0.3983591 0.7614964 0.5113055
vn -0.3983591 0.7614964 0.5113055
vn -0.3983591 0.7614964 0.5113055
vn -0.3983591 0.7614964 0.5113055

vt 0.5307869 0.6052334
vt 0.3721105 0.54568
vt 0.5565321 0.5356106
vt 0.5565321 0.5356106
vt 0.3721105 0.54568
vt 0.5291462 0.4758228
vt 0.5291462 0.4758228
vt 0.3721105 0.54568
vt 0.390707 0.5114124
vt 0.5308713 0.4978366
vt 0.5192175 0.5096029
vt 0.5057729 0.4702678
vt 0.5057729 0.4702678
vt 0.5192175 0.5096029
vt 0.472021 0.5185753
vt 0.5617825 0.5798163
vt 0.4580421 0.5935046
vt 0.5951781 0.5305666
vt 0.5951781 0.5305666
vt 0.4580421 0.5935046
vt 0.5727893 0.4845983
vt 0.5727893 0.4845983
vt 0.4580421 0.5935046
vt 0.4059844 0.4536543
vt 0.5498943 0.6104931
vt 0.476601 0.565678
vt 0.5538226 0.6042489
vt 0.5538226 0.6042489
vt 0.476601 0.565678
vt 0.535634 0.4069126
vt 0.535634 0.4069126
vt 0.476601 0.565678
vt 0.5298306 0.4044046
vt 0.5298306 0.4044046
vt 0.476601 0.565678
vt 0.4691708 0.4746227
vt 0.4927222 0.5902044
vt 0.4956286 0.511178
vt 0.5433689 0.610118
vt 0.5433689 0.610118
vt 0.4956286 0.511178
vt 0.5808054 0.5958391
vt 0.5808054 0.5958391
vt 0.4956286 0.511178
vt 0.5885684 0.5591245
vt 0.5885684 0.5591245
vt 0.4956286 0.511178
vt 0.5128515 0.5091622
vt 0.4532699 0.5511834
vt 0.4570811 0.5447143
vt 0.4653035 0.5852916
vt 0.4653035 0.5852916
vt 0.4570811 0.5447143
vt 0.4824091 0.5865386
vt 0.4991538 0.4710881
vt 0.516733 0.5592464
vt 0.4725507 0.5020743
vt 0.4725507 0.5020743
vt 0.516733 0.5592464
vt 0.5006633 0.5609996
vt 0.5592417 0.526657
vt 0.3839659 0.5863886
vt 0.566639 0.4738633
vt 0.566639 0.4738633
vt 0.3839659 0.5863886
vt 0.5385217 0.3580707
vt 0.4025998 0.5868105
vt 0.4522105 0.4010575
vt 0.429592 0.6248283
vt 0.429592 0.6248283
vt 0.4522105 0.4010575
vt 0.475579 0.6364446
vt 0.475579 0.6364446
vt 0.4522105 0.4010575
vt 0.5739238 0.6081586
vt 0.4319499 0.380361
vt 0.5982252 0.5548117
vt 0.4255933 0.3835253
vt 0.4255933 0.3835253
vt 0.5982252 0.5548117
vt 0.4454086 0.6607366
vt 0.4454086 0.6607366
vt 0.5982252 0.5548117
vt 0.6024442 0.5987643

usemtl Material0
usemap Material0

usemtl Material1
usemap Material1
f 1/1/1 2/2/2 3/3/3
f 4/4/4 5/5/5 6/6/6
f 7/7/7 8/8/8 9/9/9
f 10/10/10 11/11/11 12/12/12
f 13/13/13 14/14/14 15/15/15
f 16/16/16 17/17/17 18/18/18
f 19/19/19 20/20/20 21/21/21
f 22/22/22 23/23/23 24/24/24
f 25/25/25 26/26/26 27/27/27
f 28/28/28 29/29/29 30/30/30
f 31/31/31 32/32/32 33/33/33
f 34/34/34 35/35/35 36/36/36
f 37/37/37 38/38/38 39/39/39
f 40/40/40 41/41/41 42/42/42
f 43/43/43 44/44/44 45/45/45
f 46/46/46 47/47/47 48/48/48
f 49/49/49 50/50/50 51/51/51
f 52/52/52 53/53/53 54/54/54
f 55/55/55 56/56/56 57/57/57
f 58/58/58 59/59/59 60/60/60
f 61/61/61 62/62/62 63/63/63
f 64/64/64 65/65/65 66/66/66
f 67/67/67 68/68/68 69/69/69
f 70/70/70 71/71/71 72/72/72
f 73/73/73 74/74/74 75/75/75
f 76/76/76 77/77/77 78/78/78
f 79/79/79 80/80/80 81/81/81
f 82/82/82 83/83/83 84/84/84
