g  Instance
v -6.249654 -47.19437 -0.4372869
v -6.397985 -47.48399 -1.887442
v -4.94353 -45.89966 -0.1404798
v -4.94353 -45.89966 -0.1404798
v -6.397985 -47.48399 -1.887442
v -4.753806 -45.86401 -1.611479
v -4.753806 -45.86401 -1.611479
v -6.397985 -47.48399 -1.887442
v -4.819176 -46.01333 -2.465984
v -4.819176 -46.01333 -2.465984
v -6.397985 -47.48399 -1.887442
v -5.504749 -46.66735 -2.367841
v -5.504749 -46.66735 -2.367841
v -6.397985 -47.48399 -1.887442
v -6.273953 -47.37703 -2.018045
v -5.518168 -45.39245 0.5192028
v -5.019372 -45.59848 0.1184883
v -5.104328 -45.07684 0.2163566
v -6.410048 -47.47768 -1.886378
v -7.095739 -46.90881 -0.9877927
v -6.473224 -47.34995 -1.946759
v -6.473224 -47.34995 -1.946759
v -7.095739 -46.90881 -0.9877927
v -7.086919 -46.49602 -1.797842
v -7.086919 -46.49602 -1.797842
v -7.095739 -46.90881 -0.9877927
v -7.23543 -46.41167 -1.529359
v -7.23543 -46.41167 -1.529359
v -7.095739 -46.90881 -0.9877927
v -7.309531 -46.55312 -1.046547
v -5.104328 -45.07684 0.2163566
v -5.100133 -44.7922 -0.1122755
v -5.518168 -45.39245 0.5192028
v -5.518168 -45.39245 0.5192028
v -5.100133 -44.7922 -0.1122755
v -6.163381 -45.61447 0.6790084
v -6.163381 -45.61447 0.6790084
v -5.100133 -44.7922 -0.1122755
v -7.080468 -45.39682 0.2893351
v -7.080468 -45.39682 0.2893351
v -5.100133 -44.7922 -0.1122755
v -7.380332 -45.01445 -0.1980603
v -7.380332 -45.01445 -0.1980603
v -5.100133 -44.7922 -0.1122755
v -7.047382 -44.78845 -0.4094188
v -7.047382 -44.78845 -0.4094188
v -5.100133 -44.7922 -0.1122755
v -5.22001 -44.6412 -0.3049669
v -5.14422 -45.96621 -2.565567
v -4.878376 -45.92502 -2.516736
v -5.504749 -46.66735 -2.367841
v -5.504749 -46.66735 -2.367841
v -4.878376 -45.92502 -2.516736
v -4.819176 -46.01333 -2.465984
v -5.504749 -46.66735 -2.367841
v -6.273953 -47.37703 -2.018045
v -5.14422 -45.96621 -2.565567
v -5.14422 -45.96621 -2.565567
v -6.273953 -47.37703 -2.018045
v -6.690985 -45.71587 -2.015916
v -6.690985 -45.71587 -2.015916
v -6.273953 -47.37703 -2.018045
v -7.086919 -46.49602 -1.797842
v -7.086919 -46.49602 -1.797842
v -6.273953 -47.37703 -2.018045
v -6.473224 -47.34995 -1.946759
v -7.468485 -45.09149 -0.2540137
v -7.47481 -45.23415 -0.1948167
v -7.380332 -45.01445 -0.1980603
v -7.380332 -45.01445 -0.1980603
v -7.47481 -45.23415 -0.1948167
v -7.080468 -45.39682 0.2893351
v -7.080468 -45.39682 0.2893351
v -7.47481 -45.23415 -0.1948167
v -7.111224 -45.4178 0.267096
v -6.690985 -45.71587 -2.015916
v -7.271233 -45.02008 -0.7856303
v -5.14422 -45.96621 -2.565567
v -5.14422 -45.96621 -2.565567
v -7.271233 -45.02008 -0.7856303
v -4.878376 -45.92502 -2.516736
v -4.878376 -45.92502 -2.516736
v -7.271233 -45.02008 -0.7856303
v -5.22001 -44.6412 -0.3049669
v -5.22001 -44.6412 -0.3049669
v -7.271233 -45.02008 -0.7856303
v -7.047382 -44.78845 -0.4094188
v -7.309531 -46.55312 -1.046547
v -7.095739 -46.90881 -0.9877927
v -7.47481 -45.23415 -0.1948167
v -7.47481 -45.23415 -0.1948167
v -7.095739 -46.90881 -0.9877927
v -7.111224 -45.4178 0.267096
v -7.111224 -45.4178 0.267096
v -7.095739 -46.90881 -0.9877927
v -6.575348 -46.62193 0.1457227
v -6.575348 -46.62193 0.1457227
v -7.095739 -46.90881 -0.9877927
v -6.556161 -46.95907 -0.1112944
v -6.163381 -45.61447 0.6790084
v -7.080468 -45.39682 0.2893351
v -6.575348 -46.62193 0.1457227
v -6.575348 -46.62193 0.1457227
v -7.080468 -45.39682 0.2893351
v -7.111224 -45.4178 0.267096
v -7.271233 -45.02008 -0.7856303
v -7.410829 -45.10192 -0.6130625
v -7.047382 -44.78845 -0.4094188
v -7.047382 -44.78845 -0.4094188
v -7.410829 -45.10192 -0.6130625
v -7.380332 -45.01445 -0.1980603
v -7.380332 -45.01445 -0.1980603
v -7.410829 -45.10192 -0.6130625
v -7.468485 -45.09149 -0.2540137
v -6.410048 -47.47768 -1.886378
v -6.397985 -47.48399 -1.887442
v -7.095739 -46.90881 -0.9877927
v -7.095739 -46.90881 -0.9877927
v -6.397985 -47.48399 -1.887442
v -6.556161 -46.95907 -0.1112944
v -6.556161 -46.95907 -0.1112944
v -6.397985 -47.48399 -1.887442
v -6.249654 -47.19437 -0.4372869
v -6.575348 -46.62193 0.1457227
v -6.556161 -46.95907 -0.1112944
v -6.163381 -45.61447 0.6790084
v -6.163381 -45.61447 0.6790084
v -6.556161 -46.95907 -0.1112944
v -5.518168 -45.39245 0.5192028
v -5.518168 -45.39245 0.5192028
v -6.556161 -46.95907 -0.1112944
v -5.019372 -45.59848 0.1184883
v -5.019372 -45.59848 0.1184883
v -6.556161 -46.95907 -0.1112944
v -4.94353 -45.89966 -0.1404798
v -4.94353 -45.89966 -0.1404798
v -6.556161 -46.95907 -0.1112944
v -6.249654 -47.19437 -0.4372869
v -7.086919 -46.49602 -1.797842
v -7.23543 -46.41167 -1.529359
v -6.690985 -45.71587 -2.015916
v -6.690985 -45.71587 -2.015916
v -7.23543 -46.41167 -1.529359
v -7.271233 -45.02008 -0.7856303
v -7.271233 -45.02008 -0.7856303
v -7.23543 -46.41167 -1.529359
v -7.410829 -45.10192 -0.6130625
v -5.019372 -45.59848 0.1184883
v -4.94353 -45.89966 -0.1404798
v -5.104328 -45.07684 0.2163566
v -5.104328 -45.07684 0.2163566
v -4.94353 -45.89966 -0.1404798
v -5.100133 -44.7922 -0.1122755
v -5.100133 -44.7922 -0.1122755
v -4.94353 -45.89966 -0.1404798
v -4.753806 -45.86401 -1.611479
v -7.23543 -46.41167 -1.529359
v -7.309531 -46.55312 -1.046547
v -7.410829 -45.10192 -0.6130625
v -7.410829 -45.10192 -0.6130625
v -7.309531 -46.55312 -1.046547
v -7.468485 -45.09149 -0.2540137
v -7.468485 -45.09149 -0.2540137
v -7.309531 -46.55312 -1.046547
v -7.47481 -45.23415 -0.1948167
v -5.22001 -44.6412 -0.3049669
v -5.100133 -44.7922 -0.1122755
v -4.878376 -45.92502 -2.516736
v -4.878376 -45.92502 -2.516736
v -5.100133 -44.7922 -0.1122755
v -4.819176 -46.01333 -2.465984
v -4.819176 -46.01333 -2.465984
v -5.100133 -44.7922 -0.1122755
v -4.753806 -45.86401 -1.611479
v -6.397985 -47.48399 -1.887442
v -6.410048 -47.47768 -1.886378
v -6.273953 -47.37703 -2.018045
v -6.273953 -47.37703 -2.018045
v -6.410048 -47.47768 -1.886378
v -6.473224 -47.34995 -1.946759

vn 0.6938491 -0.7164993 0.0721266
vn 0.6938491 -0.7164993 0.0721266
vn 0.6938491 -0.7164993 0.0721266
vn 0.6938491 -0.7164993 0.0721266
vn 0.6938491 -0.7164993 0.0721266
vn 0.6938491 -0.7164993 0.0721266
vn 0.6938491 -0.7164993 0.0721266
vn 0.6938491 -0.7164993 0.0721266
vn 0.6938491 -0.7164993 0.0721266
vn 0.6938491 -0.7164993 0.0721266
vn 0.6938491 -0.7164993 0.0721266
vn 0.6938491 -0.7164993 0.0721266
vn 0.6938491 -0.7164993 0.0721266
vn 0.6938491 -0.7164993 0.0721266
vn 0.6938491 -0.7164993 0.0721266
vn 0.6134506 -0.04798617 0.7882739
vn 0.6134506 -0.04798617 0.7882739
vn 0.6134506 -0.04798617 0.7882739
vn -0.802371 -0.5281819 -0.2778937
vn -0.802371 -0.5281819 -0.2778937
vn -0.802371 -0.5281819 -0.2778937
vn -0.802371 -0.5281819 -0.2778937
vn -0.802371 -0.5281819 -0.2778937
vn -0.802371 -0.5281819 -0.2778937
vn -0.802371 -0.5281819 -0.2778937
vn -0.802371 -0.5281819 -0.2778937
vn -0.802371 -0.5281819 -0.2778937
vn -0.802371 -0.5281819 -0.2778937
vn -0.802371 -0.5281819 -0.2778937
vn -0.802371 -0.5281819 -0.2778937
vn -0.09786941 0.7528714 0.6508504
vn -0.09786941 0.7528714 0.6508504
vn -0.09786941 0.7528714 0.6508504
vn -0.09786941 0.7528714 0.6508504
vn -0.09786941 0.7528714 0.6508504
vn -0.09786941 0.7528714 0.6508504
vn -0.09786941 0.7528714 0.6508504
vn -0.09786941 0.7528714 0.6508504
vn -0.09786941 0.7528714 0.6508504
vn -0.09786941 0.7528714 0.6508504
vn -0.09786941 0.7528714 0.6508504
vn -0.09786941 0.7528714 0.6508504
vn -0.09786941 0.7528714 0.6508504
vn -0.09786941 0.7528714 0.6508504
vn -0.09786941 0.7528714 0.6508504
vn -0.09786941 0.7528714 0.6508504
vn -0.09786941 0.7528714 0.6508504
vn -0.09786941 0.7528714 0.6508504
vn 0.2229229 -0.3690689 -0.9022714
vn 0.2229229 -0.3690689 -0.9022714
vn 0.2229229 -0.3690689 -0.9022714
vn 0.2229229 -0.3690689 -0.9022714
vn 0.2229229 -0.3690689 -0.9022714
vn 0.2229229 -0.3690689 -0.9022714
vn -0.3458892 -0.08563958 -0.9343589
vn -0.3458892 -0.08563958 -0.9343589
vn -0.3458892 -0.08563958 -0.9343589
vn -0.3458892 -0.08563958 -0.9343589
vn -0.3458892 -0.08563958 -0.9343589
vn -0.3458892 -0.08563958 -0.9343589
vn -0.3458892 -0.08563958 -0.9343589
vn -0.3458892 -0.08563958 -0.9343589
vn -0.3458892 -0.08563958 -0.9343589
vn -0.3458892 -0.08563958 -0.9343589
vn -0.3458892 -0.08563958 -0.9343589
vn -0.3458892 -0.08563958 -0.9343589
vn -0.6857936 0.3046792 0.6609522
vn -0.6857936 0.3046792 0.6609522
vn -0.6857936 0.3046792 0.6609522
vn -0.6857936 0.3046792 0.6609522
vn -0.6857936 0.3046792 0.6609522
vn -0.6857936 0.3046792 0.6609522
vn -0.6857936 0.3046792 0.6609522
vn -0.6857936 0.3046792 0.6609522
vn -0.6857936 0.3046792 0.6609522
vn -0.04048014 0.8614219 -0.5062745
vn -0.04048014 0.8614219 -0.5062745
vn -0.04048014 0.8614219 -0.5062745
vn -0.04048014 0.8614219 -0.5062745
vn -0.04048014 0.8614219 -0.5062745
vn -0.04048014 0.8614219 -0.5062745
vn -0.04048014 0.8614219 -0.5062745
vn -0.04048014 0.8614219 -0.5062745
vn -0.04048014 0.8614219 -0.5062745
vn -0.04048014 0.8614219 -0.5062745
vn -0.04048014 0.8614219 -0.5062745
vn -0.04048014 0.8614219 -0.5062745
vn -0.7909689 -0.3987714 0.4640577
vn -0.7909689 -0.3987714 0.4640577
vn -0.7909689 -0.3987714 0.4640577
vn -0.7909689 -0.3987714 0.4640577
vn -0.7909689 -0.3987714 0.4640577
vn -0.7909689 -0.3987714 0.4640577
vn -0.7909689 -0.3987714 0.4640577
vn -0.7909689 -0.3987714 0.4640577
vn -0.7909689 -0.3987714 0.4640577
vn -0.7909689 -0.3987714 0.4640577
vn -0.7909689 -0.3987714 0.4640577
vn -0.7909689 -0.3987714 0.4640577
vn -0.4308081 -0.2782596 0.8584732
vn -0.4308081 -0.2782596 0.8584732
vn -0.4308081 -0.2782596 0.8584732
vn -0.4308081 -0.2782596 0.8584732
vn -0.4308081 -0.2782596 0.8584732
vn -0.4308081 -0.2782596 0.8584732
vn -0.6087789 0.7841294 -0.120538
vn -0.6087789 0.7841294 -0.120538
vn -0.6087789 0.7841294 -0.120538
vn -0.6087789 0.7841294 -0.120538
vn -0.6087789 0.7841294 -0.120538
vn -0.6087789 0.7841294 -0.120538
vn -0.6087789 0.7841294 -0.120538
vn -0.6087789 0.7841294 -0.120538
vn -0.6087789 0.7841294 -0.120538
vn -0.4369066 -0.8724558 0.2189374
vn -0.4369066 -0.8724558 0.2189374
vn -0.4369066 -0.8724558 0.2189374
vn -0.4369066 -0.8724558 0.2189374
vn -0.4369066 -0.8724558 0.2189374
vn -0.4369066 -0.8724558 0.2189374
vn -0.4369066 -0.8724558 0.2189374
vn -0.4369066 -0.8724558 0.2189374
vn -0.4369066 -0.8724558 0.2189374
vn 0.3739974 -0.5487117 0.7476907
vn 0.3739974 -0.5487117 0.7476907
vn 0.3739974 -0.5487117 0.7476907
vn 0.3739974 -0.5487117 0.7476907
vn 0.3739974 -0.5487117 0.7476907
vn 0.3739974 -0.5487117 0.7476907
vn 0.3739974 -0.5487117 0.7476907
vn 0.3739974 -0.5487117 0.7476907
vn 0.3739974 -0.5487117 0.7476907
vn 0.3739974 -0.5487117 0.7476907
vn 0.3739974 -0.5487117 0.7476907
vn 0.3739974 -0.5487117 0.7476907
vn 0.3739974 -0.5487117 0.7476907
vn 0.3739974 -0.5487117 0.7476907
vn 0.3739974 -0.5487117 0.7476907
vn -0.8073074 0.2618708 -0.5288465
vn -0.8073074 0.2618708 -0.5288465
vn -0.8073074 0.2618708 -0.5288465
vn -0.8073074 0.2618708 -0.5288465
vn -0.8073074 0.2618708 -0.5288465
vn -0.8073074 0.2618708 -0.5288465
vn -0.8073074 0.2618708 -0.5288465
vn -0.8073074 0.2618708 -0.5288465
vn -0.8073074 0.2618708 -0.5288465
vn 0.9822043 0.1355841 0.1299683
vn 0.9822043 0.1355841 0.1299683
vn 0.9822043 0.1355841 0.1299683
vn 0.9822043 0.1355841 0.1299683
vn 0.9822043 0.1355841 0.1299683
vn 0.9822043 0.1355841 0.1299683
vn 0.9822043 0.1355841 0.1299683
vn 0.9822043 0.1355841 0.1299683
vn 0.9822043 0.1355841 0.1299683
vn -0.9872171 -0.0217462 -0.1578914
vn -0.9872171 -0.0217462 -0.1578914
vn -0.9872171 -0.0217462 -0.1578914
vn -0.9872171 -0.0217462 -0.1578914
vn -0.9872171 -0.0217462 -0.1578914
vn -0.9872171 -0.0217462 -0.1578914
vn -0.9872171 -0.0217462 -0.1578914
vn -0.9872171 -0.0217462 -0.1578914
vn -0.9872171 -0.0217462 -0.1578914
vn 0.8590623 0.4890403 -0.1511681
vn 0.8590623 0.4890403 -0.1511681
vn 0.8590623 0.4890403 -0.1511681
vn 0.8590623 0.4890403 -0.1511681
vn 0.8590623 0.4890403 -0.1511681
vn 0.8590623 0.4890403 -0.1511681
vn 0.8590623 0.4890403 -0.1511681
vn 0.8590623 0.4890403 -0.1511681
vn 0.8590623 0.4890403 -0.1511681
vn -0.3480247 -0.5357061 -0.769349
vn -0.3480247 -0.5357061 -0.769349
vn -0.3480247 -0.5357061 -0.769349
vn -0.3480247 -0.5357061 -0.769349
vn -0.3480247 -0.5357061 -0.769349
vn -0.3480247 -0.5357061 -0.769349

vt 0.6173981 0.4608688
vt 0.6477562 0.6041833
vt 0.4361408 0.4315374
vt 0.4361408 0.4315374
vt 0.6477562 0.6041833
vt 0.4202586 0.5769099
vt 0.4202586 0.5769099
vt 0.6477562 0.6041833
vt 0.4351189 0.6613554
vt 0.4351189 0.6613554
vt 0.6477562 0.6041833
vt 0.5285087 0.6516517
vt 0.5285087 0.6516517
vt 0.6477562 0.6041833
vt 0.6316396 0.6170841
vt 0.4551966 0.4210603
vt 0.4818044 0.52511
vt 0.3997731 0.4996929
vt 0.3487748 0.5571088
vt 0.4359861 0.4613798
vt 0.3632507 0.5635498
vt 0.3632507 0.5635498
vt 0.4359861 0.4613798
vt 0.4707788 0.5476769
vt 0.4707788 0.5476769
vt 0.4359861 0.4613798
vt 0.4863468 0.5190722
vt 0.4863468 0.5190722
vt 0.4359861 0.4613798
vt 0.4784245 0.4676426
vt 0.6158324 0.4207837
vt 0.6211203 0.4768354
vt 0.5574228 0.3691291
vt 0.5574228 0.3691291
vt 0.6211203 0.4768354
vt 0.4708631 0.3418745
vt 0.4708631 0.3418745
vt 0.6211203 0.4768354
vt 0.3567347 0.408333
vt 0.3567347 0.408333
vt 0.6211203 0.4768354
vt 0.3246094 0.4914612
vt 0.3246094 0.4914612
vt 0.6211203 0.4768354
vt 0.3711355 0.5275102
vt 0.3711355 0.5275102
vt 0.6211203 0.4768354
vt 0.6082476 0.5096966
vt 0.4557779 0.4359861
vt 0.453795 0.408483
vt 0.5287712 0.473282
vt 0.5287712 0.473282
vt 0.453795 0.408483
vt 0.4639768 0.4023607
vt 0.5883996 0.3657492
vt 0.6657947 0.4516433
vt 0.5133484 0.3254907
vt 0.5133484 0.3254907
vt 0.6657947 0.4516433
vt 0.4924878 0.498221
vt 0.4924878 0.498221
vt 0.6657947 0.4516433
vt 0.575977 0.542436
vt 0.575977 0.542436
vt 0.6657947 0.4516433
vt 0.6636477 0.4739008
vt 0.4702772 0.5670937
vt 0.4528668 0.5567619
vt 0.4841905 0.5573244
vt 0.4841905 0.5573244
vt 0.4528668 0.5567619
vt 0.4543622 0.4722367
vt 0.4543622 0.4722367
vt 0.4528668 0.5567619
vt 0.4502182 0.4761181
vt 0.4128051 0.6154528
vt 0.350453 0.4528152
vt 0.5876027 0.6881038
vt 0.5876027 0.6881038
vt 0.350453 0.4528152
vt 0.6180919 0.6816441
vt 0.6180919 0.6816441
vt 0.350453 0.4528152
vt 0.5860651 0.3892725
vt 0.5860651 0.3892725
vt 0.350453 0.4528152
vt 0.3771827 0.4030827
vt 0.4569076 0.5956422
vt 0.4109816 0.588273
vt 0.5958813 0.4889298
vt 0.5958813 0.4889298
vt 0.4109816 0.588273
vt 0.5595229 0.4310546
vt 0.5595229 0.4310546
vt 0.4109816 0.588273
vt 0.4134145 0.4462617
vt 0.4134145 0.4462617
vt 0.4109816 0.588273
vt 0.3790438 0.478462
vt 0.4976725 0.36754
vt 0.6280957 0.5131843
vt 0.3782937 0.5668687
vt 0.3782937 0.5668687
vt 0.6280957 0.5131843
vt 0.6279175 0.5215004
vt 0.4255324 0.4736102
vt 0.4096408 0.4563967
vt 0.4571092 0.4360799
vt 0.4571092 0.4360799
vt 0.4096408 0.4563967
vt 0.4173429 0.414999
vt 0.4173429 0.414999
vt 0.4096408 0.4563967
vt 0.4057688 0.4205821
vt 0.4389066 0.6376353
vt 0.4375331 0.6377478
vt 0.5263429 0.5448362
vt 0.5263429 0.5448362
vt 0.4375331 0.6377478
vt 0.4754618 0.4543247
vt 0.4754618 0.4543247
vt 0.4375331 0.6377478
vt 0.4372331 0.4879923
vt 0.6453279 0.4579765
vt 0.6710919 0.5152751
vt 0.5109389 0.3390758
vt 0.5109389 0.3390758
vt 0.6710919 0.5152751
vt 0.4134942 0.3747076
vt 0.4134942 0.3747076
vt 0.6710919 0.5152751
vt 0.3696542 0.4640424
vt 0.3696542 0.4640424
vt 0.6710919 0.5152751
vt 0.3854895 0.5217723
vt 0.3854895 0.5217723
vt 0.6710919 0.5152751
vt 0.6532221 0.5879543
vt 0.3498437 0.5428485
vt 0.3538283 0.5061995
vt 0.4499557 0.5726065
vt 0.4499557 0.5726065
vt 0.3538283 0.5061995
vt 0.5058761 0.4046952
vt 0.5058761 0.4046952
vt 0.3538283 0.5061995
vt 0.491869 0.3811439
vt 0.5061761 0.4118113
vt 0.5367873 0.4377065
vt 0.453795 0.4020232
vt 0.453795 0.4020232
vt 0.5367873 0.4377065
vt 0.4258934 0.4348845
vt 0.4258934 0.4348845
vt 0.5367873 0.4377065
vt 0.5358497 0.5848041
vt 0.4088486 0.5416954
vt 0.3949306 0.4930176
vt 0.5395999 0.4493135
vt 0.5395999 0.4493135
vt 0.3949306 0.4930176
vt 0.5407625 0.4131145
vt 0.5407625 0.4131145
vt 0.3949306 0.4930176
vt 0.5265773 0.407147
vt 0.4489431 0.4233291
vt 0.4678911 0.4039405
vt 0.5767177 0.6458483
vt 0.5767177 0.6458483
vt 0.4678911 0.4039405
vt 0.5872652 0.640748
vt 0.5872652 0.640748
vt 0.4678911 0.4039405
vt 0.5775709 0.5547742
vt 0.3781343 0.3820158
vt 0.3802204 0.381758
vt 0.3711027 0.4134755
vt 0.3711027 0.4134755
vt 0.3802204 0.381758
vt 0.3990887 0.3962995

usemtl Material0
usemap Material0

usemtl Material1
usemap Material1
f 1/1/1 2/2/2 3/3/3
f 4/4/4 5/5/5 6/6/6
f 7/7/7 8/8/8 9/9/9
f 10/10/10 11/11/11 12/12/12
f 13/13/13 14/14/14 15/15/15
f 16/16/16 17/17/17 18/18/18
f 19/19/19 20/20/20 21/21/21
f 22/22/22 23/23/23 24/24/24
f 25/25/25 26/26/26 27/27/27
f 28/28/28 29/29/29 30/30/30
f 31/31/31 32/32/32 33/33/33
f 34/34/34 35/35/35 36/36/36
f 37/37/37 38/38/38 39/39/39
f 40/40/40 41/41/41 42/42/42
f 43/43/43 44/44/44 45/45/45
f 46/46/46 47/47/47 48/48/48
f 49/49/49 50/50/50 51/51/51
f 52/52/52 53/53/53 54/54/54
f 55/55/55 56/56/56 57/57/57
f 58/58/58 59/59/59 60/60/60
f 61/61/61 62/62/62 63/63/63
f 64/64/64 65/65/65 66/66/66
f 67/67/67 68/68/68 69/69/69
f 70/70/70 71/71/71 72/72/72
f 73/73/73 74/74/74 75/75/75
f 76/76/76 77/77/77 78/78/78
f 79/79/79 80/80/80 81/81/81
f 82/82/82 83/83/83 84/84/84
f 85/85/85 86/86/86 87/87/87
f 88/88/88 89/89/89 90/90/90
f 91/91/91 92/92/92 93/93/93
f 94/94/94 95/95/95 96/96/96
f 97/97/97 98/98/98 99/99/99
f 100/100/100 101/101/101 102/102/102
f 103/103/103 104/104/104 105/105/105
f 106/106/106 107/107/107 108/108/108
f 109/109/109 110/110/110 111/111/111
f 112/112/112 113/113/113 114/114/114
f 115/115/115 116/116/116 117/117/117
f 118/118/118 119/119/119 120/120/120
f 121/121/121 122/122/122 123/123/123
f 124/124/124 125/125/125 126/126/126
f 127/127/127 128/128/128 129/129/129
f 130/130/130 131/131/131 132/132/132
f 133/133/133 134/134/134 135/135/135
f 136/136/136 137/137/137 138/138/138
f 139/139/139 140/140/140 141/141/141
f 142/142/142 143/143/143 144/144/144
f 145/145/145 146/146/146 147/147/147
f 148/148/148 149/149/149 150/150/150
f 151/151/151 152/152/152 153/153/153
f 154/154/154 155/155/155 156/156/156
f 157/157/157 158/158/158 159/159/159
f 160/160/160 161/161/161 162/162/162
f 163/163/163 164/164/164 165/165/165
f 166/166/166 167/167/167 168/168/168
f 169/169/169 170/170/170 171/171/171
f 172/172/172 173/173/173 174/174/174
f 175/175/175 176/176/176 177/177/177
f 178/178/178 179/179/179 180/180/180
