g  Instance
v 5.665392 -50.66612 8.199123
v 5.665392 -50.11018 8.199123
v 5.505693 -50.37079 8.298849
v 6.798479 -50 7.333531
v 6.757704 -49.26654 7.289547
v 6.033004 -49.44386 7.918295
v 6.033004 -49.44386 7.918295
v 6.757704 -49.26654 7.289547
v 6.085614 -49.32707 7.861558
v 6.033004 -49.44386 7.918295
v 5.665392 -50.11018 8.199123
v 6.798479 -50 7.333531
v 6.798479 -50 7.333531
v 5.665392 -50.11018 8.199123
v 5.721742 -50.78228 8.156076
v 5.721742 -50.78228 8.156076
v 5.665392 -50.11018 8.199123
v 5.665392 -50.66612 8.199123
v 5.767706 -50.90184 8.104636
v 6.562065 -51.5123 7.371035
v 5.721742 -50.78228 8.156076
v 5.721742 -50.78228 8.156076
v 6.562065 -51.5123 7.371035
v 6.798479 -50 7.333531
v 6.798479 -50 7.333531
v 6.562065 -51.5123 7.371035
v 6.725071 -51.32048 7.254345
v 6.562065 -51.5123 7.371035
v 5.767706 -50.90184 8.104636
v 6.341492 -51.76002 7.488628
v 6.341492 -51.76002 7.488628
v 5.767706 -50.90184 8.104636
v 6.04562 -51.73723 7.719649
v 6.798479 -50 7.333531
v 7.368244 -49.50691 6.69755
v 6.757704 -49.26654 7.289547
v 6.757704 -49.26654 7.289547
v 7.368244 -49.50691 6.69755
v 6.881392 -49.25083 7.162118
v 7.409151 -49.5302 6.65189
v 7.368244 -49.50691 6.69755
v 7.219452 -50.36432 6.863633
v 7.219452 -50.36432 6.863633
v 7.368244 -49.50691 6.69755
v 6.798479 -50 7.333531
v 6.725071 -51.32048 7.254345
v 7.071706 -50.89655 6.951702
v 6.798479 -50 7.333531
v 6.798479 -50 7.333531
v 7.071706 -50.89655 6.951702
v 7.219452 -50.36432 6.863633
v 6.989268 -49.6021 5.959414
v 7.409151 -49.5302 6.65189
v 5.59509 -51.12457 4.500178
v 5.59509 -51.12457 4.500178
v 7.409151 -49.5302 6.65189
v 5.57164 -51.2508 4.541485
v 5.57164 -51.2508 4.541485
v 7.409151 -49.5302 6.65189
v 5.721603 -51.64718 5.065005
v 5.721603 -51.64718 5.065005
v 7.409151 -49.5302 6.65189
v 7.071706 -50.89655 6.951702
v 7.071706 -50.89655 6.951702
v 7.409151 -49.5302 6.65189
v 7.219452 -50.36432 6.863633
v 5.505693 -50.37079 8.298849
v 5.665392 -50.11018 8.199123
v 3.580276 -50.42896 7.120695
v 3.580276 -50.42896 7.120695
v 5.665392 -50.11018 8.199123
v 4.296487 -48.86576 6.368988
v 4.296487 -48.86576 6.368988
v 5.665392 -50.11018 8.199123
v 6.085614 -49.32707 7.861558
v 6.085614 -49.32707 7.861558
v 5.665392 -50.11018 8.199123
v 6.033004 -49.44386 7.918295
v 3.726919 -50.34587 4.960326
v 3.763295 -50.26926 4.898637
v 4.25629 -50.93547 4.853596
v 4.25629 -50.93547 4.853596
v 3.763295 -50.26926 4.898637
v 4.81123 -51.06118 4.51322
v 4.81123 -51.06118 4.51322
v 3.763295 -50.26926 4.898637
v 4.845939 -51.04715 4.481768
v 4.845939 -51.04715 4.481768
v 3.763295 -50.26926 4.898637
v 4.802903 -50.82669 4.410382
v 3.726919 -50.34587 4.960326
v 3.466425 -50.72231 6.860315
v 3.763295 -50.26926 4.898637
v 3.763295 -50.26926 4.898637
v 3.466425 -50.72231 6.860315
v 4.247835 -49.15701 4.853154
v 4.247835 -49.15701 4.853154
v 3.466425 -50.72231 6.860315
v 4.32408 -48.82614 6.165595
v 4.32408 -48.82614 6.165595
v 3.466425 -50.72231 6.860315
v 4.296487 -48.86576 6.368988
v 4.296487 -48.86576 6.368988
v 3.466425 -50.72231 6.860315
v 3.580276 -50.42896 7.120695
v 5.342427 -50.77319 4.388103
v 5.000132 -50.65909 4.354041
v 5.07765 -49.62251 4.460722
v 4.25629 -50.93547 4.853596
v 4.81123 -51.06118 4.51322
v 4.562142 -51.36028 5.025111
v 5.721603 -51.64718 5.065005
v 5.518915 -52.02052 5.669038
v 5.57164 -51.2508 4.541485
v 5.57164 -51.2508 4.541485
v 5.518915 -52.02052 5.669038
v 4.845939 -51.04715 4.481768
v 4.845939 -51.04715 4.481768
v 5.518915 -52.02052 5.669038
v 4.81123 -51.06118 4.51322
v 4.81123 -51.06118 4.51322
v 5.518915 -52.02052 5.669038
v 4.562142 -51.36028 5.025111
v 4.562142 -51.36028 5.025111
v 5.518915 -52.02052 5.669038
v 4.853724 -52.01115 5.870118
v 6.04562 -51.73723 7.719649
v 5.767706 -50.90184 8.104636
v 4.516541 -51.91058 6.700369
v 4.516541 -51.91058 6.700369
v 5.767706 -50.90184 8.104636
v 3.466425 -50.72231 6.860315
v 3.466425 -50.72231 6.860315
v 5.767706 -50.90184 8.104636
v 3.580276 -50.42896 7.120695
v 3.580276 -50.42896 7.120695
v 5.767706 -50.90184 8.104636
v 5.505693 -50.37079 8.298849
v 5.505693 -50.37079 8.298849
v 5.767706 -50.90184 8.104636
v 5.665392 -50.66612 8.199123
v 5.665392 -50.66612 8.199123
v 5.767706 -50.90184 8.104636
v 5.721742 -50.78228 8.156076
v 7.071706 -50.89655 6.951702
v 6.725071 -51.32048 7.254345
v 5.721603 -51.64718 5.065005
v 5.721603 -51.64718 5.065005
v 6.725071 -51.32048 7.254345
v 5.518915 -52.02052 5.669038
v 5.518915 -52.02052 5.669038
v 6.725071 -51.32048 7.254345
v 6.341492 -51.76002 7.488628
v 6.341492 -51.76002 7.488628
v 6.725071 -51.32048 7.254345
v 6.562065 -51.5123 7.371035
v 5.518915 -52.02052 5.669038
v 6.341492 -51.76002 7.488628
v 4.853724 -52.01115 5.870118
v 4.853724 -52.01115 5.870118
v 6.341492 -51.76002 7.488628
v 4.516541 -51.91058 6.700369
v 4.516541 -51.91058 6.700369
v 6.341492 -51.76002 7.488628
v 6.04562 -51.73723 7.719649
v 4.562142 -51.36028 5.025111
v 4.853724 -52.01115 5.870118
v 4.25629 -50.93547 4.853596
v 4.25629 -50.93547 4.853596
v 4.853724 -52.01115 5.870118
v 3.726919 -50.34587 4.960326
v 3.726919 -50.34587 4.960326
v 4.853724 -52.01115 5.870118
v 3.466425 -50.72231 6.860315
v 3.466425 -50.72231 6.860315
v 4.853724 -52.01115 5.870118
v 4.516541 -51.91058 6.700369
v 6.989268 -49.6021 5.959414
v 5.59509 -51.12457 4.500178
v 5.06398 -49.47615 4.485594
v 5.06398 -49.47615 4.485594
v 5.59509 -51.12457 4.500178
v 5.07765 -49.62251 4.460722
v 5.07765 -49.62251 4.460722
v 5.59509 -51.12457 4.500178
v 5.342427 -50.77319 4.388103
v 4.32408 -48.82614 6.165595
v 6.881392 -49.25083 7.162118
v 4.247835 -49.15701 4.853154
v 4.247835 -49.15701 4.853154
v 6.881392 -49.25083 7.162118
v 5.06398 -49.47615 4.485594
v 5.06398 -49.47615 4.485594
v 6.881392 -49.25083 7.162118
v 6.989268 -49.6021 5.959414
v 6.989268 -49.6021 5.959414
v 6.881392 -49.25083 7.162118
v 7.409151 -49.5302 6.65189
v 7.409151 -49.5302 6.65189
v 6.881392 -49.25083 7.162118
v 7.368244 -49.50691 6.69755
v 4.845939 -51.04715 4.481768
v 4.802903 -50.82669 4.410382
v 5.57164 -51.2508 4.541485
v 5.57164 -51.2508 4.541485
v 4.802903 -50.82669 4.410382
v 5.59509 -51.12457 4.500178
v 5.59509 -51.12457 4.500178
v 4.802903 -50.82669 4.410382
v 5.342427 -50.77319 4.388103
v 5.342427 -50.77319 4.388103
v 4.802903 -50.82669 4.410382
v 5.000132 -50.65909 4.354041
v 4.296487 -48.86576 6.368988
v 6.085614 -49.32707 7.861558
v 4.32408 -48.82614 6.165595
v 4.32408 -48.82614 6.165595
v 6.085614 -49.32707 7.861558
v 6.881392 -49.25083 7.162118
v 6.881392 -49.25083 7.162118
v 6.085614 -49.32707 7.861558
v 6.757704 -49.26654 7.289547
v 4.247835 -49.15701 4.853154
v 5.06398 -49.47615 4.485594
v 3.763295 -50.26926 4.898637
v 3.763295 -50.26926 4.898637
v 5.06398 -49.47615 4.485594
v 4.802903 -50.82669 4.410382
v 4.802903 -50.82669 4.410382
v 5.06398 -49.47615 4.485594
v 5.000132 -50.65909 4.354041
v 5.000132 -50.65909 4.354041
v 5.06398 -49.47615 4.485594
v 5.07765 -49.62251 4.460722

vn 0.529672 -3.707611E-08 0.8482025
vn 0.529672 -3.707611E-08 0.8482025
vn 0.529672 -3.707611E-08 0.8482025
vn 0.6417183 0.08140682 0.7626077
vn 0.6417183 0.08140682 0.7626077
vn 0.6417183 0.08140682 0.7626077
vn 0.6417183 0.08140682 0.7626077
vn 0.6417183 0.08140682 0.7626077
vn 0.6417183 0.08140682 0.7626077
vn 0.6070582 -3.473558E-08 0.7946574
vn 0.6070582 -3.473558E-08 0.7946574
vn 0.6070582 -3.473558E-08 0.7946574
vn 0.6070582 -3.473558E-08 0.7946574
vn 0.6070582 -3.473558E-08 0.7946574
vn 0.6070582 -3.473558E-08 0.7946574
vn 0.6070582 -3.473558E-08 0.7946574
vn 0.6070582 -3.473558E-08 0.7946574
vn 0.6070582 -3.473558E-08 0.7946574
vn 0.641719 -0.08140682 0.7626072
vn 0.641719 -0.08140682 0.7626072
vn 0.641719 -0.08140682 0.7626072
vn 0.641719 -0.08140682 0.7626072
vn 0.641719 -0.08140682 0.7626072
vn 0.641719 -0.08140682 0.7626072
vn 0.641719 -0.08140682 0.7626072
vn 0.641719 -0.08140682 0.7626072
vn 0.641719 -0.08140682 0.7626072
vn 0.5995525 -0.1617645 0.783817
vn 0.5995525 -0.1617645 0.783817
vn 0.5995525 -0.1617645 0.783817
vn 0.5995525 -0.1617645 0.783817
vn 0.5995525 -0.1617645 0.783817
vn 0.5995525 -0.1617645 0.783817
vn 0.7101454 0.08141633 0.6993318
vn 0.7101454 0.08141633 0.6993318
vn 0.7101454 0.08141633 0.6993318
vn 0.7101454 0.08141633 0.6993318
vn 0.7101454 0.08141633 0.6993318
vn 0.7101454 0.08141633 0.6993318
vn 0.7448166 -2.916726E-08 0.6672692
vn 0.7448166 -2.916726E-08 0.6672692
vn 0.7448166 -2.916726E-08 0.6672692
vn 0.7448166 -2.916726E-08 0.6672692
vn 0.7448166 -2.916726E-08 0.6672692
vn 0.7448166 -2.916726E-08 0.6672692
vn 0.710144 -0.08141653 0.6993332
vn 0.710144 -0.08141653 0.6993332
vn 0.710144 -0.08141653 0.6993332
vn 0.710144 -0.08141653 0.6993332
vn 0.710144 -0.08141653 0.6993332
vn 0.710144 -0.08141653 0.6993332
vn 0.8274897 -0.307453 -0.4698231
vn 0.8274897 -0.307453 -0.4698231
vn 0.8274897 -0.307453 -0.4698231
vn 0.8274897 -0.307453 -0.4698231
vn 0.8274897 -0.307453 -0.4698231
vn 0.8274897 -0.307453 -0.4698231
vn 0.8274897 -0.307453 -0.4698231
vn 0.8274897 -0.307453 -0.4698231
vn 0.8274897 -0.307453 -0.4698231
vn 0.8274897 -0.307453 -0.4698231
vn 0.8274897 -0.307453 -0.4698231
vn 0.8274897 -0.307453 -0.4698231
vn 0.8274897 -0.307453 -0.4698231
vn 0.8274897 -0.307453 -0.4698231
vn 0.8274897 -0.307453 -0.4698231
vn -0.4492379 0.5459153 0.7072212
vn -0.4492379 0.5459153 0.7072212
vn -0.4492379 0.5459153 0.7072212
vn -0.4492379 0.5459153 0.7072212
vn -0.4492379 0.5459153 0.7072212
vn -0.4492379 0.5459153 0.7072212
vn -0.4492379 0.5459153 0.7072212
vn -0.4492379 0.5459153 0.7072212
vn -0.4492379 0.5459153 0.7072212
vn -0.4492379 0.5459153 0.7072212
vn -0.4492379 0.5459153 0.7072212
vn -0.4492379 0.5459153 0.7072212
vn -0.5460029 -0.3526618 -0.7599412
vn -0.5460029 -0.3526618 -0.7599412
vn -0.5460029 -0.3526618 -0.7599412
vn -0.5460029 -0.3526618 -0.7599412
vn -0.5460029 -0.3526618 -0.7599412
vn -0.5460029 -0.3526618 -0.7599412
vn -0.5460029 -0.3526618 -0.7599412
vn -0.5460029 -0.3526618 -0.7599412
vn -0.5460029 -0.3526618 -0.7599412
vn -0.5460029 -0.3526618 -0.7599412
vn -0.5460029 -0.3526618 -0.7599412
vn -0.5460029 -0.3526618 -0.7599412
vn -0.9164733 0.3973341 -0.0469289
vn -0.9164733 0.3973341 -0.0469289
vn -0.9164733 0.3973341 -0.0469289
vn -0.9164733 0.3973341 -0.0469289
vn -0.9164733 0.3973341 -0.0469289
vn -0.9164733 0.3973341 -0.0469289
vn -0.9164733 0.3973341 -0.0469289
vn -0.9164733 0.3973341 -0.0469289
vn -0.9164733 0.3973341 -0.0469289
vn -0.9164733 0.3973341 -0.0469289
vn -0.9164733 0.3973341 -0.0469289
vn -0.9164733 0.3973341 -0.0469289
vn -0.9164733 0.3973341 -0.0469289
vn -0.9164733 0.3973341 -0.0469289
vn -0.9164733 0.3973341 -0.0469289
vn 0.1289158 0.09197924 -0.9873807
vn 0.1289158 0.09197924 -0.9873807
vn 0.1289158 0.09197924 -0.9873807
vn -0.5097318 -0.6114052 -0.6052745
vn -0.5097318 -0.6114052 -0.6052745
vn -0.5097318 -0.6114052 -0.6052745
vn -0.180754 -0.8083512 -0.5602645
vn -0.180754 -0.8083512 -0.5602645
vn -0.180754 -0.8083512 -0.5602645
vn -0.180754 -0.8083512 -0.5602645
vn -0.180754 -0.8083512 -0.5602645
vn -0.180754 -0.8083512 -0.5602645
vn -0.180754 -0.8083512 -0.5602645
vn -0.180754 -0.8083512 -0.5602645
vn -0.180754 -0.8083512 -0.5602645
vn -0.180754 -0.8083512 -0.5602645
vn -0.180754 -0.8083512 -0.5602645
vn -0.180754 -0.8083512 -0.5602645
vn -0.180754 -0.8083512 -0.5602645
vn -0.180754 -0.8083512 -0.5602645
vn -0.180754 -0.8083512 -0.5602645
vn -0.4433416 -0.4926019 0.7488602
vn -0.4433416 -0.4926019 0.7488602
vn -0.4433416 -0.4926019 0.7488602
vn -0.4433416 -0.4926019 0.7488602
vn -0.4433416 -0.4926019 0.7488602
vn -0.4433416 -0.4926019 0.7488602
vn -0.4433416 -0.4926019 0.7488602
vn -0.4433416 -0.4926019 0.7488602
vn -0.4433416 -0.4926019 0.7488602
vn -0.4433416 -0.4926019 0.7488602
vn -0.4433416 -0.4926019 0.7488602
vn -0.4433416 -0.4926019 0.7488602
vn -0.4433416 -0.4926019 0.7488602
vn -0.4433416 -0.4926019 0.7488602
vn -0.4433416 -0.4926019 0.7488602
vn -0.4433416 -0.4926019 0.7488602
vn -0.4433416 -0.4926019 0.7488602
vn -0.4433416 -0.4926019 0.7488602
vn 0.6799549 -0.7035265 -0.2066685
vn 0.6799549 -0.7035265 -0.2066685
vn 0.6799549 -0.7035265 -0.2066685
vn 0.6799549 -0.7035265 -0.2066685
vn 0.6799549 -0.7035265 -0.2066685
vn 0.6799549 -0.7035265 -0.2066685
vn 0.6799549 -0.7035265 -0.2066685
vn 0.6799549 -0.7035265 -0.2066685
vn 0.6799549 -0.7035265 -0.2066685
vn 0.6799549 -0.7035265 -0.2066685
vn 0.6799549 -0.7035265 -0.2066685
vn 0.6799549 -0.7035265 -0.2066685
vn 0.02545125 -0.9911366 0.1303858
vn 0.02545125 -0.9911366 0.1303858
vn 0.02545125 -0.9911366 0.1303858
vn 0.02545125 -0.9911366 0.1303858
vn 0.02545125 -0.9911366 0.1303858
vn 0.02545125 -0.9911366 0.1303858
vn 0.02545125 -0.9911366 0.1303858
vn 0.02545125 -0.9911366 0.1303858
vn 0.02545125 -0.9911366 0.1303858
vn -0.7447795 -0.6277021 -0.2264809
vn -0.7447795 -0.6277021 -0.2264809
vn -0.7447795 -0.6277021 -0.2264809
vn -0.7447795 -0.6277021 -0.2264809
vn -0.7447795 -0.6277021 -0.2264809
vn -0.7447795 -0.6277021 -0.2264809
vn -0.7447795 -0.6277021 -0.2264809
vn -0.7447795 -0.6277021 -0.2264809
vn -0.7447795 -0.6277021 -0.2264809
vn -0.7447795 -0.6277021 -0.2264809
vn -0.7447795 -0.6277021 -0.2264809
vn -0.7447795 -0.6277021 -0.2264809
vn 0.6047378 0.1879996 -0.7739176
vn 0.6047378 0.1879996 -0.7739176
vn 0.6047378 0.1879996 -0.7739176
vn 0.6047378 0.1879996 -0.7739176
vn 0.6047378 0.1879996 -0.7739176
vn 0.6047378 0.1879996 -0.7739176
vn 0.6047378 0.1879996 -0.7739176
vn 0.6047378 0.1879996 -0.7739176
vn 0.6047378 0.1879996 -0.7739176
vn 0.2527329 0.9346017 -0.2502919
vn 0.2527329 0.9346017 -0.2502919
vn 0.2527329 0.9346017 -0.2502919
vn 0.2527329 0.9346017 -0.2502919
vn 0.2527329 0.9346017 -0.2502919
vn 0.2527329 0.9346017 -0.2502919
vn 0.2527329 0.9346017 -0.2502919
vn 0.2527329 0.9346017 -0.2502919
vn 0.2527329 0.9346017 -0.2502919
vn 0.2527329 0.9346017 -0.2502919
vn 0.2527329 0.9346017 -0.2502919
vn 0.2527329 0.9346017 -0.2502919
vn 0.2527329 0.9346017 -0.2502919
vn 0.2527329 0.9346017 -0.2502919
vn 0.2527329 0.9346017 -0.2502919
vn -0.008610182 -0.309535 -0.9508492
vn -0.008610182 -0.309535 -0.9508492
vn -0.008610182 -0.309535 -0.9508492
vn -0.008610182 -0.309535 -0.9508492
vn -0.008610182 -0.309535 -0.9508492
vn -0.008610182 -0.309535 -0.9508492
vn -0.008610182 -0.309535 -0.9508492
vn -0.008610182 -0.309535 -0.9508492
vn -0.008610182 -0.309535 -0.9508492
vn -0.008610182 -0.309535 -0.9508492
vn -0.008610182 -0.309535 -0.9508492
vn -0.008610182 -0.309535 -0.9508492
vn 0.08356548 0.975927 0.2014531
vn 0.08356548 0.975927 0.2014531
vn 0.08356548 0.975927 0.2014531
vn 0.08356548 0.975927 0.2014531
vn 0.08356548 0.975927 0.2014531
vn 0.08356548 0.975927 0.2014531
vn 0.08356548 0.975927 0.2014531
vn 0.08356548 0.975927 0.2014531
vn 0.08356548 0.975927 0.2014531
vn -0.3673887 0.1223634 -0.9219831
vn -0.3673887 0.1223634 -0.9219831
vn -0.3673887 0.1223634 -0.9219831
vn -0.3673887 0.1223634 -0.9219831
vn -0.3673887 0.1223634 -0.9219831
vn -0.3673887 0.1223634 -0.9219831
vn -0.3673887 0.1223634 -0.9219831
vn -0.3673887 0.1223634 -0.9219831
vn -0.3673887 0.1223634 -0.9219831
vn -0.3673887 0.1223634 -0.9219831
vn -0.3673887 0.1223634 -0.9219831
vn -0.3673887 0.1223634 -0.9219831

vt 0.1726229 0.3739689
vt 0.1802971 0.3739689
vt 0.1766997 0.376603
vt 0.181818 0.3542863
vt 0.1920788 0.3542863
vt 0.1894949 0.3675832
vt 0.1894949 0.3675832
vt 0.1920788 0.3542863
vt 0.1911371 0.3665133
vt 0.1894949 0.3675832
vt 0.1802971 0.3739689
vt 0.181818 0.3542863
vt 0.181818 0.3542863
vt 0.1802971 0.3739689
vt 0.1710195 0.37299
vt 0.1710195 0.37299
vt 0.1802971 0.3739689
vt 0.1726229 0.3739689
vt 0.1693394 0.3720377
vt 0.1606829 0.357044
vt 0.1710195 0.37299
vt 0.1710195 0.37299
vt 0.1606829 0.357044
vt 0.181818 0.3542863
vt 0.181818 0.3542863
vt 0.1606829 0.357044
vt 0.163345 0.3542863
vt 0.1606829 0.357044
vt 0.1693394 0.3720377
vt 0.1570981 0.3605217
vt 0.1570981 0.3605217
vt 0.1693394 0.3720377
vt 0.1573861 0.3657703
vt 0.181818 0.3542863
vt 0.1888067 0.3421814
vt 0.1920788 0.3542863
vt 0.1920788 0.3542863
vt 0.1888067 0.3421814
vt 0.1923175 0.3517614
vt 0.1884766 0.3413123
vt 0.1888067 0.3421814
vt 0.1766544 0.3453425
vt 0.1766544 0.3453425
vt 0.1888067 0.3421814
vt 0.181818 0.3542863
vt 0.163345 0.3542863
vt 0.1692266 0.3477376
vt 0.181818 0.3542863
vt 0.181818 0.3542863
vt 0.1692266 0.3477376
vt 0.1766544 0.3453425
vt 0.3330052 0.4626736
vt 0.3092147 0.3753076
vt 0.5460128 0.646767
vt 0.5460128 0.646767
vt 0.3092147 0.3753076
vt 0.5600948 0.6415542
vt 0.5600948 0.6415542
vt 0.3092147 0.3753076
vt 0.5956656 0.5755129
vt 0.5956656 0.5755129
vt 0.3092147 0.3753076
vt 0.4649378 0.3374867
vt 0.4649378 0.3374867
vt 0.3092147 0.3753076
vt 0.4036452 0.3486014
vt 0.5286493 0.2914106
vt 0.5688235 0.3110242
vt 0.3167714 0.5231318
vt 0.3167714 0.5231318
vt 0.5688235 0.3110242
vt 0.5317995 0.6709747
vt 0.5317995 0.6709747
vt 0.5688235 0.3110242
vt 0.6831394 0.3774171
vt 0.6831394 0.3774171
vt 0.5688235 0.3110242
vt 0.6671729 0.3662555
vt 0.6230516 0.4967115
vt 0.629802 0.5110655
vt 0.5047042 0.521538
vt 0.5047042 0.521538
vt 0.629802 0.5110655
vt 0.4431912 0.6007425
vt 0.4431912 0.6007425
vt 0.629802 0.5110655
vt 0.4421271 0.6080648
vt 0.4421271 0.6080648
vt 0.629802 0.5110655
vt 0.4736664 0.6246783
vt 0.4407114 0.6268159
vt 0.3965198 0.4396192
vt 0.4490556 0.6328912
vt 0.4490556 0.6328912
vt 0.3965198 0.4396192
vt 0.5684578 0.6373821
vt 0.5684578 0.6373821
vt 0.3965198 0.4396192
vt 0.6013097 0.5080746
vt 0.6013097 0.5080746
vt 0.3965198 0.4396192
vt 0.5966501 0.4880297
vt 0.5966501 0.4880297
vt 0.3965198 0.4396192
vt 0.4274638 0.413963
vt 0.5422532 0.493055
vt 0.5313026 0.5272758
vt 0.4280029 0.5195315
vt 0.5405281 0.570047
vt 0.4779464 0.6228501
vt 0.4779229 0.5434299
vt 0.3985168 0.5522053
vt 0.4123269 0.465655
vt 0.4261512 0.627219
vt 0.4261512 0.627219
vt 0.4123269 0.465655
vt 0.515486 0.6357789
vt 0.515486 0.6357789
vt 0.4123269 0.465655
vt 0.5191425 0.6312693
vt 0.5191425 0.6312693
vt 0.4123269 0.465655
vt 0.5402468 0.5579244
vt 0.5402468 0.5579244
vt 0.4123269 0.465655
vt 0.4896142 0.436844
vt 0.2682811 0.4063453
vt 0.3818236 0.32017
vt 0.4196774 0.6344945
vt 0.4196774 0.6344945
vt 0.3818236 0.32017
vt 0.6533815 0.5986893
vt 0.6533815 0.5986893
vt 0.3818236 0.32017
vt 0.6699387 0.5404109
vt 0.6699387 0.5404109
vt 0.3818236 0.32017
vt 0.4634143 0.2767003
vt 0.4634143 0.2767003
vt 0.3818236 0.32017
vt 0.416499 0.2990235
vt 0.416499 0.2990235
vt 0.3818236 0.32017
vt 0.3987558 0.3086569
vt 0.386638 0.4036827
vt 0.4412833 0.3726028
vt 0.5365998 0.5974423
vt 0.5365998 0.5974423
vt 0.4412833 0.3726028
vt 0.5773084 0.5354137
vt 0.5773084 0.5354137
vt 0.4412833 0.3726028
vt 0.4996882 0.3485451
vt 0.4996882 0.3485451
vt 0.4412833 0.3726028
vt 0.4664519 0.3606208
vt 0.462533 0.5840822
vt 0.3803376 0.4021029
vt 0.528443 0.5639716
vt 0.528443 0.5639716
vt 0.3803376 0.4021029
vt 0.5616137 0.4809418
vt 0.5616137 0.4809418
vt 0.3803376 0.4021029
vt 0.4096127 0.3789969
vt 0.4605829 0.6021301
vt 0.3913867 0.5145625
vt 0.513264 0.6199061
vt 0.513264 0.6199061
vt 0.3913867 0.5145625
vt 0.5931999 0.608843
vt 0.5931999 0.608843
vt 0.3913867 0.5145625
vt 0.5810961 0.4119566
vt 0.5810961 0.4119566
vt 0.3913867 0.5145625
vt 0.421079 0.4285326
vt 0.4478696 0.3001111
vt 0.6093165 0.6578115
vt 0.3404728 0.6613835
vt 0.3404728 0.6613835
vt 0.6093165 0.6578115
vt 0.3627959 0.667487
vt 0.3627959 0.667487
vt 0.6093165 0.6578115
vt 0.5455722 0.6852818
vt 0.3609771 0.4809512
vt 0.622911 0.3764374
vt 0.3622756 0.6185936
vt 0.3622756 0.6185936
vt 0.622911 0.3764374
vt 0.4507338 0.6571458
vt 0.4507338 0.6571458
vt 0.622911 0.3764374
vt 0.6427965 0.5025806
vt 0.6427965 0.5025806
vt 0.622911 0.3764374
vt 0.6820519 0.4299483
vt 0.6820519 0.4299483
vt 0.622911 0.3764374
vt 0.6774204 0.425162
vt 0.4845842 0.5133625
vt 0.4618017 0.5176002
vt 0.5054355 0.4420193
vt 0.5054355 0.4420193
vt 0.4618017 0.5176002
vt 0.4923847 0.4397129
vt 0.4923847 0.4397129
vt 0.4618017 0.5176002
vt 0.4561295 0.4645581
vt 0.4561295 0.4645581
vt 0.4618017 0.5176002
vt 0.4444241 0.4982116
vt 0.3857988 0.5249225
vt 0.5686641 0.371984
vt 0.3882177 0.5457643
vt 0.3882177 0.5457643
vt 0.5686641 0.371984
vt 0.6475874 0.4436553
vt 0.6475874 0.4436553
vt 0.5686641 0.371984
vt 0.6353523 0.4305999
vt 0.3784953 0.5033213
vt 0.4170429 0.4105737
vt 0.4944004 0.5583932
vt 0.4944004 0.5583932
vt 0.4170429 0.4105737
vt 0.5596073 0.4402426
vt 0.5596073 0.4402426
vt 0.4170429 0.4105737
vt 0.5428251 0.4178304
vt 0.5428251 0.4178304
vt 0.4170429 0.4105737
vt 0.4327281 0.4090221

usemtl Material0
usemap Material0
f 1/1/1 2/2/2 3/3/3
f 4/4/4 5/5/5 6/6/6
f 7/7/7 8/8/8 9/9/9
f 10/10/10 11/11/11 12/12/12
f 13/13/13 14/14/14 15/15/15
f 16/16/16 17/17/17 18/18/18
f 19/19/19 20/20/20 21/21/21
f 22/22/22 23/23/23 24/24/24
f 25/25/25 26/26/26 27/27/27
f 28/28/28 29/29/29 30/30/30
f 31/31/31 32/32/32 33/33/33
f 34/34/34 35/35/35 36/36/36
f 37/37/37 38/38/38 39/39/39
f 40/40/40 41/41/41 42/42/42
f 43/43/43 44/44/44 45/45/45
f 46/46/46 47/47/47 48/48/48
f 49/49/49 50/50/50 51/51/51

usemtl Material1
usemap Material1
f 52/52/52 53/53/53 54/54/54
f 55/55/55 56/56/56 57/57/57
f 58/58/58 59/59/59 60/60/60
f 61/61/61 62/62/62 63/63/63
f 64/64/64 65/65/65 66/66/66
f 67/67/67 68/68/68 69/69/69
f 70/70/70 71/71/71 72/72/72
f 73/73/73 74/74/74 75/75/75
f 76/76/76 77/77/77 78/78/78
f 79/79/79 80/80/80 81/81/81
f 82/82/82 83/83/83 84/84/84
f 85/85/85 86/86/86 87/87/87
f 88/88/88 89/89/89 90/90/90
f 91/91/91 92/92/92 93/93/93
f 94/94/94 95/95/95 96/96/96
f 97/97/97 98/98/98 99/99/99
f 100/100/100 101/101/101 102/102/102
f 103/103/103 104/104/104 105/105/105
f 106/106/106 107/107/107 108/108/108
f 109/109/109 110/110/110 111/111/111
f 112/112/112 113/113/113 114/114/114
f 115/115/115 116/116/116 117/117/117
f 118/118/118 119/119/119 120/120/120
f 121/121/121 122/122/122 123/123/123
f 124/124/124 125/125/125 126/126/126
f 127/127/127 128/128/128 129/129/129
f 130/130/130 131/131/131 132/132/132
f 133/133/133 134/134/134 135/135/135
f 136/136/136 137/137/137 138/138/138
f 139/139/139 140/140/140 141/141/141
f 142/142/142 143/143/143 144/144/144
f 145/145/145 146/146/146 147/147/147
f 148/148/148 149/149/149 150/150/150
f 151/151/151 152/152/152 153/153/153
f 154/154/154 155/155/155 156/156/156
f 157/157/157 158/158/158 159/159/159
f 160/160/160 161/161/161 162/162/162
f 163/163/163 164/164/164 165/165/165
f 166/166/166 167/167/167 168/168/168
f 169/169/169 170/170/170 171/171/171
f 172/172/172 173/173/173 174/174/174
f 175/175/175 176/176/176 177/177/177
f 178/178/178 179/179/179 180/180/180
f 181/181/181 182/182/182 183/183/183
f 184/184/184 185/185/185 186/186/186
f 187/187/187 188/188/188 189/189/189
f 190/190/190 191/191/191 192/192/192
f 193/193/193 194/194/194 195/195/195
f 196/196/196 197/197/197 198/198/198
f 199/199/199 200/200/200 201/201/201
f 202/202/202 203/203/203 204/204/204
f 205/205/205 206/206/206 207/207/207
f 208/208/208 209/209/209 210/210/210
f 211/211/211 212/212/212 213/213/213
f 214/214/214 215/215/215 216/216/216
f 217/217/217 218/218/218 219/219/219
f 220/220/220 221/221/221 222/222/222
f 223/223/223 224/224/224 225/225/225
f 226/226/226 227/227/227 228/228/228
f 229/229/229 230/230/230 231/231/231
f 232/232/232 233/233/233 234/234/234
