g  Instance
v 5.725482 -48.49275 2.072514
v 5.490507 -48.34784 1.820721
v 6.008251 -49.41491 1.417408
v 6.008251 -49.41491 1.417408
v 5.490507 -48.34784 1.820721
v 5.674588 -49.27598 0.9742168
v 6.480242 -49.89361 -0.3237797
v 6.362988 -49.62 1.406953
v 5.944606 -49.62862 -0.6830809
v 5.944606 -49.62862 -0.6830809
v 6.362988 -49.62 1.406953
v 5.918486 -49.60935 -0.6473049
v 5.918486 -49.60935 -0.6473049
v 6.362988 -49.62 1.406953
v 5.674588 -49.27598 0.9742168
v 5.674588 -49.27598 0.9742168
v 6.362988 -49.62 1.406953
v 6.008251 -49.41491 1.417408
v 6.652938 -49.03263 -0.5195999
v 5.944606 -49.62862 -0.6830809
v 5.650046 -47.95728 1.193901
v 5.650046 -47.95728 1.193901
v 5.944606 -49.62862 -0.6830809
v 5.542603 -47.98519 1.232428
v 5.542603 -47.98519 1.232428
v 5.944606 -49.62862 -0.6830809
v 5.918486 -49.60935 -0.6473049
v 6.480242 -49.89361 -0.3237797
v 7.902932 -49.09053 0.1343948
v 6.362988 -49.62 1.406953
v 6.362988 -49.62 1.406953
v 7.902932 -49.09053 0.1343948
v 6.844153 -49.27957 1.920148
v 6.844153 -49.27957 1.920148
v 7.902932 -49.09053 0.1343948
v 8.156269 -48.74744 1.257405
v 5.725482 -48.49275 2.072514
v 6.008251 -49.41491 1.417408
v 6.614255 -48.63514 2.36299
v 6.614255 -48.63514 2.36299
v 6.008251 -49.41491 1.417408
v 6.844153 -49.27957 1.920148
v 6.844153 -49.27957 1.920148
v 6.008251 -49.41491 1.417408
v 6.362988 -49.62 1.406953
v 5.650046 -47.95728 1.193901
v 8.154854 -47.8823 1.235497
v 6.652938 -49.03263 -0.5195999
v 6.652938 -49.03263 -0.5195999
v 8.154854 -47.8823 1.235497
v 7.919424 -48.67286 0.005219765
v 7.919424 -48.67286 0.005219765
v 8.154854 -47.8823 1.235497
v 8.222185 -47.92121 1.172559
v 8.156269 -48.74744 1.257405
v 8.273268 -48.03522 1.492746
v 6.844153 -49.27957 1.920148
v 6.844153 -49.27957 1.920148
v 8.273268 -48.03522 1.492746
v 6.614255 -48.63514 2.36299
v 8.154854 -47.8823 1.235497
v 5.650046 -47.95728 1.193901
v 8.262173 -47.98508 1.410221
v 8.262173 -47.98508 1.410221
v 5.650046 -47.95728 1.193901
v 8.273268 -48.03522 1.492746
v 8.273268 -48.03522 1.492746
v 5.650046 -47.95728 1.193901
v 6.614255 -48.63514 2.36299
v 6.614255 -48.63514 2.36299
v 5.650046 -47.95728 1.193901
v 5.725482 -48.49275 2.072514
v 5.725482 -48.49275 2.072514
v 5.650046 -47.95728 1.193901
v 5.490507 -48.34784 1.820721
v 5.490507 -48.34784 1.820721
v 5.650046 -47.95728 1.193901
v 5.542603 -47.98519 1.232428
v 6.652938 -49.03263 -0.5195999
v 7.919424 -48.67286 0.005219765
v 5.944606 -49.62862 -0.6830809
v 5.944606 -49.62862 -0.6830809
v 7.919424 -48.67286 0.005219765
v 6.480242 -49.89361 -0.3237797
v 6.480242 -49.89361 -0.3237797
v 7.919424 -48.67286 0.005219765
v 7.902932 -49.09053 0.1343948
v 5.674588 -49.27598 0.9742168
v 5.490507 -48.34784 1.820721
v 5.918486 -49.60935 -0.6473049
v 5.918486 -49.60935 -0.6473049
v 5.490507 -48.34784 1.820721
v 5.542603 -47.98519 1.232428
v 7.919424 -48.67286 0.005219765
v 8.222185 -47.92121 1.172559
v 7.902932 -49.09053 0.1343948
v 7.902932 -49.09053 0.1343948
v 8.222185 -47.92121 1.172559
v 8.156269 -48.74744 1.257405
v 8.156269 -48.74744 1.257405
v 8.222185 -47.92121 1.172559
v 8.273268 -48.03522 1.492746
v 8.273268 -48.03522 1.492746
v 8.222185 -47.92121 1.172559
v 8.262173 -47.98508 1.410221
v 8.154854 -47.8823 1.235497
v 8.262173 -47.98508 1.410221
v 8.222185 -47.92121 1.172559

vn -0.7533193 -0.5184463 0.4046278
vn -0.7533193 -0.5184463 0.4046278
vn -0.7533193 -0.5184463 0.4046278
vn -0.7533193 -0.5184463 0.4046278
vn -0.7533193 -0.5184463 0.4046278
vn -0.7533193 -0.5184463 0.4046278
vn -0.4956018 -0.862449 0.1027651
vn -0.4956018 -0.862449 0.1027651
vn -0.4956018 -0.862449 0.1027651
vn -0.4956018 -0.862449 0.1027651
vn -0.4956018 -0.862449 0.1027651
vn -0.4956018 -0.862449 0.1027651
vn -0.4956018 -0.862449 0.1027651
vn -0.4956018 -0.862449 0.1027651
vn -0.4956018 -0.862449 0.1027651
vn -0.4956018 -0.862449 0.1027651
vn -0.4956018 -0.862449 0.1027651
vn -0.4956018 -0.862449 0.1027651
vn -0.4002846 0.6522948 -0.6436489
vn -0.4002846 0.6522948 -0.6436489
vn -0.4002846 0.6522948 -0.6436489
vn -0.4002846 0.6522948 -0.6436489
vn -0.4002846 0.6522948 -0.6436489
vn -0.4002846 0.6522948 -0.6436489
vn -0.4002846 0.6522948 -0.6436489
vn -0.4002846 0.6522948 -0.6436489
vn -0.4002846 0.6522948 -0.6436489
vn 0.4425947 -0.8806145 0.1691982
vn 0.4425947 -0.8806145 0.1691982
vn 0.4425947 -0.8806145 0.1691982
vn 0.4425947 -0.8806145 0.1691982
vn 0.4425947 -0.8806145 0.1691982
vn 0.4425947 -0.8806145 0.1691982
vn 0.4425947 -0.8806145 0.1691982
vn 0.4425947 -0.8806145 0.1691982
vn 0.4425947 -0.8806145 0.1691982
vn -0.3325707 -0.6118263 0.7176805
vn -0.3325707 -0.6118263 0.7176805
vn -0.3325707 -0.6118263 0.7176805
vn -0.3325707 -0.6118263 0.7176805
vn -0.3325707 -0.6118263 0.7176805
vn -0.3325707 -0.6118263 0.7176805
vn -0.3325707 -0.6118263 0.7176805
vn -0.3325707 -0.6118263 0.7176805
vn -0.3325707 -0.6118263 0.7176805
vn -0.01628134 0.8425847 -0.5383178
vn -0.01628134 0.8425847 -0.5383178
vn -0.01628134 0.8425847 -0.5383178
vn -0.01628134 0.8425847 -0.5383178
vn -0.01628134 0.8425847 -0.5383178
vn -0.01628134 0.8425847 -0.5383178
vn -0.01628134 0.8425847 -0.5383178
vn -0.01628134 0.8425847 -0.5383178
vn -0.01628134 0.8425847 -0.5383178
vn 0.5306448 -0.3432506 0.7749808
vn 0.5306448 -0.3432506 0.7749808
vn 0.5306448 -0.3432506 0.7749808
vn 0.5306448 -0.3432506 0.7749808
vn 0.5306448 -0.3432506 0.7749808
vn 0.5306448 -0.3432506 0.7749808
vn -0.03416917 0.8520983 0.5222652
vn -0.03416917 0.8520983 0.5222652
vn -0.03416917 0.8520983 0.5222652
vn -0.03416917 0.8520983 0.5222652
vn -0.03416917 0.8520983 0.5222652
vn -0.03416917 0.8520983 0.5222652
vn -0.03416917 0.8520983 0.5222652
vn -0.03416917 0.8520983 0.5222652
vn -0.03416917 0.8520983 0.5222652
vn -0.03416917 0.8520983 0.5222652
vn -0.03416917 0.8520983 0.5222652
vn -0.03416917 0.8520983 0.5222652
vn -0.03416917 0.8520983 0.5222652
vn -0.03416917 0.8520983 0.5222652
vn -0.03416917 0.8520983 0.5222652
vn -0.03416917 0.8520983 0.5222652
vn -0.03416917 0.8520983 0.5222652
vn -0.03416917 0.8520983 0.5222652
vn 0.4345197 -0.2817208 -0.8554684
vn 0.4345197 -0.2817208 -0.8554684
vn 0.4345197 -0.2817208 -0.8554684
vn 0.4345197 -0.2817208 -0.8554684
vn 0.4345197 -0.2817208 -0.8554684
vn 0.4345197 -0.2817208 -0.8554684
vn 0.4345197 -0.2817208 -0.8554684
vn 0.4345197 -0.2817208 -0.8554684
vn 0.4345197 -0.2817208 -0.8554684
vn -0.9882724 -0.07437076 -0.1333666
vn -0.9882724 -0.07437076 -0.1333666
vn -0.9882724 -0.07437076 -0.1333666
vn -0.9882724 -0.07437076 -0.1333666
vn -0.9882724 -0.07437076 -0.1333666
vn -0.9882724 -0.07437076 -0.1333666
vn 0.97682 -0.09751873 -0.1905593
vn 0.97682 -0.09751873 -0.1905593
vn 0.97682 -0.09751873 -0.1905593
vn 0.97682 -0.09751873 -0.1905593
vn 0.97682 -0.09751873 -0.1905593
vn 0.97682 -0.09751873 -0.1905593
vn 0.97682 -0.09751873 -0.1905593
vn 0.97682 -0.09751873 -0.1905593
vn 0.97682 -0.09751873 -0.1905593
vn 0.97682 -0.09751873 -0.1905593
vn 0.97682 -0.09751873 -0.1905593
vn 0.97682 -0.09751873 -0.1905593
vn 0.5782364 0.8070464 0.1196617
vn 0.5782364 0.8070464 0.1196617
vn 0.5782364 0.8070464 0.1196617

vt 0.5493505 0.3706245
vt 0.576502 0.4002231
vt 0.4504573 0.4476352
vt 0.4504573 0.4476352
vt 0.576502 0.4002231
vt 0.4830982 0.4997304
vt 0.4307546 0.5920139
vt 0.4542731 0.4200477
vt 0.4897033 0.6277066
vt 0.4897033 0.6277066
vt 0.4542731 0.4200477
vt 0.492891 0.6241533
vt 0.492891 0.6241533
vt 0.4542731 0.4200477
vt 0.5301962 0.4630392
vt 0.5301962 0.4630392
vt 0.4542731 0.4200477
vt 0.4947661 0.419007
vt 0.47564 0.6347851
vt 0.3580519 0.6622273
vt 0.4380862 0.3471857
vt 0.4380862 0.3471857
vt 0.3580519 0.6622273
vt 0.4244495 0.3407212
vt 0.4244495 0.3407212
vt 0.3580519 0.6622273
vt 0.3564862 0.656227
vt 0.5512725 0.5994675
vt 0.3885037 0.553096
vt 0.549463 0.4242995
vt 0.549463 0.4242995
vt 0.3885037 0.553096
vt 0.4913346 0.372359
vt 0.4913346 0.372359
vt 0.3885037 0.553096
vt 0.3505562 0.4394363
vt 0.5972877 0.3728934
vt 0.5000445 0.5057027
vt 0.4774542 0.3140056
vt 0.4774542 0.3140056
vt 0.5000445 0.5057027
vt 0.4054922 0.4037811
vt 0.4054922 0.4037811
vt 0.5000445 0.5057027
vt 0.4422209 0.5078215
vt 0.3892115 0.3890381
vt 0.6815175 0.3832815
vt 0.5037572 0.6262252
vt 0.5037572 0.6262252
vt 0.6815175 0.3832815
vt 0.6522752 0.5535836
vt 0.6522752 0.5535836
vt 0.6815175 0.3832815
vt 0.6892805 0.3919961
vt 0.369612 0.5988674
vt 0.2667013 0.5409453
vt 0.5499693 0.4357423
vt 0.5499693 0.4357423
vt 0.2667013 0.5409453
vt 0.4852218 0.3267423
vt 0.6809081 0.4672723
vt 0.3920383 0.4728929
vt 0.6927963 0.4436553
vt 0.6927963 0.4436553
vt 0.3920383 0.4728929
vt 0.6938463 0.4324984
vt 0.6938463 0.4324984
vt 0.3920383 0.4728929
vt 0.4999789 0.3148588
vt 0.4999789 0.3148588
vt 0.3920383 0.4728929
vt 0.3982542 0.3541236
vt 0.3982542 0.3541236
vt 0.3920383 0.4728929
vt 0.3718574 0.3881615
vt 0.3718574 0.3881615
vt 0.3920383 0.4728929
vt 0.3795313 0.4676848
vt 0.5435001 0.5453987
vt 0.3553987 0.3530079
vt 0.7115942 0.6053365
vt 0.7115942 0.6053365
vt 0.3553987 0.3530079
vt 0.6984872 0.4736149
vt 0.6984872 0.4736149
vt 0.3553987 0.3530079
vt 0.4236385 0.305652
vt 0.4306936 0.4410114
vt 0.5238678 0.3562893
vt 0.3959057 0.6033021
vt 0.3959057 0.6033021
vt 0.5238678 0.3562893
vt 0.5593542 0.4151677
vt 0.481931 0.5215848
vt 0.4040108 0.4025014
vt 0.5237084 0.5084028
vt 0.5237084 0.5084028
vt 0.4040108 0.4025014
vt 0.4869938 0.3938431
vt 0.4869938 0.3938431
vt 0.4040108 0.4025014
vt 0.414863 0.369837
vt 0.414863 0.369837
vt 0.4040108 0.4025014
vt 0.4099784 0.3782562
vt 0.5788459 0.4454976
vt 0.5934061 0.4280685
vt 0.5865151 0.4517745

usemtl Material0
usemap Material0

usemtl Material1
usemap Material1
f 1/1/1 2/2/2 3/3/3
f 4/4/4 5/5/5 6/6/6
f 7/7/7 8/8/8 9/9/9
f 10/10/10 11/11/11 12/12/12
f 13/13/13 14/14/14 15/15/15
f 16/16/16 17/17/17 18/18/18
f 19/19/19 20/20/20 21/21/21
f 22/22/22 23/23/23 24/24/24
f 25/25/25 26/26/26 27/27/27
f 28/28/28 29/29/29 30/30/30
f 31/31/31 32/32/32 33/33/33
f 34/34/34 35/35/35 36/36/36
f 37/37/37 38/38/38 39/39/39
f 40/40/40 41/41/41 42/42/42
f 43/43/43 44/44/44 45/45/45
f 46/46/46 47/47/47 48/48/48
f 49/49/49 50/50/50 51/51/51
f 52/52/52 53/53/53 54/54/54
f 55/55/55 56/56/56 57/57/57
f 58/58/58 59/59/59 60/60/60
f 61/61/61 62/62/62 63/63/63
f 64/64/64 65/65/65 66/66/66
f 67/67/67 68/68/68 69/69/69
f 70/70/70 71/71/71 72/72/72
f 73/73/73 74/74/74 75/75/75
f 76/76/76 77/77/77 78/78/78
f 79/79/79 80/80/80 81/81/81
f 82/82/82 83/83/83 84/84/84
f 85/85/85 86/86/86 87/87/87
f 88/88/88 89/89/89 90/90/90
f 91/91/91 92/92/92 93/93/93
f 94/94/94 95/95/95 96/96/96
f 97/97/97 98/98/98 99/99/99
f 100/100/100 101/101/101 102/102/102
f 103/103/103 104/104/104 105/105/105
f 106/106/106 107/107/107 108/108/108
