g  Instance
v -0.156995 -59.63828 2.660643
v 0.2458278 -59.75578 2.038179
v 0.3975736 -59.59225 2.697875
v 0.3975736 -59.59225 2.697875
v 0.2458278 -59.75578 2.038179
v 0.3395318 -59.73947 2.081179
v 0.4593698 -59.43746 3.151523
v 0.2385831 -59.35086 3.451797
v 0.3975736 -59.59225 2.697875
v 0.3975736 -59.59225 2.697875
v 0.2385831 -59.35086 3.451797
v -0.156995 -59.63828 2.660643
v 0.2385831 -59.35086 3.451797
v 0.04547073 -59.25322 3.706041
v -0.156995 -59.63828 2.660643
v -0.156995 -59.63828 2.660643
v 0.04547073 -59.25322 3.706041
v -0.744635 -59.30614 3.528561
v -0.156995 -59.63828 2.660643
v -0.6922185 -59.84089 1.532032
v 0.2458278 -59.75578 2.038179
v -1.480329 -59.58571 2.395299
v -0.8792617 -59.8492 1.422719
v -1.454396 -59.56011 2.521964
v -1.454396 -59.56011 2.521964
v -0.8792617 -59.8492 1.422719
v -0.156995 -59.63828 2.660643
v -0.156995 -59.63828 2.660643
v -0.8792617 -59.8492 1.422719
v -0.6922185 -59.84089 1.532032
v -0.156995 -59.63828 2.660643
v -0.744635 -59.30614 3.528561
v -1.454396 -59.56011 2.521964
v -1.454396 -59.56011 2.521964
v -0.744635 -59.30614 3.528561
v -1.390495 -59.4612 2.851108
v -1.390495 -59.4612 2.851108
v -0.744635 -59.30614 3.528561
v -1.15963 -59.32836 3.336086
v -1.15963 -59.32836 3.336086
v -0.744635 -59.30614 3.528561
v -0.9371915 -59.30195 3.484728
v -1.390495 -59.4612 2.851108
v -1.15963 -59.32836 3.336086
v -1.318019 -59.3404 3.228517
v -1.708215 -59.73584 1.317797
v -1.056372 -59.84159 1.304218
v -1.480329 -59.58571 2.395299
v -1.480329 -59.58571 2.395299
v -1.056372 -59.84159 1.304218
v -0.8792617 -59.8492 1.422719
v -1.238029 -59.82415 1.173348
v -1.056372 -59.84159 1.304218
v -1.709139 -59.73606 1.313612
v -1.709139 -59.73606 1.313612
v -1.056372 -59.84159 1.304218
v -1.708215 -59.73584 1.317797
v 0.9314746 -58.30812 1.066106
v 0.3395318 -59.73947 2.081179
v -0.03316486 -58.80997 0.9469495
v -0.03316486 -58.80997 0.9469495
v 0.3395318 -59.73947 2.081179
v -1.238029 -59.82415 1.173348
v -1.238029 -59.82415 1.173348
v 0.3395318 -59.73947 2.081179
v -1.056372 -59.84159 1.304218
v -1.056372 -59.84159 1.304218
v 0.3395318 -59.73947 2.081179
v -0.8792617 -59.8492 1.422719
v -0.8792617 -59.8492 1.422719
v 0.3395318 -59.73947 2.081179
v -0.6922185 -59.84089 1.532032
v -0.6922185 -59.84089 1.532032
v 0.3395318 -59.73947 2.081179
v 0.2458278 -59.75578 2.038179
v -0.9371915 -59.30195 3.484728
v -0.744635 -59.30614 3.528561
v -0.2572745 -57.85526 3.589875
v -0.2572745 -57.85526 3.589875
v -0.744635 -59.30614 3.528561
v -0.2222048 -57.92146 3.60008
v -0.2222048 -57.92146 3.60008
v -0.744635 -59.30614 3.528561
v 0.04547073 -59.25322 3.706041
v 1.281218 -57.45602 1.132497
v 1.279012 -57.4615 1.119857
v 1.271324 -57.39634 1.143263
v 1.271324 -57.39634 1.143263
v 1.279012 -57.4615 1.119857
v 1.237463 -57.2461 1.136853
v 1.237463 -57.2461 1.136853
v 1.279012 -57.4615 1.119857
v 1.234635 -57.25632 1.118086
v -1.318019 -59.3404 3.228517
v -1.15963 -59.32836 3.336086
v -1.598208 -57.91572 2.668575
v -1.598208 -57.91572 2.668575
v -1.15963 -59.32836 3.336086
v -0.2793869 -57.4007 3.458223
v -0.2793869 -57.4007 3.458223
v -1.15963 -59.32836 3.336086
v -0.2572745 -57.85526 3.589875
v -0.2572745 -57.85526 3.589875
v -1.15963 -59.32836 3.336086
v -0.9371915 -59.30195 3.484728
v -1.708215 -59.73584 1.317797
v -1.480329 -59.58571 2.395299
v -1.709139 -59.73606 1.313612
v -1.709139 -59.73606 1.313612
v -1.480329 -59.58571 2.395299
v -1.842402 -58.03908 1.531793
v -1.842402 -58.03908 1.531793
v -1.480329 -59.58571 2.395299
v -1.598208 -57.91572 2.668575
v -1.598208 -57.91572 2.668575
v -1.480329 -59.58571 2.395299
v -1.318019 -59.3404 3.228517
v -1.318019 -59.3404 3.228517
v -1.480329 -59.58571 2.395299
v -1.390495 -59.4612 2.851108
v -1.390495 -59.4612 2.851108
v -1.480329 -59.58571 2.395299
v -1.454396 -59.56011 2.521964
v 0.9314746 -58.30812 1.066106
v -0.03316486 -58.80997 0.9469495
v 1.279012 -57.4615 1.119857
v 1.279012 -57.4615 1.119857
v -0.03316486 -58.80997 0.9469495
v 1.234635 -57.25632 1.118086
v 1.234635 -57.25632 1.118086
v -0.03316486 -58.80997 0.9469495
v 0.6486795 -57.12197 1.052845
v 0.6486795 -57.12197 1.052845
v -0.03316486 -58.80997 0.9469495
v 0.3279153 -57.2429 1.013969
v 1.271324 -57.39634 1.143263
v 1.281116 -57.4561 1.151367
v 1.281218 -57.45602 1.132497
v -0.2565642 -57.39243 3.449289
v 0.9726551 -56.99003 1.438668
v -0.2793869 -57.4007 3.458223
v -0.2793869 -57.4007 3.458223
v 0.9726551 -56.99003 1.438668
v -1.598208 -57.91572 2.668575
v -1.598208 -57.91572 2.668575
v 0.9726551 -56.99003 1.438668
v -1.842402 -58.03908 1.531793
v -1.842402 -58.03908 1.531793
v 0.9726551 -56.99003 1.438668
v 0.3279153 -57.2429 1.013969
v 0.3279153 -57.2429 1.013969
v 0.9726551 -56.99003 1.438668
v 0.6486795 -57.12197 1.052845
v 1.237463 -57.2461 1.136853
v 1.234635 -57.25632 1.118086
v 0.9726551 -56.99003 1.438668
v 0.9726551 -56.99003 1.438668
v 1.234635 -57.25632 1.118086
v 0.6486795 -57.12197 1.052845
v 0.04547073 -59.25322 3.706041
v 0.2385831 -59.35086 3.451797
v -0.2222048 -57.92146 3.60008
v -0.2222048 -57.92146 3.60008
v 0.2385831 -59.35086 3.451797
v -0.2565642 -57.39243 3.449289
v -0.2565642 -57.39243 3.449289
v 0.2385831 -59.35086 3.451797
v 0.9726551 -56.99003 1.438668
v 0.9726551 -56.99003 1.438668
v 0.2385831 -59.35086 3.451797
v 1.237463 -57.2461 1.136853
v 1.237463 -57.2461 1.136853
v 0.2385831 -59.35086 3.451797
v 1.271324 -57.39634 1.143263
v 1.271324 -57.39634 1.143263
v 0.2385831 -59.35086 3.451797
v 1.281116 -57.4561 1.151367
v 1.281116 -57.4561 1.151367
v 0.2385831 -59.35086 3.451797
v 0.4593698 -59.43746 3.151523
v -0.03316486 -58.80997 0.9469495
v -1.238029 -59.82415 1.173348
v 0.3279153 -57.2429 1.013969
v 0.3279153 -57.2429 1.013969
v -1.238029 -59.82415 1.173348
v -1.842402 -58.03908 1.531793
v -1.842402 -58.03908 1.531793
v -1.238029 -59.82415 1.173348
v -1.709139 -59.73606 1.313612
v -0.2572745 -57.85526 3.589875
v -0.2222048 -57.92146 3.60008
v -0.2793869 -57.4007 3.458223
v -0.2793869 -57.4007 3.458223
v -0.2222048 -57.92146 3.60008
v -0.2565642 -57.39243 3.449289
v 0.4593698 -59.43746 3.151523
v 0.3975736 -59.59225 2.697875
v 1.281116 -57.4561 1.151367
v 1.281116 -57.4561 1.151367
v 0.3975736 -59.59225 2.697875
v 1.281218 -57.45602 1.132497
v 1.281218 -57.45602 1.132497
v 0.3975736 -59.59225 2.697875
v 1.279012 -57.4615 1.119857
v 1.279012 -57.4615 1.119857
v 0.3975736 -59.59225 2.697875
v 0.9314746 -58.30812 1.066106
v 0.9314746 -58.30812 1.066106
v 0.3975736 -59.59225 2.697875
v 0.3395318 -59.73947 2.081179

vn 0.06550097 -0.9719549 0.2258615
vn 0.06550097 -0.9719549 0.2258615
vn 0.06550097 -0.9719549 0.2258615
vn 0.06550097 -0.9719549 0.2258615
vn 0.06550097 -0.9719549 0.2258615
vn 0.06550097 -0.9719549 0.2258615
vn 0.05743793 -0.9472235 0.3153862
vn 0.05743793 -0.9472235 0.3153862
vn 0.05743793 -0.9472235 0.3153862
vn 0.05743793 -0.9472235 0.3153862
vn 0.05743793 -0.9472235 0.3153862
vn 0.05743793 -0.9472235 0.3153862
vn -0.015452 -0.937285 0.3482213
vn -0.015452 -0.937285 0.3482213
vn -0.015452 -0.937285 0.3482213
vn -0.015452 -0.937285 0.3482213
vn -0.015452 -0.937285 0.3482213
vn -0.015452 -0.937285 0.3482213
vn -0.00810759 -0.983557 0.1804157
vn -0.00810759 -0.983557 0.1804157
vn -0.00810759 -0.983557 0.1804157
vn -0.08146531 -0.9735605 0.2134086
vn -0.08146531 -0.9735605 0.2134086
vn -0.08146531 -0.9735605 0.2134086
vn -0.08146531 -0.9735605 0.2134086
vn -0.08146531 -0.9735605 0.2134086
vn -0.08146531 -0.9735605 0.2134086
vn -0.08146531 -0.9735605 0.2134086
vn -0.08146531 -0.9735605 0.2134086
vn -0.08146531 -0.9735605 0.2134086
vn -0.08950736 -0.9489256 0.3025367
vn -0.08950736 -0.9489256 0.3025367
vn -0.08950736 -0.9489256 0.3025367
vn -0.08950736 -0.9489256 0.3025367
vn -0.08950736 -0.9489256 0.3025367
vn -0.08950736 -0.9489256 0.3025367
vn -0.08950736 -0.9489256 0.3025367
vn -0.08950736 -0.9489256 0.3025367
vn -0.08950736 -0.9489256 0.3025367
vn -0.08950736 -0.9489256 0.3025367
vn -0.08950736 -0.9489256 0.3025367
vn -0.08950736 -0.9489256 0.3025367
vn -0.1515797 -0.9325764 0.3276046
vn -0.1515797 -0.9325764 0.3276046
vn -0.1515797 -0.9325764 0.3276046
vn -0.1544412 -0.9735605 0.168309
vn -0.1544412 -0.9735605 0.168309
vn -0.1544412 -0.9735605 0.168309
vn -0.1544412 -0.9735605 0.168309
vn -0.1544412 -0.9735605 0.168309
vn -0.1544412 -0.9735605 0.168309
vn -0.157738 -0.9835578 0.08793645
vn -0.157738 -0.9835578 0.08793645
vn -0.157738 -0.9835578 0.08793645
vn -0.157738 -0.9835578 0.08793645
vn -0.157738 -0.9835578 0.08793645
vn -0.157738 -0.9835578 0.08793645
vn 0.4108874 -0.6343175 -0.654838
vn 0.4108874 -0.6343175 -0.654838
vn 0.4108874 -0.6343175 -0.654838
vn 0.4108874 -0.6343175 -0.654838
vn 0.4108874 -0.6343175 -0.654838
vn 0.4108874 -0.6343175 -0.654838
vn 0.4108874 -0.6343175 -0.654838
vn 0.4108874 -0.6343175 -0.654838
vn 0.4108874 -0.6343175 -0.654838
vn 0.4108874 -0.6343175 -0.654838
vn 0.4108874 -0.6343175 -0.654838
vn 0.4108874 -0.6343175 -0.654838
vn 0.4108874 -0.6343175 -0.654838
vn 0.4108874 -0.6343175 -0.654838
vn 0.4108874 -0.6343175 -0.654838
vn 0.4108874 -0.6343175 -0.654838
vn 0.4108874 -0.6343175 -0.654838
vn 0.4108874 -0.6343175 -0.654838
vn -0.221156 0.03309843 0.9746767
vn -0.221156 0.03309843 0.9746767
vn -0.221156 0.03309843 0.9746767
vn -0.221156 0.03309843 0.9746767
vn -0.221156 0.03309843 0.9746767
vn -0.221156 0.03309843 0.9746767
vn -0.221156 0.03309843 0.9746767
vn -0.221156 0.03309843 0.9746767
vn -0.221156 0.03309843 0.9746767
vn 0.9460778 0.2024396 -0.2528934
vn 0.9460778 0.2024396 -0.2528934
vn 0.9460778 0.2024396 -0.2528934
vn 0.9460778 0.2024396 -0.2528934
vn 0.9460778 0.2024396 -0.2528934
vn 0.9460778 0.2024396 -0.2528934
vn 0.9460778 0.2024396 -0.2528934
vn 0.9460778 0.2024396 -0.2528934
vn 0.9460778 0.2024396 -0.2528934
vn -0.5605053 0.2051135 0.802348
vn -0.5605053 0.2051135 0.802348
vn -0.5605053 0.2051135 0.802348
vn -0.5605053 0.2051135 0.802348
vn -0.5605053 0.2051135 0.802348
vn -0.5605053 0.2051135 0.802348
vn -0.5605053 0.2051135 0.802348
vn -0.5605053 0.2051135 0.802348
vn -0.5605053 0.2051135 0.802348
vn -0.5605053 0.2051135 0.802348
vn -0.5605053 0.2051135 0.802348
vn -0.5605053 0.2051135 0.802348
vn -0.969965 -0.104414 0.2196949
vn -0.969965 -0.104414 0.2196949
vn -0.969965 -0.104414 0.2196949
vn -0.969965 -0.104414 0.2196949
vn -0.969965 -0.104414 0.2196949
vn -0.969965 -0.104414 0.2196949
vn -0.969965 -0.104414 0.2196949
vn -0.969965 -0.104414 0.2196949
vn -0.969965 -0.104414 0.2196949
vn -0.969965 -0.104414 0.2196949
vn -0.969965 -0.104414 0.2196949
vn -0.969965 -0.104414 0.2196949
vn -0.969965 -0.104414 0.2196949
vn -0.969965 -0.104414 0.2196949
vn -0.969965 -0.104414 0.2196949
vn -0.969965 -0.104414 0.2196949
vn -0.969965 -0.104414 0.2196949
vn -0.969965 -0.104414 0.2196949
vn 0.114298 0.01614472 -0.9933153
vn 0.114298 0.01614472 -0.9933153
vn 0.114298 0.01614472 -0.9933153
vn 0.114298 0.01614472 -0.9933153
vn 0.114298 0.01614472 -0.9933153
vn 0.114298 0.01614472 -0.9933153
vn 0.114298 0.01614472 -0.9933153
vn 0.114298 0.01614472 -0.9933153
vn 0.114298 0.01614472 -0.9933153
vn 0.114298 0.01614472 -0.9933153
vn 0.114298 0.01614472 -0.9933153
vn 0.114298 0.01614472 -0.9933153
vn 0.9866937 0.1624804 0.005991828
vn 0.9866937 0.1624804 0.005991828
vn 0.9866937 0.1624804 0.005991828
vn -0.3498405 0.9364354 -0.02646722
vn -0.3498405 0.9364354 -0.02646722
vn -0.3498405 0.9364354 -0.02646722
vn -0.3498405 0.9364354 -0.02646722
vn -0.3498405 0.9364354 -0.02646722
vn -0.3498405 0.9364354 -0.02646722
vn -0.3498405 0.9364354 -0.02646722
vn -0.3498405 0.9364354 -0.02646722
vn -0.3498405 0.9364354 -0.02646722
vn -0.3498405 0.9364354 -0.02646722
vn -0.3498405 0.9364354 -0.02646722
vn -0.3498405 0.9364354 -0.02646722
vn -0.3498405 0.9364354 -0.02646722
vn -0.3498405 0.9364354 -0.02646722
vn -0.3498405 0.9364354 -0.02646722
vn 0.2462354 0.8348803 -0.4922837
vn 0.2462354 0.8348803 -0.4922837
vn 0.2462354 0.8348803 -0.4922837
vn 0.2462354 0.8348803 -0.4922837
vn 0.2462354 0.8348803 -0.4922837
vn 0.2462354 0.8348803 -0.4922837
vn 0.8157394 0.2069403 0.5401343
vn 0.8157394 0.2069403 0.5401343
vn 0.8157394 0.2069403 0.5401343
vn 0.8157394 0.2069403 0.5401343
vn 0.8157394 0.2069403 0.5401343
vn 0.8157394 0.2069403 0.5401343
vn 0.8157394 0.2069403 0.5401343
vn 0.8157394 0.2069403 0.5401343
vn 0.8157394 0.2069403 0.5401343
vn 0.8157394 0.2069403 0.5401343
vn 0.8157394 0.2069403 0.5401343
vn 0.8157394 0.2069403 0.5401343
vn 0.8157394 0.2069403 0.5401343
vn 0.8157394 0.2069403 0.5401343
vn 0.8157394 0.2069403 0.5401343
vn 0.8157394 0.2069403 0.5401343
vn 0.8157394 0.2069403 0.5401343
vn 0.8157394 0.2069403 0.5401343
vn 0.8157394 0.2069403 0.5401343
vn 0.8157394 0.2069403 0.5401343
vn 0.8157394 0.2069403 0.5401343
vn -0.2662227 0.1023193 -0.9584656
vn -0.2662227 0.1023193 -0.9584656
vn -0.2662227 0.1023193 -0.9584656
vn -0.2662227 0.1023193 -0.9584656
vn -0.2662227 0.1023193 -0.9584656
vn -0.2662227 0.1023193 -0.9584656
vn -0.2662227 0.1023193 -0.9584656
vn -0.2662227 0.1023193 -0.9584656
vn -0.2662227 0.1023193 -0.9584656
vn 0.260118 0.2802541 0.9240111
vn 0.260118 0.2802541 0.9240111
vn 0.260118 0.2802541 0.9240111
vn 0.260118 0.2802541 0.9240111
vn 0.260118 0.2802541 0.9240111
vn 0.260118 0.2802541 0.9240111
vn 0.9249983 -0.379954 0.003641615
vn 0.9249983 -0.379954 0.003641615
vn 0.9249983 -0.379954 0.003641615
vn 0.9249983 -0.379954 0.003641615
vn 0.9249983 -0.379954 0.003641615
vn 0.9249983 -0.379954 0.003641615
vn 0.9249983 -0.379954 0.003641615
vn 0.9249983 -0.379954 0.003641615
vn 0.9249983 -0.379954 0.003641615
vn 0.9249983 -0.379954 0.003641615
vn 0.9249983 -0.379954 0.003641615
vn 0.9249983 -0.379954 0.003641615
vn 0.9249983 -0.379954 0.003641615
vn 0.9249983 -0.379954 0.003641615
vn 0.9249983 -0.379954 0.003641615

vt 0.8636355 0.275556
vt 0.8690912 0.2661065
vt 0.8718253 0.275556
vt 0.8718253 0.275556
vt 0.8690912 0.2661065
vt 0.8705029 0.2666406
vt 0.8732766 0.2824375
vt 0.8703937 0.2872614
vt 0.8718253 0.275556
vt 0.8718253 0.275556
vt 0.8703937 0.2872614
vt 0.8636355 0.275556
vt 0.8703937 0.2872614
vt 0.8675492 0.2916608
vt 0.8636355 0.275556
vt 0.8636355 0.275556
vt 0.8675492 0.2916608
vt 0.855047 0.2904319
vt 0.8636355 0.275556
vt 0.8542171 0.2592428
vt 0.8690912 0.2661065
vt 0.8419973 0.2736696
vt 0.8511118 0.2578828
vt 0.8425007 0.275556
vt 0.8425007 0.275556
vt 0.8511118 0.2578828
vt 0.8636355 0.275556
vt 0.8636355 0.275556
vt 0.8511118 0.2578828
vt 0.8542171 0.2592428
vt 0.8636355 0.275556
vt 0.855047 0.2904319
vt 0.8425007 0.275556
vt 0.8425007 0.275556
vt 0.855047 0.2904319
vt 0.8438824 0.2807075
vt 0.8438824 0.2807075
vt 0.855047 0.2904319
vt 0.84813 0.2880645
vt 0.84813 0.2880645
vt 0.855047 0.2904319
vt 0.8518856 0.2900603
vt 0.8438824 0.2807075
vt 0.84813 0.2880645
vt 0.8452854 0.2867557
vt 0.838614 0.2558735
vt 0.8484464 0.2558735
vt 0.8419973 0.2736696
vt 0.8419973 0.2736696
vt 0.8484464 0.2558735
vt 0.8511118 0.2578828
vt 0.8456584 0.2538565
vt 0.8484464 0.2558735
vt 0.8385986 0.2558105
vt 0.8385986 0.2558105
vt 0.8484464 0.2558735
vt 0.838614 0.2558735
vt 0.359552 0.5120405
vt 0.5254053 0.337332
vt 0.5003539 0.5325542
vt 0.5003539 0.5325542
vt 0.5254053 0.337332
vt 0.7036157 0.4935895
vt 0.7036157 0.4935895
vt 0.5254053 0.337332
vt 0.6850145 0.47106
vt 0.6850145 0.47106
vt 0.5254053 0.337332
vt 0.666226 0.4506635
vt 0.666226 0.4506635
vt 0.5254053 0.337332
vt 0.6452154 0.4318515
vt 0.6452154 0.4318515
vt 0.5254053 0.337332
vt 0.5367873 0.344734
vt 0.3689651 0.5066965
vt 0.3683885 0.4868016
vt 0.5143516 0.4364174
vt 0.5143516 0.4364174
vt 0.3683885 0.4868016
vt 0.5076481 0.4327937
vt 0.5076481 0.4327937
vt 0.3683885 0.4868016
vt 0.3731138 0.4051265
vt 0.4561295 0.5319167
vt 0.4566264 0.533248
vt 0.4499885 0.5307916
vt 0.4499885 0.5307916
vt 0.4566264 0.533248
vt 0.4343407 0.5314667
vt 0.4343407 0.5314667
vt 0.4566264 0.533248
vt 0.435297 0.5334355
vt 0.2515739 0.4349782
vt 0.2624027 0.4052953
vt 0.4560826 0.5895013
vt 0.4560826 0.5895013
vt 0.2624027 0.4052953
vt 0.6103947 0.3715902
vt 0.6103947 0.3715902
vt 0.2624027 0.4052953
vt 0.5413437 0.33526
vt 0.5413437 0.33526
vt 0.2624027 0.4052953
vt 0.2790817 0.3642773
vt 0.3452824 0.5921077
vt 0.3578691 0.48082
vt 0.3452731 0.5925483
vt 0.3452731 0.5925483
vt 0.3578691 0.48082
vt 0.516733 0.5700095
vt 0.516733 0.5700095
vt 0.3578691 0.48082
vt 0.5264648 0.4525949
vt 0.5264648 0.4525949
vt 0.3578691 0.48082
vt 0.3806986 0.3947572
vt 0.3806986 0.3947572
vt 0.3578691 0.48082
vt 0.3693776 0.4337407
vt 0.3693776 0.4337407
vt 0.3578691 0.48082
vt 0.3601521 0.4677411
vt 0.5073949 0.3644414
vt 0.5572447 0.4605313
vt 0.4235448 0.3298222
vt 0.4235448 0.3298222
vt 0.5572447 0.4605313
vt 0.4032467 0.3342427
vt 0.4032467 0.3342427
vt 0.5572447 0.4605313
vt 0.3900554 0.3926102
vt 0.3900554 0.3926102
vt 0.5572447 0.4605313
vt 0.4020842 0.424562
vt 0.4431069 0.5769942
vt 0.4490603 0.5761973
vt 0.4490556 0.5780537
vt 0.5259679 0.3475232
vt 0.6530533 0.5453331
vt 0.5235771 0.3466466
vt 0.5235771 0.3466466
vt 0.6530533 0.5453331
vt 0.3843503 0.4243276
vt 0.3843503 0.4243276
vt 0.6530533 0.5453331
vt 0.3576113 0.5361638
vt 0.3576113 0.5361638
vt 0.6530533 0.5453331
vt 0.5849494 0.5871105
vt 0.5849494 0.5871105
vt 0.6530533 0.5453331
vt 0.6186638 0.5832853
vt 0.6347617 0.5032744
vt 0.6347804 0.505712
vt 0.5978876 0.4641128
vt 0.5978876 0.4641128
vt 0.6347804 0.505712
vt 0.5670046 0.5141782
vt 0.6268393 0.3320395
vt 0.6434434 0.367329
vt 0.4683505 0.3467497
vt 0.4683505 0.3467497
vt 0.6434434 0.367329
vt 0.407461 0.3676759
vt 0.407461 0.3676759
vt 0.6434434 0.367329
vt 0.3972042 0.646767
vt 0.3972042 0.646767
vt 0.6434434 0.367329
vt 0.4338016 0.688657
vt 0.4338016 0.688657
vt 0.6434434 0.367329
vt 0.4517933 0.6877663
vt 0.4517933 0.6877663
vt 0.6434434 0.367329
vt 0.458839 0.6866412
vt 0.458839 0.6866412
vt 0.6434434 0.367329
vt 0.6595881 0.409008
vt 0.5696766 0.4176851
vt 0.6700887 0.5451737
vt 0.4100299 0.3794891
vt 0.4100299 0.3794891
vt 0.6700887 0.5451737
vt 0.4851655 0.6091242
vt 0.4851655 0.6091242
vt 0.6700887 0.5451737
vt 0.659635 0.5950328
vt 0.4749321 0.5089747
vt 0.4681817 0.5052807
vt 0.5231084 0.5113092
vt 0.5231084 0.5113092
vt 0.4681817 0.5052807
vt 0.5241866 0.5088997
vt 0.5762958 0.3789828
vt 0.5926842 0.423587
vt 0.3654258 0.5756254
vt 0.3654258 0.5756254
vt 0.5926842 0.423587
vt 0.3654164 0.5774818
vt 0.3654164 0.5774818
vt 0.5926842 0.423587
vt 0.365993 0.5787194
vt 0.365993 0.5787194
vt 0.5926842 0.423587
vt 0.4559701 0.5840071
vt 0.4559701 0.5840071
vt 0.5926842 0.423587
vt 0.6082476 0.4842233

usemtl Material0
usemap Material0
f 1/1/1 2/2/2 3/3/3
f 4/4/4 5/5/5 6/6/6
f 7/7/7 8/8/8 9/9/9
f 10/10/10 11/11/11 12/12/12
f 13/13/13 14/14/14 15/15/15
f 16/16/16 17/17/17 18/18/18
f 19/19/19 20/20/20 21/21/21
f 22/22/22 23/23/23 24/24/24
f 25/25/25 26/26/26 27/27/27
f 28/28/28 29/29/29 30/30/30
f 31/31/31 32/32/32 33/33/33
f 34/34/34 35/35/35 36/36/36
f 37/37/37 38/38/38 39/39/39
f 40/40/40 41/41/41 42/42/42
f 43/43/43 44/44/44 45/45/45
f 46/46/46 47/47/47 48/48/48
f 49/49/49 50/50/50 51/51/51
f 52/52/52 53/53/53 54/54/54
f 55/55/55 56/56/56 57/57/57

usemtl Material1
usemap Material1
f 58/58/58 59/59/59 60/60/60
f 61/61/61 62/62/62 63/63/63
f 64/64/64 65/65/65 66/66/66
f 67/67/67 68/68/68 69/69/69
f 70/70/70 71/71/71 72/72/72
f 73/73/73 74/74/74 75/75/75
f 76/76/76 77/77/77 78/78/78
f 79/79/79 80/80/80 81/81/81
f 82/82/82 83/83/83 84/84/84
f 85/85/85 86/86/86 87/87/87
f 88/88/88 89/89/89 90/90/90
f 91/91/91 92/92/92 93/93/93
f 94/94/94 95/95/95 96/96/96
f 97/97/97 98/98/98 99/99/99
f 100/100/100 101/101/101 102/102/102
f 103/103/103 104/104/104 105/105/105
f 106/106/106 107/107/107 108/108/108
f 109/109/109 110/110/110 111/111/111
f 112/112/112 113/113/113 114/114/114
f 115/115/115 116/116/116 117/117/117
f 118/118/118 119/119/119 120/120/120
f 121/121/121 122/122/122 123/123/123
f 124/124/124 125/125/125 126/126/126
f 127/127/127 128/128/128 129/129/129
f 130/130/130 131/131/131 132/132/132
f 133/133/133 134/134/134 135/135/135
f 136/136/136 137/137/137 138/138/138
f 139/139/139 140/140/140 141/141/141
f 142/142/142 143/143/143 144/144/144
f 145/145/145 146/146/146 147/147/147
f 148/148/148 149/149/149 150/150/150
f 151/151/151 152/152/152 153/153/153
f 154/154/154 155/155/155 156/156/156
f 157/157/157 158/158/158 159/159/159
f 160/160/160 161/161/161 162/162/162
f 163/163/163 164/164/164 165/165/165
f 166/166/166 167/167/167 168/168/168
f 169/169/169 170/170/170 171/171/171
f 172/172/172 173/173/173 174/174/174
f 175/175/175 176/176/176 177/177/177
f 178/178/178 179/179/179 180/180/180
f 181/181/181 182/182/182 183/183/183
f 184/184/184 185/185/185 186/186/186
f 187/187/187 188/188/188 189/189/189
f 190/190/190 191/191/191 192/192/192
f 193/193/193 194/194/194 195/195/195
f 196/196/196 197/197/197 198/198/198
f 199/199/199 200/200/200 201/201/201
f 202/202/202 203/203/203 204/204/204
f 205/205/205 206/206/206 207/207/207
f 208/208/208 209/209/209 210/210/210
