g  Instance
v -3.326675 -50.84111 -2.755728
v -3.349904 -50.83067 -2.671158
v -3.372358 -50.80373 -2.742482
v -2.79833 -49.46755 -2.609221
v -3.144085 -49.73295 -2.643069
v -1.958923 -49.0929 -1.941538
v -1.958923 -49.0929 -1.941538
v -3.144085 -49.73295 -2.643069
v -1.512279 -49.33272 -0.6327116
v -1.512279 -49.33272 -0.6327116
v -3.144085 -49.73295 -2.643069
v -1.595409 -49.47047 -0.4802962
v -1.595409 -49.47047 -0.4802962
v -3.144085 -49.73295 -2.643069
v -2.358661 -50.12592 -0.4039249
v -2.358661 -50.12592 -0.4039249
v -2.439366 -50.56018 -0.4131616
v -1.595409 -49.47047 -0.4802962
v -1.595409 -49.47047 -0.4802962
v -2.439366 -50.56018 -0.4131616
v -1.527752 -49.48349 -0.4904396
v -1.527752 -49.48349 -0.4904396
v -2.439366 -50.56018 -0.4131616
v -1.813524 -50.57439 -0.5019523
v -1.527752 -49.48349 -0.4904396
v -1.813524 -50.57439 -0.5019523
v -1.44075 -49.37192 -0.6202845
v -1.44075 -49.37192 -0.6202845
v -1.813524 -50.57439 -0.5019523
v -1.245512 -49.4812 -1.129139
v -1.245512 -49.4812 -1.129139
v -1.813524 -50.57439 -0.5019523
v -1.404839 -50.69881 -1.504031
v -1.512279 -49.33272 -0.6327116
v -1.595409 -49.47047 -0.4802962
v -1.44075 -49.37192 -0.6202845
v -1.44075 -49.37192 -0.6202845
v -1.595409 -49.47047 -0.4802962
v -1.527752 -49.48349 -0.4904396
v -3.349904 -50.83067 -2.671158
v -2.439366 -50.56018 -0.4131616
v -3.372358 -50.80373 -2.742482
v -3.372358 -50.80373 -2.742482
v -2.439366 -50.56018 -0.4131616
v -3.329047 -50.36421 -2.833592
v -3.329047 -50.36421 -2.833592
v -2.439366 -50.56018 -0.4131616
v -3.144085 -49.73295 -2.643069
v -3.144085 -49.73295 -2.643069
v -2.439366 -50.56018 -0.4131616
v -2.358661 -50.12592 -0.4039249
v -1.640289 -49.85793 -2.857994
v -1.690448 -50.24049 -2.976249
v -1.780438 -49.89384 -2.935127
v -1.780438 -49.89384 -2.935127
v -1.690448 -50.24049 -2.976249
v -1.878403 -50.49719 -3.130821
v -1.878403 -50.49719 -3.130821
v -1.690448 -50.24049 -2.976249
v -1.834618 -50.6107 -3.137306
v -1.834618 -50.6107 -3.137306
v -1.690448 -50.24049 -2.976249
v -1.798949 -50.58746 -3.114217
v -1.958923 -49.0929 -1.941538
v -1.464029 -49.36556 -2.184324
v -2.79833 -49.46755 -2.609221
v -2.79833 -49.46755 -2.609221
v -1.464029 -49.36556 -2.184324
v -1.780438 -49.89384 -2.935127
v -1.780438 -49.89384 -2.935127
v -1.464029 -49.36556 -2.184324
v -1.640289 -49.85793 -2.857994
v -3.329047 -50.36421 -2.833592
v -2.299231 -50.86685 -3.188447
v -3.372358 -50.80373 -2.742482
v -3.372358 -50.80373 -2.742482
v -2.299231 -50.86685 -3.188447
v -3.326675 -50.84111 -2.755728
v -3.326675 -50.84111 -2.755728
v -2.299231 -50.86685 -3.188447
v -2.282629 -50.89972 -3.190071
v -1.404839 -50.69881 -1.504031
v -1.614182 -50.81268 -2.446846
v -1.245512 -49.4812 -1.129139
v -1.245512 -49.4812 -1.129139
v -1.614182 -50.81268 -2.446846
v -1.464029 -49.36556 -2.184324
v -1.464029 -49.36556 -2.184324
v -1.614182 -50.81268 -2.446846
v -1.640289 -49.85793 -2.857994
v -1.640289 -49.85793 -2.857994
v -1.614182 -50.81268 -2.446846
v -1.690448 -50.24049 -2.976249
v -1.690448 -50.24049 -2.976249
v -1.614182 -50.81268 -2.446846
v -1.668215 -50.68674 -2.737248
v -3.329047 -50.36421 -2.833592
v -3.144085 -49.73295 -2.643069
v -2.299231 -50.86685 -3.188447
v -2.299231 -50.86685 -3.188447
v -3.144085 -49.73295 -2.643069
v -1.878403 -50.49719 -3.130821
v -1.878403 -50.49719 -3.130821
v -3.144085 -49.73295 -2.643069
v -1.780438 -49.89384 -2.935127
v -1.780438 -49.89384 -2.935127
v -3.144085 -49.73295 -2.643069
v -2.79833 -49.46755 -2.609221
v -2.282629 -50.89972 -3.190071
v -2.132546 -50.89934 -3.180316
v -3.326675 -50.84111 -2.755728
v -3.326675 -50.84111 -2.755728
v -2.132546 -50.89934 -3.180316
v -3.349904 -50.83067 -2.671158
v -3.349904 -50.83067 -2.671158
v -2.132546 -50.89934 -3.180316
v -2.439366 -50.56018 -0.4131616
v -2.439366 -50.56018 -0.4131616
v -2.132546 -50.89934 -3.180316
v -1.813524 -50.57439 -0.5019523
v -1.813524 -50.57439 -0.5019523
v -2.132546 -50.89934 -3.180316
v -1.404839 -50.69881 -1.504031
v -1.404839 -50.69881 -1.504031
v -2.132546 -50.89934 -3.180316
v -1.614182 -50.81268 -2.446846
v -1.44075 -49.37192 -0.6202845
v -1.245512 -49.4812 -1.129139
v -1.512279 -49.33272 -0.6327116
v -1.512279 -49.33272 -0.6327116
v -1.245512 -49.4812 -1.129139
v -1.958923 -49.0929 -1.941538
v -1.958923 -49.0929 -1.941538
v -1.245512 -49.4812 -1.129139
v -1.464029 -49.36556 -2.184324
v -1.878403 -50.49719 -3.130821
v -1.834618 -50.6107 -3.137306
v -2.299231 -50.86685 -3.188447
v -2.299231 -50.86685 -3.188447
v -1.834618 -50.6107 -3.137306
v -2.282629 -50.89972 -3.190071
v -2.282629 -50.89972 -3.190071
v -1.834618 -50.6107 -3.137306
v -2.132546 -50.89934 -3.180316
v -1.690448 -50.24049 -2.976249
v -1.668215 -50.68674 -2.737248
v -1.798949 -50.58746 -3.114217
v -1.798949 -50.58746 -3.114217
v -1.668215 -50.68674 -2.737248
v -1.834618 -50.6107 -3.137306
v -1.834618 -50.6107 -3.137306
v -1.668215 -50.68674 -2.737248
v -2.132546 -50.89934 -3.180316
v -2.132546 -50.89934 -3.180316
v -1.668215 -50.68674 -2.737248
v -1.614182 -50.81268 -2.446846

vn -0.6454864 -0.7591864 -0.08356658
vn -0.6454864 -0.7591864 -0.08356658
vn -0.6454864 -0.7591864 -0.08356658
vn -0.5938795 0.7307735 0.3365668
vn -0.5938795 0.7307735 0.3365668
vn -0.5938795 0.7307735 0.3365668
vn -0.5938795 0.7307735 0.3365668
vn -0.5938795 0.7307735 0.3365668
vn -0.5938795 0.7307735 0.3365668
vn -0.5938795 0.7307735 0.3365668
vn -0.5938795 0.7307735 0.3365668
vn -0.5938795 0.7307735 0.3365668
vn -0.5938795 0.7307735 0.3365668
vn -0.5938795 0.7307735 0.3365668
vn -0.5938795 0.7307735 0.3365668
vn 0.1392684 -0.04692185 0.9891424
vn 0.1392684 -0.04692185 0.9891424
vn 0.1392684 -0.04692185 0.9891424
vn 0.1392684 -0.04692185 0.9891424
vn 0.1392684 -0.04692185 0.9891424
vn 0.1392684 -0.04692185 0.9891424
vn 0.1392684 -0.04692185 0.9891424
vn 0.1392684 -0.04692185 0.9891424
vn 0.1392684 -0.04692185 0.9891424
vn 0.8889281 -0.2370016 0.3919657
vn 0.8889281 -0.2370016 0.3919657
vn 0.8889281 -0.2370016 0.3919657
vn 0.8889281 -0.2370016 0.3919657
vn 0.8889281 -0.2370016 0.3919657
vn 0.8889281 -0.2370016 0.3919657
vn 0.8889281 -0.2370016 0.3919657
vn 0.8889281 -0.2370016 0.3919657
vn 0.8889281 -0.2370016 0.3919657
vn 0.2337476 0.6544935 0.7190273
vn 0.2337476 0.6544935 0.7190273
vn 0.2337476 0.6544935 0.7190273
vn 0.2337476 0.6544935 0.7190273
vn 0.2337476 0.6544935 0.7190273
vn 0.2337476 0.6544935 0.7190273
vn -0.9215593 0.1637812 0.3520004
vn -0.9215593 0.1637812 0.3520004
vn -0.9215593 0.1637812 0.3520004
vn -0.9215593 0.1637812 0.3520004
vn -0.9215593 0.1637812 0.3520004
vn -0.9215593 0.1637812 0.3520004
vn -0.9215593 0.1637812 0.3520004
vn -0.9215593 0.1637812 0.3520004
vn -0.9215593 0.1637812 0.3520004
vn -0.9215593 0.1637812 0.3520004
vn -0.9215593 0.1637812 0.3520004
vn -0.9215593 0.1637812 0.3520004
vn 0.4279565 0.2152225 -0.8777999
vn 0.4279565 0.2152225 -0.8777999
vn 0.4279565 0.2152225 -0.8777999
vn 0.4279565 0.2152225 -0.8777999
vn 0.4279565 0.2152225 -0.8777999
vn 0.4279565 0.2152225 -0.8777999
vn 0.4279565 0.2152225 -0.8777999
vn 0.4279565 0.2152225 -0.8777999
vn 0.4279565 0.2152225 -0.8777999
vn 0.4279565 0.2152225 -0.8777999
vn 0.4279565 0.2152225 -0.8777999
vn 0.4279565 0.2152225 -0.8777999
vn 0.1335445 0.7831487 -0.6073252
vn 0.1335445 0.7831487 -0.6073252
vn 0.1335445 0.7831487 -0.6073252
vn 0.1335445 0.7831487 -0.6073252
vn 0.1335445 0.7831487 -0.6073252
vn 0.1335445 0.7831487 -0.6073252
vn 0.1335445 0.7831487 -0.6073252
vn 0.1335445 0.7831487 -0.6073252
vn 0.1335445 0.7831487 -0.6073252
vn -0.3869185 -0.1504679 -0.9097546
vn -0.3869185 -0.1504679 -0.9097546
vn -0.3869185 -0.1504679 -0.9097546
vn -0.3869185 -0.1504679 -0.9097546
vn -0.3869185 -0.1504679 -0.9097546
vn -0.3869185 -0.1504679 -0.9097546
vn -0.3869185 -0.1504679 -0.9097546
vn -0.3869185 -0.1504679 -0.9097546
vn -0.3869185 -0.1504679 -0.9097546
vn 0.975856 -0.0633339 -0.2090311
vn 0.975856 -0.0633339 -0.2090311
vn 0.975856 -0.0633339 -0.2090311
vn 0.975856 -0.0633339 -0.2090311
vn 0.975856 -0.0633339 -0.2090311
vn 0.975856 -0.0633339 -0.2090311
vn 0.975856 -0.0633339 -0.2090311
vn 0.975856 -0.0633339 -0.2090311
vn 0.975856 -0.0633339 -0.2090311
vn 0.975856 -0.0633339 -0.2090311
vn 0.975856 -0.0633339 -0.2090311
vn 0.975856 -0.0633339 -0.2090311
vn 0.975856 -0.0633339 -0.2090311
vn 0.975856 -0.0633339 -0.2090311
vn 0.975856 -0.0633339 -0.2090311
vn -0.1606713 0.328046 -0.9308977
vn -0.1606713 0.328046 -0.9308977
vn -0.1606713 0.328046 -0.9308977
vn -0.1606713 0.328046 -0.9308977
vn -0.1606713 0.328046 -0.9308977
vn -0.1606713 0.328046 -0.9308977
vn -0.1606713 0.328046 -0.9308977
vn -0.1606713 0.328046 -0.9308977
vn -0.1606713 0.328046 -0.9308977
vn -0.1606713 0.328046 -0.9308977
vn -0.1606713 0.328046 -0.9308977
vn -0.1606713 0.328046 -0.9308977
vn -0.005350946 -0.9926298 0.1210683
vn -0.005350946 -0.9926298 0.1210683
vn -0.005350946 -0.9926298 0.1210683
vn -0.005350946 -0.9926298 0.1210683
vn -0.005350946 -0.9926298 0.1210683
vn -0.005350946 -0.9926298 0.1210683
vn -0.005350946 -0.9926298 0.1210683
vn -0.005350946 -0.9926298 0.1210683
vn -0.005350946 -0.9926298 0.1210683
vn -0.005350946 -0.9926298 0.1210683
vn -0.005350946 -0.9926298 0.1210683
vn -0.005350946 -0.9926298 0.1210683
vn -0.005350946 -0.9926298 0.1210683
vn -0.005350946 -0.9926298 0.1210683
vn -0.005350946 -0.9926298 0.1210683
vn -0.005350946 -0.9926298 0.1210683
vn -0.005350946 -0.9926298 0.1210683
vn -0.005350946 -0.9926298 0.1210683
vn 0.4812169 0.8765942 -0.003587237
vn 0.4812169 0.8765942 -0.003587237
vn 0.4812169 0.8765942 -0.003587237
vn 0.4812169 0.8765942 -0.003587237
vn 0.4812169 0.8765942 -0.003587237
vn 0.4812169 0.8765942 -0.003587237
vn 0.4812169 0.8765942 -0.003587237
vn 0.4812169 0.8765942 -0.003587237
vn 0.4812169 0.8765942 -0.003587237
vn 0.06442902 0.08169584 -0.9945727
vn 0.06442902 0.08169584 -0.9945727
vn 0.06442902 0.08169584 -0.9945727
vn 0.06442902 0.08169584 -0.9945727
vn 0.06442902 0.08169584 -0.9945727
vn 0.06442902 0.08169584 -0.9945727
vn 0.06442902 0.08169584 -0.9945727
vn 0.06442902 0.08169584 -0.9945727
vn 0.06442902 0.08169584 -0.9945727
vn 0.9221662 -0.1459138 -0.3582163
vn 0.9221662 -0.1459138 -0.3582163
vn 0.9221662 -0.1459138 -0.3582163
vn 0.6674991 -0.6297404 -0.3973312
vn 0.6674991 -0.6297404 -0.3973312
vn 0.6674991 -0.6297404 -0.3973312
vn 0.6674991 -0.6297404 -0.3973312
vn 0.6674991 -0.6297404 -0.3973312
vn 0.6674991 -0.6297404 -0.3973312
vn 0.6674991 -0.6297404 -0.3973312
vn 0.6674991 -0.6297404 -0.3973312
vn 0.6674991 -0.6297404 -0.3973312

vt 0.5175299 0.6220156
vt 0.5199394 0.6136433
vt 0.5233521 0.620703
vt 0.5068511 0.6450138
vt 0.4613657 0.648764
vt 0.5995284 0.5709939
vt 0.5995284 0.5709939
vt 0.4613657 0.648764
vt 0.6199296 0.4258887
vt 0.6199296 0.4258887
vt 0.4613657 0.648764
vt 0.6041224 0.4089893
vt 0.6041224 0.4089893
vt 0.4613657 0.648764
vt 0.4991257 0.4005231
vt 0.5010008 0.486014
vt 0.4578921 0.4941051
vt 0.5656358 0.4094909
vt 0.5656358 0.4094909
vt 0.4578921 0.4941051
vt 0.5642951 0.4027076
vt 0.5642951 0.4027076
vt 0.4578921 0.4941051
vt 0.4560638 0.4313546
vt 0.3916023 0.4363424
vt 0.5121108 0.4376784
vt 0.3776843 0.451423
vt 0.3776843 0.451423
vt 0.5121108 0.4376784
vt 0.3835956 0.5105311
vt 0.3835956 0.5105311
vt 0.5121108 0.4376784
vt 0.5137047 0.5540711
vt 0.5686641 0.5360419
vt 0.5641451 0.5050182
vt 0.5800554 0.5335105
vt 0.5800554 0.5335105
vt 0.5641451 0.5050182
vt 0.5737737 0.5070809
vt 0.4073673 0.6526361
vt 0.4520792 0.3992575
vt 0.4097393 0.6606429
vt 0.4097393 0.6606429
vt 0.4520792 0.3992575
vt 0.4559889 0.6708622
vt 0.4559889 0.6708622
vt 0.4520792 0.3992575
vt 0.5246741 0.6494766
vt 0.5246741 0.6494766
vt 0.4520792 0.3992575
vt 0.4984694 0.3982214
vt 0.4985538 0.4889673
vt 0.5640701 0.5396327
vt 0.4922159 0.5220161
vt 0.4922159 0.5220161
vt 0.5640701 0.5396327
vt 0.5937999 0.6058615
vt 0.5937999 0.6058615
vt 0.5640701 0.5396327
vt 0.6186545 0.6086367
vt 0.6186545 0.6086367
vt 0.5640701 0.5396327
vt 0.6176794 0.5987455
vt 0.5222739 0.4631892
vt 0.5883152 0.5009961
vt 0.4276747 0.5671874
vt 0.4276747 0.5671874
vt 0.5883152 0.5009961
vt 0.5607043 0.6179466
vt 0.5607043 0.6179466
vt 0.5883152 0.5009961
vt 0.5770552 0.6059272
vt 0.4791839 0.5034525
vt 0.5258741 0.3843878
vt 0.5269992 0.508459
vt 0.5269992 0.508459
vt 0.5258741 0.3843878
vt 0.5307025 0.5031806
vt 0.5307025 0.5031806
vt 0.5258741 0.3843878
vt 0.5293056 0.3824658
vt 0.5334308 0.4860421
vt 0.5462191 0.5829759
vt 0.4102456 0.4475087
vt 0.4102456 0.4475087
vt 0.5462191 0.5829759
vt 0.400059 0.5559837
vt 0.400059 0.5559837
vt 0.5462191 0.5829759
vt 0.4505979 0.6252408
vt 0.4505979 0.6252408
vt 0.5462191 0.5829759
vt 0.4893048 0.6373915
vt 0.4893048 0.6373915
vt 0.5462191 0.5829759
vt 0.5339371 0.6128276
vt 0.5587354 0.5467113
vt 0.4931347 0.5280539
vt 0.6176982 0.4427928
vt 0.6176982 0.4427928
vt 0.4931347 0.5280539
vt 0.5810679 0.4003216
vt 0.5810679 0.4003216
vt 0.4931347 0.5280539
vt 0.5179143 0.390435
vt 0.5179143 0.390435
vt 0.4931347 0.5280539
vt 0.4670801 0.4931582
vt 0.4765869 0.6820191
vt 0.461722 0.681044
vt 0.5800085 0.6386853
vt 0.5800085 0.6386853
vt 0.461722 0.681044
vt 0.5823149 0.6302474
vt 0.5823149 0.6302474
vt 0.461722 0.681044
vt 0.4922909 0.4049625
vt 0.4922909 0.4049625
vt 0.461722 0.681044
vt 0.4303046 0.4138224
vt 0.4303046 0.4138224
vt 0.461722 0.681044
vt 0.38976 0.5138031
vt 0.38976 0.5138031
vt 0.461722 0.681044
vt 0.4104331 0.607868
vt 0.5345371 0.4205821
vt 0.5565321 0.4706053
vt 0.526521 0.4218056
vt 0.526521 0.4218056
vt 0.5565321 0.4706053
vt 0.4766853 0.5504709
vt 0.4766853 0.5504709
vt 0.5565321 0.4706053
vt 0.5322307 0.574341
vt 0.5345184 0.4394785
vt 0.5457128 0.4351517
vt 0.5712892 0.4810168
vt 0.5712892 0.4810168
vt 0.5457128 0.4351517
vt 0.5745238 0.4793714
vt 0.5745238 0.4793714
vt 0.5457128 0.4351517
vt 0.5744113 0.4645581
vt 0.4822779 0.6254471
vt 0.5283211 0.5984924
vt 0.5201457 0.6410011
vt 0.474979 0.6358164
vt 0.4731039 0.5918076
vt 0.4794136 0.6385165
vt 0.4794136 0.6385165
vt 0.4731039 0.5918076
vt 0.5238115 0.6435325
vt 0.5238115 0.6435325
vt 0.4731039 0.5918076
vt 0.4789449 0.5579057

usemtl Material0
usemap Material0

usemtl Material1
usemap Material1
f 1/1/1 2/2/2 3/3/3
f 4/4/4 5/5/5 6/6/6
f 7/7/7 8/8/8 9/9/9
f 10/10/10 11/11/11 12/12/12
f 13/13/13 14/14/14 15/15/15
f 16/16/16 17/17/17 18/18/18
f 19/19/19 20/20/20 21/21/21
f 22/22/22 23/23/23 24/24/24
f 25/25/25 26/26/26 27/27/27
f 28/28/28 29/29/29 30/30/30
f 31/31/31 32/32/32 33/33/33
f 34/34/34 35/35/35 36/36/36
f 37/37/37 38/38/38 39/39/39
f 40/40/40 41/41/41 42/42/42
f 43/43/43 44/44/44 45/45/45
f 46/46/46 47/47/47 48/48/48
f 49/49/49 50/50/50 51/51/51
f 52/52/52 53/53/53 54/54/54
f 55/55/55 56/56/56 57/57/57
f 58/58/58 59/59/59 60/60/60
f 61/61/61 62/62/62 63/63/63
f 64/64/64 65/65/65 66/66/66
f 67/67/67 68/68/68 69/69/69
f 70/70/70 71/71/71 72/72/72
f 73/73/73 74/74/74 75/75/75
f 76/76/76 77/77/77 78/78/78
f 79/79/79 80/80/80 81/81/81
f 82/82/82 83/83/83 84/84/84
f 85/85/85 86/86/86 87/87/87
f 88/88/88 89/89/89 90/90/90
f 91/91/91 92/92/92 93/93/93
f 94/94/94 95/95/95 96/96/96
f 97/97/97 98/98/98 99/99/99
f 100/100/100 101/101/101 102/102/102
f 103/103/103 104/104/104 105/105/105
f 106/106/106 107/107/107 108/108/108
f 109/109/109 110/110/110 111/111/111
f 112/112/112 113/113/113 114/114/114
f 115/115/115 116/116/116 117/117/117
f 118/118/118 119/119/119 120/120/120
f 121/121/121 122/122/122 123/123/123
f 124/124/124 125/125/125 126/126/126
f 127/127/127 128/128/128 129/129/129
f 130/130/130 131/131/131 132/132/132
f 133/133/133 134/134/134 135/135/135
f 136/136/136 137/137/137 138/138/138
f 139/139/139 140/140/140 141/141/141
f 142/142/142 143/143/143 144/144/144
f 145/145/145 146/146/146 147/147/147
f 148/148/148 149/149/149 150/150/150
f 151/151/151 152/152/152 153/153/153
f 154/154/154 155/155/155 156/156/156
