g  Instance
v -2.458081 -46.57313 7.433576
v -2.260684 -47.98359 6.659015
v -2.187988 -46.80299 6.320732
v -2.650199 -48.44464 6.358717
v -2.652786 -48.44625 6.345524
v -2.629614 -48.43112 6.368473
v -5.029603 -46.8742 5.311083
v -4.862326 -46.99337 5.178423
v -4.771211 -47.24773 5.186514
v -4.688974 -46.1801 5.319407
v -5.239729 -46.66623 5.49505
v -5.33343 -46.14268 6.055498
v -5.33343 -46.14268 6.055498
v -5.239729 -46.66623 5.49505
v -5.334821 -46.63131 5.629399
v -4.474543 -47.99625 5.319402
v -3.349293 -48.43148 6.087379
v -5.334821 -46.63131 5.629399
v -5.334821 -46.63131 5.629399
v -3.349293 -48.43148 6.087379
v -5.33343 -46.14268 6.055498
v -5.33343 -46.14268 6.055498
v -3.349293 -48.43148 6.087379
v -3.934623 -46.00332 7.601543
v -3.934623 -46.00332 7.601543
v -3.349293 -48.43148 6.087379
v -3.12949 -48.41473 6.325841
v -4.135782 -46.37316 4.940457
v -4.090036 -46.19155 4.967842
v -3.450133 -47.04313 4.859253
v -3.450133 -47.04313 4.859253
v -4.090036 -46.19155 4.967842
v -3.165715 -46.36796 4.963707
v -3.165715 -46.36796 4.963707
v -4.090036 -46.19155 4.967842
v -3.685678 -46.18186 4.978621
v -3.165938 -45.97982 7.694555
v -3.934623 -46.00332 7.601543
v -2.458081 -46.57313 7.433576
v -2.458081 -46.57313 7.433576
v -3.934623 -46.00332 7.601543
v -2.260684 -47.98359 6.659015
v -2.260684 -47.98359 6.659015
v -3.934623 -46.00332 7.601543
v -2.629614 -48.43112 6.368473
v -2.629614 -48.43112 6.368473
v -3.934623 -46.00332 7.601543
v -2.650199 -48.44464 6.358717
v -2.650199 -48.44464 6.358717
v -3.934623 -46.00332 7.601543
v -3.12949 -48.41473 6.325841
v -3.906342 -48.00049 5.073537
v -4.415524 -47.96003 5.186046
v -3.883036 -47.98939 5.066907
v -3.883036 -47.98939 5.066907
v -4.415524 -47.96003 5.186046
v -3.555533 -47.66261 4.954248
v -3.555533 -47.66261 4.954248
v -4.415524 -47.96003 5.186046
v -3.450133 -47.04313 4.859253
v -3.450133 -47.04313 4.859253
v -4.415524 -47.96003 5.186046
v -4.135782 -46.37316 4.940457
v -4.135782 -46.37316 4.940457
v -4.415524 -47.96003 5.186046
v -4.862326 -46.99337 5.178423
v -4.862326 -46.99337 5.178423
v -4.415524 -47.96003 5.186046
v -4.771211 -47.24773 5.186514
v -3.685678 -46.18186 4.978621
v -2.980824 -46.1429 5.31216
v -3.165715 -46.36796 4.963707
v -3.165715 -46.36796 4.963707
v -2.980824 -46.1429 5.31216
v -2.886083 -46.2224 5.254065
v -2.886083 -46.2224 5.254065
v -2.187988 -46.80299 6.320732
v -3.165715 -46.36796 4.963707
v -3.165715 -46.36796 4.963707
v -2.187988 -46.80299 6.320732
v -3.450133 -47.04313 4.859253
v -3.450133 -47.04313 4.859253
v -2.187988 -46.80299 6.320732
v -3.555533 -47.66261 4.954248
v -3.555533 -47.66261 4.954248
v -2.187988 -46.80299 6.320732
v -3.112693 -48.3524 5.74731
v -3.112693 -48.3524 5.74731
v -2.187988 -46.80299 6.320732
v -2.930093 -48.47151 6.014457
v -2.930093 -48.47151 6.014457
v -2.187988 -46.80299 6.320732
v -2.652786 -48.44625 6.345524
v -2.652786 -48.44625 6.345524
v -2.187988 -46.80299 6.320732
v -2.629614 -48.43112 6.368473
v -2.629614 -48.43112 6.368473
v -2.187988 -46.80299 6.320732
v -2.260684 -47.98359 6.659015
v -2.980824 -46.1429 5.31216
v -3.685678 -46.18186 4.978621
v -3.165938 -45.97982 7.694555
v -3.165938 -45.97982 7.694555
v -3.685678 -46.18186 4.978621
v -3.934623 -46.00332 7.601543
v -3.934623 -46.00332 7.601543
v -3.685678 -46.18186 4.978621
v -5.33343 -46.14268 6.055498
v -5.33343 -46.14268 6.055498
v -3.685678 -46.18186 4.978621
v -4.688974 -46.1801 5.319407
v -4.688974 -46.1801 5.319407
v -3.685678 -46.18186 4.978621
v -4.090036 -46.19155 4.967842
v -4.135782 -46.37316 4.940457
v -4.862326 -46.99337 5.178423
v -4.090036 -46.19155 4.967842
v -4.090036 -46.19155 4.967842
v -4.862326 -46.99337 5.178423
v -4.688974 -46.1801 5.319407
v -4.688974 -46.1801 5.319407
v -4.862326 -46.99337 5.178423
v -5.239729 -46.66623 5.49505
v -5.239729 -46.66623 5.49505
v -4.862326 -46.99337 5.178423
v -5.029603 -46.8742 5.311083
v -3.165938 -45.97982 7.694555
v -2.458081 -46.57313 7.433576
v -2.980824 -46.1429 5.31216
v -2.980824 -46.1429 5.31216
v -2.458081 -46.57313 7.433576
v -2.886083 -46.2224 5.254065
v -2.886083 -46.2224 5.254065
v -2.458081 -46.57313 7.433576
v -2.187988 -46.80299 6.320732
v -3.12949 -48.41473 6.325841
v -3.349293 -48.43148 6.087379
v -2.650199 -48.44464 6.358717
v -2.650199 -48.44464 6.358717
v -3.349293 -48.43148 6.087379
v -2.652786 -48.44625 6.345524
v -2.652786 -48.44625 6.345524
v -3.349293 -48.43148 6.087379
v -2.930093 -48.47151 6.014457
v -4.771211 -47.24773 5.186514
v -4.415524 -47.96003 5.186046
v -5.029603 -46.8742 5.311083
v -5.029603 -46.8742 5.311083
v -4.415524 -47.96003 5.186046
v -5.239729 -46.66623 5.49505
v -5.239729 -46.66623 5.49505
v -4.415524 -47.96003 5.186046
v -5.334821 -46.63131 5.629399
v -5.334821 -46.63131 5.629399
v -4.415524 -47.96003 5.186046
v -4.474543 -47.99625 5.319402
v -3.906342 -48.00049 5.073537
v -3.883036 -47.98939 5.066907
v -3.872746 -48.0114 5.090336
v -3.906342 -48.00049 5.073537
v -3.872746 -48.0114 5.090336
v -4.415524 -47.96003 5.186046
v -4.415524 -47.96003 5.186046
v -3.872746 -48.0114 5.090336
v -4.474543 -47.99625 5.319402
v -4.474543 -47.99625 5.319402
v -3.872746 -48.0114 5.090336
v -3.349293 -48.43148 6.087379
v -3.349293 -48.43148 6.087379
v -3.872746 -48.0114 5.090336
v -2.930093 -48.47151 6.014457
v -2.930093 -48.47151 6.014457
v -3.872746 -48.0114 5.090336
v -3.112693 -48.3524 5.74731
v -3.883036 -47.98939 5.066907
v -3.555533 -47.66261 4.954248
v -3.872746 -48.0114 5.090336
v -3.872746 -48.0114 5.090336
v -3.555533 -47.66261 4.954248
v -3.112693 -48.3524 5.74731

vn 0.9721069 0.007313451 0.2344242
vn 0.9721069 0.007313451 0.2344242
vn 0.9721069 0.007313451 0.2344242
vn 0.5508729 -0.8345681 -0.005940321
vn 0.5508729 -0.8345681 -0.005940321
vn 0.5508729 -0.8345681 -0.005940321
vn -0.7100052 -0.2749555 -0.6482994
vn -0.7100052 -0.2749555 -0.6482994
vn -0.7100052 -0.2749555 -0.6482994
vn -0.6346721 0.5089298 -0.581534
vn -0.6346721 0.5089298 -0.581534
vn -0.6346721 0.5089298 -0.581534
vn -0.6346721 0.5089298 -0.581534
vn -0.6346721 0.5089298 -0.581534
vn -0.6346721 0.5089298 -0.581534
vn -0.6095282 -0.5200517 0.5983491
vn -0.6095282 -0.5200517 0.5983491
vn -0.6095282 -0.5200517 0.5983491
vn -0.6095282 -0.5200517 0.5983491
vn -0.6095282 -0.5200517 0.5983491
vn -0.6095282 -0.5200517 0.5983491
vn -0.6095282 -0.5200517 0.5983491
vn -0.6095282 -0.5200517 0.5983491
vn -0.6095282 -0.5200517 0.5983491
vn -0.6095282 -0.5200517 0.5983491
vn -0.6095282 -0.5200517 0.5983491
vn -0.6095282 -0.5200517 0.5983491
vn 0.02294443 0.1434028 -0.9893984
vn 0.02294443 0.1434028 -0.9893984
vn 0.02294443 0.1434028 -0.9893984
vn 0.02294443 0.1434028 -0.9893984
vn 0.02294443 0.1434028 -0.9893984
vn 0.02294443 0.1434028 -0.9893984
vn 0.02294443 0.1434028 -0.9893984
vn 0.02294443 0.1434028 -0.9893984
vn 0.02294443 0.1434028 -0.9893984
vn -0.09003392 -0.4890446 0.8675997
vn -0.09003392 -0.4890446 0.8675997
vn -0.09003392 -0.4890446 0.8675997
vn -0.09003392 -0.4890446 0.8675997
vn -0.09003392 -0.4890446 0.8675997
vn -0.09003392 -0.4890446 0.8675997
vn -0.09003392 -0.4890446 0.8675997
vn -0.09003392 -0.4890446 0.8675997
vn -0.09003392 -0.4890446 0.8675997
vn -0.09003392 -0.4890446 0.8675997
vn -0.09003392 -0.4890446 0.8675997
vn -0.09003392 -0.4890446 0.8675997
vn -0.09003392 -0.4890446 0.8675997
vn -0.09003392 -0.4890446 0.8675997
vn -0.09003392 -0.4890446 0.8675997
vn -0.2228007 -0.110612 -0.9685684
vn -0.2228007 -0.110612 -0.9685684
vn -0.2228007 -0.110612 -0.9685684
vn -0.2228007 -0.110612 -0.9685684
vn -0.2228007 -0.110612 -0.9685684
vn -0.2228007 -0.110612 -0.9685684
vn -0.2228007 -0.110612 -0.9685684
vn -0.2228007 -0.110612 -0.9685684
vn -0.2228007 -0.110612 -0.9685684
vn -0.2228007 -0.110612 -0.9685684
vn -0.2228007 -0.110612 -0.9685684
vn -0.2228007 -0.110612 -0.9685684
vn -0.2228007 -0.110612 -0.9685684
vn -0.2228007 -0.110612 -0.9685684
vn -0.2228007 -0.110612 -0.9685684
vn -0.2228007 -0.110612 -0.9685684
vn -0.2228007 -0.110612 -0.9685684
vn -0.2228007 -0.110612 -0.9685684
vn 0.2498916 0.7475409 -0.615416
vn 0.2498916 0.7475409 -0.615416
vn 0.2498916 0.7475409 -0.615416
vn 0.2498916 0.7475409 -0.615416
vn 0.2498916 0.7475409 -0.615416
vn 0.2498916 0.7475409 -0.615416
vn 0.7556097 -0.2230163 -0.6158878
vn 0.7556097 -0.2230163 -0.6158878
vn 0.7556097 -0.2230163 -0.6158878
vn 0.7556097 -0.2230163 -0.6158878
vn 0.7556097 -0.2230163 -0.6158878
vn 0.7556097 -0.2230163 -0.6158878
vn 0.7556097 -0.2230163 -0.6158878
vn 0.7556097 -0.2230163 -0.6158878
vn 0.7556097 -0.2230163 -0.6158878
vn 0.7556097 -0.2230163 -0.6158878
vn 0.7556097 -0.2230163 -0.6158878
vn 0.7556097 -0.2230163 -0.6158878
vn 0.7556097 -0.2230163 -0.6158878
vn 0.7556097 -0.2230163 -0.6158878
vn 0.7556097 -0.2230163 -0.6158878
vn 0.7556097 -0.2230163 -0.6158878
vn 0.7556097 -0.2230163 -0.6158878
vn 0.7556097 -0.2230163 -0.6158878
vn 0.7556097 -0.2230163 -0.6158878
vn 0.7556097 -0.2230163 -0.6158878
vn 0.7556097 -0.2230163 -0.6158878
vn 0.7556097 -0.2230163 -0.6158878
vn 0.7556097 -0.2230163 -0.6158878
vn 0.7556097 -0.2230163 -0.6158878
vn -0.02202102 0.9973056 -0.06997706
vn -0.02202102 0.9973056 -0.06997706
vn -0.02202102 0.9973056 -0.06997706
vn -0.02202102 0.9973056 -0.06997706
vn -0.02202102 0.9973056 -0.06997706
vn -0.02202102 0.9973056 -0.06997706
vn -0.02202102 0.9973056 -0.06997706
vn -0.02202102 0.9973056 -0.06997706
vn -0.02202102 0.9973056 -0.06997706
vn -0.02202102 0.9973056 -0.06997706
vn -0.02202102 0.9973056 -0.06997706
vn -0.02202102 0.9973056 -0.06997706
vn -0.02202102 0.9973056 -0.06997706
vn -0.02202102 0.9973056 -0.06997706
vn -0.02202102 0.9973056 -0.06997706
vn -0.4867343 0.2488839 -0.8373449
vn -0.4867343 0.2488839 -0.8373449
vn -0.4867343 0.2488839 -0.8373449
vn -0.4867343 0.2488839 -0.8373449
vn -0.4867343 0.2488839 -0.8373449
vn -0.4867343 0.2488839 -0.8373449
vn -0.4867343 0.2488839 -0.8373449
vn -0.4867343 0.2488839 -0.8373449
vn -0.4867343 0.2488839 -0.8373449
vn -0.4867343 0.2488839 -0.8373449
vn -0.4867343 0.2488839 -0.8373449
vn -0.4867343 0.2488839 -0.8373449
vn 0.6417947 0.7668721 -0.00262619
vn 0.6417947 0.7668721 -0.00262619
vn 0.6417947 0.7668721 -0.00262619
vn 0.6417947 0.7668721 -0.00262619
vn 0.6417947 0.7668721 -0.00262619
vn 0.6417947 0.7668721 -0.00262619
vn 0.6417947 0.7668721 -0.00262619
vn 0.6417947 0.7668721 -0.00262619
vn 0.6417947 0.7668721 -0.00262619
vn -0.07093638 -0.9883305 0.1347992
vn -0.07093638 -0.9883305 0.1347992
vn -0.07093638 -0.9883305 0.1347992
vn -0.07093638 -0.9883305 0.1347992
vn -0.07093638 -0.9883305 0.1347992
vn -0.07093638 -0.9883305 0.1347992
vn -0.07093638 -0.9883305 0.1347992
vn -0.07093638 -0.9883305 0.1347992
vn -0.07093638 -0.9883305 0.1347992
vn -0.7947633 -0.3965307 -0.4594723
vn -0.7947633 -0.3965307 -0.4594723
vn -0.7947633 -0.3965307 -0.4594723
vn -0.7947633 -0.3965307 -0.4594723
vn -0.7947633 -0.3965307 -0.4594723
vn -0.7947633 -0.3965307 -0.4594723
vn -0.7947633 -0.3965307 -0.4594723
vn -0.7947633 -0.3965307 -0.4594723
vn -0.7947633 -0.3965307 -0.4594723
vn -0.7947633 -0.3965307 -0.4594723
vn -0.7947633 -0.3965307 -0.4594723
vn -0.7947633 -0.3965307 -0.4594723
vn 0.1290629 -0.6937127 -0.7085941
vn 0.1290629 -0.6937127 -0.7085941
vn 0.1290629 -0.6937127 -0.7085941
vn -0.1448685 -0.9367498 -0.3186114
vn -0.1448685 -0.9367498 -0.3186114
vn -0.1448685 -0.9367498 -0.3186114
vn -0.1448685 -0.9367498 -0.3186114
vn -0.1448685 -0.9367498 -0.3186114
vn -0.1448685 -0.9367498 -0.3186114
vn -0.1448685 -0.9367498 -0.3186114
vn -0.1448685 -0.9367498 -0.3186114
vn -0.1448685 -0.9367498 -0.3186114
vn -0.1448685 -0.9367498 -0.3186114
vn -0.1448685 -0.9367498 -0.3186114
vn -0.1448685 -0.9367498 -0.3186114
vn -0.1448685 -0.9367498 -0.3186114
vn -0.1448685 -0.9367498 -0.3186114
vn -0.1448685 -0.9367498 -0.3186114
vn 0.3516733 -0.6001903 -0.7183993
vn 0.3516733 -0.6001903 -0.7183993
vn 0.3516733 -0.6001903 -0.7183993
vn 0.3516733 -0.6001903 -0.7183993
vn 0.3516733 -0.6001903 -0.7183993
vn 0.3516733 -0.6001903 -0.7183993

vt 0.4805856 0.4586421
vt 0.6233704 0.5392202
vt 0.5040385 0.5744066
vt 0.4924409 0.531551
vt 0.492741 0.5328542
vt 0.4900221 0.5305947
vt 0.5238397 0.5327511
vt 0.5016946 0.5552524
vt 0.4668176 0.5538836
vt 0.4683458 0.5637466
vt 0.3808861 0.5376639
vt 0.4231604 0.4544091
vt 0.4231604 0.4544091
vt 0.3808861 0.5376639
vt 0.3769905 0.5177034
vt 0.4213087 0.7363034
vt 0.2910684 0.618706
vt 0.61722 0.6888445
vt 0.61722 0.6888445
vt 0.2910684 0.618706
vt 0.6627195 0.6235907
vt 0.6627195 0.6235907
vt 0.2910684 0.618706
vt 0.5643326 0.3868349
vt 0.5643326 0.3868349
vt 0.2910684 0.618706
vt 0.2751253 0.5821883
vt 0.4880579 0.5188659
vt 0.4699959 0.5143657
vt 0.5544039 0.4514276
vt 0.5544039 0.4514276
vt 0.4699959 0.5143657
vt 0.4872188 0.4234557
vt 0.4872188 0.4234557
vt 0.4699959 0.5143657
vt 0.468899 0.4745993
vt 0.3939931 0.2648919
vt 0.5426095 0.3018737
vt 0.2351292 0.368651
vt 0.2351292 0.368651
vt 0.5426095 0.3018737
vt 0.1462584 0.6766
vt 0.1462584 0.6766
vt 0.5426095 0.3018737
vt 0.2019679 0.792116
vt 0.2019679 0.792116
vt 0.5426095 0.3018737
vt 0.2054884 0.7959976
vt 0.2054884 0.7959976
vt 0.5426095 0.3018737
vt 0.2997454 0.8090671
vt 0.6018441 0.4478181
vt 0.5990784 0.5004898
vt 0.6006535 0.4454086
vt 0.6006535 0.4454086
vt 0.5990784 0.5004898
vt 0.5666202 0.4115253
vt 0.5666202 0.4115253
vt 0.5990784 0.5004898
vt 0.5034666 0.4006216
vt 0.5034666 0.4006216
vt 0.5990784 0.5004898
vt 0.4372706 0.4715523
vt 0.4372706 0.4715523
vt 0.5990784 0.5004898
vt 0.5021353 0.5467113
vt 0.5021353 0.5467113
vt 0.5990784 0.5004898
vt 0.5277117 0.5372888
vt 0.4823716 0.630088
vt 0.5642014 0.5773131
vt 0.551235 0.6324506
vt 0.551235 0.6324506
vt 0.5642014 0.5773131
vt 0.5785553 0.5865104
vt 0.4038843 0.5848228
vt 0.4487087 0.4158709
vt 0.4311858 0.6308099
vt 0.4311858 0.6308099
vt 0.4487087 0.4158709
vt 0.5220302 0.6473577
vt 0.5220302 0.6473577
vt 0.4487087 0.4158709
vt 0.599894 0.63231
vt 0.599894 0.63231
vt 0.4487087 0.4158709
vt 0.6668073 0.5066965
vt 0.6668073 0.5066965
vt 0.4487087 0.4158709
vt 0.6746077 0.4643799
vt 0.6746077 0.4643799
vt 0.4487087 0.4158709
vt 0.6617914 0.4119425
vt 0.6617914 0.4119425
vt 0.4487087 0.4158709
vt 0.6591662 0.4083095
vt 0.6591662 0.4083095
vt 0.4487087 0.4158709
vt 0.5925717 0.362285
vt 0.570483 0.6321225
vt 0.5009446 0.6650775
vt 0.5525944 0.3967589
vt 0.5525944 0.3967589
vt 0.5009446 0.6650775
vt 0.4768072 0.4059516
vt 0.4768072 0.4059516
vt 0.5009446 0.6650775
vt 0.3386821 0.5586838
vt 0.3386821 0.5586838
vt 0.5009446 0.6650775
vt 0.4020982 0.6314099
vt 0.4020982 0.6314099
vt 0.5009446 0.6650775
vt 0.4610845 0.6661463
vt 0.5096638 0.6047646
vt 0.350875 0.5264788
vt 0.5424876 0.5957547
vt 0.5424876 0.5957547
vt 0.350875 0.5264788
vt 0.4952911 0.4801074
vt 0.4952911 0.4801074
vt 0.350875 0.5264788
vt 0.3723543 0.4223213
vt 0.3723543 0.4223213
vt 0.350875 0.5264788
vt 0.3562565 0.4828357
vt 0.4928441 0.4012122
vt 0.5836462 0.4268731
vt 0.5170892 0.635432
vt 0.5170892 0.635432
vt 0.5836462 0.4268731
vt 0.5292493 0.6411417
vt 0.5292493 0.6411417
vt 0.5836462 0.4268731
vt 0.6185139 0.5362763
vt 0.4124535 0.5585901
vt 0.4340876 0.5824696
vt 0.3648117 0.5552993
vt 0.3648117 0.5552993
vt 0.4340876 0.5824696
vt 0.3650555 0.5566212
vt 0.3650555 0.5566212
vt 0.4340876 0.5824696
vt 0.3923149 0.5897731
vt 0.4817903 0.5902326
vt 0.3936602 0.5902888
vt 0.5315557 0.5747066
vt 0.5315557 0.5747066
vt 0.3936602 0.5902888
vt 0.5625418 0.5517834
vt 0.5625418 0.5517834
vt 0.3936602 0.5902888
vt 0.5706986 0.5350387
vt 0.5706986 0.5350387
vt 0.3936602 0.5902888
vt 0.3929899 0.573666
vt 0.5400031 0.5326386
vt 0.5365248 0.5339512
vt 0.5356809 0.5293196
vt 0.4810919 0.6152465
vt 0.4774776 0.6134089
vt 0.5339183 0.6029364
vt 0.5339183 0.6029364
vt 0.4774776 0.6134089
vt 0.539403 0.5883387
vt 0.539403 0.5883387
vt 0.4774776 0.6134089
vt 0.4171694 0.5043151
vt 0.4171694 0.5043151
vt 0.4774776 0.6134089
vt 0.3735684 0.5122936
vt 0.3735684 0.5122936
vt 0.4774776 0.6134089
vt 0.3941712 0.5415266
vt 0.5954875 0.5495708
vt 0.5322026 0.5724565
vt 0.5958063 0.544808
vt 0.5958063 0.544808
vt 0.5322026 0.5724565
vt 0.5274961 0.4113425

usemtl Material0
usemap Material0

usemtl Material1
usemap Material1
f 1/1/1 2/2/2 3/3/3
f 4/4/4 5/5/5 6/6/6
f 7/7/7 8/8/8 9/9/9
f 10/10/10 11/11/11 12/12/12
f 13/13/13 14/14/14 15/15/15
f 16/16/16 17/17/17 18/18/18
f 19/19/19 20/20/20 21/21/21
f 22/22/22 23/23/23 24/24/24
f 25/25/25 26/26/26 27/27/27
f 28/28/28 29/29/29 30/30/30
f 31/31/31 32/32/32 33/33/33
f 34/34/34 35/35/35 36/36/36
f 37/37/37 38/38/38 39/39/39
f 40/40/40 41/41/41 42/42/42
f 43/43/43 44/44/44 45/45/45
f 46/46/46 47/47/47 48/48/48
f 49/49/49 50/50/50 51/51/51
f 52/52/52 53/53/53 54/54/54
f 55/55/55 56/56/56 57/57/57
f 58/58/58 59/59/59 60/60/60
f 61/61/61 62/62/62 63/63/63
f 64/64/64 65/65/65 66/66/66
f 67/67/67 68/68/68 69/69/69
f 70/70/70 71/71/71 72/72/72
f 73/73/73 74/74/74 75/75/75
f 76/76/76 77/77/77 78/78/78
f 79/79/79 80/80/80 81/81/81
f 82/82/82 83/83/83 84/84/84
f 85/85/85 86/86/86 87/87/87
f 88/88/88 89/89/89 90/90/90
f 91/91/91 92/92/92 93/93/93
f 94/94/94 95/95/95 96/96/96
f 97/97/97 98/98/98 99/99/99
f 100/100/100 101/101/101 102/102/102
f 103/103/103 104/104/104 105/105/105
f 106/106/106 107/107/107 108/108/108
f 109/109/109 110/110/110 111/111/111
f 112/112/112 113/113/113 114/114/114
f 115/115/115 116/116/116 117/117/117
f 118/118/118 119/119/119 120/120/120
f 121/121/121 122/122/122 123/123/123
f 124/124/124 125/125/125 126/126/126
f 127/127/127 128/128/128 129/129/129
f 130/130/130 131/131/131 132/132/132
f 133/133/133 134/134/134 135/135/135
f 136/136/136 137/137/137 138/138/138
f 139/139/139 140/140/140 141/141/141
f 142/142/142 143/143/143 144/144/144
f 145/145/145 146/146/146 147/147/147
f 148/148/148 149/149/149 150/150/150
f 151/151/151 152/152/152 153/153/153
f 154/154/154 155/155/155 156/156/156
f 157/157/157 158/158/158 159/159/159
f 160/160/160 161/161/161 162/162/162
f 163/163/163 164/164/164 165/165/165
f 166/166/166 167/167/167 168/168/168
f 169/169/169 170/170/170 171/171/171
f 172/172/172 173/173/173 174/174/174
f 175/175/175 176/176/176 177/177/177
f 178/178/178 179/179/179 180/180/180
