g  Instance
v 5.983196 -51.57556 -7.828862
v 6.208047 -51.81879 -7.576823
v 6.203856 -52.15831 -7.500835
v 5.709575 -51.29731 -8.089479
v 5.589967 -51.29731 -8.163401
v 5.611728 -51.2067 -8.159556
v 5.265552 -52.32973 -8.14686
v 5.589967 -51.29731 -8.163401
v 5.816534 -51.40068 -8.001646
v 5.816534 -51.40068 -8.001646
v 5.589967 -51.29731 -8.163401
v 5.709575 -51.29731 -8.089479
v 5.983196 -51.57556 -7.828862
v 6.203856 -52.15831 -7.500835
v 5.816534 -51.40068 -8.001646
v 5.816534 -51.40068 -8.001646
v 6.203856 -52.15831 -7.500835
v 5.265552 -52.32973 -8.14686
v 5.265552 -52.32973 -8.14686
v 6.203856 -52.15831 -7.500835
v 5.153851 -52.6617 -8.135709
v 5.153851 -52.6617 -8.135709
v 6.203856 -52.15831 -7.500835
v 6.183605 -52.63398 -7.381382
v 5.153851 -52.6617 -8.135709
v 6.183605 -52.63398 -7.381382
v 5.104742 -52.77927 -8.124223
v 5.104742 -52.77927 -8.124223
v 6.183605 -52.63398 -7.381382
v 5.486835 -53.95524 -7.360043
v 5.486835 -53.95524 -7.360043
v 6.183605 -52.63398 -7.381382
v 5.541164 -53.93237 -7.328985
v 5.541164 -53.93237 -7.328985
v 6.183605 -52.63398 -7.381382
v 6.139626 -53.00438 -7.262864
v 5.541164 -53.93237 -7.328985
v 6.139626 -53.00438 -7.262864
v 5.740045 -53.83934 -7.198755
v 5.740045 -53.83934 -7.198755
v 6.139626 -53.00438 -7.262864
v 6.100986 -53.24336 -7.177119
v 5.104742 -52.77927 -8.124223
v 5.486835 -53.95524 -7.360043
v 4.515947 -53.99605 -7.941753
v 4.515947 -53.99605 -7.941753
v 5.486835 -53.95524 -7.360043
v 5.372503 -53.99605 -7.412379
v 4.638997 -54.24322 -7.722106
v 4.436748 -54.13316 -7.911046
v 5.372503 -53.99605 -7.412379
v 5.372503 -53.99605 -7.412379
v 4.436748 -54.13316 -7.911046
v 4.515947 -53.99605 -7.941753
v 4.440949 -51.78619 -7.369792
v 4.297328 -52.349 -7.387007
v 4.542266 -51.89724 -6.973089
v 5.156785 -53.21213 -6.330338
v 5.109866 -53.47416 -6.437989
v 6.100986 -53.24336 -7.177119
v 6.100986 -53.24336 -7.177119
v 5.109866 -53.47416 -6.437989
v 5.740045 -53.83934 -7.198755
v 4.250645 -53.79536 -7.685755
v 4.436748 -54.13316 -7.911046
v 4.653549 -53.91701 -7.144656
v 4.653549 -53.91701 -7.144656
v 4.436748 -54.13316 -7.911046
v 4.638997 -54.24322 -7.722106
v 5.589967 -51.29731 -8.163401
v 5.265552 -52.32973 -8.14686
v 5.611728 -51.2067 -8.159556
v 5.611728 -51.2067 -8.159556
v 5.265552 -52.32973 -8.14686
v 5.37274 -51.13066 -7.953251
v 5.37274 -51.13066 -7.953251
v 5.265552 -52.32973 -8.14686
v 5.065895 -51.18852 -7.724452
v 5.065895 -51.18852 -7.724452
v 5.265552 -52.32973 -8.14686
v 4.440949 -51.78619 -7.369792
v 4.440949 -51.78619 -7.369792
v 5.265552 -52.32973 -8.14686
v 4.297328 -52.349 -7.387007
v 4.297328 -52.349 -7.387007
v 5.265552 -52.32973 -8.14686
v 4.250645 -53.79536 -7.685755
v 4.250645 -53.79536 -7.685755
v 5.265552 -52.32973 -8.14686
v 4.436748 -54.13316 -7.911046
v 4.436748 -54.13316 -7.911046
v 5.265552 -52.32973 -8.14686
v 4.515947 -53.99605 -7.941753
v 4.515947 -53.99605 -7.941753
v 5.265552 -52.32973 -8.14686
v 5.104742 -52.77927 -8.124223
v 5.104742 -52.77927 -8.124223
v 5.265552 -52.32973 -8.14686
v 5.153851 -52.6617 -8.135709
v 5.065895 -51.18852 -7.724452
v 5.21799 -51.30482 -7.239113
v 5.37274 -51.13066 -7.953251
v 5.156785 -53.21213 -6.330338
v 4.938843 -51.8754 -6.417612
v 5.109866 -53.47416 -6.437989
v 5.109866 -53.47416 -6.437989
v 4.938843 -51.8754 -6.417612
v 4.653549 -53.91701 -7.144656
v 4.653549 -53.91701 -7.144656
v 4.938843 -51.8754 -6.417612
v 4.250645 -53.79536 -7.685755
v 4.250645 -53.79536 -7.685755
v 4.938843 -51.8754 -6.417612
v 4.297328 -52.349 -7.387007
v 4.297328 -52.349 -7.387007
v 4.938843 -51.8754 -6.417612
v 4.542266 -51.89724 -6.973089
v 6.208047 -51.81879 -7.576823
v 5.983196 -51.57556 -7.828862
v 5.243311 -51.50086 -6.772448
v 5.243311 -51.50086 -6.772448
v 5.983196 -51.57556 -7.828862
v 5.21799 -51.30482 -7.239113
v 5.21799 -51.30482 -7.239113
v 5.983196 -51.57556 -7.828862
v 5.37274 -51.13066 -7.953251
v 5.37274 -51.13066 -7.953251
v 5.983196 -51.57556 -7.828862
v 5.611728 -51.2067 -8.159556
v 5.611728 -51.2067 -8.159556
v 5.983196 -51.57556 -7.828862
v 5.709575 -51.29731 -8.089479
v 5.709575 -51.29731 -8.089479
v 5.983196 -51.57556 -7.828862
v 5.816534 -51.40068 -8.001646
v 6.183605 -52.63398 -7.381382
v 6.203856 -52.15831 -7.500835
v 6.139626 -53.00438 -7.262864
v 6.139626 -53.00438 -7.262864
v 6.203856 -52.15831 -7.500835
v 6.100986 -53.24336 -7.177119
v 6.100986 -53.24336 -7.177119
v 6.203856 -52.15831 -7.500835
v 5.156785 -53.21213 -6.330338
v 5.156785 -53.21213 -6.330338
v 6.203856 -52.15831 -7.500835
v 4.938843 -51.8754 -6.417612
v 4.938843 -51.8754 -6.417612
v 6.203856 -52.15831 -7.500835
v 5.243311 -51.50086 -6.772448
v 5.243311 -51.50086 -6.772448
v 6.203856 -52.15831 -7.500835
v 6.208047 -51.81879 -7.576823
v 4.542266 -51.89724 -6.973089
v 4.938843 -51.8754 -6.417612
v 4.440949 -51.78619 -7.369792
v 4.440949 -51.78619 -7.369792
v 4.938843 -51.8754 -6.417612
v 5.065895 -51.18852 -7.724452
v 5.065895 -51.18852 -7.724452
v 4.938843 -51.8754 -6.417612
v 5.21799 -51.30482 -7.239113
v 5.21799 -51.30482 -7.239113
v 4.938843 -51.8754 -6.417612
v 5.243311 -51.50086 -6.772448
v 5.372503 -53.99605 -7.412379
v 5.486835 -53.95524 -7.360043
v 4.638997 -54.24322 -7.722106
v 4.638997 -54.24322 -7.722106
v 5.486835 -53.95524 -7.360043
v 4.653549 -53.91701 -7.144656
v 4.653549 -53.91701 -7.144656
v 5.486835 -53.95524 -7.360043
v 5.109866 -53.47416 -6.437989
v 5.109866 -53.47416 -6.437989
v 5.486835 -53.95524 -7.360043
v 5.740045 -53.83934 -7.198755
v 5.740045 -53.83934 -7.198755
v 5.486835 -53.95524 -7.360043
v 5.541164 -53.93237 -7.328985

vn 0.6451267 -0.1744556 -0.743893
vn 0.6451267 -0.1744556 -0.743893
vn 0.6451267 -0.1744556 -0.743893
vn 0.5236048 -0.08980521 -0.8472149
vn 0.5236048 -0.08980521 -0.8472149
vn 0.5236048 -0.08980521 -0.8472149
vn 0.5175194 -0.1760333 -0.8373685
vn 0.5175194 -0.1760333 -0.8373685
vn 0.5175194 -0.1760333 -0.8373685
vn 0.5175194 -0.1760333 -0.8373685
vn 0.5175194 -0.1760333 -0.8373685
vn 0.5175194 -0.1760333 -0.8373685
vn 0.5801337 -0.2215372 -0.7838151
vn 0.5801337 -0.2215372 -0.7838151
vn 0.5801337 -0.2215372 -0.7838151
vn 0.5801337 -0.2215372 -0.7838151
vn 0.5801337 -0.2215372 -0.7838151
vn 0.5801337 -0.2215372 -0.7838151
vn 0.5801337 -0.2215372 -0.7838151
vn 0.5801337 -0.2215372 -0.7838151
vn 0.5801337 -0.2215372 -0.7838151
vn 0.5801337 -0.2215372 -0.7838151
vn 0.5801337 -0.2215372 -0.7838151
vn 0.5801337 -0.2215372 -0.7838151
vn 0.5670142 -0.3113327 -0.7626052
vn 0.5670142 -0.3113327 -0.7626052
vn 0.5670142 -0.3113327 -0.7626052
vn 0.5670142 -0.3113327 -0.7626052
vn 0.5670142 -0.3113327 -0.7626052
vn 0.5670142 -0.3113327 -0.7626052
vn 0.5670142 -0.3113327 -0.7626052
vn 0.5670142 -0.3113327 -0.7626052
vn 0.5670142 -0.3113327 -0.7626052
vn 0.5670142 -0.3113327 -0.7626052
vn 0.5670142 -0.3113327 -0.7626052
vn 0.5670142 -0.3113327 -0.7626052
vn 0.6223752 -0.351544 -0.6993325
vn 0.6223752 -0.351544 -0.6993325
vn 0.6223752 -0.351544 -0.6993325
vn 0.6223752 -0.351544 -0.6993325
vn 0.6223752 -0.351544 -0.6993325
vn 0.6223752 -0.351544 -0.6993325
vn 0.4911203 -0.3568209 -0.7946569
vn 0.4911203 -0.3568209 -0.7946569
vn 0.4911203 -0.3568209 -0.7946569
vn 0.4911203 -0.3568209 -0.7946569
vn 0.4911203 -0.3568209 -0.7946569
vn 0.4911203 -0.3568209 -0.7946569
vn 0.4713123 -0.4430533 -0.7626064
vn 0.4713123 -0.4430533 -0.7626064
vn 0.4713123 -0.4430533 -0.7626064
vn 0.4713123 -0.4430533 -0.7626064
vn 0.4713123 -0.4430533 -0.7626064
vn 0.4713123 -0.4430533 -0.7626064
vn -0.9264127 0.2272219 0.3002164
vn -0.9264127 0.2272219 0.3002164
vn -0.9264127 0.2272219 0.3002164
vn 0.6068182 -0.3926006 0.6911125
vn 0.6068182 -0.3926006 0.6911125
vn 0.6068182 -0.3926006 0.6911125
vn 0.6068182 -0.3926006 0.6911125
vn 0.6068182 -0.3926006 0.6911125
vn 0.6068182 -0.3926006 0.6911125
vn -0.6866083 -0.6254597 0.3706337
vn -0.6866083 -0.6254597 0.3706337
vn -0.6866083 -0.6254597 0.3706337
vn -0.6866083 -0.6254597 0.3706337
vn -0.6866083 -0.6254597 0.3706337
vn -0.6866083 -0.6254597 0.3706337
vn -0.6095854 0.179176 -0.7722058
vn -0.6095854 0.179176 -0.7722058
vn -0.6095854 0.179176 -0.7722058
vn -0.6095854 0.179176 -0.7722058
vn -0.6095854 0.179176 -0.7722058
vn -0.6095854 0.179176 -0.7722058
vn -0.6095854 0.179176 -0.7722058
vn -0.6095854 0.179176 -0.7722058
vn -0.6095854 0.179176 -0.7722058
vn -0.6095854 0.179176 -0.7722058
vn -0.6095854 0.179176 -0.7722058
vn -0.6095854 0.179176 -0.7722058
vn -0.6095854 0.179176 -0.7722058
vn -0.6095854 0.179176 -0.7722058
vn -0.6095854 0.179176 -0.7722058
vn -0.6095854 0.179176 -0.7722058
vn -0.6095854 0.179176 -0.7722058
vn -0.6095854 0.179176 -0.7722058
vn -0.6095854 0.179176 -0.7722058
vn -0.6095854 0.179176 -0.7722058
vn -0.6095854 0.179176 -0.7722058
vn -0.6095854 0.179176 -0.7722058
vn -0.6095854 0.179176 -0.7722058
vn -0.6095854 0.179176 -0.7722058
vn -0.6095854 0.179176 -0.7722058
vn -0.6095854 0.179176 -0.7722058
vn -0.6095854 0.179176 -0.7722058
vn -0.6095854 0.179176 -0.7722058
vn -0.6095854 0.179176 -0.7722058
vn -0.6095854 0.179176 -0.7722058
vn -0.007801827 0.971885 0.2353272
vn -0.007801827 0.971885 0.2353272
vn -0.007801827 0.971885 0.2353272
vn -0.8085217 -0.09388727 0.5809286
vn -0.8085217 -0.09388727 0.5809286
vn -0.8085217 -0.09388727 0.5809286
vn -0.8085217 -0.09388727 0.5809286
vn -0.8085217 -0.09388727 0.5809286
vn -0.8085217 -0.09388727 0.5809286
vn -0.8085217 -0.09388727 0.5809286
vn -0.8085217 -0.09388727 0.5809286
vn -0.8085217 -0.09388727 0.5809286
vn -0.8085217 -0.09388727 0.5809286
vn -0.8085217 -0.09388727 0.5809286
vn -0.8085217 -0.09388727 0.5809286
vn -0.8085217 -0.09388727 0.5809286
vn -0.8085217 -0.09388727 0.5809286
vn -0.8085217 -0.09388727 0.5809286
vn 0.5188954 0.7978057 0.3070076
vn 0.5188954 0.7978057 0.3070076
vn 0.5188954 0.7978057 0.3070076
vn 0.5188954 0.7978057 0.3070076
vn 0.5188954 0.7978057 0.3070076
vn 0.5188954 0.7978057 0.3070076
vn 0.5188954 0.7978057 0.3070076
vn 0.5188954 0.7978057 0.3070076
vn 0.5188954 0.7978057 0.3070076
vn 0.5188954 0.7978057 0.3070076
vn 0.5188954 0.7978057 0.3070076
vn 0.5188954 0.7978057 0.3070076
vn 0.5188954 0.7978057 0.3070076
vn 0.5188954 0.7978057 0.3070076
vn 0.5188954 0.7978057 0.3070076
vn 0.5188954 0.7978057 0.3070076
vn 0.5188954 0.7978057 0.3070076
vn 0.5188954 0.7978057 0.3070076
vn 0.6623517 0.15583 0.7328079
vn 0.6623517 0.15583 0.7328079
vn 0.6623517 0.15583 0.7328079
vn 0.6623517 0.15583 0.7328079
vn 0.6623517 0.15583 0.7328079
vn 0.6623517 0.15583 0.7328079
vn 0.6623517 0.15583 0.7328079
vn 0.6623517 0.15583 0.7328079
vn 0.6623517 0.15583 0.7328079
vn 0.6623517 0.15583 0.7328079
vn 0.6623517 0.15583 0.7328079
vn 0.6623517 0.15583 0.7328079
vn 0.6623517 0.15583 0.7328079
vn 0.6623517 0.15583 0.7328079
vn 0.6623517 0.15583 0.7328079
vn 0.6623517 0.15583 0.7328079
vn 0.6623517 0.15583 0.7328079
vn 0.6623517 0.15583 0.7328079
vn -0.5350345 0.7681429 0.3517025
vn -0.5350345 0.7681429 0.3517025
vn -0.5350345 0.7681429 0.3517025
vn -0.5350345 0.7681429 0.3517025
vn -0.5350345 0.7681429 0.3517025
vn -0.5350345 0.7681429 0.3517025
vn -0.5350345 0.7681429 0.3517025
vn -0.5350345 0.7681429 0.3517025
vn -0.5350345 0.7681429 0.3517025
vn -0.5350345 0.7681429 0.3517025
vn -0.5350345 0.7681429 0.3517025
vn -0.5350345 0.7681429 0.3517025
vn 0.08638059 -0.8683495 0.4883725
vn 0.08638059 -0.8683495 0.4883725
vn 0.08638059 -0.8683495 0.4883725
vn 0.08638059 -0.8683495 0.4883725
vn 0.08638059 -0.8683495 0.4883725
vn 0.08638059 -0.8683495 0.4883725
vn 0.08638059 -0.8683495 0.4883725
vn 0.08638059 -0.8683495 0.4883725
vn 0.08638059 -0.8683495 0.4883725
vn 0.08638059 -0.8683495 0.4883725
vn 0.08638059 -0.8683495 0.4883725
vn 0.08638059 -0.8683495 0.4883725
vn 0.08638059 -0.8683495 0.4883725
vn 0.08638059 -0.8683495 0.4883725
vn 0.08638059 -0.8683495 0.4883725

vt 0.1226248 0.1025269
vt 0.1217787 0.1083586
vt 0.1176507 0.1111424
vt 0.1235982 0.09598526
vt 0.1226017 0.09425941
vt 0.1239377 0.0938241
vt 0.1078316 0.09841314
vt 0.1226017 0.09425941
vt 0.123281 0.09841313
vt 0.123281 0.09841313
vt 0.1226017 0.09425941
vt 0.1235982 0.09598526
vt 0.1226248 0.1025269
vt 0.1176507 0.1111424
vt 0.123281 0.09841313
vt 0.123281 0.09841313
vt 0.1176507 0.1111424
vt 0.1078316 0.09841314
vt 0.1078316 0.09841314
vt 0.1176507 0.1111424
vt 0.1030208 0.099709
vt 0.1030208 0.099709
vt 0.1176507 0.1111424
vt 0.1119218 0.1151263
vt 0.1030208 0.099709
vt 0.1119218 0.1151263
vt 0.1012895 0.100116
vt 0.1012895 0.100116
vt 0.1119218 0.1151263
vt 0.09125715 0.1174927
vt 0.09125715 0.1174927
vt 0.1119218 0.1151263
vt 0.09196743 0.1180958
vt 0.09196743 0.1180958
vt 0.1119218 0.1151263
vt 0.1073912 0.1180958
vt 0.09196743 0.1180958
vt 0.1073912 0.1180958
vt 0.09467336 0.1204653
vt 0.09467336 0.1204653
vt 0.1073912 0.1180958
vt 0.1043834 0.120066
vt 0.1012895 0.100116
vt 0.09125715 0.1174927
vt 0.08292407 0.1042653
vt 0.08292407 0.1042653
vt 0.09125715 0.1174927
vt 0.08987377 0.1163027
vt 0.08110304 0.1088257
vt 0.08071754 0.1047227
vt 0.08987377 0.1163027
vt 0.08987377 0.1163027
vt 0.08071754 0.1047227
vt 0.08292407 0.1042653
vt 0.5659827 0.4771682
vt 0.5061198 0.4790292
vt 0.5573572 0.4343079
vt 0.5408094 0.3851566
vt 0.574205 0.4054172
vt 0.4746134 0.5445174
vt 0.4746134 0.5445174
vt 0.574205 0.4054172
vt 0.5693485 0.5485957
vt 0.4605454 0.5354794
vt 0.4208493 0.561159
vt 0.4223072 0.4738164
vt 0.4223072 0.4738164
vt 0.4208493 0.561159
vt 0.3978183 0.5396234
vt 0.7210729 0.5454456
vt 0.5536633 0.5414141
vt 0.7354738 0.544508
vt 0.7354738 0.544508
vt 0.5536633 0.5414141
vt 0.7363363 0.4942739
vt 0.7363363 0.4942739
vt 0.5536633 0.5414141
vt 0.71436 0.438555
vt 0.71436 0.438555
vt 0.5536633 0.5414141
vt 0.5983658 0.3521828
vt 0.5983658 0.3521828
vt 0.5536633 0.5414141
vt 0.5085481 0.3563737
vt 0.5085481 0.3563737
vt 0.5536633 0.5414141
vt 0.2918091 0.4291279
vt 0.2918091 0.4291279
vt 0.5536633 0.5414141
vt 0.2497832 0.4839889
vt 0.2497832 0.4839889
vt 0.5536633 0.5414141
vt 0.2735924 0.4914706
vt 0.2735924 0.4914706
vt 0.5536633 0.5414141
vt 0.4799105 0.5359012
vt 0.4799105 0.5359012
vt 0.5536633 0.5414141
vt 0.4995101 0.5387046
vt 0.4930316 0.5229818
vt 0.5083231 0.4724757
vt 0.5241115 0.5467957
vt 0.4263152 0.3465997
vt 0.5897216 0.359552
vt 0.3955307 0.3625709
vt 0.3955307 0.3625709
vt 0.5897216 0.359552
vt 0.3487608 0.467427
vt 0.3487608 0.467427
vt 0.5897216 0.359552
vt 0.3689697 0.5477145
vt 0.3689697 0.5477145
vt 0.5897216 0.359552
vt 0.5418407 0.5033869
vt 0.5418407 0.5033869
vt 0.5897216 0.359552
vt 0.592628 0.4419724
vt 0.5410719 0.5159876
vt 0.5079012 0.5433455
vt 0.4396332 0.4286826
vt 0.4396332 0.4286826
vt 0.5079012 0.5433455
vt 0.4263996 0.4793339
vt 0.4263996 0.4793339
vt 0.5079012 0.5433455
vt 0.4299905 0.5568462
vt 0.4299905 0.5568462
vt 0.5079012 0.5433455
vt 0.4549669 0.5792444
vt 0.4549669 0.5792444
vt 0.5079012 0.5433455
vt 0.4685427 0.5716408
vt 0.4685427 0.5716408
vt 0.5079012 0.5433455
vt 0.4836279 0.5621059
vt 0.5188987 0.5720346
vt 0.4526699 0.5973954
vt 0.569536 0.5468706
vt 0.569536 0.5468706
vt 0.4526699 0.5973954
vt 0.6018723 0.5286728
vt 0.6018723 0.5286728
vt 0.4526699 0.5973954
vt 0.5662358 0.3488639
vt 0.5662358 0.3488639
vt 0.4526699 0.5973954
vt 0.3710277 0.3673947
vt 0.3710277 0.3673947
vt 0.4526699 0.5973954
vt 0.3284252 0.4427365
vt 0.3284252 0.4427365
vt 0.4526699 0.5973954
vt 0.4050562 0.6135308
vt 0.4942879 0.4480946
vt 0.5297744 0.3857754
vt 0.4922253 0.492605
vt 0.4922253 0.492605
vt 0.5297744 0.3857754
vt 0.5819586 0.5323855
vt 0.5819586 0.5323855
vt 0.5297744 0.3857754
vt 0.5880808 0.4779417
vt 0.5880808 0.4779417
vt 0.5297744 0.3857754
vt 0.5784897 0.425584
vt 0.4678724 0.5294509
vt 0.4546013 0.5226911
vt 0.5528663 0.5694376
vt 0.5528663 0.5694376
vt 0.4546013 0.5226911
vt 0.5475972 0.4948833
vt 0.5475972 0.4948833
vt 0.4546013 0.5226911
vt 0.491494 0.4036546
vt 0.491494 0.4036546
vt 0.4546013 0.5226911
vt 0.424923 0.5018681
vt 0.424923 0.5018681
vt 0.4546013 0.5226911
vt 0.448254 0.5186878

usemtl Material0
usemap Material0
f 1/1/1 2/2/2 3/3/3
f 4/4/4 5/5/5 6/6/6
f 7/7/7 8/8/8 9/9/9
f 10/10/10 11/11/11 12/12/12
f 13/13/13 14/14/14 15/15/15
f 16/16/16 17/17/17 18/18/18
f 19/19/19 20/20/20 21/21/21
f 22/22/22 23/23/23 24/24/24
f 25/25/25 26/26/26 27/27/27
f 28/28/28 29/29/29 30/30/30
f 31/31/31 32/32/32 33/33/33
f 34/34/34 35/35/35 36/36/36
f 37/37/37 38/38/38 39/39/39
f 40/40/40 41/41/41 42/42/42
f 43/43/43 44/44/44 45/45/45
f 46/46/46 47/47/47 48/48/48
f 49/49/49 50/50/50 51/51/51
f 52/52/52 53/53/53 54/54/54

usemtl Material1
usemap Material1
f 55/55/55 56/56/56 57/57/57
f 58/58/58 59/59/59 60/60/60
f 61/61/61 62/62/62 63/63/63
f 64/64/64 65/65/65 66/66/66
f 67/67/67 68/68/68 69/69/69
f 70/70/70 71/71/71 72/72/72
f 73/73/73 74/74/74 75/75/75
f 76/76/76 77/77/77 78/78/78
f 79/79/79 80/80/80 81/81/81
f 82/82/82 83/83/83 84/84/84
f 85/85/85 86/86/86 87/87/87
f 88/88/88 89/89/89 90/90/90
f 91/91/91 92/92/92 93/93/93
f 94/94/94 95/95/95 96/96/96
f 97/97/97 98/98/98 99/99/99
f 100/100/100 101/101/101 102/102/102
f 103/103/103 104/104/104 105/105/105
f 106/106/106 107/107/107 108/108/108
f 109/109/109 110/110/110 111/111/111
f 112/112/112 113/113/113 114/114/114
f 115/115/115 116/116/116 117/117/117
f 118/118/118 119/119/119 120/120/120
f 121/121/121 122/122/122 123/123/123
f 124/124/124 125/125/125 126/126/126
f 127/127/127 128/128/128 129/129/129
f 130/130/130 131/131/131 132/132/132
f 133/133/133 134/134/134 135/135/135
f 136/136/136 137/137/137 138/138/138
f 139/139/139 140/140/140 141/141/141
f 142/142/142 143/143/143 144/144/144
f 145/145/145 146/146/146 147/147/147
f 148/148/148 149/149/149 150/150/150
f 151/151/151 152/152/152 153/153/153
f 154/154/154 155/155/155 156/156/156
f 157/157/157 158/158/158 159/159/159
f 160/160/160 161/161/161 162/162/162
f 163/163/163 164/164/164 165/165/165
f 166/166/166 167/167/167 168/168/168
f 169/169/169 170/170/170 171/171/171
f 172/172/172 173/173/173 174/174/174
f 175/175/175 176/176/176 177/177/177
f 178/178/178 179/179/179 180/180/180
