g  Instance
v -3.769111 -54.49088 5.080044
v -4.051893 -53.09162 5.864853
v -4.817643 -55.32002 3.851975
v -4.817643 -55.32002 3.851975
v -4.051893 -53.09162 5.864853
v -5.027417 -55.34338 3.704293
v -5.027417 -55.34338 3.704293
v -4.051893 -53.09162 5.864853
v -5.699947 -52.97421 4.911538
v -4.458719 -55.48886 3.350868
v -4.351636 -55.35266 3.874913
v -4.73613 -55.46442 3.35528
v -4.73613 -55.46442 3.35528
v -4.351636 -55.35266 3.874913
v -5.027417 -55.34338 3.704293
v -5.027417 -55.34338 3.704293
v -4.351636 -55.35266 3.874913
v -4.817643 -55.32002 3.851975
v -2.758243 -52.25102 4.101358
v -2.956191 -52.09019 4.000599
v -2.797625 -52.21632 4.217952
v -2.797625 -52.21632 4.217952
v -2.956191 -52.09019 4.000599
v -3.23438 -51.85492 4.325839
v -4.007254 -55.17373 2.768875
v -3.73849 -54.97547 2.537235
v -4.458719 -55.48886 3.350868
v -4.458719 -55.48886 3.350868
v -3.73849 -54.97547 2.537235
v -4.351636 -55.35266 3.874913
v -4.351636 -55.35266 3.874913
v -3.73849 -54.97547 2.537235
v -3.63508 -54.67546 4.858277
v -3.63508 -54.67546 4.858277
v -3.73849 -54.97547 2.537235
v -2.503612 -53.85473 3.733115
v -4.458719 -55.48886 3.350868
v -4.73613 -55.46442 3.35528
v -4.007254 -55.17373 2.768875
v -4.007254 -55.17373 2.768875
v -4.73613 -55.46442 3.35528
v -4.294493 -55.23048 2.906341
v -4.294493 -55.23048 2.906341
v -3.805201 -54.80729 2.44045
v -4.007254 -55.17373 2.768875
v -4.007254 -55.17373 2.768875
v -3.805201 -54.80729 2.44045
v -3.73849 -54.97547 2.537235
v -3.759644 -51.57462 4.676596
v -3.23438 -51.85492 4.325839
v -4.611567 -51.55708 4.543327
v -4.611567 -51.55708 4.543327
v -3.23438 -51.85492 4.325839
v -4.990946 -51.61404 4.379937
v -4.990946 -51.61404 4.379937
v -3.23438 -51.85492 4.325839
v -3.800034 -52.71522 2.836567
v -3.800034 -52.71522 2.836567
v -3.23438 -51.85492 4.325839
v -2.956191 -52.09019 4.000599
v -2.758243 -52.25102 4.101358
v -2.49752 -52.75277 4.071603
v -2.956191 -52.09019 4.000599
v -2.956191 -52.09019 4.000599
v -2.49752 -52.75277 4.071603
v -3.800034 -52.71522 2.836567
v -3.800034 -52.71522 2.836567
v -2.49752 -52.75277 4.071603
v -3.632862 -53.66055 2.468009
v -3.632862 -53.66055 2.468009
v -2.49752 -52.75277 4.071603
v -2.420863 -53.43277 3.764445
v -3.769111 -54.49088 5.080044
v -4.817643 -55.32002 3.851975
v -3.63508 -54.67546 4.858277
v -3.63508 -54.67546 4.858277
v -4.817643 -55.32002 3.851975
v -4.351636 -55.35266 3.874913
v -3.630527 -52.339 5.586132
v -3.832455 -51.82038 5.132722
v -4.051893 -53.09162 5.864853
v -4.051893 -53.09162 5.864853
v -3.832455 -51.82038 5.132722
v -5.699947 -52.97421 4.911538
v -5.699947 -52.97421 4.911538
v -3.832455 -51.82038 5.132722
v -4.990946 -51.61404 4.379937
v -4.990946 -51.61404 4.379937
v -3.832455 -51.82038 5.132722
v -4.611567 -51.55708 4.543327
v -2.420863 -53.43277 3.764445
v -2.49752 -52.75277 4.071603
v -2.503612 -53.85473 3.733115
v -2.503612 -53.85473 3.733115
v -2.49752 -52.75277 4.071603
v -3.63508 -54.67546 4.858277
v -3.63508 -54.67546 4.858277
v -2.49752 -52.75277 4.071603
v -3.769111 -54.49088 5.080044
v -3.769111 -54.49088 5.080044
v -2.49752 -52.75277 4.071603
v -4.051893 -53.09162 5.864853
v -4.051893 -53.09162 5.864853
v -2.49752 -52.75277 4.071603
v -3.630527 -52.339 5.586132
v -3.630527 -52.339 5.586132
v -2.49752 -52.75277 4.071603
v -2.72117 -52.44822 4.440529
v -3.832455 -51.82038 5.132722
v -3.630527 -52.339 5.586132
v -3.759644 -51.57462 4.676596
v -3.759644 -51.57462 4.676596
v -3.630527 -52.339 5.586132
v -3.23438 -51.85492 4.325839
v -3.23438 -51.85492 4.325839
v -3.630527 -52.339 5.586132
v -2.797625 -52.21632 4.217952
v -2.797625 -52.21632 4.217952
v -3.630527 -52.339 5.586132
v -2.72117 -52.44822 4.440529
v -2.797625 -52.21632 4.217952
v -2.72117 -52.44822 4.440529
v -2.758243 -52.25102 4.101358
v -2.758243 -52.25102 4.101358
v -2.72117 -52.44822 4.440529
v -2.49752 -52.75277 4.071603
v -3.73849 -54.97547 2.537235
v -3.805201 -54.80729 2.44045
v -2.503612 -53.85473 3.733115
v -2.503612 -53.85473 3.733115
v -3.805201 -54.80729 2.44045
v -2.420863 -53.43277 3.764445
v -2.420863 -53.43277 3.764445
v -3.805201 -54.80729 2.44045
v -3.632862 -53.66055 2.468009
v -5.027417 -55.34338 3.704293
v -5.699947 -52.97421 4.911538
v -4.73613 -55.46442 3.35528
v -4.73613 -55.46442 3.35528
v -5.699947 -52.97421 4.911538
v -4.294493 -55.23048 2.906341
v -4.294493 -55.23048 2.906341
v -5.699947 -52.97421 4.911538
v -3.805201 -54.80729 2.44045
v -3.805201 -54.80729 2.44045
v -5.699947 -52.97421 4.911538
v -3.632862 -53.66055 2.468009
v -3.632862 -53.66055 2.468009
v -5.699947 -52.97421 4.911538
v -3.800034 -52.71522 2.836567
v -3.800034 -52.71522 2.836567
v -5.699947 -52.97421 4.911538
v -4.990946 -51.61404 4.379937
v -3.759644 -51.57462 4.676596
v -4.611567 -51.55708 4.543327
v -3.832455 -51.82038 5.132722

vn -0.4592486 -0.503339 0.7319431
vn -0.4592486 -0.503339 0.7319431
vn -0.4592486 -0.503339 0.7319431
vn -0.4592486 -0.503339 0.7319431
vn -0.4592486 -0.503339 0.7319431
vn -0.4592486 -0.503339 0.7319431
vn -0.4592486 -0.503339 0.7319431
vn -0.4592486 -0.503339 0.7319431
vn -0.4592486 -0.503339 0.7319431
vn -0.08037633 -0.9605915 0.2660895
vn -0.08037633 -0.9605915 0.2660895
vn -0.08037633 -0.9605915 0.2660895
vn -0.08037633 -0.9605915 0.2660895
vn -0.08037633 -0.9605915 0.2660895
vn -0.08037633 -0.9605915 0.2660895
vn -0.08037633 -0.9605915 0.2660895
vn -0.08037633 -0.9605915 0.2660895
vn -0.08037633 -0.9605915 0.2660895
vn 0.6351932 0.7722021 -0.01528374
vn 0.6351932 0.7722021 -0.01528374
vn 0.6351932 0.7722021 -0.01528374
vn 0.6351932 0.7722021 -0.01528374
vn 0.6351932 0.7722021 -0.01528374
vn 0.6351932 0.7722021 -0.01528374
vn 0.6313758 -0.7721577 0.07167444
vn 0.6313758 -0.7721577 0.07167444
vn 0.6313758 -0.7721577 0.07167444
vn 0.6313758 -0.7721577 0.07167444
vn 0.6313758 -0.7721577 0.07167444
vn 0.6313758 -0.7721577 0.07167444
vn 0.6313758 -0.7721577 0.07167444
vn 0.6313758 -0.7721577 0.07167444
vn 0.6313758 -0.7721577 0.07167444
vn 0.6313758 -0.7721577 0.07167444
vn 0.6313758 -0.7721577 0.07167444
vn 0.6313758 -0.7721577 0.07167444
vn -0.08301286 -0.8479565 -0.5235254
vn -0.08301286 -0.8479565 -0.5235254
vn -0.08301286 -0.8479565 -0.5235254
vn -0.08301286 -0.8479565 -0.5235254
vn -0.08301286 -0.8479565 -0.5235254
vn -0.08301286 -0.8479565 -0.5235254
vn -0.2659854 -0.5579022 -0.7861278
vn -0.2659854 -0.5579022 -0.7861278
vn -0.2659854 -0.5579022 -0.7861278
vn -0.2659854 -0.5579022 -0.7861278
vn -0.2659854 -0.5579022 -0.7861278
vn -0.2659854 -0.5579022 -0.7861278
vn 0.09964383 0.8447364 -0.5258248
vn 0.09964383 0.8447364 -0.5258248
vn 0.09964383 0.8447364 -0.5258248
vn 0.09964383 0.8447364 -0.5258248
vn 0.09964383 0.8447364 -0.5258248
vn 0.09964383 0.8447364 -0.5258248
vn 0.09964383 0.8447364 -0.5258248
vn 0.09964383 0.8447364 -0.5258248
vn 0.09964383 0.8447364 -0.5258248
vn 0.09964383 0.8447364 -0.5258248
vn 0.09964383 0.8447364 -0.5258248
vn 0.09964383 0.8447364 -0.5258248
vn 0.6437489 0.3740931 -0.667564
vn 0.6437489 0.3740931 -0.667564
vn 0.6437489 0.3740931 -0.667564
vn 0.6437489 0.3740931 -0.667564
vn 0.6437489 0.3740931 -0.667564
vn 0.6437489 0.3740931 -0.667564
vn 0.6437489 0.3740931 -0.667564
vn 0.6437489 0.3740931 -0.667564
vn 0.6437489 0.3740931 -0.667564
vn 0.6437489 0.3740931 -0.667564
vn 0.6437489 0.3740931 -0.667564
vn 0.6437489 0.3740931 -0.667564
vn -0.08519479 -0.7905299 0.6064688
vn -0.08519479 -0.7905299 0.6064688
vn -0.08519479 -0.7905299 0.6064688
vn -0.08519479 -0.7905299 0.6064688
vn -0.08519479 -0.7905299 0.6064688
vn -0.08519479 -0.7905299 0.6064688
vn -0.4039202 0.5079163 0.7608348
vn -0.4039202 0.5079163 0.7608348
vn -0.4039202 0.5079163 0.7608348
vn -0.4039202 0.5079163 0.7608348
vn -0.4039202 0.5079163 0.7608348
vn -0.4039202 0.5079163 0.7608348
vn -0.4039202 0.5079163 0.7608348
vn -0.4039202 0.5079163 0.7608348
vn -0.4039202 0.5079163 0.7608348
vn -0.4039202 0.5079163 0.7608348
vn -0.4039202 0.5079163 0.7608348
vn -0.4039202 0.5079163 0.7608348
vn 0.7590815 -0.1949647 0.6211151
vn 0.7590815 -0.1949647 0.6211151
vn 0.7590815 -0.1949647 0.6211151
vn 0.7590815 -0.1949647 0.6211151
vn 0.7590815 -0.1949647 0.6211151
vn 0.7590815 -0.1949647 0.6211151
vn 0.7590815 -0.1949647 0.6211151
vn 0.7590815 -0.1949647 0.6211151
vn 0.7590815 -0.1949647 0.6211151
vn 0.7590815 -0.1949647 0.6211151
vn 0.7590815 -0.1949647 0.6211151
vn 0.7590815 -0.1949647 0.6211151
vn 0.7590815 -0.1949647 0.6211151
vn 0.7590815 -0.1949647 0.6211151
vn 0.7590815 -0.1949647 0.6211151
vn 0.7590815 -0.1949647 0.6211151
vn 0.7590815 -0.1949647 0.6211151
vn 0.7590815 -0.1949647 0.6211151
vn 0.634007 0.6340067 0.4427987
vn 0.634007 0.6340067 0.4427987
vn 0.634007 0.6340067 0.4427987
vn 0.634007 0.6340067 0.4427987
vn 0.634007 0.6340067 0.4427987
vn 0.634007 0.6340067 0.4427987
vn 0.634007 0.6340067 0.4427987
vn 0.634007 0.6340067 0.4427987
vn 0.634007 0.6340067 0.4427987
vn 0.634007 0.6340067 0.4427987
vn 0.634007 0.6340067 0.4427987
vn 0.634007 0.6340067 0.4427987
vn 0.8792945 0.4471882 0.1639028
vn 0.8792945 0.4471882 0.1639028
vn 0.8792945 0.4471882 0.1639028
vn 0.8792945 0.4471882 0.1639028
vn 0.8792945 0.4471882 0.1639028
vn 0.8792945 0.4471882 0.1639028
vn 0.7354518 -0.0944086 -0.6709678
vn 0.7354518 -0.0944086 -0.6709678
vn 0.7354518 -0.0944086 -0.6709678
vn 0.7354518 -0.0944086 -0.6709678
vn 0.7354518 -0.0944086 -0.6709678
vn 0.7354518 -0.0944086 -0.6709678
vn 0.7354518 -0.0944086 -0.6709678
vn 0.7354518 -0.0944086 -0.6709678
vn 0.7354518 -0.0944086 -0.6709678
vn -0.7394075 0.1270169 -0.6611682
vn -0.7394075 0.1270169 -0.6611682
vn -0.7394075 0.1270169 -0.6611682
vn -0.7394075 0.1270169 -0.6611682
vn -0.7394075 0.1270169 -0.6611682
vn -0.7394075 0.1270169 -0.6611682
vn -0.7394075 0.1270169 -0.6611682
vn -0.7394075 0.1270169 -0.6611682
vn -0.7394075 0.1270169 -0.6611682
vn -0.7394075 0.1270169 -0.6611682
vn -0.7394075 0.1270169 -0.6611682
vn -0.7394075 0.1270169 -0.6611682
vn -0.7394075 0.1270169 -0.6611682
vn -0.7394075 0.1270169 -0.6611682
vn -0.7394075 0.1270169 -0.6611682
vn -0.7394075 0.1270169 -0.6611682
vn -0.7394075 0.1270169 -0.6611682
vn -0.7394075 0.1270169 -0.6611682
vn -0.05485896 0.8826547 0.4668097
vn -0.05485896 0.8826547 0.4668097
vn -0.05485896 0.8826547 0.4668097

vt 0.3366757 0.445432
vt 0.5028947 0.2792411
vt 0.3678025 0.7054861
vt 0.3678025 0.7054861
vt 0.5028947 0.2792411
vt 0.3878896 0.7367629
vt 0.3878896 0.7367629
vt 0.5028947 0.2792411
vt 0.6899742 0.4811106
vt 0.5055011 0.6077366
vt 0.4957787 0.5522897
vt 0.5338996 0.6072679
vt 0.5338996 0.6072679
vt 0.4957787 0.5522897
vt 0.5645388 0.5703377
vt 0.5645388 0.5703377
vt 0.4957787 0.5522897
vt 0.5434158 0.554718
vt 0.527768 0.4715382
vt 0.5026978 0.4814481
vt 0.5226114 0.4600719
vt 0.5226114 0.4600719
vt 0.5026978 0.4814481
vt 0.4668785 0.4494635
vt 0.5978689 0.6157996
vt 0.5649889 0.6386853
vt 0.6519752 0.5582901
vt 0.6519752 0.5582901
vt 0.5649889 0.6386853
vt 0.6353055 0.5065089
vt 0.6353055 0.5065089
vt 0.5649889 0.6386853
vt 0.5383811 0.4093361
vt 0.5383811 0.4093361
vt 0.5649889 0.6386853
vt 0.4008466 0.520516
vt 0.5039448 0.4144083
vt 0.5360747 0.413813
vt 0.4556466 0.4932238
vt 0.4556466 0.4932238
vt 0.5360747 0.413813
vt 0.4879923 0.4746087
vt 0.3826534 0.3646476
vt 0.3413682 0.4845514
vt 0.3452965 0.4000262
vt 0.3452965 0.4000262
vt 0.3413682 0.4845514
vt 0.3202779 0.4596406
vt 0.5080981 0.3106492
vt 0.5721799 0.3583098
vt 0.4100768 0.3287581
vt 0.4100768 0.3287581
vt 0.5721799 0.3583098
vt 0.3673009 0.3509593
vt 0.3673009 0.3509593
vt 0.5721799 0.3583098
vt 0.5188987 0.5606714
vt 0.5188987 0.5606714
vt 0.5721799 0.3583098
vt 0.6073007 0.4025014
vt 0.4603344 0.3235546
vt 0.5349028 0.3288284
vt 0.4288419 0.3414244
vt 0.4288419 0.3414244
vt 0.5349028 0.3288284
vt 0.4442179 0.5478551
vt 0.4442179 0.5478551
vt 0.5349028 0.3288284
vt 0.5632169 0.613212
vt 0.5632169 0.613212
vt 0.5349028 0.3288284
vt 0.6176232 0.3833003
vt 0.4307358 0.4636158
vt 0.5486473 0.6545863
vt 0.411816 0.4980991
vt 0.411816 0.4980991
vt 0.5486473 0.6545863
vt 0.4909315 0.6510141
vt 0.6390088 0.3797329
vt 0.6639758 0.4855734
vt 0.518083 0.3146666
vt 0.518083 0.3146666
vt 0.6639758 0.4855734
vt 0.3337458 0.5372139
vt 0.3337458 0.5372139
vt 0.6639758 0.4855734
vt 0.546069 0.6613085
vt 0.546069 0.6613085
vt 0.6639758 0.4855734
vt 0.5964251 0.6231688
vt 0.4526371 0.6380947
vt 0.3724106 0.5889294
vt 0.5064855 0.6431106
vt 0.5064855 0.6431106
vt 0.3724106 0.5889294
vt 0.641512 0.4630158
vt 0.641512 0.4630158
vt 0.3724106 0.5889294
vt 0.6232672 0.4275153
vt 0.6232672 0.4275153
vt 0.3724106 0.5889294
vt 0.462083 0.3019018
vt 0.462083 0.3019018
vt 0.3724106 0.5889294
vt 0.3574894 0.3465106
vt 0.3574894 0.3465106
vt 0.3724106 0.5889294
vt 0.3423854 0.5298728
vt 0.3974339 0.4334922
vt 0.4532981 0.3780453
vt 0.3840222 0.4892673
vt 0.3840222 0.4892673
vt 0.4532981 0.3780453
vt 0.446482 0.5321604
vt 0.446482 0.5321604
vt 0.4532981 0.3780453
vt 0.50837 0.5453612
vt 0.50837 0.5453612
vt 0.4532981 0.3780453
vt 0.5322682 0.5181346
vt 0.4532418 0.4899236
vt 0.4772995 0.4674364
vt 0.458103 0.5016993
vt 0.458103 0.5016993
vt 0.4772995 0.4674364
vt 0.5144547 0.5047088
vt 0.7034094 0.5750254
vt 0.6824176 0.5923327
vt 0.5351934 0.3611927
vt 0.5351934 0.3611927
vt 0.6824176 0.5923327
vt 0.4783026 0.3555862
vt 0.4783026 0.3555862
vt 0.6824176 0.5923327
vt 0.5287149 0.5874011
vt 0.2062103 0.4657253
vt 0.4972694 0.2548741
vt 0.1970411 0.5266945
vt 0.1970411 0.5266945
vt 0.4972694 0.2548741
vt 0.2370559 0.6051021
vt 0.2370559 0.6051021
vt 0.4972694 0.2548741
vt 0.3025628 0.6864818
vt 0.3025628 0.6864818
vt 0.4972694 0.2548741
vt 0.4544841 0.6816628
vt 0.4544841 0.6816628
vt 0.4972694 0.2548741
vt 0.572855 0.6172903
vt 0.572855 0.6172903
vt 0.4972694 0.2548741
vt 0.6886523 0.3477201
vt 0.5420188 0.5058339
vt 0.4476212 0.5225786
vt 0.5322495 0.4484931

usemtl Material0
usemap Material0

usemtl Material1
usemap Material1
f 1/1/1 2/2/2 3/3/3
f 4/4/4 5/5/5 6/6/6
f 7/7/7 8/8/8 9/9/9
f 10/10/10 11/11/11 12/12/12
f 13/13/13 14/14/14 15/15/15
f 16/16/16 17/17/17 18/18/18
f 19/19/19 20/20/20 21/21/21
f 22/22/22 23/23/23 24/24/24
f 25/25/25 26/26/26 27/27/27
f 28/28/28 29/29/29 30/30/30
f 31/31/31 32/32/32 33/33/33
f 34/34/34 35/35/35 36/36/36
f 37/37/37 38/38/38 39/39/39
f 40/40/40 41/41/41 42/42/42
f 43/43/43 44/44/44 45/45/45
f 46/46/46 47/47/47 48/48/48
f 49/49/49 50/50/50 51/51/51
f 52/52/52 53/53/53 54/54/54
f 55/55/55 56/56/56 57/57/57
f 58/58/58 59/59/59 60/60/60
f 61/61/61 62/62/62 63/63/63
f 64/64/64 65/65/65 66/66/66
f 67/67/67 68/68/68 69/69/69
f 70/70/70 71/71/71 72/72/72
f 73/73/73 74/74/74 75/75/75
f 76/76/76 77/77/77 78/78/78
f 79/79/79 80/80/80 81/81/81
f 82/82/82 83/83/83 84/84/84
f 85/85/85 86/86/86 87/87/87
f 88/88/88 89/89/89 90/90/90
f 91/91/91 92/92/92 93/93/93
f 94/94/94 95/95/95 96/96/96
f 97/97/97 98/98/98 99/99/99
f 100/100/100 101/101/101 102/102/102
f 103/103/103 104/104/104 105/105/105
f 106/106/106 107/107/107 108/108/108
f 109/109/109 110/110/110 111/111/111
f 112/112/112 113/113/113 114/114/114
f 115/115/115 116/116/116 117/117/117
f 118/118/118 119/119/119 120/120/120
f 121/121/121 122/122/122 123/123/123
f 124/124/124 125/125/125 126/126/126
f 127/127/127 128/128/128 129/129/129
f 130/130/130 131/131/131 132/132/132
f 133/133/133 134/134/134 135/135/135
f 136/136/136 137/137/137 138/138/138
f 139/139/139 140/140/140 141/141/141
f 142/142/142 143/143/143 144/144/144
f 145/145/145 146/146/146 147/147/147
f 148/148/148 149/149/149 150/150/150
f 151/151/151 152/152/152 153/153/153
f 154/154/154 155/155/155 156/156/156
