g  Instance
v 5.304712 -46.85058 -7.824428
v 5.549412 -46.41128 -7.463146
v 5.455512 -47.34644 -7.914736
v 5.455512 -47.34644 -7.914736
v 5.549412 -46.41128 -7.463146
v 6.381947 -47.37137 -7.236094
v 6.381947 -47.37137 -7.236094
v 5.549412 -46.41128 -7.463146
v 5.772709 -46.42669 -7.303408
v 6.381947 -47.37137 -7.236094
v 5.772709 -46.42669 -7.303408
v 6.61237 -46.51253 -6.5993
v 6.972332 -46.56287 -6.247308
v 7.060839 -46.72295 -6.228966
v 6.61237 -46.51253 -6.5993
v 6.61237 -46.51253 -6.5993
v 7.060839 -46.72295 -6.228966
v 6.381947 -47.37137 -7.236094
v 6.381947 -47.37137 -7.236094
v 7.060839 -46.72295 -6.228966
v 6.839038 -47.41251 -6.778602
v 6.972332 -46.56287 -6.247308
v 7.090816 -46.58442 -6.113013
v 7.060839 -46.72295 -6.228966
v 7.060839 -46.72295 -6.228966
v 7.090816 -46.58442 -6.113013
v 7.093443 -46.59023 -6.113068
v 5.455512 -47.34644 -7.914736
v 6.381947 -47.37137 -7.236094
v 5.633498 -48.09126 -7.993517
v 5.633498 -48.09126 -7.993517
v 6.381947 -47.37137 -7.236094
v 5.919793 -48.5919 -7.923119
v 5.97958 -48.70546 -7.897901
v 5.919793 -48.5919 -7.923119
v 6.2367 -48.71243 -7.676554
v 6.2367 -48.71243 -7.676554
v 5.919793 -48.5919 -7.923119
v 6.26737 -48.70001 -7.647043
v 6.26737 -48.70001 -7.647043
v 5.919793 -48.5919 -7.923119
v 6.645976 -47.90028 -7.131155
v 6.645976 -47.90028 -7.131155
v 5.919793 -48.5919 -7.923119
v 6.381947 -47.37137 -7.236094
v 6.645976 -47.90028 -7.131155
v 6.381947 -47.37137 -7.236094
v 6.839038 -47.41251 -6.778602
v 6.2367 -48.71243 -7.676554
v 6.020534 -48.79028 -7.872414
v 5.97958 -48.70546 -7.897901
v 6.898278 -46.67749 -6.015258
v 7.093443 -46.59023 -6.113068
v 6.846171 -46.64556 -5.999124
v 6.846171 -46.64556 -5.999124
v 7.093443 -46.59023 -6.113068
v 7.090816 -46.58442 -6.113013
v 6.839038 -47.41251 -6.778602
v 7.060839 -46.72295 -6.228966
v 6.645976 -47.90028 -7.131155
v 6.645976 -47.90028 -7.131155
v 7.060839 -46.72295 -6.228966
v 6.26737 -48.70001 -7.647043
v 6.26737 -48.70001 -7.647043
v 7.060839 -46.72295 -6.228966
v 6.124963 -47.15067 -5.77032
v 6.124963 -47.15067 -5.77032
v 7.060839 -46.72295 -6.228966
v 6.898278 -46.67749 -6.015258
v 6.898278 -46.67749 -6.015258
v 7.060839 -46.72295 -6.228966
v 7.093443 -46.59023 -6.113068
v 6.020534 -48.79028 -7.872414
v 6.2367 -48.71243 -7.676554
v 4.554583 -47.42781 -6.831713
v 4.554583 -47.42781 -6.831713
v 6.2367 -48.71243 -7.676554
v 4.552059 -47.41829 -6.820936
v 4.552059 -47.41829 -6.820936
v 6.2367 -48.71243 -7.676554
v 4.698346 -47.1857 -6.462958
v 4.698346 -47.1857 -6.462958
v 6.2367 -48.71243 -7.676554
v 5.925003 -47.02868 -5.708388
v 5.925003 -47.02868 -5.708388
v 6.2367 -48.71243 -7.676554
v 6.124963 -47.15067 -5.77032
v 6.124963 -47.15067 -5.77032
v 6.2367 -48.71243 -7.676554
v 6.26737 -48.70001 -7.647043
v 5.304712 -46.85058 -7.824428
v 4.92208 -47.00183 -7.349735
v 5.549412 -46.41128 -7.463146
v 5.549412 -46.41128 -7.463146
v 4.92208 -47.00183 -7.349735
v 5.258899 -46.53831 -7.126386
v 5.021201 -46.76088 -6.411507
v 5.258899 -46.53831 -7.126386
v 4.698346 -47.1857 -6.462958
v 4.698346 -47.1857 -6.462958
v 5.258899 -46.53831 -7.126386
v 4.552059 -47.41829 -6.820936
v 4.552059 -47.41829 -6.820936
v 5.258899 -46.53831 -7.126386
v 4.550581 -47.42152 -6.831872
v 4.550581 -47.42152 -6.831872
v 5.258899 -46.53831 -7.126386
v 4.556634 -47.41577 -6.849437
v 4.556634 -47.41577 -6.849437
v 5.258899 -46.53831 -7.126386
v 4.92208 -47.00183 -7.349735
v 5.925003 -47.02868 -5.708388
v 6.005119 -46.82145 -5.734687
v 4.698346 -47.1857 -6.462958
v 4.698346 -47.1857 -6.462958
v 6.005119 -46.82145 -5.734687
v 5.021201 -46.76088 -6.411507
v 5.633498 -48.09126 -7.993517
v 5.919793 -48.5919 -7.923119
v 4.556634 -47.41577 -6.849437
v 4.556634 -47.41577 -6.849437
v 5.919793 -48.5919 -7.923119
v 4.550581 -47.42152 -6.831872
v 4.550581 -47.42152 -6.831872
v 5.919793 -48.5919 -7.923119
v 4.554583 -47.42781 -6.831713
v 4.554583 -47.42781 -6.831713
v 5.919793 -48.5919 -7.923119
v 6.020534 -48.79028 -7.872414
v 6.020534 -48.79028 -7.872414
v 5.919793 -48.5919 -7.923119
v 5.97958 -48.70546 -7.897901
v 6.898278 -46.67749 -6.015258
v 6.846171 -46.64556 -5.999124
v 6.124963 -47.15067 -5.77032
v 6.124963 -47.15067 -5.77032
v 6.846171 -46.64556 -5.999124
v 5.925003 -47.02868 -5.708388
v 5.925003 -47.02868 -5.708388
v 6.846171 -46.64556 -5.999124
v 6.005119 -46.82145 -5.734687
v 4.552059 -47.41829 -6.820936
v 4.550581 -47.42152 -6.831872
v 4.554583 -47.42781 -6.831713
v 5.304712 -46.85058 -7.824428
v 5.455512 -47.34644 -7.914736
v 4.92208 -47.00183 -7.349735
v 4.92208 -47.00183 -7.349735
v 5.455512 -47.34644 -7.914736
v 4.556634 -47.41577 -6.849437
v 4.556634 -47.41577 -6.849437
v 5.455512 -47.34644 -7.914736
v 5.633498 -48.09126 -7.993517
v 7.090816 -46.58442 -6.113013
v 6.972332 -46.56287 -6.247308
v 6.846171 -46.64556 -5.999124
v 6.846171 -46.64556 -5.999124
v 6.972332 -46.56287 -6.247308
v 6.005119 -46.82145 -5.734687
v 6.005119 -46.82145 -5.734687
v 6.972332 -46.56287 -6.247308
v 5.021201 -46.76088 -6.411507
v 5.021201 -46.76088 -6.411507
v 6.972332 -46.56287 -6.247308
v 5.258899 -46.53831 -7.126386
v 5.258899 -46.53831 -7.126386
v 6.972332 -46.56287 -6.247308
v 5.549412 -46.41128 -7.463146
v 5.549412 -46.41128 -7.463146
v 6.972332 -46.56287 -6.247308
v 5.772709 -46.42669 -7.303408
v 5.772709 -46.42669 -7.303408
v 6.972332 -46.56287 -6.247308
v 6.61237 -46.51253 -6.5993

vn 0.5670136 0.3113318 -0.7626062
vn 0.5670136 0.3113318 -0.7626062
vn 0.5670136 0.3113318 -0.7626062
vn 0.5670136 0.3113318 -0.7626062
vn 0.5670136 0.3113318 -0.7626062
vn 0.5670136 0.3113318 -0.7626062
vn 0.5670136 0.3113318 -0.7626062
vn 0.5670136 0.3113318 -0.7626062
vn 0.5670136 0.3113318 -0.7626062
vn 0.6223751 0.3515432 -0.699333
vn 0.6223751 0.3515432 -0.699333
vn 0.6223751 0.3515432 -0.699333
vn 0.6873778 0.3044897 -0.659392
vn 0.6873778 0.3044897 -0.659392
vn 0.6873778 0.3044897 -0.659392
vn 0.6873778 0.3044897 -0.659392
vn 0.6873778 0.3044897 -0.659392
vn 0.6873778 0.3044897 -0.659392
vn 0.6873778 0.3044897 -0.659392
vn 0.6873778 0.3044897 -0.659392
vn 0.6873778 0.3044897 -0.659392
vn 0.7321786 0.3369915 -0.5919049
vn 0.7321786 0.3369915 -0.5919049
vn 0.7321786 0.3369915 -0.5919049
vn 0.7321786 0.3369915 -0.5919049
vn 0.7321786 0.3369915 -0.5919049
vn 0.7321786 0.3369915 -0.5919049
vn 0.5801324 0.2215363 -0.7838162
vn 0.5801324 0.2215363 -0.7838162
vn 0.5801324 0.2215363 -0.7838162
vn 0.5801324 0.2215363 -0.7838162
vn 0.5801324 0.2215363 -0.7838162
vn 0.5801324 0.2215363 -0.7838162
vn 0.645127 0.1744542 -0.743893
vn 0.645127 0.1744542 -0.743893
vn 0.645127 0.1744542 -0.743893
vn 0.645127 0.1744542 -0.743893
vn 0.645127 0.1744542 -0.743893
vn 0.645127 0.1744542 -0.743893
vn 0.645127 0.1744542 -0.743893
vn 0.645127 0.1744542 -0.743893
vn 0.645127 0.1744542 -0.743893
vn 0.645127 0.1744542 -0.743893
vn 0.645127 0.1744542 -0.743893
vn 0.645127 0.1744542 -0.743893
vn 0.7005107 0.2146615 -0.6805918
vn 0.7005107 0.2146615 -0.6805918
vn 0.7005107 0.2146615 -0.6805918
vn 0.6512595 0.08794808 -0.7537414
vn 0.6512595 0.08794808 -0.7537414
vn 0.6512595 0.08794808 -0.7537414
vn 0.3822416 0.1643506 0.9093296
vn 0.3822416 0.1643506 0.9093296
vn 0.3822416 0.1643506 0.9093296
vn 0.3822416 0.1643506 0.9093296
vn 0.3822416 0.1643506 0.9093296
vn 0.3822416 0.1643506 0.9093296
vn 0.5550777 -0.6202838 0.5541992
vn 0.5550777 -0.6202838 0.5541992
vn 0.5550777 -0.6202838 0.5541992
vn 0.5550777 -0.6202838 0.5541992
vn 0.5550777 -0.6202838 0.5541992
vn 0.5550777 -0.6202838 0.5541992
vn 0.5550777 -0.6202838 0.5541992
vn 0.5550777 -0.6202838 0.5541992
vn 0.5550777 -0.6202838 0.5541992
vn 0.5550777 -0.6202838 0.5541992
vn 0.5550777 -0.6202838 0.5541992
vn 0.5550777 -0.6202838 0.5541992
vn 0.5550777 -0.6202838 0.5541992
vn 0.5550777 -0.6202838 0.5541992
vn 0.5550777 -0.6202838 0.5541992
vn -0.272877 -0.7519594 0.6000794
vn -0.272877 -0.7519594 0.6000794
vn -0.272877 -0.7519594 0.6000794
vn -0.272877 -0.7519594 0.6000794
vn -0.272877 -0.7519594 0.6000794
vn -0.272877 -0.7519594 0.6000794
vn -0.272877 -0.7519594 0.6000794
vn -0.272877 -0.7519594 0.6000794
vn -0.272877 -0.7519594 0.6000794
vn -0.272877 -0.7519594 0.6000794
vn -0.272877 -0.7519594 0.6000794
vn -0.272877 -0.7519594 0.6000794
vn -0.272877 -0.7519594 0.6000794
vn -0.272877 -0.7519594 0.6000794
vn -0.272877 -0.7519594 0.6000794
vn -0.272877 -0.7519594 0.6000794
vn -0.272877 -0.7519594 0.6000794
vn -0.272877 -0.7519594 0.6000794
vn -0.6769104 0.6543162 -0.3371388
vn -0.6769104 0.6543162 -0.3371388
vn -0.6769104 0.6543162 -0.3371388
vn -0.6769104 0.6543162 -0.3371388
vn -0.6769104 0.6543162 -0.3371388
vn -0.6769104 0.6543162 -0.3371388
vn -0.7897674 0.6090494 -0.07298168
vn -0.7897674 0.6090494 -0.07298168
vn -0.7897674 0.6090494 -0.07298168
vn -0.7897674 0.6090494 -0.07298168
vn -0.7897674 0.6090494 -0.07298168
vn -0.7897674 0.6090494 -0.07298168
vn -0.7897674 0.6090494 -0.07298168
vn -0.7897674 0.6090494 -0.07298168
vn -0.7897674 0.6090494 -0.07298168
vn -0.7897674 0.6090494 -0.07298168
vn -0.7897674 0.6090494 -0.07298168
vn -0.7897674 0.6090494 -0.07298168
vn -0.7897674 0.6090494 -0.07298168
vn -0.7897674 0.6090494 -0.07298168
vn -0.7897674 0.6090494 -0.07298168
vn -0.5270394 0.3044513 0.7934349
vn -0.5270394 0.3044513 0.7934349
vn -0.5270394 0.3044513 0.7934349
vn -0.5270394 0.3044513 0.7934349
vn -0.5270394 0.3044513 0.7934349
vn -0.5270394 0.3044513 0.7934349
vn -0.7595217 -0.4939091 -0.4232975
vn -0.7595217 -0.4939091 -0.4232975
vn -0.7595217 -0.4939091 -0.4232975
vn -0.7595217 -0.4939091 -0.4232975
vn -0.7595217 -0.4939091 -0.4232975
vn -0.7595217 -0.4939091 -0.4232975
vn -0.7595217 -0.4939091 -0.4232975
vn -0.7595217 -0.4939091 -0.4232975
vn -0.7595217 -0.4939091 -0.4232975
vn -0.7595217 -0.4939091 -0.4232975
vn -0.7595217 -0.4939091 -0.4232975
vn -0.7595217 -0.4939091 -0.4232975
vn -0.7595217 -0.4939091 -0.4232975
vn -0.7595217 -0.4939091 -0.4232975
vn -0.7595217 -0.4939091 -0.4232975
vn 0.2988615 0.005552183 0.9542804
vn 0.2988615 0.005552183 0.9542804
vn 0.2988615 0.005552183 0.9542804
vn 0.2988615 0.005552183 0.9542804
vn 0.2988615 0.005552183 0.9542804
vn 0.2988615 0.005552183 0.9542804
vn 0.2988615 0.005552183 0.9542804
vn 0.2988615 0.005552183 0.9542804
vn 0.2988615 0.005552183 0.9542804
vn -0.8171992 -0.5133837 0.2619594
vn -0.8171992 -0.5133837 0.2619594
vn -0.8171992 -0.5133837 0.2619594
vn -0.7558237 -0.1123968 -0.6450562
vn -0.7558237 -0.1123968 -0.6450562
vn -0.7558237 -0.1123968 -0.6450562
vn -0.7558237 -0.1123968 -0.6450562
vn -0.7558237 -0.1123968 -0.6450562
vn -0.7558237 -0.1123968 -0.6450562
vn -0.7558237 -0.1123968 -0.6450562
vn -0.7558237 -0.1123968 -0.6450562
vn -0.7558237 -0.1123968 -0.6450562
vn -0.1190614 0.9585491 0.2588596
vn -0.1190614 0.9585491 0.2588596
vn -0.1190614 0.9585491 0.2588596
vn -0.1190614 0.9585491 0.2588596
vn -0.1190614 0.9585491 0.2588596
vn -0.1190614 0.9585491 0.2588596
vn -0.1190614 0.9585491 0.2588596
vn -0.1190614 0.9585491 0.2588596
vn -0.1190614 0.9585491 0.2588596
vn -0.1190614 0.9585491 0.2588596
vn -0.1190614 0.9585491 0.2588596
vn -0.1190614 0.9585491 0.2588596
vn -0.1190614 0.9585491 0.2588596
vn -0.1190614 0.9585491 0.2588596
vn -0.1190614 0.9585491 0.2588596
vn -0.1190614 0.9585491 0.2588596
vn -0.1190614 0.9585491 0.2588596
vn -0.1190614 0.9585491 0.2588596
vn -0.1190614 0.9585491 0.2588596
vn -0.1190614 0.9585491 0.2588596
vn -0.1190614 0.9585491 0.2588596

vt 0.2648396 0.1068
vt 0.2677368 0.1148449
vt 0.2580077 0.1042254
vt 0.2580077 0.1042254
vt 0.2677368 0.1148449
vt 0.2499997 0.1180958
vt 0.2499997 0.1180958
vt 0.2677368 0.1148449
vt 0.2657011 0.1180958
vt 0.2499997 0.1180958
vt 0.2657011 0.1180958
vt 0.2577252 0.1314768
vt 0.2537719 0.1377784
vt 0.2510998 0.1377784
vt 0.2577252 0.1314768
vt 0.2577252 0.1314768
vt 0.2510998 0.1377784
vt 0.2499997 0.1180958
vt 0.2499997 0.1180958
vt 0.2510998 0.1377784
vt 0.2452419 0.1263366
vt 0.2537719 0.1377784
vt 0.2524062 0.1401755
vt 0.2510998 0.1377784
vt 0.2510998 0.1377784
vt 0.2524062 0.1401755
vt 0.2523148 0.1401624
vt 0.2580077 0.1042254
vt 0.2499997 0.1180958
vt 0.2478186 0.1002127
vt 0.2478186 0.1002127
vt 0.2499997 0.1180958
vt 0.2395819 0.1000513
vt 0.2376603 0.1001034
vt 0.2395819 0.1000513
vt 0.2351941 0.104375
vt 0.2351941 0.104375
vt 0.2395819 0.1000513
vt 0.2350595 0.104996
vt 0.2350595 0.104996
vt 0.2395819 0.1000513
vt 0.2411835 0.1180958
vt 0.2411835 0.1180958
vt 0.2395819 0.1000513
vt 0.2499997 0.1180958
vt 0.2411835 0.1180958
vt 0.2499997 0.1180958
vt 0.2452419 0.1263366
vt 0.2351941 0.104375
vt 0.2361684 0.100114
vt 0.2376603 0.1001034
vt 0.5900872 0.4460883
vt 0.601066 0.4236151
vt 0.5931249 0.4520886
vt 0.5931249 0.4520886
vt 0.601066 0.4236151
vt 0.6016754 0.4239198
vt 0.3871677 0.4667566
vt 0.31334 0.3887709
vt 0.4425724 0.5167752
vt 0.4425724 0.5167752
vt 0.31334 0.3887709
vt 0.5388874 0.5899794
vt 0.5388874 0.5899794
vt 0.31334 0.3887709
vt 0.4293951 0.3236906
vt 0.4293951 0.3236906
vt 0.31334 0.3887709
vt 0.3240656 0.3584457
vt 0.3240656 0.3584457
vt 0.31334 0.3887709
vt 0.3000173 0.3723262
vt 0.4516948 0.6269847
vt 0.4299905 0.5968891
vt 0.6781704 0.4670989
vt 0.6781704 0.4670989
vt 0.4299905 0.5968891
vt 0.6788548 0.4654441
vt 0.6788548 0.4654441
vt 0.4299905 0.5968891
vt 0.6717107 0.4104472
vt 0.6717107 0.4104472
vt 0.4299905 0.5968891
vt 0.536581 0.2945186
vt 0.536581 0.2945186
vt 0.4299905 0.5968891
vt 0.50837 0.3040347
vt 0.50837 0.3040347
vt 0.4299905 0.5968891
vt 0.4269668 0.5923514
vt 0.5095888 0.5123593
vt 0.47046 0.4597062
vt 0.5603386 0.4722835
vt 0.5603386 0.4722835
vt 0.47046 0.4597062
vt 0.5297087 0.4349314
vt 0.5115389 0.4054172
vt 0.5432095 0.4760712
vt 0.4589421 0.4105034
vt 0.4589421 0.4105034
vt 0.5432095 0.4760712
vt 0.4319828 0.445882
vt 0.4319828 0.445882
vt 0.5432095 0.4760712
vt 0.4316406 0.4469649
vt 0.4316406 0.4469649
vt 0.5432095 0.4760712
vt 0.4324515 0.4486994
vt 0.4324515 0.4486994
vt 0.5432095 0.4760712
vt 0.4867594 0.498146
vt 0.5918311 0.4105971
vt 0.6272894 0.4175772
vt 0.4707647 0.61084
vt 0.4707647 0.61084
vt 0.6272894 0.4175772
vt 0.5562696 0.5971892
vt 0.4896798 0.5490645
vt 0.4272012 0.5406359
vt 0.6148292 0.412041
vt 0.6148292 0.412041
vt 0.4272012 0.5406359
vt 0.6146605 0.4099362
vt 0.6146605 0.4099362
vt 0.4272012 0.5406359
vt 0.6138542 0.4099174
vt 0.6138542 0.4099174
vt 0.4272012 0.5406359
vt 0.4031952 0.5345606
vt 0.4031952 0.5345606
vt 0.4272012 0.5406359
vt 0.4133348 0.537617
vt 0.6073945 0.4283122
vt 0.6106759 0.4339376
vt 0.558501 0.5117874
vt 0.558501 0.5117874
vt 0.6106759 0.4339376
vt 0.5710361 0.5333793
vt 0.5710361 0.5333793
vt 0.6106759 0.4339376
vt 0.592403 0.5247256
vt 0.6055662 0.484017
vt 0.6053693 0.4851702
vt 0.6046099 0.4851608
vt 0.6277207 0.5062839
vt 0.5617731 0.5214911
vt 0.6157106 0.4263668
vt 0.6157106 0.4263668
vt 0.5617731 0.5214911
vt 0.5699486 0.3421323
vt 0.5699486 0.3421323
vt 0.5617731 0.5214911
vt 0.4636158 0.5347574
vt 0.6115197 0.4155615
vt 0.599819 0.4297092
vt 0.586037 0.4035608
vt 0.586037 0.4035608
vt 0.599819 0.4297092
vt 0.4988819 0.3756967
vt 0.4988819 0.3756967
vt 0.599819 0.4297092
vt 0.4002653 0.4470118
vt 0.4002653 0.4470118
vt 0.599819 0.4297092
vt 0.4270747 0.5223349
vt 0.4270747 0.5223349
vt 0.599819 0.4297092
vt 0.4580093 0.5578213
vt 0.4580093 0.5578213
vt 0.599819 0.4297092
vt 0.4803699 0.5409922
vt 0.4803699 0.5409922
vt 0.599819 0.4297092
vt 0.5640888 0.4667988

usemtl Material0
usemap Material0
f 1/1/1 2/2/2 3/3/3
f 4/4/4 5/5/5 6/6/6
f 7/7/7 8/8/8 9/9/9
f 10/10/10 11/11/11 12/12/12
f 13/13/13 14/14/14 15/15/15
f 16/16/16 17/17/17 18/18/18
f 19/19/19 20/20/20 21/21/21
f 22/22/22 23/23/23 24/24/24
f 25/25/25 26/26/26 27/27/27
f 28/28/28 29/29/29 30/30/30
f 31/31/31 32/32/32 33/33/33
f 34/34/34 35/35/35 36/36/36
f 37/37/37 38/38/38 39/39/39
f 40/40/40 41/41/41 42/42/42
f 43/43/43 44/44/44 45/45/45
f 46/46/46 47/47/47 48/48/48
f 49/49/49 50/50/50 51/51/51

usemtl Material1
usemap Material1
f 52/52/52 53/53/53 54/54/54
f 55/55/55 56/56/56 57/57/57
f 58/58/58 59/59/59 60/60/60
f 61/61/61 62/62/62 63/63/63
f 64/64/64 65/65/65 66/66/66
f 67/67/67 68/68/68 69/69/69
f 70/70/70 71/71/71 72/72/72
f 73/73/73 74/74/74 75/75/75
f 76/76/76 77/77/77 78/78/78
f 79/79/79 80/80/80 81/81/81
f 82/82/82 83/83/83 84/84/84
f 85/85/85 86/86/86 87/87/87
f 88/88/88 89/89/89 90/90/90
f 91/91/91 92/92/92 93/93/93
f 94/94/94 95/95/95 96/96/96
f 97/97/97 98/98/98 99/99/99
f 100/100/100 101/101/101 102/102/102
f 103/103/103 104/104/104 105/105/105
f 106/106/106 107/107/107 108/108/108
f 109/109/109 110/110/110 111/111/111
f 112/112/112 113/113/113 114/114/114
f 115/115/115 116/116/116 117/117/117
f 118/118/118 119/119/119 120/120/120
f 121/121/121 122/122/122 123/123/123
f 124/124/124 125/125/125 126/126/126
f 127/127/127 128/128/128 129/129/129
f 130/130/130 131/131/131 132/132/132
f 133/133/133 134/134/134 135/135/135
f 136/136/136 137/137/137 138/138/138
f 139/139/139 140/140/140 141/141/141
f 142/142/142 143/143/143 144/144/144
f 145/145/145 146/146/146 147/147/147
f 148/148/148 149/149/149 150/150/150
f 151/151/151 152/152/152 153/153/153
f 154/154/154 155/155/155 156/156/156
f 157/157/157 158/158/158 159/159/159
f 160/160/160 161/161/161 162/162/162
f 163/163/163 164/164/164 165/165/165
f 166/166/166 167/167/167 168/168/168
f 169/169/169 170/170/170 171/171/171
f 172/172/172 173/173/173 174/174/174
