g  Instance
v 1.525085 -40.11698 -2.861023E-06
v 0.8027592 -40.11727 -1.298934
v 0.2677562 -40.02054 -5.023059E-07
v 0.2677562 -40.02054 -5.023059E-07
v 0.8027592 -40.11727 -1.298934
v 0.1154251 -40.01686 -0.1867691
v 2.309478 -40.36172 -1.330327
v 1.55215 -40.44578 -2.511515
v 0.8027592 -40.11727 -1.298934
v 1.55215 -40.44578 -2.511515
v 1.635146 -40.46631 -2.513123
v 1.588458 -40.47232 -2.570264
v 0.919464 -40.11026 0.8381948
v 0.9573108 -40.11296 0.8338791
v 0.2677562 -40.02054 -5.023059E-07
v 0.2677562 -40.02054 -5.023059E-07
v 0.9573108 -40.11296 0.8338791
v 1.525085 -40.11698 -2.861023E-06
v 1.525085 -40.11698 -2.861023E-06
v 0.9573108 -40.11296 0.8338791
v 1.041425 -40.11698 0.7826001
v 1.525085 -40.11698 -2.861023E-06
v 1.041425 -40.11698 0.7826001
v 1.719756 -40.18118 0.3679052
v 2.309478 -40.36172 -1.330327
v 0.8027592 -40.11727 -1.298934
v 1.525085 -40.11698 -2.861023E-06
v 2.600675 -40.40936 -0.8341143
v 2.309478 -40.36172 -1.330327
v 2.172797 -40.27112 -3.255704E-06
v 2.172797 -40.27112 -3.255704E-06
v 2.309478 -40.36172 -1.330327
v 1.525085 -40.11698 -2.861023E-06
v 2.099391 -40.26017 0.134246
v 2.172797 -40.27112 -3.255704E-06
v 1.719756 -40.18118 0.3679052
v 1.719756 -40.18118 0.3679052
v 2.172797 -40.27112 -3.255704E-06
v 1.525085 -40.11698 -2.861023E-06
v 2.309478 -40.36172 -1.330327
v 2.428053 -40.43842 -1.541342
v 1.55215 -40.44578 -2.511515
v 1.55215 -40.44578 -2.511515
v 2.428053 -40.43842 -1.541342
v 1.635146 -40.46631 -2.513123
v 2.309478 -40.36172 -1.330327
v 2.599875 -40.45607 -1.330327
v 2.428053 -40.43842 -1.541342
v 2.600675 -40.40936 -0.8341143
v 2.749946 -40.48736 -1.145737
v 2.309478 -40.36172 -1.330327
v 2.309478 -40.36172 -1.330327
v 2.749946 -40.48736 -1.145737
v 2.599875 -40.45607 -1.330327
v -0.6820555 -40.11698 -1.364104
v -0.9190502 -40.15355 -1.369564
v -0.7748499 -40.11698 -1.213955
v -0.7748499 -40.11698 -1.213955
v -0.3826269 -40.06562 -0.7652491
v -0.6820555 -40.11698 -1.364104
v -0.3826269 -40.06562 -0.7652491
v 0.1154251 -40.01686 -0.1867691
v -0.6820555 -40.11698 -1.364104
v -0.6820555 -40.11698 -1.364104
v 0.1154251 -40.01686 -0.1867691
v 0.8027592 -40.11727 -1.298934
v -1.164207 -40.37355 -2.328406
v -1.382857 -40.39433 -2.265597
v -0.6820555 -40.11698 -1.364104
v -0.6820555 -40.11698 -1.364104
v -1.382857 -40.39433 -2.265597
v -0.9190502 -40.15355 -1.369564
v -0.9190502 -40.15355 -1.369564
v -1.382857 -40.39433 -2.265597
v -1.37881 -40.31295 -1.843038
v 0.1569941 -40.36172 -2.660647
v 0.1168034 -40.36506 -2.663345
v -0.6820555 -40.11698 -1.364104
v -0.6820555 -40.11698 -1.364104
v 0.1168034 -40.36506 -2.663345
v -1.164207 -40.37355 -2.328406
v 0.8027592 -40.11727 -1.298934
v 0.1569941 -40.36172 -2.660647
v -0.6820555 -40.11698 -1.364104
v 1.55215 -40.44578 -2.511515
v 0.1569941 -40.36172 -2.660647
v 0.8027592 -40.11727 -1.298934
v 0.1512882 -40.36587 -2.672059
v 0.1168034 -40.36506 -2.663345
v 0.1569941 -40.36172 -2.660647
v 0.1569941 -40.36172 -2.660647
v 0.1671956 -40.36749 -2.675714
v 0.1512882 -40.36587 -2.672059
v 1.318936 -40.54744 -2.899395
v 1.297947 -40.55066 -2.915705
v 1.434907 -40.51324 -2.757809
v 1.434907 -40.51324 -2.757809
v 1.297947 -40.55066 -2.915705
v 1.55215 -40.44578 -2.511515
v 1.55215 -40.44578 -2.511515
v 1.297947 -40.55066 -2.915705
v 0.1569941 -40.36172 -2.660647
v 0.1569941 -40.36172 -2.660647
v 1.297947 -40.55066 -2.915705
v 0.1671956 -40.36749 -2.675714
v 1.55215 -40.44578 -2.511515
v 1.588458 -40.47232 -2.570264
v 1.434907 -40.51324 -2.757809
v 0.4490662 -41.65815 1.086491
v -1.255136 -40.95064 -1.355566
v 0.8112823 -42.45319 0.8373103
v 0.8112823 -42.45319 0.8373103
v -1.255136 -40.95064 -1.355566
v 0.913353 -43.20089 0.1430537
v 0.913353 -43.20089 0.1430537
v -1.255136 -40.95064 -1.355566
v -0.4360142 -42.68454 -1.842791
v -0.4360142 -42.68454 -1.842791
v -1.255136 -40.95064 -1.355566
v -1.175528 -41.59428 -1.969122
v 2.099391 -40.26017 0.134246
v 1.719756 -40.18118 0.3679052
v 0.8112823 -42.45319 0.8373103
v 0.8112823 -42.45319 0.8373103
v 1.719756 -40.18118 0.3679052
v 0.4490662 -41.65815 1.086491
v 0.4490662 -41.65815 1.086491
v 1.719756 -40.18118 0.3679052
v 0.90413 -40.19286 0.863294
v 0.90413 -40.19286 0.863294
v 1.719756 -40.18118 0.3679052
v 0.9573108 -40.11296 0.8338791
v 0.9573108 -40.11296 0.8338791
v 1.719756 -40.18118 0.3679052
v 1.041425 -40.11698 0.7826001
v 1.318936 -40.54744 -2.899395
v 2.671606 -40.81255 -1.235892
v 1.297947 -40.55066 -2.915705
v 1.297947 -40.55066 -2.915705
v 2.671606 -40.81255 -1.235892
v -0.4360142 -42.68454 -1.842791
v -0.4360142 -42.68454 -1.842791
v 2.671606 -40.81255 -1.235892
v 0.913353 -43.20089 0.1430537
v 1.318936 -40.54744 -2.899395
v 1.434907 -40.51324 -2.757809
v 2.671606 -40.81255 -1.235892
v 2.671606 -40.81255 -1.235892
v 1.434907 -40.51324 -2.757809
v 2.749946 -40.48736 -1.145737
v 2.749946 -40.48736 -1.145737
v 1.434907 -40.51324 -2.757809
v 2.599875 -40.45607 -1.330327
v 2.599875 -40.45607 -1.330327
v 1.434907 -40.51324 -2.757809
v 2.428053 -40.43842 -1.541342
v 2.428053 -40.43842 -1.541342
v 1.434907 -40.51324 -2.757809
v 1.635146 -40.46631 -2.513123
v 1.635146 -40.46631 -2.513123
v 1.434907 -40.51324 -2.757809
v 1.588458 -40.47232 -2.570264
v 0.1512882 -40.36587 -2.672059
v 0.1671956 -40.36749 -2.675714
v 0.1168034 -40.36506 -2.663345
v 0.1168034 -40.36506 -2.663345
v 0.1671956 -40.36749 -2.675714
v -1.164207 -40.37355 -2.328406
v -1.164207 -40.37355 -2.328406
v 0.1671956 -40.36749 -2.675714
v -1.382857 -40.39433 -2.265597
v -1.382857 -40.39433 -2.265597
v 0.1671956 -40.36749 -2.675714
v -1.175528 -41.59428 -1.969122
v -1.175528 -41.59428 -1.969122
v 0.1671956 -40.36749 -2.675714
v -0.4360142 -42.68454 -1.842791
v -0.4360142 -42.68454 -1.842791
v 0.1671956 -40.36749 -2.675714
v 1.297947 -40.55066 -2.915705
v 0.90413 -40.19286 0.863294
v 0.9573108 -40.11296 0.8338791
v 0.919464 -40.11026 0.8381948
v 2.671606 -40.81255 -1.235892
v 2.749946 -40.48736 -1.145737
v 0.913353 -43.20089 0.1430537
v 0.913353 -43.20089 0.1430537
v 2.749946 -40.48736 -1.145737
v 0.8112823 -42.45319 0.8373103
v 0.8112823 -42.45319 0.8373103
v 2.749946 -40.48736 -1.145737
v 2.099391 -40.26017 0.134246
v 2.099391 -40.26017 0.134246
v 2.749946 -40.48736 -1.145737
v 2.172797 -40.27112 -3.255704E-06
v 2.172797 -40.27112 -3.255704E-06
v 2.749946 -40.48736 -1.145737
v 2.600675 -40.40936 -0.8341143
v 0.90413 -40.19286 0.863294
v 0.919464 -40.11026 0.8381948
v 0.4490662 -41.65815 1.086491
v 0.4490662 -41.65815 1.086491
v 0.919464 -40.11026 0.8381948
v -1.255136 -40.95064 -1.355566
v -1.255136 -40.95064 -1.355566
v 0.919464 -40.11026 0.8381948
v -1.37881 -40.31295 -1.843038
v -1.37881 -40.31295 -1.843038
v 0.919464 -40.11026 0.8381948
v -0.9190502 -40.15355 -1.369564
v -0.9190502 -40.15355 -1.369564
v 0.919464 -40.11026 0.8381948
v -0.7748499 -40.11698 -1.213955
v -0.7748499 -40.11698 -1.213955
v 0.919464 -40.11026 0.8381948
v -0.3826269 -40.06562 -0.7652491
v -0.3826269 -40.06562 -0.7652491
v 0.919464 -40.11026 0.8381948
v 0.1154251 -40.01686 -0.1867691
v 0.1154251 -40.01686 -0.1867691
v 0.919464 -40.11026 0.8381948
v 0.2677562 -40.02054 -5.023059E-07
v -1.255136 -40.95064 -1.355566
v -1.37881 -40.31295 -1.843038
v -1.175528 -41.59428 -1.969122
v -1.175528 -41.59428 -1.969122
v -1.37881 -40.31295 -1.843038
v -1.382857 -40.39433 -2.265597

vn 0.07640791 0.9961612 -0.04271431
vn 0.07640791 0.9961612 -0.04271431
vn 0.07640791 0.9961612 -0.04271431
vn 0.07640791 0.9961612 -0.04271431
vn 0.07640791 0.9961612 -0.04271431
vn 0.07640791 0.9961612 -0.04271431
vn 0.154441 0.9735602 -0.1683113
vn 0.154441 0.9735602 -0.1683113
vn 0.154441 0.9735602 -0.1683113
vn 0.2252226 0.9325763 -0.2820926
vn 0.2252226 0.9325763 -0.2820926
vn 0.2252226 0.9325763 -0.2820926
vn 0.07639253 0.9959593 0.04721579
vn 0.07639253 0.9959593 0.04721579
vn 0.07639253 0.9959593 0.04721579
vn 0.07639253 0.9959593 0.04721579
vn 0.07639253 0.9959593 0.04721579
vn 0.07639253 0.9959593 0.04721579
vn 0.07639253 0.9959593 0.04721579
vn 0.07639253 0.9959593 0.04721579
vn 0.07639253 0.9959593 0.04721579
vn 0.1497442 0.9843839 0.09254668
vn 0.1497442 0.9843839 0.09254668
vn 0.1497442 0.9843839 0.09254668
vn 0.1577374 0.983558 -0.08793535
vn 0.1577374 0.983558 -0.08793535
vn 0.1577374 0.983558 -0.08793535
vn 0.2313047 0.9719559 -0.04242451
vn 0.2313047 0.9719559 -0.04242451
vn 0.2313047 0.9719559 -0.04242451
vn 0.2313047 0.9719559 -0.04242451
vn 0.2313047 0.9719559 -0.04242451
vn 0.2313047 0.9719559 -0.04242451
vn 0.2312548 0.9717469 0.04721364
vn 0.2312548 0.9717469 0.04721364
vn 0.2312548 0.9717469 0.04721364
vn 0.2312548 0.9717469 0.04721364
vn 0.2312548 0.9717469 0.04721364
vn 0.2312548 0.9717469 0.04721364
vn 0.2305599 0.948927 -0.2153592
vn 0.2305599 0.948927 -0.2153592
vn 0.2305599 0.948927 -0.2153592
vn 0.2305599 0.948927 -0.2153592
vn 0.2305599 0.948927 -0.2153592
vn 0.2305599 0.948927 -0.2153592
vn 0.3045412 0.9372858 -0.1695576
vn 0.3045412 0.9372858 -0.1695576
vn 0.3045412 0.9372858 -0.1695576
vn 0.3077708 0.9472254 -0.08967322
vn 0.3077708 0.9472254 -0.08967322
vn 0.3077708 0.9472254 -0.08967322
vn 0.3077708 0.9472254 -0.08967322
vn 0.3077708 0.9472254 -0.08967322
vn 0.3077708 0.9472254 -0.08967322
vn -0.1497453 0.9843836 -0.09254831
vn -0.1497453 0.9843836 -0.09254831
vn -0.1497453 0.9843836 -0.09254831
vn -0.07639256 0.9959593 -0.04721403
vn -0.07639256 0.9959593 -0.04721403
vn -0.07639256 0.9959593 -0.04721403
vn 0.004029845 0.9961613 -0.08744325
vn 0.004029845 0.9961613 -0.08744325
vn 0.004029845 0.9961613 -0.08744325
vn 0.004029845 0.9961613 -0.08744325
vn 0.004029845 0.9961613 -0.08744325
vn 0.004029845 0.9961613 -0.08744325
vn -0.1456491 0.9717461 -0.1857302
vn -0.1456491 0.9717461 -0.1857302
vn -0.1456491 0.9717461 -0.1857302
vn -0.1456491 0.9717461 -0.1857302
vn -0.1456491 0.9717461 -0.1857302
vn -0.1456491 0.9717461 -0.1857302
vn -0.1456491 0.9717461 -0.1857302
vn -0.1456491 0.9717461 -0.1857302
vn -0.1456491 0.9717461 -0.1857302
vn -0.06550061 0.9719551 -0.2258608
vn -0.06550061 0.9719551 -0.2258608
vn -0.06550061 0.9719551 -0.2258608
vn -0.06550061 0.9719551 -0.2258608
vn -0.06550061 0.9719551 -0.2258608
vn -0.06550061 0.9719551 -0.2258608
vn 0.00810795 0.9835572 -0.1804147
vn 0.00810795 0.9835572 -0.1804147
vn 0.00810795 0.9835572 -0.1804147
vn 0.08146541 0.9735607 -0.2134075
vn 0.08146541 0.9735607 -0.2134075
vn 0.08146541 0.9735607 -0.2134075
vn -0.05743729 0.947223 -0.3153881
vn -0.05743729 0.947223 -0.3153881
vn -0.05743729 0.947223 -0.3153881
vn 0.01545362 0.9372848 -0.3482218
vn 0.01545362 0.9372848 -0.3482218
vn 0.01545362 0.9372848 -0.3482218
vn 0.08950838 0.9489252 -0.3025379
vn 0.08950838 0.9489252 -0.3025379
vn 0.08950838 0.9489252 -0.3025379
vn 0.08950838 0.9489252 -0.3025379
vn 0.08950838 0.9489252 -0.3025379
vn 0.08950838 0.9489252 -0.3025379
vn 0.08950838 0.9489252 -0.3025379
vn 0.08950838 0.9489252 -0.3025379
vn 0.08950838 0.9489252 -0.3025379
vn 0.08950838 0.9489252 -0.3025379
vn 0.08950838 0.9489252 -0.3025379
vn 0.08950838 0.9489252 -0.3025379
vn 0.1515786 0.9325761 -0.3276061
vn 0.1515786 0.9325761 -0.3276061
vn 0.1515786 0.9325761 -0.3276061
vn -0.7782019 -0.4810741 0.4036952
vn -0.7782019 -0.4810741 0.4036952
vn -0.7782019 -0.4810741 0.4036952
vn -0.7782019 -0.4810741 0.4036952
vn -0.7782019 -0.4810741 0.4036952
vn -0.7782019 -0.4810741 0.4036952
vn -0.7782019 -0.4810741 0.4036952
vn -0.7782019 -0.4810741 0.4036952
vn -0.7782019 -0.4810741 0.4036952
vn -0.7782019 -0.4810741 0.4036952
vn -0.7782019 -0.4810741 0.4036952
vn -0.7782019 -0.4810741 0.4036952
vn 0.5191956 -0.03114511 0.8540878
vn 0.5191956 -0.03114511 0.8540878
vn 0.5191956 -0.03114511 0.8540878
vn 0.5191956 -0.03114511 0.8540878
vn 0.5191956 -0.03114511 0.8540878
vn 0.5191956 -0.03114511 0.8540878
vn 0.5191956 -0.03114511 0.8540878
vn 0.5191956 -0.03114511 0.8540878
vn 0.5191956 -0.03114511 0.8540878
vn 0.5191956 -0.03114511 0.8540878
vn 0.5191956 -0.03114511 0.8540878
vn 0.5191956 -0.03114511 0.8540878
vn 0.5191956 -0.03114511 0.8540878
vn 0.5191956 -0.03114511 0.8540878
vn 0.5191956 -0.03114511 0.8540878
vn 0.5120959 -0.6799791 -0.5247725
vn 0.5120959 -0.6799791 -0.5247725
vn 0.5120959 -0.6799791 -0.5247725
vn 0.5120959 -0.6799791 -0.5247725
vn 0.5120959 -0.6799791 -0.5247725
vn 0.5120959 -0.6799791 -0.5247725
vn 0.5120959 -0.6799791 -0.5247725
vn 0.5120959 -0.6799791 -0.5247725
vn 0.5120959 -0.6799791 -0.5247725
vn 0.7749213 -0.01148113 -0.6319534
vn 0.7749213 -0.01148113 -0.6319534
vn 0.7749213 -0.01148113 -0.6319534
vn 0.7749213 -0.01148113 -0.6319534
vn 0.7749213 -0.01148113 -0.6319534
vn 0.7749213 -0.01148113 -0.6319534
vn 0.7749213 -0.01148113 -0.6319534
vn 0.7749213 -0.01148113 -0.6319534
vn 0.7749213 -0.01148113 -0.6319534
vn 0.7749213 -0.01148113 -0.6319534
vn 0.7749213 -0.01148113 -0.6319534
vn 0.7749213 -0.01148113 -0.6319534
vn 0.7749213 -0.01148113 -0.6319534
vn 0.7749213 -0.01148113 -0.6319534
vn 0.7749213 -0.01148113 -0.6319534
vn 0.7749213 -0.01148113 -0.6319534
vn 0.7749213 -0.01148113 -0.6319534
vn 0.7749213 -0.01148113 -0.6319534
vn -0.241744 -0.2719062 -0.9314649
vn -0.241744 -0.2719062 -0.9314649
vn -0.241744 -0.2719062 -0.9314649
vn -0.241744 -0.2719062 -0.9314649
vn -0.241744 -0.2719062 -0.9314649
vn -0.241744 -0.2719062 -0.9314649
vn -0.241744 -0.2719062 -0.9314649
vn -0.241744 -0.2719062 -0.9314649
vn -0.241744 -0.2719062 -0.9314649
vn -0.241744 -0.2719062 -0.9314649
vn -0.241744 -0.2719062 -0.9314649
vn -0.241744 -0.2719062 -0.9314649
vn -0.241744 -0.2719062 -0.9314649
vn -0.241744 -0.2719062 -0.9314649
vn -0.241744 -0.2719062 -0.9314649
vn -0.241744 -0.2719062 -0.9314649
vn -0.241744 -0.2719062 -0.9314649
vn -0.241744 -0.2719062 -0.9314649
vn 0.1279335 0.2665456 0.955294
vn 0.1279335 0.2665456 0.955294
vn 0.1279335 0.2665456 0.955294
vn 0.817283 -0.3282006 0.4736381
vn 0.817283 -0.3282006 0.4736381
vn 0.817283 -0.3282006 0.4736381
vn 0.817283 -0.3282006 0.4736381
vn 0.817283 -0.3282006 0.4736381
vn 0.817283 -0.3282006 0.4736381
vn 0.817283 -0.3282006 0.4736381
vn 0.817283 -0.3282006 0.4736381
vn 0.817283 -0.3282006 0.4736381
vn 0.817283 -0.3282006 0.4736381
vn 0.817283 -0.3282006 0.4736381
vn 0.817283 -0.3282006 0.4736381
vn 0.817283 -0.3282006 0.4736381
vn 0.817283 -0.3282006 0.4736381
vn 0.817283 -0.3282006 0.4736381
vn -0.7313684 0.3189591 0.6027979
vn -0.7313684 0.3189591 0.6027979
vn -0.7313684 0.3189591 0.6027979
vn -0.7313684 0.3189591 0.6027979
vn -0.7313684 0.3189591 0.6027979
vn -0.7313684 0.3189591 0.6027979
vn -0.7313684 0.3189591 0.6027979
vn -0.7313684 0.3189591 0.6027979
vn -0.7313684 0.3189591 0.6027979
vn -0.7313684 0.3189591 0.6027979
vn -0.7313684 0.3189591 0.6027979
vn -0.7313684 0.3189591 0.6027979
vn -0.7313684 0.3189591 0.6027979
vn -0.7313684 0.3189591 0.6027979
vn -0.7313684 0.3189591 0.6027979
vn -0.7313684 0.3189591 0.6027979
vn -0.7313684 0.3189591 0.6027979
vn -0.7313684 0.3189591 0.6027979
vn -0.7313684 0.3189591 0.6027979
vn -0.7313684 0.3189591 0.6027979
vn -0.7313684 0.3189591 0.6027979
vn -0.7313684 0.3189591 0.6027979
vn -0.7313684 0.3189591 0.6027979
vn -0.7313684 0.3189591 0.6027979
vn -0.9862221 -0.1604335 0.0403382
vn -0.9862221 -0.1604335 0.0403382
vn -0.9862221 -0.1604335 0.0403382
vn -0.9862221 -0.1604335 0.0403382
vn -0.9862221 -0.1604335 0.0403382
vn -0.9862221 -0.1604335 0.0403382

vt 0.3863632 0.236191
vt 0.3977269 0.2165085
vt 0.4051003 0.236191
vt 0.4051003 0.236191
vt 0.3977269 0.2165085
vt 0.4074565 0.2333609
vt 0.3749996 0.2165085
vt 0.3863632 0.196826
vt 0.3977269 0.2165085
vt 0.3863632 0.196826
vt 0.3850503 0.196826
vt 0.3857369 0.1957412
vt 0.3946513 0.2482853
vt 0.3940911 0.248223
vt 0.4051003 0.236191
vt 0.4051003 0.236191
vt 0.3940911 0.248223
vt 0.3863632 0.236191
vt 0.3863632 0.236191
vt 0.3940911 0.248223
vt 0.3928827 0.2474831
vt 0.3863632 0.236191
vt 0.3928827 0.2474831
vt 0.3833782 0.2413612
vt 0.3749996 0.2165085
vt 0.3977269 0.2165085
vt 0.3863632 0.236191
vt 0.3707609 0.2238501
vt 0.3749996 0.2165085
vt 0.3769575 0.236191
vt 0.3769575 0.236191
vt 0.3749996 0.2165085
vt 0.3863632 0.236191
vt 0.3779657 0.2380776
vt 0.3769575 0.236191
vt 0.3833782 0.2413612
vt 0.3833782 0.2413612
vt 0.3769575 0.236191
vt 0.3863632 0.236191
vt 0.3749996 0.2165085
vt 0.3730163 0.2130732
vt 0.3863632 0.196826
vt 0.3863632 0.196826
vt 0.3730163 0.2130732
vt 0.3850503 0.196826
vt 0.3749996 0.2165085
vt 0.3705622 0.2165085
vt 0.3730163 0.2130732
vt 0.3707609 0.2238501
vt 0.3683475 0.2192396
vt 0.3749996 0.2165085
vt 0.3749996 0.2165085
vt 0.3683475 0.2192396
vt 0.3705622 0.2165085
vt 0.4204541 0.2165085
vt 0.4238542 0.2165085
vt 0.4217049 0.218675
vt 0.4217049 0.218675
vt 0.4154654 0.2251493
vt 0.4204541 0.2165085
vt 0.4154654 0.2251493
vt 0.4074565 0.2333609
vt 0.4204541 0.2165085
vt 0.4204541 0.2165085
vt 0.4074565 0.2333609
vt 0.3977269 0.2165085
vt 0.428282 0.2029502
vt 0.4313541 0.2039152
vt 0.4204541 0.2165085
vt 0.4204541 0.2165085
vt 0.4313541 0.2039152
vt 0.4238542 0.2165085
vt 0.4238542 0.2165085
vt 0.4313541 0.2039152
vt 0.4308925 0.2099244
vt 0.4090905 0.196826
vt 0.409684 0.196826
vt 0.4204541 0.2165085
vt 0.4204541 0.2165085
vt 0.409684 0.196826
vt 0.428282 0.2029502
vt 0.3977269 0.2165085
vt 0.4090905 0.196826
vt 0.4204541 0.2165085
vt 0.3863632 0.196826
vt 0.4090905 0.196826
vt 0.3977269 0.2165085
vt 0.409188 0.1966572
vt 0.409684 0.196826
vt 0.4090905 0.196826
vt 0.4090905 0.196826
vt 0.4089414 0.1965678
vt 0.409188 0.1966572
vt 0.3905461 0.191025
vt 0.3909029 0.1908001
vt 0.3885203 0.1930898
vt 0.3885203 0.1930898
vt 0.3909029 0.1908001
vt 0.3863632 0.196826
vt 0.3863632 0.196826
vt 0.3909029 0.1908001
vt 0.4090905 0.196826
vt 0.4090905 0.196826
vt 0.3909029 0.1908001
vt 0.4089414 0.1965678
vt 0.3863632 0.196826
vt 0.3857369 0.1957412
vt 0.3885203 0.1930898
vt 0.4745196 0.3589942
vt 0.6354836 0.6458107
vt 0.3813877 0.3882599
vt 0.3813877 0.3882599
vt 0.6354836 0.6458107
vt 0.3072834 0.4698037
vt 0.3072834 0.4698037
vt 0.6354836 0.6458107
vt 0.4307218 0.7030391
vt 0.4307218 0.7030391
vt 0.6354836 0.6458107
vt 0.5721612 0.7178711
vt 0.2903418 0.6203093
vt 0.279738 0.5354044
vt 0.7186822 0.3648211
vt 0.7186822 0.3648211
vt 0.279738 0.5354044
vt 0.57278 0.2742721
vt 0.57278 0.2742721
vt 0.279738 0.5354044
vt 0.2911762 0.3553799
vt 0.2911762 0.3553799
vt 0.279738 0.5354044
vt 0.2755003 0.366068
vt 0.2755003 0.366068
vt 0.279738 0.5354044
vt 0.2753034 0.3847019
vt 0.3982542 0.7431383
vt 0.291884 0.5174502
vt 0.4004153 0.7453509
vt 0.4004153 0.7453509
vt 0.291884 0.5174502
vt 0.7086409 0.5997862
vt 0.7086409 0.5997862
vt 0.291884 0.5174502
vt 0.6200327 0.330366
vt 0.4008091 0.6897914
vt 0.3962526 0.6666151
vt 0.431889 0.4175116
vt 0.431889 0.4175116
vt 0.3962526 0.6666151
vt 0.390496 0.4027545
vt 0.390496 0.4027545
vt 0.3962526 0.6666151
vt 0.3868114 0.4329672
vt 0.3868114 0.4329672
vt 0.3962526 0.6666151
vt 0.3848941 0.4675067
vt 0.3848941 0.4675067
vt 0.3962526 0.6666151
vt 0.3899241 0.6265721
vt 0.3899241 0.6265721
vt 0.3962526 0.6666151
vt 0.3907726 0.6359196
vt 0.3398821 0.5011555
vt 0.3399384 0.4994867
vt 0.3400509 0.5047557
vt 0.3400509 0.5047557
vt 0.3399384 0.4994867
vt 0.3503874 0.6384978
vt 0.3503874 0.6384978
vt 0.3399384 0.4994867
vt 0.3541892 0.6613367
vt 0.3541892 0.6613367
vt 0.3399384 0.4994867
vt 0.4793058 0.6396885
vt 0.4793058 0.6396885
vt 0.3399384 0.4994867
vt 0.5889246 0.5624716
vt 0.5889246 0.5624716
vt 0.3399384 0.4994867
vt 0.3509406 0.3814299
vt 0.5566728 0.4936363
vt 0.5650827 0.4883204
vt 0.5652233 0.4921081
vt 0.3695135 0.6439919
vt 0.3325692 0.6325631
vt 0.6900492 0.4692224
vt 0.6900492 0.4692224
vt 0.3325692 0.6325631
vt 0.616845 0.3812329
vt 0.616845 0.3812329
vt 0.3325692 0.6325631
vt 0.3360991 0.4703381
vt 0.3360991 0.4703381
vt 0.3325692 0.6325631
vt 0.3341818 0.4873547
vt 0.3341818 0.4873547
vt 0.3325692 0.6325631
vt 0.3306988 0.5930733
vt 0.6111353 0.38413
vt 0.6212234 0.3880068
vt 0.4232354 0.3496608
vt 0.4232354 0.3496608
vt 0.6212234 0.3880068
vt 0.4192039 0.7267592
vt 0.4192039 0.7267592
vt 0.6212234 0.3880068
vt 0.485128 0.8020354
vt 0.485128 0.8020354
vt 0.6212234 0.3880068
vt 0.525771 0.7289249
vt 0.525771 0.7289249
vt 0.6212234 0.3880068
vt 0.5370123 0.7048954
vt 0.5370123 0.7048954
vt 0.6212234 0.3880068
vt 0.5621293 0.6356102
vt 0.5621293 0.6356102
vt 0.6212234 0.3880068
vt 0.5921686 0.5462706
vt 0.5921686 0.5462706
vt 0.6212234 0.3880068
vt 0.5992565 0.5174314
vt 0.5514881 0.5828821
vt 0.6153731 0.6308849
vt 0.487725 0.6433074
vt 0.487725 0.6433074
vt 0.6153731 0.6308849
vt 0.6075257 0.6725029

usemtl Material0
usemap Material0
f 1/1/1 2/2/2 3/3/3
f 4/4/4 5/5/5 6/6/6
f 7/7/7 8/8/8 9/9/9
f 10/10/10 11/11/11 12/12/12
f 13/13/13 14/14/14 15/15/15
f 16/16/16 17/17/17 18/18/18
f 19/19/19 20/20/20 21/21/21
f 22/22/22 23/23/23 24/24/24
f 25/25/25 26/26/26 27/27/27
f 28/28/28 29/29/29 30/30/30
f 31/31/31 32/32/32 33/33/33
f 34/34/34 35/35/35 36/36/36
f 37/37/37 38/38/38 39/39/39
f 40/40/40 41/41/41 42/42/42
f 43/43/43 44/44/44 45/45/45
f 46/46/46 47/47/47 48/48/48
f 49/49/49 50/50/50 51/51/51
f 52/52/52 53/53/53 54/54/54
f 55/55/55 56/56/56 57/57/57
f 58/58/58 59/59/59 60/60/60
f 61/61/61 62/62/62 63/63/63
f 64/64/64 65/65/65 66/66/66
f 67/67/67 68/68/68 69/69/69
f 70/70/70 71/71/71 72/72/72
f 73/73/73 74/74/74 75/75/75
f 76/76/76 77/77/77 78/78/78
f 79/79/79 80/80/80 81/81/81
f 82/82/82 83/83/83 84/84/84
f 85/85/85 86/86/86 87/87/87
f 88/88/88 89/89/89 90/90/90
f 91/91/91 92/92/92 93/93/93
f 94/94/94 95/95/95 96/96/96
f 97/97/97 98/98/98 99/99/99
f 100/100/100 101/101/101 102/102/102
f 103/103/103 104/104/104 105/105/105
f 106/106/106 107/107/107 108/108/108

usemtl Material1
usemap Material1
f 109/109/109 110/110/110 111/111/111
f 112/112/112 113/113/113 114/114/114
f 115/115/115 116/116/116 117/117/117
f 118/118/118 119/119/119 120/120/120
f 121/121/121 122/122/122 123/123/123
f 124/124/124 125/125/125 126/126/126
f 127/127/127 128/128/128 129/129/129
f 130/130/130 131/131/131 132/132/132
f 133/133/133 134/134/134 135/135/135
f 136/136/136 137/137/137 138/138/138
f 139/139/139 140/140/140 141/141/141
f 142/142/142 143/143/143 144/144/144
f 145/145/145 146/146/146 147/147/147
f 148/148/148 149/149/149 150/150/150
f 151/151/151 152/152/152 153/153/153
f 154/154/154 155/155/155 156/156/156
f 157/157/157 158/158/158 159/159/159
f 160/160/160 161/161/161 162/162/162
f 163/163/163 164/164/164 165/165/165
f 166/166/166 167/167/167 168/168/168
f 169/169/169 170/170/170 171/171/171
f 172/172/172 173/173/173 174/174/174
f 175/175/175 176/176/176 177/177/177
f 178/178/178 179/179/179 180/180/180
f 181/181/181 182/182/182 183/183/183
f 184/184/184 185/185/185 186/186/186
f 187/187/187 188/188/188 189/189/189
f 190/190/190 191/191/191 192/192/192
f 193/193/193 194/194/194 195/195/195
f 196/196/196 197/197/197 198/198/198
f 199/199/199 200/200/200 201/201/201
f 202/202/202 203/203/203 204/204/204
f 205/205/205 206/206/206 207/207/207
f 208/208/208 209/209/209 210/210/210
f 211/211/211 212/212/212 213/213/213
f 214/214/214 215/215/215 216/216/216
f 217/217/217 218/218/218 219/219/219
f 220/220/220 221/221/221 222/222/222
f 223/223/223 224/224/224 225/225/225
f 226/226/226 227/227/227 228/228/228
