g  Instance
v 2.976909 -48.7387 -9.45592
v 2.638803 -48.75253 -9.540977
v 2.655454 -48.46573 -9.486002
v 2.51147 -50 -9.67949
v 2.4806 -50 -9.685322
v 2.486426 -49.9644 -9.682652
v 2.51147 -50 -9.67949
v 2.486426 -49.9644 -9.682652
v 3.044504 -48.79619 -9.44408
v 3.044504 -48.79619 -9.44408
v 2.486426 -49.9644 -9.682652
v 2.976909 -48.7387 -9.45592
v 2.976909 -48.7387 -9.45592
v 2.486426 -49.9644 -9.682652
v 2.638803 -48.75253 -9.540977
v 3.195854 -48.92524 -9.398584
v 3.762167 -49.79365 -9.245829
v 3.044504 -48.79619 -9.44408
v 3.044504 -48.79619 -9.44408
v 3.762167 -49.79365 -9.245829
v 2.51147 -50 -9.67949
v 2.51147 -50 -9.67949
v 3.762167 -49.79365 -9.245829
v 3.614959 -50 -9.305125
v 3.859008 -49.49105 -9.176565
v 3.920957 -49.57124 -9.158439
v 3.195854 -48.92524 -9.398584
v 3.195854 -48.92524 -9.398584
v 3.920957 -49.57124 -9.158439
v 3.762167 -49.79365 -9.245829
v 2.51147 -50 -9.67949
v 3.614959 -50 -9.305125
v 2.934226 -50.95476 -9.492783
v 2.51147 -50 -9.67949
v 2.465428 -50.06545 -9.685302
v 2.4806 -50 -9.685322
v 2.51147 -50 -9.67949
v 2.934226 -50.95476 -9.492783
v 2.465428 -50.06545 -9.685302
v 2.465428 -50.06545 -9.685302
v 2.934226 -50.95476 -9.492783
v 2.171847 -51.22837 -9.658446
v 2.171847 -51.22837 -9.658446
v 2.934226 -50.95476 -9.492783
v 2.7232 -51.25093 -9.519743
v 2.035918 -52.21606 -9.516342
v 1.938772 -51.95404 -9.586582
v 2.7232 -51.25093 -9.519743
v 2.7232 -51.25093 -9.519743
v 1.938772 -51.95404 -9.586582
v 2.171847 -51.22837 -9.658446
v 1.938772 -51.95404 -9.586582
v 2.035918 -52.21606 -9.516342
v 1.804762 -52.31783 -9.53159
v 1.804762 -52.31783 -9.53159
v 2.035918 -52.21606 -9.516342
v 1.922752 -52.37506 -9.50094
v 1.723339 -52.03351 -8.361636
v 1.552527 -51.90118 -9.14632
v 1.669685 -52.20869 -9.354428
v 1.878066 -51.99992 -7.792946
v 2.053675 -52.19872 -8.30011
v 2.658482 -49.79945 -6.805329
v 2.658482 -49.79945 -6.805329
v 2.053675 -52.19872 -8.30011
v 2.805256 -49.63943 -6.886378
v 2.805256 -49.63943 -6.886378
v 2.053675 -52.19872 -8.30011
v 3.426686 -49.40364 -7.693817
v 3.426686 -49.40364 -7.693817
v 2.053675 -52.19872 -8.30011
v 3.870679 -49.64465 -8.701104
v 2.638803 -48.75253 -9.540977
v 2.486426 -49.9644 -9.682652
v 2.655454 -48.46573 -9.486002
v 2.655454 -48.46573 -9.486002
v 2.486426 -49.9644 -9.682652
v 2.414771 -48.26706 -9.169261
v 2.414771 -48.26706 -9.169261
v 2.486426 -49.9644 -9.682652
v 1.552527 -51.90118 -9.14632
v 1.552527 -51.90118 -9.14632
v 2.486426 -49.9644 -9.682652
v 1.669685 -52.20869 -9.354428
v 1.669685 -52.20869 -9.354428
v 2.486426 -49.9644 -9.682652
v 1.804762 -52.31783 -9.53159
v 1.804762 -52.31783 -9.53159
v 2.486426 -49.9644 -9.682652
v 1.938772 -51.95404 -9.586582
v 1.938772 -51.95404 -9.586582
v 2.486426 -49.9644 -9.682652
v 2.171847 -51.22837 -9.658446
v 2.171847 -51.22837 -9.658446
v 2.486426 -49.9644 -9.682652
v 2.465428 -50.06545 -9.685302
v 2.465428 -50.06545 -9.685302
v 2.486426 -49.9644 -9.682652
v 2.4806 -50 -9.685322
v 2.701751 -49.63388 -6.79092
v 2.714218 -48.54471 -7.75126
v 2.658482 -49.79945 -6.805329
v 2.658482 -49.79945 -6.805329
v 2.714218 -48.54471 -7.75126
v 1.878066 -51.99992 -7.792946
v 1.878066 -51.99992 -7.792946
v 2.714218 -48.54471 -7.75126
v 1.723339 -52.03351 -8.361636
v 1.723339 -52.03351 -8.361636
v 2.714218 -48.54471 -7.75126
v 1.552527 -51.90118 -9.14632
v 1.552527 -51.90118 -9.14632
v 2.714218 -48.54471 -7.75126
v 2.414771 -48.26706 -9.169261
v 3.870679 -49.64465 -8.701104
v 3.920957 -49.57124 -9.158439
v 3.426686 -49.40364 -7.693817
v 3.426686 -49.40364 -7.693817
v 3.920957 -49.57124 -9.158439
v 2.778051 -48.59856 -7.766227
v 2.778051 -48.59856 -7.766227
v 3.920957 -49.57124 -9.158439
v 3.859008 -49.49105 -9.176565
v 1.669685 -52.20869 -9.354428
v 1.804762 -52.31783 -9.53159
v 1.723339 -52.03351 -8.361636
v 1.723339 -52.03351 -8.361636
v 1.804762 -52.31783 -9.53159
v 1.878066 -51.99992 -7.792946
v 1.878066 -51.99992 -7.792946
v 1.804762 -52.31783 -9.53159
v 2.053675 -52.19872 -8.30011
v 2.053675 -52.19872 -8.30011
v 1.804762 -52.31783 -9.53159
v 1.922752 -52.37506 -9.50094
v 2.658482 -49.79945 -6.805329
v 2.805256 -49.63943 -6.886378
v 2.701751 -49.63388 -6.79092
v 3.426686 -49.40364 -7.693817
v 2.778051 -48.59856 -7.766227
v 2.805256 -49.63943 -6.886378
v 2.805256 -49.63943 -6.886378
v 2.778051 -48.59856 -7.766227
v 2.701751 -49.63388 -6.79092
v 2.701751 -49.63388 -6.79092
v 2.778051 -48.59856 -7.766227
v 2.714218 -48.54471 -7.75126
v 2.778051 -48.59856 -7.766227
v 3.859008 -49.49105 -9.176565
v 2.714218 -48.54471 -7.75126
v 2.714218 -48.54471 -7.75126
v 3.859008 -49.49105 -9.176565
v 2.414771 -48.26706 -9.169261
v 2.414771 -48.26706 -9.169261
v 3.859008 -49.49105 -9.176565
v 2.655454 -48.46573 -9.486002
v 2.655454 -48.46573 -9.486002
v 3.859008 -49.49105 -9.176565
v 2.976909 -48.7387 -9.45592
v 2.976909 -48.7387 -9.45592
v 3.859008 -49.49105 -9.176565
v 3.044504 -48.79619 -9.44408
v 3.044504 -48.79619 -9.44408
v 3.859008 -49.49105 -9.176565
v 3.195854 -48.92524 -9.398584
v 2.053675 -52.19872 -8.30011
v 1.922752 -52.37506 -9.50094
v 3.870679 -49.64465 -8.701104
v 3.870679 -49.64465 -8.701104
v 1.922752 -52.37506 -9.50094
v 3.920957 -49.57124 -9.158439
v 3.920957 -49.57124 -9.158439
v 1.922752 -52.37506 -9.50094
v 3.762167 -49.79365 -9.245829
v 3.762167 -49.79365 -9.245829
v 1.922752 -52.37506 -9.50094
v 3.614959 -50 -9.305125
v 3.614959 -50 -9.305125
v 1.922752 -52.37506 -9.50094
v 2.934226 -50.95476 -9.492783
v 2.934226 -50.95476 -9.492783
v 1.922752 -52.37506 -9.50094
v 2.7232 -51.25093 -9.519743
v 2.7232 -51.25093 -9.519743
v 1.922752 -52.37506 -9.50094
v 2.035918 -52.21606 -9.516342

vn 0.2338741 0.169918 -0.9573039
vn 0.2338741 0.169918 -0.9573039
vn 0.2338741 0.169918 -0.9573039
vn 0.18544 0.04328601 -0.9817017
vn 0.18544 0.04328601 -0.9817017
vn 0.18544 0.04328601 -0.9817017
vn 0.2399347 0.08290807 -0.9672423
vn 0.2399347 0.08290807 -0.9672423
vn 0.2399347 0.08290807 -0.9672423
vn 0.2399347 0.08290807 -0.9672423
vn 0.2399347 0.08290807 -0.9672423
vn 0.2399347 0.08290807 -0.9672423
vn 0.2399347 0.08290807 -0.9672423
vn 0.2399347 0.08290807 -0.9672423
vn 0.2399347 0.08290807 -0.9672423
vn 0.3209757 0.04289257 -0.9461156
vn 0.3209757 0.04289257 -0.9461156
vn 0.3209757 0.04289257 -0.9461156
vn 0.3209757 0.04289257 -0.9461156
vn 0.3209757 0.04289257 -0.9461156
vn 0.3209757 0.04289257 -0.9461156
vn 0.3209757 0.04289257 -0.9461156
vn 0.3209757 0.04289257 -0.9461156
vn 0.3209757 0.04289257 -0.9461156
vn 0.3829113 0.08794841 -0.919589
vn 0.3829113 0.08794841 -0.919589
vn 0.3829113 0.08794841 -0.919589
vn 0.3829113 0.08794841 -0.919589
vn 0.3829113 0.08794841 -0.919589
vn 0.3829113 0.08794841 -0.919589
vn 0.3209756 -0.04289344 -0.9461156
vn 0.3209756 -0.04289344 -0.9461156
vn 0.3209756 -0.04289344 -0.9461156
vn 0.18544 -0.04328669 -0.9817017
vn 0.18544 -0.04328669 -0.9817017
vn 0.18544 -0.04328669 -0.9817017
vn 0.2399352 -0.08290842 -0.9672422
vn 0.2399352 -0.08290842 -0.9672422
vn 0.2399352 -0.08290842 -0.9672422
vn 0.2399352 -0.08290842 -0.9672422
vn 0.2399352 -0.08290842 -0.9672422
vn 0.2399352 -0.08290842 -0.9672422
vn 0.2399352 -0.08290842 -0.9672422
vn 0.2399352 -0.08290842 -0.9672422
vn 0.2399352 -0.08290842 -0.9672422
vn 0.2338744 -0.1699192 -0.9573036
vn 0.2338744 -0.1699192 -0.9573036
vn 0.2338744 -0.1699192 -0.9573036
vn 0.2338744 -0.1699192 -0.9573036
vn 0.2338744 -0.1699192 -0.9573036
vn 0.2338744 -0.1699192 -0.9573036
vn 0.1529933 -0.2025716 -0.9672424
vn 0.1529933 -0.2025716 -0.9672424
vn 0.1529933 -0.2025716 -0.9672424
vn 0.1529933 -0.2025716 -0.9672424
vn 0.1529933 -0.2025716 -0.9672424
vn 0.1529933 -0.2025716 -0.9672424
vn -0.8966447 -0.4251826 0.1234834
vn -0.8966447 -0.4251826 0.1234834
vn -0.8966447 -0.4251826 0.1234834
vn 0.7603102 -0.4706012 0.4477307
vn 0.7603102 -0.4706012 0.4477307
vn 0.7603102 -0.4706012 0.4477307
vn 0.7603102 -0.4706012 0.4477307
vn 0.7603102 -0.4706012 0.4477307
vn 0.7603102 -0.4706012 0.4477307
vn 0.7603102 -0.4706012 0.4477307
vn 0.7603102 -0.4706012 0.4477307
vn 0.7603102 -0.4706012 0.4477307
vn 0.7603102 -0.4706012 0.4477307
vn 0.7603102 -0.4706012 0.4477307
vn 0.7603102 -0.4706012 0.4477307
vn -0.7307183 0.1691974 -0.6613798
vn -0.7307183 0.1691974 -0.6613798
vn -0.7307183 0.1691974 -0.6613798
vn -0.7307183 0.1691974 -0.6613798
vn -0.7307183 0.1691974 -0.6613798
vn -0.7307183 0.1691974 -0.6613798
vn -0.7307183 0.1691974 -0.6613798
vn -0.7307183 0.1691974 -0.6613798
vn -0.7307183 0.1691974 -0.6613798
vn -0.7307183 0.1691974 -0.6613798
vn -0.7307183 0.1691974 -0.6613798
vn -0.7307183 0.1691974 -0.6613798
vn -0.7307183 0.1691974 -0.6613798
vn -0.7307183 0.1691974 -0.6613798
vn -0.7307183 0.1691974 -0.6613798
vn -0.7307183 0.1691974 -0.6613798
vn -0.7307183 0.1691974 -0.6613798
vn -0.7307183 0.1691974 -0.6613798
vn -0.7307183 0.1691974 -0.6613798
vn -0.7307183 0.1691974 -0.6613798
vn -0.7307183 0.1691974 -0.6613798
vn -0.7307183 0.1691974 -0.6613798
vn -0.7307183 0.1691974 -0.6613798
vn -0.7307183 0.1691974 -0.6613798
vn -0.7307183 0.1691974 -0.6613798
vn -0.7307183 0.1691974 -0.6613798
vn -0.7307183 0.1691974 -0.6613798
vn -0.9433962 0.2253693 0.2433361
vn -0.9433962 0.2253693 0.2433361
vn -0.9433962 0.2253693 0.2433361
vn -0.9433962 0.2253693 0.2433361
vn -0.9433962 0.2253693 0.2433361
vn -0.9433962 0.2253693 0.2433361
vn -0.9433962 0.2253693 0.2433361
vn -0.9433962 0.2253693 0.2433361
vn -0.9433962 0.2253693 0.2433361
vn -0.9433962 0.2253693 0.2433361
vn -0.9433962 0.2253693 0.2433361
vn -0.9433962 0.2253693 0.2433361
vn -0.9433962 0.2253693 0.2433361
vn -0.9433962 0.2253693 0.2433361
vn -0.9433962 0.2253693 0.2433361
vn 0.7572863 0.6266702 0.1838535
vn 0.7572863 0.6266702 0.1838535
vn 0.7572863 0.6266702 0.1838535
vn 0.7572863 0.6266702 0.1838535
vn 0.7572863 0.6266702 0.1838535
vn 0.7572863 0.6266702 0.1838535
vn 0.7572863 0.6266702 0.1838535
vn 0.7572863 0.6266702 0.1838535
vn 0.7572863 0.6266702 0.1838535
vn -0.4664874 -0.8664113 0.1781035
vn -0.4664874 -0.8664113 0.1781035
vn -0.4664874 -0.8664113 0.1781035
vn -0.4664874 -0.8664113 0.1781035
vn -0.4664874 -0.8664113 0.1781035
vn -0.4664874 -0.8664113 0.1781035
vn -0.4664874 -0.8664113 0.1781035
vn -0.4664874 -0.8664113 0.1781035
vn -0.4664874 -0.8664113 0.1781035
vn -0.4664874 -0.8664113 0.1781035
vn -0.4664874 -0.8664113 0.1781035
vn -0.4664874 -0.8664113 0.1781035
vn 0.6524686 -0.2332635 0.7210222
vn 0.6524686 -0.2332635 0.7210222
vn 0.6524686 -0.2332635 0.7210222
vn 0.5900501 0.5301427 0.608925
vn 0.5900501 0.5301427 0.608925
vn 0.5900501 0.5301427 0.608925
vn 0.5900501 0.5301427 0.608925
vn 0.5900501 0.5301427 0.608925
vn 0.5900501 0.5301427 0.608925
vn 0.5900501 0.5301427 0.608925
vn 0.5900501 0.5301427 0.608925
vn 0.5900501 0.5301427 0.608925
vn 0.6465316 0.7627794 0.01283248
vn 0.6465316 0.7627794 0.01283248
vn 0.6465316 0.7627794 0.01283248
vn 0.6465316 0.7627794 0.01283248
vn 0.6465316 0.7627794 0.01283248
vn 0.6465316 0.7627794 0.01283248
vn 0.6465316 0.7627794 0.01283248
vn 0.6465316 0.7627794 0.01283248
vn 0.6465316 0.7627794 0.01283248
vn 0.6465316 0.7627794 0.01283248
vn 0.6465316 0.7627794 0.01283248
vn 0.6465316 0.7627794 0.01283248
vn 0.6465316 0.7627794 0.01283248
vn 0.6465316 0.7627794 0.01283248
vn 0.6465316 0.7627794 0.01283248
vn 0.6465316 0.7627794 0.01283248
vn 0.6465316 0.7627794 0.01283248
vn 0.6465316 0.7627794 0.01283248
vn 0.8145607 -0.5800675 -0.00359959
vn 0.8145607 -0.5800675 -0.00359959
vn 0.8145607 -0.5800675 -0.00359959
vn 0.8145607 -0.5800675 -0.00359959
vn 0.8145607 -0.5800675 -0.00359959
vn 0.8145607 -0.5800675 -0.00359959
vn 0.8145607 -0.5800675 -0.00359959
vn 0.8145607 -0.5800675 -0.00359959
vn 0.8145607 -0.5800675 -0.00359959
vn 0.8145607 -0.5800675 -0.00359959
vn 0.8145607 -0.5800675 -0.00359959
vn 0.8145607 -0.5800675 -0.00359959
vn 0.8145607 -0.5800675 -0.00359959
vn 0.8145607 -0.5800675 -0.00359959
vn 0.8145607 -0.5800675 -0.00359959
vn 0.8145607 -0.5800675 -0.00359959
vn 0.8145607 -0.5800675 -0.00359959
vn 0.8145607 -0.5800675 -0.00359959
vn 0.8145607 -0.5800675 -0.00359959
vn 0.8145607 -0.5800675 -0.00359959
vn 0.8145607 -0.5800675 -0.00359959

vt 0.2621273 0.05772469
vt 0.2648528 0.05300394
vt 0.2680826 0.05605517
vt 0.2499997 0.03936525
vt 0.2502657 0.0389046
vt 0.2506698 0.03936525
vt 0.2499997 0.03936525
vt 0.2506698 0.03936525
vt 0.2608122 0.05809314
vt 0.2608122 0.05809314
vt 0.2506698 0.03936525
vt 0.2621273 0.05772469
vt 0.2621273 0.05772469
vt 0.2506698 0.03936525
vt 0.2648528 0.05300394
vt 0.2579428 0.05904788
vt 0.242343 0.05904788
vt 0.2608122 0.05809314
vt 0.2608122 0.05809314
vt 0.242343 0.05904788
vt 0.2499997 0.03936525
vt 0.2499997 0.03936525
vt 0.242343 0.05904788
vt 0.2409476 0.05504425
vt 0.2453777 0.06300546
vt 0.2438586 0.06313545
vt 0.2579428 0.05904788
vt 0.2579428 0.05904788
vt 0.2438586 0.06313545
vt 0.242343 0.05904788
vt 0.1136362 0.03936525
vt 0.1226884 0.05504425
vt 0.1050608 0.05421856
vt 0.1136362 0.03936525
vt 0.1124044 0.03936525
vt 0.1133703 0.0389046
vt 0.1136362 0.03936525
vt 0.1050608 0.05421856
vt 0.1124044 0.03936525
vt 0.1124044 0.03936525
vt 0.1050608 0.05421856
vt 0.09501904 0.04648416
vt 0.09501904 0.04648416
vt 0.1050608 0.05421856
vt 0.09946351 0.05418232
vt 0.08224541 0.0543712
vt 0.08449615 0.05047277
vt 0.09946351 0.05418232
vt 0.09946351 0.05418232
vt 0.08449615 0.05047277
vt 0.09501904 0.04648416
vt 0.08449615 0.05047277
vt 0.08224541 0.0543712
vt 0.07881543 0.05231625
vt 0.07881543 0.05231625
vt 0.08224541 0.0543712
vt 0.07924359 0.05445229
vt 0.3871724 0.5017087
vt 0.4062704 0.5800507
vt 0.37377 0.6008269
vt 0.6678198 0.4401957
vt 0.6762484 0.5025524
vt 0.4169491 0.318759
vt 0.4169491 0.318759
vt 0.6762484 0.5025524
vt 0.3934962 0.3287252
vt 0.3934962 0.3287252
vt 0.6762484 0.5025524
vt 0.3354991 0.4280075
vt 0.3354991 0.4280075
vt 0.6762484 0.5025524
vt 0.3323395 0.5518678
vt 0.7163851 0.5753536
vt 0.5571415 0.6001237
vt 0.7535029 0.565753
vt 0.7535029 0.565753
vt 0.5571415 0.6001237
vt 0.7717571 0.5103998
vt 0.7717571 0.5103998
vt 0.5571415 0.6001237
vt 0.2822179 0.5063964
vt 0.2822179 0.5063964
vt 0.5571415 0.6001237
vt 0.2464174 0.5427642
vt 0.2464174 0.5427642
vt 0.5571415 0.6001237
vt 0.2364746 0.5737222
vt 0.2364746 0.5737222
vt 0.5571415 0.6001237
vt 0.2868869 0.5833321
vt 0.2868869 0.5833321
vt 0.5571415 0.6001237
vt 0.3864411 0.595886
vt 0.3864411 0.595886
vt 0.5571415 0.6001237
vt 0.5436127 0.6005831
vt 0.5436127 0.6005831
vt 0.5571415 0.6001237
vt 0.5524257 0.6005831
vt 0.5794366 0.3312426
vt 0.6870959 0.4315984
vt 0.5620918 0.3327473
vt 0.5620918 0.3327473
vt 0.6870959 0.4315984
vt 0.3267845 0.4359533
vt 0.3267845 0.4359533
vt 0.6870959 0.4315984
vt 0.3198279 0.4953802
vt 0.3198279 0.4953802
vt 0.6870959 0.4315984
vt 0.3288471 0.5773787
vt 0.3288471 0.5773787
vt 0.6870959 0.4315984
vt 0.7074127 0.5797788
vt 0.5090919 0.5470957
vt 0.5066449 0.5936265
vt 0.4622142 0.4446069
vt 0.4622142 0.4446069
vt 0.5066449 0.5936265
vt 0.3588207 0.4519714
vt 0.3588207 0.4519714
vt 0.5066449 0.5936265
vt 0.4965193 0.5954735
vt 0.4850202 0.6163528
vt 0.4679708 0.6343351
vt 0.4886017 0.5155563
vt 0.4886017 0.5155563
vt 0.4679708 0.6343351
vt 0.4765822 0.4578171
vt 0.4765822 0.4578171
vt 0.4679708 0.6343351
vt 0.4517183 0.5093122
vt 0.4517183 0.5093122
vt 0.4679708 0.6343351
vt 0.4548825 0.6312318
vt 0.3900413 0.3195841
vt 0.3616521 0.3361788
vt 0.3658571 0.3166355
vt 0.462622 0.5246225
vt 0.3346693 0.5359388
vt 0.4328828 0.3984605
vt 0.4328828 0.3984605
vt 0.3346693 0.5359388
vt 0.4237932 0.3835487
vt 0.4237932 0.3835487
vt 0.3346693 0.5359388
vt 0.3244172 0.5335949
vt 0.3872286 0.4282232
vt 0.5250397 0.5669062
vt 0.3790203 0.4267512
vt 0.3790203 0.4267512
vt 0.5250397 0.5669062
vt 0.3389118 0.5661843
vt 0.3389118 0.5661843
vt 0.5250397 0.5669062
vt 0.3695932 0.5973204
vt 0.3695932 0.5973204
vt 0.5250397 0.5669062
vt 0.4110519 0.5943671
vt 0.4110519 0.5943671
vt 0.5250397 0.5669062
vt 0.4197758 0.5932046
vt 0.4197758 0.5932046
vt 0.5250397 0.5669062
vt 0.4393332 0.5887324
vt 0.653119 0.4784761
vt 0.6747015 0.5965235
vt 0.3449637 0.5178909
vt 0.3449637 0.5178909
vt 0.6747015 0.5965235
vt 0.3362163 0.562856
vt 0.3362163 0.562856
vt 0.6747015 0.5965235
vt 0.3630819 0.571444
vt 0.3630819 0.571444
vt 0.6747015 0.5965235
vt 0.3880068 0.5772662
vt 0.3880068 0.5772662
vt 0.6747015 0.5965235
vt 0.5032791 0.5957266
vt 0.5032791 0.5957266
vt 0.6747015 0.5965235
vt 0.539028 0.5983799
vt 0.539028 0.5983799
vt 0.6747015 0.5965235
vt 0.6555191 0.598033

usemtl Material0
usemap Material0
f 1/1/1 2/2/2 3/3/3
f 4/4/4 5/5/5 6/6/6
f 7/7/7 8/8/8 9/9/9
f 10/10/10 11/11/11 12/12/12
f 13/13/13 14/14/14 15/15/15
f 16/16/16 17/17/17 18/18/18
f 19/19/19 20/20/20 21/21/21
f 22/22/22 23/23/23 24/24/24
f 25/25/25 26/26/26 27/27/27
f 28/28/28 29/29/29 30/30/30
f 31/31/31 32/32/32 33/33/33
f 34/34/34 35/35/35 36/36/36
f 37/37/37 38/38/38 39/39/39
f 40/40/40 41/41/41 42/42/42
f 43/43/43 44/44/44 45/45/45
f 46/46/46 47/47/47 48/48/48
f 49/49/49 50/50/50 51/51/51
f 52/52/52 53/53/53 54/54/54
f 55/55/55 56/56/56 57/57/57

usemtl Material1
usemap Material1
f 58/58/58 59/59/59 60/60/60
f 61/61/61 62/62/62 63/63/63
f 64/64/64 65/65/65 66/66/66
f 67/67/67 68/68/68 69/69/69
f 70/70/70 71/71/71 72/72/72
f 73/73/73 74/74/74 75/75/75
f 76/76/76 77/77/77 78/78/78
f 79/79/79 80/80/80 81/81/81
f 82/82/82 83/83/83 84/84/84
f 85/85/85 86/86/86 87/87/87
f 88/88/88 89/89/89 90/90/90
f 91/91/91 92/92/92 93/93/93
f 94/94/94 95/95/95 96/96/96
f 97/97/97 98/98/98 99/99/99
f 100/100/100 101/101/101 102/102/102
f 103/103/103 104/104/104 105/105/105
f 106/106/106 107/107/107 108/108/108
f 109/109/109 110/110/110 111/111/111
f 112/112/112 113/113/113 114/114/114
f 115/115/115 116/116/116 117/117/117
f 118/118/118 119/119/119 120/120/120
f 121/121/121 122/122/122 123/123/123
f 124/124/124 125/125/125 126/126/126
f 127/127/127 128/128/128 129/129/129
f 130/130/130 131/131/131 132/132/132
f 133/133/133 134/134/134 135/135/135
f 136/136/136 137/137/137 138/138/138
f 139/139/139 140/140/140 141/141/141
f 142/142/142 143/143/143 144/144/144
f 145/145/145 146/146/146 147/147/147
f 148/148/148 149/149/149 150/150/150
f 151/151/151 152/152/152 153/153/153
f 154/154/154 155/155/155 156/156/156
f 157/157/157 158/158/158 159/159/159
f 160/160/160 161/161/161 162/162/162
f 163/163/163 164/164/164 165/165/165
f 166/166/166 167/167/167 168/168/168
f 169/169/169 170/170/170 171/171/171
f 172/172/172 173/173/173 174/174/174
f 175/175/175 176/176/176 177/177/177
f 178/178/178 179/179/179 180/180/180
f 181/181/181 182/182/182 183/183/183
f 184/184/184 185/185/185 186/186/186
