g  Instance
v 0.4801642 -51.08654 -4.106056
v 0.5591443 -51.16298 -4.287006
v 0.4124356 -50.93795 -4.199566
v 0.4124356 -50.93795 -4.199566
v 0.5591443 -51.16298 -4.287006
v 0.4129349 -50.92389 -4.244282
v -0.8225688 -54.28065 -4.869726
v -0.6687748 -54.33768 -4.918986
v -0.7633088 -54.34912 -4.515194
v -0.7633088 -54.34912 -4.515194
v -0.6687748 -54.33768 -4.918986
v -0.6198471 -54.40587 -4.532594
v -0.1569522 -52.52142 -6.837589
v 0.9710745 -52.34173 -6.192544
v -0.2572446 -52.57698 -6.861217
v -0.2572446 -52.57698 -6.861217
v 0.9710745 -52.34173 -6.192544
v -0.5701743 -53.89928 -5.95614
v -0.5701743 -53.89928 -5.95614
v 0.9710745 -52.34173 -6.192544
v -0.5069126 -53.98992 -5.834157
v -0.5069126 -53.98992 -5.834157
v 0.9710745 -52.34173 -6.192544
v 0.7225962 -53.22163 -5.618748
v 0.7225962 -53.22163 -5.618748
v 0.9710745 -52.34173 -6.192544
v 1.113717 -52.49717 -5.959199
v -0.2572446 -52.57698 -6.861217
v -0.2966328 -52.49016 -6.83786
v -0.1569522 -52.52142 -6.837589
v -0.2966328 -52.49016 -6.83786
v -0.9866816 -51.84834 -6.114219
v -0.1569522 -52.52142 -6.837589
v -0.1569522 -52.52142 -6.837589
v -0.9866816 -51.84834 -6.114219
v 0.9710745 -52.34173 -6.192544
v 0.9710745 -52.34173 -6.192544
v -0.9866816 -51.84834 -6.114219
v 0.4059265 -50.91898 -4.26542
v 0.4059265 -50.91898 -4.26542
v -0.9866816 -51.84834 -6.114219
v -0.928575 -51.04393 -4.898175
v -0.928575 -51.04393 -4.898175
v -0.9866816 -51.84834 -6.114219
v -1.021749 -51.10168 -5.015286
v -1.021749 -51.10168 -5.015286
v -0.9866816 -51.84834 -6.114219
v -1.129429 -51.3574 -5.431738
v 0.9710745 -52.34173 -6.192544
v 0.4059265 -50.91898 -4.26542
v 1.113717 -52.49717 -5.959199
v 1.113717 -52.49717 -5.959199
v 0.4059265 -50.91898 -4.26542
v 0.5591443 -51.16298 -4.287006
v 0.5591443 -51.16298 -4.287006
v 0.4059265 -50.91898 -4.26542
v 0.4129349 -50.92389 -4.244282
v -1.021749 -51.10168 -5.015286
v -1.129429 -51.3574 -5.431738
v -0.9912642 -51.127 -4.680376
v -0.9912642 -51.127 -4.680376
v -1.129429 -51.3574 -5.431738
v -0.9705486 -51.3029 -4.100319
v -0.9705486 -51.3029 -4.100319
v -1.129429 -51.3574 -5.431738
v -1.175117 -52.19382 -3.991777
v -1.175117 -52.19382 -3.991777
v -1.129429 -51.3574 -5.431738
v -1.293272 -52.22646 -4.999457
v -0.928575 -51.04393 -4.898175
v -0.9912642 -51.127 -4.680376
v 0.4059265 -50.91898 -4.26542
v 0.4059265 -50.91898 -4.26542
v -0.9912642 -51.127 -4.680376
v 0.4129349 -50.92389 -4.244282
v 0.4129349 -50.92389 -4.244282
v -0.9912642 -51.127 -4.680376
v 0.4124356 -50.93795 -4.199566
v 0.4124356 -50.93795 -4.199566
v -0.9912642 -51.127 -4.680376
v 0.1759156 -51.04079 -4.052991
v 0.1759156 -51.04079 -4.052991
v -0.9912642 -51.127 -4.680376
v -0.07235905 -51.11646 -4.002593
v -0.07235905 -51.11646 -4.002593
v -0.9912642 -51.127 -4.680376
v -0.9705486 -51.3029 -4.100319
v 0.1759156 -51.04079 -4.052991
v 0.3340685 -51.26151 -3.930711
v 0.4124356 -50.93795 -4.199566
v 0.4124356 -50.93795 -4.199566
v 0.3340685 -51.26151 -3.930711
v 0.4801642 -51.08654 -4.106056
v -0.5701743 -53.89928 -5.95614
v -0.5069126 -53.98992 -5.834157
v -0.9590929 -53.96025 -5.397151
v -0.9590929 -53.96025 -5.397151
v -0.5069126 -53.98992 -5.834157
v -0.8225688 -54.28065 -4.869726
v -0.8225688 -54.28065 -4.869726
v -0.5069126 -53.98992 -5.834157
v -0.6687748 -54.33768 -4.918986
v -0.2966328 -52.49016 -6.83786
v -0.2572446 -52.57698 -6.861217
v -0.9866816 -51.84834 -6.114219
v -0.9866816 -51.84834 -6.114219
v -0.2572446 -52.57698 -6.861217
v -1.216708 -52.82437 -5.447488
v -1.216708 -52.82437 -5.447488
v -0.2572446 -52.57698 -6.861217
v -0.9590929 -53.96025 -5.397151
v -0.9590929 -53.96025 -5.397151
v -0.2572446 -52.57698 -6.861217
v -0.5701743 -53.89928 -5.95614
v 0.7225962 -53.22163 -5.618748
v -0.1799404 -54.13247 -4.449851
v -0.5069126 -53.98992 -5.834157
v -0.5069126 -53.98992 -5.834157
v -0.1799404 -54.13247 -4.449851
v -0.6687748 -54.33768 -4.918986
v -0.6687748 -54.33768 -4.918986
v -0.1799404 -54.13247 -4.449851
v -0.6198471 -54.40587 -4.532594
v -1.021749 -51.10168 -5.015286
v -0.9912642 -51.127 -4.680376
v -0.928575 -51.04393 -4.898175
v -1.216708 -52.82437 -5.447488
v -0.9590929 -53.96025 -5.397151
v -1.293272 -52.22646 -4.999457
v -1.293272 -52.22646 -4.999457
v -0.9590929 -53.96025 -5.397151
v -1.175117 -52.19382 -3.991777
v -1.175117 -52.19382 -3.991777
v -0.9590929 -53.96025 -5.397151
v -1.109387 -52.46238 -3.941118
v -1.109387 -52.46238 -3.941118
v -0.9590929 -53.96025 -5.397151
v -0.7633088 -54.34912 -4.515194
v -0.7633088 -54.34912 -4.515194
v -0.9590929 -53.96025 -5.397151
v -0.8225688 -54.28065 -4.869726
v -0.07235905 -51.11646 -4.002593
v 0.3251109 -51.27626 -3.921992
v 0.1759156 -51.04079 -4.052991
v 0.1759156 -51.04079 -4.052991
v 0.3251109 -51.27626 -3.921992
v 0.3340685 -51.26151 -3.930711
v -1.175117 -52.19382 -3.991777
v -1.109387 -52.46238 -3.941118
v -0.9705486 -51.3029 -4.100319
v -0.9705486 -51.3029 -4.100319
v -1.109387 -52.46238 -3.941118
v -0.07235905 -51.11646 -4.002593
v -0.07235905 -51.11646 -4.002593
v -1.109387 -52.46238 -3.941118
v 0.3251109 -51.27626 -3.921992
v 0.3251109 -51.27626 -3.921992
v -1.109387 -52.46238 -3.941118
v 0.04451739 -52.10551 -3.833657
v 0.3251109 -51.27626 -3.921992
v 0.04451739 -52.10551 -3.833657
v 0.3340685 -51.26151 -3.930711
v 0.3340685 -51.26151 -3.930711
v 0.04451739 -52.10551 -3.833657
v 0.4801642 -51.08654 -4.106056
v 0.4801642 -51.08654 -4.106056
v 0.04451739 -52.10551 -3.833657
v 0.5591443 -51.16298 -4.287006
v 0.5591443 -51.16298 -4.287006
v 0.04451739 -52.10551 -3.833657
v 1.113717 -52.49717 -5.959199
v 1.113717 -52.49717 -5.959199
v 0.04451739 -52.10551 -3.833657
v 0.7225962 -53.22163 -5.618748
v 0.7225962 -53.22163 -5.618748
v 0.04451739 -52.10551 -3.833657
v -0.1799404 -54.13247 -4.449851
v -1.216708 -52.82437 -5.447488
v -1.293272 -52.22646 -4.999457
v -0.9866816 -51.84834 -6.114219
v -0.9866816 -51.84834 -6.114219
v -1.293272 -52.22646 -4.999457
v -1.129429 -51.3574 -5.431738
v -0.7633088 -54.34912 -4.515194
v -0.6198471 -54.40587 -4.532594
v -1.109387 -52.46238 -3.941118
v -1.109387 -52.46238 -3.941118
v -0.6198471 -54.40587 -4.532594
v 0.04451739 -52.10551 -3.833657
v 0.04451739 -52.10551 -3.833657
v -0.6198471 -54.40587 -4.532594
v -0.1799404 -54.13247 -4.449851

vn 0.8543073 0.4930072 0.16463
vn 0.8543073 0.4930072 0.16463
vn 0.8543073 0.4930072 0.16463
vn 0.8543073 0.4930072 0.16463
vn 0.8543073 0.4930072 0.16463
vn 0.8543073 0.4930072 0.16463
vn -0.3773859 -0.9189643 -0.1143885
vn -0.3773859 -0.9189643 -0.1143885
vn -0.3773859 -0.9189643 -0.1143885
vn -0.3773859 -0.9189643 -0.1143885
vn -0.3773859 -0.9189643 -0.1143885
vn -0.3773859 -0.9189643 -0.1143885
vn 0.4741899 -0.5709512 -0.670193
vn 0.4741899 -0.5709512 -0.670193
vn 0.4741899 -0.5709512 -0.670193
vn 0.4741899 -0.5709512 -0.670193
vn 0.4741899 -0.5709512 -0.670193
vn 0.4741899 -0.5709512 -0.670193
vn 0.4741899 -0.5709512 -0.670193
vn 0.4741899 -0.5709512 -0.670193
vn 0.4741899 -0.5709512 -0.670193
vn 0.4741899 -0.5709512 -0.670193
vn 0.4741899 -0.5709512 -0.670193
vn 0.4741899 -0.5709512 -0.670193
vn 0.4741899 -0.5709512 -0.670193
vn 0.4741899 -0.5709512 -0.670193
vn 0.4741899 -0.5709512 -0.670193
vn 0.0661079 0.2870735 -0.9556248
vn 0.0661079 0.2870735 -0.9556248
vn 0.0661079 0.2870735 -0.9556248
vn 0.1836586 0.815789 -0.5484139
vn 0.1836586 0.815789 -0.5484139
vn 0.1836586 0.815789 -0.5484139
vn 0.1836586 0.815789 -0.5484139
vn 0.1836586 0.815789 -0.5484139
vn 0.1836586 0.815789 -0.5484139
vn 0.1836586 0.815789 -0.5484139
vn 0.1836586 0.815789 -0.5484139
vn 0.1836586 0.815789 -0.5484139
vn 0.1836586 0.815789 -0.5484139
vn 0.1836586 0.815789 -0.5484139
vn 0.1836586 0.815789 -0.5484139
vn 0.1836586 0.815789 -0.5484139
vn 0.1836586 0.815789 -0.5484139
vn 0.1836586 0.815789 -0.5484139
vn 0.1836586 0.815789 -0.5484139
vn 0.1836586 0.815789 -0.5484139
vn 0.1836586 0.815789 -0.5484139
vn 0.8310094 0.5352424 -0.1514561
vn 0.8310094 0.5352424 -0.1514561
vn 0.8310094 0.5352424 -0.1514561
vn 0.8310094 0.5352424 -0.1514561
vn 0.8310094 0.5352424 -0.1514561
vn 0.8310094 0.5352424 -0.1514561
vn 0.8310094 0.5352424 -0.1514561
vn 0.8310094 0.5352424 -0.1514561
vn 0.8310094 0.5352424 -0.1514561
vn -0.9662914 0.234752 0.1056998
vn -0.9662914 0.234752 0.1056998
vn -0.9662914 0.234752 0.1056998
vn -0.9662914 0.234752 0.1056998
vn -0.9662914 0.234752 0.1056998
vn -0.9662914 0.234752 0.1056998
vn -0.9662914 0.234752 0.1056998
vn -0.9662914 0.234752 0.1056998
vn -0.9662914 0.234752 0.1056998
vn -0.9662914 0.234752 0.1056998
vn -0.9662914 0.234752 0.1056998
vn -0.9662914 0.234752 0.1056998
vn -0.2246578 0.9302443 0.2901283
vn -0.2246578 0.9302443 0.2901283
vn -0.2246578 0.9302443 0.2901283
vn -0.2246578 0.9302443 0.2901283
vn -0.2246578 0.9302443 0.2901283
vn -0.2246578 0.9302443 0.2901283
vn -0.2246578 0.9302443 0.2901283
vn -0.2246578 0.9302443 0.2901283
vn -0.2246578 0.9302443 0.2901283
vn -0.2246578 0.9302443 0.2901283
vn -0.2246578 0.9302443 0.2901283
vn -0.2246578 0.9302443 0.2901283
vn -0.2246578 0.9302443 0.2901283
vn -0.2246578 0.9302443 0.2901283
vn -0.2246578 0.9302443 0.2901283
vn -0.2246578 0.9302443 0.2901283
vn -0.2246578 0.9302443 0.2901283
vn -0.2246578 0.9302443 0.2901283
vn 0.2240223 0.5901888 0.7755587
vn 0.2240223 0.5901888 0.7755587
vn 0.2240223 0.5901888 0.7755587
vn 0.2240223 0.5901888 0.7755587
vn 0.2240223 0.5901888 0.7755587
vn 0.2240223 0.5901888 0.7755587
vn -0.4269041 -0.8176765 -0.38621
vn -0.4269041 -0.8176765 -0.38621
vn -0.4269041 -0.8176765 -0.38621
vn -0.4269041 -0.8176765 -0.38621
vn -0.4269041 -0.8176765 -0.38621
vn -0.4269041 -0.8176765 -0.38621
vn -0.4269041 -0.8176765 -0.38621
vn -0.4269041 -0.8176765 -0.38621
vn -0.4269041 -0.8176765 -0.38621
vn -0.7927638 -0.2052218 -0.5739421
vn -0.7927638 -0.2052218 -0.5739421
vn -0.7927638 -0.2052218 -0.5739421
vn -0.7927638 -0.2052218 -0.5739421
vn -0.7927638 -0.2052218 -0.5739421
vn -0.7927638 -0.2052218 -0.5739421
vn -0.7927638 -0.2052218 -0.5739421
vn -0.7927638 -0.2052218 -0.5739421
vn -0.7927638 -0.2052218 -0.5739421
vn -0.7927638 -0.2052218 -0.5739421
vn -0.7927638 -0.2052218 -0.5739421
vn -0.7927638 -0.2052218 -0.5739421
vn 0.5443162 -0.8116087 -0.2121589
vn 0.5443162 -0.8116087 -0.2121589
vn 0.5443162 -0.8116087 -0.2121589
vn 0.5443162 -0.8116087 -0.2121589
vn 0.5443162 -0.8116087 -0.2121589
vn 0.5443162 -0.8116087 -0.2121589
vn 0.5443162 -0.8116087 -0.2121589
vn 0.5443162 -0.8116087 -0.2121589
vn 0.5443162 -0.8116087 -0.2121589
vn -0.6239285 0.7729407 0.115221
vn -0.6239285 0.7729407 0.115221
vn -0.6239285 0.7729407 0.115221
vn -0.9692553 -0.2144791 0.1205948
vn -0.9692553 -0.2144791 0.1205948
vn -0.9692553 -0.2144791 0.1205948
vn -0.9692553 -0.2144791 0.1205948
vn -0.9692553 -0.2144791 0.1205948
vn -0.9692553 -0.2144791 0.1205948
vn -0.9692553 -0.2144791 0.1205948
vn -0.9692553 -0.2144791 0.1205948
vn -0.9692553 -0.2144791 0.1205948
vn -0.9692553 -0.2144791 0.1205948
vn -0.9692553 -0.2144791 0.1205948
vn -0.9692553 -0.2144791 0.1205948
vn -0.9692553 -0.2144791 0.1205948
vn -0.9692553 -0.2144791 0.1205948
vn -0.9692553 -0.2144791 0.1205948
vn 0.0242912 0.4977298 0.8669921
vn 0.0242912 0.4977298 0.8669921
vn 0.0242912 0.4977298 0.8669921
vn 0.0242912 0.4977298 0.8669921
vn 0.0242912 0.4977298 0.8669921
vn 0.0242912 0.4977298 0.8669921
vn -0.1378335 0.1509142 0.9788907
vn -0.1378335 0.1509142 0.9788907
vn -0.1378335 0.1509142 0.9788907
vn -0.1378335 0.1509142 0.9788907
vn -0.1378335 0.1509142 0.9788907
vn -0.1378335 0.1509142 0.9788907
vn -0.1378335 0.1509142 0.9788907
vn -0.1378335 0.1509142 0.9788907
vn -0.1378335 0.1509142 0.9788907
vn -0.1378335 0.1509142 0.9788907
vn -0.1378335 0.1509142 0.9788907
vn -0.1378335 0.1509142 0.9788907
vn 0.8495759 -0.2372878 0.471079
vn 0.8495759 -0.2372878 0.471079
vn 0.8495759 -0.2372878 0.471079
vn 0.8495759 -0.2372878 0.471079
vn 0.8495759 -0.2372878 0.471079
vn 0.8495759 -0.2372878 0.471079
vn 0.8495759 -0.2372878 0.471079
vn 0.8495759 -0.2372878 0.471079
vn 0.8495759 -0.2372878 0.471079
vn 0.8495759 -0.2372878 0.471079
vn 0.8495759 -0.2372878 0.471079
vn 0.8495759 -0.2372878 0.471079
vn 0.8495759 -0.2372878 0.471079
vn 0.8495759 -0.2372878 0.471079
vn 0.8495759 -0.2372878 0.471079
vn 0.8495759 -0.2372878 0.471079
vn 0.8495759 -0.2372878 0.471079
vn 0.8495759 -0.2372878 0.471079
vn -0.9674827 0.06020064 -0.2456686
vn -0.9674827 0.06020064 -0.2456686
vn -0.9674827 0.06020064 -0.2456686
vn -0.9674827 0.06020064 -0.2456686
vn -0.9674827 0.06020064 -0.2456686
vn -0.9674827 0.06020064 -0.2456686
vn 0.0008717179 -0.290944 0.9567397
vn 0.0008717179 -0.290944 0.9567397
vn 0.0008717179 -0.290944 0.9567397
vn 0.0008717179 -0.290944 0.9567397
vn 0.0008717179 -0.290944 0.9567397
vn 0.0008717179 -0.290944 0.9567397
vn 0.0008717179 -0.290944 0.9567397
vn 0.0008717179 -0.290944 0.9567397
vn 0.0008717179 -0.290944 0.9567397

vt 0.4019763 0.3723731
vt 0.4125098 0.3906601
vt 0.3857754 0.3818236
vt 0.3857754 0.3818236
vt 0.4125098 0.3906601
vt 0.3845847 0.3863426
vt 0.4864922 0.4056844
vt 0.4702678 0.4105925
vt 0.4784948 0.3703667
vt 0.4784948 0.3703667
vt 0.4702678 0.4105925
vt 0.4632268 0.3721012
vt 0.5019009 0.6190436
vt 0.3717449 0.5039213
vt 0.5168267 0.6232626
vt 0.5168267 0.6232626
vt 0.3717449 0.5039213
vt 0.66061 0.4617314
vt 0.66061 0.4617314
vt 0.3717449 0.5039213
vt 0.6618382 0.4399613
vt 0.6618382 0.4399613
vt 0.3717449 0.5039213
vt 0.4715288 0.4015169
vt 0.4715288 0.4015169
vt 0.3717449 0.5039213
vt 0.370362 0.4622751
vt 0.5440158 0.5039775
vt 0.5351559 0.5078684
vt 0.5380998 0.494077
vt 0.4690911 0.6272284
vt 0.3733763 0.525485
vt 0.4859203 0.6271909
vt 0.4859203 0.6271909
vt 0.3733763 0.525485
vt 0.6106572 0.5365013
vt 0.6106572 0.5365013
vt 0.3733763 0.525485
vt 0.5091107 0.2655622
vt 0.5091107 0.2655622
vt 0.3733763 0.525485
vt 0.3592708 0.354522
vt 0.3592708 0.354522
vt 0.3733763 0.525485
vt 0.3500733 0.3709855
vt 0.3500733 0.3709855
vt 0.3733763 0.525485
vt 0.3443261 0.4295357
vt 0.5393937 0.5436267
vt 0.3899991 0.3497218
vt 0.5600761 0.5201504
vt 0.5600761 0.5201504
vt 0.3899991 0.3497218
vt 0.4186507 0.3518969
vt 0.4186507 0.3518969
vt 0.3899991 0.3497218
vt 0.3907866 0.3475982
vt 0.5972689 0.4549528
vt 0.5701923 0.4963552
vt 0.5955532 0.4216556
vt 0.5955532 0.4216556
vt 0.5701923 0.4963552
vt 0.5791366 0.3639866
vt 0.5791366 0.3639866
vt 0.5701923 0.4963552
vt 0.4887751 0.3531907
vt 0.4887751 0.3531907
vt 0.5701923 0.4963552
vt 0.4828826 0.4533731
vt 0.4413396 0.4770979
vt 0.4330797 0.4537153
vt 0.5776083 0.4091768
vt 0.5776083 0.4091768
vt 0.4330797 0.4537153
vt 0.5781897 0.4069032
vt 0.5781897 0.4069032
vt 0.4330797 0.4537153
vt 0.5778053 0.4021029
vt 0.5778053 0.4021029
vt 0.4330797 0.4537153
vt 0.5517038 0.3863707
vt 0.5517038 0.3863707
vt 0.4330797 0.4537153
vt 0.5250866 0.3809611
vt 0.5250866 0.3809611
vt 0.4330797 0.4537153
vt 0.4309046 0.3914523
vt 0.4532793 0.5180221
vt 0.4885032 0.487861
vt 0.4820341 0.5541836
vt 0.4820341 0.5541836
vt 0.4885032 0.487861
vt 0.5001101 0.5311103
vt 0.4619986 0.4728039
vt 0.4515495 0.4587077
vt 0.4957318 0.4082158
vt 0.4957318 0.4082158
vt 0.4515495 0.4587077
vt 0.4670332 0.3472748
vt 0.4670332 0.3472748
vt 0.4515495 0.4587077
vt 0.4496885 0.3529657
vt 0.4901064 0.6078773
vt 0.4788323 0.6112994
vt 0.5854651 0.501793
vt 0.5854651 0.501793
vt 0.4788323 0.6112994
vt 0.4789449 0.4040436
vt 0.4789449 0.4040436
vt 0.4788323 0.6112994
vt 0.339179 0.3966651
vt 0.339179 0.3966651
vt 0.4788323 0.6112994
vt 0.3345662 0.4786167
vt 0.4644221 0.478012
vt 0.5908747 0.3576816
vt 0.6101977 0.5001805
vt 0.6101977 0.5001805
vt 0.5908747 0.3576816
vt 0.6432184 0.405975
vt 0.6432184 0.405975
vt 0.5908747 0.3576816
vt 0.6429465 0.3661993
vt 0.5025946 0.4607938
vt 0.5033728 0.4274262
vt 0.5133578 0.4491259
vt 0.4767416 0.4987741
vt 0.361399 0.4937488
vt 0.5361872 0.4540809
vt 0.5361872 0.4540809
vt 0.361399 0.4937488
vt 0.5368154 0.3535517
vt 0.5368154 0.3535517
vt 0.361399 0.4937488
vt 0.5094388 0.3484983
vt 0.5094388 0.3484983
vt 0.361399 0.4937488
vt 0.3196028 0.4057688
vt 0.3196028 0.4057688
vt 0.361399 0.4937488
vt 0.3274924 0.441138
vt 0.4835014 0.5695595
vt 0.5633575 0.5376545
vt 0.5316963 0.5895106
vt 0.5316963 0.5895106
vt 0.5633575 0.5376545
vt 0.5649795 0.5411047
vt 0.4929754 0.5657999
vt 0.465866 0.5592089
vt 0.5820055 0.5452955
vt 0.5820055 0.5452955
vt 0.465866 0.5592089
vt 0.5988252 0.4552857
vt 0.5988252 0.4552857
vt 0.465866 0.5592089
vt 0.5819211 0.4154537
vt 0.5819211 0.4154537
vt 0.465866 0.5592089
vt 0.4992382 0.4435709
vt 0.3518219 0.3401165
vt 0.4492525 0.3289596
vt 0.3499702 0.3412181
vt 0.3499702 0.3412181
vt 0.4492525 0.3289596
vt 0.3268079 0.3633726
vt 0.3268079 0.3633726
vt 0.4492525 0.3289596
vt 0.3326442 0.3862301
vt 0.3326442 0.3862301
vt 0.4492525 0.3289596
vt 0.4592375 0.5975173
vt 0.4592375 0.5975173
vt 0.4492525 0.3289596
vt 0.5487317 0.554493
vt 0.5487317 0.554493
vt 0.4492525 0.3289596
vt 0.6735576 0.4068094
vt 0.4442085 0.4577608
vt 0.5042447 0.4108831
vt 0.5444564 0.5275195
vt 0.5444564 0.5275195
vt 0.5042447 0.4108831
vt 0.5932561 0.4561107
vt 0.335846 0.5449862
vt 0.330005 0.5308853
vt 0.5297181 0.57901
vt 0.5297181 0.57901
vt 0.330005 0.5308853
vt 0.5663577 0.4655707
vt 0.5663577 0.4655707
vt 0.330005 0.5308853
vt 0.3580894 0.487636

usemtl Material0
usemap Material0

usemtl Material1
usemap Material1
f 1/1/1 2/2/2 3/3/3
f 4/4/4 5/5/5 6/6/6
f 7/7/7 8/8/8 9/9/9
f 10/10/10 11/11/11 12/12/12
f 13/13/13 14/14/14 15/15/15
f 16/16/16 17/17/17 18/18/18
f 19/19/19 20/20/20 21/21/21
f 22/22/22 23/23/23 24/24/24
f 25/25/25 26/26/26 27/27/27
f 28/28/28 29/29/29 30/30/30
f 31/31/31 32/32/32 33/33/33
f 34/34/34 35/35/35 36/36/36
f 37/37/37 38/38/38 39/39/39
f 40/40/40 41/41/41 42/42/42
f 43/43/43 44/44/44 45/45/45
f 46/46/46 47/47/47 48/48/48
f 49/49/49 50/50/50 51/51/51
f 52/52/52 53/53/53 54/54/54
f 55/55/55 56/56/56 57/57/57
f 58/58/58 59/59/59 60/60/60
f 61/61/61 62/62/62 63/63/63
f 64/64/64 65/65/65 66/66/66
f 67/67/67 68/68/68 69/69/69
f 70/70/70 71/71/71 72/72/72
f 73/73/73 74/74/74 75/75/75
f 76/76/76 77/77/77 78/78/78
f 79/79/79 80/80/80 81/81/81
f 82/82/82 83/83/83 84/84/84
f 85/85/85 86/86/86 87/87/87
f 88/88/88 89/89/89 90/90/90
f 91/91/91 92/92/92 93/93/93
f 94/94/94 95/95/95 96/96/96
f 97/97/97 98/98/98 99/99/99
f 100/100/100 101/101/101 102/102/102
f 103/103/103 104/104/104 105/105/105
f 106/106/106 107/107/107 108/108/108
f 109/109/109 110/110/110 111/111/111
f 112/112/112 113/113/113 114/114/114
f 115/115/115 116/116/116 117/117/117
f 118/118/118 119/119/119 120/120/120
f 121/121/121 122/122/122 123/123/123
f 124/124/124 125/125/125 126/126/126
f 127/127/127 128/128/128 129/129/129
f 130/130/130 131/131/131 132/132/132
f 133/133/133 134/134/134 135/135/135
f 136/136/136 137/137/137 138/138/138
f 139/139/139 140/140/140 141/141/141
f 142/142/142 143/143/143 144/144/144
f 145/145/145 146/146/146 147/147/147
f 148/148/148 149/149/149 150/150/150
f 151/151/151 152/152/152 153/153/153
f 154/154/154 155/155/155 156/156/156
f 157/157/157 158/158/158 159/159/159
f 160/160/160 161/161/161 162/162/162
f 163/163/163 164/164/164 165/165/165
f 166/166/166 167/167/167 168/168/168
f 169/169/169 170/170/170 171/171/171
f 172/172/172 173/173/173 174/174/174
f 175/175/175 176/176/176 177/177/177
f 178/178/178 179/179/179 180/180/180
f 181/181/181 182/182/182 183/183/183
f 184/184/184 185/185/185 186/186/186
f 187/187/187 188/188/188 189/189/189
f 190/190/190 191/191/191 192/192/192
