g  Instance
v 2.030948 -48.52353 9.679564
v 2.031037 -48.52438 9.679677
v 2.031808 -48.52382 9.679497
v 2.030948 -48.52353 9.679564
v 2.031808 -48.52382 9.679497
v 2.02955 -48.51331 9.677573
v 1.846951 -47.21128 9.41544
v 2.02955 -48.51331 9.677573
v 3.152506 -47.7096 9.209547
v 3.152506 -47.7096 9.209547
v 2.02955 -48.51331 9.677573
v 2.031808 -48.52382 9.679497
v 2.951823 -46.63343 8.919213
v 2.303484 -46.82282 9.162179
v 3.152506 -47.7096 9.209547
v 3.152506 -47.7096 9.209547
v 2.303484 -46.82282 9.162179
v 1.846951 -47.21128 9.41544
v 1.846951 -47.21128 9.41544
v 2.303484 -46.82282 9.162179
v 1.834663 -47.14194 9.39655
v 4.131791 -46.99811 8.5841
v 4.054717 -46.82075 8.553404
v 3.152506 -47.7096 9.209547
v 3.152506 -47.7096 9.209547
v 4.054717 -46.82075 8.553404
v 2.951823 -46.63343 8.919213
v 2.951823 -46.63343 8.919213
v 4.054717 -46.82075 8.553404
v 3.365357 -46.51121 8.716138
v 3.846376 -46.3679 8.441257
v 3.365357 -46.51121 8.716138
v 4.054717 -46.82075 8.553404
v 2.031037 -48.52438 9.679677
v 2.03204 -48.53904 9.680602
v 2.031808 -48.52382 9.679497
v 2.031808 -48.52382 9.679497
v 3.165356 -49.18135 9.445175
v 3.152506 -47.7096 9.209547
v 3.152506 -47.7096 9.209547
v 3.165356 -49.18135 9.445175
v 3.221518 -49.07622 9.411156
v 3.779382 -48.05086 9.020249
v 4.233733 -47.25026 8.605416
v 3.152506 -47.7096 9.209547
v 3.152506 -47.7096 9.209547
v 4.233733 -47.25026 8.605416
v 4.131791 -46.99811 8.5841
v 3.165356 -49.18135 9.445175
v 2.031808 -48.52382 9.679497
v 3.103708 -49.3013 9.469825
v 3.103708 -49.3013 9.469825
v 2.031808 -48.52382 9.679497
v 2.126169 -49.95216 9.765018
v 2.126169 -49.95216 9.765018
v 2.031808 -48.52382 9.679497
v 2.03204 -48.53904 9.680602
v 3.103708 -49.3013 9.469825
v 2.126169 -49.95216 9.765018
v 2.585148 -50.32837 9.626418
v 2.585148 -50.32837 9.626418
v 2.126169 -49.95216 9.765018
v 2.561168 -50.33747 9.633659
v 2.561168 -50.33747 9.633659
v 2.126169 -49.95216 9.765018
v 2.12917 -50.04984 9.764112
v 2.12747 -50.50579 9.729677
v 2.561168 -50.33747 9.633659
v 2.12917 -50.04984 9.764112
v 3.152506 -47.7096 9.209547
v 3.221518 -49.07622 9.411156
v 3.779382 -48.05086 9.020249
v 0.8950864 -47.85862 7.17868
v 0.8125756 -48.00993 7.267051
v 1.007033 -47.57943 7.423405
v 1.007033 -47.57943 7.423405
v 0.8125756 -48.00993 7.267051
v 1.004247 -47.5651 7.522301
v 1.004247 -47.5651 7.522301
v 0.8125756 -48.00993 7.267051
v 0.9701244 -47.59847 7.70287
v 0.9701244 -47.59847 7.70287
v 0.8125756 -48.00993 7.267051
v 0.8145017 -47.98363 7.377293
v 4.001951 -48.44622 6.615121
v 4.233733 -47.25026 8.605416
v 2.865297 -50.40466 7.777129
v 2.865297 -50.40466 7.777129
v 4.233733 -47.25026 8.605416
v 2.585148 -50.32837 9.626418
v 2.585148 -50.32837 9.626418
v 4.233733 -47.25026 8.605416
v 3.103708 -49.3013 9.469825
v 3.103708 -49.3013 9.469825
v 4.233733 -47.25026 8.605416
v 3.165356 -49.18135 9.445175
v 3.165356 -49.18135 9.445175
v 4.233733 -47.25026 8.605416
v 3.221518 -49.07622 9.411156
v 3.221518 -49.07622 9.411156
v 4.233733 -47.25026 8.605416
v 3.779382 -48.05086 9.020249
v 0.902773 -48.60439 7.50462
v 0.8145017 -47.98363 7.377293
v 0.8125756 -48.00993 7.267051
v 0.9701244 -47.59847 7.70287
v 1.834663 -47.14194 9.39655
v 1.004247 -47.5651 7.522301
v 1.004247 -47.5651 7.522301
v 1.834663 -47.14194 9.39655
v 2.177716 -46.8162 7.739046
v 2.177716 -46.8162 7.739046
v 1.834663 -47.14194 9.39655
v 2.303484 -46.82282 9.162179
v 1.741244 -50.39677 8.071043
v 1.998348 -50.65427 8.808126
v 0.9918121 -48.98772 7.649643
v 0.9918121 -48.98772 7.649643
v 1.998348 -50.65427 8.808126
v 2.092986 -50.52698 9.661917
v 0.902773 -48.60439 7.50462
v 0.8125756 -48.00993 7.267051
v 0.9918121 -48.98772 7.649643
v 0.9918121 -48.98772 7.649643
v 0.8125756 -48.00993 7.267051
v 1.741244 -50.39677 8.071043
v 1.741244 -50.39677 8.071043
v 0.8125756 -48.00993 7.267051
v 2.357743 -50.5909 7.993315
v 2.357743 -50.5909 7.993315
v 0.8125756 -48.00993 7.267051
v 2.865297 -50.40466 7.777129
v 2.865297 -50.40466 7.777129
v 0.8125756 -48.00993 7.267051
v 4.001951 -48.44622 6.615121
v 4.001951 -48.44622 6.615121
v 0.8125756 -48.00993 7.267051
v 3.423765 -47.24708 6.240728
v 3.423765 -47.24708 6.240728
v 0.8125756 -48.00993 7.267051
v 2.744498 -47.0927 6.352544
v 2.744498 -47.0927 6.352544
v 0.8125756 -48.00993 7.267051
v 0.8950864 -47.85862 7.17868
v 2.030948 -48.52353 9.679564
v 2.02955 -48.51331 9.677573
v 2.031037 -48.52438 9.679677
v 2.031037 -48.52438 9.679677
v 2.02955 -48.51331 9.677573
v 2.03204 -48.53904 9.680602
v 2.03204 -48.53904 9.680602
v 2.02955 -48.51331 9.677573
v 2.126169 -49.95216 9.765018
v 2.126169 -49.95216 9.765018
v 2.02955 -48.51331 9.677573
v 2.12917 -50.04984 9.764112
v 2.12917 -50.04984 9.764112
v 2.02955 -48.51331 9.677573
v 2.12747 -50.50579 9.729677
v 2.12747 -50.50579 9.729677
v 2.02955 -48.51331 9.677573
v 2.092986 -50.52698 9.661917
v 2.092986 -50.52698 9.661917
v 2.02955 -48.51331 9.677573
v 0.9918121 -48.98772 7.649643
v 0.9918121 -48.98772 7.649643
v 2.02955 -48.51331 9.677573
v 0.902773 -48.60439 7.50462
v 0.902773 -48.60439 7.50462
v 2.02955 -48.51331 9.677573
v 0.8145017 -47.98363 7.377293
v 0.8145017 -47.98363 7.377293
v 2.02955 -48.51331 9.677573
v 0.9701244 -47.59847 7.70287
v 0.9701244 -47.59847 7.70287
v 2.02955 -48.51331 9.677573
v 1.834663 -47.14194 9.39655
v 1.834663 -47.14194 9.39655
v 2.02955 -48.51331 9.677573
v 1.846951 -47.21128 9.41544
v 2.597948 -46.67692 7.021089
v 1.007033 -47.57943 7.423405
v 2.177716 -46.8162 7.739046
v 2.177716 -46.8162 7.739046
v 1.007033 -47.57943 7.423405
v 1.004247 -47.5651 7.522301
v 2.865297 -50.40466 7.777129
v 2.585148 -50.32837 9.626418
v 2.357743 -50.5909 7.993315
v 2.357743 -50.5909 7.993315
v 2.585148 -50.32837 9.626418
v 1.998348 -50.65427 8.808126
v 1.998348 -50.65427 8.808126
v 2.585148 -50.32837 9.626418
v 2.092986 -50.52698 9.661917
v 2.092986 -50.52698 9.661917
v 2.585148 -50.32837 9.626418
v 2.12747 -50.50579 9.729677
v 2.12747 -50.50579 9.729677
v 2.585148 -50.32837 9.626418
v 2.561168 -50.33747 9.633659
v 2.357743 -50.5909 7.993315
v 1.998348 -50.65427 8.808126
v 1.741244 -50.39677 8.071043
v 2.597948 -46.67692 7.021089
v 2.666639 -46.65641 6.980354
v 1.007033 -47.57943 7.423405
v 1.007033 -47.57943 7.423405
v 2.666639 -46.65641 6.980354
v 0.8950864 -47.85862 7.17868
v 0.8950864 -47.85862 7.17868
v 2.666639 -46.65641 6.980354
v 2.744498 -47.0927 6.352544
v 4.054717 -46.82075 8.553404
v 4.131791 -46.99811 8.5841
v 3.846376 -46.3679 8.441257
v 3.846376 -46.3679 8.441257
v 4.131791 -46.99811 8.5841
v 3.534476 -46.42677 7.464705
v 3.534476 -46.42677 7.464705
v 4.131791 -46.99811 8.5841
v 3.423765 -47.24708 6.240728
v 3.423765 -47.24708 6.240728
v 4.131791 -46.99811 8.5841
v 4.001951 -48.44622 6.615121
v 4.001951 -48.44622 6.615121
v 4.131791 -46.99811 8.5841
v 4.233733 -47.25026 8.605416
v 2.177716 -46.8162 7.739046
v 2.303484 -46.82282 9.162179
v 2.597948 -46.67692 7.021089
v 2.597948 -46.67692 7.021089
v 2.303484 -46.82282 9.162179
v 2.666639 -46.65641 6.980354
v 2.666639 -46.65641 6.980354
v 2.303484 -46.82282 9.162179
v 3.534476 -46.42677 7.464705
v 3.534476 -46.42677 7.464705
v 2.303484 -46.82282 9.162179
v 3.846376 -46.3679 8.441257
v 3.846376 -46.3679 8.441257
v 2.303484 -46.82282 9.162179
v 3.365357 -46.51121 8.716138
v 3.365357 -46.51121 8.716138
v 2.303484 -46.82282 9.162179
v 2.951823 -46.63343 8.919213
v 2.744498 -47.0927 6.352544
v 2.666639 -46.65641 6.980354
v 3.423765 -47.24708 6.240728
v 3.423765 -47.24708 6.240728
v 2.666639 -46.65641 6.980354
v 3.534476 -46.42677 7.464705

vn 0.1245786 0.1440159 0.9817024
vn 0.1245786 0.1440159 0.9817024
vn 0.1245786 0.1440159 0.9817024
vn 0.1453795 0.2081009 0.9672428
vn 0.1453795 0.2081009 0.9672428
vn 0.1453795 0.2081009 0.9672428
vn 0.2344633 0.2233614 0.9461166
vn 0.2344633 0.2233614 0.9461166
vn 0.2344633 0.2233614 0.9461166
vn 0.2344633 0.2233614 0.9461166
vn 0.2344633 0.2233614 0.9461166
vn 0.2344633 0.2233614 0.9461166
vn 0.2580843 0.2962187 0.9195907
vn 0.2580843 0.2962187 0.9195907
vn 0.2580843 0.2962187 0.9195907
vn 0.2580843 0.2962187 0.9195907
vn 0.2580843 0.2962187 0.9195907
vn 0.2580843 0.2962187 0.9195907
vn 0.2580843 0.2962187 0.9195907
vn 0.2580843 0.2962187 0.9195907
vn 0.2580843 0.2962187 0.9195907
vn 0.3460387 0.3039909 0.8876073
vn 0.3460387 0.3039909 0.8876073
vn 0.3460387 0.3039909 0.8876073
vn 0.3460387 0.3039909 0.8876073
vn 0.3460387 0.3039909 0.8876073
vn 0.3460387 0.3039909 0.8876073
vn 0.3460387 0.3039909 0.8876073
vn 0.3460387 0.3039909 0.8876073
vn 0.3460387 0.3039909 0.8876073
vn 0.3708198 0.3804156 0.847217
vn 0.3708198 0.3804156 0.847217
vn 0.3708198 0.3804156 0.847217
vn 0.1754665 0.07397905 0.9817019
vn 0.1754665 0.07397905 0.9817019
vn 0.1754665 0.07397905 0.9817019
vn 0.2848841 0.1539607 0.9461169
vn 0.2848841 0.1539607 0.9461169
vn 0.2848841 0.1539607 0.9461169
vn 0.2848841 0.1539607 0.9461169
vn 0.2848841 0.1539607 0.9461169
vn 0.2848841 0.1539607 0.9461169
vn 0.3960461 0.2351577 0.8876082
vn 0.3960461 0.2351577 0.8876082
vn 0.3960461 0.2351577 0.8876082
vn 0.3960461 0.2351577 0.8876082
vn 0.3960461 0.2351577 0.8876082
vn 0.3960461 0.2351577 0.8876082
vn 0.2428408 0.07395602 0.967243
vn 0.2428408 0.07395602 0.967243
vn 0.2428408 0.07395602 0.967243
vn 0.2428408 0.07395602 0.967243
vn 0.2428408 0.07395602 0.967243
vn 0.2428408 0.07395602 0.967243
vn 0.2428408 0.07395602 0.967243
vn 0.2428408 0.07395602 0.967243
vn 0.2428408 0.07395602 0.967243
vn 0.2890823 -4.18451E-08 0.9573042
vn 0.2890823 -4.18451E-08 0.9573042
vn 0.2890823 -4.18451E-08 0.9573042
vn 0.2890823 -4.18451E-08 0.9573042
vn 0.2890823 -4.18451E-08 0.9573042
vn 0.2890823 -4.18451E-08 0.9573042
vn 0.2890823 -4.18451E-08 0.9573042
vn 0.2890823 -4.18451E-08 0.9573042
vn 0.2890823 -4.18451E-08 0.9573042
vn 0.2428423 -0.07395612 0.9672425
vn 0.2428423 -0.07395612 0.9672425
vn 0.2428423 -0.07395612 0.9672425
vn 0.3614759 0.1539151 0.9195898
vn 0.3614759 0.1539151 0.9195898
vn 0.3614759 0.1539151 0.9195898
vn -0.8953121 0.4365599 -0.08849775
vn -0.8953121 0.4365599 -0.08849775
vn -0.8953121 0.4365599 -0.08849775
vn -0.8953121 0.4365599 -0.08849775
vn -0.8953121 0.4365599 -0.08849775
vn -0.8953121 0.4365599 -0.08849775
vn -0.8953121 0.4365599 -0.08849775
vn -0.8953121 0.4365599 -0.08849775
vn -0.8953121 0.4365599 -0.08849775
vn -0.8953121 0.4365599 -0.08849775
vn -0.8953121 0.4365599 -0.08849775
vn -0.8953121 0.4365599 -0.08849775
vn 0.8913812 -0.4267785 0.1526423
vn 0.8913812 -0.4267785 0.1526423
vn 0.8913812 -0.4267785 0.1526423
vn 0.8913812 -0.4267785 0.1526423
vn 0.8913812 -0.4267785 0.1526423
vn 0.8913812 -0.4267785 0.1526423
vn 0.8913812 -0.4267785 0.1526423
vn 0.8913812 -0.4267785 0.1526423
vn 0.8913812 -0.4267785 0.1526423
vn 0.8913812 -0.4267785 0.1526423
vn 0.8913812 -0.4267785 0.1526423
vn 0.8913812 -0.4267785 0.1526423
vn 0.8913812 -0.4267785 0.1526423
vn 0.8913812 -0.4267785 0.1526423
vn 0.8913812 -0.4267785 0.1526423
vn 0.8913812 -0.4267785 0.1526423
vn 0.8913812 -0.4267785 0.1526423
vn 0.8913812 -0.4267785 0.1526423
vn -0.9902137 -0.130855 0.04851574
vn -0.9902137 -0.130855 0.04851574
vn -0.9902137 -0.130855 0.04851574
vn -0.5440469 0.8374435 0.05197576
vn -0.5440469 0.8374435 0.05197576
vn -0.5440469 0.8374435 0.05197576
vn -0.5440469 0.8374435 0.05197576
vn -0.5440469 0.8374435 0.05197576
vn -0.5440469 0.8374435 0.05197576
vn -0.5440469 0.8374435 0.05197576
vn -0.5440469 0.8374435 0.05197576
vn -0.5440469 0.8374435 0.05197576
vn -0.890492 -0.4251491 0.162087
vn -0.890492 -0.4251491 0.162087
vn -0.890492 -0.4251491 0.162087
vn -0.890492 -0.4251491 0.162087
vn -0.890492 -0.4251491 0.162087
vn -0.890492 -0.4251491 0.162087
vn -0.2353786 -0.3912598 -0.8896701
vn -0.2353786 -0.3912598 -0.8896701
vn -0.2353786 -0.3912598 -0.8896701
vn -0.2353786 -0.3912598 -0.8896701
vn -0.2353786 -0.3912598 -0.8896701
vn -0.2353786 -0.3912598 -0.8896701
vn -0.2353786 -0.3912598 -0.8896701
vn -0.2353786 -0.3912598 -0.8896701
vn -0.2353786 -0.3912598 -0.8896701
vn -0.2353786 -0.3912598 -0.8896701
vn -0.2353786 -0.3912598 -0.8896701
vn -0.2353786 -0.3912598 -0.8896701
vn -0.2353786 -0.3912598 -0.8896701
vn -0.2353786 -0.3912598 -0.8896701
vn -0.2353786 -0.3912598 -0.8896701
vn -0.2353786 -0.3912598 -0.8896701
vn -0.2353786 -0.3912598 -0.8896701
vn -0.2353786 -0.3912598 -0.8896701
vn -0.2353786 -0.3912598 -0.8896701
vn -0.2353786 -0.3912598 -0.8896701
vn -0.2353786 -0.3912598 -0.8896701
vn -0.2353786 -0.3912598 -0.8896701
vn -0.2353786 -0.3912598 -0.8896701
vn -0.2353786 -0.3912598 -0.8896701
vn -0.8867637 -0.03152029 0.4611473
vn -0.8867637 -0.03152029 0.4611473
vn -0.8867637 -0.03152029 0.4611473
vn -0.8867637 -0.03152029 0.4611473
vn -0.8867637 -0.03152029 0.4611473
vn -0.8867637 -0.03152029 0.4611473
vn -0.8867637 -0.03152029 0.4611473
vn -0.8867637 -0.03152029 0.4611473
vn -0.8867637 -0.03152029 0.4611473
vn -0.8867637 -0.03152029 0.4611473
vn -0.8867637 -0.03152029 0.4611473
vn -0.8867637 -0.03152029 0.4611473
vn -0.8867637 -0.03152029 0.4611473
vn -0.8867637 -0.03152029 0.4611473
vn -0.8867637 -0.03152029 0.4611473
vn -0.8867637 -0.03152029 0.4611473
vn -0.8867637 -0.03152029 0.4611473
vn -0.8867637 -0.03152029 0.4611473
vn -0.8867637 -0.03152029 0.4611473
vn -0.8867637 -0.03152029 0.4611473
vn -0.8867637 -0.03152029 0.4611473
vn -0.8867637 -0.03152029 0.4611473
vn -0.8867637 -0.03152029 0.4611473
vn -0.8867637 -0.03152029 0.4611473
vn -0.8867637 -0.03152029 0.4611473
vn -0.8867637 -0.03152029 0.4611473
vn -0.8867637 -0.03152029 0.4611473
vn -0.8867637 -0.03152029 0.4611473
vn -0.8867637 -0.03152029 0.4611473
vn -0.8867637 -0.03152029 0.4611473
vn -0.8867637 -0.03152029 0.4611473
vn -0.8867637 -0.03152029 0.4611473
vn -0.8867637 -0.03152029 0.4611473
vn -0.8867637 -0.03152029 0.4611473
vn -0.8867637 -0.03152029 0.4611473
vn -0.8867637 -0.03152029 0.4611473
vn -0.514773 0.8462894 -0.1371246
vn -0.514773 0.8462894 -0.1371246
vn -0.514773 0.8462894 -0.1371246
vn -0.514773 0.8462894 -0.1371246
vn -0.514773 0.8462894 -0.1371246
vn -0.514773 0.8462894 -0.1371246
vn 0.3784327 -0.920709 0.09530979
vn 0.3784327 -0.920709 0.09530979
vn 0.3784327 -0.920709 0.09530979
vn 0.3784327 -0.920709 0.09530979
vn 0.3784327 -0.920709 0.09530979
vn 0.3784327 -0.920709 0.09530979
vn 0.3784327 -0.920709 0.09530979
vn 0.3784327 -0.920709 0.09530979
vn 0.3784327 -0.920709 0.09530979
vn 0.3784327 -0.920709 0.09530979
vn 0.3784327 -0.920709 0.09530979
vn 0.3784327 -0.920709 0.09530979
vn 0.3784327 -0.920709 0.09530979
vn 0.3784327 -0.920709 0.09530979
vn 0.3784327 -0.920709 0.09530979
vn -0.3177434 -0.9241658 -0.2120297
vn -0.3177434 -0.9241658 -0.2120297
vn -0.3177434 -0.9241658 -0.2120297
vn -0.5156852 0.6722661 -0.5311563
vn -0.5156852 0.6722661 -0.5311563
vn -0.5156852 0.6722661 -0.5311563
vn -0.5156852 0.6722661 -0.5311563
vn -0.5156852 0.6722661 -0.5311563
vn -0.5156852 0.6722661 -0.5311563
vn -0.5156852 0.6722661 -0.5311563
vn -0.5156852 0.6722661 -0.5311563
vn -0.5156852 0.6722661 -0.5311563
vn 0.8916135 0.3347088 -0.3049517
vn 0.8916135 0.3347088 -0.3049517
vn 0.8916135 0.3347088 -0.3049517
vn 0.8916135 0.3347088 -0.3049517
vn 0.8916135 0.3347088 -0.3049517
vn 0.8916135 0.3347088 -0.3049517
vn 0.8916135 0.3347088 -0.3049517
vn 0.8916135 0.3347088 -0.3049517
vn 0.8916135 0.3347088 -0.3049517
vn 0.8916135 0.3347088 -0.3049517
vn 0.8916135 0.3347088 -0.3049517
vn 0.8916135 0.3347088 -0.3049517
vn 0.8916135 0.3347088 -0.3049517
vn 0.8916135 0.3347088 -0.3049517
vn 0.8916135 0.3347088 -0.3049517
vn -0.2704788 0.9623077 0.02837823
vn -0.2704788 0.9623077 0.02837823
vn -0.2704788 0.9623077 0.02837823
vn -0.2704788 0.9623077 0.02837823
vn -0.2704788 0.9623077 0.02837823
vn -0.2704788 0.9623077 0.02837823
vn -0.2704788 0.9623077 0.02837823
vn -0.2704788 0.9623077 0.02837823
vn -0.2704788 0.9623077 0.02837823
vn -0.2704788 0.9623077 0.02837823
vn -0.2704788 0.9623077 0.02837823
vn -0.2704788 0.9623077 0.02837823
vn -0.2704788 0.9623077 0.02837823
vn -0.2704788 0.9623077 0.02837823
vn -0.2704788 0.9623077 0.02837823
vn -0.2704788 0.9623077 0.02837823
vn -0.2704788 0.9623077 0.02837823
vn -0.2704788 0.9623077 0.02837823
vn 0.0948507 0.8229585 -0.5601275
vn 0.0948507 0.8229585 -0.5601275
vn 0.0948507 0.8229585 -0.5601275
vn 0.0948507 0.8229585 -0.5601275
vn 0.0948507 0.8229585 -0.5601275
vn 0.0948507 0.8229585 -0.5601275

vt 0.3409227 0.4330167
vt 0.3409169 0.433031
vt 0.3409087 0.4330167
vt 0.3409227 0.4330167
vt 0.3409087 0.4330167
vt 0.3409971 0.4328637
vt 0.3505721 0.4133341
vt 0.3409971 0.4328637
vt 0.3295451 0.4133341
vt 0.3295451 0.4133341
vt 0.3409971 0.4328637
vt 0.3409087 0.4330167
vt 0.3382047 0.3983352
vt 0.3462747 0.4048903
vt 0.3295451 0.4133341
vt 0.3295451 0.4133341
vt 0.3462747 0.4048903
vt 0.3505721 0.4133341
vt 0.3505721 0.4133341
vt 0.3462747 0.4048903
vt 0.3511211 0.4123639
vt 0.3194351 0.3958229
vt 0.3214889 0.3936515
vt 0.3295451 0.4133341
vt 0.3295451 0.4133341
vt 0.3214889 0.3936515
vt 0.3382047 0.3983352
vt 0.3382047 0.3983352
vt 0.3214889 0.3936515
vt 0.3329746 0.3936515
vt 0.3269053 0.3882004
vt 0.3329746 0.3936515
vt 0.3214889 0.3936515
vt 0.2045371 0.433031
vt 0.204311 0.4330167
vt 0.2045453 0.4330167
vt 0.2045453 0.4330167
vt 0.1937829 0.4143755
vt 0.2159089 0.4133341
vt 0.2159089 0.4133341
vt 0.1937829 0.4143755
vt 0.195319 0.4133341
vt 0.2102629 0.403555
vt 0.2221097 0.3945857
vt 0.2159089 0.4133341
vt 0.2159089 0.4133341
vt 0.2221097 0.3945857
vt 0.2260188 0.3958229
vt 0.1937829 0.4143755
vt 0.2045453 0.4330167
vt 0.1919723 0.4154287
vt 0.1919723 0.4154287
vt 0.2045453 0.4330167
vt 0.1825133 0.4318124
vt 0.1825133 0.4318124
vt 0.2045453 0.4330167
vt 0.204311 0.4330167
vt 0.1919723 0.4154287
vt 0.1825133 0.4318124
vt 0.1770458 0.4241199
vt 0.1770458 0.4241199
vt 0.1825133 0.4318124
vt 0.1769135 0.4245218
vt 0.1769135 0.4245218
vt 0.1825133 0.4318124
vt 0.1810937 0.4317622
vt 0.1740769 0.431675
vt 0.1769135 0.4245218
vt 0.1810937 0.4317622
vt 0.2159089 0.4133341
vt 0.195319 0.4133341
vt 0.2102629 0.403555
vt 0.4662316 0.5372888
vt 0.4492431 0.5285321
vt 0.4958349 0.5130343
vt 0.4958349 0.5130343
vt 0.4492431 0.5285321
vt 0.4969881 0.5032369
vt 0.4969881 0.5032369
vt 0.4492431 0.5285321
vt 0.4925534 0.4853483
vt 0.4925534 0.4853483
vt 0.4492431 0.5285321
vt 0.4516574 0.5176096
vt 0.4314437 0.6251752
vt 0.3141838 0.4248433
vt 0.6559879 0.5082153
vt 0.6559879 0.5082153
vt 0.3141838 0.4248433
vt 0.6611819 0.3220733
vt 0.6611819 0.3220733
vt 0.3141838 0.4248433
vt 0.5467535 0.3378336
vt 0.5467535 0.3378336
vt 0.3141838 0.4248433
vt 0.5333464 0.3403134
vt 0.5333464 0.3403134
vt 0.3141838 0.4248433
vt 0.5214958 0.3437402
vt 0.5214958 0.3437402
vt 0.3141838 0.4248433
vt 0.4055344 0.3830893
vt 0.5144359 0.533698
vt 0.5761552 0.5462425
vt 0.5736144 0.5571088
vt 0.3806095 0.5142906
vt 0.4764603 0.347331
vt 0.3852176 0.5320948
vt 0.3852176 0.5320948
vt 0.4764603 0.347331
vt 0.5222552 0.5107279
vt 0.5222552 0.5107279
vt 0.4764603 0.347331
vt 0.5322776 0.370437
vt 0.3784953 0.498371
vt 0.3443074 0.4239526
vt 0.5373404 0.5409172
vt 0.5373404 0.5409172
vt 0.3443074 0.4239526
vt 0.3516906 0.3377539
vt 0.8631311 0.3204607
vt 0.9457577 0.432489
vt 0.8041589 0.2520755
vt 0.8041589 0.2520755
vt 0.9457577 0.432489
vt 0.5095044 0.05337496
vt 0.5095044 0.05337496
vt 0.9457577 0.432489
vt 0.3742154 0.09002864
vt 0.3742154 0.09002864
vt 0.9457577 0.432489
vt 0.3012455 0.1919689
vt 0.3012455 0.1919689
vt 0.9457577 0.432489
vt 0.3089053 0.7398943
vt 0.3089053 0.7398943
vt 0.9457577 0.432489
vt 0.5486754 0.9164358
vt 0.5486754 0.9164358
vt 0.9457577 0.432489
vt 0.6911274 0.8637077
vt 0.6911274 0.8637077
vt 0.9457577 0.432489
vt 0.9473235 0.4741586
vt 0.5005039 0.3563503
vt 0.5016384 0.356594
vt 0.5004101 0.3563315
vt 0.5004101 0.3563315
vt 0.5016384 0.356594
vt 0.4987788 0.356219
vt 0.4987788 0.356219
vt 0.5016384 0.356594
vt 0.3419401 0.3456762
vt 0.3419401 0.3456762
vt 0.5016384 0.356594
vt 0.3311113 0.3457887
vt 0.3311113 0.3457887
vt 0.5016384 0.356594
vt 0.2806334 0.3500874
vt 0.2806334 0.3500874
vt 0.5016384 0.356594
vt 0.2784255 0.3585488
vt 0.2784255 0.3585488
vt 0.5016384 0.356594
vt 0.4531949 0.6098087
vt 0.4531949 0.6098087
vt 0.5016384 0.356594
vt 0.4959849 0.6279128
vt 0.4959849 0.6279128
vt 0.5016384 0.356594
vt 0.5650639 0.6438137
vt 0.5650639 0.6438137
vt 0.5016384 0.356594
vt 0.6071038 0.6031614
vt 0.6071038 0.6031614
vt 0.5016384 0.356594
vt 0.6542441 0.391682
vt 0.6542441 0.391682
vt 0.5016384 0.356594
vt 0.6465186 0.389324
vt 0.5597292 0.5469925
vt 0.3782844 0.5066777
vt 0.5169111 0.475054
vt 0.5169111 0.475054
vt 0.3782844 0.5066777
vt 0.3787859 0.4967678
vt 0.5645857 0.5128374
vt 0.587312 0.3293675
vt 0.617942 0.4913862
vt 0.617942 0.4913862
vt 0.587312 0.3293675
vt 0.6531471 0.410555
vt 0.6531471 0.410555
vt 0.587312 0.3293675
vt 0.6397213 0.3258469
vt 0.6397213 0.3258469
vt 0.587312 0.3293675
vt 0.6357743 0.3191247
vt 0.6357743 0.3191247
vt 0.587312 0.3293675
vt 0.5898435 0.3286456
vt 0.4793761 0.4315843
vt 0.5114921 0.3477107
vt 0.5443721 0.423587
vt 0.5936593 0.465491
vt 0.6014316 0.4710694
vt 0.3834549 0.4103956
vt 0.3834549 0.4103956
vt 0.6014316 0.4710694
vt 0.3534298 0.4439085
vt 0.3534298 0.4439085
vt 0.6014316 0.4710694
vt 0.5777865 0.5570431
vt 0.3597348 0.3684447
vt 0.3796719 0.3651211
vt 0.3084131 0.3806001
vt 0.3084131 0.3806001
vt 0.3796719 0.3651211
vt 0.3027878 0.4864453
vt 0.3027878 0.4864453
vt 0.3796719 0.3651211
vt 0.3780406 0.6191092
vt 0.3780406 0.6191092
vt 0.3796719 0.3651211
vt 0.5149047 0.5785412
vt 0.5149047 0.5785412
vt 0.3796719 0.3651211
vt 0.4077376 0.36281
vt 0.465205 0.5063402
vt 0.4769338 0.3663211
vt 0.5086887 0.5769849
vt 0.5086887 0.5769849
vt 0.4769338 0.3663211
vt 0.5157391 0.5809882
vt 0.5157391 0.5809882
vt 0.4769338 0.3663211
vt 0.6040193 0.5333323
vt 0.6040193 0.5333323
vt 0.4769338 0.3663211
vt 0.6351179 0.4372518
vt 0.6351179 0.4372518
vt 0.4769338 0.3663211
vt 0.5857651 0.4102034
vt 0.5857651 0.4102034
vt 0.4769338 0.3663211
vt 0.5433502 0.3902241
vt 0.4469696 0.5400828
vt 0.4318656 0.4501432
vt 0.5291462 0.5560962
vt 0.5291462 0.5560962
vt 0.4318656 0.4501432
vt 0.5310588 0.3807595

usemtl Material0
usemap Material0
f 1/1/1 2/2/2 3/3/3
f 4/4/4 5/5/5 6/6/6
f 7/7/7 8/8/8 9/9/9
f 10/10/10 11/11/11 12/12/12
f 13/13/13 14/14/14 15/15/15
f 16/16/16 17/17/17 18/18/18
f 19/19/19 20/20/20 21/21/21
f 22/22/22 23/23/23 24/24/24
f 25/25/25 26/26/26 27/27/27
f 28/28/28 29/29/29 30/30/30
f 31/31/31 32/32/32 33/33/33
f 34/34/34 35/35/35 36/36/36
f 37/37/37 38/38/38 39/39/39
f 40/40/40 41/41/41 42/42/42
f 43/43/43 44/44/44 45/45/45
f 46/46/46 47/47/47 48/48/48
f 49/49/49 50/50/50 51/51/51
f 52/52/52 53/53/53 54/54/54
f 55/55/55 56/56/56 57/57/57
f 58/58/58 59/59/59 60/60/60
f 61/61/61 62/62/62 63/63/63
f 64/64/64 65/65/65 66/66/66
f 67/67/67 68/68/68 69/69/69
f 70/70/70 71/71/71 72/72/72

usemtl Material1
usemap Material1
f 73/73/73 74/74/74 75/75/75
f 76/76/76 77/77/77 78/78/78
f 79/79/79 80/80/80 81/81/81
f 82/82/82 83/83/83 84/84/84
f 85/85/85 86/86/86 87/87/87
f 88/88/88 89/89/89 90/90/90
f 91/91/91 92/92/92 93/93/93
f 94/94/94 95/95/95 96/96/96
f 97/97/97 98/98/98 99/99/99
f 100/100/100 101/101/101 102/102/102
f 103/103/103 104/104/104 105/105/105
f 106/106/106 107/107/107 108/108/108
f 109/109/109 110/110/110 111/111/111
f 112/112/112 113/113/113 114/114/114
f 115/115/115 116/116/116 117/117/117
f 118/118/118 119/119/119 120/120/120
f 121/121/121 122/122/122 123/123/123
f 124/124/124 125/125/125 126/126/126
f 127/127/127 128/128/128 129/129/129
f 130/130/130 131/131/131 132/132/132
f 133/133/133 134/134/134 135/135/135
f 136/136/136 137/137/137 138/138/138
f 139/139/139 140/140/140 141/141/141
f 142/142/142 143/143/143 144/144/144
f 145/145/145 146/146/146 147/147/147
f 148/148/148 149/149/149 150/150/150
f 151/151/151 152/152/152 153/153/153
f 154/154/154 155/155/155 156/156/156
f 157/157/157 158/158/158 159/159/159
f 160/160/160 161/161/161 162/162/162
f 163/163/163 164/164/164 165/165/165
f 166/166/166 167/167/167 168/168/168
f 169/169/169 170/170/170 171/171/171
f 172/172/172 173/173/173 174/174/174
f 175/175/175 176/176/176 177/177/177
f 178/178/178 179/179/179 180/180/180
f 181/181/181 182/182/182 183/183/183
f 184/184/184 185/185/185 186/186/186
f 187/187/187 188/188/188 189/189/189
f 190/190/190 191/191/191 192/192/192
f 193/193/193 194/194/194 195/195/195
f 196/196/196 197/197/197 198/198/198
f 199/199/199 200/200/200 201/201/201
f 202/202/202 203/203/203 204/204/204
f 205/205/205 206/206/206 207/207/207
f 208/208/208 209/209/209 210/210/210
f 211/211/211 212/212/212 213/213/213
f 214/214/214 215/215/215 216/216/216
f 217/217/217 218/218/218 219/219/219
f 220/220/220 221/221/221 222/222/222
f 223/223/223 224/224/224 225/225/225
f 226/226/226 227/227/227 228/228/228
f 229/229/229 230/230/230 231/231/231
f 232/232/232 233/233/233 234/234/234
f 235/235/235 236/236/236 237/237/237
f 238/238/238 239/239/239 240/240/240
f 241/241/241 242/242/242 243/243/243
f 244/244/244 245/245/245 246/246/246
f 247/247/247 248/248/248 249/249/249
f 250/250/250 251/251/251 252/252/252
