g  Instance
v 2.065481 -53.60323 -1.033876
v 2.112459 -53.66552 -1.012162
v 2.155498 -53.82339 -3.439488
v 2.155498 -53.82339 -3.439488
v 2.112459 -53.66552 -1.012162
v 2.570143 -54.36333 -3.007888
v 1.701315 -54.95753 -0.5121641
v 1.766913 -54.54969 -0.4560587
v 1.392467 -54.7682 -0.3968426
v 1.392467 -54.7682 -0.3968426
v 1.766913 -54.54969 -0.4560587
v 1.327154 -54.56094 -0.3423724
v 1.904413 -55.67192 -1.670422
v 1.136849 -55.54887 -2.021436
v 2.307725 -55.01926 -2.575035
v 2.307725 -55.01926 -2.575035
v 1.136849 -55.54887 -2.021436
v 0.820308 -55.19273 -2.629863
v 1.264182 -54.02974 -3.399879
v 2.155498 -53.82339 -3.439488
v 0.4976841 -54.83821 -2.919264
v 0.4976841 -54.83821 -2.919264
v 2.155498 -53.82339 -3.439488
v 0.820308 -55.19273 -2.629863
v 0.820308 -55.19273 -2.629863
v 2.155498 -53.82339 -3.439488
v 2.307725 -55.01926 -2.575035
v 2.307725 -55.01926 -2.575035
v 2.155498 -53.82339 -3.439488
v 2.570143 -54.36333 -3.007888
v 2.155498 -53.82339 -3.439488
v 1.264182 -54.02974 -3.399879
v 2.065481 -53.60323 -1.033876
v 2.065481 -53.60323 -1.033876
v 1.264182 -54.02974 -3.399879
v 0.5768757 -53.90193 -0.5100555
v 0.5768757 -53.90193 -0.5100555
v 1.264182 -54.02974 -3.399879
v 0.0829861 -54.08419 -1.164904
v 1.327154 -54.56094 -0.3423724
v 1.766913 -54.54969 -0.4560587
v 0.6819423 -54.03211 -0.4663672
v 0.6819423 -54.03211 -0.4663672
v 1.766913 -54.54969 -0.4560587
v 0.5768757 -53.90193 -0.5100555
v 0.5768757 -53.90193 -0.5100555
v 1.766913 -54.54969 -0.4560587
v 2.065481 -53.60323 -1.033876
v 2.065481 -53.60323 -1.033876
v 1.766913 -54.54969 -0.4560587
v 2.112459 -53.66552 -1.012162
v 1.136849 -55.54887 -2.021436
v 1.904413 -55.67192 -1.670422
v 0.4251563 -54.80452 -1.190409
v 0.4251563 -54.80452 -1.190409
v 1.904413 -55.67192 -1.670422
v 0.8321041 -54.68729 -0.6694808
v 0.8321041 -54.68729 -0.6694808
v 1.904413 -55.67192 -1.670422
v 1.392467 -54.7682 -0.3968426
v 1.392467 -54.7682 -0.3968426
v 1.904413 -55.67192 -1.670422
v 1.701315 -54.95753 -0.5121641
v 1.327154 -54.56094 -0.3423724
v 0.6819423 -54.03211 -0.4663672
v 1.392467 -54.7682 -0.3968426
v 1.392467 -54.7682 -0.3968426
v 0.6819423 -54.03211 -0.4663672
v 0.8321041 -54.68729 -0.6694808
v 0.5768757 -53.90193 -0.5100555
v 0.0829861 -54.08419 -1.164904
v 0.6819423 -54.03211 -0.4663672
v 0.6819423 -54.03211 -0.4663672
v 0.0829861 -54.08419 -1.164904
v 0.8321041 -54.68729 -0.6694808
v 0.8321041 -54.68729 -0.6694808
v 0.0829861 -54.08419 -1.164904
v 0.4251563 -54.80452 -1.190409
v 0.4251563 -54.80452 -1.190409
v 0.0829861 -54.08419 -1.164904
v 0.02025087 -54.3637 -1.393193
v 0.4251563 -54.80452 -1.190409
v 0.02025087 -54.3637 -1.393193
v 1.136849 -55.54887 -2.021436
v 1.136849 -55.54887 -2.021436
v 0.02025087 -54.3637 -1.393193
v 0.820308 -55.19273 -2.629863
v 0.820308 -55.19273 -2.629863
v 0.02025087 -54.3637 -1.393193
v 0.4976841 -54.83821 -2.919264
v 2.307725 -55.01926 -2.575035
v 2.570143 -54.36333 -3.007888
v 1.904413 -55.67192 -1.670422
v 1.904413 -55.67192 -1.670422
v 2.570143 -54.36333 -3.007888
v 1.701315 -54.95753 -0.5121641
v 1.701315 -54.95753 -0.5121641
v 2.570143 -54.36333 -3.007888
v 1.766913 -54.54969 -0.4560587
v 1.766913 -54.54969 -0.4560587
v 2.570143 -54.36333 -3.007888
v 2.112459 -53.66552 -1.012162
v 0.0829861 -54.08419 -1.164904
v 1.264182 -54.02974 -3.399879
v 0.02025087 -54.3637 -1.393193
v 0.02025087 -54.3637 -1.393193
v 1.264182 -54.02974 -3.399879
v 0.4976841 -54.83821 -2.919264

vn 0.8022651 0.5964623 -0.02456729
vn 0.8022651 0.5964623 -0.02456729
vn 0.8022651 0.5964623 -0.02456729
vn 0.8022651 0.5964623 -0.02456729
vn 0.8022651 0.5964623 -0.02456729
vn 0.8022651 0.5964623 -0.02456729
vn 0.2506928 -0.1713928 0.9527737
vn 0.2506928 -0.1713928 0.9527737
vn 0.2506928 -0.1713928 0.9527737
vn 0.2506928 -0.1713928 0.9527737
vn 0.2506928 -0.1713928 0.9527737
vn 0.2506928 -0.1713928 0.9527737
vn 0.1168646 -0.8294041 -0.5462888
vn 0.1168646 -0.8294041 -0.5462888
vn 0.1168646 -0.8294041 -0.5462888
vn 0.1168646 -0.8294041 -0.5462888
vn 0.1168646 -0.8294041 -0.5462888
vn 0.1168646 -0.8294041 -0.5462888
vn 0.0969977 -0.5749336 -0.8124301
vn 0.0969977 -0.5749336 -0.8124301
vn 0.0969977 -0.5749336 -0.8124301
vn 0.0969977 -0.5749336 -0.8124301
vn 0.0969977 -0.5749336 -0.8124301
vn 0.0969977 -0.5749336 -0.8124301
vn 0.0969977 -0.5749336 -0.8124301
vn 0.0969977 -0.5749336 -0.8124301
vn 0.0969977 -0.5749336 -0.8124301
vn 0.0969977 -0.5749336 -0.8124301
vn 0.0969977 -0.5749336 -0.8124301
vn 0.0969977 -0.5749336 -0.8124301
vn -0.2285727 0.9686621 -0.0972027
vn -0.2285727 0.9686621 -0.0972027
vn -0.2285727 0.9686621 -0.0972027
vn -0.2285727 0.9686621 -0.0972027
vn -0.2285727 0.9686621 -0.0972027
vn -0.2285727 0.9686621 -0.0972027
vn -0.2285727 0.9686621 -0.0972027
vn -0.2285727 0.9686621 -0.0972027
vn -0.2285727 0.9686621 -0.0972027
vn 0.211208 0.4599147 0.8624789
vn 0.211208 0.4599147 0.8624789
vn 0.211208 0.4599147 0.8624789
vn 0.211208 0.4599147 0.8624789
vn 0.211208 0.4599147 0.8624789
vn 0.211208 0.4599147 0.8624789
vn 0.211208 0.4599147 0.8624789
vn 0.211208 0.4599147 0.8624789
vn 0.211208 0.4599147 0.8624789
vn 0.211208 0.4599147 0.8624789
vn 0.211208 0.4599147 0.8624789
vn 0.211208 0.4599147 0.8624789
vn -0.3383884 -0.8262766 0.4502891
vn -0.3383884 -0.8262766 0.4502891
vn -0.3383884 -0.8262766 0.4502891
vn -0.3383884 -0.8262766 0.4502891
vn -0.3383884 -0.8262766 0.4502891
vn -0.3383884 -0.8262766 0.4502891
vn -0.3383884 -0.8262766 0.4502891
vn -0.3383884 -0.8262766 0.4502891
vn -0.3383884 -0.8262766 0.4502891
vn -0.3383884 -0.8262766 0.4502891
vn -0.3383884 -0.8262766 0.4502891
vn -0.3383884 -0.8262766 0.4502891
vn -0.4498646 -0.356901 0.818684
vn -0.4498646 -0.356901 0.818684
vn -0.4498646 -0.356901 0.818684
vn -0.4498646 -0.356901 0.818684
vn -0.4498646 -0.356901 0.818684
vn -0.4498646 -0.356901 0.818684
vn -0.6970402 -0.3531931 0.624011
vn -0.6970402 -0.3531931 0.624011
vn -0.6970402 -0.3531931 0.624011
vn -0.6970402 -0.3531931 0.624011
vn -0.6970402 -0.3531931 0.624011
vn -0.6970402 -0.3531931 0.624011
vn -0.6970402 -0.3531931 0.624011
vn -0.6970402 -0.3531931 0.624011
vn -0.6970402 -0.3531931 0.624011
vn -0.6970402 -0.3531931 0.624011
vn -0.6970402 -0.3531931 0.624011
vn -0.6970402 -0.3531931 0.624011
vn -0.7323342 -0.6807215 -0.01746089
vn -0.7323342 -0.6807215 -0.01746089
vn -0.7323342 -0.6807215 -0.01746089
vn -0.7323342 -0.6807215 -0.01746089
vn -0.7323342 -0.6807215 -0.01746089
vn -0.7323342 -0.6807215 -0.01746089
vn -0.7323342 -0.6807215 -0.01746089
vn -0.7323342 -0.6807215 -0.01746089
vn -0.7323342 -0.6807215 -0.01746089
vn 0.9403668 -0.1900628 0.2821109
vn 0.9403668 -0.1900628 0.2821109
vn 0.9403668 -0.1900628 0.2821109
vn 0.9403668 -0.1900628 0.2821109
vn 0.9403668 -0.1900628 0.2821109
vn 0.9403668 -0.1900628 0.2821109
vn 0.9403668 -0.1900628 0.2821109
vn 0.9403668 -0.1900628 0.2821109
vn 0.9403668 -0.1900628 0.2821109
vn 0.9403668 -0.1900628 0.2821109
vn 0.9403668 -0.1900628 0.2821109
vn 0.9403668 -0.1900628 0.2821109
vn -0.772261 0.4967511 -0.3960445
vn -0.772261 0.4967511 -0.3960445
vn -0.772261 0.4967511 -0.3960445
vn -0.772261 0.4967511 -0.3960445
vn -0.772261 0.4967511 -0.3960445
vn -0.772261 0.4967511 -0.3960445

vt 0.4466461 0.4035608
vt 0.45432 0.4014232
vt 0.4693021 0.6401948
vt 0.4693021 0.6401948
vt 0.45432 0.4014232
vt 0.5362435 0.5977423
vt 0.459139 0.5149563
vt 0.5009164 0.5080746
vt 0.4801356 0.5473582
vt 0.4801356 0.5473582
vt 0.5009164 0.5080746
vt 0.5018352 0.5542117
vt 0.4871485 0.3866942
vt 0.5743456 0.4358783
vt 0.4295873 0.5134562
vt 0.4295873 0.5134562
vt 0.5743456 0.4358783
vt 0.6053037 0.5211348
vt 0.5521538 0.7006952
vt 0.3981699 0.7121521
vt 0.7022656 0.5617121
vt 0.7022656 0.5617121
vt 0.3981699 0.7121521
vt 0.6585755 0.4780261
vt 0.6585755 0.4780261
vt 0.3981699 0.7121521
vt 0.406411 0.4621673
vt 0.406411 0.4621673
vt 0.3981699 0.7121521
vt 0.3443777 0.5873449
vt 0.5467628 0.637354
vt 0.456392 0.6334257
vt 0.5431064 0.3985965
vt 0.5431064 0.3985965
vt 0.456392 0.6334257
vt 0.3932196 0.3466091
vt 0.3932196 0.3466091
vt 0.456392 0.6334257
vt 0.3416025 0.4116004
vt 0.4347532 0.289512
vt 0.5114733 0.3331505
vt 0.2779848 0.337107
vt 0.2779848 0.337107
vt 0.5114733 0.3331505
vt 0.2488831 0.3538751
vt 0.2488831 0.3538751
vt 0.5114733 0.3331505
vt 0.4874485 0.5549336
vt 0.4874485 0.5549336
vt 0.5114733 0.3331505
vt 0.5007945 0.5465988
vt 0.5005883 0.565003
vt 0.4172491 0.5217161
vt 0.6041599 0.4625236
vt 0.6041599 0.4625236
vt 0.4172491 0.5217161
vt 0.5675859 0.3982871
vt 0.5675859 0.3982871
vt 0.4172491 0.5217161
vt 0.5071137 0.3646711
vt 0.5071137 0.3646711
vt 0.4172491 0.5217161
vt 0.4677458 0.3788938
vt 0.511042 0.3912132
vt 0.6506157 0.428181
vt 0.4762916 0.4074517
vt 0.4762916 0.4074517
vt 0.6506157 0.428181
vt 0.5467722 0.4887329
vt 0.6120822 0.4145349
vt 0.6197139 0.5199628
vt 0.5914935 0.4074985
vt 0.5914935 0.4074985
vt 0.6197139 0.5199628
vt 0.50942 0.4402004
vt 0.50942 0.4402004
vt 0.6197139 0.5199628
vt 0.519405 0.5240693
vt 0.519405 0.5240693
vt 0.6197139 0.5199628
vt 0.5919061 0.556715
vt 0.5477847 0.4187586
vt 0.606635 0.4387003
vt 0.4465383 0.5004805
vt 0.4465383 0.5004805
vt 0.606635 0.4387003
vt 0.4933785 0.5603152
vt 0.4933785 0.5603152
vt 0.606635 0.4387003
vt 0.5405093 0.58877
vt 0.5378936 0.5774724
vt 0.4666723 0.6237032
vt 0.6116228 0.4808481
vt 0.6116228 0.4808481
vt 0.4666723 0.6237032
vt 0.543997 0.3571331
vt 0.543997 0.3571331
vt 0.4666723 0.6237032
vt 0.501704 0.3511422
vt 0.501704 0.3511422
vt 0.4666723 0.6237032
vt 0.4058813 0.4105315
vt 0.4261512 0.3527969
vt 0.4994726 0.6133901
vt 0.3973495 0.3794094
vt 0.3973495 0.3794094
vt 0.4994726 0.6133901
vt 0.3822783 0.5573525

usemtl Material0
usemap Material0

usemtl Material1
usemap Material1
f 1/1/1 2/2/2 3/3/3
f 4/4/4 5/5/5 6/6/6
f 7/7/7 8/8/8 9/9/9
f 10/10/10 11/11/11 12/12/12
f 13/13/13 14/14/14 15/15/15
f 16/16/16 17/17/17 18/18/18
f 19/19/19 20/20/20 21/21/21
f 22/22/22 23/23/23 24/24/24
f 25/25/25 26/26/26 27/27/27
f 28/28/28 29/29/29 30/30/30
f 31/31/31 32/32/32 33/33/33
f 34/34/34 35/35/35 36/36/36
f 37/37/37 38/38/38 39/39/39
f 40/40/40 41/41/41 42/42/42
f 43/43/43 44/44/44 45/45/45
f 46/46/46 47/47/47 48/48/48
f 49/49/49 50/50/50 51/51/51
f 52/52/52 53/53/53 54/54/54
f 55/55/55 56/56/56 57/57/57
f 58/58/58 59/59/59 60/60/60
f 61/61/61 62/62/62 63/63/63
f 64/64/64 65/65/65 66/66/66
f 67/67/67 68/68/68 69/69/69
f 70/70/70 71/71/71 72/72/72
f 73/73/73 74/74/74 75/75/75
f 76/76/76 77/77/77 78/78/78
f 79/79/79 80/80/80 81/81/81
f 82/82/82 83/83/83 84/84/84
f 85/85/85 86/86/86 87/87/87
f 88/88/88 89/89/89 90/90/90
f 91/91/91 92/92/92 93/93/93
f 94/94/94 95/95/95 96/96/96
f 97/97/97 98/98/98 99/99/99
f 100/100/100 101/101/101 102/102/102
f 103/103/103 104/104/104 105/105/105
f 106/106/106 107/107/107 108/108/108
