g  Instance
v 2.662837 -45.44973 -0.7761544
v 2.741306 -45.83961 -0.249913
v 2.639071 -45.69449 -0.7856565
v 2.639071 -45.69449 -0.7856565
v 2.741306 -45.83961 -0.249913
v 2.672297 -46.49051 -0.3022051
v 2.672297 -46.49051 -0.3022051
v 2.741306 -45.83961 -0.249913
v 2.708076 -46.48956 -0.1360852
v 1.078999 -46.71034 -0.5992671
v 1.062138 -46.70826 -0.5965497
v 2.639071 -45.69449 -0.7856565
v 2.639071 -45.69449 -0.7856565
v 1.062138 -46.70826 -0.5965497
v 2.662837 -45.44973 -0.7761544
v 2.662837 -45.44973 -0.7761544
v 1.062138 -46.70826 -0.5965497
v 2.505505 -44.4437 -0.6976913
v 2.505505 -44.4437 -0.6976913
v 1.062138 -46.70826 -0.5965497
v 0.5105814 -43.57984 -0.3429282
v 0.5105814 -43.57984 -0.3429282
v 1.062138 -46.70826 -0.5965497
v -0.5808454 -44.25024 -0.2103615
v -0.5808454 -44.25024 -0.2103615
v 1.062138 -46.70826 -0.5965497
v -0.6348773 -45.60155 -0.2747487
v -0.6348773 -45.60155 -0.2747487
v 1.062138 -46.70826 -0.5965497
v -0.5830734 -46.03783 -0.3062374
v -0.5830734 -46.03783 -0.3062374
v 1.062138 -46.70826 -0.5965497
v -0.5239645 -46.11572 -0.3195636
v -0.5239645 -46.11572 -0.3195636
v 1.062138 -46.70826 -0.5965497
v -0.5094653 -46.13317 -0.3227431
v 2.741306 -45.83961 -0.249913
v 2.662837 -45.44973 -0.7761544
v 2.541695 -44.48238 0.2583471
v 2.541695 -44.48238 0.2583471
v 2.662837 -45.44973 -0.7761544
v 2.457853 -44.00362 0.01032919
v 2.457853 -44.00362 0.01032919
v 2.662837 -45.44973 -0.7761544
v 2.505505 -44.4437 -0.6976913
v -0.3101974 -46.10429 0.9921333
v -0.3410279 -46.29108 0.7179571
v -0.2960875 -46.3433 0.7521688
v -0.2577431 -45.42585 1.695222
v -0.1732432 -45.3085 1.834703
v -0.2568563 -45.29906 1.782782
v -0.2960875 -46.3433 0.7521688
v -0.09859493 -46.58748 0.5503839
v -0.3101974 -46.10429 0.9921333
v -0.3101974 -46.10429 0.9921333
v -0.09859493 -46.58748 0.5503839
v -0.2577431 -45.42585 1.695222
v -0.2577431 -45.42585 1.695222
v -0.09859493 -46.58748 0.5503839
v -0.1732432 -45.3085 1.834703
v -0.1732432 -45.3085 1.834703
v -0.09859493 -46.58748 0.5503839
v -0.1379559 -45.30236 1.849321
v -0.1379559 -45.30236 1.849321
v -0.09859493 -46.58748 0.5503839
v 2.160726 -46.42939 1.246697
v 2.160726 -46.42939 1.246697
v -0.09859493 -46.58748 0.5503839
v 2.290603 -46.67466 1.027794
v 2.290603 -46.67466 1.027794
v -0.09859493 -46.58748 0.5503839
v 2.371888 -46.90738 0.8101411
v 2.208571 -46.30886 1.24308
v 2.290603 -46.67466 1.027794
v 2.189498 -45.8005 1.279015
v 2.189498 -45.8005 1.279015
v 2.290603 -46.67466 1.027794
v 2.541695 -44.48238 0.2583471
v 2.541695 -44.48238 0.2583471
v 2.290603 -46.67466 1.027794
v 2.741306 -45.83961 -0.249913
v 2.741306 -45.83961 -0.249913
v 2.290603 -46.67466 1.027794
v 2.708076 -46.48956 -0.1360852
v 2.708076 -46.48956 -0.1360852
v 2.290603 -46.67466 1.027794
v 2.523299 -46.91686 0.3905752
v 2.523299 -46.91686 0.3905752
v 2.290603 -46.67466 1.027794
v 2.371888 -46.90738 0.8101411
v 2.430354 -46.89301 -0.1272939
v 2.672297 -46.49051 -0.3022051
v 2.523299 -46.91686 0.3905752
v 2.523299 -46.91686 0.3905752
v 2.672297 -46.49051 -0.3022051
v 2.708076 -46.48956 -0.1360852
v 0.4171182 -43.79268 1.061774
v 0.9422616 -43.41736 0.5250453
v -0.5514482 -44.36189 0.9488809
v -0.5514482 -44.36189 0.9488809
v 0.9422616 -43.41736 0.5250453
v -0.7524593 -44.37165 -0.04605746
v -0.7524593 -44.37165 -0.04605746
v 0.9422616 -43.41736 0.5250453
v -0.5808454 -44.25024 -0.2103615
v -0.5808454 -44.25024 -0.2103615
v 0.9422616 -43.41736 0.5250453
v 0.5105814 -43.57984 -0.3429282
v 0.5105814 -43.57984 -0.3429282
v 0.9422616 -43.41736 0.5250453
v 0.9382447 -43.38515 0.2146516
v -0.7524593 -44.37165 -0.04605746
v -0.5808454 -44.25024 -0.2103615
v -0.6348773 -45.60155 -0.2747487
v 2.457853 -44.00362 0.01032919
v 2.505505 -44.4437 -0.6976913
v 1.950541 -43.75442 0.1498078
v 1.950541 -43.75442 0.1498078
v 2.505505 -44.4437 -0.6976913
v 0.9382447 -43.38515 0.2146516
v 0.9382447 -43.38515 0.2146516
v 2.505505 -44.4437 -0.6976913
v 0.5105814 -43.57984 -0.3429282
v 0.9422616 -43.41736 0.5250453
v 0.4171182 -43.79268 1.061774
v 1.950541 -43.75442 0.1498078
v 1.950541 -43.75442 0.1498078
v 0.4171182 -43.79268 1.061774
v 2.457853 -44.00362 0.01032919
v 2.457853 -44.00362 0.01032919
v 0.4171182 -43.79268 1.061774
v 2.541695 -44.48238 0.2583471
v 2.541695 -44.48238 0.2583471
v 0.4171182 -43.79268 1.061774
v 2.189498 -45.8005 1.279015
v 2.189498 -45.8005 1.279015
v 0.4171182 -43.79268 1.061774
v 0.3222016 -44.8484 1.770824
v 2.672297 -46.49051 -0.3022051
v 2.430354 -46.89301 -0.1272939
v 2.639071 -45.69449 -0.7856565
v 2.639071 -45.69449 -0.7856565
v 2.430354 -46.89301 -0.1272939
v 1.078999 -46.71034 -0.5992671
v 2.208571 -46.30886 1.24308
v 2.189498 -45.8005 1.279015
v 2.160726 -46.42939 1.246697
v 2.160726 -46.42939 1.246697
v 2.189498 -45.8005 1.279015
v -0.1379559 -45.30236 1.849321
v -0.1379559 -45.30236 1.849321
v 2.189498 -45.8005 1.279015
v 0.3222016 -44.8484 1.770824
v 1.950541 -43.75442 0.1498078
v 0.9382447 -43.38515 0.2146516
v 0.9422616 -43.41736 0.5250453
v -0.1732432 -45.3085 1.834703
v -0.1379559 -45.30236 1.849321
v -0.2568563 -45.29906 1.782782
v -0.2568563 -45.29906 1.782782
v -0.1379559 -45.30236 1.849321
v -0.5514482 -44.36189 0.9488809
v -0.5514482 -44.36189 0.9488809
v -0.1379559 -45.30236 1.849321
v 0.4171182 -43.79268 1.061774
v 0.4171182 -43.79268 1.061774
v -0.1379559 -45.30236 1.849321
v 0.3222016 -44.8484 1.770824
v -0.6348773 -45.60155 -0.2747487
v -0.5830734 -46.03783 -0.3062374
v -0.7524593 -44.37165 -0.04605746
v -0.7524593 -44.37165 -0.04605746
v -0.5830734 -46.03783 -0.3062374
v -0.5514482 -44.36189 0.9488809
v -0.5514482 -44.36189 0.9488809
v -0.5830734 -46.03783 -0.3062374
v -0.2568563 -45.29906 1.782782
v -0.2568563 -45.29906 1.782782
v -0.5830734 -46.03783 -0.3062374
v -0.2577431 -45.42585 1.695222
v -0.2577431 -45.42585 1.695222
v -0.5830734 -46.03783 -0.3062374
v -0.3101974 -46.10429 0.9921333
v -0.3101974 -46.10429 0.9921333
v -0.5830734 -46.03783 -0.3062374
v -0.3410279 -46.29108 0.7179571
v -0.3410279 -46.29108 0.7179571
v -0.5830734 -46.03783 -0.3062374
v -0.5818814 -46.04599 -0.3057285
v -0.5094653 -46.13317 -0.3227431
v 1.062138 -46.70826 -0.5965497
v -0.1248699 -46.57408 0.1177268
v -0.5094653 -46.13317 -0.3227431
v -0.1248699 -46.57408 0.1177268
v -0.5239645 -46.11572 -0.3195636
v -0.5239645 -46.11572 -0.3195636
v -0.1248699 -46.57408 0.1177268
v -0.5818814 -46.04599 -0.3057285
v -0.5818814 -46.04599 -0.3057285
v -0.1248699 -46.57408 0.1177268
v -0.3410279 -46.29108 0.7179571
v -0.3410279 -46.29108 0.7179571
v -0.1248699 -46.57408 0.1177268
v -0.2960875 -46.3433 0.7521688
v -0.2960875 -46.3433 0.7521688
v -0.1248699 -46.57408 0.1177268
v -0.09859493 -46.58748 0.5503839
v -0.5239645 -46.11572 -0.3195636
v -0.5818814 -46.04599 -0.3057285
v -0.5830734 -46.03783 -0.3062374
v 2.160726 -46.42939 1.246697
v 2.290603 -46.67466 1.027794
v 2.208571 -46.30886 1.24308
v 2.430354 -46.89301 -0.1272939
v 2.523299 -46.91686 0.3905752
v 1.078999 -46.71034 -0.5992671
v 1.078999 -46.71034 -0.5992671
v 2.523299 -46.91686 0.3905752
v 1.062138 -46.70826 -0.5965497
v 1.062138 -46.70826 -0.5965497
v 2.523299 -46.91686 0.3905752
v -0.1248699 -46.57408 0.1177268
v -0.1248699 -46.57408 0.1177268
v 2.523299 -46.91686 0.3905752
v -0.09859493 -46.58748 0.5503839
v -0.09859493 -46.58748 0.5503839
v 2.523299 -46.91686 0.3905752
v 2.371888 -46.90738 0.8101411

vn 0.9740247 -0.08645248 -0.209289
vn 0.9740247 -0.08645248 -0.209289
vn 0.9740247 -0.08645248 -0.209289
vn 0.9740247 -0.08645248 -0.209289
vn 0.9740247 -0.08645248 -0.209289
vn 0.9740247 -0.08645248 -0.209289
vn 0.9740247 -0.08645248 -0.209289
vn 0.9740247 -0.08645248 -0.209289
vn 0.9740247 -0.08645248 -0.209289
vn -0.1524958 0.05312018 -0.9868756
vn -0.1524958 0.05312018 -0.9868756
vn -0.1524958 0.05312018 -0.9868756
vn -0.1524958 0.05312018 -0.9868756
vn -0.1524958 0.05312018 -0.9868756
vn -0.1524958 0.05312018 -0.9868756
vn -0.1524958 0.05312018 -0.9868756
vn -0.1524958 0.05312018 -0.9868756
vn -0.1524958 0.05312018 -0.9868756
vn -0.1524958 0.05312018 -0.9868756
vn -0.1524958 0.05312018 -0.9868756
vn -0.1524958 0.05312018 -0.9868756
vn -0.1524958 0.05312018 -0.9868756
vn -0.1524958 0.05312018 -0.9868756
vn -0.1524958 0.05312018 -0.9868756
vn -0.1524958 0.05312018 -0.9868756
vn -0.1524958 0.05312018 -0.9868756
vn -0.1524958 0.05312018 -0.9868756
vn -0.1524958 0.05312018 -0.9868756
vn -0.1524958 0.05312018 -0.9868756
vn -0.1524958 0.05312018 -0.9868756
vn -0.1524958 0.05312018 -0.9868756
vn -0.1524958 0.05312018 -0.9868756
vn -0.1524958 0.05312018 -0.9868756
vn -0.1524958 0.05312018 -0.9868756
vn -0.1524958 0.05312018 -0.9868756
vn -0.1524958 0.05312018 -0.9868756
vn 0.9871432 0.1567991 -0.03102366
vn 0.9871432 0.1567991 -0.03102366
vn 0.9871432 0.1567991 -0.03102366
vn 0.9871432 0.1567991 -0.03102366
vn 0.9871432 0.1567991 -0.03102366
vn 0.9871432 0.1567991 -0.03102366
vn 0.9871432 0.1567991 -0.03102366
vn 0.9871432 0.1567991 -0.03102366
vn 0.9871432 0.1567991 -0.03102366
vn -0.8085892 -0.439965 0.3906587
vn -0.8085892 -0.439965 0.3906587
vn -0.8085892 -0.439965 0.3906587
vn -0.4991181 -0.4900568 0.7146506
vn -0.4991181 -0.4900568 0.7146506
vn -0.4991181 -0.4900568 0.7146506
vn -0.1638022 -0.7037519 0.6913046
vn -0.1638022 -0.7037519 0.6913046
vn -0.1638022 -0.7037519 0.6913046
vn -0.1638022 -0.7037519 0.6913046
vn -0.1638022 -0.7037519 0.6913046
vn -0.1638022 -0.7037519 0.6913046
vn -0.1638022 -0.7037519 0.6913046
vn -0.1638022 -0.7037519 0.6913046
vn -0.1638022 -0.7037519 0.6913046
vn -0.1638022 -0.7037519 0.6913046
vn -0.1638022 -0.7037519 0.6913046
vn -0.1638022 -0.7037519 0.6913046
vn -0.1638022 -0.7037519 0.6913046
vn -0.1638022 -0.7037519 0.6913046
vn -0.1638022 -0.7037519 0.6913046
vn -0.1638022 -0.7037519 0.6913046
vn -0.1638022 -0.7037519 0.6913046
vn -0.1638022 -0.7037519 0.6913046
vn -0.1638022 -0.7037519 0.6913046
vn -0.1638022 -0.7037519 0.6913046
vn -0.1638022 -0.7037519 0.6913046
vn 0.940648 0.01132014 0.339195
vn 0.940648 0.01132014 0.339195
vn 0.940648 0.01132014 0.339195
vn 0.940648 0.01132014 0.339195
vn 0.940648 0.01132014 0.339195
vn 0.940648 0.01132014 0.339195
vn 0.940648 0.01132014 0.339195
vn 0.940648 0.01132014 0.339195
vn 0.940648 0.01132014 0.339195
vn 0.940648 0.01132014 0.339195
vn 0.940648 0.01132014 0.339195
vn 0.940648 0.01132014 0.339195
vn 0.940648 0.01132014 0.339195
vn 0.940648 0.01132014 0.339195
vn 0.940648 0.01132014 0.339195
vn 0.940648 0.01132014 0.339195
vn 0.940648 0.01132014 0.339195
vn 0.940648 0.01132014 0.339195
vn 0.8097996 -0.5611748 -0.1711952
vn 0.8097996 -0.5611748 -0.1711952
vn 0.8097996 -0.5611748 -0.1711952
vn 0.8097996 -0.5611748 -0.1711952
vn 0.8097996 -0.5611748 -0.1711952
vn 0.8097996 -0.5611748 -0.1711952
vn -0.5125899 0.8533403 0.09519513
vn -0.5125899 0.8533403 0.09519513
vn -0.5125899 0.8533403 0.09519513
vn -0.5125899 0.8533403 0.09519513
vn -0.5125899 0.8533403 0.09519513
vn -0.5125899 0.8533403 0.09519513
vn -0.5125899 0.8533403 0.09519513
vn -0.5125899 0.8533403 0.09519513
vn -0.5125899 0.8533403 0.09519513
vn -0.5125899 0.8533403 0.09519513
vn -0.5125899 0.8533403 0.09519513
vn -0.5125899 0.8533403 0.09519513
vn -0.5125899 0.8533403 0.09519513
vn -0.5125899 0.8533403 0.09519513
vn -0.5125899 0.8533403 0.09519513
vn -0.7127004 0.06178724 -0.6987421
vn -0.7127004 0.06178724 -0.6987421
vn -0.7127004 0.06178724 -0.6987421
vn 0.2695919 0.825919 -0.4951548
vn 0.2695919 0.825919 -0.4951548
vn 0.2695919 0.825919 -0.4951548
vn 0.2695919 0.825919 -0.4951548
vn 0.2695919 0.825919 -0.4951548
vn 0.2695919 0.825919 -0.4951548
vn 0.2695919 0.825919 -0.4951548
vn 0.2695919 0.825919 -0.4951548
vn 0.2695919 0.825919 -0.4951548
vn 0.4417671 0.4724895 0.7626241
vn 0.4417671 0.4724895 0.7626241
vn 0.4417671 0.4724895 0.7626241
vn 0.4417671 0.4724895 0.7626241
vn 0.4417671 0.4724895 0.7626241
vn 0.4417671 0.4724895 0.7626241
vn 0.4417671 0.4724895 0.7626241
vn 0.4417671 0.4724895 0.7626241
vn 0.4417671 0.4724895 0.7626241
vn 0.4417671 0.4724895 0.7626241
vn 0.4417671 0.4724895 0.7626241
vn 0.4417671 0.4724895 0.7626241
vn 0.4417671 0.4724895 0.7626241
vn 0.4417671 0.4724895 0.7626241
vn 0.4417671 0.4724895 0.7626241
vn 0.22488 -0.4989067 -0.8369715
vn 0.22488 -0.4989067 -0.8369715
vn 0.22488 -0.4989067 -0.8369715
vn 0.22488 -0.4989067 -0.8369715
vn 0.22488 -0.4989067 -0.8369715
vn 0.22488 -0.4989067 -0.8369715
vn 0.2253732 -0.06027635 0.9724061
vn 0.2253732 -0.06027635 0.9724061
vn 0.2253732 -0.06027635 0.9724061
vn 0.2253732 -0.06027635 0.9724061
vn 0.2253732 -0.06027635 0.9724061
vn 0.2253732 -0.06027635 0.9724061
vn 0.2253732 -0.06027635 0.9724061
vn 0.2253732 -0.06027635 0.9724061
vn 0.2253732 -0.06027635 0.9724061
vn 0.3464496 0.9335071 0.09239692
vn 0.3464496 0.9335071 0.09239692
vn 0.3464496 0.9335071 0.09239692
vn -0.4012154 0.5352833 0.7433021
vn -0.4012154 0.5352833 0.7433021
vn -0.4012154 0.5352833 0.7433021
vn -0.4012154 0.5352833 0.7433021
vn -0.4012154 0.5352833 0.7433021
vn -0.4012154 0.5352833 0.7433021
vn -0.4012154 0.5352833 0.7433021
vn -0.4012154 0.5352833 0.7433021
vn -0.4012154 0.5352833 0.7433021
vn -0.4012154 0.5352833 0.7433021
vn -0.4012154 0.5352833 0.7433021
vn -0.4012154 0.5352833 0.7433021
vn -0.9716782 -0.1296348 0.1975765
vn -0.9716782 -0.1296348 0.1975765
vn -0.9716782 -0.1296348 0.1975765
vn -0.9716782 -0.1296348 0.1975765
vn -0.9716782 -0.1296348 0.1975765
vn -0.9716782 -0.1296348 0.1975765
vn -0.9716782 -0.1296348 0.1975765
vn -0.9716782 -0.1296348 0.1975765
vn -0.9716782 -0.1296348 0.1975765
vn -0.9716782 -0.1296348 0.1975765
vn -0.9716782 -0.1296348 0.1975765
vn -0.9716782 -0.1296348 0.1975765
vn -0.9716782 -0.1296348 0.1975765
vn -0.9716782 -0.1296348 0.1975765
vn -0.9716782 -0.1296348 0.1975765
vn -0.9716782 -0.1296348 0.1975765
vn -0.9716782 -0.1296348 0.1975765
vn -0.9716782 -0.1296348 0.1975765
vn -0.9716782 -0.1296348 0.1975765
vn -0.9716782 -0.1296348 0.1975765
vn -0.9716782 -0.1296348 0.1975765
vn -0.3743166 -0.7981184 -0.4721168
vn -0.3743166 -0.7981184 -0.4721168
vn -0.3743166 -0.7981184 -0.4721168
vn -0.7663796 -0.6418352 0.02664669
vn -0.7663796 -0.6418352 0.02664669
vn -0.7663796 -0.6418352 0.02664669
vn -0.7663796 -0.6418352 0.02664669
vn -0.7663796 -0.6418352 0.02664669
vn -0.7663796 -0.6418352 0.02664669
vn -0.7663796 -0.6418352 0.02664669
vn -0.7663796 -0.6418352 0.02664669
vn -0.7663796 -0.6418352 0.02664669
vn -0.7663796 -0.6418352 0.02664669
vn -0.7663796 -0.6418352 0.02664669
vn -0.7663796 -0.6418352 0.02664669
vn -0.7663796 -0.6418352 0.02664669
vn -0.7663796 -0.6418352 0.02664669
vn -0.7663796 -0.6418352 0.02664669
vn -0.3541373 -0.1096556 -0.9287425
vn -0.3541373 -0.1096556 -0.9287425
vn -0.3541373 -0.1096556 -0.9287425
vn 0.6830607 -0.250578 0.6860312
vn 0.6830607 -0.250578 0.6860312
vn 0.6830607 -0.250578 0.6860312
vn -0.1259985 -0.9917622 -0.02307062
vn -0.1259985 -0.9917622 -0.02307062
vn -0.1259985 -0.9917622 -0.02307062
vn -0.1259985 -0.9917622 -0.02307062
vn -0.1259985 -0.9917622 -0.02307062
vn -0.1259985 -0.9917622 -0.02307062
vn -0.1259985 -0.9917622 -0.02307062
vn -0.1259985 -0.9917622 -0.02307062
vn -0.1259985 -0.9917622 -0.02307062
vn -0.1259985 -0.9917622 -0.02307062
vn -0.1259985 -0.9917622 -0.02307062
vn -0.1259985 -0.9917622 -0.02307062
vn -0.1259985 -0.9917622 -0.02307062
vn -0.1259985 -0.9917622 -0.02307062
vn -0.1259985 -0.9917622 -0.02307062

vt 0.4694943 0.5369794
vt 0.507845 0.4828732
vt 0.4942129 0.5379545
vt 0.4942129 0.5379545
vt 0.507845 0.4828732
vt 0.5736425 0.4882454
vt 0.5736425 0.4882454
vt 0.507845 0.4828732
vt 0.57323 0.4711678
vt 0.6131135 0.466677
vt 0.6128885 0.4683739
vt 0.5131984 0.3096554
vt 0.5131984 0.3096554
vt 0.6128885 0.4683739
vt 0.4888361 0.3072646
vt 0.4888361 0.3072646
vt 0.6128885 0.4683739
vt 0.3884896 0.3230999
vt 0.3884896 0.3230999
vt 0.6128885 0.4683739
vt 0.3007861 0.5238912
vt 0.3007861 0.5238912
vt 0.6128885 0.4683739
vt 0.366668 0.6337444
vt 0.366668 0.6337444
vt 0.6128885 0.4683739
vt 0.5012446 0.6391822
vt 0.5012446 0.6391822
vt 0.6128885 0.4683739
vt 0.5447471 0.6339694
vt 0.5447471 0.6339694
vt 0.6128885 0.4683739
vt 0.5525475 0.6280254
vt 0.5525475 0.6280254
vt 0.6128885 0.4683739
vt 0.5543008 0.6265628
vt 0.548066 0.5140656
vt 0.5089794 0.5658467
vt 0.4131426 0.4640518
vt 0.4131426 0.4640518
vt 0.5089794 0.5658467
vt 0.3653461 0.488461
vt 0.3653461 0.488461
vt 0.5089794 0.5658467
vt 0.4088299 0.5581307
vt 0.503401 0.4584874
vt 0.4874532 0.4902986
vt 0.4802621 0.4863234
vt 0.6267831 0.4153834
vt 0.6302333 0.3873552
vt 0.6394119 0.3977855
vt 0.642159 0.525485
vt 0.6084539 0.5634747
vt 0.6514032 0.4802949
vt 0.6514032 0.4802949
vt 0.6084539 0.5634747
vt 0.6653728 0.3479029
vt 0.6653728 0.3479029
vt 0.6084539 0.5634747
vt 0.6577974 0.3216373
vt 0.6577974 0.3216373
vt 0.6084539 0.5634747
vt 0.6533158 0.3188856
vt 0.6533158 0.3188856
vt 0.6084539 0.5634747
vt 0.3139447 0.4323531
vt 0.3139447 0.4323531
vt 0.6084539 0.5634747
vt 0.2891698 0.4735727
vt 0.2891698 0.4735727
vt 0.6084539 0.5634747
vt 0.2712204 0.5145532
vt 0.5748332 0.4130395
vt 0.6131604 0.4369565
vt 0.5216926 0.4090502
vt 0.5216926 0.4090502
vt 0.6131604 0.4369565
vt 0.3844066 0.522438
vt 0.3844066 0.522438
vt 0.6131604 0.4369565
vt 0.5264835 0.5789069
vt 0.5264835 0.5789069
vt 0.6131604 0.4369565
vt 0.5943531 0.5662593
vt 0.5943531 0.5662593
vt 0.6131604 0.4369565
vt 0.638765 0.5077465
vt 0.638765 0.5077465
vt 0.6131604 0.4369565
vt 0.6375837 0.461136
vt 0.5247022 0.4740602
vt 0.4779417 0.4917706
vt 0.5213832 0.4216181
vt 0.5213832 0.4216181
vt 0.4779417 0.4917706
vt 0.4758322 0.4749509
vt 0.5238678 0.4069313
vt 0.5874152 0.4601797
vt 0.412927 0.4181304
vt 0.412927 0.4181304
vt 0.5874152 0.4601797
vt 0.3954088 0.5168314
vt 0.3954088 0.5168314
vt 0.5874152 0.4601797
vt 0.41611 0.5331355
vt 0.41611 0.5331355
vt 0.5874152 0.4601797
vt 0.5426001 0.5462894
vt 0.5426001 0.5462894
vt 0.5874152 0.4601797
vt 0.588709 0.4909737
vt 0.6243454 0.3173621
vt 0.6430027 0.3489248
vt 0.457353 0.3612959
vt 0.5887465 0.3886631
vt 0.6093258 0.4808762
vt 0.5254241 0.370498
vt 0.5254241 0.370498
vt 0.6093258 0.4808762
vt 0.4035702 0.3620506
vt 0.4035702 0.3620506
vt 0.6093258 0.4808762
vt 0.3644039 0.4346735
vt 0.2610479 0.6116744
vt 0.2417061 0.485564
vt 0.407972 0.699842
vt 0.407972 0.699842
vt 0.2417061 0.485564
vt 0.4901627 0.7326095
vt 0.4901627 0.7326095
vt 0.2417061 0.485564
vt 0.549163 0.6743311
vt 0.549163 0.6743311
vt 0.2417061 0.485564
vt 0.6468843 0.4345095
vt 0.6468843 0.4345095
vt 0.2417061 0.485564
vt 0.3407541 0.3189559
vt 0.2961077 0.2892917
vt 0.3654445 0.2318759
vt 0.2427843 0.4479962
vt 0.2427843 0.4479962
vt 0.3654445 0.2318759
vt 0.5732769 0.3868114
vt 0.4162553 0.3919726
vt 0.4676802 0.3939462
vt 0.4041421 0.3969276
vt 0.4041421 0.3969276
vt 0.4676802 0.3939462
vt 0.5214114 0.6350008
vt 0.5214114 0.6350008
vt 0.4676802 0.3939462
vt 0.5666296 0.5873449
vt 0.5131984 0.4975834
vt 0.4068141 0.4911518
vt 0.4082908 0.4603766
vt 0.3641226 0.4116097
vt 0.3688151 0.4083986
vt 0.3551221 0.4230151
vt 0.3551221 0.4230151
vt 0.3688151 0.4083986
vt 0.403078 0.6062179
vt 0.403078 0.6062179
vt 0.3688151 0.4083986
vt 0.5671546 0.5814102
vt 0.5671546 0.5814102
vt 0.3688151 0.4083986
vt 0.4629408 0.4256449
vt 0.5030634 0.554718
vt 0.4590078 0.5579432
vt 0.6268768 0.5313166
vt 0.6268768 0.5313166
vt 0.4590078 0.5579432
vt 0.6251799 0.4295311
vt 0.6251799 0.4295311
vt 0.4590078 0.5579432
vt 0.5281243 0.3442183
vt 0.5281243 0.3442183
vt 0.4590078 0.5579432
vt 0.5155329 0.3531767
vt 0.5155329 0.3531767
vt 0.4590078 0.5579432
vt 0.4487884 0.4251058
vt 0.4487884 0.4251058
vt 0.4590078 0.5579432
vt 0.430628 0.4531527
vt 0.430628 0.4531527
vt 0.4590078 0.5579432
vt 0.4581827 0.5578869
vt 0.61752 0.461647
vt 0.431603 0.4962896
vt 0.5578166 0.4059235
vt 0.5411656 0.5303416
vt 0.4836373 0.4869984
vt 0.543397 0.5300228
vt 0.543397 0.5300228
vt 0.4836373 0.4869984
vt 0.5523038 0.5286633
vt 0.5523038 0.5286633
vt 0.4836373 0.4869984
vt 0.5186268 0.4279466
vt 0.5186268 0.4279466
vt 0.4836373 0.4869984
vt 0.5118577 0.4245808
vt 0.5118577 0.4245808
vt 0.4836373 0.4869984
vt 0.48097 0.4444288
vt 0.5474098 0.6147308
vt 0.5403031 0.6212281
vt 0.5394405 0.6213593
vt 0.5547133 0.498146
vt 0.5797835 0.5387889
vt 0.5371998 0.4988116
vt 0.3377961 0.5042213
vt 0.3284346 0.4532887
vt 0.4718851 0.550649
vt 0.4718851 0.550649
vt 0.3284346 0.4532887
vt 0.4735586 0.5503771
vt 0.4735586 0.5503771
vt 0.3284346 0.4532887
vt 0.5910154 0.4801262
vt 0.5910154 0.4801262
vt 0.3284346 0.4532887
vt 0.5882778 0.4375659
vt 0.5882778 0.4375659
vt 0.3284346 0.4532887
vt 0.343323 0.4120176

usemtl Material0
usemap Material0

usemtl Material1
usemap Material1
f 1/1/1 2/2/2 3/3/3
f 4/4/4 5/5/5 6/6/6
f 7/7/7 8/8/8 9/9/9
f 10/10/10 11/11/11 12/12/12
f 13/13/13 14/14/14 15/15/15
f 16/16/16 17/17/17 18/18/18
f 19/19/19 20/20/20 21/21/21
f 22/22/22 23/23/23 24/24/24
f 25/25/25 26/26/26 27/27/27
f 28/28/28 29/29/29 30/30/30
f 31/31/31 32/32/32 33/33/33
f 34/34/34 35/35/35 36/36/36
f 37/37/37 38/38/38 39/39/39
f 40/40/40 41/41/41 42/42/42
f 43/43/43 44/44/44 45/45/45
f 46/46/46 47/47/47 48/48/48
f 49/49/49 50/50/50 51/51/51
f 52/52/52 53/53/53 54/54/54
f 55/55/55 56/56/56 57/57/57
f 58/58/58 59/59/59 60/60/60
f 61/61/61 62/62/62 63/63/63
f 64/64/64 65/65/65 66/66/66
f 67/67/67 68/68/68 69/69/69
f 70/70/70 71/71/71 72/72/72
f 73/73/73 74/74/74 75/75/75
f 76/76/76 77/77/77 78/78/78
f 79/79/79 80/80/80 81/81/81
f 82/82/82 83/83/83 84/84/84
f 85/85/85 86/86/86 87/87/87
f 88/88/88 89/89/89 90/90/90
f 91/91/91 92/92/92 93/93/93
f 94/94/94 95/95/95 96/96/96
f 97/97/97 98/98/98 99/99/99
f 100/100/100 101/101/101 102/102/102
f 103/103/103 104/104/104 105/105/105
f 106/106/106 107/107/107 108/108/108
f 109/109/109 110/110/110 111/111/111
f 112/112/112 113/113/113 114/114/114
f 115/115/115 116/116/116 117/117/117
f 118/118/118 119/119/119 120/120/120
f 121/121/121 122/122/122 123/123/123
f 124/124/124 125/125/125 126/126/126
f 127/127/127 128/128/128 129/129/129
f 130/130/130 131/131/131 132/132/132
f 133/133/133 134/134/134 135/135/135
f 136/136/136 137/137/137 138/138/138
f 139/139/139 140/140/140 141/141/141
f 142/142/142 143/143/143 144/144/144
f 145/145/145 146/146/146 147/147/147
f 148/148/148 149/149/149 150/150/150
f 151/151/151 152/152/152 153/153/153
f 154/154/154 155/155/155 156/156/156
f 157/157/157 158/158/158 159/159/159
f 160/160/160 161/161/161 162/162/162
f 163/163/163 164/164/164 165/165/165
f 166/166/166 167/167/167 168/168/168
f 169/169/169 170/170/170 171/171/171
f 172/172/172 173/173/173 174/174/174
f 175/175/175 176/176/176 177/177/177
f 178/178/178 179/179/179 180/180/180
f 181/181/181 182/182/182 183/183/183
f 184/184/184 185/185/185 186/186/186
f 187/187/187 188/188/188 189/189/189
f 190/190/190 191/191/191 192/192/192
f 193/193/193 194/194/194 195/195/195
f 196/196/196 197/197/197 198/198/198
f 199/199/199 200/200/200 201/201/201
f 202/202/202 203/203/203 204/204/204
f 205/205/205 206/206/206 207/207/207
f 208/208/208 209/209/209 210/210/210
f 211/211/211 212/212/212 213/213/213
f 214/214/214 215/215/215 216/216/216
f 217/217/217 218/218/218 219/219/219
f 220/220/220 221/221/221 222/222/222
f 223/223/223 224/224/224 225/225/225
f 226/226/226 227/227/227 228/228/228
