g  Instance
v 3.174312 -54.58388 -3.098919
v 2.570141 -54.36333 -3.007868
v 3.021685 -53.86026 -0.6511836
v 3.021685 -53.86026 -0.6511836
v 2.570141 -54.36333 -3.007868
v 2.112454 -53.66553 -1.012153
v 3.100499 -54.315 -0.3030893
v 1.766947 -54.54965 -0.4560902
v 3.335374 -55.61107 -0.440082
v 3.335374 -55.61107 -0.440082
v 1.766947 -54.54965 -0.4560902
v 2.749046 -56.05159 -0.5487056
v 2.749046 -56.05159 -0.5487056
v 1.766947 -54.54965 -0.4560902
v 1.701334 -54.95756 -0.5122051
v 2.307691 -55.01929 -2.574996
v 3.290008 -55.24099 -2.794656
v 1.904415 -55.67192 -1.670408
v 1.904415 -55.67192 -1.670408
v 3.290008 -55.24099 -2.794656
v 2.606474 -56.25835 -1.358701
v 2.606474 -56.25835 -1.358701
v 3.290008 -55.24099 -2.794656
v 2.942636 -56.45609 -1.300392
v 2.942636 -56.45609 -1.300392
v 3.290008 -55.24099 -2.794656
v 3.442212 -56.1307 -1.891932
v 2.570141 -54.36333 -3.007868
v 3.174312 -54.58388 -3.098919
v 2.307691 -55.01929 -2.574996
v 2.307691 -55.01929 -2.574996
v 3.174312 -54.58388 -3.098919
v 3.290008 -55.24099 -2.794656
v 2.942636 -56.45609 -1.300392
v 2.906785 -56.46323 -1.120061
v 2.606474 -56.25835 -1.358701
v 3.021685 -53.86026 -0.6511836
v 2.112454 -53.66553 -1.012153
v 3.100499 -54.315 -0.3030893
v 3.100499 -54.315 -0.3030893
v 2.112454 -53.66553 -1.012153
v 1.766947 -54.54965 -0.4560902
v 2.749046 -56.05159 -0.5487056
v 1.701334 -54.95756 -0.5122051
v 2.928005 -56.43222 -0.9989747
v 2.928005 -56.43222 -0.9989747
v 1.701334 -54.95756 -0.5122051
v 2.906785 -56.46323 -1.120061
v 2.906785 -56.46323 -1.120061
v 1.701334 -54.95756 -0.5122051
v 2.606474 -56.25835 -1.358701
v 2.606474 -56.25835 -1.358701
v 1.701334 -54.95756 -0.5122051
v 1.904415 -55.67192 -1.670408
v 2.749046 -56.05159 -0.5487056
v 2.928005 -56.43222 -0.9989747
v 3.335374 -55.61107 -0.440082
v 3.335374 -55.61107 -0.440082
v 2.928005 -56.43222 -0.9989747
v 3.415342 -56.03267 -0.8773401
v 3.290008 -55.24099 -2.794656
v 3.174312 -54.58388 -3.098919
v 3.442212 -56.1307 -1.891932
v 3.442212 -56.1307 -1.891932
v 3.174312 -54.58388 -3.098919
v 3.415342 -56.03267 -0.8773401
v 3.415342 -56.03267 -0.8773401
v 3.174312 -54.58388 -3.098919
v 3.335374 -55.61107 -0.440082
v 3.335374 -55.61107 -0.440082
v 3.174312 -54.58388 -3.098919
v 3.100499 -54.315 -0.3030893
v 3.100499 -54.315 -0.3030893
v 3.174312 -54.58388 -3.098919
v 3.021685 -53.86026 -0.6511836
v 3.442212 -56.1307 -1.891932
v 3.415342 -56.03267 -0.8773401
v 2.942636 -56.45609 -1.300392
v 2.942636 -56.45609 -1.300392
v 3.415342 -56.03267 -0.8773401
v 2.906785 -56.46323 -1.120061
v 2.906785 -56.46323 -1.120061
v 3.415342 -56.03267 -0.8773401
v 2.928005 -56.43222 -0.9989747
v 1.766947 -54.54965 -0.4560902
v 2.112454 -53.66553 -1.012153
v 1.701334 -54.95756 -0.5122051
v 1.701334 -54.95756 -0.5122051
v 2.112454 -53.66553 -1.012153
v 1.904415 -55.67192 -1.670408
v 1.904415 -55.67192 -1.670408
v 2.112454 -53.66553 -1.012153
v 2.307691 -55.01929 -2.574996
v 2.307691 -55.01929 -2.574996
v 2.112454 -53.66553 -1.012153
v 2.570141 -54.36333 -3.007868

vn 0.2977646 0.9203618 -0.253516
vn 0.2977646 0.9203618 -0.253516
vn 0.2977646 0.9203618 -0.253516
vn 0.2977646 0.9203618 -0.253516
vn 0.2977646 0.9203618 -0.253516
vn 0.2977646 0.9203618 -0.253516
vn -0.09207781 -0.1211544 0.9883538
vn -0.09207781 -0.1211544 0.9883538
vn -0.09207781 -0.1211544 0.9883538
vn -0.09207781 -0.1211544 0.9883538
vn -0.09207781 -0.1211544 0.9883538
vn -0.09207781 -0.1211544 0.9883538
vn -0.09207781 -0.1211544 0.9883538
vn -0.09207781 -0.1211544 0.9883538
vn -0.09207781 -0.1211544 0.9883538
vn -0.3025636 -0.7038471 -0.6426932
vn -0.3025636 -0.7038471 -0.6426932
vn -0.3025636 -0.7038471 -0.6426932
vn -0.3025636 -0.7038471 -0.6426932
vn -0.3025636 -0.7038471 -0.6426932
vn -0.3025636 -0.7038471 -0.6426932
vn -0.3025636 -0.7038471 -0.6426932
vn -0.3025636 -0.7038471 -0.6426932
vn -0.3025636 -0.7038471 -0.6426932
vn -0.3025636 -0.7038471 -0.6426932
vn -0.3025636 -0.7038471 -0.6426932
vn -0.3025636 -0.7038471 -0.6426932
vn -0.289769 -0.4436921 -0.8480397
vn -0.289769 -0.4436921 -0.8480397
vn -0.289769 -0.4436921 -0.8480397
vn -0.289769 -0.4436921 -0.8480397
vn -0.289769 -0.4436921 -0.8480397
vn -0.289769 -0.4436921 -0.8480397
vn -0.4857303 -0.8642723 -0.1307653
vn -0.4857303 -0.8642723 -0.1307653
vn -0.4857303 -0.8642723 -0.1307653
vn -0.1924312 0.5752358 0.7950308
vn -0.1924312 0.5752358 0.7950308
vn -0.1924312 0.5752358 0.7950308
vn -0.1924312 0.5752358 0.7950308
vn -0.1924312 0.5752358 0.7950308
vn -0.1924312 0.5752358 0.7950308
vn -0.6861199 -0.6667773 0.2909427
vn -0.6861199 -0.6667773 0.2909427
vn -0.6861199 -0.6667773 0.2909427
vn -0.6861199 -0.6667773 0.2909427
vn -0.6861199 -0.6667773 0.2909427
vn -0.6861199 -0.6667773 0.2909427
vn -0.6861199 -0.6667773 0.2909427
vn -0.6861199 -0.6667773 0.2909427
vn -0.6861199 -0.6667773 0.2909427
vn -0.6861199 -0.6667773 0.2909427
vn -0.6861199 -0.6667773 0.2909427
vn -0.6861199 -0.6667773 0.2909427
vn 0.3544618 -0.6398985 0.6818262
vn 0.3544618 -0.6398985 0.6818262
vn 0.3544618 -0.6398985 0.6818262
vn 0.3544618 -0.6398985 0.6818262
vn 0.3544618 -0.6398985 0.6818262
vn 0.3544618 -0.6398985 0.6818262
vn 0.9840983 0.1774013 0.008922214
vn 0.9840983 0.1774013 0.008922214
vn 0.9840983 0.1774013 0.008922214
vn 0.9840983 0.1774013 0.008922214
vn 0.9840983 0.1774013 0.008922214
vn 0.9840983 0.1774013 0.008922214
vn 0.9840983 0.1774013 0.008922214
vn 0.9840983 0.1774013 0.008922214
vn 0.9840983 0.1774013 0.008922214
vn 0.9840983 0.1774013 0.008922214
vn 0.9840983 0.1774013 0.008922214
vn 0.9840983 0.1774013 0.008922214
vn 0.9840983 0.1774013 0.008922214
vn 0.9840983 0.1774013 0.008922214
vn 0.9840983 0.1774013 0.008922214
vn 0.6175489 -0.7811539 0.09182681
vn 0.6175489 -0.7811539 0.09182681
vn 0.6175489 -0.7811539 0.09182681
vn 0.6175489 -0.7811539 0.09182681
vn 0.6175489 -0.7811539 0.09182681
vn 0.6175489 -0.7811539 0.09182681
vn 0.6175489 -0.7811539 0.09182681
vn 0.6175489 -0.7811539 0.09182681
vn 0.6175489 -0.7811539 0.09182681
vn -0.9403668 0.1900628 -0.2821109
vn -0.9403668 0.1900628 -0.2821109
vn -0.9403668 0.1900628 -0.2821109
vn -0.9403668 0.1900628 -0.2821109
vn -0.9403668 0.1900628 -0.2821109
vn -0.9403668 0.1900628 -0.2821109
vn -0.9403668 0.1900628 -0.2821109
vn -0.9403668 0.1900628 -0.2821109
vn -0.9403668 0.1900628 -0.2821109
vn -0.9403668 0.1900628 -0.2821109
vn -0.9403668 0.1900628 -0.2821109
vn -0.9403668 0.1900628 -0.2821109

vt 0.5478598 0.6289535
vt 0.4825404 0.6193905
vt 0.5104701 0.3717965
vt 0.5104701 0.3717965
vt 0.4825404 0.6193905
vt 0.4164569 0.4097205
vt 0.532062 0.4172913
vt 0.5072262 0.5495145
vt 0.4034061 0.3940024
vt 0.4034061 0.3940024
vt 0.5072262 0.5495145
vt 0.3589332 0.4521355
vt 0.3589332 0.4521355
vt 0.5072262 0.5495145
vt 0.4665832 0.5560212
vt 0.4994257 0.5417328
vt 0.3723825 0.5785225
vt 0.5139015 0.3902241
vt 0.5139015 0.3902241
vt 0.3723825 0.5785225
vt 0.4014138 0.3380164
vt 0.4014138 0.3380164
vt 0.3723825 0.5785225
vt 0.3517656 0.3282471
vt 0.3517656 0.3282471
vt 0.3723825 0.5785225
vt 0.3093554 0.4273278
vt 0.5134984 0.6554207
vt 0.3972886 0.6872975
vt 0.487725 0.5038838
vt 0.487725 0.5038838
vt 0.3972886 0.6872975
vt 0.3126602 0.580782
vt 0.3673384 0.4385082
vt 0.3700854 0.4204696
vt 0.4060031 0.4443397
vt 0.5968845 0.4646847
vt 0.4671411 0.5611402
vt 0.5856057 0.3716699
vt 0.5856057 0.3716699
vt 0.4671411 0.5611402
vt 0.368576 0.412552
vt 0.369776 0.4098471
vt 0.5254241 0.4059235
vt 0.3289128 0.4582061
vt 0.3289128 0.4582061
vt 0.5254241 0.4059235
vt 0.328144 0.47121
vt 0.328144 0.47121
vt 0.5254241 0.4059235
vt 0.3647508 0.4968428
vt 0.3647508 0.4968428
vt 0.5254241 0.4059235
vt 0.458239 0.5303134
vt 0.5638545 0.5079809
vt 0.5676047 0.5907013
vt 0.4662363 0.4880297
vt 0.4662363 0.4880297
vt 0.5676047 0.5907013
vt 0.4842936 0.5683594
vt 0.5649608 0.6046053
vt 0.4993601 0.6345226
vt 0.6537002 0.5158564
vt 0.6537002 0.5158564
vt 0.4993601 0.6345226
vt 0.6437435 0.4161053
vt 0.6437435 0.4161053
vt 0.4993601 0.6345226
vt 0.6015629 0.3731184
vt 0.6015629 0.3731184
vt 0.4993601 0.6345226
vt 0.4720632 0.3596458
vt 0.4720632 0.3596458
vt 0.4993601 0.6345226
vt 0.426695 0.3938712
vt 0.5164704 0.5311666
vt 0.5125515 0.4305717
vt 0.5750864 0.4725179
vt 0.5750864 0.4725179
vt 0.5125515 0.4305717
vt 0.5782928 0.4546341
vt 0.5782928 0.4546341
vt 0.5125515 0.4305717
vt 0.5747582 0.4426287
vt 0.4780636 0.3511468
vt 0.5738863 0.4105409
vt 0.4357611 0.3571378
vt 0.4357611 0.3571378
vt 0.5738863 0.4105409
vt 0.3681353 0.4808481
vt 0.3681353 0.4808481
vt 0.5738863 0.4105409
vt 0.4418693 0.577463
vt 0.4418693 0.577463
vt 0.5738863 0.4105409
vt 0.5130859 0.6236938

usemtl Material0
usemap Material0

usemtl Material1
usemap Material1
f 1/1/1 2/2/2 3/3/3
f 4/4/4 5/5/5 6/6/6
f 7/7/7 8/8/8 9/9/9
f 10/10/10 11/11/11 12/12/12
f 13/13/13 14/14/14 15/15/15
f 16/16/16 17/17/17 18/18/18
f 19/19/19 20/20/20 21/21/21
f 22/22/22 23/23/23 24/24/24
f 25/25/25 26/26/26 27/27/27
f 28/28/28 29/29/29 30/30/30
f 31/31/31 32/32/32 33/33/33
f 34/34/34 35/35/35 36/36/36
f 37/37/37 38/38/38 39/39/39
f 40/40/40 41/41/41 42/42/42
f 43/43/43 44/44/44 45/45/45
f 46/46/46 47/47/47 48/48/48
f 49/49/49 50/50/50 51/51/51
f 52/52/52 53/53/53 54/54/54
f 55/55/55 56/56/56 57/57/57
f 58/58/58 59/59/59 60/60/60
f 61/61/61 62/62/62 63/63/63
f 64/64/64 65/65/65 66/66/66
f 67/67/67 68/68/68 69/69/69
f 70/70/70 71/71/71 72/72/72
f 73/73/73 74/74/74 75/75/75
f 76/76/76 77/77/77 78/78/78
f 79/79/79 80/80/80 81/81/81
f 82/82/82 83/83/83 84/84/84
f 85/85/85 86/86/86 87/87/87
f 88/88/88 89/89/89 90/90/90
f 91/91/91 92/92/92 93/93/93
f 94/94/94 95/95/95 96/96/96
