g  Instance
v -7.156772 -50.68947 -1.051266
v -7.532513 -51.2048 -1.791403
v -7.196187 -50.2897 -0.8497674
v -7.196187 -50.2897 -0.8497674
v -7.532513 -51.2048 -1.791403
v -8.116297 -50.75258 -2.170744
v -8.116297 -50.75258 -2.170744
v -7.532513 -51.2048 -1.791403
v -8.127106 -51.07328 -2.380169
v -9.178257 -51.2323 0.7786143
v -8.920166 -50.99858 0.6444848
v -9.094297 -50.82454 -2.009565
v -9.094297 -50.82454 -2.009565
v -8.920166 -50.99858 0.6444848
v -8.040922 -50.17395 -0.04763842
v -7.196187 -50.2897 -0.8497674
v -7.420851 -50.17467 -0.3225228
v -7.156772 -50.68947 -1.051266
v -7.156772 -50.68947 -1.051266
v -7.420851 -50.17467 -0.3225228
v -7.241771 -51.11927 -0.9876993
v -7.241771 -51.11927 -0.9876993
v -7.420851 -50.17467 -0.3225228
v -7.441255 -50.22952 -0.293385
v -8.116297 -50.75258 -2.170744
v -9.039209 -50.86397 -2.180689
v -7.196187 -50.2897 -0.8497674
v -7.196187 -50.2897 -0.8497674
v -9.039209 -50.86397 -2.180689
v -7.420851 -50.17467 -0.3225228
v -7.420851 -50.17467 -0.3225228
v -9.039209 -50.86397 -2.180689
v -8.040922 -50.17395 -0.04763842
v -8.040922 -50.17395 -0.04763842
v -9.039209 -50.86397 -2.180689
v -9.094297 -50.82454 -2.009565
v -8.941269 -51.53293 0.7500426
v -8.605444 -51.15427 0.5618269
v -9.178257 -51.2323 0.7786143
v -9.178257 -51.2323 0.7786143
v -8.605444 -51.15427 0.5618269
v -8.920166 -50.99858 0.6444848
v -8.486109 -51.98034 -0.007059276
v -7.502288 -51.97329 -1.134479
v -8.941269 -51.53293 0.7500426
v -8.941269 -51.53293 0.7500426
v -7.502288 -51.97329 -1.134479
v -8.605444 -51.15427 0.5618269
v -8.605444 -51.15427 0.5618269
v -7.502288 -51.97329 -1.134479
v -7.441255 -50.22952 -0.293385
v -7.441255 -50.22952 -0.293385
v -7.502288 -51.97329 -1.134479
v -7.241771 -51.11927 -0.9876993
v -8.384523 -51.26719 -2.489661
v -7.580497 -51.84908 -1.459276
v -8.776651 -51.16327 -2.394747
v -8.776651 -51.16327 -2.394747
v -7.580497 -51.84908 -1.459276
v -8.486109 -51.98034 -0.007059276
v -8.486109 -51.98034 -0.007059276
v -7.580497 -51.84908 -1.459276
v -7.502288 -51.97329 -1.134479
v -8.127106 -51.07328 -2.380169
v -7.532513 -51.2048 -1.791403
v -8.384523 -51.26719 -2.489661
v -8.384523 -51.26719 -2.489661
v -7.532513 -51.2048 -1.791403
v -7.580497 -51.84908 -1.459276
v -9.094297 -50.82454 -2.009565
v -9.039209 -50.86397 -2.180689
v -9.178257 -51.2323 0.7786143
v -9.178257 -51.2323 0.7786143
v -9.039209 -50.86397 -2.180689
v -8.941269 -51.53293 0.7500426
v -8.941269 -51.53293 0.7500426
v -9.039209 -50.86397 -2.180689
v -8.486109 -51.98034 -0.007059276
v -8.486109 -51.98034 -0.007059276
v -9.039209 -50.86397 -2.180689
v -8.776651 -51.16327 -2.394747
v -9.039209 -50.86397 -2.180689
v -8.116297 -50.75258 -2.170744
v -8.776651 -51.16327 -2.394747
v -8.776651 -51.16327 -2.394747
v -8.116297 -50.75258 -2.170744
v -8.384523 -51.26719 -2.489661
v -8.384523 -51.26719 -2.489661
v -8.116297 -50.75258 -2.170744
v -8.127106 -51.07328 -2.380169
v -7.580497 -51.84908 -1.459276
v -7.532513 -51.2048 -1.791403
v -7.502288 -51.97329 -1.134479
v -7.502288 -51.97329 -1.134479
v -7.532513 -51.2048 -1.791403
v -7.241771 -51.11927 -0.9876993
v -7.241771 -51.11927 -0.9876993
v -7.532513 -51.2048 -1.791403
v -7.156772 -50.68947 -1.051266
v -7.420851 -50.17467 -0.3225228
v -8.040922 -50.17395 -0.04763842
v -7.441255 -50.22952 -0.293385
v -7.441255 -50.22952 -0.293385
v -8.040922 -50.17395 -0.04763842
v -8.605444 -51.15427 0.5618269
v -8.605444 -51.15427 0.5618269
v -8.040922 -50.17395 -0.04763842
v -8.920166 -50.99858 0.6444848

vn 0.692274 0.3780656 -0.6146733
vn 0.692274 0.3780656 -0.6146733
vn 0.692274 0.3780656 -0.6146733
vn 0.692274 0.3780656 -0.6146733
vn 0.692274 0.3780656 -0.6146733
vn 0.692274 0.3780656 -0.6146733
vn 0.692274 0.3780656 -0.6146733
vn 0.692274 0.3780656 -0.6146733
vn 0.692274 0.3780656 -0.6146733
vn -0.6416857 0.7614258 0.0920336
vn -0.6416857 0.7614258 0.0920336
vn -0.6416857 0.7614258 0.0920336
vn -0.6416857 0.7614258 0.0920336
vn -0.6416857 0.7614258 0.0920336
vn -0.6416857 0.7614258 0.0920336
vn 0.9039924 -0.1180007 0.4109426
vn 0.9039924 -0.1180007 0.4109426
vn 0.9039924 -0.1180007 0.4109426
vn 0.9039924 -0.1180007 0.4109426
vn 0.9039924 -0.1180007 0.4109426
vn 0.9039924 -0.1180007 0.4109426
vn 0.9039924 -0.1180007 0.4109426
vn 0.9039924 -0.1180007 0.4109426
vn 0.9039924 -0.1180007 0.4109426
vn -0.1130471 0.9596361 -0.257525
vn -0.1130471 0.9596361 -0.257525
vn -0.1130471 0.9596361 -0.257525
vn -0.1130471 0.9596361 -0.257525
vn -0.1130471 0.9596361 -0.257525
vn -0.1130471 0.9596361 -0.257525
vn -0.1130471 0.9596361 -0.257525
vn -0.1130471 0.9596361 -0.257525
vn -0.1130471 0.9596361 -0.257525
vn -0.1130471 0.9596361 -0.257525
vn -0.1130471 0.9596361 -0.257525
vn -0.1130471 0.9596361 -0.257525
vn 0.3283626 0.170559 0.9290251
vn 0.3283626 0.170559 0.9290251
vn 0.3283626 0.170559 0.9290251
vn 0.3283626 0.170559 0.9290251
vn 0.3283626 0.170559 0.9290251
vn 0.3283626 0.170559 0.9290251
vn 0.7137182 -0.3244124 0.6207761
vn 0.7137182 -0.3244124 0.6207761
vn 0.7137182 -0.3244124 0.6207761
vn 0.7137182 -0.3244124 0.6207761
vn 0.7137182 -0.3244124 0.6207761
vn 0.7137182 -0.3244124 0.6207761
vn 0.7137182 -0.3244124 0.6207761
vn 0.7137182 -0.3244124 0.6207761
vn 0.7137182 -0.3244124 0.6207761
vn 0.7137182 -0.3244124 0.6207761
vn 0.7137182 -0.3244124 0.6207761
vn 0.7137182 -0.3244124 0.6207761
vn -0.3078185 -0.9110452 -0.2743073
vn -0.3078185 -0.9110452 -0.2743073
vn -0.3078185 -0.9110452 -0.2743073
vn -0.3078185 -0.9110452 -0.2743073
vn -0.3078185 -0.9110452 -0.2743073
vn -0.3078185 -0.9110452 -0.2743073
vn -0.3078185 -0.9110452 -0.2743073
vn -0.3078185 -0.9110452 -0.2743073
vn -0.3078185 -0.9110452 -0.2743073
vn 0.5978448 -0.4019893 -0.6935317
vn 0.5978448 -0.4019893 -0.6935317
vn 0.5978448 -0.4019893 -0.6935317
vn 0.5978448 -0.4019893 -0.6935317
vn 0.5978448 -0.4019893 -0.6935317
vn 0.5978448 -0.4019893 -0.6935317
vn -0.7855169 -0.6085011 -0.1126494
vn -0.7855169 -0.6085011 -0.1126494
vn -0.7855169 -0.6085011 -0.1126494
vn -0.7855169 -0.6085011 -0.1126494
vn -0.7855169 -0.6085011 -0.1126494
vn -0.7855169 -0.6085011 -0.1126494
vn -0.7855169 -0.6085011 -0.1126494
vn -0.7855169 -0.6085011 -0.1126494
vn -0.7855169 -0.6085011 -0.1126494
vn -0.7855169 -0.6085011 -0.1126494
vn -0.7855169 -0.6085011 -0.1126494
vn -0.7855169 -0.6085011 -0.1126494
vn -0.05705461 0.5472159 -0.8350446
vn -0.05705461 0.5472159 -0.8350446
vn -0.05705461 0.5472159 -0.8350446
vn -0.05705461 0.5472159 -0.8350446
vn -0.05705461 0.5472159 -0.8350446
vn -0.05705461 0.5472159 -0.8350446
vn -0.05705461 0.5472159 -0.8350446
vn -0.05705461 0.5472159 -0.8350446
vn -0.05705461 0.5472159 -0.8350446
vn 0.9230443 -0.2283433 -0.3095942
vn 0.9230443 -0.2283433 -0.3095942
vn 0.9230443 -0.2283433 -0.3095942
vn 0.9230443 -0.2283433 -0.3095942
vn 0.9230443 -0.2283433 -0.3095942
vn 0.9230443 -0.2283433 -0.3095942
vn 0.9230443 -0.2283433 -0.3095942
vn 0.9230443 -0.2283433 -0.3095942
vn 0.9230443 -0.2283433 -0.3095942
vn 0.3846326 0.3173971 0.8667855
vn 0.3846326 0.3173971 0.8667855
vn 0.3846326 0.3173971 0.8667855
vn 0.3846326 0.3173971 0.8667855
vn 0.3846326 0.3173971 0.8667855
vn 0.3846326 0.3173971 0.8667855
vn 0.3846326 0.3173971 0.8667855
vn 0.3846326 0.3173971 0.8667855
vn 0.3846326 0.3173971 0.8667855

vt 0.4594156 0.416499
vt 0.4933316 0.5334449
vt 0.4133301 0.3846597
vt 0.4133301 0.3846597
vt 0.4933316 0.5334449
vt 0.4089986 0.5933827
vt 0.4089986 0.5933827
vt 0.4933316 0.5334449
vt 0.4434303 0.6264784
vt 0.4480478 0.355469
vt 0.4824044 0.3687682
vt 0.4803278 0.6319256
vt 0.4803278 0.6319256
vt 0.4824044 0.3687682
vt 0.6012441 0.4373924
vt 0.3341537 0.5495427
vt 0.3249891 0.4871766
vt 0.376353 0.5733753
vt 0.376353 0.5733753
vt 0.3249891 0.4871766
vt 0.4234932 0.5658561
vt 0.4234932 0.5658561
vt 0.3249891 0.4871766
vt 0.3311394 0.4837358
vt 0.5199581 0.6163622
vt 0.4253777 0.6174122
vt 0.6184388 0.4772713
vt 0.6184388 0.4772713
vt 0.4253777 0.6174122
vt 0.5971095 0.4217541
vt 0.5971095 0.4217541
vt 0.4253777 0.6174122
vt 0.5344715 0.3928117
vt 0.5344715 0.3928117
vt 0.4253777 0.6174122
vt 0.4202821 0.5993924
vt 0.4720117 0.5864448
vt 0.5143141 0.5494395
vt 0.5022572 0.6125651
vt 0.5022572 0.6125651
vt 0.5143141 0.5494395
vt 0.5287055 0.584129
vt 0.5422157 0.425162
vt 0.4903596 0.6054959
vt 0.5147641 0.3040629
vt 0.5147641 0.3040629
vt 0.4903596 0.6054959
vt 0.454109 0.3341677
vt 0.454109 0.3341677
vt 0.4903596 0.6054959
vt 0.2881292 0.4709616
vt 0.2881292 0.4709616
vt 0.4903596 0.6054959
vt 0.3793532 0.5820196
vt 0.5075918 0.6773782
vt 0.4106815 0.5678437
vt 0.5489755 0.6672807
vt 0.5489755 0.6672807
vt 0.4106815 0.5678437
vt 0.4941004 0.413452
vt 0.4941004 0.413452
vt 0.4106815 0.5678437
vt 0.3990418 0.5333136
vt 0.4159834 0.6715279
vt 0.385602 0.5599964
vt 0.4575499 0.6922665
vt 0.4575499 0.6922665
vt 0.385602 0.5599964
vt 0.4622189 0.4970959
vt 0.5978127 0.6203843
vt 0.5913904 0.6374196
vt 0.5709986 0.3427557
vt 0.5709986 0.3427557
vt 0.5913904 0.6374196
vt 0.5331214 0.3455965
vt 0.5331214 0.3455965
vt 0.5913904 0.6374196
vt 0.4705538 0.4209853
vt 0.4705538 0.4209853
vt 0.5913904 0.6374196
vt 0.5520694 0.6587396
vt 0.3746654 0.5183221
vt 0.5407531 0.515097
vt 0.4157818 0.5878512
vt 0.4157818 0.5878512
vt 0.5407531 0.515097
vt 0.4835435 0.6186686
vt 0.4835435 0.6186686
vt 0.5407531 0.515097
vt 0.532887 0.5831165
vt 0.4966599 0.5431486
vt 0.4308061 0.5792725
vt 0.5071887 0.5078403
vt 0.5071887 0.5078403
vt 0.4308061 0.5792725
vt 0.414999 0.4918831
vt 0.414999 0.4918831
vt 0.4308061 0.5792725
vt 0.3697526 0.4987929
vt 0.3852316 0.728878
vt 0.3073162 0.6201968
vt 0.3910117 0.7173648
vt 0.3910117 0.7173648
vt 0.3073162 0.6201968
vt 0.385541 0.3792688
vt 0.385541 0.3792688
vt 0.3073162 0.6201968
vt 0.3223827 0.3465903

usemtl Material0
usemap Material0

usemtl Material1
usemap Material1
f 1/1/1 2/2/2 3/3/3
f 4/4/4 5/5/5 6/6/6
f 7/7/7 8/8/8 9/9/9
f 10/10/10 11/11/11 12/12/12
f 13/13/13 14/14/14 15/15/15
f 16/16/16 17/17/17 18/18/18
f 19/19/19 20/20/20 21/21/21
f 22/22/22 23/23/23 24/24/24
f 25/25/25 26/26/26 27/27/27
f 28/28/28 29/29/29 30/30/30
f 31/31/31 32/32/32 33/33/33
f 34/34/34 35/35/35 36/36/36
f 37/37/37 38/38/38 39/39/39
f 40/40/40 41/41/41 42/42/42
f 43/43/43 44/44/44 45/45/45
f 46/46/46 47/47/47 48/48/48
f 49/49/49 50/50/50 51/51/51
f 52/52/52 53/53/53 54/54/54
f 55/55/55 56/56/56 57/57/57
f 58/58/58 59/59/59 60/60/60
f 61/61/61 62/62/62 63/63/63
f 64/64/64 65/65/65 66/66/66
f 67/67/67 68/68/68 69/69/69
f 70/70/70 71/71/71 72/72/72
f 73/73/73 74/74/74 75/75/75
f 76/76/76 77/77/77 78/78/78
f 79/79/79 80/80/80 81/81/81
f 82/82/82 83/83/83 84/84/84
f 85/85/85 86/86/86 87/87/87
f 88/88/88 89/89/89 90/90/90
f 91/91/91 92/92/92 93/93/93
f 94/94/94 95/95/95 96/96/96
f 97/97/97 98/98/98 99/99/99
f 100/100/100 101/101/101 102/102/102
f 103/103/103 104/104/104 105/105/105
f 106/106/106 107/107/107 108/108/108
