g  Instance
v 2.471208 -47.55951 1.382671
v 1.76832 -48.00305 1.190758
v 2.506841 -47.34772 0.9842969
v -0.08056523 -48.50259 1.275948
v -0.3721358 -48.17385 1.64977
v -0.3230368 -48.13571 1.123544
v -0.3230368 -48.13571 1.123544
v -0.3721358 -48.17385 1.64977
v -0.5385259 -47.88192 1.346113
v -0.3721358 -48.17385 1.64977
v -0.08056523 -48.50259 1.275948
v 0.4544517 -46.40355 2.979762
v 0.4544517 -46.40355 2.979762
v -0.08056523 -48.50259 1.275948
v 2.100019 -46.90629 2.066152
v 2.100019 -46.90629 2.066152
v -0.08056523 -48.50259 1.275948
v 2.471208 -47.55951 1.382671
v 2.471208 -47.55951 1.382671
v -0.08056523 -48.50259 1.275948
v 1.76832 -48.00305 1.190758
v -0.3626463 -45.76788 1.532822
v -0.3101796 -46.10414 0.9923506
v -0.5413187 -47.81924 1.337815
v -0.5413187 -47.81924 1.337815
v -0.3101796 -46.10414 0.9923506
v -0.2960541 -46.34338 0.752141
v -0.5385259 -47.88192 1.346113
v -0.3721358 -48.17385 1.64977
v -0.5413187 -47.81924 1.337815
v -0.5413187 -47.81924 1.337815
v -0.3721358 -48.17385 1.64977
v -0.3626463 -45.76788 1.532822
v -0.3626463 -45.76788 1.532822
v -0.3721358 -48.17385 1.64977
v -0.2577585 -45.42604 1.695092
v -0.2577585 -45.42604 1.695092
v -0.3721358 -48.17385 1.64977
v -0.1731345 -45.30847 1.834783
v -0.1731345 -45.30847 1.834783
v -0.3721358 -48.17385 1.64977
v -0.1484046 -45.31352 1.877789
v -0.1484046 -45.31352 1.877789
v -0.3721358 -48.17385 1.64977
v 0.4544517 -46.40355 2.979762
v 2.290528 -46.67451 1.027936
v 2.436061 -47.00563 0.8509088
v 2.371855 -46.90736 0.8101395
v 0.4544517 -46.40355 2.979762
v 2.100019 -46.90629 2.066152
v -0.1484046 -45.31352 1.877789
v -0.1484046 -45.31352 1.877789
v 2.100019 -46.90629 2.066152
v -0.1380437 -45.30235 1.849305
v -0.1380437 -45.30235 1.849305
v 2.100019 -46.90629 2.066152
v 2.160724 -46.4294 1.246713
v -0.1731345 -45.30847 1.834783
v -0.1484046 -45.31352 1.877789
v -0.1380437 -45.30235 1.849305
v -0.3626463 -45.76788 1.532822
v -0.2577585 -45.42604 1.695092
v -0.3101796 -46.10414 0.9923506
v -0.5385259 -47.88192 1.346113
v -0.5413187 -47.81924 1.337815
v -0.3230368 -48.13571 1.123544
v -0.3230368 -48.13571 1.123544
v -0.5413187 -47.81924 1.337815
v -0.09865122 -46.58746 0.5504379
v -0.09865122 -46.58746 0.5504379
v -0.5413187 -47.81924 1.337815
v -0.2960541 -46.34338 0.752141
v 2.290528 -46.67451 1.027936
v 2.371855 -46.90736 0.8101395
v 2.160724 -46.4294 1.246713
v 2.160724 -46.4294 1.246713
v 2.371855 -46.90736 0.8101395
v -0.1380437 -45.30235 1.849305
v -0.1380437 -45.30235 1.849305
v 2.371855 -46.90736 0.8101395
v -0.1731345 -45.30847 1.834783
v -0.1731345 -45.30847 1.834783
v 2.371855 -46.90736 0.8101395
v -0.2577585 -45.42604 1.695092
v -0.2577585 -45.42604 1.695092
v 2.371855 -46.90736 0.8101395
v -0.3101796 -46.10414 0.9923506
v -0.3101796 -46.10414 0.9923506
v 2.371855 -46.90736 0.8101395
v -0.2960541 -46.34338 0.752141
v -0.2960541 -46.34338 0.752141
v 2.371855 -46.90736 0.8101395
v -0.09865122 -46.58746 0.5504379
v 2.100019 -46.90629 2.066152
v 2.471208 -47.55951 1.382671
v 2.160724 -46.4294 1.246713
v 2.160724 -46.4294 1.246713
v 2.471208 -47.55951 1.382671
v 2.290528 -46.67451 1.027936
v 2.290528 -46.67451 1.027936
v 2.471208 -47.55951 1.382671
v 2.436061 -47.00563 0.8509088
v 2.436061 -47.00563 0.8509088
v 2.471208 -47.55951 1.382671
v 2.506841 -47.34772 0.9842969
v -0.3230368 -48.13571 1.123544
v -0.09865122 -46.58746 0.5504379
v -0.08056523 -48.50259 1.275948
v -0.08056523 -48.50259 1.275948
v -0.09865122 -46.58746 0.5504379
v 1.76832 -48.00305 1.190758
v 1.76832 -48.00305 1.190758
v -0.09865122 -46.58746 0.5504379
v 2.506841 -47.34772 0.9842969
v 2.506841 -47.34772 0.9842969
v -0.09865122 -46.58746 0.5504379
v 2.436061 -47.00563 0.8509088
v 2.436061 -47.00563 0.8509088
v -0.09865122 -46.58746 0.5504379
v 2.371855 -46.90736 0.8101395

vn 0.5664327 -0.7475894 -0.3467911
vn 0.5664327 -0.7475894 -0.3467911
vn 0.5664327 -0.7475894 -0.3467911
vn -0.8054063 -0.5810089 -0.1172579
vn -0.8054063 -0.5810089 -0.1172579
vn -0.8054063 -0.5810089 -0.1172579
vn -0.8054063 -0.5810089 -0.1172579
vn -0.8054063 -0.5810089 -0.1172579
vn -0.8054063 -0.5810089 -0.1172579
vn 0.2087969 -0.6478645 0.7325814
vn 0.2087969 -0.6478645 0.7325814
vn 0.2087969 -0.6478645 0.7325814
vn 0.2087969 -0.6478645 0.7325814
vn 0.2087969 -0.6478645 0.7325814
vn 0.2087969 -0.6478645 0.7325814
vn 0.2087969 -0.6478645 0.7325814
vn 0.2087969 -0.6478645 0.7325814
vn 0.2087969 -0.6478645 0.7325814
vn 0.2087969 -0.6478645 0.7325814
vn 0.2087969 -0.6478645 0.7325814
vn 0.2087969 -0.6478645 0.7325814
vn -0.9823151 0.1005722 -0.1579314
vn -0.9823151 0.1005722 -0.1579314
vn -0.9823151 0.1005722 -0.1579314
vn -0.9823151 0.1005722 -0.1579314
vn -0.9823151 0.1005722 -0.1579314
vn -0.9823151 0.1005722 -0.1579314
vn -0.8651479 0.02775146 0.5007485
vn -0.8651479 0.02775146 0.5007485
vn -0.8651479 0.02775146 0.5007485
vn -0.8651479 0.02775146 0.5007485
vn -0.8651479 0.02775146 0.5007485
vn -0.8651479 0.02775146 0.5007485
vn -0.8651479 0.02775146 0.5007485
vn -0.8651479 0.02775146 0.5007485
vn -0.8651479 0.02775146 0.5007485
vn -0.8651479 0.02775146 0.5007485
vn -0.8651479 0.02775146 0.5007485
vn -0.8651479 0.02775146 0.5007485
vn -0.8651479 0.02775146 0.5007485
vn -0.8651479 0.02775146 0.5007485
vn -0.8651479 0.02775146 0.5007485
vn -0.8651479 0.02775146 0.5007485
vn -0.8651479 0.02775146 0.5007485
vn -0.8651479 0.02775146 0.5007485
vn 0.85614 0.4794051 -0.1928604
vn 0.85614 0.4794051 -0.1928604
vn 0.85614 0.4794051 -0.1928604
vn 0.4849682 0.739758 0.4664376
vn 0.4849682 0.739758 0.4664376
vn 0.4849682 0.739758 0.4664376
vn 0.4849682 0.739758 0.4664376
vn 0.4849682 0.739758 0.4664376
vn 0.4849682 0.739758 0.4664376
vn 0.4849682 0.739758 0.4664376
vn 0.4849682 0.739758 0.4664376
vn 0.4849682 0.739758 0.4664376
vn -0.2708123 0.9256055 0.2644149
vn -0.2708123 0.9256055 0.2644149
vn -0.2708123 0.9256055 0.2644149
vn -0.8398281 0.4205951 -0.3432035
vn -0.8398281 0.4205951 -0.3432035
vn -0.8398281 0.4205951 -0.3432035
vn -0.7766645 -0.1165812 -0.6190325
vn -0.7766645 -0.1165812 -0.6190325
vn -0.7766645 -0.1165812 -0.6190325
vn -0.7766645 -0.1165812 -0.6190325
vn -0.7766645 -0.1165812 -0.6190325
vn -0.7766645 -0.1165812 -0.6190325
vn -0.7766645 -0.1165812 -0.6190325
vn -0.7766645 -0.1165812 -0.6190325
vn -0.7766645 -0.1165812 -0.6190325
vn 0.1638022 0.7037519 -0.6913046
vn 0.1638022 0.7037519 -0.6913046
vn 0.1638022 0.7037519 -0.6913046
vn 0.1638022 0.7037519 -0.6913046
vn 0.1638022 0.7037519 -0.6913046
vn 0.1638022 0.7037519 -0.6913046
vn 0.1638022 0.7037519 -0.6913046
vn 0.1638022 0.7037519 -0.6913046
vn 0.1638022 0.7037519 -0.6913046
vn 0.1638022 0.7037519 -0.6913046
vn 0.1638022 0.7037519 -0.6913046
vn 0.1638022 0.7037519 -0.6913046
vn 0.1638022 0.7037519 -0.6913046
vn 0.1638022 0.7037519 -0.6913046
vn 0.1638022 0.7037519 -0.6913046
vn 0.1638022 0.7037519 -0.6913046
vn 0.1638022 0.7037519 -0.6913046
vn 0.1638022 0.7037519 -0.6913046
vn 0.1638022 0.7037519 -0.6913046
vn 0.1638022 0.7037519 -0.6913046
vn 0.1638022 0.7037519 -0.6913046
vn 0.929949 0.2836479 0.2339634
vn 0.929949 0.2836479 0.2339634
vn 0.929949 0.2836479 0.2339634
vn 0.929949 0.2836479 0.2339634
vn 0.929949 0.2836479 0.2339634
vn 0.929949 0.2836479 0.2339634
vn 0.929949 0.2836479 0.2339634
vn 0.929949 0.2836479 0.2339634
vn 0.929949 0.2836479 0.2339634
vn 0.929949 0.2836479 0.2339634
vn 0.929949 0.2836479 0.2339634
vn 0.929949 0.2836479 0.2339634
vn 0.05243272 -0.3533508 -0.9340203
vn 0.05243272 -0.3533508 -0.9340203
vn 0.05243272 -0.3533508 -0.9340203
vn 0.05243272 -0.3533508 -0.9340203
vn 0.05243272 -0.3533508 -0.9340203
vn 0.05243272 -0.3533508 -0.9340203
vn 0.05243272 -0.3533508 -0.9340203
vn 0.05243272 -0.3533508 -0.9340203
vn 0.05243272 -0.3533508 -0.9340203
vn 0.05243272 -0.3533508 -0.9340203
vn 0.05243272 -0.3533508 -0.9340203
vn 0.05243272 -0.3533508 -0.9340203
vn 0.05243272 -0.3533508 -0.9340203
vn 0.05243272 -0.3533508 -0.9340203
vn 0.05243272 -0.3533508 -0.9340203

vt 0.3578785 0.4756634
vt 0.4446773 0.4971053
vt 0.3414947 0.5201785
vt 0.4301967 0.5201785
vt 0.4734742 0.4829107
vt 0.4736899 0.5353575
vt 0.4736899 0.5353575
vt 0.4734742 0.4829107
vt 0.5065418 0.513175
vt 0.6713451 0.5603715
vt 0.6458342 0.6396885
vt 0.4792871 0.2781676
vt 0.4792871 0.2781676
vt 0.6458342 0.6396885
vt 0.2753503 0.4720163
vt 0.2753503 0.4720163
vt 0.6458342 0.6396885
vt 0.2532615 0.6170372
vt 0.2532615 0.6170372
vt 0.6458342 0.6396885
vt 0.369537 0.6577552
vt 0.6250017 0.4922581
vt 0.5922248 0.5467488
vt 0.4200149 0.511928
vt 0.4200149 0.511928
vt 0.5922248 0.5467488
vt 0.5686735 0.5709752
vt 0.4121675 0.5948547
vt 0.3796344 0.5550086
vt 0.4192742 0.5959423
vt 0.4192742 0.5959423
vt 0.3796344 0.5550086
vt 0.6527908 0.5703564
vt 0.6527908 0.5703564
vt 0.3796344 0.5550086
vt 0.6919806 0.5490645
vt 0.6919806 0.5490645
vt 0.3796344 0.5550086
vt 0.7056314 0.5307354
vt 0.7056314 0.5307354
vt 0.3796344 0.5550086
vt 0.7051439 0.5250913
vt 0.7051439 0.5250913
vt 0.3796344 0.5550086
vt 0.5835993 0.380497
vt 0.5213739 0.5269758
vt 0.5574416 0.5450518
vt 0.5457128 0.5492145
vt 0.4214447 0.3987558
vt 0.6050318 0.51355
vt 0.2989907 0.5372139
vt 0.2989907 0.5372139
vt 0.6050318 0.51355
vt 0.299272 0.5407953
vt 0.299272 0.5407953
vt 0.6050318 0.51355
vt 0.5816118 0.6165122
vt 0.4649425 0.5367357
vt 0.467216 0.5321885
vt 0.4685474 0.5351981
vt 0.579971 0.4543903
vt 0.6168825 0.4363096
vt 0.5509631 0.5146188
vt 0.4318421 0.4305624
vt 0.439652 0.4318843
vt 0.3964213 0.4660394
vt 0.3964213 0.4660394
vt 0.439652 0.4318843
vt 0.5839087 0.5573806
vt 0.5839087 0.5573806
vt 0.439652 0.4318843
vt 0.617792 0.5252319
vt 0.6905836 0.4735539
vt 0.7085378 0.5145625
vt 0.6658229 0.4323578
vt 0.6658229 0.4323578
vt 0.7085378 0.5145625
vt 0.3264376 0.3188903
vt 0.3264376 0.3188903
vt 0.7085378 0.5145625
vt 0.3219795 0.3216233
vt 0.3219795 0.3216233
vt 0.7085378 0.5145625
vt 0.31439 0.3479263
vt 0.31439 0.3479263
vt 0.7085378 0.5145625
vt 0.3283549 0.4802574
vt 0.3283549 0.4802574
vt 0.7085378 0.5145625
vt 0.3376039 0.525485
vt 0.3376039 0.525485
vt 0.7085378 0.5145625
vt 0.3712902 0.5634654
vt 0.5009633 0.4931301
vt 0.5750957 0.5642154
vt 0.4566357 0.5783443
vt 0.4566357 0.5783443
vt 0.5750957 0.5642154
vt 0.484167 0.6010988
vt 0.484167 0.6010988
vt 0.5750957 0.5642154
vt 0.5204832 0.6195124
vt 0.5204832 0.6195124
vt 0.5750957 0.5642154
vt 0.5556602 0.6056459
vt 0.5478035 0.5804351
vt 0.3852879 0.5583088
vt 0.5868995 0.5565274
vt 0.5868995 0.5565274
vt 0.3852879 0.5583088
vt 0.5379404 0.3742622
vt 0.5379404 0.3742622
vt 0.3852879 0.5583088
vt 0.4704037 0.3014612
vt 0.4704037 0.3014612
vt 0.3852879 0.5583088
vt 0.434261 0.3084413
vt 0.434261 0.3084413
vt 0.3852879 0.5583088
vt 0.4237932 0.3147697

usemtl Material0
usemap Material0

usemtl Material1
usemap Material1
f 1/1/1 2/2/2 3/3/3
f 4/4/4 5/5/5 6/6/6
f 7/7/7 8/8/8 9/9/9
f 10/10/10 11/11/11 12/12/12
f 13/13/13 14/14/14 15/15/15
f 16/16/16 17/17/17 18/18/18
f 19/19/19 20/20/20 21/21/21
f 22/22/22 23/23/23 24/24/24
f 25/25/25 26/26/26 27/27/27
f 28/28/28 29/29/29 30/30/30
f 31/31/31 32/32/32 33/33/33
f 34/34/34 35/35/35 36/36/36
f 37/37/37 38/38/38 39/39/39
f 40/40/40 41/41/41 42/42/42
f 43/43/43 44/44/44 45/45/45
f 46/46/46 47/47/47 48/48/48
f 49/49/49 50/50/50 51/51/51
f 52/52/52 53/53/53 54/54/54
f 55/55/55 56/56/56 57/57/57
f 58/58/58 59/59/59 60/60/60
f 61/61/61 62/62/62 63/63/63
f 64/64/64 65/65/65 66/66/66
f 67/67/67 68/68/68 69/69/69
f 70/70/70 71/71/71 72/72/72
f 73/73/73 74/74/74 75/75/75
f 76/76/76 77/77/77 78/78/78
f 79/79/79 80/80/80 81/81/81
f 82/82/82 83/83/83 84/84/84
f 85/85/85 86/86/86 87/87/87
f 88/88/88 89/89/89 90/90/90
f 91/91/91 92/92/92 93/93/93
f 94/94/94 95/95/95 96/96/96
f 97/97/97 98/98/98 99/99/99
f 100/100/100 101/101/101 102/102/102
f 103/103/103 104/104/104 105/105/105
f 106/106/106 107/107/107 108/108/108
f 109/109/109 110/110/110 111/111/111
f 112/112/112 113/113/113 114/114/114
f 115/115/115 116/116/116 117/117/117
f 118/118/118 119/119/119 120/120/120
