g  Instance
v -6.044133 -49.55751 3.094034
v -6.72486 -49.09652 3.163877
v -4.399712 -48.76195 1.360636
v -4.399712 -48.76195 1.360636
v -6.72486 -49.09652 3.163877
v -4.689803 -48.47873 1.319279
v -4.689803 -48.47873 1.319279
v -6.72486 -49.09652 3.163877
v -6.059331 -47.61462 1.511704
v -6.059331 -47.61462 1.511704
v -6.72486 -49.09652 3.163877
v -7.453647 -47.82058 2.597419
v -4.981493 -48.87147 4.384413
v -6.55696 -48.7834 3.571576
v -4.951287 -48.99965 4.274068
v -4.951287 -48.99965 4.274068
v -6.55696 -48.7834 3.571576
v -5.020458 -49.27401 3.961385
v -5.020458 -49.27401 3.961385
v -6.55696 -48.7834 3.571576
v -6.044133 -49.55751 3.094034
v -6.044133 -49.55751 3.094034
v -6.55696 -48.7834 3.571576
v -6.72486 -49.09652 3.163877
v -7.178167 -47.71912 3.078077
v -6.55696 -48.7834 3.571576
v -5.419099 -47.61852 3.952214
v -5.419099 -47.61852 3.952214
v -6.55696 -48.7834 3.571576
v -4.766353 -48.62305 4.451648
v -4.766353 -48.62305 4.451648
v -6.55696 -48.7834 3.571576
v -4.774094 -48.63576 4.449862
v -4.774094 -48.63576 4.449862
v -6.55696 -48.7834 3.571576
v -4.981493 -48.87147 4.384413
v -4.399712 -48.76195 1.360636
v -4.689803 -48.47873 1.319279
v -4.063622 -48.68331 1.778077
v -4.063622 -48.68331 1.778077
v -4.689803 -48.47873 1.319279
v -5.042904 -47.45017 1.890125
v -4.143863 -48.78239 2.416534
v -5.020458 -49.27401 3.961385
v -4.063622 -48.68331 1.778077
v -4.063622 -48.68331 1.778077
v -5.020458 -49.27401 3.961385
v -4.399712 -48.76195 1.360636
v -4.399712 -48.76195 1.360636
v -5.020458 -49.27401 3.961385
v -6.044133 -49.55751 3.094034
v -5.800281 -47.45318 1.68547
v -7.353668 -47.71236 2.804443
v -5.086146 -47.40065 1.910584
v -5.086146 -47.40065 1.910584
v -7.353668 -47.71236 2.804443
v -5.419099 -47.61852 3.952214
v -5.419099 -47.61852 3.952214
v -7.353668 -47.71236 2.804443
v -7.178167 -47.71912 3.078077
v -5.042904 -47.45017 1.890125
v -5.086146 -47.40065 1.910584
v -4.063622 -48.68331 1.778077
v -4.063622 -48.68331 1.778077
v -5.086146 -47.40065 1.910584
v -4.143863 -48.78239 2.416534
v -4.143863 -48.78239 2.416534
v -5.086146 -47.40065 1.910584
v -4.766353 -48.62305 4.451648
v -4.766353 -48.62305 4.451648
v -5.086146 -47.40065 1.910584
v -5.419099 -47.61852 3.952214
v -6.059331 -47.61462 1.511704
v -5.800281 -47.45318 1.68547
v -4.689803 -48.47873 1.319279
v -4.689803 -48.47873 1.319279
v -5.800281 -47.45318 1.68547
v -5.042904 -47.45017 1.890125
v -5.042904 -47.45017 1.890125
v -5.800281 -47.45318 1.68547
v -5.086146 -47.40065 1.910584
v -4.766353 -48.62305 4.451648
v -4.774094 -48.63576 4.449862
v -4.143863 -48.78239 2.416534
v -4.143863 -48.78239 2.416534
v -4.774094 -48.63576 4.449862
v -5.020458 -49.27401 3.961385
v -5.020458 -49.27401 3.961385
v -4.774094 -48.63576 4.449862
v -4.951287 -48.99965 4.274068
v -4.774094 -48.63576 4.449862
v -4.981493 -48.87147 4.384413
v -4.951287 -48.99965 4.274068
v -7.353668 -47.71236 2.804443
v -5.800281 -47.45318 1.68547
v -7.453647 -47.82058 2.597419
v -7.453647 -47.82058 2.597419
v -5.800281 -47.45318 1.68547
v -6.059331 -47.61462 1.511704
v -7.453647 -47.82058 2.597419
v -6.72486 -49.09652 3.163877
v -7.353668 -47.71236 2.804443
v -7.353668 -47.71236 2.804443
v -6.72486 -49.09652 3.163877
v -7.178167 -47.71912 3.078077
v -7.178167 -47.71912 3.078077
v -6.72486 -49.09652 3.163877
v -6.55696 -48.7834 3.571576

vn -0.4533465 -0.5649986 -0.6893864
vn -0.4533465 -0.5649986 -0.6893864
vn -0.4533465 -0.5649986 -0.6893864
vn -0.4533465 -0.5649986 -0.6893864
vn -0.4533465 -0.5649986 -0.6893864
vn -0.4533465 -0.5649986 -0.6893864
vn -0.4533465 -0.5649986 -0.6893864
vn -0.4533465 -0.5649986 -0.6893864
vn -0.4533465 -0.5649986 -0.6893864
vn -0.4533465 -0.5649986 -0.6893864
vn -0.4533465 -0.5649986 -0.6893864
vn -0.4533465 -0.5649986 -0.6893864
vn -0.3754391 -0.6539201 0.6568365
vn -0.3754391 -0.6539201 0.6568365
vn -0.3754391 -0.6539201 0.6568365
vn -0.3754391 -0.6539201 0.6568365
vn -0.3754391 -0.6539201 0.6568365
vn -0.3754391 -0.6539201 0.6568365
vn -0.3754391 -0.6539201 0.6568365
vn -0.3754391 -0.6539201 0.6568365
vn -0.3754391 -0.6539201 0.6568365
vn -0.3754391 -0.6539201 0.6568365
vn -0.3754391 -0.6539201 0.6568365
vn -0.3754391 -0.6539201 0.6568365
vn -0.446883 0.1482397 0.8822249
vn -0.446883 0.1482397 0.8822249
vn -0.446883 0.1482397 0.8822249
vn -0.446883 0.1482397 0.8822249
vn -0.446883 0.1482397 0.8822249
vn -0.446883 0.1482397 0.8822249
vn -0.446883 0.1482397 0.8822249
vn -0.446883 0.1482397 0.8822249
vn -0.446883 0.1482397 0.8822249
vn -0.446883 0.1482397 0.8822249
vn -0.446883 0.1482397 0.8822249
vn -0.446883 0.1482397 0.8822249
vn 0.6060991 0.5348211 -0.5887362
vn 0.6060991 0.5348211 -0.5887362
vn 0.6060991 0.5348211 -0.5887362
vn 0.6060991 0.5348211 -0.5887362
vn 0.6060991 0.5348211 -0.5887362
vn 0.6060991 0.5348211 -0.5887362
vn 0.3444861 -0.9332848 -0.1015327
vn 0.3444861 -0.9332848 -0.1015327
vn 0.3444861 -0.9332848 -0.1015327
vn 0.3444861 -0.9332848 -0.1015327
vn 0.3444861 -0.9332848 -0.1015327
vn 0.3444861 -0.9332848 -0.1015327
vn 0.3444861 -0.9332848 -0.1015327
vn 0.3444861 -0.9332848 -0.1015327
vn 0.3444861 -0.9332848 -0.1015327
vn -0.1010249 0.9908715 0.08926211
vn -0.1010249 0.9908715 0.08926211
vn -0.1010249 0.9908715 0.08926211
vn -0.1010249 0.9908715 0.08926211
vn -0.1010249 0.9908715 0.08926211
vn -0.1010249 0.9908715 0.08926211
vn -0.1010249 0.9908715 0.08926211
vn -0.1010249 0.9908715 0.08926211
vn -0.1010249 0.9908715 0.08926211
vn 0.7771077 0.5997726 0.1907261
vn 0.7771077 0.5997726 0.1907261
vn 0.7771077 0.5997726 0.1907261
vn 0.7771077 0.5997726 0.1907261
vn 0.7771077 0.5997726 0.1907261
vn 0.7771077 0.5997726 0.1907261
vn 0.7771077 0.5997726 0.1907261
vn 0.7771077 0.5997726 0.1907261
vn 0.7771077 0.5997726 0.1907261
vn 0.7771077 0.5997726 0.1907261
vn 0.7771077 0.5997726 0.1907261
vn 0.7771077 0.5997726 0.1907261
vn 0.219265 0.5299299 -0.8192052
vn 0.219265 0.5299299 -0.8192052
vn 0.219265 0.5299299 -0.8192052
vn 0.219265 0.5299299 -0.8192052
vn 0.219265 0.5299299 -0.8192052
vn 0.219265 0.5299299 -0.8192052
vn 0.219265 0.5299299 -0.8192052
vn 0.219265 0.5299299 -0.8192052
vn 0.219265 0.5299299 -0.8192052
vn 0.7998912 -0.5276241 0.2859842
vn 0.7998912 -0.5276241 0.2859842
vn 0.7998912 -0.5276241 0.2859842
vn 0.7998912 -0.5276241 0.2859842
vn 0.7998912 -0.5276241 0.2859842
vn 0.7998912 -0.5276241 0.2859842
vn 0.7998912 -0.5276241 0.2859842
vn 0.7998912 -0.5276241 0.2859842
vn 0.7998912 -0.5276241 0.2859842
vn 0.3878434 -0.5471814 0.7417345
vn 0.3878434 -0.5471814 0.7417345
vn 0.3878434 -0.5471814 0.7417345
vn -0.3577341 0.8873001 -0.2910754
vn -0.3577341 0.8873001 -0.2910754
vn -0.3577341 0.8873001 -0.2910754
vn -0.3577341 0.8873001 -0.2910754
vn -0.3577341 0.8873001 -0.2910754
vn -0.3577341 0.8873001 -0.2910754
vn -0.8202985 -0.2375578 0.5202662
vn -0.8202985 -0.2375578 0.5202662
vn -0.8202985 -0.2375578 0.5202662
vn -0.8202985 -0.2375578 0.5202662
vn -0.8202985 -0.2375578 0.5202662
vn -0.8202985 -0.2375578 0.5202662
vn -0.8202985 -0.2375578 0.5202662
vn -0.8202985 -0.2375578 0.5202662
vn -0.8202985 -0.2375578 0.5202662

vt 0.3819174 0.3302535
vt 0.4931253 0.3171699
vt 0.2754253 0.6549988
vt 0.2754253 0.6549988
vt 0.4931253 0.3171699
vt 0.3301878 0.6627523
vt 0.3301878 0.6627523
vt 0.4931253 0.3171699
vt 0.5485442 0.626694
vt 0.5485442 0.626694
vt 0.4931253 0.3171699
vt 0.6786392 0.4232869
vt 0.3389821 0.3584176
vt 0.5228364 0.4989616
vt 0.3272439 0.3774968
vt 0.3272439 0.3774968
vt 0.5228364 0.4989616
vt 0.317259 0.4315609
vt 0.317259 0.4315609
vt 0.5228364 0.4989616
vt 0.4146005 0.581532
vt 0.4146005 0.581532
vt 0.5228364 0.4989616
vt 0.5214958 0.5694563
vt 0.4573014 0.7125083
vt 0.2872197 0.4936457
vt 0.5928811 0.3248484
vt 0.5928811 0.3248484
vt 0.2872197 0.4936457
vt 0.4367127 0.103356
vt 0.4367127 0.103356
vt 0.2872197 0.4936457
vt 0.4336844 0.1041482
vt 0.4336844 0.1041482
vt 0.2872197 0.4936457
vt 0.3733388 0.1331749
vt 0.6730608 0.5867167
vt 0.623886 0.5929421
vt 0.6929369 0.5239099
vt 0.6929369 0.5239099
vt 0.623886 0.5929421
vt 0.5016758 0.5070527
vt 0.3611646 0.5101467
vt 0.4592609 0.3566925
vt 0.3503359 0.5735628
vt 0.3503359 0.5735628
vt 0.4592609 0.3566925
vt 0.3841863 0.6150308
vt 0.3841863 0.6150308
vt 0.4592609 0.3566925
vt 0.5638638 0.442849
vt 0.4972506 0.5999737
vt 0.3421182 0.4890892
vt 0.5678953 0.5776693
vt 0.5678953 0.5776693
vt 0.3421182 0.4890892
vt 0.5330276 0.3753498
vt 0.5330276 0.3753498
vt 0.3421182 0.4890892
vt 0.3592848 0.4619751
vt 0.4933316 0.5932515
vt 0.486764 0.5911607
vt 0.6510189 0.6046802
vt 0.6510189 0.6046802
vt 0.486764 0.5911607
vt 0.6539628 0.5395483
vt 0.6539628 0.5395483
vt 0.486764 0.5911607
vt 0.6032504 0.3319223
vt 0.6032504 0.3319223
vt 0.486764 0.5911607
vt 0.4836608 0.3828737
vt 0.426184 0.5743973
vt 0.4566357 0.5224661
vt 0.6997436 0.6319162
vt 0.6997436 0.6319162
vt 0.4566357 0.5224661
vt 0.5764083 0.4612907
vt 0.5764083 0.4612907
vt 0.4566357 0.5224661
vt 0.5663108 0.4551778
vt 0.4832951 0.3589661
vt 0.4848186 0.3591582
vt 0.4617782 0.5768536
vt 0.4617782 0.5768536
vt 0.4848186 0.3591582
vt 0.5533913 0.411455
vt 0.5533913 0.411455
vt 0.4848186 0.3591582
vt 0.525996 0.3779796
vt 0.418346 0.4449679
vt 0.4631236 0.459275
vt 0.4703756 0.4833889
vt 0.3548877 0.4598516
vt 0.512889 0.5800413
vt 0.3411947 0.4820857
vt 0.3411947 0.4820857
vt 0.512889 0.5800413
vt 0.4819966 0.598708
vt 0.5626919 0.5964579
vt 0.3982683 0.5201035
vt 0.5714486 0.5685563
vt 0.5714486 0.5685563
vt 0.3982683 0.5201035
vt 0.5650827 0.5316635
vt 0.5650827 0.5316635
vt 0.3982683 0.5201035
vt 0.4275106 0.4651441

usemtl Material0
usemap Material0

usemtl Material1
usemap Material1
f 1/1/1 2/2/2 3/3/3
f 4/4/4 5/5/5 6/6/6
f 7/7/7 8/8/8 9/9/9
f 10/10/10 11/11/11 12/12/12
f 13/13/13 14/14/14 15/15/15
f 16/16/16 17/17/17 18/18/18
f 19/19/19 20/20/20 21/21/21
f 22/22/22 23/23/23 24/24/24
f 25/25/25 26/26/26 27/27/27
f 28/28/28 29/29/29 30/30/30
f 31/31/31 32/32/32 33/33/33
f 34/34/34 35/35/35 36/36/36
f 37/37/37 38/38/38 39/39/39
f 40/40/40 41/41/41 42/42/42
f 43/43/43 44/44/44 45/45/45
f 46/46/46 47/47/47 48/48/48
f 49/49/49 50/50/50 51/51/51
f 52/52/52 53/53/53 54/54/54
f 55/55/55 56/56/56 57/57/57
f 58/58/58 59/59/59 60/60/60
f 61/61/61 62/62/62 63/63/63
f 64/64/64 65/65/65 66/66/66
f 67/67/67 68/68/68 69/69/69
f 70/70/70 71/71/71 72/72/72
f 73/73/73 74/74/74 75/75/75
f 76/76/76 77/77/77 78/78/78
f 79/79/79 80/80/80 81/81/81
f 82/82/82 83/83/83 84/84/84
f 85/85/85 86/86/86 87/87/87
f 88/88/88 89/89/89 90/90/90
f 91/91/91 92/92/92 93/93/93
f 94/94/94 95/95/95 96/96/96
f 97/97/97 98/98/98 99/99/99
f 100/100/100 101/101/101 102/102/102
f 103/103/103 104/104/104 105/105/105
f 106/106/106 107/107/107 108/108/108
