g  Instance
v 2.889157 -46.29738 8.828552
v 1.82895 -45.91009 8.909973
v 2.274151 -46.76548 9.151942
v 2.274151 -46.76548 9.151942
v 2.303478 -46.82282 9.16218
v 2.889157 -46.29738 8.828552
v 2.889157 -46.29738 8.828552
v 2.303478 -46.82282 9.16218
v 2.951822 -46.63342 8.919211
v 2.951822 -46.63342 8.919211
v 3.365347 -46.5112 8.716141
v 2.889157 -46.29738 8.828552
v 2.53366 -44.86631 8.199135
v 1.003224 -44.36903 8.199137
v 1.639066 -45.55025 8.777954
v 1.82895 -45.91009 8.909973
v 2.889157 -46.29738 8.828552
v 1.639066 -45.55025 8.777954
v 1.639066 -45.55025 8.777954
v 2.889157 -46.29738 8.828552
v 2.53366 -44.86631 8.199135
v 3.893781 -45.56748 8.061103
v 3.797339 -45.41133 8.014125
v 2.889157 -46.29738 8.828552
v 2.889157 -46.29738 8.828552
v 3.797339 -45.41133 8.014125
v 2.53366 -44.86631 8.199135
v 2.889157 -46.29738 8.828552
v 3.365347 -46.5112 8.716141
v 3.893781 -45.56748 8.061103
v 3.893781 -45.56748 8.061103
v 3.365347 -46.5112 8.716141
v 4.064413 -45.88481 8.128905
v 4.064413 -45.88481 8.128905
v 3.365347 -46.5112 8.716141
v 4.079247 -45.96535 8.158575
v 4.079247 -45.96535 8.158575
v 3.365347 -46.5112 8.716141
v 3.846368 -46.36789 8.441255
v 4.079247 -45.96535 8.158575
v 4.092989 -45.94065 8.139252
v 4.064413 -45.88481 8.128905
v 0.9129432 -44.2073 8.082473
v 0.9170875 -44.21467 8.088139
v 0.9143206 -44.20687 8.082082
v 1.322501 -44.09981 7.928164
v 0.9143206 -44.20687 8.082082
v 0.9886301 -44.34238 8.183217
v 0.9886301 -44.34238 8.183217
v 0.9143206 -44.20687 8.082082
v 0.9170875 -44.21467 8.088139
v 1.003224 -44.36903 8.199137
v 2.53366 -44.86631 8.199135
v 0.9886301 -44.34238 8.183217
v 0.9886301 -44.34238 8.183217
v 2.53366 -44.86631 8.199135
v 1.322501 -44.09981 7.928164
v 1.322501 -44.09981 7.928164
v 2.53366 -44.86631 8.199135
v 2.10696 -43.90823 7.603788
v 2.10696 -43.90823 7.603788
v 2.53366 -44.86631 8.199135
v 2.234578 -43.9458 7.60096
v 2.956204 -44.21151 7.543926
v 2.234578 -43.9458 7.60096
v 3.142346 -44.44863 7.658573
v 3.142346 -44.44863 7.658573
v 2.234578 -43.9458 7.60096
v 2.53366 -44.86631 8.199135
v 3.142346 -44.44863 7.658573
v 2.53366 -44.86631 8.199135
v 3.797339 -45.41133 8.014125
v 1.003224 -44.36903 8.199137
v 0.9886301 -44.34238 8.183217
v 1.639066 -45.55025 8.777954
v 1.639066 -45.55025 8.777954
v 0.9886301 -44.34238 8.183217
v 1.82895 -45.91009 8.909973
v 1.82895 -45.91009 8.909973
v 0.9886301 -44.34238 8.183217
v 2.274151 -46.76548 9.151942
v 2.274151 -46.76548 9.151942
v 0.9886301 -44.34238 8.183217
v 2.303478 -46.82282 9.16218
v 2.303478 -46.82282 9.16218
v 0.9886301 -44.34238 8.183217
v 2.177692 -46.8162 7.738935
v 2.177692 -46.8162 7.738935
v 0.9886301 -44.34238 8.183217
v 0.9333778 -44.27557 7.926363
v 0.9333778 -44.27557 7.926363
v 0.9886301 -44.34238 8.183217
v 0.9129432 -44.2073 8.082473
v 0.9129432 -44.2073 8.082473
v 0.9886301 -44.34238 8.183217
v 0.9170875 -44.21467 8.088139
v 1.545157 -44.40953 7.102218
v 2.230491 -45.2237 6.614902
v 0.9333778 -44.27557 7.926363
v 0.9333778 -44.27557 7.926363
v 2.230491 -45.2237 6.614902
v 2.177692 -46.8162 7.738935
v 2.177692 -46.8162 7.738935
v 2.230491 -45.2237 6.614902
v 2.597793 -46.67696 7.021226
v 2.597793 -46.67696 7.021226
v 2.230491 -45.2237 6.614902
v 2.534459 -46.31311 6.87682
v 3.846368 -46.36789 8.441255
v 3.365347 -46.5112 8.716141
v 3.534492 -46.42676 7.464796
v 3.534492 -46.42676 7.464796
v 3.365347 -46.5112 8.716141
v 2.666618 -46.65641 6.980412
v 2.666618 -46.65641 6.980412
v 3.365347 -46.5112 8.716141
v 2.597793 -46.67696 7.021226
v 2.597793 -46.67696 7.021226
v 3.365347 -46.5112 8.716141
v 2.177692 -46.8162 7.738935
v 2.177692 -46.8162 7.738935
v 3.365347 -46.5112 8.716141
v 2.303478 -46.82282 9.16218
v 2.303478 -46.82282 9.16218
v 3.365347 -46.5112 8.716141
v 2.951822 -46.63342 8.919211
v 1.545157 -44.40953 7.102218
v 2.10696 -43.90823 7.603788
v 2.230491 -45.2237 6.614902
v 2.230491 -45.2237 6.614902
v 2.10696 -43.90823 7.603788
v 2.568618 -45.07483 6.79894
v 2.568618 -45.07483 6.79894
v 2.10696 -43.90823 7.603788
v 2.956204 -44.21151 7.543926
v 2.956204 -44.21151 7.543926
v 2.10696 -43.90823 7.603788
v 2.234578 -43.9458 7.60096
v 2.568618 -45.07483 6.79894
v 2.956204 -44.21151 7.543926
v 3.648461 -46.29859 7.520675
v 3.648461 -46.29859 7.520675
v 2.956204 -44.21151 7.543926
v 4.092989 -45.94065 8.139252
v 4.092989 -45.94065 8.139252
v 2.956204 -44.21151 7.543926
v 4.064413 -45.88481 8.128905
v 4.064413 -45.88481 8.128905
v 2.956204 -44.21151 7.543926
v 3.893781 -45.56748 8.061103
v 3.893781 -45.56748 8.061103
v 2.956204 -44.21151 7.543926
v 3.797339 -45.41133 8.014125
v 3.797339 -45.41133 8.014125
v 2.956204 -44.21151 7.543926
v 3.142346 -44.44863 7.658573
v 2.534459 -46.31311 6.87682
v 2.666618 -46.65641 6.980412
v 2.597793 -46.67696 7.021226
v 3.648461 -46.29859 7.520675
v 4.092989 -45.94065 8.139252
v 3.534492 -46.42676 7.464796
v 3.534492 -46.42676 7.464796
v 4.092989 -45.94065 8.139252
v 3.846368 -46.36789 8.441255
v 3.846368 -46.36789 8.441255
v 4.092989 -45.94065 8.139252
v 4.079247 -45.96535 8.158575
v 3.534492 -46.42676 7.464796
v 2.666618 -46.65641 6.980412
v 3.648461 -46.29859 7.520675
v 3.648461 -46.29859 7.520675
v 2.666618 -46.65641 6.980412
v 2.568618 -45.07483 6.79894
v 2.568618 -45.07483 6.79894
v 2.666618 -46.65641 6.980412
v 2.230491 -45.2237 6.614902
v 2.230491 -45.2237 6.614902
v 2.666618 -46.65641 6.980412
v 2.534459 -46.31311 6.87682
v 0.9129432 -44.2073 8.082473
v 0.9143206 -44.20687 8.082082
v 0.9333778 -44.27557 7.926363
v 0.9333778 -44.27557 7.926363
v 0.9143206 -44.20687 8.082082
v 1.545157 -44.40953 7.102218
v 1.545157 -44.40953 7.102218
v 0.9143206 -44.20687 8.082082
v 2.10696 -43.90823 7.603788
v 2.10696 -43.90823 7.603788
v 0.9143206 -44.20687 8.082082
v 1.322501 -44.09981 7.928164

vn 0.2023333 0.3626374 0.9097007
vn 0.2023333 0.3626374 0.9097007
vn 0.2023333 0.3626374 0.9097007
vn 0.2580843 0.2962187 0.9195907
vn 0.2580843 0.2962187 0.9195907
vn 0.2580843 0.2962187 0.9195907
vn 0.2580843 0.2962187 0.9195907
vn 0.2580843 0.2962187 0.9195907
vn 0.2580843 0.2962187 0.9195907
vn 0.3460387 0.3039909 0.8876073
vn 0.3460387 0.3039909 0.8876073
vn 0.3460387 0.3039909 0.8876073
vn 0.1636796 0.503744 0.8482046
vn 0.1636796 0.503744 0.8482046
vn 0.1636796 0.503744 0.8482046
vn 0.2270594 0.4387994 0.8694246
vn 0.2270594 0.4387994 0.8694246
vn 0.2270594 0.4387994 0.8694246
vn 0.2270594 0.4387994 0.8694246
vn 0.2270594 0.4387994 0.8694246
vn 0.2270594 0.4387994 0.8694246
vn 0.3152133 0.4465993 0.8373708
vn 0.3152133 0.4465993 0.8373708
vn 0.3152133 0.4465993 0.8373708
vn 0.3152133 0.4465993 0.8373708
vn 0.3152133 0.4465993 0.8373708
vn 0.3152133 0.4465993 0.8373708
vn 0.3708198 0.3804156 0.847217
vn 0.3708198 0.3804156 0.847217
vn 0.3708198 0.3804156 0.847217
vn 0.3708198 0.3804156 0.847217
vn 0.3708198 0.3804156 0.847217
vn 0.3708198 0.3804156 0.847217
vn 0.3708198 0.3804156 0.847217
vn 0.3708198 0.3804156 0.847217
vn 0.3708198 0.3804156 0.847217
vn 0.3708198 0.3804156 0.847217
vn 0.3708198 0.3804156 0.847217
vn 0.3708198 0.3804156 0.847217
vn 0.4513349 0.3804928 0.8071692
vn 0.4513349 0.3804928 0.8071692
vn 0.4513349 0.3804928 0.8071692
vn 0.03142588 0.6201945 0.7838184
vn 0.03142588 0.6201945 0.7838184
vn 0.03142588 0.6201945 0.7838184
vn 0.1208844 0.6354653 0.7626079
vn 0.1208844 0.6354653 0.7626079
vn 0.1208844 0.6354653 0.7626079
vn 0.1208844 0.6354653 0.7626079
vn 0.1208844 0.6354653 0.7626079
vn 0.1208844 0.6354653 0.7626079
vn 0.1875948 0.5773439 0.7946585
vn 0.1875948 0.5773439 0.7946585
vn 0.1875948 0.5773439 0.7946585
vn 0.1875948 0.5773439 0.7946585
vn 0.1875948 0.5773439 0.7946585
vn 0.1875948 0.5773439 0.7946585
vn 0.1875948 0.5773439 0.7946585
vn 0.1875948 0.5773439 0.7946585
vn 0.1875948 0.5773439 0.7946585
vn 0.1875948 0.5773439 0.7946585
vn 0.1875948 0.5773439 0.7946585
vn 0.1875948 0.5773439 0.7946585
vn 0.2757266 0.5851517 0.7626089
vn 0.2757266 0.5851517 0.7626089
vn 0.2757266 0.5851517 0.7626089
vn 0.2757266 0.5851517 0.7626089
vn 0.2757266 0.5851517 0.7626089
vn 0.2757266 0.5851517 0.7626089
vn 0.3391222 0.5202163 0.7838182
vn 0.3391222 0.5202163 0.7838182
vn 0.3391222 0.5202163 0.7838182
vn -0.893164 -0.4431119 0.07687806
vn -0.893164 -0.4431119 0.07687806
vn -0.893164 -0.4431119 0.07687806
vn -0.893164 -0.4431119 0.07687806
vn -0.893164 -0.4431119 0.07687806
vn -0.893164 -0.4431119 0.07687806
vn -0.893164 -0.4431119 0.07687806
vn -0.893164 -0.4431119 0.07687806
vn -0.893164 -0.4431119 0.07687806
vn -0.893164 -0.4431119 0.07687806
vn -0.893164 -0.4431119 0.07687806
vn -0.893164 -0.4431119 0.07687806
vn -0.893164 -0.4431119 0.07687806
vn -0.893164 -0.4431119 0.07687806
vn -0.893164 -0.4431119 0.07687806
vn -0.893164 -0.4431119 0.07687806
vn -0.893164 -0.4431119 0.07687806
vn -0.893164 -0.4431119 0.07687806
vn -0.893164 -0.4431119 0.07687806
vn -0.893164 -0.4431119 0.07687806
vn -0.893164 -0.4431119 0.07687806
vn -0.893164 -0.4431119 0.07687806
vn -0.893164 -0.4431119 0.07687806
vn -0.893164 -0.4431119 0.07687806
vn -0.7799749 -0.3434094 -0.5231722
vn -0.7799749 -0.3434094 -0.5231722
vn -0.7799749 -0.3434094 -0.5231722
vn -0.7799749 -0.3434094 -0.5231722
vn -0.7799749 -0.3434094 -0.5231722
vn -0.7799749 -0.3434094 -0.5231722
vn -0.7799749 -0.3434094 -0.5231722
vn -0.7799749 -0.3434094 -0.5231722
vn -0.7799749 -0.3434094 -0.5231722
vn -0.7799749 -0.3434094 -0.5231722
vn -0.7799749 -0.3434094 -0.5231722
vn -0.7799749 -0.3434094 -0.5231722
vn 0.2704788 -0.9623077 -0.02837823
vn 0.2704788 -0.9623077 -0.02837823
vn 0.2704788 -0.9623077 -0.02837823
vn 0.2704788 -0.9623077 -0.02837823
vn 0.2704788 -0.9623077 -0.02837823
vn 0.2704788 -0.9623077 -0.02837823
vn 0.2704788 -0.9623077 -0.02837823
vn 0.2704788 -0.9623077 -0.02837823
vn 0.2704788 -0.9623077 -0.02837823
vn 0.2704788 -0.9623077 -0.02837823
vn 0.2704788 -0.9623077 -0.02837823
vn 0.2704788 -0.9623077 -0.02837823
vn 0.2704788 -0.9623077 -0.02837823
vn 0.2704788 -0.9623077 -0.02837823
vn 0.2704788 -0.9623077 -0.02837823
vn 0.2704788 -0.9623077 -0.02837823
vn 0.2704788 -0.9623077 -0.02837823
vn 0.2704788 -0.9623077 -0.02837823
vn 0.1601295 0.6026981 -0.7817376
vn 0.1601295 0.6026981 -0.7817376
vn 0.1601295 0.6026981 -0.7817376
vn 0.1601295 0.6026981 -0.7817376
vn 0.1601295 0.6026981 -0.7817376
vn 0.1601295 0.6026981 -0.7817376
vn 0.1601295 0.6026981 -0.7817376
vn 0.1601295 0.6026981 -0.7817376
vn 0.1601295 0.6026981 -0.7817376
vn 0.1601295 0.6026981 -0.7817376
vn 0.1601295 0.6026981 -0.7817376
vn 0.1601295 0.6026981 -0.7817376
vn 0.7148669 0.2444151 -0.6551539
vn 0.7148669 0.2444151 -0.6551539
vn 0.7148669 0.2444151 -0.6551539
vn 0.7148669 0.2444151 -0.6551539
vn 0.7148669 0.2444151 -0.6551539
vn 0.7148669 0.2444151 -0.6551539
vn 0.7148669 0.2444151 -0.6551539
vn 0.7148669 0.2444151 -0.6551539
vn 0.7148669 0.2444151 -0.6551539
vn 0.7148669 0.2444151 -0.6551539
vn 0.7148669 0.2444151 -0.6551539
vn 0.7148669 0.2444151 -0.6551539
vn 0.7148669 0.2444151 -0.6551539
vn 0.7148669 0.2444151 -0.6551539
vn 0.7148669 0.2444151 -0.6551539
vn 0.7148669 0.2444151 -0.6551539
vn 0.7148669 0.2444151 -0.6551539
vn 0.7148669 0.2444151 -0.6551539
vn -0.3772694 -0.3976178 -0.8364018
vn -0.3772694 -0.3976178 -0.8364018
vn -0.3772694 -0.3976178 -0.8364018
vn 0.774353 -0.5964063 -0.2113693
vn 0.774353 -0.5964063 -0.2113693
vn 0.774353 -0.5964063 -0.2113693
vn 0.774353 -0.5964063 -0.2113693
vn 0.774353 -0.5964063 -0.2113693
vn 0.774353 -0.5964063 -0.2113693
vn 0.774353 -0.5964063 -0.2113693
vn 0.774353 -0.5964063 -0.2113693
vn 0.774353 -0.5964063 -0.2113693
vn 0.4998986 -0.06808968 -0.8634033
vn 0.4998986 -0.06808968 -0.8634033
vn 0.4998986 -0.06808968 -0.8634033
vn 0.4998986 -0.06808968 -0.8634033
vn 0.4998986 -0.06808968 -0.8634033
vn 0.4998986 -0.06808968 -0.8634033
vn 0.4998986 -0.06808968 -0.8634033
vn 0.4998986 -0.06808968 -0.8634033
vn 0.4998986 -0.06808968 -0.8634033
vn 0.4998986 -0.06808968 -0.8634033
vn 0.4998986 -0.06808968 -0.8634033
vn 0.4998986 -0.06808968 -0.8634033
vn -0.3734076 0.8310029 -0.4123118
vn -0.3734076 0.8310029 -0.4123118
vn -0.3734076 0.8310029 -0.4123118
vn -0.3734076 0.8310029 -0.4123118
vn -0.3734076 0.8310029 -0.4123118
vn -0.3734076 0.8310029 -0.4123118
vn -0.3734076 0.8310029 -0.4123118
vn -0.3734076 0.8310029 -0.4123118
vn -0.3734076 0.8310029 -0.4123118
vn -0.3734076 0.8310029 -0.4123118
vn -0.3734076 0.8310029 -0.4123118
vn -0.3734076 0.8310029 -0.4123118

vt 0.3409087 0.3936515
vt 0.3568959 0.3936515
vt 0.3469976 0.4041979
vt 0.3469976 0.4041979
vt 0.3462747 0.4048903
vt 0.3409087 0.3936515
vt 0.3409087 0.3936515
vt 0.3462747 0.4048903
vt 0.3382047 0.3983351
vt 0.3382047 0.3983351
vt 0.3329748 0.3936515
vt 0.3409087 0.3936515
vt 0.3522724 0.3739689
vt 0.3744853 0.3739689
vt 0.3610992 0.3892577
vt 0.3568959 0.3936515
vt 0.3409087 0.3936515
vt 0.3610992 0.3892577
vt 0.3610992 0.3892577
vt 0.3409087 0.3936515
vt 0.3522724 0.3739689
vt 0.3305639 0.3757336
vt 0.3325885 0.3739689
vt 0.3409087 0.3936515
vt 0.3409087 0.3936515
vt 0.3325885 0.3739689
vt 0.3522724 0.3739689
vt 0.3409087 0.3936515
vt 0.3329748 0.3936515
vt 0.3305639 0.3757336
vt 0.3305639 0.3757336
vt 0.3329748 0.3936515
vt 0.3264178 0.3793856
vt 0.3264178 0.3793856
vt 0.3329748 0.3936515
vt 0.3257707 0.3805064
vt 0.3257707 0.3805064
vt 0.3329748 0.3936515
vt 0.3269054 0.3882003
vt 0.3257707 0.3805064
vt 0.3256918 0.3800087
vt 0.3264178 0.3793856
vt 0.3763979 0.3715892
vt 0.3763094 0.3717003
vt 0.3763809 0.3715765
vt 0.3714422 0.3678073
vt 0.3763809 0.3715765
vt 0.3747906 0.3736069
vt 0.3747906 0.3736069
vt 0.3763809 0.3715765
vt 0.3763094 0.3717003
vt 0.3744853 0.3739689
vt 0.3522724 0.3739689
vt 0.3747906 0.3736069
vt 0.3747906 0.3736069
vt 0.3522724 0.3739689
vt 0.3714422 0.3678073
vt 0.3714422 0.3678073
vt 0.3522724 0.3739689
vt 0.361961 0.3604313
vt 0.361961 0.3604313
vt 0.3522724 0.3739689
vt 0.3601253 0.360367
vt 0.3493737 0.3601314
vt 0.3601253 0.360367
vt 0.3458937 0.3629206
vt 0.3458937 0.3629206
vt 0.3601253 0.360367
vt 0.3522724 0.3739689
vt 0.3458937 0.3629206
vt 0.3522724 0.3739689
vt 0.3325885 0.3739689
vt 0.5784803 0.4706756
vt 0.5814711 0.4722554
vt 0.4462758 0.4134286
vt 0.4462758 0.4134286
vt 0.5814711 0.4722554
vt 0.4061719 0.4003731
vt 0.4061719 0.4003731
vt 0.5814711 0.4722554
vt 0.3111039 0.376442
vt 0.3111039 0.376442
vt 0.5814711 0.4722554
vt 0.304752 0.3754295
vt 0.304752 0.3754295
vt 0.5814711 0.4722554
vt 0.3108508 0.5161845
vt 0.3108508 0.5161845
vt 0.5814711 0.4722554
vt 0.5897965 0.4976491
vt 0.5897965 0.4976491
vt 0.5814711 0.4722554
vt 0.5967251 0.4822075
vt 0.5967251 0.4822075
vt 0.5814711 0.4722554
vt 0.5958907 0.4816544
vt 0.5609761 0.5667843
vt 0.4431631 0.6327506
vt 0.6035599 0.4552341
vt 0.6035599 0.4552341
vt 0.4431631 0.6327506
vt 0.2774879 0.4806043
vt 0.2774879 0.4806043
vt 0.4431631 0.6327506
vt 0.2726642 0.5777537
vt 0.2726642 0.5777537
vt 0.4431631 0.6327506
vt 0.3140197 0.5973017
vt 0.3446449 0.4372565
vt 0.3940024 0.4102081
vt 0.3757389 0.5333323
vt 0.3757389 0.5333323
vt 0.3940024 0.4102081
vt 0.4640237 0.5809789
vt 0.4640237 0.5809789
vt 0.3940024 0.4102081
vt 0.4710881 0.5769662
vt 0.4710881 0.5769662
vt 0.3940024 0.4102081
vt 0.5145672 0.5063496
vt 0.5145672 0.5063496
vt 0.3940024 0.4102081
vt 0.5028384 0.3663211
vt 0.5028384 0.3663211
vt 0.3940024 0.4102081
vt 0.436408 0.3902335
vt 0.4140098 0.5244162
vt 0.4793105 0.3976214
vt 0.551385 0.6476015
vt 0.551385 0.6476015
vt 0.4793105 0.3976214
vt 0.5968751 0.6010894
vt 0.5968751 0.6010894
vt 0.4793105 0.3976214
vt 0.6209796 0.4127582
vt 0.6209796 0.4127582
vt 0.4793105 0.3976214
vt 0.5002789 0.3983339
vt 0.5363466 0.5548117
vt 0.4463602 0.4264934
vt 0.7324829 0.4304968
vt 0.7324829 0.4304968
vt 0.4463602 0.4264934
vt 0.7071221 0.3239578
vt 0.7071221 0.3239578
vt 0.4463602 0.4264934
vt 0.6990404 0.3257391
vt 0.6990404 0.3257391
vt 0.4463602 0.4264934
vt 0.6527908 0.3374164
vt 0.6527908 0.3374164
vt 0.4463602 0.4264934
vt 0.629502 0.3455075
vt 0.629502 0.3455075
vt 0.4463602 0.4264934
vt 0.4833935 0.4067485
vt 0.2366621 0.5100435
vt 0.1770852 0.4761509
vt 0.1835028 0.4627955
vt 0.492516 0.4859203
vt 0.4367127 0.422265
vt 0.5097294 0.4916768
vt 0.5097294 0.4916768
vt 0.4367127 0.422265
vt 0.4858968 0.3911945
vt 0.4858968 0.3911945
vt 0.4367127 0.422265
vt 0.4395207 0.4202774
vt 0.7372363 0.233076
vt 0.8044027 0.4201555
vt 0.7094941 0.2114935
vt 0.7094941 0.2114935
vt 0.8044027 0.4201555
vt 0.5016102 0.4902424
vt 0.5016102 0.4902424
vt 0.8044027 0.4201555
vt 0.539253 0.5613278
vt 0.539253 0.5613278
vt 0.8044027 0.4201555
vt 0.741596 0.4601656
vt 0.4237839 0.4306702
vt 0.4239385 0.4307171
vt 0.422776 0.4491634
vt 0.422776 0.4491634
vt 0.4239385 0.4307171
vt 0.4770651 0.5467769
vt 0.4770651 0.5467769
vt 0.4239385 0.4307171
vt 0.5545352 0.4873641
vt 0.5545352 0.4873641
vt 0.4239385 0.4307171
vt 0.4688474 0.4489478

usemtl Material0
usemap Material0
f 1/1/1 2/2/2 3/3/3
f 4/4/4 5/5/5 6/6/6
f 7/7/7 8/8/8 9/9/9
f 10/10/10 11/11/11 12/12/12
f 13/13/13 14/14/14 15/15/15
f 16/16/16 17/17/17 18/18/18
f 19/19/19 20/20/20 21/21/21
f 22/22/22 23/23/23 24/24/24
f 25/25/25 26/26/26 27/27/27
f 28/28/28 29/29/29 30/30/30
f 31/31/31 32/32/32 33/33/33
f 34/34/34 35/35/35 36/36/36
f 37/37/37 38/38/38 39/39/39
f 40/40/40 41/41/41 42/42/42
f 43/43/43 44/44/44 45/45/45
f 46/46/46 47/47/47 48/48/48
f 49/49/49 50/50/50 51/51/51
f 52/52/52 53/53/53 54/54/54
f 55/55/55 56/56/56 57/57/57
f 58/58/58 59/59/59 60/60/60
f 61/61/61 62/62/62 63/63/63
f 64/64/64 65/65/65 66/66/66
f 67/67/67 68/68/68 69/69/69
f 70/70/70 71/71/71 72/72/72

usemtl Material1
usemap Material1
f 73/73/73 74/74/74 75/75/75
f 76/76/76 77/77/77 78/78/78
f 79/79/79 80/80/80 81/81/81
f 82/82/82 83/83/83 84/84/84
f 85/85/85 86/86/86 87/87/87
f 88/88/88 89/89/89 90/90/90
f 91/91/91 92/92/92 93/93/93
f 94/94/94 95/95/95 96/96/96
f 97/97/97 98/98/98 99/99/99
f 100/100/100 101/101/101 102/102/102
f 103/103/103 104/104/104 105/105/105
f 106/106/106 107/107/107 108/108/108
f 109/109/109 110/110/110 111/111/111
f 112/112/112 113/113/113 114/114/114
f 115/115/115 116/116/116 117/117/117
f 118/118/118 119/119/119 120/120/120
f 121/121/121 122/122/122 123/123/123
f 124/124/124 125/125/125 126/126/126
f 127/127/127 128/128/128 129/129/129
f 130/130/130 131/131/131 132/132/132
f 133/133/133 134/134/134 135/135/135
f 136/136/136 137/137/137 138/138/138
f 139/139/139 140/140/140 141/141/141
f 142/142/142 143/143/143 144/144/144
f 145/145/145 146/146/146 147/147/147
f 148/148/148 149/149/149 150/150/150
f 151/151/151 152/152/152 153/153/153
f 154/154/154 155/155/155 156/156/156
f 157/157/157 158/158/158 159/159/159
f 160/160/160 161/161/161 162/162/162
f 163/163/163 164/164/164 165/165/165
f 166/166/166 167/167/167 168/168/168
f 169/169/169 170/170/170 171/171/171
f 172/172/172 173/173/173 174/174/174
f 175/175/175 176/176/176 177/177/177
f 178/178/178 179/179/179 180/180/180
f 181/181/181 182/182/182 183/183/183
f 184/184/184 185/185/185 186/186/186
f 187/187/187 188/188/188 189/189/189
f 190/190/190 191/191/191 192/192/192
