g  Instance
v 0.2031034 -56.29539 -7.729471
v 0.2618985 -56.31646 -7.707923
v 0.1742397 -56.31854 -7.709991
v 0.2031034 -56.29539 -7.729471
v 0.1742397 -56.31854 -7.709991
v -0.2565011 -56.08124 -7.880484
v -0.2565011 -56.08124 -7.880484
v 0.1742397 -56.31854 -7.709991
v -0.5229657 -56.31835 -7.682188
v 0.3918007 -56.16082 -7.589035
v 0.461417 -55.8231 -7.235875
v 0.3177877 -56.30344 -7.67579
v 0.3177877 -56.30344 -7.67579
v 0.461417 -55.8231 -7.235875
v -0.09367408 -55.87427 -6.527935
v -0.09367408 -55.87427 -6.527935
v 0.461417 -55.8231 -7.235875
v -0.01426673 -55.41852 -6.031023
v -2.833513 -55.6873 -6.542673
v -2.134445 -56.02859 -6.854983
v -2.825979 -54.89247 -5.686379
v -2.825979 -54.89247 -5.686379
v -2.134445 -56.02859 -6.854983
v -2.434437 -54.60057 -5.341258
v -2.434437 -54.60057 -5.341258
v -2.134445 -56.02859 -6.854983
v -0.8226004 -54.28064 -4.86974
v -0.8226004 -54.28064 -4.86974
v -2.134445 -56.02859 -6.854983
v -0.6687342 -54.33769 -4.91903
v -0.6687342 -54.33769 -4.91903
v -2.134445 -56.02859 -6.854983
v -0.01426673 -55.41852 -6.031023
v -0.01426673 -55.41852 -6.031023
v -2.134445 -56.02859 -6.854983
v -0.09367408 -55.87427 -6.527935
v -0.5069075 -53.98989 -5.834288
v 0.1428257 -55.04635 -6.955425
v -0.5701609 -53.89925 -5.956254
v -0.5701609 -53.89925 -5.956254
v 0.1428257 -55.04635 -6.955425
v -0.625078 -53.86175 -6.841053
v -0.5229657 -56.31835 -7.682188
v 0.1742397 -56.31854 -7.709991
v -2.134445 -56.02859 -6.854983
v -2.134445 -56.02859 -6.854983
v 0.1742397 -56.31854 -7.709991
v -0.09367408 -55.87427 -6.527935
v -0.09367408 -55.87427 -6.527935
v 0.1742397 -56.31854 -7.709991
v 0.3177877 -56.30344 -7.67579
v 0.3177877 -56.30344 -7.67579
v 0.1742397 -56.31854 -7.709991
v 0.2618985 -56.31646 -7.707923
v -3.031993 -54.62445 -6.662476
v -2.833513 -55.6873 -6.542673
v -3.062294 -54.28947 -6.504621
v -3.062294 -54.28947 -6.504621
v -2.833513 -55.6873 -6.542673
v -2.825979 -54.89247 -5.686379
v -2.434437 -54.60057 -5.341258
v -2.795626 -54.07972 -6.278142
v -2.825979 -54.89247 -5.686379
v -2.825979 -54.89247 -5.686379
v -2.795626 -54.07972 -6.278142
v -3.062294 -54.28947 -6.504621
v -3.062294 -54.28947 -6.504621
v -2.795626 -54.07972 -6.278142
v -2.946816 -54.08253 -6.497441
v -0.5701609 -53.89925 -5.956254
v -0.9591393 -53.96025 -5.397149
v -0.5069075 -53.98989 -5.834288
v -0.5069075 -53.98989 -5.834288
v -0.9591393 -53.96025 -5.397149
v -0.6687342 -54.33769 -4.91903
v -0.6687342 -54.33769 -4.91903
v -0.9591393 -53.96025 -5.397149
v -0.8226004 -54.28064 -4.86974
v 0.3177877 -56.30344 -7.67579
v 0.2618985 -56.31646 -7.707923
v 0.3918007 -56.16082 -7.589035
v 0.3918007 -56.16082 -7.589035
v 0.2618985 -56.31646 -7.707923
v -1.224496 -54.00826 -7.626722
v -1.224496 -54.00826 -7.626722
v 0.2618985 -56.31646 -7.707923
v -1.23782 -54.27707 -7.728057
v -1.23782 -54.27707 -7.728057
v 0.2618985 -56.31646 -7.707923
v -0.2565011 -56.08124 -7.880484
v -0.2565011 -56.08124 -7.880484
v 0.2618985 -56.31646 -7.707923
v 0.2031034 -56.29539 -7.729471
v -2.946816 -54.08253 -6.497441
v -2.795626 -54.07972 -6.278142
v -1.253038 -53.8828 -7.556019
v -1.253038 -53.8828 -7.556019
v -2.795626 -54.07972 -6.278142
v -0.625078 -53.86175 -6.841053
v -0.625078 -53.86175 -6.841053
v -2.795626 -54.07972 -6.278142
v -0.5701609 -53.89925 -5.956254
v -0.5701609 -53.89925 -5.956254
v -2.795626 -54.07972 -6.278142
v -0.9591393 -53.96025 -5.397149
v -1.23782 -54.27707 -7.728057
v -0.2565011 -56.08124 -7.880484
v -3.031993 -54.62445 -6.662476
v -3.031993 -54.62445 -6.662476
v -0.2565011 -56.08124 -7.880484
v -2.833513 -55.6873 -6.542673
v -2.833513 -55.6873 -6.542673
v -0.2565011 -56.08124 -7.880484
v -2.134445 -56.02859 -6.854983
v -2.134445 -56.02859 -6.854983
v -0.2565011 -56.08124 -7.880484
v -0.5229657 -56.31835 -7.682188
v -1.224496 -54.00826 -7.626722
v -1.23782 -54.27707 -7.728057
v -1.253038 -53.8828 -7.556019
v -1.253038 -53.8828 -7.556019
v -1.23782 -54.27707 -7.728057
v -2.946816 -54.08253 -6.497441
v -2.946816 -54.08253 -6.497441
v -1.23782 -54.27707 -7.728057
v -3.062294 -54.28947 -6.504621
v -3.062294 -54.28947 -6.504621
v -1.23782 -54.27707 -7.728057
v -3.031993 -54.62445 -6.662476
v -0.6687342 -54.33769 -4.91903
v -0.01426673 -55.41852 -6.031023
v -0.5069075 -53.98989 -5.834288
v -0.5069075 -53.98989 -5.834288
v -0.01426673 -55.41852 -6.031023
v 0.1428257 -55.04635 -6.955425
v 0.1428257 -55.04635 -6.955425
v -0.01426673 -55.41852 -6.031023
v 0.461417 -55.8231 -7.235875
v 0.1428257 -55.04635 -6.955425
v 0.461417 -55.8231 -7.235875
v -0.625078 -53.86175 -6.841053
v -0.625078 -53.86175 -6.841053
v 0.461417 -55.8231 -7.235875
v -1.253038 -53.8828 -7.556019
v -1.253038 -53.8828 -7.556019
v 0.461417 -55.8231 -7.235875
v -1.224496 -54.00826 -7.626722
v -1.224496 -54.00826 -7.626722
v 0.461417 -55.8231 -7.235875
v 0.3918007 -56.16082 -7.589035
v -0.9591393 -53.96025 -5.397149
v -2.795626 -54.07972 -6.278142
v -0.8226004 -54.28064 -4.86974
v -0.8226004 -54.28064 -4.86974
v -2.795626 -54.07972 -6.278142
v -2.434437 -54.60057 -5.341258

vn 0.03343434 -0.6674577 -0.7438967
vn 0.03343434 -0.6674577 -0.7438967
vn 0.03343434 -0.6674577 -0.7438967
vn -0.03142647 -0.6201941 -0.7838186
vn -0.03142647 -0.6201941 -0.7838186
vn -0.03142647 -0.6201941 -0.7838186
vn -0.03142647 -0.6201941 -0.7838186
vn -0.03142647 -0.6201941 -0.7838186
vn -0.03142647 -0.6201941 -0.7838186
vn 0.6426304 -0.6130438 0.4595689
vn 0.6426304 -0.6130438 0.4595689
vn 0.6426304 -0.6130438 0.4595689
vn 0.6426304 -0.6130438 0.4595689
vn 0.6426304 -0.6130438 0.4595689
vn 0.6426304 -0.6130438 0.4595689
vn 0.6426304 -0.6130438 0.4595689
vn 0.6426304 -0.6130438 0.4595689
vn 0.6426304 -0.6130438 0.4595689
vn -0.05358334 -0.7316322 0.6795904
vn -0.05358334 -0.7316322 0.6795904
vn -0.05358334 -0.7316322 0.6795904
vn -0.05358334 -0.7316322 0.6795904
vn -0.05358334 -0.7316322 0.6795904
vn -0.05358334 -0.7316322 0.6795904
vn -0.05358334 -0.7316322 0.6795904
vn -0.05358334 -0.7316322 0.6795904
vn -0.05358334 -0.7316322 0.6795904
vn -0.05358334 -0.7316322 0.6795904
vn -0.05358334 -0.7316322 0.6795904
vn -0.05358334 -0.7316322 0.6795904
vn -0.05358334 -0.7316322 0.6795904
vn -0.05358334 -0.7316322 0.6795904
vn -0.05358334 -0.7316322 0.6795904
vn -0.05358334 -0.7316322 0.6795904
vn -0.05358334 -0.7316322 0.6795904
vn -0.05358334 -0.7316322 0.6795904
vn 0.8374966 0.5456806 -0.02884856
vn 0.8374966 0.5456806 -0.02884856
vn 0.8374966 0.5456806 -0.02884856
vn 0.8374966 0.5456806 -0.02884856
vn 0.8374966 0.5456806 -0.02884856
vn 0.8374966 0.5456806 -0.02884856
vn 0.01388224 -0.9349378 0.3545401
vn 0.01388224 -0.9349378 0.3545401
vn 0.01388224 -0.9349378 0.3545401
vn 0.01388224 -0.9349378 0.3545401
vn 0.01388224 -0.9349378 0.3545401
vn 0.01388224 -0.9349378 0.3545401
vn 0.01388224 -0.9349378 0.3545401
vn 0.01388224 -0.9349378 0.3545401
vn 0.01388224 -0.9349378 0.3545401
vn 0.01388224 -0.9349378 0.3545401
vn 0.01388224 -0.9349378 0.3545401
vn 0.01388224 -0.9349378 0.3545401
vn -0.9733707 -0.1636776 0.1604969
vn -0.9733707 -0.1636776 0.1604969
vn -0.9733707 -0.1636776 0.1604969
vn -0.9733707 -0.1636776 0.1604969
vn -0.9733707 -0.1636776 0.1604969
vn -0.9733707 -0.1636776 0.1604969
vn -0.7556263 0.403746 0.5157694
vn -0.7556263 0.403746 0.5157694
vn -0.7556263 0.403746 0.5157694
vn -0.7556263 0.403746 0.5157694
vn -0.7556263 0.403746 0.5157694
vn -0.7556263 0.403746 0.5157694
vn -0.7556263 0.403746 0.5157694
vn -0.7556263 0.403746 0.5157694
vn -0.7556263 0.403746 0.5157694
vn 0.4269041 0.8176765 0.38621
vn 0.4269041 0.8176765 0.38621
vn 0.4269041 0.8176765 0.38621
vn 0.4269041 0.8176765 0.38621
vn 0.4269041 0.8176765 0.38621
vn 0.4269041 0.8176765 0.38621
vn 0.4269041 0.8176765 0.38621
vn 0.4269041 0.8176765 0.38621
vn 0.4269041 0.8176765 0.38621
vn 0.4214899 0.3015103 -0.8552415
vn 0.4214899 0.3015103 -0.8552415
vn 0.4214899 0.3015103 -0.8552415
vn 0.4214899 0.3015103 -0.8552415
vn 0.4214899 0.3015103 -0.8552415
vn 0.4214899 0.3015103 -0.8552415
vn 0.4214899 0.3015103 -0.8552415
vn 0.4214899 0.3015103 -0.8552415
vn 0.4214899 0.3015103 -0.8552415
vn 0.4214899 0.3015103 -0.8552415
vn 0.4214899 0.3015103 -0.8552415
vn 0.4214899 0.3015103 -0.8552415
vn 0.4214899 0.3015103 -0.8552415
vn 0.4214899 0.3015103 -0.8552415
vn 0.4214899 0.3015103 -0.8552415
vn -0.08757054 0.9950197 0.04761641
vn -0.08757054 0.9950197 0.04761641
vn -0.08757054 0.9950197 0.04761641
vn -0.08757054 0.9950197 0.04761641
vn -0.08757054 0.9950197 0.04761641
vn -0.08757054 0.9950197 0.04761641
vn -0.08757054 0.9950197 0.04761641
vn -0.08757054 0.9950197 0.04761641
vn -0.08757054 0.9950197 0.04761641
vn -0.08757054 0.9950197 0.04761641
vn -0.08757054 0.9950197 0.04761641
vn -0.08757054 0.9950197 0.04761641
vn -0.4749406 -0.1856534 -0.8602118
vn -0.4749406 -0.1856534 -0.8602118
vn -0.4749406 -0.1856534 -0.8602118
vn -0.4749406 -0.1856534 -0.8602118
vn -0.4749406 -0.1856534 -0.8602118
vn -0.4749406 -0.1856534 -0.8602118
vn -0.4749406 -0.1856534 -0.8602118
vn -0.4749406 -0.1856534 -0.8602118
vn -0.4749406 -0.1856534 -0.8602118
vn -0.4749406 -0.1856534 -0.8602118
vn -0.4749406 -0.1856534 -0.8602118
vn -0.4749406 -0.1856534 -0.8602118
vn -0.5287599 0.3222161 -0.7852323
vn -0.5287599 0.3222161 -0.7852323
vn -0.5287599 0.3222161 -0.7852323
vn -0.5287599 0.3222161 -0.7852323
vn -0.5287599 0.3222161 -0.7852323
vn -0.5287599 0.3222161 -0.7852323
vn -0.5287599 0.3222161 -0.7852323
vn -0.5287599 0.3222161 -0.7852323
vn -0.5287599 0.3222161 -0.7852323
vn -0.5287599 0.3222161 -0.7852323
vn -0.5287599 0.3222161 -0.7852323
vn -0.5287599 0.3222161 -0.7852323
vn 0.9212273 0.2805423 0.2695113
vn 0.9212273 0.2805423 0.2695113
vn 0.9212273 0.2805423 0.2695113
vn 0.9212273 0.2805423 0.2695113
vn 0.9212273 0.2805423 0.2695113
vn 0.9212273 0.2805423 0.2695113
vn 0.9212273 0.2805423 0.2695113
vn 0.9212273 0.2805423 0.2695113
vn 0.9212273 0.2805423 0.2695113
vn 0.652243 0.4794816 -0.5870916
vn 0.652243 0.4794816 -0.5870916
vn 0.652243 0.4794816 -0.5870916
vn 0.652243 0.4794816 -0.5870916
vn 0.652243 0.4794816 -0.5870916
vn 0.652243 0.4794816 -0.5870916
vn 0.652243 0.4794816 -0.5870916
vn 0.652243 0.4794816 -0.5870916
vn 0.652243 0.4794816 -0.5870916
vn 0.652243 0.4794816 -0.5870916
vn 0.652243 0.4794816 -0.5870916
vn 0.652243 0.4794816 -0.5870916
vn -0.3145887 0.7729569 0.5509735
vn -0.3145887 0.7729569 0.5509735
vn -0.3145887 0.7729569 0.5509735
vn -0.3145887 0.7729569 0.5509735
vn -0.3145887 0.7729569 0.5509735
vn -0.3145887 0.7729569 0.5509735

vt 0.8483893 0.1051381
vt 0.8493383 0.1053662
vt 0.8480939 0.1056497
vt 0.8483893 0.1051381
vt 0.8480939 0.1056497
vt 0.8411739 0.1032255
vt 0.8411739 0.1032255
vt 0.8480939 0.1056497
vt 0.8385475 0.1083515
vt 0.4348564 0.6806034
vt 0.402492 0.6365852
vt 0.4519339 0.6914134
vt 0.4519339 0.6914134
vt 0.402492 0.6365852
vt 0.4489994 0.548352
vt 0.4489994 0.548352
vt 0.402492 0.6365852
vt 0.4064297 0.4864172
vt 0.6653916 0.5360044
vt 0.5686079 0.5930546
vt 0.6721607 0.3795782
vt 0.6721607 0.3795782
vt 0.5686079 0.5930546
vt 0.622686 0.3165323
vt 0.622686 0.3165323
vt 0.5686079 0.5930546
vt 0.4103909 0.2303946
vt 0.4103909 0.2303946
vt 0.5686079 0.5930546
vt 0.3892678 0.2393998
vt 0.3892678 0.2393998
vt 0.5686079 0.5930546
vt 0.2912137 0.4425396
vt 0.2912137 0.4425396
vt 0.5686079 0.5930546
vt 0.2973641 0.5333136
vt 0.4530965 0.3970026
vt 0.5750301 0.5073059
vt 0.4422302 0.4090033
vt 0.4422302 0.4090033
vt 0.5750301 0.5073059
vt 0.4361924 0.4960552
vt 0.3917429 0.6298067
vt 0.318445 0.6329287
vt 0.5607043 0.5367919
vt 0.5607043 0.5367919
vt 0.318445 0.6329287
vt 0.34592 0.5000211
vt 0.34592 0.5000211
vt 0.318445 0.6329287
vt 0.3033316 0.6290848
vt 0.3033316 0.6290848
vt 0.318445 0.6329287
vt 0.3092288 0.6326944
vt 0.5590636 0.5057683
vt 0.4513854 0.4936738
vt 0.5924592 0.4898392
vt 0.5924592 0.4898392
vt 0.4513854 0.4936738
vt 0.5293337 0.4072689
vt 0.485203 0.415599
vt 0.5183831 0.541086
vt 0.434486 0.4618251
vt 0.434486 0.4618251
vt 0.5183831 0.541086
vt 0.4827373 0.5714158
vt 0.4827373 0.5714158
vt 0.5183831 0.541086
vt 0.5099263 0.5704595
vt 0.5177643 0.4728132
vt 0.4840217 0.4082111
vt 0.5282086 0.4587218
vt 0.5282086 0.4587218
vt 0.4840217 0.4082111
vt 0.5300744 0.3529657
vt 0.5300744 0.3529657
vt 0.4840217 0.4082111
vt 0.5127202 0.3472701
vt 0.8785257 0.4621626
vt 0.874363 0.4739242
vt 0.8646874 0.430403
vt 0.8646874 0.430403
vt 0.874363 0.4739242
vt 0.3541752 0.4441944
vt 0.3541752 0.4441944
vt 0.874363 0.4739242
vt 0.3941759 0.4812887
vt 0.3941759 0.4812887
vt 0.874363 0.4739242
vt 0.7808514 0.537092
vt 0.7808514 0.537092
vt 0.874363 0.4739242
vt 0.8646218 0.4818138
vt 0.354072 0.4713741
vt 0.3689182 0.4497635
vt 0.5218614 0.5756723
vt 0.5218614 0.5756723
vt 0.3689182 0.4497635
vt 0.5836087 0.5052245
vt 0.5836087 0.5052245
vt 0.3689182 0.4497635
vt 0.5886715 0.4180413
vt 0.5886715 0.4180413
vt 0.3689182 0.4497635
vt 0.5500067 0.3629507
vt 0.6150637 0.6714716
vt 0.2222378 0.7290937
vt 0.6786205 0.2686186
vt 0.6786205 0.2686186
vt 0.2222378 0.7290937
vt 0.4738492 0.2233254
vt 0.4738492 0.2233254
vt 0.2222378 0.7290937
vt 0.3635038 0.3413916
vt 0.3635038 0.3413916
vt 0.2222378 0.7290937
vt 0.1983677 0.6541175
vt 0.6541222 0.53517
vt 0.6165731 0.561159
vt 0.6687667 0.5170377
vt 0.6687667 0.5170377
vt 0.6165731 0.561159
vt 0.5017509 0.2456064
vt 0.5017509 0.2456064
vt 0.6165731 0.561159
vt 0.4641502 0.2474487
vt 0.4641502 0.2474487
vt 0.6165731 0.561159
vt 0.4212384 0.2879229
vt 0.4426427 0.338068
vt 0.5676609 0.4559467
vt 0.4134848 0.4350908
vt 0.4134848 0.4350908
vt 0.5676609 0.4559467
vt 0.5359809 0.5539492
vt 0.5359809 0.5539492
vt 0.5676609 0.4559467
vt 0.6213078 0.583679
vt 0.6042255 0.417385
vt 0.7031469 0.4594578
vt 0.4330797 0.4002278
vt 0.4330797 0.4002278
vt 0.7031469 0.4594578
vt 0.3899757 0.507484
vt 0.3899757 0.507484
vt 0.7031469 0.4594578
vt 0.4043015 0.5180971
vt 0.4043015 0.5180971
vt 0.7031469 0.4594578
vt 0.7311797 0.5124343
vt 0.5953188 0.4119097
vt 0.3896288 0.5362763
vt 0.5959844 0.3374632
vt 0.5959844 0.3374632
vt 0.3896288 0.5362763
vt 0.4059047 0.4040202

usemtl Material0
usemap Material0
f 1/1/1 2/2/2 3/3/3
f 4/4/4 5/5/5 6/6/6
f 7/7/7 8/8/8 9/9/9

usemtl Material1
usemap Material1
f 10/10/10 11/11/11 12/12/12
f 13/13/13 14/14/14 15/15/15
f 16/16/16 17/17/17 18/18/18
f 19/19/19 20/20/20 21/21/21
f 22/22/22 23/23/23 24/24/24
f 25/25/25 26/26/26 27/27/27
f 28/28/28 29/29/29 30/30/30
f 31/31/31 32/32/32 33/33/33
f 34/34/34 35/35/35 36/36/36
f 37/37/37 38/38/38 39/39/39
f 40/40/40 41/41/41 42/42/42
f 43/43/43 44/44/44 45/45/45
f 46/46/46 47/47/47 48/48/48
f 49/49/49 50/50/50 51/51/51
f 52/52/52 53/53/53 54/54/54
f 55/55/55 56/56/56 57/57/57
f 58/58/58 59/59/59 60/60/60
f 61/61/61 62/62/62 63/63/63
f 64/64/64 65/65/65 66/66/66
f 67/67/67 68/68/68 69/69/69
f 70/70/70 71/71/71 72/72/72
f 73/73/73 74/74/74 75/75/75
f 76/76/76 77/77/77 78/78/78
f 79/79/79 80/80/80 81/81/81
f 82/82/82 83/83/83 84/84/84
f 85/85/85 86/86/86 87/87/87
f 88/88/88 89/89/89 90/90/90
f 91/91/91 92/92/92 93/93/93
f 94/94/94 95/95/95 96/96/96
f 97/97/97 98/98/98 99/99/99
f 100/100/100 101/101/101 102/102/102
f 103/103/103 104/104/104 105/105/105
f 106/106/106 107/107/107 108/108/108
f 109/109/109 110/110/110 111/111/111
f 112/112/112 113/113/113 114/114/114
f 115/115/115 116/116/116 117/117/117
f 118/118/118 119/119/119 120/120/120
f 121/121/121 122/122/122 123/123/123
f 124/124/124 125/125/125 126/126/126
f 127/127/127 128/128/128 129/129/129
f 130/130/130 131/131/131 132/132/132
f 133/133/133 134/134/134 135/135/135
f 136/136/136 137/137/137 138/138/138
f 139/139/139 140/140/140 141/141/141
f 142/142/142 143/143/143 144/144/144
f 145/145/145 146/146/146 147/147/147
f 148/148/148 149/149/149 150/150/150
f 151/151/151 152/152/152 153/153/153
f 154/154/154 155/155/155 156/156/156
