g  Instance
v 2.210889 -59.07271 -3.577411
v 1.950518 -58.88354 -4.098149
v 2.348831 -58.93147 -3.800614
v 2.348831 -58.93147 -3.800614
v 1.950518 -58.88354 -4.098149
v 1.988339 -58.84762 -4.153543
v 2.210889 -59.07271 -3.577411
v 2.348831 -58.93147 -3.800614
v 2.589953 -58.94955 -3.577413
v 3.705073 -58.88556 -2.59509
v 3.634452 -58.9366 -2.526242
v 3.233632 -58.95226 -2.996978
v 3.233632 -58.95226 -2.996978
v 3.634452 -58.9366 -2.526242
v 2.988854 -59.19883 -2.53934
v 3.629195 -58.93999 -2.521092
v 3.181693 -59.18837 -2.250778
v 3.634452 -58.9366 -2.526242
v 3.634452 -58.9366 -2.526242
v 3.181693 -59.18837 -2.250778
v 2.988854 -59.19883 -2.53934
v 2.63153 -59.42997 -1.903446
v 2.988854 -59.19883 -2.53934
v 3.181693 -59.18837 -2.250778
v 2.210889 -59.07271 -3.577411
v 2.589953 -58.94955 -3.577413
v 2.988854 -59.19883 -2.53934
v 2.988854 -59.19883 -2.53934
v 2.589953 -58.94955 -3.577413
v 3.233632 -58.95226 -2.996978
v 2.988854 -59.19883 -2.53934
v 1.9391 -59.4585 -2.51901
v 2.210889 -59.07271 -3.577411
v 2.210889 -59.07271 -3.577411
v 1.9391 -59.4585 -2.51901
v 1.692078 -59.45194 -2.737931
v 2.607599 -59.43927 -1.888055
v 1.9391 -59.4585 -2.51901
v 2.63153 -59.42997 -1.903446
v 2.63153 -59.42997 -1.903446
v 1.9391 -59.4585 -2.51901
v 2.988854 -59.19883 -2.53934
v 1.6486 -59.12827 -3.679435
v 2.210889 -59.07271 -3.577411
v 1.528007 -59.20187 -3.525687
v 1.528007 -59.20187 -3.525687
v 2.210889 -59.07271 -3.577411
v 1.437387 -59.33388 -3.191844
v 1.437387 -59.33388 -3.191844
v 2.210889 -59.07271 -3.577411
v 1.583701 -59.43936 -2.823882
v 1.583701 -59.43936 -2.823882
v 2.210889 -59.07271 -3.577411
v 1.692078 -59.45194 -2.737931
v 2.210889 -59.07271 -3.577411
v 1.6486 -59.12827 -3.679435
v 1.950518 -58.88354 -4.098149
v 1.653445 -57.28631 -4.713881
v 1.207337 -57.38227 -4.243732
v 1.777323 -56.53292 -4.729712
v 1.777323 -56.53292 -4.729712
v 1.207337 -57.38227 -4.243732
v 0.9343878 -56.79353 -3.853867
v 0.9343878 -56.79353 -3.853867
v 1.207337 -57.38227 -4.243732
v 0.846943 -56.8768 -3.771887
v 1.138818 -58.56888 -3.088596
v 1.437387 -59.33388 -3.191844
v 1.55846 -59.30539 -2.707486
v 1.55846 -59.30539 -2.707486
v 1.437387 -59.33388 -3.191844
v 1.583701 -59.43936 -2.823882
v 1.859735 -56.50493 -4.725543
v 2.273355 -56.4695 -4.701358
v 1.777323 -56.53292 -4.729712
v 1.777323 -56.53292 -4.729712
v 2.273355 -56.4695 -4.701358
v 1.653445 -57.28631 -4.713881
v 1.653445 -57.28631 -4.713881
v 2.273355 -56.4695 -4.701358
v 1.843388 -57.64411 -4.691155
v 1.859735 -56.50493 -4.725543
v 2.608527 -56.24472 -4.475632
v 2.273355 -56.4695 -4.701358
v 3.956775 -56.0412 -2.677091
v 4.05242 -55.72078 -3.199337
v 2.994831 -56.96883 -1.753551
v 2.994831 -56.96883 -1.753551
v 4.05242 -55.72078 -3.199337
v 0.7879814 -57.06292 -3.471465
v 0.7879814 -57.06292 -3.471465
v 4.05242 -55.72078 -3.199337
v 0.846943 -56.8768 -3.771887
v 0.846943 -56.8768 -3.771887
v 4.05242 -55.72078 -3.199337
v 0.9343878 -56.79353 -3.853867
v 4.132692 -55.69614 -3.288972
v 2.608527 -56.24472 -4.475632
v 4.05242 -55.72078 -3.199337
v 4.05242 -55.72078 -3.199337
v 2.608527 -56.24472 -4.475632
v 0.9343878 -56.79353 -3.853867
v 0.9343878 -56.79353 -3.853867
v 2.608527 -56.24472 -4.475632
v 1.777323 -56.53292 -4.729712
v 1.777323 -56.53292 -4.729712
v 2.608527 -56.24472 -4.475632
v 1.859735 -56.50493 -4.725543
v 2.933113 -57.8011 -1.741723
v 2.994831 -56.96883 -1.753551
v 2.602865 -59.42959 -1.882298
v 2.602865 -59.42959 -1.882298
v 2.994831 -56.96883 -1.753551
v 1.55846 -59.30539 -2.707486
v 1.55846 -59.30539 -2.707486
v 2.994831 -56.96883 -1.753551
v 1.138818 -58.56888 -3.088596
v 1.138818 -58.56888 -3.088596
v 2.994831 -56.96883 -1.753551
v 0.7879814 -57.06292 -3.471465
v 1.843388 -57.64411 -4.691155
v 1.988339 -58.84762 -4.153543
v 1.653445 -57.28631 -4.713881
v 1.653445 -57.28631 -4.713881
v 1.988339 -58.84762 -4.153543
v 1.207337 -57.38227 -4.243732
v 1.207337 -57.38227 -4.243732
v 1.988339 -58.84762 -4.153543
v 1.528007 -59.20187 -3.525687
v 1.528007 -59.20187 -3.525687
v 1.988339 -58.84762 -4.153543
v 1.6486 -59.12827 -3.679435
v 1.6486 -59.12827 -3.679435
v 1.988339 -58.84762 -4.153543
v 1.950518 -58.88354 -4.098149
v 1.207337 -57.38227 -4.243732
v 1.528007 -59.20187 -3.525687
v 0.846943 -56.8768 -3.771887
v 0.846943 -56.8768 -3.771887
v 1.528007 -59.20187 -3.525687
v 0.7879814 -57.06292 -3.471465
v 0.7879814 -57.06292 -3.471465
v 1.528007 -59.20187 -3.525687
v 1.138818 -58.56888 -3.088596
v 1.138818 -58.56888 -3.088596
v 1.528007 -59.20187 -3.525687
v 1.437387 -59.33388 -3.191844
v 2.63153 -59.42997 -1.903446
v 3.181693 -59.18837 -2.250778
v 2.607599 -59.43927 -1.888055
v 2.607599 -59.43927 -1.888055
v 3.181693 -59.18837 -2.250778
v 2.602865 -59.42959 -1.882298
v 2.602865 -59.42959 -1.882298
v 3.181693 -59.18837 -2.250778
v 2.933113 -57.8011 -1.741723
v 2.933113 -57.8011 -1.741723
v 3.181693 -59.18837 -2.250778
v 3.629195 -58.93999 -2.521092
v 3.956775 -56.0412 -2.677091
v 4.314273 -55.95936 -3.036452
v 4.05242 -55.72078 -3.199337
v 4.05242 -55.72078 -3.199337
v 4.314273 -55.95936 -3.036452
v 4.132692 -55.69614 -3.288972
v 3.629195 -58.93999 -2.521092
v 3.634452 -58.9366 -2.526242
v 2.933113 -57.8011 -1.741723
v 2.933113 -57.8011 -1.741723
v 3.634452 -58.9366 -2.526242
v 2.994831 -56.96883 -1.753551
v 2.994831 -56.96883 -1.753551
v 3.634452 -58.9366 -2.526242
v 3.956775 -56.0412 -2.677091
v 3.956775 -56.0412 -2.677091
v 3.634452 -58.9366 -2.526242
v 4.314273 -55.95936 -3.036452
v 4.314273 -55.95936 -3.036452
v 3.634452 -58.9366 -2.526242
v 3.705073 -58.88556 -2.59509
v 2.589953 -58.94955 -3.577413
v 2.348831 -58.93147 -3.800614
v 3.233632 -58.95226 -2.996978
v 3.233632 -58.95226 -2.996978
v 2.348831 -58.93147 -3.800614
v 3.705073 -58.88556 -2.59509
v 3.705073 -58.88556 -2.59509
v 2.348831 -58.93147 -3.800614
v 4.314273 -55.95936 -3.036452
v 4.314273 -55.95936 -3.036452
v 2.348831 -58.93147 -3.800614
v 4.132692 -55.69614 -3.288972
v 4.132692 -55.69614 -3.288972
v 2.348831 -58.93147 -3.800614
v 2.608527 -56.24472 -4.475632
v 2.608527 -56.24472 -4.475632
v 2.348831 -58.93147 -3.800614
v 2.273355 -56.4695 -4.701358
v 2.273355 -56.4695 -4.701358
v 2.348831 -58.93147 -3.800614
v 1.843388 -57.64411 -4.691155
v 1.843388 -57.64411 -4.691155
v 2.348831 -58.93147 -3.800614
v 1.988339 -58.84762 -4.153543
v 1.692078 -59.45194 -2.737931
v 1.9391 -59.4585 -2.51901
v 1.583701 -59.43936 -2.823882
v 1.583701 -59.43936 -2.823882
v 1.9391 -59.4585 -2.51901
v 1.55846 -59.30539 -2.707486
v 1.55846 -59.30539 -2.707486
v 1.9391 -59.4585 -2.51901
v 2.602865 -59.42959 -1.882298
v 2.602865 -59.42959 -1.882298
v 1.9391 -59.4585 -2.51901
v 2.607599 -59.43927 -1.888055

vn 0.2120685 -0.8797051 -0.4256122
vn 0.2120685 -0.8797051 -0.4256122
vn 0.2120685 -0.8797051 -0.4256122
vn 0.2120685 -0.8797051 -0.4256122
vn 0.2120685 -0.8797051 -0.4256122
vn 0.2120685 -0.8797051 -0.4256122
vn 0.2858292 -0.8797045 -0.3800283
vn 0.2858292 -0.8797045 -0.3800283
vn 0.2858292 -0.8797045 -0.3800283
vn 0.3659411 -0.8868542 -0.2820934
vn 0.3659411 -0.8868542 -0.2820934
vn 0.3659411 -0.8868542 -0.2820934
vn 0.3659411 -0.8868542 -0.2820934
vn 0.3659411 -0.8868542 -0.2820934
vn 0.3659411 -0.8868542 -0.2820934
vn 0.3712342 -0.9032194 -0.2153596
vn 0.3712342 -0.9032194 -0.2153596
vn 0.3712342 -0.9032194 -0.2153596
vn 0.3712342 -0.9032194 -0.2153596
vn 0.3712342 -0.9032194 -0.2153596
vn 0.3712342 -0.9032194 -0.2153596
vn 0.3045413 -0.9372858 -0.1695578
vn 0.3045413 -0.9372858 -0.1695578
vn 0.3045413 -0.9372858 -0.1695578
vn 0.2919246 -0.898464 -0.3279366
vn 0.2919246 -0.898464 -0.3279366
vn 0.2919246 -0.898464 -0.3279366
vn 0.2919246 -0.898464 -0.3279366
vn 0.2919246 -0.898464 -0.3279366
vn 0.2919246 -0.898464 -0.3279366
vn 0.225223 -0.9325758 -0.2820939
vn 0.225223 -0.9325758 -0.2820939
vn 0.225223 -0.9325758 -0.2820939
vn 0.225223 -0.9325758 -0.2820939
vn 0.225223 -0.9325758 -0.2820939
vn 0.225223 -0.9325758 -0.2820939
vn 0.2305599 -0.9489272 -0.215359
vn 0.2305599 -0.9489272 -0.215359
vn 0.2305599 -0.9489272 -0.215359
vn 0.2305599 -0.9489272 -0.215359
vn 0.2305599 -0.9489272 -0.215359
vn 0.2305599 -0.9489272 -0.215359
vn 0.1515796 -0.9325763 -0.3276049
vn 0.1515796 -0.9325763 -0.3276049
vn 0.1515796 -0.9325763 -0.3276049
vn 0.1515796 -0.9325763 -0.3276049
vn 0.1515796 -0.9325763 -0.3276049
vn 0.1515796 -0.9325763 -0.3276049
vn 0.1515796 -0.9325763 -0.3276049
vn 0.1515796 -0.9325763 -0.3276049
vn 0.1515796 -0.9325763 -0.3276049
vn 0.1515796 -0.9325763 -0.3276049
vn 0.1515796 -0.9325763 -0.3276049
vn 0.1515796 -0.9325763 -0.3276049
vn 0.162754 -0.898462 -0.4077711
vn 0.162754 -0.898462 -0.4077711
vn 0.162754 -0.898462 -0.4077711
vn -0.732041 0.1062283 -0.6729277
vn -0.732041 0.1062283 -0.6729277
vn -0.732041 0.1062283 -0.6729277
vn -0.732041 0.1062283 -0.6729277
vn -0.732041 0.1062283 -0.6729277
vn -0.732041 0.1062283 -0.6729277
vn -0.732041 0.1062283 -0.6729277
vn -0.732041 0.1062283 -0.6729277
vn -0.732041 0.1062283 -0.6729277
vn -0.8914479 -0.381018 0.2452469
vn -0.8914479 -0.381018 0.2452469
vn -0.8914479 -0.381018 0.2452469
vn -0.8914479 -0.381018 0.2452469
vn -0.8914479 -0.381018 0.2452469
vn -0.8914479 -0.381018 0.2452469
vn 0.06098961 -0.03099134 -0.9976572
vn 0.06098961 -0.03099134 -0.9976572
vn 0.06098961 -0.03099134 -0.9976572
vn 0.06098961 -0.03099134 -0.9976572
vn 0.06098961 -0.03099134 -0.9976572
vn 0.06098961 -0.03099134 -0.9976572
vn 0.06098961 -0.03099134 -0.9976572
vn 0.06098961 -0.03099134 -0.9976572
vn 0.06098961 -0.03099134 -0.9976572
vn -0.02176653 0.7244032 -0.6890329
vn -0.02176653 0.7244032 -0.6890329
vn -0.02176653 0.7244032 -0.6890329
vn -0.3732271 0.8196706 0.4345592
vn -0.3732271 0.8196706 0.4345592
vn -0.3732271 0.8196706 0.4345592
vn -0.3732271 0.8196706 0.4345592
vn -0.3732271 0.8196706 0.4345592
vn -0.3732271 0.8196706 0.4345592
vn -0.3732271 0.8196706 0.4345592
vn -0.3732271 0.8196706 0.4345592
vn -0.3732271 0.8196706 0.4345592
vn -0.3732271 0.8196706 0.4345592
vn -0.3732271 0.8196706 0.4345592
vn -0.3732271 0.8196706 0.4345592
vn -0.3202519 0.9469637 -0.02643199
vn -0.3202519 0.9469637 -0.02643199
vn -0.3202519 0.9469637 -0.02643199
vn -0.3202519 0.9469637 -0.02643199
vn -0.3202519 0.9469637 -0.02643199
vn -0.3202519 0.9469637 -0.02643199
vn -0.3202519 0.9469637 -0.02643199
vn -0.3202519 0.9469637 -0.02643199
vn -0.3202519 0.9469637 -0.02643199
vn -0.3202519 0.9469637 -0.02643199
vn -0.3202519 0.9469637 -0.02643199
vn -0.3202519 0.9469637 -0.02643199
vn -0.6147847 0.05676861 0.7866493
vn -0.6147847 0.05676861 0.7866493
vn -0.6147847 0.05676861 0.7866493
vn -0.6147847 0.05676861 0.7866493
vn -0.6147847 0.05676861 0.7866493
vn -0.6147847 0.05676861 0.7866493
vn -0.6147847 0.05676861 0.7866493
vn -0.6147847 0.05676861 0.7866493
vn -0.6147847 0.05676861 0.7866493
vn -0.6147847 0.05676861 0.7866493
vn -0.6147847 0.05676861 0.7866493
vn -0.6147847 0.05676861 0.7866493
vn -0.6317099 -0.3783322 -0.6766147
vn -0.6317099 -0.3783322 -0.6766147
vn -0.6317099 -0.3783322 -0.6766147
vn -0.6317099 -0.3783322 -0.6766147
vn -0.6317099 -0.3783322 -0.6766147
vn -0.6317099 -0.3783322 -0.6766147
vn -0.6317099 -0.3783322 -0.6766147
vn -0.6317099 -0.3783322 -0.6766147
vn -0.6317099 -0.3783322 -0.6766147
vn -0.6317099 -0.3783322 -0.6766147
vn -0.6317099 -0.3783322 -0.6766147
vn -0.6317099 -0.3783322 -0.6766147
vn -0.6317099 -0.3783322 -0.6766147
vn -0.6317099 -0.3783322 -0.6766147
vn -0.6317099 -0.3783322 -0.6766147
vn -0.8852407 -0.2972063 -0.3577954
vn -0.8852407 -0.2972063 -0.3577954
vn -0.8852407 -0.2972063 -0.3577954
vn -0.8852407 -0.2972063 -0.3577954
vn -0.8852407 -0.2972063 -0.3577954
vn -0.8852407 -0.2972063 -0.3577954
vn -0.8852407 -0.2972063 -0.3577954
vn -0.8852407 -0.2972063 -0.3577954
vn -0.8852407 -0.2972063 -0.3577954
vn -0.8852407 -0.2972063 -0.3577954
vn -0.8852407 -0.2972063 -0.3577954
vn -0.8852407 -0.2972063 -0.3577954
vn 0.5816889 -0.1863125 0.7917864
vn 0.5816889 -0.1863125 0.7917864
vn 0.5816889 -0.1863125 0.7917864
vn 0.5816889 -0.1863125 0.7917864
vn 0.5816889 -0.1863125 0.7917864
vn 0.5816889 -0.1863125 0.7917864
vn 0.5816889 -0.1863125 0.7917864
vn 0.5816889 -0.1863125 0.7917864
vn 0.5816889 -0.1863125 0.7917864
vn 0.5816889 -0.1863125 0.7917864
vn 0.5816889 -0.1863125 0.7917864
vn 0.5816889 -0.1863125 0.7917864
vn 0.3627746 0.7632073 0.5347049
vn 0.3627746 0.7632073 0.5347049
vn 0.3627746 0.7632073 0.5347049
vn 0.3627746 0.7632073 0.5347049
vn 0.3627746 0.7632073 0.5347049
vn 0.3627746 0.7632073 0.5347049
vn 0.7131613 -0.04293583 0.6996838
vn 0.7131613 -0.04293583 0.6996838
vn 0.7131613 -0.04293583 0.6996838
vn 0.7131613 -0.04293583 0.6996838
vn 0.7131613 -0.04293583 0.6996838
vn 0.7131613 -0.04293583 0.6996838
vn 0.7131613 -0.04293583 0.6996838
vn 0.7131613 -0.04293583 0.6996838
vn 0.7131613 -0.04293583 0.6996838
vn 0.7131613 -0.04293583 0.6996838
vn 0.7131613 -0.04293583 0.6996838
vn 0.7131613 -0.04293583 0.6996838
vn 0.7131613 -0.04293583 0.6996838
vn 0.7131613 -0.04293583 0.6996838
vn 0.7131613 -0.04293583 0.6996838
vn 0.6489061 -0.2438046 -0.7207497
vn 0.6489061 -0.2438046 -0.7207497
vn 0.6489061 -0.2438046 -0.7207497
vn 0.6489061 -0.2438046 -0.7207497
vn 0.6489061 -0.2438046 -0.7207497
vn 0.6489061 -0.2438046 -0.7207497
vn 0.6489061 -0.2438046 -0.7207497
vn 0.6489061 -0.2438046 -0.7207497
vn 0.6489061 -0.2438046 -0.7207497
vn 0.6489061 -0.2438046 -0.7207497
vn 0.6489061 -0.2438046 -0.7207497
vn 0.6489061 -0.2438046 -0.7207497
vn 0.6489061 -0.2438046 -0.7207497
vn 0.6489061 -0.2438046 -0.7207497
vn 0.6489061 -0.2438046 -0.7207497
vn 0.6489061 -0.2438046 -0.7207497
vn 0.6489061 -0.2438046 -0.7207497
vn 0.6489061 -0.2438046 -0.7207497
vn 0.6489061 -0.2438046 -0.7207497
vn 0.6489061 -0.2438046 -0.7207497
vn 0.6489061 -0.2438046 -0.7207497
vn 0.6489061 -0.2438046 -0.7207497
vn 0.6489061 -0.2438046 -0.7207497
vn 0.6489061 -0.2438046 -0.7207497
vn -0.5349453 -0.6092816 0.5853285
vn -0.5349453 -0.6092816 0.5853285
vn -0.5349453 -0.6092816 0.5853285
vn -0.5349453 -0.6092816 0.5853285
vn -0.5349453 -0.6092816 0.5853285
vn -0.5349453 -0.6092816 0.5853285
vn -0.5349453 -0.6092816 0.5853285
vn -0.5349453 -0.6092816 0.5853285
vn -0.5349453 -0.6092816 0.5853285
vn -0.5349453 -0.6092816 0.5853285
vn -0.5349453 -0.6092816 0.5853285
vn -0.5349453 -0.6092816 0.5853285

vt 0.8977264 0.1771435
vt 0.892764 0.1685483
vt 0.900561 0.1722337
vt 0.900561 0.1722337
vt 0.892764 0.1685483
vt 0.8935388 0.1673122
vt 0.8977264 0.1771435
vt 0.900561 0.1722337
vt 0.9041883 0.1771435
vt 0.9211059 0.1955077
vt 0.9197906 0.196826
vt 0.9140998 0.1881489
vt 0.9140998 0.1881489
vt 0.9197906 0.196826
vt 0.9090901 0.196826
vt 0.9196946 0.1969128
vt 0.9118024 0.2015238
vt 0.9197906 0.196826
vt 0.9197906 0.196826
vt 0.9118024 0.2015238
vt 0.9090901 0.196826
vt 0.9031133 0.2071783
vt 0.9090901 0.196826
vt 0.9118024 0.2015238
vt 0.8977264 0.1771435
vt 0.9041883 0.1771435
vt 0.9090901 0.196826
vt 0.9090901 0.196826
vt 0.9041883 0.1771435
vt 0.9140998 0.1881489
vt 0.9090901 0.196826
vt 0.8924839 0.196826
vt 0.8977264 0.1771435
vt 0.8977264 0.1771435
vt 0.8924839 0.196826
vt 0.8887765 0.1926451
vt 0.902727 0.2074239
vt 0.8924839 0.196826
vt 0.9031133 0.2071783
vt 0.9031133 0.2071783
vt 0.8924839 0.196826
vt 0.9090901 0.196826
vt 0.8877143 0.1771435
vt 0.8977264 0.1771435
vt 0.8856212 0.1800596
vt 0.8856212 0.1800596
vt 0.8977264 0.1771435
vt 0.8841157 0.1858757
vt 0.8841157 0.1858757
vt 0.8977264 0.1771435
vt 0.8868263 0.1915445
vt 0.8868263 0.1915445
vt 0.8977264 0.1771435
vt 0.8887765 0.1926451
vt 0.8977264 0.1771435
vt 0.8877143 0.1771435
vt 0.892764 0.1685483
vt 0.4537293 0.5400921
vt 0.4325922 0.4556232
vt 0.5551821 0.5429329
vt 0.5551821 0.5429329
vt 0.4325922 0.4556232
vt 0.5048167 0.3855738
vt 0.5048167 0.3855738
vt 0.4325922 0.4556232
vt 0.4921972 0.3708449
vt 0.4058766 0.4890704
vt 0.3226405 0.4998711
vt 0.3204748 0.4492056
vt 0.3204748 0.4492056
vt 0.3226405 0.4998711
vt 0.306974 0.4613798
vt 0.4251949 0.5424266
vt 0.4217822 0.5016149
vt 0.4279372 0.5505646
vt 0.4279372 0.5505646
vt 0.4217822 0.5016149
vt 0.502154 0.5627903
vt 0.502154 0.5627903
vt 0.4217822 0.5016149
vt 0.5374435 0.5440486
vt 0.4169585 0.5474238
vt 0.5195456 0.5006492
vt 0.4731836 0.5428954
vt 0.6918212 0.4216416
vt 0.7158132 0.4849358
vt 0.5542914 0.3097163
vt 0.5542914 0.3097163
vt 0.7158132 0.4849358
vt 0.3308066 0.517919
vt 0.3308066 0.517919
vt 0.7158132 0.4849358
vt 0.3450856 0.5543242
vt 0.3450856 0.5543242
vt 0.7158132 0.4849358
vt 0.357541 0.5642623
vt 0.6947182 0.4633393
vt 0.5354372 0.5800788
vt 0.6864678 0.4545216
vt 0.6864678 0.4545216
vt 0.5354372 0.5800788
vt 0.3621912 0.5189128
vt 0.3621912 0.5189128
vt 0.5354372 0.5800788
vt 0.4489244 0.605074
vt 0.4489244 0.605074
vt 0.5354372 0.5800788
vt 0.4574842 0.6046615
vt 0.3897882 0.2410077
vt 0.5226489 0.2440547
vt 0.1267433 0.2772629
vt 0.1267433 0.2772629
vt 0.5226489 0.2440547
vt 0.1311451 0.490083
vt 0.1311451 0.490083
vt 0.5226489 0.2440547
vt 0.2417812 0.5883762
vt 0.2417812 0.5883762
vt 0.5226489 0.2440547
vt 0.4754243 0.6871194
vt 0.4693865 0.534645
vt 0.3215951 0.4371674
vt 0.523399 0.5387702
vt 0.523399 0.5387702
vt 0.3215951 0.4371674
vt 0.5430126 0.4535231
vt 0.5430126 0.4535231
vt 0.3215951 0.4371674
vt 0.3125946 0.3233249
vt 0.3125946 0.3233249
vt 0.3215951 0.4371674
vt 0.312754 0.3512031
vt 0.312754 0.3512031
vt 0.3215951 0.4371674
vt 0.3200763 0.4271262
vt 0.5044135 0.5129874
vt 0.3120696 0.4320343
vt 0.566939 0.4597953
vt 0.566939 0.4597953
vt 0.3120696 0.4320343
vt 0.5503349 0.4259215
vt 0.5503349 0.4259215
vt 0.3120696 0.4320343
vt 0.3882881 0.3827565
vt 0.3882881 0.3827565
vt 0.3120696 0.4320343
vt 0.3019346 0.3943962
vt 0.8330544 0.4450569
vt 0.7690101 0.5365763
vt 0.8356514 0.4409974
vt 0.8356514 0.4409974
vt 0.7690101 0.5365763
vt 0.8344045 0.4394832
vt 0.8344045 0.4394832
vt 0.7690101 0.5365763
vt 0.5685703 0.4024404
vt 0.5685703 0.4024404
vt 0.7690101 0.5365763
vt 0.7089691 0.6078117
vt 0.5977752 0.5071278
vt 0.6312459 0.5566025
vt 0.5918217 0.5790288
vt 0.5918217 0.5790288
vt 0.6312459 0.5566025
vt 0.5990221 0.5913669
vt 0.729539 0.5170189
vt 0.7290328 0.5180128
vt 0.5788647 0.3669165
vt 0.5788647 0.3669165
vt 0.7290328 0.5180128
vt 0.4640377 0.3691948
vt 0.4640377 0.3691948
vt 0.7290328 0.5180128
vt 0.3286737 0.5470675
vt 0.3286737 0.5470675
vt 0.7290328 0.5180128
vt 0.3144791 0.6162778
vt 0.3144791 0.6162778
vt 0.7290328 0.5180128
vt 0.7214385 0.5312791
vt 0.7238199 0.4114456
vt 0.7334486 0.4571092
vt 0.6920744 0.2926903
vt 0.6920744 0.2926903
vt 0.7334486 0.4571092
vt 0.6597006 0.2104715
vt 0.6597006 0.2104715
vt 0.7334486 0.4571092
vt 0.2408342 0.3007674
vt 0.2408342 0.3007674
vt 0.7334486 0.4571092
vt 0.2149437 0.3524313
vt 0.2149437 0.3524313
vt 0.7334486 0.4571092
vt 0.3638038 0.595211
vt 0.3638038 0.595211
vt 0.7334486 0.4571092
vt 0.4103628 0.6413855
vt 0.4103628 0.6413855
vt 0.7334486 0.4571092
vt 0.5877433 0.6393041
vt 0.5877433 0.6393041
vt 0.7334486 0.4571092
vt 0.7403021 0.5293103
vt 0.3694713 0.5694001
vt 0.3464403 0.5366701
vt 0.3803517 0.5822539
vt 0.3803517 0.5822539
vt 0.3464403 0.5366701
vt 0.3933696 0.564853
vt 0.3933696 0.564853
vt 0.3464403 0.5366701
vt 0.2882745 0.4414474
vt 0.2882745 0.4414474
vt 0.3464403 0.5366701
vt 0.2870697 0.4423099

usemtl Material0
usemap Material0
f 1/1/1 2/2/2 3/3/3
f 4/4/4 5/5/5 6/6/6
f 7/7/7 8/8/8 9/9/9
f 10/10/10 11/11/11 12/12/12
f 13/13/13 14/14/14 15/15/15
f 16/16/16 17/17/17 18/18/18
f 19/19/19 20/20/20 21/21/21
f 22/22/22 23/23/23 24/24/24
f 25/25/25 26/26/26 27/27/27
f 28/28/28 29/29/29 30/30/30
f 31/31/31 32/32/32 33/33/33
f 34/34/34 35/35/35 36/36/36
f 37/37/37 38/38/38 39/39/39
f 40/40/40 41/41/41 42/42/42
f 43/43/43 44/44/44 45/45/45
f 46/46/46 47/47/47 48/48/48
f 49/49/49 50/50/50 51/51/51
f 52/52/52 53/53/53 54/54/54
f 55/55/55 56/56/56 57/57/57

usemtl Material1
usemap Material1
f 58/58/58 59/59/59 60/60/60
f 61/61/61 62/62/62 63/63/63
f 64/64/64 65/65/65 66/66/66
f 67/67/67 68/68/68 69/69/69
f 70/70/70 71/71/71 72/72/72
f 73/73/73 74/74/74 75/75/75
f 76/76/76 77/77/77 78/78/78
f 79/79/79 80/80/80 81/81/81
f 82/82/82 83/83/83 84/84/84
f 85/85/85 86/86/86 87/87/87
f 88/88/88 89/89/89 90/90/90
f 91/91/91 92/92/92 93/93/93
f 94/94/94 95/95/95 96/96/96
f 97/97/97 98/98/98 99/99/99
f 100/100/100 101/101/101 102/102/102
f 103/103/103 104/104/104 105/105/105
f 106/106/106 107/107/107 108/108/108
f 109/109/109 110/110/110 111/111/111
f 112/112/112 113/113/113 114/114/114
f 115/115/115 116/116/116 117/117/117
f 118/118/118 119/119/119 120/120/120
f 121/121/121 122/122/122 123/123/123
f 124/124/124 125/125/125 126/126/126
f 127/127/127 128/128/128 129/129/129
f 130/130/130 131/131/131 132/132/132
f 133/133/133 134/134/134 135/135/135
f 136/136/136 137/137/137 138/138/138
f 139/139/139 140/140/140 141/141/141
f 142/142/142 143/143/143 144/144/144
f 145/145/145 146/146/146 147/147/147
f 148/148/148 149/149/149 150/150/150
f 151/151/151 152/152/152 153/153/153
f 154/154/154 155/155/155 156/156/156
f 157/157/157 158/158/158 159/159/159
f 160/160/160 161/161/161 162/162/162
f 163/163/163 164/164/164 165/165/165
f 166/166/166 167/167/167 168/168/168
f 169/169/169 170/170/170 171/171/171
f 172/172/172 173/173/173 174/174/174
f 175/175/175 176/176/176 177/177/177
f 178/178/178 179/179/179 180/180/180
f 181/181/181 182/182/182 183/183/183
f 184/184/184 185/185/185 186/186/186
f 187/187/187 188/188/188 189/189/189
f 190/190/190 191/191/191 192/192/192
f 193/193/193 194/194/194 195/195/195
f 196/196/196 197/197/197 198/198/198
f 199/199/199 200/200/200 201/201/201
f 202/202/202 203/203/203 204/204/204
f 205/205/205 206/206/206 207/207/207
f 208/208/208 209/209/209 210/210/210
f 211/211/211 212/212/212 213/213/213
f 214/214/214 215/215/215 216/216/216
