g  Instance
v 2.399739 -58.98332 3.59626
v 3.363346 -58.49305 4.022291
v 2.046155 -58.89193 4.092299
v 2.046155 -58.89193 4.092299
v 3.363346 -58.49305 4.022291
v 3.312493 -58.48046 4.0923
v 3.312493 -58.48046 4.0923
v 2.61917 -58.26222 4.935902
v 2.046155 -58.89193 4.092299
v 2.046155 -58.89193 4.092299
v 2.61917 -58.26222 4.935902
v 2.496252 -58.2724 4.992503
v 2.046155 -58.89193 4.092299
v 2.496252 -58.2724 4.992503
v 1.526875 -58.64696 4.728585
v 1.526875 -58.64696 4.728585
v 2.496252 -58.2724 4.992503
v 2.117672 -58.28083 5.130009
v 2.046155 -58.89193 4.092299
v 1.742668 -59.17461 3.485322
v 2.399739 -58.98332 3.59626
v 2.399739 -58.98332 3.59626
v 1.742668 -59.17461 3.485322
v 2.137467 -59.09596 3.448197
v 1.267009 -59.0252 4.040961
v 1.293533 -59.23608 3.494773
v 2.046155 -58.89193 4.092299
v 2.046155 -58.89193 4.092299
v 1.293533 -59.23608 3.494773
v 1.742668 -59.17461 3.485322
v 1.526875 -58.64696 4.728585
v 1.249918 -58.78423 4.529751
v 2.046155 -58.89193 4.092299
v 2.046155 -58.89193 4.092299
v 1.249918 -58.78423 4.529751
v 1.267009 -59.0252 4.040961
v 1.417033 -57.63246 4.318307
v 2.117672 -58.28083 5.130009
v 1.607817 -56.98216 3.211578
v 1.607817 -56.98216 3.211578
v 2.117672 -58.28083 5.130009
v 2.047858 -57.05385 3.182591
v 2.047858 -57.05385 3.182591
v 2.117672 -58.28083 5.130009
v 2.61917 -58.26222 4.935902
v 2.61917 -58.26222 4.935902
v 2.117672 -58.28083 5.130009
v 2.496252 -58.2724 4.992503
v 1.607817 -56.98216 3.211578
v 2.047858 -57.05385 3.182591
v 1.733716 -56.87517 2.061626
v 1.733716 -56.87517 2.061626
v 2.047858 -57.05385 3.182591
v 2.290431 -57.03756 2.666918
v 2.290431 -57.03756 2.666918
v 3.298432 -58.2452 3.559911
v 1.733716 -56.87517 2.061626
v 1.733716 -56.87517 2.061626
v 3.298432 -58.2452 3.559911
v 1.652841 -57.72827 1.778927
v 1.652841 -57.72827 1.778927
v 3.298432 -58.2452 3.559911
v 2.415967 -58.28299 2.534862
v 2.61917 -58.26222 4.935902
v 3.312493 -58.48046 4.0923
v 2.047858 -57.05385 3.182591
v 2.047858 -57.05385 3.182591
v 3.312493 -58.48046 4.0923
v 2.290431 -57.03756 2.666918
v 2.290431 -57.03756 2.666918
v 3.312493 -58.48046 4.0923
v 3.298432 -58.2452 3.559911
v 3.298432 -58.2452 3.559911
v 3.312493 -58.48046 4.0923
v 3.363346 -58.49305 4.022291
v 1.652841 -57.72827 1.778927
v 1.293533 -59.23608 3.494773
v 1.733716 -56.87517 2.061626
v 1.733716 -56.87517 2.061626
v 1.293533 -59.23608 3.494773
v 1.607817 -56.98216 3.211578
v 1.607817 -56.98216 3.211578
v 1.293533 -59.23608 3.494773
v 1.417033 -57.63246 4.318307
v 1.417033 -57.63246 4.318307
v 1.293533 -59.23608 3.494773
v 1.249918 -58.78423 4.529751
v 1.249918 -58.78423 4.529751
v 1.293533 -59.23608 3.494773
v 1.267009 -59.0252 4.040961
v 1.249918 -58.78423 4.529751
v 1.526875 -58.64696 4.728585
v 1.417033 -57.63246 4.318307
v 1.417033 -57.63246 4.318307
v 1.526875 -58.64696 4.728585
v 2.117672 -58.28083 5.130009
v 2.415967 -58.28299 2.534862
v 2.137467 -59.09596 3.448197
v 1.652841 -57.72827 1.778927
v 1.652841 -57.72827 1.778927
v 2.137467 -59.09596 3.448197
v 1.293533 -59.23608 3.494773
v 1.293533 -59.23608 3.494773
v 2.137467 -59.09596 3.448197
v 1.742668 -59.17461 3.485322
v 3.298432 -58.2452 3.559911
v 3.363346 -58.49305 4.022291
v 2.415967 -58.28299 2.534862
v 2.415967 -58.28299 2.534862
v 3.363346 -58.49305 4.022291
v 2.137467 -59.09596 3.448197
v 2.137467 -59.09596 3.448197
v 3.363346 -58.49305 4.022291
v 2.399739 -58.98332 3.59626

vn 0.2873625 -0.884398 0.3677811
vn 0.2873625 -0.884398 0.3677811
vn 0.2873625 -0.884398 0.3677811
vn 0.2873625 -0.884398 0.3677811
vn 0.2873625 -0.884398 0.3677811
vn 0.2873625 -0.884398 0.3677811
vn 0.2763959 -0.8506463 0.4472206
vn 0.2763959 -0.8506463 0.4472206
vn 0.2763959 -0.8506463 0.4472206
vn 0.2763959 -0.8506463 0.4472206
vn 0.2763959 -0.8506463 0.4472206
vn 0.2763959 -0.8506463 0.4472206
vn 0.1960127 -0.8508187 0.4875311
vn 0.1960127 -0.8508187 0.4875311
vn 0.1960127 -0.8508187 0.4875311
vn 0.1960127 -0.8508187 0.4875311
vn 0.1960127 -0.8508187 0.4875311
vn 0.1960127 -0.8508187 0.4875311
vn 0.2139993 -0.9220861 0.3224307
vn 0.2139993 -0.9220861 0.3224307
vn 0.2139993 -0.9220861 0.3224307
vn 0.2139993 -0.9220861 0.3224307
vn 0.2139993 -0.9220861 0.3224307
vn 0.2139993 -0.9220861 0.3224307
vn 0.1338654 -0.9222846 0.3625894
vn 0.1338654 -0.9222846 0.3625894
vn 0.1338654 -0.9222846 0.3625894
vn 0.1338654 -0.9222846 0.3625894
vn 0.1338654 -0.9222846 0.3625894
vn 0.1338654 -0.9222846 0.3625894
vn 0.1228235 -0.8884275 0.4422793
vn 0.1228235 -0.8884275 0.4422793
vn 0.1228235 -0.8884275 0.4422793
vn 0.1228235 -0.8884275 0.4422793
vn 0.1228235 -0.8884275 0.4422793
vn 0.1228235 -0.8884275 0.4422793
vn 0.1705758 0.8364171 0.5208747
vn 0.1705758 0.8364171 0.5208747
vn 0.1705758 0.8364171 0.5208747
vn 0.1705758 0.8364171 0.5208747
vn 0.1705758 0.8364171 0.5208747
vn 0.1705758 0.8364171 0.5208747
vn 0.1705758 0.8364171 0.5208747
vn 0.1705758 0.8364171 0.5208747
vn 0.1705758 0.8364171 0.5208747
vn 0.1705758 0.8364171 0.5208747
vn 0.1705758 0.8364171 0.5208747
vn 0.1705758 0.8364171 0.5208747
vn 0.1668468 0.9798911 0.109434
vn 0.1668468 0.9798911 0.109434
vn 0.1668468 0.9798911 0.109434
vn 0.1668468 0.9798911 0.109434
vn 0.1668468 0.9798911 0.109434
vn 0.1668468 0.9798911 0.109434
vn 0.7473054 0.1441074 -0.6486661
vn 0.7473054 0.1441074 -0.6486661
vn 0.7473054 0.1441074 -0.6486661
vn 0.7473054 0.1441074 -0.6486661
vn 0.7473054 0.1441074 -0.6486661
vn 0.7473054 0.1441074 -0.6486661
vn 0.7473054 0.1441074 -0.6486661
vn 0.7473054 0.1441074 -0.6486661
vn 0.7473054 0.1441074 -0.6486661
vn 0.6058124 0.7335144 0.3081363
vn 0.6058124 0.7335144 0.3081363
vn 0.6058124 0.7335144 0.3081363
vn 0.6058124 0.7335144 0.3081363
vn 0.6058124 0.7335144 0.3081363
vn 0.6058124 0.7335144 0.3081363
vn 0.6058124 0.7335144 0.3081363
vn 0.6058124 0.7335144 0.3081363
vn 0.6058124 0.7335144 0.3081363
vn 0.6058124 0.7335144 0.3081363
vn 0.6058124 0.7335144 0.3081363
vn 0.6058124 0.7335144 0.3081363
vn -0.9873887 0.1255602 -0.09642765
vn -0.9873887 0.1255602 -0.09642765
vn -0.9873887 0.1255602 -0.09642765
vn -0.9873887 0.1255602 -0.09642765
vn -0.9873887 0.1255602 -0.09642765
vn -0.9873887 0.1255602 -0.09642765
vn -0.9873887 0.1255602 -0.09642765
vn -0.9873887 0.1255602 -0.09642765
vn -0.9873887 0.1255602 -0.09642765
vn -0.9873887 0.1255602 -0.09642765
vn -0.9873887 0.1255602 -0.09642765
vn -0.9873887 0.1255602 -0.09642765
vn -0.9873887 0.1255602 -0.09642765
vn -0.9873887 0.1255602 -0.09642765
vn -0.9873887 0.1255602 -0.09642765
vn -0.639809 0.227592 0.7340616
vn -0.639809 0.227592 0.7340616
vn -0.639809 0.227592 0.7340616
vn -0.639809 0.227592 0.7340616
vn -0.639809 0.227592 0.7340616
vn -0.639809 0.227592 0.7340616
vn 0.09006228 -0.7573953 -0.6467158
vn 0.09006228 -0.7573953 -0.6467158
vn 0.09006228 -0.7573953 -0.6467158
vn 0.09006228 -0.7573953 -0.6467158
vn 0.09006228 -0.7573953 -0.6467158
vn 0.09006228 -0.7573953 -0.6467158
vn 0.09006228 -0.7573953 -0.6467158
vn 0.09006228 -0.7573953 -0.6467158
vn 0.09006228 -0.7573953 -0.6467158
vn 0.555105 -0.6981427 -0.4521672
vn 0.555105 -0.6981427 -0.4521672
vn 0.555105 -0.6981427 -0.4521672
vn 0.555105 -0.6981427 -0.4521672
vn 0.555105 -0.6981427 -0.4521672
vn 0.555105 -0.6981427 -0.4521672
vn 0.555105 -0.6981427 -0.4521672
vn 0.555105 -0.6981427 -0.4521672
vn 0.555105 -0.6981427 -0.4521672

vt 0.9020925 0.2876766
vt 0.9172285 0.2941712
vt 0.8977267 0.2952385
vt 0.8977267 0.2952385
vt 0.9172285 0.2941712
vt 0.9165981 0.2952385
vt 0.9165981 0.2952385
vt 0.9082084 0.3094901
vt 0.8977267 0.2952385
vt 0.8977267 0.2952385
vt 0.9082084 0.3094901
vt 0.906507 0.3104463
vt 0.8977267 0.2952385
vt 0.906507 0.3104463
vt 0.8911739 0.3065884
vt 0.8911739 0.3065884
vt 0.906507 0.3104463
vt 0.9010326 0.3130901
vt 0.8977267 0.2952385
vt 0.8925341 0.2862447
vt 0.9020925 0.2876766
vt 0.9020925 0.2876766
vt 0.8925341 0.2862447
vt 0.898132 0.285549
vt 0.886213 0.2952385
vt 0.8859441 0.2868429
vt 0.8977267 0.2952385
vt 0.8977267 0.2952385
vt 0.8859441 0.2868429
vt 0.8925341 0.2862447
vt 0.8911739 0.3065884
vt 0.8867794 0.3035315
vt 0.8977267 0.2952385
vt 0.8977267 0.2952385
vt 0.8867794 0.3035315
vt 0.886213 0.2952385
vt 0.4413724 0.3786688
vt 0.5353528 0.2691577
vt 0.4479353 0.527979
vt 0.4479353 0.527979
vt 0.5353528 0.2691577
vt 0.4992382 0.5318885
vt 0.4992382 0.5318885
vt 0.5353528 0.2691577
vt 0.5915217 0.2953483
vt 0.5915217 0.2953483
vt 0.5353528 0.2691577
vt 0.5778803 0.2877119
vt 0.4564014 0.4894548
vt 0.5004945 0.4923331
vt 0.466902 0.603874
vt 0.466902 0.603874
vt 0.5004945 0.4923331
vt 0.5238771 0.5436454
vt 0.4017888 0.4821513
vt 0.5796148 0.330591
vt 0.3675728 0.5848885
vt 0.3675728 0.5848885
vt 0.5796148 0.330591
vt 0.4737977 0.6328725
vt 0.4737977 0.6328725
vt 0.5796148 0.330591
vt 0.5628231 0.5045682
vt 0.5832993 0.3170339
vt 0.6529033 0.4086752
vt 0.4582624 0.507484
vt 0.4582624 0.507484
vt 0.6529033 0.4086752
vt 0.4765119 0.5635028
vt 0.4765119 0.5635028
vt 0.6529033 0.4086752
vt 0.6362993 0.4665035
vt 0.6362993 0.4665035
vt 0.6529033 0.4086752
vt 0.6577786 0.4162787
vt 0.4974475 0.6200936
vt 0.3452356 0.4498244
vt 0.582043 0.592042
vt 0.582043 0.592042
vt 0.3452356 0.4498244
vt 0.5699954 0.4779229
vt 0.5699954 0.4779229
vt 0.3452356 0.4498244
vt 0.5038978 0.3681025
vt 0.5038978 0.3681025
vt 0.3452356 0.4498244
vt 0.3889678 0.34712
vt 0.3889678 0.34712
vt 0.3452356 0.4498244
vt 0.3655664 0.3956244
vt 0.3320207 0.3729216
vt 0.3641835 0.33053
vt 0.4972225 0.4179945
vt 0.4972225 0.4179945
vt 0.3641835 0.33053
vt 0.4427834 0.2449548
vt 0.4189836 0.5034807
vt 0.4670004 0.3491405
vt 0.5082106 0.6312224
vt 0.5082106 0.6312224
vt 0.4670004 0.3491405
vt 0.577149 0.341265
vt 0.577149 0.341265
vt 0.4670004 0.3491405
vt 0.51873 0.3428636
vt 0.3900741 0.3839566
vt 0.4014747 0.3268173
vt 0.4687958 0.5106248
vt 0.4687958 0.5106248
vt 0.4014747 0.3268173
vt 0.5485911 0.397762
vt 0.5485911 0.397762
vt 0.4014747 0.3268173
vt 0.5182424 0.3794657

usemtl Material0
usemap Material0
f 1/1/1 2/2/2 3/3/3
f 4/4/4 5/5/5 6/6/6
f 7/7/7 8/8/8 9/9/9
f 10/10/10 11/11/11 12/12/12
f 13/13/13 14/14/14 15/15/15
f 16/16/16 17/17/17 18/18/18
f 19/19/19 20/20/20 21/21/21
f 22/22/22 23/23/23 24/24/24
f 25/25/25 26/26/26 27/27/27
f 28/28/28 29/29/29 30/30/30
f 31/31/31 32/32/32 33/33/33
f 34/34/34 35/35/35 36/36/36

usemtl Material1
usemap Material1
f 37/37/37 38/38/38 39/39/39
f 40/40/40 41/41/41 42/42/42
f 43/43/43 44/44/44 45/45/45
f 46/46/46 47/47/47 48/48/48
f 49/49/49 50/50/50 51/51/51
f 52/52/52 53/53/53 54/54/54
f 55/55/55 56/56/56 57/57/57
f 58/58/58 59/59/59 60/60/60
f 61/61/61 62/62/62 63/63/63
f 64/64/64 65/65/65 66/66/66
f 67/67/67 68/68/68 69/69/69
f 70/70/70 71/71/71 72/72/72
f 73/73/73 74/74/74 75/75/75
f 76/76/76 77/77/77 78/78/78
f 79/79/79 80/80/80 81/81/81
f 82/82/82 83/83/83 84/84/84
f 85/85/85 86/86/86 87/87/87
f 88/88/88 89/89/89 90/90/90
f 91/91/91 92/92/92 93/93/93
f 94/94/94 95/95/95 96/96/96
f 97/97/97 98/98/98 99/99/99
f 100/100/100 101/101/101 102/102/102
f 103/103/103 104/104/104 105/105/105
f 106/106/106 107/107/107 108/108/108
f 109/109/109 110/110/110 111/111/111
f 112/112/112 113/113/113 114/114/114
