g  Instance
v 0.9995999 -50.01664 -0.3753488
v 0.8776776 -49.7119 -0.3655185
v 1.106798 -50.28873 -0.3382906
v 1.106798 -50.28873 -0.3382906
v 0.8776776 -49.7119 -0.3655185
v 1.090162 -50.34942 0.7860625
v 1.090162 -50.34942 0.7860625
v 0.8776776 -49.7119 -0.3655185
v 0.9507349 -50.06525 1.50368
v 0.9507349 -50.06525 1.50368
v 0.8776776 -49.7119 -0.3655185
v 0.7372206 -49.52248 1.420841
v 0.7372206 -49.52248 1.420841
v 0.8776776 -49.7119 -0.3655185
v 0.6199067 -49.20409 1.153933
v -0.02448225 -49.83899 2.166051
v -0.03016587 -49.80291 2.15385
v -0.7288045 -49.87506 2.020033
v -0.7288045 -49.87506 2.020033
v -0.03016587 -49.80291 2.15385
v -0.2696842 -49.54771 2.023149
v -0.7288045 -49.87506 2.020033
v -1.516992 -50.25465 1.631784
v -0.02448225 -49.83899 2.166051
v -0.02448225 -49.83899 2.166051
v -1.516992 -50.25465 1.631784
v 0.5163984 -50.30051 1.953916
v 0.5163984 -50.30051 1.953916
v -1.516992 -50.25465 1.631784
v -0.1392801 -51.76111 0.8721066
v -0.1392801 -51.76111 0.8721066
v -1.516992 -50.25465 1.631784
v -1.503712 -50.70316 1.336798
v 0.5163984 -50.30051 1.953916
v 0.9507349 -50.06525 1.50368
v -0.02448225 -49.83899 2.166051
v -0.02448225 -49.83899 2.166051
v 0.9507349 -50.06525 1.50368
v -0.03016587 -49.80291 2.15385
v -0.03016587 -49.80291 2.15385
v 0.9507349 -50.06525 1.50368
v 0.7372206 -49.52248 1.420841
v -1.516992 -50.25465 1.631784
v -0.7288045 -49.87506 2.020033
v -1.258373 -49.624 0.6967467
v -1.258373 -49.624 0.6967467
v -0.7288045 -49.87506 2.020033
v -0.3217 -48.91124 0.6088119
v -0.3217 -48.91124 0.6088119
v -0.7288045 -49.87506 2.020033
v 0.04348478 -48.92883 1.194823
v 0.04348478 -48.92883 1.194823
v -0.7288045 -49.87506 2.020033
v -0.2696842 -49.54771 2.023149
v -1.258373 -49.624 0.6967467
v -1.22925 -49.61984 0.5571198
v -1.516992 -50.25465 1.631784
v -1.516992 -50.25465 1.631784
v -1.22925 -49.61984 0.5571198
v -1.503712 -50.70316 1.336798
v -1.503712 -50.70316 1.336798
v -1.22925 -49.61984 0.5571198
v -1.447971 -50.76707 1.032641
v -1.503712 -50.70316 1.336798
v -1.447971 -50.76707 1.032641
v -0.1392801 -51.76111 0.8721066
v -0.1392801 -51.76111 0.8721066
v -1.447971 -50.76707 1.032641
v -0.09729975 -51.80329 0.7251645
v -1.258373 -49.624 0.6967467
v -0.3217 -48.91124 0.6088119
v -1.22925 -49.61984 0.5571198
v -1.22925 -49.61984 0.5571198
v -0.3217 -48.91124 0.6088119
v -0.3863388 -49.04523 -0.0301129
v 1.090162 -50.34942 0.7860625
v 0.9507349 -50.06525 1.50368
v -0.03161301 -51.75451 0.6781124
v -0.03161301 -51.75451 0.6781124
v 0.9507349 -50.06525 1.50368
v -0.09729975 -51.80329 0.7251645
v -0.09729975 -51.80329 0.7251645
v 0.9507349 -50.06525 1.50368
v -0.1392801 -51.76111 0.8721066
v -0.1392801 -51.76111 0.8721066
v 0.9507349 -50.06525 1.50368
v 0.5163984 -50.30051 1.953916
v 1.090162 -50.34942 0.7860625
v -0.03161301 -51.75451 0.6781124
v 1.106798 -50.28873 -0.3382906
v 0.9995999 -50.01664 -0.3753488
v 0.7354364 -49.64747 -0.3691148
v 0.8776776 -49.7119 -0.3655185
v 0.7372206 -49.52248 1.420841
v 0.6199067 -49.20409 1.153933
v -0.03016587 -49.80291 2.15385
v -0.03016587 -49.80291 2.15385
v 0.6199067 -49.20409 1.153933
v -0.2696842 -49.54771 2.023149
v -0.2696842 -49.54771 2.023149
v 0.6199067 -49.20409 1.153933
v 0.04348478 -48.92883 1.194823
v 1.106798 -50.28873 -0.3382906
v -0.03161301 -51.75451 0.6781124
v 0.9995999 -50.01664 -0.3753488
v 0.9995999 -50.01664 -0.3753488
v -0.03161301 -51.75451 0.6781124
v 0.7354364 -49.64747 -0.3691148
v 0.7354364 -49.64747 -0.3691148
v -0.03161301 -51.75451 0.6781124
v -0.3863388 -49.04523 -0.0301129
v -0.3863388 -49.04523 -0.0301129
v -0.03161301 -51.75451 0.6781124
v -1.22925 -49.61984 0.5571198
v -1.22925 -49.61984 0.5571198
v -0.03161301 -51.75451 0.6781124
v -1.447971 -50.76707 1.032641
v -1.447971 -50.76707 1.032641
v -0.03161301 -51.75451 0.6781124
v -0.09729975 -51.80329 0.7251645
v 0.04348478 -48.92883 1.194823
v 0.6199067 -49.20409 1.153933
v -0.3217 -48.91124 0.6088119
v -0.3217 -48.91124 0.6088119
v 0.6199067 -49.20409 1.153933
v -0.3863388 -49.04523 -0.0301129
v -0.3863388 -49.04523 -0.0301129
v 0.6199067 -49.20409 1.153933
v 0.7354364 -49.64747 -0.3691148
v 0.7354364 -49.64747 -0.3691148
v 0.6199067 -49.20409 1.153933
v 0.8776776 -49.7119 -0.3655185

vn 0.9282947 0.3703131 0.0337222
vn 0.9282947 0.3703131 0.0337222
vn 0.9282947 0.3703131 0.0337222
vn 0.9282947 0.3703131 0.0337222
vn 0.9282947 0.3703131 0.0337222
vn 0.9282947 0.3703131 0.0337222
vn 0.9282947 0.3703131 0.0337222
vn 0.9282947 0.3703131 0.0337222
vn 0.9282947 0.3703131 0.0337222
vn 0.9282947 0.3703131 0.0337222
vn 0.9282947 0.3703131 0.0337222
vn 0.9282947 0.3703131 0.0337222
vn 0.9282947 0.3703131 0.0337222
vn 0.9282947 0.3703131 0.0337222
vn 0.9282947 0.3703131 0.0337222
vn -0.2085695 0.2836122 0.9359823
vn -0.2085695 0.2836122 0.9359823
vn -0.2085695 0.2836122 0.9359823
vn -0.2085695 0.2836122 0.9359823
vn -0.2085695 0.2836122 0.9359823
vn -0.2085695 0.2836122 0.9359823
vn -0.1430234 -0.546806 0.8249531
vn -0.1430234 -0.546806 0.8249531
vn -0.1430234 -0.546806 0.8249531
vn -0.1430234 -0.546806 0.8249531
vn -0.1430234 -0.546806 0.8249531
vn -0.1430234 -0.546806 0.8249531
vn -0.1430234 -0.546806 0.8249531
vn -0.1430234 -0.546806 0.8249531
vn -0.1430234 -0.546806 0.8249531
vn -0.1430234 -0.546806 0.8249531
vn -0.1430234 -0.546806 0.8249531
vn -0.1430234 -0.546806 0.8249531
vn 0.5810243 0.3413237 0.7388564
vn 0.5810243 0.3413237 0.7388564
vn 0.5810243 0.3413237 0.7388564
vn 0.5810243 0.3413237 0.7388564
vn 0.5810243 0.3413237 0.7388564
vn 0.5810243 0.3413237 0.7388564
vn 0.5810243 0.3413237 0.7388564
vn 0.5810243 0.3413237 0.7388564
vn 0.5810243 0.3413237 0.7388564
vn -0.5429886 0.7581207 0.3611321
vn -0.5429886 0.7581207 0.3611321
vn -0.5429886 0.7581207 0.3611321
vn -0.5429886 0.7581207 0.3611321
vn -0.5429886 0.7581207 0.3611321
vn -0.5429886 0.7581207 0.3611321
vn -0.5429886 0.7581207 0.3611321
vn -0.5429886 0.7581207 0.3611321
vn -0.5429886 0.7581207 0.3611321
vn -0.5429886 0.7581207 0.3611321
vn -0.5429886 0.7581207 0.3611321
vn -0.5429886 0.7581207 0.3611321
vn -0.9743548 0.1027969 -0.2001637
vn -0.9743548 0.1027969 -0.2001637
vn -0.9743548 0.1027969 -0.2001637
vn -0.9743548 0.1027969 -0.2001637
vn -0.9743548 0.1027969 -0.2001637
vn -0.9743548 0.1027969 -0.2001637
vn -0.9743548 0.1027969 -0.2001637
vn -0.9743548 0.1027969 -0.2001637
vn -0.9743548 0.1027969 -0.2001637
vn -0.5993297 -0.7984033 0.05793212
vn -0.5993297 -0.7984033 0.05793212
vn -0.5993297 -0.7984033 0.05793212
vn -0.5993297 -0.7984033 0.05793212
vn -0.5993297 -0.7984033 0.05793212
vn -0.5993297 -0.7984033 0.05793212
vn -0.6084492 0.78682 -0.1034601
vn -0.6084492 0.78682 -0.1034601
vn -0.6084492 0.78682 -0.1034601
vn -0.6084492 0.78682 -0.1034601
vn -0.6084492 0.78682 -0.1034601
vn -0.6084492 0.78682 -0.1034601
vn 0.7105321 -0.5960072 0.3740581
vn 0.7105321 -0.5960072 0.3740581
vn 0.7105321 -0.5960072 0.3740581
vn 0.7105321 -0.5960072 0.3740581
vn 0.7105321 -0.5960072 0.3740581
vn 0.7105321 -0.5960072 0.3740581
vn 0.7105321 -0.5960072 0.3740581
vn 0.7105321 -0.5960072 0.3740581
vn 0.7105321 -0.5960072 0.3740581
vn 0.7105321 -0.5960072 0.3740581
vn 0.7105321 -0.5960072 0.3740581
vn 0.7105321 -0.5960072 0.3740581
vn 0.782137 -0.6227168 -0.02203602
vn 0.782137 -0.6227168 -0.02203602
vn 0.782137 -0.6227168 -0.02203602
vn 0.04860253 0.05162435 -0.9974833
vn 0.04860253 0.05162435 -0.9974833
vn 0.04860253 0.05162435 -0.9974833
vn 0.367079 0.6732845 0.6418263
vn 0.367079 0.6732845 0.6418263
vn 0.367079 0.6732845 0.6418263
vn 0.367079 0.6732845 0.6418263
vn 0.367079 0.6732845 0.6418263
vn 0.367079 0.6732845 0.6418263
vn 0.367079 0.6732845 0.6418263
vn 0.367079 0.6732845 0.6418263
vn 0.367079 0.6732845 0.6418263
vn -0.4125275 -0.2805648 -0.8666629
vn -0.4125275 -0.2805648 -0.8666629
vn -0.4125275 -0.2805648 -0.8666629
vn -0.4125275 -0.2805648 -0.8666629
vn -0.4125275 -0.2805648 -0.8666629
vn -0.4125275 -0.2805648 -0.8666629
vn -0.4125275 -0.2805648 -0.8666629
vn -0.4125275 -0.2805648 -0.8666629
vn -0.4125275 -0.2805648 -0.8666629
vn -0.4125275 -0.2805648 -0.8666629
vn -0.4125275 -0.2805648 -0.8666629
vn -0.4125275 -0.2805648 -0.8666629
vn -0.4125275 -0.2805648 -0.8666629
vn -0.4125275 -0.2805648 -0.8666629
vn -0.4125275 -0.2805648 -0.8666629
vn -0.4125275 -0.2805648 -0.8666629
vn -0.4125275 -0.2805648 -0.8666629
vn -0.4125275 -0.2805648 -0.8666629
vn 0.4065746 0.8850221 -0.2267884
vn 0.4065746 0.8850221 -0.2267884
vn 0.4065746 0.8850221 -0.2267884
vn 0.4065746 0.8850221 -0.2267884
vn 0.4065746 0.8850221 -0.2267884
vn 0.4065746 0.8850221 -0.2267884
vn 0.4065746 0.8850221 -0.2267884
vn 0.4065746 0.8850221 -0.2267884
vn 0.4065746 0.8850221 -0.2267884
vn 0.4065746 0.8850221 -0.2267884
vn 0.4065746 0.8850221 -0.2267884
vn 0.4065746 0.8850221 -0.2267884

vt 0.5015634 0.5953985
vt 0.4692787 0.5944328
vt 0.5303275 0.5917514
vt 0.5303275 0.5917514
vt 0.4692787 0.5944328
vt 0.5352684 0.4810825
vt 0.5352684 0.4810825
vt 0.4692787 0.5944328
vt 0.504226 0.4104565
vt 0.504226 0.4104565
vt 0.4692787 0.5944328
vt 0.4468524 0.4186085
vt 0.4468524 0.4186085
vt 0.4692787 0.5944328
vt 0.4134848 0.4448788
vt 0.5083044 0.4076345
vt 0.5121296 0.4082205
vt 0.5090919 0.4800231
vt 0.5090919 0.4800231
vt 0.5121296 0.4082205
vt 0.5404906 0.4328359
vt 0.565317 0.2843836
vt 0.6812456 0.4038655
vt 0.4483853 0.2394466
vt 0.4483853 0.2394466
vt 0.6812456 0.4038655
vt 0.3370554 0.3047332
vt 0.3370554 0.3047332
vt 0.6812456 0.4038655
vt 0.3831034 0.637654
vt 0.3831034 0.637654
vt 0.6812456 0.4038655
vt 0.6592693 0.4946489
vt 0.5399656 0.458478
vt 0.5424688 0.5559555
vt 0.4419396 0.412552
vt 0.4419396 0.412552
vt 0.5424688 0.5559555
vt 0.4369799 0.4151959
vt 0.4369799 0.4151959
vt 0.5424688 0.5559555
vt 0.4584124 0.573891
vt 0.409669 0.4234979
vt 0.5005227 0.3796063
vt 0.470549 0.5292071
vt 0.470549 0.5292071
vt 0.5005227 0.3796063
vt 0.5945874 0.5391452
vt 0.5945874 0.5391452
vt 0.5005227 0.3796063
vt 0.6248049 0.4728976
vt 0.6248049 0.4728976
vt 0.5005227 0.3796063
vt 0.5599636 0.3792547
vt 0.5646701 0.4667942
vt 0.565392 0.4810919
vt 0.4990226 0.3710324
vt 0.4990226 0.3710324
vt 0.565392 0.4810919
vt 0.4544091 0.4012451
vt 0.4544091 0.4012451
vt 0.565392 0.4810919
vt 0.4486197 0.4323953
vt 0.5598042 0.4268825
vt 0.5516381 0.4568842
vt 0.3898069 0.4727195
vt 0.3898069 0.4727195
vt 0.5516381 0.4568842
vt 0.3840081 0.4872141
vt 0.4759775 0.4731086
vt 0.5923092 0.4818513
vt 0.4785042 0.4869797
vt 0.4785042 0.4869797
vt 0.5923092 0.4818513
vt 0.5791553 0.5453424
vt 0.3770562 0.5197097
vt 0.3634757 0.4376878
vt 0.5675859 0.5320573
vt 0.5675859 0.5320573
vt 0.3634757 0.4376878
vt 0.5760239 0.5266851
vt 0.5760239 0.5266851
vt 0.3634757 0.4376878
vt 0.575452 0.5098841
vt 0.575452 0.5098841
vt 0.3634757 0.4376878
vt 0.4121675 0.3862254
vt 0.3879974 0.4738211
vt 0.564792 0.4844389
vt 0.3823111 0.5844103
vt 0.4519527 0.3446824
vt 0.4156365 0.3707136
vt 0.4219509 0.3566972
vt 0.5641076 0.5277352
vt 0.5313682 0.5723534
vt 0.4949442 0.4051875
vt 0.4949442 0.4051875
vt 0.5313682 0.5723534
vt 0.452323 0.4270419
vt 0.452323 0.4270419
vt 0.5313682 0.5723534
vt 0.4495947 0.5655186
vt 0.3471622 0.8208333
vt 0.234487 0.419368
vt 0.403378 0.8354686
vt 0.403378 0.8354686
vt 0.234487 0.419368
vt 0.4928066 0.8330028
vt 0.4928066 0.8330028
vt 0.234487 0.419368
vt 0.7152413 0.6991107
vt 0.7152413 0.6991107
vt 0.234487 0.419368
vt 0.7150257 0.4671598
vt 0.7150257 0.4671598
vt 0.234487 0.419368
vt 0.5523319 0.2793349
vt 0.5523319 0.2793349
vt 0.234487 0.419368
vt 0.2338166 0.400781
vt 0.4691005 0.3996465
vt 0.5335714 0.4038843
vt 0.4348657 0.4603766
vt 0.4348657 0.4603766
vt 0.5335714 0.4038843
vt 0.4345798 0.5266007
vt 0.4345798 0.5266007
vt 0.5335714 0.4038843
vt 0.5628513 0.5617309
vt 0.5628513 0.5617309
vt 0.5335714 0.4038843
vt 0.5786209 0.5613652

usemtl Material0
usemap Material0

usemtl Material1
usemap Material1
f 1/1/1 2/2/2 3/3/3
f 4/4/4 5/5/5 6/6/6
f 7/7/7 8/8/8 9/9/9
f 10/10/10 11/11/11 12/12/12
f 13/13/13 14/14/14 15/15/15
f 16/16/16 17/17/17 18/18/18
f 19/19/19 20/20/20 21/21/21
f 22/22/22 23/23/23 24/24/24
f 25/25/25 26/26/26 27/27/27
f 28/28/28 29/29/29 30/30/30
f 31/31/31 32/32/32 33/33/33
f 34/34/34 35/35/35 36/36/36
f 37/37/37 38/38/38 39/39/39
f 40/40/40 41/41/41 42/42/42
f 43/43/43 44/44/44 45/45/45
f 46/46/46 47/47/47 48/48/48
f 49/49/49 50/50/50 51/51/51
f 52/52/52 53/53/53 54/54/54
f 55/55/55 56/56/56 57/57/57
f 58/58/58 59/59/59 60/60/60
f 61/61/61 62/62/62 63/63/63
f 64/64/64 65/65/65 66/66/66
f 67/67/67 68/68/68 69/69/69
f 70/70/70 71/71/71 72/72/72
f 73/73/73 74/74/74 75/75/75
f 76/76/76 77/77/77 78/78/78
f 79/79/79 80/80/80 81/81/81
f 82/82/82 83/83/83 84/84/84
f 85/85/85 86/86/86 87/87/87
f 88/88/88 89/89/89 90/90/90
f 91/91/91 92/92/92 93/93/93
f 94/94/94 95/95/95 96/96/96
f 97/97/97 98/98/98 99/99/99
f 100/100/100 101/101/101 102/102/102
f 103/103/103 104/104/104 105/105/105
f 106/106/106 107/107/107 108/108/108
f 109/109/109 110/110/110 111/111/111
f 112/112/112 113/113/113 114/114/114
f 115/115/115 116/116/116 117/117/117
f 118/118/118 119/119/119 120/120/120
f 121/121/121 122/122/122 123/123/123
f 124/124/124 125/125/125 126/126/126
f 127/127/127 128/128/128 129/129/129
f 130/130/130 131/131/131 132/132/132
