g  Instance
v 1.021011 -51.81573 3.560237
v 1.680126 -52.16333 2.876149
v 1.697612 -52.20076 4.540355
v 1.697612 -52.20076 4.540355
v 1.680126 -52.16333 2.876149
v 1.746022 -52.22669 4.513815
v 1.746022 -52.22669 4.513815
v 1.680126 -52.16333 2.876149
v 3.357772 -53.07988 3.03181
v 2.090764 -50.85976 2.602434
v 2.327858 -50.58815 2.996413
v 4.022855 -52.05697 2.810617
v 4.022855 -52.05697 2.810617
v 2.327858 -50.58815 2.996413
v 4.794848 -50.83074 4.394394
v 1.746022 -52.22669 4.513815
v 2.667222 -51.60188 4.791067
v 1.697612 -52.20076 4.540355
v 1.697612 -52.20076 4.540355
v 2.667222 -51.60188 4.791067
v 1.979098 -51.78834 4.780035
v 2.448494 -50.31974 3.728122
v 1.279769 -51.27886 3.335066
v 3.267256 -50.17702 4.720364
v 3.267256 -50.17702 4.720364
v 1.279769 -51.27886 3.335066
v 3.162864 -50.46318 4.956838
v 3.162864 -50.46318 4.956838
v 1.279769 -51.27886 3.335066
v 2.067578 -51.5315 4.818038
v 2.067578 -51.5315 4.818038
v 1.279769 -51.27886 3.335066
v 1.04029 -51.69264 3.548814
v 2.090764 -50.85976 2.602434
v 2.022402 -50.90752 2.613459
v 2.327858 -50.58815 2.996413
v 2.327858 -50.58815 2.996413
v 2.022402 -50.90752 2.613459
v 2.448494 -50.31974 3.728122
v 2.448494 -50.31974 3.728122
v 2.022402 -50.90752 2.613459
v 1.279769 -51.27886 3.335066
v 3.726924 -50.34582 4.960285
v 3.763289 -50.26923 4.898611
v 3.162864 -50.46318 4.956838
v 3.162864 -50.46318 4.956838
v 3.763289 -50.26923 4.898611
v 3.267256 -50.17702 4.720364
v 3.726924 -50.34582 4.960285
v 4.256335 -50.93546 4.853551
v 3.763289 -50.26923 4.898611
v 3.763289 -50.26923 4.898611
v 4.256335 -50.93546 4.853551
v 4.802892 -50.8267 4.410384
v 4.802892 -50.8267 4.410384
v 4.256335 -50.93546 4.853551
v 4.845927 -51.04713 4.481761
v 4.845927 -51.04713 4.481761
v 4.256335 -50.93546 4.853551
v 4.81128 -51.06115 4.513158
v 2.022402 -50.90752 2.613459
v 1.680126 -52.16333 2.876149
v 1.279769 -51.27886 3.335066
v 1.279769 -51.27886 3.335066
v 1.680126 -52.16333 2.876149
v 1.04029 -51.69264 3.548814
v 1.04029 -51.69264 3.548814
v 1.680126 -52.16333 2.876149
v 1.021011 -51.81573 3.560237
v 3.357772 -53.07988 3.03181
v 4.127971 -52.84794 2.970068
v 1.746022 -52.22669 4.513815
v 1.746022 -52.22669 4.513815
v 4.127971 -52.84794 2.970068
v 2.667222 -51.60188 4.791067
v 2.667222 -51.60188 4.791067
v 4.127971 -52.84794 2.970068
v 4.256335 -50.93546 4.853551
v 4.256335 -50.93546 4.853551
v 4.127971 -52.84794 2.970068
v 4.81128 -51.06115 4.513158
v 4.81128 -51.06115 4.513158
v 4.127971 -52.84794 2.970068
v 4.743531 -51.333 4.264464
v 1.04029 -51.69264 3.548814
v 1.021011 -51.81573 3.560237
v 2.067578 -51.5315 4.818038
v 2.067578 -51.5315 4.818038
v 1.021011 -51.81573 3.560237
v 1.979098 -51.78834 4.780035
v 1.979098 -51.78834 4.780035
v 1.021011 -51.81573 3.560237
v 1.697612 -52.20076 4.540355
v 4.743531 -51.333 4.264464
v 4.845927 -51.04713 4.481761
v 4.81128 -51.06115 4.513158
v 2.667222 -51.60188 4.791067
v 4.256335 -50.93546 4.853551
v 1.979098 -51.78834 4.780035
v 1.979098 -51.78834 4.780035
v 4.256335 -50.93546 4.853551
v 2.067578 -51.5315 4.818038
v 2.067578 -51.5315 4.818038
v 4.256335 -50.93546 4.853551
v 3.162864 -50.46318 4.956838
v 3.162864 -50.46318 4.956838
v 4.256335 -50.93546 4.853551
v 3.726924 -50.34582 4.960285
v 4.127971 -52.84794 2.970068
v 3.357772 -53.07988 3.03181
v 4.022855 -52.05697 2.810617
v 4.022855 -52.05697 2.810617
v 3.357772 -53.07988 3.03181
v 2.090764 -50.85976 2.602434
v 2.090764 -50.85976 2.602434
v 3.357772 -53.07988 3.03181
v 2.022402 -50.90752 2.613459
v 2.022402 -50.90752 2.613459
v 3.357772 -53.07988 3.03181
v 1.680126 -52.16333 2.876149
v 4.022855 -52.05697 2.810617
v 4.794848 -50.83074 4.394394
v 4.127971 -52.84794 2.970068
v 4.127971 -52.84794 2.970068
v 4.794848 -50.83074 4.394394
v 4.743531 -51.333 4.264464
v 4.743531 -51.333 4.264464
v 4.794848 -50.83074 4.394394
v 4.845927 -51.04713 4.481761
v 4.845927 -51.04713 4.481761
v 4.794848 -50.83074 4.394394
v 4.802892 -50.8267 4.410384
v 2.448494 -50.31974 3.728122
v 3.267256 -50.17702 4.720364
v 2.327858 -50.58815 2.996413
v 2.327858 -50.58815 2.996413
v 3.267256 -50.17702 4.720364
v 4.794848 -50.83074 4.394394
v 4.794848 -50.83074 4.394394
v 3.267256 -50.17702 4.720364
v 4.802892 -50.8267 4.410384
v 4.802892 -50.8267 4.410384
v 3.267256 -50.17702 4.720364
v 3.763289 -50.26923 4.898611

vn -0.4783392 -0.8780519 -0.01472341
vn -0.4783392 -0.8780519 -0.01472341
vn -0.4783392 -0.8780519 -0.01472341
vn -0.4783392 -0.8780519 -0.01472341
vn -0.4783392 -0.8780519 -0.01472341
vn -0.4783392 -0.8780519 -0.01472341
vn -0.4783392 -0.8780519 -0.01472341
vn -0.4783392 -0.8780519 -0.01472341
vn -0.4783392 -0.8780519 -0.01472341
vn 0.4402441 0.5932869 -0.6739406
vn 0.4402441 0.5932869 -0.6739406
vn 0.4402441 0.5932869 -0.6739406
vn 0.4402441 0.5932869 -0.6739406
vn 0.4402441 0.5932869 -0.6739406
vn 0.4402441 0.5932869 -0.6739406
vn 0.1407787 -0.5675303 0.8112279
vn 0.1407787 -0.5675303 0.8112279
vn 0.1407787 -0.5675303 0.8112279
vn 0.1407787 -0.5675303 0.8112279
vn 0.1407787 -0.5675303 0.8112279
vn 0.1407787 -0.5675303 0.8112279
vn -0.6520325 0.6099859 0.4503008
vn -0.6520325 0.6099859 0.4503008
vn -0.6520325 0.6099859 0.4503008
vn -0.6520325 0.6099859 0.4503008
vn -0.6520325 0.6099859 0.4503008
vn -0.6520325 0.6099859 0.4503008
vn -0.6520325 0.6099859 0.4503008
vn -0.6520325 0.6099859 0.4503008
vn -0.6520325 0.6099859 0.4503008
vn -0.6520325 0.6099859 0.4503008
vn -0.6520325 0.6099859 0.4503008
vn -0.6520325 0.6099859 0.4503008
vn -0.5826932 0.7893229 -0.1934897
vn -0.5826932 0.7893229 -0.1934897
vn -0.5826932 0.7893229 -0.1934897
vn -0.5826932 0.7893229 -0.1934897
vn -0.5826932 0.7893229 -0.1934897
vn -0.5826932 0.7893229 -0.1934897
vn -0.5826932 0.7893229 -0.1934897
vn -0.5826932 0.7893229 -0.1934897
vn -0.5826932 0.7893229 -0.1934897
vn -0.1420024 0.6608257 0.7369835
vn -0.1420024 0.6608257 0.7369835
vn -0.1420024 0.6608257 0.7369835
vn -0.1420024 0.6608257 0.7369835
vn -0.1420024 0.6608257 0.7369835
vn -0.1420024 0.6608257 0.7369835
vn 0.5460029 0.3526618 0.7599412
vn 0.5460029 0.3526618 0.7599412
vn 0.5460029 0.3526618 0.7599412
vn 0.5460029 0.3526618 0.7599412
vn 0.5460029 0.3526618 0.7599412
vn 0.5460029 0.3526618 0.7599412
vn 0.5460029 0.3526618 0.7599412
vn 0.5460029 0.3526618 0.7599412
vn 0.5460029 0.3526618 0.7599412
vn 0.5460029 0.3526618 0.7599412
vn 0.5460029 0.3526618 0.7599412
vn 0.5460029 0.3526618 0.7599412
vn -0.7077556 0.0454274 -0.7049953
vn -0.7077556 0.0454274 -0.7049953
vn -0.7077556 0.0454274 -0.7049953
vn -0.7077556 0.0454274 -0.7049953
vn -0.7077556 0.0454274 -0.7049953
vn -0.7077556 0.0454274 -0.7049953
vn -0.7077556 0.0454274 -0.7049953
vn -0.7077556 0.0454274 -0.7049953
vn -0.7077556 0.0454274 -0.7049953
vn 0.2610599 -0.6861892 0.678964
vn 0.2610599 -0.6861892 0.678964
vn 0.2610599 -0.6861892 0.678964
vn 0.2610599 -0.6861892 0.678964
vn 0.2610599 -0.6861892 0.678964
vn 0.2610599 -0.6861892 0.678964
vn 0.2610599 -0.6861892 0.678964
vn 0.2610599 -0.6861892 0.678964
vn 0.2610599 -0.6861892 0.678964
vn 0.2610599 -0.6861892 0.678964
vn 0.2610599 -0.6861892 0.678964
vn 0.2610599 -0.6861892 0.678964
vn 0.2610599 -0.6861892 0.678964
vn 0.2610599 -0.6861892 0.678964
vn 0.2610599 -0.6861892 0.678964
vn -0.7758398 0.1777163 0.6053839
vn -0.7758398 0.1777163 0.6053839
vn -0.7758398 0.1777163 0.6053839
vn -0.7758398 0.1777163 0.6053839
vn -0.7758398 0.1777163 0.6053839
vn -0.7758398 0.1777163 0.6053839
vn -0.7758398 0.1777163 0.6053839
vn -0.7758398 0.1777163 0.6053839
vn -0.7758398 0.1777163 0.6053839
vn 0.6600497 -0.5899467 0.4650775
vn 0.6600497 -0.5899467 0.4650775
vn 0.6600497 -0.5899467 0.4650775
vn 0.02625147 -0.1551967 0.9875348
vn 0.02625147 -0.1551967 0.9875348
vn 0.02625147 -0.1551967 0.9875348
vn 0.02625147 -0.1551967 0.9875348
vn 0.02625147 -0.1551967 0.9875348
vn 0.02625147 -0.1551967 0.9875348
vn 0.02625147 -0.1551967 0.9875348
vn 0.02625147 -0.1551967 0.9875348
vn 0.02625147 -0.1551967 0.9875348
vn 0.02625147 -0.1551967 0.9875348
vn 0.02625147 -0.1551967 0.9875348
vn 0.02625147 -0.1551967 0.9875348
vn -0.01832269 -0.1999197 -0.979641
vn -0.01832269 -0.1999197 -0.979641
vn -0.01832269 -0.1999197 -0.979641
vn -0.01832269 -0.1999197 -0.979641
vn -0.01832269 -0.1999197 -0.979641
vn -0.01832269 -0.1999197 -0.979641
vn -0.01832269 -0.1999197 -0.979641
vn -0.01832269 -0.1999197 -0.979641
vn -0.01832269 -0.1999197 -0.979641
vn -0.01832269 -0.1999197 -0.979641
vn -0.01832269 -0.1999197 -0.979641
vn -0.01832269 -0.1999197 -0.979641
vn 0.8902974 0.02666411 -0.4545985
vn 0.8902974 0.02666411 -0.4545985
vn 0.8902974 0.02666411 -0.4545985
vn 0.8902974 0.02666411 -0.4545985
vn 0.8902974 0.02666411 -0.4545985
vn 0.8902974 0.02666411 -0.4545985
vn 0.8902974 0.02666411 -0.4545985
vn 0.8902974 0.02666411 -0.4545985
vn 0.8902974 0.02666411 -0.4545985
vn 0.8902974 0.02666411 -0.4545985
vn 0.8902974 0.02666411 -0.4545985
vn 0.8902974 0.02666411 -0.4545985
vn 0.2970893 0.8795545 -0.3716477
vn 0.2970893 0.8795545 -0.3716477
vn 0.2970893 0.8795545 -0.3716477
vn 0.2970893 0.8795545 -0.3716477
vn 0.2970893 0.8795545 -0.3716477
vn 0.2970893 0.8795545 -0.3716477
vn 0.2970893 0.8795545 -0.3716477
vn 0.2970893 0.8795545 -0.3716477
vn 0.2970893 0.8795545 -0.3716477
vn 0.2970893 0.8795545 -0.3716477
vn 0.2970893 0.8795545 -0.3716477
vn 0.2970893 0.8795545 -0.3716477

vt 0.6667323 0.4772338
vt 0.5934718 0.5444986
vt 0.5902091 0.3808579
vt 0.5902091 0.3808579
vt 0.5934718 0.5444986
vt 0.5848088 0.383469
vt 0.5848088 0.383469
vt 0.5934718 0.5444986
vt 0.4055203 0.5291978
vt 0.3093929 0.5557774
vt 0.31319 0.484814
vt 0.6107884 0.5182846
vt 0.6107884 0.5182846
vt 0.31319 0.484814
vt 0.5960594 0.233015
vt 0.7218511 0.395315
vt 0.5462378 0.3155948
vt 0.7287046 0.3876833
vt 0.7287046 0.3876833
vt 0.5462378 0.3155948
vt 0.666076 0.3187684
vt 0.5640326 0.5353669
vt 0.3990043 0.5838384
vt 0.6370962 0.4130114
vt 0.6370962 0.4130114
vt 0.3990043 0.5838384
vt 0.6062413 0.3838487
vt 0.6062413 0.3838487
vt 0.3990043 0.5838384
vt 0.4379503 0.4009685
vt 0.4379503 0.4009685
vt 0.3990043 0.5838384
vt 0.3477201 0.5574838
vt 0.4683692 0.5465894
vt 0.4600156 0.5454643
vt 0.5036447 0.5063496
vt 0.5036447 0.5063496
vt 0.4600156 0.5454643
vt 0.5293431 0.4316171
vt 0.5293431 0.4316171
vt 0.4600156 0.5454643
vt 0.37805 0.4717632
vt 0.6288176 0.4806887
vt 0.6363274 0.4939551
vt 0.545019 0.4814294
vt 0.545019 0.4814294
vt 0.6363274 0.4939551
vt 0.5686079 0.5323104
vt 0.3567019 0.4967115
vt 0.4750634 0.5215473
vt 0.3499562 0.5110655
vt 0.3499562 0.5110655
vt 0.4750634 0.5215473
vt 0.5061011 0.6246595
vt 0.5061011 0.6246595
vt 0.4750634 0.5215473
vt 0.537631 0.6080554
vt 0.537631 0.6080554
vt 0.4750634 0.5215473
vt 0.5365716 0.6007519
vt 0.6068882 0.4641643
vt 0.4301311 0.4128145
vt 0.5489286 0.3231187
vt 0.5489286 0.3231187
vt 0.4301311 0.4128145
vt 0.4895627 0.2813413
vt 0.4895627 0.2813413
vt 0.4301311 0.4128145
vt 0.4723632 0.2791099
vt 0.5134328 0.6470296
vt 0.4059984 0.658299
vt 0.6745327 0.376728
vt 0.6745327 0.376728
vt 0.4059984 0.658299
vt 0.5294837 0.3261563
vt 0.5294837 0.3261563
vt 0.4059984 0.658299
vt 0.2988688 0.3147557
vt 0.2988688 0.3147557
vt 0.4059984 0.658299
vt 0.2354011 0.3768405
vt 0.2354011 0.3768405
vt 0.4059984 0.658299
vt 0.2568242 0.4221994
vt 0.4493791 0.6296192
vt 0.4340266 0.6278472
vt 0.49711 0.4326578
vt 0.49711 0.4326578
vt 0.4340266 0.6278472
vt 0.4637471 0.4385503
vt 0.4637471 0.4385503
vt 0.4340266 0.6278472
vt 0.4063266 0.4757384
vt 0.3254438 0.4572076
vt 0.2941998 0.4299483
vt 0.2979219 0.4260105
vt 0.53014 0.5224943
vt 0.5958344 0.3661618
vt 0.5118483 0.5901763
vt 0.5118483 0.5901763
vt 0.5958344 0.3661618
vt 0.5373779 0.5814664
vt 0.5373779 0.5814664
vt 0.5958344 0.3661618
vt 0.6432934 0.4737274
vt 0.6432934 0.4737274
vt 0.5958344 0.3661618
vt 0.6547503 0.4182429
vt 0.5775615 0.3744076
vt 0.6011222 0.4501479
vt 0.4982257 0.3847441
vt 0.4982257 0.3847441
vt 0.6011222 0.4501479
vt 0.3787906 0.5747442
vt 0.3787906 0.5747442
vt 0.6011222 0.4501479
vt 0.3836097 0.5814664
vt 0.3836097 0.5814664
vt 0.6011222 0.4501479
vt 0.5097669 0.615134
vt 0.5191331 0.5047557
vt 0.3863942 0.3084928
vt 0.6067382 0.4849921
vt 0.6067382 0.4849921
vt 0.3863942 0.3084928
vt 0.4416443 0.3245953
vt 0.4416443 0.3245953
vt 0.3863942 0.3084928
vt 0.4104425 0.2976688
vt 0.4104425 0.2976688
vt 0.3863942 0.3084928
vt 0.385977 0.3065099
vt 0.3769905 0.413977
vt 0.4542966 0.3008002
vt 0.3739904 0.4974428
vt 0.3739904 0.4974428
vt 0.4542966 0.3008002
vt 0.6297176 0.3379836
vt 0.6297176 0.3379836
vt 0.4542966 0.3008002
vt 0.6303833 0.33616
vt 0.6303833 0.33616
vt 0.4542966 0.3008002
vt 0.5071887 0.2804646

usemtl Material0
usemap Material0

usemtl Material1
usemap Material1
f 1/1/1 2/2/2 3/3/3
f 4/4/4 5/5/5 6/6/6
f 7/7/7 8/8/8 9/9/9
f 10/10/10 11/11/11 12/12/12
f 13/13/13 14/14/14 15/15/15
f 16/16/16 17/17/17 18/18/18
f 19/19/19 20/20/20 21/21/21
f 22/22/22 23/23/23 24/24/24
f 25/25/25 26/26/26 27/27/27
f 28/28/28 29/29/29 30/30/30
f 31/31/31 32/32/32 33/33/33
f 34/34/34 35/35/35 36/36/36
f 37/37/37 38/38/38 39/39/39
f 40/40/40 41/41/41 42/42/42
f 43/43/43 44/44/44 45/45/45
f 46/46/46 47/47/47 48/48/48
f 49/49/49 50/50/50 51/51/51
f 52/52/52 53/53/53 54/54/54
f 55/55/55 56/56/56 57/57/57
f 58/58/58 59/59/59 60/60/60
f 61/61/61 62/62/62 63/63/63
f 64/64/64 65/65/65 66/66/66
f 67/67/67 68/68/68 69/69/69
f 70/70/70 71/71/71 72/72/72
f 73/73/73 74/74/74 75/75/75
f 76/76/76 77/77/77 78/78/78
f 79/79/79 80/80/80 81/81/81
f 82/82/82 83/83/83 84/84/84
f 85/85/85 86/86/86 87/87/87
f 88/88/88 89/89/89 90/90/90
f 91/91/91 92/92/92 93/93/93
f 94/94/94 95/95/95 96/96/96
f 97/97/97 98/98/98 99/99/99
f 100/100/100 101/101/101 102/102/102
f 103/103/103 104/104/104 105/105/105
f 106/106/106 107/107/107 108/108/108
f 109/109/109 110/110/110 111/111/111
f 112/112/112 113/113/113 114/114/114
f 115/115/115 116/116/116 117/117/117
f 118/118/118 119/119/119 120/120/120
f 121/121/121 122/122/122 123/123/123
f 124/124/124 125/125/125 126/126/126
f 127/127/127 128/128/128 129/129/129
f 130/130/130 131/131/131 132/132/132
f 133/133/133 134/134/134 135/135/135
f 136/136/136 137/137/137 138/138/138
f 139/139/139 140/140/140 141/141/141
f 142/142/142 143/143/143 144/144/144
