g  Instance
v -5.636364 -49.87387 -0.1959995
v -6.152651 -50.03518 0.2036802
v -5.220412 -49.97251 -0.1329973
v -5.220412 -49.97251 -0.1329973
v -6.152651 -50.03518 0.2036802
v -5.15259 -50.05754 -0.006603263
v -5.15259 -50.05754 -0.006603263
v -6.152651 -50.03518 0.2036802
v -5.141998 -50.16892 0.1783533
v -5.141998 -50.16892 0.1783533
v -6.152651 -50.03518 0.2036802
v -5.655017 -50.41586 0.7214448
v -5.141998 -50.16892 0.1783533
v -5.087967 -50.3618 0.2293205
v -5.15259 -50.05754 -0.006603263
v -5.15259 -50.05754 -0.006603263
v -5.087967 -50.3618 0.2293205
v -5.044381 -50.37144 -0.07672909
v -5.044381 -50.37144 -0.07672909
v -5.087967 -50.3618 0.2293205
v -5.024446 -50.45827 -0.02068488
v -7.459408 -52.90109 0.5723934
v -6.859837 -52.65528 1.381253
v -7.563818 -52.43905 0.9368083
v -5.136095 -50.29138 -0.2790414
v -5.132448 -50.28219 -0.2731468
v -5.114629 -50.88564 -0.131651
v -5.114629 -50.88564 -0.131651
v -5.132448 -50.28219 -0.2731468
v -5.024446 -50.45827 -0.02068488
v -5.024446 -50.45827 -0.02068488
v -5.132448 -50.28219 -0.2731468
v -5.044381 -50.37144 -0.07672909
v -6.951431 -50.02921 -0.6434376
v -5.844608 -49.88815 -0.2613651
v -7.196194 -50.28965 -0.8497521
v -7.196194 -50.28965 -0.8497521
v -5.844608 -49.88815 -0.2613651
v -7.156769 -50.68954 -1.051304
v -7.156769 -50.68954 -1.051304
v -5.844608 -49.88815 -0.2613651
v -5.136095 -50.29138 -0.2790414
v -5.136095 -50.29138 -0.2790414
v -5.844608 -49.88815 -0.2613651
v -5.132448 -50.28219 -0.2731468
v -5.132448 -50.28219 -0.2731468
v -5.844608 -49.88815 -0.2613651
v -5.220412 -49.97251 -0.1329973
v -5.220412 -49.97251 -0.1329973
v -5.844608 -49.88815 -0.2613651
v -5.636364 -49.87387 -0.1959995
v -5.612012 -52.34758 -0.00454437
v -5.114629 -50.88564 -0.131651
v -6.242601 -52.44244 1.608705
v -6.242601 -52.44244 1.608705
v -5.114629 -50.88564 -0.131651
v -5.912854 -51.58639 1.430976
v -5.912854 -51.58639 1.430976
v -5.114629 -50.88564 -0.131651
v -5.819182 -51.39327 1.339152
v -5.819182 -51.39327 1.339152
v -5.114629 -50.88564 -0.131651
v -5.087967 -50.3618 0.2293205
v -5.087967 -50.3618 0.2293205
v -5.114629 -50.88564 -0.131651
v -5.024446 -50.45827 -0.02068488
v -7.156769 -50.68954 -1.051304
v -7.241799 -51.11947 -0.9877045
v -7.196194 -50.28965 -0.8497521
v -7.196194 -50.28965 -0.8497521
v -7.241799 -51.11947 -0.9877045
v -7.420843 -50.17463 -0.3225379
v -7.420843 -50.17463 -0.3225379
v -7.241799 -51.11947 -0.9877045
v -7.44131 -50.22965 -0.2933086
v -6.242601 -52.44244 1.608705
v -6.859837 -52.65528 1.381253
v -5.612012 -52.34758 -0.00454437
v -5.612012 -52.34758 -0.00454437
v -6.859837 -52.65528 1.381253
v -7.221591 -52.90045 -0.5648823
v -7.221591 -52.90045 -0.5648823
v -6.859837 -52.65528 1.381253
v -7.459408 -52.90109 0.5723934
v -7.196194 -50.28965 -0.8497521
v -7.420843 -50.17463 -0.3225379
v -6.951431 -50.02921 -0.6434376
v -6.951431 -50.02921 -0.6434376
v -7.420843 -50.17463 -0.3225379
v -7.209888 -50.05594 -0.3587979
v -7.209888 -50.05594 -0.3587979
v -7.420843 -50.17463 -0.3225379
v -7.265995 -50.07264 -0.3190634
v -5.132448 -50.28219 -0.2731468
v -5.220412 -49.97251 -0.1329973
v -5.044381 -50.37144 -0.07672909
v -5.044381 -50.37144 -0.07672909
v -5.220412 -49.97251 -0.1329973
v -5.15259 -50.05754 -0.006603263
v -5.912854 -51.58639 1.430976
v -7.544317 -51.5135 0.5736241
v -6.242601 -52.44244 1.608705
v -6.242601 -52.44244 1.608705
v -7.544317 -51.5135 0.5736241
v -6.859837 -52.65528 1.381253
v -6.859837 -52.65528 1.381253
v -7.544317 -51.5135 0.5736241
v -7.563818 -52.43905 0.9368083
v -5.655017 -50.41586 0.7214448
v -5.819182 -51.39327 1.339152
v -5.141998 -50.16892 0.1783533
v -5.141998 -50.16892 0.1783533
v -5.819182 -51.39327 1.339152
v -5.087967 -50.3618 0.2293205
v -7.563818 -52.43905 0.9368083
v -7.544317 -51.5135 0.5736241
v -7.459408 -52.90109 0.5723934
v -7.459408 -52.90109 0.5723934
v -7.544317 -51.5135 0.5736241
v -7.221591 -52.90045 -0.5648823
v -7.221591 -52.90045 -0.5648823
v -7.544317 -51.5135 0.5736241
v -7.241799 -51.11947 -0.9877045
v -7.241799 -51.11947 -0.9877045
v -7.544317 -51.5135 0.5736241
v -7.44131 -50.22965 -0.2933086
v -6.951431 -50.02921 -0.6434376
v -7.209888 -50.05594 -0.3587979
v -5.844608 -49.88815 -0.2613651
v -7.221591 -52.90045 -0.5648823
v -7.241799 -51.11947 -0.9877045
v -5.612012 -52.34758 -0.00454437
v -5.612012 -52.34758 -0.00454437
v -7.241799 -51.11947 -0.9877045
v -5.114629 -50.88564 -0.131651
v -5.114629 -50.88564 -0.131651
v -7.241799 -51.11947 -0.9877045
v -5.136095 -50.29138 -0.2790414
v -5.136095 -50.29138 -0.2790414
v -7.241799 -51.11947 -0.9877045
v -7.156769 -50.68954 -1.051304
v -7.209888 -50.05594 -0.3587979
v -7.265995 -50.07264 -0.3190634
v -5.844608 -49.88815 -0.2613651
v -5.844608 -49.88815 -0.2613651
v -7.265995 -50.07264 -0.3190634
v -5.636364 -49.87387 -0.1959995
v -5.636364 -49.87387 -0.1959995
v -7.265995 -50.07264 -0.3190634
v -6.152651 -50.03518 0.2036802
v -7.265995 -50.07264 -0.3190634
v -7.420843 -50.17463 -0.3225379
v -6.152651 -50.03518 0.2036802
v -6.152651 -50.03518 0.2036802
v -7.420843 -50.17463 -0.3225379
v -5.655017 -50.41586 0.7214448
v -5.655017 -50.41586 0.7214448
v -7.420843 -50.17463 -0.3225379
v -5.819182 -51.39327 1.339152
v -5.819182 -51.39327 1.339152
v -7.420843 -50.17463 -0.3225379
v -5.912854 -51.58639 1.430976
v -5.912854 -51.58639 1.430976
v -7.420843 -50.17463 -0.3225379
v -7.544317 -51.5135 0.5736241
v -7.544317 -51.5135 0.5736241
v -7.420843 -50.17463 -0.3225379
v -7.44131 -50.22965 -0.2933086

vn 0.1255723 0.8530508 0.5064937
vn 0.1255723 0.8530508 0.5064937
vn 0.1255723 0.8530508 0.5064937
vn 0.1255723 0.8530508 0.5064937
vn 0.1255723 0.8530508 0.5064937
vn 0.1255723 0.8530508 0.5064937
vn 0.1255723 0.8530508 0.5064937
vn 0.1255723 0.8530508 0.5064937
vn 0.1255723 0.8530508 0.5064937
vn 0.1255723 0.8530508 0.5064937
vn 0.1255723 0.8530508 0.5064937
vn 0.1255723 0.8530508 0.5064937
vn 0.9462385 0.2981856 0.1253722
vn 0.9462385 0.2981856 0.1253722
vn 0.9462385 0.2981856 0.1253722
vn 0.9462385 0.2981856 0.1253722
vn 0.9462385 0.2981856 0.1253722
vn 0.9462385 0.2981856 0.1253722
vn 0.9462385 0.2981856 0.1253722
vn 0.9462385 0.2981856 0.1253722
vn 0.9462385 0.2981856 0.1253722
vn -0.5528833 -0.5894482 0.5889575
vn -0.5528833 -0.5894482 0.5889575
vn -0.5528833 -0.5894482 0.5889575
vn 0.8965296 -0.07586295 -0.4364398
vn 0.8965296 -0.07586295 -0.4364398
vn 0.8965296 -0.07586295 -0.4364398
vn 0.8965296 -0.07586295 -0.4364398
vn 0.8965296 -0.07586295 -0.4364398
vn 0.8965296 -0.07586295 -0.4364398
vn 0.8965296 -0.07586295 -0.4364398
vn 0.8965296 -0.07586295 -0.4364398
vn 0.8965296 -0.07586295 -0.4364398
vn 0.2379915 0.4557661 -0.8576931
vn 0.2379915 0.4557661 -0.8576931
vn 0.2379915 0.4557661 -0.8576931
vn 0.2379915 0.4557661 -0.8576931
vn 0.2379915 0.4557661 -0.8576931
vn 0.2379915 0.4557661 -0.8576931
vn 0.2379915 0.4557661 -0.8576931
vn 0.2379915 0.4557661 -0.8576931
vn 0.2379915 0.4557661 -0.8576931
vn 0.2379915 0.4557661 -0.8576931
vn 0.2379915 0.4557661 -0.8576931
vn 0.2379915 0.4557661 -0.8576931
vn 0.2379915 0.4557661 -0.8576931
vn 0.2379915 0.4557661 -0.8576931
vn 0.2379915 0.4557661 -0.8576931
vn 0.2379915 0.4557661 -0.8576931
vn 0.2379915 0.4557661 -0.8576931
vn 0.2379915 0.4557661 -0.8576931
vn 0.9003139 -0.2771222 0.3356163
vn 0.9003139 -0.2771222 0.3356163
vn 0.9003139 -0.2771222 0.3356163
vn 0.9003139 -0.2771222 0.3356163
vn 0.9003139 -0.2771222 0.3356163
vn 0.9003139 -0.2771222 0.3356163
vn 0.9003139 -0.2771222 0.3356163
vn 0.9003139 -0.2771222 0.3356163
vn 0.9003139 -0.2771222 0.3356163
vn 0.9003139 -0.2771222 0.3356163
vn 0.9003139 -0.2771222 0.3356163
vn 0.9003139 -0.2771222 0.3356163
vn 0.9003139 -0.2771222 0.3356163
vn 0.9003139 -0.2771222 0.3356163
vn 0.9003139 -0.2771222 0.3356163
vn -0.9039924 0.1180007 -0.4109426
vn -0.9039924 0.1180007 -0.4109426
vn -0.9039924 0.1180007 -0.4109426
vn -0.9039924 0.1180007 -0.4109426
vn -0.9039924 0.1180007 -0.4109426
vn -0.9039924 0.1180007 -0.4109426
vn -0.9039924 0.1180007 -0.4109426
vn -0.9039924 0.1180007 -0.4109426
vn -0.9039924 0.1180007 -0.4109426
vn 0.3044797 -0.9504246 0.06312785
vn 0.3044797 -0.9504246 0.06312785
vn 0.3044797 -0.9504246 0.06312785
vn 0.3044797 -0.9504246 0.06312785
vn 0.3044797 -0.9504246 0.06312785
vn 0.3044797 -0.9504246 0.06312785
vn 0.3044797 -0.9504246 0.06312785
vn 0.3044797 -0.9504246 0.06312785
vn 0.3044797 -0.9504246 0.06312785
vn -0.5020983 0.7753295 -0.3830949
vn -0.5020983 0.7753295 -0.3830949
vn -0.5020983 0.7753295 -0.3830949
vn -0.5020983 0.7753295 -0.3830949
vn -0.5020983 0.7753295 -0.3830949
vn -0.5020983 0.7753295 -0.3830949
vn -0.5020983 0.7753295 -0.3830949
vn -0.5020983 0.7753295 -0.3830949
vn -0.5020983 0.7753295 -0.3830949
vn 0.9004762 0.3636459 -0.2385466
vn 0.9004762 0.3636459 -0.2385466
vn 0.9004762 0.3636459 -0.2385466
vn 0.9004762 0.3636459 -0.2385466
vn 0.9004762 0.3636459 -0.2385466
vn 0.9004762 0.3636459 -0.2385466
vn -0.425873 0.3382618 0.8391729
vn -0.425873 0.3382618 0.8391729
vn -0.425873 0.3382618 0.8391729
vn -0.425873 0.3382618 0.8391729
vn -0.425873 0.3382618 0.8391729
vn -0.425873 0.3382618 0.8391729
vn -0.425873 0.3382618 0.8391729
vn -0.425873 0.3382618 0.8391729
vn -0.425873 0.3382618 0.8391729
vn 0.5926926 0.356795 0.7220892
vn 0.5926926 0.356795 0.7220892
vn 0.5926926 0.356795 0.7220892
vn 0.5926926 0.356795 0.7220892
vn 0.5926926 0.356795 0.7220892
vn 0.5926926 0.356795 0.7220892
vn -0.9770805 -0.05960222 -0.204356
vn -0.9770805 -0.05960222 -0.204356
vn -0.9770805 -0.05960222 -0.204356
vn -0.9770805 -0.05960222 -0.204356
vn -0.9770805 -0.05960222 -0.204356
vn -0.9770805 -0.05960222 -0.204356
vn -0.9770805 -0.05960222 -0.204356
vn -0.9770805 -0.05960222 -0.204356
vn -0.9770805 -0.05960222 -0.204356
vn -0.9770805 -0.05960222 -0.204356
vn -0.9770805 -0.05960222 -0.204356
vn -0.9770805 -0.05960222 -0.204356
vn -0.120802 0.9925398 -0.016481
vn -0.120802 0.9925398 -0.016481
vn -0.120802 0.9925398 -0.016481
vn 0.3847843 -0.2090727 -0.899016
vn 0.3847843 -0.2090727 -0.899016
vn 0.3847843 -0.2090727 -0.899016
vn 0.3847843 -0.2090727 -0.899016
vn 0.3847843 -0.2090727 -0.899016
vn 0.3847843 -0.2090727 -0.899016
vn 0.3847843 -0.2090727 -0.899016
vn 0.3847843 -0.2090727 -0.899016
vn 0.3847843 -0.2090727 -0.899016
vn 0.3847843 -0.2090727 -0.899016
vn 0.3847843 -0.2090727 -0.899016
vn 0.3847843 -0.2090727 -0.899016
vn -0.1343085 0.9669429 0.2167552
vn -0.1343085 0.9669429 0.2167552
vn -0.1343085 0.9669429 0.2167552
vn -0.1343085 0.9669429 0.2167552
vn -0.1343085 0.9669429 0.2167552
vn -0.1343085 0.9669429 0.2167552
vn -0.1343085 0.9669429 0.2167552
vn -0.1343085 0.9669429 0.2167552
vn -0.1343085 0.9669429 0.2167552
vn -0.3726045 0.5396885 0.7549187
vn -0.3726045 0.5396885 0.7549187
vn -0.3726045 0.5396885 0.7549187
vn -0.3726045 0.5396885 0.7549187
vn -0.3726045 0.5396885 0.7549187
vn -0.3726045 0.5396885 0.7549187
vn -0.3726045 0.5396885 0.7549187
vn -0.3726045 0.5396885 0.7549187
vn -0.3726045 0.5396885 0.7549187
vn -0.3726045 0.5396885 0.7549187
vn -0.3726045 0.5396885 0.7549187
vn -0.3726045 0.5396885 0.7549187
vn -0.3726045 0.5396885 0.7549187
vn -0.3726045 0.5396885 0.7549187
vn -0.3726045 0.5396885 0.7549187
vn -0.3726045 0.5396885 0.7549187
vn -0.3726045 0.5396885 0.7549187
vn -0.3726045 0.5396885 0.7549187

vt 0.6095321 0.6233094
vt 0.5539726 0.5704595
vt 0.658088 0.614984
vt 0.658088 0.614984
vt 0.5539726 0.5704595
vt 0.6671542 0.5982674
vt 0.6671542 0.5982674
vt 0.5539726 0.5704595
vt 0.6702012 0.5738066
vt 0.6702012 0.5738066
vt 0.5539726 0.5704595
vt 0.6164325 0.5019993
vt 0.3927649 0.494377
vt 0.4126035 0.4892861
vt 0.3819221 0.5128468
vt 0.3819221 0.5128468
vt 0.4126035 0.4892861
vt 0.4148068 0.5198503
vt 0.4148068 0.5198503
vt 0.4126035 0.4892861
vt 0.4236057 0.5142531
vt 0.4389582 0.5104092
vt 0.4062141 0.3886584
vt 0.4866703 0.4555623
vt 0.3114274 0.430103
vt 0.3103914 0.4293858
vt 0.3759264 0.4122004
vt 0.3759264 0.4122004
vt 0.3103914 0.4293858
vt 0.3285659 0.398723
vt 0.3285659 0.398723
vt 0.3103914 0.4293858
vt 0.3192981 0.4055297
vt 0.3397134 0.2917622
vt 0.5148203 0.1496805
vt 0.321281 0.3684869
vt 0.321281 0.3684869
vt 0.5148203 0.1496805
vt 0.3633538 0.4434397
vt 0.3633538 0.4434397
vt 0.5148203 0.1496805
vt 0.670595 0.1562528
vt 0.670595 0.1562528
vt 0.5148203 0.1496805
vt 0.6703981 0.1540589
vt 0.6703981 0.1540589
vt 0.5148203 0.1496805
vt 0.6280769 0.1019403
vt 0.6280769 0.1019403
vt 0.5148203 0.1496805
vt 0.5488536 0.1253744
vt 0.5051167 0.5362013
vt 0.3440261 0.5502834
vt 0.5339371 0.3574753
vt 0.5339371 0.3574753
vt 0.3440261 0.5502834
vt 0.4384331 0.377164
vt 0.4384331 0.377164
vt 0.3440261 0.5502834
vt 0.4162975 0.3873364
vt 0.4162975 0.3873364
vt 0.3440261 0.5502834
vt 0.2909653 0.5102966
vt 0.2909653 0.5102966
vt 0.3440261 0.5502834
vt 0.2986298 0.537992
vt 0.6034005 0.5733941
vt 0.5562415 0.5658655
vt 0.6456091 0.5495521
vt 0.6456091 0.5495521
vt 0.5562415 0.5658655
vt 0.6547691 0.487186
vt 0.6547691 0.487186
vt 0.5562415 0.5658655
vt 0.6486 0.4837264
vt 0.4410723 0.3313598
vt 0.5053698 0.3538095
vt 0.3790672 0.4905986
vt 0.3790672 0.4905986
vt 0.5053698 0.3538095
vt 0.5466785 0.545905
vt 0.5466785 0.545905
vt 0.5053698 0.3538095
vt 0.5690016 0.4336516
vt 0.5561946 0.5120218
vt 0.5427783 0.4512776
vt 0.5931249 0.4882548
vt 0.5931249 0.4882548
vt 0.5427783 0.4512776
vt 0.568486 0.4554591
vt 0.568486 0.4554591
vt 0.5427783 0.4512776
vt 0.5625044 0.4508792
vt 0.4197055 0.4562279
vt 0.3872989 0.4416161
vt 0.4314249 0.4357517
vt 0.4314249 0.4357517
vt 0.3872989 0.4416161
vt 0.3978511 0.4284388
vt 0.6361399 0.2348667
vt 0.4630486 0.5198128
vt 0.4779042 0.1758008
vt 0.4779042 0.1758008
vt 0.4630486 0.5198128
vt 0.3783828 0.2513958
vt 0.3783828 0.2513958
vt 0.4630486 0.5198128
vt 0.3298456 0.3991074
vt 0.4213322 0.6013613
vt 0.5283024 0.4744727
vt 0.4288654 0.7129208
vt 0.4288654 0.7129208
vt 0.5283024 0.4744727
vt 0.4563123 0.7024484
vt 0.4268731 0.3792172
vt 0.5195363 0.4164756
vt 0.3799157 0.4166069
vt 0.3799157 0.4166069
vt 0.5195363 0.4164756
vt 0.3785281 0.5332855
vt 0.3785281 0.5332855
vt 0.5195363 0.4164756
vt 0.557179 0.5766568
vt 0.557179 0.5766568
vt 0.5195363 0.4164756
vt 0.6475968 0.5054214
vt 0.5130953 0.5446205
vt 0.4875516 0.5166345
vt 0.6227985 0.5070434
vt 0.7381833 0.4746321
vt 0.3890334 0.6913853
vt 0.4566029 0.1873749
vt 0.4566029 0.1873749
vt 0.3890334 0.6913853
vt 0.1149207 0.2525396
vt 0.1149207 0.2525396
vt 0.3890334 0.6913853
vt 0 0.3280924
vt 0 0.3280924
vt 0.3890334 0.6913853
vt 0.2951139 0.7239934
vt 0.4904533 0.5572963
vt 0.4846264 0.5531992
vt 0.6289582 0.5472457
vt 0.6289582 0.5472457
vt 0.4846264 0.5531992
vt 0.6499219 0.5405046
vt 0.6499219 0.5405046
vt 0.4846264 0.5531992
vt 0.5961907 0.499271
vt 0.5991721 0.6926228
vt 0.5713736 0.6934198
vt 0.7396927 0.5731409
vt 0.7396927 0.5731409
vt 0.5713736 0.6934198
vt 0.7686632 0.4547935
vt 0.7686632 0.4547935
vt 0.5713736 0.6934198
vt 0.6651666 0.3135978
vt 0.6651666 0.3135978
vt 0.5713736 0.6934198
vt 0.6371618 0.2926106
vt 0.6371618 0.2926106
vt 0.5713736 0.6934198
vt 0.4421177 0.4885829
vt 0.4421177 0.4885829
vt 0.5713736 0.6934198
vt 0.5641639 0.6867443

usemtl Material0
usemap Material0

usemtl Material1
usemap Material1
f 1/1/1 2/2/2 3/3/3
f 4/4/4 5/5/5 6/6/6
f 7/7/7 8/8/8 9/9/9
f 10/10/10 11/11/11 12/12/12
f 13/13/13 14/14/14 15/15/15
f 16/16/16 17/17/17 18/18/18
f 19/19/19 20/20/20 21/21/21
f 22/22/22 23/23/23 24/24/24
f 25/25/25 26/26/26 27/27/27
f 28/28/28 29/29/29 30/30/30
f 31/31/31 32/32/32 33/33/33
f 34/34/34 35/35/35 36/36/36
f 37/37/37 38/38/38 39/39/39
f 40/40/40 41/41/41 42/42/42
f 43/43/43 44/44/44 45/45/45
f 46/46/46 47/47/47 48/48/48
f 49/49/49 50/50/50 51/51/51
f 52/52/52 53/53/53 54/54/54
f 55/55/55 56/56/56 57/57/57
f 58/58/58 59/59/59 60/60/60
f 61/61/61 62/62/62 63/63/63
f 64/64/64 65/65/65 66/66/66
f 67/67/67 68/68/68 69/69/69
f 70/70/70 71/71/71 72/72/72
f 73/73/73 74/74/74 75/75/75
f 76/76/76 77/77/77 78/78/78
f 79/79/79 80/80/80 81/81/81
f 82/82/82 83/83/83 84/84/84
f 85/85/85 86/86/86 87/87/87
f 88/88/88 89/89/89 90/90/90
f 91/91/91 92/92/92 93/93/93
f 94/94/94 95/95/95 96/96/96
f 97/97/97 98/98/98 99/99/99
f 100/100/100 101/101/101 102/102/102
f 103/103/103 104/104/104 105/105/105
f 106/106/106 107/107/107 108/108/108
f 109/109/109 110/110/110 111/111/111
f 112/112/112 113/113/113 114/114/114
f 115/115/115 116/116/116 117/117/117
f 118/118/118 119/119/119 120/120/120
f 121/121/121 122/122/122 123/123/123
f 124/124/124 125/125/125 126/126/126
f 127/127/127 128/128/128 129/129/129
f 130/130/130 131/131/131 132/132/132
f 133/133/133 134/134/134 135/135/135
f 136/136/136 137/137/137 138/138/138
f 139/139/139 140/140/140 141/141/141
f 142/142/142 143/143/143 144/144/144
f 145/145/145 146/146/146 147/147/147
f 148/148/148 149/149/149 150/150/150
f 151/151/151 152/152/152 153/153/153
f 154/154/154 155/155/155 156/156/156
f 157/157/157 158/158/158 159/159/159
f 160/160/160 161/161/161 162/162/162
f 163/163/163 164/164/164 165/165/165
f 166/166/166 167/167/167 168/168/168
