g  Instance
v -0.4580312 -48.0515 6.433496
v -0.1149031 -47.3876 6.202264
v -1.01433 -48.19265 6.548208
v -1.01433 -48.19265 6.548208
v -0.1149031 -47.3876 6.202264
v -2.243282 -48.16255 6.706495
v -2.243282 -48.16255 6.706495
v -0.1149031 -47.3876 6.202264
v -2.260674 -47.98361 6.659071
v -2.260674 -47.98361 6.659071
v -0.1149031 -47.3876 6.202264
v -2.187995 -46.80305 6.320779
v -2.187995 -46.80305 6.320779
v -0.1149031 -47.3876 6.202264
v -1.439882 -46.10986 6.026475
v -1.439882 -46.10986 6.026475
v -0.1149031 -47.3876 6.202264
v -0.6040105 -46.46983 6.013266
v -1.03097 -48.17168 3.69426
v -0.783478 -48.18323 3.769258
v -0.8404542 -48.3194 3.957798
v -1.01433 -48.19265 6.548208
v -2.243282 -48.16255 6.706495
v -1.458284 -48.37321 6.502501
v -1.458284 -48.37321 6.502501
v -2.243282 -48.16255 6.706495
v -2.286182 -48.22986 6.675281
v -1.458284 -48.37321 6.502501
v -2.286182 -48.22986 6.675281
v -1.862172 -48.91284 5.702071
v -1.862172 -48.91284 5.702071
v -2.286182 -48.22986 6.675281
v -2.098198 -48.88588 5.731152
v -2.098198 -48.88588 5.731152
v -2.286182 -48.22986 6.675281
v -2.732358 -48.69195 5.985589
v -2.732358 -48.69195 5.985589
v -2.286182 -48.22986 6.675281
v -2.7437 -48.67131 6.015071
v -2.7437 -48.67131 6.015071
v -2.286182 -48.22986 6.675281
v -2.652728 -48.44624 6.345599
v -2.652728 -48.44624 6.345599
v -2.286182 -48.22986 6.675281
v -2.629572 -48.43112 6.368533
v -1.03097 -48.17168 3.69426
v -1.332568 -48.08348 3.608932
v -0.783478 -48.18323 3.769258
v -0.783478 -48.18323 3.769258
v -1.332568 -48.08348 3.608932
v -0.02416851 -46.86136 4.110391
v -0.02416851 -46.86136 4.110391
v -1.332568 -48.08348 3.608932
v -1.88 -46.10234 3.603027
v -1.88 -46.10234 3.603027
v -1.332568 -48.08348 3.608932
v -2.370071 -47.37954 3.348164
v -1.88 -46.10234 3.603027
v -2.370071 -47.37954 3.348164
v -2.27018 -45.88938 4.209044
v -2.27018 -45.88938 4.209044
v -2.370071 -47.37954 3.348164
v -3.165733 -46.36798 4.963687
v -3.165733 -46.36798 4.963687
v -2.370071 -47.37954 3.348164
v -3.450081 -47.04301 4.859242
v -3.450081 -47.04301 4.859242
v -2.370071 -47.37954 3.348164
v -3.117303 -47.45942 4.187952
v -0.02416851 -46.86136 4.110391
v 0.06602505 -46.83877 4.929327
v -0.783478 -48.18323 3.769258
v -0.783478 -48.18323 3.769258
v 0.06602505 -46.83877 4.929327
v -0.8404542 -48.3194 3.957798
v -0.8404542 -48.3194 3.957798
v 0.06602505 -46.83877 4.929327
v -1.010023 -48.84636 5.223695
v -1.010023 -48.84636 5.223695
v 0.06602505 -46.83877 4.929327
v -0.4580312 -48.0515 6.433496
v -0.4580312 -48.0515 6.433496
v 0.06602505 -46.83877 4.929327
v -0.1149031 -47.3876 6.202264
v -2.260674 -47.98361 6.659071
v -2.629572 -48.43112 6.368533
v -2.243282 -48.16255 6.706495
v -2.243282 -48.16255 6.706495
v -2.629572 -48.43112 6.368533
v -2.286182 -48.22986 6.675281
v -3.450081 -47.04301 4.859242
v -3.117303 -47.45942 4.187952
v -3.55551 -47.66261 4.954251
v -2.27018 -45.88938 4.209044
v -3.165733 -46.36798 4.963687
v -2.177838 -45.84853 5.283999
v -2.177838 -45.84853 5.283999
v -3.165733 -46.36798 4.963687
v -2.886089 -46.22242 5.254056
v -0.02416851 -46.86136 4.110391
v -1.88 -46.10234 3.603027
v 0.06602505 -46.83877 4.929327
v 0.06602505 -46.83877 4.929327
v -1.88 -46.10234 3.603027
v -0.6040105 -46.46983 6.013266
v -0.6040105 -46.46983 6.013266
v -1.88 -46.10234 3.603027
v -1.439882 -46.10986 6.026475
v -1.439882 -46.10986 6.026475
v -1.88 -46.10234 3.603027
v -2.177838 -45.84853 5.283999
v -2.177838 -45.84853 5.283999
v -1.88 -46.10234 3.603027
v -2.27018 -45.88938 4.209044
v -1.862172 -48.91284 5.702071
v -2.098198 -48.88588 5.731152
v -1.010023 -48.84636 5.223695
v -1.010023 -48.84636 5.223695
v -2.098198 -48.88588 5.731152
v -0.8404542 -48.3194 3.957798
v -0.8404542 -48.3194 3.957798
v -2.098198 -48.88588 5.731152
v -1.03097 -48.17168 3.69426
v -1.03097 -48.17168 3.69426
v -2.098198 -48.88588 5.731152
v -1.332568 -48.08348 3.608932
v -2.260674 -47.98361 6.659071
v -2.187995 -46.80305 6.320779
v -2.629572 -48.43112 6.368533
v -2.629572 -48.43112 6.368533
v -2.187995 -46.80305 6.320779
v -2.652728 -48.44624 6.345599
v -2.652728 -48.44624 6.345599
v -2.187995 -46.80305 6.320779
v -2.930065 -48.4715 6.014491
v -2.930065 -48.4715 6.014491
v -2.187995 -46.80305 6.320779
v -3.112721 -48.35236 5.747255
v -3.112721 -48.35236 5.747255
v -2.187995 -46.80305 6.320779
v -3.55551 -47.66261 4.954251
v -3.55551 -47.66261 4.954251
v -2.187995 -46.80305 6.320779
v -3.450081 -47.04301 4.859242
v -3.450081 -47.04301 4.859242
v -2.187995 -46.80305 6.320779
v -3.165733 -46.36798 4.963687
v -3.165733 -46.36798 4.963687
v -2.187995 -46.80305 6.320779
v -2.886089 -46.22242 5.254056
v -2.187995 -46.80305 6.320779
v -1.439882 -46.10986 6.026475
v -2.886089 -46.22242 5.254056
v -2.886089 -46.22242 5.254056
v -1.439882 -46.10986 6.026475
v -2.177838 -45.84853 5.283999
v -2.652728 -48.44624 6.345599
v -2.930065 -48.4715 6.014491
v -2.7437 -48.67131 6.015071
v -0.4580312 -48.0515 6.433496
v -1.01433 -48.19265 6.548208
v -1.010023 -48.84636 5.223695
v -1.010023 -48.84636 5.223695
v -1.01433 -48.19265 6.548208
v -1.862172 -48.91284 5.702071
v -1.862172 -48.91284 5.702071
v -1.01433 -48.19265 6.548208
v -1.458284 -48.37321 6.502501
v -0.6040105 -46.46983 6.013266
v -0.1149031 -47.3876 6.202264
v 0.06602505 -46.83877 4.929327
v -2.930065 -48.4715 6.014491
v -3.112721 -48.35236 5.747255
v -2.7437 -48.67131 6.015071
v -2.7437 -48.67131 6.015071
v -3.112721 -48.35236 5.747255
v -2.732358 -48.69195 5.985589
v -3.117303 -47.45942 4.187952
v -2.370071 -47.37954 3.348164
v -3.55551 -47.66261 4.954251
v -3.55551 -47.66261 4.954251
v -2.370071 -47.37954 3.348164
v -3.112721 -48.35236 5.747255
v -3.112721 -48.35236 5.747255
v -2.370071 -47.37954 3.348164
v -2.732358 -48.69195 5.985589
v -2.732358 -48.69195 5.985589
v -2.370071 -47.37954 3.348164
v -2.098198 -48.88588 5.731152
v -2.098198 -48.88588 5.731152
v -2.370071 -47.37954 3.348164
v -1.332568 -48.08348 3.608932

vn 0.12955 0.2657668 0.9552931
vn 0.12955 0.2657668 0.9552931
vn 0.12955 0.2657668 0.9552931
vn 0.12955 0.2657668 0.9552931
vn 0.12955 0.2657668 0.9552931
vn 0.12955 0.2657668 0.9552931
vn 0.12955 0.2657668 0.9552931
vn 0.12955 0.2657668 0.9552931
vn 0.12955 0.2657668 0.9552931
vn 0.12955 0.2657668 0.9552931
vn 0.12955 0.2657668 0.9552931
vn 0.12955 0.2657668 0.9552931
vn 0.12955 0.2657668 0.9552931
vn 0.12955 0.2657668 0.9552931
vn 0.12955 0.2657668 0.9552931
vn 0.12955 0.2657668 0.9552931
vn 0.12955 0.2657668 0.9552931
vn 0.12955 0.2657668 0.9552931
vn 0.1296765 -0.8220217 -0.5544948
vn 0.1296765 -0.8220217 -0.5544948
vn 0.1296765 -0.8220217 -0.5544948
vn 0.1013298 -0.4709837 0.8763029
vn 0.1013298 -0.4709837 0.8763029
vn 0.1013298 -0.4709837 0.8763029
vn 0.1013298 -0.4709837 0.8763029
vn 0.1013298 -0.4709837 0.8763029
vn 0.1013298 -0.4709837 0.8763029
vn -0.02417049 -0.8232263 0.5671986
vn -0.02417049 -0.8232263 0.5671986
vn -0.02417049 -0.8232263 0.5671986
vn -0.02417049 -0.8232263 0.5671986
vn -0.02417049 -0.8232263 0.5671986
vn -0.02417049 -0.8232263 0.5671986
vn -0.02417049 -0.8232263 0.5671986
vn -0.02417049 -0.8232263 0.5671986
vn -0.02417049 -0.8232263 0.5671986
vn -0.02417049 -0.8232263 0.5671986
vn -0.02417049 -0.8232263 0.5671986
vn -0.02417049 -0.8232263 0.5671986
vn -0.02417049 -0.8232263 0.5671986
vn -0.02417049 -0.8232263 0.5671986
vn -0.02417049 -0.8232263 0.5671986
vn -0.02417049 -0.8232263 0.5671986
vn -0.02417049 -0.8232263 0.5671986
vn -0.02417049 -0.8232263 0.5671986
vn 0.2924554 0.07797068 -0.9530953
vn 0.2924554 0.07797068 -0.9530953
vn 0.2924554 0.07797068 -0.9530953
vn 0.2924554 0.07797068 -0.9530953
vn 0.2924554 0.07797068 -0.9530953
vn 0.2924554 0.07797068 -0.9530953
vn 0.2924554 0.07797068 -0.9530953
vn 0.2924554 0.07797068 -0.9530953
vn 0.2924554 0.07797068 -0.9530953
vn 0.2924554 0.07797068 -0.9530953
vn 0.2924554 0.07797068 -0.9530953
vn 0.2924554 0.07797068 -0.9530953
vn -0.7062836 0.3890243 -0.591459
vn -0.7062836 0.3890243 -0.591459
vn -0.7062836 0.3890243 -0.591459
vn -0.7062836 0.3890243 -0.591459
vn -0.7062836 0.3890243 -0.591459
vn -0.7062836 0.3890243 -0.591459
vn -0.7062836 0.3890243 -0.591459
vn -0.7062836 0.3890243 -0.591459
vn -0.7062836 0.3890243 -0.591459
vn -0.7062836 0.3890243 -0.591459
vn -0.7062836 0.3890243 -0.591459
vn -0.7062836 0.3890243 -0.591459
vn 0.8732303 -0.4802015 -0.08291924
vn 0.8732303 -0.4802015 -0.08291924
vn 0.8732303 -0.4802015 -0.08291924
vn 0.8732303 -0.4802015 -0.08291924
vn 0.8732303 -0.4802015 -0.08291924
vn 0.8732303 -0.4802015 -0.08291924
vn 0.8732303 -0.4802015 -0.08291924
vn 0.8732303 -0.4802015 -0.08291924
vn 0.8732303 -0.4802015 -0.08291924
vn 0.8732303 -0.4802015 -0.08291924
vn 0.8732303 -0.4802015 -0.08291924
vn 0.8732303 -0.4802015 -0.08291924
vn 0.8732303 -0.4802015 -0.08291924
vn 0.8732303 -0.4802015 -0.08291924
vn 0.8732303 -0.4802015 -0.08291924
vn -0.6993105 0.1188389 0.7048703
vn -0.6993105 0.1188389 0.7048703
vn -0.6993105 0.1188389 0.7048703
vn -0.6993105 0.1188389 0.7048703
vn -0.6993105 0.1188389 0.7048703
vn -0.6993105 0.1188389 0.7048703
vn -0.8740869 0.07514086 -0.479923
vn -0.8740869 0.07514086 -0.479923
vn -0.8740869 0.07514086 -0.479923
vn -0.4670516 0.8842061 0.006523618
vn -0.4670516 0.8842061 0.006523618
vn -0.4670516 0.8842061 0.006523618
vn -0.4670516 0.8842061 0.006523618
vn -0.4670516 0.8842061 0.006523618
vn -0.4670516 0.8842061 0.006523618
vn 0.3936776 0.9166815 -0.06865122
vn 0.3936776 0.9166815 -0.06865122
vn 0.3936776 0.9166815 -0.06865122
vn 0.3936776 0.9166815 -0.06865122
vn 0.3936776 0.9166815 -0.06865122
vn 0.3936776 0.9166815 -0.06865122
vn 0.3936776 0.9166815 -0.06865122
vn 0.3936776 0.9166815 -0.06865122
vn 0.3936776 0.9166815 -0.06865122
vn 0.3936776 0.9166815 -0.06865122
vn 0.3936776 0.9166815 -0.06865122
vn 0.3936776 0.9166815 -0.06865122
vn 0.3936776 0.9166815 -0.06865122
vn 0.3936776 0.9166815 -0.06865122
vn 0.3936776 0.9166815 -0.06865122
vn -0.1523391 -0.905026 -0.3971407
vn -0.1523391 -0.905026 -0.3971407
vn -0.1523391 -0.905026 -0.3971407
vn -0.1523391 -0.905026 -0.3971407
vn -0.1523391 -0.905026 -0.3971407
vn -0.1523391 -0.905026 -0.3971407
vn -0.1523391 -0.905026 -0.3971407
vn -0.1523391 -0.905026 -0.3971407
vn -0.1523391 -0.905026 -0.3971407
vn -0.1523391 -0.905026 -0.3971407
vn -0.1523391 -0.905026 -0.3971407
vn -0.1523391 -0.905026 -0.3971407
vn -0.7556097 0.2230163 0.6158878
vn -0.7556097 0.2230163 0.6158878
vn -0.7556097 0.2230163 0.6158878
vn -0.7556097 0.2230163 0.6158878
vn -0.7556097 0.2230163 0.6158878
vn -0.7556097 0.2230163 0.6158878
vn -0.7556097 0.2230163 0.6158878
vn -0.7556097 0.2230163 0.6158878
vn -0.7556097 0.2230163 0.6158878
vn -0.7556097 0.2230163 0.6158878
vn -0.7556097 0.2230163 0.6158878
vn -0.7556097 0.2230163 0.6158878
vn -0.7556097 0.2230163 0.6158878
vn -0.7556097 0.2230163 0.6158878
vn -0.7556097 0.2230163 0.6158878
vn -0.7556097 0.2230163 0.6158878
vn -0.7556097 0.2230163 0.6158878
vn -0.7556097 0.2230163 0.6158878
vn -0.7556097 0.2230163 0.6158878
vn -0.7556097 0.2230163 0.6158878
vn -0.7556097 0.2230163 0.6158878
vn -0.7556097 0.2230163 0.6158878
vn -0.7556097 0.2230163 0.6158878
vn -0.7556097 0.2230163 0.6158878
vn -0.385668 0.6806591 0.6228671
vn -0.385668 0.6806591 0.6228671
vn -0.385668 0.6806591 0.6228671
vn -0.385668 0.6806591 0.6228671
vn -0.385668 0.6806591 0.6228671
vn -0.385668 0.6806591 0.6228671
vn -0.6096435 -0.5670482 0.5538874
vn -0.6096435 -0.5670482 0.5538874
vn -0.6096435 -0.5670482 0.5538874
vn 0.3037808 -0.8539608 0.4224551
vn 0.3037808 -0.8539608 0.4224551
vn 0.3037808 -0.8539608 0.4224551
vn 0.3037808 -0.8539608 0.4224551
vn 0.3037808 -0.8539608 0.4224551
vn 0.3037808 -0.8539608 0.4224551
vn 0.3037808 -0.8539608 0.4224551
vn 0.3037808 -0.8539608 0.4224551
vn 0.3037808 -0.8539608 0.4224551
vn 0.8039282 0.4960176 0.3281252
vn 0.8039282 0.4960176 0.3281252
vn 0.8039282 0.4960176 0.3281252
vn -0.7178712 -0.669068 0.1923772
vn -0.7178712 -0.669068 0.1923772
vn -0.7178712 -0.669068 0.1923772
vn -0.7178712 -0.669068 0.1923772
vn -0.7178712 -0.669068 0.1923772
vn -0.7178712 -0.669068 0.1923772
vn -0.4212912 -0.7875484 -0.4497571
vn -0.4212912 -0.7875484 -0.4497571
vn -0.4212912 -0.7875484 -0.4497571
vn -0.4212912 -0.7875484 -0.4497571
vn -0.4212912 -0.7875484 -0.4497571
vn -0.4212912 -0.7875484 -0.4497571
vn -0.4212912 -0.7875484 -0.4497571
vn -0.4212912 -0.7875484 -0.4497571
vn -0.4212912 -0.7875484 -0.4497571
vn -0.4212912 -0.7875484 -0.4497571
vn -0.4212912 -0.7875484 -0.4497571
vn -0.4212912 -0.7875484 -0.4497571
vn -0.4212912 -0.7875484 -0.4497571
vn -0.4212912 -0.7875484 -0.4497571
vn -0.4212912 -0.7875484 -0.4497571

vt 0.3863473 0.4053234
vt 0.4559092 0.3710136
vt 0.3698182 0.4609485
vt 0.3698182 0.4609485
vt 0.4559092 0.3710136
vt 0.3684869 0.583829
vt 0.3684869 0.583829
vt 0.4559092 0.3710136
vt 0.3868395 0.5855635
vt 0.3868395 0.5855635
vt 0.4559092 0.3710136
vt 0.508595 0.5782975
vt 0.508595 0.5782975
vt 0.4559092 0.3710136
vt 0.5826243 0.50349
vt 0.5826243 0.50349
vt 0.4559092 0.3710136
vt 0.5485911 0.4199165
vt 0.4631846 0.5476113
vt 0.4345188 0.5369607
vt 0.4436741 0.5101935
vt 0.4508276 0.4768213
vt 0.6947089 0.4097768
vt 0.5471472 0.4961771
vt 0.5471472 0.4961771
vt 0.6947089 0.4097768
vt 0.7061564 0.4229963
vt 0.4952817 0.393168
vt 0.5945687 0.3681259
vt 0.5415875 0.509181
vt 0.5415875 0.509181
vt 0.5945687 0.3681259
vt 0.5698454 0.504962
vt 0.5698454 0.504962
vt 0.5945687 0.3681259
vt 0.6461905 0.468088
vt 0.6461905 0.468088
vt 0.5945687 0.3681259
vt 0.6476156 0.4638127
vt 0.6476156 0.4638127
vt 0.5945687 0.3681259
vt 0.6375462 0.4159084
vt 0.6375462 0.4159084
vt 0.5945687 0.3681259
vt 0.6348367 0.4125848
vt 0.5809648 0.4806793
vt 0.5726393 0.5131
vt 0.581518 0.4540762
vt 0.581518 0.4540762
vt 0.5726393 0.5131
vt 0.4432147 0.3724481
vt 0.4432147 0.3724481
vt 0.5726393 0.5131
vt 0.3697011 0.5719596
vt 0.3697011 0.5719596
vt 0.5726393 0.5131
vt 0.5026978 0.6246501
vt 0.5976064 0.5352075
vt 0.4323765 0.573741
vt 0.5974001 0.4435803
vt 0.5974001 0.4435803
vt 0.4323765 0.573741
vt 0.4936129 0.3294753
vt 0.4936129 0.3294753
vt 0.4323765 0.573741
vt 0.4047937 0.3452684
vt 0.4047937 0.3452684
vt 0.4323765 0.573741
vt 0.3798969 0.446768
vt 0.380047 0.5535741
vt 0.3738028 0.4725085
vt 0.5304025 0.5873355
vt 0.5304025 0.5873355
vt 0.3738028 0.4725085
vt 0.5448784 0.5686688
vt 0.5448784 0.5686688
vt 0.3738028 0.4725085
vt 0.5984877 0.4433647
vt 0.5984877 0.4433647
vt 0.3738028 0.4725085
vt 0.5035416 0.3236062
vt 0.5035416 0.3236062
vt 0.3738028 0.4725085
vt 0.4298452 0.3464966
vt 0.3876365 0.3853207
vt 0.3179246 0.4420896
vt 0.3635882 0.3760577
vt 0.3635882 0.3760577
vt 0.3179246 0.4420896
vt 0.353397 0.3821565
vt 0.5081543 0.3753639
vt 0.4648534 0.4611032
vt 0.4379691 0.3632319
vt 0.4814856 0.5526741
vt 0.3816642 0.4784808
vt 0.4913909 0.4469883
vt 0.4913909 0.4469883
vt 0.3816642 0.4784808
vt 0.4126598 0.4499322
vt 0.5926842 0.5543805
vt 0.3951228 0.6044927
vt 0.599969 0.4734883
vt 0.599969 0.4734883
vt 0.3951228 0.6044927
vt 0.5249553 0.3664196
vt 0.5249553 0.3664196
vt 0.3951228 0.6044927
vt 0.4352689 0.3651164
vt 0.4352689 0.3651164
vt 0.3951228 0.6044927
vt 0.3582863 0.4384519
vt 0.3582863 0.4384519
vt 0.3951228 0.6044927
vt 0.3515125 0.5446299
vt 0.5132078 0.3372851
vt 0.5386249 0.3338912
vt 0.4243698 0.3931212
vt 0.4243698 0.3931212
vt 0.5386249 0.3338912
vt 0.4158287 0.5408703
vt 0.4158287 0.5408703
vt 0.5386249 0.3338912
vt 0.4385831 0.5716314
vt 0.4385831 0.5716314
vt 0.5386249 0.3338912
vt 0.4720117 0.5815883
vt 0.3871958 0.3622756
vt 0.5310494 0.4158615
vt 0.3206013 0.4083002
vt 0.3206013 0.4083002
vt 0.5310494 0.4158615
vt 0.3179715 0.4119332
vt 0.3179715 0.4119332
vt 0.5310494 0.4158615
vt 0.3051551 0.4643753
vt 0.3051551 0.4643753
vt 0.5310494 0.4158615
vt 0.3129649 0.5067058
vt 0.3129649 0.5067058
vt 0.5310494 0.4158615
vt 0.3798735 0.63231
vt 0.3798735 0.63231
vt 0.5310494 0.4158615
vt 0.4577467 0.6473483
vt 0.4577467 0.6473483
vt 0.5310494 0.4158615
vt 0.5485817 0.6308193
vt 0.5485817 0.6308193
vt 0.5310494 0.4158615
vt 0.5758833 0.5848228
vt 0.4379878 0.414563
vt 0.5627294 0.4618345
vt 0.3976308 0.5859104
vt 0.3976308 0.5859104
vt 0.5627294 0.4618345
vt 0.4982257 0.5811008
vt 0.500082 0.449576
vt 0.5202019 0.4965334
vt 0.4879454 0.496449
vt 0.4195133 0.375903
vt 0.4814903 0.3621725
vt 0.5048167 0.520666
vt 0.5048167 0.520666
vt 0.4814903 0.3621725
vt 0.5943156 0.4634236
vt 0.5943156 0.4634236
vt 0.4814903 0.3621725
vt 0.5334215 0.3676431
vt 0.451512 0.4132504
vt 0.5595229 0.3924274
vt 0.520802 0.5326667
vt 0.5158048 0.4101471
vt 0.5370123 0.43743
vt 0.4884329 0.4100909
vt 0.4884329 0.4100909
vt 0.5370123 0.43743
vt 0.4861453 0.4131004
vt 0.6542065 0.5098841
vt 0.5858307 0.6133807
vt 0.6861865 0.4154443
vt 0.6861865 0.4154443
vt 0.5858307 0.6133807
vt 0.6074038 0.3177137
vt 0.6074038 0.3177137
vt 0.5858307 0.6133807
vt 0.5528476 0.2883401
vt 0.5528476 0.2883401
vt 0.5858307 0.6133807
vt 0.4812372 0.3196966
vt 0.4812372 0.3196966
vt 0.5858307 0.6133807
vt 0.4485869 0.5812414

usemtl Material0
usemap Material0

usemtl Material1
usemap Material1
f 1/1/1 2/2/2 3/3/3
f 4/4/4 5/5/5 6/6/6
f 7/7/7 8/8/8 9/9/9
f 10/10/10 11/11/11 12/12/12
f 13/13/13 14/14/14 15/15/15
f 16/16/16 17/17/17 18/18/18
f 19/19/19 20/20/20 21/21/21
f 22/22/22 23/23/23 24/24/24
f 25/25/25 26/26/26 27/27/27
f 28/28/28 29/29/29 30/30/30
f 31/31/31 32/32/32 33/33/33
f 34/34/34 35/35/35 36/36/36
f 37/37/37 38/38/38 39/39/39
f 40/40/40 41/41/41 42/42/42
f 43/43/43 44/44/44 45/45/45
f 46/46/46 47/47/47 48/48/48
f 49/49/49 50/50/50 51/51/51
f 52/52/52 53/53/53 54/54/54
f 55/55/55 56/56/56 57/57/57
f 58/58/58 59/59/59 60/60/60
f 61/61/61 62/62/62 63/63/63
f 64/64/64 65/65/65 66/66/66
f 67/67/67 68/68/68 69/69/69
f 70/70/70 71/71/71 72/72/72
f 73/73/73 74/74/74 75/75/75
f 76/76/76 77/77/77 78/78/78
f 79/79/79 80/80/80 81/81/81
f 82/82/82 83/83/83 84/84/84
f 85/85/85 86/86/86 87/87/87
f 88/88/88 89/89/89 90/90/90
f 91/91/91 92/92/92 93/93/93
f 94/94/94 95/95/95 96/96/96
f 97/97/97 98/98/98 99/99/99
f 100/100/100 101/101/101 102/102/102
f 103/103/103 104/104/104 105/105/105
f 106/106/106 107/107/107 108/108/108
f 109/109/109 110/110/110 111/111/111
f 112/112/112 113/113/113 114/114/114
f 115/115/115 116/116/116 117/117/117
f 118/118/118 119/119/119 120/120/120
f 121/121/121 122/122/122 123/123/123
f 124/124/124 125/125/125 126/126/126
f 127/127/127 128/128/128 129/129/129
f 130/130/130 131/131/131 132/132/132
f 133/133/133 134/134/134 135/135/135
f 136/136/136 137/137/137 138/138/138
f 139/139/139 140/140/140 141/141/141
f 142/142/142 143/143/143 144/144/144
f 145/145/145 146/146/146 147/147/147
f 148/148/148 149/149/149 150/150/150
f 151/151/151 152/152/152 153/153/153
f 154/154/154 155/155/155 156/156/156
f 157/157/157 158/158/158 159/159/159
f 160/160/160 161/161/161 162/162/162
f 163/163/163 164/164/164 165/165/165
f 166/166/166 167/167/167 168/168/168
f 169/169/169 170/170/170 171/171/171
f 172/172/172 173/173/173 174/174/174
f 175/175/175 176/176/176 177/177/177
f 178/178/178 179/179/179 180/180/180
f 181/181/181 182/182/182 183/183/183
f 184/184/184 185/185/185 186/186/186
f 187/187/187 188/188/188 189/189/189
f 190/190/190 191/191/191 192/192/192
