g  Instance
v -4.168812 -54.65752 -1.782994
v -3.890059 -54.50346 -1.808286
v -3.929629 -54.78362 -1.718481
v -4.380748 -56.59909 0.2090131
v -4.726623 -55.68932 -0.1176012
v -4.250275 -54.67559 -1.744074
v -4.250275 -54.67559 -1.744074
v -4.726623 -55.68932 -0.1176012
v -4.508292 -54.58552 -1.448555
v -3.218917 -56.21352 -0.4736981
v -4.064626 -56.74729 0.2758501
v -3.218003 -56.19411 -0.4933093
v -3.218003 -56.19411 -0.4933093
v -4.064626 -56.74729 0.2758501
v -3.929629 -54.78362 -1.718481
v -3.929629 -54.78362 -1.718481
v -4.064626 -56.74729 0.2758501
v -4.168812 -54.65752 -1.782994
v -4.168812 -54.65752 -1.782994
v -4.064626 -56.74729 0.2758501
v -4.250275 -54.67559 -1.744074
v -4.250275 -54.67559 -1.744074
v -4.064626 -56.74729 0.2758501
v -4.380748 -56.59909 0.2090131
v -4.380748 -56.59909 0.2090131
v -4.064626 -56.74729 0.2758501
v -4.34901 -56.64719 0.24888
v -2.153859 -55.27105 0.0668785
v -2.680472 -53.86877 0.4442925
v -2.222074 -56.18232 0.9503636
v -2.222074 -56.18232 0.9503636
v -2.680472 -53.86877 0.4442925
v -2.710803 -55.7501 1.964381
v -2.710803 -55.7501 1.964381
v -2.680472 -53.86877 0.4442925
v -2.730351 -55.71558 1.991782
v -4.229432 -53.60689 -0.5095589
v -3.410807 -53.44452 -0.2907779
v -3.754469 -53.83097 -1.12171
v -2.921146 -53.53279 0.3644235
v -3.410807 -53.44452 -0.2907779
v -3.854826 -54.2918 1.73777
v -3.854826 -54.2918 1.73777
v -3.410807 -53.44452 -0.2907779
v -4.654197 -54.07274 0.4561558
v -4.654197 -54.07274 0.4561558
v -3.410807 -53.44452 -0.2907779
v -4.540665 -53.72876 -0.4226762
v -4.540665 -53.72876 -0.4226762
v -3.410807 -53.44452 -0.2907779
v -4.229432 -53.60689 -0.5095589
v -3.952127 -56.75335 0.3220255
v -2.586207 -56.60868 1.11368
v -4.064626 -56.74729 0.2758501
v -4.064626 -56.74729 0.2758501
v -2.586207 -56.60868 1.11368
v -4.34901 -56.64719 0.24888
v -4.34901 -56.64719 0.24888
v -2.586207 -56.60868 1.11368
v -3.440274 -55.23279 2.171036
v -3.440274 -55.23279 2.171036
v -2.586207 -56.60868 1.11368
v -2.730351 -55.71558 1.991782
v -2.730351 -55.71558 1.991782
v -2.586207 -56.60868 1.11368
v -2.710803 -55.7501 1.964381
v -3.854826 -54.2918 1.73777
v -4.654197 -54.07274 0.4561558
v -3.440274 -55.23279 2.171036
v -3.440274 -55.23279 2.171036
v -4.654197 -54.07274 0.4561558
v -4.34901 -56.64719 0.24888
v -4.34901 -56.64719 0.24888
v -4.654197 -54.07274 0.4561558
v -4.380748 -56.59909 0.2090131
v -4.380748 -56.59909 0.2090131
v -4.654197 -54.07274 0.4561558
v -4.726623 -55.68932 -0.1176012
v -3.218917 -56.21352 -0.4736981
v -3.187232 -56.25843 -0.3789039
v -4.064626 -56.74729 0.2758501
v -4.064626 -56.74729 0.2758501
v -3.187232 -56.25843 -0.3789039
v -3.952127 -56.75335 0.3220255
v -2.222074 -56.18232 0.9503636
v -2.710803 -55.7501 1.964381
v -2.443787 -56.51867 0.9890746
v -2.443787 -56.51867 0.9890746
v -2.710803 -55.7501 1.964381
v -2.586207 -56.60868 1.11368
v -3.218917 -56.21352 -0.4736981
v -3.218003 -56.19411 -0.4933093
v -3.187232 -56.25843 -0.3789039
v -3.187232 -56.25843 -0.3789039
v -3.218003 -56.19411 -0.4933093
v -2.443787 -56.51867 0.9890746
v -2.443787 -56.51867 0.9890746
v -3.218003 -56.19411 -0.4933093
v -2.222074 -56.18232 0.9503636
v -2.222074 -56.18232 0.9503636
v -3.218003 -56.19411 -0.4933093
v -2.153859 -55.27105 0.0668785
v -2.153859 -55.27105 0.0668785
v -3.218003 -56.19411 -0.4933093
v -2.255887 -55.26972 -0.08375749
v -2.153859 -55.27105 0.0668785
v -2.255887 -55.26972 -0.08375749
v -2.680472 -53.86877 0.4442925
v -2.680472 -53.86877 0.4442925
v -2.255887 -55.26972 -0.08375749
v -2.921146 -53.53279 0.3644235
v -2.921146 -53.53279 0.3644235
v -2.255887 -55.26972 -0.08375749
v -3.410807 -53.44452 -0.2907779
v -3.410807 -53.44452 -0.2907779
v -2.255887 -55.26972 -0.08375749
v -3.754469 -53.83097 -1.12171
v -3.754469 -53.83097 -1.12171
v -2.255887 -55.26972 -0.08375749
v -3.852098 -54.46606 -1.792534
v -2.586207 -56.60868 1.11368
v -3.952127 -56.75335 0.3220255
v -2.443787 -56.51867 0.9890746
v -2.443787 -56.51867 0.9890746
v -3.952127 -56.75335 0.3220255
v -3.187232 -56.25843 -0.3789039
v -4.654197 -54.07274 0.4561558
v -4.540665 -53.72876 -0.4226762
v -4.726623 -55.68932 -0.1176012
v -4.726623 -55.68932 -0.1176012
v -4.540665 -53.72876 -0.4226762
v -4.508292 -54.58552 -1.448555
v -3.754469 -53.83097 -1.12171
v -3.852098 -54.46606 -1.792534
v -4.229432 -53.60689 -0.5095589
v -4.229432 -53.60689 -0.5095589
v -3.852098 -54.46606 -1.792534
v -4.540665 -53.72876 -0.4226762
v -4.540665 -53.72876 -0.4226762
v -3.852098 -54.46606 -1.792534
v -4.508292 -54.58552 -1.448555
v -4.508292 -54.58552 -1.448555
v -3.852098 -54.46606 -1.792534
v -4.250275 -54.67559 -1.744074
v -4.250275 -54.67559 -1.744074
v -3.852098 -54.46606 -1.792534
v -4.168812 -54.65752 -1.782994
v -4.168812 -54.65752 -1.782994
v -3.852098 -54.46606 -1.792534
v -3.890059 -54.50346 -1.808286
v -2.921146 -53.53279 0.3644235
v -3.854826 -54.2918 1.73777
v -2.680472 -53.86877 0.4442925
v -2.680472 -53.86877 0.4442925
v -3.854826 -54.2918 1.73777
v -2.730351 -55.71558 1.991782
v -2.730351 -55.71558 1.991782
v -3.854826 -54.2918 1.73777
v -3.440274 -55.23279 2.171036
v -3.852098 -54.46606 -1.792534
v -2.255887 -55.26972 -0.08375749
v -3.890059 -54.50346 -1.808286
v -3.890059 -54.50346 -1.808286
v -2.255887 -55.26972 -0.08375749
v -3.929629 -54.78362 -1.718481
v -3.929629 -54.78362 -1.718481
v -2.255887 -55.26972 -0.08375749
v -3.218003 -56.19411 -0.4933093

vn 0.08857731 -0.3153708 -0.9448256
vn 0.08857731 -0.3153708 -0.9448256
vn 0.08857731 -0.3153708 -0.9448256
vn -0.7338752 -0.4588279 -0.5009034
vn -0.7338752 -0.4588279 -0.5009034
vn -0.7338752 -0.4588279 -0.5009034
vn -0.7338752 -0.4588279 -0.5009034
vn -0.7338752 -0.4588279 -0.5009034
vn -0.7338752 -0.4588279 -0.5009034
vn -0.1785837 -0.6950384 -0.6964406
vn -0.1785837 -0.6950384 -0.6964406
vn -0.1785837 -0.6950384 -0.6964406
vn -0.1785837 -0.6950384 -0.6964406
vn -0.1785837 -0.6950384 -0.6964406
vn -0.1785837 -0.6950384 -0.6964406
vn -0.1785837 -0.6950384 -0.6964406
vn -0.1785837 -0.6950384 -0.6964406
vn -0.1785837 -0.6950384 -0.6964406
vn -0.1785837 -0.6950384 -0.6964406
vn -0.1785837 -0.6950384 -0.6964406
vn -0.1785837 -0.6950384 -0.6964406
vn -0.1785837 -0.6950384 -0.6964406
vn -0.1785837 -0.6950384 -0.6964406
vn -0.1785837 -0.6950384 -0.6964406
vn -0.1785837 -0.6950384 -0.6964406
vn -0.1785837 -0.6950384 -0.6964406
vn -0.1785837 -0.6950384 -0.6964406
vn 0.9093469 0.2525022 0.3306524
vn 0.9093469 0.2525022 0.3306524
vn 0.9093469 0.2525022 0.3306524
vn 0.9093469 0.2525022 0.3306524
vn 0.9093469 0.2525022 0.3306524
vn 0.9093469 0.2525022 0.3306524
vn 0.9093469 0.2525022 0.3306524
vn 0.9093469 0.2525022 0.3306524
vn 0.9093469 0.2525022 0.3306524
vn -0.07624375 0.9157785 -0.3943814
vn -0.07624375 0.9157785 -0.3943814
vn -0.07624375 0.9157785 -0.3943814
vn -0.2661373 0.9087998 0.3213316
vn -0.2661373 0.9087998 0.3213316
vn -0.2661373 0.9087998 0.3213316
vn -0.2661373 0.9087998 0.3213316
vn -0.2661373 0.9087998 0.3213316
vn -0.2661373 0.9087998 0.3213316
vn -0.2661373 0.9087998 0.3213316
vn -0.2661373 0.9087998 0.3213316
vn -0.2661373 0.9087998 0.3213316
vn -0.2661373 0.9087998 0.3213316
vn -0.2661373 0.9087998 0.3213316
vn -0.2661373 0.9087998 0.3213316
vn -0.3056319 -0.6921738 0.653823
vn -0.3056319 -0.6921738 0.653823
vn -0.3056319 -0.6921738 0.653823
vn -0.3056319 -0.6921738 0.653823
vn -0.3056319 -0.6921738 0.653823
vn -0.3056319 -0.6921738 0.653823
vn -0.3056319 -0.6921738 0.653823
vn -0.3056319 -0.6921738 0.653823
vn -0.3056319 -0.6921738 0.653823
vn -0.3056319 -0.6921738 0.653823
vn -0.3056319 -0.6921738 0.653823
vn -0.3056319 -0.6921738 0.653823
vn -0.3056319 -0.6921738 0.653823
vn -0.3056319 -0.6921738 0.653823
vn -0.3056319 -0.6921738 0.653823
vn -0.8506241 -0.1415972 0.5063488
vn -0.8506241 -0.1415972 0.5063488
vn -0.8506241 -0.1415972 0.5063488
vn -0.8506241 -0.1415972 0.5063488
vn -0.8506241 -0.1415972 0.5063488
vn -0.8506241 -0.1415972 0.5063488
vn -0.8506241 -0.1415972 0.5063488
vn -0.8506241 -0.1415972 0.5063488
vn -0.8506241 -0.1415972 0.5063488
vn -0.8506241 -0.1415972 0.5063488
vn -0.8506241 -0.1415972 0.5063488
vn -0.8506241 -0.1415972 0.5063488
vn 0.1426155 -0.8751801 -0.4622995
vn 0.1426155 -0.8751801 -0.4622995
vn 0.1426155 -0.8751801 -0.4622995
vn 0.1426155 -0.8751801 -0.4622995
vn 0.1426155 -0.8751801 -0.4622995
vn 0.1426155 -0.8751801 -0.4622995
vn 0.733216 -0.4219489 0.5332481
vn 0.733216 -0.4219489 0.5332481
vn 0.733216 -0.4219489 0.5332481
vn 0.733216 -0.4219489 0.5332481
vn 0.733216 -0.4219489 0.5332481
vn 0.733216 -0.4219489 0.5332481
vn 0.7049837 -0.5201775 -0.4820929
vn 0.7049837 -0.5201775 -0.4820929
vn 0.7049837 -0.5201775 -0.4820929
vn 0.7049837 -0.5201775 -0.4820929
vn 0.7049837 -0.5201775 -0.4820929
vn 0.7049837 -0.5201775 -0.4820929
vn 0.7049837 -0.5201775 -0.4820929
vn 0.7049837 -0.5201775 -0.4820929
vn 0.7049837 -0.5201775 -0.4820929
vn 0.7049837 -0.5201775 -0.4820929
vn 0.7049837 -0.5201775 -0.4820929
vn 0.7049837 -0.5201775 -0.4820929
vn 0.7049837 -0.5201775 -0.4820929
vn 0.7049837 -0.5201775 -0.4820929
vn 0.7049837 -0.5201775 -0.4820929
vn 0.7533913 0.4192685 -0.5065724
vn 0.7533913 0.4192685 -0.5065724
vn 0.7533913 0.4192685 -0.5065724
vn 0.7533913 0.4192685 -0.5065724
vn 0.7533913 0.4192685 -0.5065724
vn 0.7533913 0.4192685 -0.5065724
vn 0.7533913 0.4192685 -0.5065724
vn 0.7533913 0.4192685 -0.5065724
vn 0.7533913 0.4192685 -0.5065724
vn 0.7533913 0.4192685 -0.5065724
vn 0.7533913 0.4192685 -0.5065724
vn 0.7533913 0.4192685 -0.5065724
vn 0.7533913 0.4192685 -0.5065724
vn 0.7533913 0.4192685 -0.5065724
vn 0.7533913 0.4192685 -0.5065724
vn 0.2844622 -0.9015197 -0.3261039
vn 0.2844622 -0.9015197 -0.3261039
vn 0.2844622 -0.9015197 -0.3261039
vn 0.2844622 -0.9015197 -0.3261039
vn 0.2844622 -0.9015197 -0.3261039
vn 0.2844622 -0.9015197 -0.3261039
vn -0.9921214 0.0789666 -0.09726068
vn -0.9921214 0.0789666 -0.09726068
vn -0.9921214 0.0789666 -0.09726068
vn -0.9921214 0.0789666 -0.09726068
vn -0.9921214 0.0789666 -0.09726068
vn -0.9921214 0.0789666 -0.09726068
vn -0.4320249 0.6854619 -0.5860858
vn -0.4320249 0.6854619 -0.5860858
vn -0.4320249 0.6854619 -0.5860858
vn -0.4320249 0.6854619 -0.5860858
vn -0.4320249 0.6854619 -0.5860858
vn -0.4320249 0.6854619 -0.5860858
vn -0.4320249 0.6854619 -0.5860858
vn -0.4320249 0.6854619 -0.5860858
vn -0.4320249 0.6854619 -0.5860858
vn -0.4320249 0.6854619 -0.5860858
vn -0.4320249 0.6854619 -0.5860858
vn -0.4320249 0.6854619 -0.5860858
vn -0.4320249 0.6854619 -0.5860858
vn -0.4320249 0.6854619 -0.5860858
vn -0.4320249 0.6854619 -0.5860858
vn -0.4320249 0.6854619 -0.5860858
vn -0.4320249 0.6854619 -0.5860858
vn -0.4320249 0.6854619 -0.5860858
vn 0.5303444 0.5360402 0.6568074
vn 0.5303444 0.5360402 0.6568074
vn 0.5303444 0.5360402 0.6568074
vn 0.5303444 0.5360402 0.6568074
vn 0.5303444 0.5360402 0.6568074
vn 0.5303444 0.5360402 0.6568074
vn 0.5303444 0.5360402 0.6568074
vn 0.5303444 0.5360402 0.6568074
vn 0.5303444 0.5360402 0.6568074
vn 0.6134592 -0.3182863 -0.7227459
vn 0.6134592 -0.3182863 -0.7227459
vn 0.6134592 -0.3182863 -0.7227459
vn 0.6134592 -0.3182863 -0.7227459
vn 0.6134592 -0.3182863 -0.7227459
vn 0.6134592 -0.3182863 -0.7227459
vn 0.6134592 -0.3182863 -0.7227459
vn 0.6134592 -0.3182863 -0.7227459
vn 0.6134592 -0.3182863 -0.7227459

vt 0.374581 0.5394171
vt 0.3593692 0.5117968
vt 0.3884006 0.5157157
vt 0.4058484 0.3858785
vt 0.5142953 0.4287435
vt 0.5832524 0.6422012
vt 0.5832524 0.6422012
vt 0.5142953 0.4287435
vt 0.6074507 0.6034145
vt 0.395301 0.4520511
vt 0.4893142 0.3089569
vt 0.39584 0.4557966
vt 0.39584 0.4557966
vt 0.4893142 0.3089569
vt 0.538353 0.6896695
vt 0.538353 0.6896695
vt 0.4893142 0.3089569
vt 0.5743832 0.701989
vt 0.5743832 0.701989
vt 0.4893142 0.3089569
vt 0.5845744 0.6945636
vt 0.5845744 0.6945636
vt 0.4893142 0.3089569
vt 0.5363185 0.321717
vt 0.5363185 0.321717
vt 0.4893142 0.3089569
vt 0.5304587 0.3141041
vt 0.5300838 0.523535
vt 0.374656 0.48187
vt 0.6196483 0.4260152
vt 0.6196483 0.4260152
vt 0.374656 0.48187
vt 0.562645 0.31409
vt 0.562645 0.31409
vt 0.374656 0.48187
vt 0.5586323 0.3110664
vt 0.448104 0.4557357
vt 0.5368248 0.4302717
vt 0.4967537 0.5270039
vt 0.618692 0.4920894
vt 0.57248 0.5639248
vt 0.5035135 0.3415322
vt 0.5035135 0.3415322
vt 0.57248 0.5639248
vt 0.430267 0.4820294
vt 0.430267 0.4820294
vt 0.57248 0.5639248
vt 0.4516152 0.5783818
vt 0.4516152 0.5783818
vt 0.57248 0.5639248
vt 0.4861828 0.5879074
vt 0.4439085 0.5687813
vt 0.2891511 0.4328453
vt 0.4575967 0.576713
vt 0.4575967 0.576713
vt 0.2891511 0.4328453
vt 0.4966506 0.5813445
vt 0.4966506 0.5813445
vt 0.2891511 0.4328453
vt 0.4628705 0.2512786
vt 0.4628705 0.2512786
vt 0.2891511 0.4328453
vt 0.3531485 0.2820585
vt 0.3531485 0.2820585
vt 0.2891511 0.4328453
vt 0.3490139 0.286765
vt 0.6061006 0.3072599
vt 0.6457029 0.4766994
vt 0.492516 0.2499801
vt 0.492516 0.2499801
vt 0.6457029 0.4766994
vt 0.3504765 0.5040994
vt 0.3504765 0.5040994
vt 0.6457029 0.4766994
vt 0.3564768 0.5093685
vt 0.3564768 0.5093685
vt 0.6457029 0.4766994
vt 0.4652659 0.5525429
vt 0.4539075 0.4750118
vt 0.4512401 0.4631611
vt 0.5559696 0.3812939
vt 0.5559696 0.3812939
vt 0.4512401 0.4631611
vt 0.543772 0.3755186
vt 0.4933879 0.4917237
vt 0.4781854 0.3524313
vt 0.540125 0.4864172
vt 0.540125 0.4864172
vt 0.4781854 0.3524313
vt 0.557451 0.4692974
vt 0.5406312 0.4750446
vt 0.5388218 0.4775573
vt 0.542572 0.4629033
vt 0.542572 0.4629033
vt 0.5388218 0.4775573
vt 0.5165455 0.2876979
vt 0.5165455 0.2876979
vt 0.5388218 0.4775573
vt 0.4714022 0.2926575
vt 0.4714022 0.2926575
vt 0.5388218 0.4775573
vt 0.38458 0.405811
vt 0.38458 0.405811
vt 0.5388218 0.4775573
vt 0.3912554 0.4251011
vt 0.5726487 0.3934165
vt 0.5668546 0.4133395
vt 0.4037343 0.3435105
vt 0.4037343 0.3435105
vt 0.5668546 0.4133395
vt 0.3569175 0.354072
vt 0.3569175 0.354072
vt 0.5668546 0.4133395
vt 0.3209763 0.4407208
vt 0.3209763 0.4407208
vt 0.5668546 0.4133395
vt 0.3404212 0.5506115
vt 0.3404212 0.5506115
vt 0.5668546 0.4133395
vt 0.3982824 0.6393229
vt 0.4207321 0.3154729
vt 0.560723 0.4025576
vt 0.4037905 0.3291799
vt 0.4037905 0.3291799
vt 0.560723 0.4025576
vt 0.4693771 0.4796668
vt 0.6031192 0.4236995
vt 0.6378837 0.5109248
vt 0.4433694 0.4806512
vt 0.4433694 0.4806512
vt 0.6378837 0.5109248
vt 0.5537664 0.6127432
vt 0.5789303 0.4984179
vt 0.5278149 0.5988674
vt 0.5446721 0.4067485
vt 0.5446721 0.4067485
vt 0.5278149 0.5988674
vt 0.5048448 0.3937399
vt 0.5048448 0.3937399
vt 0.5278149 0.5988674
vt 0.4527355 0.5473582
vt 0.4527355 0.5473582
vt 0.5278149 0.5988674
vt 0.4733898 0.5916201
vt 0.4733898 0.5916201
vt 0.5278149 0.5988674
vt 0.4829201 0.5974517
vt 0.4829201 0.5974517
vt 0.5278149 0.5988674
vt 0.5214958 0.60123
vt 0.3998153 0.5970392
vt 0.3828737 0.3595942
vt 0.4529277 0.583229
vt 0.4529277 0.583229
vt 0.3828737 0.3595942
vt 0.6176419 0.3156745
vt 0.6176419 0.3156745
vt 0.3828737 0.3595942
vt 0.5075918 0.2846836
vt 0.3948978 0.7084863
vt 0.3918132 0.3567722
vt 0.4021076 0.7117302
vt 0.4021076 0.7117302
vt 0.3918132 0.3567722
vt 0.4400786 0.6932416
vt 0.4400786 0.6932416
vt 0.3918132 0.3567722
vt 0.5715517 0.441063

usemtl Material0
usemap Material0

usemtl Material1
usemap Material1
f 1/1/1 2/2/2 3/3/3
f 4/4/4 5/5/5 6/6/6
f 7/7/7 8/8/8 9/9/9
f 10/10/10 11/11/11 12/12/12
f 13/13/13 14/14/14 15/15/15
f 16/16/16 17/17/17 18/18/18
f 19/19/19 20/20/20 21/21/21
f 22/22/22 23/23/23 24/24/24
f 25/25/25 26/26/26 27/27/27
f 28/28/28 29/29/29 30/30/30
f 31/31/31 32/32/32 33/33/33
f 34/34/34 35/35/35 36/36/36
f 37/37/37 38/38/38 39/39/39
f 40/40/40 41/41/41 42/42/42
f 43/43/43 44/44/44 45/45/45
f 46/46/46 47/47/47 48/48/48
f 49/49/49 50/50/50 51/51/51
f 52/52/52 53/53/53 54/54/54
f 55/55/55 56/56/56 57/57/57
f 58/58/58 59/59/59 60/60/60
f 61/61/61 62/62/62 63/63/63
f 64/64/64 65/65/65 66/66/66
f 67/67/67 68/68/68 69/69/69
f 70/70/70 71/71/71 72/72/72
f 73/73/73 74/74/74 75/75/75
f 76/76/76 77/77/77 78/78/78
f 79/79/79 80/80/80 81/81/81
f 82/82/82 83/83/83 84/84/84
f 85/85/85 86/86/86 87/87/87
f 88/88/88 89/89/89 90/90/90
f 91/91/91 92/92/92 93/93/93
f 94/94/94 95/95/95 96/96/96
f 97/97/97 98/98/98 99/99/99
f 100/100/100 101/101/101 102/102/102
f 103/103/103 104/104/104 105/105/105
f 106/106/106 107/107/107 108/108/108
f 109/109/109 110/110/110 111/111/111
f 112/112/112 113/113/113 114/114/114
f 115/115/115 116/116/116 117/117/117
f 118/118/118 119/119/119 120/120/120
f 121/121/121 122/122/122 123/123/123
f 124/124/124 125/125/125 126/126/126
f 127/127/127 128/128/128 129/129/129
f 130/130/130 131/131/131 132/132/132
f 133/133/133 134/134/134 135/135/135
f 136/136/136 137/137/137 138/138/138
f 139/139/139 140/140/140 141/141/141
f 142/142/142 143/143/143 144/144/144
f 145/145/145 146/146/146 147/147/147
f 148/148/148 149/149/149 150/150/150
f 151/151/151 152/152/152 153/153/153
f 154/154/154 155/155/155 156/156/156
f 157/157/157 158/158/158 159/159/159
f 160/160/160 161/161/161 162/162/162
f 163/163/163 164/164/164 165/165/165
f 166/166/166 167/167/167 168/168/168
