g  Instance
v 4.184385 -44.88727 -1.002026
v 4.899687 -45.02779 -0.5881827
v 3.025588 -44.85332 -1.423733
v 3.025588 -44.85332 -1.423733
v 4.899687 -45.02779 -0.5881827
v 2.812129 -44.93913 -1.383191
v 2.812129 -44.93913 -1.383191
v 4.899687 -45.02779 -0.5881827
v 2.662856 -45.44981 -0.776158
v 2.662856 -45.44981 -0.776158
v 4.899687 -45.02779 -0.5881827
v 2.741319 -45.83968 -0.2499354
v 2.741319 -45.83968 -0.2499354
v 4.899687 -45.02779 -0.5881827
v 4.810386 -45.98289 0.6090829
v 4.810386 -45.98289 0.6090829
v 4.899687 -45.02779 -0.5881827
v 5.27106 -45.34225 -0.06321283
v 2.794091 -44.78345 -1.38886
v 2.812129 -44.93913 -1.383191
v 2.614802 -44.52531 -0.9765546
v 2.614802 -44.52531 -0.9765546
v 2.812129 -44.93913 -1.383191
v 2.505508 -44.44373 -0.6976724
v 2.505508 -44.44373 -0.6976724
v 2.812129 -44.93913 -1.383191
v 2.662856 -45.44981 -0.776158
v 3.034984 -44.07638 0.6568194
v 2.541689 -44.48231 0.2583762
v 4.084535 -44.27225 1.038339
v 4.084535 -44.27225 1.038339
v 2.541689 -44.48231 0.2583762
v 4.883903 -45.67949 0.7753458
v 4.883903 -45.67949 0.7753458
v 2.541689 -44.48231 0.2583762
v 4.810386 -45.98289 0.6090829
v 4.810386 -45.98289 0.6090829
v 2.541689 -44.48231 0.2583762
v 2.741319 -45.83968 -0.2499354
v 2.484776 -43.96516 0.02670191
v 2.660881 -43.9128 0.1994139
v 2.614802 -44.52531 -0.9765546
v 2.614802 -44.52531 -0.9765546
v 2.660881 -43.9128 0.1994139
v 2.794091 -44.78345 -1.38886
v 2.794091 -44.78345 -1.38886
v 2.660881 -43.9128 0.1994139
v 3.025588 -44.85332 -1.423733
v 3.025588 -44.85332 -1.423733
v 2.660881 -43.9128 0.1994139
v 4.184385 -44.88727 -1.002026
v 4.184385 -44.88727 -1.002026
v 2.660881 -43.9128 0.1994139
v 4.743396 -44.8214 -0.643289
v 4.743396 -44.8214 -0.643289
v 2.660881 -43.9128 0.1994139
v 4.677509 -44.27811 0.3550385
v 4.677509 -44.27811 0.3550385
v 2.660881 -43.9128 0.1994139
v 4.488678 -44.15192 0.5141687
v 4.488678 -44.15192 0.5141687
v 2.660881 -43.9128 0.1994139
v 4.084535 -44.27225 1.038339
v 4.084535 -44.27225 1.038339
v 2.660881 -43.9128 0.1994139
v 3.034984 -44.07638 0.6568194
v 4.184385 -44.88727 -1.002026
v 4.743396 -44.8214 -0.643289
v 4.899687 -45.02779 -0.5881827
v 4.883903 -45.67949 0.7753458
v 5.256608 -45.23282 0.1340385
v 4.084535 -44.27225 1.038339
v 4.084535 -44.27225 1.038339
v 5.256608 -45.23282 0.1340385
v 4.488678 -44.15192 0.5141687
v 4.488678 -44.15192 0.5141687
v 5.256608 -45.23282 0.1340385
v 4.677509 -44.27811 0.3550385
v 2.505508 -44.44373 -0.6976724
v 2.45787 -44.00369 0.01036739
v 2.614802 -44.52531 -0.9765546
v 2.614802 -44.52531 -0.9765546
v 2.45787 -44.00369 0.01036739
v 2.484776 -43.96516 0.02670191
v 5.256608 -45.23282 0.1340385
v 4.883903 -45.67949 0.7753458
v 5.27106 -45.34225 -0.06321283
v 5.27106 -45.34225 -0.06321283
v 4.883903 -45.67949 0.7753458
v 4.810386 -45.98289 0.6090829
v 2.484776 -43.96516 0.02670191
v 2.45787 -44.00369 0.01036739
v 2.660881 -43.9128 0.1994139
v 2.660881 -43.9128 0.1994139
v 2.45787 -44.00369 0.01036739
v 3.034984 -44.07638 0.6568194
v 3.034984 -44.07638 0.6568194
v 2.45787 -44.00369 0.01036739
v 2.541689 -44.48231 0.2583762
v 2.812129 -44.93913 -1.383191
v 2.794091 -44.78345 -1.38886
v 3.025588 -44.85332 -1.423733
v 2.505508 -44.44373 -0.6976724
v 2.662856 -45.44981 -0.776158
v 2.45787 -44.00369 0.01036739
v 2.45787 -44.00369 0.01036739
v 2.662856 -45.44981 -0.776158
v 2.541689 -44.48231 0.2583762
v 2.541689 -44.48231 0.2583762
v 2.662856 -45.44981 -0.776158
v 2.741319 -45.83968 -0.2499354
v 4.743396 -44.8214 -0.643289
v 4.677509 -44.27811 0.3550385
v 4.899687 -45.02779 -0.5881827
v 4.899687 -45.02779 -0.5881827
v 4.677509 -44.27811 0.3550385
v 5.27106 -45.34225 -0.06321283
v 5.27106 -45.34225 -0.06321283
v 4.677509 -44.27811 0.3550385
v 5.256608 -45.23282 0.1340385

vn 0.1965758 -0.7735766 -0.6024427
vn 0.1965758 -0.7735766 -0.6024427
vn 0.1965758 -0.7735766 -0.6024427
vn 0.1965758 -0.7735766 -0.6024427
vn 0.1965758 -0.7735766 -0.6024427
vn 0.1965758 -0.7735766 -0.6024427
vn 0.1965758 -0.7735766 -0.6024427
vn 0.1965758 -0.7735766 -0.6024427
vn 0.1965758 -0.7735766 -0.6024427
vn 0.1965758 -0.7735766 -0.6024427
vn 0.1965758 -0.7735766 -0.6024427
vn 0.1965758 -0.7735766 -0.6024427
vn 0.1965758 -0.7735766 -0.6024427
vn 0.1965758 -0.7735766 -0.6024427
vn 0.1965758 -0.7735766 -0.6024427
vn 0.1965758 -0.7735766 -0.6024427
vn 0.1965758 -0.7735766 -0.6024427
vn 0.1965758 -0.7735766 -0.6024427
vn -0.9357413 -0.1204887 -0.3314676
vn -0.9357413 -0.1204887 -0.3314676
vn -0.9357413 -0.1204887 -0.3314676
vn -0.9357413 -0.1204887 -0.3314676
vn -0.9357413 -0.1204887 -0.3314676
vn -0.9357413 -0.1204887 -0.3314676
vn -0.9357413 -0.1204887 -0.3314676
vn -0.9357413 -0.1204887 -0.3314676
vn -0.9357413 -0.1204887 -0.3314676
vn -0.3776769 -0.372927 0.8475174
vn -0.3776769 -0.372927 0.8475174
vn -0.3776769 -0.372927 0.8475174
vn -0.3776769 -0.372927 0.8475174
vn -0.3776769 -0.372927 0.8475174
vn -0.3776769 -0.372927 0.8475174
vn -0.3776769 -0.372927 0.8475174
vn -0.3776769 -0.372927 0.8475174
vn -0.3776769 -0.372927 0.8475174
vn -0.3776769 -0.372927 0.8475174
vn -0.3776769 -0.372927 0.8475174
vn -0.3776769 -0.372927 0.8475174
vn 0.1925303 0.8672004 -0.4592337
vn 0.1925303 0.8672004 -0.4592337
vn 0.1925303 0.8672004 -0.4592337
vn 0.1925303 0.8672004 -0.4592337
vn 0.1925303 0.8672004 -0.4592337
vn 0.1925303 0.8672004 -0.4592337
vn 0.1925303 0.8672004 -0.4592337
vn 0.1925303 0.8672004 -0.4592337
vn 0.1925303 0.8672004 -0.4592337
vn 0.1925303 0.8672004 -0.4592337
vn 0.1925303 0.8672004 -0.4592337
vn 0.1925303 0.8672004 -0.4592337
vn 0.1925303 0.8672004 -0.4592337
vn 0.1925303 0.8672004 -0.4592337
vn 0.1925303 0.8672004 -0.4592337
vn 0.1925303 0.8672004 -0.4592337
vn 0.1925303 0.8672004 -0.4592337
vn 0.1925303 0.8672004 -0.4592337
vn 0.1925303 0.8672004 -0.4592337
vn 0.1925303 0.8672004 -0.4592337
vn 0.1925303 0.8672004 -0.4592337
vn 0.07713152 0.9571292 0.2792033
vn 0.07713152 0.9571292 0.2792033
vn 0.07713152 0.9571292 0.2792033
vn 0.07713152 0.9571292 0.2792033
vn 0.07713152 0.9571292 0.2792033
vn 0.07713152 0.9571292 0.2792033
vn 0.5182191 0.1685549 -0.8384737
vn 0.5182191 0.1685549 -0.8384737
vn 0.5182191 0.1685549 -0.8384737
vn 0.7231466 0.2939711 0.6250119
vn 0.7231466 0.2939711 0.6250119
vn 0.7231466 0.2939711 0.6250119
vn 0.7231466 0.2939711 0.6250119
vn 0.7231466 0.2939711 0.6250119
vn 0.7231466 0.2939711 0.6250119
vn 0.7231466 0.2939711 0.6250119
vn 0.7231466 0.2939711 0.6250119
vn 0.7231466 0.2939711 0.6250119
vn -0.6405849 0.6321292 -0.4359629
vn -0.6405849 0.6321292 -0.4359629
vn -0.6405849 0.6321292 -0.4359629
vn -0.6405849 0.6321292 -0.4359629
vn -0.6405849 0.6321292 -0.4359629
vn -0.6405849 0.6321292 -0.4359629
vn 0.8930699 -0.3624725 0.2665331
vn 0.8930699 -0.3624725 0.2665331
vn 0.8930699 -0.3624725 0.2665331
vn 0.8930699 -0.3624725 0.2665331
vn 0.8930699 -0.3624725 0.2665331
vn 0.8930699 -0.3624725 0.2665331
vn -0.7156156 0.2184273 0.6634636
vn -0.7156156 0.2184273 0.6634636
vn -0.7156156 0.2184273 0.6634636
vn -0.7156156 0.2184273 0.6634636
vn -0.7156156 0.2184273 0.6634636
vn -0.7156156 0.2184273 0.6634636
vn -0.7156156 0.2184273 0.6634636
vn -0.7156156 0.2184273 0.6634636
vn -0.7156156 0.2184273 0.6634636
vn -0.1649333 -0.0549784 -0.9847713
vn -0.1649333 -0.0549784 -0.9847713
vn -0.1649333 -0.0549784 -0.9847713
vn -0.9871432 -0.1567991 0.03102366
vn -0.9871432 -0.1567991 0.03102366
vn -0.9871432 -0.1567991 0.03102366
vn -0.9871432 -0.1567991 0.03102366
vn -0.9871432 -0.1567991 0.03102366
vn -0.9871432 -0.1567991 0.03102366
vn -0.9871432 -0.1567991 0.03102366
vn -0.9871432 -0.1567991 0.03102366
vn -0.9871432 -0.1567991 0.03102366
vn 0.803478 0.5435722 -0.2428012
vn 0.803478 0.5435722 -0.2428012
vn 0.803478 0.5435722 -0.2428012
vn 0.803478 0.5435722 -0.2428012
vn 0.803478 0.5435722 -0.2428012
vn 0.803478 0.5435722 -0.2428012
vn 0.803478 0.5435722 -0.2428012
vn 0.803478 0.5435722 -0.2428012
vn 0.803478 0.5435722 -0.2428012

vt 0.4968849 0.5925014
vt 0.4157584 0.5286352
vt 0.6341898 0.657577
vt 0.6341898 0.657577
vt 0.4157584 0.5286352
vt 0.6622695 0.6513236
vt 0.6622695 0.6513236
vt 0.4157584 0.5286352
vt 0.6955808 0.5576525
vt 0.6955808 0.5576525
vt 0.4157584 0.5286352
vt 0.6980466 0.4764416
vt 0.6980466 0.4764416
vt 0.4157584 0.5286352
vt 0.4553935 0.3438855
vt 0.4553935 0.3438855
vt 0.4157584 0.5286352
vt 0.3809658 0.4476306
vt 0.5316776 0.5713596
vt 0.5153548 0.5707314
vt 0.5607418 0.5258226
vt 0.5607418 0.5258226
vt 0.5153548 0.5707314
vt 0.5706329 0.4950239
vt 0.5706329 0.4950239
vt 0.5153548 0.5707314
vt 0.4645581 0.5036869
vt 0.772179 0.4563498
vt 0.7828765 0.5953891
vt 0.6097758 0.3232077
vt 0.6097758 0.3232077
vt 0.7828765 0.5953891
vt 0.3202732 0.4149849
vt 0.3202732 0.4149849
vt 0.7828765 0.5953891
vt 0.2898543 0.4730101
vt 0.2898543 0.4730101
vt 0.7828765 0.5953891
vt 0.5779927 0.7727743
vt 0.2721251 0.4502885
vt 0.2898964 0.4287716
vt 0.2996095 0.5752785
vt 0.2996095 0.5752785
vt 0.2898964 0.4287716
vt 0.3251719 0.6266471
vt 0.3251719 0.6266471
vt 0.2898964 0.4287716
vt 0.3518594 0.6309974
vt 0.3518594 0.6309974
vt 0.2898964 0.4287716
vt 0.4778667 0.5784569
vt 0.4778667 0.5784569
vt 0.2898964 0.4287716
vt 0.5366842 0.5337636
vt 0.5366842 0.5337636
vt 0.2898964 0.4287716
vt 0.5165361 0.4093877
vt 0.5165361 0.4093877
vt 0.2898964 0.4287716
vt 0.4931066 0.3895631
vt 0.5051354 0.4585202
vt 0.3166402 0.4920894
vt 0.4648769 0.4026326
vt 0.4648769 0.4026326
vt 0.3166402 0.4920894
vt 0.3561581 0.4433131
vt 0.4660957 0.5902794
vt 0.4859906 0.4715194
vt 0.5301213 0.4532746
vt 0.5984877 0.4327188
vt 0.5640513 0.5361825
vt 0.3963979 0.3902897
vt 0.3963979 0.3902897
vt 0.5640513 0.5361825
vt 0.4015216 0.4748571
vt 0.4015216 0.4748571
vt 0.5640513 0.5361825
vt 0.4251996 0.5005273
vt 0.3974948 0.4746743
vt 0.4280544 0.3887381
vt 0.399534 0.5085247
vt 0.399534 0.5085247
vt 0.4280544 0.3887381
vt 0.4331125 0.3867552
vt 0.4742946 0.498521
vt 0.5308056 0.4306514
vt 0.4840826 0.5193909
vt 0.4840826 0.5193909
vt 0.5308056 0.4306514
vt 0.5622981 0.4482446
vt 0.5511225 0.657052
vt 0.545244 0.6599209
vt 0.5644639 0.6267222
vt 0.5644639 0.6267222
vt 0.545244 0.6599209
vt 0.5582479 0.5464019
vt 0.5582479 0.5464019
vt 0.545244 0.6599209
vt 0.4883157 0.6163716
vt 0.4761228 0.60018
vt 0.4606016 0.6019989
vt 0.4673567 0.5786068
vt 0.570933 0.5581119
vt 0.4707741 0.565828
vt 0.6144074 0.4884329
vt 0.6144074 0.4884329
vt 0.4707741 0.565828
vt 0.5666296 0.4640331
vt 0.5666296 0.4640331
vt 0.4707741 0.565828
vt 0.4316921 0.5140469
vt 0.5019009 0.5356575
vt 0.4525527 0.4313546
vt 0.5280961 0.5298916
vt 0.5280961 0.5298916
vt 0.4525527 0.4313546
vt 0.5755833 0.4750493
vt 0.5755833 0.4750493
vt 0.4525527 0.4313546
vt 0.5655702 0.4544466

usemtl Material0
usemap Material0

usemtl Material1
usemap Material1
f 1/1/1 2/2/2 3/3/3
f 4/4/4 5/5/5 6/6/6
f 7/7/7 8/8/8 9/9/9
f 10/10/10 11/11/11 12/12/12
f 13/13/13 14/14/14 15/15/15
f 16/16/16 17/17/17 18/18/18
f 19/19/19 20/20/20 21/21/21
f 22/22/22 23/23/23 24/24/24
f 25/25/25 26/26/26 27/27/27
f 28/28/28 29/29/29 30/30/30
f 31/31/31 32/32/32 33/33/33
f 34/34/34 35/35/35 36/36/36
f 37/37/37 38/38/38 39/39/39
f 40/40/40 41/41/41 42/42/42
f 43/43/43 44/44/44 45/45/45
f 46/46/46 47/47/47 48/48/48
f 49/49/49 50/50/50 51/51/51
f 52/52/52 53/53/53 54/54/54
f 55/55/55 56/56/56 57/57/57
f 58/58/58 59/59/59 60/60/60
f 61/61/61 62/62/62 63/63/63
f 64/64/64 65/65/65 66/66/66
f 67/67/67 68/68/68 69/69/69
f 70/70/70 71/71/71 72/72/72
f 73/73/73 74/74/74 75/75/75
f 76/76/76 77/77/77 78/78/78
f 79/79/79 80/80/80 81/81/81
f 82/82/82 83/83/83 84/84/84
f 85/85/85 86/86/86 87/87/87
f 88/88/88 89/89/89 90/90/90
f 91/91/91 92/92/92 93/93/93
f 94/94/94 95/95/95 96/96/96
f 97/97/97 98/98/98 99/99/99
f 100/100/100 101/101/101 102/102/102
f 103/103/103 104/104/104 105/105/105
f 106/106/106 107/107/107 108/108/108
f 109/109/109 110/110/110 111/111/111
f 112/112/112 113/113/113 114/114/114
f 115/115/115 116/116/116 117/117/117
f 118/118/118 119/119/119 120/120/120
