g  Instance
v 7.402944 -43.32074 9.536743E-07
v 7.363227 -43.28713 0.1948306
v 7.799614 -43.78332 9.536743E-07
v 7.799614 -43.78332 9.536743E-07
v 7.363227 -43.28713 0.1948306
v 7.703127 -43.69276 0.3366041
v 7.799614 -43.78332 9.536743E-07
v 7.893166 -43.92076 -0.3903654
v 7.402944 -43.32074 9.536743E-07
v 7.402944 -43.32074 9.536743E-07
v 7.893166 -43.92076 -0.3903654
v 7.504268 -43.50659 -0.9322686
v 4.899642 -45.02776 -0.5881864
v 5.592573 -45.41558 -0.5384212
v 5.27105 -45.34224 -0.06317738
v 5.27105 -45.34224 -0.06317738
v 5.592573 -45.41558 -0.5384212
v 5.53263 -45.41086 -0.4079828
v 7.640418 -43.75536 0.398747
v 7.703127 -43.69276 0.3366041
v 7.365996 -43.79195 0.5181971
v 7.365996 -43.79195 0.5181971
v 7.703127 -43.69276 0.3366041
v 6.510097 -43.43713 0.5894563
v 6.510097 -43.43713 0.5894563
v 7.703127 -43.69276 0.3366041
v 7.363227 -43.28713 0.1948306
v 5.27105 -45.34224 -0.06317738
v 5.25661 -45.2328 0.1340414
v 4.899642 -45.02776 -0.5881864
v 4.899642 -45.02776 -0.5881864
v 5.25661 -45.2328 0.1340414
v 4.743433 -44.82146 -0.6432561
v 4.743433 -44.82146 -0.6432561
v 5.25661 -45.2328 0.1340414
v 4.677565 -44.27819 0.3549996
v 7.246738 -44.00321 0.4650983
v 7.580646 -43.89607 0.3534096
v 7.365996 -43.79195 0.5181971
v 7.365996 -43.79195 0.5181971
v 7.580646 -43.89607 0.3534096
v 7.640418 -43.75536 0.398747
v 4.770949 -43.9746 0.3865874
v 5.014848 -44.20351 -0.9077695
v 4.748881 -44.01637 0.4195142
v 4.748881 -44.01637 0.4195142
v 5.014848 -44.20351 -0.9077695
v 4.677565 -44.27819 0.3549996
v 4.677565 -44.27819 0.3549996
v 5.014848 -44.20351 -0.9077695
v 4.743433 -44.82146 -0.6432561
v 4.880576 -43.93081 0.4424338
v 4.770949 -43.9746 0.3865874
v 4.748881 -44.01637 0.4195142
v 5.014848 -44.20351 -0.9077695
v 6.845833 -43.77947 -1.310748
v 4.743433 -44.82146 -0.6432561
v 4.743433 -44.82146 -0.6432561
v 6.845833 -43.77947 -1.310748
v 4.899642 -45.02776 -0.5881864
v 4.899642 -45.02776 -0.5881864
v 6.845833 -43.77947 -1.310748
v 5.592573 -45.41558 -0.5384212
v 5.592573 -45.41558 -0.5384212
v 6.845833 -43.77947 -1.310748
v 6.627281 -44.89218 -0.8708333
v 4.748881 -44.01637 0.4195142
v 4.677565 -44.27819 0.3549996
v 4.880576 -43.93081 0.4424338
v 4.880576 -43.93081 0.4424338
v 4.677565 -44.27819 0.3549996
v 6.510097 -43.43713 0.5894563
v 6.510097 -43.43713 0.5894563
v 4.677565 -44.27819 0.3549996
v 7.365996 -43.79195 0.5181971
v 7.365996 -43.79195 0.5181971
v 4.677565 -44.27819 0.3549996
v 7.246738 -44.00321 0.4650983
v 7.246738 -44.00321 0.4650983
v 4.677565 -44.27819 0.3549996
v 5.25661 -45.2328 0.1340414
v 5.25661 -45.2328 0.1340414
v 5.27105 -45.34224 -0.06317738
v 7.246738 -44.00321 0.4650983
v 7.246738 -44.00321 0.4650983
v 5.27105 -45.34224 -0.06317738
v 7.580646 -43.89607 0.3534096
v 7.580646 -43.89607 0.3534096
v 5.27105 -45.34224 -0.06317738
v 7.596467 -43.95187 0.2454564
v 7.596467 -43.95187 0.2454564
v 5.27105 -45.34224 -0.06317738
v 5.53263 -45.41086 -0.4079828
v 5.592573 -45.41558 -0.5384212
v 6.627281 -44.89218 -0.8708333
v 5.53263 -45.41086 -0.4079828
v 5.53263 -45.41086 -0.4079828
v 6.627281 -44.89218 -0.8708333
v 7.596467 -43.95187 0.2454564
v 7.596467 -43.95187 0.2454564
v 6.627281 -44.89218 -0.8708333
v 7.846585 -43.99867 -0.3847117
v 7.846585 -43.99867 -0.3847117
v 6.627281 -44.89218 -0.8708333
v 7.893166 -43.92076 -0.3903654
v 7.893166 -43.92076 -0.3903654
v 6.627281 -44.89218 -0.8708333
v 7.504268 -43.50659 -0.9322686
v 7.504268 -43.50659 -0.9322686
v 6.627281 -44.89218 -0.8708333
v 6.845833 -43.77947 -1.310748
v 6.510097 -43.43713 0.5894563
v 7.363227 -43.28713 0.1948306
v 4.880576 -43.93081 0.4424338
v 4.880576 -43.93081 0.4424338
v 7.363227 -43.28713 0.1948306
v 4.770949 -43.9746 0.3865874
v 4.770949 -43.9746 0.3865874
v 7.363227 -43.28713 0.1948306
v 5.014848 -44.20351 -0.9077695
v 5.014848 -44.20351 -0.9077695
v 7.363227 -43.28713 0.1948306
v 6.845833 -43.77947 -1.310748
v 6.845833 -43.77947 -1.310748
v 7.363227 -43.28713 0.1948306
v 7.504268 -43.50659 -0.9322686
v 7.504268 -43.50659 -0.9322686
v 7.363227 -43.28713 0.1948306
v 7.402944 -43.32074 9.536743E-07
v 7.846585 -43.99867 -0.3847117
v 7.893166 -43.92076 -0.3903654
v 7.596467 -43.95187 0.2454564
v 7.596467 -43.95187 0.2454564
v 7.893166 -43.92076 -0.3903654
v 7.580646 -43.89607 0.3534096
v 7.580646 -43.89607 0.3534096
v 7.893166 -43.92076 -0.3903654
v 7.640418 -43.75536 0.398747
v 7.640418 -43.75536 0.398747
v 7.893166 -43.92076 -0.3903654
v 7.703127 -43.69276 0.3366041
v 7.703127 -43.69276 0.3366041
v 7.893166 -43.92076 -0.3903654
v 7.799614 -43.78332 9.536743E-07

vn 0.7584321 0.6503698 0.04242576
vn 0.7584321 0.6503698 0.04242576
vn 0.7584321 0.6503698 0.04242576
vn 0.7584321 0.6503698 0.04242576
vn 0.7584321 0.6503698 0.04242576
vn 0.7584321 0.6503698 0.04242576
vn 0.7582692 0.6502296 -0.04721346
vn 0.7582692 0.6502296 -0.04721346
vn 0.7582692 0.6502296 -0.04721346
vn 0.7582692 0.6502296 -0.04721346
vn 0.7582692 0.6502296 -0.04721346
vn 0.7582692 0.6502296 -0.04721346
vn -0.46986 -0.8632073 -0.1846747
vn -0.46986 -0.8632073 -0.1846747
vn -0.46986 -0.8632073 -0.1846747
vn -0.46986 -0.8632073 -0.1846747
vn -0.46986 -0.8632073 -0.1846747
vn -0.46986 -0.8632073 -0.1846747
vn 0.2821776 0.518563 0.8071358
vn 0.2821776 0.518563 0.8071358
vn 0.2821776 0.518563 0.8071358
vn 0.2821776 0.518563 0.8071358
vn 0.2821776 0.518563 0.8071358
vn 0.2821776 0.518563 0.8071358
vn 0.2821776 0.518563 0.8071358
vn 0.2821776 0.518563 0.8071358
vn 0.2821776 0.518563 0.8071358
vn -0.803478 -0.5435722 0.2428012
vn -0.803478 -0.5435722 0.2428012
vn -0.803478 -0.5435722 0.2428012
vn -0.803478 -0.5435722 0.2428012
vn -0.803478 -0.5435722 0.2428012
vn -0.803478 -0.5435722 0.2428012
vn -0.803478 -0.5435722 0.2428012
vn -0.803478 -0.5435722 0.2428012
vn -0.803478 -0.5435722 0.2428012
vn 0.4077339 -0.4323205 0.8042712
vn 0.4077339 -0.4323205 0.8042712
vn 0.4077339 -0.4323205 0.8042712
vn 0.4077339 -0.4323205 0.8042712
vn 0.4077339 -0.4323205 0.8042712
vn 0.4077339 -0.4323205 0.8042712
vn -0.9235895 0.3078619 -0.228481
vn -0.9235895 0.3078619 -0.228481
vn -0.9235895 0.3078619 -0.228481
vn -0.9235895 0.3078619 -0.228481
vn -0.9235895 0.3078619 -0.228481
vn -0.9235895 0.3078619 -0.228481
vn -0.9235895 0.3078619 -0.228481
vn -0.9235895 0.3078619 -0.228481
vn -0.9235895 0.3078619 -0.228481
vn -0.5298345 0.6797501 0.507164
vn -0.5298345 0.6797501 0.507164
vn -0.5298345 0.6797501 0.507164
vn -0.125329 -0.3433832 -0.9307958
vn -0.125329 -0.3433832 -0.9307958
vn -0.125329 -0.3433832 -0.9307958
vn -0.125329 -0.3433832 -0.9307958
vn -0.125329 -0.3433832 -0.9307958
vn -0.125329 -0.3433832 -0.9307958
vn -0.125329 -0.3433832 -0.9307958
vn -0.125329 -0.3433832 -0.9307958
vn -0.125329 -0.3433832 -0.9307958
vn -0.125329 -0.3433832 -0.9307958
vn -0.125329 -0.3433832 -0.9307958
vn -0.125329 -0.3433832 -0.9307958
vn -0.01649814 -0.234966 0.9718636
vn -0.01649814 -0.234966 0.9718636
vn -0.01649814 -0.234966 0.9718636
vn -0.01649814 -0.234966 0.9718636
vn -0.01649814 -0.234966 0.9718636
vn -0.01649814 -0.234966 0.9718636
vn -0.01649814 -0.234966 0.9718636
vn -0.01649814 -0.234966 0.9718636
vn -0.01649814 -0.234966 0.9718636
vn -0.01649814 -0.234966 0.9718636
vn -0.01649814 -0.234966 0.9718636
vn -0.01649814 -0.234966 0.9718636
vn -0.01649814 -0.234966 0.9718636
vn -0.01649814 -0.234966 0.9718636
vn -0.01649814 -0.234966 0.9718636
vn 0.407772 -0.7854029 0.465687
vn 0.407772 -0.7854029 0.465687
vn 0.407772 -0.7854029 0.465687
vn 0.407772 -0.7854029 0.465687
vn 0.407772 -0.7854029 0.465687
vn 0.407772 -0.7854029 0.465687
vn 0.407772 -0.7854029 0.465687
vn 0.407772 -0.7854029 0.465687
vn 0.407772 -0.7854029 0.465687
vn 0.407772 -0.7854029 0.465687
vn 0.407772 -0.7854029 0.465687
vn 0.407772 -0.7854029 0.465687
vn 0.5010929 -0.8253493 0.2602008
vn 0.5010929 -0.8253493 0.2602008
vn 0.5010929 -0.8253493 0.2602008
vn 0.5010929 -0.8253493 0.2602008
vn 0.5010929 -0.8253493 0.2602008
vn 0.5010929 -0.8253493 0.2602008
vn 0.5010929 -0.8253493 0.2602008
vn 0.5010929 -0.8253493 0.2602008
vn 0.5010929 -0.8253493 0.2602008
vn 0.5754367 -0.3959481 -0.71561
vn 0.5754367 -0.3959481 -0.71561
vn 0.5754367 -0.3959481 -0.71561
vn 0.5754367 -0.3959481 -0.71561
vn 0.5754367 -0.3959481 -0.71561
vn 0.5754367 -0.3959481 -0.71561
vn 0.5754367 -0.3959481 -0.71561
vn 0.5754367 -0.3959481 -0.71561
vn 0.5754367 -0.3959481 -0.71561
vn -0.2651864 0.9396571 -0.2161502
vn -0.2651864 0.9396571 -0.2161502
vn -0.2651864 0.9396571 -0.2161502
vn -0.2651864 0.9396571 -0.2161502
vn -0.2651864 0.9396571 -0.2161502
vn -0.2651864 0.9396571 -0.2161502
vn -0.2651864 0.9396571 -0.2161502
vn -0.2651864 0.9396571 -0.2161502
vn -0.2651864 0.9396571 -0.2161502
vn -0.2651864 0.9396571 -0.2161502
vn -0.2651864 0.9396571 -0.2161502
vn -0.2651864 0.9396571 -0.2161502
vn -0.2651864 0.9396571 -0.2161502
vn -0.2651864 0.9396571 -0.2161502
vn -0.2651864 0.9396571 -0.2161502
vn -0.2651864 0.9396571 -0.2161502
vn -0.2651864 0.9396571 -0.2161502
vn -0.2651864 0.9396571 -0.2161502
vn 0.8129649 -0.460163 0.3568447
vn 0.8129649 -0.460163 0.3568447
vn 0.8129649 -0.460163 0.3568447
vn 0.8129649 -0.460163 0.3568447
vn 0.8129649 -0.460163 0.3568447
vn 0.8129649 -0.460163 0.3568447
vn 0.8129649 -0.460163 0.3568447
vn 0.8129649 -0.460163 0.3568447
vn 0.8129649 -0.460163 0.3568447
vn 0.8129649 -0.460163 0.3568447
vn 0.8129649 -0.460163 0.3568447
vn 0.8129649 -0.460163 0.3568447
vn 0.8129649 -0.460163 0.3568447
vn 0.8129649 -0.460163 0.3568447
vn 0.8129649 -0.460163 0.3568447

vt 0.2876413 0.236191
vt 0.2883987 0.2390736
vt 0.2790329 0.236191
vt 0.2790329 0.236191
vt 0.2883987 0.2390736
vt 0.2809463 0.2411711
vt 0.2790329 0.236191
vt 0.2765929 0.2307052
vt 0.2876413 0.236191
vt 0.2876413 0.236191
vt 0.2765929 0.2307052
vt 0.2844638 0.2230898
vt 0.4905002 0.4962333
vt 0.41108 0.4911706
vt 0.4428303 0.4428021
vt 0.4428303 0.4428021
vt 0.41108 0.4911706
vt 0.4165694 0.4778948
vt 0.7884362 0.628991
vt 0.792627 0.6465233
vt 0.7512153 0.5952953
vt 0.7512153 0.5952953
vt 0.792627 0.6465233
vt 0.5977752 0.5751942
vt 0.5977752 0.5751942
vt 0.792627 0.6465233
vt 0.7106286 0.6865006
vt 0.4041843 0.4750493
vt 0.414188 0.4544466
vt 0.4516714 0.5298916
vt 0.4516714 0.5298916
vt 0.414188 0.4544466
vt 0.4778573 0.5356481
vt 0.4778573 0.5356481
vt 0.414188 0.4544466
vt 0.527196 0.431364
vt 0.2223644 0.5568368
vt 0.1700161 0.5879261
vt 0.1840325 0.5420516
vt 0.1840325 0.5420516
vt 0.1700161 0.5879261
vt 0.1468538 0.5753067
vt 0.5040104 0.4017842
vt 0.4898627 0.5360419
vt 0.4993038 0.3983667
vt 0.4993038 0.3983667
vt 0.4898627 0.5360419
vt 0.4719413 0.4050609
vt 0.4719413 0.4050609
vt 0.4898627 0.5360419
vt 0.4219978 0.5085997
vt 0.4777073 0.4421552
vt 0.4647737 0.4495479
vt 0.459861 0.4451882
vt 0.4590171 0.5014181
vt 0.4057734 0.3185434
vt 0.5255366 0.5285321
vt 0.5255366 0.5285321
vt 0.4057734 0.3185434
vt 0.5466034 0.5129218
vt 0.5466034 0.5129218
vt 0.4057734 0.3185434
vt 0.5843681 0.4437116
vt 0.5843681 0.4437116
vt 0.4057734 0.3185434
vt 0.5243084 0.340365
vt 0.532812 0.5336418
vt 0.506298 0.5406547
vt 0.5415219 0.5206941
vt 0.5415219 0.5206941
vt 0.506298 0.5406547
vt 0.5920936 0.3604474
vt 0.5920936 0.3604474
vt 0.506298 0.5406547
vt 0.5565415 0.2762785
vt 0.5565415 0.2762785
vt 0.506298 0.5406547
vt 0.5351278 0.2880073
vt 0.5351278 0.2880073
vt 0.506298 0.5406547
vt 0.4099643 0.4837076
vt 0.5422532 0.4823669
vt 0.5464253 0.5071183
vt 0.2830945 0.4408098
vt 0.2830945 0.4408098
vt 0.5464253 0.5071183
vt 0.2446923 0.454831
vt 0.2446923 0.454831
vt 0.5464253 0.5071183
vt 0.2459861 0.4683833
vt 0.2459861 0.4683833
vt 0.5464253 0.5071183
vt 0.524149 0.5504052
vt 0.5236709 0.535995
vt 0.4059609 0.5710502
vt 0.5286399 0.5222411
vt 0.5286399 0.5222411
vt 0.4059609 0.5710502
vt 0.2719282 0.4533356
vt 0.2719282 0.4533356
vt 0.4059609 0.5710502
vt 0.2526287 0.5197847
vt 0.2520896 0.2977672
vt 0.4529652 0.3957135
vt 0.2393388 0.2989063
vt 0.2393388 0.2989063
vt 0.4529652 0.3957135
vt 0.2223457 0.4080939
vt 0.2223457 0.4080939
vt 0.4529652 0.3957135
vt 0.3065193 0.4843546
vt 0.6304208 0.3849269
vt 0.7171915 0.4256214
vt 0.4590124 0.4000919
vt 0.4590124 0.4000919
vt 0.7171915 0.4256214
vt 0.4471946 0.4058484
vt 0.4471946 0.4058484
vt 0.7171915 0.4256214
vt 0.4645581 0.5393327
vt 0.4645581 0.5393327
vt 0.7171915 0.4256214
vt 0.6535878 0.5808851
vt 0.6535878 0.5808851
vt 0.7171915 0.4256214
vt 0.7248606 0.5418641
vt 0.7248606 0.5418641
vt 0.7171915 0.4256214
vt 0.720126 0.4457133
vt 0.3304878 0.5691844
vt 0.3209389 0.569822
vt 0.3391602 0.4981928
vt 0.3391602 0.4981928
vt 0.3209389 0.569822
vt 0.3348756 0.4860328
vt 0.3348756 0.4860328
vt 0.3209389 0.569822
vt 0.3188903 0.4809231
vt 0.3188903 0.4809231
vt 0.3209389 0.569822
vt 0.3099085 0.4879266
vt 0.3099085 0.4879266
vt 0.3209389 0.569822
vt 0.3131993 0.5258413

usemtl Material0
usemap Material0
f 1/1/1 2/2/2 3/3/3
f 4/4/4 5/5/5 6/6/6
f 7/7/7 8/8/8 9/9/9
f 10/10/10 11/11/11 12/12/12

usemtl Material1
usemap Material1
f 13/13/13 14/14/14 15/15/15
f 16/16/16 17/17/17 18/18/18
f 19/19/19 20/20/20 21/21/21
f 22/22/22 23/23/23 24/24/24
f 25/25/25 26/26/26 27/27/27
f 28/28/28 29/29/29 30/30/30
f 31/31/31 32/32/32 33/33/33
f 34/34/34 35/35/35 36/36/36
f 37/37/37 38/38/38 39/39/39
f 40/40/40 41/41/41 42/42/42
f 43/43/43 44/44/44 45/45/45
f 46/46/46 47/47/47 48/48/48
f 49/49/49 50/50/50 51/51/51
f 52/52/52 53/53/53 54/54/54
f 55/55/55 56/56/56 57/57/57
f 58/58/58 59/59/59 60/60/60
f 61/61/61 62/62/62 63/63/63
f 64/64/64 65/65/65 66/66/66
f 67/67/67 68/68/68 69/69/69
f 70/70/70 71/71/71 72/72/72
f 73/73/73 74/74/74 75/75/75
f 76/76/76 77/77/77 78/78/78
f 79/79/79 80/80/80 81/81/81
f 82/82/82 83/83/83 84/84/84
f 85/85/85 86/86/86 87/87/87
f 88/88/88 89/89/89 90/90/90
f 91/91/91 92/92/92 93/93/93
f 94/94/94 95/95/95 96/96/96
f 97/97/97 98/98/98 99/99/99
f 100/100/100 101/101/101 102/102/102
f 103/103/103 104/104/104 105/105/105
f 106/106/106 107/107/107 108/108/108
f 109/109/109 110/110/110 111/111/111
f 112/112/112 113/113/113 114/114/114
f 115/115/115 116/116/116 117/117/117
f 118/118/118 119/119/119 120/120/120
f 121/121/121 122/122/122 123/123/123
f 124/124/124 125/125/125 126/126/126
f 127/127/127 128/128/128 129/129/129
f 130/130/130 131/131/131 132/132/132
f 133/133/133 134/134/134 135/135/135
f 136/136/136 137/137/137 138/138/138
f 139/139/139 140/140/140 141/141/141
f 142/142/142 143/143/143 144/144/144
