g  Instance
v 0.9486828 -59.33424 3.372404
v 1.293542 -59.23608 3.494782
v 0.5081664 -59.155 3.990961
v 0.5081664 -59.155 3.990961
v 1.293542 -59.23608 3.494782
v 1.26702 -59.0252 4.040962
v 0.5081664 -59.155 3.990961
v 1.26702 -59.0252 4.040962
v 0.6715932 -58.97865 4.299822
v 0.6715932 -58.97865 4.299822
v 1.26702 -59.0252 4.040962
v 1.249929 -58.78422 4.52977
v 0.6715932 -58.97865 4.299822
v 0.3940758 -59.05617 4.185478
v 0.5081664 -59.155 3.990961
v 0.5081664 -59.155 3.990961
v 0.3940758 -59.05617 4.185478
v 0.376264 -59.07087 4.160161
v 0.23858 -59.35087 3.45179
v 0.4593899 -59.43747 3.15149
v 0.5081664 -59.155 3.990961
v 0.5081664 -59.155 3.990961
v 0.4593899 -59.43747 3.15149
v 0.9486828 -59.33424 3.372404
v 0.23858 -59.35087 3.45179
v 0.5081664 -59.155 3.990961
v 0.04547946 -59.25323 3.706015
v 0.04547946 -59.25323 3.706015
v 0.5081664 -59.155 3.990961
v 0.2288205 -59.16348 3.955728
v 0.2288205 -59.16348 3.955728
v 0.5081664 -59.155 3.990961
v 0.376264 -59.07087 4.160161
v 0.8580328 -56.58672 3.489175
v 0.9031235 -56.91108 3.887208
v 1.607817 -56.98219 3.211575
v 1.607817 -56.98219 3.211575
v 0.9031235 -56.91108 3.887208
v 1.417035 -57.63251 4.318338
v 0.9031235 -56.91108 3.887208
v 0.8580328 -56.58672 3.489175
v 0.2579847 -56.63334 3.505232
v 0.2579847 -56.63334 3.505232
v 0.8580328 -56.58672 3.489175
v 0.6212065 -56.41209 3.260461
v 1.281135 -57.45612 1.15134
v 0.4593899 -59.43747 3.15149
v 1.271386 -57.39663 1.143267
v 1.271386 -57.39663 1.143267
v 0.4593899 -59.43747 3.15149
v 1.23745 -57.24606 1.136835
v 1.23745 -57.24606 1.136835
v 0.4593899 -59.43747 3.15149
v 0.9726552 -56.99 1.438638
v 0.9726552 -56.99 1.438638
v 0.4593899 -59.43747 3.15149
v -0.2565949 -57.3924 3.449285
v -0.2565949 -57.3924 3.449285
v 0.4593899 -59.43747 3.15149
v -0.2222308 -57.92135 3.600042
v -0.2222308 -57.92135 3.600042
v 0.4593899 -59.43747 3.15149
v 0.04547946 -59.25323 3.706015
v 0.04547946 -59.25323 3.706015
v 0.4593899 -59.43747 3.15149
v 0.23858 -59.35087 3.45179
v 0.2288205 -59.16348 3.955728
v 0.376264 -59.07087 4.160161
v 0.04547946 -59.25323 3.706015
v 0.04547946 -59.25323 3.706015
v 0.376264 -59.07087 4.160161
v -0.2222308 -57.92135 3.600042
v -0.2222308 -57.92135 3.600042
v 0.376264 -59.07087 4.160161
v 0.3940758 -59.05617 4.185478
v 1.249929 -58.78422 4.52977
v 1.26702 -59.0252 4.040962
v 1.417035 -57.63251 4.318338
v 1.417035 -57.63251 4.318338
v 1.26702 -59.0252 4.040962
v 1.607817 -56.98219 3.211575
v 1.607817 -56.98219 3.211575
v 1.26702 -59.0252 4.040962
v 1.73372 -56.87519 2.061644
v 1.73372 -56.87519 2.061644
v 1.26702 -59.0252 4.040962
v 1.652844 -57.72827 1.778959
v 1.652844 -57.72827 1.778959
v 1.26702 -59.0252 4.040962
v 1.293542 -59.23608 3.494782
v 0.6212065 -56.41209 3.260461
v 0.8580328 -56.58672 3.489175
v 0.4368009 -56.25988 2.979124
v 0.4368009 -56.25988 2.979124
v 0.8580328 -56.58672 3.489175
v 0.91746 -56.38522 1.985592
v 0.91746 -56.38522 1.985592
v 0.8580328 -56.58672 3.489175
v 1.458837 -56.64207 1.602614
v 1.458837 -56.64207 1.602614
v 0.8580328 -56.58672 3.489175
v 1.73372 -56.87519 2.061644
v 1.73372 -56.87519 2.061644
v 0.8580328 -56.58672 3.489175
v 1.607817 -56.98219 3.211575
v 1.23745 -57.24606 1.136835
v 1.28124 -57.16095 1.19881
v 1.271386 -57.39663 1.143267
v 1.28124 -57.16095 1.19881
v 1.458837 -56.64207 1.602614
v 1.271386 -57.39663 1.143267
v 1.271386 -57.39663 1.143267
v 1.458837 -56.64207 1.602614
v 1.281135 -57.45612 1.15134
v 1.281135 -57.45612 1.15134
v 1.458837 -56.64207 1.602614
v 1.652844 -57.72827 1.778959
v 1.652844 -57.72827 1.778959
v 1.458837 -56.64207 1.602614
v 1.73372 -56.87519 2.061644
v 0.0743883 -56.60139 3.40848
v 0.4368009 -56.25988 2.979124
v -0.2565949 -57.3924 3.449285
v -0.2565949 -57.3924 3.449285
v 0.4368009 -56.25988 2.979124
v 0.9726552 -56.99 1.438638
v 0.9726552 -56.99 1.438638
v 0.4368009 -56.25988 2.979124
v 0.91746 -56.38522 1.985592
v 1.23745 -57.24606 1.136835
v 0.9726552 -56.99 1.438638
v 1.28124 -57.16095 1.19881
v 1.28124 -57.16095 1.19881
v 0.9726552 -56.99 1.438638
v 1.458837 -56.64207 1.602614
v 1.458837 -56.64207 1.602614
v 0.9726552 -56.99 1.438638
v 0.91746 -56.38522 1.985592
v 0.4368009 -56.25988 2.979124
v 0.0743883 -56.60139 3.40848
v 0.6212065 -56.41209 3.260461
v 0.6212065 -56.41209 3.260461
v 0.0743883 -56.60139 3.40848
v 0.2579847 -56.63334 3.505232
v 0.3940758 -59.05617 4.185478
v 0.6715932 -58.97865 4.299822
v -0.2222308 -57.92135 3.600042
v -0.2222308 -57.92135 3.600042
v 0.6715932 -58.97865 4.299822
v -0.2565949 -57.3924 3.449285
v -0.2565949 -57.3924 3.449285
v 0.6715932 -58.97865 4.299822
v 0.0743883 -56.60139 3.40848
v 0.0743883 -56.60139 3.40848
v 0.6715932 -58.97865 4.299822
v 0.2579847 -56.63334 3.505232
v 0.2579847 -56.63334 3.505232
v 0.6715932 -58.97865 4.299822
v 0.9031235 -56.91108 3.887208
v 0.9031235 -56.91108 3.887208
v 0.6715932 -58.97865 4.299822
v 1.417035 -57.63251 4.318338
v 1.417035 -57.63251 4.318338
v 0.6715932 -58.97865 4.299822
v 1.249929 -58.78422 4.52977
v 1.293542 -59.23608 3.494782
v 0.9486828 -59.33424 3.372404
v 1.652844 -57.72827 1.778959
v 1.652844 -57.72827 1.778959
v 0.9486828 -59.33424 3.372404
v 1.281135 -57.45612 1.15134
v 1.281135 -57.45612 1.15134
v 0.9486828 -59.33424 3.372404
v 0.4593899 -59.43747 3.15149

vn 0.1338654 -0.9222846 0.3625894
vn 0.1338654 -0.9222846 0.3625894
vn 0.1338654 -0.9222846 0.3625894
vn 0.1338654 -0.9222846 0.3625894
vn 0.1338654 -0.9222846 0.3625894
vn 0.1338654 -0.9222846 0.3625894
vn 0.1228235 -0.8884275 0.4422793
vn 0.1228235 -0.8884275 0.4422793
vn 0.1228235 -0.8884275 0.4422793
vn 0.1228235 -0.8884275 0.4422793
vn 0.1228235 -0.8884275 0.4422793
vn 0.1228235 -0.8884275 0.4422793
vn 0.04950567 -0.8784032 0.4753493
vn 0.04950567 -0.8784032 0.4753493
vn 0.04950567 -0.8784032 0.4753493
vn 0.04950567 -0.8784032 0.4753493
vn 0.04950567 -0.8784032 0.4753493
vn 0.04950567 -0.8784032 0.4753493
vn 0.05743793 -0.9472235 0.3153862
vn 0.05743793 -0.9472235 0.3153862
vn 0.05743793 -0.9472235 0.3153862
vn 0.05743793 -0.9472235 0.3153862
vn 0.05743793 -0.9472235 0.3153862
vn 0.05743793 -0.9472235 0.3153862
vn -0.015452 -0.937285 0.3482213
vn -0.015452 -0.937285 0.3482213
vn -0.015452 -0.937285 0.3482213
vn -0.015452 -0.937285 0.3482213
vn -0.015452 -0.937285 0.3482213
vn -0.015452 -0.937285 0.3482213
vn -0.02659492 -0.9032155 0.4283625
vn -0.02659492 -0.9032155 0.4283625
vn -0.02659492 -0.9032155 0.4283625
vn 0.541639 0.6806433 0.4933072
vn 0.541639 0.6806433 0.4933072
vn 0.541639 0.6806433 0.4933072
vn 0.541639 0.6806433 0.4933072
vn 0.541639 0.6806433 0.4933072
vn 0.541639 0.6806433 0.4933072
vn -0.04301511 0.7720876 0.6340587
vn -0.04301511 0.7720876 0.6340587
vn -0.04301511 0.7720876 0.6340587
vn -0.04301511 0.7720876 0.6340587
vn -0.04301511 0.7720876 0.6340587
vn -0.04301511 0.7720876 0.6340587
vn -0.8157394 -0.2069403 -0.5401343
vn -0.8157394 -0.2069403 -0.5401343
vn -0.8157394 -0.2069403 -0.5401343
vn -0.8157394 -0.2069403 -0.5401343
vn -0.8157394 -0.2069403 -0.5401343
vn -0.8157394 -0.2069403 -0.5401343
vn -0.8157394 -0.2069403 -0.5401343
vn -0.8157394 -0.2069403 -0.5401343
vn -0.8157394 -0.2069403 -0.5401343
vn -0.8157394 -0.2069403 -0.5401343
vn -0.8157394 -0.2069403 -0.5401343
vn -0.8157394 -0.2069403 -0.5401343
vn -0.8157394 -0.2069403 -0.5401343
vn -0.8157394 -0.2069403 -0.5401343
vn -0.8157394 -0.2069403 -0.5401343
vn -0.8157394 -0.2069403 -0.5401343
vn -0.8157394 -0.2069403 -0.5401343
vn -0.8157394 -0.2069403 -0.5401343
vn -0.8157394 -0.2069403 -0.5401343
vn -0.8157394 -0.2069403 -0.5401343
vn -0.8157394 -0.2069403 -0.5401343
vn -0.7823205 -0.1084442 0.6133633
vn -0.7823205 -0.1084442 0.6133633
vn -0.7823205 -0.1084442 0.6133633
vn -0.7823205 -0.1084442 0.6133633
vn -0.7823205 -0.1084442 0.6133633
vn -0.7823205 -0.1084442 0.6133633
vn -0.7823205 -0.1084442 0.6133633
vn -0.7823205 -0.1084442 0.6133633
vn -0.7823205 -0.1084442 0.6133633
vn 0.9873887 -0.1255602 0.09642765
vn 0.9873887 -0.1255602 0.09642765
vn 0.9873887 -0.1255602 0.09642765
vn 0.9873887 -0.1255602 0.09642765
vn 0.9873887 -0.1255602 0.09642765
vn 0.9873887 -0.1255602 0.09642765
vn 0.9873887 -0.1255602 0.09642765
vn 0.9873887 -0.1255602 0.09642765
vn 0.9873887 -0.1255602 0.09642765
vn 0.9873887 -0.1255602 0.09642765
vn 0.9873887 -0.1255602 0.09642765
vn 0.9873887 -0.1255602 0.09642765
vn 0.9873887 -0.1255602 0.09642765
vn 0.9873887 -0.1255602 0.09642765
vn 0.9873887 -0.1255602 0.09642765
vn 0.5007507 0.8550965 0.1343827
vn 0.5007507 0.8550965 0.1343827
vn 0.5007507 0.8550965 0.1343827
vn 0.5007507 0.8550965 0.1343827
vn 0.5007507 0.8550965 0.1343827
vn 0.5007507 0.8550965 0.1343827
vn 0.5007507 0.8550965 0.1343827
vn 0.5007507 0.8550965 0.1343827
vn 0.5007507 0.8550965 0.1343827
vn 0.5007507 0.8550965 0.1343827
vn 0.5007507 0.8550965 0.1343827
vn 0.5007507 0.8550965 0.1343827
vn 0.5007507 0.8550965 0.1343827
vn 0.5007507 0.8550965 0.1343827
vn 0.5007507 0.8550965 0.1343827
vn 0.7151495 0.1318685 -0.6864197
vn 0.7151495 0.1318685 -0.6864197
vn 0.7151495 0.1318685 -0.6864197
vn 0.8721898 0.07737333 -0.4830098
vn 0.8721898 0.07737333 -0.4830098
vn 0.8721898 0.07737333 -0.4830098
vn 0.8721898 0.07737333 -0.4830098
vn 0.8721898 0.07737333 -0.4830098
vn 0.8721898 0.07737333 -0.4830098
vn 0.8721898 0.07737333 -0.4830098
vn 0.8721898 0.07737333 -0.4830098
vn 0.8721898 0.07737333 -0.4830098
vn 0.8721898 0.07737333 -0.4830098
vn 0.8721898 0.07737333 -0.4830098
vn 0.8721898 0.07737333 -0.4830098
vn -0.8341884 0.3261026 -0.4447323
vn -0.8341884 0.3261026 -0.4447323
vn -0.8341884 0.3261026 -0.4447323
vn -0.8341884 0.3261026 -0.4447323
vn -0.8341884 0.3261026 -0.4447323
vn -0.8341884 0.3261026 -0.4447323
vn -0.8341884 0.3261026 -0.4447323
vn -0.8341884 0.3261026 -0.4447323
vn -0.8341884 0.3261026 -0.4447323
vn -0.2135864 0.6444827 -0.7341818
vn -0.2135864 0.6444827 -0.7341818
vn -0.2135864 0.6444827 -0.7341818
vn -0.2135864 0.6444827 -0.7341818
vn -0.2135864 0.6444827 -0.7341818
vn -0.2135864 0.6444827 -0.7341818
vn -0.2135864 0.6444827 -0.7341818
vn -0.2135864 0.6444827 -0.7341818
vn -0.2135864 0.6444827 -0.7341818
vn -0.1406636 0.8292775 0.5408444
vn -0.1406636 0.8292775 0.5408444
vn -0.1406636 0.8292775 0.5408444
vn -0.1406636 0.8292775 0.5408444
vn -0.1406636 0.8292775 0.5408444
vn -0.1406636 0.8292775 0.5408444
vn -0.4239147 0.222674 0.8779024
vn -0.4239147 0.222674 0.8779024
vn -0.4239147 0.222674 0.8779024
vn -0.4239147 0.222674 0.8779024
vn -0.4239147 0.222674 0.8779024
vn -0.4239147 0.222674 0.8779024
vn -0.4239147 0.222674 0.8779024
vn -0.4239147 0.222674 0.8779024
vn -0.4239147 0.222674 0.8779024
vn -0.4239147 0.222674 0.8779024
vn -0.4239147 0.222674 0.8779024
vn -0.4239147 0.222674 0.8779024
vn -0.4239147 0.222674 0.8779024
vn -0.4239147 0.222674 0.8779024
vn -0.4239147 0.222674 0.8779024
vn -0.4239147 0.222674 0.8779024
vn -0.4239147 0.222674 0.8779024
vn -0.4239147 0.222674 0.8779024
vn -0.4239147 0.222674 0.8779024
vn -0.4239147 0.222674 0.8779024
vn -0.4239147 0.222674 0.8779024
vn 0.4038873 -0.7274573 -0.5546901
vn 0.4038873 -0.7274573 -0.5546901
vn 0.4038873 -0.7274573 -0.5546901
vn 0.4038873 -0.7274573 -0.5546901
vn 0.4038873 -0.7274573 -0.5546901
vn 0.4038873 -0.7274573 -0.5546901
vn 0.4038873 -0.7274573 -0.5546901
vn 0.4038873 -0.7274573 -0.5546901
vn 0.4038873 -0.7274573 -0.5546901

vt 0.8807279 0.2853161
vt 0.8859442 0.286843
vt 0.8749993 0.2952385
vt 0.8749993 0.2952385
vt 0.8859442 0.286843
vt 0.8862132 0.2952385
vt 0.8749993 0.2952385
vt 0.8862132 0.2952385
vt 0.8779126 0.3002844
vt 0.8779126 0.3002844
vt 0.8862132 0.2952385
vt 0.8867795 0.3035318
vt 0.8779126 0.3002844
vt 0.8734441 0.2988697
vt 0.8749993 0.2952385
vt 0.8749993 0.2952385
vt 0.8734441 0.2988697
vt 0.8731363 0.2984653
vt 0.8703936 0.2872613
vt 0.8732768 0.282437
vt 0.8749993 0.2952385
vt 0.8749993 0.2952385
vt 0.8732768 0.282437
vt 0.8807279 0.2853161
vt 0.8703936 0.2872613
vt 0.8749993 0.2952385
vt 0.8675494 0.2916604
vt 0.8675494 0.2916604
vt 0.8749993 0.2952385
vt 0.8705986 0.2952385
vt 0.8705986 0.2952385
vt 0.8749993 0.2952385
vt 0.8731363 0.2984653
vt 0.3771734 0.4863422
vt 0.4039874 0.4346267
vt 0.4713132 0.5224099
vt 0.4713132 0.5224099
vt 0.4039874 0.4346267
vt 0.5002039 0.3786125
vt 0.4571608 0.4774448
vt 0.4537293 0.542886
vt 0.3772343 0.5402515
vt 0.3772343 0.5402515
vt 0.4537293 0.542886
vt 0.4249042 0.5804914
vt 0.5209332 0.6866319
vt 0.3201794 0.409008
vt 0.5279461 0.6877569
vt 0.5279461 0.6877569
vt 0.3201794 0.409008
vt 0.5459659 0.6886476
vt 0.5459659 0.6886476
vt 0.3201794 0.409008
vt 0.5825586 0.6467577
vt 0.5825586 0.6467577
vt 0.3201794 0.409008
vt 0.5723112 0.3676713
vt 0.5723112 0.3676713
vt 0.3201794 0.409008
vt 0.5114264 0.346745
vt 0.5114264 0.346745
vt 0.3201794 0.409008
vt 0.3529282 0.3320348
vt 0.3529282 0.3320348
vt 0.3201794 0.409008
vt 0.3363288 0.3673244
vt 0.3321942 0.4907487
vt 0.3410916 0.4585343
vt 0.3242578 0.5301072
vt 0.3242578 0.5301072
vt 0.3410916 0.4585343
vt 0.4930504 0.546805
vt 0.4930504 0.546805
vt 0.3410916 0.4585343
vt 0.342601 0.454545
vt 0.5907997 0.3471154
vt 0.6142011 0.3956197
vt 0.475865 0.3680978
vt 0.475865 0.3680978
vt 0.6142011 0.3956197
vt 0.4097674 0.4779229
vt 0.4097674 0.4779229
vt 0.6142011 0.3956197
vt 0.3977199 0.5920326
vt 0.3977199 0.5920326
vt 0.6142011 0.3956197
vt 0.4823154 0.6200843
vt 0.4823154 0.6200843
vt 0.6142011 0.3956197
vt 0.6345273 0.4498197
vt 0.3726543 0.4816825
vt 0.4016857 0.4587874
vt 0.3492389 0.5098466
vt 0.3492389 0.5098466
vt 0.4016857 0.4587874
vt 0.3966698 0.6093211
vt 0.3966698 0.6093211
vt 0.4016857 0.4587874
vt 0.4558951 0.6476671
vt 0.4558951 0.6476671
vt 0.4016857 0.4587874
vt 0.491119 0.6017082
vt 0.491119 0.6017082
vt 0.4016857 0.4587874
vt 0.4857046 0.4865859
vt 0.4237557 0.6678526
vt 0.4135129 0.6563301
vt 0.4446023 0.6666526
vt 0.4248527 0.6661463
vt 0.3685901 0.6143652
vt 0.4511089 0.6732624
vt 0.4511089 0.6732624
vt 0.3685901 0.6143652
vt 0.4578592 0.672231
vt 0.4578592 0.672231
vt 0.3685901 0.6143652
vt 0.4919815 0.5917514
vt 0.4919815 0.5917514
vt 0.3685901 0.6143652
vt 0.397387 0.5555055
vt 0.5619043 0.3837925
vt 0.611304 0.436408
vt 0.4678161 0.3787906
vt 0.4678161 0.3787906
vt 0.611304 0.436408
vt 0.5580885 0.625194
vt 0.5580885 0.625194
vt 0.611304 0.436408
vt 0.6176982 0.5581588
vt 0.516883 0.6292816
vt 0.4921597 0.5649092
vt 0.5267835 0.6160715
vt 0.5267835 0.6160715
vt 0.4921597 0.5649092
vt 0.5748332 0.5299572
vt 0.5748332 0.5299572
vt 0.4921597 0.5649092
vt 0.5121202 0.4482728
vt 0.4301686 0.5988674
vt 0.3817299 0.5392109
vt 0.4484369 0.5597714
vt 0.4484369 0.5597714
vt 0.3817299 0.5392109
vt 0.4022623 0.525757
vt 0.1746054 0.3995668
vt 0.2151921 0.3505421
vt 0.3220264 0.6505735
vt 0.3220264 0.6505735
vt 0.2151921 0.3505421
vt 0.4148912 0.7152179
vt 0.4148912 0.7152179
vt 0.2151921 0.3505421
vt 0.590256 0.7327126
vt 0.590256 0.7327126
vt 0.2151921 0.3505421
vt 0.6019848 0.6912259
vt 0.6019848 0.6912259
vt 0.2151921 0.3505421
vt 0.6130948 0.5274633
vt 0.6130948 0.5274633
vt 0.2151921 0.3505421
vt 0.5310307 0.342601
vt 0.5310307 0.342601
vt 0.2151921 0.3505421
vt 0.3057458 0.2519489
vt 0.5662921 0.3592754
vt 0.6075538 0.376653
vt 0.4427037 0.602927
vt 0.4427037 0.602927
vt 0.6075538 0.376653
vt 0.465491 0.6920509
vt 0.465491 0.6920509
vt 0.6075538 0.376653
vt 0.6640134 0.4080236

usemtl Material0
usemap Material0
f 1/1/1 2/2/2 3/3/3
f 4/4/4 5/5/5 6/6/6
f 7/7/7 8/8/8 9/9/9
f 10/10/10 11/11/11 12/12/12
f 13/13/13 14/14/14 15/15/15
f 16/16/16 17/17/17 18/18/18
f 19/19/19 20/20/20 21/21/21
f 22/22/22 23/23/23 24/24/24
f 25/25/25 26/26/26 27/27/27
f 28/28/28 29/29/29 30/30/30
f 31/31/31 32/32/32 33/33/33

usemtl Material1
usemap Material1
f 34/34/34 35/35/35 36/36/36
f 37/37/37 38/38/38 39/39/39
f 40/40/40 41/41/41 42/42/42
f 43/43/43 44/44/44 45/45/45
f 46/46/46 47/47/47 48/48/48
f 49/49/49 50/50/50 51/51/51
f 52/52/52 53/53/53 54/54/54
f 55/55/55 56/56/56 57/57/57
f 58/58/58 59/59/59 60/60/60
f 61/61/61 62/62/62 63/63/63
f 64/64/64 65/65/65 66/66/66
f 67/67/67 68/68/68 69/69/69
f 70/70/70 71/71/71 72/72/72
f 73/73/73 74/74/74 75/75/75
f 76/76/76 77/77/77 78/78/78
f 79/79/79 80/80/80 81/81/81
f 82/82/82 83/83/83 84/84/84
f 85/85/85 86/86/86 87/87/87
f 88/88/88 89/89/89 90/90/90
f 91/91/91 92/92/92 93/93/93
f 94/94/94 95/95/95 96/96/96
f 97/97/97 98/98/98 99/99/99
f 100/100/100 101/101/101 102/102/102
f 103/103/103 104/104/104 105/105/105
f 106/106/106 107/107/107 108/108/108
f 109/109/109 110/110/110 111/111/111
f 112/112/112 113/113/113 114/114/114
f 115/115/115 116/116/116 117/117/117
f 118/118/118 119/119/119 120/120/120
f 121/121/121 122/122/122 123/123/123
f 124/124/124 125/125/125 126/126/126
f 127/127/127 128/128/128 129/129/129
f 130/130/130 131/131/131 132/132/132
f 133/133/133 134/134/134 135/135/135
f 136/136/136 137/137/137 138/138/138
f 139/139/139 140/140/140 141/141/141
f 142/142/142 143/143/143 144/144/144
f 145/145/145 146/146/146 147/147/147
f 148/148/148 149/149/149 150/150/150
f 151/151/151 152/152/152 153/153/153
f 154/154/154 155/155/155 156/156/156
f 157/157/157 158/158/158 159/159/159
f 160/160/160 161/161/161 162/162/162
f 163/163/163 164/164/164 165/165/165
f 166/166/166 167/167/167 168/168/168
f 169/169/169 170/170/170 171/171/171
f 172/172/172 173/173/173 174/174/174
