g  Instance
v 4.204194 -58.78388 -2.184643
v 4.360068 -58.64188 -2.51152
v 4.878249 -58.52862 -1.725498
v 4.360068 -58.64188 -2.51152
v 3.634432 -58.93661 -2.526242
v 4.138026 -58.64124 -2.80157
v 4.138026 -58.64124 -2.80157
v 3.634432 -58.93661 -2.526242
v 3.704984 -58.88562 -2.595025
v 4.204194 -58.78388 -2.184643
v 3.629251 -58.93995 -2.521167
v 4.360068 -58.64188 -2.51152
v 4.360068 -58.64188 -2.51152
v 3.629251 -58.93995 -2.521167
v 3.634432 -58.93661 -2.526242
v 6.341103 -57.609 -1.363033
v 5.769979 -58.05962 -1.000724
v 5.4226 -58.27605 -1.313212
v 6.364447 -57.5873 -1.378509
v 6.440168 -57.43192 -1.683707
v 6.487568 -57.44295 -1.466247
v 5.538188 -57.88983 -2.660649
v 6.179755 -57.33714 -2.717306
v 6.355589 -57.59653 -1.372433
v 6.355589 -57.59653 -1.372433
v 6.179755 -57.33714 -2.717306
v 6.364447 -57.5873 -1.378509
v 6.364447 -57.5873 -1.378509
v 6.179755 -57.33714 -2.717306
v 6.440168 -57.43192 -1.683707
v 6.355589 -57.59653 -1.372433
v 6.341103 -57.609 -1.363033
v 5.538188 -57.88983 -2.660649
v 5.538188 -57.88983 -2.660649
v 6.341103 -57.609 -1.363033
v 5.211386 -58.388 -1.485649
v 5.211386 -58.388 -1.485649
v 6.341103 -57.609 -1.363033
v 5.4226 -58.27605 -1.313212
v 5.538188 -57.88983 -2.660649
v 5.211386 -58.388 -1.485649
v 4.360068 -58.64188 -2.51152
v 4.360068 -58.64188 -2.51152
v 5.211386 -58.388 -1.485649
v 4.878249 -58.52862 -1.725498
v 5.713038 -57.35167 -3.57622
v 5.8809 -57.17697 -3.660957
v 5.538188 -57.88983 -2.660649
v 5.538188 -57.88983 -2.660649
v 5.8809 -57.17697 -3.660957
v 6.179755 -57.33714 -2.717306
v 5.538188 -57.88983 -2.660649
v 5.075964 -57.9427 -3.25883
v 5.713038 -57.35167 -3.57622
v 4.360068 -58.64188 -2.51152
v 4.460029 -58.41823 -2.957569
v 5.538188 -57.88983 -2.660649
v 5.538188 -57.88983 -2.660649
v 4.460029 -58.41823 -2.957569
v 5.075964 -57.9427 -3.25883
v 4.138026 -58.64124 -2.80157
v 4.460029 -58.41823 -2.957569
v 4.360068 -58.64188 -2.51152
v 2.994832 -56.9688 -1.753569
v 2.942627 -56.4561 -1.300418
v 3.956759 -56.04117 -2.677101
v 3.956759 -56.04117 -2.677101
v 2.942627 -56.4561 -1.300418
v 3.442121 -56.13073 -1.891866
v 2.933128 -57.80094 -1.74174
v 2.840963 -56.8531 -0.9261792
v 2.994832 -56.9688 -1.753569
v 2.994832 -56.9688 -1.753569
v 2.840963 -56.8531 -0.9261792
v 2.942627 -56.4561 -1.300418
v 2.942627 -56.4561 -1.300418
v 2.840963 -56.8531 -0.9261792
v 2.906804 -56.46323 -1.120199
v 2.906804 -56.46323 -1.120199
v 2.840963 -56.8531 -0.9261792
v 2.865106 -56.64109 -0.9721737
v 3.704984 -58.88562 -2.595025
v 3.634432 -58.93661 -2.526242
v 4.314169 -55.95935 -3.036373
v 4.314169 -55.95935 -3.036373
v 3.634432 -58.93661 -2.526242
v 3.956759 -56.04117 -2.677101
v 3.956759 -56.04117 -2.677101
v 3.634432 -58.93661 -2.526242
v 2.994832 -56.9688 -1.753569
v 2.994832 -56.9688 -1.753569
v 3.634432 -58.93661 -2.526242
v 2.933128 -57.80094 -1.74174
v 2.933128 -57.80094 -1.74174
v 3.634432 -58.93661 -2.526242
v 3.629251 -58.93995 -2.521167
v 5.37249 -56.04743 -1.223103
v 4.88211 -55.69815 -2.36365
v 4.436904 -55.68798 -0.8535413
v 2.865106 -56.64109 -0.9721737
v 2.928033 -56.43221 -0.999034
v 2.906804 -56.46323 -1.120199
v 5.37249 -56.04743 -1.223103
v 6.487568 -57.44295 -1.466247
v 4.88211 -55.69815 -2.36365
v 4.88211 -55.69815 -2.36365
v 6.487568 -57.44295 -1.466247
v 4.8195 -55.81464 -3.269232
v 4.8195 -55.81464 -3.269232
v 6.487568 -57.44295 -1.466247
v 5.8809 -57.17697 -3.660957
v 5.8809 -57.17697 -3.660957
v 6.487568 -57.44295 -1.466247
v 6.179755 -57.33714 -2.717306
v 6.179755 -57.33714 -2.717306
v 6.487568 -57.44295 -1.466247
v 6.440168 -57.43192 -1.683707
v 4.043365 -55.79778 -0.6448375
v 3.415318 -56.03268 -0.8773962
v 3.97785 -56.72733 -0.4241641
v 3.97785 -56.72733 -0.4241641
v 3.415318 -56.03268 -0.8773962
v 2.840963 -56.8531 -0.9261792
v 2.840963 -56.8531 -0.9261792
v 3.415318 -56.03268 -0.8773962
v 2.865106 -56.64109 -0.9721737
v 2.865106 -56.64109 -0.9721737
v 3.415318 -56.03268 -0.8773962
v 2.928033 -56.43221 -0.999034
v 4.204194 -58.78388 -2.184643
v 4.878249 -58.52862 -1.725498
v 3.629251 -58.93995 -2.521167
v 3.629251 -58.93995 -2.521167
v 4.878249 -58.52862 -1.725498
v 2.933128 -57.80094 -1.74174
v 2.933128 -57.80094 -1.74174
v 4.878249 -58.52862 -1.725498
v 2.840963 -56.8531 -0.9261792
v 2.840963 -56.8531 -0.9261792
v 4.878249 -58.52862 -1.725498
v 3.97785 -56.72733 -0.4241641
v 3.97785 -56.72733 -0.4241641
v 4.878249 -58.52862 -1.725498
v 5.769979 -58.05962 -1.000724
v 5.769979 -58.05962 -1.000724
v 4.878249 -58.52862 -1.725498
v 5.4226 -58.27605 -1.313212
v 5.4226 -58.27605 -1.313212
v 4.878249 -58.52862 -1.725498
v 5.211386 -58.388 -1.485649
v 6.355589 -57.59653 -1.372433
v 6.364447 -57.5873 -1.378509
v 6.341103 -57.609 -1.363033
v 6.341103 -57.609 -1.363033
v 6.364447 -57.5873 -1.378509
v 5.769979 -58.05962 -1.000724
v 5.769979 -58.05962 -1.000724
v 6.364447 -57.5873 -1.378509
v 3.97785 -56.72733 -0.4241641
v 3.97785 -56.72733 -0.4241641
v 6.364447 -57.5873 -1.378509
v 4.043365 -55.79778 -0.6448375
v 4.043365 -55.79778 -0.6448375
v 6.364447 -57.5873 -1.378509
v 4.436904 -55.68798 -0.8535413
v 4.436904 -55.68798 -0.8535413
v 6.364447 -57.5873 -1.378509
v 5.37249 -56.04743 -1.223103
v 5.37249 -56.04743 -1.223103
v 6.364447 -57.5873 -1.378509
v 6.487568 -57.44295 -1.466247
v 4.88211 -55.69815 -2.36365
v 4.8195 -55.81464 -3.269232
v 4.436904 -55.68798 -0.8535413
v 4.436904 -55.68798 -0.8535413
v 4.8195 -55.81464 -3.269232
v 4.043365 -55.79778 -0.6448375
v 4.043365 -55.79778 -0.6448375
v 4.8195 -55.81464 -3.269232
v 3.415318 -56.03268 -0.8773962
v 3.415318 -56.03268 -0.8773962
v 4.8195 -55.81464 -3.269232
v 3.442121 -56.13073 -1.891866
v 3.442121 -56.13073 -1.891866
v 4.8195 -55.81464 -3.269232
v 3.956759 -56.04117 -2.677101
v 3.956759 -56.04117 -2.677101
v 4.8195 -55.81464 -3.269232
v 4.314169 -55.95935 -3.036373
v 3.415318 -56.03268 -0.8773962
v 3.442121 -56.13073 -1.891866
v 2.928033 -56.43221 -0.999034
v 2.928033 -56.43221 -0.999034
v 3.442121 -56.13073 -1.891866
v 2.906804 -56.46323 -1.120199
v 2.906804 -56.46323 -1.120199
v 3.442121 -56.13073 -1.891866
v 2.942627 -56.4561 -1.300418
v 5.713038 -57.35167 -3.57622
v 5.075964 -57.9427 -3.25883
v 5.8809 -57.17697 -3.660957
v 5.8809 -57.17697 -3.660957
v 5.075964 -57.9427 -3.25883
v 4.8195 -55.81464 -3.269232
v 4.8195 -55.81464 -3.269232
v 5.075964 -57.9427 -3.25883
v 4.314169 -55.95935 -3.036373
v 4.314169 -55.95935 -3.036373
v 5.075964 -57.9427 -3.25883
v 3.704984 -58.88562 -2.595025
v 3.704984 -58.88562 -2.595025
v 5.075964 -57.9427 -3.25883
v 4.138026 -58.64124 -2.80157
v 4.138026 -58.64124 -2.80157
v 5.075964 -57.9427 -3.25883
v 4.460029 -58.41823 -2.957569

vn 0.4472973 -0.878406 -0.168309
vn 0.4472973 -0.878406 -0.168309
vn 0.4472973 -0.878406 -0.168309
vn 0.3659411 -0.8868542 -0.2820934
vn 0.3659411 -0.8868542 -0.2820934
vn 0.3659411 -0.8868542 -0.2820934
vn 0.3659411 -0.8868542 -0.2820934
vn 0.3659411 -0.8868542 -0.2820934
vn 0.3659411 -0.8868542 -0.2820934
vn 0.3712342 -0.9032194 -0.2153596
vn 0.3712342 -0.9032194 -0.2153596
vn 0.3712342 -0.9032194 -0.2153596
vn 0.3712342 -0.9032194 -0.2153596
vn 0.3712342 -0.9032194 -0.2153596
vn 0.3712342 -0.9032194 -0.2153596
vn 0.5822671 -0.8082812 -0.08744454
vn 0.5822671 -0.8082812 -0.08744454
vn 0.5822671 -0.8082812 -0.08744454
vn 0.6890103 -0.7005489 -0.1857308
vn 0.6890103 -0.7005489 -0.1857308
vn 0.6890103 -0.7005489 -0.1857308
vn 0.6242885 -0.7478308 -0.2258605
vn 0.6242885 -0.7478308 -0.2258605
vn 0.6242885 -0.7478308 -0.2258605
vn 0.6242885 -0.7478308 -0.2258605
vn 0.6242885 -0.7478308 -0.2258605
vn 0.6242885 -0.7478308 -0.2258605
vn 0.6242885 -0.7478308 -0.2258605
vn 0.6242885 -0.7478308 -0.2258605
vn 0.6242885 -0.7478308 -0.2258605
vn 0.5715591 -0.8004813 -0.1804156
vn 0.5715591 -0.8004813 -0.1804156
vn 0.5715591 -0.8004813 -0.1804156
vn 0.5715591 -0.8004813 -0.1804156
vn 0.5715591 -0.8004813 -0.1804156
vn 0.5715591 -0.8004813 -0.1804156
vn 0.5715591 -0.8004813 -0.1804156
vn 0.5715591 -0.8004813 -0.1804156
vn 0.5715591 -0.8004813 -0.1804156
vn 0.5063331 -0.8355137 -0.2134093
vn 0.5063331 -0.8355137 -0.2134093
vn 0.5063331 -0.8355137 -0.2134093
vn 0.5063331 -0.8355137 -0.2134093
vn 0.5063331 -0.8355137 -0.2134093
vn 0.5063331 -0.8355137 -0.2134093
vn 0.603229 -0.7325612 -0.315387
vn 0.603229 -0.7325612 -0.315387
vn 0.603229 -0.7325612 -0.315387
vn 0.603229 -0.7325612 -0.315387
vn 0.603229 -0.7325612 -0.315387
vn 0.603229 -0.7325612 -0.315387
vn 0.5384145 -0.7673663 -0.3482225
vn 0.5384145 -0.7673663 -0.3482225
vn 0.5384145 -0.7673663 -0.3482225
vn 0.4853462 -0.820311 -0.3025373
vn 0.4853462 -0.820311 -0.3025373
vn 0.4853462 -0.820311 -0.3025373
vn 0.4853462 -0.820311 -0.3025373
vn 0.4853462 -0.820311 -0.3025373
vn 0.4853462 -0.820311 -0.3025373
vn 0.4255191 -0.8435689 -0.327605
vn 0.4255191 -0.8435689 -0.327605
vn 0.4255191 -0.8435689 -0.327605
vn -0.801859 0.3477871 -0.4858668
vn -0.801859 0.3477871 -0.4858668
vn -0.801859 0.3477871 -0.4858668
vn -0.801859 0.3477871 -0.4858668
vn -0.801859 0.3477871 -0.4858668
vn -0.801859 0.3477871 -0.4858668
vn -0.9789404 0.06986259 -0.1918207
vn -0.9789404 0.06986259 -0.1918207
vn -0.9789404 0.06986259 -0.1918207
vn -0.9789404 0.06986259 -0.1918207
vn -0.9789404 0.06986259 -0.1918207
vn -0.9789404 0.06986259 -0.1918207
vn -0.9789404 0.06986259 -0.1918207
vn -0.9789404 0.06986259 -0.1918207
vn -0.9789404 0.06986259 -0.1918207
vn -0.9789404 0.06986259 -0.1918207
vn -0.9789404 0.06986259 -0.1918207
vn -0.9789404 0.06986259 -0.1918207
vn -0.7131613 0.04293583 -0.6996838
vn -0.7131613 0.04293583 -0.6996838
vn -0.7131613 0.04293583 -0.6996838
vn -0.7131613 0.04293583 -0.6996838
vn -0.7131613 0.04293583 -0.6996838
vn -0.7131613 0.04293583 -0.6996838
vn -0.7131613 0.04293583 -0.6996838
vn -0.7131613 0.04293583 -0.6996838
vn -0.7131613 0.04293583 -0.6996838
vn -0.7131613 0.04293583 -0.6996838
vn -0.7131613 0.04293583 -0.6996838
vn -0.7131613 0.04293583 -0.6996838
vn -0.7131613 0.04293583 -0.6996838
vn -0.7131613 0.04293583 -0.6996838
vn -0.7131613 0.04293583 -0.6996838
vn 0.394038 0.9124854 0.1100208
vn 0.394038 0.9124854 0.1100208
vn 0.394038 0.9124854 0.1100208
vn -0.9503281 0.2978873 0.09022094
vn -0.9503281 0.2978873 0.09022094
vn -0.9503281 0.2978873 0.09022094
vn 0.7626473 0.632755 -0.1341281
vn 0.7626473 0.632755 -0.1341281
vn 0.7626473 0.632755 -0.1341281
vn 0.7626473 0.632755 -0.1341281
vn 0.7626473 0.632755 -0.1341281
vn 0.7626473 0.632755 -0.1341281
vn 0.7626473 0.632755 -0.1341281
vn 0.7626473 0.632755 -0.1341281
vn 0.7626473 0.632755 -0.1341281
vn 0.7626473 0.632755 -0.1341281
vn 0.7626473 0.632755 -0.1341281
vn 0.7626473 0.632755 -0.1341281
vn 0.7626473 0.632755 -0.1341281
vn 0.7626473 0.632755 -0.1341281
vn 0.7626473 0.632755 -0.1341281
vn -0.4142451 0.2377661 0.8785604
vn -0.4142451 0.2377661 0.8785604
vn -0.4142451 0.2377661 0.8785604
vn -0.4142451 0.2377661 0.8785604
vn -0.4142451 0.2377661 0.8785604
vn -0.4142451 0.2377661 0.8785604
vn -0.4142451 0.2377661 0.8785604
vn -0.4142451 0.2377661 0.8785604
vn -0.4142451 0.2377661 0.8785604
vn -0.4142451 0.2377661 0.8785604
vn -0.4142451 0.2377661 0.8785604
vn -0.4142451 0.2377661 0.8785604
vn -0.2475706 -0.645641 0.7223964
vn -0.2475706 -0.645641 0.7223964
vn -0.2475706 -0.645641 0.7223964
vn -0.2475706 -0.645641 0.7223964
vn -0.2475706 -0.645641 0.7223964
vn -0.2475706 -0.645641 0.7223964
vn -0.2475706 -0.645641 0.7223964
vn -0.2475706 -0.645641 0.7223964
vn -0.2475706 -0.645641 0.7223964
vn -0.2475706 -0.645641 0.7223964
vn -0.2475706 -0.645641 0.7223964
vn -0.2475706 -0.645641 0.7223964
vn -0.2475706 -0.645641 0.7223964
vn -0.2475706 -0.645641 0.7223964
vn -0.2475706 -0.645641 0.7223964
vn -0.2475706 -0.645641 0.7223964
vn -0.2475706 -0.645641 0.7223964
vn -0.2475706 -0.645641 0.7223964
vn -0.2475706 -0.645641 0.7223964
vn -0.2475706 -0.645641 0.7223964
vn -0.2475706 -0.645641 0.7223964
vn 0.4207816 0.181359 0.8888487
vn 0.4207816 0.181359 0.8888487
vn 0.4207816 0.181359 0.8888487
vn 0.4207816 0.181359 0.8888487
vn 0.4207816 0.181359 0.8888487
vn 0.4207816 0.181359 0.8888487
vn 0.4207816 0.181359 0.8888487
vn 0.4207816 0.181359 0.8888487
vn 0.4207816 0.181359 0.8888487
vn 0.4207816 0.181359 0.8888487
vn 0.4207816 0.181359 0.8888487
vn 0.4207816 0.181359 0.8888487
vn 0.4207816 0.181359 0.8888487
vn 0.4207816 0.181359 0.8888487
vn 0.4207816 0.181359 0.8888487
vn 0.4207816 0.181359 0.8888487
vn 0.4207816 0.181359 0.8888487
vn 0.4207816 0.181359 0.8888487
vn 0.4207816 0.181359 0.8888487
vn 0.4207816 0.181359 0.8888487
vn 0.4207816 0.181359 0.8888487
vn -0.3160419 0.9435104 -0.09952822
vn -0.3160419 0.9435104 -0.09952822
vn -0.3160419 0.9435104 -0.09952822
vn -0.3160419 0.9435104 -0.09952822
vn -0.3160419 0.9435104 -0.09952822
vn -0.3160419 0.9435104 -0.09952822
vn -0.3160419 0.9435104 -0.09952822
vn -0.3160419 0.9435104 -0.09952822
vn -0.3160419 0.9435104 -0.09952822
vn -0.3160419 0.9435104 -0.09952822
vn -0.3160419 0.9435104 -0.09952822
vn -0.3160419 0.9435104 -0.09952822
vn -0.3160419 0.9435104 -0.09952822
vn -0.3160419 0.9435104 -0.09952822
vn -0.3160419 0.9435104 -0.09952822
vn -0.3160419 0.9435104 -0.09952822
vn -0.3160419 0.9435104 -0.09952822
vn -0.3160419 0.9435104 -0.09952822
vn -0.6175489 0.7811539 -0.09182681
vn -0.6175489 0.7811539 -0.09182681
vn -0.6175489 0.7811539 -0.09182681
vn -0.6175489 0.7811539 -0.09182681
vn -0.6175489 0.7811539 -0.09182681
vn -0.6175489 0.7811539 -0.09182681
vn -0.6175489 0.7811539 -0.09182681
vn -0.6175489 0.7811539 -0.09182681
vn -0.6175489 0.7811539 -0.09182681
vn -0.4052349 -0.05329322 -0.912658
vn -0.4052349 -0.05329322 -0.912658
vn -0.4052349 -0.05329322 -0.912658
vn -0.4052349 -0.05329322 -0.912658
vn -0.4052349 -0.05329322 -0.912658
vn -0.4052349 -0.05329322 -0.912658
vn -0.4052349 -0.05329322 -0.912658
vn -0.4052349 -0.05329322 -0.912658
vn -0.4052349 -0.05329322 -0.912658
vn -0.4052349 -0.05329322 -0.912658
vn -0.4052349 -0.05329322 -0.912658
vn -0.4052349 -0.05329322 -0.912658
vn -0.4052349 -0.05329322 -0.912658
vn -0.4052349 -0.05329322 -0.912658
vn -0.4052349 -0.05329322 -0.912658
vn -0.4052349 -0.05329322 -0.912658
vn -0.4052349 -0.05329322 -0.912658
vn -0.4052349 -0.05329322 -0.912658

vt 0.9286727 0.2022729
vt 0.9318175 0.196826
vt 0.9391837 0.2095847
vt 0.9318175 0.196826
vt 0.9197903 0.196826
vt 0.9287252 0.19147
vt 0.9287252 0.19147
vt 0.9197903 0.196826
vt 0.9211043 0.195509
vt 0.9286727 0.2022729
vt 0.9196956 0.1969115
vt 0.9318175 0.196826
vt 0.9318175 0.196826
vt 0.9196956 0.1969115
vt 0.9197903 0.196826
vt 0.05644414 0.2165085
vt 0.0450888 0.2213829
vt 0.03906879 0.2165085
vt 0.05693505 0.216306
vt 0.05941254 0.2120148
vt 0.05966116 0.2151184
vt 0.0454545 0.196826
vt 0.0579169 0.196826
vt 0.05674513 0.2163821
vt 0.05674513 0.2163821
vt 0.0579169 0.196826
vt 0.05693505 0.216306
vt 0.05693505 0.216306
vt 0.0579169 0.196826
vt 0.05941254 0.2120148
vt 0.05674513 0.2163821
vt 0.05644414 0.2165085
vt 0.0454545 0.196826
vt 0.0454545 0.196826
vt 0.05644414 0.2165085
vt 0.03564899 0.2138098
vt 0.03564899 0.2138098
vt 0.05644414 0.2165085
vt 0.03906879 0.2165085
vt 0.0454545 0.196826
vt 0.03564899 0.2138098
vt 0.02272725 0.196826
vt 0.02272725 0.196826
vt 0.03564899 0.2138098
vt 0.03009341 0.2095847
vt 0.05327537 0.1832798
vt 0.05687972 0.1822276
vt 0.0454545 0.196826
vt 0.0454545 0.196826
vt 0.05687972 0.1822276
vt 0.0579169 0.196826
vt 0.0454545 0.196826
vt 0.03953515 0.1865733
vt 0.05327537 0.1832798
vt 0.02272725 0.196826
vt 0.02663384 0.1900596
vt 0.0454545 0.196826
vt 0.0454545 0.196826
vt 0.02663384 0.1900596
vt 0.03953515 0.1865733
vt 0.019635 0.19147
vt 0.02663384 0.1900596
vt 0.02272725 0.196826
vt 0.4444663 0.4418974
vt 0.495038 0.3835815
vt 0.5832337 0.5607464
vt 0.5832337 0.5607464
vt 0.495038 0.3835815
vt 0.5509631 0.4596969
vt 0.4232213 0.4986804
vt 0.5172674 0.4154443
vt 0.5068043 0.4998898
vt 0.5068043 0.4998898
vt 0.5172674 0.4154443
vt 0.5576666 0.4536356
vt 0.5576666 0.4536356
vt 0.5172674 0.4154443
vt 0.5566915 0.4352455
vt 0.5566915 0.4352455
vt 0.5172674 0.4154443
vt 0.5386249 0.4201368
vt 0.2583149 0.5312604
vt 0.2507254 0.5180128
vt 0.665279 0.616259
vt 0.665279 0.616259
vt 0.2507254 0.5180128
vt 0.6510845 0.5470675
vt 0.6510845 0.5470675
vt 0.2507254 0.5180128
vt 0.5157204 0.3691948
vt 0.5157204 0.3691948
vt 0.2507254 0.5180128
vt 0.4009122 0.3669165
vt 0.4009122 0.3669165
vt 0.2507254 0.5180128
vt 0.2502238 0.5170377
vt 0.5055667 0.4954833
vt 0.4473446 0.6089836
vt 0.4065141 0.4587077
vt 0.4945129 0.472757
vt 0.5160486 0.4754196
vt 0.5124952 0.4874297
vt 0.4414989 0.4629596
vt 0.618692 0.4872985
vt 0.383769 0.5771443
vt 0.383769 0.5771443
vt 0.618692 0.4872985
vt 0.3886959 0.6678058
vt 0.3886959 0.6678058
vt 0.618692 0.4872985
vt 0.5599449 0.7070143
vt 0.5599449 0.7070143
vt 0.618692 0.4872985
vt 0.5910998 0.6125463
vt 0.5910998 0.6125463
vt 0.618692 0.4872985
vt 0.6148387 0.5090685
vt 0.6856709 0.6543706
vt 0.5793897 0.7545858
vt 0.5130203 0.5592745
vt 0.5130203 0.5592745
vt 0.5793897 0.7545858
vt 0.3740888 0.7756057
vt 0.3740888 0.7756057
vt 0.5793897 0.7545858
vt 0.4144083 0.7954257
vt 0.4144083 0.7954257
vt 0.5793897 0.7545858
vt 0.4581452 0.8070045
vt 0.474979 0.7386099
vt 0.398498 0.6441982
vt 0.5433595 0.8078014
vt 0.5433595 0.8078014
vt 0.398498 0.6441982
vt 0.6937526 0.6475452
vt 0.6937526 0.6475452
vt 0.398498 0.6441982
vt 0.7542248 0.4798543
vt 0.7542248 0.4798543
vt 0.398498 0.6441982
vt 0.6097102 0.3766343
vt 0.6097102 0.3766343
vt 0.398498 0.6441982
vt 0.3039926 0.4951739
vt 0.3039926 0.4951739
vt 0.398498 0.6441982
vt 0.3390899 0.5594245
vt 0.3390899 0.5594245
vt 0.398498 0.6441982
vt 0.3614318 0.5948828
vt 0.6990966 0.7635113
vt 0.6980278 0.7663521
vt 0.7003248 0.7591048
vt 0.7003248 0.7591048
vt 0.6980278 0.7663521
vt 0.7406021 0.5894544
vt 0.7406021 0.5894544
vt 0.6980278 0.7663521
vt 0.3259079 0.3194763
vt 0.3259079 0.3194763
vt 0.6980278 0.7663521
vt 0.1483211 0.4228041
vt 0.1483211 0.4228041
vt 0.6980278 0.7663521
vt 0.1601108 0.5205348
vt 0.1601108 0.5205348
vt 0.6980278 0.7663521
vt 0.3103914 0.6935885
vt 0.3103914 0.6935885
vt 0.6980278 0.7663521
vt 0.6800455 0.8074451
vt 0.558051 0.5785975
vt 0.5485348 0.6685089
vt 0.5166674 0.4286545
vt 0.5166674 0.4286545
vt 0.5485348 0.6685089
vt 0.4763525 0.4079298
vt 0.4763525 0.4079298
vt 0.5485348 0.6685089
vt 0.4101425 0.4310218
vt 0.4101425 0.4310218
vt 0.5485348 0.6685089
vt 0.4095752 0.5317573
vt 0.4095752 0.5317573
vt 0.5485348 0.6685089
vt 0.4606016 0.6097243
vt 0.4606016 0.6097243
vt 0.5485348 0.6685089
vt 0.4966506 0.6453888
vt 0.4672067 0.4305764
vt 0.463283 0.5311573
vt 0.4050047 0.4426381
vt 0.4050047 0.4426381
vt 0.463283 0.5311573
vt 0.4014607 0.4546528
vt 0.4014607 0.4546528
vt 0.463283 0.5311573
vt 0.4046718 0.4725226
vt 0.4851421 0.2755378
vt 0.5505787 0.3504765
vt 0.4658566 0.2557976
vt 0.4658566 0.2557976
vt 0.5505787 0.3504765
vt 0.3220639 0.3806423
vt 0.3220639 0.3806423
vt 0.5505787 0.3504765
vt 0.3390665 0.4400832
vt 0.3390665 0.4400832
vt 0.5505787 0.3504765
vt 0.6559598 0.5117311
vt 0.6559598 0.5117311
vt 0.5505787 0.3504765
vt 0.6284332 0.4608032
vt 0.6284332 0.4608032
vt 0.5505787 0.3504765
vt 0.6035224 0.422926

usemtl Material0
usemap Material0
f 1/1/1 2/2/2 3/3/3
f 4/4/4 5/5/5 6/6/6
f 7/7/7 8/8/8 9/9/9
f 10/10/10 11/11/11 12/12/12
f 13/13/13 14/14/14 15/15/15
f 16/16/16 17/17/17 18/18/18
f 19/19/19 20/20/20 21/21/21
f 22/22/22 23/23/23 24/24/24
f 25/25/25 26/26/26 27/27/27
f 28/28/28 29/29/29 30/30/30
f 31/31/31 32/32/32 33/33/33
f 34/34/34 35/35/35 36/36/36
f 37/37/37 38/38/38 39/39/39
f 40/40/40 41/41/41 42/42/42
f 43/43/43 44/44/44 45/45/45
f 46/46/46 47/47/47 48/48/48
f 49/49/49 50/50/50 51/51/51
f 52/52/52 53/53/53 54/54/54
f 55/55/55 56/56/56 57/57/57
f 58/58/58 59/59/59 60/60/60
f 61/61/61 62/62/62 63/63/63

usemtl Material1
usemap Material1
f 64/64/64 65/65/65 66/66/66
f 67/67/67 68/68/68 69/69/69
f 70/70/70 71/71/71 72/72/72
f 73/73/73 74/74/74 75/75/75
f 76/76/76 77/77/77 78/78/78
f 79/79/79 80/80/80 81/81/81
f 82/82/82 83/83/83 84/84/84
f 85/85/85 86/86/86 87/87/87
f 88/88/88 89/89/89 90/90/90
f 91/91/91 92/92/92 93/93/93
f 94/94/94 95/95/95 96/96/96
f 97/97/97 98/98/98 99/99/99
f 100/100/100 101/101/101 102/102/102
f 103/103/103 104/104/104 105/105/105
f 106/106/106 107/107/107 108/108/108
f 109/109/109 110/110/110 111/111/111
f 112/112/112 113/113/113 114/114/114
f 115/115/115 116/116/116 117/117/117
f 118/118/118 119/119/119 120/120/120
f 121/121/121 122/122/122 123/123/123
f 124/124/124 125/125/125 126/126/126
f 127/127/127 128/128/128 129/129/129
f 130/130/130 131/131/131 132/132/132
f 133/133/133 134/134/134 135/135/135
f 136/136/136 137/137/137 138/138/138
f 139/139/139 140/140/140 141/141/141
f 142/142/142 143/143/143 144/144/144
f 145/145/145 146/146/146 147/147/147
f 148/148/148 149/149/149 150/150/150
f 151/151/151 152/152/152 153/153/153
f 154/154/154 155/155/155 156/156/156
f 157/157/157 158/158/158 159/159/159
f 160/160/160 161/161/161 162/162/162
f 163/163/163 164/164/164 165/165/165
f 166/166/166 167/167/167 168/168/168
f 169/169/169 170/170/170 171/171/171
f 172/172/172 173/173/173 174/174/174
f 175/175/175 176/176/176 177/177/177
f 178/178/178 179/179/179 180/180/180
f 181/181/181 182/182/182 183/183/183
f 184/184/184 185/185/185 186/186/186
f 187/187/187 188/188/188 189/189/189
f 190/190/190 191/191/191 192/192/192
f 193/193/193 194/194/194 195/195/195
f 196/196/196 197/197/197 198/198/198
f 199/199/199 200/200/200 201/201/201
f 202/202/202 203/203/203 204/204/204
f 205/205/205 206/206/206 207/207/207
f 208/208/208 209/209/209 210/210/210
f 211/211/211 212/212/212 213/213/213
f 214/214/214 215/215/215 216/216/216
