g  Instance
v 5.486756 -53.65434 2.109679
v 4.421705 -53.25669 2.515909
v 5.598267 -53.7641 2.052702
v 5.598267 -53.7641 2.052702
v 4.421705 -53.25669 2.515909
v 5.603481 -53.78182 2.047369
v 5.603481 -53.78182 2.047369
v 4.421705 -53.25669 2.515909
v 4.841943 -54.62749 2.098223
v 3.838944 -55.22752 -0.05181272
v 3.59167 -55.38513 1.520472
v 3.441067 -54.17551 -0.06633863
v 3.441067 -54.17551 -0.06633863
v 3.59167 -55.38513 1.520472
v 2.916205 -53.60759 1.512222
v 2.916205 -53.60759 1.512222
v 3.59167 -55.38513 1.520472
v 2.913803 -53.79798 1.895531
v 2.913803 -53.79798 1.895531
v 3.59167 -55.38513 1.520472
v 2.994582 -54.05189 1.977081
v 2.994582 -54.05189 1.977081
v 3.59167 -55.38513 1.520472
v 3.443977 -55.08266 1.686661
v 4.459583 -53.43461 -0.4037567
v 3.870698 -53.13542 -0.2880448
v 4.922317 -53.18499 0.01748024
v 4.922317 -53.18499 0.01748024
v 3.870698 -53.13542 -0.2880448
v 4.608349 -52.87373 0.2395079
v 4.608349 -52.87373 0.2395079
v 3.870698 -53.13542 -0.2880448
v 3.788589 -52.52242 0.3317235
v 5.598267 -53.7641 2.052702
v 5.603481 -53.78182 2.047369
v 4.986395 -53.24457 0.08122961
v 4.986395 -53.24457 0.08122961
v 5.603481 -53.78182 2.047369
v 5.739299 -54.85927 0.8828412
v 5.739299 -54.85927 0.8828412
v 5.603481 -53.78182 2.047369
v 5.7792 -54.87223 1.046248
v 3.788589 -52.52242 0.3317235
v 3.870698 -53.13542 -0.2880448
v 3.740597 -52.52274 0.4388955
v 3.740597 -52.52274 0.4388955
v 3.870698 -53.13542 -0.2880448
v 2.916205 -53.60759 1.512222
v 2.916205 -53.60759 1.512222
v 3.870698 -53.13542 -0.2880448
v 3.441067 -54.17551 -0.06633863
v 4.38086 -55.35142 -0.08691201
v 4.29395 -55.32124 -0.1562162
v 5.342863 -55.21198 0.5299572
v 5.342863 -55.21198 0.5299572
v 4.29395 -55.32124 -0.1562162
v 4.500814 -54.3882 -0.3101161
v 5.486241 -55.19822 0.6641347
v 5.556806 -55.23203 0.974291
v 5.342863 -55.21198 0.5299572
v 5.342863 -55.21198 0.5299572
v 5.556806 -55.23203 0.974291
v 4.38086 -55.35142 -0.08691201
v 4.38086 -55.35142 -0.08691201
v 5.556806 -55.23203 0.974291
v 4.483527 -55.61714 1.6668
v 3.127279 -53.75771 2.106263
v 2.913803 -53.79798 1.895531
v 2.994582 -54.05189 1.977081
v 5.486756 -53.65434 2.109679
v 4.608349 -52.87373 0.2395079
v 4.421705 -53.25669 2.515909
v 4.421705 -53.25669 2.515909
v 4.608349 -52.87373 0.2395079
v 4.269648 -53.18756 2.513746
v 4.269648 -53.18756 2.513746
v 4.608349 -52.87373 0.2395079
v 3.740597 -52.52274 0.4388955
v 3.740597 -52.52274 0.4388955
v 4.608349 -52.87373 0.2395079
v 3.788589 -52.52242 0.3317235
v 3.59167 -55.38513 1.520472
v 3.838944 -55.22752 -0.05181272
v 3.75471 -55.43682 1.614624
v 3.75471 -55.43682 1.614624
v 3.838944 -55.22752 -0.05181272
v 4.472641 -55.61605 1.67767
v 4.472641 -55.61605 1.67767
v 3.838944 -55.22752 -0.05181272
v 4.483527 -55.61714 1.6668
v 4.483527 -55.61714 1.6668
v 3.838944 -55.22752 -0.05181272
v 4.38086 -55.35142 -0.08691201
v 4.38086 -55.35142 -0.08691201
v 3.838944 -55.22752 -0.05181272
v 4.29395 -55.32124 -0.1562162
v 5.7792 -54.87223 1.046248
v 5.556806 -55.23203 0.974291
v 5.739299 -54.85927 0.8828412
v 5.739299 -54.85927 0.8828412
v 5.556806 -55.23203 0.974291
v 5.486241 -55.19822 0.6641347
v 5.486756 -53.65434 2.109679
v 5.598267 -53.7641 2.052702
v 4.608349 -52.87373 0.2395079
v 4.608349 -52.87373 0.2395079
v 5.598267 -53.7641 2.052702
v 4.922317 -53.18499 0.01748024
v 4.922317 -53.18499 0.01748024
v 5.598267 -53.7641 2.052702
v 4.986395 -53.24457 0.08122961
v 3.127279 -53.75771 2.106263
v 4.269648 -53.18756 2.513746
v 2.913803 -53.79798 1.895531
v 2.913803 -53.79798 1.895531
v 4.269648 -53.18756 2.513746
v 2.916205 -53.60759 1.512222
v 2.916205 -53.60759 1.512222
v 4.269648 -53.18756 2.513746
v 3.740597 -52.52274 0.4388955
v 5.603481 -53.78182 2.047369
v 4.841943 -54.62749 2.098223
v 5.7792 -54.87223 1.046248
v 5.7792 -54.87223 1.046248
v 4.841943 -54.62749 2.098223
v 5.556806 -55.23203 0.974291
v 5.556806 -55.23203 0.974291
v 4.841943 -54.62749 2.098223
v 4.483527 -55.61714 1.6668
v 4.483527 -55.61714 1.6668
v 4.841943 -54.62749 2.098223
v 4.472641 -55.61605 1.67767
v 3.441067 -54.17551 -0.06633863
v 3.870698 -53.13542 -0.2880448
v 3.838944 -55.22752 -0.05181272
v 3.838944 -55.22752 -0.05181272
v 3.870698 -53.13542 -0.2880448
v 4.29395 -55.32124 -0.1562162
v 4.29395 -55.32124 -0.1562162
v 3.870698 -53.13542 -0.2880448
v 4.500814 -54.3882 -0.3101161
v 4.500814 -54.3882 -0.3101161
v 3.870698 -53.13542 -0.2880448
v 4.459583 -53.43461 -0.4037567
v 5.739299 -54.85927 0.8828412
v 5.486241 -55.19822 0.6641347
v 4.986395 -53.24457 0.08122961
v 4.986395 -53.24457 0.08122961
v 5.486241 -55.19822 0.6641347
v 4.922317 -53.18499 0.01748024
v 4.922317 -53.18499 0.01748024
v 5.486241 -55.19822 0.6641347
v 4.459583 -53.43461 -0.4037567
v 4.459583 -53.43461 -0.4037567
v 5.486241 -55.19822 0.6641347
v 4.500814 -54.3882 -0.3101161
v 4.500814 -54.3882 -0.3101161
v 5.486241 -55.19822 0.6641347
v 5.342863 -55.21198 0.5299572
v 2.994582 -54.05189 1.977081
v 3.443977 -55.08266 1.686661
v 3.127279 -53.75771 2.106263
v 3.127279 -53.75771 2.106263
v 3.443977 -55.08266 1.686661
v 4.269648 -53.18756 2.513746
v 4.269648 -53.18756 2.513746
v 3.443977 -55.08266 1.686661
v 4.421705 -53.25669 2.515909
v 4.421705 -53.25669 2.515909
v 3.443977 -55.08266 1.686661
v 4.841943 -54.62749 2.098223
v 4.841943 -54.62749 2.098223
v 3.443977 -55.08266 1.686661
v 4.472641 -55.61605 1.67767
v 4.472641 -55.61605 1.67767
v 3.443977 -55.08266 1.686661
v 3.75471 -55.43682 1.614624
v 3.443977 -55.08266 1.686661
v 3.59167 -55.38513 1.520472
v 3.75471 -55.43682 1.614624

vn 0.2835398 -0.1989192 0.9381025
vn 0.2835398 -0.1989192 0.9381025
vn 0.2835398 -0.1989192 0.9381025
vn 0.2835398 -0.1989192 0.9381025
vn 0.2835398 -0.1989192 0.9381025
vn 0.2835398 -0.1989192 0.9381025
vn 0.2835398 -0.1989192 0.9381025
vn 0.2835398 -0.1989192 0.9381025
vn 0.2835398 -0.1989192 0.9381025
vn -0.9192925 -0.3501664 -0.17968
vn -0.9192925 -0.3501664 -0.17968
vn -0.9192925 -0.3501664 -0.17968
vn -0.9192925 -0.3501664 -0.17968
vn -0.9192925 -0.3501664 -0.17968
vn -0.9192925 -0.3501664 -0.17968
vn -0.9192925 -0.3501664 -0.17968
vn -0.9192925 -0.3501664 -0.17968
vn -0.9192925 -0.3501664 -0.17968
vn -0.9192925 -0.3501664 -0.17968
vn -0.9192925 -0.3501664 -0.17968
vn -0.9192925 -0.3501664 -0.17968
vn -0.9192925 -0.3501664 -0.17968
vn -0.9192925 -0.3501664 -0.17968
vn -0.9192925 -0.3501664 -0.17968
vn 0.2277889 0.7072051 -0.6693081
vn 0.2277889 0.7072051 -0.6693081
vn 0.2277889 0.7072051 -0.6693081
vn 0.2277889 0.7072051 -0.6693081
vn 0.2277889 0.7072051 -0.6693081
vn 0.2277889 0.7072051 -0.6693081
vn 0.2277889 0.7072051 -0.6693081
vn 0.2277889 0.7072051 -0.6693081
vn 0.2277889 0.7072051 -0.6693081
vn 0.9223159 0.3312899 -0.1989483
vn 0.9223159 0.3312899 -0.1989483
vn 0.9223159 0.3312899 -0.1989483
vn 0.9223159 0.3312899 -0.1989483
vn 0.9223159 0.3312899 -0.1989483
vn 0.9223159 0.3312899 -0.1989483
vn 0.9223159 0.3312899 -0.1989483
vn 0.9223159 0.3312899 -0.1989483
vn 0.9223159 0.3312899 -0.1989483
vn -0.8768269 0.2786821 -0.3918046
vn -0.8768269 0.2786821 -0.3918046
vn -0.8768269 0.2786821 -0.3918046
vn -0.8768269 0.2786821 -0.3918046
vn -0.8768269 0.2786821 -0.3918046
vn -0.8768269 0.2786821 -0.3918046
vn -0.8768269 0.2786821 -0.3918046
vn -0.8768269 0.2786821 -0.3918046
vn -0.8768269 0.2786821 -0.3918046
vn 0.5479553 -0.2529949 -0.7973323
vn 0.5479553 -0.2529949 -0.7973323
vn 0.5479553 -0.2529949 -0.7973323
vn 0.5479553 -0.2529949 -0.7973323
vn 0.5479553 -0.2529949 -0.7973323
vn 0.5479553 -0.2529949 -0.7973323
vn 0.2408421 -0.9574241 -0.1591671
vn 0.2408421 -0.9574241 -0.1591671
vn 0.2408421 -0.9574241 -0.1591671
vn 0.2408421 -0.9574241 -0.1591671
vn 0.2408421 -0.9574241 -0.1591671
vn 0.2408421 -0.9574241 -0.1591671
vn 0.2408421 -0.9574241 -0.1591671
vn 0.2408421 -0.9574241 -0.1591671
vn 0.2408421 -0.9574241 -0.1591671
vn -0.7029728 0.004783285 0.7112007
vn -0.7029728 0.004783285 0.7112007
vn -0.7029728 0.004783285 0.7112007
vn 0.404592 0.8958201 0.1838792
vn 0.404592 0.8958201 0.1838792
vn 0.404592 0.8958201 0.1838792
vn 0.404592 0.8958201 0.1838792
vn 0.404592 0.8958201 0.1838792
vn 0.404592 0.8958201 0.1838792
vn 0.404592 0.8958201 0.1838792
vn 0.404592 0.8958201 0.1838792
vn 0.404592 0.8958201 0.1838792
vn 0.404592 0.8958201 0.1838792
vn 0.404592 0.8958201 0.1838792
vn 0.404592 0.8958201 0.1838792
vn -0.2290872 -0.9643183 -0.1327001
vn -0.2290872 -0.9643183 -0.1327001
vn -0.2290872 -0.9643183 -0.1327001
vn -0.2290872 -0.9643183 -0.1327001
vn -0.2290872 -0.9643183 -0.1327001
vn -0.2290872 -0.9643183 -0.1327001
vn -0.2290872 -0.9643183 -0.1327001
vn -0.2290872 -0.9643183 -0.1327001
vn -0.2290872 -0.9643183 -0.1327001
vn -0.2290872 -0.9643183 -0.1327001
vn -0.2290872 -0.9643183 -0.1327001
vn -0.2290872 -0.9643183 -0.1327001
vn -0.2290872 -0.9643183 -0.1327001
vn -0.2290872 -0.9643183 -0.1327001
vn -0.2290872 -0.9643183 -0.1327001
vn 0.8459579 -0.4740721 -0.2441538
vn 0.8459579 -0.4740721 -0.2441538
vn 0.8459579 -0.4740721 -0.2441538
vn 0.8459579 -0.4740721 -0.2441538
vn 0.8459579 -0.4740721 -0.2441538
vn 0.8459579 -0.4740721 -0.2441538
vn 0.6944555 0.7190644 -0.02603815
vn 0.6944555 0.7190644 -0.02603815
vn 0.6944555 0.7190644 -0.02603815
vn 0.6944555 0.7190644 -0.02603815
vn 0.6944555 0.7190644 -0.02603815
vn 0.6944555 0.7190644 -0.02603815
vn 0.6944555 0.7190644 -0.02603815
vn 0.6944555 0.7190644 -0.02603815
vn 0.6944555 0.7190644 -0.02603815
vn -0.5178597 0.7674541 0.3779361
vn -0.5178597 0.7674541 0.3779361
vn -0.5178597 0.7674541 0.3779361
vn -0.5178597 0.7674541 0.3779361
vn -0.5178597 0.7674541 0.3779361
vn -0.5178597 0.7674541 0.3779361
vn -0.5178597 0.7674541 0.3779361
vn -0.5178597 0.7674541 0.3779361
vn -0.5178597 0.7674541 0.3779361
vn 0.5897266 -0.4925674 0.6399999
vn 0.5897266 -0.4925674 0.6399999
vn 0.5897266 -0.4925674 0.6399999
vn 0.5897266 -0.4925674 0.6399999
vn 0.5897266 -0.4925674 0.6399999
vn 0.5897266 -0.4925674 0.6399999
vn 0.5897266 -0.4925674 0.6399999
vn 0.5897266 -0.4925674 0.6399999
vn 0.5897266 -0.4925674 0.6399999
vn 0.5897266 -0.4925674 0.6399999
vn 0.5897266 -0.4925674 0.6399999
vn 0.5897266 -0.4925674 0.6399999
vn -0.242931 -0.1052024 -0.964322
vn -0.242931 -0.1052024 -0.964322
vn -0.242931 -0.1052024 -0.964322
vn -0.242931 -0.1052024 -0.964322
vn -0.242931 -0.1052024 -0.964322
vn -0.242931 -0.1052024 -0.964322
vn -0.242931 -0.1052024 -0.964322
vn -0.242931 -0.1052024 -0.964322
vn -0.242931 -0.1052024 -0.964322
vn -0.242931 -0.1052024 -0.964322
vn -0.242931 -0.1052024 -0.964322
vn -0.242931 -0.1052024 -0.964322
vn 0.6848409 -0.04183512 -0.7274908
vn 0.6848409 -0.04183512 -0.7274908
vn 0.6848409 -0.04183512 -0.7274908
vn 0.6848409 -0.04183512 -0.7274908
vn 0.6848409 -0.04183512 -0.7274908
vn 0.6848409 -0.04183512 -0.7274908
vn 0.6848409 -0.04183512 -0.7274908
vn 0.6848409 -0.04183512 -0.7274908
vn 0.6848409 -0.04183512 -0.7274908
vn 0.6848409 -0.04183512 -0.7274908
vn 0.6848409 -0.04183512 -0.7274908
vn 0.6848409 -0.04183512 -0.7274908
vn 0.6848409 -0.04183512 -0.7274908
vn 0.6848409 -0.04183512 -0.7274908
vn 0.6848409 -0.04183512 -0.7274908
vn -0.1647453 -0.3333625 0.9282933
vn -0.1647453 -0.3333625 0.9282933
vn -0.1647453 -0.3333625 0.9282933
vn -0.1647453 -0.3333625 0.9282933
vn -0.1647453 -0.3333625 0.9282933
vn -0.1647453 -0.3333625 0.9282933
vn -0.1647453 -0.3333625 0.9282933
vn -0.1647453 -0.3333625 0.9282933
vn -0.1647453 -0.3333625 0.9282933
vn -0.1647453 -0.3333625 0.9282933
vn -0.1647453 -0.3333625 0.9282933
vn -0.1647453 -0.3333625 0.9282933
vn -0.1647453 -0.3333625 0.9282933
vn -0.1647453 -0.3333625 0.9282933
vn -0.1647453 -0.3333625 0.9282933
vn -0.1647453 -0.3333625 0.9282933
vn -0.1647453 -0.3333625 0.9282933
vn -0.1647453 -0.3333625 0.9282933
vn -0.5354263 -0.5922907 0.6020883
vn -0.5354263 -0.5922907 0.6020883
vn -0.5354263 -0.5922907 0.6020883

vt 0.5562227 0.3969651
vt 0.6047412 0.5108311
vt 0.5440064 0.3850441
vt 0.5440064 0.3850441
vt 0.6047412 0.5108311
vt 0.5421126 0.3844863
vt 0.5421126 0.3844863
vt 0.6047412 0.5108311
vt 0.458389 0.4659035
vt 0.403889 0.5772005
vt 0.3979636 0.4174741
vt 0.5162923 0.5786819
vt 0.5162923 0.5786819
vt 0.3979636 0.4174741
vt 0.5880058 0.4183132
vt 0.5880058 0.4183132
vt 0.3979636 0.4174741
vt 0.5703048 0.3793766
vt 0.5703048 0.3793766
vt 0.3979636 0.4174741
vt 0.5437158 0.3710933
vt 0.5437158 0.3710933
vt 0.3979636 0.4174741
vt 0.4314671 0.4005935
vt 0.4732539 0.5695313
vt 0.386952 0.5489239
vt 0.521402 0.4945083
vt 0.521402 0.4945083
vt 0.386952 0.5489239
vt 0.4692412 0.4549669
vt 0.4692412 0.4549669
vt 0.386952 0.5489239
vt 0.3517422 0.4385503
vt 0.499407 0.3613052
vt 0.501254 0.361849
vt 0.4296108 0.5631091
vt 0.4296108 0.5631091
vt 0.501254 0.361849
vt 0.607582 0.4810544
vt 0.607582 0.4810544
vt 0.501254 0.361849
vt 0.6101602 0.4643237
vt 0.6317052 0.512228
vt 0.5719362 0.5842041
vt 0.6301208 0.4997773
vt 0.6301208 0.4997773
vt 0.5719362 0.5842041
vt 0.492966 0.3751248
vt 0.492966 0.3751248
vt 0.5719362 0.5842041
vt 0.4521214 0.5584588
vt 0.674364 0.5283633
vt 0.6758359 0.5470675
vt 0.5880527 0.3618771
vt 0.5880527 0.3618771
vt 0.6758359 0.5470675
vt 0.5237271 0.5886012
vt 0.4093643 0.5019056
vt 0.4033733 0.4706194
vt 0.4235448 0.5154344
vt 0.4235448 0.5154344
vt 0.4033733 0.4706194
vt 0.5198269 0.5776505
vt 0.5198269 0.5776505
vt 0.4033733 0.4706194
vt 0.5163767 0.4007669
vt 0.5368341 0.5057683
vt 0.5310025 0.5476863
vt 0.4955724 0.5314667
vt 0.5726393 0.3968432
vt 0.4604422 0.5871386
vt 0.4591906 0.3555112
vt 0.4591906 0.3555112
vt 0.4604422 0.5871386
vt 0.4424834 0.3557315
vt 0.4424834 0.3557315
vt 0.4604422 0.5871386
vt 0.3668931 0.5668499
vt 0.3668931 0.5668499
vt 0.4604422 0.5871386
vt 0.3712527 0.5777537
vt 0.5362154 0.4200336
vt 0.5159642 0.5773787
vt 0.5192925 0.4106112
vt 0.5192925 0.4106112
vt 0.5159642 0.5773787
vt 0.4459054 0.4043062
vt 0.4459054 0.4043062
vt 0.5159642 0.5773787
vt 0.4448319 0.4053937
vt 0.4448319 0.4053937
vt 0.5159642 0.5773787
vt 0.460836 0.5808851
vt 0.460836 0.5808851
vt 0.5159642 0.5773787
vt 0.4699162 0.587823
vt 0.4884892 0.4458726
vt 0.5313307 0.4533965
vt 0.4893236 0.4629549
vt 0.4893236 0.4629549
vt 0.5313307 0.4533965
vt 0.531837 0.4858265
vt 0.5378186 0.3781297
vt 0.5532132 0.3837362
vt 0.4223588 0.5621153
vt 0.4223588 0.5621153
vt 0.5532132 0.3837362
vt 0.4658285 0.5839603
vt 0.4658285 0.5839603
vt 0.5532132 0.3837362
vt 0.4744305 0.577688
vt 0.4003591 0.4207743
vt 0.5347715 0.3740326
vt 0.379175 0.4449444
vt 0.379175 0.4449444
vt 0.5347715 0.3740326
vt 0.3906976 0.4889017
vt 0.3906976 0.4889017
vt 0.5347715 0.3740326
vt 0.527693 0.6120026
vt 0.3578175 0.447354
vt 0.5033166 0.4388879
vt 0.4504807 0.6140558
vt 0.4504807 0.6140558
vt 0.5033166 0.4388879
vt 0.5040479 0.6260377
vt 0.5040479 0.6260377
vt 0.5033166 0.4388879
vt 0.6298957 0.5107186
vt 0.6298957 0.5107186
vt 0.5033166 0.4388879
vt 0.6306833 0.5089091
vt 0.484453 0.5433361
vt 0.3772343 0.4984553
vt 0.5906122 0.5017743
vt 0.5906122 0.5017743
vt 0.3772343 0.4984553
vt 0.5989002 0.4542262
vt 0.5989002 0.4542262
vt 0.3772343 0.4984553
vt 0.503204 0.4326156
vt 0.503204 0.4326156
vt 0.3772343 0.4984553
vt 0.4061063 0.4369284
vt 0.5862808 0.3549533
vt 0.6369649 0.400631
vt 0.3619287 0.522363
vt 0.3619287 0.522363
vt 0.6369649 0.400631
vt 0.3539689 0.5356762
vt 0.3539689 0.5356762
vt 0.6369649 0.400631
vt 0.3937165 0.6236376
vt 0.3937165 0.6236376
vt 0.6369649 0.400631
vt 0.5297275 0.6040802
vt 0.5297275 0.6040802
vt 0.6369649 0.400631
vt 0.6401807 0.4286498
vt 0.5241022 0.6027207
vt 0.4176241 0.5573056
vt 0.556054 0.5893137
vt 0.556054 0.5893137
vt 0.4176241 0.5573056
vt 0.6232672 0.4738774
vt 0.6232672 0.4738774
vt 0.4176241 0.5573056
vt 0.6168544 0.4585109
vt 0.6168544 0.4585109
vt 0.4176241 0.5573056
vt 0.4741915 0.4160444
vt 0.4741915 0.4160444
vt 0.4176241 0.5573056
vt 0.3672915 0.4533637
vt 0.3672915 0.4533637
vt 0.4176241 0.5573056
vt 0.3819783 0.5259069
vt 0.4941004 0.5228224
vt 0.4556372 0.5484551
vt 0.4364783 0.5339324

usemtl Material0
usemap Material0

usemtl Material1
usemap Material1
f 1/1/1 2/2/2 3/3/3
f 4/4/4 5/5/5 6/6/6
f 7/7/7 8/8/8 9/9/9
f 10/10/10 11/11/11 12/12/12
f 13/13/13 14/14/14 15/15/15
f 16/16/16 17/17/17 18/18/18
f 19/19/19 20/20/20 21/21/21
f 22/22/22 23/23/23 24/24/24
f 25/25/25 26/26/26 27/27/27
f 28/28/28 29/29/29 30/30/30
f 31/31/31 32/32/32 33/33/33
f 34/34/34 35/35/35 36/36/36
f 37/37/37 38/38/38 39/39/39
f 40/40/40 41/41/41 42/42/42
f 43/43/43 44/44/44 45/45/45
f 46/46/46 47/47/47 48/48/48
f 49/49/49 50/50/50 51/51/51
f 52/52/52 53/53/53 54/54/54
f 55/55/55 56/56/56 57/57/57
f 58/58/58 59/59/59 60/60/60
f 61/61/61 62/62/62 63/63/63
f 64/64/64 65/65/65 66/66/66
f 67/67/67 68/68/68 69/69/69
f 70/70/70 71/71/71 72/72/72
f 73/73/73 74/74/74 75/75/75
f 76/76/76 77/77/77 78/78/78
f 79/79/79 80/80/80 81/81/81
f 82/82/82 83/83/83 84/84/84
f 85/85/85 86/86/86 87/87/87
f 88/88/88 89/89/89 90/90/90
f 91/91/91 92/92/92 93/93/93
f 94/94/94 95/95/95 96/96/96
f 97/97/97 98/98/98 99/99/99
f 100/100/100 101/101/101 102/102/102
f 103/103/103 104/104/104 105/105/105
f 106/106/106 107/107/107 108/108/108
f 109/109/109 110/110/110 111/111/111
f 112/112/112 113/113/113 114/114/114
f 115/115/115 116/116/116 117/117/117
f 118/118/118 119/119/119 120/120/120
f 121/121/121 122/122/122 123/123/123
f 124/124/124 125/125/125 126/126/126
f 127/127/127 128/128/128 129/129/129
f 130/130/130 131/131/131 132/132/132
f 133/133/133 134/134/134 135/135/135
f 136/136/136 137/137/137 138/138/138
f 139/139/139 140/140/140 141/141/141
f 142/142/142 143/143/143 144/144/144
f 145/145/145 146/146/146 147/147/147
f 148/148/148 149/149/149 150/150/150
f 151/151/151 152/152/152 153/153/153
f 154/154/154 155/155/155 156/156/156
f 157/157/157 158/158/158 159/159/159
f 160/160/160 161/161/161 162/162/162
f 163/163/163 164/164/164 165/165/165
f 166/166/166 167/167/167 168/168/168
f 169/169/169 170/170/170 171/171/171
f 172/172/172 173/173/173 174/174/174
f 175/175/175 176/176/176 177/177/177
f 178/178/178 179/179/179 180/180/180
