g  Instance
v 5.22472 -49.94316 -8.520625
v 5.257299 -50 -8.506516
v 5.12235 -50 -8.576244
v 5.257299 -50 -8.506516
v 5.22472 -49.94316 -8.520625
v 5.311345 -49.88701 -8.461136
v 5.94309 -50 -8.006263
v 5.257299 -50 -8.506516
v 6.215186 -49.41232 -7.776809
v 6.215186 -49.41232 -7.776809
v 5.257299 -50 -8.506516
v 6.158911 -49.29395 -7.81162
v 6.158911 -49.29395 -7.81162
v 5.257299 -50 -8.506516
v 5.311345 -49.88701 -8.461136
v 6.215186 -49.41232 -7.776809
v 6.158911 -49.29395 -7.81162
v 6.243365 -49.34998 -7.745186
v 6.243365 -49.34998 -7.745186
v 6.158911 -49.29395 -7.81162
v 6.21747 -49.32423 -7.764556
v 6.21747 -49.32423 -7.764556
v 6.158911 -49.29395 -7.81162
v 6.163026 -49.29055 -7.807667
v 5.94309 -50 -8.006263
v 5.602351 -50.72137 -8.216797
v 5.257299 -50 -8.506516
v 5.12235 -50 -8.576244
v 5.257299 -50 -8.506516
v 4.857906 -50.138 -8.706272
v 4.857906 -50.138 -8.706272
v 5.257299 -50 -8.506516
v 5.01625 -50.42057 -8.61091
v 5.01625 -50.42057 -8.61091
v 5.257299 -50 -8.506516
v 5.264007 -50.92139 -8.404701
v 5.264007 -50.92139 -8.404701
v 5.257299 -50 -8.506516
v 5.46534 -51.00573 -8.271332
v 5.46534 -51.00573 -8.271332
v 5.257299 -50 -8.506516
v 5.602351 -50.72137 -8.216797
v 4.969531 -51.10135 -7.896723
v 5.264007 -50.92139 -8.404701
v 5.065975 -51.18854 -7.724375
v 5.065975 -51.18854 -7.724375
v 5.264007 -50.92139 -8.404701
v 5.372711 -51.13068 -7.953123
v 5.372711 -51.13068 -7.953123
v 5.264007 -50.92139 -8.404701
v 5.46534 -51.00573 -8.271332
v 6.074203 -49.43934 -6.431607
v 6.243365 -49.34998 -7.745186
v 5.916034 -49.43803 -5.677975
v 5.916034 -49.43803 -5.677975
v 6.243365 -49.34998 -7.745186
v 5.859679 -49.38942 -5.678619
v 5.859679 -49.38942 -5.678619
v 6.243365 -49.34998 -7.745186
v 6.21747 -49.32423 -7.764556
v 5.859679 -49.38942 -5.678619
v 6.21747 -49.32423 -7.764556
v 5.554515 -49.22919 -5.684313
v 5.554515 -49.22919 -5.684313
v 6.21747 -49.32423 -7.764556
v 5.206175 -48.89962 -6.903666
v 5.206175 -48.89962 -6.903666
v 6.21747 -49.32423 -7.764556
v 6.163026 -49.29055 -7.807667
v 6.074203 -49.43934 -6.431607
v 5.916034 -49.43803 -5.677975
v 5.920296 -49.60498 -5.681417
v 3.775972 -49.6507 -7.614233
v 4.252632 -49.9413 -8.212555
v 3.751222 -49.74152 -7.467644
v 3.751222 -49.74152 -7.467644
v 4.252632 -49.9413 -8.212555
v 4.321368 -50.39578 -7.848823
v 5.17391 -51.10807 -5.735861
v 5.920296 -49.60498 -5.681417
v 4.300746 -50.16456 -5.741781
v 4.300746 -50.16456 -5.741781
v 5.920296 -49.60498 -5.681417
v 5.554515 -49.22919 -5.684313
v 5.554515 -49.22919 -5.684313
v 5.920296 -49.60498 -5.681417
v 5.859679 -49.38942 -5.678619
v 5.859679 -49.38942 -5.678619
v 5.920296 -49.60498 -5.681417
v 5.916034 -49.43803 -5.677975
v 5.602351 -50.72137 -8.216797
v 5.94309 -50 -8.006263
v 5.46534 -51.00573 -8.271332
v 5.46534 -51.00573 -8.271332
v 5.94309 -50 -8.006263
v 5.372711 -51.13068 -7.953123
v 5.372711 -51.13068 -7.953123
v 5.94309 -50 -8.006263
v 5.217997 -51.3048 -7.239152
v 5.217997 -51.3048 -7.239152
v 5.94309 -50 -8.006263
v 5.17391 -51.10807 -5.735861
v 5.17391 -51.10807 -5.735861
v 5.94309 -50 -8.006263
v 5.920296 -49.60498 -5.681417
v 5.920296 -49.60498 -5.681417
v 5.94309 -50 -8.006263
v 6.074203 -49.43934 -6.431607
v 6.074203 -49.43934 -6.431607
v 5.94309 -50 -8.006263
v 6.243365 -49.34998 -7.745186
v 6.243365 -49.34998 -7.745186
v 5.94309 -50 -8.006263
v 6.215186 -49.41232 -7.776809
v 6.163026 -49.29055 -7.807667
v 6.158911 -49.29395 -7.81162
v 5.206175 -48.89962 -6.903666
v 5.206175 -48.89962 -6.903666
v 6.158911 -49.29395 -7.81162
v 3.775972 -49.6507 -7.614233
v 3.775972 -49.6507 -7.614233
v 6.158911 -49.29395 -7.81162
v 4.252632 -49.9413 -8.212555
v 4.252632 -49.9413 -8.212555
v 6.158911 -49.29395 -7.81162
v 4.857906 -50.138 -8.706272
v 4.857906 -50.138 -8.706272
v 6.158911 -49.29395 -7.81162
v 5.12235 -50 -8.576244
v 5.12235 -50 -8.576244
v 6.158911 -49.29395 -7.81162
v 5.22472 -49.94316 -8.520625
v 5.22472 -49.94316 -8.520625
v 6.158911 -49.29395 -7.81162
v 5.311345 -49.88701 -8.461136
v 5.17391 -51.10807 -5.735861
v 4.300746 -50.16456 -5.741781
v 5.217997 -51.3048 -7.239152
v 5.217997 -51.3048 -7.239152
v 4.300746 -50.16456 -5.741781
v 5.065975 -51.18854 -7.724375
v 5.065975 -51.18854 -7.724375
v 4.300746 -50.16456 -5.741781
v 4.969531 -51.10135 -7.896723
v 4.969531 -51.10135 -7.896723
v 4.300746 -50.16456 -5.741781
v 4.321368 -50.39578 -7.848823
v 4.321368 -50.39578 -7.848823
v 4.300746 -50.16456 -5.741781
v 3.751222 -49.74152 -7.467644
v 4.300746 -50.16456 -5.741781
v 5.554515 -49.22919 -5.684313
v 3.751222 -49.74152 -7.467644
v 3.751222 -49.74152 -7.467644
v 5.554515 -49.22919 -5.684313
v 3.775972 -49.6507 -7.614233
v 3.775972 -49.6507 -7.614233
v 5.554515 -49.22919 -5.684313
v 5.206175 -48.89962 -6.903666
v 5.372711 -51.13068 -7.953123
v 5.217997 -51.3048 -7.239152
v 5.065975 -51.18854 -7.724375
v 4.857906 -50.138 -8.706272
v 5.01625 -50.42057 -8.61091
v 4.252632 -49.9413 -8.212555
v 4.252632 -49.9413 -8.212555
v 5.01625 -50.42057 -8.61091
v 4.321368 -50.39578 -7.848823
v 4.321368 -50.39578 -7.848823
v 5.01625 -50.42057 -8.61091
v 4.969531 -51.10135 -7.896723
v 4.969531 -51.10135 -7.896723
v 5.01625 -50.42057 -8.61091
v 5.264007 -50.92139 -8.404701

vn 0.4586338 0.04254075 -0.8876065
vn 0.4586338 0.04254075 -0.8876065
vn 0.4586338 0.04254075 -0.8876065
vn 0.5236052 0.0898045 -0.8472146
vn 0.5236052 0.0898045 -0.8472146
vn 0.5236052 0.0898045 -0.8472146
vn 0.5887901 0.04254108 -0.8071657
vn 0.5887901 0.04254108 -0.8071657
vn 0.5887901 0.04254108 -0.8071657
vn 0.5887901 0.04254108 -0.8071657
vn 0.5887901 0.04254108 -0.8071657
vn 0.5887901 0.04254108 -0.8071657
vn 0.5887901 0.04254108 -0.8071657
vn 0.5887901 0.04254108 -0.8071657
vn 0.5887901 0.04254108 -0.8071657
vn 0.6512595 0.08794808 -0.7537414
vn 0.6512595 0.08794808 -0.7537414
vn 0.6512595 0.08794808 -0.7537414
vn 0.6512595 0.08794808 -0.7537414
vn 0.6512595 0.08794808 -0.7537414
vn 0.6512595 0.08794808 -0.7537414
vn 0.6512595 0.08794808 -0.7537414
vn 0.6512595 0.08794808 -0.7537414
vn 0.6512595 0.08794808 -0.7537414
vn 0.5887899 -0.04254099 -0.8071657
vn 0.5887899 -0.04254099 -0.8071657
vn 0.5887899 -0.04254099 -0.8071657
vn 0.4586337 -0.04254169 -0.8876065
vn 0.4586337 -0.04254169 -0.8876065
vn 0.4586337 -0.04254169 -0.8876065
vn 0.4586337 -0.04254169 -0.8876065
vn 0.4586337 -0.04254169 -0.8876065
vn 0.4586337 -0.04254169 -0.8876065
vn 0.5236048 -0.08980521 -0.8472149
vn 0.5236048 -0.08980521 -0.8472149
vn 0.5236048 -0.08980521 -0.8472149
vn 0.5236048 -0.08980521 -0.8472149
vn 0.5236048 -0.08980521 -0.8472149
vn 0.5236048 -0.08980521 -0.8472149
vn 0.5236048 -0.08980521 -0.8472149
vn 0.5236048 -0.08980521 -0.8472149
vn 0.5236048 -0.08980521 -0.8472149
vn -0.1213163 -0.9114161 -0.3931959
vn -0.1213163 -0.9114161 -0.3931959
vn -0.1213163 -0.9114161 -0.3931959
vn -0.1213163 -0.9114161 -0.3931959
vn -0.1213163 -0.9114161 -0.3931959
vn -0.1213163 -0.9114161 -0.3931959
vn -0.1213163 -0.9114161 -0.3931959
vn -0.1213163 -0.9114161 -0.3931959
vn -0.1213163 -0.9114161 -0.3931959
vn 0.6463516 0.7511209 0.1343397
vn 0.6463516 0.7511209 0.1343397
vn 0.6463516 0.7511209 0.1343397
vn 0.6463516 0.7511209 0.1343397
vn 0.6463516 0.7511209 0.1343397
vn 0.6463516 0.7511209 0.1343397
vn 0.6463516 0.7511209 0.1343397
vn 0.6463516 0.7511209 0.1343397
vn 0.6463516 0.7511209 0.1343397
vn 0.4606739 0.8811502 0.1065547
vn 0.4606739 0.8811502 0.1065547
vn 0.4606739 0.8811502 0.1065547
vn 0.4606739 0.8811502 0.1065547
vn 0.4606739 0.8811502 0.1065547
vn 0.4606739 0.8811502 0.1065547
vn 0.4606739 0.8811502 0.1065547
vn 0.4606739 0.8811502 0.1065547
vn 0.4606739 0.8811502 0.1065547
vn 0.9784744 0.02074442 0.2053228
vn 0.9784744 0.02074442 0.2053228
vn 0.9784744 0.02074442 0.2053228
vn -0.7920893 -0.4499294 -0.4125022
vn -0.7920893 -0.4499294 -0.4125022
vn -0.7920893 -0.4499294 -0.4125022
vn -0.7920893 -0.4499294 -0.4125022
vn -0.7920893 -0.4499294 -0.4125022
vn -0.7920893 -0.4499294 -0.4125022
vn -0.02986315 -0.02136643 0.9993256
vn -0.02986315 -0.02136643 0.9993256
vn -0.02986315 -0.02136643 0.9993256
vn -0.02986315 -0.02136643 0.9993256
vn -0.02986315 -0.02136643 0.9993256
vn -0.02986315 -0.02136643 0.9993256
vn -0.02986315 -0.02136643 0.9993256
vn -0.02986315 -0.02136643 0.9993256
vn -0.02986315 -0.02136643 0.9993256
vn -0.02986315 -0.02136643 0.9993256
vn -0.02986315 -0.02136643 0.9993256
vn -0.02986315 -0.02136643 0.9993256
vn 0.8912312 -0.4456173 0.08445274
vn 0.8912312 -0.4456173 0.08445274
vn 0.8912312 -0.4456173 0.08445274
vn 0.8912312 -0.4456173 0.08445274
vn 0.8912312 -0.4456173 0.08445274
vn 0.8912312 -0.4456173 0.08445274
vn 0.8912312 -0.4456173 0.08445274
vn 0.8912312 -0.4456173 0.08445274
vn 0.8912312 -0.4456173 0.08445274
vn 0.8912312 -0.4456173 0.08445274
vn 0.8912312 -0.4456173 0.08445274
vn 0.8912312 -0.4456173 0.08445274
vn 0.8912312 -0.4456173 0.08445274
vn 0.8912312 -0.4456173 0.08445274
vn 0.8912312 -0.4456173 0.08445274
vn 0.8912312 -0.4456173 0.08445274
vn 0.8912312 -0.4456173 0.08445274
vn 0.8912312 -0.4456173 0.08445274
vn 0.8912312 -0.4456173 0.08445274
vn 0.8912312 -0.4456173 0.08445274
vn 0.8912312 -0.4456173 0.08445274
vn 0.8912312 -0.4456173 0.08445274
vn 0.8912312 -0.4456173 0.08445274
vn 0.8912312 -0.4456173 0.08445274
vn -0.1682564 0.827359 -0.5358796
vn -0.1682564 0.827359 -0.5358796
vn -0.1682564 0.827359 -0.5358796
vn -0.1682564 0.827359 -0.5358796
vn -0.1682564 0.827359 -0.5358796
vn -0.1682564 0.827359 -0.5358796
vn -0.1682564 0.827359 -0.5358796
vn -0.1682564 0.827359 -0.5358796
vn -0.1682564 0.827359 -0.5358796
vn -0.1682564 0.827359 -0.5358796
vn -0.1682564 0.827359 -0.5358796
vn -0.1682564 0.827359 -0.5358796
vn -0.1682564 0.827359 -0.5358796
vn -0.1682564 0.827359 -0.5358796
vn -0.1682564 0.827359 -0.5358796
vn -0.1682564 0.827359 -0.5358796
vn -0.1682564 0.827359 -0.5358796
vn -0.1682564 0.827359 -0.5358796
vn -0.1682564 0.827359 -0.5358796
vn -0.1682564 0.827359 -0.5358796
vn -0.1682564 0.827359 -0.5358796
vn -0.7324886 -0.6774569 0.06717613
vn -0.7324886 -0.6774569 0.06717613
vn -0.7324886 -0.6774569 0.06717613
vn -0.7324886 -0.6774569 0.06717613
vn -0.7324886 -0.6774569 0.06717613
vn -0.7324886 -0.6774569 0.06717613
vn -0.7324886 -0.6774569 0.06717613
vn -0.7324886 -0.6774569 0.06717613
vn -0.7324886 -0.6774569 0.06717613
vn -0.7324886 -0.6774569 0.06717613
vn -0.7324886 -0.6774569 0.06717613
vn -0.7324886 -0.6774569 0.06717613
vn -0.7324886 -0.6774569 0.06717613
vn -0.7324886 -0.6774569 0.06717613
vn -0.7324886 -0.6774569 0.06717613
vn -0.5680121 0.7391239 0.3620194
vn -0.5680121 0.7391239 0.3620194
vn -0.5680121 0.7391239 0.3620194
vn -0.5680121 0.7391239 0.3620194
vn -0.5680121 0.7391239 0.3620194
vn -0.5680121 0.7391239 0.3620194
vn -0.5680121 0.7391239 0.3620194
vn -0.5680121 0.7391239 0.3620194
vn -0.5680121 0.7391239 0.3620194
vn 0.007801827 -0.971885 -0.2353272
vn 0.007801827 -0.971885 -0.2353272
vn 0.007801827 -0.971885 -0.2353272
vn -0.6301337 -0.5410526 -0.5569502
vn -0.6301337 -0.5410526 -0.5569502
vn -0.6301337 -0.5410526 -0.5569502
vn -0.6301337 -0.5410526 -0.5569502
vn -0.6301337 -0.5410526 -0.5569502
vn -0.6301337 -0.5410526 -0.5569502
vn -0.6301337 -0.5410526 -0.5569502
vn -0.6301337 -0.5410526 -0.5569502
vn -0.6301337 -0.5410526 -0.5569502
vn -0.6301337 -0.5410526 -0.5569502
vn -0.6301337 -0.5410526 -0.5569502
vn -0.6301337 -0.5410526 -0.5569502

vt 0.2282683 0.0787305
vt 0.2272725 0.0787305
vt 0.2283996 0.07677826
vt 0.2272725 0.0787305
vt 0.2282683 0.0787305
vt 0.2282622 0.08044478
vt 0.2209738 0.08964022
vt 0.2272725 0.0787305
vt 0.2262043 0.09841312
vt 0.2262043 0.09841312
vt 0.2272725 0.0787305
vt 0.2282781 0.09841312
vt 0.2282781 0.09841312
vt 0.2272725 0.0787305
vt 0.2282622 0.08044478
vt 0.2262043 0.09841312
vt 0.2282781 0.09841312
vt 0.2267626 0.09938625
vt 0.2267626 0.09938625
vt 0.2282781 0.09841312
vt 0.2273398 0.09915643
vt 0.2273398 0.09915643
vt 0.2282781 0.09841312
vt 0.2282847 0.09850957
vt 0.1426621 0.08964022
vt 0.1300447 0.08967512
vt 0.1363635 0.0787305
vt 0.1352364 0.07677826
vt 0.1363635 0.0787305
vt 0.1312708 0.07409684
vt 0.1312708 0.07409684
vt 0.1363635 0.0787305
vt 0.1289956 0.0787305
vt 0.1289956 0.0787305
vt 0.1363635 0.0787305
vt 0.124677 0.08644725
vt 0.124677 0.08644725
vt 0.1363635 0.0787305
vt 0.1252794 0.09004979
vt 0.1252794 0.09004979
vt 0.1363635 0.0787305
vt 0.1300447 0.08967512
vt 0.4784761 0.5199066
vt 0.4498057 0.5789819
vt 0.4670238 0.4998617
vt 0.4670238 0.4998617
vt 0.4498057 0.5789819
vt 0.4353345 0.5264695
vt 0.4353345 0.5264695
vt 0.4498057 0.5789819
vt 0.4272809 0.5634747
vt 0.5401999 0.4405942
vt 0.5471379 0.5721002
vt 0.528218 0.3651445
vt 0.528218 0.3651445
vt 0.5471379 0.5721002
vt 0.5208395 0.3652101
vt 0.5208395 0.3652101
vt 0.5471379 0.5721002
vt 0.5435283 0.5740409
vt 0.5405187 0.3616475
vt 0.5688797 0.5690719
vt 0.5064386 0.3622147
vt 0.5064386 0.3622147
vt 0.5688797 0.5690719
vt 0.4608219 0.4834639
vt 0.4608219 0.4834639
vt 0.5688797 0.5690719
vt 0.56257 0.5733566
vt 0.4476774 0.44884
vt 0.4472086 0.3714918
vt 0.4639862 0.3718434
vt 0.5781053 0.5000211
vt 0.5254335 0.5709001
vt 0.5709049 0.4826576
vt 0.5709049 0.4826576
vt 0.5254335 0.5709001
vt 0.479123 0.5278102
vt 0.371909 0.4617032
vt 0.5198269 0.3882599
vt 0.4646753 0.5476207
vt 0.4646753 0.5476207
vt 0.5198269 0.3882599
vt 0.5567759 0.424248
vt 0.5567759 0.424248
vt 0.5198269 0.3882599
vt 0.5410344 0.3942228
vt 0.5410344 0.3942228
vt 0.5198269 0.3882599
vt 0.5362529 0.3886772
vt 0.5384561 0.6099306
vt 0.4597625 0.5890887
vt 0.5695923 0.6153309
vt 0.5695923 0.6153309
vt 0.4597625 0.5890887
vt 0.5847057 0.5838197
vt 0.5847057 0.5838197
vt 0.4597625 0.5890887
vt 0.6068975 0.5131281
vt 0.6068975 0.5131281
vt 0.4597625 0.5890887
vt 0.5914842 0.364282
vt 0.5914842 0.364282
vt 0.4597625 0.5890887
vt 0.4259121 0.358891
vt 0.4259121 0.358891
vt 0.4597625 0.5890887
vt 0.404503 0.4331734
vt 0.404503 0.4331734
vt 0.4597625 0.5890887
vt 0.3891506 0.5632403
vt 0.3891506 0.5632403
vt 0.4597625 0.5890887
vt 0.3958963 0.5663718
vt 0.6335335 0.5402796
vt 0.6329897 0.5408234
vt 0.5334308 0.4156037
vt 0.5334308 0.4156037
vt 0.6329897 0.5408234
vt 0.352811 0.5135968
vt 0.352811 0.5135968
vt 0.6329897 0.5408234
vt 0.4004575 0.596111
vt 0.4004575 0.596111
vt 0.6329897 0.5408234
vt 0.4649519 0.6642056
vt 0.4649519 0.6642056
vt 0.6329897 0.5408234
vt 0.4983382 0.6462795
vt 0.4983382 0.6462795
vt 0.6329897 0.5408234
vt 0.5113327 0.6386103
vt 0.5113327 0.6386103
vt 0.6329897 0.5408234
vt 0.5225177 0.6303974
vt 0.391171 0.3633772
vt 0.5178393 0.3639632
vt 0.373995 0.5118343
vt 0.373995 0.5118343
vt 0.5178393 0.3639632
vt 0.3925727 0.5597526
vt 0.3925727 0.5597526
vt 0.5178393 0.3639632
vt 0.4053328 0.5767787
vt 0.4053328 0.5767787
vt 0.5178393 0.3639632
vt 0.4997351 0.5720534
vt 0.4997351 0.5720534
vt 0.5178393 0.3639632
vt 0.5852026 0.5344012
vt 0.4112113 0.3674556
vt 0.5761739 0.360949
vt 0.3924461 0.5627153
vt 0.3924461 0.5627153
vt 0.5761739 0.360949
vt 0.4003497 0.5793006
vt 0.4003497 0.5793006
vt 0.5761739 0.360949
vt 0.5682235 0.4989054
vt 0.4556513 0.5467862
vt 0.4714444 0.4724804
vt 0.4867219 0.5229818
vt 0.479709 0.6312974
vt 0.4421224 0.6177028
vt 0.5440439 0.5609339
vt 0.5440439 0.5609339
vt 0.4421224 0.6177028
vt 0.497935 0.5090966
vt 0.497935 0.5090966
vt 0.4421224 0.6177028
vt 0.3845894 0.515922
vt 0.3845894 0.515922
vt 0.4421224 0.6177028
vt 0.3780453 0.5883199

usemtl Material0
usemap Material0
f 1/1/1 2/2/2 3/3/3
f 4/4/4 5/5/5 6/6/6
f 7/7/7 8/8/8 9/9/9
f 10/10/10 11/11/11 12/12/12
f 13/13/13 14/14/14 15/15/15
f 16/16/16 17/17/17 18/18/18
f 19/19/19 20/20/20 21/21/21
f 22/22/22 23/23/23 24/24/24
f 25/25/25 26/26/26 27/27/27
f 28/28/28 29/29/29 30/30/30
f 31/31/31 32/32/32 33/33/33
f 34/34/34 35/35/35 36/36/36
f 37/37/37 38/38/38 39/39/39
f 40/40/40 41/41/41 42/42/42

usemtl Material1
usemap Material1
f 43/43/43 44/44/44 45/45/45
f 46/46/46 47/47/47 48/48/48
f 49/49/49 50/50/50 51/51/51
f 52/52/52 53/53/53 54/54/54
f 55/55/55 56/56/56 57/57/57
f 58/58/58 59/59/59 60/60/60
f 61/61/61 62/62/62 63/63/63
f 64/64/64 65/65/65 66/66/66
f 67/67/67 68/68/68 69/69/69
f 70/70/70 71/71/71 72/72/72
f 73/73/73 74/74/74 75/75/75
f 76/76/76 77/77/77 78/78/78
f 79/79/79 80/80/80 81/81/81
f 82/82/82 83/83/83 84/84/84
f 85/85/85 86/86/86 87/87/87
f 88/88/88 89/89/89 90/90/90
f 91/91/91 92/92/92 93/93/93
f 94/94/94 95/95/95 96/96/96
f 97/97/97 98/98/98 99/99/99
f 100/100/100 101/101/101 102/102/102
f 103/103/103 104/104/104 105/105/105
f 106/106/106 107/107/107 108/108/108
f 109/109/109 110/110/110 111/111/111
f 112/112/112 113/113/113 114/114/114
f 115/115/115 116/116/116 117/117/117
f 118/118/118 119/119/119 120/120/120
f 121/121/121 122/122/122 123/123/123
f 124/124/124 125/125/125 126/126/126
f 127/127/127 128/128/128 129/129/129
f 130/130/130 131/131/131 132/132/132
f 133/133/133 134/134/134 135/135/135
f 136/136/136 137/137/137 138/138/138
f 139/139/139 140/140/140 141/141/141
f 142/142/142 143/143/143 144/144/144
f 145/145/145 146/146/146 147/147/147
f 148/148/148 149/149/149 150/150/150
f 151/151/151 152/152/152 153/153/153
f 154/154/154 155/155/155 156/156/156
f 157/157/157 158/158/158 159/159/159
f 160/160/160 161/161/161 162/162/162
f 163/163/163 164/164/164 165/165/165
f 166/166/166 167/167/167 168/168/168
f 169/169/169 170/170/170 171/171/171
f 172/172/172 173/173/173 174/174/174
