g  Instance
v -2.453403 -54.29811 -3.349898
v -1.874357 -54.61554 -3.514518
v -3.370948 -53.9894 -2.85691
v -3.370948 -53.9894 -2.85691
v -1.874357 -54.61554 -3.514518
v -3.836001 -54.46472 -1.85219
v -3.836001 -54.46472 -1.85219
v -1.874357 -54.61554 -3.514518
v -1.554249 -55.15192 -3.174324
v -1.554249 -55.15192 -3.174324
v -1.874357 -54.61554 -3.514518
v -1.525891 -55.06903 -3.299988
v -1.525891 -55.06903 -3.299988
v -1.874357 -54.61554 -3.514518
v -1.671775 -54.84542 -3.430135
v -1.704937 -55.34128 -0.1347323
v -0.4706981 -53.70101 -0.4932171
v -2.153858 -55.27107 0.06685725
v -2.153858 -55.27107 0.06685725
v -0.4706981 -53.70101 -0.4932171
v -2.680496 -53.86875 0.4442881
v -2.680496 -53.86875 0.4442881
v -0.4706981 -53.70101 -0.4932171
v -2.287453 -53.37424 0.3271564
v -2.287453 -53.37424 0.3271564
v -0.4706981 -53.70101 -0.4932171
v -1.0322 -53.21038 -0.1980604
v -3.163485 -53.52563 -2.890603
v -3.754483 -53.831 -1.121762
v -2.951792 -53.35387 -2.968926
v -2.951792 -53.35387 -2.968926
v -3.754483 -53.831 -1.121762
v -2.499089 -52.95634 -2.867366
v -2.499089 -52.95634 -2.867366
v -3.754483 -53.831 -1.121762
v -2.319487 -52.72588 -2.179536
v -2.319487 -52.72588 -2.179536
v -3.754483 -53.831 -1.121762
v -2.654693 -52.7999 -0.2934068
v -2.654693 -52.7999 -0.2934068
v -3.754483 -53.831 -1.121762
v -2.856505 -52.94583 -0.06018251
v -2.856505 -52.94583 -0.06018251
v -3.754483 -53.831 -1.121762
v -3.4108 -53.44451 -0.2907824
v -2.856505 -52.94583 -0.06018251
v -3.4108 -53.44451 -0.2907824
v -2.77398 -53.25027 0.2974677
v -2.77398 -53.25027 0.2974677
v -3.4108 -53.44451 -0.2907824
v -2.92114 -53.53281 0.3644347
v -0.2729845 -53.17787 -0.5636896
v -0.2094255 -53.39136 -0.6046901
v -0.2732246 -53.17949 -0.5672605
v -0.2732246 -53.17949 -0.5672605
v -0.2094255 -53.39136 -0.6046901
v -0.2030562 -53.45698 -0.6767119
v -1.0322 -53.21038 -0.1980604
v -0.3696134 -53.09365 -0.5129035
v -2.287453 -53.37424 0.3271564
v -2.287453 -53.37424 0.3271564
v -0.3696134 -53.09365 -0.5129035
v -2.77398 -53.25027 0.2974677
v -2.77398 -53.25027 0.2974677
v -0.3696134 -53.09365 -0.5129035
v -2.856505 -52.94583 -0.06018251
v -2.856505 -52.94583 -0.06018251
v -0.3696134 -53.09365 -0.5129035
v -2.654693 -52.7999 -0.2934068
v -2.654693 -52.7999 -0.2934068
v -0.3696134 -53.09365 -0.5129035
v -1.394874 -52.62521 -0.8332514
v -2.453403 -54.29811 -3.349898
v -3.370948 -53.9894 -2.85691
v -2.951792 -53.35387 -2.968926
v -2.951792 -53.35387 -2.968926
v -3.370948 -53.9894 -2.85691
v -3.163485 -53.52563 -2.890603
v -1.704937 -55.34128 -0.1347323
v -2.153858 -55.27107 0.06685725
v -1.142798 -55.4854 -1.142127
v -1.142798 -55.4854 -1.142127
v -2.153858 -55.27107 0.06685725
v -1.23074 -55.49231 -1.380228
v -1.23074 -55.49231 -1.380228
v -2.153858 -55.27107 0.06685725
v -2.255801 -55.26974 -0.08368537
v -0.4706981 -53.70101 -0.4932171
v -1.704937 -55.34128 -0.1347323
v -0.2094255 -53.39136 -0.6046901
v -0.2094255 -53.39136 -0.6046901
v -1.704937 -55.34128 -0.1347323
v -0.2030562 -53.45698 -0.6767119
v -0.2030562 -53.45698 -0.6767119
v -1.704937 -55.34128 -0.1347323
v -0.2854066 -54.38081 -1.424169
v -0.2854066 -54.38081 -1.424169
v -1.704937 -55.34128 -0.1347323
v -1.142798 -55.4854 -1.142127
v -1.525891 -55.06903 -3.299988
v -1.488292 -55.01493 -3.326578
v -1.554249 -55.15192 -3.174324
v -1.554249 -55.15192 -3.174324
v -1.488292 -55.01493 -3.326578
v -1.23074 -55.49231 -1.380228
v -1.23074 -55.49231 -1.380228
v -1.488292 -55.01493 -3.326578
v -1.142798 -55.4854 -1.142127
v -1.142798 -55.4854 -1.142127
v -1.488292 -55.01493 -3.326578
v -0.2854066 -54.38081 -1.424169
v -1.394874 -52.62521 -0.8332514
v -2.319487 -52.72588 -2.179536
v -2.654693 -52.7999 -0.2934068
v -2.499089 -52.95634 -2.867366
v -2.264234 -53.14324 -2.954872
v -2.951792 -53.35387 -2.968926
v -2.951792 -53.35387 -2.968926
v -2.264234 -53.14324 -2.954872
v -2.453403 -54.29811 -3.349898
v -2.453403 -54.29811 -3.349898
v -2.264234 -53.14324 -2.954872
v -1.874357 -54.61554 -3.514518
v -1.525891 -55.06903 -3.299988
v -1.671775 -54.84542 -3.430135
v -1.488292 -55.01493 -3.326578
v -2.319487 -52.72588 -2.179536
v -1.394874 -52.62521 -0.8332514
v -2.499089 -52.95634 -2.867366
v -2.499089 -52.95634 -2.867366
v -1.394874 -52.62521 -0.8332514
v -2.264234 -53.14324 -2.954872
v -2.264234 -53.14324 -2.954872
v -1.394874 -52.62521 -0.8332514
v -0.2732246 -53.17949 -0.5672605
v -0.2732246 -53.17949 -0.5672605
v -1.394874 -52.62521 -0.8332514
v -0.2729845 -53.17787 -0.5636896
v -0.2729845 -53.17787 -0.5636896
v -1.394874 -52.62521 -0.8332514
v -0.3696134 -53.09365 -0.5129035
v -3.836001 -54.46472 -1.85219
v -3.852091 -54.46605 -1.792527
v -3.370948 -53.9894 -2.85691
v -3.370948 -53.9894 -2.85691
v -3.852091 -54.46605 -1.792527
v -3.163485 -53.52563 -2.890603
v -3.163485 -53.52563 -2.890603
v -3.852091 -54.46605 -1.792527
v -3.754483 -53.831 -1.121762
v -2.77398 -53.25027 0.2974677
v -2.92114 -53.53281 0.3644347
v -2.287453 -53.37424 0.3271564
v -2.287453 -53.37424 0.3271564
v -2.92114 -53.53281 0.3644347
v -2.680496 -53.86875 0.4442881
v -0.4706981 -53.70101 -0.4932171
v -0.2094255 -53.39136 -0.6046901
v -1.0322 -53.21038 -0.1980604
v -1.0322 -53.21038 -0.1980604
v -0.2094255 -53.39136 -0.6046901
v -0.3696134 -53.09365 -0.5129035
v -0.3696134 -53.09365 -0.5129035
v -0.2094255 -53.39136 -0.6046901
v -0.2729845 -53.17787 -0.5636896
v -2.255801 -55.26974 -0.08368537
v -3.852091 -54.46605 -1.792527
v -1.23074 -55.49231 -1.380228
v -1.23074 -55.49231 -1.380228
v -3.852091 -54.46605 -1.792527
v -1.554249 -55.15192 -3.174324
v -1.554249 -55.15192 -3.174324
v -3.852091 -54.46605 -1.792527
v -3.836001 -54.46472 -1.85219
v -3.754483 -53.831 -1.121762
v -3.852091 -54.46605 -1.792527
v -3.4108 -53.44451 -0.2907824
v -3.4108 -53.44451 -0.2907824
v -3.852091 -54.46605 -1.792527
v -2.92114 -53.53281 0.3644347
v -2.92114 -53.53281 0.3644347
v -3.852091 -54.46605 -1.792527
v -2.680496 -53.86875 0.4442881
v -2.680496 -53.86875 0.4442881
v -3.852091 -54.46605 -1.792527
v -2.153858 -55.27107 0.06685725
v -2.153858 -55.27107 0.06685725
v -3.852091 -54.46605 -1.792527
v -2.255801 -55.26974 -0.08368537
v -2.264234 -53.14324 -2.954872
v -0.2732246 -53.17949 -0.5672605
v -1.874357 -54.61554 -3.514518
v -1.874357 -54.61554 -3.514518
v -0.2732246 -53.17949 -0.5672605
v -1.671775 -54.84542 -3.430135
v -1.671775 -54.84542 -3.430135
v -0.2732246 -53.17949 -0.5672605
v -1.488292 -55.01493 -3.326578
v -1.488292 -55.01493 -3.326578
v -0.2732246 -53.17949 -0.5672605
v -0.2854066 -54.38081 -1.424169
v -0.2854066 -54.38081 -1.424169
v -0.2732246 -53.17949 -0.5672605
v -0.2030562 -53.45698 -0.6767119

vn -0.5162896 -0.6567417 -0.5496686
vn -0.5162896 -0.6567417 -0.5496686
vn -0.5162896 -0.6567417 -0.5496686
vn -0.5162896 -0.6567417 -0.5496686
vn -0.5162896 -0.6567417 -0.5496686
vn -0.5162896 -0.6567417 -0.5496686
vn -0.5162896 -0.6567417 -0.5496686
vn -0.5162896 -0.6567417 -0.5496686
vn -0.5162896 -0.6567417 -0.5496686
vn -0.5162896 -0.6567417 -0.5496686
vn -0.5162896 -0.6567417 -0.5496686
vn -0.5162896 -0.6567417 -0.5496686
vn -0.5162896 -0.6567417 -0.5496686
vn -0.5162896 -0.6567417 -0.5496686
vn -0.5162896 -0.6567417 -0.5496686
vn 0.3949581 -0.0975421 0.9135062
vn 0.3949581 -0.0975421 0.9135062
vn 0.3949581 -0.0975421 0.9135062
vn 0.3949581 -0.0975421 0.9135062
vn 0.3949581 -0.0975421 0.9135062
vn 0.3949581 -0.0975421 0.9135062
vn 0.3949581 -0.0975421 0.9135062
vn 0.3949581 -0.0975421 0.9135062
vn 0.3949581 -0.0975421 0.9135062
vn 0.3949581 -0.0975421 0.9135062
vn 0.3949581 -0.0975421 0.9135062
vn 0.3949581 -0.0975421 0.9135062
vn -0.6465855 0.7580732 -0.08516093
vn -0.6465855 0.7580732 -0.08516093
vn -0.6465855 0.7580732 -0.08516093
vn -0.6465855 0.7580732 -0.08516093
vn -0.6465855 0.7580732 -0.08516093
vn -0.6465855 0.7580732 -0.08516093
vn -0.6465855 0.7580732 -0.08516093
vn -0.6465855 0.7580732 -0.08516093
vn -0.6465855 0.7580732 -0.08516093
vn -0.6465855 0.7580732 -0.08516093
vn -0.6465855 0.7580732 -0.08516093
vn -0.6465855 0.7580732 -0.08516093
vn -0.6465855 0.7580732 -0.08516093
vn -0.6465855 0.7580732 -0.08516093
vn -0.6465855 0.7580732 -0.08516093
vn -0.6465855 0.7580732 -0.08516093
vn -0.6465855 0.7580732 -0.08516093
vn -0.6465855 0.7580732 -0.08516093
vn -0.6691959 0.4824969 0.5651315
vn -0.6691959 0.4824969 0.5651315
vn -0.6691959 0.4824969 0.5651315
vn -0.6691959 0.4824969 0.5651315
vn -0.6691959 0.4824969 0.5651315
vn -0.6691959 0.4824969 0.5651315
vn 0.9265299 0.3152657 -0.2053047
vn 0.9265299 0.3152657 -0.2053047
vn 0.9265299 0.3152657 -0.2053047
vn 0.9265299 0.3152657 -0.2053047
vn 0.9265299 0.3152657 -0.2053047
vn 0.9265299 0.3152657 -0.2053047
vn 0.1583536 0.7696028 0.6185756
vn 0.1583536 0.7696028 0.6185756
vn 0.1583536 0.7696028 0.6185756
vn 0.1583536 0.7696028 0.6185756
vn 0.1583536 0.7696028 0.6185756
vn 0.1583536 0.7696028 0.6185756
vn 0.1583536 0.7696028 0.6185756
vn 0.1583536 0.7696028 0.6185756
vn 0.1583536 0.7696028 0.6185756
vn 0.1583536 0.7696028 0.6185756
vn 0.1583536 0.7696028 0.6185756
vn 0.1583536 0.7696028 0.6185756
vn 0.1583536 0.7696028 0.6185756
vn 0.1583536 0.7696028 0.6185756
vn 0.1583536 0.7696028 0.6185756
vn -0.435031 0.1298731 -0.8910001
vn -0.435031 0.1298731 -0.8910001
vn -0.435031 0.1298731 -0.8910001
vn -0.435031 0.1298731 -0.8910001
vn -0.435031 0.1298731 -0.8910001
vn -0.435031 0.1298731 -0.8910001
vn -0.1217146 -0.9898262 0.07368565
vn -0.1217146 -0.9898262 0.07368565
vn -0.1217146 -0.9898262 0.07368565
vn -0.1217146 -0.9898262 0.07368565
vn -0.1217146 -0.9898262 0.07368565
vn -0.1217146 -0.9898262 0.07368565
vn -0.1217146 -0.9898262 0.07368565
vn -0.1217146 -0.9898262 0.07368565
vn -0.1217146 -0.9898262 0.07368565
vn 0.7473479 -0.4569159 0.482389
vn 0.7473479 -0.4569159 0.482389
vn 0.7473479 -0.4569159 0.482389
vn 0.7473479 -0.4569159 0.482389
vn 0.7473479 -0.4569159 0.482389
vn 0.7473479 -0.4569159 0.482389
vn 0.7473479 -0.4569159 0.482389
vn 0.7473479 -0.4569159 0.482389
vn 0.7473479 -0.4569159 0.482389
vn 0.7473479 -0.4569159 0.482389
vn 0.7473479 -0.4569159 0.482389
vn 0.7473479 -0.4569159 0.482389
vn 0.7322138 -0.6327086 -0.2520771
vn 0.7322138 -0.6327086 -0.2520771
vn 0.7322138 -0.6327086 -0.2520771
vn 0.7322138 -0.6327086 -0.2520771
vn 0.7322138 -0.6327086 -0.2520771
vn 0.7322138 -0.6327086 -0.2520771
vn 0.7322138 -0.6327086 -0.2520771
vn 0.7322138 -0.6327086 -0.2520771
vn 0.7322138 -0.6327086 -0.2520771
vn 0.7322138 -0.6327086 -0.2520771
vn 0.7322138 -0.6327086 -0.2520771
vn 0.7322138 -0.6327086 -0.2520771
vn -0.1307424 0.9912927 0.01566683
vn -0.1307424 0.9912927 0.01566683
vn -0.1307424 0.9912927 0.01566683
vn -0.08335579 0.3347256 -0.9386216
vn -0.08335579 0.3347256 -0.9386216
vn -0.08335579 0.3347256 -0.9386216
vn -0.08335579 0.3347256 -0.9386216
vn -0.08335579 0.3347256 -0.9386216
vn -0.08335579 0.3347256 -0.9386216
vn -0.08335579 0.3347256 -0.9386216
vn -0.08335579 0.3347256 -0.9386216
vn -0.08335579 0.3347256 -0.9386216
vn 0.05908283 -0.4730692 -0.879042
vn 0.05908283 -0.4730692 -0.879042
vn 0.05908283 -0.4730692 -0.879042
vn 0.4806305 0.785991 -0.3888606
vn 0.4806305 0.785991 -0.3888606
vn 0.4806305 0.785991 -0.3888606
vn 0.4806305 0.785991 -0.3888606
vn 0.4806305 0.785991 -0.3888606
vn 0.4806305 0.785991 -0.3888606
vn 0.4806305 0.785991 -0.3888606
vn 0.4806305 0.785991 -0.3888606
vn 0.4806305 0.785991 -0.3888606
vn 0.4806305 0.785991 -0.3888606
vn 0.4806305 0.785991 -0.3888606
vn 0.4806305 0.785991 -0.3888606
vn 0.4806305 0.785991 -0.3888606
vn 0.4806305 0.785991 -0.3888606
vn 0.4806305 0.785991 -0.3888606
vn -0.89397 0.3830562 -0.2325635
vn -0.89397 0.3830562 -0.2325635
vn -0.89397 0.3830562 -0.2325635
vn -0.89397 0.3830562 -0.2325635
vn -0.89397 0.3830562 -0.2325635
vn -0.89397 0.3830562 -0.2325635
vn -0.89397 0.3830562 -0.2325635
vn -0.89397 0.3830562 -0.2325635
vn -0.89397 0.3830562 -0.2325635
vn -0.0005467022 0.2308974 0.9729779
vn -0.0005467022 0.2308974 0.9729779
vn -0.0005467022 0.2308974 0.9729779
vn -0.0005467022 0.2308974 0.9729779
vn -0.0005467022 0.2308974 0.9729779
vn -0.0005467022 0.2308974 0.9729779
vn 0.4349919 -0.04325226 0.899395
vn 0.4349919 -0.04325226 0.899395
vn 0.4349919 -0.04325226 0.899395
vn 0.4349919 -0.04325226 0.899395
vn 0.4349919 -0.04325226 0.899395
vn 0.4349919 -0.04325226 0.899395
vn 0.4349919 -0.04325226 0.899395
vn 0.4349919 -0.04325226 0.899395
vn 0.4349919 -0.04325226 0.899395
vn -0.3465593 -0.9310549 -0.1141645
vn -0.3465593 -0.9310549 -0.1141645
vn -0.3465593 -0.9310549 -0.1141645
vn -0.3465593 -0.9310549 -0.1141645
vn -0.3465593 -0.9310549 -0.1141645
vn -0.3465593 -0.9310549 -0.1141645
vn -0.3465593 -0.9310549 -0.1141645
vn -0.3465593 -0.9310549 -0.1141645
vn -0.3465593 -0.9310549 -0.1141645
vn -0.7533913 -0.4192685 0.5065724
vn -0.7533913 -0.4192685 0.5065724
vn -0.7533913 -0.4192685 0.5065724
vn -0.7533913 -0.4192685 0.5065724
vn -0.7533913 -0.4192685 0.5065724
vn -0.7533913 -0.4192685 0.5065724
vn -0.7533913 -0.4192685 0.5065724
vn -0.7533913 -0.4192685 0.5065724
vn -0.7533913 -0.4192685 0.5065724
vn -0.7533913 -0.4192685 0.5065724
vn -0.7533913 -0.4192685 0.5065724
vn -0.7533913 -0.4192685 0.5065724
vn -0.7533913 -0.4192685 0.5065724
vn -0.7533913 -0.4192685 0.5065724
vn -0.7533913 -0.4192685 0.5065724
vn 0.7044139 0.4074352 -0.5812036
vn 0.7044139 0.4074352 -0.5812036
vn 0.7044139 0.4074352 -0.5812036
vn 0.7044139 0.4074352 -0.5812036
vn 0.7044139 0.4074352 -0.5812036
vn 0.7044139 0.4074352 -0.5812036
vn 0.7044139 0.4074352 -0.5812036
vn 0.7044139 0.4074352 -0.5812036
vn 0.7044139 0.4074352 -0.5812036
vn 0.7044139 0.4074352 -0.5812036
vn 0.7044139 0.4074352 -0.5812036
vn 0.7044139 0.4074352 -0.5812036
vn 0.7044139 0.4074352 -0.5812036
vn 0.7044139 0.4074352 -0.5812036
vn 0.7044139 0.4074352 -0.5812036

vt 0.5364497 0.6792346
vt 0.4597953 0.7024202
vt 0.6437903 0.6097899
vt 0.6437903 0.6097899
vt 0.4597953 0.7024202
vt 0.6522471 0.4682521
vt 0.6522471 0.4682521
vt 0.4597953 0.7024202
vt 0.3911664 0.6545019
vt 0.3911664 0.6545019
vt 0.4597953 0.7024202
vt 0.3945697 0.6722029
vt 0.3945697 0.6722029
vt 0.4597953 0.7024202
vt 0.4243323 0.6905321
vt 0.3959948 0.4997304
vt 0.5664608 0.3559612
vt 0.4057547 0.5520178
vt 0.4057547 0.5520178
vt 0.5664608 0.3559612
vt 0.5592604 0.6133526
vt 0.5592604 0.6133526
vt 0.5664608 0.3559612
vt 0.6105446 0.5675719
vt 0.6105446 0.5675719
vt 0.5664608 0.3559612
vt 0.6220109 0.4213603
vt 0.4545262 0.6383478
vt 0.3906085 0.4631799
vt 0.4814153 0.6461014
vt 0.4814153 0.6461014
vt 0.3906085 0.4631799
vt 0.5408562 0.6360508
vt 0.5408562 0.6360508
vt 0.3906085 0.4631799
vt 0.5690954 0.5679375
vt 0.5690954 0.5679375
vt 0.3906085 0.4631799
vt 0.5391968 0.3811486
vt 0.5391968 0.3811486
vt 0.3906085 0.4631799
vt 0.5146985 0.3580519
vt 0.5146985 0.3580519
vt 0.3906085 0.4631799
vt 0.4411567 0.3808908
vt 0.5651483 0.4743508
vt 0.4783167 0.5076621
vt 0.5414751 0.4226916
vt 0.5414751 0.4226916
vt 0.4783167 0.5076621
vt 0.5039073 0.4130207
vt 0.4340548 0.3799485
vt 0.4564107 0.3841581
vt 0.4342001 0.3803142
vt 0.4342001 0.3803142
vt 0.4564107 0.3841581
vt 0.4628564 0.3915507
vt 0.5785553 0.4865859
vt 0.656813 0.5367169
vt 0.428856 0.4029467
vt 0.428856 0.4029467
vt 0.656813 0.5367169
vt 0.3661055 0.407672
vt 0.3661055 0.407672
vt 0.656813 0.5367169
vt 0.3483154 0.4646237
vt 0.3483154 0.4646237
vt 0.656813 0.5367169
vt 0.3693682 0.5017649
vt 0.3693682 0.5017649
vt 0.656813 0.5367169
vt 0.5193581 0.5877293
vt 0.4717819 0.606696
vt 0.4789964 0.3715621
vt 0.6368243 0.4249886
vt 0.6368243 0.4249886
vt 0.4789964 0.3715621
vt 0.5880715 0.3876318
vt 0.4500401 0.3859864
vt 0.4948036 0.3660586
vt 0.3933087 0.485564
vt 0.3933087 0.485564
vt 0.4948036 0.3660586
vt 0.401831 0.5090966
vt 0.401831 0.5090966
vt 0.4948036 0.3660586
vt 0.5047979 0.3809376
vt 0.3388696 0.4662035
vt 0.5681859 0.4202727
vt 0.2939232 0.4804824
vt 0.2939232 0.4804824
vt 0.5681859 0.4202727
vt 0.2998345 0.489708
vt 0.2998345 0.489708
vt 0.5681859 0.4202727
vt 0.3931118 0.5854791
vt 0.3931118 0.5854791
vt 0.5681859 0.4202727
vt 0.5490786 0.5493458
vt 0.5143797 0.6692027
vt 0.5077231 0.6719967
vt 0.5226302 0.6560113
vt 0.5226302 0.6560113
vt 0.5077231 0.6719967
vt 0.5273179 0.4676708
vt 0.5273179 0.4676708
vt 0.5077231 0.6719967
vt 0.5209426 0.4426756
vt 0.5209426 0.4426756
vt 0.5077231 0.6719967
vt 0.3790813 0.4722835
vt 0.5700704 0.4502698
vt 0.4786495 0.5826571
vt 0.4450195 0.3971854
vt 0.4169585 0.5131
vt 0.4372237 0.4898486
vt 0.4572639 0.557915
vt 0.4572639 0.557915
vt 0.4372237 0.4898486
vt 0.5576291 0.5085809
vt 0.5576291 0.5085809
vt 0.4372237 0.4898486
vt 0.5925811 0.4512589
vt 0.4132926 0.550349
vt 0.43743 0.6066491
vt 0.4042171 0.5618528
vt 0.3695323 0.5297697
vt 0.4480946 0.3738357
vt 0.3660118 0.6094337
vt 0.3660118 0.6094337
vt 0.4480946 0.3738357
vt 0.3977948 0.6195686
vt 0.3977948 0.6195686
vt 0.4480946 0.3738357
vt 0.5810586 0.3430229
vt 0.5810586 0.3430229
vt 0.4480946 0.3738357
vt 0.5809929 0.3426104
vt 0.5809929 0.3426104
vt 0.4480946 0.3738357
vt 0.5675109 0.3367319
vt 0.4056562 0.509106
vt 0.4048921 0.5029088
vt 0.4683364 0.6135214
vt 0.4683364 0.6135214
vt 0.4048921 0.5029088
vt 0.5196769 0.6170278
vt 0.5196769 0.6170278
vt 0.4048921 0.5029088
vt 0.4677786 0.4331922
vt 0.5618575 0.55709
vt 0.5333089 0.5715564
vt 0.5493317 0.509256
vt 0.5493317 0.509256
vt 0.5333089 0.5715564
vt 0.4993695 0.5478926
vt 0.3110055 0.7071736
vt 0.2358933 0.7645239
vt 0.2137061 0.5553274
vt 0.2137061 0.5553274
vt 0.2358933 0.7645239
vt 0.1728381 0.7172992
vt 0.1728381 0.7172992
vt 0.2358933 0.7645239
vt 0.1895406 0.7434289
vt 0.4827466 0.3632694
vt 0.6585287 0.5334824
vt 0.3799954 0.4924175
vt 0.3799954 0.4924175
vt 0.6585287 0.5334824
vt 0.4217494 0.6711247
vt 0.4217494 0.6711247
vt 0.6585287 0.5334824
vt 0.6570848 0.5394264
vt 0.6393369 0.5506115
vt 0.5814804 0.6393229
vt 0.6587818 0.4407208
vt 0.6587818 0.4407208
vt 0.5814804 0.6393229
vt 0.6228454 0.354072
vt 0.6228454 0.354072
vt 0.5814804 0.6393229
vt 0.5760333 0.3435105
vt 0.5760333 0.3435105
vt 0.5814804 0.6393229
vt 0.4071095 0.3934259
vt 0.4071095 0.3934259
vt 0.5814804 0.6393229
vt 0.4128895 0.4133348
vt 0.3471763 0.6305943
vt 0.4714069 0.2761284
vt 0.5247397 0.7136709
vt 0.5247397 0.7136709
vt 0.4714069 0.2761284
vt 0.5610324 0.7011452
vt 0.5610324 0.7011452
vt 0.4714069 0.2761284
vt 0.5898528 0.6857787
vt 0.5898528 0.6857787
vt 0.4714069 0.2761284
vt 0.5963032 0.4033452
vt 0.5963032 0.4033452
vt 0.4714069 0.2761284
vt 0.5046666 0.2923763

usemtl Material0
usemap Material0

usemtl Material1
usemap Material1
f 1/1/1 2/2/2 3/3/3
f 4/4/4 5/5/5 6/6/6
f 7/7/7 8/8/8 9/9/9
f 10/10/10 11/11/11 12/12/12
f 13/13/13 14/14/14 15/15/15
f 16/16/16 17/17/17 18/18/18
f 19/19/19 20/20/20 21/21/21
f 22/22/22 23/23/23 24/24/24
f 25/25/25 26/26/26 27/27/27
f 28/28/28 29/29/29 30/30/30
f 31/31/31 32/32/32 33/33/33
f 34/34/34 35/35/35 36/36/36
f 37/37/37 38/38/38 39/39/39
f 40/40/40 41/41/41 42/42/42
f 43/43/43 44/44/44 45/45/45
f 46/46/46 47/47/47 48/48/48
f 49/49/49 50/50/50 51/51/51
f 52/52/52 53/53/53 54/54/54
f 55/55/55 56/56/56 57/57/57
f 58/58/58 59/59/59 60/60/60
f 61/61/61 62/62/62 63/63/63
f 64/64/64 65/65/65 66/66/66
f 67/67/67 68/68/68 69/69/69
f 70/70/70 71/71/71 72/72/72
f 73/73/73 74/74/74 75/75/75
f 76/76/76 77/77/77 78/78/78
f 79/79/79 80/80/80 81/81/81
f 82/82/82 83/83/83 84/84/84
f 85/85/85 86/86/86 87/87/87
f 88/88/88 89/89/89 90/90/90
f 91/91/91 92/92/92 93/93/93
f 94/94/94 95/95/95 96/96/96
f 97/97/97 98/98/98 99/99/99
f 100/100/100 101/101/101 102/102/102
f 103/103/103 104/104/104 105/105/105
f 106/106/106 107/107/107 108/108/108
f 109/109/109 110/110/110 111/111/111
f 112/112/112 113/113/113 114/114/114
f 115/115/115 116/116/116 117/117/117
f 118/118/118 119/119/119 120/120/120
f 121/121/121 122/122/122 123/123/123
f 124/124/124 125/125/125 126/126/126
f 127/127/127 128/128/128 129/129/129
f 130/130/130 131/131/131 132/132/132
f 133/133/133 134/134/134 135/135/135
f 136/136/136 137/137/137 138/138/138
f 139/139/139 140/140/140 141/141/141
f 142/142/142 143/143/143 144/144/144
f 145/145/145 146/146/146 147/147/147
f 148/148/148 149/149/149 150/150/150
f 151/151/151 152/152/152 153/153/153
f 154/154/154 155/155/155 156/156/156
f 157/157/157 158/158/158 159/159/159
f 160/160/160 161/161/161 162/162/162
f 163/163/163 164/164/164 165/165/165
f 166/166/166 167/167/167 168/168/168
f 169/169/169 170/170/170 171/171/171
f 172/172/172 173/173/173 174/174/174
f 175/175/175 176/176/176 177/177/177
f 178/178/178 179/179/179 180/180/180
f 181/181/181 182/182/182 183/183/183
f 184/184/184 185/185/185 186/186/186
f 187/187/187 188/188/188 189/189/189
f 190/190/190 191/191/191 192/192/192
f 193/193/193 194/194/194 195/195/195
f 196/196/196 197/197/197 198/198/198
f 199/199/199 200/200/200 201/201/201
f 202/202/202 203/203/203 204/204/204
