g  Instance
v -0.4580819 -48.05152 6.433506
v -1.014211 -48.19263 6.548194
v 0.4001607 -48.10138 6.894038
v -0.2646272 -49.94215 4.6865
v -0.2324768 -49.74413 4.69893
v -0.2384031 -50.24871 4.761942
v -0.2384031 -50.24871 4.761942
v -0.2324768 -49.74413 4.69893
v 1.106557 -50.04613 6.409388
v 1.106557 -50.04613 6.409388
v -0.2324768 -49.74413 4.69893
v 0.9348022 -49.13895 6.068833
v -0.2324768 -49.74413 4.69893
v -0.2646272 -49.94215 4.6865
v -0.4664393 -49.55987 4.761954
v -0.4664393 -49.55987 4.761954
v -0.2646272 -49.94215 4.6865
v -0.5333347 -49.78693 4.753557
v -1.014211 -48.19263 6.548194
v -1.458269 -48.37321 6.502492
v 0.4001607 -48.10138 6.894038
v 0.4001607 -48.10138 6.894038
v -1.458269 -48.37321 6.502492
v 0.6673089 -48.15934 6.990483
v 0.6673089 -48.15934 6.990483
v -1.458269 -48.37321 6.502492
v 0.8330202 -49.06137 7.408743
v 0.8330202 -49.06137 7.408743
v -1.458269 -48.37321 6.502492
v -0.4355215 -49.85017 7.391137
v -1.776457 -49.8105 5.46663
v -1.052102 -50.98452 6.044775
v -1.862119 -48.91285 5.702053
v -1.862119 -48.91285 5.702053
v -1.052102 -50.98452 6.044775
v -1.458269 -48.37321 6.502492
v -1.458269 -48.37321 6.502492
v -1.052102 -50.98452 6.044775
v -0.4355215 -49.85017 7.391137
v -0.4355215 -49.85017 7.391137
v -1.052102 -50.98452 6.044775
v -0.2651569 -50.70905 7.293806
v -0.2651569 -50.70905 7.293806
v -1.052102 -50.98452 6.044775
v -0.5352111 -51.21869 6.698985
v -0.7008685 -51.03737 5.545811
v -0.2123028 -51.33498 6.841338
v -0.813814 -51.00323 5.554094
v -0.813814 -51.00323 5.554094
v -0.2123028 -51.33498 6.841338
v -1.052102 -50.98452 6.044775
v -1.052102 -50.98452 6.044775
v -0.2123028 -51.33498 6.841338
v -0.5352111 -51.21869 6.698985
v 1.131016 -50.41288 7.25408
v 0.8330202 -49.06137 7.408743
v 0.5940561 -50.89523 7.231286
v 0.5940561 -50.89523 7.231286
v 0.8330202 -49.06137 7.408743
v 0.1830469 -51.21846 7.218589
v 0.1830469 -51.21846 7.218589
v 0.8330202 -49.06137 7.408743
v -0.2651569 -50.70905 7.293806
v -0.2651569 -50.70905 7.293806
v 0.8330202 -49.06137 7.408743
v -0.4355215 -49.85017 7.391137
v 1.13954 -50.43177 7.183412
v 1.106557 -50.04613 6.409388
v 1.131016 -50.41288 7.25408
v 1.131016 -50.41288 7.25408
v 1.106557 -50.04613 6.409388
v 0.8330202 -49.06137 7.408743
v 0.8330202 -49.06137 7.408743
v 1.106557 -50.04613 6.409388
v 0.6673089 -48.15934 6.990483
v 0.6673089 -48.15934 6.990483
v 1.106557 -50.04613 6.409388
v 0.9348022 -49.13895 6.068833
v -0.2646272 -49.94215 4.6865
v -0.2384031 -50.24871 4.761942
v -0.5333347 -49.78693 4.753557
v -0.5333347 -49.78693 4.753557
v -0.2384031 -50.24871 4.761942
v -1.424255 -50.08873 5.205593
v -1.424255 -50.08873 5.205593
v -0.2384031 -50.24871 4.761942
v -0.9605995 -50.61768 5.163348
v -0.9605995 -50.61768 5.163348
v -0.2384031 -50.24871 4.761942
v -0.5517166 -50.62542 4.997036
v -0.4580819 -48.05152 6.433506
v 0.4001607 -48.10138 6.894038
v -1.010045 -48.84634 5.223717
v -1.010045 -48.84634 5.223717
v 0.4001607 -48.10138 6.894038
v -0.4664393 -49.55987 4.761954
v -0.4664393 -49.55987 4.761954
v 0.4001607 -48.10138 6.894038
v -0.2324768 -49.74413 4.69893
v -0.2324768 -49.74413 4.69893
v 0.4001607 -48.10138 6.894038
v 0.9348022 -49.13895 6.068833
v 0.9348022 -49.13895 6.068833
v 0.4001607 -48.10138 6.894038
v 0.6673089 -48.15934 6.990483
v -0.2651569 -50.70905 7.293806
v -0.5352111 -51.21869 6.698985
v 0.1830469 -51.21846 7.218589
v 0.1830469 -51.21846 7.218589
v -0.5352111 -51.21869 6.698985
v -0.2123028 -51.33498 6.841338
v -0.5517166 -50.62542 4.997036
v -0.2384031 -50.24871 4.761942
v -0.7008685 -51.03737 5.545811
v -0.7008685 -51.03737 5.545811
v -0.2384031 -50.24871 4.761942
v -0.2123028 -51.33498 6.841338
v -0.2123028 -51.33498 6.841338
v -0.2384031 -50.24871 4.761942
v 0.1830469 -51.21846 7.218589
v 0.1830469 -51.21846 7.218589
v -0.2384031 -50.24871 4.761942
v 0.5940561 -50.89523 7.231286
v 0.5940561 -50.89523 7.231286
v -0.2384031 -50.24871 4.761942
v 1.13954 -50.43177 7.183412
v 1.13954 -50.43177 7.183412
v -0.2384031 -50.24871 4.761942
v 1.106557 -50.04613 6.409388
v -1.424255 -50.08873 5.205593
v -0.9605995 -50.61768 5.163348
v -1.776457 -49.8105 5.46663
v -1.776457 -49.8105 5.46663
v -0.9605995 -50.61768 5.163348
v -1.052102 -50.98452 6.044775
v -1.052102 -50.98452 6.044775
v -0.9605995 -50.61768 5.163348
v -0.813814 -51.00323 5.554094
v -0.4580819 -48.05152 6.433506
v -1.010045 -48.84634 5.223717
v -1.014211 -48.19263 6.548194
v -1.014211 -48.19263 6.548194
v -1.010045 -48.84634 5.223717
v -1.458269 -48.37321 6.502492
v -1.458269 -48.37321 6.502492
v -1.010045 -48.84634 5.223717
v -1.862119 -48.91285 5.702053
v -1.862119 -48.91285 5.702053
v -1.010045 -48.84634 5.223717
v -1.776457 -49.8105 5.46663
v -1.776457 -49.8105 5.46663
v -1.010045 -48.84634 5.223717
v -1.424255 -50.08873 5.205593
v -1.424255 -50.08873 5.205593
v -1.010045 -48.84634 5.223717
v -0.5333347 -49.78693 4.753557
v -0.5333347 -49.78693 4.753557
v -1.010045 -48.84634 5.223717
v -0.4664393 -49.55987 4.761954
v 0.5940561 -50.89523 7.231286
v 1.13954 -50.43177 7.183412
v 1.131016 -50.41288 7.25408
v -0.5517166 -50.62542 4.997036
v -0.7008685 -51.03737 5.545811
v -0.9605995 -50.61768 5.163348
v -0.9605995 -50.61768 5.163348
v -0.7008685 -51.03737 5.545811
v -0.813814 -51.00323 5.554094

vn -0.1523361 0.9112921 0.3825446
vn -0.1523361 0.9112921 0.3825446
vn -0.1523361 0.9112921 0.3825446
vn 0.7769138 -0.08699574 -0.6235679
vn 0.7769138 -0.08699574 -0.6235679
vn 0.7769138 -0.08699574 -0.6235679
vn 0.7769138 -0.08699574 -0.6235679
vn 0.7769138 -0.08699574 -0.6235679
vn 0.7769138 -0.08699574 -0.6235679
vn 0.7769138 -0.08699574 -0.6235679
vn 0.7769138 -0.08699574 -0.6235679
vn 0.7769138 -0.08699574 -0.6235679
vn -0.1905822 0.09229441 -0.9773231
vn -0.1905822 0.09229441 -0.9773231
vn -0.1905822 0.09229441 -0.9773231
vn -0.1905822 0.09229441 -0.9773231
vn -0.1905822 0.09229441 -0.9773231
vn -0.1905822 0.09229441 -0.9773231
vn -0.2430913 0.3709326 0.8962788
vn -0.2430913 0.3709326 0.8962788
vn -0.2430913 0.3709326 0.8962788
vn -0.2430913 0.3709326 0.8962788
vn -0.2430913 0.3709326 0.8962788
vn -0.2430913 0.3709326 0.8962788
vn -0.2430913 0.3709326 0.8962788
vn -0.2430913 0.3709326 0.8962788
vn -0.2430913 0.3709326 0.8962788
vn -0.2430913 0.3709326 0.8962788
vn -0.2430913 0.3709326 0.8962788
vn -0.2430913 0.3709326 0.8962788
vn -0.8021532 -0.2219352 0.5543419
vn -0.8021532 -0.2219352 0.5543419
vn -0.8021532 -0.2219352 0.5543419
vn -0.8021532 -0.2219352 0.5543419
vn -0.8021532 -0.2219352 0.5543419
vn -0.8021532 -0.2219352 0.5543419
vn -0.8021532 -0.2219352 0.5543419
vn -0.8021532 -0.2219352 0.5543419
vn -0.8021532 -0.2219352 0.5543419
vn -0.8021532 -0.2219352 0.5543419
vn -0.8021532 -0.2219352 0.5543419
vn -0.8021532 -0.2219352 0.5543419
vn -0.8021532 -0.2219352 0.5543419
vn -0.8021532 -0.2219352 0.5543419
vn -0.8021532 -0.2219352 0.5543419
vn -0.2948194 -0.9495487 -0.1069519
vn -0.2948194 -0.9495487 -0.1069519
vn -0.2948194 -0.9495487 -0.1069519
vn -0.2948194 -0.9495487 -0.1069519
vn -0.2948194 -0.9495487 -0.1069519
vn -0.2948194 -0.9495487 -0.1069519
vn -0.2948194 -0.9495487 -0.1069519
vn -0.2948194 -0.9495487 -0.1069519
vn -0.2948194 -0.9495487 -0.1069519
vn 0.05004506 -0.1026549 0.9934574
vn 0.05004506 -0.1026549 0.9934574
vn 0.05004506 -0.1026549 0.9934574
vn 0.05004506 -0.1026549 0.9934574
vn 0.05004506 -0.1026549 0.9934574
vn 0.05004506 -0.1026549 0.9934574
vn 0.05004506 -0.1026549 0.9934574
vn 0.05004506 -0.1026549 0.9934574
vn 0.05004506 -0.1026549 0.9934574
vn 0.05004506 -0.1026549 0.9934574
vn 0.05004506 -0.1026549 0.9934574
vn 0.05004506 -0.1026549 0.9934574
vn 0.9761295 0.2081229 0.06209931
vn 0.9761295 0.2081229 0.06209931
vn 0.9761295 0.2081229 0.06209931
vn 0.9761295 0.2081229 0.06209931
vn 0.9761295 0.2081229 0.06209931
vn 0.9761295 0.2081229 0.06209931
vn 0.9761295 0.2081229 0.06209931
vn 0.9761295 0.2081229 0.06209931
vn 0.9761295 0.2081229 0.06209931
vn 0.9761295 0.2081229 0.06209931
vn 0.9761295 0.2081229 0.06209931
vn 0.9761295 0.2081229 0.06209931
vn -0.368729 -0.251743 -0.8947986
vn -0.368729 -0.251743 -0.8947986
vn -0.368729 -0.251743 -0.8947986
vn -0.368729 -0.251743 -0.8947986
vn -0.368729 -0.251743 -0.8947986
vn -0.368729 -0.251743 -0.8947986
vn -0.368729 -0.251743 -0.8947986
vn -0.368729 -0.251743 -0.8947986
vn -0.368729 -0.251743 -0.8947986
vn -0.368729 -0.251743 -0.8947986
vn -0.368729 -0.251743 -0.8947986
vn -0.368729 -0.251743 -0.8947986
vn 0.3739064 0.6876358 -0.6223754
vn 0.3739064 0.6876358 -0.6223754
vn 0.3739064 0.6876358 -0.6223754
vn 0.3739064 0.6876358 -0.6223754
vn 0.3739064 0.6876358 -0.6223754
vn 0.3739064 0.6876358 -0.6223754
vn 0.3739064 0.6876358 -0.6223754
vn 0.3739064 0.6876358 -0.6223754
vn 0.3739064 0.6876358 -0.6223754
vn 0.3739064 0.6876358 -0.6223754
vn 0.3739064 0.6876358 -0.6223754
vn 0.3739064 0.6876358 -0.6223754
vn 0.3739064 0.6876358 -0.6223754
vn 0.3739064 0.6876358 -0.6223754
vn 0.3739064 0.6876358 -0.6223754
vn -0.4946241 -0.536197 0.6839882
vn -0.4946241 -0.536197 0.6839882
vn -0.4946241 -0.536197 0.6839882
vn -0.4946241 -0.536197 0.6839882
vn -0.4946241 -0.536197 0.6839882
vn -0.4946241 -0.536197 0.6839882
vn 0.5781826 -0.7201731 -0.3834783
vn 0.5781826 -0.7201731 -0.3834783
vn 0.5781826 -0.7201731 -0.3834783
vn 0.5781826 -0.7201731 -0.3834783
vn 0.5781826 -0.7201731 -0.3834783
vn 0.5781826 -0.7201731 -0.3834783
vn 0.5781826 -0.7201731 -0.3834783
vn 0.5781826 -0.7201731 -0.3834783
vn 0.5781826 -0.7201731 -0.3834783
vn 0.5781826 -0.7201731 -0.3834783
vn 0.5781826 -0.7201731 -0.3834783
vn 0.5781826 -0.7201731 -0.3834783
vn 0.5781826 -0.7201731 -0.3834783
vn 0.5781826 -0.7201731 -0.3834783
vn 0.5781826 -0.7201731 -0.3834783
vn 0.5781826 -0.7201731 -0.3834783
vn 0.5781826 -0.7201731 -0.3834783
vn 0.5781826 -0.7201731 -0.3834783
vn -0.7232334 -0.6077463 -0.3279907
vn -0.7232334 -0.6077463 -0.3279907
vn -0.7232334 -0.6077463 -0.3279907
vn -0.7232334 -0.6077463 -0.3279907
vn -0.7232334 -0.6077463 -0.3279907
vn -0.7232334 -0.6077463 -0.3279907
vn -0.7232334 -0.6077463 -0.3279907
vn -0.7232334 -0.6077463 -0.3279907
vn -0.7232334 -0.6077463 -0.3279907
vn -0.3037808 0.8539608 -0.4224551
vn -0.3037808 0.8539608 -0.4224551
vn -0.3037808 0.8539608 -0.4224551
vn -0.3037808 0.8539608 -0.4224551
vn -0.3037808 0.8539608 -0.4224551
vn -0.3037808 0.8539608 -0.4224551
vn -0.3037808 0.8539608 -0.4224551
vn -0.3037808 0.8539608 -0.4224551
vn -0.3037808 0.8539608 -0.4224551
vn -0.492266 0.1765639 -0.8523494
vn -0.492266 0.1765639 -0.8523494
vn -0.492266 0.1765639 -0.8523494
vn -0.492266 0.1765639 -0.8523494
vn -0.492266 0.1765639 -0.8523494
vn -0.492266 0.1765639 -0.8523494
vn -0.492266 0.1765639 -0.8523494
vn -0.492266 0.1765639 -0.8523494
vn -0.492266 0.1765639 -0.8523494
vn -0.492266 0.1765639 -0.8523494
vn -0.492266 0.1765639 -0.8523494
vn -0.492266 0.1765639 -0.8523494
vn 0.6371069 -0.7219691 0.2699176
vn 0.6371069 -0.7219691 0.2699176
vn 0.6371069 -0.7219691 0.2699176
vn -0.2676751 -0.7341998 -0.6239397
vn -0.2676751 -0.7341998 -0.6239397
vn -0.2676751 -0.7341998 -0.6239397
vn -0.2676751 -0.7341998 -0.6239397
vn -0.2676751 -0.7341998 -0.6239397
vn -0.2676751 -0.7341998 -0.6239397

vt 0.5251991 0.5309135
vt 0.4643612 0.5177034
vt 0.614398 0.477876
vt 0.4897923 0.6106806
vt 0.4645956 0.6086836
vt 0.5277399 0.5985487
vt 0.5277399 0.5985487
vt 0.4645956 0.6086836
vt 0.4835998 0.3335396
vt 0.4835998 0.3335396
vt 0.4645956 0.6086836
vt 0.3726309 0.3883209
vt 0.4865203 0.4269012
vt 0.5063824 0.4301827
vt 0.4675536 0.4507714
vt 0.4675536 0.4507714
vt 0.5063824 0.4301827
vt 0.4902752 0.4575967
vt 0.6010097 0.7895566
vt 0.4967349 0.8123954
vt 0.8743255 0.6166903
vt 0.8743255 0.6166903
vt 0.4967349 0.8123954
vt 0.9168155 0.5684813
vt 0.9168155 0.5684813
vt 0.4967349 0.8123954
vt 0.837939 0.3594208
vt 0.837939 0.3594208
vt 0.4967349 0.8123954
vt 0.506898 0.3682197
vt 0.5429376 0.6309505
vt 0.3864645 0.5489051
vt 0.6478218 0.5975361
vt 0.6478218 0.5975361
vt 0.3864645 0.5489051
vt 0.6965371 0.4839326
vt 0.6965371 0.4839326
vt 0.3864645 0.5489051
vt 0.4961818 0.3578222
vt 0.4961818 0.3578222
vt 0.3864645 0.5489051
vt 0.3930368 0.3716371
vt 0.3930368 0.3716371
vt 0.3864645 0.5489051
vt 0.3435245 0.4560545
vt 0.4777026 0.531401
vt 0.4228416 0.402567
vt 0.4893705 0.530576
vt 0.4893705 0.530576
vt 0.4228416 0.402567
vt 0.5124202 0.4817857
vt 0.5124202 0.4817857
vt 0.4228416 0.402567
vt 0.4567436 0.4167241
vt 0.452248 0.3269579
vt 0.5861401 0.3563315
vt 0.404789 0.3798829
vt 0.404789 0.3798829
vt 0.5861401 0.3563315
vt 0.3730106 0.4203899
vt 0.3730106 0.4203899
vt 0.5861401 0.3563315
vt 0.4236479 0.4645628
vt 0.4236479 0.4645628
vt 0.5861401 0.3563315
vt 0.5087262 0.4813544
vt 0.5726393 0.3914523
vt 0.534809 0.4678395
vt 0.5706424 0.3844816
vt 0.5706424 0.3844816
vt 0.534809 0.4678395
vt 0.4343266 0.3692182
vt 0.4343266 0.3692182
vt 0.534809 0.4678395
vt 0.3440261 0.4104987
vt 0.3440261 0.4104987
vt 0.534809 0.4678395
vt 0.4438944 0.5014461
vt 0.4585296 0.6606991
vt 0.3995246 0.6234876
vt 0.5201175 0.6276315
vt 0.5201175 0.6276315
vt 0.3995246 0.6234876
vt 0.5758551 0.4046812
vt 0.5758551 0.4046812
vt 0.3995246 0.6234876
vt 0.4220963 0.4255183
vt 0.4220963 0.4255183
vt 0.3995246 0.6234876
vt 0.3699214 0.5075403
vt 0.3805532 0.3269955
vt 0.4782464 0.2530974
vt 0.3673337 0.5211254
vt 0.3673337 0.5211254
vt 0.4782464 0.2530974
vt 0.4701318 0.5952203
vt 0.4701318 0.5952203
vt 0.4782464 0.2530974
vt 0.5070012 0.6053365
vt 0.5070012 0.6053365
vt 0.4782464 0.2530974
vt 0.5995002 0.3855129
vt 0.5995002 0.3855129
vt 0.4782464 0.2530974
vt 0.5112014 0.2376184
vt 0.3961213 0.41153
vt 0.3763014 0.5214161
vt 0.3051786 0.4254246
vt 0.3051786 0.4254246
vt 0.3763014 0.5214161
vt 0.3336896 0.4951177
vt 0.5427313 0.5766098
vt 0.4916253 0.6037052
vt 0.5825586 0.5133531
vt 0.5825586 0.5133531
vt 0.4916253 0.6037052
vt 0.5618387 0.3640335
vt 0.5618387 0.3640335
vt 0.4916253 0.6037052
vt 0.5212613 0.3205545
vt 0.5212613 0.3205545
vt 0.4916253 0.6037052
vt 0.4656081 0.3190919
vt 0.4656081 0.3190919
vt 0.4916253 0.6037052
vt 0.3894459 0.3246094
vt 0.3894459 0.3246094
vt 0.4916253 0.6037052
vt 0.3664852 0.4138224
vt 0.5393655 0.5484926
vt 0.4661847 0.5531429
vt 0.5851182 0.5197378
vt 0.5851182 0.5197378
vt 0.4661847 0.5531429
vt 0.4430834 0.4560451
vt 0.4430834 0.4560451
vt 0.4661847 0.5531429
vt 0.4256402 0.5100998
vt 0.5602449 0.375903
vt 0.4749509 0.520666
vt 0.4982819 0.3621772
vt 0.4982819 0.3621772
vt 0.4749509 0.520666
vt 0.4463414 0.3676431
vt 0.4463414 0.3676431
vt 0.4749509 0.520666
vt 0.3854567 0.463433
vt 0.580271 0.2655575
vt 0.6461154 0.4374909
vt 0.4268778 0.3501765
vt 0.4268778 0.3501765
vt 0.6461154 0.4374909
vt 0.3999981 0.4440116
vt 0.3999981 0.4440116
vt 0.6461154 0.4374909
vt 0.5099451 0.6064897
vt 0.5099451 0.6064897
vt 0.6461154 0.4374909
vt 0.5543664 0.6034708
vt 0.4734461 0.4175116
vt 0.4003825 0.4225838
vt 0.399759 0.4150927
vt 0.4676004 0.5433548
vt 0.4674739 0.4550138
vt 0.5162642 0.5165783
vt 0.5162642 0.5165783
vt 0.4674739 0.4550138
vt 0.4822966 0.4536778

usemtl Material0
usemap Material0

usemtl Material1
usemap Material1
f 1/1/1 2/2/2 3/3/3
f 4/4/4 5/5/5 6/6/6
f 7/7/7 8/8/8 9/9/9
f 10/10/10 11/11/11 12/12/12
f 13/13/13 14/14/14 15/15/15
f 16/16/16 17/17/17 18/18/18
f 19/19/19 20/20/20 21/21/21
f 22/22/22 23/23/23 24/24/24
f 25/25/25 26/26/26 27/27/27
f 28/28/28 29/29/29 30/30/30
f 31/31/31 32/32/32 33/33/33
f 34/34/34 35/35/35 36/36/36
f 37/37/37 38/38/38 39/39/39
f 40/40/40 41/41/41 42/42/42
f 43/43/43 44/44/44 45/45/45
f 46/46/46 47/47/47 48/48/48
f 49/49/49 50/50/50 51/51/51
f 52/52/52 53/53/53 54/54/54
f 55/55/55 56/56/56 57/57/57
f 58/58/58 59/59/59 60/60/60
f 61/61/61 62/62/62 63/63/63
f 64/64/64 65/65/65 66/66/66
f 67/67/67 68/68/68 69/69/69
f 70/70/70 71/71/71 72/72/72
f 73/73/73 74/74/74 75/75/75
f 76/76/76 77/77/77 78/78/78
f 79/79/79 80/80/80 81/81/81
f 82/82/82 83/83/83 84/84/84
f 85/85/85 86/86/86 87/87/87
f 88/88/88 89/89/89 90/90/90
f 91/91/91 92/92/92 93/93/93
f 94/94/94 95/95/95 96/96/96
f 97/97/97 98/98/98 99/99/99
f 100/100/100 101/101/101 102/102/102
f 103/103/103 104/104/104 105/105/105
f 106/106/106 107/107/107 108/108/108
f 109/109/109 110/110/110 111/111/111
f 112/112/112 113/113/113 114/114/114
f 115/115/115 116/116/116 117/117/117
f 118/118/118 119/119/119 120/120/120
f 121/121/121 122/122/122 123/123/123
f 124/124/124 125/125/125 126/126/126
f 127/127/127 128/128/128 129/129/129
f 130/130/130 131/131/131 132/132/132
f 133/133/133 134/134/134 135/135/135
f 136/136/136 137/137/137 138/138/138
f 139/139/139 140/140/140 141/141/141
f 142/142/142 143/143/143 144/144/144
f 145/145/145 146/146/146 147/147/147
f 148/148/148 149/149/149 150/150/150
f 151/151/151 152/152/152 153/153/153
f 154/154/154 155/155/155 156/156/156
f 157/157/157 158/158/158 159/159/159
f 160/160/160 161/161/161 162/162/162
f 163/163/163 164/164/164 165/165/165
f 166/166/166 167/167/167 168/168/168
