g  Instance
v 7.828998 -49.21369 6.148178
v 7.827412 -49.21757 6.151046
v 8.079199 -49.24246 5.783443
v 8.079199 -49.24246 5.783443
v 7.827412 -49.21757 6.151046
v 8.481541 -49.61827 5.241948
v 8.481541 -49.61827 5.241948
v 7.827412 -49.21757 6.151046
v 8.488926 -49.73133 5.246512
v 8.481541 -49.61827 5.241948
v 8.488926 -49.73133 5.246512
v 8.660078 -49.78859 4.950163
v 8.660078 -49.78859 4.950163
v 8.488926 -49.73133 5.246512
v 8.613194 -49.85313 5.043933
v 8.660078 -49.78859 4.950163
v 8.613194 -49.85313 5.043933
v 9.051279 -50.1717 4.167773
v 9.051279 -50.1717 4.167773
v 8.613194 -49.85313 5.043933
v 9.075583 -50.43866 4.119168
v 5.319637 -48.94635 4.121547
v 5.447567 -48.88171 4.144708
v 5.539032 -48.89107 3.902105
v 8.613194 -49.85313 5.043933
v 8.488926 -49.73133 5.246512
v 9.075583 -50.43866 4.119168
v 9.075583 -50.43866 4.119168
v 8.488926 -49.73133 5.246512
v 9.072708 -50.44139 4.116687
v 9.072708 -50.44139 4.116687
v 8.488926 -49.73133 5.246512
v 5.975744 -51.2762 4.165684
v 5.975744 -51.2762 4.165684
v 8.488926 -49.73133 5.246512
v 5.595116 -51.12452 4.500215
v 5.595116 -51.12452 4.500215
v 8.488926 -49.73133 5.246512
v 6.989237 -49.60212 5.959399
v 6.989237 -49.60212 5.959399
v 8.488926 -49.73133 5.246512
v 7.827412 -49.21757 6.151046
v 5.447567 -48.88171 4.144708
v 7.828998 -49.21369 6.148178
v 5.539032 -48.89107 3.902105
v 5.539032 -48.89107 3.902105
v 7.828998 -49.21369 6.148178
v 6.610585 -49.02017 2.893342
v 6.610585 -49.02017 2.893342
v 7.828998 -49.21369 6.148178
v 7.837534 -49.1881 3.632597
v 7.837534 -49.1881 3.632597
v 7.828998 -49.21369 6.148178
v 8.079199 -49.24246 5.783443
v 6.989237 -49.60212 5.959399
v 5.06397 -49.47619 4.485579
v 5.595116 -51.12452 4.500215
v 5.595116 -51.12452 4.500215
v 5.06397 -49.47619 4.485579
v 5.342436 -50.7732 4.388109
v 5.342436 -50.7732 4.388109
v 5.06397 -49.47619 4.485579
v 5.077627 -49.62242 4.46073
v 6.610585 -49.02017 2.893342
v 7.051133 -50.78738 2.749271
v 5.539032 -48.89107 3.902105
v 5.539032 -48.89107 3.902105
v 7.051133 -50.78738 2.749271
v 5.319637 -48.94635 4.121547
v 5.319637 -48.94635 4.121547
v 7.051133 -50.78738 2.749271
v 5.083077 -49.3994 4.420282
v 5.083077 -49.3994 4.420282
v 7.051133 -50.78738 2.749271
v 5.077627 -49.62242 4.46073
v 5.077627 -49.62242 4.46073
v 7.051133 -50.78738 2.749271
v 5.342436 -50.7732 4.388109
v 5.342436 -50.7732 4.388109
v 7.051133 -50.78738 2.749271
v 6.247378 -51.11944 3.573649
v 9.075583 -50.43866 4.119168
v 9.072708 -50.44139 4.116687
v 9.051279 -50.1717 4.167773
v 9.051279 -50.1717 4.167773
v 9.072708 -50.44139 4.116687
v 7.837534 -49.1881 3.632597
v 7.837534 -49.1881 3.632597
v 9.072708 -50.44139 4.116687
v 6.610585 -49.02017 2.893342
v 6.610585 -49.02017 2.893342
v 9.072708 -50.44139 4.116687
v 7.051133 -50.78738 2.749271
v 6.989237 -49.60212 5.959399
v 7.827412 -49.21757 6.151046
v 5.06397 -49.47619 4.485579
v 5.06397 -49.47619 4.485579
v 7.827412 -49.21757 6.151046
v 5.083077 -49.3994 4.420282
v 5.083077 -49.3994 4.420282
v 7.827412 -49.21757 6.151046
v 5.319637 -48.94635 4.121547
v 5.319637 -48.94635 4.121547
v 7.827412 -49.21757 6.151046
v 5.447567 -48.88171 4.144708
v 5.447567 -48.88171 4.144708
v 7.827412 -49.21757 6.151046
v 7.828998 -49.21369 6.148178
v 5.342436 -50.7732 4.388109
v 6.247378 -51.11944 3.573649
v 5.595116 -51.12452 4.500215
v 5.595116 -51.12452 4.500215
v 6.247378 -51.11944 3.573649
v 5.975744 -51.2762 4.165684
v 5.083077 -49.3994 4.420282
v 5.077627 -49.62242 4.46073
v 5.06397 -49.47619 4.485579
v 7.837534 -49.1881 3.632597
v 8.079199 -49.24246 5.783443
v 9.051279 -50.1717 4.167773
v 9.051279 -50.1717 4.167773
v 8.079199 -49.24246 5.783443
v 8.660078 -49.78859 4.950163
v 8.660078 -49.78859 4.950163
v 8.079199 -49.24246 5.783443
v 8.481541 -49.61827 5.241948
v 9.072708 -50.44139 4.116687
v 5.975744 -51.2762 4.165684
v 7.051133 -50.78738 2.749271
v 7.051133 -50.78738 2.749271
v 5.975744 -51.2762 4.165684
v 6.247378 -51.11944 3.573649

vn 0.825016 0.0765025 0.5599071
vn 0.825016 0.0765025 0.5599071
vn 0.825016 0.0765025 0.5599071
vn 0.825016 0.0765025 0.5599071
vn 0.825016 0.0765025 0.5599071
vn 0.825016 0.0765025 0.5599071
vn 0.825016 0.0765025 0.5599071
vn 0.825016 0.0765025 0.5599071
vn 0.825016 0.0765025 0.5599071
vn 0.8697488 0.07650271 0.4875287
vn 0.8697488 0.07650271 0.4875287
vn 0.8697488 0.07650271 0.4875287
vn 0.8697488 0.07650271 0.4875287
vn 0.8697488 0.07650271 0.4875287
vn 0.8697488 0.07650271 0.4875287
vn 0.8944249 -1.954853E-08 0.4472184
vn 0.8944249 -1.954853E-08 0.4472184
vn 0.8944249 -1.954853E-08 0.4472184
vn 0.8944249 -1.954853E-08 0.4472184
vn 0.8944249 -1.954853E-08 0.4472184
vn 0.8944249 -1.954853E-08 0.4472184
vn -0.4149767 0.8896067 -0.1907729
vn -0.4149767 0.8896067 -0.1907729
vn -0.4149767 0.8896067 -0.1907729
vn 0.2175078 -0.7718361 0.5974609
vn 0.2175078 -0.7718361 0.5974609
vn 0.2175078 -0.7718361 0.5974609
vn 0.2175078 -0.7718361 0.5974609
vn 0.2175078 -0.7718361 0.5974609
vn 0.2175078 -0.7718361 0.5974609
vn 0.2175078 -0.7718361 0.5974609
vn 0.2175078 -0.7718361 0.5974609
vn 0.2175078 -0.7718361 0.5974609
vn 0.2175078 -0.7718361 0.5974609
vn 0.2175078 -0.7718361 0.5974609
vn 0.2175078 -0.7718361 0.5974609
vn 0.2175078 -0.7718361 0.5974609
vn 0.2175078 -0.7718361 0.5974609
vn 0.2175078 -0.7718361 0.5974609
vn 0.2175078 -0.7718361 0.5974609
vn 0.2175078 -0.7718361 0.5974609
vn 0.2175078 -0.7718361 0.5974609
vn 0.1293702 0.9915406 0.01052469
vn 0.1293702 0.9915406 0.01052469
vn 0.1293702 0.9915406 0.01052469
vn 0.1293702 0.9915406 0.01052469
vn 0.1293702 0.9915406 0.01052469
vn 0.1293702 0.9915406 0.01052469
vn 0.1293702 0.9915406 0.01052469
vn 0.1293702 0.9915406 0.01052469
vn 0.1293702 0.9915406 0.01052469
vn 0.1293702 0.9915406 0.01052469
vn 0.1293702 0.9915406 0.01052469
vn 0.1293702 0.9915406 0.01052469
vn -0.6047378 -0.1879996 0.7739176
vn -0.6047378 -0.1879996 0.7739176
vn -0.6047378 -0.1879996 0.7739176
vn -0.6047378 -0.1879996 0.7739176
vn -0.6047378 -0.1879996 0.7739176
vn -0.6047378 -0.1879996 0.7739176
vn -0.6047378 -0.1879996 0.7739176
vn -0.6047378 -0.1879996 0.7739176
vn -0.6047378 -0.1879996 0.7739176
vn -0.688244 -0.1131477 -0.7166017
vn -0.688244 -0.1131477 -0.7166017
vn -0.688244 -0.1131477 -0.7166017
vn -0.688244 -0.1131477 -0.7166017
vn -0.688244 -0.1131477 -0.7166017
vn -0.688244 -0.1131477 -0.7166017
vn -0.688244 -0.1131477 -0.7166017
vn -0.688244 -0.1131477 -0.7166017
vn -0.688244 -0.1131477 -0.7166017
vn -0.688244 -0.1131477 -0.7166017
vn -0.688244 -0.1131477 -0.7166017
vn -0.688244 -0.1131477 -0.7166017
vn -0.688244 -0.1131477 -0.7166017
vn -0.688244 -0.1131477 -0.7166017
vn -0.688244 -0.1131477 -0.7166017
vn -0.688244 -0.1131477 -0.7166017
vn -0.688244 -0.1131477 -0.7166017
vn -0.688244 -0.1131477 -0.7166017
vn 0.5255989 0.198471 -0.8272575
vn 0.5255989 0.198471 -0.8272575
vn 0.5255989 0.198471 -0.8272575
vn 0.5255989 0.198471 -0.8272575
vn 0.5255989 0.198471 -0.8272575
vn 0.5255989 0.198471 -0.8272575
vn 0.5255989 0.198471 -0.8272575
vn 0.5255989 0.198471 -0.8272575
vn 0.5255989 0.198471 -0.8272575
vn 0.5255989 0.198471 -0.8272575
vn 0.5255989 0.198471 -0.8272575
vn 0.5255989 0.198471 -0.8272575
vn -0.4385694 0.6430051 0.6278547
vn -0.4385694 0.6430051 0.6278547
vn -0.4385694 0.6430051 0.6278547
vn -0.4385694 0.6430051 0.6278547
vn -0.4385694 0.6430051 0.6278547
vn -0.4385694 0.6430051 0.6278547
vn -0.4385694 0.6430051 0.6278547
vn -0.4385694 0.6430051 0.6278547
vn -0.4385694 0.6430051 0.6278547
vn -0.4385694 0.6430051 0.6278547
vn -0.4385694 0.6430051 0.6278547
vn -0.4385694 0.6430051 0.6278547
vn -0.4385694 0.6430051 0.6278547
vn -0.4385694 0.6430051 0.6278547
vn -0.4385694 0.6430051 0.6278547
vn -0.6459354 -0.6106679 -0.4580964
vn -0.6459354 -0.6106679 -0.4580964
vn -0.6459354 -0.6106679 -0.4580964
vn -0.6459354 -0.6106679 -0.4580964
vn -0.6459354 -0.6106679 -0.4580964
vn -0.6459354 -0.6106679 -0.4580964
vn -0.9475259 -0.03449233 -0.3178129
vn -0.9475259 -0.03449233 -0.3178129
vn -0.9475259 -0.03449233 -0.3178129
vn 0.6426949 0.7642938 -0.05289997
vn 0.6426949 0.7642938 -0.05289997
vn 0.6426949 0.7642938 -0.05289997
vn 0.6426949 0.7642938 -0.05289997
vn 0.6426949 0.7642938 -0.05289997
vn 0.6426949 0.7642938 -0.05289997
vn 0.6426949 0.7642938 -0.05289997
vn 0.6426949 0.7642938 -0.05289997
vn 0.6426949 0.7642938 -0.05289997
vn 0.255845 -0.9570946 -0.1360637
vn 0.255845 -0.9570946 -0.1360637
vn 0.255845 -0.9570946 -0.1360637
vn 0.255845 -0.9570946 -0.1360637
vn 0.255845 -0.9570946 -0.1360637
vn 0.255845 -0.9570946 -0.1360637

vt 0.1930321 0.3318216
vt 0.1929729 0.3318712
vt 0.192798 0.3251186
vt 0.192798 0.3251186
vt 0.1929729 0.3318712
vt 0.1874998 0.314921
vt 0.1874998 0.314921
vt 0.1929729 0.3318712
vt 0.1858169 0.314921
vt 0.1874998 0.314921
vt 0.1858169 0.314921
vt 0.1848143 0.3097313
vt 0.1848143 0.3097313
vt 0.1858169 0.314921
vt 0.1838997 0.3113154
vt 0.1848143 0.3097313
vt 0.1838997 0.3113154
vt 0.1793844 0.2965137
vt 0.1793844 0.2965137
vt 0.1838997 0.3113154
vt 0.1756008 0.2956926
vt 0.3538329 0.4311343
vt 0.3681822 0.4287716
vt 0.3760858 0.4535231
vt 0.3271595 0.4012873
vt 0.3377726 0.3703198
vt 0.2920669 0.5426704
vt 0.2920669 0.5426704
vt 0.3377726 0.3703198
vt 0.2924981 0.5430548
vt 0.2924981 0.5430548
vt 0.3377726 0.3703198
vt 0.685699 0.5355543
vt 0.685699 0.5355543
vt 0.3377726 0.3703198
vt 0.7255638 0.4844202
vt 0.7255638 0.4844202
vt 0.3377726 0.3703198
vt 0.510442 0.2613339
vt 0.510442 0.2613339
vt 0.3377726 0.3703198
vt 0.3987465 0.2320306
vt 0.3049723 0.4599547
vt 0.5413625 0.2629699
vt 0.3140103 0.4838108
vt 0.3140103 0.4838108
vt 0.5413625 0.2629699
vt 0.420118 0.5829946
vt 0.420118 0.5829946
vt 0.5413625 0.2629699
vt 0.5418688 0.5103061
vt 0.5418688 0.5103061
vt 0.5413625 0.2629699
vt 0.5661233 0.2988313
vt 0.5318933 0.3001064
vt 0.6392807 0.6613835
vt 0.3704605 0.657802
vt 0.3704605 0.657802
vt 0.6392807 0.6613835
vt 0.434186 0.6852818
vt 0.434186 0.6852818
vt 0.6392807 0.6613835
vt 0.6169763 0.6674776
vt 0.6141355 0.5342324
vt 0.3582723 0.5633435
vt 0.6565973 0.3303753
vt 0.6565973 0.3303753
vt 0.3582723 0.5633435
vt 0.6539253 0.286029
vt 0.6539253 0.286029
vt 0.3582723 0.5633435
vt 0.5963219 0.2256599
vt 0.5963219 0.2256599
vt 0.3582723 0.5633435
vt 0.5654295 0.2174891
vt 0.5654295 0.2174891
vt 0.3582723 0.5633435
vt 0.3993184 0.2321665
vt 0.3993184 0.2321665
vt 0.3582723 0.5633435
vt 0.3304691 0.3967495
vt 0.7068502 0.2428406
vt 0.7071221 0.2436141
vt 0.6616414 0.2277038
vt 0.6616414 0.2277038
vt 0.7071221 0.2436141
vt 0.425598 0.3943869
vt 0.425598 0.3943869
vt 0.7071221 0.2436141
vt 0.3222655 0.6246314
vt 0.3222655 0.6246314
vt 0.7071221 0.2436141
vt 0.6387932 0.6695027
vt 0.4805153 0.3050848
vt 0.5953469 0.2739815
vt 0.2885792 0.5442549
vt 0.2885792 0.5442549
vt 0.5953469 0.2739815
vt 0.2960374 0.5548493
vt 0.2960374 0.5548493
vt 0.5953469 0.2739815
vt 0.3529657 0.6033301
vt 0.3529657 0.6033301
vt 0.5953469 0.2739815
vt 0.3709152 0.5995799
vt 0.3709152 0.5995799
vt 0.5953469 0.2739815
vt 0.5957875 0.2744502
vt 0.5555758 0.3326583
vt 0.458989 0.4339938
vt 0.5081356 0.3187122
vt 0.5081356 0.3187122
vt 0.458989 0.4339938
vt 0.4670285 0.3603302
vt 0.5407906 0.3621725
vt 0.517708 0.3577519
vt 0.5329058 0.355033
vt 0.4966131 0.505037
vt 0.5182706 0.292995
vt 0.6503907 0.4522714
vt 0.6503907 0.4522714
vt 0.5182706 0.292995
vt 0.5966407 0.3751436
vt 0.5966407 0.3751436
vt 0.5182706 0.292995
vt 0.5724049 0.3463747
vt 0.3286456 0.4473493
vt 0.6469311 0.4424365
vt 0.5313119 0.5843166
vt 0.5313119 0.5843166
vt 0.6469311 0.4424365
vt 0.6168731 0.5017368

usemtl Material0
usemap Material0
f 1/1/1 2/2/2 3/3/3
f 4/4/4 5/5/5 6/6/6
f 7/7/7 8/8/8 9/9/9
f 10/10/10 11/11/11 12/12/12
f 13/13/13 14/14/14 15/15/15
f 16/16/16 17/17/17 18/18/18
f 19/19/19 20/20/20 21/21/21

usemtl Material1
usemap Material1
f 22/22/22 23/23/23 24/24/24
f 25/25/25 26/26/26 27/27/27
f 28/28/28 29/29/29 30/30/30
f 31/31/31 32/32/32 33/33/33
f 34/34/34 35/35/35 36/36/36
f 37/37/37 38/38/38 39/39/39
f 40/40/40 41/41/41 42/42/42
f 43/43/43 44/44/44 45/45/45
f 46/46/46 47/47/47 48/48/48
f 49/49/49 50/50/50 51/51/51
f 52/52/52 53/53/53 54/54/54
f 55/55/55 56/56/56 57/57/57
f 58/58/58 59/59/59 60/60/60
f 61/61/61 62/62/62 63/63/63
f 64/64/64 65/65/65 66/66/66
f 67/67/67 68/68/68 69/69/69
f 70/70/70 71/71/71 72/72/72
f 73/73/73 74/74/74 75/75/75
f 76/76/76 77/77/77 78/78/78
f 79/79/79 80/80/80 81/81/81
f 82/82/82 83/83/83 84/84/84
f 85/85/85 86/86/86 87/87/87
f 88/88/88 89/89/89 90/90/90
f 91/91/91 92/92/92 93/93/93
f 94/94/94 95/95/95 96/96/96
f 97/97/97 98/98/98 99/99/99
f 100/100/100 101/101/101 102/102/102
f 103/103/103 104/104/104 105/105/105
f 106/106/106 107/107/107 108/108/108
f 109/109/109 110/110/110 111/111/111
f 112/112/112 113/113/113 114/114/114
f 115/115/115 116/116/116 117/117/117
f 118/118/118 119/119/119 120/120/120
f 121/121/121 122/122/122 123/123/123
f 124/124/124 125/125/125 126/126/126
f 127/127/127 128/128/128 129/129/129
f 130/130/130 131/131/131 132/132/132
