g  Instance
v 5.529191 -52.28314 8.002008
v 5.452334 -52.35776 8.035516
v 5.517792 -52.40532 7.985512
v 5.452334 -52.35776 8.035516
v 5.206645 -52.57381 8.113712
v 5.517792 -52.40532 7.985512
v 5.517792 -52.40532 7.985512
v 5.206645 -52.57381 8.113712
v 5.254195 -53.81735 7.604027
v 5.254195 -53.81735 7.604027
v 5.206645 -52.57381 8.113712
v 4.764324 -53.46144 8.045713
v 4.764324 -53.46144 8.045713
v 5.206645 -52.57381 8.113712
v 4.87047 -52.86206 8.21122
v 6.045625 -51.73723 7.719646
v 5.529191 -52.28314 8.002008
v 6.34146 -51.76002 7.488654
v 6.34146 -51.76002 7.488654
v 5.529191 -52.28314 8.002008
v 6.361023 -51.85226 7.454653
v 6.361023 -51.85226 7.454653
v 5.529191 -52.28314 8.002008
v 5.517792 -52.40532 7.985512
v 6.457395 -53.12768 6.965603
v 6.515173 -52.78136 7.027928
v 5.517792 -52.40532 7.985512
v 5.517792 -52.40532 7.985512
v 6.515173 -52.78136 7.027928
v 6.361023 -51.85226 7.454653
v 5.254195 -53.81735 7.604027
v 6.457395 -53.12768 6.965603
v 5.517792 -52.40532 7.985512
v 5.254195 -53.81735 7.604027
v 6.095465 -54.42857 6.575188
v 6.457395 -53.12768 6.965603
v 6.515173 -52.78136 7.027928
v 6.457395 -53.12768 6.965603
v 6.555339 -53.05652 6.890781
v 6.457395 -53.12768 6.965603
v 6.571892 -53.22201 6.793368
v 6.555339 -53.05652 6.890781
v 6.095465 -54.42857 6.575188
v 6.630021 -54.0881 6.227578
v 6.457395 -53.12768 6.965603
v 6.457395 -53.12768 6.965603
v 6.630021 -54.0881 6.227578
v 6.571892 -53.22201 6.793368
v 6.47395 -54.70355 5.960236
v 6.642682 -54.64068 5.818637
v 6.095465 -54.42857 6.575188
v 6.095465 -54.42857 6.575188
v 6.642682 -54.64068 5.818637
v 6.630021 -54.0881 6.227578
v 4.764324 -53.46144 8.045713
v 4.623185 -54.16103 7.794856
v 5.254195 -53.81735 7.604027
v 5.006898 -54.99893 7.04832
v 5.264801 -54.97937 6.863368
v 5.254195 -53.81735 7.604027
v 5.254195 -53.81735 7.604027
v 5.264801 -54.97937 6.863368
v 6.095465 -54.42857 6.575188
v 6.095465 -54.42857 6.575188
v 5.982308 -54.86633 6.327193
v 6.47395 -54.70355 5.960236
v 4.468451 -54.83071 7.489085
v 4.710346 -54.99663 7.236662
v 4.623185 -54.16103 7.794856
v 4.623185 -54.16103 7.794856
v 4.710346 -54.99663 7.236662
v 5.254195 -53.81735 7.604027
v 5.254195 -53.81735 7.604027
v 4.710346 -54.99663 7.236662
v 5.006898 -54.99893 7.04832
v 4.428772 -54.98339 7.404656
v 4.710346 -54.99663 7.236662
v 4.468451 -54.83071 7.489085
v 6.095465 -54.42857 6.575188
v 5.264801 -54.97937 6.863368
v 5.982308 -54.86633 6.327193
v 5.982308 -54.86633 6.327193
v 5.264801 -54.97937 6.863368
v 5.852884 -54.90335 6.41074
v 6.642682 -54.64068 5.818637
v 6.47395 -54.70355 5.960236
v 6.523492 -54.56304 5.645564
v 6.523492 -54.56304 5.645564
v 6.47395 -54.70355 5.960236
v 5.852884 -54.90335 6.41074
v 5.852884 -54.90335 6.41074
v 6.47395 -54.70355 5.960236
v 5.982308 -54.86633 6.327193
v 4.853814 -52.01114 5.870113
v 4.516594 -51.91058 6.700398
v 5.518878 -52.02051 5.669067
v 5.518878 -52.02051 5.669067
v 4.516594 -51.91058 6.700398
v 6.34146 -51.76002 7.488654
v 6.34146 -51.76002 7.488654
v 4.516594 -51.91058 6.700398
v 6.045625 -51.73723 7.719646
v 6.145949 -54.00617 5.341442
v 4.157742 -53.361 5.985572
v 5.518878 -52.02051 5.669067
v 5.518878 -52.02051 5.669067
v 4.157742 -53.361 5.985572
v 4.853814 -52.01114 5.870113
v 4.853814 -52.01114 5.870113
v 4.157742 -53.361 5.985572
v 4.178916 -53.16099 5.993161
v 4.509381 -51.9193 6.705765
v 4.87047 -52.86206 8.21122
v 4.516594 -51.91058 6.700398
v 4.516594 -51.91058 6.700398
v 4.87047 -52.86206 8.21122
v 6.045625 -51.73723 7.719646
v 6.045625 -51.73723 7.719646
v 4.87047 -52.86206 8.21122
v 5.529191 -52.28314 8.002008
v 5.529191 -52.28314 8.002008
v 4.87047 -52.86206 8.21122
v 5.452334 -52.35776 8.035516
v 5.452334 -52.35776 8.035516
v 4.87047 -52.86206 8.21122
v 5.206645 -52.57381 8.113712
v 6.571892 -53.22201 6.793368
v 6.630021 -54.0881 6.227578
v 6.555339 -53.05652 6.890781
v 6.555339 -53.05652 6.890781
v 6.630021 -54.0881 6.227578
v 6.515173 -52.78136 7.027928
v 6.515173 -52.78136 7.027928
v 6.630021 -54.0881 6.227578
v 6.361023 -51.85226 7.454653
v 6.361023 -51.85226 7.454653
v 6.630021 -54.0881 6.227578
v 6.34146 -51.76002 7.488654
v 6.34146 -51.76002 7.488654
v 6.630021 -54.0881 6.227578
v 5.518878 -52.02051 5.669067
v 5.518878 -52.02051 5.669067
v 6.630021 -54.0881 6.227578
v 6.145949 -54.00617 5.341442
v 6.145949 -54.00617 5.341442
v 6.630021 -54.0881 6.227578
v 6.523492 -54.56304 5.645564
v 6.523492 -54.56304 5.645564
v 6.630021 -54.0881 6.227578
v 6.642682 -54.64068 5.818637
v 4.178916 -53.16099 5.993161
v 4.509381 -51.9193 6.705765
v 4.853814 -52.01114 5.870113
v 4.853814 -52.01114 5.870113
v 4.509381 -51.9193 6.705765
v 4.516594 -51.91058 6.700398
v 4.623185 -54.16103 7.794856
v 4.764324 -53.46144 8.045713
v 4.468451 -54.83071 7.489085
v 4.468451 -54.83071 7.489085
v 4.764324 -53.46144 8.045713
v 4.428772 -54.98339 7.404656
v 4.428772 -54.98339 7.404656
v 4.764324 -53.46144 8.045713
v 4.157742 -53.361 5.985572
v 4.157742 -53.361 5.985572
v 4.764324 -53.46144 8.045713
v 4.178916 -53.16099 5.993161
v 4.178916 -53.16099 5.993161
v 4.764324 -53.46144 8.045713
v 4.509381 -51.9193 6.705765
v 4.509381 -51.9193 6.705765
v 4.764324 -53.46144 8.045713
v 4.87047 -52.86206 8.21122
v 5.264801 -54.97937 6.863368
v 5.006898 -54.99893 7.04832
v 5.852884 -54.90335 6.41074
v 5.852884 -54.90335 6.41074
v 5.006898 -54.99893 7.04832
v 6.523492 -54.56304 5.645564
v 6.523492 -54.56304 5.645564
v 5.006898 -54.99893 7.04832
v 6.145949 -54.00617 5.341442
v 6.145949 -54.00617 5.341442
v 5.006898 -54.99893 7.04832
v 4.157742 -53.361 5.985572
v 4.157742 -53.361 5.985572
v 5.006898 -54.99893 7.04832
v 4.428772 -54.98339 7.404656
v 4.428772 -54.98339 7.404656
v 5.006898 -54.99893 7.04832
v 4.710346 -54.99663 7.236662

vn 0.5221515 -0.1617733 0.8373693
vn 0.5221515 -0.1617733 0.8373693
vn 0.5221515 -0.1617733 0.8373693
vn 0.4763886 -0.2351105 0.8472172
vn 0.4763886 -0.2351105 0.8472172
vn 0.4763886 -0.2351105 0.8472172
vn 0.5013446 -0.3116608 0.8071687
vn 0.5013446 -0.3116608 0.8071687
vn 0.5013446 -0.3116608 0.8071687
vn 0.5013446 -0.3116608 0.8071687
vn 0.5013446 -0.3116608 0.8071687
vn 0.5013446 -0.3116608 0.8071687
vn 0.5013446 -0.3116608 0.8071687
vn 0.5013446 -0.3116608 0.8071687
vn 0.5013446 -0.3116608 0.8071687
vn 0.5995525 -0.1617645 0.783817
vn 0.5995525 -0.1617645 0.783817
vn 0.5995525 -0.1617645 0.783817
vn 0.5995525 -0.1617645 0.783817
vn 0.5995525 -0.1617645 0.783817
vn 0.5995525 -0.1617645 0.783817
vn 0.5995525 -0.1617645 0.783817
vn 0.5995525 -0.1617645 0.783817
vn 0.5995525 -0.1617645 0.783817
vn 0.6244585 -0.2380547 0.7438962
vn 0.6244585 -0.2380547 0.7438962
vn 0.6244585 -0.2380547 0.7438962
vn 0.6244585 -0.2380547 0.7438962
vn 0.6244585 -0.2380547 0.7438962
vn 0.6244585 -0.2380547 0.7438962
vn 0.5785728 -0.3116452 0.7537446
vn 0.5785728 -0.3116452 0.7537446
vn 0.5785728 -0.3116452 0.7537446
vn 0.5936945 -0.3783221 0.7102107
vn 0.5936945 -0.3783221 0.7102107
vn 0.5936945 -0.3783221 0.7102107
vn 0.6928997 -0.238081 0.6805936
vn 0.6928997 -0.238081 0.6805936
vn 0.6928997 -0.238081 0.6805936
vn 0.7079672 -0.3043325 0.6373101
vn 0.7079672 -0.3043325 0.6373101
vn 0.7079672 -0.3043325 0.6373101
vn 0.6618218 -0.3783593 0.6471756
vn 0.6618218 -0.3783593 0.6471756
vn 0.6618218 -0.3783593 0.6471756
vn 0.6618218 -0.3783593 0.6471756
vn 0.6618218 -0.3783593 0.6471756
vn 0.6618218 -0.3783593 0.6471756
vn 0.6687127 -0.4323414 0.6049002
vn 0.6687127 -0.4323414 0.6049002
vn 0.6687127 -0.4323414 0.6049002
vn 0.6687127 -0.4323414 0.6049002
vn 0.6687127 -0.4323414 0.6049002
vn 0.6687127 -0.4323414 0.6049002
vn 0.4513347 -0.3804927 0.8071693
vn 0.4513347 -0.3804927 0.8071693
vn 0.4513347 -0.3804927 0.8071693
vn 0.5432721 -0.4477229 0.7102109
vn 0.5432721 -0.4477229 0.7102109
vn 0.5432721 -0.4477229 0.7102109
vn 0.5432721 -0.4477229 0.7102109
vn 0.5432721 -0.4477229 0.7102109
vn 0.5432721 -0.4477229 0.7102109
vn 0.6178299 -0.5023764 0.6049002
vn 0.6178299 -0.5023764 0.6049002
vn 0.6178299 -0.5023764 0.6049002
vn 0.4751849 -0.453948 0.7537443
vn 0.4751849 -0.453948 0.7537443
vn 0.4751849 -0.453948 0.7537443
vn 0.4751849 -0.453948 0.7537443
vn 0.4751849 -0.453948 0.7537443
vn 0.4751849 -0.453948 0.7537443
vn 0.4751849 -0.453948 0.7537443
vn 0.4751849 -0.453948 0.7537443
vn 0.4751849 -0.453948 0.7537443
vn 0.4193774 -0.5203276 0.7438965
vn 0.4193774 -0.5203276 0.7438965
vn 0.4193774 -0.5203276 0.7438965
vn 0.5643606 -0.5125049 0.6471752
vn 0.5643606 -0.5125049 0.6471752
vn 0.5643606 -0.5125049 0.6471752
vn 0.5643606 -0.5125049 0.6471752
vn 0.5643606 -0.5125049 0.6471752
vn 0.5643606 -0.5125049 0.6471752
vn -0.002254182 -0.9129706 -0.4080194
vn -0.002254182 -0.9129706 -0.4080194
vn -0.002254182 -0.9129706 -0.4080194
vn -0.002254182 -0.9129706 -0.4080194
vn -0.002254182 -0.9129706 -0.4080194
vn -0.002254182 -0.9129706 -0.4080194
vn -0.002254182 -0.9129706 -0.4080194
vn -0.002254182 -0.9129706 -0.4080194
vn -0.002254182 -0.9129706 -0.4080194
vn -0.02545125 0.9911366 -0.1303858
vn -0.02545125 0.9911366 -0.1303858
vn -0.02545125 0.9911366 -0.1303858
vn -0.02545125 0.9911366 -0.1303858
vn -0.02545125 0.9911366 -0.1303858
vn -0.02545125 0.9911366 -0.1303858
vn -0.02545125 0.9911366 -0.1303858
vn -0.02545125 0.9911366 -0.1303858
vn -0.02545125 0.9911366 -0.1303858
vn -0.2878568 0.06672297 -0.9553463
vn -0.2878568 0.06672297 -0.9553463
vn -0.2878568 0.06672297 -0.9553463
vn -0.2878568 0.06672297 -0.9553463
vn -0.2878568 0.06672297 -0.9553463
vn -0.2878568 0.06672297 -0.9553463
vn -0.2878568 0.06672297 -0.9553463
vn -0.2878568 0.06672297 -0.9553463
vn -0.2878568 0.06672297 -0.9553463
vn -0.4463118 0.7063738 0.5494014
vn -0.4463118 0.7063738 0.5494014
vn -0.4463118 0.7063738 0.5494014
vn -0.4463118 0.7063738 0.5494014
vn -0.4463118 0.7063738 0.5494014
vn -0.4463118 0.7063738 0.5494014
vn -0.4463118 0.7063738 0.5494014
vn -0.4463118 0.7063738 0.5494014
vn -0.4463118 0.7063738 0.5494014
vn -0.4463118 0.7063738 0.5494014
vn -0.4463118 0.7063738 0.5494014
vn -0.4463118 0.7063738 0.5494014
vn -0.4463118 0.7063738 0.5494014
vn -0.4463118 0.7063738 0.5494014
vn -0.4463118 0.7063738 0.5494014
vn 0.8394048 0.3356069 -0.4275134
vn 0.8394048 0.3356069 -0.4275134
vn 0.8394048 0.3356069 -0.4275134
vn 0.8394048 0.3356069 -0.4275134
vn 0.8394048 0.3356069 -0.4275134
vn 0.8394048 0.3356069 -0.4275134
vn 0.8394048 0.3356069 -0.4275134
vn 0.8394048 0.3356069 -0.4275134
vn 0.8394048 0.3356069 -0.4275134
vn 0.8394048 0.3356069 -0.4275134
vn 0.8394048 0.3356069 -0.4275134
vn 0.8394048 0.3356069 -0.4275134
vn 0.8394048 0.3356069 -0.4275134
vn 0.8394048 0.3356069 -0.4275134
vn 0.8394048 0.3356069 -0.4275134
vn 0.8394048 0.3356069 -0.4275134
vn 0.8394048 0.3356069 -0.4275134
vn 0.8394048 0.3356069 -0.4275134
vn 0.8394048 0.3356069 -0.4275134
vn 0.8394048 0.3356069 -0.4275134
vn 0.8394048 0.3356069 -0.4275134
vn 0.8394048 0.3356069 -0.4275134
vn 0.8394048 0.3356069 -0.4275134
vn 0.8394048 0.3356069 -0.4275134
vn -0.8138322 0.4366338 -0.3834424
vn -0.8138322 0.4366338 -0.3834424
vn -0.8138322 0.4366338 -0.3834424
vn -0.8138322 0.4366338 -0.3834424
vn -0.8138322 0.4366338 -0.3834424
vn -0.8138322 0.4366338 -0.3834424
vn -0.954173 0.09018759 0.2853423
vn -0.954173 0.09018759 0.2853423
vn -0.954173 0.09018759 0.2853423
vn -0.954173 0.09018759 0.2853423
vn -0.954173 0.09018759 0.2853423
vn -0.954173 0.09018759 0.2853423
vn -0.954173 0.09018759 0.2853423
vn -0.954173 0.09018759 0.2853423
vn -0.954173 0.09018759 0.2853423
vn -0.954173 0.09018759 0.2853423
vn -0.954173 0.09018759 0.2853423
vn -0.954173 0.09018759 0.2853423
vn -0.954173 0.09018759 0.2853423
vn -0.954173 0.09018759 0.2853423
vn -0.954173 0.09018759 0.2853423
vn -0.954173 0.09018759 0.2853423
vn -0.954173 0.09018759 0.2853423
vn -0.954173 0.09018759 0.2853423
vn -0.4168124 -0.6368917 -0.648565
vn -0.4168124 -0.6368917 -0.648565
vn -0.4168124 -0.6368917 -0.648565
vn -0.4168124 -0.6368917 -0.648565
vn -0.4168124 -0.6368917 -0.648565
vn -0.4168124 -0.6368917 -0.648565
vn -0.4168124 -0.6368917 -0.648565
vn -0.4168124 -0.6368917 -0.648565
vn -0.4168124 -0.6368917 -0.648565
vn -0.4168124 -0.6368917 -0.648565
vn -0.4168124 -0.6368917 -0.648565
vn -0.4168124 -0.6368917 -0.648565
vn -0.4168124 -0.6368917 -0.648565
vn -0.4168124 -0.6368917 -0.648565
vn -0.4168124 -0.6368917 -0.648565
vn -0.4168124 -0.6368917 -0.648565
vn -0.4168124 -0.6368917 -0.648565
vn -0.4168124 -0.6368917 -0.648565

vt 0.1494823 0.3739689
vt 0.1484011 0.3751364
vt 0.1477271 0.3739689
vt 0.1484011 0.3751364
vt 0.1449311 0.3788118
vt 0.1477271 0.3739689
vt 0.1477271 0.3739689
vt 0.1449311 0.3788118
vt 0.1249999 0.3739689
vt 0.1249999 0.3739689
vt 0.1449311 0.3788118
vt 0.1305612 0.3836015
vt 0.1305612 0.3836015
vt 0.1449311 0.3788118
vt 0.1402069 0.383701
vt 0.1573861 0.3657702
vt 0.1494823 0.3739689
vt 0.1570981 0.3605223
vt 0.1570981 0.3605223
vt 0.1494823 0.3739689
vt 0.1557768 0.3600262
vt 0.1557768 0.3600262
vt 0.1494823 0.3739689
vt 0.1477271 0.3739689
vt 0.1363635 0.3542863
vt 0.1415999 0.3542863
vt 0.1477271 0.3739689
vt 0.1477271 0.3739689
vt 0.1415999 0.3542863
vt 0.1557768 0.3600262
vt 0.1249999 0.3739689
vt 0.1363635 0.3542863
vt 0.1477271 0.3739689
vt 0.1249999 0.3739689
vt 0.1136362 0.3542863
vt 0.1363635 0.3542863
vt 0.1415999 0.3542863
vt 0.1363635 0.3542863
vt 0.1373976 0.352495
vt 0.1363635 0.3542863
vt 0.1345879 0.3512107
vt 0.1373976 0.352495
vt 0.1136362 0.3542863
vt 0.1191853 0.3446749
vt 0.1363635 0.3542863
vt 0.1363635 0.3542863
vt 0.1191853 0.3446749
vt 0.1345879 0.3512107
vt 0.1070952 0.3429566
vt 0.1079418 0.3395318
vt 0.1136362 0.3542863
vt 0.1136362 0.3542863
vt 0.1079418 0.3395318
vt 0.1191853 0.3446749
vt 0.9603474 0.3836015
vt 0.9545401 0.3739689
vt 0.9659087 0.3739689
vt 0.9560173 0.3568362
vt 0.9604968 0.3542862
vt 0.9659087 0.3739689
vt 0.9659087 0.3739689
vt 0.9604968 0.3542862
vt 0.9772724 0.3542863
vt 0.9772724 0.3542863
vt 0.9733135 0.3474292
vt 0.9838135 0.3429566
vt 0.9487126 0.3643885
vt 0.951525 0.3595171
vt 0.9545401 0.3739689
vt 0.9545401 0.3739689
vt 0.951525 0.3595171
vt 0.9659087 0.3739689
vt 0.9659087 0.3739689
vt 0.951525 0.3595171
vt 0.9560173 0.3568362
vt 0.947478 0.3621831
vt 0.951525 0.3595171
vt 0.9487126 0.3643885
vt 0.9772724 0.3542863
vt 0.9604968 0.3542862
vt 0.9733135 0.3474292
vt 0.9733135 0.3474292
vt 0.9604968 0.3542862
vt 0.9709249 0.3483517
vt 0.3424698 0.5294134
vt 0.3606208 0.5127156
vt 0.3553236 0.5498239
vt 0.3553236 0.5498239
vt 0.3606208 0.5127156
vt 0.427445 0.4595703
vt 0.427445 0.4595703
vt 0.3606208 0.5127156
vt 0.4135176 0.4694287
vt 0.4513292 0.5639716
vt 0.4181585 0.4809418
vt 0.5172299 0.5840822
vt 0.5172299 0.5840822
vt 0.4181585 0.4809418
vt 0.5994253 0.4021076
vt 0.5994253 0.4021076
vt 0.4181585 0.4809418
vt 0.5701642 0.3790016
vt 0.5691516 0.3501343
vt 0.4984788 0.5632591
vt 0.363471 0.4173476
vt 0.363471 0.4173476
vt 0.4984788 0.5632591
vt 0.3610756 0.4886392
vt 0.3610756 0.4886392
vt 0.4984788 0.5632591
vt 0.4779417 0.5609902
vt 0.5028759 0.6033301
vt 0.4795402 0.3913398
vt 0.5041416 0.6040896
vt 0.5041416 0.6040896
vt 0.4795402 0.3913398
vt 0.6671261 0.4605641
vt 0.6671261 0.4605641
vt 0.4795402 0.3913398
vt 0.581443 0.4208024
vt 0.581443 0.4208024
vt 0.4795402 0.3913398
vt 0.5691047 0.4160818
vt 0.5691047 0.4160818
vt 0.4795402 0.3913398
vt 0.5310963 0.4050703
vt 0.5301588 0.4325828
vt 0.619967 0.5006399
vt 0.5127765 0.4208681
vt 0.5127765 0.4208681
vt 0.619967 0.5006399
vt 0.4833748 0.4043671
vt 0.4833748 0.4043671
vt 0.619967 0.5006399
vt 0.3833331 0.3530407
vt 0.3833331 0.3530407
vt 0.619967 0.5006399
vt 0.3732309 0.3489483
vt 0.3732309 0.3489483
vt 0.619967 0.5006399
vt 0.3663211 0.5678344
vt 0.3663211 0.5678344
vt 0.619967 0.5006399
vt 0.5921499 0.6072398
vt 0.5921499 0.6072398
vt 0.619967 0.5006399
vt 0.6636196 0.5706564
vt 0.6636196 0.5706564
vt 0.619967 0.5006399
vt 0.6762672 0.5498333
vt 0.4514933 0.5262445
vt 0.5845931 0.44411
vt 0.5933124 0.5404203
vt 0.5933124 0.5404203
vt 0.5845931 0.44411
vt 0.5857745 0.4447288
vt 0.3998153 0.4088721
vt 0.4726164 0.3820205
vt 0.3299394 0.4415974
vt 0.3299394 0.4415974
vt 0.4726164 0.3820205
vt 0.3139634 0.4506354
vt 0.3139634 0.4506354
vt 0.4726164 0.3820205
vt 0.4770182 0.6025145
vt 0.4770182 0.6025145
vt 0.4726164 0.3820205
vt 0.4976444 0.6016988
vt 0.4976444 0.6016988
vt 0.4726164 0.3820205
vt 0.6276363 0.5254288
vt 0.6276363 0.5254288
vt 0.4726164 0.3820205
vt 0.5348465 0.3643054
vt 0.3753029 0.3682478
vt 0.4017888 0.3368632
vt 0.3171277 0.4450523
vt 0.3171277 0.4450523
vt 0.4017888 0.3368632
vt 0.2687265 0.5748941
vt 0.2687265 0.5748941
vt 0.4017888 0.3368632
vt 0.3489155 0.6264971
vt 0.3489155 0.6264971
vt 0.4017888 0.3368632
vt 0.6094102 0.5171971
vt 0.6094102 0.5171971
vt 0.4017888 0.3368632
vt 0.4653738 0.2764003
vt 0.4653738 0.2764003
vt 0.4017888 0.3368632
vt 0.4340032 0.3049067

usemtl Material0
usemap Material0
f 1/1/1 2/2/2 3/3/3
f 4/4/4 5/5/5 6/6/6
f 7/7/7 8/8/8 9/9/9
f 10/10/10 11/11/11 12/12/12
f 13/13/13 14/14/14 15/15/15
f 16/16/16 17/17/17 18/18/18
f 19/19/19 20/20/20 21/21/21
f 22/22/22 23/23/23 24/24/24
f 25/25/25 26/26/26 27/27/27
f 28/28/28 29/29/29 30/30/30
f 31/31/31 32/32/32 33/33/33
f 34/34/34 35/35/35 36/36/36
f 37/37/37 38/38/38 39/39/39
f 40/40/40 41/41/41 42/42/42
f 43/43/43 44/44/44 45/45/45
f 46/46/46 47/47/47 48/48/48
f 49/49/49 50/50/50 51/51/51
f 52/52/52 53/53/53 54/54/54
f 55/55/55 56/56/56 57/57/57
f 58/58/58 59/59/59 60/60/60
f 61/61/61 62/62/62 63/63/63
f 64/64/64 65/65/65 66/66/66
f 67/67/67 68/68/68 69/69/69
f 70/70/70 71/71/71 72/72/72
f 73/73/73 74/74/74 75/75/75
f 76/76/76 77/77/77 78/78/78
f 79/79/79 80/80/80 81/81/81
f 82/82/82 83/83/83 84/84/84

usemtl Material1
usemap Material1
f 85/85/85 86/86/86 87/87/87
f 88/88/88 89/89/89 90/90/90
f 91/91/91 92/92/92 93/93/93
f 94/94/94 95/95/95 96/96/96
f 97/97/97 98/98/98 99/99/99
f 100/100/100 101/101/101 102/102/102
f 103/103/103 104/104/104 105/105/105
f 106/106/106 107/107/107 108/108/108
f 109/109/109 110/110/110 111/111/111
f 112/112/112 113/113/113 114/114/114
f 115/115/115 116/116/116 117/117/117
f 118/118/118 119/119/119 120/120/120
f 121/121/121 122/122/122 123/123/123
f 124/124/124 125/125/125 126/126/126
f 127/127/127 128/128/128 129/129/129
f 130/130/130 131/131/131 132/132/132
f 133/133/133 134/134/134 135/135/135
f 136/136/136 137/137/137 138/138/138
f 139/139/139 140/140/140 141/141/141
f 142/142/142 143/143/143 144/144/144
f 145/145/145 146/146/146 147/147/147
f 148/148/148 149/149/149 150/150/150
f 151/151/151 152/152/152 153/153/153
f 154/154/154 155/155/155 156/156/156
f 157/157/157 158/158/158 159/159/159
f 160/160/160 161/161/161 162/162/162
f 163/163/163 164/164/164 165/165/165
f 166/166/166 167/167/167 168/168/168
f 169/169/169 170/170/170 171/171/171
f 172/172/172 173/173/173 174/174/174
f 175/175/175 176/176/176 177/177/177
f 178/178/178 179/179/179 180/180/180
f 181/181/181 182/182/182 183/183/183
f 184/184/184 185/185/185 186/186/186
f 187/187/187 188/188/188 189/189/189
f 190/190/190 191/191/191 192/192/192
