g  Instance
v 6.881885 -44.00894 -4.092295
v 6.590474 -43.71026 -4.065195
v 6.829465 -43.74009 -3.691411
v 6.829465 -43.74009 -3.691411
v 7.144589 -43.82343 -3.1528
v 6.881885 -44.00894 -4.092295
v 6.881885 -44.00894 -4.092295
v 7.144589 -43.82343 -3.1528
v 7.414587 -44.21887 -3.314617
v 6.881885 -44.00894 -4.092295
v 7.414587 -44.21887 -3.314617
v 7.554453 -44.93465 -4.09229
v 7.554453 -44.93465 -4.09229
v 7.414587 -44.21887 -3.314617
v 7.808497 -45.04607 -3.738214
v 7.808497 -45.04607 -3.738214
v 7.414587 -44.21887 -3.314617
v 7.801755 -44.93608 -3.588551
v 7.808497 -45.04607 -3.738214
v 7.801755 -44.93608 -3.588551
v 7.867873 -45.08081 -3.641539
v 5.801037 -43.72793 -5.17906
v 5.891095 -43.71833 -5.059881
v 5.903657 -43.82332 -5.195717
v 6.881885 -44.00894 -4.092295
v 5.903657 -43.82332 -5.195717
v 6.590474 -43.71026 -4.065195
v 6.590474 -43.71026 -4.065195
v 5.903657 -43.82332 -5.195717
v 5.891095 -43.71833 -5.059881
v 6.881885 -44.00894 -4.092295
v 6.881891 -44.7103 -4.916766
v 5.903657 -43.82332 -5.195717
v 5.903657 -43.82332 -5.195717
v 6.881891 -44.7103 -4.916766
v 6.581816 -44.63907 -5.238452
v 7.554453 -44.93465 -4.09229
v 6.881891 -44.7103 -4.916766
v 6.881885 -44.00894 -4.092295
v 5.903657 -43.82332 -5.195717
v 5.75211 -43.80428 -5.316649
v 5.801037 -43.72793 -5.17906
v 5.801037 -43.72793 -5.17906
v 5.75211 -43.80428 -5.316649
v 5.791999 -43.7299 -5.189978
v 5.857637 -44.18588 -5.600967
v 5.664623 -43.98133 -5.574603
v 5.903657 -43.82332 -5.195717
v 5.903657 -43.82332 -5.195717
v 5.664623 -43.98133 -5.574603
v 5.75211 -43.80428 -5.316649
v 6.581816 -44.63907 -5.238452
v 6.171908 -44.57235 -5.629005
v 5.903657 -43.82332 -5.195717
v 5.903657 -43.82332 -5.195717
v 6.171908 -44.57235 -5.629005
v 5.857637 -44.18588 -5.600967
v 5.509185 -46.02294 -3.567966
v 5.467122 -45.93082 -3.944971
v 5.580897 -46.07711 -3.63227
v 5.791999 -43.7299 -5.189978
v 5.75211 -43.80428 -5.316649
v 5.618194 -45.70431 -3.386462
v 5.618194 -45.70431 -3.386462
v 5.75211 -43.80428 -5.316649
v 5.565437 -45.89069 -3.428397
v 5.565437 -45.89069 -3.428397
v 5.75211 -43.80428 -5.316649
v 5.509185 -46.02294 -3.567966
v 5.509185 -46.02294 -3.567966
v 5.75211 -43.80428 -5.316649
v 5.467122 -45.93082 -3.944971
v 5.467122 -45.93082 -3.944971
v 5.75211 -43.80428 -5.316649
v 5.442521 -45.19368 -5.140644
v 5.442521 -45.19368 -5.140644
v 5.75211 -43.80428 -5.316649
v 5.664623 -43.98133 -5.574603
v 7.801755 -44.93608 -3.588551
v 7.414587 -44.21887 -3.314617
v 7.867873 -45.08081 -3.641539
v 7.867873 -45.08081 -3.641539
v 7.414587 -44.21887 -3.314617
v 6.010837 -45.95421 -3.531063
v 6.010837 -45.95421 -3.531063
v 7.414587 -44.21887 -3.314617
v 5.565437 -45.89069 -3.428397
v 5.565437 -45.89069 -3.428397
v 7.414587 -44.21887 -3.314617
v 5.618194 -45.70431 -3.386462
v 5.618194 -45.70431 -3.386462
v 7.414587 -44.21887 -3.314617
v 7.144589 -43.82343 -3.1528
v 5.509185 -46.02294 -3.567966
v 5.580897 -46.07711 -3.63227
v 5.565437 -45.89069 -3.428397
v 5.565437 -45.89069 -3.428397
v 5.580897 -46.07711 -3.63227
v 6.010837 -45.95421 -3.531063
v 5.618194 -45.70431 -3.386462
v 7.144589 -43.82343 -3.1528
v 5.791999 -43.7299 -5.189978
v 5.791999 -43.7299 -5.189978
v 7.144589 -43.82343 -3.1528
v 5.801037 -43.72793 -5.17906
v 5.801037 -43.72793 -5.17906
v 7.144589 -43.82343 -3.1528
v 5.891095 -43.71833 -5.059881
v 5.891095 -43.71833 -5.059881
v 7.144589 -43.82343 -3.1528
v 6.590474 -43.71026 -4.065195
v 6.590474 -43.71026 -4.065195
v 7.144589 -43.82343 -3.1528
v 6.829465 -43.74009 -3.691411
v 6.581816 -44.63907 -5.238452
v 6.881891 -44.7103 -4.916766
v 6.171908 -44.57235 -5.629005
v 6.171908 -44.57235 -5.629005
v 6.881891 -44.7103 -4.916766
v 5.442521 -45.19368 -5.140644
v 5.442521 -45.19368 -5.140644
v 6.881891 -44.7103 -4.916766
v 5.467122 -45.93082 -3.944971
v 5.467122 -45.93082 -3.944971
v 6.881891 -44.7103 -4.916766
v 5.580897 -46.07711 -3.63227
v 5.580897 -46.07711 -3.63227
v 6.881891 -44.7103 -4.916766
v 6.010837 -45.95421 -3.531063
v 6.010837 -45.95421 -3.531063
v 6.881891 -44.7103 -4.916766
v 7.867873 -45.08081 -3.641539
v 7.867873 -45.08081 -3.641539
v 6.881891 -44.7103 -4.916766
v 7.808497 -45.04607 -3.738214
v 7.808497 -45.04607 -3.738214
v 6.881891 -44.7103 -4.916766
v 7.554453 -44.93465 -4.09229
v 5.664623 -43.98133 -5.574603
v 5.857637 -44.18588 -5.600967
v 5.442521 -45.19368 -5.140644
v 5.442521 -45.19368 -5.140644
v 5.857637 -44.18588 -5.600967
v 6.171908 -44.57235 -5.629005

vn 0.6504 0.6674636 -0.3625908
vn 0.6504 0.6674636 -0.3625908
vn 0.6504 0.6674636 -0.3625908
vn 0.715117 0.6201988 -0.32243
vn 0.715117 0.6201988 -0.32243
vn 0.715117 0.6201988 -0.32243
vn 0.715117 0.6201988 -0.32243
vn 0.715117 0.6201988 -0.32243
vn 0.715117 0.6201988 -0.32243
vn 0.7523147 0.5465894 -0.3677806
vn 0.7523147 0.5465894 -0.3677806
vn 0.7523147 0.5465894 -0.3677806
vn 0.7523147 0.5465894 -0.3677806
vn 0.7523147 0.5465894 -0.3677806
vn 0.7523147 0.5465894 -0.3677806
vn 0.7523147 0.5465894 -0.3677806
vn 0.7523147 0.5465894 -0.3677806
vn 0.7523147 0.5465894 -0.3677806
vn 0.810828 0.4884636 -0.3224302
vn 0.810828 0.4884636 -0.3224302
vn 0.810828 0.4884636 -0.3224302
vn 0.5563586 0.6815476 -0.4753502
vn 0.5563586 0.6815476 -0.4753502
vn 0.5563586 0.6815476 -0.4753502
vn 0.6215686 0.6465625 -0.4422776
vn 0.6215686 0.6465625 -0.4422776
vn 0.6215686 0.6465625 -0.4422776
vn 0.6215686 0.6465625 -0.4422776
vn 0.6215686 0.6465625 -0.4422776
vn 0.6215686 0.6465625 -0.4422776
vn 0.6586739 0.5731168 -0.4875303
vn 0.6586739 0.5731168 -0.4875303
vn 0.6586739 0.5731168 -0.4875303
vn 0.6586739 0.5731168 -0.4875303
vn 0.6586739 0.5731168 -0.4875303
vn 0.6586739 0.5731168 -0.4875303
vn 0.7236047 0.5257303 -0.447218
vn 0.7236047 0.5257303 -0.447218
vn 0.7236047 0.5257303 -0.447218
vn 0.519872 0.6550376 -0.5483238
vn 0.519872 0.6550376 -0.5483238
vn 0.519872 0.6550376 -0.5483238
vn 0.519872 0.6550376 -0.5483238
vn 0.519872 0.6550376 -0.5483238
vn 0.519872 0.6550376 -0.5483238
vn 0.546754 0.5922048 -0.5919066
vn 0.546754 0.5922048 -0.5919066
vn 0.546754 0.5922048 -0.5919066
vn 0.546754 0.5922048 -0.5919066
vn 0.546754 0.5922048 -0.5919066
vn 0.546754 0.5922048 -0.5919066
vn 0.6224858 0.546824 -0.5599062
vn 0.6224858 0.546824 -0.5599062
vn 0.6224858 0.546824 -0.5599062
vn 0.6224858 0.546824 -0.5599062
vn 0.6224858 0.546824 -0.5599062
vn 0.6224858 0.546824 -0.5599062
vn -0.6591751 -0.74415 -0.1083005
vn -0.6591751 -0.74415 -0.1083005
vn -0.6591751 -0.74415 -0.1083005
vn -0.9582024 0.2343071 0.1641597
vn -0.9582024 0.2343071 0.1641597
vn -0.9582024 0.2343071 0.1641597
vn -0.9582024 0.2343071 0.1641597
vn -0.9582024 0.2343071 0.1641597
vn -0.9582024 0.2343071 0.1641597
vn -0.9582024 0.2343071 0.1641597
vn -0.9582024 0.2343071 0.1641597
vn -0.9582024 0.2343071 0.1641597
vn -0.9582024 0.2343071 0.1641597
vn -0.9582024 0.2343071 0.1641597
vn -0.9582024 0.2343071 0.1641597
vn -0.9582024 0.2343071 0.1641597
vn -0.9582024 0.2343071 0.1641597
vn -0.9582024 0.2343071 0.1641597
vn -0.9582024 0.2343071 0.1641597
vn -0.9582024 0.2343071 0.1641597
vn -0.9582024 0.2343071 0.1641597
vn 0.1806706 -0.264316 0.9473622
vn 0.1806706 -0.264316 0.9473622
vn 0.1806706 -0.264316 0.9473622
vn 0.1806706 -0.264316 0.9473622
vn 0.1806706 -0.264316 0.9473622
vn 0.1806706 -0.264316 0.9473622
vn 0.1806706 -0.264316 0.9473622
vn 0.1806706 -0.264316 0.9473622
vn 0.1806706 -0.264316 0.9473622
vn 0.1806706 -0.264316 0.9473622
vn 0.1806706 -0.264316 0.9473622
vn 0.1806706 -0.264316 0.9473622
vn 0.1806706 -0.264316 0.9473622
vn 0.1806706 -0.264316 0.9473622
vn 0.1806706 -0.264316 0.9473622
vn 0.05098099 -0.7350907 0.6760493
vn 0.05098099 -0.7350907 0.6760493
vn 0.05098099 -0.7350907 0.6760493
vn 0.05098099 -0.7350907 0.6760493
vn 0.05098099 -0.7350907 0.6760493
vn 0.05098099 -0.7350907 0.6760493
vn -0.7050596 0.511107 0.49159
vn -0.7050596 0.511107 0.49159
vn -0.7050596 0.511107 0.49159
vn -0.7050596 0.511107 0.49159
vn -0.7050596 0.511107 0.49159
vn -0.7050596 0.511107 0.49159
vn -0.7050596 0.511107 0.49159
vn -0.7050596 0.511107 0.49159
vn -0.7050596 0.511107 0.49159
vn -0.7050596 0.511107 0.49159
vn -0.7050596 0.511107 0.49159
vn -0.7050596 0.511107 0.49159
vn -0.7050596 0.511107 0.49159
vn -0.7050596 0.511107 0.49159
vn -0.7050596 0.511107 0.49159
vn 0.3447031 -0.7958766 -0.4977553
vn 0.3447031 -0.7958766 -0.4977553
vn 0.3447031 -0.7958766 -0.4977553
vn 0.3447031 -0.7958766 -0.4977553
vn 0.3447031 -0.7958766 -0.4977553
vn 0.3447031 -0.7958766 -0.4977553
vn 0.3447031 -0.7958766 -0.4977553
vn 0.3447031 -0.7958766 -0.4977553
vn 0.3447031 -0.7958766 -0.4977553
vn 0.3447031 -0.7958766 -0.4977553
vn 0.3447031 -0.7958766 -0.4977553
vn 0.3447031 -0.7958766 -0.4977553
vn 0.3447031 -0.7958766 -0.4977553
vn 0.3447031 -0.7958766 -0.4977553
vn 0.3447031 -0.7958766 -0.4977553
vn 0.3447031 -0.7958766 -0.4977553
vn 0.3447031 -0.7958766 -0.4977553
vn 0.3447031 -0.7958766 -0.4977553
vn 0.3447031 -0.7958766 -0.4977553
vn 0.3447031 -0.7958766 -0.4977553
vn 0.3447031 -0.7958766 -0.4977553
vn 0.3447031 -0.7958766 -0.4977553
vn 0.3447031 -0.7958766 -0.4977553
vn 0.3447031 -0.7958766 -0.4977553
vn -0.3842333 -0.2479405 -0.8893201
vn -0.3842333 -0.2479405 -0.8893201
vn -0.3842333 -0.2479405 -0.8893201
vn -0.3842333 -0.2479405 -0.8893201
vn -0.3842333 -0.2479405 -0.8893201
vn -0.3842333 -0.2479405 -0.8893201

vt 0.2840906 0.1771435
vt 0.2901687 0.1771435
vt 0.2875201 0.1830836
vt 0.2875201 0.1830836
vt 0.2839246 0.1912663
vt 0.2840906 0.1771435
vt 0.2840906 0.1771435
vt 0.2839246 0.1912663
vt 0.2772459 0.1889989
vt 0.2840906 0.1771435
vt 0.2772459 0.1889989
vt 0.2678736 0.1771435
vt 0.2678736 0.1771435
vt 0.2772459 0.1889989
vt 0.2644797 0.1825413
vt 0.2644797 0.1825413
vt 0.2772459 0.1889989
vt 0.265797 0.1848228
vt 0.2644797 0.1825413
vt 0.265797 0.1848228
vt 0.2636089 0.1839727
vt 0.2976463 0.157461
vt 0.2967355 0.1596802
vt 0.2954542 0.157461
vt 0.2840906 0.1771435
vt 0.2954542 0.157461
vt 0.2901687 0.1771435
vt 0.2901687 0.1771435
vt 0.2954542 0.157461
vt 0.2967355 0.1596802
vt 0.2840906 0.1771435
vt 0.276049 0.163215
vt 0.2954542 0.157461
vt 0.2954542 0.157461
vt 0.276049 0.163215
vt 0.2796986 0.157461
vt 0.2678736 0.1771435
vt 0.276049 0.163215
vt 0.2840906 0.1771435
vt 0.2954542 0.157461
vt 0.2969043 0.1549495
vt 0.2976463 0.157461
vt 0.2976463 0.157461
vt 0.2969043 0.1549495
vt 0.2976873 0.1572473
vt 0.2912818 0.1502341
vt 0.2953864 0.1501995
vt 0.2954542 0.157461
vt 0.2954542 0.157461
vt 0.2953864 0.1501995
vt 0.2969043 0.1549495
vt 0.2796986 0.157461
vt 0.2838747 0.1500883
vt 0.2954542 0.157461
vt 0.2954542 0.157461
vt 0.2838747 0.1500883
vt 0.2912818 0.1502341
vt 0.4846358 0.3657868
vt 0.493791 0.4032889
vt 0.4757759 0.3721856
vt 0.5766333 0.557915
vt 0.5684766 0.5707126
vt 0.3813783 0.375692
vt 0.3813783 0.375692
vt 0.5684766 0.5707126
vt 0.3620881 0.3799298
vt 0.3620881 0.3799298
vt 0.5684766 0.5707126
vt 0.3479545 0.3940306
vt 0.3479545 0.3940306
vt 0.5684766 0.5707126
vt 0.3558768 0.4321187
vt 0.3558768 0.4321187
vt 0.5684766 0.5707126
vt 0.4266481 0.5529273
vt 0.4266481 0.5529273
vt 0.5684766 0.5707126
vt 0.5492661 0.5967673
vt 0.5031853 0.3714777
vt 0.579596 0.4108222
vt 0.4878235 0.3647601
vt 0.4878235 0.3647601
vt 0.579596 0.4108222
vt 0.406711 0.5534804
vt 0.406711 0.5534804
vt 0.579596 0.4108222
vt 0.415585 0.5987455
vt 0.415585 0.5987455
vt 0.579596 0.4108222
vt 0.4346548 0.5933827
vt 0.4346548 0.5933827
vt 0.579596 0.4108222
vt 0.6220203 0.4382597
vt 0.6354742 0.4861453
vt 0.6264268 0.4977897
vt 0.6267644 0.4608735
vt 0.6267644 0.4608735
vt 0.6264268 0.4977897
vt 0.5680641 0.4794605
vt 0.3479076 0.3760014
vt 0.6209609 0.345709
vt 0.5398906 0.6098087
vt 0.5398906 0.6098087
vt 0.6209609 0.345709
vt 0.5406687 0.608393
vt 0.5406687 0.608393
vt 0.6209609 0.345709
vt 0.5475129 0.5929421
vt 0.5475129 0.5929421
vt 0.6209609 0.345709
vt 0.5945874 0.4639955
vt 0.5945874 0.4639955
vt 0.6209609 0.345709
vt 0.6076945 0.4155381
vt 0.4758838 0.5540523
vt 0.447879 0.5120124
vt 0.5155048 0.6050928
vt 0.5155048 0.6050928
vt 0.447879 0.5120124
vt 0.619367 0.5412735
vt 0.619367 0.5412735
vt 0.447879 0.5120124
vt 0.6500157 0.3850113
vt 0.6500157 0.3850113
vt 0.447879 0.5120124
vt 0.6447747 0.3441433
vt 0.6447747 0.3441433
vt 0.447879 0.5120124
vt 0.5945125 0.3309144
vt 0.5945125 0.3309144
vt 0.447879 0.5120124
vt 0.3620131 0.3453528
vt 0.3620131 0.3453528
vt 0.447879 0.5120124
vt 0.3666212 0.357991
vt 0.3666212 0.357991
vt 0.447879 0.5120124
vt 0.3880302 0.404264
vt 0.7379489 0.5280821
vt 0.6784986 0.5404766
vt 0.5448315 0.3240609
vt 0.5448315 0.3240609
vt 0.6784986 0.5404766
vt 0.5720487 0.5536585

usemtl Material0
usemap Material0
f 1/1/1 2/2/2 3/3/3
f 4/4/4 5/5/5 6/6/6
f 7/7/7 8/8/8 9/9/9
f 10/10/10 11/11/11 12/12/12
f 13/13/13 14/14/14 15/15/15
f 16/16/16 17/17/17 18/18/18
f 19/19/19 20/20/20 21/21/21
f 22/22/22 23/23/23 24/24/24
f 25/25/25 26/26/26 27/27/27
f 28/28/28 29/29/29 30/30/30
f 31/31/31 32/32/32 33/33/33
f 34/34/34 35/35/35 36/36/36
f 37/37/37 38/38/38 39/39/39
f 40/40/40 41/41/41 42/42/42
f 43/43/43 44/44/44 45/45/45
f 46/46/46 47/47/47 48/48/48
f 49/49/49 50/50/50 51/51/51
f 52/52/52 53/53/53 54/54/54
f 55/55/55 56/56/56 57/57/57

usemtl Material1
usemap Material1
f 58/58/58 59/59/59 60/60/60
f 61/61/61 62/62/62 63/63/63
f 64/64/64 65/65/65 66/66/66
f 67/67/67 68/68/68 69/69/69
f 70/70/70 71/71/71 72/72/72
f 73/73/73 74/74/74 75/75/75
f 76/76/76 77/77/77 78/78/78
f 79/79/79 80/80/80 81/81/81
f 82/82/82 83/83/83 84/84/84
f 85/85/85 86/86/86 87/87/87
f 88/88/88 89/89/89 90/90/90
f 91/91/91 92/92/92 93/93/93
f 94/94/94 95/95/95 96/96/96
f 97/97/97 98/98/98 99/99/99
f 100/100/100 101/101/101 102/102/102
f 103/103/103 104/104/104 105/105/105
f 106/106/106 107/107/107 108/108/108
f 109/109/109 110/110/110 111/111/111
f 112/112/112 113/113/113 114/114/114
f 115/115/115 116/116/116 117/117/117
f 118/118/118 119/119/119 120/120/120
f 121/121/121 122/122/122 123/123/123
f 124/124/124 125/125/125 126/126/126
f 127/127/127 128/128/128 129/129/129
f 130/130/130 131/131/131 132/132/132
f 133/133/133 134/134/134 135/135/135
f 136/136/136 137/137/137 138/138/138
f 139/139/139 140/140/140 141/141/141
f 142/142/142 143/143/143 144/144/144
