g  Instance
v 4.848528 -51.29731 -8.621634
v 5.264015 -50.92142 -8.404694
v 5.589951 -51.29731 -8.163411
v 5.589951 -51.29731 -8.163411
v 5.264015 -50.92142 -8.404694
v 5.611713 -51.20671 -8.159566
v 5.611713 -51.20671 -8.159566
v 5.264015 -50.92142 -8.404694
v 5.465306 -51.00574 -8.271352
v 4.602652 -51.51681 -8.727449
v 4.848528 -51.29731 -8.621634
v 5.067297 -52.66403 -8.199112
v 5.067297 -52.66403 -8.199112
v 4.848528 -51.29731 -8.621634
v 5.265519 -52.32979 -8.146869
v 5.265519 -52.32979 -8.146869
v 4.848528 -51.29731 -8.621634
v 5.589951 -51.29731 -8.163411
v 5.265519 -52.32979 -8.146869
v 5.153836 -52.6617 -8.135719
v 5.067297 -52.66403 -8.199112
v 5.104736 -52.77925 -8.124235
v 5.067297 -52.66403 -8.199112
v 5.153836 -52.6617 -8.135719
v 3.618013 -52.62864 -8.944283
v 3.542659 -52.44059 -9.011563
v 4.028617 -52.01837 -8.891224
v 4.028617 -52.01837 -8.891224
v 4.602652 -51.51681 -8.727449
v 3.618013 -52.62864 -8.944283
v 3.618013 -52.62864 -8.944283
v 4.602652 -51.51681 -8.727449
v 5.067297 -52.66403 -8.199112
v 5.067297 -52.66403 -8.199112
v 4.09952 -53.99605 -8.199117
v 3.618013 -52.62864 -8.944283
v 4.515934 -53.99605 -7.941761
v 4.09952 -53.99605 -8.199117
v 5.104736 -52.77925 -8.124235
v 5.104736 -52.77925 -8.124235
v 4.09952 -53.99605 -8.199117
v 5.067297 -52.66403 -8.199112
v 4.123485 -54.07718 -8.137176
v 4.09952 -53.99605 -8.199117
v 4.43674 -54.13315 -7.911056
v 4.43674 -54.13315 -7.911056
v 4.09952 -53.99605 -8.199117
v 4.515934 -53.99605 -7.941761
v 3.542659 -52.44059 -9.011563
v 3.618013 -52.62864 -8.944283
v 3.343594 -52.61024 -9.035622
v 3.618013 -52.62864 -8.944283
v 2.841495 -53.62014 -8.853441
v 3.343594 -52.61024 -9.035622
v 3.343594 -52.61024 -9.035622
v 2.841495 -53.62014 -8.853441
v 2.734276 -53.12225 -9.053375
v 2.734276 -53.12225 -9.053375
v 2.841495 -53.62014 -8.853441
v 2.744048 -53.27166 -9.000331
v 3.778205 -53.97331 -8.336613
v 2.853721 -53.66216 -8.831573
v 4.09952 -53.99605 -8.199117
v 4.09952 -53.99605 -8.199117
v 2.853721 -53.66216 -8.831573
v 3.618013 -52.62864 -8.944283
v 3.618013 -52.62864 -8.944283
v 2.853721 -53.66216 -8.831573
v 2.841495 -53.62014 -8.853441
v 4.09952 -53.99605 -8.199117
v 4.044911 -54.05814 -8.188001
v 3.778205 -53.97331 -8.336613
v 4.09952 -53.99605 -8.199117
v 4.123485 -54.07718 -8.137176
v 4.044911 -54.05814 -8.188001
v 4.243795 -51.67462 -7.637746
v 2.734276 -53.12225 -9.053375
v 4.440922 -51.78621 -7.3698
v 4.440922 -51.78621 -7.3698
v 2.734276 -53.12225 -9.053375
v 4.297297 -52.34904 -7.387017
v 4.297297 -52.34904 -7.387017
v 2.734276 -53.12225 -9.053375
v 3.406764 -53.51092 -8.137085
v 3.406764 -53.51092 -8.137085
v 2.734276 -53.12225 -9.053375
v 2.848602 -53.61433 -8.779875
v 2.848602 -53.61433 -8.779875
v 2.734276 -53.12225 -9.053375
v 2.744048 -53.27166 -9.000331
v 4.044911 -54.05814 -8.188001
v 4.123485 -54.07718 -8.137176
v 3.778205 -53.97331 -8.336613
v 3.778205 -53.97331 -8.336613
v 4.123485 -54.07718 -8.137176
v 2.853721 -53.66216 -8.831573
v 2.853721 -53.66216 -8.831573
v 4.123485 -54.07718 -8.137176
v 2.848602 -53.61433 -8.779875
v 2.848602 -53.61433 -8.779875
v 4.123485 -54.07718 -8.137176
v 3.406764 -53.51092 -8.137085
v 3.406764 -53.51092 -8.137085
v 4.123485 -54.07718 -8.137176
v 4.250611 -53.7953 -7.685734
v 4.250611 -53.7953 -7.685734
v 4.123485 -54.07718 -8.137176
v 4.43674 -54.13315 -7.911056
v 4.969505 -51.1014 -7.89664
v 5.065865 -51.18851 -7.724451
v 5.264015 -50.92142 -8.404694
v 5.264015 -50.92142 -8.404694
v 5.065865 -51.18851 -7.724451
v 5.465306 -51.00574 -8.271352
v 5.465306 -51.00574 -8.271352
v 5.065865 -51.18851 -7.724451
v 5.37271 -51.13065 -7.953248
v 4.250611 -53.7953 -7.685734
v 4.297297 -52.34904 -7.387017
v 3.406764 -53.51092 -8.137085
v 5.37271 -51.13065 -7.953248
v 5.611713 -51.20671 -8.159566
v 5.465306 -51.00574 -8.271352
v 2.744048 -53.27166 -9.000331
v 2.841495 -53.62014 -8.853441
v 2.848602 -53.61433 -8.779875
v 2.848602 -53.61433 -8.779875
v 2.841495 -53.62014 -8.853441
v 2.853721 -53.66216 -8.831573
v 5.065865 -51.18851 -7.724451
v 4.969505 -51.1014 -7.89664
v 4.440922 -51.78621 -7.3698
v 4.440922 -51.78621 -7.3698
v 4.969505 -51.1014 -7.89664
v 4.243795 -51.67462 -7.637746
v 4.250611 -53.7953 -7.685734
v 4.43674 -54.13315 -7.911056
v 4.297297 -52.34904 -7.387017
v 4.297297 -52.34904 -7.387017
v 4.43674 -54.13315 -7.911056
v 4.440922 -51.78621 -7.3698
v 4.440922 -51.78621 -7.3698
v 4.43674 -54.13315 -7.911056
v 5.065865 -51.18851 -7.724451
v 5.065865 -51.18851 -7.724451
v 4.43674 -54.13315 -7.911056
v 5.37271 -51.13065 -7.953248
v 5.37271 -51.13065 -7.953248
v 4.43674 -54.13315 -7.911056
v 5.611713 -51.20671 -8.159566
v 5.611713 -51.20671 -8.159566
v 4.43674 -54.13315 -7.911056
v 5.589951 -51.29731 -8.163411
v 5.589951 -51.29731 -8.163411
v 4.43674 -54.13315 -7.911056
v 5.265519 -52.32979 -8.146869
v 5.265519 -52.32979 -8.146869
v 4.43674 -54.13315 -7.911056
v 5.153836 -52.6617 -8.135719
v 5.153836 -52.6617 -8.135719
v 4.43674 -54.13315 -7.911056
v 5.104736 -52.77925 -8.124235
v 5.104736 -52.77925 -8.124235
v 4.43674 -54.13315 -7.911056
v 4.515934 -53.99605 -7.941761
v 4.602652 -51.51681 -8.727449
v 4.028617 -52.01837 -8.891224
v 4.848528 -51.29731 -8.621634
v 4.848528 -51.29731 -8.621634
v 4.028617 -52.01837 -8.891224
v 5.264015 -50.92142 -8.404694
v 5.264015 -50.92142 -8.404694
v 4.028617 -52.01837 -8.891224
v 4.969505 -51.1014 -7.89664
v 4.969505 -51.1014 -7.89664
v 4.028617 -52.01837 -8.891224
v 4.243795 -51.67462 -7.637746
v 4.243795 -51.67462 -7.637746
v 4.028617 -52.01837 -8.891224
v 2.734276 -53.12225 -9.053375
v 2.734276 -53.12225 -9.053375
v 4.028617 -52.01837 -8.891224
v 3.343594 -52.61024 -9.035622
v 3.343594 -52.61024 -9.035622
v 4.028617 -52.01837 -8.891224
v 3.542659 -52.44059 -9.011563

vn 0.5236048 -0.08980521 -0.8472149
vn 0.5236048 -0.08980521 -0.8472149
vn 0.5236048 -0.08980521 -0.8472149
vn 0.5236048 -0.08980521 -0.8472149
vn 0.5236048 -0.08980521 -0.8472149
vn 0.5236048 -0.08980521 -0.8472149
vn 0.5236048 -0.08980521 -0.8472149
vn 0.5236048 -0.08980521 -0.8472149
vn 0.5236048 -0.08980521 -0.8472149
vn 0.5175194 -0.1760333 -0.8373685
vn 0.5175194 -0.1760333 -0.8373685
vn 0.5175194 -0.1760333 -0.8373685
vn 0.5175194 -0.1760333 -0.8373685
vn 0.5175194 -0.1760333 -0.8373685
vn 0.5175194 -0.1760333 -0.8373685
vn 0.5175194 -0.1760333 -0.8373685
vn 0.5175194 -0.1760333 -0.8373685
vn 0.5175194 -0.1760333 -0.8373685
vn 0.5801337 -0.2215372 -0.7838151
vn 0.5801337 -0.2215372 -0.7838151
vn 0.5801337 -0.2215372 -0.7838151
vn 0.5670142 -0.3113327 -0.7626052
vn 0.5670142 -0.3113327 -0.7626052
vn 0.5670142 -0.3113327 -0.7626052
vn 0.3768452 -0.1744554 -0.9096994
vn 0.3768452 -0.1744554 -0.9096994
vn 0.3768452 -0.1744554 -0.9096994
vn 0.4416173 -0.2215367 -0.8694226
vn 0.4416173 -0.2215367 -0.8694226
vn 0.4416173 -0.2215367 -0.8694226
vn 0.4416173 -0.2215367 -0.8694226
vn 0.4416173 -0.2215367 -0.8694226
vn 0.4416173 -0.2215367 -0.8694226
vn 0.4285138 -0.3113338 -0.8482024
vn 0.4285138 -0.3113338 -0.8482024
vn 0.4285138 -0.3113338 -0.8482024
vn 0.4911203 -0.3568209 -0.7946569
vn 0.4911203 -0.3568209 -0.7946569
vn 0.4911203 -0.3568209 -0.7946569
vn 0.4911203 -0.3568209 -0.7946569
vn 0.4911203 -0.3568209 -0.7946569
vn 0.4911203 -0.3568209 -0.7946569
vn 0.4713123 -0.4430533 -0.7626064
vn 0.4713123 -0.4430533 -0.7626064
vn 0.4713123 -0.4430533 -0.7626064
vn 0.4713123 -0.4430533 -0.7626064
vn 0.4713123 -0.4430533 -0.7626064
vn 0.4713123 -0.4430533 -0.7626064
vn 0.2954569 -0.2146616 -0.9309273
vn 0.2954569 -0.2146616 -0.9309273
vn 0.2954569 -0.2146616 -0.9309273
vn 0.2823684 -0.3044916 -0.9096994
vn 0.2823684 -0.3044916 -0.9096994
vn 0.2823684 -0.3044916 -0.9096994
vn 0.2823684 -0.3044916 -0.9096994
vn 0.2823684 -0.3044916 -0.9096994
vn 0.2823684 -0.3044916 -0.9096994
vn 0.2823684 -0.3044916 -0.9096994
vn 0.2823684 -0.3044916 -0.9096994
vn 0.2823684 -0.3044916 -0.9096994
vn 0.3471606 -0.3515448 -0.8694227
vn 0.3471606 -0.3515448 -0.8694227
vn 0.3471606 -0.3515448 -0.8694227
vn 0.3471606 -0.3515448 -0.8694227
vn 0.3471606 -0.3515448 -0.8694227
vn 0.3471606 -0.3515448 -0.8694227
vn 0.3471606 -0.3515448 -0.8694227
vn 0.3471606 -0.3515448 -0.8694227
vn 0.3471606 -0.3515448 -0.8694227
vn 0.3273395 -0.4377919 -0.8373692
vn 0.3273395 -0.4377919 -0.8373692
vn 0.3273395 -0.4377919 -0.8373692
vn 0.3899636 -0.4832801 -0.7838167
vn 0.3899636 -0.4832801 -0.7838167
vn 0.3899636 -0.4832801 -0.7838167
vn -0.7572326 0.1739765 0.6295482
vn -0.7572326 0.1739765 0.6295482
vn -0.7572326 0.1739765 0.6295482
vn -0.7572326 0.1739765 0.6295482
vn -0.7572326 0.1739765 0.6295482
vn -0.7572326 0.1739765 0.6295482
vn -0.7572326 0.1739765 0.6295482
vn -0.7572326 0.1739765 0.6295482
vn -0.7572326 0.1739765 0.6295482
vn -0.7572326 0.1739765 0.6295482
vn -0.7572326 0.1739765 0.6295482
vn -0.7572326 0.1739765 0.6295482
vn -0.7572326 0.1739765 0.6295482
vn -0.7572326 0.1739765 0.6295482
vn -0.7572326 0.1739765 0.6295482
vn -0.5162848 -0.6535558 0.5534572
vn -0.5162848 -0.6535558 0.5534572
vn -0.5162848 -0.6535558 0.5534572
vn -0.5162848 -0.6535558 0.5534572
vn -0.5162848 -0.6535558 0.5534572
vn -0.5162848 -0.6535558 0.5534572
vn -0.5162848 -0.6535558 0.5534572
vn -0.5162848 -0.6535558 0.5534572
vn -0.5162848 -0.6535558 0.5534572
vn -0.5162848 -0.6535558 0.5534572
vn -0.5162848 -0.6535558 0.5534572
vn -0.5162848 -0.6535558 0.5534572
vn -0.5162848 -0.6535558 0.5534572
vn -0.5162848 -0.6535558 0.5534572
vn -0.5162848 -0.6535558 0.5534572
vn -0.5162848 -0.6535558 0.5534572
vn -0.5162848 -0.6535558 0.5534572
vn -0.5162848 -0.6535558 0.5534572
vn 0.1213163 0.9114161 0.3931959
vn 0.1213163 0.9114161 0.3931959
vn 0.1213163 0.9114161 0.3931959
vn 0.1213163 0.9114161 0.3931959
vn 0.1213163 0.9114161 0.3931959
vn 0.1213163 0.9114161 0.3931959
vn 0.1213163 0.9114161 0.3931959
vn 0.1213163 0.9114161 0.3931959
vn 0.1213163 0.9114161 0.3931959
vn -0.5067195 -0.158666 0.8473845
vn -0.5067195 -0.158666 0.8473845
vn -0.5067195 -0.158666 0.8473845
vn 0.5930484 0.6756514 0.4379372
vn 0.5930484 0.6756514 0.4379372
vn 0.5930484 0.6756514 0.4379372
vn -0.9682487 -0.2238828 0.1112251
vn -0.9682487 -0.2238828 0.1112251
vn -0.9682487 -0.2238828 0.1112251
vn -0.9682487 -0.2238828 0.1112251
vn -0.9682487 -0.2238828 0.1112251
vn -0.9682487 -0.2238828 0.1112251
vn -0.3702323 0.7288683 0.5759159
vn -0.3702323 0.7288683 0.5759159
vn -0.3702323 0.7288683 0.5759159
vn -0.3702323 0.7288683 0.5759159
vn -0.3702323 0.7288683 0.5759159
vn -0.3702323 0.7288683 0.5759159
vn 0.6095854 -0.179176 0.7722058
vn 0.6095854 -0.179176 0.7722058
vn 0.6095854 -0.179176 0.7722058
vn 0.6095854 -0.179176 0.7722058
vn 0.6095854 -0.179176 0.7722058
vn 0.6095854 -0.179176 0.7722058
vn 0.6095854 -0.179176 0.7722058
vn 0.6095854 -0.179176 0.7722058
vn 0.6095854 -0.179176 0.7722058
vn 0.6095854 -0.179176 0.7722058
vn 0.6095854 -0.179176 0.7722058
vn 0.6095854 -0.179176 0.7722058
vn 0.6095854 -0.179176 0.7722058
vn 0.6095854 -0.179176 0.7722058
vn 0.6095854 -0.179176 0.7722058
vn 0.6095854 -0.179176 0.7722058
vn 0.6095854 -0.179176 0.7722058
vn 0.6095854 -0.179176 0.7722058
vn 0.6095854 -0.179176 0.7722058
vn 0.6095854 -0.179176 0.7722058
vn 0.6095854 -0.179176 0.7722058
vn 0.6095854 -0.179176 0.7722058
vn 0.6095854 -0.179176 0.7722058
vn 0.6095854 -0.179176 0.7722058
vn 0.6095854 -0.179176 0.7722058
vn 0.6095854 -0.179176 0.7722058
vn 0.6095854 -0.179176 0.7722058
vn 0.6095854 -0.179176 0.7722058
vn 0.6095854 -0.179176 0.7722058
vn 0.6095854 -0.179176 0.7722058
vn -0.6384083 0.7632123 -0.0997097
vn -0.6384083 0.7632123 -0.0997097
vn -0.6384083 0.7632123 -0.0997097
vn -0.6384083 0.7632123 -0.0997097
vn -0.6384083 0.7632123 -0.0997097
vn -0.6384083 0.7632123 -0.0997097
vn -0.6384083 0.7632123 -0.0997097
vn -0.6384083 0.7632123 -0.0997097
vn -0.6384083 0.7632123 -0.0997097
vn -0.6384083 0.7632123 -0.0997097
vn -0.6384083 0.7632123 -0.0997097
vn -0.6384083 0.7632123 -0.0997097
vn -0.6384083 0.7632123 -0.0997097
vn -0.6384083 0.7632123 -0.0997097
vn -0.6384083 0.7632123 -0.0997097
vn -0.6384083 0.7632123 -0.0997097
vn -0.6384083 0.7632123 -0.0997097
vn -0.6384083 0.7632123 -0.0997097
vn -0.6384083 0.7632123 -0.0997097
vn -0.6384083 0.7632123 -0.0997097
vn -0.6384083 0.7632123 -0.0997097

vt 0.1164251 0.08356103
vt 0.1246767 0.08644759
vt 0.1226016 0.09425917
vt 0.1226016 0.09425917
vt 0.1246767 0.08644759
vt 0.1239376 0.09382388
vt 0.1239376 0.09382388
vt 0.1246767 0.08644759
vt 0.125279 0.09004939
vt 0.1118113 0.08189149
vt 0.1164251 0.08356103
vt 0.1022726 0.09841314
vt 0.1022726 0.09841314
vt 0.1164251 0.08356103
vt 0.1078307 0.09841314
vt 0.1078307 0.09841314
vt 0.1164251 0.08356103
vt 0.1226016 0.09425917
vt 0.1078307 0.09841314
vt 0.1030207 0.09970878
vt 0.1022726 0.09841314
vt 0.1012896 0.1001158
vt 0.1022726 0.09841314
vt 0.1030207 0.09970878
vt 0.090909 0.07873051
vt 0.09247635 0.07601574
vt 0.1013271 0.07873051
vt 0.1013271 0.07873051
vt 0.1118113 0.08189149
vt 0.090909 0.07873051
vt 0.090909 0.07873051
vt 0.1118113 0.08189149
vt 0.1022726 0.09841314
vt 0.1022726 0.09841314
vt 0.07954537 0.09841314
vt 0.090909 0.07873051
vt 0.08292397 0.1042651
vt 0.07954537 0.09841314
vt 0.1012896 0.1001158
vt 0.1012896 0.1001158
vt 0.07954537 0.09841314
vt 0.1022726 0.09841314
vt 0.07881446 0.09967913
vt 0.07954537 0.09841314
vt 0.08071759 0.1047225
vt 0.08071759 0.1047225
vt 0.07954537 0.09841314
vt 0.08292397 0.1042651
vt 0.09247635 0.07601574
vt 0.090909 0.07873051
vt 0.0887812 0.07504502
vt 0.090909 0.07873051
vt 0.07307152 0.0787305
vt 0.0887812 0.07504502
vt 0.0887812 0.07504502
vt 0.07307152 0.0787305
vt 0.07779652 0.07238673
vt 0.07779652 0.07238673
vt 0.07307152 0.0787305
vt 0.07618785 0.07400459
vt 0.07706299 0.09411348
vt 0.07270049 0.07930268
vt 0.07954537 0.09841314
vt 0.07954537 0.09841314
vt 0.07270049 0.07930268
vt 0.090909 0.07873051
vt 0.090909 0.07873051
vt 0.07270049 0.07930268
vt 0.07307152 0.0787305
vt 0.07954537 0.09841314
vt 0.07836267 0.09841314
vt 0.07706299 0.09411348
vt 0.07954537 0.09841314
vt 0.07881446 0.09967913
vt 0.07836267 0.09841314
vt 0.5899466 0.4799012
vt 0.3686557 0.7104551
vt 0.5817711 0.4362674
vt 0.5817711 0.4362674
vt 0.3686557 0.7104551
vt 0.508295 0.4390707
vt 0.508295 0.4390707
vt 0.3686557 0.7104551
vt 0.3397743 0.5612246
vt 0.3397743 0.5612246
vt 0.3686557 0.7104551
vt 0.311207 0.6659119
vt 0.311207 0.6659119
vt 0.3686557 0.7104551
vt 0.3505046 0.7018108
vt 0.4393473 0.5858448
vt 0.4306749 0.5786443
vt 0.4702584 0.6069116
vt 0.4702584 0.6069116
vt 0.4306749 0.5786443
vt 0.578649 0.6770501
vt 0.578649 0.6770501
vt 0.4306749 0.5786443
vt 0.5826243 0.6697277
vt 0.5826243 0.6697277
vt 0.4306749 0.5786443
vt 0.5384936 0.578635
vt 0.5384936 0.578635
vt 0.4306749 0.5786443
vt 0.4395254 0.5146657
vt 0.4395254 0.5146657
vt 0.4306749 0.5786443
vt 0.3975652 0.5465988
vt 0.5012915 0.5198972
vt 0.5127296 0.4998711
vt 0.5299619 0.5789819
vt 0.5299619 0.5789819
vt 0.5127296 0.4998711
vt 0.5524819 0.5634747
vt 0.5524819 0.5634747
vt 0.5127296 0.4998711
vt 0.5444283 0.5264788
vt 0.2985547 0.5545961
vt 0.5515069 0.4504338
vt 0.3954931 0.711974
vt 0.4433131 0.5366701
vt 0.4684443 0.5617684
vt 0.4419115 0.5753629
vt 0.4662832 0.5872793
vt 0.4305296 0.5726534
vt 0.430928 0.5653311
vt 0.430928 0.5653311
vt 0.4305296 0.5726534
vt 0.4262027 0.5704783
vt 0.6088289 0.5130531
vt 0.6032411 0.5383858
vt 0.5092607 0.4608829
vt 0.5092607 0.4608829
vt 0.6032411 0.5383858
vt 0.4942035 0.5003023
vt 0.6879491 0.4291232
vt 0.7299797 0.4839889
vt 0.4712241 0.3563737
vt 0.4712241 0.3563737
vt 0.7299797 0.4839889
vt 0.3814064 0.3521828
vt 0.3814064 0.3521828
vt 0.7299797 0.4839889
vt 0.2654075 0.4385503
vt 0.2654075 0.4385503
vt 0.7299797 0.4839889
vt 0.2434266 0.4942645
vt 0.2434266 0.4942645
vt 0.7299797 0.4839889
vt 0.2442891 0.544508
vt 0.2442891 0.544508
vt 0.7299797 0.4839889
vt 0.2586899 0.5454456
vt 0.2586899 0.5454456
vt 0.7299797 0.4839889
vt 0.4261137 0.5414141
vt 0.4261137 0.5414141
vt 0.7299797 0.4839889
vt 0.4802621 0.5386952
vt 0.4802621 0.5386952
vt 0.7299797 0.4839889
vt 0.499857 0.5359012
vt 0.499857 0.5359012
vt 0.7299797 0.4839889
vt 0.7061751 0.4914706
vt 0.5527538 0.529704
vt 0.4774494 0.5459706
vt 0.5852963 0.5191941
vt 0.5852963 0.5191941
vt 0.4774494 0.5459706
vt 0.640612 0.4976584
vt 0.640612 0.4976584
vt 0.4774494 0.5459706
vt 0.6068882 0.4472086
vt 0.6068882 0.4472086
vt 0.4774494 0.5459706
vt 0.5155517 0.4215009
vt 0.5155517 0.4215009
vt 0.4774494 0.5459706
vt 0.3093835 0.5620684
vt 0.3093835 0.5620684
vt 0.4774494 0.5459706
vt 0.3880208 0.5603058
vt 0.3880208 0.5603058
vt 0.4774494 0.5459706
vt 0.4138598 0.557915

usemtl Material0
usemap Material0
f 1/1/1 2/2/2 3/3/3
f 4/4/4 5/5/5 6/6/6
f 7/7/7 8/8/8 9/9/9
f 10/10/10 11/11/11 12/12/12
f 13/13/13 14/14/14 15/15/15
f 16/16/16 17/17/17 18/18/18
f 19/19/19 20/20/20 21/21/21
f 22/22/22 23/23/23 24/24/24
f 25/25/25 26/26/26 27/27/27
f 28/28/28 29/29/29 30/30/30
f 31/31/31 32/32/32 33/33/33
f 34/34/34 35/35/35 36/36/36
f 37/37/37 38/38/38 39/39/39
f 40/40/40 41/41/41 42/42/42
f 43/43/43 44/44/44 45/45/45
f 46/46/46 47/47/47 48/48/48
f 49/49/49 50/50/50 51/51/51
f 52/52/52 53/53/53 54/54/54
f 55/55/55 56/56/56 57/57/57
f 58/58/58 59/59/59 60/60/60
f 61/61/61 62/62/62 63/63/63
f 64/64/64 65/65/65 66/66/66
f 67/67/67 68/68/68 69/69/69
f 70/70/70 71/71/71 72/72/72
f 73/73/73 74/74/74 75/75/75

usemtl Material1
usemap Material1
f 76/76/76 77/77/77 78/78/78
f 79/79/79 80/80/80 81/81/81
f 82/82/82 83/83/83 84/84/84
f 85/85/85 86/86/86 87/87/87
f 88/88/88 89/89/89 90/90/90
f 91/91/91 92/92/92 93/93/93
f 94/94/94 95/95/95 96/96/96
f 97/97/97 98/98/98 99/99/99
f 100/100/100 101/101/101 102/102/102
f 103/103/103 104/104/104 105/105/105
f 106/106/106 107/107/107 108/108/108
f 109/109/109 110/110/110 111/111/111
f 112/112/112 113/113/113 114/114/114
f 115/115/115 116/116/116 117/117/117
f 118/118/118 119/119/119 120/120/120
f 121/121/121 122/122/122 123/123/123
f 124/124/124 125/125/125 126/126/126
f 127/127/127 128/128/128 129/129/129
f 130/130/130 131/131/131 132/132/132
f 133/133/133 134/134/134 135/135/135
f 136/136/136 137/137/137 138/138/138
f 139/139/139 140/140/140 141/141/141
f 142/142/142 143/143/143 144/144/144
f 145/145/145 146/146/146 147/147/147
f 148/148/148 149/149/149 150/150/150
f 151/151/151 152/152/152 153/153/153
f 154/154/154 155/155/155 156/156/156
f 157/157/157 158/158/158 159/159/159
f 160/160/160 161/161/161 162/162/162
f 163/163/163 164/164/164 165/165/165
f 166/166/166 167/167/167 168/168/168
f 169/169/169 170/170/170 171/171/171
f 172/172/172 173/173/173 174/174/174
f 175/175/175 176/176/176 177/177/177
f 178/178/178 179/179/179 180/180/180
f 181/181/181 182/182/182 183/183/183
f 184/184/184 185/185/185 186/186/186
