g  Instance
v -2.51334 -45.00368 -4.595356
v -3.089787 -44.92756 -4.324221
v -3.406107 -44.93143 -3.075487
v -3.406107 -44.93143 -3.075487
v -3.089787 -44.92756 -4.324221
v -3.634696 -44.89246 -3.17967
v -3.943837 -47.50038 -4.742284
v -3.624868 -47.98657 -5.027866
v -3.850993 -47.92761 -4.275657
v -0.7656949 -46.03809 -4.831414
v -0.8116491 -45.90868 -4.843952
v -0.8431729 -46.82674 -4.186299
v -0.8431729 -46.82674 -4.186299
v -0.8116491 -45.90868 -4.843952
v -0.9828103 -46.7409 -4.020995
v -0.9828103 -46.7409 -4.020995
v -0.8116491 -45.90868 -4.843952
v -1.472957 -45.81598 -3.853437
v -0.935335 -45.65543 -5.472915
v -0.8336588 -45.96841 -5.612176
v -2.51334 -45.00368 -4.595356
v -2.51334 -45.00368 -4.595356
v -0.8336588 -45.96841 -5.612176
v -3.089787 -44.92756 -4.324221
v -3.089787 -44.92756 -4.324221
v -0.8336588 -45.96841 -5.612176
v -4.194146 -46.10741 -4.209441
v -4.194146 -46.10741 -4.209441
v -0.8336588 -45.96841 -5.612176
v -3.943837 -47.50038 -4.742284
v -3.943837 -47.50038 -4.742284
v -0.8336588 -45.96841 -5.612176
v -3.624868 -47.98657 -5.027866
v -3.624868 -47.98657 -5.027866
v -0.8336588 -45.96841 -5.612176
v -2.211683 -48.00212 -5.640347
v -2.211683 -48.00212 -5.640347
v -0.8336588 -45.96841 -5.612176
v -1.698374 -47.83863 -5.81119
v -1.698374 -47.83863 -5.81119
v -0.8336588 -45.96841 -5.612176
v -1.48526 -47.67099 -5.851664
v -1.48526 -47.67099 -5.851664
v -0.8336588 -45.96841 -5.612176
v -1.219667 -47.17846 -5.815538
v -3.850993 -47.92761 -4.275657
v -3.841806 -47.84027 -3.266841
v -3.943837 -47.50038 -4.742284
v -3.943837 -47.50038 -4.742284
v -3.841806 -47.84027 -3.266841
v -4.194146 -46.10741 -4.209441
v -4.194146 -46.10741 -4.209441
v -3.841806 -47.84027 -3.266841
v -4.275486 -45.51595 -3.005394
v -4.275486 -45.51595 -3.005394
v -3.841806 -47.84027 -3.266841
v -4.152729 -46.10748 -2.5863
v -4.152729 -46.10748 -2.5863
v -3.841806 -47.84027 -3.266841
v -3.92018 -47.3606 -2.776756
v -0.8173286 -47.17146 -4.519665
v -1.751394 -47.90142 -4.614687
v -0.7502732 -47.10688 -5.198154
v -0.7502732 -47.10688 -5.198154
v -1.751394 -47.90142 -4.614687
v -1.187619 -47.44049 -5.702815
v -1.187619 -47.44049 -5.702815
v -1.751394 -47.90142 -4.614687
v -1.48526 -47.67099 -5.851664
v -1.48526 -47.67099 -5.851664
v -1.751394 -47.90142 -4.614687
v -1.698374 -47.83863 -5.81119
v -1.698374 -47.83863 -5.81119
v -1.751394 -47.90142 -4.614687
v -1.851498 -47.9669 -5.34256
v -0.8173286 -47.17146 -4.519665
v -0.7502732 -47.10688 -5.198154
v -0.8431729 -46.82674 -4.186299
v -0.8431729 -46.82674 -4.186299
v -0.7502732 -47.10688 -5.198154
v -0.7656949 -46.03809 -4.831414
v -0.7656949 -46.03809 -4.831414
v -0.7502732 -47.10688 -5.198154
v -0.7171054 -46.26399 -5.376071
v -3.071457 -45.20829 -2.783076
v -3.080027 -45.30688 -2.723305
v -2.832869 -45.30702 -2.915099
v -3.92018 -47.3606 -2.776756
v -2.552989 -46.52491 -2.852012
v -4.152729 -46.10748 -2.5863
v -4.152729 -46.10748 -2.5863
v -2.552989 -46.52491 -2.852012
v -3.139112 -45.47025 -2.639846
v -0.8173286 -47.17146 -4.519665
v -0.8431729 -46.82674 -4.186299
v -1.751394 -47.90142 -4.614687
v -1.751394 -47.90142 -4.614687
v -0.8431729 -46.82674 -4.186299
v -3.841806 -47.84027 -3.266841
v -3.841806 -47.84027 -3.266841
v -0.8431729 -46.82674 -4.186299
v -3.92018 -47.3606 -2.776756
v -3.92018 -47.3606 -2.776756
v -0.8431729 -46.82674 -4.186299
v -2.552989 -46.52491 -2.852012
v -2.552989 -46.52491 -2.852012
v -0.8431729 -46.82674 -4.186299
v -0.9828103 -46.7409 -4.020995
v -0.7656949 -46.03809 -4.831414
v -0.7171054 -46.26399 -5.376071
v -0.8116491 -45.90868 -4.843952
v -0.8116491 -45.90868 -4.843952
v -0.7171054 -46.26399 -5.376071
v -0.935335 -45.65543 -5.472915
v -0.935335 -45.65543 -5.472915
v -0.7171054 -46.26399 -5.376071
v -0.8336588 -45.96841 -5.612176
v -1.472957 -45.81598 -3.853437
v -2.832869 -45.30702 -2.915099
v -0.9828103 -46.7409 -4.020995
v -0.9828103 -46.7409 -4.020995
v -2.832869 -45.30702 -2.915099
v -2.552989 -46.52491 -2.852012
v -2.552989 -46.52491 -2.852012
v -2.832869 -45.30702 -2.915099
v -3.139112 -45.47025 -2.639846
v -3.139112 -45.47025 -2.639846
v -2.832869 -45.30702 -2.915099
v -3.080027 -45.30688 -2.723305
v -3.624868 -47.98657 -5.027866
v -2.211683 -48.00212 -5.640347
v -3.850993 -47.92761 -4.275657
v -3.850993 -47.92761 -4.275657
v -2.211683 -48.00212 -5.640347
v -3.841806 -47.84027 -3.266841
v -3.841806 -47.84027 -3.266841
v -2.211683 -48.00212 -5.640347
v -1.751394 -47.90142 -4.614687
v -1.751394 -47.90142 -4.614687
v -2.211683 -48.00212 -5.640347
v -1.851498 -47.9669 -5.34256
v -2.211683 -48.00212 -5.640347
v -1.698374 -47.83863 -5.81119
v -1.851498 -47.9669 -5.34256
v -3.080027 -45.30688 -2.723305
v -3.071457 -45.20829 -2.783076
v -3.139112 -45.47025 -2.639846
v -3.139112 -45.47025 -2.639846
v -3.071457 -45.20829 -2.783076
v -4.152729 -46.10748 -2.5863
v -4.152729 -46.10748 -2.5863
v -3.071457 -45.20829 -2.783076
v -4.275486 -45.51595 -3.005394
v -4.275486 -45.51595 -3.005394
v -3.071457 -45.20829 -2.783076
v -3.634696 -44.89246 -3.17967
v -3.634696 -44.89246 -3.17967
v -3.071457 -45.20829 -2.783076
v -3.406107 -44.93143 -3.075487
v -3.634696 -44.89246 -3.17967
v -3.089787 -44.92756 -4.324221
v -4.275486 -45.51595 -3.005394
v -4.275486 -45.51595 -3.005394
v -3.089787 -44.92756 -4.324221
v -4.194146 -46.10741 -4.209441
v -1.48526 -47.67099 -5.851664
v -1.219667 -47.17846 -5.815538
v -1.187619 -47.44049 -5.702815
v -2.832869 -45.30702 -2.915099
v -1.472957 -45.81598 -3.853437
v -3.071457 -45.20829 -2.783076
v -3.071457 -45.20829 -2.783076
v -1.472957 -45.81598 -3.853437
v -3.406107 -44.93143 -3.075487
v -3.406107 -44.93143 -3.075487
v -1.472957 -45.81598 -3.853437
v -2.51334 -45.00368 -4.595356
v -2.51334 -45.00368 -4.595356
v -1.472957 -45.81598 -3.853437
v -0.935335 -45.65543 -5.472915
v -0.935335 -45.65543 -5.472915
v -1.472957 -45.81598 -3.853437
v -0.8116491 -45.90868 -4.843952
v -0.7171054 -46.26399 -5.376071
v -0.7502732 -47.10688 -5.198154
v -0.8336588 -45.96841 -5.612176
v -0.8336588 -45.96841 -5.612176
v -0.7502732 -47.10688 -5.198154
v -1.219667 -47.17846 -5.815538
v -1.219667 -47.17846 -5.815538
v -0.7502732 -47.10688 -5.198154
v -1.187619 -47.44049 -5.702815

vn 0.1497273 0.9878777 0.04098188
vn 0.1497273 0.9878777 0.04098188
vn 0.1497273 0.9878777 0.04098188
vn 0.1497273 0.9878777 0.04098188
vn 0.1497273 0.9878777 0.04098188
vn 0.1497273 0.9878777 0.04098188
vn -0.8701062 -0.4373285 -0.2272864
vn -0.8701062 -0.4373285 -0.2272864
vn -0.8701062 -0.4373285 -0.2272864
vn 0.7985064 0.3322073 0.5020217
vn 0.7985064 0.3322073 0.5020217
vn 0.7985064 0.3322073 0.5020217
vn 0.7985064 0.3322073 0.5020217
vn 0.7985064 0.3322073 0.5020217
vn 0.7985064 0.3322073 0.5020217
vn 0.7985064 0.3322073 0.5020217
vn 0.7985064 0.3322073 0.5020217
vn 0.7985064 0.3322073 0.5020217
vn -0.3803919 0.2700012 -0.8845345
vn -0.3803919 0.2700012 -0.8845345
vn -0.3803919 0.2700012 -0.8845345
vn -0.3803919 0.2700012 -0.8845345
vn -0.3803919 0.2700012 -0.8845345
vn -0.3803919 0.2700012 -0.8845345
vn -0.3803919 0.2700012 -0.8845345
vn -0.3803919 0.2700012 -0.8845345
vn -0.3803919 0.2700012 -0.8845345
vn -0.3803919 0.2700012 -0.8845345
vn -0.3803919 0.2700012 -0.8845345
vn -0.3803919 0.2700012 -0.8845345
vn -0.3803919 0.2700012 -0.8845345
vn -0.3803919 0.2700012 -0.8845345
vn -0.3803919 0.2700012 -0.8845345
vn -0.3803919 0.2700012 -0.8845345
vn -0.3803919 0.2700012 -0.8845345
vn -0.3803919 0.2700012 -0.8845345
vn -0.3803919 0.2700012 -0.8845345
vn -0.3803919 0.2700012 -0.8845345
vn -0.3803919 0.2700012 -0.8845345
vn -0.3803919 0.2700012 -0.8845345
vn -0.3803919 0.2700012 -0.8845345
vn -0.3803919 0.2700012 -0.8845345
vn -0.3803919 0.2700012 -0.8845345
vn -0.3803919 0.2700012 -0.8845345
vn -0.3803919 0.2700012 -0.8845345
vn -0.9822146 -0.1860827 0.0250547
vn -0.9822146 -0.1860827 0.0250547
vn -0.9822146 -0.1860827 0.0250547
vn -0.9822146 -0.1860827 0.0250547
vn -0.9822146 -0.1860827 0.0250547
vn -0.9822146 -0.1860827 0.0250547
vn -0.9822146 -0.1860827 0.0250547
vn -0.9822146 -0.1860827 0.0250547
vn -0.9822146 -0.1860827 0.0250547
vn -0.9822146 -0.1860827 0.0250547
vn -0.9822146 -0.1860827 0.0250547
vn -0.9822146 -0.1860827 0.0250547
vn -0.9822146 -0.1860827 0.0250547
vn -0.9822146 -0.1860827 0.0250547
vn -0.9822146 -0.1860827 0.0250547
vn 0.6165872 -0.7871625 -0.01398166
vn 0.6165872 -0.7871625 -0.01398166
vn 0.6165872 -0.7871625 -0.01398166
vn 0.6165872 -0.7871625 -0.01398166
vn 0.6165872 -0.7871625 -0.01398166
vn 0.6165872 -0.7871625 -0.01398166
vn 0.6165872 -0.7871625 -0.01398166
vn 0.6165872 -0.7871625 -0.01398166
vn 0.6165872 -0.7871625 -0.01398166
vn 0.6165872 -0.7871625 -0.01398166
vn 0.6165872 -0.7871625 -0.01398166
vn 0.6165872 -0.7871625 -0.01398166
vn 0.6165872 -0.7871625 -0.01398166
vn 0.6165872 -0.7871625 -0.01398166
vn 0.6165872 -0.7871625 -0.01398166
vn 0.9951496 -0.01877673 0.09656434
vn 0.9951496 -0.01877673 0.09656434
vn 0.9951496 -0.01877673 0.09656434
vn 0.9951496 -0.01877673 0.09656434
vn 0.9951496 -0.01877673 0.09656434
vn 0.9951496 -0.01877673 0.09656434
vn 0.9951496 -0.01877673 0.09656434
vn 0.9951496 -0.01877673 0.09656434
vn 0.9951496 -0.01877673 0.09656434
vn 0.5642391 0.3915938 0.7268346
vn 0.5642391 0.3915938 0.7268346
vn 0.5642391 0.3915938 0.7268346
vn 0.1306768 -0.1252238 0.9834849
vn 0.1306768 -0.1252238 0.9834849
vn 0.1306768 -0.1252238 0.9834849
vn 0.1306768 -0.1252238 0.9834849
vn 0.1306768 -0.1252238 0.9834849
vn 0.1306768 -0.1252238 0.9834849
vn 0.413783 -0.6166542 0.6697173
vn 0.413783 -0.6166542 0.6697173
vn 0.413783 -0.6166542 0.6697173
vn 0.413783 -0.6166542 0.6697173
vn 0.413783 -0.6166542 0.6697173
vn 0.413783 -0.6166542 0.6697173
vn 0.413783 -0.6166542 0.6697173
vn 0.413783 -0.6166542 0.6697173
vn 0.413783 -0.6166542 0.6697173
vn 0.413783 -0.6166542 0.6697173
vn 0.413783 -0.6166542 0.6697173
vn 0.413783 -0.6166542 0.6697173
vn 0.413783 -0.6166542 0.6697173
vn 0.413783 -0.6166542 0.6697173
vn 0.413783 -0.6166542 0.6697173
vn 0.9426315 0.3296582 -0.05264569
vn 0.9426315 0.3296582 -0.05264569
vn 0.9426315 0.3296582 -0.05264569
vn 0.9426315 0.3296582 -0.05264569
vn 0.9426315 0.3296582 -0.05264569
vn 0.9426315 0.3296582 -0.05264569
vn 0.9426315 0.3296582 -0.05264569
vn 0.9426315 0.3296582 -0.05264569
vn 0.9426315 0.3296582 -0.05264569
vn 0.6032453 0.1788902 0.7772346
vn 0.6032453 0.1788902 0.7772346
vn 0.6032453 0.1788902 0.7772346
vn 0.6032453 0.1788902 0.7772346
vn 0.6032453 0.1788902 0.7772346
vn 0.6032453 0.1788902 0.7772346
vn 0.6032453 0.1788902 0.7772346
vn 0.6032453 0.1788902 0.7772346
vn 0.6032453 0.1788902 0.7772346
vn 0.6032453 0.1788902 0.7772346
vn 0.6032453 0.1788902 0.7772346
vn 0.6032453 0.1788902 0.7772346
vn 0.02630514 -0.9959496 0.08597938
vn 0.02630514 -0.9959496 0.08597938
vn 0.02630514 -0.9959496 0.08597938
vn 0.02630514 -0.9959496 0.08597938
vn 0.02630514 -0.9959496 0.08597938
vn 0.02630514 -0.9959496 0.08597938
vn 0.02630514 -0.9959496 0.08597938
vn 0.02630514 -0.9959496 0.08597938
vn 0.02630514 -0.9959496 0.08597938
vn 0.02630514 -0.9959496 0.08597938
vn 0.02630514 -0.9959496 0.08597938
vn 0.02630514 -0.9959496 0.08597938
vn 0.2431297 -0.9528891 -0.181357
vn 0.2431297 -0.9528891 -0.181357
vn 0.2431297 -0.9528891 -0.181357
vn -0.2811559 0.5152569 0.8096058
vn -0.2811559 0.5152569 0.8096058
vn -0.2811559 0.5152569 0.8096058
vn -0.2811559 0.5152569 0.8096058
vn -0.2811559 0.5152569 0.8096058
vn -0.2811559 0.5152569 0.8096058
vn -0.2811559 0.5152569 0.8096058
vn -0.2811559 0.5152569 0.8096058
vn -0.2811559 0.5152569 0.8096058
vn -0.2811559 0.5152569 0.8096058
vn -0.2811559 0.5152569 0.8096058
vn -0.2811559 0.5152569 0.8096058
vn -0.2811559 0.5152569 0.8096058
vn -0.2811559 0.5152569 0.8096058
vn -0.2811559 0.5152569 0.8096058
vn -0.7001027 0.6210367 -0.352377
vn -0.7001027 0.6210367 -0.352377
vn -0.7001027 0.6210367 -0.352377
vn -0.7001027 0.6210367 -0.352377
vn -0.7001027 0.6210367 -0.352377
vn -0.7001027 0.6210367 -0.352377
vn 0.5849766 -0.2590724 -0.7685597
vn 0.5849766 -0.2590724 -0.7685597
vn 0.5849766 -0.2590724 -0.7685597
vn 0.4829132 0.8410784 0.2436843
vn 0.4829132 0.8410784 0.2436843
vn 0.4829132 0.8410784 0.2436843
vn 0.4829132 0.8410784 0.2436843
vn 0.4829132 0.8410784 0.2436843
vn 0.4829132 0.8410784 0.2436843
vn 0.4829132 0.8410784 0.2436843
vn 0.4829132 0.8410784 0.2436843
vn 0.4829132 0.8410784 0.2436843
vn 0.4829132 0.8410784 0.2436843
vn 0.4829132 0.8410784 0.2436843
vn 0.4829132 0.8410784 0.2436843
vn 0.4829132 0.8410784 0.2436843
vn 0.4829132 0.8410784 0.2436843
vn 0.4829132 0.8410784 0.2436843
vn 0.7949956 -0.1550474 -0.5864659
vn 0.7949956 -0.1550474 -0.5864659
vn 0.7949956 -0.1550474 -0.5864659
vn 0.7949956 -0.1550474 -0.5864659
vn 0.7949956 -0.1550474 -0.5864659
vn 0.7949956 -0.1550474 -0.5864659
vn 0.7949956 -0.1550474 -0.5864659
vn 0.7949956 -0.1550474 -0.5864659
vn 0.7949956 -0.1550474 -0.5864659

vt 0.5119702 0.5058058
vt 0.4547747 0.4791043
vt 0.4240558 0.3561346
vt 0.4240558 0.3561346
vt 0.4547747 0.4791043
vt 0.4012451 0.3663962
vt 0.4570905 0.4851515
vt 0.3987746 0.5147594
vt 0.4143474 0.4367784
vt 0.522002 0.6529549
vt 0.5064105 0.654605
vt 0.6013848 0.5681625
vt 0.6013848 0.5681625
vt 0.5064105 0.654605
vt 0.5862808 0.5464393
vt 0.5862808 0.5464393
vt 0.5064105 0.654605
vt 0.4678114 0.5244162
vt 0.9129246 0.7895378
vt 0.871541 0.852457
vt 0.8324543 0.3930602
vt 0.8324543 0.3930602
vt 0.871541 0.852457
vt 0.7752166 0.2705641
vt 0.7752166 0.2705641
vt 0.871541 0.852457
vt 0.43773 0.2187033
vt 0.43773 0.2187033
vt 0.871541 0.852457
vt 0.228871 0.459439
vt 0.228871 0.459439
vt 0.871541 0.852457
vt 0.1842247 0.5884606
vt 0.1842247 0.5884606
vt 0.871541 0.852457
vt 0.3539361 0.8651797
vt 0.3539361 0.8651797
vt 0.871541 0.852457
vt 0.4446491 0.9423685
vt 0.4446491 0.9423685
vt 0.871541 0.852457
vt 0.4994538 0.9606508
vt 0.4994538 0.9606508
vt 0.871541 0.852457
vt 0.6164981 0.944328
vt 0.3829346 0.4701506
vt 0.3912085 0.3709105
vt 0.4259168 0.5160533
vt 0.4259168 0.5160533
vt 0.3912085 0.3709105
vt 0.565092 0.4636393
vt 0.565092 0.4636393
vt 0.3912085 0.3709105
vt 0.6237267 0.3451934
vt 0.6237267 0.3451934
vt 0.3912085 0.3709105
vt 0.5643232 0.3039644
vt 0.5643232 0.3039644
vt 0.3912085 0.3709105
vt 0.438991 0.3227015
vt 0.3527595 0.4890798
vt 0.4693115 0.4984272
vt 0.3436558 0.5557868
vt 0.3436558 0.5557868
vt 0.4693115 0.4984272
vt 0.3977339 0.6054115
vt 0.3977339 0.6054115
vt 0.4693115 0.4984272
vt 0.4347486 0.6200467
vt 0.4347486 0.6200467
vt 0.4693115 0.4984272
vt 0.4614079 0.6160622
vt 0.4614079 0.6160622
vt 0.4693115 0.4984272
vt 0.4810309 0.5699908
vt 0.5365435 0.5122936
vt 0.5300462 0.5796194
vt 0.5025478 0.479212
vt 0.5025478 0.479212
vt 0.5300462 0.5796194
vt 0.4245245 0.5432329
vt 0.4245245 0.5432329
vt 0.5300462 0.5796194
vt 0.4467399 0.5972829
vt 0.3128712 0.3998622
vt 0.3237656 0.3874068
vt 0.3439511 0.4273794
vt 0.441152 0.5935327
vt 0.5224146 0.4567811
vt 0.5667984 0.6167935
vt 0.5667984 0.6167935
vt 0.5224146 0.4567811
vt 0.6288082 0.5154063
vt 0.2887948 0.6366696
vt 0.2662091 0.577238
vt 0.4453242 0.6536112
vt 0.4453242 0.6536112
vt 0.2662091 0.577238
vt 0.6706138 0.4133348
vt 0.6706138 0.4133348
vt 0.2662091 0.577238
vt 0.6438466 0.3259688
vt 0.6438466 0.3259688
vt 0.2662091 0.577238
vt 0.4319031 0.3393805
vt 0.4319031 0.3393805
vt 0.2662091 0.577238
vt 0.2752284 0.5477707
vt 0.504601 0.5101748
vt 0.5271773 0.5638685
vt 0.4910815 0.5114124
vt 0.4910815 0.5114124
vt 0.5271773 0.5638685
vt 0.4635361 0.5734128
vt 0.4635361 0.5734128
vt 0.5271773 0.5638685
vt 0.4959286 0.5871386
vt 0.4312046 0.6317943
vt 0.2945561 0.3987933
vt 0.5915217 0.6734123
vt 0.5915217 0.6734123
vt 0.2945561 0.3987933
vt 0.4894173 0.3831315
vt 0.4894173 0.3831315
vt 0.2945561 0.3987933
vt 0.3053989 0.3304456
vt 0.3053989 0.3304456
vt 0.2945561 0.3987933
vt 0.2835539 0.3511703
vt 0.5558571 0.5525616
vt 0.416499 0.6132308
vt 0.5780115 0.4780589
vt 0.5780115 0.4780589
vt 0.416499 0.6132308
vt 0.5768771 0.3781437
vt 0.5768771 0.3781437
vt 0.416499 0.6132308
vt 0.3708355 0.5116374
vt 0.3708355 0.5116374
vt 0.416499 0.6132308
vt 0.3808767 0.5837353
vt 0.4476071 0.5745379
vt 0.3938431 0.5919014
vt 0.4118488 0.5442643
vt 0.5851932 0.4814669
vt 0.5943624 0.498521
vt 0.5634044 0.457653
vt 0.5634044 0.457653
vt 0.5943624 0.498521
vt 0.3632554 0.4423709
vt 0.3632554 0.4423709
vt 0.5943624 0.498521
vt 0.3926618 0.5619559
vt 0.3926618 0.5619559
vt 0.5943624 0.498521
vt 0.5368904 0.6116838
vt 0.5368904 0.6116838
vt 0.5943624 0.498521
vt 0.5673703 0.5819539
vt 0.5837587 0.2985547
vt 0.6189826 0.4270231
vt 0.4900877 0.2789927
vt 0.4900877 0.2789927
vt 0.6189826 0.4270231
vt 0.4492806 0.4141411
vt 0.5385123 0.411366
vt 0.4527824 0.4026889
vt 0.4876079 0.375617
vt 0.4356111 0.3646148
vt 0.5808429 0.462683
vt 0.4096549 0.350814
vt 0.4096549 0.350814
vt 0.5808429 0.462683
vt 0.3662649 0.3813783
vt 0.3662649 0.3813783
vt 0.5808429 0.462683
vt 0.4483947 0.5402234
vt 0.4483947 0.5402234
vt 0.5808429 0.462683
vt 0.6200046 0.6319443
vt 0.6200046 0.6319443
vt 0.5808429 0.462683
vt 0.6436591 0.5662124
vt 0.3901069 0.4221619
vt 0.4912971 0.3955025
vt 0.3576113 0.4575452
vt 0.3576113 0.4575452
vt 0.4912971 0.3955025
vt 0.5107327 0.4880204
vt 0.5107327 0.4880204
vt 0.4912971 0.3955025
vt 0.5412031 0.4711257

usemtl Material0
usemap Material0

usemtl Material1
usemap Material1
f 1/1/1 2/2/2 3/3/3
f 4/4/4 5/5/5 6/6/6
f 7/7/7 8/8/8 9/9/9
f 10/10/10 11/11/11 12/12/12
f 13/13/13 14/14/14 15/15/15
f 16/16/16 17/17/17 18/18/18
f 19/19/19 20/20/20 21/21/21
f 22/22/22 23/23/23 24/24/24
f 25/25/25 26/26/26 27/27/27
f 28/28/28 29/29/29 30/30/30
f 31/31/31 32/32/32 33/33/33
f 34/34/34 35/35/35 36/36/36
f 37/37/37 38/38/38 39/39/39
f 40/40/40 41/41/41 42/42/42
f 43/43/43 44/44/44 45/45/45
f 46/46/46 47/47/47 48/48/48
f 49/49/49 50/50/50 51/51/51
f 52/52/52 53/53/53 54/54/54
f 55/55/55 56/56/56 57/57/57
f 58/58/58 59/59/59 60/60/60
f 61/61/61 62/62/62 63/63/63
f 64/64/64 65/65/65 66/66/66
f 67/67/67 68/68/68 69/69/69
f 70/70/70 71/71/71 72/72/72
f 73/73/73 74/74/74 75/75/75
f 76/76/76 77/77/77 78/78/78
f 79/79/79 80/80/80 81/81/81
f 82/82/82 83/83/83 84/84/84
f 85/85/85 86/86/86 87/87/87
f 88/88/88 89/89/89 90/90/90
f 91/91/91 92/92/92 93/93/93
f 94/94/94 95/95/95 96/96/96
f 97/97/97 98/98/98 99/99/99
f 100/100/100 101/101/101 102/102/102
f 103/103/103 104/104/104 105/105/105
f 106/106/106 107/107/107 108/108/108
f 109/109/109 110/110/110 111/111/111
f 112/112/112 113/113/113 114/114/114
f 115/115/115 116/116/116 117/117/117
f 118/118/118 119/119/119 120/120/120
f 121/121/121 122/122/122 123/123/123
f 124/124/124 125/125/125 126/126/126
f 127/127/127 128/128/128 129/129/129
f 130/130/130 131/131/131 132/132/132
f 133/133/133 134/134/134 135/135/135
f 136/136/136 137/137/137 138/138/138
f 139/139/139 140/140/140 141/141/141
f 142/142/142 143/143/143 144/144/144
f 145/145/145 146/146/146 147/147/147
f 148/148/148 149/149/149 150/150/150
f 151/151/151 152/152/152 153/153/153
f 154/154/154 155/155/155 156/156/156
f 157/157/157 158/158/158 159/159/159
f 160/160/160 161/161/161 162/162/162
f 163/163/163 164/164/164 165/165/165
f 166/166/166 167/167/167 168/168/168
f 169/169/169 170/170/170 171/171/171
f 172/172/172 173/173/173 174/174/174
f 175/175/175 176/176/176 177/177/177
f 178/178/178 179/179/179 180/180/180
f 181/181/181 182/182/182 183/183/183
f 184/184/184 185/185/185 186/186/186
f 187/187/187 188/188/188 189/189/189
f 190/190/190 191/191/191 192/192/192
