g  Instance
v 9.037392 -51.95378 -3.808974
v 9.157415 -51.40594 -3.707706
v 9.139952 -51.86116 -3.55736
v 9.037392 -51.95378 -3.808974
v 9.139952 -51.86116 -3.55736
v 9.101862 -52.27135 -3.392313
v 9.101862 -52.27135 -3.392313
v 9.010941 -52.96598 -3.07787
v 9.037392 -51.95378 -3.808974
v 9.037392 -51.95378 -3.808974
v 9.010941 -52.96598 -3.07787
v 8.949833 -52.19779 -3.841659
v 8.949833 -52.19779 -3.841659
v 9.010941 -52.96598 -3.07787
v 8.936958 -52.94254 -3.286784
v 8.936958 -52.94254 -3.286784
v 9.010941 -52.96598 -3.07787
v 8.960503 -52.99046 -3.188354
v 9.037392 -51.95378 -3.808974
v 8.942486 -51.71199 -4.092405
v 9.157415 -51.40594 -3.707706
v 9.157415 -51.40594 -3.707706
v 8.942486 -51.71199 -4.092405
v 9.158358 -51.25224 -3.751918
v 8.934444 -52.01535 -3.980914
v 8.892126 -51.79191 -4.155672
v 9.037392 -51.95378 -3.808974
v 9.037392 -51.95378 -3.808974
v 8.892126 -51.79191 -4.155672
v 8.942486 -51.71199 -4.092405
v 8.934444 -52.01535 -3.980914
v 9.037392 -51.95378 -3.808974
v 8.949833 -52.19779 -3.841659
v 9.129004 -51.19695 -3.72854
v 9.158358 -51.25224 -3.751918
v 8.533377 -50.99726 -3.799549
v 8.533377 -50.99726 -3.799549
v 9.158358 -51.25224 -3.751918
v 7.924311 -51.69212 -4.403948
v 7.924311 -51.69212 -4.403948
v 9.158358 -51.25224 -3.751918
v 8.892126 -51.79191 -4.155672
v 8.892126 -51.79191 -4.155672
v 9.158358 -51.25224 -3.751918
v 8.942486 -51.71199 -4.092405
v 7.131768 -52.25255 -1.23135
v 7.457818 -52.28426 -1.213945
v 7.30565 -51.65051 -1.189802
v 5.528637 -52.52349 -2.882944
v 6.267465 -52.36454 -1.996751
v 5.994502 -51.94609 -2.326533
v 7.924311 -51.69212 -4.403948
v 6.705106 -52.35691 -4.125296
v 8.533377 -50.99726 -3.799549
v 8.533377 -50.99726 -3.799549
v 6.705106 -52.35691 -4.125296
v 8.624317 -50.65159 -3.213401
v 8.624317 -50.65159 -3.213401
v 6.705106 -52.35691 -4.125296
v 7.833229 -50.65957 -2.16475
v 7.833229 -50.65957 -2.16475
v 6.705106 -52.35691 -4.125296
v 6.964007 -50.97094 -1.632803
v 6.964007 -50.97094 -1.632803
v 6.705106 -52.35691 -4.125296
v 5.994502 -51.94609 -2.326533
v 5.994502 -51.94609 -2.326533
v 6.705106 -52.35691 -4.125296
v 5.528637 -52.52349 -2.882944
v 5.528637 -52.52349 -2.882944
v 6.705106 -52.35691 -4.125296
v 5.644972 -52.64971 -3.298291
v 7.924311 -51.69212 -4.403948
v 8.892126 -51.79191 -4.155672
v 6.705106 -52.35691 -4.125296
v 6.705106 -52.35691 -4.125296
v 8.892126 -51.79191 -4.155672
v 8.936958 -52.94254 -3.286784
v 8.936958 -52.94254 -3.286784
v 8.892126 -51.79191 -4.155672
v 8.949833 -52.19779 -3.841659
v 8.949833 -52.19779 -3.841659
v 8.892126 -51.79191 -4.155672
v 8.934444 -52.01535 -3.980914
v 5.644972 -52.64971 -3.298291
v 8.960503 -52.99046 -3.188354
v 5.528637 -52.52349 -2.882944
v 5.528637 -52.52349 -2.882944
v 8.960503 -52.99046 -3.188354
v 6.267465 -52.36454 -1.996751
v 6.267465 -52.36454 -1.996751
v 8.960503 -52.99046 -3.188354
v 7.131768 -52.25255 -1.23135
v 7.131768 -52.25255 -1.23135
v 8.960503 -52.99046 -3.188354
v 7.457818 -52.28426 -1.213945
v 7.457818 -52.28426 -1.213945
v 8.960503 -52.99046 -3.188354
v 9.010941 -52.96598 -3.07787
v 6.964007 -50.97094 -1.632803
v 7.287333 -51.17224 -1.299282
v 7.833229 -50.65957 -2.16475
v 6.705106 -52.35691 -4.125296
v 8.936958 -52.94254 -3.286784
v 5.644972 -52.64971 -3.298291
v 5.644972 -52.64971 -3.298291
v 8.936958 -52.94254 -3.286784
v 8.960503 -52.99046 -3.188354
v 8.533377 -50.99726 -3.799549
v 8.624317 -50.65159 -3.213401
v 9.129004 -51.19695 -3.72854
v 7.131768 -52.25255 -1.23135
v 7.30565 -51.65051 -1.189802
v 6.267465 -52.36454 -1.996751
v 6.267465 -52.36454 -1.996751
v 7.30565 -51.65051 -1.189802
v 5.994502 -51.94609 -2.326533
v 5.994502 -51.94609 -2.326533
v 7.30565 -51.65051 -1.189802
v 6.964007 -50.97094 -1.632803
v 6.964007 -50.97094 -1.632803
v 7.30565 -51.65051 -1.189802
v 7.287333 -51.17224 -1.299282
v 9.101862 -52.27135 -3.392313
v 9.139952 -51.86116 -3.55736
v 9.010941 -52.96598 -3.07787
v 9.010941 -52.96598 -3.07787
v 9.139952 -51.86116 -3.55736
v 7.457818 -52.28426 -1.213945
v 7.457818 -52.28426 -1.213945
v 9.139952 -51.86116 -3.55736
v 7.30565 -51.65051 -1.189802
v 7.30565 -51.65051 -1.189802
v 9.139952 -51.86116 -3.55736
v 7.287333 -51.17224 -1.299282
v 7.287333 -51.17224 -1.299282
v 9.139952 -51.86116 -3.55736
v 7.833229 -50.65957 -2.16475
v 7.833229 -50.65957 -2.16475
v 9.139952 -51.86116 -3.55736
v 8.624317 -50.65159 -3.213401
v 8.624317 -50.65159 -3.213401
v 9.139952 -51.86116 -3.55736
v 9.129004 -51.19695 -3.72854
v 9.129004 -51.19695 -3.72854
v 9.139952 -51.86116 -3.55736
v 9.158358 -51.25224 -3.751918
v 9.158358 -51.25224 -3.751918
v 9.139952 -51.86116 -3.55736
v 9.157415 -51.40594 -3.707706

vn 0.9337744 -0.1440174 -0.3276037
vn 0.9337744 -0.1440174 -0.3276037
vn 0.9337744 -0.1440174 -0.3276037
vn 0.9301434 -0.2081015 -0.3025342
vn 0.9301434 -0.2081015 -0.3025342
vn 0.9301434 -0.2081015 -0.3025342
vn 0.8961875 -0.274936 -0.3482215
vn 0.8961875 -0.274936 -0.3482215
vn 0.8961875 -0.274936 -0.3482215
vn 0.8961875 -0.274936 -0.3482215
vn 0.8961875 -0.274936 -0.3482215
vn 0.8961875 -0.274936 -0.3482215
vn 0.8961875 -0.274936 -0.3482215
vn 0.8961875 -0.274936 -0.3482215
vn 0.8961875 -0.274936 -0.3482215
vn 0.8961875 -0.274936 -0.3482215
vn 0.8961875 -0.274936 -0.3482215
vn 0.8961875 -0.274936 -0.3482215
vn 0.9047846 -0.1228473 -0.4077663
vn 0.9047846 -0.1228473 -0.4077663
vn 0.9047846 -0.1228473 -0.4077663
vn 0.9047846 -0.1228473 -0.4077663
vn 0.9047846 -0.1228473 -0.4077663
vn 0.9047846 -0.1228473 -0.4077663
vn 0.8708428 -0.1897414 -0.4534656
vn 0.8708428 -0.1897414 -0.4534656
vn 0.8708428 -0.1897414 -0.4534656
vn 0.8708428 -0.1897414 -0.4534656
vn 0.8708428 -0.1897414 -0.4534656
vn 0.8708428 -0.1897414 -0.4534656
vn 0.867231 -0.2538117 -0.4283574
vn 0.867231 -0.2538117 -0.4283574
vn 0.867231 -0.2538117 -0.4283574
vn 0.2636249 0.4910955 -0.8302573
vn 0.2636249 0.4910955 -0.8302573
vn 0.2636249 0.4910955 -0.8302573
vn 0.2636249 0.4910955 -0.8302573
vn 0.2636249 0.4910955 -0.8302573
vn 0.2636249 0.4910955 -0.8302573
vn 0.2636249 0.4910955 -0.8302573
vn 0.2636249 0.4910955 -0.8302573
vn 0.2636249 0.4910955 -0.8302573
vn 0.2636249 0.4910955 -0.8302573
vn 0.2636249 0.4910955 -0.8302573
vn 0.2636249 0.4910955 -0.8302573
vn -0.05827282 -0.05196923 0.9969472
vn -0.05827282 -0.05196923 0.9969472
vn -0.05827282 -0.05196923 0.9969472
vn -0.7683556 0.003184991 0.6400153
vn -0.7683556 0.003184991 0.6400153
vn -0.7683556 0.003184991 0.6400153
vn -0.5083187 0.7739813 -0.3775779
vn -0.5083187 0.7739813 -0.3775779
vn -0.5083187 0.7739813 -0.3775779
vn -0.5083187 0.7739813 -0.3775779
vn -0.5083187 0.7739813 -0.3775779
vn -0.5083187 0.7739813 -0.3775779
vn -0.5083187 0.7739813 -0.3775779
vn -0.5083187 0.7739813 -0.3775779
vn -0.5083187 0.7739813 -0.3775779
vn -0.5083187 0.7739813 -0.3775779
vn -0.5083187 0.7739813 -0.3775779
vn -0.5083187 0.7739813 -0.3775779
vn -0.5083187 0.7739813 -0.3775779
vn -0.5083187 0.7739813 -0.3775779
vn -0.5083187 0.7739813 -0.3775779
vn -0.5083187 0.7739813 -0.3775779
vn -0.5083187 0.7739813 -0.3775779
vn -0.5083187 0.7739813 -0.3775779
vn -0.5083187 0.7739813 -0.3775779
vn -0.5083187 0.7739813 -0.3775779
vn -0.5083187 0.7739813 -0.3775779
vn 0.1421784 -0.5929702 -0.7925729
vn 0.1421784 -0.5929702 -0.7925729
vn 0.1421784 -0.5929702 -0.7925729
vn 0.1421784 -0.5929702 -0.7925729
vn 0.1421784 -0.5929702 -0.7925729
vn 0.1421784 -0.5929702 -0.7925729
vn 0.1421784 -0.5929702 -0.7925729
vn 0.1421784 -0.5929702 -0.7925729
vn 0.1421784 -0.5929702 -0.7925729
vn 0.1421784 -0.5929702 -0.7925729
vn 0.1421784 -0.5929702 -0.7925729
vn 0.1421784 -0.5929702 -0.7925729
vn -0.1072565 -0.9592359 0.2614622
vn -0.1072565 -0.9592359 0.2614622
vn -0.1072565 -0.9592359 0.2614622
vn -0.1072565 -0.9592359 0.2614622
vn -0.1072565 -0.9592359 0.2614622
vn -0.1072565 -0.9592359 0.2614622
vn -0.1072565 -0.9592359 0.2614622
vn -0.1072565 -0.9592359 0.2614622
vn -0.1072565 -0.9592359 0.2614622
vn -0.1072565 -0.9592359 0.2614622
vn -0.1072565 -0.9592359 0.2614622
vn -0.1072565 -0.9592359 0.2614622
vn -0.1072565 -0.9592359 0.2614622
vn -0.1072565 -0.9592359 0.2614622
vn -0.1072565 -0.9592359 0.2614622
vn 0.00602641 0.8586931 0.5124549
vn 0.00602641 0.8586931 0.5124549
vn 0.00602641 0.8586931 0.5124549
vn -0.07890654 -0.9035895 -0.4210699
vn -0.07890654 -0.9035895 -0.4210699
vn -0.07890654 -0.9035895 -0.4210699
vn -0.07890654 -0.9035895 -0.4210699
vn -0.07890654 -0.9035895 -0.4210699
vn -0.07890654 -0.9035895 -0.4210699
vn 0.3268479 0.791001 -0.5171923
vn 0.3268479 0.791001 -0.5171923
vn 0.3268479 0.791001 -0.5171923
vn -0.6665085 0.1420011 0.7318484
vn -0.6665085 0.1420011 0.7318484
vn -0.6665085 0.1420011 0.7318484
vn -0.6665085 0.1420011 0.7318484
vn -0.6665085 0.1420011 0.7318484
vn -0.6665085 0.1420011 0.7318484
vn -0.6665085 0.1420011 0.7318484
vn -0.6665085 0.1420011 0.7318484
vn -0.6665085 0.1420011 0.7318484
vn -0.6665085 0.1420011 0.7318484
vn -0.6665085 0.1420011 0.7318484
vn -0.6665085 0.1420011 0.7318484
vn 0.7866086 0.1662259 0.5946563
vn 0.7866086 0.1662259 0.5946563
vn 0.7866086 0.1662259 0.5946563
vn 0.7866086 0.1662259 0.5946563
vn 0.7866086 0.1662259 0.5946563
vn 0.7866086 0.1662259 0.5946563
vn 0.7866086 0.1662259 0.5946563
vn 0.7866086 0.1662259 0.5946563
vn 0.7866086 0.1662259 0.5946563
vn 0.7866086 0.1662259 0.5946563
vn 0.7866086 0.1662259 0.5946563
vn 0.7866086 0.1662259 0.5946563
vn 0.7866086 0.1662259 0.5946563
vn 0.7866086 0.1662259 0.5946563
vn 0.7866086 0.1662259 0.5946563
vn 0.7866086 0.1662259 0.5946563
vn 0.7866086 0.1662259 0.5946563
vn 0.7866086 0.1662259 0.5946563
vn 0.7866086 0.1662259 0.5946563
vn 0.7866086 0.1662259 0.5946563
vn 0.7866086 0.1662259 0.5946563
vn 0.7866086 0.1662259 0.5946563
vn 0.7866086 0.1662259 0.5946563
vn 0.7866086 0.1662259 0.5946563
vn 0.7866086 0.1662259 0.5946563
vn 0.7866086 0.1662259 0.5946563
vn 0.7866086 0.1662259 0.5946563

vt 0.1477271 0.1771435
vt 0.1576649 0.1771435
vt 0.1499308 0.1809604
vt 0.1477271 0.1771435
vt 0.1499308 0.1809604
vt 0.143604 0.184285
vt 0.143604 0.184285
vt 0.133039 0.1906223
vt 0.1477271 0.1771435
vt 0.1477271 0.1771435
vt 0.133039 0.1906223
vt 0.1436449 0.1771435
vt 0.1436449 0.1771435
vt 0.133039 0.1906223
vt 0.1328819 0.1873244
vt 0.1328819 0.1873244
vt 0.133039 0.1906223
vt 0.1323518 0.188955
vt 0.1477271 0.1771435
vt 0.1510791 0.1713376
vt 0.1576649 0.1771435
vt 0.1576649 0.1771435
vt 0.1510791 0.1713376
vt 0.1602242 0.1758585
vt 0.1461177 0.1743559
vt 0.1494851 0.1705139
vt 0.1477271 0.1771435
vt 0.1477271 0.1771435
vt 0.1494851 0.1705139
vt 0.1510791 0.1713376
vt 0.1461177 0.1743559
vt 0.1477271 0.1771435
vt 0.1436449 0.1771435
vt 0.6669104 0.3414713
vt 0.676089 0.3488686
vt 0.5576853 0.3639398
vt 0.5576853 0.3639398
vt 0.676089 0.3488686
vt 0.5209988 0.5551961
vt 0.5209988 0.5551961
vt 0.676089 0.3488686
vt 0.6797268 0.4766291
vt 0.6797268 0.4766291
vt 0.676089 0.3488686
vt 0.6808893 0.4566076
vt 0.4734461 0.5122749
vt 0.4704178 0.4801121
vt 0.5328683 0.4951177
vt 0.4210275 0.6360039
vt 0.4417568 0.4884329
vt 0.4951505 0.5433548
vt 0.5395999 0.617056
vt 0.3926618 0.5851041
vt 0.6341429 0.547752
vt 0.6341429 0.547752
vt 0.3926618 0.5851041
vt 0.6623633 0.4805481
vt 0.6623633 0.4805481
vt 0.3926618 0.5851041
vt 0.5916904 0.3603208
vt 0.5916904 0.3603208
vt 0.3926618 0.5851041
vt 0.4964068 0.2993282
vt 0.4964068 0.2993282
vt 0.3926618 0.5851041
vt 0.3535423 0.3788656
vt 0.3535423 0.3788656
vt 0.3926618 0.5851041
vt 0.2785473 0.4426615
vt 0.2785473 0.4426615
vt 0.3926618 0.5851041
vt 0.2815147 0.4902799
vt 0.4217634 0.6458858
vt 0.2737799 0.5802476
vt 0.6378931 0.5722128
vt 0.6378931 0.5722128
vt 0.2737799 0.5802476
vt 0.310007 0.3505093
vt 0.310007 0.3505093
vt 0.2737799 0.5802476
vt 0.2799912 0.4972178
vt 0.2799912 0.4972178
vt 0.2737799 0.5802476
vt 0.2755472 0.5340449
vt 0.6765297 0.5335293
vt 0.3370742 0.5219317
vt 0.6897305 0.4896986
vt 0.6897305 0.4896986
vt 0.3370742 0.5219317
vt 0.6167419 0.3961869
vt 0.6167419 0.3961869
vt 0.3370742 0.5219317
vt 0.5305244 0.3154213
vt 0.5305244 0.3154213
vt 0.3370742 0.5219317
vt 0.4971662 0.3135837
vt 0.4971662 0.3135837
vt 0.3370742 0.5219317
vt 0.3322458 0.5102685
vt 0.4205774 0.4065188
vt 0.4577515 0.3620553
vt 0.5198363 0.4774401
vt 0.5789959 0.5718846
vt 0.3324942 0.4716882
vt 0.6906961 0.4730664
vt 0.6906961 0.4730664
vt 0.3324942 0.4716882
vt 0.3294987 0.4599266
vt 0.5492755 0.4830232
vt 0.5437627 0.4043577
vt 0.6212702 0.473493
vt 0.4404255 0.3460512
vt 0.5305994 0.337257
vt 0.3986433 0.5080841
vt 0.3986433 0.5080841
vt 0.5305994 0.337257
vt 0.4494775 0.5778943
vt 0.4494775 0.5778943
vt 0.5305994 0.337257
vt 0.6162075 0.4310358
vt 0.6162075 0.4310358
vt 0.5305994 0.337257
vt 0.5975314 0.3604333
vt 0.5620075 0.6251002
vt 0.5139015 0.6502079
vt 0.6428152 0.5772755
vt 0.6428152 0.5772755
vt 0.5139015 0.6502079
vt 0.522002 0.2937967
vt 0.522002 0.2937967
vt 0.5139015 0.6502079
vt 0.4423334 0.2901214
vt 0.4423334 0.2901214
vt 0.5139015 0.6502079
vt 0.3846457 0.3067724
vt 0.3846457 0.3067724
vt 0.5139015 0.6502079
vt 0.3371023 0.4383956
vt 0.3371023 0.4383956
vt 0.5139015 0.6502079
vt 0.3561487 0.5978923
vt 0.3561487 0.5978923
vt 0.5139015 0.6502079
vt 0.4341579 0.6762437
vt 0.4341579 0.6762437
vt 0.5139015 0.6502079
vt 0.441513 0.6797971
vt 0.441513 0.6797971
vt 0.5139015 0.6502079
vt 0.4598797 0.6730654

usemtl Material0
usemap Material0
f 1/1/1 2/2/2 3/3/3
f 4/4/4 5/5/5 6/6/6
f 7/7/7 8/8/8 9/9/9
f 10/10/10 11/11/11 12/12/12
f 13/13/13 14/14/14 15/15/15
f 16/16/16 17/17/17 18/18/18
f 19/19/19 20/20/20 21/21/21
f 22/22/22 23/23/23 24/24/24
f 25/25/25 26/26/26 27/27/27
f 28/28/28 29/29/29 30/30/30
f 31/31/31 32/32/32 33/33/33

usemtl Material1
usemap Material1
f 34/34/34 35/35/35 36/36/36
f 37/37/37 38/38/38 39/39/39
f 40/40/40 41/41/41 42/42/42
f 43/43/43 44/44/44 45/45/45
f 46/46/46 47/47/47 48/48/48
f 49/49/49 50/50/50 51/51/51
f 52/52/52 53/53/53 54/54/54
f 55/55/55 56/56/56 57/57/57
f 58/58/58 59/59/59 60/60/60
f 61/61/61 62/62/62 63/63/63
f 64/64/64 65/65/65 66/66/66
f 67/67/67 68/68/68 69/69/69
f 70/70/70 71/71/71 72/72/72
f 73/73/73 74/74/74 75/75/75
f 76/76/76 77/77/77 78/78/78
f 79/79/79 80/80/80 81/81/81
f 82/82/82 83/83/83 84/84/84
f 85/85/85 86/86/86 87/87/87
f 88/88/88 89/89/89 90/90/90
f 91/91/91 92/92/92 93/93/93
f 94/94/94 95/95/95 96/96/96
f 97/97/97 98/98/98 99/99/99
f 100/100/100 101/101/101 102/102/102
f 103/103/103 104/104/104 105/105/105
f 106/106/106 107/107/107 108/108/108
f 109/109/109 110/110/110 111/111/111
f 112/112/112 113/113/113 114/114/114
f 115/115/115 116/116/116 117/117/117
f 118/118/118 119/119/119 120/120/120
f 121/121/121 122/122/122 123/123/123
f 124/124/124 125/125/125 126/126/126
f 127/127/127 128/128/128 129/129/129
f 130/130/130 131/131/131 132/132/132
f 133/133/133 134/134/134 135/135/135
f 136/136/136 137/137/137 138/138/138
f 139/139/139 140/140/140 141/141/141
f 142/142/142 143/143/143 144/144/144
f 145/145/145 146/146/146 147/147/147
f 148/148/148 149/149/149 150/150/150
