g  Instance
v -5.473891 -41.68769 0.5282025
v -5.218228 -41.53672 0.6556788
v -5.75844 -41.83633 0
v -5.75844 -41.83633 0
v -5.218228 -41.53672 0.6556788
v -4.575274 -41.10804 0
v -4.575274 -41.10804 0
v -5.218228 -41.53672 0.6556788
v -4.840761 -41.3011 0.5903132
v -5.758368 -41.96777 -1.336921
v -6.162139 -42.23181 -1.044505
v -5.257326 -41.60358 -1.364106
v -5.257326 -41.60358 -1.364106
v -6.162139 -42.23181 -1.044505
v -5.818118 -41.88035 -0.1313239
v -4.575274 -41.10804 0
v -4.840761 -41.3011 0.5903132
v -4.286592 -41.01049 0.4933324
v -4.575274 -41.10804 0
v -4.286592 -41.01049 0.4933324
v -3.745962 -40.7626 0
v -3.745962 -40.7626 0
v -4.286592 -41.01049 0.4933324
v -3.814577 -40.81004 0.4098645
v -4.575274 -41.10804 0
v -5.257326 -41.60358 -1.364106
v -5.75844 -41.83633 0
v -5.75844 -41.83633 0
v -5.257326 -41.60358 -1.364106
v -5.818118 -41.88035 -0.1313239
v -4.575274 -41.10804 0
v -3.832076 -40.87019 -1.400597
v -5.257326 -41.60358 -1.364106
v -4.575274 -41.10804 0
v -3.745962 -40.7626 0
v -3.832076 -40.87019 -1.400597
v -3.832076 -40.87019 -1.400597
v -3.745962 -40.7626 0
v -3.58956 -40.74572 -0.9427649
v -3.832076 -40.87019 -1.400597
v -3.58956 -40.74572 -0.9427649
v -3.51406 -40.76685 -1.400596
v -5.358407 -41.73418 -1.609084
v -5.758368 -41.96777 -1.336921
v -5.257326 -41.60358 -1.364106
v -4.997523 -41.56716 -1.827306
v -5.358407 -41.73418 -1.609084
v -5.257326 -41.60358 -1.364106
v -4.234789 -41.26236 -2.258381
v -4.997523 -41.56716 -1.827306
v -3.832076 -40.87019 -1.400597
v -3.832076 -40.87019 -1.400597
v -4.997523 -41.56716 -1.827306
v -5.257326 -41.60358 -1.364106
v -3.832076 -40.87019 -1.400597
v -3.399817 -40.87019 -2.100023
v -4.234789 -41.26236 -2.258381
v -4.234789 -41.26236 -2.258381
v -3.399817 -40.87019 -2.100023
v -3.298294 -40.98967 -2.724152
v -3.51406 -40.76685 -1.400596
v -3.399817 -40.87019 -2.100023
v -3.832076 -40.87019 -1.400597
v -3.814577 -40.81004 0.4098645
v -4.286592 -41.01049 0.4933324
v -3.840379 -42.82544 0.3776206
v -3.840379 -42.82544 0.3776206
v -4.286592 -41.01049 0.4933324
v -5.101898 -41.86277 0.6282135
v -5.101898 -41.86277 0.6282135
v -4.286592 -41.01049 0.4933324
v -5.218228 -41.53672 0.6556788
v -5.218228 -41.53672 0.6556788
v -4.286592 -41.01049 0.4933324
v -4.840761 -41.3011 0.5903132
v -5.101898 -41.86277 0.6282135
v -5.218228 -41.53672 0.6556788
v -5.473891 -41.68769 0.5282025
v -3.746367 -43.26624 -0.2311333
v -4.611717 -43.16352 -0.9506342
v -3.549992 -42.99393 -1.39141
v -3.51406 -40.76685 -1.400596
v -3.58956 -40.74572 -0.9427649
v -3.399817 -40.87019 -2.100023
v -3.399817 -40.87019 -2.100023
v -3.58956 -40.74572 -0.9427649
v -3.298294 -40.98967 -2.724152
v -3.298294 -40.98967 -2.724152
v -3.58956 -40.74572 -0.9427649
v -3.549992 -42.99393 -1.39141
v -3.549992 -42.99393 -1.39141
v -3.58956 -40.74572 -0.9427649
v -3.746367 -43.26624 -0.2311333
v -3.746367 -43.26624 -0.2311333
v -3.58956 -40.74572 -0.9427649
v -3.840379 -42.82544 0.3776206
v -3.840379 -42.82544 0.3776206
v -3.58956 -40.74572 -0.9427649
v -3.814577 -40.81004 0.4098645
v -3.814577 -40.81004 0.4098645
v -3.58956 -40.74572 -0.9427649
v -3.745962 -40.7626 0
v -5.473891 -41.68769 0.5282025
v -5.75844 -41.83633 0
v -5.101898 -41.86277 0.6282135
v -5.101898 -41.86277 0.6282135
v -5.75844 -41.83633 0
v -3.840379 -42.82544 0.3776206
v -3.840379 -42.82544 0.3776206
v -5.75844 -41.83633 0
v -3.746367 -43.26624 -0.2311333
v -3.746367 -43.26624 -0.2311333
v -5.75844 -41.83633 0
v -4.611717 -43.16352 -0.9506342
v -4.611717 -43.16352 -0.9506342
v -5.75844 -41.83633 0
v -6.162139 -42.23181 -1.044505
v -6.162139 -42.23181 -1.044505
v -5.75844 -41.83633 0
v -5.818118 -41.88035 -0.1313239
v -4.611717 -43.16352 -0.9506342
v -6.162139 -42.23181 -1.044505
v -3.549992 -42.99393 -1.39141
v -3.549992 -42.99393 -1.39141
v -6.162139 -42.23181 -1.044505
v -3.298294 -40.98967 -2.724152
v -3.298294 -40.98967 -2.724152
v -6.162139 -42.23181 -1.044505
v -4.234789 -41.26236 -2.258381
v -4.234789 -41.26236 -2.258381
v -6.162139 -42.23181 -1.044505
v -4.997523 -41.56716 -1.827306
v -4.997523 -41.56716 -1.827306
v -6.162139 -42.23181 -1.044505
v -5.358407 -41.73418 -1.609084
v -5.358407 -41.73418 -1.609084
v -6.162139 -42.23181 -1.044505
v -5.758368 -41.96777 -1.336921

vn -0.5237132 0.8508231 0.04271364
vn -0.5237132 0.8508231 0.04271364
vn -0.5237132 0.8508231 0.04271364
vn -0.5237132 0.8508231 0.04271364
vn -0.5237132 0.8508231 0.04271364
vn -0.5237132 0.8508231 0.04271364
vn -0.5237132 0.8508231 0.04271364
vn -0.5237132 0.8508231 0.04271364
vn -0.5237132 0.8508231 0.04271364
vn -0.5887925 0.8035403 -0.08744369
vn -0.5887925 0.8035403 -0.08744369
vn -0.5887925 0.8035403 -0.08744369
vn -0.5887925 0.8035403 -0.08744369
vn -0.5887925 0.8035403 -0.08744369
vn -0.5887925 0.8035403 -0.08744369
vn -0.4505072 0.8884314 0.08793703
vn -0.4505072 0.8884314 0.08793703
vn -0.4505072 0.8884314 0.08793703
vn -0.3841715 0.9222865 0.04242588
vn -0.3841715 0.9222865 0.04242588
vn -0.3841715 0.9222865 0.04242588
vn -0.3841715 0.9222865 0.04242588
vn -0.3841715 0.9222865 0.04242588
vn -0.3841715 0.9222865 0.04242588
vn -0.523608 0.85065 -0.04721506
vn -0.523608 0.85065 -0.04721506
vn -0.523608 0.85065 -0.04721506
vn -0.523608 0.85065 -0.04721506
vn -0.523608 0.85065 -0.04721506
vn -0.523608 0.85065 -0.04721506
vn -0.4574622 0.8844 -0.09254754
vn -0.4574622 0.8844 -0.09254754
vn -0.4574622 0.8844 -0.09254754
vn -0.384089 0.9220881 -0.04721339
vn -0.384089 0.9220881 -0.04721339
vn -0.384089 0.9220881 -0.04721339
vn -0.384089 0.9220881 -0.04721339
vn -0.384089 0.9220881 -0.04721339
vn -0.384089 0.9220881 -0.04721339
vn -0.3076376 0.9468064 -0.09442877
vn -0.3076376 0.9468064 -0.09442877
vn -0.3076376 0.9468064 -0.09442877
vn -0.5846841 0.7909454 -0.1804158
vn -0.5846841 0.7909454 -0.1804158
vn -0.5846841 0.7909454 -0.1804158
vn -0.5183145 0.8248253 -0.2258611
vn -0.5183145 0.8248253 -0.2258611
vn -0.5183145 0.8248253 -0.2258611
vn -0.4533475 0.8717683 -0.185731
vn -0.4533475 0.8717683 -0.185731
vn -0.4533475 0.8717683 -0.185731
vn -0.4533475 0.8717683 -0.185731
vn -0.4533475 0.8717683 -0.185731
vn -0.4533475 0.8717683 -0.185731
vn -0.376888 0.8964924 -0.2329312
vn -0.376888 0.8964924 -0.2329312
vn -0.376888 0.8964924 -0.2329312
vn -0.376888 0.8964924 -0.2329312
vn -0.376888 0.8964924 -0.2329312
vn -0.376888 0.8964924 -0.2329312
vn -0.3035325 0.934171 -0.1875968
vn -0.3035325 0.934171 -0.1875968
vn -0.3035325 0.934171 -0.1875968
vn 0.1815329 -0.01805439 0.9832192
vn 0.1815329 -0.01805439 0.9832192
vn 0.1815329 -0.01805439 0.9832192
vn 0.1815329 -0.01805439 0.9832192
vn 0.1815329 -0.01805439 0.9832192
vn 0.1815329 -0.01805439 0.9832192
vn 0.1815329 -0.01805439 0.9832192
vn 0.1815329 -0.01805439 0.9832192
vn 0.1815329 -0.01805439 0.9832192
vn 0.1815329 -0.01805439 0.9832192
vn 0.1815329 -0.01805439 0.9832192
vn 0.1815329 -0.01805439 0.9832192
vn -0.340683 -0.1989568 0.9188859
vn -0.340683 -0.1989568 0.9188859
vn -0.340683 -0.1989568 0.9188859
vn 0.06525392 -0.9738738 -0.2175128
vn 0.06525392 -0.9738738 -0.2175128
vn 0.06525392 -0.9738738 -0.2175128
vn 0.9864463 -0.01524158 0.1633751
vn 0.9864463 -0.01524158 0.1633751
vn 0.9864463 -0.01524158 0.1633751
vn 0.9864463 -0.01524158 0.1633751
vn 0.9864463 -0.01524158 0.1633751
vn 0.9864463 -0.01524158 0.1633751
vn 0.9864463 -0.01524158 0.1633751
vn 0.9864463 -0.01524158 0.1633751
vn 0.9864463 -0.01524158 0.1633751
vn 0.9864463 -0.01524158 0.1633751
vn 0.9864463 -0.01524158 0.1633751
vn 0.9864463 -0.01524158 0.1633751
vn 0.9864463 -0.01524158 0.1633751
vn 0.9864463 -0.01524158 0.1633751
vn 0.9864463 -0.01524158 0.1633751
vn 0.9864463 -0.01524158 0.1633751
vn 0.9864463 -0.01524158 0.1633751
vn 0.9864463 -0.01524158 0.1633751
vn 0.9864463 -0.01524158 0.1633751
vn 0.9864463 -0.01524158 0.1633751
vn 0.9864463 -0.01524158 0.1633751
vn -0.476231 -0.7454837 0.466324
vn -0.476231 -0.7454837 0.466324
vn -0.476231 -0.7454837 0.466324
vn -0.476231 -0.7454837 0.466324
vn -0.476231 -0.7454837 0.466324
vn -0.476231 -0.7454837 0.466324
vn -0.476231 -0.7454837 0.466324
vn -0.476231 -0.7454837 0.466324
vn -0.476231 -0.7454837 0.466324
vn -0.476231 -0.7454837 0.466324
vn -0.476231 -0.7454837 0.466324
vn -0.476231 -0.7454837 0.466324
vn -0.476231 -0.7454837 0.466324
vn -0.476231 -0.7454837 0.466324
vn -0.476231 -0.7454837 0.466324
vn -0.476231 -0.7454837 0.466324
vn -0.476231 -0.7454837 0.466324
vn -0.476231 -0.7454837 0.466324
vn -0.2582329 -0.5122359 -0.8191032
vn -0.2582329 -0.5122359 -0.8191032
vn -0.2582329 -0.5122359 -0.8191032
vn -0.2582329 -0.5122359 -0.8191032
vn -0.2582329 -0.5122359 -0.8191032
vn -0.2582329 -0.5122359 -0.8191032
vn -0.2582329 -0.5122359 -0.8191032
vn -0.2582329 -0.5122359 -0.8191032
vn -0.2582329 -0.5122359 -0.8191032
vn -0.2582329 -0.5122359 -0.8191032
vn -0.2582329 -0.5122359 -0.8191032
vn -0.2582329 -0.5122359 -0.8191032
vn -0.2582329 -0.5122359 -0.8191032
vn -0.2582329 -0.5122359 -0.8191032
vn -0.2582329 -0.5122359 -0.8191032
vn -0.2582329 -0.5122359 -0.8191032
vn -0.2582329 -0.5122359 -0.8191032
vn -0.2582329 -0.5122359 -0.8191032

vt 0.4934273 0.2441947
vt 0.4890815 0.2461263
vt 0.497916 0.236191
vt 0.497916 0.236191
vt 0.4890815 0.2461263
vt 0.4772723 0.236191
vt 0.4772723 0.236191
vt 0.4890815 0.2461263
vt 0.4824366 0.2451359
vt 0.4981169 0.2165085
vt 0.5056803 0.2205104
vt 0.4886359 0.2165085
vt 0.4886359 0.2165085
vt 0.5056803 0.2205104
vt 0.4989055 0.2342961
vt 0.4772723 0.236191
vt 0.4824366 0.2451359
vt 0.4730582 0.24349
vt 0.4772723 0.236191
vt 0.4730582 0.24349
vt 0.4645809 0.236191
vt 0.4645809 0.236191
vt 0.4730582 0.24349
vt 0.4658003 0.242255
vt 0.4772723 0.236191
vt 0.4886359 0.2165085
vt 0.497916 0.236191
vt 0.497916 0.236191
vt 0.4886359 0.2165085
vt 0.4989055 0.2342961
vt 0.4772723 0.236191
vt 0.4659086 0.2165085
vt 0.4886359 0.2165085
vt 0.4772723 0.236191
vt 0.4645809 0.236191
vt 0.4659086 0.2165085
vt 0.4659086 0.2165085
vt 0.4645809 0.236191
vt 0.4621941 0.2229424
vt 0.4659086 0.2165085
vt 0.4621941 0.2229424
vt 0.461293 0.2165085
vt 0.490783 0.2127895
vt 0.4981169 0.2165085
vt 0.4886359 0.2165085
vt 0.4848758 0.2099958
vt 0.490783 0.2127895
vt 0.4886359 0.2165085
vt 0.4730582 0.204125
vt 0.4848758 0.2099958
vt 0.4659086 0.2165085
vt 0.4659086 0.2165085
vt 0.4848758 0.2099958
vt 0.4886359 0.2165085
vt 0.4659086 0.2165085
vt 0.4602339 0.2066795
vt 0.4730582 0.204125
vt 0.4730582 0.204125
vt 0.4602339 0.2066795
vt 0.4594686 0.1978084
vt 0.461293 0.2165085
vt 0.4602339 0.2066795
vt 0.4659086 0.2165085
vt 0.5965564 0.4436131
vt 0.5766802 0.4916018
vt 0.3950525 0.4462383
vt 0.3950525 0.4462383
vt 0.5766802 0.4916018
vt 0.4917378 0.5744816
vt 0.4917378 0.5744816
vt 0.5766802 0.4916018
vt 0.5243834 0.5863042
vt 0.5243834 0.5863042
vt 0.5766802 0.4916018
vt 0.5478129 0.5479395
vt 0.5134234 0.517844
vt 0.5473535 0.5307822
vt 0.5290993 0.5592182
vt 0.4397363 0.4279185
vt 0.5260054 0.5021681
vt 0.4181679 0.5476488
vt 0.3795266 0.5876167
vt 0.377539 0.5413766
vt 0.3896475 0.6582615
vt 0.3896475 0.6582615
vt 0.377539 0.5413766
vt 0.4013904 0.7213026
vt 0.4013904 0.7213026
vt 0.377539 0.5413766
vt 0.6014785 0.5866886
vt 0.6014785 0.5866886
vt 0.377539 0.5413766
vt 0.6289113 0.4694943
vt 0.6289113 0.4694943
vt 0.377539 0.5413766
vt 0.5851463 0.4080048
vt 0.5851463 0.4080048
vt 0.377539 0.5413766
vt 0.3842941 0.4047468
vt 0.3842941 0.4047468
vt 0.377539 0.5413766
vt 0.379461 0.4461445
vt 0.6065413 0.4088908
vt 0.6242892 0.4752509
vt 0.5612199 0.3963276
vt 0.5612199 0.3963276
vt 0.6242892 0.4752509
vt 0.3854801 0.427806
vt 0.3854801 0.427806
vt 0.6242892 0.4752509
vt 0.3502984 0.5042869
vt 0.3502984 0.5042869
vt 0.6242892 0.4752509
vt 0.4374862 0.5946766
vt 0.4374862 0.5946766
vt 0.6242892 0.4752509
vt 0.6384369 0.6064616
vt 0.6384369 0.6064616
vt 0.6242892 0.4752509
vt 0.6272425 0.4917518
vt 0.4311108 0.3498249
vt 0.7402552 0.3778671
vt 0.281721 0.4815044
vt 0.281721 0.4815044
vt 0.7402552 0.3778671
vt 0.397823 0.8796649
vt 0.397823 0.8796649
vt 0.7402552 0.3778671
vt 0.5200988 0.7405131
vt 0.5200988 0.7405131
vt 0.7402552 0.3778671
vt 0.613301 0.6117306
vt 0.613301 0.6117306
vt 0.7402552 0.3778671
vt 0.655641 0.5465331
vt 0.655641 0.5465331
vt 0.7402552 0.3778671
vt 0.6988341 0.4652284

usemtl Material0
usemap Material0
f 1/1/1 2/2/2 3/3/3
f 4/4/4 5/5/5 6/6/6
f 7/7/7 8/8/8 9/9/9
f 10/10/10 11/11/11 12/12/12
f 13/13/13 14/14/14 15/15/15
f 16/16/16 17/17/17 18/18/18
f 19/19/19 20/20/20 21/21/21
f 22/22/22 23/23/23 24/24/24
f 25/25/25 26/26/26 27/27/27
f 28/28/28 29/29/29 30/30/30
f 31/31/31 32/32/32 33/33/33
f 34/34/34 35/35/35 36/36/36
f 37/37/37 38/38/38 39/39/39
f 40/40/40 41/41/41 42/42/42
f 43/43/43 44/44/44 45/45/45
f 46/46/46 47/47/47 48/48/48
f 49/49/49 50/50/50 51/51/51
f 52/52/52 53/53/53 54/54/54
f 55/55/55 56/56/56 57/57/57
f 58/58/58 59/59/59 60/60/60
f 61/61/61 62/62/62 63/63/63

usemtl Material1
usemap Material1
f 64/64/64 65/65/65 66/66/66
f 67/67/67 68/68/68 69/69/69
f 70/70/70 71/71/71 72/72/72
f 73/73/73 74/74/74 75/75/75
f 76/76/76 77/77/77 78/78/78
f 79/79/79 80/80/80 81/81/81
f 82/82/82 83/83/83 84/84/84
f 85/85/85 86/86/86 87/87/87
f 88/88/88 89/89/89 90/90/90
f 91/91/91 92/92/92 93/93/93
f 94/94/94 95/95/95 96/96/96
f 97/97/97 98/98/98 99/99/99
f 100/100/100 101/101/101 102/102/102
f 103/103/103 104/104/104 105/105/105
f 106/106/106 107/107/107 108/108/108
f 109/109/109 110/110/110 111/111/111
f 112/112/112 113/113/113 114/114/114
f 115/115/115 116/116/116 117/117/117
f 118/118/118 119/119/119 120/120/120
f 121/121/121 122/122/122 123/123/123
f 124/124/124 125/125/125 126/126/126
f 127/127/127 128/128/128 129/129/129
f 130/130/130 131/131/131 132/132/132
f 133/133/133 134/134/134 135/135/135
f 136/136/136 137/137/137 138/138/138
