g  Instance
v 4.654686 -48.90791 -2.190618
v 5.109549 -50.28877 -2.276937
v 4.653108 -48.85031 -2.225179
v 4.653108 -48.85031 -2.225179
v 5.109549 -50.28877 -2.276937
v 5.318641 -50.50845 -2.590644
v 5.318641 -50.50845 -2.590644
v 5.109549 -50.28877 -2.276937
v 5.274888 -50.54248 -2.472186
v 2.860261 -50.18914 -3.969179
v 3.525046 -50.20222 -5.464108
v 3.056854 -50.53091 -3.926166
v 3.056854 -50.53091 -3.926166
v 3.525046 -50.20222 -5.464108
v 3.379964 -51.02905 -3.946774
v 3.379964 -51.02905 -3.946774
v 3.525046 -50.20222 -5.464108
v 3.978786 -51.30418 -4.915316
v 3.978786 -51.30418 -4.915316
v 3.525046 -50.20222 -5.464108
v 3.871017 -50.92223 -5.218248
v 4.96452 -51.4243 -2.920823
v 5.132376 -50.9155 -2.61402
v 4.903297 -51.40253 -2.89044
v 4.903297 -51.40253 -2.89044
v 5.132376 -50.9155 -2.61402
v 4.938877 -51.02296 -2.63894
v 4.938877 -51.02296 -2.63894
v 5.132376 -50.9155 -2.61402
v 5.011757 -50.82303 -2.520128
v 3.978786 -51.30418 -4.915316
v 4.995432 -51.45111 -3.106871
v 3.379964 -51.02905 -3.946774
v 3.379964 -51.02905 -3.946774
v 4.995432 -51.45111 -3.106871
v 4.903297 -51.40253 -2.89044
v 4.903297 -51.40253 -2.89044
v 4.995432 -51.45111 -3.106871
v 4.96452 -51.4243 -2.920823
v 4.547047 -48.55249 -2.40576
v 4.584176 -48.60066 -2.376168
v 4.619451 -48.58116 -2.655986
v 4.355468 -48.66342 -2.342911
v 4.547047 -48.55249 -2.40576
v 2.860261 -50.18914 -3.969179
v 2.860261 -50.18914 -3.969179
v 4.547047 -48.55249 -2.40576
v 3.525046 -50.20222 -5.464108
v 3.525046 -50.20222 -5.464108
v 4.547047 -48.55249 -2.40576
v 3.744847 -50.07855 -5.547788
v 3.744847 -50.07855 -5.547788
v 4.547047 -48.55249 -2.40576
v 3.865354 -49.98544 -5.512469
v 3.865354 -49.98544 -5.512469
v 4.547047 -48.55249 -2.40576
v 4.915606 -48.81278 -4.04626
v 4.915606 -48.81278 -4.04626
v 4.547047 -48.55249 -2.40576
v 4.619451 -48.58116 -2.655986
v 5.109549 -50.28877 -2.276937
v 4.654686 -48.90791 -2.190618
v 5.011757 -50.82303 -2.520128
v 5.011757 -50.82303 -2.520128
v 4.654686 -48.90791 -2.190618
v 4.938877 -51.02296 -2.63894
v 4.938877 -51.02296 -2.63894
v 4.654686 -48.90791 -2.190618
v 3.056854 -50.53091 -3.926166
v 3.056854 -50.53091 -3.926166
v 4.654686 -48.90791 -2.190618
v 2.860261 -50.18914 -3.969179
v 2.860261 -50.18914 -3.969179
v 4.654686 -48.90791 -2.190618
v 4.355468 -48.66342 -2.342911
v 5.318641 -50.50845 -2.590644
v 5.274888 -50.54248 -2.472186
v 5.352115 -50.52594 -2.768863
v 5.352115 -50.52594 -2.768863
v 5.274888 -50.54248 -2.472186
v 4.995432 -51.45111 -3.106871
v 4.995432 -51.45111 -3.106871
v 5.274888 -50.54248 -2.472186
v 4.96452 -51.4243 -2.920823
v 4.96452 -51.4243 -2.920823
v 5.274888 -50.54248 -2.472186
v 5.132376 -50.9155 -2.61402
v 3.379964 -51.02905 -3.946774
v 4.903297 -51.40253 -2.89044
v 3.056854 -50.53091 -3.926166
v 3.056854 -50.53091 -3.926166
v 4.903297 -51.40253 -2.89044
v 4.938877 -51.02296 -2.63894
v 4.653108 -48.85031 -2.225179
v 4.584176 -48.60066 -2.376168
v 4.654686 -48.90791 -2.190618
v 4.654686 -48.90791 -2.190618
v 4.584176 -48.60066 -2.376168
v 4.355468 -48.66342 -2.342911
v 4.355468 -48.66342 -2.342911
v 4.584176 -48.60066 -2.376168
v 4.547047 -48.55249 -2.40576
v 3.871017 -50.92223 -5.218248
v 3.823024 -50.09458 -5.552776
v 3.978786 -51.30418 -4.915316
v 3.978786 -51.30418 -4.915316
v 3.823024 -50.09458 -5.552776
v 4.995432 -51.45111 -3.106871
v 4.995432 -51.45111 -3.106871
v 3.823024 -50.09458 -5.552776
v 5.352115 -50.52594 -2.768863
v 5.352115 -50.52594 -2.768863
v 3.823024 -50.09458 -5.552776
v 4.915606 -48.81278 -4.04626
v 4.915606 -48.81278 -4.04626
v 3.823024 -50.09458 -5.552776
v 3.865354 -49.98544 -5.512469
v 4.584176 -48.60066 -2.376168
v 4.653108 -48.85031 -2.225179
v 4.619451 -48.58116 -2.655986
v 4.619451 -48.58116 -2.655986
v 4.653108 -48.85031 -2.225179
v 4.915606 -48.81278 -4.04626
v 4.915606 -48.81278 -4.04626
v 4.653108 -48.85031 -2.225179
v 5.352115 -50.52594 -2.768863
v 5.352115 -50.52594 -2.768863
v 4.653108 -48.85031 -2.225179
v 5.318641 -50.50845 -2.590644
v 3.525046 -50.20222 -5.464108
v 3.744847 -50.07855 -5.547788
v 3.871017 -50.92223 -5.218248
v 3.871017 -50.92223 -5.218248
v 3.744847 -50.07855 -5.547788
v 3.823024 -50.09458 -5.552776
v 3.823024 -50.09458 -5.552776
v 3.744847 -50.07855 -5.547788
v 3.865354 -49.98544 -5.512469
v 5.011757 -50.82303 -2.520128
v 5.132376 -50.9155 -2.61402
v 5.109549 -50.28877 -2.276937
v 5.109549 -50.28877 -2.276937
v 5.132376 -50.9155 -2.61402
v 5.274888 -50.54248 -2.472186

vn 0.8776311 0.2640893 0.4000258
vn 0.8776311 0.2640893 0.4000258
vn 0.8776311 0.2640893 0.4000258
vn 0.8776311 0.2640893 0.4000258
vn 0.8776311 0.2640893 0.4000258
vn 0.8776311 0.2640893 0.4000258
vn 0.8776311 0.2640893 0.4000258
vn 0.8776311 0.2640893 0.4000258
vn 0.8776311 0.2640893 0.4000258
vn -0.7929593 -0.4999404 -0.3482461
vn -0.7929593 -0.4999404 -0.3482461
vn -0.7929593 -0.4999404 -0.3482461
vn -0.7929593 -0.4999404 -0.3482461
vn -0.7929593 -0.4999404 -0.3482461
vn -0.7929593 -0.4999404 -0.3482461
vn -0.7929593 -0.4999404 -0.3482461
vn -0.7929593 -0.4999404 -0.3482461
vn -0.7929593 -0.4999404 -0.3482461
vn -0.7929593 -0.4999404 -0.3482461
vn -0.7929593 -0.4999404 -0.3482461
vn -0.7929593 -0.4999404 -0.3482461
vn 0.2036817 -0.5539647 0.8072403
vn 0.2036817 -0.5539647 0.8072403
vn 0.2036817 -0.5539647 0.8072403
vn 0.2036817 -0.5539647 0.8072403
vn 0.2036817 -0.5539647 0.8072403
vn 0.2036817 -0.5539647 0.8072403
vn 0.2036817 -0.5539647 0.8072403
vn 0.2036817 -0.5539647 0.8072403
vn 0.2036817 -0.5539647 0.8072403
vn -0.2944881 -0.9515728 0.08823935
vn -0.2944881 -0.9515728 0.08823935
vn -0.2944881 -0.9515728 0.08823935
vn -0.2944881 -0.9515728 0.08823935
vn -0.2944881 -0.9515728 0.08823935
vn -0.2944881 -0.9515728 0.08823935
vn -0.2944881 -0.9515728 0.08823935
vn -0.2944881 -0.9515728 0.08823935
vn -0.2944881 -0.9515728 0.08823935
vn 0.7411901 0.6567016 0.139213
vn 0.7411901 0.6567016 0.139213
vn 0.7411901 0.6567016 0.139213
vn -0.5452674 0.8002762 -0.2494826
vn -0.5452674 0.8002762 -0.2494826
vn -0.5452674 0.8002762 -0.2494826
vn -0.5452674 0.8002762 -0.2494826
vn -0.5452674 0.8002762 -0.2494826
vn -0.5452674 0.8002762 -0.2494826
vn -0.5452674 0.8002762 -0.2494826
vn -0.5452674 0.8002762 -0.2494826
vn -0.5452674 0.8002762 -0.2494826
vn -0.5452674 0.8002762 -0.2494826
vn -0.5452674 0.8002762 -0.2494826
vn -0.5452674 0.8002762 -0.2494826
vn -0.5452674 0.8002762 -0.2494826
vn -0.5452674 0.8002762 -0.2494826
vn -0.5452674 0.8002762 -0.2494826
vn -0.5452674 0.8002762 -0.2494826
vn -0.5452674 0.8002762 -0.2494826
vn -0.5452674 0.8002762 -0.2494826
vn -0.5900944 -0.2425092 0.7700506
vn -0.5900944 -0.2425092 0.7700506
vn -0.5900944 -0.2425092 0.7700506
vn -0.5900944 -0.2425092 0.7700506
vn -0.5900944 -0.2425092 0.7700506
vn -0.5900944 -0.2425092 0.7700506
vn -0.5900944 -0.2425092 0.7700506
vn -0.5900944 -0.2425092 0.7700506
vn -0.5900944 -0.2425092 0.7700506
vn -0.5900944 -0.2425092 0.7700506
vn -0.5900944 -0.2425092 0.7700506
vn -0.5900944 -0.2425092 0.7700506
vn -0.5900944 -0.2425092 0.7700506
vn -0.5900944 -0.2425092 0.7700506
vn -0.5900944 -0.2425092 0.7700506
vn 0.8850442 -0.4168799 0.2071422
vn 0.8850442 -0.4168799 0.2071422
vn 0.8850442 -0.4168799 0.2071422
vn 0.8850442 -0.4168799 0.2071422
vn 0.8850442 -0.4168799 0.2071422
vn 0.8850442 -0.4168799 0.2071422
vn 0.8850442 -0.4168799 0.2071422
vn 0.8850442 -0.4168799 0.2071422
vn 0.8850442 -0.4168799 0.2071422
vn 0.8850442 -0.4168799 0.2071422
vn 0.8850442 -0.4168799 0.2071422
vn 0.8850442 -0.4168799 0.2071422
vn -0.5856135 -0.4088155 0.6999477
vn -0.5856135 -0.4088155 0.6999477
vn -0.5856135 -0.4088155 0.6999477
vn -0.5856135 -0.4088155 0.6999477
vn -0.5856135 -0.4088155 0.6999477
vn -0.5856135 -0.4088155 0.6999477
vn -0.01639466 0.5141436 0.8575475
vn -0.01639466 0.5141436 0.8575475
vn -0.01639466 0.5141436 0.8575475
vn -0.01639466 0.5141436 0.8575475
vn -0.01639466 0.5141436 0.8575475
vn -0.01639466 0.5141436 0.8575475
vn -0.01639466 0.5141436 0.8575475
vn -0.01639466 0.5141436 0.8575475
vn -0.01639466 0.5141436 0.8575475
vn 0.8566054 -0.1498726 -0.4937263
vn 0.8566054 -0.1498726 -0.4937263
vn 0.8566054 -0.1498726 -0.4937263
vn 0.8566054 -0.1498726 -0.4937263
vn 0.8566054 -0.1498726 -0.4937263
vn 0.8566054 -0.1498726 -0.4937263
vn 0.8566054 -0.1498726 -0.4937263
vn 0.8566054 -0.1498726 -0.4937263
vn 0.8566054 -0.1498726 -0.4937263
vn 0.8566054 -0.1498726 -0.4937263
vn 0.8566054 -0.1498726 -0.4937263
vn 0.8566054 -0.1498726 -0.4937263
vn 0.8566054 -0.1498726 -0.4937263
vn 0.8566054 -0.1498726 -0.4937263
vn 0.8566054 -0.1498726 -0.4937263
vn 0.9291211 0.3418502 0.1409704
vn 0.9291211 0.3418502 0.1409704
vn 0.9291211 0.3418502 0.1409704
vn 0.9291211 0.3418502 0.1409704
vn 0.9291211 0.3418502 0.1409704
vn 0.9291211 0.3418502 0.1409704
vn 0.9291211 0.3418502 0.1409704
vn 0.9291211 0.3418502 0.1409704
vn 0.9291211 0.3418502 0.1409704
vn 0.9291211 0.3418502 0.1409704
vn 0.9291211 0.3418502 0.1409704
vn 0.9291211 0.3418502 0.1409704
vn -0.1359266 -0.3780398 -0.9157565
vn -0.1359266 -0.3780398 -0.9157565
vn -0.1359266 -0.3780398 -0.9157565
vn -0.1359266 -0.3780398 -0.9157565
vn -0.1359266 -0.3780398 -0.9157565
vn -0.1359266 -0.3780398 -0.9157565
vn 0.01034069 0.3428754 -0.939324
vn 0.01034069 0.3428754 -0.939324
vn 0.01034069 0.3428754 -0.939324
vn 0.3164765 -0.4403822 0.8401823
vn 0.3164765 -0.4403822 0.8401823
vn 0.3164765 -0.4403822 0.8401823
vn 0.3164765 -0.4403822 0.8401823
vn 0.3164765 -0.4403822 0.8401823
vn 0.3164765 -0.4403822 0.8401823

vt 0.4088064 0.3233484
vt 0.5646982 0.3334505
vt 0.4028436 0.3273939
vt 0.4028436 0.3273939
vt 0.5646982 0.3334505
vt 0.5937343 0.3701651
vt 0.5937343 0.3701651
vt 0.5646982 0.3334505
vt 0.5958719 0.3562987
vt 0.5351184 0.420254
vt 0.4967724 0.5875043
vt 0.4938004 0.4154396
vt 0.4938004 0.4154396
vt 0.4967724 0.5875043
vt 0.4315421 0.417746
vt 0.4315421 0.417746
vt 0.4967724 0.5875043
vt 0.3736435 0.5261039
vt 0.3736435 0.5261039
vt 0.4967724 0.5875043
vt 0.4135551 0.5599964
vt 0.4725226 0.6034145
vt 0.4170381 0.5168314
vt 0.4808434 0.5948359
vt 0.4808434 0.5948359
vt 0.4170381 0.5168314
vt 0.4534668 0.5238631
vt 0.4534668 0.5238631
vt 0.4170381 0.5168314
vt 0.4305811 0.4903361
vt 0.473132 0.5769662
vt 0.3729919 0.3977808
vt 0.5376217 0.4809981
vt 0.5376217 0.4809981
vt 0.3729919 0.3977808
vt 0.3830987 0.3763389
vt 0.3830987 0.3763389
vt 0.3729919 0.3977808
vt 0.3766905 0.3793485
vt 0.4148161 0.3316645
vt 0.4208399 0.3286971
vt 0.4217119 0.3567487
vt 0.5635732 0.2881854
vt 0.5859901 0.2947717
vt 0.3509218 0.4586703
vt 0.3509218 0.4586703
vt 0.5859901 0.2947717
vt 0.4059469 0.6153965
vt 0.4059469 0.6153965
vt 0.5859901 0.2947717
vt 0.4314577 0.624172
vt 0.4314577 0.624172
vt 0.5859901 0.2947717
vt 0.4468899 0.6204687
vt 0.4468899 0.6204687
vt 0.5859901 0.2947717
vt 0.6020316 0.4667566
vt 0.6020316 0.4667566
vt 0.5859901 0.2947717
vt 0.5904247 0.3210045
vt 0.3727621 0.2327947
vt 0.5962188 0.2119482
vt 0.3023425 0.2915325
vt 0.3023425 0.2915325
vt 0.5962188 0.2119482
vt 0.2781161 0.320231
vt 0.2781161 0.320231
vt 0.5962188 0.2119482
vt 0.4584827 0.631138
vt 0.4584827 0.631138
vt 0.5962188 0.2119482
vt 0.5187112 0.6415261
vt 0.5187112 0.6415261
vt 0.5962188 0.2119482
vt 0.6485906 0.2487331
vt 0.5076387 0.3613568
vt 0.5126078 0.3491873
vt 0.5077981 0.3796625
vt 0.5077981 0.3796625
vt 0.5126078 0.3491873
vt 0.6071882 0.4143849
vt 0.6071882 0.4143849
vt 0.5126078 0.3491873
vt 0.6060725 0.3952728
vt 0.6060725 0.3952728
vt 0.5126078 0.3491873
vt 0.5526226 0.363757
vt 0.4223822 0.6052521
vt 0.2601994 0.4016529
vt 0.5040666 0.6012769
vt 0.5040666 0.6012769
vt 0.2601994 0.4016529
vt 0.300247 0.3531813
vt 0.5704923 0.4554216
vt 0.5588479 0.5115155
vt 0.5704455 0.4425818
vt 0.5704455 0.4425818
vt 0.5588479 0.5115155
vt 0.5147828 0.4991679
vt 0.5147828 0.4991679
vt 0.5588479 0.5115155
vt 0.5520507 0.522513
vt 0.6207546 0.6044834
vt 0.5295212 0.6479671
vt 0.6611913 0.5650967
vt 0.6611913 0.5650967
vt 0.5295212 0.6479671
vt 0.6577411 0.3300003
vt 0.6577411 0.3300003
vt 0.5295212 0.6479671
vt 0.547766 0.2860618
vt 0.547766 0.2860618
vt 0.5295212 0.6479671
vt 0.3654961 0.4521261
vt 0.3654961 0.4521261
vt 0.5295212 0.6479671
vt 0.5165455 0.6427262
vt 0.3877255 0.3243328
vt 0.4133536 0.3091866
vt 0.3871161 0.3523985
vt 0.3871161 0.3523985
vt 0.4133536 0.3091866
vt 0.418857 0.4918456
vt 0.418857 0.4918456
vt 0.4133536 0.3091866
vt 0.5934812 0.3637241
vt 0.5934812 0.3637241
vt 0.4133536 0.3091866
vt 0.590706 0.345845
vt 0.4723351 0.5331073
vt 0.4578264 0.5110936
vt 0.5476816 0.4984553
vt 0.5476816 0.4984553
vt 0.4578264 0.5110936
vt 0.4591062 0.503265
vt 0.5658702 0.5245944
vt 0.5642201 0.5322823
vt 0.554432 0.5204316
vt 0.4861031 0.5196722
vt 0.4781292 0.5510522
vt 0.4151865 0.4383722
vt 0.4151865 0.4383722
vt 0.4781292 0.5510522
vt 0.4176851 0.5036401

usemtl Material0
usemap Material0

usemtl Material1
usemap Material1
f 1/1/1 2/2/2 3/3/3
f 4/4/4 5/5/5 6/6/6
f 7/7/7 8/8/8 9/9/9
f 10/10/10 11/11/11 12/12/12
f 13/13/13 14/14/14 15/15/15
f 16/16/16 17/17/17 18/18/18
f 19/19/19 20/20/20 21/21/21
f 22/22/22 23/23/23 24/24/24
f 25/25/25 26/26/26 27/27/27
f 28/28/28 29/29/29 30/30/30
f 31/31/31 32/32/32 33/33/33
f 34/34/34 35/35/35 36/36/36
f 37/37/37 38/38/38 39/39/39
f 40/40/40 41/41/41 42/42/42
f 43/43/43 44/44/44 45/45/45
f 46/46/46 47/47/47 48/48/48
f 49/49/49 50/50/50 51/51/51
f 52/52/52 53/53/53 54/54/54
f 55/55/55 56/56/56 57/57/57
f 58/58/58 59/59/59 60/60/60
f 61/61/61 62/62/62 63/63/63
f 64/64/64 65/65/65 66/66/66
f 67/67/67 68/68/68 69/69/69
f 70/70/70 71/71/71 72/72/72
f 73/73/73 74/74/74 75/75/75
f 76/76/76 77/77/77 78/78/78
f 79/79/79 80/80/80 81/81/81
f 82/82/82 83/83/83 84/84/84
f 85/85/85 86/86/86 87/87/87
f 88/88/88 89/89/89 90/90/90
f 91/91/91 92/92/92 93/93/93
f 94/94/94 95/95/95 96/96/96
f 97/97/97 98/98/98 99/99/99
f 100/100/100 101/101/101 102/102/102
f 103/103/103 104/104/104 105/105/105
f 106/106/106 107/107/107 108/108/108
f 109/109/109 110/110/110 111/111/111
f 112/112/112 113/113/113 114/114/114
f 115/115/115 116/116/116 117/117/117
f 118/118/118 119/119/119 120/120/120
f 121/121/121 122/122/122 123/123/123
f 124/124/124 125/125/125 126/126/126
f 127/127/127 128/128/128 129/129/129
f 130/130/130 131/131/131 132/132/132
f 133/133/133 134/134/134 135/135/135
f 136/136/136 137/137/137 138/138/138
f 139/139/139 140/140/140 141/141/141
f 142/142/142 143/143/143 144/144/144
