g  Instance
v -9.686897 -47.63792 -9.536743E-07
v -9.78364 -48.03739 -9.536743E-07
v -9.710714 -47.76342 0.1494948
v -9.710714 -47.76342 0.1494948
v -9.78364 -48.03739 -9.536743E-07
v -9.758976 -47.97948 0.2418929
v -9.758976 -47.97948 0.2418929
v -9.78364 -48.03739 -9.536743E-07
v -9.762136 -47.9884 0.219131
v -9.610081 -47.59467 -1.364097
v -9.730984 -48.33875 -1.381258
v -9.78569 -48.13514 -0.4445778
v -9.78364 -48.03739 -9.536743E-07
v -9.686897 -47.63792 -9.536743E-07
v -9.78569 -48.13514 -0.4445778
v -9.78569 -48.13514 -0.4445778
v -9.686897 -47.63792 -9.536743E-07
v -9.610081 -47.59467 -1.364097
v -9.610081 -47.59467 -1.364097
v -9.686897 -47.63792 -9.536743E-07
v -9.549692 -47.17905 -0.5362003
v -9.253338 -46.49744 -1.313459
v -9.610081 -47.59467 -1.364097
v -9.549692 -47.17905 -0.5362003
v -9.610081 -47.59467 -1.364097
v -9.536016 -48.01386 -2.11569
v -9.730984 -48.33875 -1.381258
v -9.730984 -48.33875 -1.381258
v -9.536016 -48.01386 -2.11569
v -9.645027 -48.45641 -1.932282
v -9.252602 -47.06986 -2.306062
v -9.276827 -47.28262 -2.428992
v -9.610081 -47.59467 -1.364097
v -9.610081 -47.59467 -1.364097
v -9.276827 -47.28262 -2.428992
v -9.536016 -48.01386 -2.11569
v -9.141441 -46.38242 -1.693399
v -9.13419 -46.53423 -1.993116
v -9.250732 -46.4927 -1.318746
v -9.250732 -46.4927 -1.318746
v -9.13419 -46.53423 -1.993116
v -9.253338 -46.49744 -1.313459
v -9.253338 -46.49744 -1.313459
v -9.13419 -46.53423 -1.993116
v -9.610081 -47.59467 -1.364097
v -9.610081 -47.59467 -1.364097
v -9.13419 -46.53423 -1.993116
v -9.252602 -47.06986 -2.306062
v -9.076717 -46.32951 -1.872771
v -9.13419 -46.53423 -1.993116
v -9.141441 -46.38242 -1.693399
v -7.642498 -47.60832 -2.51632
v -9.276827 -47.28262 -2.428992
v -6.9449 -47.18529 -2.232713
v -6.9449 -47.18529 -2.232713
v -9.276827 -47.28262 -2.428992
v -7.150665 -46.48363 -1.844547
v -7.150665 -46.48363 -1.844547
v -9.276827 -47.28262 -2.428992
v -7.602615 -46.33935 -1.789442
v -7.602615 -46.33935 -1.789442
v -9.276827 -47.28262 -2.428992
v -9.076717 -46.32951 -1.872771
v -9.076717 -46.32951 -1.872771
v -9.276827 -47.28262 -2.428992
v -9.13419 -46.53423 -1.993116
v -9.13419 -46.53423 -1.993116
v -9.276827 -47.28262 -2.428992
v -9.252602 -47.06986 -2.306062
v -9.74922 -47.98328 0.2401403
v -9.758976 -47.97948 0.2418929
v -9.762136 -47.9884 0.219131
v -7.426239 -48.43387 -2.22859
v -9.645027 -48.45641 -1.932282
v -7.642498 -47.60832 -2.51632
v -7.642498 -47.60832 -2.51632
v -9.645027 -48.45641 -1.932282
v -9.276827 -47.28262 -2.428992
v -9.276827 -47.28262 -2.428992
v -9.645027 -48.45641 -1.932282
v -9.536016 -48.01386 -2.11569
v -7.235486 -46.41156 -1.529294
v -7.309577 -46.55304 -1.046476
v -7.086941 -46.49594 -1.797828
v -7.086941 -46.49594 -1.797828
v -7.309577 -46.55304 -1.046476
v -6.473146 -47.34999 -1.94679
v -6.473146 -47.34999 -1.94679
v -7.309577 -46.55304 -1.046476
v -6.409959 -47.47775 -1.886418
v -6.409959 -47.47775 -1.886418
v -7.309577 -46.55304 -1.046476
v -7.095754 -46.90878 -0.9877095
v -9.74922 -47.98328 0.2401403
v -9.762136 -47.9884 0.219131
v -9.364706 -47.99413 0.1215988
v -9.364706 -47.99413 0.1215988
v -9.762136 -47.9884 0.219131
v -6.972026 -48.36584 -2.000613
v -6.972026 -48.36584 -2.000613
v -9.762136 -47.9884 0.219131
v -7.426239 -48.43387 -2.22859
v -7.426239 -48.43387 -2.22859
v -9.762136 -47.9884 0.219131
v -9.645027 -48.45641 -1.932282
v -9.645027 -48.45641 -1.932282
v -9.762136 -47.9884 0.219131
v -9.730984 -48.33875 -1.381258
v -9.730984 -48.33875 -1.381258
v -9.762136 -47.9884 0.219131
v -9.78569 -48.13514 -0.4445778
v -9.78569 -48.13514 -0.4445778
v -9.762136 -47.9884 0.219131
v -9.78364 -48.03739 -9.536743E-07
v -6.9449 -47.18529 -2.232713
v -7.150665 -46.48363 -1.844547
v -6.473146 -47.34999 -1.94679
v -6.473146 -47.34999 -1.94679
v -7.150665 -46.48363 -1.844547
v -7.086941 -46.49594 -1.797828
v -9.253338 -46.49744 -1.313459
v -9.549692 -47.17905 -0.5362003
v -9.250732 -46.4927 -1.318746
v -9.250732 -46.4927 -1.318746
v -9.549692 -47.17905 -0.5362003
v -7.791388 -46.6082 -0.8734202
v -7.791388 -46.6082 -0.8734202
v -9.549692 -47.17905 -0.5362003
v -9.710714 -47.76342 0.1494948
v -9.710714 -47.76342 0.1494948
v -9.549692 -47.17905 -0.5362003
v -9.686897 -47.63792 -9.536743E-07
v -7.791388 -46.6082 -0.8734202
v -9.710714 -47.76342 0.1494948
v -7.309577 -46.55304 -1.046476
v -7.309577 -46.55304 -1.046476
v -9.710714 -47.76342 0.1494948
v -7.095754 -46.90878 -0.9877095
v -7.095754 -46.90878 -0.9877095
v -9.710714 -47.76342 0.1494948
v -9.364706 -47.99413 0.1215988
v -9.364706 -47.99413 0.1215988
v -9.710714 -47.76342 0.1494948
v -9.74922 -47.98328 0.2401403
v -9.74922 -47.98328 0.2401403
v -9.710714 -47.76342 0.1494948
v -9.758976 -47.97948 0.2418929
v -6.409959 -47.47775 -1.886418
v -7.095754 -46.90878 -0.9877095
v -6.972026 -48.36584 -2.000613
v -6.972026 -48.36584 -2.000613
v -7.095754 -46.90878 -0.9877095
v -9.364706 -47.99413 0.1215988
v -7.150665 -46.48363 -1.844547
v -7.602615 -46.33935 -1.789442
v -7.086941 -46.49594 -1.797828
v -7.086941 -46.49594 -1.797828
v -7.602615 -46.33935 -1.789442
v -7.235486 -46.41156 -1.529294
v -9.076717 -46.32951 -1.872771
v -9.141441 -46.38242 -1.693399
v -7.602615 -46.33935 -1.789442
v -7.602615 -46.33935 -1.789442
v -9.141441 -46.38242 -1.693399
v -7.235486 -46.41156 -1.529294
v -7.235486 -46.41156 -1.529294
v -9.141441 -46.38242 -1.693399
v -7.309577 -46.55304 -1.046476
v -7.309577 -46.55304 -1.046476
v -9.141441 -46.38242 -1.693399
v -7.791388 -46.6082 -0.8734202
v -7.791388 -46.6082 -0.8734202
v -9.141441 -46.38242 -1.693399
v -9.250732 -46.4927 -1.318746
v -6.409959 -47.47775 -1.886418
v -6.972026 -48.36584 -2.000613
v -6.473146 -47.34999 -1.94679
v -6.473146 -47.34999 -1.94679
v -6.972026 -48.36584 -2.000613
v -6.9449 -47.18529 -2.232713
v -6.9449 -47.18529 -2.232713
v -6.972026 -48.36584 -2.000613
v -7.642498 -47.60832 -2.51632
v -7.642498 -47.60832 -2.51632
v -6.972026 -48.36584 -2.000613
v -7.426239 -48.43387 -2.22859

vn -0.971018 0.2351585 0.04271304
vn -0.971018 0.2351585 0.04271304
vn -0.971018 0.2351585 0.04271304
vn -0.971018 0.2351585 0.04271304
vn -0.971018 0.2351585 0.04271304
vn -0.971018 0.2351585 0.04271304
vn -0.971018 0.2351585 0.04271304
vn -0.971018 0.2351585 0.04271304
vn -0.971018 0.2351585 0.04271304
vn -0.9824786 0.1617744 -0.09254611
vn -0.9824786 0.1617744 -0.09254611
vn -0.9824786 0.1617744 -0.09254611
vn -0.9708211 0.2351107 -0.04721456
vn -0.9708211 0.2351107 -0.04721456
vn -0.9708211 0.2351107 -0.04721456
vn -0.9708211 0.2351107 -0.04721456
vn -0.9708211 0.2351107 -0.04721456
vn -0.9708211 0.2351107 -0.04721456
vn -0.9708211 0.2351107 -0.04721456
vn -0.9708211 0.2351107 -0.04721456
vn -0.9708211 0.2351107 -0.04721456
vn -0.9461614 0.3116607 -0.08744281
vn -0.9461614 0.3116607 -0.08744281
vn -0.9461614 0.3116607 -0.08744281
vn -0.9691938 0.1617644 -0.1857301
vn -0.9691938 0.1617644 -0.1857301
vn -0.9691938 0.1617644 -0.1857301
vn -0.9691938 0.1617644 -0.1857301
vn -0.9691938 0.1617644 -0.1857301
vn -0.9691938 0.1617644 -0.1857301
vn -0.9446255 0.238056 -0.2258586
vn -0.9446255 0.238056 -0.2258586
vn -0.9446255 0.238056 -0.2258586
vn -0.9446255 0.238056 -0.2258586
vn -0.9446255 0.238056 -0.2258586
vn -0.9446255 0.238056 -0.2258586
vn -0.932914 0.311644 -0.1804146
vn -0.932914 0.311644 -0.1804146
vn -0.932914 0.311644 -0.1804146
vn -0.932914 0.311644 -0.1804146
vn -0.932914 0.311644 -0.1804146
vn -0.932914 0.311644 -0.1804146
vn -0.932914 0.311644 -0.1804146
vn -0.932914 0.311644 -0.1804146
vn -0.932914 0.311644 -0.1804146
vn -0.932914 0.311644 -0.1804146
vn -0.932914 0.311644 -0.1804146
vn -0.932914 0.311644 -0.1804146
vn -0.9007378 0.3783233 -0.2134078
vn -0.9007378 0.3783233 -0.2134078
vn -0.9007378 0.3783233 -0.2134078
vn 0.0523297 0.4951211 -0.8672466
vn 0.0523297 0.4951211 -0.8672466
vn 0.0523297 0.4951211 -0.8672466
vn 0.0523297 0.4951211 -0.8672466
vn 0.0523297 0.4951211 -0.8672466
vn 0.0523297 0.4951211 -0.8672466
vn 0.0523297 0.4951211 -0.8672466
vn 0.0523297 0.4951211 -0.8672466
vn 0.0523297 0.4951211 -0.8672466
vn 0.0523297 0.4951211 -0.8672466
vn 0.0523297 0.4951211 -0.8672466
vn 0.0523297 0.4951211 -0.8672466
vn 0.0523297 0.4951211 -0.8672466
vn 0.0523297 0.4951211 -0.8672466
vn 0.0523297 0.4951211 -0.8672466
vn 0.0523297 0.4951211 -0.8672466
vn 0.0523297 0.4951211 -0.8672466
vn 0.0523297 0.4951211 -0.8672466
vn -0.2741045 -0.8818524 0.3836704
vn -0.2741045 -0.8818524 0.3836704
vn -0.2741045 -0.8818524 0.3836704
vn -0.1202243 -0.3546637 -0.9272324
vn -0.1202243 -0.3546637 -0.9272324
vn -0.1202243 -0.3546637 -0.9272324
vn -0.1202243 -0.3546637 -0.9272324
vn -0.1202243 -0.3546637 -0.9272324
vn -0.1202243 -0.3546637 -0.9272324
vn -0.1202243 -0.3546637 -0.9272324
vn -0.1202243 -0.3546637 -0.9272324
vn -0.1202243 -0.3546637 -0.9272324
vn 0.802371 0.5281819 0.2778937
vn 0.802371 0.5281819 0.2778937
vn 0.802371 0.5281819 0.2778937
vn 0.802371 0.5281819 0.2778937
vn 0.802371 0.5281819 0.2778937
vn 0.802371 0.5281819 0.2778937
vn 0.802371 0.5281819 0.2778937
vn 0.802371 0.5281819 0.2778937
vn 0.802371 0.5281819 0.2778937
vn 0.802371 0.5281819 0.2778937
vn 0.802371 0.5281819 0.2778937
vn 0.802371 0.5281819 0.2778937
vn 0.03854515 -0.9759831 0.2144091
vn 0.03854515 -0.9759831 0.2144091
vn 0.03854515 -0.9759831 0.2144091
vn 0.03854515 -0.9759831 0.2144091
vn 0.03854515 -0.9759831 0.2144091
vn 0.03854515 -0.9759831 0.2144091
vn 0.03854515 -0.9759831 0.2144091
vn 0.03854515 -0.9759831 0.2144091
vn 0.03854515 -0.9759831 0.2144091
vn 0.03854515 -0.9759831 0.2144091
vn 0.03854515 -0.9759831 0.2144091
vn 0.03854515 -0.9759831 0.2144091
vn 0.03854515 -0.9759831 0.2144091
vn 0.03854515 -0.9759831 0.2144091
vn 0.03854515 -0.9759831 0.2144091
vn 0.03854515 -0.9759831 0.2144091
vn 0.03854515 -0.9759831 0.2144091
vn 0.03854515 -0.9759831 0.2144091
vn 0.03854515 -0.9759831 0.2144091
vn 0.03854515 -0.9759831 0.2144091
vn 0.03854515 -0.9759831 0.2144091
vn 0.5681978 0.5196231 -0.6380776
vn 0.5681978 0.5196231 -0.6380776
vn 0.5681978 0.5196231 -0.6380776
vn 0.5681978 0.5196231 -0.6380776
vn 0.5681978 0.5196231 -0.6380776
vn 0.5681978 0.5196231 -0.6380776
vn -0.1298996 0.7695059 0.6252894
vn -0.1298996 0.7695059 0.6252894
vn -0.1298996 0.7695059 0.6252894
vn -0.1298996 0.7695059 0.6252894
vn -0.1298996 0.7695059 0.6252894
vn -0.1298996 0.7695059 0.6252894
vn -0.1298996 0.7695059 0.6252894
vn -0.1298996 0.7695059 0.6252894
vn -0.1298996 0.7695059 0.6252894
vn -0.1298996 0.7695059 0.6252894
vn -0.1298996 0.7695059 0.6252894
vn -0.1298996 0.7695059 0.6252894
vn 0.2872299 0.321677 0.9022322
vn 0.2872299 0.321677 0.9022322
vn 0.2872299 0.321677 0.9022322
vn 0.2872299 0.321677 0.9022322
vn 0.2872299 0.321677 0.9022322
vn 0.2872299 0.321677 0.9022322
vn 0.2872299 0.321677 0.9022322
vn 0.2872299 0.321677 0.9022322
vn 0.2872299 0.321677 0.9022322
vn 0.2872299 0.321677 0.9022322
vn 0.2872299 0.321677 0.9022322
vn 0.2872299 0.321677 0.9022322
vn 0.2872299 0.321677 0.9022322
vn 0.2872299 0.321677 0.9022322
vn 0.2872299 0.321677 0.9022322
vn 0.5557126 -0.4422145 0.7040098
vn 0.5557126 -0.4422145 0.7040098
vn 0.5557126 -0.4422145 0.7040098
vn 0.5557126 -0.4422145 0.7040098
vn 0.5557126 -0.4422145 0.7040098
vn 0.5557126 -0.4422145 0.7040098
vn 0.2856221 0.9480794 -0.1398767
vn 0.2856221 0.9480794 -0.1398767
vn 0.2856221 0.9480794 -0.1398767
vn 0.2856221 0.9480794 -0.1398767
vn 0.2856221 0.9480794 -0.1398767
vn 0.2856221 0.9480794 -0.1398767
vn -0.009409172 0.9600081 0.2798141
vn -0.009409172 0.9600081 0.2798141
vn -0.009409172 0.9600081 0.2798141
vn -0.009409172 0.9600081 0.2798141
vn -0.009409172 0.9600081 0.2798141
vn -0.009409172 0.9600081 0.2798141
vn -0.009409172 0.9600081 0.2798141
vn -0.009409172 0.9600081 0.2798141
vn -0.009409172 0.9600081 0.2798141
vn -0.009409172 0.9600081 0.2798141
vn -0.009409172 0.9600081 0.2798141
vn -0.009409172 0.9600081 0.2798141
vn -0.009409172 0.9600081 0.2798141
vn -0.009409172 0.9600081 0.2798141
vn -0.009409172 0.9600081 0.2798141
vn 0.4626973 -0.1812392 -0.8677924
vn 0.4626973 -0.1812392 -0.8677924
vn 0.4626973 -0.1812392 -0.8677924
vn 0.4626973 -0.1812392 -0.8677924
vn 0.4626973 -0.1812392 -0.8677924
vn 0.4626973 -0.1812392 -0.8677924
vn 0.4626973 -0.1812392 -0.8677924
vn 0.4626973 -0.1812392 -0.8677924
vn 0.4626973 -0.1812392 -0.8677924
vn 0.4626973 -0.1812392 -0.8677924
vn 0.4626973 -0.1812392 -0.8677924
vn 0.4626973 -0.1812392 -0.8677924

vt 0.6020392 0.236191
vt 0.6081464 0.236191
vt 0.6038586 0.2384563
vt 0.6038586 0.2384563
vt 0.6081464 0.236191
vt 0.6071004 0.2398564
vt 0.6071004 0.2398564
vt 0.6081464 0.236191
vt 0.6072519 0.2395115
vt 0.6022722 0.2165085
vt 0.612961 0.2165085
vt 0.6099322 0.2297762
vt 0.6081464 0.236191
vt 0.6020392 0.236191
vt 0.6099322 0.2297762
vt 0.6099322 0.2297762
vt 0.6020392 0.236191
vt 0.6022722 0.2165085
vt 0.6022722 0.2165085
vt 0.6020392 0.236191
vt 0.5953754 0.2284542
vt 0.5846118 0.2165085
vt 0.6022722 0.2165085
vt 0.5953754 0.2284542
vt 0.6022722 0.2165085
vt 0.6083733 0.2059409
vt 0.612961 0.2165085
vt 0.612961 0.2165085
vt 0.6083733 0.2059409
vt 0.6147099 0.2086986
vt 0.5940162 0.2022087
vt 0.5971977 0.2006252
vt 0.6022722 0.2165085
vt 0.6022722 0.2165085
vt 0.5971977 0.2006252
vt 0.6083733 0.2059409
vt 0.5828368 0.2108067
vt 0.5853379 0.2064746
vt 0.5845366 0.216427
vt 0.5845366 0.216427
vt 0.5853379 0.2064746
vt 0.5846118 0.2165085
vt 0.5846118 0.2165085
vt 0.5853379 0.2064746
vt 0.6022722 0.2165085
vt 0.6022722 0.2165085
vt 0.5853379 0.2064746
vt 0.5940162 0.2022087
vt 0.5818132 0.2079612
vt 0.5853379 0.2064746
vt 0.5828368 0.2108067
vt 0.696734 0.60033
vt 0.3690541 0.5656967
vt 0.8249351 0.4878516
vt 0.8249351 0.4878516
vt 0.3690541 0.5656967
vt 0.7699757 0.3339005
vt 0.7699757 0.3339005
vt 0.3690541 0.5656967
vt 0.6782361 0.3120461
vt 0.6782361 0.3120461
vt 0.3690541 0.5656967
vt 0.3885693 0.3450949
vt 0.3885693 0.3450949
vt 0.3690541 0.5656967
vt 0.381533 0.3928258
vt 0.381533 0.3928258
vt 0.3690541 0.5656967
vt 0.3693963 0.5169439
vt 0.5789022 0.3364788
vt 0.5800179 0.3362772
vt 0.5800554 0.3389024
vt 0.572255 0.3468575
vt 0.5848275 0.5681906
vt 0.485714 0.3684306
vt 0.485714 0.3684306
vt 0.5848275 0.5681906
vt 0.4586796 0.5314572
vt 0.4586796 0.5314572
vt 0.5848275 0.5681906
vt 0.5373967 0.557315
vt 0.4934066 0.5190628
vt 0.5013289 0.4676286
vt 0.5089794 0.5476769
vt 0.5089794 0.5476769
vt 0.5013289 0.4676286
vt 0.6165262 0.5635498
vt 0.6165262 0.5635498
vt 0.5013289 0.4676286
vt 0.6310021 0.5571181
vt 0.6310021 0.5571181
vt 0.5013289 0.4676286
vt 0.543772 0.4613704
vt 0.6016473 0.3106726
vt 0.6029692 0.3128384
vt 0.5630201 0.322889
vt 0.5630201 0.322889
vt 0.6029692 0.3128384
vt 0.323864 0.5415735
vt 0.323864 0.5415735
vt 0.6029692 0.3128384
vt 0.3698136 0.5650686
vt 0.3698136 0.5650686
vt 0.6029692 0.3128384
vt 0.5930499 0.5345324
vt 0.5930499 0.5345324
vt 0.6029692 0.3128384
vt 0.6012254 0.4777495
vt 0.6012254 0.4777495
vt 0.6029692 0.3128384
vt 0.6059131 0.3812329
vt 0.6059131 0.3812329
vt 0.6029692 0.3128384
vt 0.6053225 0.3354194
vt 0.6262018 0.4299108
vt 0.5423563 0.365543
vt 0.68238 0.3824987
vt 0.68238 0.3824987
vt 0.5423563 0.365543
vt 0.549013 0.3577988
vt 0.4337969 0.5207598
vt 0.3826908 0.3952822
vt 0.4342188 0.5216129
vt 0.4342188 0.5216129
vt 0.3826908 0.3952822
vt 0.613076 0.4497213
vt 0.613076 0.4497213
vt 0.3826908 0.3952822
vt 0.3504343 0.2845899
vt 0.3504343 0.2845899
vt 0.3826908 0.3952822
vt 0.3560221 0.3087225
vt 0.5320526 0.4220119
vt 0.3851144 0.6276785
vt 0.5433502 0.3703855
vt 0.5433502 0.3703855
vt 0.3851144 0.6276785
vt 0.5069355 0.3474763
vt 0.5069355 0.3474763
vt 0.3851144 0.6276785
vt 0.363771 0.5905982
vt 0.363771 0.5905982
vt 0.3851144 0.6276785
vt 0.3607333 0.6317943
vt 0.3607333 0.6317943
vt 0.3851144 0.6276785
vt 0.361038 0.6328444
vt 0.3136119 0.6881976
vt 0.3110992 0.5130343
vt 0.4582577 0.7104645
vt 0.4582577 0.7104645
vt 0.3110992 0.5130343
vt 0.6242235 0.2968156
vt 0.6100946 0.4849827
vt 0.5629919 0.4794558
vt 0.6164981 0.4802949
vt 0.6164981 0.4802949
vt 0.5629919 0.4794558
vt 0.5999597 0.4533684
vt 0.4486619 0.5330605
vt 0.4419818 0.513925
vt 0.599594 0.5241725
vt 0.599594 0.5241725
vt 0.4419818 0.513925
vt 0.6371149 0.4964209
vt 0.6371149 0.4964209
vt 0.4419818 0.513925
vt 0.6293801 0.4449257
vt 0.6293801 0.4449257
vt 0.4419818 0.513925
vt 0.5799897 0.4264653
vt 0.5799897 0.4264653
vt 0.4419818 0.513925
vt 0.4306749 0.4739664
vt 0.3579207 0.1353313
vt 0.5620731 0.1807979
vt 0.3389446 0.1593655
vt 0.3389446 0.1593655
vt 0.5620731 0.1807979
vt 0.3426432 0.2731986
vt 0.3426432 0.2731986
vt 0.5620731 0.1807979
vt 0.4709007 0.3861082
vt 0.4709007 0.3861082
vt 0.5620731 0.1807979
vt 0.6073757 0.2715626

usemtl Material0
usemap Material0
f 1/1/1 2/2/2 3/3/3
f 4/4/4 5/5/5 6/6/6
f 7/7/7 8/8/8 9/9/9
f 10/10/10 11/11/11 12/12/12
f 13/13/13 14/14/14 15/15/15
f 16/16/16 17/17/17 18/18/18
f 19/19/19 20/20/20 21/21/21
f 22/22/22 23/23/23 24/24/24
f 25/25/25 26/26/26 27/27/27
f 28/28/28 29/29/29 30/30/30
f 31/31/31 32/32/32 33/33/33
f 34/34/34 35/35/35 36/36/36
f 37/37/37 38/38/38 39/39/39
f 40/40/40 41/41/41 42/42/42
f 43/43/43 44/44/44 45/45/45
f 46/46/46 47/47/47 48/48/48
f 49/49/49 50/50/50 51/51/51

usemtl Material1
usemap Material1
f 52/52/52 53/53/53 54/54/54
f 55/55/55 56/56/56 57/57/57
f 58/58/58 59/59/59 60/60/60
f 61/61/61 62/62/62 63/63/63
f 64/64/64 65/65/65 66/66/66
f 67/67/67 68/68/68 69/69/69
f 70/70/70 71/71/71 72/72/72
f 73/73/73 74/74/74 75/75/75
f 76/76/76 77/77/77 78/78/78
f 79/79/79 80/80/80 81/81/81
f 82/82/82 83/83/83 84/84/84
f 85/85/85 86/86/86 87/87/87
f 88/88/88 89/89/89 90/90/90
f 91/91/91 92/92/92 93/93/93
f 94/94/94 95/95/95 96/96/96
f 97/97/97 98/98/98 99/99/99
f 100/100/100 101/101/101 102/102/102
f 103/103/103 104/104/104 105/105/105
f 106/106/106 107/107/107 108/108/108
f 109/109/109 110/110/110 111/111/111
f 112/112/112 113/113/113 114/114/114
f 115/115/115 116/116/116 117/117/117
f 118/118/118 119/119/119 120/120/120
f 121/121/121 122/122/122 123/123/123
f 124/124/124 125/125/125 126/126/126
f 127/127/127 128/128/128 129/129/129
f 130/130/130 131/131/131 132/132/132
f 133/133/133 134/134/134 135/135/135
f 136/136/136 137/137/137 138/138/138
f 139/139/139 140/140/140 141/141/141
f 142/142/142 143/143/143 144/144/144
f 145/145/145 146/146/146 147/147/147
f 148/148/148 149/149/149 150/150/150
f 151/151/151 152/152/152 153/153/153
f 154/154/154 155/155/155 156/156/156
f 157/157/157 158/158/158 159/159/159
f 160/160/160 161/161/161 162/162/162
f 163/163/163 164/164/164 165/165/165
f 166/166/166 167/167/167 168/168/168
f 169/169/169 170/170/170 171/171/171
f 172/172/172 173/173/173 174/174/174
f 175/175/175 176/176/176 177/177/177
f 178/178/178 179/179/179 180/180/180
f 181/181/181 182/182/182 183/183/183
f 184/184/184 185/185/185 186/186/186
