g  Instance
v -3.152508 -52.29041 -9.209547
v -4.022764 -52.92268 -8.653734
v -3.380416 -52.16634 -9.140725
v -3.380416 -52.16634 -9.140725
v -3.336076 -52.11757 -9.166316
v -3.152508 -52.29041 -9.209547
v -3.152508 -52.29041 -9.209547
v -3.336076 -52.11757 -9.166316
v -3.158153 -52.17863 -9.226035
v -3.046476 -52.21337 -9.254009
v -3.152508 -52.29041 -9.209547
v -3.158153 -52.17863 -9.226035
v -1.472443 -54.76619 -8.622177
v -2.410674 -55.03966 -8.278709
v -1.557752 -54.38758 -8.830568
v -2.889178 -53.70264 -8.828541
v -1.817493 -52.88694 -9.392069
v -1.599805 -54.17364 -8.927564
v -1.557752 -54.38758 -8.830568
v -2.410674 -55.03966 -8.278709
v -1.599805 -54.17364 -8.927564
v -1.599805 -54.17364 -8.927564
v -2.410674 -55.03966 -8.278709
v -2.889178 -53.70264 -8.828541
v -2.889178 -53.70264 -8.828541
v -2.410674 -55.03966 -8.278709
v -2.547628 -55.07754 -8.223824
v -3.992742 -54.50441 -7.985503
v -2.889178 -53.70264 -8.828541
v -2.623048 -55.09515 -8.186039
v -2.623048 -55.09515 -8.186039
v -2.889178 -53.70264 -8.828541
v -2.547628 -55.07754 -8.223824
v -2.623048 -55.09515 -8.186039
v -3.664544 -55.30823 -7.594009
v -3.992742 -54.50441 -7.985503
v -3.992742 -54.50441 -7.985503
v -3.664544 -55.30823 -7.594009
v -3.818865 -55.14174 -7.637744
v -3.992742 -54.50441 -7.985503
v -3.818865 -55.14174 -7.637744
v -4.230319 -54.66737 -7.737586
v -3.152508 -52.29041 -9.209547
v -3.046476 -52.21337 -9.254009
v -1.830895 -52.79486 -9.417969
v -1.830895 -52.79486 -9.417969
v -3.046476 -52.21337 -9.254009
v -1.860936 -52.55085 -9.468131
v -3.152508 -52.29041 -9.209547
v -1.830895 -52.79486 -9.417969
v -2.889178 -53.70264 -8.828541
v -2.889178 -53.70264 -8.828541
v -1.830895 -52.79486 -9.417969
v -1.817493 -52.88694 -9.392069
v -4.187551 -53.11961 -8.522045
v -4.022764 -52.92268 -8.653734
v -2.889178 -53.70264 -8.828541
v -2.889178 -53.70264 -8.828541
v -4.022764 -52.92268 -8.653734
v -3.152508 -52.29041 -9.209547
v -3.992742 -54.50441 -7.985503
v -4.236243 -53.18233 -8.47257
v -2.889178 -53.70264 -8.828541
v -2.889178 -53.70264 -8.828541
v -4.236243 -53.18233 -8.47257
v -4.187551 -53.11961 -8.522045
v -4.236243 -53.18233 -8.47257
v -3.992742 -54.50441 -7.985503
v -4.769403 -53.91224 -7.830376
v -4.769403 -53.91224 -7.830376
v -3.992742 -54.50441 -7.985503
v -4.775462 -53.93851 -7.814604
v -4.775462 -53.93851 -7.814604
v -3.992742 -54.50441 -7.985503
v -4.613339 -54.1664 -7.797829
v -3.992742 -54.50441 -7.985503
v -4.230319 -54.66737 -7.737586
v -4.613339 -54.1664 -7.797829
v -1.578644 -52.68076 -8.543018
v -1.774241 -52.45135 -9.154782
v -2.038354 -52.23569 -8.734866
v -3.41658 -52.98116 -7.314012
v -4.769403 -53.91224 -7.830376
v -3.35922 -53.57208 -6.776243
v -3.35922 -53.57208 -6.776243
v -4.769403 -53.91224 -7.830376
v -3.732474 -53.88713 -6.871124
v -3.732474 -53.88713 -6.871124
v -4.769403 -53.91224 -7.830376
v -4.775462 -53.93851 -7.814604
v -1.774241 -52.45135 -9.154782
v -1.860936 -52.55085 -9.468131
v -2.038354 -52.23569 -8.734866
v -2.038354 -52.23569 -8.734866
v -1.860936 -52.55085 -9.468131
v -2.870242 -51.98551 -8.549193
v -2.870242 -51.98551 -8.549193
v -1.860936 -52.55085 -9.468131
v -3.336076 -52.11757 -9.166316
v -3.336076 -52.11757 -9.166316
v -1.860936 -52.55085 -9.468131
v -3.158153 -52.17863 -9.226035
v -3.158153 -52.17863 -9.226035
v -1.860936 -52.55085 -9.468131
v -3.046476 -52.21337 -9.254009
v -3.732474 -53.88713 -6.871124
v -4.775462 -53.93851 -7.814604
v -3.062278 -54.28954 -6.504624
v -3.062278 -54.28954 -6.504624
v -4.775462 -53.93851 -7.814604
v -3.031984 -54.62446 -6.662457
v -3.031984 -54.62446 -6.662457
v -4.775462 -53.93851 -7.814604
v -3.664544 -55.30823 -7.594009
v -3.664544 -55.30823 -7.594009
v -4.775462 -53.93851 -7.814604
v -3.818865 -55.14174 -7.637744
v -3.818865 -55.14174 -7.637744
v -4.775462 -53.93851 -7.814604
v -4.230319 -54.66737 -7.737586
v -4.230319 -54.66737 -7.737586
v -4.775462 -53.93851 -7.814604
v -4.613339 -54.1664 -7.797829
v -3.35922 -53.57208 -6.776243
v -3.732474 -53.88713 -6.871124
v -2.946793 -54.08255 -6.497455
v -2.946793 -54.08255 -6.497455
v -3.732474 -53.88713 -6.871124
v -3.062278 -54.28954 -6.504624
v -1.557752 -54.38758 -8.830568
v -1.599805 -54.17364 -8.927564
v -1.472443 -54.76619 -8.622177
v -1.472443 -54.76619 -8.622177
v -1.599805 -54.17364 -8.927564
v -1.237818 -54.27701 -7.728019
v -1.237818 -54.27701 -7.728019
v -1.599805 -54.17364 -8.927564
v -1.224504 -54.00837 -7.62675
v -1.224504 -54.00837 -7.62675
v -1.599805 -54.17364 -8.927564
v -1.312279 -53.56573 -7.830027
v -1.312279 -53.56573 -7.830027
v -1.599805 -54.17364 -8.927564
v -1.578644 -52.68076 -8.543018
v -1.578644 -52.68076 -8.543018
v -1.599805 -54.17364 -8.927564
v -1.774241 -52.45135 -9.154782
v -1.774241 -52.45135 -9.154782
v -1.599805 -54.17364 -8.927564
v -1.860936 -52.55085 -9.468131
v -1.860936 -52.55085 -9.468131
v -1.599805 -54.17364 -8.927564
v -1.830895 -52.79486 -9.417969
v -1.830895 -52.79486 -9.417969
v -1.599805 -54.17364 -8.927564
v -1.817493 -52.88694 -9.392069
v -2.946793 -54.08255 -6.497455
v -3.062278 -54.28954 -6.504624
v -1.253096 -53.88284 -7.555984
v -1.253096 -53.88284 -7.555984
v -3.062278 -54.28954 -6.504624
v -1.224504 -54.00837 -7.62675
v -1.224504 -54.00837 -7.62675
v -3.062278 -54.28954 -6.504624
v -1.237818 -54.27701 -7.728019
v -1.237818 -54.27701 -7.728019
v -3.062278 -54.28954 -6.504624
v -3.031984 -54.62446 -6.662457
v -2.946793 -54.08255 -6.497455
v -1.253096 -53.88284 -7.555984
v -3.35922 -53.57208 -6.776243
v -3.35922 -53.57208 -6.776243
v -1.253096 -53.88284 -7.555984
v -3.41658 -52.98116 -7.314012
v -3.41658 -52.98116 -7.314012
v -1.253096 -53.88284 -7.555984
v -2.870242 -51.98551 -8.549193
v -2.870242 -51.98551 -8.549193
v -1.253096 -53.88284 -7.555984
v -2.038354 -52.23569 -8.734866
v -2.038354 -52.23569 -8.734866
v -1.253096 -53.88284 -7.555984
v -1.578644 -52.68076 -8.543018
v -1.578644 -52.68076 -8.543018
v -1.253096 -53.88284 -7.555984
v -1.312279 -53.56573 -7.830027
v -3.380416 -52.16634 -9.140725
v -4.022764 -52.92268 -8.653734
v -3.336076 -52.11757 -9.166316
v -3.336076 -52.11757 -9.166316
v -4.022764 -52.92268 -8.653734
v -2.870242 -51.98551 -8.549193
v -2.870242 -51.98551 -8.549193
v -4.022764 -52.92268 -8.653734
v -3.41658 -52.98116 -7.314012
v -3.41658 -52.98116 -7.314012
v -4.022764 -52.92268 -8.653734
v -4.769403 -53.91224 -7.830376
v -4.769403 -53.91224 -7.830376
v -4.022764 -52.92268 -8.653734
v -4.236243 -53.18233 -8.47257
v -4.236243 -53.18233 -8.47257
v -4.022764 -52.92268 -8.653734
v -4.187551 -53.11961 -8.522045
v -2.623048 -55.09515 -8.186039
v -2.547628 -55.07754 -8.223824
v -3.664544 -55.30823 -7.594009
v -3.664544 -55.30823 -7.594009
v -2.547628 -55.07754 -8.223824
v -3.031984 -54.62446 -6.662457
v -3.031984 -54.62446 -6.662457
v -2.547628 -55.07754 -8.223824
v -1.237818 -54.27701 -7.728019
v -1.237818 -54.27701 -7.728019
v -2.547628 -55.07754 -8.223824
v -1.472443 -54.76619 -8.622177
v -1.472443 -54.76619 -8.622177
v -2.547628 -55.07754 -8.223824
v -2.410674 -55.03966 -8.278709
v -1.312279 -53.56573 -7.830027
v -1.253096 -53.88284 -7.555984
v -1.224504 -54.00837 -7.62675

vn -0.3960459 -0.2351578 -0.8876083
vn -0.3960459 -0.2351578 -0.8876083
vn -0.3960459 -0.2351578 -0.8876083
vn -0.3614774 -0.1539152 -0.9195892
vn -0.3614774 -0.1539152 -0.9195892
vn -0.3614774 -0.1539152 -0.9195892
vn -0.3614774 -0.1539152 -0.9195892
vn -0.3614774 -0.1539152 -0.9195892
vn -0.3614774 -0.1539152 -0.9195892
vn -0.2848833 -0.15396 -0.9461172
vn -0.2848833 -0.15396 -0.9461172
vn -0.2848833 -0.15396 -0.9461172
vn -0.1636814 -0.5037457 -0.8482032
vn -0.1636814 -0.5037457 -0.8482032
vn -0.1636814 -0.5037457 -0.8482032
vn -0.2023347 -0.3626387 -0.9096999
vn -0.2023347 -0.3626387 -0.9096999
vn -0.2023347 -0.3626387 -0.9096999
vn -0.2270631 -0.4388008 -0.869423
vn -0.2270631 -0.4388008 -0.869423
vn -0.2270631 -0.4388008 -0.869423
vn -0.2270631 -0.4388008 -0.869423
vn -0.2270631 -0.4388008 -0.869423
vn -0.2270631 -0.4388008 -0.869423
vn -0.2270631 -0.4388008 -0.869423
vn -0.2270631 -0.4388008 -0.869423
vn -0.2270631 -0.4388008 -0.869423
vn -0.315214 -0.4466008 -0.8373696
vn -0.315214 -0.4466008 -0.8373696
vn -0.315214 -0.4466008 -0.8373696
vn -0.315214 -0.4466008 -0.8373696
vn -0.315214 -0.4466008 -0.8373696
vn -0.315214 -0.4466008 -0.8373696
vn -0.3391233 -0.5202172 -0.7838172
vn -0.3391233 -0.5202172 -0.7838172
vn -0.3391233 -0.5202172 -0.7838172
vn -0.3391233 -0.5202172 -0.7838172
vn -0.3391233 -0.5202172 -0.7838172
vn -0.3391233 -0.5202172 -0.7838172
vn -0.4193777 -0.5203287 -0.7438955
vn -0.4193777 -0.5203287 -0.7438955
vn -0.4193777 -0.5203287 -0.7438955
vn -0.2344612 -0.2233609 -0.9461172
vn -0.2344612 -0.2233609 -0.9461172
vn -0.2344612 -0.2233609 -0.9461172
vn -0.2344612 -0.2233609 -0.9461172
vn -0.2344612 -0.2233609 -0.9461172
vn -0.2344612 -0.2233609 -0.9461172
vn -0.258088 -0.2962201 -0.9195892
vn -0.258088 -0.2962201 -0.9195892
vn -0.258088 -0.2962201 -0.9195892
vn -0.258088 -0.2962201 -0.9195892
vn -0.258088 -0.2962201 -0.9195892
vn -0.258088 -0.2962201 -0.9195892
vn -0.346036 -0.303991 -0.8876084
vn -0.346036 -0.303991 -0.8876084
vn -0.346036 -0.303991 -0.8876084
vn -0.346036 -0.303991 -0.8876084
vn -0.346036 -0.303991 -0.8876084
vn -0.346036 -0.303991 -0.8876084
vn -0.3708206 -0.3804182 -0.8472155
vn -0.3708206 -0.3804182 -0.8472155
vn -0.3708206 -0.3804182 -0.8472155
vn -0.3708206 -0.3804182 -0.8472155
vn -0.3708206 -0.3804182 -0.8472155
vn -0.3708206 -0.3804182 -0.8472155
vn -0.451334 -0.3804934 -0.8071693
vn -0.451334 -0.3804934 -0.8071693
vn -0.451334 -0.3804934 -0.8071693
vn -0.451334 -0.3804934 -0.8071693
vn -0.451334 -0.3804934 -0.8071693
vn -0.451334 -0.3804934 -0.8071693
vn -0.451334 -0.3804934 -0.8071693
vn -0.451334 -0.3804934 -0.8071693
vn -0.451334 -0.3804934 -0.8071693
vn -0.4751856 -0.4539482 -0.7537438
vn -0.4751856 -0.4539482 -0.7537438
vn -0.4751856 -0.4539482 -0.7537438
vn 0.682567 0.7287483 0.05503021
vn 0.682567 0.7287483 0.05503021
vn 0.682567 0.7287483 0.05503021
vn -0.5902777 0.5112047 0.6246936
vn -0.5902777 0.5112047 0.6246936
vn -0.5902777 0.5112047 0.6246936
vn -0.5902777 0.5112047 0.6246936
vn -0.5902777 0.5112047 0.6246936
vn -0.5902777 0.5112047 0.6246936
vn -0.5902777 0.5112047 0.6246936
vn -0.5902777 0.5112047 0.6246936
vn -0.5902777 0.5112047 0.6246936
vn 0.19852 0.9169605 -0.3460829
vn 0.19852 0.9169605 -0.3460829
vn 0.19852 0.9169605 -0.3460829
vn 0.19852 0.9169605 -0.3460829
vn 0.19852 0.9169605 -0.3460829
vn 0.19852 0.9169605 -0.3460829
vn 0.19852 0.9169605 -0.3460829
vn 0.19852 0.9169605 -0.3460829
vn 0.19852 0.9169605 -0.3460829
vn 0.19852 0.9169605 -0.3460829
vn 0.19852 0.9169605 -0.3460829
vn 0.19852 0.9169605 -0.3460829
vn 0.19852 0.9169605 -0.3460829
vn 0.19852 0.9169605 -0.3460829
vn 0.19852 0.9169605 -0.3460829
vn -0.6094224 -0.3824188 0.6945217
vn -0.6094224 -0.3824188 0.6945217
vn -0.6094224 -0.3824188 0.6945217
vn -0.6094224 -0.3824188 0.6945217
vn -0.6094224 -0.3824188 0.6945217
vn -0.6094224 -0.3824188 0.6945217
vn -0.6094224 -0.3824188 0.6945217
vn -0.6094224 -0.3824188 0.6945217
vn -0.6094224 -0.3824188 0.6945217
vn -0.6094224 -0.3824188 0.6945217
vn -0.6094224 -0.3824188 0.6945217
vn -0.6094224 -0.3824188 0.6945217
vn -0.6094224 -0.3824188 0.6945217
vn -0.6094224 -0.3824188 0.6945217
vn -0.6094224 -0.3824188 0.6945217
vn -0.6094224 -0.3824188 0.6945217
vn -0.6094224 -0.3824188 0.6945217
vn -0.6094224 -0.3824188 0.6945217
vn -0.3846646 0.1832986 0.9046739
vn -0.3846646 0.1832986 0.9046739
vn -0.3846646 0.1832986 0.9046739
vn -0.3846646 0.1832986 0.9046739
vn -0.3846646 0.1832986 0.9046739
vn -0.3846646 0.1832986 0.9046739
vn 0.9570683 0.0595071 -0.2836885
vn 0.9570683 0.0595071 -0.2836885
vn 0.9570683 0.0595071 -0.2836885
vn 0.9570683 0.0595071 -0.2836885
vn 0.9570683 0.0595071 -0.2836885
vn 0.9570683 0.0595071 -0.2836885
vn 0.9570683 0.0595071 -0.2836885
vn 0.9570683 0.0595071 -0.2836885
vn 0.9570683 0.0595071 -0.2836885
vn 0.9570683 0.0595071 -0.2836885
vn 0.9570683 0.0595071 -0.2836885
vn 0.9570683 0.0595071 -0.2836885
vn 0.9570683 0.0595071 -0.2836885
vn 0.9570683 0.0595071 -0.2836885
vn 0.9570683 0.0595071 -0.2836885
vn 0.9570683 0.0595071 -0.2836885
vn 0.9570683 0.0595071 -0.2836885
vn 0.9570683 0.0595071 -0.2836885
vn 0.9570683 0.0595071 -0.2836885
vn 0.9570683 0.0595071 -0.2836885
vn 0.9570683 0.0595071 -0.2836885
vn 0.9570683 0.0595071 -0.2836885
vn 0.9570683 0.0595071 -0.2836885
vn 0.9570683 0.0595071 -0.2836885
vn 0.9570683 0.0595071 -0.2836885
vn 0.9570683 0.0595071 -0.2836885
vn 0.9570683 0.0595071 -0.2836885
vn 0.5287599 -0.3222161 0.7852323
vn 0.5287599 -0.3222161 0.7852323
vn 0.5287599 -0.3222161 0.7852323
vn 0.5287599 -0.3222161 0.7852323
vn 0.5287599 -0.3222161 0.7852323
vn 0.5287599 -0.3222161 0.7852323
vn 0.5287599 -0.3222161 0.7852323
vn 0.5287599 -0.3222161 0.7852323
vn 0.5287599 -0.3222161 0.7852323
vn 0.5287599 -0.3222161 0.7852323
vn 0.5287599 -0.3222161 0.7852323
vn 0.5287599 -0.3222161 0.7852323
vn 0.3464114 0.6495535 0.6768156
vn 0.3464114 0.6495535 0.6768156
vn 0.3464114 0.6495535 0.6768156
vn 0.3464114 0.6495535 0.6768156
vn 0.3464114 0.6495535 0.6768156
vn 0.3464114 0.6495535 0.6768156
vn 0.3464114 0.6495535 0.6768156
vn 0.3464114 0.6495535 0.6768156
vn 0.3464114 0.6495535 0.6768156
vn 0.3464114 0.6495535 0.6768156
vn 0.3464114 0.6495535 0.6768156
vn 0.3464114 0.6495535 0.6768156
vn 0.3464114 0.6495535 0.6768156
vn 0.3464114 0.6495535 0.6768156
vn 0.3464114 0.6495535 0.6768156
vn 0.3464114 0.6495535 0.6768156
vn 0.3464114 0.6495535 0.6768156
vn 0.3464114 0.6495535 0.6768156
vn -0.6164998 0.7235336 0.3105271
vn -0.6164998 0.7235336 0.3105271
vn -0.6164998 0.7235336 0.3105271
vn -0.6164998 0.7235336 0.3105271
vn -0.6164998 0.7235336 0.3105271
vn -0.6164998 0.7235336 0.3105271
vn -0.6164998 0.7235336 0.3105271
vn -0.6164998 0.7235336 0.3105271
vn -0.6164998 0.7235336 0.3105271
vn -0.6164998 0.7235336 0.3105271
vn -0.6164998 0.7235336 0.3105271
vn -0.6164998 0.7235336 0.3105271
vn -0.6164998 0.7235336 0.3105271
vn -0.6164998 0.7235336 0.3105271
vn -0.6164998 0.7235336 0.3105271
vn -0.6164998 0.7235336 0.3105271
vn -0.6164998 0.7235336 0.3105271
vn -0.6164998 0.7235336 0.3105271
vn 0.3811436 -0.8495218 0.3647498
vn 0.3811436 -0.8495218 0.3647498
vn 0.3811436 -0.8495218 0.3647498
vn 0.3811436 -0.8495218 0.3647498
vn 0.3811436 -0.8495218 0.3647498
vn 0.3811436 -0.8495218 0.3647498
vn 0.3811436 -0.8495218 0.3647498
vn 0.3811436 -0.8495218 0.3647498
vn 0.3811436 -0.8495218 0.3647498
vn 0.3811436 -0.8495218 0.3647498
vn 0.3811436 -0.8495218 0.3647498
vn 0.3811436 -0.8495218 0.3647498
vn 0.3811436 -0.8495218 0.3647498
vn 0.3811436 -0.8495218 0.3647498
vn 0.3811436 -0.8495218 0.3647498
vn 0.9779672 0.2068526 0.02814617
vn 0.9779672 0.2068526 0.02814617
vn 0.9779672 0.2068526 0.02814617

vt 0.6704539 0.05904788
vt 0.6794383 0.07460945
vt 0.6684013 0.06260316
vt 0.6684013 0.06260316
vt 0.6677053 0.0618524
vt 0.6704539 0.05904788
vt 0.6704539 0.05904788
vt 0.6677053 0.0618524
vt 0.6687699 0.05904788
vt 0.6693788 0.05718566
vt 0.6704539 0.05904788
vt 0.6687699 0.05904788
vt 0.8191817 0.08723878
vt 0.808031 0.096311
vt 0.8164467 0.08173438
vt 0.7954537 0.0787305
vt 0.806064 0.06035279
vt 0.8148965 0.07873051
vt 0.8164467 0.08173438
vt 0.808031 0.096311
vt 0.8148965 0.07873051
vt 0.8148965 0.07873051
vt 0.808031 0.096311
vt 0.7954537 0.0787305
vt 0.7954537 0.0787305
vt 0.808031 0.096311
vt 0.8063714 0.09764074
vt 0.7840901 0.09841312
vt 0.7954537 0.0787305
vt 0.8054253 0.09841314
vt 0.8054253 0.09841314
vt 0.7954537 0.0787305
vt 0.8063714 0.09764074
vt 0.8054253 0.09841314
vt 0.7922231 0.1091702
vt 0.7840901 0.09841312
vt 0.7840901 0.09841312
vt 0.7922231 0.1091702
vt 0.7893634 0.1075469
vt 0.7840901 0.09841312
vt 0.7893634 0.1075469
vt 0.7813278 0.1031976
vt 0.7840902 0.05904788
vt 0.7851653 0.05718566
vt 0.8053759 0.05904788
vt 0.8053759 0.05904788
vt 0.7851653 0.05718566
vt 0.8036402 0.05536259
vt 0.7840902 0.05904788
vt 0.8053759 0.05904788
vt 0.7954537 0.0787305
vt 0.7954537 0.0787305
vt 0.8053759 0.05904788
vt 0.806064 0.06035279
vt 0.7738208 0.0787305
vt 0.7751058 0.07460945
vt 0.7954537 0.0787305
vt 0.7954537 0.0787305
vt 0.7751058 0.07460945
vt 0.7840902 0.05904788
vt 0.7840901 0.09841312
vt 0.7734675 0.08001383
vt 0.7954537 0.0787305
vt 0.7954537 0.0787305
vt 0.7734675 0.08001383
vt 0.7738208 0.0787305
vt 0.7734675 0.08001383
vt 0.7840901 0.09841312
vt 0.7692105 0.09579641
vt 0.7692105 0.09579641
vt 0.7840901 0.09841312
vt 0.7692563 0.09625384
vt 0.7692563 0.09625384
vt 0.7840901 0.09841312
vt 0.772909 0.09841312
vt 0.7840901 0.09841312
vt 0.7813278 0.1031976
vt 0.772909 0.09841312
vt 0.439291 0.5257475
vt 0.4097956 0.5860698
vt 0.3763014 0.544658
vt 0.5537664 0.5228224
vt 0.3536595 0.6060678
vt 0.5022572 0.4361174
vt 0.5022572 0.4361174
vt 0.3536595 0.6060678
vt 0.441513 0.4514136
vt 0.441513 0.4514136
vt 0.3536595 0.6060678
vt 0.3506593 0.6035271
vt 0.5218895 0.4995617
vt 0.5152141 0.5345606
vt 0.4900596 0.4526605
vt 0.4900596 0.4526605
vt 0.5152141 0.5345606
vt 0.3993184 0.4319265
vt 0.3993184 0.4319265
vt 0.5152141 0.5345606
vt 0.3545408 0.5008461
vt 0.3545408 0.5008461
vt 0.5152141 0.5345606
vt 0.3741169 0.5075215
vt 0.3741169 0.5075215
vt 0.5152141 0.5345606
vt 0.3863239 0.5106435
vt 0.6414089 0.4212665
vt 0.7112192 0.6004425
vt 0.5461534 0.3516625
vt 0.5461534 0.3516625
vt 0.7112192 0.6004425
vt 0.5051917 0.3816361
vt 0.5051917 0.3816361
vt 0.7112192 0.6004425
vt 0.4719976 0.5585526
vt 0.4719976 0.5585526
vt 0.7112192 0.6004425
vt 0.5024728 0.5668593
vt 0.5024728 0.5668593
vt 0.7112192 0.6004425
vt 0.5872652 0.585826
vt 0.5872652 0.585826
vt 0.7112192 0.6004425
vt 0.6730701 0.5972642
vt 0.5499505 0.499496
vt 0.5190675 0.5425673
vt 0.4907627 0.4519105
vt 0.4907627 0.4519105
vt 0.5190675 0.5425673
vt 0.4693115 0.4652378
vt 0.4913346 0.5157157
vt 0.4691802 0.5260851
vt 0.5306181 0.4934394
vt 0.5306181 0.4934394
vt 0.4691802 0.5260851
vt 0.4820575 0.3978417
vt 0.4820575 0.3978417
vt 0.4691802 0.5260851
vt 0.4546528 0.3870177
vt 0.4546528 0.3870177
vt 0.4691802 0.5260851
vt 0.4088064 0.4087502
vt 0.4088064 0.4087502
vt 0.4691802 0.5260851
vt 0.3165558 0.4849827
vt 0.3165558 0.4849827
vt 0.4691802 0.5260851
vt 0.2918419 0.5503865
vt 0.2918419 0.5503865
vt 0.4691802 0.5260851
vt 0.3014705 0.5838853
vt 0.3014705 0.5838853
vt 0.4691802 0.5260851
vt 0.3266298 0.5785319
vt 0.3266298 0.5785319
vt 0.4691802 0.5260851
vt 0.3361366 0.5757567
vt 0.478012 0.2456158
vt 0.5156173 0.2474534
vt 0.3110055 0.5170283
vt 0.3110055 0.5170283
vt 0.5156173 0.2474534
vt 0.3256641 0.5351794
vt 0.3256641 0.5351794
vt 0.5156173 0.2474534
vt 0.363185 0.5611402
vt 0.363185 0.5611402
vt 0.5156173 0.2474534
vt 0.5585198 0.2879229
vt 0.4170616 0.3238359
vt 0.6040943 0.5158657
vt 0.3363851 0.3744123
vt 0.3363851 0.3744123
vt 0.6040943 0.5158657
vt 0.2924935 0.4719695
vt 0.2924935 0.4719695
vt 0.6040943 0.5158657
vt 0.2943029 0.6960449
vt 0.2943029 0.6960449
vt 0.6040943 0.5158657
vt 0.4080517 0.7297218
vt 0.4080517 0.7297218
vt 0.6040943 0.5158657
vt 0.4901908 0.6949198
vt 0.4901908 0.6949198
vt 0.6040943 0.5158657
vt 0.5771865 0.5655749
vt 0.57383 0.6475077
vt 0.472532 0.5945359
vt 0.5805898 0.6502923
vt 0.5805898 0.6502923
vt 0.472532 0.5945359
vt 0.6261174 0.583154
vt 0.6261174 0.583154
vt 0.472532 0.5945359
vt 0.5163298 0.448765
vt 0.5163298 0.448765
vt 0.472532 0.5945359
vt 0.3473826 0.5049433
vt 0.3473826 0.5049433
vt 0.472532 0.5945359
vt 0.4383112 0.5748191
vt 0.4383112 0.5748191
vt 0.472532 0.5945359
vt 0.4463508 0.5802007
vt 0.5288556 0.5018212
vt 0.5208207 0.5061058
vt 0.6383994 0.4346876
vt 0.6383994 0.4346876
vt 0.5208207 0.5061058
vt 0.5479066 0.3290534
vt 0.5479066 0.3290534
vt 0.5208207 0.5061058
vt 0.3600489 0.4498854
vt 0.3600489 0.4498854
vt 0.5208207 0.5061058
vt 0.4037952 0.5512772
vt 0.4037952 0.5512772
vt 0.5208207 0.5061058
vt 0.505998 0.5123312
vt 0.4309327 0.4490041
vt 0.4626502 0.42204
vt 0.4753118 0.429006

usemtl Material0
usemap Material0
f 1/1/1 2/2/2 3/3/3
f 4/4/4 5/5/5 6/6/6
f 7/7/7 8/8/8 9/9/9
f 10/10/10 11/11/11 12/12/12
f 13/13/13 14/14/14 15/15/15
f 16/16/16 17/17/17 18/18/18
f 19/19/19 20/20/20 21/21/21
f 22/22/22 23/23/23 24/24/24
f 25/25/25 26/26/26 27/27/27
f 28/28/28 29/29/29 30/30/30
f 31/31/31 32/32/32 33/33/33
f 34/34/34 35/35/35 36/36/36
f 37/37/37 38/38/38 39/39/39
f 40/40/40 41/41/41 42/42/42
f 43/43/43 44/44/44 45/45/45
f 46/46/46 47/47/47 48/48/48
f 49/49/49 50/50/50 51/51/51
f 52/52/52 53/53/53 54/54/54
f 55/55/55 56/56/56 57/57/57
f 58/58/58 59/59/59 60/60/60
f 61/61/61 62/62/62 63/63/63
f 64/64/64 65/65/65 66/66/66
f 67/67/67 68/68/68 69/69/69
f 70/70/70 71/71/71 72/72/72
f 73/73/73 74/74/74 75/75/75
f 76/76/76 77/77/77 78/78/78

usemtl Material1
usemap Material1
f 79/79/79 80/80/80 81/81/81
f 82/82/82 83/83/83 84/84/84
f 85/85/85 86/86/86 87/87/87
f 88/88/88 89/89/89 90/90/90
f 91/91/91 92/92/92 93/93/93
f 94/94/94 95/95/95 96/96/96
f 97/97/97 98/98/98 99/99/99
f 100/100/100 101/101/101 102/102/102
f 103/103/103 104/104/104 105/105/105
f 106/106/106 107/107/107 108/108/108
f 109/109/109 110/110/110 111/111/111
f 112/112/112 113/113/113 114/114/114
f 115/115/115 116/116/116 117/117/117
f 118/118/118 119/119/119 120/120/120
f 121/121/121 122/122/122 123/123/123
f 124/124/124 125/125/125 126/126/126
f 127/127/127 128/128/128 129/129/129
f 130/130/130 131/131/131 132/132/132
f 133/133/133 134/134/134 135/135/135
f 136/136/136 137/137/137 138/138/138
f 139/139/139 140/140/140 141/141/141
f 142/142/142 143/143/143 144/144/144
f 145/145/145 146/146/146 147/147/147
f 148/148/148 149/149/149 150/150/150
f 151/151/151 152/152/152 153/153/153
f 154/154/154 155/155/155 156/156/156
f 157/157/157 158/158/158 159/159/159
f 160/160/160 161/161/161 162/162/162
f 163/163/163 164/164/164 165/165/165
f 166/166/166 167/167/167 168/168/168
f 169/169/169 170/170/170 171/171/171
f 172/172/172 173/173/173 174/174/174
f 175/175/175 176/176/176 177/177/177
f 178/178/178 179/179/179 180/180/180
f 181/181/181 182/182/182 183/183/183
f 184/184/184 185/185/185 186/186/186
f 187/187/187 188/188/188 189/189/189
f 190/190/190 191/191/191 192/192/192
f 193/193/193 194/194/194 195/195/195
f 196/196/196 197/197/197 198/198/198
f 199/199/199 200/200/200 201/201/201
f 202/202/202 203/203/203 204/204/204
f 205/205/205 206/206/206 207/207/207
f 208/208/208 209/209/209 210/210/210
f 211/211/211 212/212/212 213/213/213
f 214/214/214 215/215/215 216/216/216
f 217/217/217 218/218/218 219/219/219
f 220/220/220 221/221/221 222/222/222
