g  Instance
v -1.592542 -56.97639 -1.680175
v -0.2038312 -56.95097 -0.08216411
v -1.62641 -56.56078 -1.705544
v -1.62641 -56.56078 -1.705544
v -0.2038312 -56.95097 -0.08216411
v -1.479802 -55.73981 -1.510099
v -1.479802 -55.73981 -1.510099
v -0.2038312 -56.95097 -0.08216411
v -0.8365992 -55.39495 -0.7590706
v 0.3712566 -57.18998 -0.3970354
v -0.07980233 -57.43785 -0.603125
v 0.9632175 -57.08445 -1.062676
v 0.9632175 -57.08445 -1.062676
v -0.07980233 -57.43785 -0.603125
v -0.1852868 -57.8222 -2.041452
v -0.1852868 -57.8222 -2.041452
v -0.07980233 -57.43785 -0.603125
v -0.5976618 -57.97483 -1.914736
v 0.9632175 -57.08445 -1.062676
v -0.1852868 -57.8222 -2.041452
v 1.139313 -56.79364 -1.433343
v 1.139313 -56.79364 -1.433343
v -0.1852868 -57.8222 -2.041452
v 0.1799645 -57.3286 -2.489098
v 0.1260766 -54.87312 -1.692215
v -0.6530159 -54.58968 -2.302309
v 0.004534241 -54.8634 -1.576421
v 0.004534241 -54.8634 -1.576421
v -0.6530159 -54.58968 -2.302309
v -0.6163988 -54.7624 -1.298891
v -0.6163988 -54.7624 -1.298891
v -0.6530159 -54.58968 -2.302309
v -0.666989 -54.72429 -1.459008
v -0.666989 -54.72429 -1.459008
v -0.6530159 -54.58968 -2.302309
v -0.6646321 -54.60436 -2.195774
v -0.5350776 -56.84315 -2.971416
v -1.096069 -57.73859 -2.155347
v -0.8863444 -55.37115 -2.783439
v -0.8863444 -55.37115 -2.783439
v -1.096069 -57.73859 -2.155347
v -1.62641 -56.56078 -1.705544
v -1.62641 -56.56078 -1.705544
v -1.096069 -57.73859 -2.155347
v -1.592542 -56.97639 -1.680175
v -0.07980233 -57.43785 -0.603125
v 0.3712566 -57.18998 -0.3970354
v -0.08686045 -57.04839 -0.0826388
v -0.08686045 -57.04839 -0.0826388
v 0.3712566 -57.18998 -0.3970354
v 0.02889349 -57.06464 -0.1360863
v -0.6163988 -54.7624 -1.298891
v -0.666989 -54.72429 -1.459008
v -0.8365992 -55.39495 -0.7590706
v -0.8365992 -55.39495 -0.7590706
v -0.666989 -54.72429 -1.459008
v -1.479802 -55.73981 -1.510099
v -1.479802 -55.73981 -1.510099
v -0.666989 -54.72429 -1.459008
v -1.210673 -55.19169 -1.821368
v -1.210673 -55.19169 -1.821368
v -0.666989 -54.72429 -1.459008
v -0.8874524 -54.8516 -1.702324
v -0.8863444 -55.37115 -2.783439
v -1.62641 -56.56078 -1.705544
v -0.8250062 -54.76729 -2.519722
v -0.8250062 -54.76729 -2.519722
v -1.62641 -56.56078 -1.705544
v -1.210673 -55.19169 -1.821368
v -1.210673 -55.19169 -1.821368
v -1.62641 -56.56078 -1.705544
v -1.479802 -55.73981 -1.510099
v -1.592542 -56.97639 -1.680175
v -1.096069 -57.73859 -2.155347
v -0.2038312 -56.95097 -0.08216411
v -0.2038312 -56.95097 -0.08216411
v -1.096069 -57.73859 -2.155347
v -0.08686045 -57.04839 -0.0826388
v -0.08686045 -57.04839 -0.0826388
v -1.096069 -57.73859 -2.155347
v -0.07980233 -57.43785 -0.603125
v -0.07980233 -57.43785 -0.603125
v -1.096069 -57.73859 -2.155347
v -0.5976618 -57.97483 -1.914736
v 1.139313 -56.79364 -1.433343
v 0.1260766 -54.87312 -1.692215
v 0.9632175 -57.08445 -1.062676
v 0.9632175 -57.08445 -1.062676
v 0.1260766 -54.87312 -1.692215
v 0.3712566 -57.18998 -0.3970354
v 0.3712566 -57.18998 -0.3970354
v 0.1260766 -54.87312 -1.692215
v 0.02889349 -57.06464 -0.1360863
v 0.02889349 -57.06464 -0.1360863
v 0.1260766 -54.87312 -1.692215
v 0.004534241 -54.8634 -1.576421
v -0.6530159 -54.58968 -2.302309
v 0.1260766 -54.87312 -1.692215
v -0.8250062 -54.76729 -2.519722
v -0.8250062 -54.76729 -2.519722
v 0.1260766 -54.87312 -1.692215
v -0.8863444 -55.37115 -2.783439
v -0.8863444 -55.37115 -2.783439
v 0.1260766 -54.87312 -1.692215
v -0.5350776 -56.84315 -2.971416
v -0.5350776 -56.84315 -2.971416
v 0.1260766 -54.87312 -1.692215
v 0.1799645 -57.3286 -2.489098
v 0.1799645 -57.3286 -2.489098
v 0.1260766 -54.87312 -1.692215
v 1.139313 -56.79364 -1.433343
v -0.6163988 -54.7624 -1.298891
v -0.8365992 -55.39495 -0.7590706
v 0.004534241 -54.8634 -1.576421
v 0.004534241 -54.8634 -1.576421
v -0.8365992 -55.39495 -0.7590706
v 0.02889349 -57.06464 -0.1360863
v 0.02889349 -57.06464 -0.1360863
v -0.8365992 -55.39495 -0.7590706
v -0.08686045 -57.04839 -0.0826388
v -0.08686045 -57.04839 -0.0826388
v -0.8365992 -55.39495 -0.7590706
v -0.2038312 -56.95097 -0.08216411
v -0.666989 -54.72429 -1.459008
v -0.6646321 -54.60436 -2.195774
v -0.8874524 -54.8516 -1.702324
v -0.5976618 -57.97483 -1.914736
v -1.096069 -57.73859 -2.155347
v -0.1852868 -57.8222 -2.041452
v -0.1852868 -57.8222 -2.041452
v -1.096069 -57.73859 -2.155347
v 0.1799645 -57.3286 -2.489098
v 0.1799645 -57.3286 -2.489098
v -1.096069 -57.73859 -2.155347
v -0.5350776 -56.84315 -2.971416
v -0.8250062 -54.76729 -2.519722
v -1.210673 -55.19169 -1.821368
v -0.6530159 -54.58968 -2.302309
v -0.6530159 -54.58968 -2.302309
v -1.210673 -55.19169 -1.821368
v -0.6646321 -54.60436 -2.195774
v -0.6646321 -54.60436 -2.195774
v -1.210673 -55.19169 -1.821368
v -0.8874524 -54.8516 -1.702324

vn -0.7544652 -0.02143797 0.6559899
vn -0.7544652 -0.02143797 0.6559899
vn -0.7544652 -0.02143797 0.6559899
vn -0.7544652 -0.02143797 0.6559899
vn -0.7544652 -0.02143797 0.6559899
vn -0.7544652 -0.02143797 0.6559899
vn -0.7544652 -0.02143797 0.6559899
vn -0.7544652 -0.02143797 0.6559899
vn -0.7544652 -0.02143797 0.6559899
vn 0.3954646 -0.8941676 0.2099336
vn 0.3954646 -0.8941676 0.2099336
vn 0.3954646 -0.8941676 0.2099336
vn 0.3954646 -0.8941676 0.2099336
vn 0.3954646 -0.8941676 0.2099336
vn 0.3954646 -0.8941676 0.2099336
vn 0.3954646 -0.8941676 0.2099336
vn 0.3954646 -0.8941676 0.2099336
vn 0.3954646 -0.8941676 0.2099336
vn 0.6619636 -0.709371 -0.2420684
vn 0.6619636 -0.709371 -0.2420684
vn 0.6619636 -0.709371 -0.2420684
vn 0.6619636 -0.709371 -0.2420684
vn 0.6619636 -0.709371 -0.2420684
vn 0.6619636 -0.709371 -0.2420684
vn 0.2265981 0.9612204 0.1571901
vn 0.2265981 0.9612204 0.1571901
vn 0.2265981 0.9612204 0.1571901
vn 0.2265981 0.9612204 0.1571901
vn 0.2265981 0.9612204 0.1571901
vn 0.2265981 0.9612204 0.1571901
vn 0.2265981 0.9612204 0.1571901
vn 0.2265981 0.9612204 0.1571901
vn 0.2265981 0.9612204 0.1571901
vn 0.2265981 0.9612204 0.1571901
vn 0.2265981 0.9612204 0.1571901
vn 0.2265981 0.9612204 0.1571901
vn -0.7645547 -0.1011563 -0.6365718
vn -0.7645547 -0.1011563 -0.6365718
vn -0.7645547 -0.1011563 -0.6365718
vn -0.7645547 -0.1011563 -0.6365718
vn -0.7645547 -0.1011563 -0.6365718
vn -0.7645547 -0.1011563 -0.6365718
vn -0.7645547 -0.1011563 -0.6365718
vn -0.7645547 -0.1011563 -0.6365718
vn -0.7645547 -0.1011563 -0.6365718
vn 0.1628053 -0.7889087 0.5925517
vn 0.1628053 -0.7889087 0.5925517
vn 0.1628053 -0.7889087 0.5925517
vn 0.1628053 -0.7889087 0.5925517
vn 0.1628053 -0.7889087 0.5925517
vn 0.1628053 -0.7889087 0.5925517
vn -0.7349427 0.5697206 0.3678011
vn -0.7349427 0.5697206 0.3678011
vn -0.7349427 0.5697206 0.3678011
vn -0.7349427 0.5697206 0.3678011
vn -0.7349427 0.5697206 0.3678011
vn -0.7349427 0.5697206 0.3678011
vn -0.7349427 0.5697206 0.3678011
vn -0.7349427 0.5697206 0.3678011
vn -0.7349427 0.5697206 0.3678011
vn -0.7349427 0.5697206 0.3678011
vn -0.7349427 0.5697206 0.3678011
vn -0.7349427 0.5697206 0.3678011
vn -0.9040099 0.2448749 -0.3504317
vn -0.9040099 0.2448749 -0.3504317
vn -0.9040099 0.2448749 -0.3504317
vn -0.9040099 0.2448749 -0.3504317
vn -0.9040099 0.2448749 -0.3504317
vn -0.9040099 0.2448749 -0.3504317
vn -0.9040099 0.2448749 -0.3504317
vn -0.9040099 0.2448749 -0.3504317
vn -0.9040099 0.2448749 -0.3504317
vn -0.5554506 -0.6693925 0.4933442
vn -0.5554506 -0.6693925 0.4933442
vn -0.5554506 -0.6693925 0.4933442
vn -0.5554506 -0.6693925 0.4933442
vn -0.5554506 -0.6693925 0.4933442
vn -0.5554506 -0.6693925 0.4933442
vn -0.5554506 -0.6693925 0.4933442
vn -0.5554506 -0.6693925 0.4933442
vn -0.5554506 -0.6693925 0.4933442
vn -0.5554506 -0.6693925 0.4933442
vn -0.5554506 -0.6693925 0.4933442
vn -0.5554506 -0.6693925 0.4933442
vn 0.642033 0.4247526 0.6382625
vn 0.642033 0.4247526 0.6382625
vn 0.642033 0.4247526 0.6382625
vn 0.642033 0.4247526 0.6382625
vn 0.642033 0.4247526 0.6382625
vn 0.642033 0.4247526 0.6382625
vn 0.642033 0.4247526 0.6382625
vn 0.642033 0.4247526 0.6382625
vn 0.642033 0.4247526 0.6382625
vn 0.642033 0.4247526 0.6382625
vn 0.642033 0.4247526 0.6382625
vn 0.642033 0.4247526 0.6382625
vn 0.651534 0.2470653 -0.7172602
vn 0.651534 0.2470653 -0.7172602
vn 0.651534 0.2470653 -0.7172602
vn 0.651534 0.2470653 -0.7172602
vn 0.651534 0.2470653 -0.7172602
vn 0.651534 0.2470653 -0.7172602
vn 0.651534 0.2470653 -0.7172602
vn 0.651534 0.2470653 -0.7172602
vn 0.651534 0.2470653 -0.7172602
vn 0.651534 0.2470653 -0.7172602
vn 0.651534 0.2470653 -0.7172602
vn 0.651534 0.2470653 -0.7172602
vn 0.651534 0.2470653 -0.7172602
vn 0.651534 0.2470653 -0.7172602
vn 0.651534 0.2470653 -0.7172602
vn 0.4198326 0.5001783 0.757339
vn 0.4198326 0.5001783 0.757339
vn 0.4198326 0.5001783 0.757339
vn 0.4198326 0.5001783 0.757339
vn 0.4198326 0.5001783 0.757339
vn 0.4198326 0.5001783 0.757339
vn 0.4198326 0.5001783 0.757339
vn 0.4198326 0.5001783 0.757339
vn 0.4198326 0.5001783 0.757339
vn 0.4198326 0.5001783 0.757339
vn 0.4198326 0.5001783 0.757339
vn 0.4198326 0.5001783 0.757339
vn -0.5973836 0.7918388 0.1269821
vn -0.5973836 0.7918388 0.1269821
vn -0.5973836 0.7918388 0.1269821
vn 0.02858053 -0.6830385 -0.7298231
vn 0.02858053 -0.6830385 -0.7298231
vn 0.02858053 -0.6830385 -0.7298231
vn 0.02858053 -0.6830385 -0.7298231
vn 0.02858053 -0.6830385 -0.7298231
vn 0.02858053 -0.6830385 -0.7298231
vn 0.02858053 -0.6830385 -0.7298231
vn 0.02858053 -0.6830385 -0.7298231
vn 0.02858053 -0.6830385 -0.7298231
vn -0.7274228 0.6860211 0.01520787
vn -0.7274228 0.6860211 0.01520787
vn -0.7274228 0.6860211 0.01520787
vn -0.7274228 0.6860211 0.01520787
vn -0.7274228 0.6860211 0.01520787
vn -0.7274228 0.6860211 0.01520787
vn -0.7274228 0.6860211 0.01520787
vn -0.7274228 0.6860211 0.01520787
vn -0.7274228 0.6860211 0.01520787

vt 0.4596335 0.555971
vt 0.4580037 0.3098139
vt 0.5080491 0.5598826
vt 0.5080491 0.5598826
vt 0.4580037 0.3098139
vt 0.6029803 0.5297725
vt 0.6029803 0.5297725
vt 0.4580037 0.3098139
vt 0.6409323 0.4140865
vt 0.483364 0.3425784
vt 0.529386 0.3614985
vt 0.4309483 0.4036834
vt 0.4309483 0.4036834
vt 0.529386 0.3614985
vt 0.5519989 0.4935342
vt 0.5519989 0.4935342
vt 0.529386 0.3614985
vt 0.5913851 0.4819018
vt 0.4605322 0.3631889
vt 0.5819972 0.4544273
vt 0.4309437 0.3977415
vt 0.4309437 0.3977415
vt 0.5819972 0.4544273
vt 0.5273929 0.4961512
vt 0.4844676 0.4662646
vt 0.4113111 0.5211669
vt 0.4737572 0.4558429
vt 0.4737572 0.4558429
vt 0.4113111 0.5211669
vt 0.4179934 0.4308831
vt 0.4179934 0.4308831
vt 0.4113111 0.5211669
vt 0.4128431 0.4452909
vt 0.4128431 0.4452909
vt 0.4113111 0.5211669
vt 0.4106033 0.5115835
vt 0.477585 0.5207106
vt 0.3849542 0.4003073
vt 0.6488765 0.4929754
vt 0.6488765 0.4929754
vt 0.3849542 0.4003073
vt 0.5257258 0.3339449
vt 0.5257258 0.3339449
vt 0.3849542 0.4003073
vt 0.4783348 0.3302009
vt 0.516785 0.4007497
vt 0.4632005 0.3728794
vt 0.5089618 0.3303593
vt 0.5089618 0.3303593
vt 0.4632005 0.3728794
vt 0.4969662 0.3375864
vt 0.6061003 0.4607511
vt 0.6060164 0.4770029
vt 0.5461873 0.4059652
vt 0.5461873 0.4059652
vt 0.6060164 0.4770029
vt 0.4832802 0.4821812
vt 0.4832802 0.4821812
vt 0.6060164 0.4770029
vt 0.5397238 0.5137721
vt 0.5397238 0.5137721
vt 0.6060164 0.4770029
vt 0.5837761 0.5016927
vt 0.5906121 0.5026054
vt 0.4649002 0.3947845
vt 0.6467252 0.4762206
vt 0.6467252 0.4762206
vt 0.4649002 0.3947845
vt 0.598901 0.4063657
vt 0.598901 0.4063657
vt 0.4649002 0.3947845
vt 0.5427321 0.3752311
vt 0.5909101 0.5036206
vt 0.503262 0.5587277
vt 0.4847237 0.3182798
vt 0.4847237 0.3182798
vt 0.503262 0.5587277
vt 0.469366 0.3183357
vt 0.469366 0.3183357
vt 0.503262 0.5587277
vt 0.4437309 0.378705
vt 0.4437309 0.378705
vt 0.503262 0.5587277
vt 0.4493469 0.5308249
vt 0.5975133 0.4863256
vt 0.3512119 0.5246595
vt 0.6140911 0.4314373
vt 0.6140911 0.4314373
vt 0.3512119 0.5246595
vt 0.5868961 0.3328692
vt 0.5868961 0.3328692
vt 0.3512119 0.5246595
vt 0.5534424 0.2942327
vt 0.5534424 0.2942327
vt 0.3512119 0.5246595
vt 0.3426436 0.5075135
vt 0.2400941 0.4786887
vt 0.3082586 0.368437
vt 0.2533284 0.5179818
vt 0.2533284 0.5179818
vt 0.3082586 0.368437
vt 0.3216932 0.5656476
vt 0.3216932 0.5656476
vt 0.3082586 0.368437
vt 0.5107127 0.5996228
vt 0.5107127 0.5996228
vt 0.3082586 0.368437
vt 0.5998044 0.5124589
vt 0.5998044 0.5124589
vt 0.3082586 0.368437
vt 0.5796409 0.3216466
vt 0.2890731 0.5160353
vt 0.3210552 0.4049501
vt 0.3617127 0.5731449
vt 0.3617127 0.5731449
vt 0.3210552 0.4049501
vt 0.5543924 0.2767561
vt 0.5543924 0.2767561
vt 0.3210552 0.4049501
vt 0.5410743 0.2657571
vt 0.5410743 0.2657571
vt 0.3210552 0.4049501
vt 0.5206221 0.2656639
vt 0.5590584 0.4423432
vt 0.5656243 0.5080537
vt 0.5367063 0.464048
vt 0.5715011 0.3338006
vt 0.6341614 0.3789797
vt 0.5178002 0.3575962
vt 0.5178002 0.3575962
vt 0.6341614 0.3789797
vt 0.4683042 0.4416494
vt 0.4683042 0.4416494
vt 0.6341614 0.3789797
vt 0.5574006 0.5322126
vt 0.5723951 0.517246
vt 0.522075 0.4559454
vt 0.5940953 0.4981629
vt 0.5940953 0.4981629
vt 0.522075 0.4559454
vt 0.5924562 0.4888123
vt 0.5924562 0.4888123
vt 0.522075 0.4559454
vt 0.5632494 0.4454958

usemtl Material0
usemap Material0

usemtl Material1
usemap Material1
f 1/1/1 2/2/2 3/3/3
f 4/4/4 5/5/5 6/6/6
f 7/7/7 8/8/8 9/9/9
f 10/10/10 11/11/11 12/12/12
f 13/13/13 14/14/14 15/15/15
f 16/16/16 17/17/17 18/18/18
f 19/19/19 20/20/20 21/21/21
f 22/22/22 23/23/23 24/24/24
f 25/25/25 26/26/26 27/27/27
f 28/28/28 29/29/29 30/30/30
f 31/31/31 32/32/32 33/33/33
f 34/34/34 35/35/35 36/36/36
f 37/37/37 38/38/38 39/39/39
f 40/40/40 41/41/41 42/42/42
f 43/43/43 44/44/44 45/45/45
f 46/46/46 47/47/47 48/48/48
f 49/49/49 50/50/50 51/51/51
f 52/52/52 53/53/53 54/54/54
f 55/55/55 56/56/56 57/57/57
f 58/58/58 59/59/59 60/60/60
f 61/61/61 62/62/62 63/63/63
f 64/64/64 65/65/65 66/66/66
f 67/67/67 68/68/68 69/69/69
f 70/70/70 71/71/71 72/72/72
f 73/73/73 74/74/74 75/75/75
f 76/76/76 77/77/77 78/78/78
f 79/79/79 80/80/80 81/81/81
f 82/82/82 83/83/83 84/84/84
f 85/85/85 86/86/86 87/87/87
f 88/88/88 89/89/89 90/90/90
f 91/91/91 92/92/92 93/93/93
f 94/94/94 95/95/95 96/96/96
f 97/97/97 98/98/98 99/99/99
f 100/100/100 101/101/101 102/102/102
f 103/103/103 104/104/104 105/105/105
f 106/106/106 107/107/107 108/108/108
f 109/109/109 110/110/110 111/111/111
f 112/112/112 113/113/113 114/114/114
f 115/115/115 116/116/116 117/117/117
f 118/118/118 119/119/119 120/120/120
f 121/121/121 122/122/122 123/123/123
f 124/124/124 125/125/125 126/126/126
f 127/127/127 128/128/128 129/129/129
f 130/130/130 131/131/131 132/132/132
f 133/133/133 134/134/134 135/135/135
f 136/136/136 137/137/137 138/138/138
f 139/139/139 140/140/140 141/141/141
f 142/142/142 143/143/143 144/144/144
