g  Instance
v -2.808116 -44.86475 -3.63364
v -3.25261 -45.26495 -3.334273
v -2.863197 -44.85837 -3.6556
v -2.863197 -44.85837 -3.6556
v -3.25261 -45.26495 -3.334273
v -3.37901 -45.2127 -3.424331
v -1.680136 -43.15617 -1.310939
v -2.570498 -43.63478 -0.7717044
v -1.536458 -43.48269 -1.2185
v -1.536458 -43.48269 -1.2185
v -2.570498 -43.63478 -0.7717044
v -2.017516 -43.91264 -0.8509909
v -2.017516 -43.91264 -0.8509909
v -2.570498 -43.63478 -0.7717044
v -2.621589 -43.98386 -0.597814
v -3.579626 -44.09093 -1.03586
v -3.55816 -44.09745 -1.014818
v -3.55464 -44.08028 -1.022855
v -1.419373 -43.51176 -3.152232
v -1.622028 -43.05462 -3.253733
v -1.536458 -43.48269 -1.2185
v -1.536458 -43.48269 -1.2185
v -1.622028 -43.05462 -3.253733
v -1.680136 -43.15617 -1.310939
v -1.680136 -43.15617 -1.310939
v -1.622028 -43.05462 -3.253733
v -1.667449 -42.97784 -3.05877
v -1.667449 -42.97784 -3.05877
v -1.622028 -43.05462 -3.253733
v -1.75335 -42.9943 -3.308252
v -2.781092 -44.64996 -1.024382
v -2.017516 -43.91264 -0.8509909
v -3.040314 -44.30478 -0.6293204
v -3.040314 -44.30478 -0.6293204
v -2.017516 -43.91264 -0.8509909
v -2.621589 -43.98386 -0.597814
v -4.174363 -44.23877 -2.419163
v -2.158592 -43.17307 -3.459058
v -3.37901 -45.2127 -3.424331
v -3.37901 -45.2127 -3.424331
v -2.158592 -43.17307 -3.459058
v -2.863197 -44.85837 -3.6556
v -3.579626 -44.09093 -1.03586
v -3.55464 -44.08028 -1.022855
v -4.174363 -44.23877 -2.419163
v -4.174363 -44.23877 -2.419163
v -3.55464 -44.08028 -1.022855
v -2.158592 -43.17307 -3.459058
v -2.158592 -43.17307 -3.459058
v -3.55464 -44.08028 -1.022855
v -1.75335 -42.9943 -3.308252
v -1.75335 -42.9943 -3.308252
v -3.55464 -44.08028 -1.022855
v -1.667449 -42.97784 -3.05877
v -1.667449 -42.97784 -3.05877
v -3.55464 -44.08028 -1.022855
v -1.680136 -43.15617 -1.310939
v -1.680136 -43.15617 -1.310939
v -3.55464 -44.08028 -1.022855
v -2.570498 -43.63478 -0.7717044
v -2.863197 -44.85837 -3.6556
v -2.158592 -43.17307 -3.459058
v -2.808116 -44.86475 -3.63364
v -2.808116 -44.86475 -3.63364
v -2.158592 -43.17307 -3.459058
v -1.419373 -43.51176 -3.152232
v -1.419373 -43.51176 -3.152232
v -2.158592 -43.17307 -3.459058
v -1.622028 -43.05462 -3.253733
v -1.622028 -43.05462 -3.253733
v -2.158592 -43.17307 -3.459058
v -1.75335 -42.9943 -3.308252
v -2.781092 -44.64996 -1.024382
v -3.25261 -45.26495 -3.334273
v -2.017516 -43.91264 -0.8509909
v -2.017516 -43.91264 -0.8509909
v -3.25261 -45.26495 -3.334273
v -1.536458 -43.48269 -1.2185
v -1.536458 -43.48269 -1.2185
v -3.25261 -45.26495 -3.334273
v -1.419373 -43.51176 -3.152232
v -1.419373 -43.51176 -3.152232
v -3.25261 -45.26495 -3.334273
v -2.808116 -44.86475 -3.63364
v -4.174363 -44.23877 -2.419163
v -3.37901 -45.2127 -3.424331
v -3.579626 -44.09093 -1.03586
v -3.579626 -44.09093 -1.03586
v -3.37901 -45.2127 -3.424331
v -3.55816 -44.09745 -1.014818
v -3.55816 -44.09745 -1.014818
v -3.37901 -45.2127 -3.424331
v -3.040314 -44.30478 -0.6293204
v -3.040314 -44.30478 -0.6293204
v -3.37901 -45.2127 -3.424331
v -2.781092 -44.64996 -1.024382
v -2.781092 -44.64996 -1.024382
v -3.37901 -45.2127 -3.424331
v -3.25261 -45.26495 -3.334273
v -2.621589 -43.98386 -0.597814
v -2.570498 -43.63478 -0.7717044
v -3.040314 -44.30478 -0.6293204
v -3.040314 -44.30478 -0.6293204
v -2.570498 -43.63478 -0.7717044
v -3.55816 -44.09745 -1.014818
v -3.55816 -44.09745 -1.014818
v -2.570498 -43.63478 -0.7717044
v -3.55464 -44.08028 -1.022855

vn 0.1867904 -0.7130141 -0.6758109
vn 0.1867904 -0.7130141 -0.6758109
vn 0.1867904 -0.7130141 -0.6758109
vn 0.1867904 -0.7130141 -0.6758109
vn 0.1867904 -0.7130141 -0.6758109
vn 0.1867904 -0.7130141 -0.6758109
vn 0.3177392 0.3851095 0.8664483
vn 0.3177392 0.3851095 0.8664483
vn 0.3177392 0.3851095 0.8664483
vn 0.3177392 0.3851095 0.8664483
vn 0.3177392 0.3851095 0.8664483
vn 0.3177392 0.3851095 0.8664483
vn 0.3177392 0.3851095 0.8664483
vn 0.3177392 0.3851095 0.8664483
vn 0.3177392 0.3851095 0.8664483
vn -0.5553064 0.4431775 0.7037249
vn -0.5553064 0.4431775 0.7037249
vn -0.5553064 0.4431775 0.7037249
vn 0.9090472 0.4138238 0.0488164
vn 0.9090472 0.4138238 0.0488164
vn 0.9090472 0.4138238 0.0488164
vn 0.9090472 0.4138238 0.0488164
vn 0.9090472 0.4138238 0.0488164
vn 0.9090472 0.4138238 0.0488164
vn 0.9090472 0.4138238 0.0488164
vn 0.9090472 0.4138238 0.0488164
vn 0.9090472 0.4138238 0.0488164
vn 0.4815186 0.8479261 -0.2217233
vn 0.4815186 0.8479261 -0.2217233
vn 0.4815186 0.8479261 -0.2217233
vn 0.375223 -0.5619403 0.7371777
vn 0.375223 -0.5619403 0.7371777
vn 0.375223 -0.5619403 0.7371777
vn 0.375223 -0.5619403 0.7371777
vn 0.375223 -0.5619403 0.7371777
vn 0.375223 -0.5619403 0.7371777
vn -0.56341 0.3241869 -0.7599158
vn -0.56341 0.3241869 -0.7599158
vn -0.56341 0.3241869 -0.7599158
vn -0.56341 0.3241869 -0.7599158
vn -0.56341 0.3241869 -0.7599158
vn -0.56341 0.3241869 -0.7599158
vn -0.4294487 0.8987369 0.08857706
vn -0.4294487 0.8987369 0.08857706
vn -0.4294487 0.8987369 0.08857706
vn -0.4294487 0.8987369 0.08857706
vn -0.4294487 0.8987369 0.08857706
vn -0.4294487 0.8987369 0.08857706
vn -0.4294487 0.8987369 0.08857706
vn -0.4294487 0.8987369 0.08857706
vn -0.4294487 0.8987369 0.08857706
vn -0.4294487 0.8987369 0.08857706
vn -0.4294487 0.8987369 0.08857706
vn -0.4294487 0.8987369 0.08857706
vn -0.4294487 0.8987369 0.08857706
vn -0.4294487 0.8987369 0.08857706
vn -0.4294487 0.8987369 0.08857706
vn -0.4294487 0.8987369 0.08857706
vn -0.4294487 0.8987369 0.08857706
vn -0.4294487 0.8987369 0.08857706
vn 0.365537 -0.04439846 -0.9297373
vn 0.365537 -0.04439846 -0.9297373
vn 0.365537 -0.04439846 -0.9297373
vn 0.365537 -0.04439846 -0.9297373
vn 0.365537 -0.04439846 -0.9297373
vn 0.365537 -0.04439846 -0.9297373
vn 0.365537 -0.04439846 -0.9297373
vn 0.365537 -0.04439846 -0.9297373
vn 0.365537 -0.04439846 -0.9297373
vn 0.365537 -0.04439846 -0.9297373
vn 0.365537 -0.04439846 -0.9297373
vn 0.365537 -0.04439846 -0.9297373
vn 0.6874723 -0.7243097 0.05250959
vn 0.6874723 -0.7243097 0.05250959
vn 0.6874723 -0.7243097 0.05250959
vn 0.6874723 -0.7243097 0.05250959
vn 0.6874723 -0.7243097 0.05250959
vn 0.6874723 -0.7243097 0.05250959
vn 0.6874723 -0.7243097 0.05250959
vn 0.6874723 -0.7243097 0.05250959
vn 0.6874723 -0.7243097 0.05250959
vn 0.6874723 -0.7243097 0.05250959
vn 0.6874723 -0.7243097 0.05250959
vn 0.6874723 -0.7243097 0.05250959
vn -0.5467878 -0.7745846 0.3178709
vn -0.5467878 -0.7745846 0.3178709
vn -0.5467878 -0.7745846 0.3178709
vn -0.5467878 -0.7745846 0.3178709
vn -0.5467878 -0.7745846 0.3178709
vn -0.5467878 -0.7745846 0.3178709
vn -0.5467878 -0.7745846 0.3178709
vn -0.5467878 -0.7745846 0.3178709
vn -0.5467878 -0.7745846 0.3178709
vn -0.5467878 -0.7745846 0.3178709
vn -0.5467878 -0.7745846 0.3178709
vn -0.5467878 -0.7745846 0.3178709
vn -0.5467878 -0.7745846 0.3178709
vn -0.5467878 -0.7745846 0.3178709
vn -0.5467878 -0.7745846 0.3178709
vn -0.407767 0.4542552 0.7920723
vn -0.407767 0.4542552 0.7920723
vn -0.407767 0.4542552 0.7920723
vn -0.407767 0.4542552 0.7920723
vn -0.407767 0.4542552 0.7920723
vn -0.407767 0.4542552 0.7920723
vn -0.407767 0.4542552 0.7920723
vn -0.407767 0.4542552 0.7920723
vn -0.407767 0.4542552 0.7920723

vt 0.4981816 0.4928357
vt 0.5614519 0.4444807
vt 0.504333 0.4963841
vt 0.504333 0.4963841
vt 0.5614519 0.4444807
vt 0.5744255 0.4590281
vt 0.5468765 0.5958881
vt 0.4796992 0.4060583
vt 0.6028778 0.5633472
vt 0.6028778 0.5633472
vt 0.4796992 0.4060583
vt 0.5857505 0.4339705
vt 0.5857505 0.4339705
vt 0.4796992 0.4060583
vt 0.511821 0.3448415
vt 0.4735104 0.3647861
vt 0.4745349 0.361126
vt 0.4764628 0.362523
vt 0.493292 0.5051759
vt 0.4493655 0.5141074
vt 0.4867121 0.3350904
vt 0.4867121 0.3350904
vt 0.4493655 0.5141074
vt 0.4553726 0.343221
vt 0.4553726 0.343221
vt 0.4493655 0.5141074
vt 0.4415749 0.4969615
vt 0.5431978 0.4536916
vt 0.5501641 0.471685
vt 0.5372092 0.4767235
vt 0.5045472 0.3488044
vt 0.3689026 0.3154811
vt 0.5076393 0.2728771
vt 0.5076393 0.2728771
vt 0.3689026 0.3154811
vt 0.4392745 0.2668188
vt 0.4264127 0.3231833
vt 0.6868286 0.5391511
vt 0.3660015 0.5319332
vt 0.3660015 0.5319332
vt 0.6868286 0.5391511
vt 0.4421895 0.5799623
vt 0.4596661 0.315537
vt 0.462055 0.3143868
vt 0.4067755 0.4378821
vt 0.4067755 0.4378821
vt 0.462055 0.3143868
vt 0.6074879 0.5298563
vt 0.6074879 0.5298563
vt 0.462055 0.3143868
vt 0.6464923 0.5165195
vt 0.6464923 0.5165195
vt 0.462055 0.3143868
vt 0.653943 0.4944562
vt 0.653943 0.4944562
vt 0.462055 0.3143868
vt 0.646157 0.3398682
vt 0.646157 0.3398682
vt 0.462055 0.3143868
vt 0.557205 0.2921744
vt 0.5473701 0.4738178
vt 0.3895504 0.402454
vt 0.5480686 0.468239
vt 0.5480686 0.468239
vt 0.3895504 0.402454
vt 0.4228177 0.3275792
vt 0.4228177 0.3275792
vt 0.3895504 0.402454
vt 0.379315 0.3481059
vt 0.379315 0.3481059
vt 0.3895504 0.402454
vt 0.3733917 0.3614054
vt 0.5089245 0.3127616
vt 0.5761857 0.516026
vt 0.4156558 0.2975017
vt 0.4156558 0.2975017
vt 0.5761857 0.516026
vt 0.3589839 0.3298424
vt 0.3589839 0.3298424
vt 0.5761857 0.516026
vt 0.3532794 0.500007
vt 0.3532794 0.500007
vt 0.5761857 0.516026
vt 0.523649 0.5423642
vt 0.5943468 0.4522853
vt 0.4822231 0.5504016
vt 0.5572702 0.317246
vt 0.5572702 0.317246
vt 0.4822231 0.5504016
vt 0.5552958 0.3151924
vt 0.5552958 0.3151924
vt 0.4822231 0.5504016
vt 0.5050781 0.2775618
vt 0.5050781 0.2775618
vt 0.4822231 0.5504016
vt 0.4670469 0.3161284
vt 0.4670469 0.3161284
vt 0.4822231 0.5504016
vt 0.4698829 0.5416098
vt 0.5679713 0.2739249
vt 0.6069664 0.3148758
vt 0.492356 0.281343
vt 0.492356 0.281343
vt 0.6069664 0.3148758
vt 0.4568721 0.3721297
vt 0.4568721 0.3721297
vt 0.6069664 0.3148758
vt 0.4588977 0.374025

usemtl Material0
usemap Material0

usemtl Material1
usemap Material1
f 1/1/1 2/2/2 3/3/3
f 4/4/4 5/5/5 6/6/6
f 7/7/7 8/8/8 9/9/9
f 10/10/10 11/11/11 12/12/12
f 13/13/13 14/14/14 15/15/15
f 16/16/16 17/17/17 18/18/18
f 19/19/19 20/20/20 21/21/21
f 22/22/22 23/23/23 24/24/24
f 25/25/25 26/26/26 27/27/27
f 28/28/28 29/29/29 30/30/30
f 31/31/31 32/32/32 33/33/33
f 34/34/34 35/35/35 36/36/36
f 37/37/37 38/38/38 39/39/39
f 40/40/40 41/41/41 42/42/42
f 43/43/43 44/44/44 45/45/45
f 46/46/46 47/47/47 48/48/48
f 49/49/49 50/50/50 51/51/51
f 52/52/52 53/53/53 54/54/54
f 55/55/55 56/56/56 57/57/57
f 58/58/58 59/59/59 60/60/60
f 61/61/61 62/62/62 63/63/63
f 64/64/64 65/65/65 66/66/66
f 67/67/67 68/68/68 69/69/69
f 70/70/70 71/71/71 72/72/72
f 73/73/73 74/74/74 75/75/75
f 76/76/76 77/77/77 78/78/78
f 79/79/79 80/80/80 81/81/81
f 82/82/82 83/83/83 84/84/84
f 85/85/85 86/86/86 87/87/87
f 88/88/88 89/89/89 90/90/90
f 91/91/91 92/92/92 93/93/93
f 94/94/94 95/95/95 96/96/96
f 97/97/97 98/98/98 99/99/99
f 100/100/100 101/101/101 102/102/102
f 103/103/103 104/104/104 105/105/105
f 106/106/106 107/107/107 108/108/108
