g  Instance
v -0.164107 -47.21996 -6.120354
v 0.2442113 -47.04478 -6.030622
v -0.9188492 -47.49631 -5.603589
v -0.9188492 -47.49631 -5.603589
v 0.2442113 -47.04478 -6.030622
v -1.27918 -47.61164 -5.117964
v -1.27918 -47.61164 -5.117964
v 0.2442113 -47.04478 -6.030622
v -0.851976 -47.33474 -3.676927
v -0.851976 -47.33474 -3.676927
v 0.2442113 -47.04478 -6.030622
v -0.8122806 -47.31254 -3.593856
v -0.8122806 -47.31254 -3.593856
v 0.2442113 -47.04478 -6.030622
v -0.6392068 -47.23709 -3.53862
v -0.6392068 -47.23709 -3.53862
v 0.2442113 -47.04478 -6.030622
v 1.303879 -46.51875 -4.770054
v 1.303879 -46.51875 -4.770054
v 0.2442113 -47.04478 -6.030622
v 1.308793 -46.56039 -5.398546
v -0.799058 -45.80609 -3.854699
v -0.7536817 -45.49387 -4.03686
v -0.8873493 -46.18589 -3.822593
v -0.8873493 -46.18589 -3.822593
v -0.7536817 -45.49387 -4.03686
v -1.28524 -47.24318 -4.604089
v -1.28524 -47.24318 -4.604089
v -0.7536817 -45.49387 -4.03686
v -1.436834 -47.41776 -5.224945
v -1.436834 -47.41776 -5.224945
v -0.7536817 -45.49387 -4.03686
v -1.425508 -46.72118 -6.146157
v -1.425508 -46.72118 -6.146157
v -0.7536817 -45.49387 -4.03686
v -0.8535151 -45.48799 -4.616799
v -0.07619361 -44.93414 -5.069017
v 0.4815128 -45.12672 -5.43908
v -0.252459 -45.49876 -5.956649
v -0.5010755 -46.28591 -3.651905
v -0.799058 -45.80609 -3.854699
v -0.6392068 -47.23709 -3.53862
v -0.6392068 -47.23709 -3.53862
v -0.799058 -45.80609 -3.854699
v -0.8122806 -47.31254 -3.593856
v -0.8122806 -47.31254 -3.593856
v -0.799058 -45.80609 -3.854699
v -0.8873493 -46.18589 -3.822593
v -0.851976 -47.33474 -3.676927
v -0.8122806 -47.31254 -3.593856
v -1.28524 -47.24318 -4.604089
v -1.28524 -47.24318 -4.604089
v -0.8122806 -47.31254 -3.593856
v -0.8873493 -46.18589 -3.822593
v -0.7536817 -45.49387 -4.03686
v -0.2814079 -45.05925 -4.376266
v -0.8535151 -45.48799 -4.616799
v -0.8535151 -45.48799 -4.616799
v -0.2814079 -45.05925 -4.376266
v -0.2220441 -44.94972 -4.784934
v -0.6114338 -46.07555 -6.471821
v -0.252459 -45.49876 -5.956649
v -0.0482612 -46.12026 -6.293818
v -0.0482612 -46.12026 -6.293818
v -0.252459 -45.49876 -5.956649
v 1.149011 -45.69869 -5.572525
v 1.149011 -45.69869 -5.572525
v -0.252459 -45.49876 -5.956649
v 1.110726 -45.48823 -5.446968
v 1.110726 -45.48823 -5.446968
v -0.252459 -45.49876 -5.956649
v 0.4815128 -45.12672 -5.43908
v 1.110726 -45.48823 -5.446968
v 1.168241 -45.78221 -4.706602
v 1.149011 -45.69869 -5.572525
v 1.149011 -45.69869 -5.572525
v 1.168241 -45.78221 -4.706602
v 1.308793 -46.56039 -5.398546
v 1.308793 -46.56039 -5.398546
v 1.168241 -45.78221 -4.706602
v 1.303879 -46.51875 -4.770054
v -0.2220441 -44.94972 -4.784934
v -0.07619361 -44.93414 -5.069017
v -0.8535151 -45.48799 -4.616799
v -0.8535151 -45.48799 -4.616799
v -0.07619361 -44.93414 -5.069017
v -1.425508 -46.72118 -6.146157
v -1.425508 -46.72118 -6.146157
v -0.07619361 -44.93414 -5.069017
v -1.382721 -46.70605 -6.205694
v -1.382721 -46.70605 -6.205694
v -0.07619361 -44.93414 -5.069017
v -0.9032056 -46.37269 -6.503371
v -0.9032056 -46.37269 -6.503371
v -0.07619361 -44.93414 -5.069017
v -0.6114338 -46.07555 -6.471821
v -0.6114338 -46.07555 -6.471821
v -0.07619361 -44.93414 -5.069017
v -0.252459 -45.49876 -5.956649
v -1.28524 -47.24318 -4.604089
v -1.436834 -47.41776 -5.224945
v -0.851976 -47.33474 -3.676927
v -0.851976 -47.33474 -3.676927
v -1.436834 -47.41776 -5.224945
v -1.27918 -47.61164 -5.117964
v -0.799058 -45.80609 -3.854699
v -0.5010755 -46.28591 -3.651905
v -0.7536817 -45.49387 -4.03686
v -0.7536817 -45.49387 -4.03686
v -0.5010755 -46.28591 -3.651905
v -0.2814079 -45.05925 -4.376266
v -0.2814079 -45.05925 -4.376266
v -0.5010755 -46.28591 -3.651905
v 0.4628146 -45.526 -4.274337
v -1.382721 -46.70605 -6.205694
v -0.9032056 -46.37269 -6.503371
v -1.08211 -46.82169 -6.333873
v -1.08211 -46.82169 -6.333873
v -0.9032056 -46.37269 -6.503371
v -0.9085103 -46.82094 -6.42005
v 0.4628146 -45.526 -4.274337
v 1.168241 -45.78221 -4.706602
v -0.2814079 -45.05925 -4.376266
v -0.2814079 -45.05925 -4.376266
v 1.168241 -45.78221 -4.706602
v -0.2220441 -44.94972 -4.784934
v -0.2220441 -44.94972 -4.784934
v 1.168241 -45.78221 -4.706602
v -0.07619361 -44.93414 -5.069017
v -0.07619361 -44.93414 -5.069017
v 1.168241 -45.78221 -4.706602
v 0.4815128 -45.12672 -5.43908
v 0.4815128 -45.12672 -5.43908
v 1.168241 -45.78221 -4.706602
v 1.110726 -45.48823 -5.446968
v 1.303879 -46.51875 -4.770054
v 1.168241 -45.78221 -4.706602
v -0.6392068 -47.23709 -3.53862
v -0.6392068 -47.23709 -3.53862
v 1.168241 -45.78221 -4.706602
v -0.5010755 -46.28591 -3.651905
v -0.5010755 -46.28591 -3.651905
v 1.168241 -45.78221 -4.706602
v 0.4628146 -45.526 -4.274337
v -0.9188492 -47.49631 -5.603589
v -0.9957058 -46.88664 -6.329249
v -0.164107 -47.21996 -6.120354
v -0.164107 -47.21996 -6.120354
v -0.9957058 -46.88664 -6.329249
v -0.8982245 -46.83613 -6.414077
v -1.382721 -46.70605 -6.205694
v -1.08211 -46.82169 -6.333873
v -1.425508 -46.72118 -6.146157
v -1.425508 -46.72118 -6.146157
v -1.08211 -46.82169 -6.333873
v -1.436834 -47.41776 -5.224945
v -1.436834 -47.41776 -5.224945
v -1.08211 -46.82169 -6.333873
v -1.27918 -47.61164 -5.117964
v -1.27918 -47.61164 -5.117964
v -1.08211 -46.82169 -6.333873
v -0.9188492 -47.49631 -5.603589
v -0.9188492 -47.49631 -5.603589
v -1.08211 -46.82169 -6.333873
v -0.9957058 -46.88664 -6.329249
v 1.149011 -45.69869 -5.572525
v 1.308793 -46.56039 -5.398546
v -0.0482612 -46.12026 -6.293818
v -0.0482612 -46.12026 -6.293818
v 1.308793 -46.56039 -5.398546
v 0.2442113 -47.04478 -6.030622
v -0.164107 -47.21996 -6.120354
v -0.8982245 -46.83613 -6.414077
v 0.2442113 -47.04478 -6.030622
v 0.2442113 -47.04478 -6.030622
v -0.8982245 -46.83613 -6.414077
v -0.0482612 -46.12026 -6.293818
v -0.0482612 -46.12026 -6.293818
v -0.8982245 -46.83613 -6.414077
v -0.6114338 -46.07555 -6.471821
v -0.6114338 -46.07555 -6.471821
v -0.8982245 -46.83613 -6.414077
v -0.9032056 -46.37269 -6.503371
v -0.9032056 -46.37269 -6.503371
v -0.8982245 -46.83613 -6.414077
v -0.9085103 -46.82094 -6.42005
v -0.8982245 -46.83613 -6.414077
v -0.9957058 -46.88664 -6.329249
v -0.9085103 -46.82094 -6.42005
v -0.9085103 -46.82094 -6.42005
v -0.9957058 -46.88664 -6.329249
v -1.08211 -46.82169 -6.333873

vn 0.3815236 -0.9221346 0.06409054
vn 0.3815236 -0.9221346 0.06409054
vn 0.3815236 -0.9221346 0.06409054
vn 0.3815236 -0.9221346 0.06409054
vn 0.3815236 -0.9221346 0.06409054
vn 0.3815236 -0.9221346 0.06409054
vn 0.3815236 -0.9221346 0.06409054
vn 0.3815236 -0.9221346 0.06409054
vn 0.3815236 -0.9221346 0.06409054
vn 0.3815236 -0.9221346 0.06409054
vn 0.3815236 -0.9221346 0.06409054
vn 0.3815236 -0.9221346 0.06409054
vn 0.3815236 -0.9221346 0.06409054
vn 0.3815236 -0.9221346 0.06409054
vn 0.3815236 -0.9221346 0.06409054
vn 0.3815236 -0.9221346 0.06409054
vn 0.3815236 -0.9221346 0.06409054
vn 0.3815236 -0.9221346 0.06409054
vn 0.3815236 -0.9221346 0.06409054
vn 0.3815236 -0.9221346 0.06409054
vn 0.3815236 -0.9221346 0.06409054
vn -0.9571117 0.2366311 0.1671615
vn -0.9571117 0.2366311 0.1671615
vn -0.9571117 0.2366311 0.1671615
vn -0.9571117 0.2366311 0.1671615
vn -0.9571117 0.2366311 0.1671615
vn -0.9571117 0.2366311 0.1671615
vn -0.9571117 0.2366311 0.1671615
vn -0.9571117 0.2366311 0.1671615
vn -0.9571117 0.2366311 0.1671615
vn -0.9571117 0.2366311 0.1671615
vn -0.9571117 0.2366311 0.1671615
vn -0.9571117 0.2366311 0.1671615
vn -0.9571117 0.2366311 0.1671615
vn -0.9571117 0.2366311 0.1671615
vn -0.9571117 0.2366311 0.1671615
vn -0.05748483 0.8474993 -0.5276745
vn -0.05748483 0.8474993 -0.5276745
vn -0.05748483 0.8474993 -0.5276745
vn -0.363439 0.1620435 0.917417
vn -0.363439 0.1620435 0.917417
vn -0.363439 0.1620435 0.917417
vn -0.363439 0.1620435 0.917417
vn -0.363439 0.1620435 0.917417
vn -0.363439 0.1620435 0.917417
vn -0.363439 0.1620435 0.917417
vn -0.363439 0.1620435 0.917417
vn -0.363439 0.1620435 0.917417
vn -0.9046642 0.02607489 0.4253268
vn -0.9046642 0.02607489 0.4253268
vn -0.9046642 0.02607489 0.4253268
vn -0.9046642 0.02607489 0.4253268
vn -0.9046642 0.02607489 0.4253268
vn -0.9046642 0.02607489 0.4253268
vn -0.6263483 0.7709178 0.1156449
vn -0.6263483 0.7709178 0.1156449
vn -0.6263483 0.7709178 0.1156449
vn -0.6263483 0.7709178 0.1156449
vn -0.6263483 0.7709178 0.1156449
vn -0.6263483 0.7709178 0.1156449
vn 0.2936997 0.528582 -0.7964557
vn 0.2936997 0.528582 -0.7964557
vn 0.2936997 0.528582 -0.7964557
vn 0.2936997 0.528582 -0.7964557
vn 0.2936997 0.528582 -0.7964557
vn 0.2936997 0.528582 -0.7964557
vn 0.2936997 0.528582 -0.7964557
vn 0.2936997 0.528582 -0.7964557
vn 0.2936997 0.528582 -0.7964557
vn 0.2936997 0.528582 -0.7964557
vn 0.2936997 0.528582 -0.7964557
vn 0.2936997 0.528582 -0.7964557
vn 0.9833857 0.1814769 -0.004337239
vn 0.9833857 0.1814769 -0.004337239
vn 0.9833857 0.1814769 -0.004337239
vn 0.9833857 0.1814769 -0.004337239
vn 0.9833857 0.1814769 -0.004337239
vn 0.9833857 0.1814769 -0.004337239
vn 0.9833857 0.1814769 -0.004337239
vn 0.9833857 0.1814769 -0.004337239
vn 0.9833857 0.1814769 -0.004337239
vn -0.6636457 0.6838408 -0.30321
vn -0.6636457 0.6838408 -0.30321
vn -0.6636457 0.6838408 -0.30321
vn -0.6636457 0.6838408 -0.30321
vn -0.6636457 0.6838408 -0.30321
vn -0.6636457 0.6838408 -0.30321
vn -0.6636457 0.6838408 -0.30321
vn -0.6636457 0.6838408 -0.30321
vn -0.6636457 0.6838408 -0.30321
vn -0.6636457 0.6838408 -0.30321
vn -0.6636457 0.6838408 -0.30321
vn -0.6636457 0.6838408 -0.30321
vn -0.6636457 0.6838408 -0.30321
vn -0.6636457 0.6838408 -0.30321
vn -0.6636457 0.6838408 -0.30321
vn -0.6636457 0.6838408 -0.30321
vn -0.6636457 0.6838408 -0.30321
vn -0.6636457 0.6838408 -0.30321
vn -0.8131713 -0.4774771 0.3328184
vn -0.8131713 -0.4774771 0.3328184
vn -0.8131713 -0.4774771 0.3328184
vn -0.8131713 -0.4774771 0.3328184
vn -0.8131713 -0.4774771 0.3328184
vn -0.8131713 -0.4774771 0.3328184
vn 0.180596 0.4759397 0.8607361
vn 0.180596 0.4759397 0.8607361
vn 0.180596 0.4759397 0.8607361
vn 0.180596 0.4759397 0.8607361
vn 0.180596 0.4759397 0.8607361
vn 0.180596 0.4759397 0.8607361
vn 0.180596 0.4759397 0.8607361
vn 0.180596 0.4759397 0.8607361
vn 0.180596 0.4759397 0.8607361
vn -0.4384162 -0.1592353 -0.8845538
vn -0.4384162 -0.1592353 -0.8845538
vn -0.4384162 -0.1592353 -0.8845538
vn -0.4384162 -0.1592353 -0.8845538
vn -0.4384162 -0.1592353 -0.8845538
vn -0.4384162 -0.1592353 -0.8845538
vn 0.4792817 0.8278411 0.2914934
vn 0.4792817 0.8278411 0.2914934
vn 0.4792817 0.8278411 0.2914934
vn 0.4792817 0.8278411 0.2914934
vn 0.4792817 0.8278411 0.2914934
vn 0.4792817 0.8278411 0.2914934
vn 0.4792817 0.8278411 0.2914934
vn 0.4792817 0.8278411 0.2914934
vn 0.4792817 0.8278411 0.2914934
vn 0.4792817 0.8278411 0.2914934
vn 0.4792817 0.8278411 0.2914934
vn 0.4792817 0.8278411 0.2914934
vn 0.4792817 0.8278411 0.2914934
vn 0.4792817 0.8278411 0.2914934
vn 0.4792817 0.8278411 0.2914934
vn 0.5287303 0.02428346 0.8484426
vn 0.5287303 0.02428346 0.8484426
vn 0.5287303 0.02428346 0.8484426
vn 0.5287303 0.02428346 0.8484426
vn 0.5287303 0.02428346 0.8484426
vn 0.5287303 0.02428346 0.8484426
vn 0.5287303 0.02428346 0.8484426
vn 0.5287303 0.02428346 0.8484426
vn 0.5287303 0.02428346 0.8484426
vn -0.1491202 -0.7648103 -0.6267604
vn -0.1491202 -0.7648103 -0.6267604
vn -0.1491202 -0.7648103 -0.6267604
vn -0.1491202 -0.7648103 -0.6267604
vn -0.1491202 -0.7648103 -0.6267604
vn -0.1491202 -0.7648103 -0.6267604
vn -0.491632 -0.6916693 -0.5290477
vn -0.491632 -0.6916693 -0.5290477
vn -0.491632 -0.6916693 -0.5290477
vn -0.491632 -0.6916693 -0.5290477
vn -0.491632 -0.6916693 -0.5290477
vn -0.491632 -0.6916693 -0.5290477
vn -0.491632 -0.6916693 -0.5290477
vn -0.491632 -0.6916693 -0.5290477
vn -0.491632 -0.6916693 -0.5290477
vn -0.491632 -0.6916693 -0.5290477
vn -0.491632 -0.6916693 -0.5290477
vn -0.491632 -0.6916693 -0.5290477
vn -0.491632 -0.6916693 -0.5290477
vn -0.491632 -0.6916693 -0.5290477
vn -0.491632 -0.6916693 -0.5290477
vn 0.5330398 -0.07137799 -0.8430741
vn 0.5330398 -0.07137799 -0.8430741
vn 0.5330398 -0.07137799 -0.8430741
vn 0.5330398 -0.07137799 -0.8430741
vn 0.5330398 -0.07137799 -0.8430741
vn 0.5330398 -0.07137799 -0.8430741
vn 0.2836369 -0.17849 -0.9421738
vn 0.2836369 -0.17849 -0.9421738
vn 0.2836369 -0.17849 -0.9421738
vn 0.2836369 -0.17849 -0.9421738
vn 0.2836369 -0.17849 -0.9421738
vn 0.2836369 -0.17849 -0.9421738
vn 0.2836369 -0.17849 -0.9421738
vn 0.2836369 -0.17849 -0.9421738
vn 0.2836369 -0.17849 -0.9421738
vn 0.2836369 -0.17849 -0.9421738
vn 0.2836369 -0.17849 -0.9421738
vn 0.2836369 -0.17849 -0.9421738
vn 0.2836369 -0.17849 -0.9421738
vn 0.2836369 -0.17849 -0.9421738
vn 0.2836369 -0.17849 -0.9421738
vn -0.3705564 -0.5464858 -0.7510268
vn -0.3705564 -0.5464858 -0.7510268
vn -0.3705564 -0.5464858 -0.7510268
vn -0.3705564 -0.5464858 -0.7510268
vn -0.3705564 -0.5464858 -0.7510268
vn -0.3705564 -0.5464858 -0.7510268

vt 0.5480872 0.5231134
vt 0.5090176 0.5152064
vt 0.6187012 0.4775804
vt 0.6187012 0.4775804
vt 0.5090176 0.5152064
vt 0.6518475 0.4347947
vt 0.6518475 0.4347947
vt 0.5090176 0.5152064
vt 0.6078232 0.3078209
vt 0.6078232 0.3078209
vt 0.5090176 0.5152064
vt 0.6038557 0.3005006
vt 0.6038557 0.3005006
vt 0.5090176 0.5152064
vt 0.5872593 0.2956343
vt 0.5872593 0.2956343
vt 0.5090176 0.5152064
vt 0.4052294 0.4041398
vt 0.4052294 0.4041398
vt 0.5090176 0.5152064
vt 0.4062306 0.4595124
vt 0.5046683 0.3299262
vt 0.5326177 0.3463689
vt 0.4699667 0.3270297
vt 0.4699667 0.3270297
vt 0.5326177 0.3463689
vt 0.370118 0.3975832
vt 0.370118 0.3975832
vt 0.5326177 0.3463689
vt 0.351794 0.4536264
vt 0.351794 0.4536264
vt 0.5326177 0.3463689
vt 0.4122191 0.5367948
vt 0.4122191 0.5367948
vt 0.5326177 0.3463689
vt 0.5309972 0.398724
vt 0.5060281 0.3645906
vt 0.5621597 0.4095974
vt 0.4839135 0.4725418
vt 0.4507113 0.4291089
vt 0.4985401 0.459233
vt 0.3606277 0.4430743
vt 0.3606277 0.4430743
vt 0.4985401 0.459233
vt 0.3545321 0.4605742
vt 0.3545321 0.4605742
vt 0.4985401 0.459233
vt 0.4627814 0.4681645
vt 0.3725954 0.3339402
vt 0.3748585 0.3250413
vt 0.3802603 0.433272
vt 0.3802603 0.433272
vt 0.3748585 0.3250413
vt 0.4838436 0.3495494
vt 0.4829868 0.3432164
vt 0.5395842 0.373401
vt 0.4764721 0.3947985
vt 0.4764721 0.3947985
vt 0.5395842 0.373401
vt 0.5497543 0.4097511
vt 0.4322615 0.5823371
vt 0.4371464 0.4587021
vt 0.5068569 0.5396167
vt 0.5068569 0.5396167
vt 0.4371464 0.4587021
vt 0.6290112 0.3665231
vt 0.6290112 0.3665231
vt 0.4371464 0.4587021
vt 0.6093227 0.3363897
vt 0.6093227 0.3363897
vt 0.4371464 0.4587021
vt 0.5040257 0.3344944
vt 0.4707537 0.4576591
vt 0.4970407 0.392689
vt 0.4895248 0.4686768
vt 0.4895248 0.4686768
vt 0.4970407 0.392689
vt 0.5664253 0.4534028
vt 0.5664253 0.4534028
vt 0.4970407 0.392689
vt 0.5627558 0.3982537
vt 0.5593657 0.374961
vt 0.5700109 0.4024121
vt 0.4831172 0.3587138
vt 0.4831172 0.3587138
vt 0.5700109 0.4024121
vt 0.3662297 0.5065077
vt 0.3662297 0.5065077
vt 0.5700109 0.4024121
vt 0.3700295 0.5122634
vt 0.3700295 0.5122634
vt 0.5700109 0.4024121
vt 0.4230971 0.5410324
vt 0.4230971 0.5410324
vt 0.5700109 0.4024121
vt 0.4614356 0.5379776
vt 0.4614356 0.5379776
vt 0.5700109 0.4024121
vt 0.5221495 0.4881883
vt 0.4614589 0.4357307
vt 0.4545903 0.4969988
vt 0.4336958 0.3442315
vt 0.4336958 0.3442315
vt 0.4545903 0.4969988
vt 0.4316049 0.4864374
vt 0.3662949 0.3123332
vt 0.4436657 0.2436564
vt 0.3545088 0.3740203
vt 0.3545088 0.3740203
vt 0.4436657 0.2436564
vt 0.4040513 0.488952
vt 0.4040513 0.488952
vt 0.4436657 0.2436564
vt 0.5525391 0.4544366
vt 0.4677548 0.2800484
vt 0.4959091 0.4001117
vt 0.4280006 0.3317469
vt 0.4280006 0.3317469
vt 0.4959091 0.4001117
vt 0.4169829 0.3665091
vt 0.5176977 0.374188
vt 0.5854805 0.4156418
vt 0.4371557 0.3839624
vt 0.4371557 0.3839624
vt 0.5854805 0.4156418
vt 0.4368344 0.4231484
vt 0.4368344 0.4231484
vt 0.5854805 0.4156418
vt 0.4476984 0.4503946
vt 0.4476984 0.4503946
vt 0.5854805 0.4156418
vt 0.5008312 0.4858879
vt 0.5008312 0.4858879
vt 0.5854805 0.4156418
vt 0.5674032 0.4866423
vt 0.5891685 0.5872174
vt 0.4661482 0.5673426
vt 0.6933572 0.2014808
vt 0.6933572 0.2014808
vt 0.4661482 0.5673426
vt 0.5368739 0.2369648
vt 0.5368739 0.2369648
vt 0.4661482 0.5673426
vt 0.418352 0.4319402
vt 0.5636778 0.35958
vt 0.5853221 0.4644485
vt 0.4862185 0.4342639
vt 0.4862185 0.4342639
vt 0.5853221 0.4644485
vt 0.5756362 0.4767049
vt 0.5718084 0.453198
vt 0.5395562 0.4688165
vt 0.5745093 0.4459428
vt 0.5745093 0.4459428
vt 0.5395562 0.4688165
vt 0.5337446 0.3336795
vt 0.5337446 0.3336795
vt 0.5395562 0.4688165
vt 0.50885 0.3206454
vt 0.50885 0.3206454
vt 0.5395562 0.4688165
vt 0.4853803 0.3798226
vt 0.4853803 0.3798226
vt 0.5395562 0.4688165
vt 0.5283895 0.4682577
vt 0.4181424 0.3106754
vt 0.5540478 0.2578919
vt 0.5122587 0.529521
vt 0.5122587 0.529521
vt 0.5540478 0.2578919
vt 0.6554425 0.4496682
vt 0.5915993 0.4801416
vt 0.5520827 0.550206
vt 0.5773778 0.4411791
vt 0.5773778 0.4411791
vt 0.5520827 0.550206
vt 0.4897716 0.4690959
vt 0.4897716 0.4690959
vt 0.5520827 0.550206
vt 0.482726 0.5228341
vt 0.482726 0.5228341
vt 0.5520827 0.550206
vt 0.5089059 0.550681
vt 0.5089059 0.550681
vt 0.5520827 0.550206
vt 0.5506205 0.5511932
vt 0.5331206 0.4304827
vt 0.5400684 0.4134066
vt 0.5353838 0.4316841
vt 0.5353838 0.4316841
vt 0.5400684 0.4134066
vt 0.5544204 0.4143379

usemtl Material0
usemap Material0

usemtl Material1
usemap Material1
f 1/1/1 2/2/2 3/3/3
f 4/4/4 5/5/5 6/6/6
f 7/7/7 8/8/8 9/9/9
f 10/10/10 11/11/11 12/12/12
f 13/13/13 14/14/14 15/15/15
f 16/16/16 17/17/17 18/18/18
f 19/19/19 20/20/20 21/21/21
f 22/22/22 23/23/23 24/24/24
f 25/25/25 26/26/26 27/27/27
f 28/28/28 29/29/29 30/30/30
f 31/31/31 32/32/32 33/33/33
f 34/34/34 35/35/35 36/36/36
f 37/37/37 38/38/38 39/39/39
f 40/40/40 41/41/41 42/42/42
f 43/43/43 44/44/44 45/45/45
f 46/46/46 47/47/47 48/48/48
f 49/49/49 50/50/50 51/51/51
f 52/52/52 53/53/53 54/54/54
f 55/55/55 56/56/56 57/57/57
f 58/58/58 59/59/59 60/60/60
f 61/61/61 62/62/62 63/63/63
f 64/64/64 65/65/65 66/66/66
f 67/67/67 68/68/68 69/69/69
f 70/70/70 71/71/71 72/72/72
f 73/73/73 74/74/74 75/75/75
f 76/76/76 77/77/77 78/78/78
f 79/79/79 80/80/80 81/81/81
f 82/82/82 83/83/83 84/84/84
f 85/85/85 86/86/86 87/87/87
f 88/88/88 89/89/89 90/90/90
f 91/91/91 92/92/92 93/93/93
f 94/94/94 95/95/95 96/96/96
f 97/97/97 98/98/98 99/99/99
f 100/100/100 101/101/101 102/102/102
f 103/103/103 104/104/104 105/105/105
f 106/106/106 107/107/107 108/108/108
f 109/109/109 110/110/110 111/111/111
f 112/112/112 113/113/113 114/114/114
f 115/115/115 116/116/116 117/117/117
f 118/118/118 119/119/119 120/120/120
f 121/121/121 122/122/122 123/123/123
f 124/124/124 125/125/125 126/126/126
f 127/127/127 128/128/128 129/129/129
f 130/130/130 131/131/131 132/132/132
f 133/133/133 134/134/134 135/135/135
f 136/136/136 137/137/137 138/138/138
f 139/139/139 140/140/140 141/141/141
f 142/142/142 143/143/143 144/144/144
f 145/145/145 146/146/146 147/147/147
f 148/148/148 149/149/149 150/150/150
f 151/151/151 152/152/152 153/153/153
f 154/154/154 155/155/155 156/156/156
f 157/157/157 158/158/158 159/159/159
f 160/160/160 161/161/161 162/162/162
f 163/163/163 164/164/164 165/165/165
f 166/166/166 167/167/167 168/168/168
f 169/169/169 170/170/170 171/171/171
f 172/172/172 173/173/173 174/174/174
f 175/175/175 176/176/176 177/177/177
f 178/178/178 179/179/179 180/180/180
f 181/181/181 182/182/182 183/183/183
f 184/184/184 185/185/185 186/186/186
f 187/187/187 188/188/188 189/189/189
f 190/190/190 191/191/191 192/192/192
