g  Instance
v -5.893305 -47.74766 -4.978604
v -5.971869 -46.38501 -2.541823
v -5.845541 -47.71901 -4.977303
v -5.845541 -47.71901 -4.977303
v -5.971869 -46.38501 -2.541823
v -5.033697 -45.92361 -2.691298
v -5.033697 -45.92361 -2.691298
v -5.971869 -46.38501 -2.541823
v -5.472709 -45.86829 -2.152127
v -6.393659 -48.94818 -4.225513
v -4.320375 -48.89045 -3.159688
v -6.649317 -48.87542 -3.89873
v -6.649317 -48.87542 -3.89873
v -4.320375 -48.89045 -3.159688
v -6.651183 -48.87357 -3.88879
v -6.651183 -48.87357 -3.88879
v -4.320375 -48.89045 -3.159688
v -6.662374 -48.70269 -2.912635
v -6.662374 -48.70269 -2.912635
v -4.320375 -48.89045 -3.159688
v -6.515732 -48.66327 -2.634512
v -6.515732 -48.66327 -2.634512
v -4.320375 -48.89045 -3.159688
v -5.565201 -48.5847 -1.847027
v -5.565201 -48.5847 -1.847027
v -4.320375 -48.89045 -3.159688
v -4.64953 -48.75021 -2.471959
v -4.64953 -48.75021 -2.471959
v -4.320375 -48.89045 -3.159688
v -4.367354 -48.83406 -2.852924
v -5.845541 -47.71901 -4.977303
v -4.231689 -48.73102 -3.247732
v -5.893305 -47.74766 -4.978604
v -5.893305 -47.74766 -4.978604
v -4.231689 -48.73102 -3.247732
v -6.530029 -48.88045 -4.356521
v -6.530029 -48.88045 -4.356521
v -4.231689 -48.73102 -3.247732
v -6.393659 -48.94818 -4.225513
v -6.393659 -48.94818 -4.225513
v -4.231689 -48.73102 -3.247732
v -4.320375 -48.89045 -3.159688
v -5.486866 -46.90575 -1.593005
v -5.264905 -47.2935 -1.45504
v -5.372799 -46.0692 -1.904454
v -5.372799 -46.0692 -1.904454
v -5.264905 -47.2935 -1.45504
v -4.93365 -46.46849 -1.767285
v -4.320375 -48.89045 -3.159688
v -4.231689 -48.73102 -3.247732
v -4.367354 -48.83406 -2.852924
v -4.367354 -48.83406 -2.852924
v -4.231689 -48.73102 -3.247732
v -4.184753 -48.51131 -3.044344
v -6.393659 -48.94818 -4.225513
v -6.649317 -48.87542 -3.89873
v -6.530029 -48.88045 -4.356521
v -6.677014 -48.59514 -2.758924
v -6.662374 -48.70269 -2.912635
v -6.515732 -48.66327 -2.634512
v -6.677014 -48.59514 -2.758924
v -6.515732 -48.66327 -2.634512
v -6.720436 -48.32365 -2.763794
v -6.720436 -48.32365 -2.763794
v -6.515732 -48.66327 -2.634512
v -6.538465 -47.75058 -2.549934
v -6.538465 -47.75058 -2.549934
v -6.515732 -48.66327 -2.634512
v -5.486866 -46.90575 -1.593005
v -5.486866 -46.90575 -1.593005
v -6.515732 -48.66327 -2.634512
v -5.264905 -47.2935 -1.45504
v -5.264905 -47.2935 -1.45504
v -6.515732 -48.66327 -2.634512
v -5.279045 -48.20321 -1.569492
v -5.279045 -48.20321 -1.569492
v -6.515732 -48.66327 -2.634512
v -5.565201 -48.5847 -1.847027
v -4.525361 -46.5012 -2.305535
v -4.184753 -48.51131 -3.044344
v -5.033697 -45.92361 -2.691298
v -5.033697 -45.92361 -2.691298
v -4.184753 -48.51131 -3.044344
v -5.845541 -47.71901 -4.977303
v -5.845541 -47.71901 -4.977303
v -4.184753 -48.51131 -3.044344
v -4.231689 -48.73102 -3.247732
v -5.565201 -48.5847 -1.847027
v -4.64953 -48.75021 -2.471959
v -5.279045 -48.20321 -1.569492
v -5.971869 -46.38501 -2.541823
v -5.893305 -47.74766 -4.978604
v -6.538465 -47.75058 -2.549934
v -6.538465 -47.75058 -2.549934
v -5.893305 -47.74766 -4.978604
v -6.720436 -48.32365 -2.763794
v -6.720436 -48.32365 -2.763794
v -5.893305 -47.74766 -4.978604
v -6.651183 -48.87357 -3.88879
v -6.651183 -48.87357 -3.88879
v -5.893305 -47.74766 -4.978604
v -6.649317 -48.87542 -3.89873
v -6.649317 -48.87542 -3.89873
v -5.893305 -47.74766 -4.978604
v -6.530029 -48.88045 -4.356521
v -6.662374 -48.70269 -2.912635
v -6.677014 -48.59514 -2.758924
v -6.651183 -48.87357 -3.88879
v -6.651183 -48.87357 -3.88879
v -6.677014 -48.59514 -2.758924
v -6.720436 -48.32365 -2.763794
v -4.64953 -48.75021 -2.471959
v -4.367354 -48.83406 -2.852924
v -5.279045 -48.20321 -1.569492
v -5.279045 -48.20321 -1.569492
v -4.367354 -48.83406 -2.852924
v -5.264905 -47.2935 -1.45504
v -5.264905 -47.2935 -1.45504
v -4.367354 -48.83406 -2.852924
v -4.93365 -46.46849 -1.767285
v -4.93365 -46.46849 -1.767285
v -4.367354 -48.83406 -2.852924
v -4.525361 -46.5012 -2.305535
v -4.525361 -46.5012 -2.305535
v -4.367354 -48.83406 -2.852924
v -4.184753 -48.51131 -3.044344
v -5.033697 -45.92361 -2.691298
v -5.472709 -45.86829 -2.152127
v -4.525361 -46.5012 -2.305535
v -4.525361 -46.5012 -2.305535
v -5.472709 -45.86829 -2.152127
v -4.93365 -46.46849 -1.767285
v -4.93365 -46.46849 -1.767285
v -5.472709 -45.86829 -2.152127
v -5.372799 -46.0692 -1.904454
v -5.486866 -46.90575 -1.593005
v -5.372799 -46.0692 -1.904454
v -6.538465 -47.75058 -2.549934
v -6.538465 -47.75058 -2.549934
v -5.372799 -46.0692 -1.904454
v -5.971869 -46.38501 -2.541823
v -5.971869 -46.38501 -2.541823
v -5.372799 -46.0692 -1.904454
v -5.472709 -45.86829 -2.152127

vn -0.4511566 0.7726542 -0.4466131
vn -0.4511566 0.7726542 -0.4466131
vn -0.4511566 0.7726542 -0.4466131
vn -0.4511566 0.7726542 -0.4466131
vn -0.4511566 0.7726542 -0.4466131
vn -0.4511566 0.7726542 -0.4466131
vn -0.4511566 0.7726542 -0.4466131
vn -0.4511566 0.7726542 -0.4466131
vn -0.4511566 0.7726542 -0.4466131
vn -0.06074566 -0.9833215 0.1714318
vn -0.06074566 -0.9833215 0.1714318
vn -0.06074566 -0.9833215 0.1714318
vn -0.06074566 -0.9833215 0.1714318
vn -0.06074566 -0.9833215 0.1714318
vn -0.06074566 -0.9833215 0.1714318
vn -0.06074566 -0.9833215 0.1714318
vn -0.06074566 -0.9833215 0.1714318
vn -0.06074566 -0.9833215 0.1714318
vn -0.06074566 -0.9833215 0.1714318
vn -0.06074566 -0.9833215 0.1714318
vn -0.06074566 -0.9833215 0.1714318
vn -0.06074566 -0.9833215 0.1714318
vn -0.06074566 -0.9833215 0.1714318
vn -0.06074566 -0.9833215 0.1714318
vn -0.06074566 -0.9833215 0.1714318
vn -0.06074566 -0.9833215 0.1714318
vn -0.06074566 -0.9833215 0.1714318
vn -0.06074566 -0.9833215 0.1714318
vn -0.06074566 -0.9833215 0.1714318
vn -0.06074566 -0.9833215 0.1714318
vn 0.3789335 -0.5999375 -0.7046165
vn 0.3789335 -0.5999375 -0.7046165
vn 0.3789335 -0.5999375 -0.7046165
vn 0.3789335 -0.5999375 -0.7046165
vn 0.3789335 -0.5999375 -0.7046165
vn 0.3789335 -0.5999375 -0.7046165
vn 0.3789335 -0.5999375 -0.7046165
vn 0.3789335 -0.5999375 -0.7046165
vn 0.3789335 -0.5999375 -0.7046165
vn 0.3789335 -0.5999375 -0.7046165
vn 0.3789335 -0.5999375 -0.7046165
vn 0.3789335 -0.5999375 -0.7046165
vn 0.0218298 0.3462139 0.9379017
vn 0.0218298 0.3462139 0.9379017
vn 0.0218298 0.3462139 0.9379017
vn 0.0218298 0.3462139 0.9379017
vn 0.0218298 0.3462139 0.9379017
vn 0.0218298 0.3462139 0.9379017
vn 0.8990577 -0.3850282 0.208443
vn 0.8990577 -0.3850282 0.208443
vn 0.8990577 -0.3850282 0.208443
vn 0.8990577 -0.3850282 0.208443
vn 0.8990577 -0.3850282 0.208443
vn 0.8990577 -0.3850282 0.208443
vn -0.3744916 -0.9230988 -0.08743482
vn -0.3744916 -0.9230988 -0.08743482
vn -0.3744916 -0.9230988 -0.08743482
vn -0.6069264 -0.6771849 0.4160062
vn -0.6069264 -0.6771849 0.4160062
vn -0.6069264 -0.6771849 0.4160062
vn -0.6312684 -0.08714392 0.7706531
vn -0.6312684 -0.08714392 0.7706531
vn -0.6312684 -0.08714392 0.7706531
vn -0.6312684 -0.08714392 0.7706531
vn -0.6312684 -0.08714392 0.7706531
vn -0.6312684 -0.08714392 0.7706531
vn -0.6312684 -0.08714392 0.7706531
vn -0.6312684 -0.08714392 0.7706531
vn -0.6312684 -0.08714392 0.7706531
vn -0.6312684 -0.08714392 0.7706531
vn -0.6312684 -0.08714392 0.7706531
vn -0.6312684 -0.08714392 0.7706531
vn -0.6312684 -0.08714392 0.7706531
vn -0.6312684 -0.08714392 0.7706531
vn -0.6312684 -0.08714392 0.7706531
vn -0.6312684 -0.08714392 0.7706531
vn -0.6312684 -0.08714392 0.7706531
vn -0.6312684 -0.08714392 0.7706531
vn 0.7787549 0.3284152 -0.5344944
vn 0.7787549 0.3284152 -0.5344944
vn 0.7787549 0.3284152 -0.5344944
vn 0.7787549 0.3284152 -0.5344944
vn 0.7787549 0.3284152 -0.5344944
vn 0.7787549 0.3284152 -0.5344944
vn 0.7787549 0.3284152 -0.5344944
vn 0.7787549 0.3284152 -0.5344944
vn 0.7787549 0.3284152 -0.5344944
vn 0.3114428 -0.7006362 0.6419598
vn 0.3114428 -0.7006362 0.6419598
vn 0.3114428 -0.7006362 0.6419598
vn -0.8966668 0.3734539 -0.2377413
vn -0.8966668 0.3734539 -0.2377413
vn -0.8966668 0.3734539 -0.2377413
vn -0.8966668 0.3734539 -0.2377413
vn -0.8966668 0.3734539 -0.2377413
vn -0.8966668 0.3734539 -0.2377413
vn -0.8966668 0.3734539 -0.2377413
vn -0.8966668 0.3734539 -0.2377413
vn -0.8966668 0.3734539 -0.2377413
vn -0.8966668 0.3734539 -0.2377413
vn -0.8966668 0.3734539 -0.2377413
vn -0.8966668 0.3734539 -0.2377413
vn -0.8966668 0.3734539 -0.2377413
vn -0.8966668 0.3734539 -0.2377413
vn -0.8966668 0.3734539 -0.2377413
vn -0.9873657 -0.1576207 0.01627165
vn -0.9873657 -0.1576207 0.01627165
vn -0.9873657 -0.1576207 0.01627165
vn -0.9873657 -0.1576207 0.01627165
vn -0.9873657 -0.1576207 0.01627165
vn -0.9873657 -0.1576207 0.01627165
vn 0.7910058 -0.08846456 0.605379
vn 0.7910058 -0.08846456 0.605379
vn 0.7910058 -0.08846456 0.605379
vn 0.7910058 -0.08846456 0.605379
vn 0.7910058 -0.08846456 0.605379
vn 0.7910058 -0.08846456 0.605379
vn 0.7910058 -0.08846456 0.605379
vn 0.7910058 -0.08846456 0.605379
vn 0.7910058 -0.08846456 0.605379
vn 0.7910058 -0.08846456 0.605379
vn 0.7910058 -0.08846456 0.605379
vn 0.7910058 -0.08846456 0.605379
vn 0.7910058 -0.08846456 0.605379
vn 0.7910058 -0.08846456 0.605379
vn 0.7910058 -0.08846456 0.605379
vn 0.5559848 0.7409257 0.3767094
vn 0.5559848 0.7409257 0.3767094
vn 0.5559848 0.7409257 0.3767094
vn 0.5559848 0.7409257 0.3767094
vn 0.5559848 0.7409257 0.3767094
vn 0.5559848 0.7409257 0.3767094
vn 0.5559848 0.7409257 0.3767094
vn 0.5559848 0.7409257 0.3767094
vn 0.5559848 0.7409257 0.3767094
vn -0.7645102 0.3138665 0.5630382
vn -0.7645102 0.3138665 0.5630382
vn -0.7645102 0.3138665 0.5630382
vn -0.7645102 0.3138665 0.5630382
vn -0.7645102 0.3138665 0.5630382
vn -0.7645102 0.3138665 0.5630382
vn -0.7645102 0.3138665 0.5630382
vn -0.7645102 0.3138665 0.5630382
vn -0.7645102 0.3138665 0.5630382

vt 0.4300682 0.5986263
vt 0.4908007 0.3315141
vt 0.4355305 0.5984865
vt 0.4355305 0.5984865
vt 0.4908007 0.3315141
vt 0.5930802 0.347901
vt 0.5930802 0.347901
vt 0.4908007 0.3315141
vt 0.55863 0.2887983
vt 0.5921674 0.5583273
vt 0.4081678 0.4619618
vt 0.6152925 0.5287853
vt 0.6152925 0.5287853
vt 0.4081678 0.4619618
vt 0.6154695 0.5278912
vt 0.6154695 0.5278912
vt 0.4081678 0.4619618
vt 0.6174067 0.4396284
vt 0.6174067 0.4396284
vt 0.4081678 0.4619618
vt 0.6045821 0.4144823
vt 0.6045821 0.4144823
vt 0.4081678 0.4619618
vt 0.5205104 0.3432862
vt 0.5205104 0.3432862
vt 0.4081678 0.4619618
vt 0.4381988 0.3997858
vt 0.4381988 0.3997858
vt 0.4081678 0.4619618
vt 0.4126522 0.4342266
vt 0.5811031 0.6045589
vt 0.4792055 0.3031316
vt 0.5879858 0.6047824
vt 0.5879858 0.6047824
vt 0.4792055 0.3031316
vt 0.7293813 0.4963748
vt 0.7293813 0.4963748
vt 0.4792055 0.3031316
vt 0.719593 0.4735384
vt 0.719593 0.4735384
vt 0.4792055 0.3031316
vt 0.4990058 0.2877878
vt 0.4930033 0.4669166
vt 0.4568814 0.447433
vt 0.5713521 0.4569047
vt 0.5713521 0.4569047
vt 0.4568814 0.447433
vt 0.5343034 0.418352
vt 0.58847 0.4674102
vt 0.5721902 0.4754848
vt 0.5854805 0.4392698
vt 0.5854805 0.4392698
vt 0.5721902 0.4754848
vt 0.5524086 0.4568302
vt 0.5415679 0.5196581
vt 0.564842 0.4907588
vt 0.5549419 0.531244
vt 0.5256234 0.478372
vt 0.5176511 0.494689
vt 0.5096509 0.4651749
vt 0.3655917 0.5710493
vt 0.3532608 0.544171
vt 0.4034413 0.5721018
vt 0.4034413 0.5721018
vt 0.3532608 0.544171
vt 0.4781857 0.5258888
vt 0.4781857 0.5258888
vt 0.3532608 0.544171
vt 0.5736338 0.319104
vt 0.5736338 0.319104
vt 0.3532608 0.544171
vt 0.5165615 0.2892919
vt 0.5165615 0.2892919
vt 0.3532608 0.544171
vt 0.3927355 0.3140236
vt 0.3927355 0.3140236
vt 0.3532608 0.544171
vt 0.3460849 0.3739971
vt 0.4423619 0.3080211
vt 0.6484109 0.3987846
vt 0.3665976 0.3554122
vt 0.3665976 0.3554122
vt 0.6484109 0.3987846
vt 0.505609 0.6362523
vt 0.505609 0.6362523
vt 0.6484109 0.3987846
vt 0.6675406 0.4237724
vt 0.5860858 0.394682
vt 0.4980186 0.4879648
vt 0.5384293 0.3532562
vt 0.5612004 0.3635568
vt 0.4502922 0.590207
vt 0.4276327 0.3643112
vt 0.4276327 0.3643112
vt 0.4502922 0.590207
vt 0.3735221 0.3842045
vt 0.3735221 0.3842045
vt 0.4502922 0.590207
vt 0.3300659 0.4888402
vt 0.3300659 0.4888402
vt 0.4502922 0.590207
vt 0.3299774 0.4897622
vt 0.3299774 0.4897622
vt 0.4502922 0.590207
vt 0.3337027 0.532343
vt 0.4077254 0.4209318
vt 0.4172483 0.4074414
vt 0.3927588 0.5066102
vt 0.3927588 0.5066102
vt 0.4172483 0.4074414
vt 0.4413793 0.4078651
vt 0.638846 0.4305525
vt 0.6445737 0.4833174
vt 0.586626 0.3055438
vt 0.586626 0.3055438
vt 0.6445737 0.4833174
vt 0.4867773 0.2896878
vt 0.4867773 0.2896878
vt 0.6445737 0.4833174
vt 0.3923211 0.3329391
vt 0.3923211 0.3329391
vt 0.6445737 0.4833174
vt 0.3909008 0.4074973
vt 0.3909008 0.4074973
vt 0.6445737 0.4833174
vt 0.6069664 0.5098326
vt 0.4325502 0.4466879
vt 0.3961442 0.3915574
vt 0.5039046 0.4072411
vt 0.5039046 0.4072411
vt 0.3961442 0.3915574
vt 0.4711122 0.3521991
vt 0.4711122 0.3521991
vt 0.3961442 0.3915574
vt 0.4151342 0.3662297
vt 0.5409066 0.3268388
vt 0.6276886 0.3668584
vt 0.4155207 0.4497893
vt 0.4155207 0.4497893
vt 0.6276886 0.3668584
vt 0.5725069 0.4487555
vt 0.5725069 0.4487555
vt 0.6276886 0.3668584
vt 0.643391 0.3986775

usemtl Material0
usemap Material0

usemtl Material1
usemap Material1
f 1/1/1 2/2/2 3/3/3
f 4/4/4 5/5/5 6/6/6
f 7/7/7 8/8/8 9/9/9
f 10/10/10 11/11/11 12/12/12
f 13/13/13 14/14/14 15/15/15
f 16/16/16 17/17/17 18/18/18
f 19/19/19 20/20/20 21/21/21
f 22/22/22 23/23/23 24/24/24
f 25/25/25 26/26/26 27/27/27
f 28/28/28 29/29/29 30/30/30
f 31/31/31 32/32/32 33/33/33
f 34/34/34 35/35/35 36/36/36
f 37/37/37 38/38/38 39/39/39
f 40/40/40 41/41/41 42/42/42
f 43/43/43 44/44/44 45/45/45
f 46/46/46 47/47/47 48/48/48
f 49/49/49 50/50/50 51/51/51
f 52/52/52 53/53/53 54/54/54
f 55/55/55 56/56/56 57/57/57
f 58/58/58 59/59/59 60/60/60
f 61/61/61 62/62/62 63/63/63
f 64/64/64 65/65/65 66/66/66
f 67/67/67 68/68/68 69/69/69
f 70/70/70 71/71/71 72/72/72
f 73/73/73 74/74/74 75/75/75
f 76/76/76 77/77/77 78/78/78
f 79/79/79 80/80/80 81/81/81
f 82/82/82 83/83/83 84/84/84
f 85/85/85 86/86/86 87/87/87
f 88/88/88 89/89/89 90/90/90
f 91/91/91 92/92/92 93/93/93
f 94/94/94 95/95/95 96/96/96
f 97/97/97 98/98/98 99/99/99
f 100/100/100 101/101/101 102/102/102
f 103/103/103 104/104/104 105/105/105
f 106/106/106 107/107/107 108/108/108
f 109/109/109 110/110/110 111/111/111
f 112/112/112 113/113/113 114/114/114
f 115/115/115 116/116/116 117/117/117
f 118/118/118 119/119/119 120/120/120
f 121/121/121 122/122/122 123/123/123
f 124/124/124 125/125/125 126/126/126
f 127/127/127 128/128/128 129/129/129
f 130/130/130 131/131/131 132/132/132
f 133/133/133 134/134/134 135/135/135
f 136/136/136 137/137/137 138/138/138
f 139/139/139 140/140/140 141/141/141
f 142/142/142 143/143/143 144/144/144
