g  Instance
v -2.324877 -50.88009 5.561003
v -1.594187 -51.57028 5.003666
v -0.9412944 -50.38911 6.243322
v -0.9412944 -50.38911 6.243322
v -1.594187 -51.57028 5.003666
v -0.4650083 -50.63958 6.072763
v -0.4650083 -50.63958 6.072763
v -1.594187 -51.57028 5.003666
v -0.3810625 -51.19077 5.552649
v -2.850608 -49.9831 5.296566
v -2.80124 -49.44901 5.318429
v -2.849845 -49.98207 5.293057
v -2.849845 -49.98207 5.293057
v -2.80124 -49.44901 5.318429
v -2.717667 -49.29544 4.955259
v -2.717667 -49.29544 4.955259
v -2.80124 -49.44901 5.318429
v -2.71819 -49.28278 4.964791
v 0.3476494 -49.73148 5.435476
v -1.206143 -49.35962 6.107346
v -0.08472636 -50.58819 5.871402
v -0.08472636 -50.58819 5.871402
v -1.206143 -49.35962 6.107346
v -0.4650083 -50.63958 6.072763
v -0.4650083 -50.63958 6.072763
v -1.206143 -49.35962 6.107346
v -0.9412944 -50.38911 6.243322
v -2.247602 -48.998 4.253818
v -2.45567 -49.04137 4.623812
v -2.111687 -48.98047 4.308978
v -2.111687 -48.98047 4.308978
v -2.45567 -49.04137 4.623812
v -2.164555 -49.00923 4.890168
v 0.3952709 -49.73518 5.311057
v 0.3476494 -49.73148 5.435476
v 0.4622763 -49.96899 4.95786
v 0.4622763 -49.96899 4.95786
v 0.3476494 -49.73148 5.435476
v -0.07192764 -50.95621 5.551972
v -0.07192764 -50.95621 5.551972
v 0.3476494 -49.73148 5.435476
v -0.08472636 -50.58819 5.871402
v -2.717667 -49.29544 4.955259
v -2.71819 -49.28278 4.964791
v -2.248882 -49.0354 4.231061
v -2.248882 -49.0354 4.231061
v -2.71819 -49.28278 4.964791
v -2.247602 -48.998 4.253818
v -2.247602 -48.998 4.253818
v -2.71819 -49.28278 4.964791
v -2.45567 -49.04137 4.623812
v -2.717667 -49.29544 4.955259
v -2.248882 -49.0354 4.231061
v -2.849845 -49.98207 5.293057
v -2.849845 -49.98207 5.293057
v -2.248882 -49.0354 4.231061
v -1.784247 -50.65247 3.921674
v -1.784247 -50.65247 3.921674
v -2.248882 -49.0354 4.231061
v -1.657897 -50.30637 3.666356
v -1.78643 -49.18077 5.81933
v -1.206143 -49.35962 6.107346
v -2.164555 -49.00923 4.890168
v -2.164555 -49.00923 4.890168
v -1.206143 -49.35962 6.107346
v -2.111687 -48.98047 4.308978
v -2.111687 -48.98047 4.308978
v -1.206143 -49.35962 6.107346
v 0.2797726 -49.65784 4.690893
v 0.2797726 -49.65784 4.690893
v -1.206143 -49.35962 6.107346
v 0.3952709 -49.73518 5.311057
v 0.3952709 -49.73518 5.311057
v -1.206143 -49.35962 6.107346
v 0.3476494 -49.73148 5.435476
v -0.3810625 -51.19077 5.552649
v -0.07192764 -50.95621 5.551972
v -0.4650083 -50.63958 6.072763
v -0.4650083 -50.63958 6.072763
v -0.07192764 -50.95621 5.551972
v -0.08472636 -50.58819 5.871402
v -1.784247 -50.65247 3.921674
v -1.594187 -51.57028 5.003666
v -2.849845 -49.98207 5.293057
v -2.849845 -49.98207 5.293057
v -1.594187 -51.57028 5.003666
v -2.850608 -49.9831 5.296566
v -2.850608 -49.9831 5.296566
v -1.594187 -51.57028 5.003666
v -2.324877 -50.88009 5.561003
v -0.07192764 -50.95621 5.551972
v -0.3810625 -51.19077 5.552649
v 0.4622763 -49.96899 4.95786
v 0.4622763 -49.96899 4.95786
v -0.3810625 -51.19077 5.552649
v 0.3242381 -49.76378 4.642243
v 0.3242381 -49.76378 4.642243
v -0.3810625 -51.19077 5.552649
v -1.657897 -50.30637 3.666356
v -1.657897 -50.30637 3.666356
v -0.3810625 -51.19077 5.552649
v -1.784247 -50.65247 3.921674
v -1.784247 -50.65247 3.921674
v -0.3810625 -51.19077 5.552649
v -1.594187 -51.57028 5.003666
v -2.111687 -48.98047 4.308978
v 0.2797726 -49.65784 4.690893
v -2.247602 -48.998 4.253818
v -2.247602 -48.998 4.253818
v 0.2797726 -49.65784 4.690893
v -2.248882 -49.0354 4.231061
v -2.248882 -49.0354 4.231061
v 0.2797726 -49.65784 4.690893
v -1.657897 -50.30637 3.666356
v -1.657897 -50.30637 3.666356
v 0.2797726 -49.65784 4.690893
v 0.3242381 -49.76378 4.642243
v -1.206143 -49.35962 6.107346
v -1.78643 -49.18077 5.81933
v -0.9412944 -50.38911 6.243322
v -0.9412944 -50.38911 6.243322
v -1.78643 -49.18077 5.81933
v -2.324877 -50.88009 5.561003
v -2.324877 -50.88009 5.561003
v -1.78643 -49.18077 5.81933
v -2.850608 -49.9831 5.296566
v -2.850608 -49.9831 5.296566
v -1.78643 -49.18077 5.81933
v -2.80124 -49.44901 5.318429
v 0.3242381 -49.76378 4.642243
v 0.2797726 -49.65784 4.690893
v 0.4622763 -49.96899 4.95786
v 0.4622763 -49.96899 4.95786
v 0.2797726 -49.65784 4.690893
v 0.3952709 -49.73518 5.311057
v -2.80124 -49.44901 5.318429
v -1.78643 -49.18077 5.81933
v -2.71819 -49.28278 4.964791
v -2.71819 -49.28278 4.964791
v -1.78643 -49.18077 5.81933
v -2.45567 -49.04137 4.623812
v -2.45567 -49.04137 4.623812
v -1.78643 -49.18077 5.81933
v -2.164555 -49.00923 4.890168

vn -0.1073588 -0.690945 0.714891
vn -0.1073588 -0.690945 0.714891
vn -0.1073588 -0.690945 0.714891
vn -0.1073588 -0.690945 0.714891
vn -0.1073588 -0.690945 0.714891
vn -0.1073588 -0.690945 0.714891
vn -0.1073588 -0.690945 0.714891
vn -0.1073588 -0.690945 0.714891
vn -0.1073588 -0.690945 0.714891
vn -0.9780979 0.09792786 -0.1836703
vn -0.9780979 0.09792786 -0.1836703
vn -0.9780979 0.09792786 -0.1836703
vn -0.9780979 0.09792786 -0.1836703
vn -0.9780979 0.09792786 -0.1836703
vn -0.9780979 0.09792786 -0.1836703
vn -0.9780979 0.09792786 -0.1836703
vn -0.9780979 0.09792786 -0.1836703
vn -0.9780979 0.09792786 -0.1836703
vn 0.4317291 0.2263938 0.87313
vn 0.4317291 0.2263938 0.87313
vn 0.4317291 0.2263938 0.87313
vn 0.4317291 0.2263938 0.87313
vn 0.4317291 0.2263938 0.87313
vn 0.4317291 0.2263938 0.87313
vn 0.4317291 0.2263938 0.87313
vn 0.4317291 0.2263938 0.87313
vn 0.4317291 0.2263938 0.87313
vn -0.1421585 0.9891886 0.03601506
vn -0.1421585 0.9891886 0.03601506
vn -0.1421585 0.9891886 0.03601506
vn -0.1421585 0.9891886 0.03601506
vn -0.1421585 0.9891886 0.03601506
vn -0.1421585 0.9891886 0.03601506
vn 0.8955959 -0.2734364 0.3509138
vn 0.8955959 -0.2734364 0.3509138
vn 0.8955959 -0.2734364 0.3509138
vn 0.8955959 -0.2734364 0.3509138
vn 0.8955959 -0.2734364 0.3509138
vn 0.8955959 -0.2734364 0.3509138
vn 0.8955959 -0.2734364 0.3509138
vn 0.8955959 -0.2734364 0.3509138
vn 0.8955959 -0.2734364 0.3509138
vn -0.8466561 0.2974388 -0.4412523
vn -0.8466561 0.2974388 -0.4412523
vn -0.8466561 0.2974388 -0.4412523
vn -0.8466561 0.2974388 -0.4412523
vn -0.8466561 0.2974388 -0.4412523
vn -0.8466561 0.2974388 -0.4412523
vn -0.8466561 0.2974388 -0.4412523
vn -0.8466561 0.2974388 -0.4412523
vn -0.8466561 0.2974388 -0.4412523
vn -0.8120307 -0.1242143 -0.5702429
vn -0.8120307 -0.1242143 -0.5702429
vn -0.8120307 -0.1242143 -0.5702429
vn -0.8120307 -0.1242143 -0.5702429
vn -0.8120307 -0.1242143 -0.5702429
vn -0.8120307 -0.1242143 -0.5702429
vn -0.8120307 -0.1242143 -0.5702429
vn -0.8120307 -0.1242143 -0.5702429
vn -0.8120307 -0.1242143 -0.5702429
vn 0.2612533 0.9626265 0.07139362
vn 0.2612533 0.9626265 0.07139362
vn 0.2612533 0.9626265 0.07139362
vn 0.2612533 0.9626265 0.07139362
vn 0.2612533 0.9626265 0.07139362
vn 0.2612533 0.9626265 0.07139362
vn 0.2612533 0.9626265 0.07139362
vn 0.2612533 0.9626265 0.07139362
vn 0.2612533 0.9626265 0.07139362
vn 0.2612533 0.9626265 0.07139362
vn 0.2612533 0.9626265 0.07139362
vn 0.2612533 0.9626265 0.07139362
vn 0.2612533 0.9626265 0.07139362
vn 0.2612533 0.9626265 0.07139362
vn 0.2612533 0.9626265 0.07139362
vn 0.4411686 -0.5794543 0.6852759
vn 0.4411686 -0.5794543 0.6852759
vn 0.4411686 -0.5794543 0.6852759
vn 0.4411686 -0.5794543 0.6852759
vn 0.4411686 -0.5794543 0.6852759
vn 0.4411686 -0.5794543 0.6852759
vn -0.7689052 -0.5478297 -0.3296475
vn -0.7689052 -0.5478297 -0.3296475
vn -0.7689052 -0.5478297 -0.3296475
vn -0.7689052 -0.5478297 -0.3296475
vn -0.7689052 -0.5478297 -0.3296475
vn -0.7689052 -0.5478297 -0.3296475
vn -0.7689052 -0.5478297 -0.3296475
vn -0.7689052 -0.5478297 -0.3296475
vn -0.7689052 -0.5478297 -0.3296475
vn 0.4752883 -0.6280273 -0.6161842
vn 0.4752883 -0.6280273 -0.6161842
vn 0.4752883 -0.6280273 -0.6161842
vn 0.4752883 -0.6280273 -0.6161842
vn 0.4752883 -0.6280273 -0.6161842
vn 0.4752883 -0.6280273 -0.6161842
vn 0.4752883 -0.6280273 -0.6161842
vn 0.4752883 -0.6280273 -0.6161842
vn 0.4752883 -0.6280273 -0.6161842
vn 0.4752883 -0.6280273 -0.6161842
vn 0.4752883 -0.6280273 -0.6161842
vn 0.4752883 -0.6280273 -0.6161842
vn 0.4752883 -0.6280273 -0.6161842
vn 0.4752883 -0.6280273 -0.6161842
vn 0.4752883 -0.6280273 -0.6161842
vn 0.2717159 0.4934589 -0.8262377
vn 0.2717159 0.4934589 -0.8262377
vn 0.2717159 0.4934589 -0.8262377
vn 0.2717159 0.4934589 -0.8262377
vn 0.2717159 0.4934589 -0.8262377
vn 0.2717159 0.4934589 -0.8262377
vn 0.2717159 0.4934589 -0.8262377
vn 0.2717159 0.4934589 -0.8262377
vn 0.2717159 0.4934589 -0.8262377
vn 0.2717159 0.4934589 -0.8262377
vn 0.2717159 0.4934589 -0.8262377
vn 0.2717159 0.4934589 -0.8262377
vn -0.4435154 0.004289665 0.8962566
vn -0.4435154 0.004289665 0.8962566
vn -0.4435154 0.004289665 0.8962566
vn -0.4435154 0.004289665 0.8962566
vn -0.4435154 0.004289665 0.8962566
vn -0.4435154 0.004289665 0.8962566
vn -0.4435154 0.004289665 0.8962566
vn -0.4435154 0.004289665 0.8962566
vn -0.4435154 0.004289665 0.8962566
vn -0.4435154 0.004289665 0.8962566
vn -0.4435154 0.004289665 0.8962566
vn -0.4435154 0.004289665 0.8962566
vn 0.8964356 0.428385 -0.1135319
vn 0.8964356 0.428385 -0.1135319
vn 0.8964356 0.428385 -0.1135319
vn 0.8964356 0.428385 -0.1135319
vn 0.8964356 0.428385 -0.1135319
vn 0.8964356 0.428385 -0.1135319
vn -0.3854873 0.8666152 0.3168245
vn -0.3854873 0.8666152 0.3168245
vn -0.3854873 0.8666152 0.3168245
vn -0.3854873 0.8666152 0.3168245
vn -0.3854873 0.8666152 0.3168245
vn -0.3854873 0.8666152 0.3168245
vn -0.3854873 0.8666152 0.3168245
vn -0.3854873 0.8666152 0.3168245
vn -0.3854873 0.8666152 0.3168245

vt 0.6488672 0.4730261
vt 0.5449486 0.573061
vt 0.4867494 0.3505646
vt 0.4867494 0.3505646
vt 0.5449486 0.573061
vt 0.422855 0.3811777
vt 0.422855 0.3811777
vt 0.5449486 0.573061
vt 0.4018254 0.4745256
vt 0.5075275 0.3923258
vt 0.5554075 0.390342
vt 0.5076299 0.3926424
vt 0.5076299 0.3926424
vt 0.5554075 0.390342
vt 0.5697967 0.4233207
vt 0.5697967 0.4233207
vt 0.5554075 0.390342
vt 0.5709143 0.4224545
vt 0.5321614 0.6394933
vt 0.3429882 0.3913991
vt 0.6325874 0.4785303
vt 0.6325874 0.4785303
vt 0.3429882 0.3913991
vt 0.6089967 0.4041724
vt 0.6089967 0.4041724
vt 0.3429882 0.3913991
vt 0.5292463 0.3411907
vt 0.4095229 0.518494
vt 0.3908962 0.485981
vt 0.4215558 0.5136511
vt 0.4215558 0.5136511
vt 0.3908962 0.485981
vt 0.4166011 0.4625858
vt 0.4149107 0.4610212
vt 0.4158839 0.4485692
vt 0.434031 0.4963654
vt 0.434031 0.4963654
vt 0.4158839 0.4485692
vt 0.5371347 0.4369089
vt 0.5371347 0.4369089
vt 0.4158839 0.4485692
vt 0.5045007 0.4049407
vt 0.5332976 0.3699783
vt 0.5344431 0.3689399
vt 0.572479 0.4488952
vt 0.572479 0.4488952
vt 0.5344431 0.3689399
vt 0.5759715 0.4464085
vt 0.5759715 0.4464085
vt 0.5344431 0.3689399
vt 0.5652239 0.4060909
vt 0.6281636 0.3594449
vt 0.6480477 0.4536264
vt 0.5577918 0.3155137
vt 0.5577918 0.3155137
vt 0.6480477 0.4536264
vt 0.4697897 0.4938508
vt 0.4697897 0.4938508
vt 0.6480477 0.4536264
vt 0.5042958 0.527053
vt 0.4108454 0.3818855
vt 0.4642343 0.3564833
vt 0.3747887 0.4638431
vt 0.3747887 0.4638431
vt 0.4642343 0.3564833
vt 0.3786118 0.5151132
vt 0.3786118 0.5151132
vt 0.4642343 0.3564833
vt 0.5972711 0.4814175
vt 0.5972711 0.4814175
vt 0.4642343 0.3564833
vt 0.608857 0.4267154
vt 0.608857 0.4267154
vt 0.4642343 0.3564833
vt 0.6047311 0.4157396
vt 0.5067545 0.4941209
vt 0.4600014 0.4942327
vt 0.4745768 0.40807
vt 0.4745768 0.40807
vt 0.4600014 0.4942327
vt 0.4343663 0.441384
vt 0.510424 0.5171157
vt 0.4306968 0.4105986
vt 0.6186454 0.3820997
vt 0.6186454 0.3820997
vt 0.4306968 0.4105986
vt 0.6186081 0.3817551
vt 0.6186081 0.3817551
vt 0.4306968 0.4105986
vt 0.5223544 0.3557289
vt 0.4626417 0.3219167
vt 0.505879 0.3218235
vt 0.348809 0.4059605
vt 0.348809 0.4059605
vt 0.505879 0.3218235
vt 0.347277 0.4506088
vt 0.347277 0.4506088
vt 0.505879 0.3218235
vt 0.5598593 0.588661
vt 0.5598593 0.588661
vt 0.505879 0.3218235
vt 0.5943561 0.5525437
vt 0.5943561 0.5525437
vt 0.505879 0.3218235
vt 0.639172 0.3994831
vt 0.2565135 0.4333791
vt 0.6337423 0.3277655
vt 0.2392838 0.4486251
vt 0.2392838 0.4486251
vt 0.6337423 0.3277655
vt 0.2419195 0.4549209
vt 0.2419195 0.4549209
vt 0.6337423 0.3277655
vt 0.4180633 0.6110876
vt 0.4180633 0.6110876
vt 0.6337423 0.3277655
vt 0.6477683 0.3412187
vt 0.6758853 0.3847354
vt 0.7101585 0.513204
vt 0.4727235 0.324082
vt 0.4727235 0.324082
vt 0.7101585 0.513204
vt 0.3729447 0.6284384
vt 0.3729447 0.6284384
vt 0.7101585 0.513204
vt 0.5493911 0.7464015
vt 0.5493911 0.7464015
vt 0.7101585 0.513204
vt 0.6551538 0.7366504
vt 0.5126685 0.465622
vt 0.5025355 0.4613006
vt 0.5342848 0.4375608
vt 0.5342848 0.4375608
vt 0.5025355 0.4613006
vt 0.5130969 0.4061654
vt 0.3801253 0.4632098
vt 0.4759924 0.4143519
vt 0.3933921 0.4977066
vt 0.3933921 0.4977066
vt 0.4759924 0.4143519
vt 0.4246664 0.5309646
vt 0.4246664 0.5309646
vt 0.4759924 0.4143519
vt 0.4504785 0.5049896

usemtl Material0
usemap Material0

usemtl Material1
usemap Material1
f 1/1/1 2/2/2 3/3/3
f 4/4/4 5/5/5 6/6/6
f 7/7/7 8/8/8 9/9/9
f 10/10/10 11/11/11 12/12/12
f 13/13/13 14/14/14 15/15/15
f 16/16/16 17/17/17 18/18/18
f 19/19/19 20/20/20 21/21/21
f 22/22/22 23/23/23 24/24/24
f 25/25/25 26/26/26 27/27/27
f 28/28/28 29/29/29 30/30/30
f 31/31/31 32/32/32 33/33/33
f 34/34/34 35/35/35 36/36/36
f 37/37/37 38/38/38 39/39/39
f 40/40/40 41/41/41 42/42/42
f 43/43/43 44/44/44 45/45/45
f 46/46/46 47/47/47 48/48/48
f 49/49/49 50/50/50 51/51/51
f 52/52/52 53/53/53 54/54/54
f 55/55/55 56/56/56 57/57/57
f 58/58/58 59/59/59 60/60/60
f 61/61/61 62/62/62 63/63/63
f 64/64/64 65/65/65 66/66/66
f 67/67/67 68/68/68 69/69/69
f 70/70/70 71/71/71 72/72/72
f 73/73/73 74/74/74 75/75/75
f 76/76/76 77/77/77 78/78/78
f 79/79/79 80/80/80 81/81/81
f 82/82/82 83/83/83 84/84/84
f 85/85/85 86/86/86 87/87/87
f 88/88/88 89/89/89 90/90/90
f 91/91/91 92/92/92 93/93/93
f 94/94/94 95/95/95 96/96/96
f 97/97/97 98/98/98 99/99/99
f 100/100/100 101/101/101 102/102/102
f 103/103/103 104/104/104 105/105/105
f 106/106/106 107/107/107 108/108/108
f 109/109/109 110/110/110 111/111/111
f 112/112/112 113/113/113 114/114/114
f 115/115/115 116/116/116 117/117/117
f 118/118/118 119/119/119 120/120/120
f 121/121/121 122/122/122 123/123/123
f 124/124/124 125/125/125 126/126/126
f 127/127/127 128/128/128 129/129/129
f 130/130/130 131/131/131 132/132/132
f 133/133/133 134/134/134 135/135/135
f 136/136/136 137/137/137 138/138/138
f 139/139/139 140/140/140 141/141/141
f 142/142/142 143/143/143 144/144/144
