g  Instance
v 0.2219715 -51.23719 -3.179685
v 0.1817966 -51.23006 -3.251825
v 0.0453003 -51.35817 -2.239051
v 0.0453003 -51.35817 -2.239051
v 0.1817966 -51.23006 -3.251825
v -0.38322 -51.28463 -2.98717
v 0.1817966 -51.23006 -3.251825
v 0.2219715 -51.23719 -3.179685
v 0.8341822 -52.33363 -3.931211
v 0.8341822 -52.33363 -3.931211
v 0.2219715 -51.23719 -3.179685
v 1.101489 -52.52645 -3.723575
v 1.101489 -52.52645 -3.723575
v 0.2219715 -51.23719 -3.179685
v 1.647683 -52.43176 -2.383528
v -0.6481834 -54.47317 -2.57798
v -1.166557 -53.62946 -3.347325
v -0.6025008 -54.47182 -2.569273
v -0.6025008 -54.47182 -2.569273
v -1.166557 -53.62946 -3.347325
v -0.1118056 -54.31833 -2.584216
v -0.1118056 -54.31833 -2.584216
v -1.166557 -53.62946 -3.347325
v 1.101489 -52.52645 -3.723575
v 1.101489 -52.52645 -3.723575
v -1.166557 -53.62946 -3.347325
v 0.8341822 -52.33363 -3.931211
v -0.6857017 -54.37286 -2.457724
v -0.6449242 -54.47546 -2.55958
v -0.7936565 -53.581 -1.734263
v -0.7936565 -53.581 -1.734263
v -0.6449242 -54.47546 -2.55958
v 0.5528132 -52.075 -0.8290174
v 0.5528132 -52.075 -0.8290174
v -0.6449242 -54.47546 -2.55958
v 1.696692 -52.64875 -1.676426
v 1.696692 -52.64875 -1.676426
v -0.6449242 -54.47546 -2.55958
v -0.1118056 -54.31833 -2.584216
v -0.1118056 -54.31833 -2.584216
v -0.6449242 -54.47546 -2.55958
v -0.6025008 -54.47182 -2.569273
v 1.101489 -52.52645 -3.723575
v 1.647683 -52.43176 -2.383528
v -0.1118056 -54.31833 -2.584216
v -0.1118056 -54.31833 -2.584216
v 1.647683 -52.43176 -2.383528
v 1.696692 -52.64875 -1.676426
v 0.0453003 -51.35817 -2.239051
v -0.38322 -51.28463 -2.98717
v 0.5528132 -52.075 -0.8290174
v 0.5528132 -52.075 -0.8290174
v -0.38322 -51.28463 -2.98717
v -0.7936565 -53.581 -1.734263
v -0.7936565 -53.581 -1.734263
v -0.38322 -51.28463 -2.98717
v -1.367126 -53.07942 -3.070929
v -0.6025008 -54.47182 -2.569273
v -0.6449242 -54.47546 -2.55958
v -0.6481834 -54.47317 -2.57798
v -0.7936565 -53.581 -1.734263
v -1.367126 -53.07942 -3.070929
v -0.6857017 -54.37286 -2.457724
v -0.6857017 -54.37286 -2.457724
v -1.367126 -53.07942 -3.070929
v -1.299942 -53.33209 -3.185439
v 1.647683 -52.43176 -2.383528
v 0.2219715 -51.23719 -3.179685
v 1.696692 -52.64875 -1.676426
v 1.696692 -52.64875 -1.676426
v 0.2219715 -51.23719 -3.179685
v 0.5528132 -52.075 -0.8290174
v 0.5528132 -52.075 -0.8290174
v 0.2219715 -51.23719 -3.179685
v 0.0453003 -51.35817 -2.239051
v -0.6857017 -54.37286 -2.457724
v -1.299942 -53.33209 -3.185439
v -0.6449242 -54.47546 -2.55958
v -0.6449242 -54.47546 -2.55958
v -1.299942 -53.33209 -3.185439
v -0.6481834 -54.47317 -2.57798
v -0.6481834 -54.47317 -2.57798
v -1.299942 -53.33209 -3.185439
v -1.166557 -53.62946 -3.347325
v -1.367126 -53.07942 -3.070929
v -0.38322 -51.28463 -2.98717
v -1.299942 -53.33209 -3.185439
v -1.299942 -53.33209 -3.185439
v -0.38322 -51.28463 -2.98717
v -1.166557 -53.62946 -3.347325
v -1.166557 -53.62946 -3.347325
v -0.38322 -51.28463 -2.98717
v 0.8341822 -52.33363 -3.931211
v 0.8341822 -52.33363 -3.931211
v -0.38322 -51.28463 -2.98717
v 0.1817966 -51.23006 -3.251825

vn -0.03953331 0.9919676 0.1201565
vn -0.03953331 0.9919676 0.1201565
vn -0.03953331 0.9919676 0.1201565
vn -0.03953331 0.9919676 0.1201565
vn -0.03953331 0.9919676 0.1201565
vn -0.03953331 0.9919676 0.1201565
vn 0.7078516 0.6231813 -0.3325526
vn 0.7078516 0.6231813 -0.3325526
vn 0.7078516 0.6231813 -0.3325526
vn 0.7078516 0.6231813 -0.3325526
vn 0.7078516 0.6231813 -0.3325526
vn 0.7078516 0.6231813 -0.3325526
vn 0.7078516 0.6231813 -0.3325526
vn 0.7078516 0.6231813 -0.3325526
vn 0.7078516 0.6231813 -0.3325526
vn 0.1661255 -0.6067536 -0.7773367
vn 0.1661255 -0.6067536 -0.7773367
vn 0.1661255 -0.6067536 -0.7773367
vn 0.1661255 -0.6067536 -0.7773367
vn 0.1661255 -0.6067536 -0.7773367
vn 0.1661255 -0.6067536 -0.7773367
vn 0.1661255 -0.6067536 -0.7773367
vn 0.1661255 -0.6067536 -0.7773367
vn 0.1661255 -0.6067536 -0.7773367
vn 0.1661255 -0.6067536 -0.7773367
vn 0.1661255 -0.6067536 -0.7773367
vn 0.1661255 -0.6067536 -0.7773367
vn 0.2228235 -0.640812 0.7346494
vn 0.2228235 -0.640812 0.7346494
vn 0.2228235 -0.640812 0.7346494
vn 0.2228235 -0.640812 0.7346494
vn 0.2228235 -0.640812 0.7346494
vn 0.2228235 -0.640812 0.7346494
vn 0.2228235 -0.640812 0.7346494
vn 0.2228235 -0.640812 0.7346494
vn 0.2228235 -0.640812 0.7346494
vn 0.2228235 -0.640812 0.7346494
vn 0.2228235 -0.640812 0.7346494
vn 0.2228235 -0.640812 0.7346494
vn 0.2228235 -0.640812 0.7346494
vn 0.2228235 -0.640812 0.7346494
vn 0.2228235 -0.640812 0.7346494
vn 0.7214281 -0.6464146 -0.2483741
vn 0.7214281 -0.6464146 -0.2483741
vn 0.7214281 -0.6464146 -0.2483741
vn 0.7214281 -0.6464146 -0.2483741
vn 0.7214281 -0.6464146 -0.2483741
vn 0.7214281 -0.6464146 -0.2483741
vn -0.7764761 0.4030637 0.4843804
vn -0.7764761 0.4030637 0.4843804
vn -0.7764761 0.4030637 0.4843804
vn -0.7764761 0.4030637 0.4843804
vn -0.7764761 0.4030637 0.4843804
vn -0.7764761 0.4030637 0.4843804
vn -0.7764761 0.4030637 0.4843804
vn -0.7764761 0.4030637 0.4843804
vn -0.7764761 0.4030637 0.4843804
vn 0.05459462 -0.9896538 -0.1326833
vn 0.05459462 -0.9896538 -0.1326833
vn 0.05459462 -0.9896538 -0.1326833
vn -0.9002194 -0.3541683 0.2533176
vn -0.9002194 -0.3541683 0.2533176
vn -0.9002194 -0.3541683 0.2533176
vn -0.9002194 -0.3541683 0.2533176
vn -0.9002194 -0.3541683 0.2533176
vn -0.9002194 -0.3541683 0.2533176
vn 0.55731 0.8038166 0.2080499
vn 0.55731 0.8038166 0.2080499
vn 0.55731 0.8038166 0.2080499
vn 0.55731 0.8038166 0.2080499
vn 0.55731 0.8038166 0.2080499
vn 0.55731 0.8038166 0.2080499
vn 0.55731 0.8038166 0.2080499
vn 0.55731 0.8038166 0.2080499
vn 0.55731 0.8038166 0.2080499
vn -0.8860934 -0.4523879 0.100915
vn -0.8860934 -0.4523879 0.100915
vn -0.8860934 -0.4523879 0.100915
vn -0.8860934 -0.4523879 0.100915
vn -0.8860934 -0.4523879 0.100915
vn -0.8860934 -0.4523879 0.100915
vn -0.8860934 -0.4523879 0.100915
vn -0.8860934 -0.4523879 0.100915
vn -0.8860934 -0.4523879 0.100915
vn -0.4294587 0.275565 -0.8600169
vn -0.4294587 0.275565 -0.8600169
vn -0.4294587 0.275565 -0.8600169
vn -0.4294587 0.275565 -0.8600169
vn -0.4294587 0.275565 -0.8600169
vn -0.4294587 0.275565 -0.8600169
vn -0.4294587 0.275565 -0.8600169
vn -0.4294587 0.275565 -0.8600169
vn -0.4294587 0.275565 -0.8600169
vn -0.4294587 0.275565 -0.8600169
vn -0.4294587 0.275565 -0.8600169
vn -0.4294587 0.275565 -0.8600169

vt 0.4872569 0.561112
vt 0.4837318 0.5675382
vt 0.471224 0.4773569
vt 0.471224 0.4773569
vt 0.4837318 0.5675382
vt 0.4336352 0.5439661
vt 0.3903373 0.5307038
vt 0.3933037 0.5235884
vt 0.5075182 0.5977415
vt 0.5075182 0.5977415
vt 0.3933037 0.5235884
vt 0.5374234 0.5772521
vt 0.5374234 0.5772521
vt 0.3933037 0.5235884
vt 0.564395 0.4450395
vt 0.7130829 0.3275559
vt 0.751752 0.4981443
vt 0.7068895 0.3256234
vt 0.7068895 0.3256234
vt 0.751752 0.4981443
vt 0.6352139 0.3289343
vt 0.6352139 0.3289343
vt 0.751752 0.4981443
vt 0.4059652 0.5815735
vt 0.4059652 0.5815735
vt 0.751752 0.4981443
vt 0.4348273 0.6276188
vt 0.7108105 0.6087685
vt 0.7101865 0.6281869
vt 0.6903583 0.4708375
vt 0.6903583 0.4708375
vt 0.7101865 0.6281869
vt 0.4618873 0.2982607
vt 0.4618873 0.2982607
vt 0.7101865 0.6281869
vt 0.3465133 0.4598198
vt 0.3465133 0.4598198
vt 0.7101865 0.6281869
vt 0.6383803 0.6328808
vt 0.6383803 0.6328808
vt 0.7101865 0.6281869
vt 0.7048499 0.6300309
vt 0.4544879 0.5839391
vt 0.415083 0.4586183
vt 0.6487368 0.4773848
vt 0.6487368 0.4773848
vt 0.415083 0.4586183
vt 0.426762 0.3924887
vt 0.592391 0.5078675
vt 0.579138 0.5936436
vt 0.5520268 0.3462013
vt 0.5520268 0.3462013
vt 0.579138 0.5936436
vt 0.3557382 0.4499941
vt 0.3557382 0.4499941
vt 0.579138 0.5936436
vt 0.37389 0.6032457
vt 0.5995809 0.4716943
vt 0.6033528 0.4708282
vt 0.6036229 0.4724673
vt 0.4566951 0.4541107
vt 0.5180796 0.57945
vt 0.3862674 0.5219586
vt 0.3862674 0.5219586
vt 0.5180796 0.57945
vt 0.4945167 0.5901976
vt 0.5823977 0.4922862
vt 0.4162192 0.5653123
vt 0.5971035 0.4274325
vt 0.5971035 0.4274325
vt 0.4162192 0.5653123
vt 0.4834338 0.3497031
vt 0.4834338 0.3497031
vt 0.4162192 0.5653123
vt 0.4093739 0.4790333
vt 0.4043307 0.4992898
vt 0.5107313 0.5638036
vt 0.3946355 0.5083145
vt 0.3946355 0.5083145
vt 0.5107313 0.5638036
vt 0.3949428 0.5099443
vt 0.3949428 0.5099443
vt 0.5107313 0.5638036
vt 0.4820182 0.5781555
vt 0.2632425 0.3536986
vt 0.6143984 0.3254697
vt 0.2329134 0.3922885
vt 0.2329134 0.3922885
vt 0.6143984 0.3254697
vt 0.2022585 0.4468555
vt 0.2022585 0.4468555
vt 0.6143984 0.3254697
vt 0.5756362 0.6436378
vt 0.5756362 0.6436378
vt 0.6143984 0.3254697
vt 0.6747677 0.4146685

usemtl Material0
usemap Material0

usemtl Material1
usemap Material1
f 1/1/1 2/2/2 3/3/3
f 4/4/4 5/5/5 6/6/6
f 7/7/7 8/8/8 9/9/9
f 10/10/10 11/11/11 12/12/12
f 13/13/13 14/14/14 15/15/15
f 16/16/16 17/17/17 18/18/18
f 19/19/19 20/20/20 21/21/21
f 22/22/22 23/23/23 24/24/24
f 25/25/25 26/26/26 27/27/27
f 28/28/28 29/29/29 30/30/30
f 31/31/31 32/32/32 33/33/33
f 34/34/34 35/35/35 36/36/36
f 37/37/37 38/38/38 39/39/39
f 40/40/40 41/41/41 42/42/42
f 43/43/43 44/44/44 45/45/45
f 46/46/46 47/47/47 48/48/48
f 49/49/49 50/50/50 51/51/51
f 52/52/52 53/53/53 54/54/54
f 55/55/55 56/56/56 57/57/57
f 58/58/58 59/59/59 60/60/60
f 61/61/61 62/62/62 63/63/63
f 64/64/64 65/65/65 66/66/66
f 67/67/67 68/68/68 69/69/69
f 70/70/70 71/71/71 72/72/72
f 73/73/73 74/74/74 75/75/75
f 76/76/76 77/77/77 78/78/78
f 79/79/79 80/80/80 81/81/81
f 82/82/82 83/83/83 84/84/84
f 85/85/85 86/86/86 87/87/87
f 88/88/88 89/89/89 90/90/90
f 91/91/91 92/92/92 93/93/93
f 94/94/94 95/95/95 96/96/96
