g  Instance
v 3.993251 -49.35682 5.736579
v 4.219247 -49.50303 5.76405
v 3.776326 -48.84221 5.86672
v 3.776326 -48.84221 5.86672
v 4.219247 -49.50303 5.76405
v 4.524798 -49.47083 5.897314
v 6.286346 -46.09265 3.725184
v 5.546033 -46.31219 4.192647
v 6.396687 -45.92384 4.407392
v 6.396687 -45.92384 4.407392
v 5.546033 -46.31219 4.192647
v 6.229463 -45.91337 4.844759
v 6.229463 -45.91337 4.844759
v 5.546033 -46.31219 4.192647
v 6.084259 -45.93723 5.042556
v 6.234267 -46.80336 3.374383
v 5.484323 -48.00132 3.309548
v 6.286346 -46.09265 3.725184
v 6.286346 -46.09265 3.725184
v 5.484323 -48.00132 3.309548
v 5.546033 -46.31219 4.192647
v 5.546033 -46.31219 4.192647
v 5.484323 -48.00132 3.309548
v 4.073205 -48.02998 4.415694
v 4.073205 -48.02998 4.415694
v 5.484323 -48.00132 3.309548
v 4.325492 -48.35573 4.035339
v 4.325492 -48.35573 4.035339
v 5.484323 -48.00132 3.309548
v 4.637001 -48.30052 3.818128
v 6.644245 -48.78357 6.540867
v 5.250196 -49.54319 6.04815
v 6.731319 -48.64746 6.328535
v 6.731319 -48.64746 6.328535
v 5.250196 -49.54319 6.04815
v 6.397018 -48.13601 4.308368
v 6.397018 -48.13601 4.308368
v 5.250196 -49.54319 6.04815
v 5.628161 -48.43383 3.70447
v 5.628161 -48.43383 3.70447
v 5.250196 -49.54319 6.04815
v 4.472409 -49.82112 5.373212
v 4.472409 -49.82112 5.373212
v 5.250196 -49.54319 6.04815
v 4.548006 -49.82169 5.514458
v 6.229463 -45.91337 4.844759
v 6.084259 -45.93723 5.042556
v 6.487046 -46.44549 4.935918
v 6.487046 -46.44549 4.935918
v 6.084259 -45.93723 5.042556
v 6.731319 -48.64746 6.328535
v 6.731319 -48.64746 6.328535
v 6.084259 -45.93723 5.042556
v 6.644245 -48.78357 6.540867
v 6.644245 -48.78357 6.540867
v 6.084259 -45.93723 5.042556
v 5.475319 -47.06139 6.660161
v 4.472409 -49.82112 5.373212
v 4.271522 -49.70592 5.308445
v 5.628161 -48.43383 3.70447
v 5.628161 -48.43383 3.70447
v 4.271522 -49.70592 5.308445
v 5.484323 -48.00132 3.309548
v 5.484323 -48.00132 3.309548
v 4.271522 -49.70592 5.308445
v 4.637001 -48.30052 3.818128
v 4.637001 -48.30052 3.818128
v 4.271522 -49.70592 5.308445
v 4.353657 -48.476 4.063304
v 4.472409 -49.82112 5.373212
v 4.548006 -49.82169 5.514458
v 4.271522 -49.70592 5.308445
v 4.271522 -49.70592 5.308445
v 4.548006 -49.82169 5.514458
v 3.993251 -49.35682 5.736579
v 3.993251 -49.35682 5.736579
v 4.548006 -49.82169 5.514458
v 4.219247 -49.50303 5.76405
v 5.250196 -49.54319 6.04815
v 6.644245 -48.78357 6.540867
v 4.524798 -49.47083 5.897314
v 4.524798 -49.47083 5.897314
v 6.644245 -48.78357 6.540867
v 3.776326 -48.84221 5.86672
v 3.776326 -48.84221 5.86672
v 6.644245 -48.78357 6.540867
v 3.754544 -48.7845 5.874724
v 3.754544 -48.7845 5.874724
v 6.644245 -48.78357 6.540867
v 5.475319 -47.06139 6.660161
v 6.731319 -48.64746 6.328535
v 6.397018 -48.13601 4.308368
v 6.487046 -46.44549 4.935918
v 6.487046 -46.44549 4.935918
v 6.397018 -48.13601 4.308368
v 6.396687 -45.92384 4.407392
v 6.396687 -45.92384 4.407392
v 6.397018 -48.13601 4.308368
v 6.286346 -46.09265 3.725184
v 6.286346 -46.09265 3.725184
v 6.397018 -48.13601 4.308368
v 6.234267 -46.80336 3.374383
v 6.396687 -45.92384 4.407392
v 6.229463 -45.91337 4.844759
v 6.487046 -46.44549 4.935918
v 4.637001 -48.30052 3.818128
v 4.353657 -48.476 4.063304
v 4.325492 -48.35573 4.035339
v 6.084259 -45.93723 5.042556
v 5.546033 -46.31219 4.192647
v 5.475319 -47.06139 6.660161
v 5.475319 -47.06139 6.660161
v 5.546033 -46.31219 4.192647
v 3.754544 -48.7845 5.874724
v 3.754544 -48.7845 5.874724
v 5.546033 -46.31219 4.192647
v 4.073205 -48.02998 4.415694
v 6.234267 -46.80336 3.374383
v 6.397018 -48.13601 4.308368
v 5.484323 -48.00132 3.309548
v 5.484323 -48.00132 3.309548
v 6.397018 -48.13601 4.308368
v 5.628161 -48.43383 3.70447
v 4.271522 -49.70592 5.308445
v 3.993251 -49.35682 5.736579
v 4.353657 -48.476 4.063304
v 4.353657 -48.476 4.063304
v 3.993251 -49.35682 5.736579
v 4.325492 -48.35573 4.035339
v 4.325492 -48.35573 4.035339
v 3.993251 -49.35682 5.736579
v 4.073205 -48.02998 4.415694
v 4.073205 -48.02998 4.415694
v 3.993251 -49.35682 5.736579
v 3.754544 -48.7845 5.874724
v 3.754544 -48.7845 5.874724
v 3.993251 -49.35682 5.736579
v 3.776326 -48.84221 5.86672
v 4.524798 -49.47083 5.897314
v 4.219247 -49.50303 5.76405
v 5.250196 -49.54319 6.04815
v 5.250196 -49.54319 6.04815
v 4.219247 -49.50303 5.76405
v 4.548006 -49.82169 5.514458

vn -0.3401572 -0.3627845 0.8675716
vn -0.3401572 -0.3627845 0.8675716
vn -0.3401572 -0.3627845 0.8675716
vn -0.3401572 -0.3627845 0.8675716
vn -0.3401572 -0.3627845 0.8675716
vn -0.3401572 -0.3627845 0.8675716
vn -0.3747975 0.9122823 -0.1651295
vn -0.3747975 0.9122823 -0.1651295
vn -0.3747975 0.9122823 -0.1651295
vn -0.3747975 0.9122823 -0.1651295
vn -0.3747975 0.9122823 -0.1651295
vn -0.3747975 0.9122823 -0.1651295
vn -0.3747975 0.9122823 -0.1651295
vn -0.3747975 0.9122823 -0.1651295
vn -0.3747975 0.9122823 -0.1651295
vn -0.5713242 0.3965474 -0.7185673
vn -0.5713242 0.3965474 -0.7185673
vn -0.5713242 0.3965474 -0.7185673
vn -0.5713242 0.3965474 -0.7185673
vn -0.5713242 0.3965474 -0.7185673
vn -0.5713242 0.3965474 -0.7185673
vn -0.5713242 0.3965474 -0.7185673
vn -0.5713242 0.3965474 -0.7185673
vn -0.5713242 0.3965474 -0.7185673
vn -0.5713242 0.3965474 -0.7185673
vn -0.5713242 0.3965474 -0.7185673
vn -0.5713242 0.3965474 -0.7185673
vn -0.5713242 0.3965474 -0.7185673
vn -0.5713242 0.3965474 -0.7185673
vn -0.5713242 0.3965474 -0.7185673
vn 0.5348598 -0.7938045 -0.2894811
vn 0.5348598 -0.7938045 -0.2894811
vn 0.5348598 -0.7938045 -0.2894811
vn 0.5348598 -0.7938045 -0.2894811
vn 0.5348598 -0.7938045 -0.2894811
vn 0.5348598 -0.7938045 -0.2894811
vn 0.5348598 -0.7938045 -0.2894811
vn 0.5348598 -0.7938045 -0.2894811
vn 0.5348598 -0.7938045 -0.2894811
vn 0.5348598 -0.7938045 -0.2894811
vn 0.5348598 -0.7938045 -0.2894811
vn 0.5348598 -0.7938045 -0.2894811
vn 0.5348598 -0.7938045 -0.2894811
vn 0.5348598 -0.7938045 -0.2894811
vn 0.5348598 -0.7938045 -0.2894811
vn 0.6996972 0.4356968 0.5662087
vn 0.6996972 0.4356968 0.5662087
vn 0.6996972 0.4356968 0.5662087
vn 0.6996972 0.4356968 0.5662087
vn 0.6996972 0.4356968 0.5662087
vn 0.6996972 0.4356968 0.5662087
vn 0.6996972 0.4356968 0.5662087
vn 0.6996972 0.4356968 0.5662087
vn 0.6996972 0.4356968 0.5662087
vn 0.6996972 0.4356968 0.5662087
vn 0.6996972 0.4356968 0.5662087
vn 0.6996972 0.4356968 0.5662087
vn -0.1734918 -0.6949052 -0.6978591
vn -0.1734918 -0.6949052 -0.6978591
vn -0.1734918 -0.6949052 -0.6978591
vn -0.1734918 -0.6949052 -0.6978591
vn -0.1734918 -0.6949052 -0.6978591
vn -0.1734918 -0.6949052 -0.6978591
vn -0.1734918 -0.6949052 -0.6978591
vn -0.1734918 -0.6949052 -0.6978591
vn -0.1734918 -0.6949052 -0.6978591
vn -0.1734918 -0.6949052 -0.6978591
vn -0.1734918 -0.6949052 -0.6978591
vn -0.1734918 -0.6949052 -0.6978591
vn -0.5445637 -0.7876258 0.2882642
vn -0.5445637 -0.7876258 0.2882642
vn -0.5445637 -0.7876258 0.2882642
vn -0.5445637 -0.7876258 0.2882642
vn -0.5445637 -0.7876258 0.2882642
vn -0.5445637 -0.7876258 0.2882642
vn -0.5445637 -0.7876258 0.2882642
vn -0.5445637 -0.7876258 0.2882642
vn -0.5445637 -0.7876258 0.2882642
vn -0.2193206 -0.2147909 0.9517161
vn -0.2193206 -0.2147909 0.9517161
vn -0.2193206 -0.2147909 0.9517161
vn -0.2193206 -0.2147909 0.9517161
vn -0.2193206 -0.2147909 0.9517161
vn -0.2193206 -0.2147909 0.9517161
vn -0.2193206 -0.2147909 0.9517161
vn -0.2193206 -0.2147909 0.9517161
vn -0.2193206 -0.2147909 0.9517161
vn -0.2193206 -0.2147909 0.9517161
vn -0.2193206 -0.2147909 0.9517161
vn -0.2193206 -0.2147909 0.9517161
vn 0.9868547 0.007376494 -0.1614413
vn 0.9868547 0.007376494 -0.1614413
vn 0.9868547 0.007376494 -0.1614413
vn 0.9868547 0.007376494 -0.1614413
vn 0.9868547 0.007376494 -0.1614413
vn 0.9868547 0.007376494 -0.1614413
vn 0.9868547 0.007376494 -0.1614413
vn 0.9868547 0.007376494 -0.1614413
vn 0.9868547 0.007376494 -0.1614413
vn 0.9868547 0.007376494 -0.1614413
vn 0.9868547 0.007376494 -0.1614413
vn 0.9868547 0.007376494 -0.1614413
vn 0.8345286 0.4567452 0.3081329
vn 0.8345286 0.4567452 0.3081329
vn 0.8345286 0.4567452 0.3081329
vn -0.5074119 -0.3061121 -0.805499
vn -0.5074119 -0.3061121 -0.805499
vn -0.5074119 -0.3061121 -0.805499
vn -0.7356202 0.6537496 0.1774101
vn -0.7356202 0.6537496 0.1774101
vn -0.7356202 0.6537496 0.1774101
vn -0.7356202 0.6537496 0.1774101
vn -0.7356202 0.6537496 0.1774101
vn -0.7356202 0.6537496 0.1774101
vn -0.7356202 0.6537496 0.1774101
vn -0.7356202 0.6537496 0.1774101
vn -0.7356202 0.6537496 0.1774101
vn 0.6580095 -0.376613 -0.652063
vn 0.6580095 -0.376613 -0.652063
vn 0.6580095 -0.376613 -0.652063
vn 0.6580095 -0.376613 -0.652063
vn 0.6580095 -0.376613 -0.652063
vn 0.6580095 -0.376613 -0.652063
vn -0.8930542 -0.2892767 -0.3446351
vn -0.8930542 -0.2892767 -0.3446351
vn -0.8930542 -0.2892767 -0.3446351
vn -0.8930542 -0.2892767 -0.3446351
vn -0.8930542 -0.2892767 -0.3446351
vn -0.8930542 -0.2892767 -0.3446351
vn -0.8930542 -0.2892767 -0.3446351
vn -0.8930542 -0.2892767 -0.3446351
vn -0.8930542 -0.2892767 -0.3446351
vn -0.8930542 -0.2892767 -0.3446351
vn -0.8930542 -0.2892767 -0.3446351
vn -0.8930542 -0.2892767 -0.3446351
vn -0.8930542 -0.2892767 -0.3446351
vn -0.8930542 -0.2892767 -0.3446351
vn -0.8930542 -0.2892767 -0.3446351
vn -0.2085236 -0.727272 0.6539063
vn -0.2085236 -0.727272 0.6539063
vn -0.2085236 -0.727272 0.6539063
vn -0.2085236 -0.727272 0.6539063
vn -0.2085236 -0.727272 0.6539063
vn -0.2085236 -0.727272 0.6539063

vt 0.553964 0.6429952
vt 0.5072295 0.6332534
vt 0.6439964 0.5968288
vt 0.6439964 0.5968288
vt 0.5072295 0.6332534
vt 0.4717828 0.5859694
vt 0.6408578 0.5170411
vt 0.5725069 0.4748702
vt 0.655638 0.4554984
vt 0.655638 0.4554984
vt 0.5725069 0.4748702
vt 0.6422361 0.4160423
vt 0.6422361 0.4160423
vt 0.5725069 0.4748702
vt 0.6294768 0.3981979
vt 0.704971 0.5558779
vt 0.5268341 0.56765
vt 0.7823837 0.4922303
vt 0.7823837 0.4922303
vt 0.5268341 0.56765
vt 0.706368 0.4074181
vt 0.706368 0.4074181
vt 0.5268341 0.56765
vt 0.4223381 0.3669561
vt 0.4223381 0.3669561
vt 0.5268341 0.56765
vt 0.4067242 0.4359636
vt 0.4067242 0.4359636
vt 0.5268341 0.56765
vt 0.4348599 0.4753731
vt 0.4375561 0.2650306
vt 0.5824536 0.3122215
vt 0.4239633 0.2853664
vt 0.4239633 0.2853664
vt 0.5824536 0.3122215
vt 0.423181 0.4788563
vt 0.423181 0.4788563
vt 0.5824536 0.3122215
vt 0.4968963 0.5367016
vt 0.4968963 0.5367016
vt 0.5824536 0.3122215
vt 0.6558337 0.3768702
vt 0.6558337 0.3768702
vt 0.5824536 0.3122215
vt 0.6501153 0.3633426
vt 0.3329903 0.55707
vt 0.3269738 0.5315234
vt 0.3955761 0.5452979
vt 0.3955761 0.5452979
vt 0.3269738 0.5315234
vt 0.6083261 0.3654148
vt 0.6083261 0.3654148
vt 0.3269738 0.5315234
vt 0.6157303 0.3379916
vt 0.6157303 0.3379916
vt 0.3269738 0.5315234
vt 0.3943095 0.3225826
vt 0.5702717 0.2455936
vt 0.5975692 0.2566718
vt 0.4740599 0.5310484
vt 0.4740599 0.5310484
vt 0.5975692 0.2566718
vt 0.5039977 0.5986076
vt 0.5039977 0.5986076
vt 0.5975692 0.2566718
vt 0.5958369 0.5116114
vt 0.5958369 0.5116114
vt 0.5975692 0.2566718
vt 0.6243079 0.4696733
vt 0.4919742 0.4461384
vt 0.4862465 0.4326201
vt 0.5131248 0.4523318
vt 0.5131248 0.4523318
vt 0.4862465 0.4326201
vt 0.5522969 0.4113669
vt 0.5522969 0.4113669
vt 0.4862465 0.4326201
vt 0.5276444 0.4087359
vt 0.4097883 0.4332767
vt 0.4861952 0.3047521
vt 0.4131505 0.500156
vt 0.4131505 0.500156
vt 0.4861952 0.3047521
vt 0.4676989 0.5691494
vt 0.4676989 0.5691494
vt 0.4861952 0.3047521
vt 0.472919 0.5711518
vt 0.472919 0.5711518
vt 0.4861952 0.3047521
vt 0.639647 0.4125125
vt 0.5369205 0.2949498
vt 0.4912151 0.476975
vt 0.3409672 0.4204289
vt 0.3409672 0.4204289
vt 0.4912151 0.476975
vt 0.2945214 0.4680528
vt 0.2945214 0.4680528
vt 0.4912151 0.476975
vt 0.3094554 0.529521
vt 0.3094554 0.529521
vt 0.4912151 0.476975
vt 0.372614 0.5611306
vt 0.3540245 0.5368041
vt 0.3457682 0.4944003
vt 0.4002328 0.4855619
vt 0.5553517 0.4460267
vt 0.5547742 0.3847587
vt 0.5721809 0.3917483
vt 0.6907029 0.4428415
vt 0.6338354 0.5198538
vt 0.5797061 0.2962816
vt 0.5797061 0.2962816
vt 0.6338354 0.5198538
vt 0.3629374 0.3674404
vt 0.3629374 0.3674404
vt 0.6338354 0.5198538
vt 0.4321032 0.4996437
vt 0.3108571 0.5754918
vt 0.4353768 0.4329088
vt 0.4743207 0.5853919
vt 0.4743207 0.5853919
vt 0.4353768 0.4329088
vt 0.5094926 0.5250972
vt 0.4039768 0.3518033
vt 0.4430324 0.309176
vt 0.5109828 0.4758015
vt 0.5109828 0.4758015
vt 0.4430324 0.309176
vt 0.5224848 0.4785862
vt 0.5224848 0.4785862
vt 0.4430324 0.309176
vt 0.5587231 0.4407041
vt 0.5587231 0.4407041
vt 0.4430324 0.309176
vt 0.5008032 0.2954062
vt 0.5008032 0.2954062
vt 0.4430324 0.309176
vt 0.4950429 0.2962025
vt 0.5647395 0.4601364
vt 0.5977834 0.4805606
vt 0.4815525 0.4370113
vt 0.4815525 0.4370113
vt 0.5977834 0.4805606
vt 0.5509371 0.5188293

usemtl Material0
usemap Material0

usemtl Material1
usemap Material1
f 1/1/1 2/2/2 3/3/3
f 4/4/4 5/5/5 6/6/6
f 7/7/7 8/8/8 9/9/9
f 10/10/10 11/11/11 12/12/12
f 13/13/13 14/14/14 15/15/15
f 16/16/16 17/17/17 18/18/18
f 19/19/19 20/20/20 21/21/21
f 22/22/22 23/23/23 24/24/24
f 25/25/25 26/26/26 27/27/27
f 28/28/28 29/29/29 30/30/30
f 31/31/31 32/32/32 33/33/33
f 34/34/34 35/35/35 36/36/36
f 37/37/37 38/38/38 39/39/39
f 40/40/40 41/41/41 42/42/42
f 43/43/43 44/44/44 45/45/45
f 46/46/46 47/47/47 48/48/48
f 49/49/49 50/50/50 51/51/51
f 52/52/52 53/53/53 54/54/54
f 55/55/55 56/56/56 57/57/57
f 58/58/58 59/59/59 60/60/60
f 61/61/61 62/62/62 63/63/63
f 64/64/64 65/65/65 66/66/66
f 67/67/67 68/68/68 69/69/69
f 70/70/70 71/71/71 72/72/72
f 73/73/73 74/74/74 75/75/75
f 76/76/76 77/77/77 78/78/78
f 79/79/79 80/80/80 81/81/81
f 82/82/82 83/83/83 84/84/84
f 85/85/85 86/86/86 87/87/87
f 88/88/88 89/89/89 90/90/90
f 91/91/91 92/92/92 93/93/93
f 94/94/94 95/95/95 96/96/96
f 97/97/97 98/98/98 99/99/99
f 100/100/100 101/101/101 102/102/102
f 103/103/103 104/104/104 105/105/105
f 106/106/106 107/107/107 108/108/108
f 109/109/109 110/110/110 111/111/111
f 112/112/112 113/113/113 114/114/114
f 115/115/115 116/116/116 117/117/117
f 118/118/118 119/119/119 120/120/120
f 121/121/121 122/122/122 123/123/123
f 124/124/124 125/125/125 126/126/126
f 127/127/127 128/128/128 129/129/129
f 130/130/130 131/131/131 132/132/132
f 133/133/133 134/134/134 135/135/135
f 136/136/136 137/137/137 138/138/138
f 139/139/139 140/140/140 141/141/141
f 142/142/142 143/143/143 144/144/144
