g  Instance
v -3.978413 -48.41245 1.223849
v -1.793502 -48.4182 2.817036
v -4.471481 -49.49704 0.8573501
v -4.471481 -49.49704 0.8573501
v -1.793502 -48.4182 2.817036
v -3.395426 -50.57929 1.63506
v -3.395426 -50.57929 1.63506
v -1.793502 -48.4182 2.817036
v -3.145123 -50.61083 1.817377
v -3.145123 -50.61083 1.817377
v -1.793502 -48.4182 2.817036
v -1.935366 -49.77684 2.704875
v -2.736894 -47.91712 3.598342
v -2.240713 -48.73026 3.689117
v -1.803015 -48.40773 2.840864
v -2.736894 -47.91712 3.598342
v -1.803015 -48.40773 2.840864
v -3.569542 -47.85768 3.159895
v -3.569542 -47.85768 3.159895
v -1.803015 -48.40773 2.840864
v -5.340633 -47.96127 1.549476
v -5.340633 -47.96127 1.549476
v -1.803015 -48.40773 2.840864
v -5.329247 -47.97144 1.527875
v -5.329247 -47.97144 1.527875
v -1.803015 -48.40773 2.840864
v -3.978413 -48.41245 1.223849
v -3.978413 -48.41245 1.223849
v -1.803015 -48.40773 2.840864
v -1.793502 -48.4182 2.817036
v -4.992424 -49.48102 0.915543
v -5.352244 -47.99264 1.522047
v -4.90669 -49.50795 0.8966523
v -4.90669 -49.50795 0.8966523
v -5.352244 -47.99264 1.522047
v -4.471481 -49.49704 0.8573501
v -4.471481 -49.49704 0.8573501
v -5.352244 -47.99264 1.522047
v -3.978413 -48.41245 1.223849
v -3.978413 -48.41245 1.223849
v -5.352244 -47.99264 1.522047
v -5.329247 -47.97144 1.527875
v -5.329247 -47.97144 1.527875
v -5.352244 -47.99264 1.522047
v -5.340633 -47.96127 1.549476
v -5.340633 -47.96127 1.549476
v -5.352244 -47.99264 1.522047
v -5.366501 -47.97925 1.549863
v -5.554635 -48.39464 1.965817
v -5.361273 -50.03986 1.709976
v -3.569542 -47.85768 3.159895
v -3.569542 -47.85768 3.159895
v -5.361273 -50.03986 1.709976
v -2.736894 -47.91712 3.598342
v -2.736894 -47.91712 3.598342
v -5.361273 -50.03986 1.709976
v -2.240713 -48.73026 3.689117
v -2.240713 -48.73026 3.689117
v -5.361273 -50.03986 1.709976
v -2.251714 -49.06338 3.61012
v -2.251714 -49.06338 3.61012
v -5.361273 -50.03986 1.709976
v -4.087736 -50.25539 2.353263
v -5.211551 -50.13707 1.414357
v -4.99718 -49.5425 0.9302853
v -3.395426 -50.57929 1.63506
v -3.395426 -50.57929 1.63506
v -4.99718 -49.5425 0.9302853
v -4.471481 -49.49704 0.8573501
v -4.471481 -49.49704 0.8573501
v -4.99718 -49.5425 0.9302853
v -4.90669 -49.50795 0.8966523
v -3.145123 -50.61083 1.817377
v -1.935366 -49.77684 2.704875
v -4.087736 -50.25539 2.353263
v -4.087736 -50.25539 2.353263
v -1.935366 -49.77684 2.704875
v -2.251714 -49.06338 3.61012
v -3.569542 -47.85768 3.159895
v -5.340633 -47.96127 1.549476
v -5.554635 -48.39464 1.965817
v -5.554635 -48.39464 1.965817
v -5.340633 -47.96127 1.549476
v -5.366501 -47.97925 1.549863
v -4.99718 -49.5425 0.9302853
v -4.992424 -49.48102 0.915543
v -4.90669 -49.50795 0.8966523
v -4.99718 -49.5425 0.9302853
v -5.211551 -50.13707 1.414357
v -4.992424 -49.48102 0.915543
v -4.992424 -49.48102 0.915543
v -5.211551 -50.13707 1.414357
v -5.352244 -47.99264 1.522047
v -5.352244 -47.99264 1.522047
v -5.211551 -50.13707 1.414357
v -5.366501 -47.97925 1.549863
v -5.366501 -47.97925 1.549863
v -5.211551 -50.13707 1.414357
v -5.554635 -48.39464 1.965817
v -5.554635 -48.39464 1.965817
v -5.211551 -50.13707 1.414357
v -5.361273 -50.03986 1.709976
v -5.211551 -50.13707 1.414357
v -3.395426 -50.57929 1.63506
v -5.361273 -50.03986 1.709976
v -5.361273 -50.03986 1.709976
v -3.395426 -50.57929 1.63506
v -4.087736 -50.25539 2.353263
v -4.087736 -50.25539 2.353263
v -3.395426 -50.57929 1.63506
v -3.145123 -50.61083 1.817377
v -1.793502 -48.4182 2.817036
v -1.803015 -48.40773 2.840864
v -1.935366 -49.77684 2.704875
v -1.935366 -49.77684 2.704875
v -1.803015 -48.40773 2.840864
v -2.251714 -49.06338 3.61012
v -2.251714 -49.06338 3.61012
v -1.803015 -48.40773 2.840864
v -2.240713 -48.73026 3.689117

vn 0.5891786 0.005183192 -0.8079863
vn 0.5891786 0.005183192 -0.8079863
vn 0.5891786 0.005183192 -0.8079863
vn 0.5891786 0.005183192 -0.8079863
vn 0.5891786 0.005183192 -0.8079863
vn 0.5891786 0.005183192 -0.8079863
vn 0.5891786 0.005183192 -0.8079863
vn 0.5891786 0.005183192 -0.8079863
vn 0.5891786 0.005183192 -0.8079863
vn 0.5891786 0.005183192 -0.8079863
vn 0.5891786 0.005183192 -0.8079863
vn 0.5891786 0.005183192 -0.8079863
vn 0.6906226 0.4816506 0.5394934
vn 0.6906226 0.4816506 0.5394934
vn 0.6906226 0.4816506 0.5394934
vn 0.2304482 0.921469 -0.3127117
vn 0.2304482 0.921469 -0.3127117
vn 0.2304482 0.921469 -0.3127117
vn 0.2304482 0.921469 -0.3127117
vn 0.2304482 0.921469 -0.3127117
vn 0.2304482 0.921469 -0.3127117
vn 0.2304482 0.921469 -0.3127117
vn 0.2304482 0.921469 -0.3127117
vn 0.2304482 0.921469 -0.3127117
vn 0.2304482 0.921469 -0.3127117
vn 0.2304482 0.921469 -0.3127117
vn 0.2304482 0.921469 -0.3127117
vn 0.2304482 0.921469 -0.3127117
vn 0.2304482 0.921469 -0.3127117
vn 0.2304482 0.921469 -0.3127117
vn -0.09289528 0.356391 -0.9297075
vn -0.09289528 0.356391 -0.9297075
vn -0.09289528 0.356391 -0.9297075
vn -0.09289528 0.356391 -0.9297075
vn -0.09289528 0.356391 -0.9297075
vn -0.09289528 0.356391 -0.9297075
vn -0.09289528 0.356391 -0.9297075
vn -0.09289528 0.356391 -0.9297075
vn -0.09289528 0.356391 -0.9297075
vn -0.09289528 0.356391 -0.9297075
vn -0.09289528 0.356391 -0.9297075
vn -0.09289528 0.356391 -0.9297075
vn -0.4757216 0.672088 -0.5674387
vn -0.4757216 0.672088 -0.5674387
vn -0.4757216 0.672088 -0.5674387
vn -0.4757216 0.672088 -0.5674387
vn -0.4757216 0.672088 -0.5674387
vn -0.4757216 0.672088 -0.5674387
vn -0.4680465 -0.1892422 0.8632032
vn -0.4680465 -0.1892422 0.8632032
vn -0.4680465 -0.1892422 0.8632032
vn -0.4680465 -0.1892422 0.8632032
vn -0.4680465 -0.1892422 0.8632032
vn -0.4680465 -0.1892422 0.8632032
vn -0.4680465 -0.1892422 0.8632032
vn -0.4680465 -0.1892422 0.8632032
vn -0.4680465 -0.1892422 0.8632032
vn -0.4680465 -0.1892422 0.8632032
vn -0.4680465 -0.1892422 0.8632032
vn -0.4680465 -0.1892422 0.8632032
vn -0.4680465 -0.1892422 0.8632032
vn -0.4680465 -0.1892422 0.8632032
vn -0.4680465 -0.1892422 0.8632032
vn -0.05529886 -0.6183442 -0.7839595
vn -0.05529886 -0.6183442 -0.7839595
vn -0.05529886 -0.6183442 -0.7839595
vn -0.05529886 -0.6183442 -0.7839595
vn -0.05529886 -0.6183442 -0.7839595
vn -0.05529886 -0.6183442 -0.7839595
vn -0.05529886 -0.6183442 -0.7839595
vn -0.05529886 -0.6183442 -0.7839595
vn -0.05529886 -0.6183442 -0.7839595
vn 0.06834809 -0.7718272 0.6321481
vn 0.06834809 -0.7718272 0.6321481
vn 0.06834809 -0.7718272 0.6321481
vn 0.06834809 -0.7718272 0.6321481
vn 0.06834809 -0.7718272 0.6321481
vn 0.06834809 -0.7718272 0.6321481
vn -0.491242 0.7173225 0.4940949
vn -0.491242 0.7173225 0.4940949
vn -0.491242 0.7173225 0.4940949
vn -0.491242 0.7173225 0.4940949
vn -0.491242 0.7173225 0.4940949
vn -0.491242 0.7173225 0.4940949
vn -0.2714638 -0.2044769 -0.9404768
vn -0.2714638 -0.2044769 -0.9404768
vn -0.2714638 -0.2044769 -0.9404768
vn -0.8963066 -0.03661412 -0.4419207
vn -0.8963066 -0.03661412 -0.4419207
vn -0.8963066 -0.03661412 -0.4419207
vn -0.8963066 -0.03661412 -0.4419207
vn -0.8963066 -0.03661412 -0.4419207
vn -0.8963066 -0.03661412 -0.4419207
vn -0.8963066 -0.03661412 -0.4419207
vn -0.8963066 -0.03661412 -0.4419207
vn -0.8963066 -0.03661412 -0.4419207
vn -0.8963066 -0.03661412 -0.4419207
vn -0.8963066 -0.03661412 -0.4419207
vn -0.8963066 -0.03661412 -0.4419207
vn -0.8963066 -0.03661412 -0.4419207
vn -0.8963066 -0.03661412 -0.4419207
vn -0.8963066 -0.03661412 -0.4419207
vn -0.2535993 -0.9496763 0.1838543
vn -0.2535993 -0.9496763 0.1838543
vn -0.2535993 -0.9496763 0.1838543
vn -0.2535993 -0.9496763 0.1838543
vn -0.2535993 -0.9496763 0.1838543
vn -0.2535993 -0.9496763 0.1838543
vn -0.2535993 -0.9496763 0.1838543
vn -0.2535993 -0.9496763 0.1838543
vn -0.2535993 -0.9496763 0.1838543
vn 0.9003568 -0.1283452 0.4157946
vn 0.9003568 -0.1283452 0.4157946
vn 0.9003568 -0.1283452 0.4157946
vn 0.9003568 -0.1283452 0.4157946
vn 0.9003568 -0.1283452 0.4157946
vn 0.9003568 -0.1283452 0.4157946
vn 0.9003568 -0.1283452 0.4157946
vn 0.9003568 -0.1283452 0.4157946
vn 0.9003568 -0.1283452 0.4157946

vt 0.4235675 0.6108733
vt 0.4272882 0.2081538
vt 0.5844467 0.7035134
vt 0.5844467 0.7035134
vt 0.4272882 0.2081538
vt 0.7470395 0.5069268
vt 0.7470395 0.5069268
vt 0.4272882 0.2081538
vt 0.7520594 0.4608442
vt 0.7520594 0.4608442
vt 0.4272882 0.2081538
vt 0.6294488 0.2365038
vt 0.4478893 0.3796829
vt 0.546979 0.3684463
vt 0.5455074 0.4734452
vt 0.5280169 0.289399
vt 0.6227153 0.3630771
vt 0.4520571 0.332045
vt 0.4520571 0.332045
vt 0.6227153 0.3630771
vt 0.2956437 0.4886819
vt 0.2956437 0.4886819
vt 0.6227153 0.3630771
vt 0.2968917 0.4907867
vt 0.2968917 0.4907867
vt 0.6227153 0.3630771
vt 0.427847 0.5203567
vt 0.427847 0.5203567
vt 0.6227153 0.3630771
vt 0.6237956 0.3653915
vt 0.586775 0.5842744
vt 0.4451559 0.6161354
vt 0.5895876 0.5766839
vt 0.5895876 0.5766839
vt 0.4451559 0.6161354
vt 0.5899322 0.5381638
vt 0.5899322 0.5381638
vt 0.4451559 0.6161354
vt 0.4891103 0.4945214
vt 0.4891103 0.4945214
vt 0.4451559 0.6161354
vt 0.443228 0.6140957
vt 0.3818994 0.3854432
vt 0.3785932 0.3861976
vt 0.3815362 0.3826492
vt 0.3815362 0.3826492
vt 0.3785932 0.3861976
vt 0.3781787 0.382598
vt 0.7314861 0.7487485
vt 0.4537707 0.8368344
vt 0.6886819 0.3376377
vt 0.6886819 0.3376377
vt 0.4537707 0.8368344
vt 0.6248574 0.1866865
vt 0.6248574 0.1866865
vt 0.4537707 0.8368344
vt 0.4614962 0.1554355
vt 0.4614962 0.1554355
vt 0.4537707 0.8368344
vt 0.408531 0.1826352
vt 0.408531 0.1826352
vt 0.4537707 0.8368344
vt 0.3360637 0.615353
vt 0.7537544 0.3598687
vt 0.7310578 0.4700831
vt 0.4925004 0.3096137
vt 0.4925004 0.3096137
vt 0.7310578 0.4700831
vt 0.6576218 0.4866889
vt 0.6576218 0.4866889
vt 0.7310578 0.4700831
vt 0.7187548 0.4777387
vt 0.499383 0.5993061
vt 0.3545787 0.4695988
vt 0.60217 0.5209807
vt 0.60217 0.5209807
vt 0.3545787 0.4695988
vt 0.3831428 0.3372837
vt 0.5381499 0.411204
vt 0.3847493 0.5981606
vt 0.3422105 0.5498335
vt 0.3422105 0.5498335
vt 0.3847493 0.5981606
vt 0.3815688 0.598114
vt 0.5308482 0.5588582
vt 0.5250925 0.5584111
vt 0.5271229 0.5502899
vt 0.4459009 0.4811846
vt 0.388647 0.4283965
vt 0.4518894 0.4827959
vt 0.4518894 0.4827959
vt 0.388647 0.4283965
vt 0.5988079 0.4166569
vt 0.5988079 0.4166569
vt 0.388647 0.4283965
vt 0.6001676 0.4136208
vt 0.6001676 0.4136208
vt 0.388647 0.4283965
vt 0.560325 0.3682647
vt 0.560325 0.3682647
vt 0.388647 0.4283965
vt 0.3987473 0.3961629
vt 0.6368157 0.5405015
vt 0.4699853 0.5204498
vt 0.6519593 0.5136511
vt 0.6519593 0.5136511
vt 0.4699853 0.5204498
vt 0.5371627 0.455219
vt 0.5371627 0.455219
vt 0.4699853 0.5204498
vt 0.4476705 0.5038906
vt 0.4315677 0.4470139
vt 0.4306968 0.4444807
vt 0.563296 0.4589164
vt 0.563296 0.4589164
vt 0.4306968 0.4444807
vt 0.4994482 0.3628722
vt 0.4994482 0.3628722
vt 0.4306968 0.4444807
vt 0.4674754 0.3544902

usemtl Material0
usemap Material0

usemtl Material1
usemap Material1
f 1/1/1 2/2/2 3/3/3
f 4/4/4 5/5/5 6/6/6
f 7/7/7 8/8/8 9/9/9
f 10/10/10 11/11/11 12/12/12
f 13/13/13 14/14/14 15/15/15
f 16/16/16 17/17/17 18/18/18
f 19/19/19 20/20/20 21/21/21
f 22/22/22 23/23/23 24/24/24
f 25/25/25 26/26/26 27/27/27
f 28/28/28 29/29/29 30/30/30
f 31/31/31 32/32/32 33/33/33
f 34/34/34 35/35/35 36/36/36
f 37/37/37 38/38/38 39/39/39
f 40/40/40 41/41/41 42/42/42
f 43/43/43 44/44/44 45/45/45
f 46/46/46 47/47/47 48/48/48
f 49/49/49 50/50/50 51/51/51
f 52/52/52 53/53/53 54/54/54
f 55/55/55 56/56/56 57/57/57
f 58/58/58 59/59/59 60/60/60
f 61/61/61 62/62/62 63/63/63
f 64/64/64 65/65/65 66/66/66
f 67/67/67 68/68/68 69/69/69
f 70/70/70 71/71/71 72/72/72
f 73/73/73 74/74/74 75/75/75
f 76/76/76 77/77/77 78/78/78
f 79/79/79 80/80/80 81/81/81
f 82/82/82 83/83/83 84/84/84
f 85/85/85 86/86/86 87/87/87
f 88/88/88 89/89/89 90/90/90
f 91/91/91 92/92/92 93/93/93
f 94/94/94 95/95/95 96/96/96
f 97/97/97 98/98/98 99/99/99
f 100/100/100 101/101/101 102/102/102
f 103/103/103 104/104/104 105/105/105
f 106/106/106 107/107/107 108/108/108
f 109/109/109 110/110/110 111/111/111
f 112/112/112 113/113/113 114/114/114
f 115/115/115 116/116/116 117/117/117
f 118/118/118 119/119/119 120/120/120
