g  Instance
v 2.641193 -45.394 -0.1727959
v 2.843523 -45.20161 -0.322882
v 3.036311 -45.5685 -0.1171987
v 2.292328 -45.66589 0.5889094
v 2.247792 -45.62298 0.5384018
v 3.400394 -45.84768 0.1593562
v 3.400394 -45.84768 0.1593562
v 2.247792 -45.62298 0.5384018
v 3.036311 -45.5685 -0.1171987
v 3.036311 -45.5685 -0.1171987
v 2.247792 -45.62298 0.5384018
v 2.641193 -45.394 -0.1727959
v 2.641193 -45.394 -0.1727959
v 2.247792 -45.62298 0.5384018
v 2.203548 -45.53033 0.3930222
v 4.813123 -43.50909 0.307036
v 4.594178 -43.32084 0.1351968
v 4.81324 -43.51959 0.3212762
v 4.81324 -43.51959 0.3212762
v 4.594178 -43.32084 0.1351968
v 3.474644 -43.94907 1.421894
v 3.474644 -43.94907 1.421894
v 4.594178 -43.32084 0.1351968
v 3.174626 -43.50811 0.9373541
v 4.81324 -43.51959 0.3212762
v 4.805954 -43.54937 0.3139693
v 4.813123 -43.50909 0.307036
v 2.230151 -45.10037 0.7221037
v 2.337398 -45.48472 0.9949726
v 3.045775 -43.51472 0.8154078
v 3.045775 -43.51472 0.8154078
v 2.337398 -45.48472 0.9949726
v 3.174626 -43.50811 0.9373541
v 3.174626 -43.50811 0.9373541
v 2.337398 -45.48472 0.9949726
v 3.474644 -43.94907 1.421894
v 3.474644 -43.94907 1.421894
v 2.337398 -45.48472 0.9949726
v 2.831948 -45.30276 1.394192
v 2.641193 -45.394 -0.1727959
v 2.203548 -45.53033 0.3930222
v 2.843523 -45.20161 -0.322882
v 2.843523 -45.20161 -0.322882
v 2.203548 -45.53033 0.3930222
v 3.820793 -43.37759 -0.2765197
v 3.820793 -43.37759 -0.2765197
v 2.203548 -45.53033 0.3930222
v 3.045775 -43.51472 0.8154078
v 3.045775 -43.51472 0.8154078
v 2.203548 -45.53033 0.3930222
v 2.230151 -45.10037 0.7221037
v 2.831948 -45.30276 1.394192
v 2.337398 -45.48472 0.9949726
v 3.705845 -45.77832 0.3092901
v 3.705845 -45.77832 0.3092901
v 2.337398 -45.48472 0.9949726
v 3.400394 -45.84768 0.1593562
v 3.400394 -45.84768 0.1593562
v 2.337398 -45.48472 0.9949726
v 2.292328 -45.66589 0.5889094
v 2.292328 -45.66589 0.5889094
v 2.337398 -45.48472 0.9949726
v 2.280749 -45.62555 0.6797435
v 3.174626 -43.50811 0.9373541
v 4.594178 -43.32084 0.1351968
v 3.045775 -43.51472 0.8154078
v 3.045775 -43.51472 0.8154078
v 4.594178 -43.32084 0.1351968
v 3.820793 -43.37759 -0.2765197
v 2.280749 -45.62555 0.6797435
v 2.247792 -45.62298 0.5384018
v 2.292328 -45.66589 0.5889094
v 3.474644 -43.94907 1.421894
v 2.831948 -45.30276 1.394192
v 4.81324 -43.51959 0.3212762
v 4.81324 -43.51959 0.3212762
v 2.831948 -45.30276 1.394192
v 4.805954 -43.54937 0.3139693
v 4.805954 -43.54937 0.3139693
v 2.831948 -45.30276 1.394192
v 3.705845 -45.77832 0.3092901
v 3.400394 -45.84768 0.1593562
v 3.036311 -45.5685 -0.1171987
v 3.705845 -45.77832 0.3092901
v 3.705845 -45.77832 0.3092901
v 3.036311 -45.5685 -0.1171987
v 4.805954 -43.54937 0.3139693
v 4.805954 -43.54937 0.3139693
v 3.036311 -45.5685 -0.1171987
v 4.813123 -43.50909 0.307036
v 4.813123 -43.50909 0.307036
v 3.036311 -45.5685 -0.1171987
v 4.594178 -43.32084 0.1351968
v 4.594178 -43.32084 0.1351968
v 3.036311 -45.5685 -0.1171987
v 3.820793 -43.37759 -0.2765197
v 3.820793 -43.37759 -0.2765197
v 3.036311 -45.5685 -0.1171987
v 2.843523 -45.20161 -0.322882
v 2.203548 -45.53033 0.3930222
v 2.247792 -45.62298 0.5384018
v 2.230151 -45.10037 0.7221037
v 2.230151 -45.10037 0.7221037
v 2.247792 -45.62298 0.5384018
v 2.337398 -45.48472 0.9949726
v 2.337398 -45.48472 0.9949726
v 2.247792 -45.62298 0.5384018
v 2.280749 -45.62555 0.6797435

vn -0.1167619 -0.5316387 -0.8388844
vn -0.1167619 -0.5316387 -0.8388844
vn -0.1167619 -0.5316387 -0.8388844
vn -0.3095477 -0.8417797 -0.4422523
vn -0.3095477 -0.8417797 -0.4422523
vn -0.3095477 -0.8417797 -0.4422523
vn -0.3095477 -0.8417797 -0.4422523
vn -0.3095477 -0.8417797 -0.4422523
vn -0.3095477 -0.8417797 -0.4422523
vn -0.3095477 -0.8417797 -0.4422523
vn -0.3095477 -0.8417797 -0.4422523
vn -0.3095477 -0.8417797 -0.4422523
vn -0.3095477 -0.8417797 -0.4422523
vn -0.3095477 -0.8417797 -0.4422523
vn -0.3095477 -0.8417797 -0.4422523
vn 0.2225258 0.785679 0.5772268
vn 0.2225258 0.785679 0.5772268
vn 0.2225258 0.785679 0.5772268
vn 0.2225258 0.785679 0.5772268
vn 0.2225258 0.785679 0.5772268
vn 0.2225258 0.785679 0.5772268
vn 0.2225258 0.785679 0.5772268
vn 0.2225258 0.785679 0.5772268
vn 0.2225258 0.785679 0.5772268
vn 0.9677561 -0.1988935 -0.1545623
vn 0.9677561 -0.1988935 -0.1545623
vn 0.9677561 -0.1988935 -0.1545623
vn -0.6635899 0.301046 0.6848502
vn -0.6635899 0.301046 0.6848502
vn -0.6635899 0.301046 0.6848502
vn -0.6635899 0.301046 0.6848502
vn -0.6635899 0.301046 0.6848502
vn -0.6635899 0.301046 0.6848502
vn -0.6635899 0.301046 0.6848502
vn -0.6635899 0.301046 0.6848502
vn -0.6635899 0.301046 0.6848502
vn -0.6635899 0.301046 0.6848502
vn -0.6635899 0.301046 0.6848502
vn -0.6635899 0.301046 0.6848502
vn -0.7636237 0.4215479 -0.4890566
vn -0.7636237 0.4215479 -0.4890566
vn -0.7636237 0.4215479 -0.4890566
vn -0.7636237 0.4215479 -0.4890566
vn -0.7636237 0.4215479 -0.4890566
vn -0.7636237 0.4215479 -0.4890566
vn -0.7636237 0.4215479 -0.4890566
vn -0.7636237 0.4215479 -0.4890566
vn -0.7636237 0.4215479 -0.4890566
vn -0.7636237 0.4215479 -0.4890566
vn -0.7636237 0.4215479 -0.4890566
vn -0.7636237 0.4215479 -0.4890566
vn 0.007811784 -0.9135248 0.406708
vn 0.007811784 -0.9135248 0.406708
vn 0.007811784 -0.9135248 0.406708
vn 0.007811784 -0.9135248 0.406708
vn 0.007811784 -0.9135248 0.406708
vn 0.007811784 -0.9135248 0.406708
vn 0.007811784 -0.9135248 0.406708
vn 0.007811784 -0.9135248 0.406708
vn 0.007811784 -0.9135248 0.406708
vn 0.007811784 -0.9135248 0.406708
vn 0.007811784 -0.9135248 0.406708
vn 0.007811784 -0.9135248 0.406708
vn -0.1011143 0.993462 0.05300147
vn -0.1011143 0.993462 0.05300147
vn -0.1011143 0.993462 0.05300147
vn -0.1011143 0.993462 0.05300147
vn -0.1011143 0.993462 0.05300147
vn -0.1011143 0.993462 0.05300147
vn -0.7770382 -0.6060367 0.1700925
vn -0.7770382 -0.6060367 0.1700925
vn -0.7770382 -0.6060367 0.1700925
vn 0.6605644 -0.327434 0.6756047
vn 0.6605644 -0.327434 0.6756047
vn 0.6605644 -0.327434 0.6756047
vn 0.6605644 -0.327434 0.6756047
vn 0.6605644 -0.327434 0.6756047
vn 0.6605644 -0.327434 0.6756047
vn 0.6605644 -0.327434 0.6756047
vn 0.6605644 -0.327434 0.6756047
vn 0.6605644 -0.327434 0.6756047
vn 0.4704048 -0.2303805 -0.8518475
vn 0.4704048 -0.2303805 -0.8518475
vn 0.4704048 -0.2303805 -0.8518475
vn 0.4704048 -0.2303805 -0.8518475
vn 0.4704048 -0.2303805 -0.8518475
vn 0.4704048 -0.2303805 -0.8518475
vn 0.4704048 -0.2303805 -0.8518475
vn 0.4704048 -0.2303805 -0.8518475
vn 0.4704048 -0.2303805 -0.8518475
vn 0.4704048 -0.2303805 -0.8518475
vn 0.4704048 -0.2303805 -0.8518475
vn 0.4704048 -0.2303805 -0.8518475
vn 0.4704048 -0.2303805 -0.8518475
vn 0.4704048 -0.2303805 -0.8518475
vn 0.4704048 -0.2303805 -0.8518475
vn 0.4704048 -0.2303805 -0.8518475
vn 0.4704048 -0.2303805 -0.8518475
vn 0.4704048 -0.2303805 -0.8518475
vn -0.9682766 -0.1113084 0.2237208
vn -0.9682766 -0.1113084 0.2237208
vn -0.9682766 -0.1113084 0.2237208
vn -0.9682766 -0.1113084 0.2237208
vn -0.9682766 -0.1113084 0.2237208
vn -0.9682766 -0.1113084 0.2237208
vn -0.9682766 -0.1113084 0.2237208
vn -0.9682766 -0.1113084 0.2237208
vn -0.9682766 -0.1113084 0.2237208

vt 0.6115765 0.3540944
vt 0.5863745 0.3985471
vt 0.5433281 0.3376283
vt 0.5763161 0.3617593
vt 0.5818575 0.3672681
vt 0.4684253 0.4086195
vt 0.4684253 0.4086195
vt 0.5818575 0.3672681
vt 0.5112808 0.4387902
vt 0.5112808 0.4387902
vt 0.5818575 0.3672681
vt 0.5534611 0.4448532
vt 0.5534611 0.4448532
vt 0.5818575 0.3672681
vt 0.5890474 0.3831288
vt 0.6017323 0.5338983
vt 0.5735779 0.5565112
vt 0.6020489 0.5320264
vt 0.6020489 0.5320264
vt 0.5735779 0.5565112
vt 0.476216 0.3871848
vt 0.476216 0.3871848
vt 0.5735779 0.5565112
vt 0.4322848 0.4509534
vt 0.3884235 0.4352371
vt 0.391143 0.4358937
vt 0.3875107 0.4365177
vt 0.3734802 0.4934783
vt 0.3366691 0.4483736
vt 0.5879578 0.4780647
vt 0.5879578 0.4780647
vt 0.3366691 0.4483736
vt 0.5950918 0.4579105
vt 0.5950918 0.4579105
vt 0.3366691 0.4483736
vt 0.5616568 0.3778295
vt 0.5616568 0.3778295
vt 0.3366691 0.4483736
vt 0.3812289 0.3824024
vt 0.381187 0.4746373
vt 0.347901 0.4093739
vt 0.4079676 0.4919509
vt 0.4079676 0.4919509
vt 0.347901 0.4093739
vt 0.6161494 0.4865957
vt 0.6161494 0.4865957
vt 0.347901 0.4093739
vt 0.566388 0.3606603
vt 0.566388 0.3606603
vt 0.347901 0.4093739
vt 0.3870684 0.3714173
vt 0.5683904 0.3849961
vt 0.6160469 0.4269715
vt 0.4848355 0.4990663
vt 0.4848355 0.4990663
vt 0.6160469 0.4269715
vt 0.5142331 0.5148339
vt 0.5142331 0.5148339
vt 0.6160469 0.4269715
vt 0.6205267 0.469664
vt 0.6205267 0.469664
vt 0.6160469 0.4269715
vt 0.621607 0.4601178
vt 0.4774733 0.400461
vt 0.603241 0.4710517
vt 0.4661482 0.4111947
vt 0.4661482 0.4111947
vt 0.603241 0.4710517
vt 0.5351231 0.5072807
vt 0.4925842 0.4432373
vt 0.494568 0.4560106
vt 0.489115 0.451447
vt 0.4403269 0.3273743
vt 0.618664 0.3318401
vt 0.3237607 0.5050548
vt 0.3237607 0.5050548
vt 0.618664 0.3318401
vt 0.3273231 0.5062376
vt 0.3273231 0.5062376
vt 0.618664 0.3318401
vt 0.6231809 0.5069827
vt 0.7068709 0.3992409
vt 0.6916994 0.487704
vt 0.6739388 0.3512911
vt 0.6739388 0.3512911
vt 0.6916994 0.487704
vt 0.2575054 0.3497869
vt 0.2575054 0.3497869
vt 0.6916994 0.487704
vt 0.2509209 0.3520082
vt 0.2509209 0.3520082
vt 0.6916994 0.487704
vt 0.2387203 0.406971
vt 0.2387203 0.406971
vt 0.6916994 0.487704
vt 0.3042492 0.5386574
vt 0.3042492 0.5386574
vt 0.6916994 0.487704
vt 0.6507019 0.5534937
vt 0.4251181 0.4722531
vt 0.4163775 0.4588232
vt 0.463303 0.441845
vt 0.463303 0.441845
vt 0.4163775 0.4588232
vt 0.4278237 0.4166383
vt 0.4278237 0.4166383
vt 0.4163775 0.4588232
vt 0.4158094 0.4457659

usemtl Material0
usemap Material0

usemtl Material1
usemap Material1
f 1/1/1 2/2/2 3/3/3
f 4/4/4 5/5/5 6/6/6
f 7/7/7 8/8/8 9/9/9
f 10/10/10 11/11/11 12/12/12
f 13/13/13 14/14/14 15/15/15
f 16/16/16 17/17/17 18/18/18
f 19/19/19 20/20/20 21/21/21
f 22/22/22 23/23/23 24/24/24
f 25/25/25 26/26/26 27/27/27
f 28/28/28 29/29/29 30/30/30
f 31/31/31 32/32/32 33/33/33
f 34/34/34 35/35/35 36/36/36
f 37/37/37 38/38/38 39/39/39
f 40/40/40 41/41/41 42/42/42
f 43/43/43 44/44/44 45/45/45
f 46/46/46 47/47/47 48/48/48
f 49/49/49 50/50/50 51/51/51
f 52/52/52 53/53/53 54/54/54
f 55/55/55 56/56/56 57/57/57
f 58/58/58 59/59/59 60/60/60
f 61/61/61 62/62/62 63/63/63
f 64/64/64 65/65/65 66/66/66
f 67/67/67 68/68/68 69/69/69
f 70/70/70 71/71/71 72/72/72
f 73/73/73 74/74/74 75/75/75
f 76/76/76 77/77/77 78/78/78
f 79/79/79 80/80/80 81/81/81
f 82/82/82 83/83/83 84/84/84
f 85/85/85 86/86/86 87/87/87
f 88/88/88 89/89/89 90/90/90
f 91/91/91 92/92/92 93/93/93
f 94/94/94 95/95/95 96/96/96
f 97/97/97 98/98/98 99/99/99
f 100/100/100 101/101/101 102/102/102
f 103/103/103 104/104/104 105/105/105
f 106/106/106 107/107/107 108/108/108
