g  Instance
v -5.809756 -46.07487 3.657548
v -4.435775 -45.46264 3.519688
v -5.545444 -44.74744 4.001411
v -7.313905 -44.13169 2.468351
v -6.802786 -46.47869 1.401833
v -6.667956 -46.83201 2.828233
v -6.667956 -46.83201 2.828233
v -6.802786 -46.47869 1.401833
v -6.703985 -46.87169 1.58558
v -5.809756 -46.07487 3.657548
v -5.545444 -44.74744 4.001411
v -6.605184 -46.88527 2.880111
v -6.605184 -46.88527 2.880111
v -5.545444 -44.74744 4.001411
v -6.667956 -46.83201 2.828233
v -6.667956 -46.83201 2.828233
v -5.545444 -44.74744 4.001411
v -7.313905 -44.13169 2.468351
v -7.313905 -44.13169 2.468351
v -5.545444 -44.74744 4.001411
v -7.311571 -44.11994 2.47139
v -7.311571 -44.11994 2.47139
v -5.545444 -44.74744 4.001411
v -6.220335 -43.37954 3.507927
v -6.220335 -43.37954 3.507927
v -5.545444 -44.74744 4.001411
v -5.676006 -44.15317 3.932587
v -7.311571 -44.11994 2.47139
v -6.220335 -43.37954 3.507927
v -5.866985 -44.16308 1.777053
v -5.866985 -44.16308 1.777053
v -6.220335 -43.37954 3.507927
v -4.542814 -43.66348 2.229399
v -4.542814 -43.66348 2.229399
v -6.220335 -43.37954 3.507927
v -4.347039 -43.53939 2.397703
v -4.347039 -43.53939 2.397703
v -6.220335 -43.37954 3.507927
v -4.663403 -43.25214 3.11077
v -4.663403 -43.25214 3.11077
v -6.220335 -43.37954 3.507927
v -5.50234 -43.18832 3.592274
v -6.245792 -47.26868 1.82213
v -6.605184 -46.88527 2.880111
v -6.703985 -46.87169 1.58558
v -6.703985 -46.87169 1.58558
v -6.605184 -46.88527 2.880111
v -6.667956 -46.83201 2.828233
v -5.762842 -47.04303 1.793313
v -6.245792 -47.26868 1.82213
v -5.903699 -46.27502 1.441635
v -5.903699 -46.27502 1.441635
v -6.245792 -47.26868 1.82213
v -6.39124 -46.15726 1.321504
v -6.39124 -46.15726 1.321504
v -6.245792 -47.26868 1.82213
v -6.802786 -46.47869 1.401833
v -6.802786 -46.47869 1.401833
v -6.245792 -47.26868 1.82213
v -6.703985 -46.87169 1.58558
v -5.762842 -47.04303 1.793313
v -5.903699 -46.27502 1.441635
v -4.047544 -45.57591 2.942523
v -4.047544 -45.57591 2.942523
v -5.903699 -46.27502 1.441635
v -5.286226 -45.39216 1.752593
v -3.971132 -45.50443 3.005236
v -4.097315 -45.40765 3.305565
v -4.047544 -45.57591 2.942523
v -4.047544 -45.57591 2.942523
v -4.097315 -45.40765 3.305565
v -5.762842 -47.04303 1.793313
v -5.762842 -47.04303 1.793313
v -4.097315 -45.40765 3.305565
v -6.245792 -47.26868 1.82213
v -6.245792 -47.26868 1.82213
v -4.097315 -45.40765 3.305565
v -6.605184 -46.88527 2.880111
v -6.605184 -46.88527 2.880111
v -4.097315 -45.40765 3.305565
v -5.809756 -46.07487 3.657548
v -5.809756 -46.07487 3.657548
v -4.097315 -45.40765 3.305565
v -4.435775 -45.46264 3.519688
v -4.097315 -45.40765 3.305565
v -3.971132 -45.50443 3.005236
v -4.663403 -43.25214 3.11077
v -4.663403 -43.25214 3.11077
v -3.971132 -45.50443 3.005236
v -4.347039 -43.53939 2.397703
v -5.676006 -44.15317 3.932587
v -5.50234 -43.18832 3.592274
v -6.220335 -43.37954 3.507927
v -7.311571 -44.11994 2.47139
v -5.866985 -44.16308 1.777053
v -7.313905 -44.13169 2.468351
v -7.313905 -44.13169 2.468351
v -5.866985 -44.16308 1.777053
v -6.802786 -46.47869 1.401833
v -6.802786 -46.47869 1.401833
v -5.866985 -44.16308 1.777053
v -6.39124 -46.15726 1.321504
v -5.286226 -45.39216 1.752593
v -4.542814 -43.66348 2.229399
v -4.047544 -45.57591 2.942523
v -4.047544 -45.57591 2.942523
v -4.542814 -43.66348 2.229399
v -3.971132 -45.50443 3.005236
v -3.971132 -45.50443 3.005236
v -4.542814 -43.66348 2.229399
v -4.347039 -43.53939 2.397703
v -6.39124 -46.15726 1.321504
v -5.866985 -44.16308 1.777053
v -5.903699 -46.27502 1.441635
v -5.903699 -46.27502 1.441635
v -5.866985 -44.16308 1.777053
v -5.286226 -45.39216 1.752593
v -5.286226 -45.39216 1.752593
v -5.866985 -44.16308 1.777053
v -4.542814 -43.66348 2.229399
v -4.097315 -45.40765 3.305565
v -4.663403 -43.25214 3.11077
v -4.435775 -45.46264 3.519688
v -4.435775 -45.46264 3.519688
v -4.663403 -43.25214 3.11077
v -5.545444 -44.74744 4.001411
v -5.545444 -44.74744 4.001411
v -4.663403 -43.25214 3.11077
v -5.676006 -44.15317 3.932587
v -5.676006 -44.15317 3.932587
v -4.663403 -43.25214 3.11077
v -5.50234 -43.18832 3.592274

vn 0.2208086 -0.2855443 0.9325814
vn 0.2208086 -0.2855443 0.9325814
vn 0.2208086 -0.2855443 0.9325814
vn -0.9730083 -0.2280248 0.03549246
vn -0.9730083 -0.2280248 0.03549246
vn -0.9730083 -0.2280248 0.03549246
vn -0.9730083 -0.2280248 0.03549246
vn -0.9730083 -0.2280248 0.03549246
vn -0.9730083 -0.2280248 0.03549246
vn -0.6657107 -0.06011908 0.7437842
vn -0.6657107 -0.06011908 0.7437842
vn -0.6657107 -0.06011908 0.7437842
vn -0.6657107 -0.06011908 0.7437842
vn -0.6657107 -0.06011908 0.7437842
vn -0.6657107 -0.06011908 0.7437842
vn -0.6657107 -0.06011908 0.7437842
vn -0.6657107 -0.06011908 0.7437842
vn -0.6657107 -0.06011908 0.7437842
vn -0.6657107 -0.06011908 0.7437842
vn -0.6657107 -0.06011908 0.7437842
vn -0.6657107 -0.06011908 0.7437842
vn -0.6657107 -0.06011908 0.7437842
vn -0.6657107 -0.06011908 0.7437842
vn -0.6657107 -0.06011908 0.7437842
vn -0.6657107 -0.06011908 0.7437842
vn -0.6657107 -0.06011908 0.7437842
vn -0.6657107 -0.06011908 0.7437842
vn -0.1833628 0.8809544 -0.4362308
vn -0.1833628 0.8809544 -0.4362308
vn -0.1833628 0.8809544 -0.4362308
vn -0.1833628 0.8809544 -0.4362308
vn -0.1833628 0.8809544 -0.4362308
vn -0.1833628 0.8809544 -0.4362308
vn -0.1833628 0.8809544 -0.4362308
vn -0.1833628 0.8809544 -0.4362308
vn -0.1833628 0.8809544 -0.4362308
vn -0.1833628 0.8809544 -0.4362308
vn -0.1833628 0.8809544 -0.4362308
vn -0.1833628 0.8809544 -0.4362308
vn -0.1833628 0.8809544 -0.4362308
vn -0.1833628 0.8809544 -0.4362308
vn -0.1833628 0.8809544 -0.4362308
vn -0.6668304 -0.7439626 0.0430925
vn -0.6668304 -0.7439626 0.0430925
vn -0.6668304 -0.7439626 0.0430925
vn -0.6668304 -0.7439626 0.0430925
vn -0.6668304 -0.7439626 0.0430925
vn -0.6668304 -0.7439626 0.0430925
vn 0.1293463 -0.3931335 -0.9103383
vn 0.1293463 -0.3931335 -0.9103383
vn 0.1293463 -0.3931335 -0.9103383
vn 0.1293463 -0.3931335 -0.9103383
vn 0.1293463 -0.3931335 -0.9103383
vn 0.1293463 -0.3931335 -0.9103383
vn 0.1293463 -0.3931335 -0.9103383
vn 0.1293463 -0.3931335 -0.9103383
vn 0.1293463 -0.3931335 -0.9103383
vn 0.1293463 -0.3931335 -0.9103383
vn 0.1293463 -0.3931335 -0.9103383
vn 0.1293463 -0.3931335 -0.9103383
vn 0.6612414 -0.2086798 -0.7205641
vn 0.6612414 -0.2086798 -0.7205641
vn 0.6612414 -0.2086798 -0.7205641
vn 0.6612414 -0.2086798 -0.7205641
vn 0.6612414 -0.2086798 -0.7205641
vn 0.6612414 -0.2086798 -0.7205641
vn 0.4031383 -0.8079553 0.4297533
vn 0.4031383 -0.8079553 0.4297533
vn 0.4031383 -0.8079553 0.4297533
vn 0.4031383 -0.8079553 0.4297533
vn 0.4031383 -0.8079553 0.4297533
vn 0.4031383 -0.8079553 0.4297533
vn 0.4031383 -0.8079553 0.4297533
vn 0.4031383 -0.8079553 0.4297533
vn 0.4031383 -0.8079553 0.4297533
vn 0.4031383 -0.8079553 0.4297533
vn 0.4031383 -0.8079553 0.4297533
vn 0.4031383 -0.8079553 0.4297533
vn 0.4031383 -0.8079553 0.4297533
vn 0.4031383 -0.8079553 0.4297533
vn 0.4031383 -0.8079553 0.4297533
vn 0.4031383 -0.8079553 0.4297533
vn 0.4031383 -0.8079553 0.4297533
vn 0.4031383 -0.8079553 0.4297533
vn 0.9160845 0.2675803 0.298647
vn 0.9160845 0.2675803 0.298647
vn 0.9160845 0.2675803 0.298647
vn 0.9160845 0.2675803 0.298647
vn 0.9160845 0.2675803 0.298647
vn 0.9160845 0.2675803 0.298647
vn -0.202424 0.3579364 0.9115405
vn -0.202424 0.3579364 0.9115405
vn -0.202424 0.3579364 0.9115405
vn -0.405378 0.3035379 -0.8622839
vn -0.405378 0.3035379 -0.8622839
vn -0.405378 0.3035379 -0.8622839
vn -0.405378 0.3035379 -0.8622839
vn -0.405378 0.3035379 -0.8622839
vn -0.405378 0.3035379 -0.8622839
vn -0.405378 0.3035379 -0.8622839
vn -0.405378 0.3035379 -0.8622839
vn -0.405378 0.3035379 -0.8622839
vn 0.6824832 -0.09355721 -0.7248888
vn 0.6824832 -0.09355721 -0.7248888
vn 0.6824832 -0.09355721 -0.7248888
vn 0.6824832 -0.09355721 -0.7248888
vn 0.6824832 -0.09355721 -0.7248888
vn 0.6824832 -0.09355721 -0.7248888
vn 0.6824832 -0.09355721 -0.7248888
vn 0.6824832 -0.09355721 -0.7248888
vn 0.6824832 -0.09355721 -0.7248888
vn 0.2698634 0.1464518 -0.9516962
vn 0.2698634 0.1464518 -0.9516962
vn 0.2698634 0.1464518 -0.9516962
vn 0.2698634 0.1464518 -0.9516962
vn 0.2698634 0.1464518 -0.9516962
vn 0.2698634 0.1464518 -0.9516962
vn 0.2698634 0.1464518 -0.9516962
vn 0.2698634 0.1464518 -0.9516962
vn 0.2698634 0.1464518 -0.9516962
vn 0.498804 0.2070649 0.8416167
vn 0.498804 0.2070649 0.8416167
vn 0.498804 0.2070649 0.8416167
vn 0.498804 0.2070649 0.8416167
vn 0.498804 0.2070649 0.8416167
vn 0.498804 0.2070649 0.8416167
vn 0.498804 0.2070649 0.8416167
vn 0.498804 0.2070649 0.8416167
vn 0.498804 0.2070649 0.8416167
vn 0.498804 0.2070649 0.8416167
vn 0.498804 0.2070649 0.8416167
vn 0.498804 0.2070649 0.8416167

vt 0.4462129 0.4918857
vt 0.4952571 0.3651354
vt 0.5694708 0.4675033
vt 0.6194183 0.4579105
vt 0.4085264 0.5516217
vt 0.3756222 0.4262916
vt 0.3756222 0.4262916
vt 0.4085264 0.5516217
vt 0.3729493 0.5354723
vt 0.3777969 0.3814477
vt 0.5482363 0.3139118
vt 0.2812312 0.5341405
vt 0.2812312 0.5341405
vt 0.5482363 0.3139118
vt 0.288938 0.5443293
vt 0.288938 0.5443293
vt 0.5482363 0.3139118
vt 0.6496403 0.6150085
vt 0.6496403 0.6150085
vt 0.5482363 0.3139118
vt 0.651149 0.6144124
vt 0.651149 0.6144124
vt 0.5482363 0.3139118
vt 0.7350625 0.4108314
vt 0.7350625 0.4108314
vt 0.5482363 0.3139118
vt 0.6274837 0.3274255
vt 0.3527905 0.396284
vt 0.4716897 0.2839507
vt 0.4898554 0.471536
vt 0.4898554 0.471536
vt 0.4716897 0.2839507
vt 0.6262078 0.4225151
vt 0.6262078 0.4225151
vt 0.4716897 0.2839507
vt 0.6473678 0.4042748
vt 0.6473678 0.4042748
vt 0.4716897 0.2839507
vt 0.6228736 0.3269971
vt 0.6228736 0.3269971
vt 0.4716897 0.2839507
vt 0.5440359 0.2748097
vt 0.4186407 0.5177955
vt 0.4646255 0.4247829
vt 0.4718806 0.5385923
vt 0.4718806 0.5385923
vt 0.4646255 0.4247829
vt 0.4718526 0.4293418
vt 0.6290018 0.4785583
vt 0.6483457 0.5216606
vt 0.554262 0.4911313
vt 0.554262 0.4911313
vt 0.6483457 0.5216606
vt 0.5404782 0.5346434
vt 0.5404782 0.5346434
vt 0.6483457 0.5216606
vt 0.5694149 0.5713753
vt 0.5694149 0.5713753
vt 0.6483457 0.5216606
vt 0.6077952 0.5625556
vt 0.7400079 0.4771706
vt 0.6526857 0.5413584
vt 0.4976088 0.2674148
vt 0.4976088 0.2674148
vt 0.6526857 0.5413584
vt 0.5226058 0.4846027
vt 0.3784395 0.4502829
vt 0.385215 0.4179608
vt 0.388186 0.4570351
vt 0.388186 0.4570351
vt 0.385215 0.4179608
vt 0.6010058 0.580726
vt 0.6010058 0.580726
vt 0.385215 0.4179608
vt 0.6527975 0.5776246
vt 0.6527975 0.5776246
vt 0.385215 0.4179608
vt 0.6674195 0.4637593
vt 0.6674195 0.4637593
vt 0.385215 0.4179608
vt 0.5630817 0.3800787
vt 0.5630817 0.3800787
vt 0.385215 0.4179608
vt 0.4170341 0.3949149
vt 0.5633426 0.4161959
vt 0.5751333 0.4451326
vt 0.3584996 0.434967
vt 0.3584996 0.434967
vt 0.5751333 0.4451326
vt 0.3920045 0.5036671
vt 0.5359799 0.4246711
vt 0.6276048 0.4087778
vt 0.6144171 0.474479
vt 0.4567044 0.1543878
vt 0.6007544 0.3919625
vt 0.4548325 0.1554309
vt 0.4548325 0.1554309
vt 0.6007544 0.3919625
vt 0.1823744 0.5203381
vt 0.1823744 0.5203381
vt 0.6007544 0.3919625
vt 0.2697013 0.5478218
vt 0.5298424 0.4874339
vt 0.2988195 0.3992689
vt 0.5316119 0.2673962
vt 0.5316119 0.2673962
vt 0.2988195 0.3992689
vt 0.521274 0.2558011
vt 0.521274 0.2558011
vt 0.2988195 0.3992689
vt 0.2797737 0.3681483
vt 0.610999 0.5433235
vt 0.4250529 0.4937018
vt 0.6199399 0.497185
vt 0.6199399 0.497185
vt 0.4250529 0.4937018
vt 0.5361009 0.4387483
vt 0.5361009 0.4387483
vt 0.4250529 0.4937018
vt 0.3737875 0.3683857
vt 0.6347202 0.54961
vt 0.2759925 0.608219
vt 0.6218864 0.4851894
vt 0.6218864 0.4851894
vt 0.2759925 0.608219
vt 0.4454399 0.340264
vt 0.4454399 0.340264
vt 0.2759925 0.608219
vt 0.3481292 0.3609676
vt 0.3481292 0.3609676
vt 0.2759925 0.608219
vt 0.2141563 0.4633588

usemtl Material0
usemap Material0

usemtl Material1
usemap Material1
f 1/1/1 2/2/2 3/3/3
f 4/4/4 5/5/5 6/6/6
f 7/7/7 8/8/8 9/9/9
f 10/10/10 11/11/11 12/12/12
f 13/13/13 14/14/14 15/15/15
f 16/16/16 17/17/17 18/18/18
f 19/19/19 20/20/20 21/21/21
f 22/22/22 23/23/23 24/24/24
f 25/25/25 26/26/26 27/27/27
f 28/28/28 29/29/29 30/30/30
f 31/31/31 32/32/32 33/33/33
f 34/34/34 35/35/35 36/36/36
f 37/37/37 38/38/38 39/39/39
f 40/40/40 41/41/41 42/42/42
f 43/43/43 44/44/44 45/45/45
f 46/46/46 47/47/47 48/48/48
f 49/49/49 50/50/50 51/51/51
f 52/52/52 53/53/53 54/54/54
f 55/55/55 56/56/56 57/57/57
f 58/58/58 59/59/59 60/60/60
f 61/61/61 62/62/62 63/63/63
f 64/64/64 65/65/65 66/66/66
f 67/67/67 68/68/68 69/69/69
f 70/70/70 71/71/71 72/72/72
f 73/73/73 74/74/74 75/75/75
f 76/76/76 77/77/77 78/78/78
f 79/79/79 80/80/80 81/81/81
f 82/82/82 83/83/83 84/84/84
f 85/85/85 86/86/86 87/87/87
f 88/88/88 89/89/89 90/90/90
f 91/91/91 92/92/92 93/93/93
f 94/94/94 95/95/95 96/96/96
f 97/97/97 98/98/98 99/99/99
f 100/100/100 101/101/101 102/102/102
f 103/103/103 104/104/104 105/105/105
f 106/106/106 107/107/107 108/108/108
f 109/109/109 110/110/110 111/111/111
f 112/112/112 113/113/113 114/114/114
f 115/115/115 116/116/116 117/117/117
f 118/118/118 119/119/119 120/120/120
f 121/121/121 122/122/122 123/123/123
f 124/124/124 125/125/125 126/126/126
f 127/127/127 128/128/128 129/129/129
f 130/130/130 131/131/131 132/132/132
