g  Instance
v -1.285219 -47.24314 -4.604061
v -1.43683 -47.41774 -5.224974
v -0.8873451 -46.18588 -3.822604
v -0.8873451 -46.18588 -3.822604
v -1.43683 -47.41774 -5.224974
v -0.7990599 -45.80611 -3.854709
v -0.7990599 -45.80611 -3.854709
v -1.43683 -47.41774 -5.224974
v -0.7536709 -45.49383 -4.036891
v -0.7536709 -45.49383 -4.036891
v -1.43683 -47.41774 -5.224974
v -0.8535076 -45.48794 -4.61685
v -0.8535076 -45.48794 -4.61685
v -1.43683 -47.41774 -5.224974
v -1.425503 -46.72115 -6.146202
v -0.9580646 -45.34597 -3.818694
v -1.233462 -45.168 -3.744519
v -0.7990599 -45.80611 -3.854709
v -0.7990599 -45.80611 -3.854709
v -1.233462 -45.168 -3.744519
v -0.8873451 -46.18588 -3.822604
v -0.8873451 -46.18588 -3.822604
v -1.233462 -45.168 -3.744519
v -1.406543 -45.21094 -3.694952
v -1.406543 -45.21094 -3.694952
v -2.883427 -45.14919 -4.653169
v -0.8873451 -46.18588 -3.822604
v -0.8873451 -46.18588 -3.822604
v -2.883427 -45.14919 -4.653169
v -1.285219 -47.24314 -4.604061
v -1.285219 -47.24314 -4.604061
v -2.883427 -45.14919 -4.653169
v -2.405471 -46.97385 -5.222487
v -0.7536709 -45.49383 -4.036891
v -0.8535076 -45.48794 -4.61685
v -0.9580646 -45.34597 -3.818694
v -0.9580646 -45.34597 -3.818694
v -0.8535076 -45.48794 -4.61685
v -1.233462 -45.168 -3.744519
v -1.233462 -45.168 -3.744519
v -0.8535076 -45.48794 -4.61685
v -2.412402 -44.65515 -6.004488
v -2.412402 -44.65515 -6.004488
v -0.8535076 -45.48794 -4.61685
v -2.379882 -44.68229 -6.076668
v -0.8535076 -45.48794 -4.61685
v -1.425503 -46.72115 -6.146202
v -2.379882 -44.68229 -6.076668
v -2.379882 -44.68229 -6.076668
v -1.425503 -46.72115 -6.146202
v -2.017986 -46.07949 -6.502374
v -2.017986 -46.07949 -6.502374
v -1.425503 -46.72115 -6.146202
v -1.483433 -46.68811 -6.200034
v -2.405471 -46.97385 -5.222487
v -2.212204 -47.21934 -5.622449
v -1.285219 -47.24314 -4.604061
v -1.285219 -47.24314 -4.604061
v -2.212204 -47.21934 -5.622449
v -1.43683 -47.41774 -5.224974
v -0.9580646 -45.34597 -3.818694
v -0.7990599 -45.80611 -3.854709
v -0.7536709 -45.49383 -4.036891
v -2.017986 -46.07949 -6.502374
v -1.483433 -46.68811 -6.200034
v -2.012293 -46.67275 -6.312131
v -1.233462 -45.168 -3.744519
v -2.412402 -44.65515 -6.004488
v -1.406543 -45.21094 -3.694952
v -1.406543 -45.21094 -3.694952
v -2.412402 -44.65515 -6.004488
v -2.883427 -45.14919 -4.653169
v -2.017986 -46.07949 -6.502374
v -2.012293 -46.67275 -6.312131
v -2.379882 -44.68229 -6.076668
v -2.379882 -44.68229 -6.076668
v -2.012293 -46.67275 -6.312131
v -2.412402 -44.65515 -6.004488
v -2.412402 -44.65515 -6.004488
v -2.012293 -46.67275 -6.312131
v -2.883427 -45.14919 -4.653169
v -2.883427 -45.14919 -4.653169
v -2.012293 -46.67275 -6.312131
v -2.405471 -46.97385 -5.222487
v -2.405471 -46.97385 -5.222487
v -2.012293 -46.67275 -6.312131
v -2.212204 -47.21934 -5.622449
v -1.483433 -46.68811 -6.200034
v -1.425503 -46.72115 -6.146202
v -2.012293 -46.67275 -6.312131
v -2.012293 -46.67275 -6.312131
v -1.425503 -46.72115 -6.146202
v -2.212204 -47.21934 -5.622449
v -2.212204 -47.21934 -5.622449
v -1.425503 -46.72115 -6.146202
v -1.43683 -47.41774 -5.224974

vn 0.9571117 -0.2366311 -0.1671615
vn 0.9571117 -0.2366311 -0.1671615
vn 0.9571117 -0.2366311 -0.1671615
vn 0.9571117 -0.2366311 -0.1671615
vn 0.9571117 -0.2366311 -0.1671615
vn 0.9571117 -0.2366311 -0.1671615
vn 0.9571117 -0.2366311 -0.1671615
vn 0.9571117 -0.2366311 -0.1671615
vn 0.9571117 -0.2366311 -0.1671615
vn 0.9571117 -0.2366311 -0.1671615
vn 0.9571117 -0.2366311 -0.1671615
vn 0.9571117 -0.2366311 -0.1671615
vn 0.9571117 -0.2366311 -0.1671615
vn 0.9571117 -0.2366311 -0.1671615
vn 0.9571117 -0.2366311 -0.1671615
vn 0.2710612 0.01834283 0.9623873
vn 0.2710612 0.01834283 0.9623873
vn 0.2710612 0.01834283 0.9623873
vn 0.2710612 0.01834283 0.9623873
vn 0.2710612 0.01834283 0.9623873
vn 0.2710612 0.01834283 0.9623873
vn 0.2710612 0.01834283 0.9623873
vn 0.2710612 0.01834283 0.9623873
vn 0.2710612 0.01834283 0.9623873
vn -0.5154786 -0.375374 0.7703092
vn -0.5154786 -0.375374 0.7703092
vn -0.5154786 -0.375374 0.7703092
vn -0.5154786 -0.375374 0.7703092
vn -0.5154786 -0.375374 0.7703092
vn -0.5154786 -0.375374 0.7703092
vn -0.5154786 -0.375374 0.7703092
vn -0.5154786 -0.375374 0.7703092
vn -0.5154786 -0.375374 0.7703092
vn 0.5253105 0.8469665 -0.0818333
vn 0.5253105 0.8469665 -0.0818333
vn 0.5253105 0.8469665 -0.0818333
vn 0.5253105 0.8469665 -0.0818333
vn 0.5253105 0.8469665 -0.0818333
vn 0.5253105 0.8469665 -0.0818333
vn 0.5253105 0.8469665 -0.0818333
vn 0.5253105 0.8469665 -0.0818333
vn 0.5253105 0.8469665 -0.0818333
vn 0.5253105 0.8469665 -0.0818333
vn 0.5253105 0.8469665 -0.0818333
vn 0.5253105 0.8469665 -0.0818333
vn 0.7368962 0.3643568 -0.5694103
vn 0.7368962 0.3643568 -0.5694103
vn 0.7368962 0.3643568 -0.5694103
vn 0.7368962 0.3643568 -0.5694103
vn 0.7368962 0.3643568 -0.5694103
vn 0.7368962 0.3643568 -0.5694103
vn 0.7368962 0.3643568 -0.5694103
vn 0.7368962 0.3643568 -0.5694103
vn 0.7368962 0.3643568 -0.5694103
vn -0.3916033 -0.8564202 0.3364395
vn -0.3916033 -0.8564202 0.3364395
vn -0.3916033 -0.8564202 0.3364395
vn -0.3916033 -0.8564202 0.3364395
vn -0.3916033 -0.8564202 0.3364395
vn -0.3916033 -0.8564202 0.3364395
vn 0.7825284 0.2249828 0.5805446
vn 0.7825284 0.2249828 0.5805446
vn 0.7825284 0.2249828 0.5805446
vn 0.1896385 -0.2981519 -0.9354906
vn 0.1896385 -0.2981519 -0.9354906
vn 0.1896385 -0.2981519 -0.9354906
vn -0.1504741 0.9442675 0.2927738
vn -0.1504741 0.9442675 0.2927738
vn -0.1504741 0.9442675 0.2927738
vn -0.1504741 0.9442675 0.2927738
vn -0.1504741 0.9442675 0.2927738
vn -0.1504741 0.9442675 0.2927738
vn -0.9213653 -0.1266876 -0.3674728
vn -0.9213653 -0.1266876 -0.3674728
vn -0.9213653 -0.1266876 -0.3674728
vn -0.9213653 -0.1266876 -0.3674728
vn -0.9213653 -0.1266876 -0.3674728
vn -0.9213653 -0.1266876 -0.3674728
vn -0.9213653 -0.1266876 -0.3674728
vn -0.9213653 -0.1266876 -0.3674728
vn -0.9213653 -0.1266876 -0.3674728
vn -0.9213653 -0.1266876 -0.3674728
vn -0.9213653 -0.1266876 -0.3674728
vn -0.9213653 -0.1266876 -0.3674728
vn -0.9213653 -0.1266876 -0.3674728
vn -0.9213653 -0.1266876 -0.3674728
vn -0.9213653 -0.1266876 -0.3674728
vn 0.1039827 -0.7939311 -0.5990503
vn 0.1039827 -0.7939311 -0.5990503
vn 0.1039827 -0.7939311 -0.5990503
vn 0.1039827 -0.7939311 -0.5990503
vn 0.1039827 -0.7939311 -0.5990503
vn 0.1039827 -0.7939311 -0.5990503
vn 0.1039827 -0.7939311 -0.5990503
vn 0.1039827 -0.7939311 -0.5990503
vn 0.1039827 -0.7939311 -0.5990503

vt 0.6298866 0.3975785
vt 0.6482153 0.4536357
vt 0.5300379 0.3270344
vt 0.5300379 0.3270344
vt 0.6482153 0.4536357
vt 0.4953363 0.3299355
vt 0.4953363 0.3299355
vt 0.6482153 0.4536357
vt 0.4673869 0.3463829
vt 0.4673869 0.3463829
vt 0.6482153 0.4536357
vt 0.4690121 0.398738
vt 0.4690121 0.398738
vt 0.6482153 0.4536357
vt 0.5877808 0.5368041
vt 0.5183031 0.3823837
vt 0.5343966 0.4084658
vt 0.4764208 0.367324
vt 0.4764208 0.367324
vt 0.5343966 0.4084658
vt 0.4417472 0.3756874
vt 0.4417472 0.3756874
vt 0.5343966 0.4084658
vt 0.5303918 0.424862
vt 0.4933107 0.2623949
vt 0.6198188 0.469189
vt 0.3427926 0.2899439
vt 0.3427926 0.2899439
vt 0.6198188 0.469189
vt 0.2574076 0.4585904
vt 0.2574076 0.4585904
vt 0.6198188 0.469189
vt 0.3781182 0.592051
vt 0.5882931 0.3586998
vt 0.5805537 0.4099374
vt 0.5661459 0.3394258
vt 0.5661459 0.3394258
vt 0.5805537 0.4099374
vt 0.5372837 0.3328739
vt 0.5372837 0.3328739
vt 0.5805537 0.4099374
vt 0.4252625 0.5325292
vt 0.4252625 0.5325292
vt 0.5805537 0.4099374
vt 0.4289553 0.5389089
vt 0.5456192 0.3511886
vt 0.636555 0.5497776
vt 0.3963072 0.5407529
vt 0.3963072 0.5407529
vt 0.636555 0.5497776
vt 0.547128 0.5960371
vt 0.547128 0.5960371
vt 0.636555 0.5497776
vt 0.6306596 0.5567719
vt 0.4816037 0.5134927
vt 0.4557079 0.5530745
vt 0.3762323 0.4522946
vt 0.3762323 0.4522946
vt 0.4557079 0.5530745
vt 0.3823139 0.5137349
vt 0.5074064 0.4099606
vt 0.5598035 0.4147244
vt 0.5288085 0.4388414
vt 0.5014179 0.4750285
vt 0.5614519 0.4263708
vt 0.5571026 0.4745069
vt 0.5734289 0.3456285
vt 0.4739947 0.562537
vt 0.5571212 0.340874
vt 0.5571212 0.340874
vt 0.4739947 0.562537
vt 0.4241635 0.4328436
vt 0.452709 0.5764511
vt 0.3971827 0.5571538
vt 0.5879578 0.5332557
vt 0.5879578 0.5332557
vt 0.3971827 0.5571538
vt 0.5909101 0.5259354
vt 0.5909101 0.5259354
vt 0.3971827 0.5571538
vt 0.5507881 0.3888472
vt 0.5507881 0.3888472
vt 0.3971827 0.5571538
vt 0.3740809 0.4466041
vt 0.3740809 0.4466041
vt 0.3971827 0.5571538
vt 0.3486554 0.4871824
vt 0.4619991 0.4765093
vt 0.4561736 0.4691424
vt 0.519253 0.4918578
vt 0.519253 0.4918578
vt 0.4561736 0.4691424
vt 0.5487578 0.3974621
vt 0.5487578 0.3974621
vt 0.4561736 0.4691424
vt 0.467317 0.343058

usemtl Material0
usemap Material0

usemtl Material1
usemap Material1
f 1/1/1 2/2/2 3/3/3
f 4/4/4 5/5/5 6/6/6
f 7/7/7 8/8/8 9/9/9
f 10/10/10 11/11/11 12/12/12
f 13/13/13 14/14/14 15/15/15
f 16/16/16 17/17/17 18/18/18
f 19/19/19 20/20/20 21/21/21
f 22/22/22 23/23/23 24/24/24
f 25/25/25 26/26/26 27/27/27
f 28/28/28 29/29/29 30/30/30
f 31/31/31 32/32/32 33/33/33
f 34/34/34 35/35/35 36/36/36
f 37/37/37 38/38/38 39/39/39
f 40/40/40 41/41/41 42/42/42
f 43/43/43 44/44/44 45/45/45
f 46/46/46 47/47/47 48/48/48
f 49/49/49 50/50/50 51/51/51
f 52/52/52 53/53/53 54/54/54
f 55/55/55 56/56/56 57/57/57
f 58/58/58 59/59/59 60/60/60
f 61/61/61 62/62/62 63/63/63
f 64/64/64 65/65/65 66/66/66
f 67/67/67 68/68/68 69/69/69
f 70/70/70 71/71/71 72/72/72
f 73/73/73 74/74/74 75/75/75
f 76/76/76 77/77/77 78/78/78
f 79/79/79 80/80/80 81/81/81
f 82/82/82 83/83/83 84/84/84
f 85/85/85 86/86/86 87/87/87
f 88/88/88 89/89/89 90/90/90
f 91/91/91 92/92/92 93/93/93
f 94/94/94 95/95/95 96/96/96
