g  Instance
v 6.850695 -51.49531 5.413335
v 5.721835 -51.62063 5.66289
v 6.32011 -51.7611 3.56514
v 6.32011 -51.7611 3.56514
v 5.721835 -51.62063 5.66289
v 5.991642 -51.88425 2.814233
v 5.991642 -51.88425 2.814233
v 5.721835 -51.62063 5.66289
v 5.297073 -51.97197 2.86694
v 5.297073 -51.97197 2.86694
v 5.721835 -51.62063 5.66289
v 4.849553 -52.01228 3.054994
v 4.849553 -52.01228 3.054994
v 5.721835 -51.62063 5.66289
v 4.524015 -51.89133 4.619347
v 4.524015 -51.89133 4.619347
v 5.721835 -51.62063 5.66289
v 5.199487 -51.70869 5.492763
v 4.107614 -50.99178 3.00173
v 5.858598 -50.40746 2.122716
v 4.503473 -51.88468 3.14712
v 4.503473 -51.88468 3.14712
v 5.858598 -50.40746 2.122716
v 4.849553 -52.01228 3.054994
v 4.849553 -52.01228 3.054994
v 5.858598 -50.40746 2.122716
v 5.297073 -51.97197 2.86694
v 5.297073 -51.97197 2.86694
v 5.858598 -50.40746 2.122716
v 5.928661 -51.27111 2.385341
v 5.928661 -51.27111 2.385341
v 5.858598 -50.40746 2.122716
v 5.959574 -50.4843 2.109135
v 4.524015 -51.89133 4.619347
v 4.02863 -51.7091 4.091365
v 4.849553 -52.01228 3.054994
v 4.849553 -52.01228 3.054994
v 4.02863 -51.7091 4.091365
v 4.503473 -51.88468 3.14712
v 5.928661 -51.27111 2.385341
v 5.959574 -50.4843 2.109135
v 5.991642 -51.88425 2.814233
v 5.991642 -51.88425 2.814233
v 5.959574 -50.4843 2.109135
v 6.32011 -51.7611 3.56514
v 6.32011 -51.7611 3.56514
v 5.959574 -50.4843 2.109135
v 7.130655 -51.32038 5.356898
v 7.130655 -51.32038 5.356898
v 5.959574 -50.4843 2.109135
v 7.304401 -50.67841 5.495995
v 7.304401 -50.67841 5.495995
v 5.959574 -50.4843 2.109135
v 6.869825 -50.08228 4.162868
v 6.869825 -50.08228 4.162868
v 5.959574 -50.4843 2.109135
v 6.506543 -50.0601 3.261508
v 6.869825 -50.08228 4.162868
v 6.091315 -49.72346 3.711692
v 7.304401 -50.67841 5.495995
v 7.304401 -50.67841 5.495995
v 6.091315 -49.72346 3.711692
v 7.309505 -50.78352 5.779629
v 7.309505 -50.78352 5.779629
v 6.091315 -49.72346 3.711692
v 6.658263 -50.7116 6.025677
v 6.658263 -50.7116 6.025677
v 6.091315 -49.72346 3.711692
v 4.662127 -50.00641 5.455691
v 4.662127 -50.00641 5.455691
v 6.091315 -49.72346 3.711692
v 4.545724 -49.93568 5.341564
v 5.928661 -51.27111 2.385341
v 5.991642 -51.88425 2.814233
v 5.297073 -51.97197 2.86694
v 4.545724 -49.93568 5.341564
v 6.091315 -49.72346 3.711692
v 3.884653 -50.64527 4.297796
v 3.884653 -50.64527 4.297796
v 6.091315 -49.72346 3.711692
v 3.740535 -50.90052 3.787347
v 3.740535 -50.90052 3.787347
v 6.091315 -49.72346 3.711692
v 4.107614 -50.99178 3.00173
v 4.107614 -50.99178 3.00173
v 6.091315 -49.72346 3.711692
v 5.858598 -50.40746 2.122716
v 5.858598 -50.40746 2.122716
v 6.091315 -49.72346 3.711692
v 6.159344 -49.87099 3.198639
v 7.14208 -51.31653 5.452553
v 6.850695 -51.49531 5.413335
v 7.130655 -51.32038 5.356898
v 7.130655 -51.32038 5.356898
v 6.850695 -51.49531 5.413335
v 6.32011 -51.7611 3.56514
v 3.699807 -50.96191 3.963849
v 4.02863 -51.7091 4.091365
v 3.884653 -50.64527 4.297796
v 3.884653 -50.64527 4.297796
v 4.02863 -51.7091 4.091365
v 4.545724 -49.93568 5.341564
v 4.545724 -49.93568 5.341564
v 4.02863 -51.7091 4.091365
v 4.662127 -50.00641 5.455691
v 4.662127 -50.00641 5.455691
v 4.02863 -51.7091 4.091365
v 5.199487 -51.70869 5.492763
v 5.199487 -51.70869 5.492763
v 4.02863 -51.7091 4.091365
v 4.524015 -51.89133 4.619347
v 5.721835 -51.62063 5.66289
v 6.850695 -51.49531 5.413335
v 6.658263 -50.7116 6.025677
v 6.658263 -50.7116 6.025677
v 6.850695 -51.49531 5.413335
v 7.309505 -50.78352 5.779629
v 7.309505 -50.78352 5.779629
v 6.850695 -51.49531 5.413335
v 7.14208 -51.31653 5.452553
v 4.02863 -51.7091 4.091365
v 3.699807 -50.96191 3.963849
v 4.503473 -51.88468 3.14712
v 4.503473 -51.88468 3.14712
v 3.699807 -50.96191 3.963849
v 4.107614 -50.99178 3.00173
v 4.107614 -50.99178 3.00173
v 3.699807 -50.96191 3.963849
v 3.740535 -50.90052 3.787347
v 6.869825 -50.08228 4.162868
v 6.506543 -50.0601 3.261508
v 6.091315 -49.72346 3.711692
v 6.091315 -49.72346 3.711692
v 6.506543 -50.0601 3.261508
v 6.159344 -49.87099 3.198639
v 3.884653 -50.64527 4.297796
v 3.740535 -50.90052 3.787347
v 3.699807 -50.96191 3.963849
v 7.304401 -50.67841 5.495995
v 7.309505 -50.78352 5.779629
v 7.130655 -51.32038 5.356898
v 7.130655 -51.32038 5.356898
v 7.309505 -50.78352 5.779629
v 7.14208 -51.31653 5.452553
v 5.959574 -50.4843 2.109135
v 5.858598 -50.40746 2.122716
v 6.506543 -50.0601 3.261508
v 6.506543 -50.0601 3.261508
v 5.858598 -50.40746 2.122716
v 6.159344 -49.87099 3.198639
v 5.199487 -51.70869 5.492763
v 5.721835 -51.62063 5.66289
v 4.662127 -50.00641 5.455691
v 4.662127 -50.00641 5.455691
v 5.721835 -51.62063 5.66289
v 6.658263 -50.7116 6.025677

vn 0.1323764 -0.9857538 0.1037594
vn 0.1323764 -0.9857538 0.1037594
vn 0.1323764 -0.9857538 0.1037594
vn 0.1323764 -0.9857538 0.1037594
vn 0.1323764 -0.9857538 0.1037594
vn 0.1323764 -0.9857538 0.1037594
vn 0.1323764 -0.9857538 0.1037594
vn 0.1323764 -0.9857538 0.1037594
vn 0.1323764 -0.9857538 0.1037594
vn 0.1323764 -0.9857538 0.1037594
vn 0.1323764 -0.9857538 0.1037594
vn 0.1323764 -0.9857538 0.1037594
vn 0.1323764 -0.9857538 0.1037594
vn 0.1323764 -0.9857538 0.1037594
vn 0.1323764 -0.9857538 0.1037594
vn 0.1323764 -0.9857538 0.1037594
vn 0.1323764 -0.9857538 0.1037594
vn 0.1323764 -0.9857538 0.1037594
vn -0.3467609 -0.2985187 -0.8891814
vn -0.3467609 -0.2985187 -0.8891814
vn -0.3467609 -0.2985187 -0.8891814
vn -0.3467609 -0.2985187 -0.8891814
vn -0.3467609 -0.2985187 -0.8891814
vn -0.3467609 -0.2985187 -0.8891814
vn -0.3467609 -0.2985187 -0.8891814
vn -0.3467609 -0.2985187 -0.8891814
vn -0.3467609 -0.2985187 -0.8891814
vn -0.3467609 -0.2985187 -0.8891814
vn -0.3467609 -0.2985187 -0.8891814
vn -0.3467609 -0.2985187 -0.8891814
vn -0.3467609 -0.2985187 -0.8891814
vn -0.3467609 -0.2985187 -0.8891814
vn -0.3467609 -0.2985187 -0.8891814
vn -0.3457917 -0.9383111 0.0005860735
vn -0.3457917 -0.9383111 0.0005860735
vn -0.3457917 -0.9383111 0.0005860735
vn -0.3457917 -0.9383111 0.0005860735
vn -0.3457917 -0.9383111 0.0005860735
vn -0.3457917 -0.9383111 0.0005860735
vn 0.9131277 -0.1665061 -0.3721204
vn 0.9131277 -0.1665061 -0.3721204
vn 0.9131277 -0.1665061 -0.3721204
vn 0.9131277 -0.1665061 -0.3721204
vn 0.9131277 -0.1665061 -0.3721204
vn 0.9131277 -0.1665061 -0.3721204
vn 0.9131277 -0.1665061 -0.3721204
vn 0.9131277 -0.1665061 -0.3721204
vn 0.9131277 -0.1665061 -0.3721204
vn 0.9131277 -0.1665061 -0.3721204
vn 0.9131277 -0.1665061 -0.3721204
vn 0.9131277 -0.1665061 -0.3721204
vn 0.9131277 -0.1665061 -0.3721204
vn 0.9131277 -0.1665061 -0.3721204
vn 0.9131277 -0.1665061 -0.3721204
vn 0.9131277 -0.1665061 -0.3721204
vn 0.9131277 -0.1665061 -0.3721204
vn 0.9131277 -0.1665061 -0.3721204
vn 0.2274621 0.9144357 0.334766
vn 0.2274621 0.9144357 0.334766
vn 0.2274621 0.9144357 0.334766
vn 0.2274621 0.9144357 0.334766
vn 0.2274621 0.9144357 0.334766
vn 0.2274621 0.9144357 0.334766
vn 0.2274621 0.9144357 0.334766
vn 0.2274621 0.9144357 0.334766
vn 0.2274621 0.9144357 0.334766
vn 0.2274621 0.9144357 0.334766
vn 0.2274621 0.9144357 0.334766
vn 0.2274621 0.9144357 0.334766
vn 0.2274621 0.9144357 0.334766
vn 0.2274621 0.9144357 0.334766
vn 0.2274621 0.9144357 0.334766
vn 0.01011803 -0.5724719 -0.8198619
vn 0.01011803 -0.5724719 -0.8198619
vn 0.01011803 -0.5724719 -0.8198619
vn -0.4346158 0.848599 -0.3016436
vn -0.4346158 0.848599 -0.3016436
vn -0.4346158 0.848599 -0.3016436
vn -0.4346158 0.848599 -0.3016436
vn -0.4346158 0.848599 -0.3016436
vn -0.4346158 0.848599 -0.3016436
vn -0.4346158 0.848599 -0.3016436
vn -0.4346158 0.848599 -0.3016436
vn -0.4346158 0.848599 -0.3016436
vn -0.4346158 0.848599 -0.3016436
vn -0.4346158 0.848599 -0.3016436
vn -0.4346158 0.848599 -0.3016436
vn -0.4346158 0.848599 -0.3016436
vn -0.4346158 0.848599 -0.3016436
vn -0.4346158 0.848599 -0.3016436
vn 0.5255415 -0.8502875 -0.02858816
vn 0.5255415 -0.8502875 -0.02858816
vn 0.5255415 -0.8502875 -0.02858816
vn 0.5255415 -0.8502875 -0.02858816
vn 0.5255415 -0.8502875 -0.02858816
vn 0.5255415 -0.8502875 -0.02858816
vn -0.7481245 -0.2225503 0.6251248
vn -0.7481245 -0.2225503 0.6251248
vn -0.7481245 -0.2225503 0.6251248
vn -0.7481245 -0.2225503 0.6251248
vn -0.7481245 -0.2225503 0.6251248
vn -0.7481245 -0.2225503 0.6251248
vn -0.7481245 -0.2225503 0.6251248
vn -0.7481245 -0.2225503 0.6251248
vn -0.7481245 -0.2225503 0.6251248
vn -0.7481245 -0.2225503 0.6251248
vn -0.7481245 -0.2225503 0.6251248
vn -0.7481245 -0.2225503 0.6251248
vn -0.7481245 -0.2225503 0.6251248
vn -0.7481245 -0.2225503 0.6251248
vn -0.7481245 -0.2225503 0.6251248
vn 0.2375866 -0.561164 0.792873
vn 0.2375866 -0.561164 0.792873
vn 0.2375866 -0.561164 0.792873
vn 0.2375866 -0.561164 0.792873
vn 0.2375866 -0.561164 0.792873
vn 0.2375866 -0.561164 0.792873
vn 0.2375866 -0.561164 0.792873
vn 0.2375866 -0.561164 0.792873
vn 0.2375866 -0.561164 0.792873
vn -0.8372972 -0.4268173 -0.3417024
vn -0.8372972 -0.4268173 -0.3417024
vn -0.8372972 -0.4268173 -0.3417024
vn -0.8372972 -0.4268173 -0.3417024
vn -0.8372972 -0.4268173 -0.3417024
vn -0.8372972 -0.4268173 -0.3417024
vn -0.8372972 -0.4268173 -0.3417024
vn -0.8372972 -0.4268173 -0.3417024
vn -0.8372972 -0.4268173 -0.3417024
vn 0.4953921 0.850082 -0.1787381
vn 0.4953921 0.850082 -0.1787381
vn 0.4953921 0.850082 -0.1787381
vn 0.4953921 0.850082 -0.1787381
vn 0.4953921 0.850082 -0.1787381
vn 0.4953921 0.850082 -0.1787381
vn -0.8553956 0.5176845 -0.01735964
vn -0.8553956 0.5176845 -0.01735964
vn -0.8553956 0.5176845 -0.01735964
vn 0.9654051 -0.2383679 -0.1057064
vn 0.9654051 -0.2383679 -0.1057064
vn 0.9654051 -0.2383679 -0.1057064
vn 0.9654051 -0.2383679 -0.1057064
vn 0.9654051 -0.2383679 -0.1057064
vn 0.9654051 -0.2383679 -0.1057064
vn 0.4830297 0.7221808 -0.4951134
vn 0.4830297 0.7221808 -0.4951134
vn 0.4830297 0.7221808 -0.4951134
vn 0.4830297 0.7221808 -0.4951134
vn 0.4830297 0.7221808 -0.4951134
vn 0.4830297 0.7221808 -0.4951134
vn -0.2976691 -0.07324391 0.9518553
vn -0.2976691 -0.07324391 0.9518553
vn -0.2976691 -0.07324391 0.9518553
vn -0.2976691 -0.07324391 0.9518553
vn -0.2976691 -0.07324391 0.9518553
vn -0.2976691 -0.07324391 0.9518553

vt 0.411055 0.3278679
vt 0.5112342 0.30573
vt 0.4605695 0.4918205
vt 0.4605695 0.4918205
vt 0.5112342 0.30573
vt 0.4907402 0.5584297
vt 0.4907402 0.5584297
vt 0.5112342 0.30573
vt 0.5525018 0.5537544
vt 0.5525018 0.5537544
vt 0.5112342 0.30573
vt 0.5921115 0.5370742
vt 0.5921115 0.5370742
vt 0.5112342 0.30573
vt 0.6191576 0.3983049
vt 0.6191576 0.3983049
vt 0.5112342 0.30573
vt 0.5579408 0.3208224
vt 0.6419194 0.2775804
vt 0.507751 0.646022
vt 0.4626091 0.216643
vt 0.4626091 0.216643
vt 0.507751 0.646022
vt 0.400759 0.2552562
vt 0.400759 0.2552562
vt 0.507751 0.646022
vt 0.3506205 0.33408
vt 0.3506205 0.33408
vt 0.507751 0.646022
vt 0.3734569 0.5359473
vt 0.3734569 0.5359473
vt 0.507751 0.646022
vt 0.4839461 0.6517125
vt 0.5582202 0.388009
vt 0.6045449 0.4343384
vt 0.5277469 0.5252835
vt 0.5277469 0.5252835
vt 0.6045449 0.4343384
vt 0.5601108 0.5171995
vt 0.5599245 0.5721483
vt 0.4862185 0.600284
vt 0.6158793 0.5284686
vt 0.6158793 0.5284686
vt 0.4862185 0.600284
vt 0.5988544 0.4519872
vt 0.5988544 0.4519872
vt 0.4862185 0.600284
vt 0.5441198 0.2694778
vt 0.5441198 0.2694778
vt 0.4862185 0.600284
vt 0.4814687 0.2553074
vt 0.4814687 0.2553074
vt 0.4862185 0.600284
vt 0.4333931 0.3910964
vt 0.4333931 0.3910964
vt 0.4862185 0.600284
vt 0.437491 0.4829076
vt 0.593313 0.4519779
vt 0.5148944 0.4965703
vt 0.6459894 0.3202356
vt 0.6459894 0.3202356
vt 0.5148944 0.4965703
vt 0.6488206 0.2922024
vt 0.6488206 0.2922024
vt 0.5148944 0.4965703
vt 0.5883489 0.2678851
vt 0.5883489 0.2678851
vt 0.5148944 0.4965703
vt 0.3920976 0.3242124
vt 0.3920976 0.3242124
vt 0.5148944 0.4965703
vt 0.3799855 0.3354909
vt 0.468593 0.4975762
vt 0.4606068 0.3827749
vt 0.5672821 0.3686652
vt 0.4318284 0.2937018
vt 0.5673473 0.4510466
vt 0.347901 0.3944632
vt 0.347901 0.3944632
vt 0.5673473 0.4510466
vt 0.3253859 0.4437402
vt 0.3253859 0.4437402
vt 0.5673473 0.4510466
vt 0.3516263 0.5195836
vt 0.3516263 0.5195836
vt 0.5673473 0.4510466
vt 0.5195884 0.6044378
vt 0.5195884 0.6044378
vt 0.5673473 0.4510466
vt 0.5667326 0.5005751
vt 0.4268365 0.3113693
vt 0.4568488 0.3148152
vt 0.4278656 0.3197699
vt 0.4278656 0.3197699
vt 0.4568488 0.3148152
vt 0.5087382 0.4771333
vt 0.5241333 0.588484
vt 0.4330764 0.5701087
vt 0.5523341 0.5403804
vt 0.5523341 0.5403804
vt 0.4330764 0.5701087
vt 0.607609 0.3900347
vt 0.607609 0.3900347
vt 0.4330764 0.5701087
vt 0.596256 0.3735966
vt 0.596256 0.3735966
vt 0.4330764 0.5701087
vt 0.3955901 0.3682553
vt 0.3955901 0.3682553
vt 0.4330764 0.5701087
vt 0.3975599 0.494065
vt 0.5566649 0.4054576
vt 0.3999301 0.4644299
vt 0.3814524 0.3197234
vt 0.3814524 0.3197234
vt 0.3999301 0.4644299
vt 0.2991315 0.3778667
vt 0.2991315 0.3778667
vt 0.3999301 0.4644299
vt 0.3512538 0.4551631
vt 0.4780507 0.3701693
vt 0.5541596 0.3828401
vt 0.4433165 0.4639829
vt 0.4433165 0.4639829
vt 0.5541596 0.3828401
vt 0.5343779 0.4784186
vt 0.5343779 0.4784186
vt 0.5541596 0.3828401
vt 0.5575403 0.4003725
vt 0.5665743 0.4117348
vt 0.5375817 0.493441
vt 0.4904654 0.4526392
vt 0.4904654 0.4526392
vt 0.5375817 0.493441
vt 0.5023307 0.4991501
vt 0.4126336 0.4138164
vt 0.3869147 0.4586276
vt 0.3804559 0.4431302
vt 0.4741158 0.2963748
vt 0.4830101 0.2712054
vt 0.5327854 0.308715
vt 0.5327854 0.308715
vt 0.4830101 0.2712054
vt 0.532208 0.3002258
vt 0.5150341 0.5970337
vt 0.5022375 0.5954504
vt 0.5371347 0.4630701
vt 0.5371347 0.4630701
vt 0.5022375 0.5954504
vt 0.4973666 0.4703811
vt 0.4078884 0.4453188
vt 0.4171552 0.3950267
vt 0.5636312 0.4970639
vt 0.5636312 0.4970639
vt 0.4171552 0.3950267
vt 0.5030292 0.3048639

usemtl Material0
usemap Material0

usemtl Material1
usemap Material1
f 1/1/1 2/2/2 3/3/3
f 4/4/4 5/5/5 6/6/6
f 7/7/7 8/8/8 9/9/9
f 10/10/10 11/11/11 12/12/12
f 13/13/13 14/14/14 15/15/15
f 16/16/16 17/17/17 18/18/18
f 19/19/19 20/20/20 21/21/21
f 22/22/22 23/23/23 24/24/24
f 25/25/25 26/26/26 27/27/27
f 28/28/28 29/29/29 30/30/30
f 31/31/31 32/32/32 33/33/33
f 34/34/34 35/35/35 36/36/36
f 37/37/37 38/38/38 39/39/39
f 40/40/40 41/41/41 42/42/42
f 43/43/43 44/44/44 45/45/45
f 46/46/46 47/47/47 48/48/48
f 49/49/49 50/50/50 51/51/51
f 52/52/52 53/53/53 54/54/54
f 55/55/55 56/56/56 57/57/57
f 58/58/58 59/59/59 60/60/60
f 61/61/61 62/62/62 63/63/63
f 64/64/64 65/65/65 66/66/66
f 67/67/67 68/68/68 69/69/69
f 70/70/70 71/71/71 72/72/72
f 73/73/73 74/74/74 75/75/75
f 76/76/76 77/77/77 78/78/78
f 79/79/79 80/80/80 81/81/81
f 82/82/82 83/83/83 84/84/84
f 85/85/85 86/86/86 87/87/87
f 88/88/88 89/89/89 90/90/90
f 91/91/91 92/92/92 93/93/93
f 94/94/94 95/95/95 96/96/96
f 97/97/97 98/98/98 99/99/99
f 100/100/100 101/101/101 102/102/102
f 103/103/103 104/104/104 105/105/105
f 106/106/106 107/107/107 108/108/108
f 109/109/109 110/110/110 111/111/111
f 112/112/112 113/113/113 114/114/114
f 115/115/115 116/116/116 117/117/117
f 118/118/118 119/119/119 120/120/120
f 121/121/121 122/122/122 123/123/123
f 124/124/124 125/125/125 126/126/126
f 127/127/127 128/128/128 129/129/129
f 130/130/130 131/131/131 132/132/132
f 133/133/133 134/134/134 135/135/135
f 136/136/136 137/137/137 138/138/138
f 139/139/139 140/140/140 141/141/141
f 142/142/142 143/143/143 144/144/144
f 145/145/145 146/146/146 147/147/147
f 148/148/148 149/149/149 150/150/150
f 151/151/151 152/152/152 153/153/153
f 154/154/154 155/155/155 156/156/156
