g  Instance
v 4.994182 -55.35905 -4.633189
v 5.264173 -55.73319 -3.915108
v 4.691082 -55.77211 -4.349456
v 5.34845 -53.14856 -4.466922
v 5.171921 -52.93321 -4.199938
v 5.916685 -54.37956 -2.82821
v 5.916685 -54.37956 -2.82821
v 5.171921 -52.93321 -4.199938
v 5.912061 -54.37385 -2.82155
v 5.912061 -54.37385 -2.82155
v 5.171921 -52.93321 -4.199938
v 5.219513 -53.16506 -3.46465
v 5.916685 -54.37956 -2.82821
v 5.816806 -55.03257 -2.866524
v 5.34845 -53.14856 -4.466922
v 5.34845 -53.14856 -4.466922
v 5.816806 -55.03257 -2.866524
v 5.095941 -53.63265 -4.898945
v 5.095941 -53.63265 -4.898945
v 5.816806 -55.03257 -2.866524
v 4.994182 -55.35905 -4.633189
v 4.994182 -55.35905 -4.633189
v 5.816806 -55.03257 -2.866524
v 5.264173 -55.73319 -3.915108
v 5.171921 -52.93321 -4.199938
v 4.465808 -53.33792 -4.432933
v 5.219513 -53.16506 -3.46465
v 5.219513 -53.16506 -3.46465
v 4.465808 -53.33792 -4.432933
v 5.076816 -53.30552 -3.34881
v 5.076816 -53.30552 -3.34881
v 4.465808 -53.33792 -4.432933
v 3.90581 -54.12326 -3.328151
v 3.90581 -54.12326 -3.328151
v 4.465808 -53.33792 -4.432933
v 3.850112 -54.14162 -3.384205
v 3.850112 -54.14162 -3.384205
v 4.465808 -53.33792 -4.432933
v 3.703616 -54.11204 -3.747853
v 5.666784 -54.64557 -2.603119
v 5.816806 -55.03257 -2.866524
v 5.912061 -54.37385 -2.82155
v 5.912061 -54.37385 -2.82155
v 5.816806 -55.03257 -2.866524
v 5.916685 -54.37956 -2.82821
v 5.219513 -53.16506 -3.46465
v 5.076816 -53.30552 -3.34881
v 5.912061 -54.37385 -2.82155
v 5.912061 -54.37385 -2.82155
v 5.076816 -53.30552 -3.34881
v 5.666784 -54.64557 -2.603119
v 5.666784 -54.64557 -2.603119
v 5.076816 -53.30552 -3.34881
v 5.346162 -54.4683 -2.657079
v 5.095941 -53.63265 -4.898945
v 4.465808 -53.33792 -4.432933
v 5.34845 -53.14856 -4.466922
v 5.34845 -53.14856 -4.466922
v 4.465808 -53.33792 -4.432933
v 5.171921 -52.93321 -4.199938
v 4.691082 -55.77211 -4.349456
v 3.71593 -54.40381 -3.726247
v 4.994182 -55.35905 -4.633189
v 4.994182 -55.35905 -4.633189
v 3.71593 -54.40381 -3.726247
v 5.095941 -53.63265 -4.898945
v 5.095941 -53.63265 -4.898945
v 3.71593 -54.40381 -3.726247
v 4.465808 -53.33792 -4.432933
v 4.465808 -53.33792 -4.432933
v 3.71593 -54.40381 -3.726247
v 3.703616 -54.11204 -3.747853
v 3.90581 -54.12326 -3.328151
v 3.850112 -54.14162 -3.384205
v 5.346162 -54.4683 -2.657079
v 5.346162 -54.4683 -2.657079
v 3.850112 -54.14162 -3.384205
v 5.666784 -54.64557 -2.603119
v 5.666784 -54.64557 -2.603119
v 3.850112 -54.14162 -3.384205
v 5.816806 -55.03257 -2.866524
v 5.816806 -55.03257 -2.866524
v 3.850112 -54.14162 -3.384205
v 5.264173 -55.73319 -3.915108
v 5.264173 -55.73319 -3.915108
v 3.850112 -54.14162 -3.384205
v 4.691082 -55.77211 -4.349456
v 4.691082 -55.77211 -4.349456
v 3.850112 -54.14162 -3.384205
v 3.71593 -54.40381 -3.726247
v 5.346162 -54.4683 -2.657079
v 5.076816 -53.30552 -3.34881
v 3.90581 -54.12326 -3.328151
v 3.71593 -54.40381 -3.726247
v 3.850112 -54.14162 -3.384205
v 3.703616 -54.11204 -3.747853

vn 0.4572995 -0.706542 -0.54007
vn 0.4572995 -0.706542 -0.54007
vn 0.4572995 -0.706542 -0.54007
vn 0.833896 0.5395596 0.1161588
vn 0.833896 0.5395596 0.1161588
vn 0.833896 0.5395596 0.1161588
vn 0.833896 0.5395596 0.1161588
vn 0.833896 0.5395596 0.1161588
vn 0.833896 0.5395596 0.1161588
vn 0.833896 0.5395596 0.1161588
vn 0.833896 0.5395596 0.1161588
vn 0.833896 0.5395596 0.1161588
vn 0.908475 -0.1153832 -0.4016961
vn 0.908475 -0.1153832 -0.4016961
vn 0.908475 -0.1153832 -0.4016961
vn 0.908475 -0.1153832 -0.4016961
vn 0.908475 -0.1153832 -0.4016961
vn 0.908475 -0.1153832 -0.4016961
vn 0.908475 -0.1153832 -0.4016961
vn 0.908475 -0.1153832 -0.4016961
vn 0.908475 -0.1153832 -0.4016961
vn 0.908475 -0.1153832 -0.4016961
vn 0.908475 -0.1153832 -0.4016961
vn 0.908475 -0.1153832 -0.4016961
vn -0.5456058 0.7884761 0.2839364
vn -0.5456058 0.7884761 0.2839364
vn -0.5456058 0.7884761 0.2839364
vn -0.5456058 0.7884761 0.2839364
vn -0.5456058 0.7884761 0.2839364
vn -0.5456058 0.7884761 0.2839364
vn -0.5456058 0.7884761 0.2839364
vn -0.5456058 0.7884761 0.2839364
vn -0.5456058 0.7884761 0.2839364
vn -0.5456058 0.7884761 0.2839364
vn -0.5456058 0.7884761 0.2839364
vn -0.5456058 0.7884761 0.2839364
vn -0.5456058 0.7884761 0.2839364
vn -0.5456058 0.7884761 0.2839364
vn -0.5456058 0.7884761 0.2839364
vn 0.7459552 -0.1521337 0.6483874
vn 0.7459552 -0.1521337 0.6483874
vn 0.7459552 -0.1521337 0.6483874
vn 0.7459552 -0.1521337 0.6483874
vn 0.7459552 -0.1521337 0.6483874
vn 0.7459552 -0.1521337 0.6483874
vn 0.1534838 0.5312394 0.8332031
vn 0.1534838 0.5312394 0.8332031
vn 0.1534838 0.5312394 0.8332031
vn 0.1534838 0.5312394 0.8332031
vn 0.1534838 0.5312394 0.8332031
vn 0.1534838 0.5312394 0.8332031
vn 0.1534838 0.5312394 0.8332031
vn 0.1534838 0.5312394 0.8332031
vn 0.1534838 0.5312394 0.8332031
vn -0.177731 0.7052304 -0.6863394
vn -0.177731 0.7052304 -0.6863394
vn -0.177731 0.7052304 -0.6863394
vn -0.177731 0.7052304 -0.6863394
vn -0.177731 0.7052304 -0.6863394
vn -0.177731 0.7052304 -0.6863394
vn -0.6175956 -0.08397345 -0.7820001
vn -0.6175956 -0.08397345 -0.7820001
vn -0.6175956 -0.08397345 -0.7820001
vn -0.6175956 -0.08397345 -0.7820001
vn -0.6175956 -0.08397345 -0.7820001
vn -0.6175956 -0.08397345 -0.7820001
vn -0.6175956 -0.08397345 -0.7820001
vn -0.6175956 -0.08397345 -0.7820001
vn -0.6175956 -0.08397345 -0.7820001
vn -0.6175956 -0.08397345 -0.7820001
vn -0.6175956 -0.08397345 -0.7820001
vn -0.6175956 -0.08397345 -0.7820001
vn -0.4492221 -0.615217 0.6478485
vn -0.4492221 -0.615217 0.6478485
vn -0.4492221 -0.615217 0.6478485
vn -0.4492221 -0.615217 0.6478485
vn -0.4492221 -0.615217 0.6478485
vn -0.4492221 -0.615217 0.6478485
vn -0.4492221 -0.615217 0.6478485
vn -0.4492221 -0.615217 0.6478485
vn -0.4492221 -0.615217 0.6478485
vn -0.4492221 -0.615217 0.6478485
vn -0.4492221 -0.615217 0.6478485
vn -0.4492221 -0.615217 0.6478485
vn -0.4492221 -0.615217 0.6478485
vn -0.4492221 -0.615217 0.6478485
vn -0.4492221 -0.615217 0.6478485
vn -0.4492221 -0.615217 0.6478485
vn -0.4492221 -0.615217 0.6478485
vn -0.4492221 -0.615217 0.6478485
vn -0.2911385 0.4384083 0.8503155
vn -0.2911385 0.4384083 0.8503155
vn -0.2911385 0.4384083 0.8503155
vn -0.9278287 -0.01154317 0.3728281
vn -0.9278287 -0.01154317 0.3728281
vn -0.9278287 -0.01154317 0.3728281

vt 0.5221123 0.4566812
vt 0.5196722 0.3677198
vt 0.5720412 0.4215325
vt 0.4035298 0.4874805
vt 0.3790821 0.4637314
vt 0.5221123 0.3417076
vt 0.5221123 0.3417076
vt 0.3790821 0.4637314
vt 0.5214697 0.3411162
vt 0.5214697 0.3411162
vt 0.3790821 0.4637314
vt 0.3985657 0.3983236
vt 0.4507113 0.2920487
vt 0.513991 0.2960581
vt 0.3405527 0.4635172
vt 0.3405527 0.4635172
vt 0.513991 0.2960581
vt 0.3896202 0.5087243
vt 0.3896202 0.5087243
vt 0.513991 0.2960581
vt 0.5549605 0.4809239
vt 0.5549605 0.4809239
vt 0.513991 0.2960581
vt 0.5872686 0.4057836
vt 0.6186919 0.485385
vt 0.5444736 0.5076253
vt 0.6101981 0.415204
vt 0.6101981 0.415204
vt 0.5444736 0.5076253
vt 0.5921488 0.4041491
vt 0.5921488 0.4041491
vt 0.5444736 0.5076253
vt 0.461431 0.4021747
vt 0.461431 0.4021747
vt 0.5444736 0.5076253
vt 0.4562853 0.4075252
vt 0.4562853 0.4075252
vt 0.5444736 0.5076253
vt 0.4467997 0.4422361
vt 0.4680668 0.3679014
vt 0.5083191 0.407786
vt 0.4317306 0.4009732
vt 0.4317306 0.4009732
vt 0.5083191 0.407786
vt 0.4322708 0.4019837
vt 0.4841137 0.6025751
vt 0.4685464 0.5693264
vt 0.6429439 0.4180121
vt 0.6429439 0.4180121
vt 0.4685464 0.5693264
vt 0.6175184 0.3553237
vt 0.6175184 0.3553237
vt 0.4685464 0.5693264
vt 0.5608279 0.3708119
vt 0.5607628 0.4260681
vt 0.4957368 0.3487578
vt 0.6045821 0.3543971
vt 0.6045821 0.3543971
vt 0.4957368 0.3487578
vt 0.5902861 0.3101027
vt 0.3626208 0.4304035
vt 0.572004 0.2896272
vt 0.4144962 0.4944935
vt 0.4144962 0.4944935
vt 0.572004 0.2896272
vt 0.6534122 0.5545275
vt 0.6534122 0.5545275
vt 0.572004 0.2896272
vt 0.7064797 0.4492584
vt 0.7064797 0.4492584
vt 0.572004 0.2896272
vt 0.6129363 0.2945074
vt 0.6324757 0.3777876
vt 0.6364059 0.3862628
vt 0.4750238 0.2763045
vt 0.4750238 0.2763045
vt 0.6364059 0.3862628
vt 0.4331509 0.2681459
vt 0.4331509 0.2681459
vt 0.6364059 0.3862628
vt 0.3929125 0.3079839
vt 0.3929125 0.3079839
vt 0.6364059 0.3862628
vt 0.3967263 0.466544
vt 0.3967263 0.466544
vt 0.6364059 0.3862628
vt 0.4474004 0.5322312
vt 0.4474004 0.5322312
vt 0.6364059 0.3862628
vt 0.6310787 0.4379892
vt 0.5945796 0.3123938
vt 0.6644299 0.5315607
vt 0.4263382 0.5250134
vt 0.5354211 0.4495192
vt 0.5600643 0.4146592
vt 0.5630259 0.4517171

usemtl Material0
usemap Material0

usemtl Material1
usemap Material1
f 1/1/1 2/2/2 3/3/3
f 4/4/4 5/5/5 6/6/6
f 7/7/7 8/8/8 9/9/9
f 10/10/10 11/11/11 12/12/12
f 13/13/13 14/14/14 15/15/15
f 16/16/16 17/17/17 18/18/18
f 19/19/19 20/20/20 21/21/21
f 22/22/22 23/23/23 24/24/24
f 25/25/25 26/26/26 27/27/27
f 28/28/28 29/29/29 30/30/30
f 31/31/31 32/32/32 33/33/33
f 34/34/34 35/35/35 36/36/36
f 37/37/37 38/38/38 39/39/39
f 40/40/40 41/41/41 42/42/42
f 43/43/43 44/44/44 45/45/45
f 46/46/46 47/47/47 48/48/48
f 49/49/49 50/50/50 51/51/51
f 52/52/52 53/53/53 54/54/54
f 55/55/55 56/56/56 57/57/57
f 58/58/58 59/59/59 60/60/60
f 61/61/61 62/62/62 63/63/63
f 64/64/64 65/65/65 66/66/66
f 67/67/67 68/68/68 69/69/69
f 70/70/70 71/71/71 72/72/72
f 73/73/73 74/74/74 75/75/75
f 76/76/76 77/77/77 78/78/78
f 79/79/79 80/80/80 81/81/81
f 82/82/82 83/83/83 84/84/84
f 85/85/85 86/86/86 87/87/87
f 88/88/88 89/89/89 90/90/90
f 91/91/91 92/92/92 93/93/93
f 94/94/94 95/95/95 96/96/96
