g  Instance
v -0.5673977 -55.87698 8.215067
v -0.4963174 -56.0284 8.100529
v -0.3430236 -55.92559 8.194036
v -3.132091 -54.66702 6.915837
v -3.28753 -55.0953 6.999423
v -2.565316 -54.73357 7.330709
v -2.565316 -54.73357 7.330709
v -3.28753 -55.0953 6.999423
v -2.153027 -55.15917 7.799213
v 0.1587813 -55.10311 6.74266
v -0.3430236 -55.92559 8.194036
v 0.1210538 -55.03741 6.390508
v 0.1210538 -55.03741 6.390508
v -0.3430236 -55.92559 8.194036
v 0.06051791 -55.07114 6.328752
v 0.06051791 -55.07114 6.328752
v -0.3430236 -55.92559 8.194036
v -1.461854 -56.06222 5.291871
v -1.461854 -56.06222 5.291871
v -0.3430236 -55.92559 8.194036
v -2.219122 -56.85374 5.855808
v -2.219122 -56.85374 5.855808
v -0.3430236 -55.92559 8.194036
v -0.4963174 -56.0284 8.100529
v -1.431935 -55.66249 5.314162
v -0.2314307 -54.99592 6.131242
v -1.461854 -56.06222 5.291871
v -1.461854 -56.06222 5.291871
v -0.2314307 -54.99592 6.131242
v 0.06051791 -55.07114 6.328752
v 0.06051791 -55.07114 6.328752
v -0.2314307 -54.99592 6.131242
v -0.1510116 -55.00883 6.185687
v -0.1181929 -54.79287 6.391342
v -0.241796 -54.77854 6.303106
v -2.565316 -54.73357 7.330709
v -2.565316 -54.73357 7.330709
v -0.241796 -54.77854 6.303106
v -3.132091 -54.66702 6.915837
v -3.132091 -54.66702 6.915837
v -0.241796 -54.77854 6.303106
v -2.055398 -54.64946 5.979953
v 0.06051791 -55.07114 6.328752
v -0.1510116 -55.00883 6.185687
v 0.1210538 -55.03741 6.390508
v 0.1210538 -55.03741 6.390508
v -0.1510116 -55.00883 6.185687
v 0.1159746 -55.01814 6.394246
v -0.241796 -54.77854 6.303106
v -0.2314307 -54.99592 6.131242
v -2.055398 -54.64946 5.979953
v -2.055398 -54.64946 5.979953
v -0.2314307 -54.99592 6.131242
v -1.431935 -55.66249 5.314162
v 0.1159746 -55.01814 6.394246
v 0.08810562 -54.90147 6.468393
v 0.1210538 -55.03741 6.390508
v 0.1210538 -55.03741 6.390508
v 0.08810562 -54.90147 6.468393
v 0.1587813 -55.10311 6.74266
v -0.241796 -54.77854 6.303106
v -0.1181929 -54.79287 6.391342
v -0.2314307 -54.99592 6.131242
v -0.2314307 -54.99592 6.131242
v -0.1181929 -54.79287 6.391342
v -0.1510116 -55.00883 6.185687
v -0.1510116 -55.00883 6.185687
v -0.1181929 -54.79287 6.391342
v 0.1159746 -55.01814 6.394246
v 0.1159746 -55.01814 6.394246
v -0.1181929 -54.79287 6.391342
v 0.08810562 -54.90147 6.468393
v -1.461854 -56.06222 5.291871
v -2.219122 -56.85374 5.855808
v -1.431935 -55.66249 5.314162
v -1.431935 -55.66249 5.314162
v -2.219122 -56.85374 5.855808
v -2.055398 -54.64946 5.979953
v -2.055398 -54.64946 5.979953
v -2.219122 -56.85374 5.855808
v -3.132091 -54.66702 6.915837
v -3.132091 -54.66702 6.915837
v -2.219122 -56.85374 5.855808
v -3.28753 -55.0953 6.999423
v -2.153027 -55.15917 7.799213
v -0.5673977 -55.87698 8.215067
v -2.565316 -54.73357 7.330709
v -2.565316 -54.73357 7.330709
v -0.5673977 -55.87698 8.215067
v -0.1181929 -54.79287 6.391342
v -0.1181929 -54.79287 6.391342
v -0.5673977 -55.87698 8.215067
v 0.08810562 -54.90147 6.468393
v 0.08810562 -54.90147 6.468393
v -0.5673977 -55.87698 8.215067
v 0.1587813 -55.10311 6.74266
v 0.1587813 -55.10311 6.74266
v -0.5673977 -55.87698 8.215067
v -0.3430236 -55.92559 8.194036
v -2.219122 -56.85374 5.855808
v -0.4963174 -56.0284 8.100529
v -3.28753 -55.0953 6.999423
v -3.28753 -55.0953 6.999423
v -0.4963174 -56.0284 8.100529
v -2.153027 -55.15917 7.799213
v -2.153027 -55.15917 7.799213
v -0.4963174 -56.0284 8.100529
v -0.5673977 -55.87698 8.215067

vn -0.06106296 -0.6202253 0.7820434
vn -0.06106296 -0.6202253 0.7820434
vn -0.06106296 -0.6202253 0.7820434
vn -0.5281873 0.3432711 0.7766486
vn -0.5281873 0.3432711 0.7766486
vn -0.5281873 0.3432711 0.7766486
vn -0.5281873 0.3432711 0.7766486
vn -0.5281873 0.3432711 0.7766486
vn -0.5281873 0.3432711 0.7766486
vn 0.6289411 -0.7493368 -0.2071898
vn 0.6289411 -0.7493368 -0.2071898
vn 0.6289411 -0.7493368 -0.2071898
vn 0.6289411 -0.7493368 -0.2071898
vn 0.6289411 -0.7493368 -0.2071898
vn 0.6289411 -0.7493368 -0.2071898
vn 0.6289411 -0.7493368 -0.2071898
vn 0.6289411 -0.7493368 -0.2071898
vn 0.6289411 -0.7493368 -0.2071898
vn 0.6289411 -0.7493368 -0.2071898
vn 0.6289411 -0.7493368 -0.2071898
vn 0.6289411 -0.7493368 -0.2071898
vn 0.6289411 -0.7493368 -0.2071898
vn 0.6289411 -0.7493368 -0.2071898
vn 0.6289411 -0.7493368 -0.2071898
vn 0.5610714 0.00416427 -0.8277571
vn 0.5610714 0.00416427 -0.8277571
vn 0.5610714 0.00416427 -0.8277571
vn 0.5610714 0.00416427 -0.8277571
vn 0.5610714 0.00416427 -0.8277571
vn 0.5610714 0.00416427 -0.8277571
vn 0.5610714 0.00416427 -0.8277571
vn 0.5610714 0.00416427 -0.8277571
vn 0.5610714 0.00416427 -0.8277571
vn 0.05601084 0.9949663 0.08309608
vn 0.05601084 0.9949663 0.08309608
vn 0.05601084 0.9949663 0.08309608
vn 0.05601084 0.9949663 0.08309608
vn 0.05601084 0.9949663 0.08309608
vn 0.05601084 0.9949663 0.08309608
vn 0.05601084 0.9949663 0.08309608
vn 0.05601084 0.9949663 0.08309608
vn 0.05601084 0.9949663 0.08309608
vn 0.5935094 0.3012295 -0.7463292
vn 0.5935094 0.3012295 -0.7463292
vn 0.5935094 0.3012295 -0.7463292
vn 0.5935094 0.3012295 -0.7463292
vn 0.5935094 0.3012295 -0.7463292
vn 0.5935094 0.3012295 -0.7463292
vn 0.1805144 0.6153873 -0.7672763
vn 0.1805144 0.6153873 -0.7672763
vn 0.1805144 0.6153873 -0.7672763
vn 0.1805144 0.6153873 -0.7672763
vn 0.1805144 0.6153873 -0.7672763
vn 0.1805144 0.6153873 -0.7672763
vn 0.9629634 0.2641945 -0.05387744
vn 0.9629634 0.2641945 -0.05387744
vn 0.9629634 0.2641945 -0.05387744
vn 0.9629634 0.2641945 -0.05387744
vn 0.9629634 0.2641945 -0.05387744
vn 0.9629634 0.2641945 -0.05387744
vn 0.5290698 0.5416579 -0.6532165
vn 0.5290698 0.5416579 -0.6532165
vn 0.5290698 0.5416579 -0.6532165
vn 0.5290698 0.5416579 -0.6532165
vn 0.5290698 0.5416579 -0.6532165
vn 0.5290698 0.5416579 -0.6532165
vn 0.5290698 0.5416579 -0.6532165
vn 0.5290698 0.5416579 -0.6532165
vn 0.5290698 0.5416579 -0.6532165
vn 0.5290698 0.5416579 -0.6532165
vn 0.5290698 0.5416579 -0.6532165
vn 0.5290698 0.5416579 -0.6532165
vn -0.6541665 0.09087925 -0.7508709
vn -0.6541665 0.09087925 -0.7508709
vn -0.6541665 0.09087925 -0.7508709
vn -0.6541665 0.09087925 -0.7508709
vn -0.6541665 0.09087925 -0.7508709
vn -0.6541665 0.09087925 -0.7508709
vn -0.6541665 0.09087925 -0.7508709
vn -0.6541665 0.09087925 -0.7508709
vn -0.6541665 0.09087925 -0.7508709
vn -0.6541665 0.09087925 -0.7508709
vn -0.6541665 0.09087925 -0.7508709
vn -0.6541665 0.09087925 -0.7508709
vn 0.2263235 0.8117927 0.5383034
vn 0.2263235 0.8117927 0.5383034
vn 0.2263235 0.8117927 0.5383034
vn 0.2263235 0.8117927 0.5383034
vn 0.2263235 0.8117927 0.5383034
vn 0.2263235 0.8117927 0.5383034
vn 0.2263235 0.8117927 0.5383034
vn 0.2263235 0.8117927 0.5383034
vn 0.2263235 0.8117927 0.5383034
vn 0.2263235 0.8117927 0.5383034
vn 0.2263235 0.8117927 0.5383034
vn 0.2263235 0.8117927 0.5383034
vn 0.2263235 0.8117927 0.5383034
vn 0.2263235 0.8117927 0.5383034
vn 0.2263235 0.8117927 0.5383034
vn -0.4558816 -0.6630943 0.5936986
vn -0.4558816 -0.6630943 0.5936986
vn -0.4558816 -0.6630943 0.5936986
vn -0.4558816 -0.6630943 0.5936986
vn -0.4558816 -0.6630943 0.5936986
vn -0.4558816 -0.6630943 0.5936986
vn -0.4558816 -0.6630943 0.5936986
vn -0.4558816 -0.6630943 0.5936986
vn -0.4558816 -0.6630943 0.5936986

vt 0.9111855 0.1405039
vt 0.9111688 0.1404553
vt 0.9111168 0.1404858
vt 0.4894828 0.5800647
vt 0.4276607 0.5615777
vt 0.5247293 0.4883187
vt 0.5247293 0.4883187
vt 0.4276607 0.5615777
vt 0.5063168 0.3847121
vt 0.3461967 0.4088849
vt 0.4281031 0.2758108
vt 0.3449999 0.4411744
vt 0.3449999 0.4411744
vt 0.4281031 0.2758108
vt 0.3511048 0.4468369
vt 0.3511048 0.4468369
vt 0.4281031 0.2758108
vt 0.5128548 0.5419078
vt 0.5128548 0.5419078
vt 0.4281031 0.2758108
vt 0.6105241 0.4902
vt 0.6105241 0.4902
vt 0.4281031 0.2758108
vt 0.4445691 0.2843885
vt 0.5336236 0.5066102
vt 0.4307667 0.2788563
vt 0.5960976 0.5128222
vt 0.5960976 0.5128222
vt 0.4307667 0.2788563
vt 0.4428694 0.2238003
vt 0.4428694 0.2238003
vt 0.4307667 0.2788563
vt 0.4328762 0.2636802
vt 0.6435959 0.4635358
vt 0.6326619 0.4713311
vt 0.428159 0.3805257
vt 0.428159 0.3805257
vt 0.6326619 0.4713311
vt 0.3780018 0.4171832
vt 0.3780018 0.4171832
vt 0.6326619 0.4713311
vt 0.4725744 0.4998859
vt 0.5657733 0.2843978
vt 0.5458241 0.3127384
vt 0.5654194 0.2721646
vt 0.5654194 0.2721646
vt 0.5458241 0.3127384
vt 0.5628489 0.2714242
vt 0.6772264 0.352404
vt 0.6869496 0.38908
vt 0.4341242 0.4213509
vt 0.4341242 0.4213509
vt 0.6869496 0.38908
vt 0.5549977 0.5634124
vt 0.5076672 0.4485413
vt 0.4971291 0.4420126
vt 0.5094181 0.4488672
vt 0.5094181 0.4488672
vt 0.4971291 0.4420126
vt 0.515863 0.417877
vt 0.5738574 0.3475843
vt 0.5852662 0.33408
vt 0.5923164 0.3738946
vt 0.5923164 0.3738946
vt 0.5852662 0.33408
vt 0.6000279 0.3655591
vt 0.6000279 0.3655591
vt 0.5852662 0.33408
vt 0.6229109 0.3336329
vt 0.6229109 0.3336329
vt 0.5852662 0.33408
vt 0.6111574 0.3222845
vt 0.4254301 0.5952082
vt 0.3074158 0.4817528
vt 0.4785815 0.5907192
vt 0.4785815 0.5907192
vt 0.3074158 0.4817528
vt 0.6005029 0.4567743
vt 0.6005029 0.4567743
vt 0.3074158 0.4817528
vt 0.5785047 0.2684952
vt 0.5785047 0.2684952
vt 0.3074158 0.4817528
vt 0.5192996 0.2516799
vt 0.4553074 0.3447205
vt 0.6344129 0.2933386
vt 0.4020536 0.4026031
vt 0.4020536 0.4026031
vt 0.6344129 0.2933386
vt 0.6491653 0.518671
vt 0.6491653 0.518671
vt 0.6344129 0.2933386
vt 0.6728957 0.5091434
vt 0.6728957 0.5091434
vt 0.6344129 0.2933386
vt 0.6856271 0.4752613
vt 0.6856271 0.4752613
vt 0.6344129 0.2933386
vt 0.6582831 0.295937
vt 0.4519779 0.5957112
vt 0.3481571 0.2914992
vt 0.6566346 0.4407227
vt 0.6566346 0.4407227
vt 0.3481571 0.2914992
vt 0.5507323 0.3323337
vt 0.5507323 0.3323337
vt 0.3481571 0.2914992
vt 0.3639013 0.2759738

usemtl Material0
usemap Material0
f 1/1/1 2/2/2 3/3/3

usemtl Material1
usemap Material1
f 4/4/4 5/5/5 6/6/6
f 7/7/7 8/8/8 9/9/9
f 10/10/10 11/11/11 12/12/12
f 13/13/13 14/14/14 15/15/15
f 16/16/16 17/17/17 18/18/18
f 19/19/19 20/20/20 21/21/21
f 22/22/22 23/23/23 24/24/24
f 25/25/25 26/26/26 27/27/27
f 28/28/28 29/29/29 30/30/30
f 31/31/31 32/32/32 33/33/33
f 34/34/34 35/35/35 36/36/36
f 37/37/37 38/38/38 39/39/39
f 40/40/40 41/41/41 42/42/42
f 43/43/43 44/44/44 45/45/45
f 46/46/46 47/47/47 48/48/48
f 49/49/49 50/50/50 51/51/51
f 52/52/52 53/53/53 54/54/54
f 55/55/55 56/56/56 57/57/57
f 58/58/58 59/59/59 60/60/60
f 61/61/61 62/62/62 63/63/63
f 64/64/64 65/65/65 66/66/66
f 67/67/67 68/68/68 69/69/69
f 70/70/70 71/71/71 72/72/72
f 73/73/73 74/74/74 75/75/75
f 76/76/76 77/77/77 78/78/78
f 79/79/79 80/80/80 81/81/81
f 82/82/82 83/83/83 84/84/84
f 85/85/85 86/86/86 87/87/87
f 88/88/88 89/89/89 90/90/90
f 91/91/91 92/92/92 93/93/93
f 94/94/94 95/95/95 96/96/96
f 97/97/97 98/98/98 99/99/99
f 100/100/100 101/101/101 102/102/102
f 103/103/103 104/104/104 105/105/105
f 106/106/106 107/107/107 108/108/108
