g  Instance
v -2.057242 -48.00904 0.7719581
v -2.630717 -49.17725 0.2036074
v -2.434343 -48.05774 0.7223492
v -2.028159 -50.90516 1.713144
v -1.994869 -50.88903 1.761165
v -2.071494 -50.9068 1.741561
v -2.071494 -50.9068 1.741561
v -1.994869 -50.88903 1.761165
v -1.997634 -50.88783 1.769122
v -2.071494 -50.9068 1.741561
v -2.446628 -50.92977 1.662697
v -2.028159 -50.90516 1.713144
v -2.028159 -50.90516 1.713144
v -2.446628 -50.92977 1.662697
v -2.126464 -50.91561 1.527691
v -4.47148 -49.49706 0.8573259
v -3.395381 -50.57933 1.635066
v -3.97842 -48.41248 1.22382
v -3.97842 -48.41248 1.22382
v -3.395381 -50.57933 1.635066
v -1.793491 -48.41823 2.817019
v -1.793491 -48.41823 2.817019
v -3.395381 -50.57933 1.635066
v -1.93536 -49.77687 2.704853
v -1.93536 -49.77687 2.704853
v -3.395381 -50.57933 1.635066
v -3.145139 -50.61087 1.81734
v -1.354058 -48.21876 2.227471
v -1.268862 -48.47912 2.170278
v -1.608333 -48.02111 1.148628
v -1.608333 -48.02111 1.148628
v -1.268862 -48.47912 2.170278
v -1.137664 -49.1686 1.459965
v -1.137664 -49.1686 1.459965
v -1.268862 -48.47912 2.170278
v -1.053513 -49.26717 1.745498
v -1.411363 -48.26312 2.387588
v -1.354058 -48.21876 2.227471
v -1.793491 -48.41823 2.817019
v -1.793491 -48.41823 2.817019
v -1.354058 -48.21876 2.227471
v -3.97842 -48.41248 1.22382
v -3.97842 -48.41248 1.22382
v -1.354058 -48.21876 2.227471
v -2.434343 -48.05774 0.7223492
v -2.434343 -48.05774 0.7223492
v -1.354058 -48.21876 2.227471
v -2.057242 -48.00904 0.7719581
v -2.057242 -48.00904 0.7719581
v -1.354058 -48.21876 2.227471
v -1.608333 -48.02111 1.148628
v -2.630717 -49.17725 0.2036074
v -2.717234 -49.41551 0.113299
v -2.434343 -48.05774 0.7223492
v -2.434343 -48.05774 0.7223492
v -2.717234 -49.41551 0.113299
v -3.97842 -48.41248 1.22382
v -3.97842 -48.41248 1.22382
v -2.717234 -49.41551 0.113299
v -4.47148 -49.49706 0.8573259
v -2.717234 -49.41551 0.113299
v -2.630717 -49.17725 0.2036074
v -2.095003 -50.06497 0.5887948
v -2.095003 -50.06497 0.5887948
v -2.630717 -49.17725 0.2036074
v -1.137664 -49.1686 1.459965
v -1.137664 -49.1686 1.459965
v -2.630717 -49.17725 0.2036074
v -1.608333 -48.02111 1.148628
v -1.608333 -48.02111 1.148628
v -2.630717 -49.17725 0.2036074
v -2.057242 -48.00904 0.7719581
v -2.095003 -50.06497 0.5887948
v -2.126464 -50.91561 1.527691
v -2.717234 -49.41551 0.113299
v -2.717234 -49.41551 0.113299
v -2.126464 -50.91561 1.527691
v -4.47148 -49.49706 0.8573259
v -4.47148 -49.49706 0.8573259
v -2.126464 -50.91561 1.527691
v -3.395381 -50.57933 1.635066
v -3.395381 -50.57933 1.635066
v -2.126464 -50.91561 1.527691
v -2.69639 -50.86061 1.680597
v -2.69639 -50.86061 1.680597
v -2.126464 -50.91561 1.527691
v -2.446628 -50.92977 1.662697
v -2.071494 -50.9068 1.741561
v -1.997634 -50.88783 1.769122
v -2.446628 -50.92977 1.662697
v -2.446628 -50.92977 1.662697
v -1.997634 -50.88783 1.769122
v -2.69639 -50.86061 1.680597
v -2.69639 -50.86061 1.680597
v -1.997634 -50.88783 1.769122
v -3.145139 -50.61087 1.81734
v -3.145139 -50.61087 1.81734
v -1.997634 -50.88783 1.769122
v -1.93536 -49.77687 2.704853
v -1.93536 -49.77687 2.704853
v -1.997634 -50.88783 1.769122
v -1.765534 -50.14871 2.42199
v -1.354058 -48.21876 2.227471
v -1.411363 -48.26312 2.387588
v -1.268862 -48.47912 2.170278
v -1.053513 -49.26717 1.745498
v -1.283362 -49.80109 1.911826
v -1.137664 -49.1686 1.459965
v -1.137664 -49.1686 1.459965
v -1.283362 -49.80109 1.911826
v -2.095003 -50.06497 0.5887948
v -2.095003 -50.06497 0.5887948
v -1.283362 -49.80109 1.911826
v -2.126464 -50.91561 1.527691
v -2.126464 -50.91561 1.527691
v -1.283362 -49.80109 1.911826
v -2.028159 -50.90516 1.713144
v -2.028159 -50.90516 1.713144
v -1.283362 -49.80109 1.911826
v -1.994869 -50.88903 1.761165
v -3.395381 -50.57933 1.635066
v -2.69639 -50.86061 1.680597
v -3.145139 -50.61087 1.81734
v -1.93536 -49.77687 2.704853
v -1.765534 -50.14871 2.42199
v -1.793491 -48.41823 2.817019
v -1.793491 -48.41823 2.817019
v -1.765534 -50.14871 2.42199
v -1.411363 -48.26312 2.387588
v -1.411363 -48.26312 2.387588
v -1.765534 -50.14871 2.42199
v -1.268862 -48.47912 2.170278
v -1.268862 -48.47912 2.170278
v -1.765534 -50.14871 2.42199
v -1.053513 -49.26717 1.745498
v -1.053513 -49.26717 1.745498
v -1.765534 -50.14871 2.42199
v -1.283362 -49.80109 1.911826
v -1.994869 -50.88903 1.761165
v -1.283362 -49.80109 1.911826
v -1.997634 -50.88783 1.769122
v -1.997634 -50.88783 1.769122
v -1.283362 -49.80109 1.911826
v -1.765534 -50.14871 2.42199

vn 0.06675716 0.4098225 -0.9097192
vn 0.06675716 0.4098225 -0.9097192
vn 0.06675716 0.4098225 -0.9097192
vn 0.1710422 -0.963684 0.2050798
vn 0.1710422 -0.963684 0.2050798
vn 0.1710422 -0.963684 0.2050798
vn 0.1710422 -0.963684 0.2050798
vn 0.1710422 -0.963684 0.2050798
vn 0.1710422 -0.963684 0.2050798
vn 0.05547041 -0.9980993 0.02684892
vn 0.05547041 -0.9980993 0.02684892
vn 0.05547041 -0.9980993 0.02684892
vn 0.05547041 -0.9980993 0.02684892
vn 0.05547041 -0.9980993 0.02684892
vn 0.05547041 -0.9980993 0.02684892
vn -0.5891786 -0.005183192 0.8079863
vn -0.5891786 -0.005183192 0.8079863
vn -0.5891786 -0.005183192 0.8079863
vn -0.5891786 -0.005183192 0.8079863
vn -0.5891786 -0.005183192 0.8079863
vn -0.5891786 -0.005183192 0.8079863
vn -0.5891786 -0.005183192 0.8079863
vn -0.5891786 -0.005183192 0.8079863
vn -0.5891786 -0.005183192 0.8079863
vn -0.5891786 -0.005183192 0.8079863
vn -0.5891786 -0.005183192 0.8079863
vn -0.5891786 -0.005183192 0.8079863
vn 0.9279644 0.33809 -0.1567716
vn 0.9279644 0.33809 -0.1567716
vn 0.9279644 0.33809 -0.1567716
vn 0.9279644 0.33809 -0.1567716
vn 0.9279644 0.33809 -0.1567716
vn 0.9279644 0.33809 -0.1567716
vn 0.9279644 0.33809 -0.1567716
vn 0.9279644 0.33809 -0.1567716
vn 0.9279644 0.33809 -0.1567716
vn -0.1526162 0.965107 0.2127838
vn -0.1526162 0.965107 0.2127838
vn -0.1526162 0.965107 0.2127838
vn -0.1526162 0.965107 0.2127838
vn -0.1526162 0.965107 0.2127838
vn -0.1526162 0.965107 0.2127838
vn -0.1526162 0.965107 0.2127838
vn -0.1526162 0.965107 0.2127838
vn -0.1526162 0.965107 0.2127838
vn -0.1526162 0.965107 0.2127838
vn -0.1526162 0.965107 0.2127838
vn -0.1526162 0.965107 0.2127838
vn -0.1526162 0.965107 0.2127838
vn -0.1526162 0.965107 0.2127838
vn -0.1526162 0.965107 0.2127838
vn -0.3673858 0.4433027 -0.8176249
vn -0.3673858 0.4433027 -0.8176249
vn -0.3673858 0.4433027 -0.8176249
vn -0.3673858 0.4433027 -0.8176249
vn -0.3673858 0.4433027 -0.8176249
vn -0.3673858 0.4433027 -0.8176249
vn -0.3673858 0.4433027 -0.8176249
vn -0.3673858 0.4433027 -0.8176249
vn -0.3673858 0.4433027 -0.8176249
vn 0.6426336 0.05626922 -0.7641046
vn 0.6426336 0.05626922 -0.7641046
vn 0.6426336 0.05626922 -0.7641046
vn 0.6426336 0.05626922 -0.7641046
vn 0.6426336 0.05626922 -0.7641046
vn 0.6426336 0.05626922 -0.7641046
vn 0.6426336 0.05626922 -0.7641046
vn 0.6426336 0.05626922 -0.7641046
vn 0.6426336 0.05626922 -0.7641046
vn 0.6426336 0.05626922 -0.7641046
vn 0.6426336 0.05626922 -0.7641046
vn 0.6426336 0.05626922 -0.7641046
vn -0.2447883 -0.7144309 -0.65549
vn -0.2447883 -0.7144309 -0.65549
vn -0.2447883 -0.7144309 -0.65549
vn -0.2447883 -0.7144309 -0.65549
vn -0.2447883 -0.7144309 -0.65549
vn -0.2447883 -0.7144309 -0.65549
vn -0.2447883 -0.7144309 -0.65549
vn -0.2447883 -0.7144309 -0.65549
vn -0.2447883 -0.7144309 -0.65549
vn -0.2447883 -0.7144309 -0.65549
vn -0.2447883 -0.7144309 -0.65549
vn -0.2447883 -0.7144309 -0.65549
vn -0.2447883 -0.7144309 -0.65549
vn -0.2447883 -0.7144309 -0.65549
vn -0.2447883 -0.7144309 -0.65549
vn -0.1213025 -0.6354783 0.7625308
vn -0.1213025 -0.6354783 0.7625308
vn -0.1213025 -0.6354783 0.7625308
vn -0.1213025 -0.6354783 0.7625308
vn -0.1213025 -0.6354783 0.7625308
vn -0.1213025 -0.6354783 0.7625308
vn -0.1213025 -0.6354783 0.7625308
vn -0.1213025 -0.6354783 0.7625308
vn -0.1213025 -0.6354783 0.7625308
vn -0.1213025 -0.6354783 0.7625308
vn -0.1213025 -0.6354783 0.7625308
vn -0.1213025 -0.6354783 0.7625308
vn -0.1213025 -0.6354783 0.7625308
vn -0.1213025 -0.6354783 0.7625308
vn -0.1213025 -0.6354783 0.7625308
vn 0.9003175 0.2109868 0.3806745
vn 0.9003175 0.2109868 0.3806745
vn 0.9003175 0.2109868 0.3806745
vn 0.7932446 -0.4642273 -0.3940255
vn 0.7932446 -0.4642273 -0.3940255
vn 0.7932446 -0.4642273 -0.3940255
vn 0.7932446 -0.4642273 -0.3940255
vn 0.7932446 -0.4642273 -0.3940255
vn 0.7932446 -0.4642273 -0.3940255
vn 0.7932446 -0.4642273 -0.3940255
vn 0.7932446 -0.4642273 -0.3940255
vn 0.7932446 -0.4642273 -0.3940255
vn 0.7932446 -0.4642273 -0.3940255
vn 0.7932446 -0.4642273 -0.3940255
vn 0.7932446 -0.4642273 -0.3940255
vn 0.7932446 -0.4642273 -0.3940255
vn 0.7932446 -0.4642273 -0.3940255
vn 0.7932446 -0.4642273 -0.3940255
vn -0.368592 -0.8580664 0.357578
vn -0.368592 -0.8580664 0.357578
vn -0.368592 -0.8580664 0.357578
vn 0.7637151 -0.1319207 0.6319307
vn 0.7637151 -0.1319207 0.6319307
vn 0.7637151 -0.1319207 0.6319307
vn 0.7637151 -0.1319207 0.6319307
vn 0.7637151 -0.1319207 0.6319307
vn 0.7637151 -0.1319207 0.6319307
vn 0.7637151 -0.1319207 0.6319307
vn 0.7637151 -0.1319207 0.6319307
vn 0.7637151 -0.1319207 0.6319307
vn 0.7637151 -0.1319207 0.6319307
vn 0.7637151 -0.1319207 0.6319307
vn 0.7637151 -0.1319207 0.6319307
vn 0.7637151 -0.1319207 0.6319307
vn 0.7637151 -0.1319207 0.6319307
vn 0.7637151 -0.1319207 0.6319307
vn 0.7618905 -0.5464334 0.3477548
vn 0.7618905 -0.5464334 0.3477548
vn 0.7618905 -0.5464334 0.3477548
vn 0.7618905 -0.5464334 0.3477548
vn 0.7618905 -0.5464334 0.3477548
vn 0.7618905 -0.5464334 0.3477548

vt 0.4560059 0.3820205
vt 0.5702065 0.4325688
vt 0.4617011 0.4152599
vt 0.4597965 0.4697199
vt 0.4566067 0.4653147
vt 0.4636476 0.4671121
vt 0.4636476 0.4671121
vt 0.4566067 0.4653147
vt 0.4568302 0.4645882
vt 0.4426273 0.4333884
vt 0.4756199 0.4403129
vt 0.4388228 0.4358844
vt 0.4388228 0.4358844
vt 0.4756199 0.4403129
vt 0.4474889 0.4521642
vt 0.415558 0.7035227
vt 0.2529651 0.5069268
vt 0.5764371 0.6108826
vt 0.5764371 0.6108826
vt 0.2529651 0.5069268
vt 0.5727211 0.2081632
vt 0.5727211 0.2081632
vt 0.2529651 0.5069268
vt 0.3705604 0.2365131
vt 0.3705604 0.2365131
vt 0.2529651 0.5069268
vt 0.2479406 0.4608535
vt 0.4869217 0.3632261
vt 0.5112529 0.3683718
vt 0.4626836 0.4602854
vt 0.4626836 0.4602854
vt 0.5112529 0.3683718
vt 0.5727956 0.4322755
vt 0.5727956 0.4322755
vt 0.5112529 0.3683718
vt 0.5835898 0.4065892
vt 0.6355864 0.3799669
vt 0.6412954 0.394682
vt 0.5995157 0.3404922
vt 0.5995157 0.3404922
vt 0.6412954 0.394682
vt 0.4057836 0.486931
vt 0.4057836 0.486931
vt 0.6412954 0.394682
vt 0.5477333 0.5330229
vt 0.5477333 0.5330229
vt 0.6412954 0.394682
vt 0.5818669 0.5284593
vt 0.5818669 0.5284593
vt 0.6412954 0.394682
vt 0.6215138 0.4938415
vt 0.498745 0.6050525
vt 0.4654171 0.6289599
vt 0.6306689 0.4677268
vt 0.6306689 0.4677268
vt 0.4654171 0.6289599
vt 0.4149619 0.334974
vt 0.4149619 0.334974
vt 0.4654171 0.6289599
vt 0.2516193 0.4319961
vt 0.5691634 0.5636359
vt 0.5378984 0.5445901
vt 0.664551 0.4633681
vt 0.664551 0.4633681
vt 0.5378984 0.5445901
vt 0.5544389 0.2796666
vt 0.5544389 0.2796666
vt 0.5378984 0.5445901
vt 0.3933549 0.3453165
vt 0.3933549 0.3453165
vt 0.5378984 0.5445901
vt 0.3863978 0.4247456
vt 0.3751752 0.4652494
vt 0.3465971 0.3207944
vt 0.4680341 0.5384153
vt 0.4680341 0.5384153
vt 0.3465971 0.3207944
vt 0.6577988 0.42394
vt 0.6577988 0.42394
vt 0.3465971 0.3207944
vt 0.4987496 0.3042772
vt 0.4987496 0.3042772
vt 0.3465971 0.3207944
vt 0.4113157 0.2972688
vt 0.4113157 0.2972688
vt 0.3465971 0.3207944
vt 0.3812568 0.3000209
vt 0.3474027 0.6160516
vt 0.3380428 0.6102773
vt 0.3968008 0.6325828
vt 0.3968008 0.6325828
vt 0.3380428 0.6102773
vt 0.4318377 0.6288295
vt 0.4318377 0.6288295
vt 0.3380428 0.6102773
vt 0.4979767 0.6001536
vt 0.4979767 0.6001536
vt 0.3380428 0.6102773
vt 0.358006 0.4140865
vt 0.358006 0.4140865
vt 0.3380428 0.6102773
vt 0.3259168 0.4733894
vt 0.4677128 0.4438567
vt 0.4705721 0.4274232
vt 0.4936133 0.4497241
vt 0.4429765 0.3636732
vt 0.4980558 0.3463922
vt 0.4389113 0.3933363
vt 0.4389113 0.3933363
vt 0.4980558 0.3463922
vt 0.5589466 0.4838296
vt 0.5589466 0.4838296
vt 0.4980558 0.3463922
vt 0.6305665 0.3863
vt 0.6305665 0.3863
vt 0.4980558 0.3463922
vt 0.6249505 0.3670353
vt 0.6249505 0.3670353
vt 0.4980558 0.3463922
vt 0.6220168 0.362048
vt 0.4865259 0.49671
vt 0.4157442 0.4921279
vt 0.46375 0.478372
vt 0.5787189 0.4181098
vt 0.6169317 0.4594379
vt 0.4243964 0.401723
vt 0.4243964 0.401723
vt 0.6169317 0.4594379
vt 0.3997252 0.4644671
vt 0.3997252 0.4644671
vt 0.6169317 0.4594379
vt 0.4210808 0.4962164
vt 0.4210808 0.4962164
vt 0.6169317 0.4594379
vt 0.5048546 0.5582714
vt 0.5048546 0.5582714
vt 0.6169317 0.4594379
vt 0.5688561 0.5339728
vt 0.6041631 0.4865771
vt 0.4826049 0.4715453
vt 0.6042283 0.4857855
vt 0.6042283 0.4857855
vt 0.4826049 0.4715453
vt 0.5353466 0.4206105

usemtl Material0
usemap Material0

usemtl Material1
usemap Material1
f 1/1/1 2/2/2 3/3/3
f 4/4/4 5/5/5 6/6/6
f 7/7/7 8/8/8 9/9/9
f 10/10/10 11/11/11 12/12/12
f 13/13/13 14/14/14 15/15/15
f 16/16/16 17/17/17 18/18/18
f 19/19/19 20/20/20 21/21/21
f 22/22/22 23/23/23 24/24/24
f 25/25/25 26/26/26 27/27/27
f 28/28/28 29/29/29 30/30/30
f 31/31/31 32/32/32 33/33/33
f 34/34/34 35/35/35 36/36/36
f 37/37/37 38/38/38 39/39/39
f 40/40/40 41/41/41 42/42/42
f 43/43/43 44/44/44 45/45/45
f 46/46/46 47/47/47 48/48/48
f 49/49/49 50/50/50 51/51/51
f 52/52/52 53/53/53 54/54/54
f 55/55/55 56/56/56 57/57/57
f 58/58/58 59/59/59 60/60/60
f 61/61/61 62/62/62 63/63/63
f 64/64/64 65/65/65 66/66/66
f 67/67/67 68/68/68 69/69/69
f 70/70/70 71/71/71 72/72/72
f 73/73/73 74/74/74 75/75/75
f 76/76/76 77/77/77 78/78/78
f 79/79/79 80/80/80 81/81/81
f 82/82/82 83/83/83 84/84/84
f 85/85/85 86/86/86 87/87/87
f 88/88/88 89/89/89 90/90/90
f 91/91/91 92/92/92 93/93/93
f 94/94/94 95/95/95 96/96/96
f 97/97/97 98/98/98 99/99/99
f 100/100/100 101/101/101 102/102/102
f 103/103/103 104/104/104 105/105/105
f 106/106/106 107/107/107 108/108/108
f 109/109/109 110/110/110 111/111/111
f 112/112/112 113/113/113 114/114/114
f 115/115/115 116/116/116 117/117/117
f 118/118/118 119/119/119 120/120/120
f 121/121/121 122/122/122 123/123/123
f 124/124/124 125/125/125 126/126/126
f 127/127/127 128/128/128 129/129/129
f 130/130/130 131/131/131 132/132/132
f 133/133/133 134/134/134 135/135/135
f 136/136/136 137/137/137 138/138/138
f 139/139/139 140/140/140 141/141/141
f 142/142/142 143/143/143 144/144/144
