g  Instance
v 1.660323 -44.94532 5.200852
v 1.705633 -44.95264 5.208509
v 0.204956 -43.55945 4.810841
v 0.204956 -43.55945 4.810841
v 1.705633 -44.95264 5.208509
v 1.279842 -41.41601 4.702534
v 1.279842 -41.41601 4.702534
v 1.705633 -44.95264 5.208509
v 1.50296 -41.3986 4.733556
v 1.50296 -41.3986 4.733556
v 1.705633 -44.95264 5.208509
v 2.744477 -42.60408 5.069169
v -0.111068 -43.68919 2.889679
v 0.1204364 -44.16508 3.093267
v -0.316133 -43.53402 3.250999
v -0.316133 -43.53402 3.250999
v 0.1204364 -44.16508 3.093267
v -0.2994263 -43.73431 3.603133
v -0.2994263 -43.73431 3.603133
v 0.1204364 -44.16508 3.093267
v -0.2539414 -43.8923 3.774264
v -0.2539414 -43.8923 3.774264
v 0.1204364 -44.16508 3.093267
v 0.04178961 -44.32381 3.675625
v 0.204956 -43.55945 4.810841
v 1.279842 -41.41601 4.702534
v -0.2016581 -43.78847 3.97059
v -0.2016581 -43.78847 3.97059
v 1.279842 -41.41601 4.702534
v -0.2994263 -43.73431 3.603133
v -0.2994263 -43.73431 3.603133
v 1.279842 -41.41601 4.702534
v -0.316133 -43.53402 3.250999
v -0.316133 -43.53402 3.250999
v 1.279842 -41.41601 4.702534
v 0.1992272 -42.2247 2.772511
v 0.1992272 -42.2247 2.772511
v 1.279842 -41.41601 4.702534
v 1.103221 -41.0951 3.700832
v 2.988522 -42.51137 2.927524
v 3.060572 -42.28275 3.002154
v 3.066721 -42.28826 3.12985
v 1.50296 -41.3986 4.733556
v 2.744477 -42.60408 5.069169
v 1.763727 -41.25117 4.398724
v 1.763727 -41.25117 4.398724
v 2.744477 -42.60408 5.069169
v 2.966987 -42.21476 4.516839
v 2.287098 -41.66077 2.371061
v 3.060572 -42.28275 3.002154
v 2.212274 -41.92636 2.292001
v 2.212274 -41.92636 2.292001
v 3.060572 -42.28275 3.002154
v 2.841112 -42.88099 2.780261
v 2.841112 -42.88099 2.780261
v 3.060572 -42.28275 3.002154
v 2.988522 -42.51137 2.927524
v 0.5628031 -42.38256 2.161585
v 0.1992272 -42.2247 2.772511
v 1.688627 -41.72347 2.115479
v 1.688627 -41.72347 2.115479
v 0.1992272 -42.2247 2.772511
v 1.993865 -41.42572 2.294405
v 1.993865 -41.42572 2.294405
v 0.1992272 -42.2247 2.772511
v 1.446054 -40.99294 3.528349
v 1.446054 -40.99294 3.528349
v 0.1992272 -42.2247 2.772511
v 1.103221 -41.0951 3.700832
v -0.2539414 -43.8923 3.774264
v -0.2016581 -43.78847 3.97059
v -0.2994263 -43.73431 3.603133
v 0.04178961 -44.32381 3.675625
v 0.1204364 -44.16508 3.093267
v 1.660323 -44.94532 5.200852
v 1.660323 -44.94532 5.200852
v 0.1204364 -44.16508 3.093267
v 1.705633 -44.95264 5.208509
v 1.705633 -44.95264 5.208509
v 0.1204364 -44.16508 3.093267
v 2.117778 -44.43525 3.249308
v 2.117778 -44.43525 3.249308
v 0.1204364 -44.16508 3.093267
v 0.7443579 -44.17782 2.893055
v 1.688627 -41.72347 2.115479
v 2.212274 -41.92636 2.292001
v 0.5628031 -42.38256 2.161585
v 0.5628031 -42.38256 2.161585
v 2.212274 -41.92636 2.292001
v 0.3135338 -43.06548 2.380452
v 0.3135338 -43.06548 2.380452
v 2.212274 -41.92636 2.292001
v 0.7443579 -44.17782 2.893055
v 0.7443579 -44.17782 2.893055
v 2.212274 -41.92636 2.292001
v 2.117778 -44.43525 3.249308
v 2.117778 -44.43525 3.249308
v 2.212274 -41.92636 2.292001
v 2.841112 -42.88099 2.780261
v 1.705633 -44.95264 5.208509
v 2.117778 -44.43525 3.249308
v 2.744477 -42.60408 5.069169
v 2.744477 -42.60408 5.069169
v 2.117778 -44.43525 3.249308
v 2.966987 -42.21476 4.516839
v 2.966987 -42.21476 4.516839
v 2.117778 -44.43525 3.249308
v 3.066721 -42.28826 3.12985
v 3.066721 -42.28826 3.12985
v 2.117778 -44.43525 3.249308
v 2.988522 -42.51137 2.927524
v 2.988522 -42.51137 2.927524
v 2.117778 -44.43525 3.249308
v 2.841112 -42.88099 2.780261
v 2.212274 -41.92636 2.292001
v 1.688627 -41.72347 2.115479
v 2.287098 -41.66077 2.371061
v 2.287098 -41.66077 2.371061
v 1.688627 -41.72347 2.115479
v 1.993865 -41.42572 2.294405
v -0.2016581 -43.78847 3.97059
v -0.2539414 -43.8923 3.774264
v 0.204956 -43.55945 4.810841
v 0.204956 -43.55945 4.810841
v -0.2539414 -43.8923 3.774264
v 1.660323 -44.94532 5.200852
v 1.660323 -44.94532 5.200852
v -0.2539414 -43.8923 3.774264
v 0.04178961 -44.32381 3.675625
v 1.763727 -41.25117 4.398724
v 2.966987 -42.21476 4.516839
v 1.446054 -40.99294 3.528349
v 1.446054 -40.99294 3.528349
v 2.966987 -42.21476 4.516839
v 1.993865 -41.42572 2.294405
v 1.993865 -41.42572 2.294405
v 2.966987 -42.21476 4.516839
v 2.287098 -41.66077 2.371061
v 2.287098 -41.66077 2.371061
v 2.966987 -42.21476 4.516839
v 3.060572 -42.28275 3.002154
v 3.060572 -42.28275 3.002154
v 2.966987 -42.21476 4.516839
v 3.066721 -42.28826 3.12985
v 0.5628031 -42.38256 2.161585
v 0.3135338 -43.06548 2.380452
v 0.1992272 -42.2247 2.772511
v 0.1992272 -42.2247 2.772511
v 0.3135338 -43.06548 2.380452
v -0.316133 -43.53402 3.250999
v -0.316133 -43.53402 3.250999
v 0.3135338 -43.06548 2.380452
v -0.111068 -43.68919 2.889679
v 1.279842 -41.41601 4.702534
v 1.50296 -41.3986 4.733556
v 1.103221 -41.0951 3.700832
v 1.103221 -41.0951 3.700832
v 1.50296 -41.3986 4.733556
v 1.446054 -40.99294 3.528349
v 1.446054 -40.99294 3.528349
v 1.50296 -41.3986 4.733556
v 1.763727 -41.25117 4.398724
v 0.1204364 -44.16508 3.093267
v -0.111068 -43.68919 2.889679
v 0.7443579 -44.17782 2.893055
v 0.7443579 -44.17782 2.893055
v -0.111068 -43.68919 2.889679
v 0.3135338 -43.06548 2.380452

vn -0.1460699 0.122851 0.9816167
vn -0.1460699 0.122851 0.9816167
vn -0.1460699 0.122851 0.9816167
vn -0.1460699 0.122851 0.9816167
vn -0.1460699 0.122851 0.9816167
vn -0.1460699 0.122851 0.9816167
vn -0.1460699 0.122851 0.9816167
vn -0.1460699 0.122851 0.9816167
vn -0.1460699 0.122851 0.9816167
vn -0.1460699 0.122851 0.9816167
vn -0.1460699 0.122851 0.9816167
vn -0.1460699 0.122851 0.9816167
vn -0.8244075 -0.5079023 -0.2497751
vn -0.8244075 -0.5079023 -0.2497751
vn -0.8244075 -0.5079023 -0.2497751
vn -0.8244075 -0.5079023 -0.2497751
vn -0.8244075 -0.5079023 -0.2497751
vn -0.8244075 -0.5079023 -0.2497751
vn -0.8244075 -0.5079023 -0.2497751
vn -0.8244075 -0.5079023 -0.2497751
vn -0.8244075 -0.5079023 -0.2497751
vn -0.8244075 -0.5079023 -0.2497751
vn -0.8244075 -0.5079023 -0.2497751
vn -0.8244075 -0.5079023 -0.2497751
vn -0.8492715 0.4405885 0.2908946
vn -0.8492715 0.4405885 0.2908946
vn -0.8492715 0.4405885 0.2908946
vn -0.8492715 0.4405885 0.2908946
vn -0.8492715 0.4405885 0.2908946
vn -0.8492715 0.4405885 0.2908946
vn -0.8492715 0.4405885 0.2908946
vn -0.8492715 0.4405885 0.2908946
vn -0.8492715 0.4405885 0.2908946
vn -0.8492715 0.4405885 0.2908946
vn -0.8492715 0.4405885 0.2908946
vn -0.8492715 0.4405885 0.2908946
vn -0.8492715 0.4405885 0.2908946
vn -0.8492715 0.4405885 0.2908946
vn -0.8492715 0.4405885 0.2908946
vn 0.9574311 -0.2827166 -0.0582856
vn 0.9574311 -0.2827166 -0.0582856
vn 0.9574311 -0.2827166 -0.0582856
vn 0.4476153 0.6359906 0.6286148
vn 0.4476153 0.6359906 0.6286148
vn 0.4476153 0.6359906 0.6286148
vn 0.4476153 0.6359906 0.6286148
vn 0.4476153 0.6359906 0.6286148
vn 0.4476153 0.6359906 0.6286148
vn 0.6516295 0.04187346 -0.7573807
vn 0.6516295 0.04187346 -0.7573807
vn 0.6516295 0.04187346 -0.7573807
vn 0.6516295 0.04187346 -0.7573807
vn 0.6516295 0.04187346 -0.7573807
vn 0.6516295 0.04187346 -0.7573807
vn 0.6516295 0.04187346 -0.7573807
vn 0.6516295 0.04187346 -0.7573807
vn 0.6516295 0.04187346 -0.7573807
vn -0.460486 0.7537807 -0.4687935
vn -0.460486 0.7537807 -0.4687935
vn -0.460486 0.7537807 -0.4687935
vn -0.460486 0.7537807 -0.4687935
vn -0.460486 0.7537807 -0.4687935
vn -0.460486 0.7537807 -0.4687935
vn -0.460486 0.7537807 -0.4687935
vn -0.460486 0.7537807 -0.4687935
vn -0.460486 0.7537807 -0.4687935
vn -0.460486 0.7537807 -0.4687935
vn -0.460486 0.7537807 -0.4687935
vn -0.460486 0.7537807 -0.4687935
vn -0.9663652 0.0003488032 0.257174
vn -0.9663652 0.0003488032 0.257174
vn -0.9663652 0.0003488032 0.257174
vn -0.1077481 -0.955397 -0.2749676
vn -0.1077481 -0.955397 -0.2749676
vn -0.1077481 -0.955397 -0.2749676
vn -0.1077481 -0.955397 -0.2749676
vn -0.1077481 -0.955397 -0.2749676
vn -0.1077481 -0.955397 -0.2749676
vn -0.1077481 -0.955397 -0.2749676
vn -0.1077481 -0.955397 -0.2749676
vn -0.1077481 -0.955397 -0.2749676
vn -0.1077481 -0.955397 -0.2749676
vn -0.1077481 -0.955397 -0.2749676
vn -0.1077481 -0.955397 -0.2749676
vn 0.1713164 -0.3568511 -0.9183181
vn 0.1713164 -0.3568511 -0.9183181
vn 0.1713164 -0.3568511 -0.9183181
vn 0.1713164 -0.3568511 -0.9183181
vn 0.1713164 -0.3568511 -0.9183181
vn 0.1713164 -0.3568511 -0.9183181
vn 0.1713164 -0.3568511 -0.9183181
vn 0.1713164 -0.3568511 -0.9183181
vn 0.1713164 -0.3568511 -0.9183181
vn 0.1713164 -0.3568511 -0.9183181
vn 0.1713164 -0.3568511 -0.9183181
vn 0.1713164 -0.3568511 -0.9183181
vn 0.1713164 -0.3568511 -0.9183181
vn 0.1713164 -0.3568511 -0.9183181
vn 0.1713164 -0.3568511 -0.9183181
vn 0.9129704 -0.3986929 0.08677074
vn 0.9129704 -0.3986929 0.08677074
vn 0.9129704 -0.3986929 0.08677074
vn 0.9129704 -0.3986929 0.08677074
vn 0.9129704 -0.3986929 0.08677074
vn 0.9129704 -0.3986929 0.08677074
vn 0.9129704 -0.3986929 0.08677074
vn 0.9129704 -0.3986929 0.08677074
vn 0.9129704 -0.3986929 0.08677074
vn 0.9129704 -0.3986929 0.08677074
vn 0.9129704 -0.3986929 0.08677074
vn 0.9129704 -0.3986929 0.08677074
vn 0.9129704 -0.3986929 0.08677074
vn 0.9129704 -0.3986929 0.08677074
vn 0.9129704 -0.3986929 0.08677074
vn 0.372402 0.1668547 -0.9129493
vn 0.372402 0.1668547 -0.9129493
vn 0.372402 0.1668547 -0.9129493
vn 0.372402 0.1668547 -0.9129493
vn 0.372402 0.1668547 -0.9129493
vn 0.372402 0.1668547 -0.9129493
vn -0.6693137 -0.5681703 0.4787502
vn -0.6693137 -0.5681703 0.4787502
vn -0.6693137 -0.5681703 0.4787502
vn -0.6693137 -0.5681703 0.4787502
vn -0.6693137 -0.5681703 0.4787502
vn -0.6693137 -0.5681703 0.4787502
vn -0.6693137 -0.5681703 0.4787502
vn -0.6693137 -0.5681703 0.4787502
vn -0.6693137 -0.5681703 0.4787502
vn 0.6248767 0.7807153 0.003582017
vn 0.6248767 0.7807153 0.003582017
vn 0.6248767 0.7807153 0.003582017
vn 0.6248767 0.7807153 0.003582017
vn 0.6248767 0.7807153 0.003582017
vn 0.6248767 0.7807153 0.003582017
vn 0.6248767 0.7807153 0.003582017
vn 0.6248767 0.7807153 0.003582017
vn 0.6248767 0.7807153 0.003582017
vn 0.6248767 0.7807153 0.003582017
vn 0.6248767 0.7807153 0.003582017
vn 0.6248767 0.7807153 0.003582017
vn 0.6248767 0.7807153 0.003582017
vn 0.6248767 0.7807153 0.003582017
vn 0.6248767 0.7807153 0.003582017
vn -0.8358634 0.1345302 -0.5321975
vn -0.8358634 0.1345302 -0.5321975
vn -0.8358634 0.1345302 -0.5321975
vn -0.8358634 0.1345302 -0.5321975
vn -0.8358634 0.1345302 -0.5321975
vn -0.8358634 0.1345302 -0.5321975
vn -0.8358634 0.1345302 -0.5321975
vn -0.8358634 0.1345302 -0.5321975
vn -0.8358634 0.1345302 -0.5321975
vn -0.1180531 0.9394224 0.3217905
vn -0.1180531 0.9394224 0.3217905
vn -0.1180531 0.9394224 0.3217905
vn -0.1180531 0.9394224 0.3217905
vn -0.1180531 0.9394224 0.3217905
vn -0.1180531 0.9394224 0.3217905
vn -0.1180531 0.9394224 0.3217905
vn -0.1180531 0.9394224 0.3217905
vn -0.1180531 0.9394224 0.3217905
vn -0.2756701 -0.4883156 -0.8279818
vn -0.2756701 -0.4883156 -0.8279818
vn -0.2756701 -0.4883156 -0.8279818
vn -0.2756701 -0.4883156 -0.8279818
vn -0.2756701 -0.4883156 -0.8279818
vn -0.2756701 -0.4883156 -0.8279818

vt 0.3193602 0.4493795
vt 0.3186337 0.4453188
vt 0.4456355 0.5798877
vt 0.4456355 0.5798877
vt 0.3186337 0.4453188
vt 0.6354839 0.4835037
vt 0.6354839 0.4835037
vt 0.3186337 0.4453188
vt 0.636676 0.4634986
vt 0.636676 0.4634986
vt 0.3186337 0.4453188
vt 0.5268807 0.3521712
vt 0.5422943 0.5047941
vt 0.494568 0.4857389
vt 0.5640131 0.4709772
vt 0.5640131 0.4709772
vt 0.494568 0.4857389
vt 0.5477613 0.4380218
vt 0.5477613 0.4380218
vt 0.494568 0.4857389
vt 0.5334094 0.4220028
vt 0.5334094 0.4220028
vt 0.494568 0.4857389
vt 0.4860602 0.4312324
vt 0.3875434 0.4141842
vt 0.6074507 0.424564
vt 0.3517241 0.4947356
vt 0.3517241 0.4947356
vt 0.6074507 0.424564
vt 0.3520035 0.5299588
vt 0.3520035 0.5299588
vt 0.6074507 0.424564
vt 0.3676034 0.5637197
vt 0.3676034 0.5637197
vt 0.6074507 0.424564
vt 0.4959696 0.6095881
vt 0.4959696 0.6095881
vt 0.6074507 0.424564
vt 0.626124 0.5205988
vt 0.4278423 0.5421872
vt 0.4067755 0.5356213
vt 0.4070874 0.5243707
vt 0.362211 0.4691424
vt 0.5550537 0.4204521
vt 0.3766979 0.517721
vt 0.3766979 0.517721
vt 0.5550537 0.4204521
vt 0.5503038 0.5005844
vt 0.3200959 0.5423083
vt 0.4101795 0.4124193
vt 0.3550723 0.5585787
vt 0.3550723 0.5585787
vt 0.4101795 0.4124193
vt 0.4885189 0.4580875
vt 0.4885189 0.4580875
vt 0.4101795 0.4124193
vt 0.4402198 0.4277771
vt 0.4246245 0.5573028
vt 0.4019791 0.4885888
vt 0.5542061 0.5624997
vt 0.5542061 0.5624997
vt 0.4019791 0.4885888
vt 0.5955016 0.5423735
vt 0.5955016 0.5423735
vt 0.4019791 0.4885888
vt 0.5714731 0.4035903
vt 0.5714731 0.4035903
vt 0.4019791 0.4885888
vt 0.5371161 0.3841905
vt 0.4216768 0.5218096
vt 0.4311067 0.5033691
vt 0.4360241 0.5378938
vt 0.6505623 0.4440615
vt 0.6450487 0.4993457
vt 0.4974132 0.2992712
vt 0.4974132 0.2992712
vt 0.6450487 0.4993457
vt 0.4932268 0.2985448
vt 0.4932268 0.2985448
vt 0.6450487 0.4993457
vt 0.4611423 0.4845282
vt 0.4611423 0.4845282
vt 0.6450487 0.4993457
vt 0.5883396 0.518345
vt 0.3274069 0.4789774
vt 0.3499406 0.4316375
vt 0.3836131 0.5807632
vt 0.3836131 0.5807632
vt 0.3499406 0.4316375
vt 0.4473678 0.6033016
vt 0.4473678 0.6033016
vt 0.3499406 0.4316375
vt 0.556255 0.564353
vt 0.556255 0.564353
vt 0.3499406 0.4316375
vt 0.5891219 0.4401825
vt 0.5891219 0.4401825
vt 0.3499406 0.4316375
vt 0.4449463 0.3747887
vt 0.6601644 0.351766
vt 0.6038836 0.525004
vt 0.4339705 0.3640923
vt 0.4339705 0.3640923
vt 0.6038836 0.525004
vt 0.3947007 0.4129223
vt 0.3947007 0.4129223
vt 0.6038836 0.525004
vt 0.3971128 0.5355561
vt 0.3971128 0.5355561
vt 0.6038836 0.525004
vt 0.417877 0.5534471
vt 0.417877 0.5534471
vt 0.6038836 0.525004
vt 0.4529092 0.5664672
vt 0.4280658 0.4816782
vt 0.4121958 0.5350252
vt 0.402021 0.4740506
vt 0.402021 0.4740506
vt 0.4121958 0.5350252
vt 0.3814617 0.5039279
vt 0.5748073 0.5537544
vt 0.570281 0.5761065
vt 0.5659596 0.4580875
vt 0.5659596 0.4580875
vt 0.570281 0.5761065
vt 0.3662204 0.4136906
vt 0.3662204 0.4136906
vt 0.570281 0.5761065
vt 0.5182658 0.5873384
vt 0.3966751 0.418366
vt 0.5319472 0.4080002
vt 0.3607488 0.4947542
vt 0.3607488 0.4947542
vt 0.5319472 0.4080002
vt 0.4220168 0.6030315
vt 0.4220168 0.6030315
vt 0.5319472 0.4080002
vt 0.4549955 0.5962979
vt 0.4549955 0.5962979
vt 0.5319472 0.4080002
vt 0.5420894 0.5409206
vt 0.5420894 0.5409206
vt 0.5319472 0.4080002
vt 0.5428159 0.5297073
vt 0.5451442 0.5386016
vt 0.4711542 0.511807
vt 0.5553051 0.4638152
vt 0.5553051 0.4638152
vt 0.4711542 0.511807
vt 0.4128385 0.4052294
vt 0.4128385 0.4052294
vt 0.4711542 0.511807
vt 0.4003353 0.4494633
vt 0.4664416 0.4411697
vt 0.4871592 0.4381336
vt 0.4539058 0.5392256
vt 0.4539058 0.5392256
vt 0.4871592 0.4381336
vt 0.4866143 0.5561107
vt 0.4866143 0.5561107
vt 0.4871592 0.4381336
vt 0.5128362 0.4709027
vt 0.6481035 0.2944562
vt 0.7162588 0.3512678
vt 0.5620946 0.3503271
vt 0.5620946 0.3503271
vt 0.7162588 0.3512678
vt 0.7063866 0.4933758

usemtl Material0
usemap Material0

usemtl Material1
usemap Material1
f 1/1/1 2/2/2 3/3/3
f 4/4/4 5/5/5 6/6/6
f 7/7/7 8/8/8 9/9/9
f 10/10/10 11/11/11 12/12/12
f 13/13/13 14/14/14 15/15/15
f 16/16/16 17/17/17 18/18/18
f 19/19/19 20/20/20 21/21/21
f 22/22/22 23/23/23 24/24/24
f 25/25/25 26/26/26 27/27/27
f 28/28/28 29/29/29 30/30/30
f 31/31/31 32/32/32 33/33/33
f 34/34/34 35/35/35 36/36/36
f 37/37/37 38/38/38 39/39/39
f 40/40/40 41/41/41 42/42/42
f 43/43/43 44/44/44 45/45/45
f 46/46/46 47/47/47 48/48/48
f 49/49/49 50/50/50 51/51/51
f 52/52/52 53/53/53 54/54/54
f 55/55/55 56/56/56 57/57/57
f 58/58/58 59/59/59 60/60/60
f 61/61/61 62/62/62 63/63/63
f 64/64/64 65/65/65 66/66/66
f 67/67/67 68/68/68 69/69/69
f 70/70/70 71/71/71 72/72/72
f 73/73/73 74/74/74 75/75/75
f 76/76/76 77/77/77 78/78/78
f 79/79/79 80/80/80 81/81/81
f 82/82/82 83/83/83 84/84/84
f 85/85/85 86/86/86 87/87/87
f 88/88/88 89/89/89 90/90/90
f 91/91/91 92/92/92 93/93/93
f 94/94/94 95/95/95 96/96/96
f 97/97/97 98/98/98 99/99/99
f 100/100/100 101/101/101 102/102/102
f 103/103/103 104/104/104 105/105/105
f 106/106/106 107/107/107 108/108/108
f 109/109/109 110/110/110 111/111/111
f 112/112/112 113/113/113 114/114/114
f 115/115/115 116/116/116 117/117/117
f 118/118/118 119/119/119 120/120/120
f 121/121/121 122/122/122 123/123/123
f 124/124/124 125/125/125 126/126/126
f 127/127/127 128/128/128 129/129/129
f 130/130/130 131/131/131 132/132/132
f 133/133/133 134/134/134 135/135/135
f 136/136/136 137/137/137 138/138/138
f 139/139/139 140/140/140 141/141/141
f 142/142/142 143/143/143 144/144/144
f 145/145/145 146/146/146 147/147/147
f 148/148/148 149/149/149 150/150/150
f 151/151/151 152/152/152 153/153/153
f 154/154/154 155/155/155 156/156/156
f 157/157/157 158/158/158 159/159/159
f 160/160/160 161/161/161 162/162/162
f 163/163/163 164/164/164 165/165/165
f 166/166/166 167/167/167 168/168/168
