g  Instance
v 1.705559 -44.9526 5.208514
v 1.660304 -44.94529 5.200866
v 1.788289 -45.06949 5.3507
v -0.1455705 -45.81867 2.33717
v -0.2585024 -46.32356 2.497333
v 0.1204593 -44.16506 3.093221
v 0.1204593 -44.16506 3.093221
v -0.2585024 -46.32356 2.497333
v 0.04179727 -44.32383 3.675713
v 0.04179727 -44.32383 3.675713
v -0.2585024 -46.32356 2.497333
v -0.0691545 -44.83827 3.788126
v -0.0691545 -44.83827 3.788126
v -0.2585024 -46.32356 2.497333
v -0.2537863 -46.17337 2.805809
v 3.197984 -45.88891 3.194062
v 3.230556 -45.7971 2.851287
v 2.45812 -45.07937 4.230359
v 2.45812 -45.07937 4.230359
v 3.230556 -45.7971 2.851287
v 2.476186 -44.64956 3.15681
v 2.476186 -44.64956 3.15681
v 3.230556 -45.7971 2.851287
v 3.052879 -45.36362 2.542716
v -0.2585024 -46.32356 2.497333
v -0.2422681 -46.3524 2.500596
v -0.2537863 -46.17337 2.805809
v -0.2537863 -46.17337 2.805809
v -0.2422681 -46.3524 2.500596
v 0.3740593 -46.89557 3.694523
v 2.114603 -47.57453 2.205924
v 2.144441 -47.64769 2.257846
v 2.096451 -47.61472 2.22105
v 3.197984 -45.88891 3.194062
v 2.45812 -45.07937 4.230359
v 3.06936 -46.19691 3.873384
v 3.06936 -46.19691 3.873384
v 2.45812 -45.07937 4.230359
v 2.117435 -45.3153 5.384637
v 3.06936 -46.19691 3.873384
v 2.529339 -47.27447 4.058661
v 3.197984 -45.88891 3.194062
v 3.197984 -45.88891 3.194062
v 2.529339 -47.27447 4.058661
v 3.230556 -45.7971 2.851287
v 3.230556 -45.7971 2.851287
v 2.529339 -47.27447 4.058661
v 2.234991 -47.71725 2.37163
v 2.234991 -47.71725 2.37163
v 2.529339 -47.27447 4.058661
v 2.226423 -47.75465 2.625722
v 0.3740593 -46.89557 3.694523
v 0.8516867 -47.28732 4.444056
v -0.2537863 -46.17337 2.805809
v -0.2537863 -46.17337 2.805809
v 0.8516867 -47.28732 4.444056
v -0.0691545 -44.83827 3.788126
v -0.0691545 -44.83827 3.788126
v 0.8516867 -47.28732 4.444056
v 1.280049 -46.66581 5.569538
v 1.280049 -46.66581 5.569538
v 0.8516867 -47.28732 4.444056
v 1.273183 -46.75163 5.516157
v 1.447341 -46.57469 5.647663
v 1.61836 -46.1349 5.630952
v 1.433145 -46.56504 5.651658
v 2.155718 -45.67683 1.703362
v 2.135121 -45.6666 1.706053
v 3.052879 -45.36362 2.542716
v 3.052879 -45.36362 2.542716
v 2.135121 -45.6666 1.706053
v 2.476186 -44.64956 3.15681
v 2.476186 -44.64956 3.15681
v 2.135121 -45.6666 1.706053
v 2.117792 -44.43524 3.249274
v 2.117792 -44.43524 3.249274
v 2.135121 -45.6666 1.706053
v 0.7443568 -44.17781 2.893009
v 2.234991 -47.71725 2.37163
v 2.226423 -47.75465 2.625722
v 2.144441 -47.64769 2.257846
v 2.144441 -47.64769 2.257846
v 2.226423 -47.75465 2.625722
v 2.096451 -47.61472 2.22105
v 2.096451 -47.61472 2.22105
v 2.226423 -47.75465 2.625722
v -0.2422681 -46.3524 2.500596
v -0.2422681 -46.3524 2.500596
v 2.226423 -47.75465 2.625722
v 0.3740593 -46.89557 3.694523
v 0.3740593 -46.89557 3.694523
v 2.226423 -47.75465 2.625722
v 0.8516867 -47.28732 4.444056
v 0.8516867 -47.28732 4.444056
v 2.226423 -47.75465 2.625722
v 1.917035 -47.72432 3.485598
v 2.155718 -45.67683 1.703362
v 3.052879 -45.36362 2.542716
v 2.114603 -47.57453 2.205924
v 2.114603 -47.57453 2.205924
v 3.052879 -45.36362 2.542716
v 2.144441 -47.64769 2.257846
v 2.144441 -47.64769 2.257846
v 3.052879 -45.36362 2.542716
v 2.234991 -47.71725 2.37163
v 2.234991 -47.71725 2.37163
v 3.052879 -45.36362 2.542716
v 3.230556 -45.7971 2.851287
v 2.117792 -44.43524 3.249274
v 1.705559 -44.9526 5.208514
v 2.476186 -44.64956 3.15681
v 2.476186 -44.64956 3.15681
v 1.705559 -44.9526 5.208514
v 2.45812 -45.07937 4.230359
v 2.45812 -45.07937 4.230359
v 1.705559 -44.9526 5.208514
v 2.117435 -45.3153 5.384637
v 2.117435 -45.3153 5.384637
v 1.705559 -44.9526 5.208514
v 1.96614 -45.28796 5.57678
v 1.96614 -45.28796 5.57678
v 1.705559 -44.9526 5.208514
v 1.788289 -45.06949 5.3507
v 1.660304 -44.94529 5.200866
v 0.04179727 -44.32383 3.675713
v 1.788289 -45.06949 5.3507
v 1.788289 -45.06949 5.3507
v 0.04179727 -44.32383 3.675713
v 1.96614 -45.28796 5.57678
v 1.96614 -45.28796 5.57678
v 0.04179727 -44.32383 3.675713
v 1.61836 -46.1349 5.630952
v 1.61836 -46.1349 5.630952
v 0.04179727 -44.32383 3.675713
v 1.433145 -46.56504 5.651658
v 1.433145 -46.56504 5.651658
v 0.04179727 -44.32383 3.675713
v 1.280049 -46.66581 5.569538
v 1.280049 -46.66581 5.569538
v 0.04179727 -44.32383 3.675713
v -0.0691545 -44.83827 3.788126
v -0.2422681 -46.3524 2.500596
v -0.2585024 -46.32356 2.497333
v 2.096451 -47.61472 2.22105
v 2.096451 -47.61472 2.22105
v -0.2585024 -46.32356 2.497333
v 2.114603 -47.57453 2.205924
v 2.114603 -47.57453 2.205924
v -0.2585024 -46.32356 2.497333
v 2.155718 -45.67683 1.703362
v 2.155718 -45.67683 1.703362
v -0.2585024 -46.32356 2.497333
v 2.135121 -45.6666 1.706053
v 2.135121 -45.6666 1.706053
v -0.2585024 -46.32356 2.497333
v -0.1455705 -45.81867 2.33717
v 2.117792 -44.43524 3.249274
v 0.7443568 -44.17781 2.893009
v 1.705559 -44.9526 5.208514
v 1.705559 -44.9526 5.208514
v 0.7443568 -44.17781 2.893009
v 1.660304 -44.94529 5.200866
v 1.660304 -44.94529 5.200866
v 0.7443568 -44.17781 2.893009
v 0.04179727 -44.32383 3.675713
v 0.04179727 -44.32383 3.675713
v 0.7443568 -44.17781 2.893009
v 0.1204593 -44.16506 3.093221
v 1.280049 -46.66581 5.569538
v 1.273183 -46.75163 5.516157
v 1.433145 -46.56504 5.651658
v 1.433145 -46.56504 5.651658
v 1.273183 -46.75163 5.516157
v 1.447341 -46.57469 5.647663
v 1.447341 -46.57469 5.647663
v 1.273183 -46.75163 5.516157
v 1.468384 -46.72534 5.558386
v 1.447341 -46.57469 5.647663
v 1.468384 -46.72534 5.558386
v 1.61836 -46.1349 5.630952
v 1.61836 -46.1349 5.630952
v 1.468384 -46.72534 5.558386
v 1.96614 -45.28796 5.57678
v 1.96614 -45.28796 5.57678
v 1.468384 -46.72534 5.558386
v 2.117435 -45.3153 5.384637
v 2.117435 -45.3153 5.384637
v 1.468384 -46.72534 5.558386
v 3.06936 -46.19691 3.873384
v 3.06936 -46.19691 3.873384
v 1.468384 -46.72534 5.558386
v 2.529339 -47.27447 4.058661
v 2.529339 -47.27447 4.058661
v 1.468384 -46.72534 5.558386
v 2.333842 -47.33012 4.268201
v 2.529339 -47.27447 4.058661
v 2.333842 -47.33012 4.268201
v 2.226423 -47.75465 2.625722
v 2.226423 -47.75465 2.625722
v 2.333842 -47.33012 4.268201
v 1.917035 -47.72432 3.485598
v 2.135121 -45.6666 1.706053
v -0.1455705 -45.81867 2.33717
v 0.7443568 -44.17781 2.893009
v 0.7443568 -44.17781 2.893009
v -0.1455705 -45.81867 2.33717
v 0.1204593 -44.16506 3.093221
v 1.917035 -47.72432 3.485598
v 2.333842 -47.33012 4.268201
v 0.8516867 -47.28732 4.444056
v 0.8516867 -47.28732 4.444056
v 2.333842 -47.33012 4.268201
v 1.273183 -46.75163 5.516157
v 1.273183 -46.75163 5.516157
v 2.333842 -47.33012 4.268201
v 1.468384 -46.72534 5.558386

vn 0.01939504 0.777842 0.6281606
vn 0.01939504 0.777842 0.6281606
vn 0.01939504 0.777842 0.6281606
vn -0.9778759 0.1935741 -0.07929636
vn -0.9778759 0.1935741 -0.07929636
vn -0.9778759 0.1935741 -0.07929636
vn -0.9778759 0.1935741 -0.07929636
vn -0.9778759 0.1935741 -0.07929636
vn -0.9778759 0.1935741 -0.07929636
vn -0.9778759 0.1935741 -0.07929636
vn -0.9778759 0.1935741 -0.07929636
vn -0.9778759 0.1935741 -0.07929636
vn -0.9778759 0.1935741 -0.07929636
vn -0.9778759 0.1935741 -0.07929636
vn -0.9778759 0.1935741 -0.07929636
vn 0.8415145 0.4964967 0.2129425
vn 0.8415145 0.4964967 0.2129425
vn 0.8415145 0.4964967 0.2129425
vn 0.8415145 0.4964967 0.2129425
vn 0.8415145 0.4964967 0.2129425
vn 0.8415145 0.4964967 0.2129425
vn 0.8415145 0.4964967 0.2129425
vn 0.8415145 0.4964967 0.2129425
vn 0.8415145 0.4964967 0.2129425
vn -0.8580922 -0.4563977 0.2353276
vn -0.8580922 -0.4563977 0.2353276
vn -0.8580922 -0.4563977 0.2353276
vn -0.8580922 -0.4563977 0.2353276
vn -0.8580922 -0.4563977 0.2353276
vn -0.8580922 -0.4563977 0.2353276
vn 0.321593 -0.457313 -0.8291218
vn 0.321593 -0.457313 -0.8291218
vn 0.321593 -0.457313 -0.8291218
vn 0.8682596 0.3689403 0.3316752
vn 0.8682596 0.3689403 0.3316752
vn 0.8682596 0.3689403 0.3316752
vn 0.8682596 0.3689403 0.3316752
vn 0.8682596 0.3689403 0.3316752
vn 0.8682596 0.3689403 0.3316752
vn 0.8908824 -0.4527569 -0.03660108
vn 0.8908824 -0.4527569 -0.03660108
vn 0.8908824 -0.4527569 -0.03660108
vn 0.8908824 -0.4527569 -0.03660108
vn 0.8908824 -0.4527569 -0.03660108
vn 0.8908824 -0.4527569 -0.03660108
vn 0.8908824 -0.4527569 -0.03660108
vn 0.8908824 -0.4527569 -0.03660108
vn 0.8908824 -0.4527569 -0.03660108
vn 0.8908824 -0.4527569 -0.03660108
vn 0.8908824 -0.4527569 -0.03660108
vn 0.8908824 -0.4527569 -0.03660108
vn -0.8705205 -0.2078387 0.4460912
vn -0.8705205 -0.2078387 0.4460912
vn -0.8705205 -0.2078387 0.4460912
vn -0.8705205 -0.2078387 0.4460912
vn -0.8705205 -0.2078387 0.4460912
vn -0.8705205 -0.2078387 0.4460912
vn -0.8705205 -0.2078387 0.4460912
vn -0.8705205 -0.2078387 0.4460912
vn -0.8705205 -0.2078387 0.4460912
vn -0.8705205 -0.2078387 0.4460912
vn -0.8705205 -0.2078387 0.4460912
vn -0.8705205 -0.2078387 0.4460912
vn 0.2357834 -0.05482078 0.9702582
vn 0.2357834 -0.05482078 0.9702582
vn 0.2357834 -0.05482078 0.9702582
vn 0.2944036 0.7486293 -0.5940377
vn 0.2944036 0.7486293 -0.5940377
vn 0.2944036 0.7486293 -0.5940377
vn 0.2944036 0.7486293 -0.5940377
vn 0.2944036 0.7486293 -0.5940377
vn 0.2944036 0.7486293 -0.5940377
vn 0.2944036 0.7486293 -0.5940377
vn 0.2944036 0.7486293 -0.5940377
vn 0.2944036 0.7486293 -0.5940377
vn 0.2944036 0.7486293 -0.5940377
vn 0.2944036 0.7486293 -0.5940377
vn 0.2944036 0.7486293 -0.5940377
vn -0.4832919 -0.8636319 -0.1434193
vn -0.4832919 -0.8636319 -0.1434193
vn -0.4832919 -0.8636319 -0.1434193
vn -0.4832919 -0.8636319 -0.1434193
vn -0.4832919 -0.8636319 -0.1434193
vn -0.4832919 -0.8636319 -0.1434193
vn -0.4832919 -0.8636319 -0.1434193
vn -0.4832919 -0.8636319 -0.1434193
vn -0.4832919 -0.8636319 -0.1434193
vn -0.4832919 -0.8636319 -0.1434193
vn -0.4832919 -0.8636319 -0.1434193
vn -0.4832919 -0.8636319 -0.1434193
vn -0.4832919 -0.8636319 -0.1434193
vn -0.4832919 -0.8636319 -0.1434193
vn -0.4832919 -0.8636319 -0.1434193
vn -0.4832919 -0.8636319 -0.1434193
vn -0.4832919 -0.8636319 -0.1434193
vn -0.4832919 -0.8636319 -0.1434193
vn 0.7055492 -0.1956623 -0.6811143
vn 0.7055492 -0.1956623 -0.6811143
vn 0.7055492 -0.1956623 -0.6811143
vn 0.7055492 -0.1956623 -0.6811143
vn 0.7055492 -0.1956623 -0.6811143
vn 0.7055492 -0.1956623 -0.6811143
vn 0.7055492 -0.1956623 -0.6811143
vn 0.7055492 -0.1956623 -0.6811143
vn 0.7055492 -0.1956623 -0.6811143
vn 0.7055492 -0.1956623 -0.6811143
vn 0.7055492 -0.1956623 -0.6811143
vn 0.7055492 -0.1956623 -0.6811143
vn 0.5456808 0.7747419 0.3193861
vn 0.5456808 0.7747419 0.3193861
vn 0.5456808 0.7747419 0.3193861
vn 0.5456808 0.7747419 0.3193861
vn 0.5456808 0.7747419 0.3193861
vn 0.5456808 0.7747419 0.3193861
vn 0.5456808 0.7747419 0.3193861
vn 0.5456808 0.7747419 0.3193861
vn 0.5456808 0.7747419 0.3193861
vn 0.5456808 0.7747419 0.3193861
vn 0.5456808 0.7747419 0.3193861
vn 0.5456808 0.7747419 0.3193861
vn 0.5456808 0.7747419 0.3193861
vn 0.5456808 0.7747419 0.3193861
vn 0.5456808 0.7747419 0.3193861
vn -0.594178 0.2919203 0.7494899
vn -0.594178 0.2919203 0.7494899
vn -0.594178 0.2919203 0.7494899
vn -0.594178 0.2919203 0.7494899
vn -0.594178 0.2919203 0.7494899
vn -0.594178 0.2919203 0.7494899
vn -0.594178 0.2919203 0.7494899
vn -0.594178 0.2919203 0.7494899
vn -0.594178 0.2919203 0.7494899
vn -0.594178 0.2919203 0.7494899
vn -0.594178 0.2919203 0.7494899
vn -0.594178 0.2919203 0.7494899
vn -0.594178 0.2919203 0.7494899
vn -0.594178 0.2919203 0.7494899
vn -0.594178 0.2919203 0.7494899
vn -0.594178 0.2919203 0.7494899
vn -0.594178 0.2919203 0.7494899
vn -0.594178 0.2919203 0.7494899
vn -0.2435778 -0.2433598 -0.9388535
vn -0.2435778 -0.2433598 -0.9388535
vn -0.2435778 -0.2433598 -0.9388535
vn -0.2435778 -0.2433598 -0.9388535
vn -0.2435778 -0.2433598 -0.9388535
vn -0.2435778 -0.2433598 -0.9388535
vn -0.2435778 -0.2433598 -0.9388535
vn -0.2435778 -0.2433598 -0.9388535
vn -0.2435778 -0.2433598 -0.9388535
vn -0.2435778 -0.2433598 -0.9388535
vn -0.2435778 -0.2433598 -0.9388535
vn -0.2435778 -0.2433598 -0.9388535
vn -0.2435778 -0.2433598 -0.9388535
vn -0.2435778 -0.2433598 -0.9388535
vn -0.2435778 -0.2433598 -0.9388535
vn 0.1077481 0.955397 0.2749676
vn 0.1077481 0.955397 0.2749676
vn 0.1077481 0.955397 0.2749676
vn 0.1077481 0.955397 0.2749676
vn 0.1077481 0.955397 0.2749676
vn 0.1077481 0.955397 0.2749676
vn 0.1077481 0.955397 0.2749676
vn 0.1077481 0.955397 0.2749676
vn 0.1077481 0.955397 0.2749676
vn 0.1077481 0.955397 0.2749676
vn 0.1077481 0.955397 0.2749676
vn 0.1077481 0.955397 0.2749676
vn -0.1135857 -0.5182264 0.8476672
vn -0.1135857 -0.5182264 0.8476672
vn -0.1135857 -0.5182264 0.8476672
vn -0.1135857 -0.5182264 0.8476672
vn -0.1135857 -0.5182264 0.8476672
vn -0.1135857 -0.5182264 0.8476672
vn -0.1135857 -0.5182264 0.8476672
vn -0.1135857 -0.5182264 0.8476672
vn -0.1135857 -0.5182264 0.8476672
vn 0.7392195 -0.2639293 0.6195933
vn 0.7392195 -0.2639293 0.6195933
vn 0.7392195 -0.2639293 0.6195933
vn 0.7392195 -0.2639293 0.6195933
vn 0.7392195 -0.2639293 0.6195933
vn 0.7392195 -0.2639293 0.6195933
vn 0.7392195 -0.2639293 0.6195933
vn 0.7392195 -0.2639293 0.6195933
vn 0.7392195 -0.2639293 0.6195933
vn 0.7392195 -0.2639293 0.6195933
vn 0.7392195 -0.2639293 0.6195933
vn 0.7392195 -0.2639293 0.6195933
vn 0.7392195 -0.2639293 0.6195933
vn 0.7392195 -0.2639293 0.6195933
vn 0.7392195 -0.2639293 0.6195933
vn 0.7392195 -0.2639293 0.6195933
vn 0.7392195 -0.2639293 0.6195933
vn 0.7392195 -0.2639293 0.6195933
vn 0.4558651 -0.8685015 0.1946595
vn 0.4558651 -0.8685015 0.1946595
vn 0.4558651 -0.8685015 0.1946595
vn 0.4558651 -0.8685015 0.1946595
vn 0.4558651 -0.8685015 0.1946595
vn 0.4558651 -0.8685015 0.1946595
vn -0.266909 0.4359131 -0.8594995
vn -0.266909 0.4359131 -0.8594995
vn -0.266909 0.4359131 -0.8594995
vn -0.266909 0.4359131 -0.8594995
vn -0.266909 0.4359131 -0.8594995
vn -0.266909 0.4359131 -0.8594995
vn 0.02609452 -0.8983124 0.4385816
vn 0.02609452 -0.8983124 0.4385816
vn 0.02609452 -0.8983124 0.4385816
vn 0.02609452 -0.8983124 0.4385816
vn 0.02609452 -0.8983124 0.4385816
vn 0.02609452 -0.8983124 0.4385816
vn 0.02609452 -0.8983124 0.4385816
vn 0.02609452 -0.8983124 0.4385816
vn 0.02609452 -0.8983124 0.4385816

vt 0.5186663 0.3458288
vt 0.513544 0.3469371
vt 0.5283242 0.3252183
vt 0.4861952 0.51258
vt 0.4406668 0.498433
vt 0.6335374 0.4458031
vt 0.6335374 0.4458031
vt 0.4406668 0.498433
vt 0.618487 0.39437
vt 0.618487 0.39437
vt 0.4406668 0.498433
vt 0.5721623 0.3844467
vt 0.5721623 0.3844467
vt 0.4406668 0.498433
vt 0.4537148 0.4711914
vt 0.5692379 0.4776735
vt 0.5636219 0.5091806
vt 0.4728538 0.3824117
vt 0.4728538 0.3824117
vt 0.5636219 0.5091806
vt 0.4404293 0.4811008
vt 0.4404293 0.4811008
vt 0.5636219 0.5091806
vt 0.5219818 0.5375491
vt 0.5483667 0.5467321
vt 0.5453771 0.5464341
vt 0.5601388 0.5180749
vt 0.5601388 0.5180749
vt 0.5453771 0.5464341
vt 0.4759505 0.4355165
vt 0.5662297 0.3217863
vt 0.5690051 0.3072062
vt 0.5721902 0.3175394
vt 0.5528278 0.4979767
vt 0.456602 0.3957997
vt 0.5745186 0.4309949
vt 0.5745186 0.4309949
vt 0.456602 0.3957997
vt 0.4644019 0.2819903
vt 0.4545437 0.3846003
vt 0.5603809 0.3683206
vt 0.4253184 0.4442944
vt 0.4253184 0.4442944
vt 0.5603809 0.3683206
vt 0.4168339 0.4744138
vt 0.4168339 0.4744138
vt 0.5603809 0.3683206
vt 0.6067522 0.5165662
vt 0.6067522 0.5165662
vt 0.5603809 0.3683206
vt 0.6100212 0.494242
vt 0.439349 0.4628001
vt 0.3911104 0.380684
vt 0.522522 0.560162
vt 0.522522 0.560162
vt 0.3911104 0.380684
vt 0.6456448 0.452546
vt 0.6456448 0.452546
vt 0.3911104 0.380684
vt 0.4406342 0.2573797
vt 0.4406342 0.2573797
vt 0.3911104 0.380684
vt 0.4326061 0.2632285
vt 0.4592656 0.5015064
vt 0.4988288 0.4856178
vt 0.460155 0.5028289
vt 0.5527253 0.5458567
vt 0.5502293 0.5454935
vt 0.6312929 0.432038
vt 0.6312929 0.432038
vt 0.5502293 0.5454935
vt 0.5442408 0.3487625
vt 0.5442408 0.3487625
vt 0.5502293 0.5454935
vt 0.4993038 0.336222
vt 0.4993038 0.336222
vt 0.5502293 0.5454935
vt 0.3496007 0.3845351
vt 0.3693264 0.5064239
vt 0.3683718 0.483662
vt 0.3793476 0.516622
vt 0.3793476 0.516622
vt 0.3683718 0.483662
vt 0.3844886 0.519919
vt 0.3844886 0.519919
vt 0.3683718 0.483662
vt 0.6201075 0.494866
vt 0.6201075 0.494866
vt 0.3683718 0.483662
vt 0.5488975 0.3878973
vt 0.5488975 0.3878973
vt 0.3683718 0.483662
vt 0.4949777 0.3207432
vt 0.4949777 0.3207432
vt 0.3683718 0.483662
vt 0.3936203 0.4066218
vt 0.4436005 0.5361056
vt 0.3786863 0.3987101
vt 0.6640853 0.4538406
vt 0.6640853 0.4538406
vt 0.3786863 0.3987101
vt 0.6715825 0.4453375
vt 0.6715825 0.4453375
vt 0.3786863 0.3987101
vt 0.6767142 0.4267154
vt 0.6767142 0.4267154
vt 0.3786863 0.3987101
vt 0.4230599 0.348199
vt 0.4629304 0.4919509
vt 0.4593075 0.3004819
vt 0.5014924 0.5009848
vt 0.5014924 0.5009848
vt 0.4593075 0.3004819
vt 0.5230436 0.3960744
vt 0.5230436 0.3960744
vt 0.4593075 0.3004819
vt 0.5098279 0.2832708
vt 0.5098279 0.2832708
vt 0.4593075 0.3004819
vt 0.4969196 0.2644951
vt 0.4969196 0.2644951
vt 0.4593075 0.3004819
vt 0.4718061 0.2865864
vt 0.6325129 0.3055065
vt 0.6118466 0.6108826
vt 0.6252206 0.2755035
vt 0.6252206 0.2755035
vt 0.6118466 0.6108826
vt 0.6096207 0.2302358
vt 0.6096207 0.2302358
vt 0.6118466 0.6108826
vt 0.4885282 0.2193904
vt 0.4885282 0.2193904
vt 0.6118466 0.6108826
vt 0.4265291 0.215246
vt 0.4265291 0.215246
vt 0.6118466 0.6108826
vt 0.4055927 0.2316887
vt 0.4055927 0.2316887
vt 0.6118466 0.6108826
vt 0.544157 0.5883722
vt 0.5149316 0.580102
vt 0.5123332 0.58162
vt 0.6191483 0.3619223
vt 0.6191483 0.3619223
vt 0.5123332 0.58162
vt 0.6152925 0.3602319
vt 0.6152925 0.3602319
vt 0.5123332 0.58162
vt 0.4376772 0.3563948
vt 0.4376772 0.3563948
vt 0.5123332 0.58162
vt 0.4368437 0.358318
vt 0.4368437 0.358318
vt 0.5123332 0.58162
vt 0.4644811 0.5710866
vt 0.538867 0.4845375
vt 0.4116696 0.5183543
vt 0.5067731 0.2985494
vt 0.5067731 0.2985494
vt 0.4116696 0.5183543
vt 0.5025914 0.2992712
vt 0.5025914 0.2992712
vt 0.4116696 0.5183543
vt 0.3494423 0.4440615
vt 0.3494423 0.4440615
vt 0.4116696 0.5183543
vt 0.3549512 0.499355
vt 0.513814 0.3404875
vt 0.5118862 0.3571305
vt 0.4926448 0.3148851
vt 0.4926448 0.3148851
vt 0.5118862 0.3571305
vt 0.4900091 0.3161284
vt 0.4900091 0.3161284
vt 0.5118862 0.3571305
vt 0.4812731 0.3439614
vt 0.5643577 0.2429859
vt 0.5794268 0.2557033
vt 0.5116254 0.2453654
vt 0.5116254 0.2453654
vt 0.5794268 0.2557033
vt 0.4093739 0.2530816
vt 0.4093739 0.2530816
vt 0.5794268 0.2557033
vt 0.4065752 0.2804489
vt 0.4065752 0.2804489
vt 0.5794268 0.2557033
vt 0.463615 0.4956949
vt 0.463615 0.4956949
vt 0.5794268 0.2557033
vt 0.5973643 0.4693101
vt 0.5973643 0.4693101
vt 0.5794268 0.2557033
vt 0.6105707 0.4394654
vt 0.4731053 0.4011688
vt 0.4909031 0.3820578
vt 0.5170737 0.531868
vt 0.5170737 0.531868
vt 0.4909031 0.3820578
vt 0.5403199 0.4534401
vt 0.6196605 0.5870404
vt 0.2720948 0.3750495
vt 0.5495028 0.1883583
vt 0.5495028 0.1883583
vt 0.2720948 0.3750495
vt 0.4592936 0.1211111
vt 0.4656127 0.4982561
vt 0.4238143 0.413225
vt 0.5683625 0.3941186
vt 0.5683625 0.3941186
vt 0.4238143 0.413225
vt 0.5256979 0.2776269
vt 0.5256979 0.2776269
vt 0.4238143 0.413225
vt 0.5065776 0.2730448

usemtl Material0
usemap Material0

usemtl Material1
usemap Material1
f 1/1/1 2/2/2 3/3/3
f 4/4/4 5/5/5 6/6/6
f 7/7/7 8/8/8 9/9/9
f 10/10/10 11/11/11 12/12/12
f 13/13/13 14/14/14 15/15/15
f 16/16/16 17/17/17 18/18/18
f 19/19/19 20/20/20 21/21/21
f 22/22/22 23/23/23 24/24/24
f 25/25/25 26/26/26 27/27/27
f 28/28/28 29/29/29 30/30/30
f 31/31/31 32/32/32 33/33/33
f 34/34/34 35/35/35 36/36/36
f 37/37/37 38/38/38 39/39/39
f 40/40/40 41/41/41 42/42/42
f 43/43/43 44/44/44 45/45/45
f 46/46/46 47/47/47 48/48/48
f 49/49/49 50/50/50 51/51/51
f 52/52/52 53/53/53 54/54/54
f 55/55/55 56/56/56 57/57/57
f 58/58/58 59/59/59 60/60/60
f 61/61/61 62/62/62 63/63/63
f 64/64/64 65/65/65 66/66/66
f 67/67/67 68/68/68 69/69/69
f 70/70/70 71/71/71 72/72/72
f 73/73/73 74/74/74 75/75/75
f 76/76/76 77/77/77 78/78/78
f 79/79/79 80/80/80 81/81/81
f 82/82/82 83/83/83 84/84/84
f 85/85/85 86/86/86 87/87/87
f 88/88/88 89/89/89 90/90/90
f 91/91/91 92/92/92 93/93/93
f 94/94/94 95/95/95 96/96/96
f 97/97/97 98/98/98 99/99/99
f 100/100/100 101/101/101 102/102/102
f 103/103/103 104/104/104 105/105/105
f 106/106/106 107/107/107 108/108/108
f 109/109/109 110/110/110 111/111/111
f 112/112/112 113/113/113 114/114/114
f 115/115/115 116/116/116 117/117/117
f 118/118/118 119/119/119 120/120/120
f 121/121/121 122/122/122 123/123/123
f 124/124/124 125/125/125 126/126/126
f 127/127/127 128/128/128 129/129/129
f 130/130/130 131/131/131 132/132/132
f 133/133/133 134/134/134 135/135/135
f 136/136/136 137/137/137 138/138/138
f 139/139/139 140/140/140 141/141/141
f 142/142/142 143/143/143 144/144/144
f 145/145/145 146/146/146 147/147/147
f 148/148/148 149/149/149 150/150/150
f 151/151/151 152/152/152 153/153/153
f 154/154/154 155/155/155 156/156/156
f 157/157/157 158/158/158 159/159/159
f 160/160/160 161/161/161 162/162/162
f 163/163/163 164/164/164 165/165/165
f 166/166/166 167/167/167 168/168/168
f 169/169/169 170/170/170 171/171/171
f 172/172/172 173/173/173 174/174/174
f 175/175/175 176/176/176 177/177/177
f 178/178/178 179/179/179 180/180/180
f 181/181/181 182/182/182 183/183/183
f 184/184/184 185/185/185 186/186/186
f 187/187/187 188/188/188 189/189/189
f 190/190/190 191/191/191 192/192/192
f 193/193/193 194/194/194 195/195/195
f 196/196/196 197/197/197 198/198/198
f 199/199/199 200/200/200 201/201/201
f 202/202/202 203/203/203 204/204/204
f 205/205/205 206/206/206 207/207/207
f 208/208/208 209/209/209 210/210/210
f 211/211/211 212/212/212 213/213/213
f 214/214/214 215/215/215 216/216/216
