g  Instance
v -1.049251 -43.95888 -3.004139
v -0.1642768 -44.39046 -1.699705
v -1.282226 -43.79302 -1.0602
v -1.282226 -43.79302 -1.0602
v -0.1642768 -44.39046 -1.699705
v -0.9126868 -43.98055 -0.8353684
v -0.9126868 -43.98055 -0.8353684
v -0.1642768 -44.39046 -1.699705
v -0.4687026 -44.21035 -0.7627233
v -1.68016 -43.15612 -1.310926
v -1.536479 -43.48266 -1.218483
v -1.702666 -42.92962 -1.32888
v -1.702666 -42.92962 -1.32888
v -1.536479 -43.48266 -1.218483
v -1.670955 -42.85517 -1.311381
v -1.670955 -42.85517 -1.311381
v -1.536479 -43.48266 -1.218483
v -0.9126868 -43.98055 -0.8353684
v -0.9126868 -43.98055 -0.8353684
v -1.536479 -43.48266 -1.218483
v -1.282226 -43.79302 -1.0602
v -0.9126868 -43.98055 -0.8353684
v -0.4687026 -44.21035 -0.7627233
v -1.670955 -42.85517 -1.311381
v -1.670955 -42.85517 -1.311381
v -0.4687026 -44.21035 -0.7627233
v -1.4051 -42.02778 -1.731288
v -1.4051 -42.02778 -1.731288
v -0.4687026 -44.21035 -0.7627233
v -0.6016089 -41.58636 -2.011518
v -0.6016089 -41.58636 -2.011518
v -0.4687026 -44.21035 -0.7627233
v 1.183314 -42.47118 -1.738231
v -0.8924472 -42.99957 -3.966357
v -0.3891917 -43.40668 -3.994158
v -1.054151 -43.02464 -3.863895
v -1.054151 -43.02464 -3.863895
v -0.3891917 -43.40668 -3.994158
v -0.93575 -43.74064 -3.498294
v -0.93575 -43.74064 -3.498294
v -0.3891917 -43.40668 -3.994158
v -0.3949817 -43.49207 -3.939795
v -0.7471741 -42.77339 -3.910131
v -0.4728087 -42.52723 -3.837778
v -0.8924472 -42.99957 -3.966357
v -0.8924472 -42.99957 -3.966357
v -0.4728087 -42.52723 -3.837778
v -0.3891917 -43.40668 -3.994158
v -0.3891917 -43.40668 -3.994158
v -0.4728087 -42.52723 -3.837778
v 0.5122227 -43.17268 -3.863894
v 0.5122227 -43.17268 -3.863894
v -0.4728087 -42.52723 -3.837778
v 0.4819818 -43.07516 -3.848566
v -1.670955 -42.85517 -1.311381
v -1.4051 -42.02778 -1.731288
v -1.702666 -42.92962 -1.32888
v -1.702666 -42.92962 -1.32888
v -1.4051 -42.02778 -1.731288
v -1.717599 -42.60579 -2.337814
v -1.717599 -42.60579 -2.337814
v -1.4051 -42.02778 -1.731288
v -1.66747 -42.97782 -3.058885
v -1.66747 -42.97782 -3.058885
v -1.4051 -42.02778 -1.731288
v -1.622064 -43.05457 -3.253793
v -1.622064 -43.05457 -3.253793
v -1.4051 -42.02778 -1.731288
v -1.162174 -43.00228 -3.766975
v -1.162174 -43.00228 -3.766975
v -1.4051 -42.02778 -1.731288
v -0.7471741 -42.77339 -3.910131
v -0.7471741 -42.77339 -3.910131
v -1.4051 -42.02778 -1.731288
v -0.4728087 -42.52723 -3.837778
v -0.4728087 -42.52723 -3.837778
v -1.4051 -42.02778 -1.731288
v -0.6016089 -41.58636 -2.011518
v 0.4819818 -43.07516 -3.848566
v 1.327634 -43.29853 -3.306853
v 0.5122227 -43.17268 -3.863894
v 0.5122227 -43.17268 -3.863894
v 1.327634 -43.29853 -3.306853
v 1.217883 -43.46126 -3.451464
v -1.049251 -43.95888 -3.004139
v -1.109872 -43.87441 -3.226226
v -0.1642768 -44.39046 -1.699705
v -0.1642768 -44.39046 -1.699705
v -1.109872 -43.87441 -3.226226
v 1.230864 -43.51093 -3.414685
v 1.230864 -43.51093 -3.414685
v -1.109872 -43.87441 -3.226226
v -0.3949817 -43.49207 -3.939795
v -0.3949817 -43.49207 -3.939795
v -1.109872 -43.87441 -3.226226
v -0.93575 -43.74064 -3.498294
v -1.536479 -43.48266 -1.218483
v -1.68016 -43.15612 -1.310926
v -1.419397 -43.51175 -3.152257
v -1.419397 -43.51175 -3.152257
v -1.68016 -43.15612 -1.310926
v -1.622064 -43.05457 -3.253793
v -1.622064 -43.05457 -3.253793
v -1.68016 -43.15612 -1.310926
v -1.66747 -42.97782 -3.058885
v 1.217883 -43.46126 -3.451464
v 1.24138 -43.49882 -3.419339
v 0.5122227 -43.17268 -3.863894
v 0.5122227 -43.17268 -3.863894
v 1.24138 -43.49882 -3.419339
v -0.3891917 -43.40668 -3.994158
v -0.3891917 -43.40668 -3.994158
v 1.24138 -43.49882 -3.419339
v -0.3949817 -43.49207 -3.939795
v -0.3949817 -43.49207 -3.939795
v 1.24138 -43.49882 -3.419339
v 1.230864 -43.51093 -3.414685
v -1.66747 -42.97782 -3.058885
v -1.68016 -43.15612 -1.310926
v -1.717599 -42.60579 -2.337814
v -1.717599 -42.60579 -2.337814
v -1.68016 -43.15612 -1.310926
v -1.702666 -42.92962 -1.32888
v 1.217883 -43.46126 -3.451464
v 1.327634 -43.29853 -3.306853
v 1.24138 -43.49882 -3.419339
v 1.24138 -43.49882 -3.419339
v 1.327634 -43.29853 -3.306853
v 1.328296 -43.29848 -3.305966
v -0.7471741 -42.77339 -3.910131
v -0.8924472 -42.99957 -3.966357
v -1.162174 -43.00228 -3.766975
v -1.162174 -43.00228 -3.766975
v -0.8924472 -42.99957 -3.966357
v -1.054151 -43.02464 -3.863895
v -0.93575 -43.74064 -3.498294
v -1.109872 -43.87441 -3.226226
v -1.054151 -43.02464 -3.863895
v -1.054151 -43.02464 -3.863895
v -1.109872 -43.87441 -3.226226
v -1.162174 -43.00228 -3.766975
v -1.162174 -43.00228 -3.766975
v -1.109872 -43.87441 -3.226226
v -1.622064 -43.05457 -3.253793
v -1.622064 -43.05457 -3.253793
v -1.109872 -43.87441 -3.226226
v -1.419397 -43.51175 -3.152257
v -0.6016089 -41.58636 -2.011518
v 1.183314 -42.47118 -1.738231
v -0.4728087 -42.52723 -3.837778
v -0.4728087 -42.52723 -3.837778
v 1.183314 -42.47118 -1.738231
v 0.4819818 -43.07516 -3.848566
v 0.4819818 -43.07516 -3.848566
v 1.183314 -42.47118 -1.738231
v 1.327634 -43.29853 -3.306853
v 1.327634 -43.29853 -3.306853
v 1.183314 -42.47118 -1.738231
v 1.328296 -43.29848 -3.305966
v -1.536479 -43.48266 -1.218483
v -1.419397 -43.51175 -3.152257
v -1.282226 -43.79302 -1.0602
v -1.282226 -43.79302 -1.0602
v -1.419397 -43.51175 -3.152257
v -1.049251 -43.95888 -3.004139
v -1.049251 -43.95888 -3.004139
v -1.419397 -43.51175 -3.152257
v -1.109872 -43.87441 -3.226226
v 1.24138 -43.49882 -3.419339
v 1.328296 -43.29848 -3.305966
v 1.230864 -43.51093 -3.414685
v 1.230864 -43.51093 -3.414685
v 1.328296 -43.29848 -3.305966
v -0.1642768 -44.39046 -1.699705
v -0.1642768 -44.39046 -1.699705
v 1.328296 -43.29848 -3.305966
v -0.4687026 -44.21035 -0.7627233
v -0.4687026 -44.21035 -0.7627233
v 1.328296 -43.29848 -3.305966
v 1.183314 -42.47118 -1.738231

vn -0.4621999 -0.8865446 0.02024829
vn -0.4621999 -0.8865446 0.02024829
vn -0.4621999 -0.8865446 0.02024829
vn -0.4621999 -0.8865446 0.02024829
vn -0.4621999 -0.8865446 0.02024829
vn -0.4621999 -0.8865446 0.02024829
vn -0.4621999 -0.8865446 0.02024829
vn -0.4621999 -0.8865446 0.02024829
vn -0.4621999 -0.8865446 0.02024829
vn -0.5133837 0.01700016 0.8579907
vn -0.5133837 0.01700016 0.8579907
vn -0.5133837 0.01700016 0.8579907
vn -0.5133837 0.01700016 0.8579907
vn -0.5133837 0.01700016 0.8579907
vn -0.5133837 0.01700016 0.8579907
vn -0.5133837 0.01700016 0.8579907
vn -0.5133837 0.01700016 0.8579907
vn -0.5133837 0.01700016 0.8579907
vn -0.5133837 0.01700016 0.8579907
vn -0.5133837 0.01700016 0.8579907
vn -0.5133837 0.01700016 0.8579907
vn 0.07634998 0.4316257 0.8988159
vn 0.07634998 0.4316257 0.8988159
vn 0.07634998 0.4316257 0.8988159
vn 0.07634998 0.4316257 0.8988159
vn 0.07634998 0.4316257 0.8988159
vn 0.07634998 0.4316257 0.8988159
vn 0.07634998 0.4316257 0.8988159
vn 0.07634998 0.4316257 0.8988159
vn 0.07634998 0.4316257 0.8988159
vn 0.07634998 0.4316257 0.8988159
vn 0.07634998 0.4316257 0.8988159
vn 0.07634998 0.4316257 0.8988159
vn -0.4205828 -0.4667882 -0.7779583
vn -0.4205828 -0.4667882 -0.7779583
vn -0.4205828 -0.4667882 -0.7779583
vn -0.4205828 -0.4667882 -0.7779583
vn -0.4205828 -0.4667882 -0.7779583
vn -0.4205828 -0.4667882 -0.7779583
vn -0.4205828 -0.4667882 -0.7779583
vn -0.4205828 -0.4667882 -0.7779583
vn -0.4205828 -0.4667882 -0.7779583
vn 0.09393153 0.1829495 -0.9786248
vn 0.09393153 0.1829495 -0.9786248
vn 0.09393153 0.1829495 -0.9786248
vn 0.09393153 0.1829495 -0.9786248
vn 0.09393153 0.1829495 -0.9786248
vn 0.09393153 0.1829495 -0.9786248
vn 0.09393153 0.1829495 -0.9786248
vn 0.09393153 0.1829495 -0.9786248
vn 0.09393153 0.1829495 -0.9786248
vn 0.09393153 0.1829495 -0.9786248
vn 0.09393153 0.1829495 -0.9786248
vn 0.09393153 0.1829495 -0.9786248
vn -0.9228653 0.3625128 0.1300159
vn -0.9228653 0.3625128 0.1300159
vn -0.9228653 0.3625128 0.1300159
vn -0.9228653 0.3625128 0.1300159
vn -0.9228653 0.3625128 0.1300159
vn -0.9228653 0.3625128 0.1300159
vn -0.5449551 0.729095 -0.4140586
vn -0.5449551 0.729095 -0.4140586
vn -0.5449551 0.729095 -0.4140586
vn -0.5449551 0.729095 -0.4140586
vn -0.5449551 0.729095 -0.4140586
vn -0.5449551 0.729095 -0.4140586
vn -0.5449551 0.729095 -0.4140586
vn -0.5449551 0.729095 -0.4140586
vn -0.5449551 0.729095 -0.4140586
vn -0.5449551 0.729095 -0.4140586
vn -0.5449551 0.729095 -0.4140586
vn -0.5449551 0.729095 -0.4140586
vn -0.5449551 0.729095 -0.4140586
vn -0.5449551 0.729095 -0.4140586
vn -0.5449551 0.729095 -0.4140586
vn -0.5449551 0.729095 -0.4140586
vn -0.5449551 0.729095 -0.4140586
vn -0.5449551 0.729095 -0.4140586
vn 0.5694503 0.2970614 -0.7664731
vn 0.5694503 0.2970614 -0.7664731
vn 0.5694503 0.2970614 -0.7664731
vn 0.5694503 0.2970614 -0.7664731
vn 0.5694503 0.2970614 -0.7664731
vn 0.5694503 0.2970614 -0.7664731
vn 0.11202 -0.9182553 -0.3798142
vn 0.11202 -0.9182553 -0.3798142
vn 0.11202 -0.9182553 -0.3798142
vn 0.11202 -0.9182553 -0.3798142
vn 0.11202 -0.9182553 -0.3798142
vn 0.11202 -0.9182553 -0.3798142
vn 0.11202 -0.9182553 -0.3798142
vn 0.11202 -0.9182553 -0.3798142
vn 0.11202 -0.9182553 -0.3798142
vn 0.11202 -0.9182553 -0.3798142
vn 0.11202 -0.9182553 -0.3798142
vn 0.11202 -0.9182553 -0.3798142
vn -0.9090472 -0.4138238 -0.0488164
vn -0.9090472 -0.4138238 -0.0488164
vn -0.9090472 -0.4138238 -0.0488164
vn -0.9090472 -0.4138238 -0.0488164
vn -0.9090472 -0.4138238 -0.0488164
vn -0.9090472 -0.4138238 -0.0488164
vn -0.9090472 -0.4138238 -0.0488164
vn -0.9090472 -0.4138238 -0.0488164
vn -0.9090472 -0.4138238 -0.0488164
vn 0.2547488 -0.5315558 -0.8078066
vn 0.2547488 -0.5315558 -0.8078066
vn 0.2547488 -0.5315558 -0.8078066
vn 0.2547488 -0.5315558 -0.8078066
vn 0.2547488 -0.5315558 -0.8078066
vn 0.2547488 -0.5315558 -0.8078066
vn 0.2547488 -0.5315558 -0.8078066
vn 0.2547488 -0.5315558 -0.8078066
vn 0.2547488 -0.5315558 -0.8078066
vn 0.2547488 -0.5315558 -0.8078066
vn 0.2547488 -0.5315558 -0.8078066
vn 0.2547488 -0.5315558 -0.8078066
vn -0.9948115 -0.1002292 -0.01744438
vn -0.9948115 -0.1002292 -0.01744438
vn -0.9948115 -0.1002292 -0.01744438
vn -0.9948115 -0.1002292 -0.01744438
vn -0.9948115 -0.1002292 -0.01744438
vn -0.9948115 -0.1002292 -0.01744438
vn 0.8017032 -0.00961417 -0.5976452
vn 0.8017032 -0.00961417 -0.5976452
vn 0.8017032 -0.00961417 -0.5976452
vn 0.8017032 -0.00961417 -0.5976452
vn 0.8017032 -0.00961417 -0.5976452
vn 0.8017032 -0.00961417 -0.5976452
vn -0.5167032 0.5039439 -0.6921404
vn -0.5167032 0.5039439 -0.6921404
vn -0.5167032 0.5039439 -0.6921404
vn -0.5167032 0.5039439 -0.6921404
vn -0.5167032 0.5039439 -0.6921404
vn -0.5167032 0.5039439 -0.6921404
vn -0.6510218 -0.4278238 -0.6270067
vn -0.6510218 -0.4278238 -0.6270067
vn -0.6510218 -0.4278238 -0.6270067
vn -0.6510218 -0.4278238 -0.6270067
vn -0.6510218 -0.4278238 -0.6270067
vn -0.6510218 -0.4278238 -0.6270067
vn -0.6510218 -0.4278238 -0.6270067
vn -0.6510218 -0.4278238 -0.6270067
vn -0.6510218 -0.4278238 -0.6270067
vn -0.6510218 -0.4278238 -0.6270067
vn -0.6510218 -0.4278238 -0.6270067
vn -0.6510218 -0.4278238 -0.6270067
vn 0.4567662 0.803501 -0.3817734
vn 0.4567662 0.803501 -0.3817734
vn 0.4567662 0.803501 -0.3817734
vn 0.4567662 0.803501 -0.3817734
vn 0.4567662 0.803501 -0.3817734
vn 0.4567662 0.803501 -0.3817734
vn 0.4567662 0.803501 -0.3817734
vn 0.4567662 0.803501 -0.3817734
vn 0.4567662 0.803501 -0.3817734
vn 0.4567662 0.803501 -0.3817734
vn 0.4567662 0.803501 -0.3817734
vn 0.4567662 0.803501 -0.3817734
vn -0.7638253 -0.6443868 -0.03655841
vn -0.7638253 -0.6443868 -0.03655841
vn -0.7638253 -0.6443868 -0.03655841
vn -0.7638253 -0.6443868 -0.03655841
vn -0.7638253 -0.6443868 -0.03655841
vn -0.7638253 -0.6443868 -0.03655841
vn -0.7638253 -0.6443868 -0.03655841
vn -0.7638253 -0.6443868 -0.03655841
vn -0.7638253 -0.6443868 -0.03655841
vn 0.7692248 -0.5330204 0.3523954
vn 0.7692248 -0.5330204 0.3523954
vn 0.7692248 -0.5330204 0.3523954
vn 0.7692248 -0.5330204 0.3523954
vn 0.7692248 -0.5330204 0.3523954
vn 0.7692248 -0.5330204 0.3523954
vn 0.7692248 -0.5330204 0.3523954
vn 0.7692248 -0.5330204 0.3523954
vn 0.7692248 -0.5330204 0.3523954
vn 0.7692248 -0.5330204 0.3523954
vn 0.7692248 -0.5330204 0.3523954
vn 0.7692248 -0.5330204 0.3523954

vt 0.5486367 0.5020186
vt 0.4622506 0.3875061
vt 0.5735034 0.3313604
vt 0.5735034 0.3313604
vt 0.4622506 0.3875061
vt 0.5371347 0.3116254
vt 0.5371347 0.3116254
vt 0.4622506 0.3875061
vt 0.4932548 0.3052504
vt 0.4440476 0.615232
vt 0.389108 0.5844792
vt 0.4825956 0.6212019
vt 0.4825956 0.6212019
vt 0.389108 0.5844792
vt 0.4954853 0.615381
vt 0.4954853 0.615381
vt 0.389108 0.5844792
vt 0.3076253 0.457063
vt 0.3076253 0.457063
vt 0.389108 0.5844792
vt 0.3375538 0.5318401
vt 0.3317702 0.08274465
vt 0.4273115 0.04956576
vt 0.1430394 0.300156
vt 0.1430394 0.300156
vt 0.4273115 0.04956576
vt 0.1665976 0.4919416
vt 0.1665976 0.4919416
vt 0.4273115 0.04956576
vt 0.3096044 0.6199259
vt 0.3096044 0.6199259
vt 0.4273115 0.04956576
vt 0.692342 0.4951081
vt 0.5960976 0.5001932
vt 0.5058231 0.506368
vt 0.6105334 0.4774127
vt 0.6105334 0.4774127
vt 0.5058231 0.506368
vt 0.5313138 0.3961489
vt 0.5313138 0.3961489
vt 0.5058231 0.506368
vt 0.4984423 0.4942886
vt 0.514913 0.5339822
vt 0.4924166 0.5096928
vt 0.5354211 0.5468439
vt 0.5354211 0.5468439
vt 0.4924166 0.5096928
vt 0.5711471 0.5022888
vt 0.5711471 0.5022888
vt 0.4924166 0.5096928
vt 0.5487578 0.4224871
vt 0.5487578 0.4224871
vt 0.4924166 0.5096928
vt 0.5400591 0.4251647
vt 0.4443456 0.3702903
vt 0.5211064 0.407772
vt 0.4371883 0.3718503
vt 0.4371883 0.3718503
vt 0.5211064 0.407772
vt 0.4633775 0.461906
vt 0.3733498 0.3876039
vt 0.4308459 0.3233649
vt 0.3557522 0.4639735
vt 0.3557522 0.4639735
vt 0.4308459 0.3233649
vt 0.3548301 0.484612
vt 0.3548301 0.484612
vt 0.4308459 0.3233649
vt 0.3933595 0.5389648
vt 0.3933595 0.5389648
vt 0.4308459 0.3233649
vt 0.4386179 0.554127
vt 0.4386179 0.554127
vt 0.4308459 0.3233649
vt 0.4740134 0.5464621
vt 0.4740134 0.5464621
vt 0.4308459 0.3233649
vt 0.5183683 0.3530466
vt 0.5446041 0.5501781
vt 0.6251088 0.4349438
vt 0.558332 0.5534378
vt 0.558332 0.5534378
vt 0.6251088 0.4349438
vt 0.6378868 0.4657058
vt 0.6236932 0.4662367
vt 0.6284337 0.4890079
vt 0.5453212 0.3324734
vt 0.5453212 0.3324734
vt 0.6284337 0.4890079
vt 0.4038557 0.5083331
vt 0.4038557 0.5083331
vt 0.6284337 0.4890079
vt 0.5567394 0.562183
vt 0.5567394 0.562183
vt 0.6284337 0.4890079
vt 0.6105055 0.5169107
vt 0.5133018 0.3350858
vt 0.5446413 0.3432164
vt 0.5067079 0.5051852
vt 0.5067079 0.5051852
vt 0.5446413 0.3432164
vt 0.5506391 0.5141167
vt 0.5506391 0.5141167
vt 0.5446413 0.3432164
vt 0.5584251 0.4969708
vt 0.3913246 0.4201541
vt 0.3905842 0.4120422
vt 0.4674893 0.5243149
vt 0.4674893 0.5243149
vt 0.3905842 0.4120422
vt 0.603567 0.557219
vt 0.603567 0.557219
vt 0.3905842 0.4120422
vt 0.6098349 0.5434911
vt 0.6098349 0.5434911
vt 0.3905842 0.4120422
vt 0.3927775 0.410864
vt 0.5080491 0.501404
vt 0.4925935 0.3479708
vt 0.5409811 0.4381103
vt 0.5409811 0.4381103
vt 0.4925935 0.3479708
vt 0.5125753 0.3495448
vt 0.5612563 0.4672518
vt 0.5433002 0.4475168
vt 0.5653263 0.4628652
vt 0.5653263 0.4628652
vt 0.5433002 0.4475168
vt 0.5432909 0.4473957
vt 0.4352278 0.5190156
vt 0.4032131 0.5284873
vt 0.3800787 0.4949032
vt 0.3800787 0.4949032
vt 0.4032131 0.5284873
vt 0.3873012 0.5112296
vt 0.4859577 0.4465389
vt 0.484137 0.4071992
vt 0.5606789 0.4994016
vt 0.5606789 0.4994016
vt 0.484137 0.4071992
vt 0.5694708 0.485385
vt 0.5694708 0.485385
vt 0.484137 0.4071992
vt 0.5929963 0.4111854
vt 0.5929963 0.4111854
vt 0.484137 0.4071992
vt 0.5374234 0.3965028
vt 0.3782021 0.3843954
vt 0.5670493 0.3563203
vt 0.4329833 0.5719993
vt 0.4329833 0.5719993
vt 0.5670493 0.3563203
vt 0.5375072 0.5730983
vt 0.5375072 0.5730983
vt 0.5670493 0.3563203
vt 0.6177885 0.5174602
vt 0.6177885 0.5174602
vt 0.5670493 0.3563203
vt 0.6178444 0.5173671
vt 0.5547091 0.3373303
vt 0.5461221 0.5072528
vt 0.5194766 0.3234208
vt 0.5194766 0.3234208
vt 0.5461221 0.5072528
vt 0.4951594 0.494242
vt 0.4951594 0.494242
vt 0.5461221 0.5072528
vt 0.5042585 0.5137535
vt 0.4878949 0.5773638
vt 0.4678106 0.5660015
vt 0.4893944 0.5768982
vt 0.4893944 0.5768982
vt 0.4678106 0.5660015
vt 0.6316841 0.4050571
vt 0.6316841 0.4050571
vt 0.4678106 0.5660015
vt 0.634059 0.3111784
vt 0.634059 0.3111784
vt 0.4678106 0.5660015
vt 0.4117907 0.4089175

usemtl Material0
usemap Material0

usemtl Material1
usemap Material1
f 1/1/1 2/2/2 3/3/3
f 4/4/4 5/5/5 6/6/6
f 7/7/7 8/8/8 9/9/9
f 10/10/10 11/11/11 12/12/12
f 13/13/13 14/14/14 15/15/15
f 16/16/16 17/17/17 18/18/18
f 19/19/19 20/20/20 21/21/21
f 22/22/22 23/23/23 24/24/24
f 25/25/25 26/26/26 27/27/27
f 28/28/28 29/29/29 30/30/30
f 31/31/31 32/32/32 33/33/33
f 34/34/34 35/35/35 36/36/36
f 37/37/37 38/38/38 39/39/39
f 40/40/40 41/41/41 42/42/42
f 43/43/43 44/44/44 45/45/45
f 46/46/46 47/47/47 48/48/48
f 49/49/49 50/50/50 51/51/51
f 52/52/52 53/53/53 54/54/54
f 55/55/55 56/56/56 57/57/57
f 58/58/58 59/59/59 60/60/60
f 61/61/61 62/62/62 63/63/63
f 64/64/64 65/65/65 66/66/66
f 67/67/67 68/68/68 69/69/69
f 70/70/70 71/71/71 72/72/72
f 73/73/73 74/74/74 75/75/75
f 76/76/76 77/77/77 78/78/78
f 79/79/79 80/80/80 81/81/81
f 82/82/82 83/83/83 84/84/84
f 85/85/85 86/86/86 87/87/87
f 88/88/88 89/89/89 90/90/90
f 91/91/91 92/92/92 93/93/93
f 94/94/94 95/95/95 96/96/96
f 97/97/97 98/98/98 99/99/99
f 100/100/100 101/101/101 102/102/102
f 103/103/103 104/104/104 105/105/105
f 106/106/106 107/107/107 108/108/108
f 109/109/109 110/110/110 111/111/111
f 112/112/112 113/113/113 114/114/114
f 115/115/115 116/116/116 117/117/117
f 118/118/118 119/119/119 120/120/120
f 121/121/121 122/122/122 123/123/123
f 124/124/124 125/125/125 126/126/126
f 127/127/127 128/128/128 129/129/129
f 130/130/130 131/131/131 132/132/132
f 133/133/133 134/134/134 135/135/135
f 136/136/136 137/137/137 138/138/138
f 139/139/139 140/140/140 141/141/141
f 142/142/142 143/143/143 144/144/144
f 145/145/145 146/146/146 147/147/147
f 148/148/148 149/149/149 150/150/150
f 151/151/151 152/152/152 153/153/153
f 154/154/154 155/155/155 156/156/156
f 157/157/157 158/158/158 159/159/159
f 160/160/160 161/161/161 162/162/162
f 163/163/163 164/164/164 165/165/165
f 166/166/166 167/167/167 168/168/168
f 169/169/169 170/170/170 171/171/171
f 172/172/172 173/173/173 174/174/174
f 175/175/175 176/176/176 177/177/177
f 178/178/178 179/179/179 180/180/180
