g  Instance
v 8.023215 -49.89929 1.981819
v 8.023666 -49.90026 1.976952
v 8.030411 -49.00761 1.823195
v 8.030411 -49.00761 1.823195
v 8.023666 -49.90026 1.976952
v 8.030766 -49.01721 1.82015
v 5.51703 -49.55406 1.953777
v 5.514868 -49.15178 1.752835
v 5.7382 -50.21608 1.984425
v 5.7382 -50.21608 1.984425
v 5.514868 -49.15178 1.752835
v 5.888988 -50.20655 1.771702
v 5.888988 -50.20655 1.771702
v 5.514868 -49.15178 1.752835
v 5.879303 -49.74236 1.549753
v 8.030411 -49.00761 1.823195
v 8.030766 -49.01721 1.82015
v 7.845995 -48.04473 2.072001
v 7.845995 -48.04473 2.072001
v 8.030766 -49.01721 1.82015
v 7.389568 -47.47479 2.086769
v 7.389568 -47.47479 2.086769
v 8.030766 -49.01721 1.82015
v 6.312347 -47.6163 1.628842
v 6.312347 -47.6163 1.628842
v 8.030766 -49.01721 1.82015
v 6.840189 -49.44342 1.224604
v 6.840189 -49.44342 1.224604
v 8.030766 -49.01721 1.82015
v 7.107485 -49.41593 1.335703
v 5.509398 -48.85959 1.787984
v 6.267751 -47.58399 1.649166
v 5.514868 -49.15178 1.752835
v 5.514868 -49.15178 1.752835
v 6.267751 -47.58399 1.649166
v 5.879303 -49.74236 1.549753
v 5.879303 -49.74236 1.549753
v 6.267751 -47.58399 1.649166
v 6.482911 -50.17503 1.275202
v 6.482911 -50.17503 1.275202
v 6.267751 -47.58399 1.649166
v 6.840189 -49.44342 1.224604
v 6.840189 -49.44342 1.224604
v 6.267751 -47.58399 1.649166
v 6.312347 -47.6163 1.628842
v 5.888988 -50.20655 1.771702
v 6.470805 -50.4845 1.438209
v 5.7382 -50.21608 1.984425
v 5.7382 -50.21608 1.984425
v 6.470805 -50.4845 1.438209
v 5.858555 -50.40744 2.122725
v 5.858555 -50.40744 2.122725
v 6.470805 -50.4845 1.438209
v 5.959615 -50.48435 2.109134
v 7.554605 -50.09594 1.729572
v 8.023666 -49.90026 1.976952
v 6.533273 -50.47811 1.384466
v 6.533273 -50.47811 1.384466
v 8.023666 -49.90026 1.976952
v 6.470805 -50.4845 1.438209
v 6.470805 -50.4845 1.438209
v 8.023666 -49.90026 1.976952
v 5.959615 -50.48435 2.109134
v 5.959615 -50.48435 2.109134
v 8.023666 -49.90026 1.976952
v 6.506596 -50.06013 3.26152
v 6.506596 -50.06013 3.26152
v 8.023666 -49.90026 1.976952
v 7.371119 -49.77443 3.387109
v 7.371119 -49.77443 3.387109
v 8.023666 -49.90026 1.976952
v 8.023215 -49.89929 1.981819
v 6.533273 -50.47811 1.384466
v 6.470805 -50.4845 1.438209
v 6.482911 -50.17503 1.275202
v 6.482911 -50.17503 1.275202
v 6.470805 -50.4845 1.438209
v 5.879303 -49.74236 1.549753
v 5.879303 -49.74236 1.549753
v 6.470805 -50.4845 1.438209
v 5.888988 -50.20655 1.771702
v 6.437278 -46.51384 2.799636
v 6.34768 -46.63392 2.650116
v 6.421634 -46.58264 3.064185
v 6.421634 -46.58264 3.064185
v 6.34768 -46.63392 2.650116
v 6.390053 -46.64001 3.102901
v 6.390053 -46.64001 3.102901
v 6.34768 -46.63392 2.650116
v 5.509656 -48.04823 3.020781
v 5.509656 -48.04823 3.020781
v 6.34768 -46.63392 2.650116
v 5.472869 -48.08893 2.907114
v 5.472869 -48.08893 2.907114
v 6.34768 -46.63392 2.650116
v 5.47404 -48.07657 2.843494
v 5.47404 -48.07657 2.843494
v 6.34768 -46.63392 2.650116
v 5.509398 -48.85959 1.787984
v 5.509398 -48.85959 1.787984
v 6.34768 -46.63392 2.650116
v 6.267751 -47.58399 1.649166
v 5.7382 -50.21608 1.984425
v 5.858555 -50.40744 2.122725
v 5.51703 -49.55406 1.953777
v 5.51703 -49.55406 1.953777
v 5.858555 -50.40744 2.122725
v 5.472869 -48.08893 2.907114
v 5.472869 -48.08893 2.907114
v 5.858555 -50.40744 2.122725
v 5.509656 -48.04823 3.020781
v 5.509656 -48.04823 3.020781
v 5.858555 -50.40744 2.122725
v 6.159282 -49.87097 3.198614
v 7.389568 -47.47479 2.086769
v 6.437278 -46.51384 2.799636
v 7.845995 -48.04473 2.072001
v 7.845995 -48.04473 2.072001
v 6.437278 -46.51384 2.799636
v 7.291815 -47.73536 3.233685
v 7.291815 -47.73536 3.233685
v 6.437278 -46.51384 2.799636
v 6.421634 -46.58264 3.064185
v 5.959615 -50.48435 2.109134
v 6.506596 -50.06013 3.26152
v 5.858555 -50.40744 2.122725
v 5.858555 -50.40744 2.122725
v 6.506596 -50.06013 3.26152
v 6.159282 -49.87097 3.198614
v 6.390053 -46.64001 3.102901
v 7.273163 -47.84913 3.292685
v 6.421634 -46.58264 3.064185
v 6.421634 -46.58264 3.064185
v 7.273163 -47.84913 3.292685
v 7.291815 -47.73536 3.233685
v 7.107485 -49.41593 1.335703
v 8.030766 -49.01721 1.82015
v 7.554605 -50.09594 1.729572
v 7.554605 -50.09594 1.729572
v 8.030766 -49.01721 1.82015
v 8.023666 -49.90026 1.976952
v 5.514868 -49.15178 1.752835
v 5.51703 -49.55406 1.953777
v 5.509398 -48.85959 1.787984
v 5.509398 -48.85959 1.787984
v 5.51703 -49.55406 1.953777
v 5.47404 -48.07657 2.843494
v 5.47404 -48.07657 2.843494
v 5.51703 -49.55406 1.953777
v 5.472869 -48.08893 2.907114
v 7.291815 -47.73536 3.233685
v 7.273163 -47.84913 3.292685
v 7.845995 -48.04473 2.072001
v 7.845995 -48.04473 2.072001
v 7.273163 -47.84913 3.292685
v 8.030411 -49.00761 1.823195
v 8.030411 -49.00761 1.823195
v 7.273163 -47.84913 3.292685
v 8.023215 -49.89929 1.981819
v 8.023215 -49.89929 1.981819
v 7.273163 -47.84913 3.292685
v 7.371119 -49.77443 3.387109
v 6.482911 -50.17503 1.275202
v 6.840189 -49.44342 1.224604
v 6.533273 -50.47811 1.384466
v 6.533273 -50.47811 1.384466
v 6.840189 -49.44342 1.224604
v 7.554605 -50.09594 1.729572
v 7.554605 -50.09594 1.729572
v 6.840189 -49.44342 1.224604
v 7.107485 -49.41593 1.335703
v 7.273163 -47.84913 3.292685
v 6.390053 -46.64001 3.102901
v 7.371119 -49.77443 3.387109
v 7.371119 -49.77443 3.387109
v 6.390053 -46.64001 3.102901
v 6.506596 -50.06013 3.26152
v 6.506596 -50.06013 3.26152
v 6.390053 -46.64001 3.102901
v 6.159282 -49.87097 3.198614
v 6.159282 -49.87097 3.198614
v 6.390053 -46.64001 3.102901
v 5.509656 -48.04823 3.020781
v 7.389568 -47.47479 2.086769
v 6.312347 -47.6163 1.628842
v 6.437278 -46.51384 2.799636
v 6.437278 -46.51384 2.799636
v 6.312347 -47.6163 1.628842
v 6.34768 -46.63392 2.650116
v 6.34768 -46.63392 2.650116
v 6.312347 -47.6163 1.628842
v 6.267751 -47.58399 1.649166

vn 0.9958583 0.008073919 0.09056048
vn 0.9958583 0.008073919 0.09056048
vn 0.9958583 0.008073919 0.09056048
vn 0.9958583 0.008073919 0.09056048
vn 0.9958583 0.008073919 0.09056048
vn 0.9958583 0.008073919 0.09056048
vn -0.7758589 -0.285255 -0.5627368
vn -0.7758589 -0.285255 -0.5627368
vn -0.7758589 -0.285255 -0.5627368
vn -0.7758589 -0.285255 -0.5627368
vn -0.7758589 -0.285255 -0.5627368
vn -0.7758589 -0.285255 -0.5627368
vn -0.7758589 -0.285255 -0.5627368
vn -0.7758589 -0.285255 -0.5627368
vn -0.7758589 -0.285255 -0.5627368
vn 0.3405319 0.2958337 -0.89248
vn 0.3405319 0.2958337 -0.89248
vn 0.3405319 0.2958337 -0.89248
vn 0.3405319 0.2958337 -0.89248
vn 0.3405319 0.2958337 -0.89248
vn 0.3405319 0.2958337 -0.89248
vn 0.3405319 0.2958337 -0.89248
vn 0.3405319 0.2958337 -0.89248
vn 0.3405319 0.2958337 -0.89248
vn 0.3405319 0.2958337 -0.89248
vn 0.3405319 0.2958337 -0.89248
vn 0.3405319 0.2958337 -0.89248
vn 0.3405319 0.2958337 -0.89248
vn 0.3405319 0.2958337 -0.89248
vn 0.3405319 0.2958337 -0.89248
vn -0.3480495 0.1055434 -0.9315161
vn -0.3480495 0.1055434 -0.9315161
vn -0.3480495 0.1055434 -0.9315161
vn -0.3480495 0.1055434 -0.9315161
vn -0.3480495 0.1055434 -0.9315161
vn -0.3480495 0.1055434 -0.9315161
vn -0.3480495 0.1055434 -0.9315161
vn -0.3480495 0.1055434 -0.9315161
vn -0.3480495 0.1055434 -0.9315161
vn -0.3480495 0.1055434 -0.9315161
vn -0.3480495 0.1055434 -0.9315161
vn -0.3480495 0.1055434 -0.9315161
vn -0.3480495 0.1055434 -0.9315161
vn -0.3480495 0.1055434 -0.9315161
vn -0.3480495 0.1055434 -0.9315161
vn -0.5801517 -0.6842305 -0.441874
vn -0.5801517 -0.6842305 -0.441874
vn -0.5801517 -0.6842305 -0.441874
vn -0.5801517 -0.6842305 -0.441874
vn -0.5801517 -0.6842305 -0.441874
vn -0.5801517 -0.6842305 -0.441874
vn -0.5801517 -0.6842305 -0.441874
vn -0.5801517 -0.6842305 -0.441874
vn -0.5801517 -0.6842305 -0.441874
vn 0.2786407 -0.9365879 0.2125147
vn 0.2786407 -0.9365879 0.2125147
vn 0.2786407 -0.9365879 0.2125147
vn 0.2786407 -0.9365879 0.2125147
vn 0.2786407 -0.9365879 0.2125147
vn 0.2786407 -0.9365879 0.2125147
vn 0.2786407 -0.9365879 0.2125147
vn 0.2786407 -0.9365879 0.2125147
vn 0.2786407 -0.9365879 0.2125147
vn 0.2786407 -0.9365879 0.2125147
vn 0.2786407 -0.9365879 0.2125147
vn 0.2786407 -0.9365879 0.2125147
vn 0.2786407 -0.9365879 0.2125147
vn 0.2786407 -0.9365879 0.2125147
vn 0.2786407 -0.9365879 0.2125147
vn 0.2786407 -0.9365879 0.2125147
vn 0.2786407 -0.9365879 0.2125147
vn 0.2786407 -0.9365879 0.2125147
vn -0.5872912 -0.3590799 -0.7253625
vn -0.5872912 -0.3590799 -0.7253625
vn -0.5872912 -0.3590799 -0.7253625
vn -0.5872912 -0.3590799 -0.7253625
vn -0.5872912 -0.3590799 -0.7253625
vn -0.5872912 -0.3590799 -0.7253625
vn -0.5872912 -0.3590799 -0.7253625
vn -0.5872912 -0.3590799 -0.7253625
vn -0.5872912 -0.3590799 -0.7253625
vn -0.8470135 0.5245153 0.08632304
vn -0.8470135 0.5245153 0.08632304
vn -0.8470135 0.5245153 0.08632304
vn -0.8470135 0.5245153 0.08632304
vn -0.8470135 0.5245153 0.08632304
vn -0.8470135 0.5245153 0.08632304
vn -0.8470135 0.5245153 0.08632304
vn -0.8470135 0.5245153 0.08632304
vn -0.8470135 0.5245153 0.08632304
vn -0.8470135 0.5245153 0.08632304
vn -0.8470135 0.5245153 0.08632304
vn -0.8470135 0.5245153 0.08632304
vn -0.8470135 0.5245153 0.08632304
vn -0.8470135 0.5245153 0.08632304
vn -0.8470135 0.5245153 0.08632304
vn -0.8187649 0.4476401 -0.3595031
vn -0.8187649 0.4476401 -0.3595031
vn -0.8187649 0.4476401 -0.3595031
vn -0.8187649 0.4476401 -0.3595031
vn -0.8187649 0.4476401 -0.3595031
vn -0.8187649 0.4476401 -0.3595031
vn -0.8809189 -0.2764905 0.3841025
vn -0.8809189 -0.2764905 0.3841025
vn -0.8809189 -0.2764905 0.3841025
vn -0.8809189 -0.2764905 0.3841025
vn -0.8809189 -0.2764905 0.3841025
vn -0.8809189 -0.2764905 0.3841025
vn -0.8809189 -0.2764905 0.3841025
vn -0.8809189 -0.2764905 0.3841025
vn -0.8809189 -0.2764905 0.3841025
vn -0.8809189 -0.2764905 0.3841025
vn -0.8809189 -0.2764905 0.3841025
vn -0.8809189 -0.2764905 0.3841025
vn 0.7667595 0.6087712 0.2036606
vn 0.7667595 0.6087712 0.2036606
vn 0.7667595 0.6087712 0.2036606
vn 0.7667595 0.6087712 0.2036606
vn 0.7667595 0.6087712 0.2036606
vn 0.7667595 0.6087712 0.2036606
vn 0.7667595 0.6087712 0.2036606
vn 0.7667595 0.6087712 0.2036606
vn 0.7667595 0.6087712 0.2036606
vn -0.4830297 -0.7221808 0.4951134
vn -0.4830297 -0.7221808 0.4951134
vn -0.4830297 -0.7221808 0.4951134
vn -0.4830297 -0.7221808 0.4951134
vn -0.4830297 -0.7221808 0.4951134
vn -0.4830297 -0.7221808 0.4951134
vn 0.3456909 0.3866911 0.8549665
vn 0.3456909 0.3866911 0.8549665
vn 0.3456909 0.3866911 0.8549665
vn 0.3456909 0.3866911 0.8549665
vn 0.3456909 0.3866911 0.8549665
vn 0.3456909 0.3866911 0.8549665
vn 0.5105016 -0.1543068 -0.8459182
vn 0.5105016 -0.1543068 -0.8459182
vn 0.5105016 -0.1543068 -0.8459182
vn 0.5105016 -0.1543068 -0.8459182
vn 0.5105016 -0.1543068 -0.8459182
vn 0.5105016 -0.1543068 -0.8459182
vn -0.9996384 -0.01612372 -0.02152493
vn -0.9996384 -0.01612372 -0.02152493
vn -0.9996384 -0.01612372 -0.02152493
vn -0.9996384 -0.01612372 -0.02152493
vn -0.9996384 -0.01612372 -0.02152493
vn -0.9996384 -0.01612372 -0.02152493
vn -0.9996384 -0.01612372 -0.02152493
vn -0.9996384 -0.01612372 -0.02152493
vn -0.9996384 -0.01612372 -0.02152493
vn 0.9073318 0.06652667 0.4151184
vn 0.9073318 0.06652667 0.4151184
vn 0.9073318 0.06652667 0.4151184
vn 0.9073318 0.06652667 0.4151184
vn 0.9073318 0.06652667 0.4151184
vn 0.9073318 0.06652667 0.4151184
vn 0.9073318 0.06652667 0.4151184
vn 0.9073318 0.06652667 0.4151184
vn 0.9073318 0.06652667 0.4151184
vn 0.9073318 0.06652667 0.4151184
vn 0.9073318 0.06652667 0.4151184
vn 0.9073318 0.06652667 0.4151184
vn 0.3933941 -0.2532489 -0.8838021
vn 0.3933941 -0.2532489 -0.8838021
vn 0.3933941 -0.2532489 -0.8838021
vn 0.3933941 -0.2532489 -0.8838021
vn 0.3933941 -0.2532489 -0.8838021
vn 0.3933941 -0.2532489 -0.8838021
vn 0.3933941 -0.2532489 -0.8838021
vn 0.3933941 -0.2532489 -0.8838021
vn 0.3933941 -0.2532489 -0.8838021
vn -0.1567169 0.04042094 0.9868161
vn -0.1567169 0.04042094 0.9868161
vn -0.1567169 0.04042094 0.9868161
vn -0.1567169 0.04042094 0.9868161
vn -0.1567169 0.04042094 0.9868161
vn -0.1567169 0.04042094 0.9868161
vn -0.1567169 0.04042094 0.9868161
vn -0.1567169 0.04042094 0.9868161
vn -0.1567169 0.04042094 0.9868161
vn -0.1567169 0.04042094 0.9868161
vn -0.1567169 0.04042094 0.9868161
vn -0.1567169 0.04042094 0.9868161
vn 0.1979927 0.7029636 -0.6831114
vn 0.1979927 0.7029636 -0.6831114
vn 0.1979927 0.7029636 -0.6831114
vn 0.1979927 0.7029636 -0.6831114
vn 0.1979927 0.7029636 -0.6831114
vn 0.1979927 0.7029636 -0.6831114
vn 0.1979927 0.7029636 -0.6831114
vn 0.1979927 0.7029636 -0.6831114
vn 0.1979927 0.7029636 -0.6831114

vt 0.5828913 0.5317469
vt 0.5829751 0.5321754
vt 0.5043237 0.5457822
vt 0.5043237 0.5457822
vt 0.5829751 0.5321754
vt 0.5051712 0.5460523
vt 0.4884584 0.4407832
vt 0.5286223 0.4665906
vt 0.4143938 0.4368437
vt 0.4143938 0.4368437
vt 0.5286223 0.4665906
vt 0.4098209 0.4641598
vt 0.4098209 0.4641598
vt 0.5286223 0.4665906
vt 0.4564297 0.492668
vt 0.6634334 0.3783557
vt 0.6648862 0.3796689
vt 0.4984982 0.2710517
vt 0.4984982 0.2710517
vt 0.6648862 0.3796689
vt 0.3565671 0.2646814
vt 0.3565671 0.2646814
vt 0.6648862 0.3796689
vt 0.2399264 0.4621574
vt 0.2399264 0.4621574
vt 0.6648862 0.3796689
vt 0.575599 0.6364944
vt 0.575599 0.6364944
vt 0.6648862 0.3796689
vt 0.6056625 0.5885864
vt 0.5012596 0.5212973
vt 0.3840788 0.4455703
vt 0.5287992 0.5207571
vt 0.5287992 0.5207571
vt 0.3840788 0.4455703
vt 0.5858716 0.4843605
vt 0.5858716 0.4843605
vt 0.3840788 0.4455703
vt 0.6290112 0.4240844
vt 0.6290112 0.4240844
vt 0.3840788 0.4455703
vt 0.5615078 0.3884095
vt 0.5615078 0.3884095
vt 0.3840788 0.4455703
vt 0.3873012 0.4411185
vt 0.4892361 0.4743114
vt 0.4282428 0.5106801
vt 0.4998859 0.4511118
vt 0.4998859 0.4511118
vt 0.4282428 0.5106801
vt 0.4788004 0.4360381
vt 0.4788004 0.4360381
vt 0.4282428 0.5106801
vt 0.4663903 0.4375235
vt 0.463438 0.5688887
vt 0.4180493 0.5461547
vt 0.5611353 0.60061
vt 0.5611353 0.60061
vt 0.4180493 0.5461547
vt 0.5666767 0.5956646
vt 0.5666767 0.5956646
vt 0.4180493 0.5461547
vt 0.6106731 0.5340008
vt 0.6106731 0.5340008
vt 0.4180493 0.5461547
vt 0.5527253 0.4280938
vt 0.5527253 0.4280938
vt 0.4180493 0.5461547
vt 0.4710005 0.4165545
vt 0.4710005 0.4165545
vt 0.4180493 0.5461547
vt 0.4180633 0.5457077
vt 0.3531863 0.481017
vt 0.3566462 0.471061
vt 0.3894992 0.5012456
vt 0.3894992 0.5012456
vt 0.3566462 0.471061
vt 0.4766956 0.450404
vt 0.4766956 0.450404
vt 0.3566462 0.471061
vt 0.4255652 0.4093041
vt 0.6672798 0.4623716
vt 0.6541386 0.4755873
vt 0.6614031 0.4389811
vt 0.6614031 0.4389811
vt 0.6541386 0.4755873
vt 0.6556473 0.4355584
vt 0.6556473 0.4355584
vt 0.6541386 0.4755873
vt 0.5093622 0.4428229
vt 0.5093622 0.4428229
vt 0.6541386 0.4755873
vt 0.5046124 0.452872
vt 0.5046124 0.452872
vt 0.6541386 0.4755873
vt 0.5055903 0.4584973
vt 0.5140468 0.3927495
vt 0.6725045 0.4122424
vt 0.4510373 0.4991222
vt 0.4510373 0.4991222
vt 0.6725045 0.4122424
vt 0.590491 0.5131109
vt 0.416941 0.5721856
vt 0.3961629 0.5579548
vt 0.4832662 0.5753428
vt 0.4832662 0.5753428
vt 0.3961629 0.5579548
vt 0.617388 0.4772078
vt 0.617388 0.4772078
vt 0.3961629 0.5579548
vt 0.620033 0.4655102
vt 0.620033 0.4655102
vt 0.3961629 0.5579548
vt 0.4362523 0.4472001
vt 0.4283173 0.538257
vt 0.3077836 0.4729889
vt 0.4937623 0.5396074
vt 0.4937623 0.5396074
vt 0.3077836 0.4729889
vt 0.4411604 0.433258
vt 0.4411604 0.433258
vt 0.3077836 0.4729889
vt 0.3117418 0.4487741
vt 0.4849705 0.5970337
vt 0.4628652 0.4630701
vt 0.4977671 0.5954504
vt 0.4977671 0.5954504
vt 0.4628652 0.4630701
vt 0.5026473 0.4703811
vt 0.1864537 0.6357586
vt 0.4341708 0.5738527
vt 0.183967 0.6483876
vt 0.183967 0.6483876
vt 0.4341708 0.5738527
vt 0.4236932 0.5930941
vt 0.5555472 0.5189503
vt 0.4487834 0.3694847
vt 0.6413606 0.3974341
vt 0.6413606 0.3974341
vt 0.4487834 0.3694847
vt 0.5882093 0.3211111
vt 0.4857389 0.5396726
vt 0.4504319 0.5220238
vt 0.5113925 0.5365806
vt 0.5113925 0.5365806
vt 0.4504319 0.5220238
vt 0.5801625 0.4439125
vt 0.5801625 0.4439125
vt 0.4504319 0.5220238
vt 0.5790821 0.4383292
vt 0.3848658 0.4356236
vt 0.3956786 0.4293697
vt 0.4185336 0.5587837
vt 0.4185336 0.5587837
vt 0.3956786 0.4293697
vt 0.5124729 0.5851684
vt 0.5124729 0.5851684
vt 0.3956786 0.4293697
vt 0.5981932 0.5683485
vt 0.5981932 0.5683485
vt 0.3956786 0.4293697
vt 0.5815781 0.4193532
vt 0.7218748 0.5191646
vt 0.5702251 0.5394398
vt 0.7645673 0.4753545
vt 0.7645673 0.4753545
vt 0.5702251 0.5394398
vt 0.600596 0.337009
vt 0.600596 0.337009
vt 0.5702251 0.5394398
vt 0.5387552 0.4949032
vt 0.5978486 0.3954551
vt 0.7058837 0.4749074
vt 0.4265897 0.38664
vt 0.4265897 0.38664
vt 0.7058837 0.4749074
vt 0.4016857 0.4644113
vt 0.4016857 0.4644113
vt 0.7058837 0.4749074
vt 0.4187012 0.4956576
vt 0.4187012 0.4956576
vt 0.7058837 0.4749074
vt 0.581159 0.5541083
vt 0.5201844 0.3815223
vt 0.4002049 0.4568581
vt 0.3787422 0.2642343
vt 0.3787422 0.2642343
vt 0.4002049 0.4568581
vt 0.3722927 0.2888356
vt 0.3722927 0.2888356
vt 0.4002049 0.4568581
vt 0.3939975 0.4535146

usemtl Material0
usemap Material0

usemtl Material1
usemap Material1
f 1/1/1 2/2/2 3/3/3
f 4/4/4 5/5/5 6/6/6
f 7/7/7 8/8/8 9/9/9
f 10/10/10 11/11/11 12/12/12
f 13/13/13 14/14/14 15/15/15
f 16/16/16 17/17/17 18/18/18
f 19/19/19 20/20/20 21/21/21
f 22/22/22 23/23/23 24/24/24
f 25/25/25 26/26/26 27/27/27
f 28/28/28 29/29/29 30/30/30
f 31/31/31 32/32/32 33/33/33
f 34/34/34 35/35/35 36/36/36
f 37/37/37 38/38/38 39/39/39
f 40/40/40 41/41/41 42/42/42
f 43/43/43 44/44/44 45/45/45
f 46/46/46 47/47/47 48/48/48
f 49/49/49 50/50/50 51/51/51
f 52/52/52 53/53/53 54/54/54
f 55/55/55 56/56/56 57/57/57
f 58/58/58 59/59/59 60/60/60
f 61/61/61 62/62/62 63/63/63
f 64/64/64 65/65/65 66/66/66
f 67/67/67 68/68/68 69/69/69
f 70/70/70 71/71/71 72/72/72
f 73/73/73 74/74/74 75/75/75
f 76/76/76 77/77/77 78/78/78
f 79/79/79 80/80/80 81/81/81
f 82/82/82 83/83/83 84/84/84
f 85/85/85 86/86/86 87/87/87
f 88/88/88 89/89/89 90/90/90
f 91/91/91 92/92/92 93/93/93
f 94/94/94 95/95/95 96/96/96
f 97/97/97 98/98/98 99/99/99
f 100/100/100 101/101/101 102/102/102
f 103/103/103 104/104/104 105/105/105
f 106/106/106 107/107/107 108/108/108
f 109/109/109 110/110/110 111/111/111
f 112/112/112 113/113/113 114/114/114
f 115/115/115 116/116/116 117/117/117
f 118/118/118 119/119/119 120/120/120
f 121/121/121 122/122/122 123/123/123
f 124/124/124 125/125/125 126/126/126
f 127/127/127 128/128/128 129/129/129
f 130/130/130 131/131/131 132/132/132
f 133/133/133 134/134/134 135/135/135
f 136/136/136 137/137/137 138/138/138
f 139/139/139 140/140/140 141/141/141
f 142/142/142 143/143/143 144/144/144
f 145/145/145 146/146/146 147/147/147
f 148/148/148 149/149/149 150/150/150
f 151/151/151 152/152/152 153/153/153
f 154/154/154 155/155/155 156/156/156
f 157/157/157 158/158/158 159/159/159
f 160/160/160 161/161/161 162/162/162
f 163/163/163 164/164/164 165/165/165
f 166/166/166 167/167/167 168/168/168
f 169/169/169 170/170/170 171/171/171
f 172/172/172 173/173/173 174/174/174
f 175/175/175 176/176/176 177/177/177
f 178/178/178 179/179/179 180/180/180
f 181/181/181 182/182/182 183/183/183
f 184/184/184 185/185/185 186/186/186
f 187/187/187 188/188/188 189/189/189
f 190/190/190 191/191/191 192/192/192
