g  Instance
v 1.484462 -57.7901 6.09186
v 1.312774 -57.65822 6.290283
v 1.233479 -57.75615 6.157043
v 2.555278 -56.93752 6.922821
v 1.798501 -56.89732 7.157515
v 2.083292 -57.34211 6.561524
v 2.083292 -57.34211 6.561524
v 1.798501 -56.89732 7.157515
v 1.70225 -57.06834 6.979245
v 2.083292 -57.34211 6.561524
v 2.916878 -57.41106 6.18231
v 2.555278 -56.93752 6.922821
v 2.555278 -56.93752 6.922821
v 2.916878 -57.41106 6.18231
v 2.73322 -56.93919 6.858807
v 3.269704 -56.91795 6.635934
v 2.73322 -56.93919 6.858807
v 3.27064 -57.18742 6.297941
v 3.27064 -57.18742 6.297941
v 2.73322 -56.93919 6.858807
v 2.916878 -57.41106 6.18231
v 3.266691 -57.41106 5.983054
v 3.27064 -57.18742 6.297941
v 2.916878 -57.41106 6.18231
v 1.484462 -57.7901 6.09186
v 1.454782 -57.44362 6.541335
v 1.312774 -57.65822 6.290283
v 2.083292 -57.34211 6.561524
v 1.70225 -57.06834 6.979245
v 1.484462 -57.7901 6.09186
v 1.484462 -57.7901 6.09186
v 1.70225 -57.06834 6.979245
v 1.454782 -57.44362 6.541335
v 1.484462 -57.7901 6.09186
v 1.233479 -57.75615 6.157043
v 1.104098 -57.89188 5.947274
v 1.484462 -57.7901 6.09186
v 1.104098 -57.89188 5.947274
v 1.250452 -58.14043 5.533936
v 1.250452 -58.14043 5.533936
v 1.104098 -57.89188 5.947274
v 0.9847549 -58.01412 5.75472
v 1.484462 -57.7901 6.09186
v 1.250452 -58.14043 5.533936
v 1.830242 -58.09818 5.449873
v 1.830242 -58.09818 5.449873
v 1.250452 -58.14043 5.533936
v 1.479202 -58.23046 5.311282
v 1.484462 -57.7901 6.09186
v 1.830242 -58.09818 5.449873
v 2.364837 -57.88242 5.646348
v 2.916878 -57.41106 6.18231
v 2.083292 -57.34211 6.561524
v 1.484462 -57.7901 6.09186
v 1.484462 -57.7901 6.09186
v 2.364837 -57.88242 5.646348
v 2.916878 -57.41106 6.18231
v 2.916878 -57.41106 6.18231
v 2.364837 -57.88242 5.646348
v 2.799827 -57.69152 5.790582
v 2.799827 -57.69152 5.790582
v 3.264689 -57.4553 5.911891
v 2.916878 -57.41106 6.18231
v 2.916878 -57.41106 6.18231
v 3.264689 -57.4553 5.911891
v 3.266691 -57.41106 5.983054
v 0.8296533 -56.30652 3.039921
v 0.2419938 -56.38262 4.146962
v 0.895117 -56.17458 2.989486
v 0.895117 -56.17458 2.989486
v 0.2419938 -56.38262 4.146962
v 0.7730716 -55.63323 3.548328
v 0.7730716 -55.63323 3.548328
v 0.2419938 -56.38262 4.146962
v 0.6764927 -55.58746 3.764675
v 0.895117 -56.17458 2.989486
v 0.7730716 -55.63323 3.548328
v 1.492113 -55.70804 2.890548
v 0.7730716 -55.63323 3.548328
v 0.6764927 -55.58746 3.764675
v 1.492113 -55.70804 2.890548
v 1.492113 -55.70804 2.890548
v 0.6764927 -55.58746 3.764675
v 1.733508 -55.66303 2.920928
v 1.733508 -55.66303 2.920928
v 0.6764927 -55.58746 3.764675
v 1.215528 -55.07578 5.305406
v 1.215528 -55.07578 5.305406
v 0.6764927 -55.58746 3.764675
v 0.9811463 -55.08431 5.401917
v 0.9811463 -55.08431 5.401917
v 0.6764927 -55.58746 3.764675
v 0.7455823 -55.35879 4.546356
v 1.454782 -57.44362 6.541335
v 1.70225 -57.06834 6.979245
v 1.312774 -57.65822 6.290283
v 1.312774 -57.65822 6.290283
v 1.70225 -57.06834 6.979245
v 1.233479 -57.75615 6.157043
v 1.233479 -57.75615 6.157043
v 1.70225 -57.06834 6.979245
v 1.104098 -57.89188 5.947274
v 1.104098 -57.89188 5.947274
v 1.70225 -57.06834 6.979245
v 0.9847549 -58.01412 5.75472
v 0.9847549 -58.01412 5.75472
v 1.70225 -57.06834 6.979245
v 0.04386721 -56.66654 4.969653
v 0.04386721 -56.66654 4.969653
v 1.70225 -57.06834 6.979245
v 0.578146 -55.50343 6.027007
v 0.578146 -55.50343 6.027007
v 1.70225 -57.06834 6.979245
v 1.798501 -56.89732 7.157515
v 0.04386721 -56.66654 4.969653
v 0.578146 -55.50343 6.027007
v 0.2419938 -56.38262 4.146962
v 0.2419938 -56.38262 4.146962
v 0.578146 -55.50343 6.027007
v 0.6764927 -55.58746 3.764675
v 0.6764927 -55.58746 3.764675
v 0.578146 -55.50343 6.027007
v 0.7455823 -55.35879 4.546356
v 0.7455823 -55.35879 4.546356
v 0.578146 -55.50343 6.027007
v 0.7012777 -55.29868 5.748949
v 1.479202 -58.23046 5.311282
v 1.250452 -58.14043 5.533936
v 0.9736282 -56.52246 3.177021
v 0.9736282 -56.52246 3.177021
v 1.250452 -58.14043 5.533936
v 0.8296533 -56.30652 3.039921
v 0.8296533 -56.30652 3.039921
v 1.250452 -58.14043 5.533936
v 0.2419938 -56.38262 4.146962
v 0.2419938 -56.38262 4.146962
v 1.250452 -58.14043 5.533936
v 0.04386721 -56.66654 4.969653
v 0.04386721 -56.66654 4.969653
v 1.250452 -58.14043 5.533936
v 0.9847549 -58.01412 5.75472
v 0.9811463 -55.08431 5.401917
v 0.7455823 -55.35879 4.546356
v 0.7012777 -55.29868 5.748949
v 0.578146 -55.50343 6.027007
v 1.798501 -56.89732 7.157515
v 0.7012777 -55.29868 5.748949
v 0.7012777 -55.29868 5.748949
v 1.798501 -56.89732 7.157515
v 0.9811463 -55.08431 5.401917
v 0.9811463 -55.08431 5.401917
v 1.798501 -56.89732 7.157515
v 1.215528 -55.07578 5.305406
v 1.215528 -55.07578 5.305406
v 1.798501 -56.89732 7.157515
v 3.080758 -56.31982 6.026849
v 3.080758 -56.31982 6.026849
v 1.798501 -56.89732 7.157515
v 3.269704 -56.91795 6.635934
v 3.269704 -56.91795 6.635934
v 1.798501 -56.89732 7.157515
v 2.73322 -56.93919 6.858807
v 2.73322 -56.93919 6.858807
v 1.798501 -56.89732 7.157515
v 2.555278 -56.93752 6.922821
v 1.733508 -55.66303 2.920928
v 1.764284 -55.68312 2.937459
v 1.492113 -55.70804 2.890548
v 1.492113 -55.70804 2.890548
v 1.764284 -55.68312 2.937459
v 0.895117 -56.17458 2.989486
v 0.895117 -56.17458 2.989486
v 1.764284 -55.68312 2.937459
v 0.8296533 -56.30652 3.039921
v 0.8296533 -56.30652 3.039921
v 1.764284 -55.68312 2.937459
v 0.9736282 -56.52246 3.177021
v 3.269704 -56.91795 6.635934
v 3.27064 -57.18742 6.297941
v 3.080758 -56.31982 6.026849
v 3.080758 -56.31982 6.026849
v 3.27064 -57.18742 6.297941
v 2.860847 -56.31413 4.434486
v 2.860847 -56.31413 4.434486
v 3.27064 -57.18742 6.297941
v 3.264689 -57.4553 5.911891
v 3.264689 -57.4553 5.911891
v 3.27064 -57.18742 6.297941
v 3.266691 -57.41106 5.983054
v 3.080758 -56.31982 6.026849
v 2.860847 -56.31413 4.434486
v 1.215528 -55.07578 5.305406
v 1.215528 -55.07578 5.305406
v 2.860847 -56.31413 4.434486
v 1.733508 -55.66303 2.920928
v 1.733508 -55.66303 2.920928
v 2.860847 -56.31413 4.434486
v 1.764284 -55.68312 2.937459
v 2.364837 -57.88242 5.646348
v 1.830242 -58.09818 5.449873
v 2.799827 -57.69152 5.790582
v 2.799827 -57.69152 5.790582
v 1.830242 -58.09818 5.449873
v 3.264689 -57.4553 5.911891
v 3.264689 -57.4553 5.911891
v 1.830242 -58.09818 5.449873
v 2.860847 -56.31413 4.434486
v 2.860847 -56.31413 4.434486
v 1.830242 -58.09818 5.449873
v 1.764284 -55.68312 2.937459
v 1.764284 -55.68312 2.937459
v 1.830242 -58.09818 5.449873
v 0.9736282 -56.52246 3.177021
v 0.9736282 -56.52246 3.177021
v 1.830242 -58.09818 5.449873
v 1.479202 -58.23046 5.311282

vn 0.03932886 -0.8161616 0.5764837
vn 0.03932886 -0.8161616 0.5764837
vn 0.03932886 -0.8161616 0.5764837
vn 0.1577951 -0.7537529 0.6379319
vn 0.1577951 -0.7537529 0.6379319
vn 0.1577951 -0.7537529 0.6379319
vn 0.1577951 -0.7537529 0.6379319
vn 0.1577951 -0.7537529 0.6379319
vn 0.1577951 -0.7537529 0.6379319
vn 0.2074314 -0.775028 0.5969117
vn 0.2074314 -0.775028 0.5969117
vn 0.2074314 -0.775028 0.5969117
vn 0.2074314 -0.775028 0.5969117
vn 0.2074314 -0.775028 0.5969117
vn 0.2074314 -0.775028 0.5969117
vn 0.2786471 -0.7505595 0.5991796
vn 0.2786471 -0.7505595 0.5991796
vn 0.2786471 -0.7505595 0.5991796
vn 0.2786471 -0.7505595 0.5991796
vn 0.2786471 -0.7505595 0.5991796
vn 0.2786471 -0.7505595 0.5991796
vn 0.3118959 -0.7764654 0.5475604
vn 0.3118959 -0.7764654 0.5475604
vn 0.3118959 -0.7764654 0.5475604
vn 0.10423 -0.7843501 0.611499
vn 0.10423 -0.7843501 0.611499
vn 0.10423 -0.7843501 0.611499
vn 0.1069956 -0.7840288 0.6114334
vn 0.1054436 -0.7842091 0.6114702
vn 0.10423 -0.7843501 0.611499
vn 0.10423 -0.7843501 0.611499
vn 0.1054436 -0.7842091 0.6114702
vn 0.10423 -0.7843501 0.611499
vn 0.02391106 -0.8459943 0.5326554
vn 0.02391106 -0.8459943 0.5326554
vn 0.02391106 -0.8459943 0.5326554
vn 0.02391106 -0.8459943 0.5326554
vn 0.02391106 -0.8459943 0.5326554
vn 0.02778944 -0.8503201 0.5254999
vn 0.02778944 -0.8503201 0.5254999
vn 0.02391106 -0.8459943 0.5326554
vn 0.0251283 -0.847352 0.5304096
vn 0.1334401 -0.8635558 0.4862767
vn 0.1334401 -0.8635558 0.4862767
vn 0.1334401 -0.8635558 0.4862767
vn 0.1334401 -0.8635558 0.4862767
vn 0.1334401 -0.8635558 0.4862767
vn 0.1334401 -0.8635558 0.4862767
vn 0.1334401 -0.8635558 0.4862767
vn 0.1334401 -0.8635558 0.4862767
vn 0.1538691 -0.8558581 0.4935851
vn 0.1815539 -0.8167911 0.5476226
vn 0.1815539 -0.8167911 0.5476226
vn 0.1815539 -0.8167911 0.5476226
vn 0.1815539 -0.8167911 0.5476226
vn 0.1835738 -0.8222791 0.5386216
vn 0.1815539 -0.8167911 0.5476226
vn 0.1815539 -0.8167911 0.5476226
vn 0.1835738 -0.8222791 0.5386216
vn 0.1831031 -0.8210003 0.540719
vn 0.2849485 -0.8176507 0.5002515
vn 0.2849485 -0.8176507 0.5002515
vn 0.2849485 -0.8176507 0.5002515
vn 0.2849485 -0.8176507 0.5002515
vn 0.2849485 -0.8176507 0.5002515
vn 0.2849485 -0.8176507 0.5002515
vn -0.8603635 0.2591154 -0.438901
vn -0.8603635 0.2591154 -0.438901
vn -0.8603635 0.2591154 -0.438901
vn -0.8603635 0.2591154 -0.438901
vn -0.8603635 0.2591154 -0.438901
vn -0.8603635 0.2591154 -0.438901
vn -0.8603635 0.2591154 -0.438901
vn -0.8603635 0.2591154 -0.438901
vn -0.8603635 0.2591154 -0.438901
vn -0.5337871 0.5461299 -0.6456109
vn -0.5337871 0.5461299 -0.6456109
vn -0.5337871 0.5461299 -0.6456109
vn -0.1442305 0.9531048 -0.2660616
vn -0.1442305 0.9531048 -0.2660616
vn -0.1442305 0.9531048 -0.2660616
vn -0.1442305 0.9531048 -0.2660616
vn -0.1442305 0.9531048 -0.2660616
vn -0.1442305 0.9531048 -0.2660616
vn -0.1442305 0.9531048 -0.2660616
vn -0.1442305 0.9531048 -0.2660616
vn -0.1442305 0.9531048 -0.2660616
vn -0.1442305 0.9531048 -0.2660616
vn -0.1442305 0.9531048 -0.2660616
vn -0.1442305 0.9531048 -0.2660616
vn -0.1442305 0.9531048 -0.2660616
vn -0.1442305 0.9531048 -0.2660616
vn -0.1442305 0.9531048 -0.2660616
vn -0.7754996 -0.1908596 0.601808
vn -0.7754996 -0.1908596 0.601808
vn -0.7754996 -0.1908596 0.601808
vn -0.7754996 -0.1908596 0.601808
vn -0.7754996 -0.1908596 0.601808
vn -0.7754996 -0.1908596 0.601808
vn -0.7754996 -0.1908596 0.601808
vn -0.7754996 -0.1908596 0.601808
vn -0.7754996 -0.1908596 0.601808
vn -0.7754996 -0.1908596 0.601808
vn -0.7754996 -0.1908596 0.601808
vn -0.7754996 -0.1908596 0.601808
vn -0.7754996 -0.1908596 0.601808
vn -0.7754996 -0.1908596 0.601808
vn -0.7754996 -0.1908596 0.601808
vn -0.7754996 -0.1908596 0.601808
vn -0.7754996 -0.1908596 0.601808
vn -0.7754996 -0.1908596 0.601808
vn -0.7754996 -0.1908596 0.601808
vn -0.7754996 -0.1908596 0.601808
vn -0.7754996 -0.1908596 0.601808
vn -0.8871835 0.4580571 -0.05558057
vn -0.8871835 0.4580571 -0.05558057
vn -0.8871835 0.4580571 -0.05558057
vn -0.8871835 0.4580571 -0.05558057
vn -0.8871835 0.4580571 -0.05558057
vn -0.8871835 0.4580571 -0.05558057
vn -0.8871835 0.4580571 -0.05558057
vn -0.8871835 0.4580571 -0.05558057
vn -0.8871835 0.4580571 -0.05558057
vn -0.8871835 0.4580571 -0.05558057
vn -0.8871835 0.4580571 -0.05558057
vn -0.8871835 0.4580571 -0.05558057
vn -0.6368886 -0.6684685 -0.3840871
vn -0.6368886 -0.6684685 -0.3840871
vn -0.6368886 -0.6684685 -0.3840871
vn -0.6368886 -0.6684685 -0.3840871
vn -0.6368886 -0.6684685 -0.3840871
vn -0.6368886 -0.6684685 -0.3840871
vn -0.6368886 -0.6684685 -0.3840871
vn -0.6368886 -0.6684685 -0.3840871
vn -0.6368886 -0.6684685 -0.3840871
vn -0.6368886 -0.6684685 -0.3840871
vn -0.6368886 -0.6684685 -0.3840871
vn -0.6368886 -0.6684685 -0.3840871
vn -0.6368886 -0.6684685 -0.3840871
vn -0.6368886 -0.6684685 -0.3840871
vn -0.6368886 -0.6684685 -0.3840871
vn -0.6540685 0.7539082 -0.06178133
vn -0.6540685 0.7539082 -0.06178133
vn -0.6540685 0.7539082 -0.06178133
vn 0.2378331 0.7288922 0.6419904
vn 0.2378331 0.7288922 0.6419904
vn 0.2378331 0.7288922 0.6419904
vn 0.2378331 0.7288922 0.6419904
vn 0.2378331 0.7288922 0.6419904
vn 0.2378331 0.7288922 0.6419904
vn 0.2378331 0.7288922 0.6419904
vn 0.2378331 0.7288922 0.6419904
vn 0.2378331 0.7288922 0.6419904
vn 0.2378331 0.7288922 0.6419904
vn 0.2378331 0.7288922 0.6419904
vn 0.2378331 0.7288922 0.6419904
vn 0.2378331 0.7288922 0.6419904
vn 0.2378331 0.7288922 0.6419904
vn 0.2378331 0.7288922 0.6419904
vn 0.2378331 0.7288922 0.6419904
vn 0.2378331 0.7288922 0.6419904
vn 0.2378331 0.7288922 0.6419904
vn 0.2378331 0.7288922 0.6419904
vn 0.2378331 0.7288922 0.6419904
vn 0.2378331 0.7288922 0.6419904
vn 0.1914546 -0.431907 -0.8813635
vn 0.1914546 -0.431907 -0.8813635
vn 0.1914546 -0.431907 -0.8813635
vn 0.1914546 -0.431907 -0.8813635
vn 0.1914546 -0.431907 -0.8813635
vn 0.1914546 -0.431907 -0.8813635
vn 0.1914546 -0.431907 -0.8813635
vn 0.1914546 -0.431907 -0.8813635
vn 0.1914546 -0.431907 -0.8813635
vn 0.1914546 -0.431907 -0.8813635
vn 0.1914546 -0.431907 -0.8813635
vn 0.1914546 -0.431907 -0.8813635
vn 0.9759738 0.1716775 -0.1341716
vn 0.9759738 0.1716775 -0.1341716
vn 0.9759738 0.1716775 -0.1341716
vn 0.9759738 0.1716775 -0.1341716
vn 0.9759738 0.1716775 -0.1341716
vn 0.9759738 0.1716775 -0.1341716
vn 0.9759738 0.1716775 -0.1341716
vn 0.9759738 0.1716775 -0.1341716
vn 0.9759738 0.1716775 -0.1341716
vn 0.9759738 0.1716775 -0.1341716
vn 0.9759738 0.1716775 -0.1341716
vn 0.9759738 0.1716775 -0.1341716
vn 0.5735123 0.8156366 -0.07629457
vn 0.5735123 0.8156366 -0.07629457
vn 0.5735123 0.8156366 -0.07629457
vn 0.5735123 0.8156366 -0.07629457
vn 0.5735123 0.8156366 -0.07629457
vn 0.5735123 0.8156366 -0.07629457
vn 0.5735123 0.8156366 -0.07629457
vn 0.5735123 0.8156366 -0.07629457
vn 0.5735123 0.8156366 -0.07629457
vn 0.4788691 -0.6265872 -0.6148763
vn 0.4788691 -0.6265872 -0.6148763
vn 0.4788691 -0.6265872 -0.6148763
vn 0.4788691 -0.6265872 -0.6148763
vn 0.4788691 -0.6265872 -0.6148763
vn 0.4788691 -0.6265872 -0.6148763
vn 0.4788691 -0.6265872 -0.6148763
vn 0.4788691 -0.6265872 -0.6148763
vn 0.4788691 -0.6265872 -0.6148763
vn 0.4788691 -0.6265872 -0.6148763
vn 0.4788691 -0.6265872 -0.6148763
vn 0.4788691 -0.6265872 -0.6148763
vn 0.4788691 -0.6265872 -0.6148763
vn 0.4788691 -0.6265872 -0.6148763
vn 0.4788691 -0.6265872 -0.6148763
vn 0.4788691 -0.6265872 -0.6148763
vn 0.4788691 -0.6265872 -0.6148763
vn 0.4788691 -0.6265872 -0.6148763

vt 0.9080072 0.1432992
vt 0.9080822 0.1432674
vt 0.9080508 0.1432308
vt 0.9081462 0.1436998
vt 0.9082893 0.1434972
vt 0.9080865 0.1435237
vt 0.9080865 0.1435237
vt 0.9082893 0.1434972
vt 0.9082465 0.1434511
vt 0.9080865 0.1435237
vt 0.9078931 0.1437351
vt 0.9081462 0.1436998
vt 0.9081462 0.1436998
vt 0.9078931 0.1437351
vt 0.9081099 0.1437466
vt 0.9079913 0.1438848
vt 0.9081099 0.1437466
vt 0.907892 0.143852
vt 0.907892 0.143852
vt 0.9081099 0.1437466
vt 0.9078931 0.1437351
vt 0.9077998 0.1438199
vt 0.907892 0.143852
vt 0.9078931 0.1437351
vt 0.9080072 0.1432992
vt 0.9081421 0.1433344
vt 0.9080822 0.1432674
vt 0.9080865 0.1435237
vt 0.9082465 0.1434511
vt 0.9080072 0.1432992
vt 0.9080072 0.1432992
vt 0.9082465 0.1434511
vt 0.9081421 0.1433344
vt 0.9080072 0.1432992
vt 0.9080508 0.1432308
vt 0.9080016 0.1431717
vt 0.9080072 0.1432992
vt 0.9080016 0.1431717
vt 0.9078656 0.1431749
vt 0.9078656 0.1431749
vt 0.9080016 0.1431717
vt 0.9079565 0.1431173
vt 0.9080072 0.1432992
vt 0.9078656 0.1431749
vt 0.907784 0.1433395
vt 0.907784 0.1433395
vt 0.9078656 0.1431749
vt 0.9077775 0.1432213
vt 0.9080072 0.1432992
vt 0.907784 0.1433395
vt 0.9077895 0.1435181
vt 0.9078931 0.1437351
vt 0.9080865 0.1435237
vt 0.9080072 0.1432992
vt 0.9080072 0.1432992
vt 0.9077895 0.1435181
vt 0.9078931 0.1437351
vt 0.9078931 0.1437351
vt 0.9077895 0.1435181
vt 0.9077892 0.1436619
vt 0.9077892 0.1436619
vt 0.907779 0.1438124
vt 0.9078931 0.1437351
vt 0.9078931 0.1437351
vt 0.907779 0.1438124
vt 0.9077998 0.1438199
vt 0.4895434 0.5622668
vt 0.4658781 0.4419474
vt 0.5037277 0.5677524
vt 0.5037277 0.5677524
vt 0.4658781 0.4419474
vt 0.5509092 0.5070106
vt 0.5509092 0.5070106
vt 0.4658781 0.4419474
vt 0.5524738 0.4834943
vt 0.4769098 0.555673
vt 0.5103588 0.4715826
vt 0.5634357 0.5705557
vt 0.4579897 0.5202263
vt 0.4499196 0.4997928
vt 0.5216932 0.5823465
vt 0.5216932 0.5823465
vt 0.4499196 0.4997928
vt 0.5440359 0.579478
vt 0.5440359 0.579478
vt 0.4499196 0.4997928
vt 0.5054041 0.3542899
vt 0.5054041 0.3542899
vt 0.4499196 0.4997928
vt 0.4841928 0.3451768
vt 0.4841928 0.3451768
vt 0.4499196 0.4997928
vt 0.4592516 0.425975
vt 0.3806235 0.2872896
vt 0.4141703 0.2270414
vt 0.3614566 0.3218329
vt 0.3614566 0.3218329
vt 0.4141703 0.2270414
vt 0.3530885 0.3401616
vt 0.3530885 0.3401616
vt 0.4141703 0.2270414
vt 0.342001 0.3690237
vt 0.342001 0.3690237
vt 0.4141703 0.2270414
vt 0.3320915 0.3955156
vt 0.3320915 0.3955156
vt 0.4141703 0.2270414
vt 0.5005797 0.5035274
vt 0.5005797 0.5035274
vt 0.4141703 0.2270414
vt 0.6106545 0.3580572
vt 0.6106545 0.3580572
vt 0.4141703 0.2270414
vt 0.4298913 0.2025146
vt 0.4227479 0.4098163
vt 0.5351231 0.3167385
vt 0.4529092 0.482237
vt 0.4529092 0.482237
vt 0.5351231 0.3167385
vt 0.5325246 0.5158862
vt 0.5325246 0.5158862
vt 0.5351231 0.3167385
vt 0.5531723 0.4470791
vt 0.5531723 0.4470791
vt 0.5351231 0.3167385
vt 0.5560781 0.3412187
vt 0.367785 0.3384013
vt 0.3894293 0.3154858
vt 0.5145405 0.5581038
vt 0.5145405 0.5581038
vt 0.3894293 0.3154858
vt 0.5386062 0.5722135
vt 0.5386062 0.5722135
vt 0.3894293 0.3154858
vt 0.5740622 0.4582644
vt 0.5740622 0.4582644
vt 0.3894293 0.3154858
vt 0.5690889 0.373578
vt 0.5690889 0.373578
vt 0.3894293 0.3154858
vt 0.4159957 0.2927612
vt 0.5485808 0.3703322
vt 0.5171203 0.4457007
vt 0.5176418 0.3397564
vt 0.3860998 0.3636266
vt 0.5683718 0.1948683
vt 0.392228 0.4051363
vt 0.392228 0.4051363
vt 0.5683718 0.1948683
vt 0.415069 0.4569419
vt 0.415069 0.4569419
vt 0.5683718 0.1948683
vt 0.440271 0.4713497
vt 0.440271 0.4713497
vt 0.5683718 0.1948683
vt 0.6873873 0.3636499
vt 0.6873873 0.3636499
vt 0.5683718 0.1948683
vt 0.7291765 0.2727281
vt 0.7291765 0.2727281
vt 0.5683718 0.1948683
vt 0.6715639 0.2394561
vt 0.6715639 0.2394561
vt 0.5683718 0.1948683
vt 0.6521362 0.2299006
vt 0.3828354 0.6719504
vt 0.3791241 0.6654497
vt 0.4272136 0.6838995
vt 0.4272136 0.6838995
vt 0.3791241 0.6654497
vt 0.5637057 0.6449975
vt 0.5637057 0.6449975
vt 0.3791241 0.6654497
vt 0.584754 0.62516
vt 0.584754 0.62516
vt 0.3791241 0.6654497
vt 0.5765582 0.5712543
vt 0.5789331 0.2472328
vt 0.6024494 0.277436
vt 0.5238725 0.3016601
vt 0.5238725 0.3016601
vt 0.6024494 0.277436
vt 0.5199981 0.4439591
vt 0.5199981 0.4439591
vt 0.6024494 0.277436
vt 0.6257235 0.3119327
vt 0.6257235 0.3119327
vt 0.6024494 0.277436
vt 0.6218957 0.3055717
vt 0.6231437 0.3151412
vt 0.6070222 0.4556939
vt 0.4258818 0.3788121
vt 0.4258818 0.3788121
vt 0.6070222 0.4556939
vt 0.4929008 0.589285
vt 0.4929008 0.589285
vt 0.6070222 0.4556939
vt 0.4961326 0.5878227
vt 0.5136278 0.2299052
vt 0.5754685 0.2576311
vt 0.4622738 0.2095555
vt 0.4622738 0.2095555
vt 0.5754685 0.2576311
vt 0.4052155 0.1924422
vt 0.4052155 0.1924422
vt 0.5754685 0.2576311
vt 0.3638082 0.4008987
vt 0.3638082 0.4008987
vt 0.5754685 0.2576311
vt 0.4181145 0.6121306
vt 0.4181145 0.6121306
vt 0.5754685 0.2576311
vt 0.5447344 0.5783231
vt 0.5447344 0.5783231
vt 0.5754685 0.2576311
vt 0.6154416 0.2771845

usemtl Material0
usemap Material0
f 1/1/1 2/2/2 3/3/3
f 4/4/4 5/5/5 6/6/6
f 7/7/7 8/8/8 9/9/9
f 10/10/10 11/11/11 12/12/12
f 13/13/13 14/14/14 15/15/15
f 16/16/16 17/17/17 18/18/18
f 19/19/19 20/20/20 21/21/21
f 22/22/22 23/23/23 24/24/24
f 25/25/25 26/26/26 27/27/27
f 28/28/28 29/29/29 30/30/30
f 31/31/31 32/32/32 33/33/33
f 34/34/34 35/35/35 36/36/36
f 37/37/37 38/38/38 39/39/39
f 40/40/40 41/41/41 42/42/42
f 43/43/43 44/44/44 45/45/45
f 46/46/46 47/47/47 48/48/48
f 49/49/49 50/50/50 51/51/51
f 52/52/52 53/53/53 54/54/54
f 55/55/55 56/56/56 57/57/57
f 58/58/58 59/59/59 60/60/60
f 61/61/61 62/62/62 63/63/63
f 64/64/64 65/65/65 66/66/66

usemtl Material1
usemap Material1
f 67/67/67 68/68/68 69/69/69
f 70/70/70 71/71/71 72/72/72
f 73/73/73 74/74/74 75/75/75
f 76/76/76 77/77/77 78/78/78
f 79/79/79 80/80/80 81/81/81
f 82/82/82 83/83/83 84/84/84
f 85/85/85 86/86/86 87/87/87
f 88/88/88 89/89/89 90/90/90
f 91/91/91 92/92/92 93/93/93
f 94/94/94 95/95/95 96/96/96
f 97/97/97 98/98/98 99/99/99
f 100/100/100 101/101/101 102/102/102
f 103/103/103 104/104/104 105/105/105
f 106/106/106 107/107/107 108/108/108
f 109/109/109 110/110/110 111/111/111
f 112/112/112 113/113/113 114/114/114
f 115/115/115 116/116/116 117/117/117
f 118/118/118 119/119/119 120/120/120
f 121/121/121 122/122/122 123/123/123
f 124/124/124 125/125/125 126/126/126
f 127/127/127 128/128/128 129/129/129
f 130/130/130 131/131/131 132/132/132
f 133/133/133 134/134/134 135/135/135
f 136/136/136 137/137/137 138/138/138
f 139/139/139 140/140/140 141/141/141
f 142/142/142 143/143/143 144/144/144
f 145/145/145 146/146/146 147/147/147
f 148/148/148 149/149/149 150/150/150
f 151/151/151 152/152/152 153/153/153
f 154/154/154 155/155/155 156/156/156
f 157/157/157 158/158/158 159/159/159
f 160/160/160 161/161/161 162/162/162
f 163/163/163 164/164/164 165/165/165
f 166/166/166 167/167/167 168/168/168
f 169/169/169 170/170/170 171/171/171
f 172/172/172 173/173/173 174/174/174
f 175/175/175 176/176/176 177/177/177
f 178/178/178 179/179/179 180/180/180
f 181/181/181 182/182/182 183/183/183
f 184/184/184 185/185/185 186/186/186
f 187/187/187 188/188/188 189/189/189
f 190/190/190 191/191/191 192/192/192
f 193/193/193 194/194/194 195/195/195
f 196/196/196 197/197/197 198/198/198
f 199/199/199 200/200/200 201/201/201
f 202/202/202 203/203/203 204/204/204
f 205/205/205 206/206/206 207/207/207
f 208/208/208 209/209/209 210/210/210
f 211/211/211 212/212/212 213/213/213
f 214/214/214 215/215/215 216/216/216
