g  Instance
v 8.302412 -53.00751 5.650943
v 8.297631 -52.94849 5.691308
v 8.273976 -53.00932 5.689771
v 8.297631 -52.94849 5.691308
v 8.302412 -53.00751 5.650943
v 8.496229 -52.38961 5.702502
v 8.496229 -52.38961 5.702502
v 8.302412 -53.00751 5.650943
v 8.600986 -52.50629 5.477693
v 8.206109 -53.15456 5.684319
v 8.302412 -53.00751 5.650943
v 8.273976 -53.00932 5.689771
v 8.600986 -52.50629 5.477693
v 8.302412 -53.00751 5.650943
v 8.739413 -52.66973 5.113363
v 8.739413 -52.66973 5.113363
v 8.302412 -53.00751 5.650943
v 8.751883 -53.04076 4.824898
v 8.739413 -52.66973 5.113363
v 8.751883 -53.04076 4.824898
v 8.846573 -52.79927 4.80946
v 8.751883 -53.04076 4.824898
v 9.013839 -53.0174 4.262268
v 8.846573 -52.79927 4.80946
v 8.846573 -52.79927 4.80946
v 9.013839 -53.0174 4.262268
v 9.014778 -53.01197 4.264563
v 8.715427 -53.69193 4.263894
v 8.951689 -53.29686 4.125471
v 8.751883 -53.04076 4.824898
v 8.751883 -53.04076 4.824898
v 8.951689 -53.29686 4.125471
v 9.013839 -53.0174 4.262268
v 8.715427 -53.69193 4.263894
v 8.587592 -53.96327 4.200437
v 8.782021 -53.87188 3.834531
v 8.422412 -53.88887 4.634189
v 8.45203 -54.01389 4.420889
v 8.715427 -53.69193 4.263894
v 8.715427 -53.69193 4.263894
v 8.45203 -54.01389 4.420889
v 8.587592 -53.96327 4.200437
v 8.302412 -53.00751 5.650943
v 8.206109 -53.15456 5.684319
v 8.240373 -53.47491 5.346526
v 8.240373 -53.47491 5.346526
v 8.206109 -53.15456 5.684319
v 8.142895 -53.28225 5.678972
v 8.240373 -53.47491 5.346526
v 8.358002 -53.72409 4.917153
v 8.302412 -53.00751 5.650943
v 8.302412 -53.00751 5.650943
v 8.358002 -53.72409 4.917153
v 8.751883 -53.04076 4.824898
v 8.715427 -53.69193 4.263894
v 8.751883 -53.04076 4.824898
v 8.422412 -53.88887 4.634189
v 8.422412 -53.88887 4.634189
v 8.751883 -53.04076 4.824898
v 8.358002 -53.72409 4.917153
v 8.715427 -53.69193 4.263894
v 8.782021 -53.87188 3.834531
v 8.951689 -53.29686 4.125471
v 8.951689 -53.29686 4.125471
v 8.782021 -53.87188 3.834531
v 8.795287 -53.8646 3.806791
v 6.129295 -52.47042 2.722964
v 6.16607 -52.82901 2.741964
v 6.106579 -51.96902 2.792225
v 6.106579 -51.96902 2.792225
v 6.16607 -52.82901 2.741964
v 6.320017 -51.76114 3.564944
v 6.320017 -51.76114 3.564944
v 6.16607 -52.82901 2.741964
v 6.850637 -51.49532 5.41334
v 6.850637 -51.49532 5.41334
v 6.16607 -52.82901 2.741964
v 7.047946 -53.42752 5.512887
v 7.047946 -53.42752 5.512887
v 6.16607 -52.82901 2.741964
v 6.890853 -53.81038 4.87764
v 7.130653 -51.32035 5.356891
v 7.769593 -52.20474 2.73255
v 6.320017 -51.76114 3.564944
v 6.320017 -51.76114 3.564944
v 7.769593 -52.20474 2.73255
v 6.106579 -51.96902 2.792225
v 6.106579 -51.96902 2.792225
v 7.769593 -52.20474 2.73255
v 7.060277 -52.24982 2.280795
v 7.060277 -52.24982 2.280795
v 7.769593 -52.20474 2.73255
v 7.358838 -52.32764 2.153743
v 7.060277 -52.24982 2.280795
v 6.129295 -52.47042 2.722964
v 6.106579 -51.96902 2.792225
v 8.795287 -53.8646 3.806791
v 8.782021 -53.87188 3.834531
v 7.453871 -52.92313 2.169949
v 7.453871 -52.92313 2.169949
v 8.782021 -53.87188 3.834531
v 6.16607 -52.82901 2.741964
v 6.16607 -52.82901 2.741964
v 8.782021 -53.87188 3.834531
v 6.890853 -53.81038 4.87764
v 6.890853 -53.81038 4.87764
v 8.782021 -53.87188 3.834531
v 8.45203 -54.01389 4.420889
v 8.45203 -54.01389 4.420889
v 8.782021 -53.87188 3.834531
v 8.587592 -53.96327 4.200437
v 9.014778 -53.01197 4.264563
v 9.013839 -53.0174 4.262268
v 7.769593 -52.20474 2.73255
v 7.769593 -52.20474 2.73255
v 9.013839 -53.0174 4.262268
v 7.358838 -52.32764 2.153743
v 7.358838 -52.32764 2.153743
v 9.013839 -53.0174 4.262268
v 7.453871 -52.92313 2.169949
v 7.453871 -52.92313 2.169949
v 9.013839 -53.0174 4.262268
v 8.795287 -53.8646 3.806791
v 8.795287 -53.8646 3.806791
v 9.013839 -53.0174 4.262268
v 8.951689 -53.29686 4.125471
v 6.850637 -51.49532 5.41334
v 7.142078 -51.31651 5.452566
v 6.320017 -51.76114 3.564944
v 6.320017 -51.76114 3.564944
v 7.142078 -51.31651 5.452566
v 7.130653 -51.32035 5.356891
v 8.142895 -53.28225 5.678972
v 8.206109 -53.15456 5.684319
v 7.047946 -53.42752 5.512887
v 7.047946 -53.42752 5.512887
v 8.206109 -53.15456 5.684319
v 6.850637 -51.49532 5.41334
v 6.850637 -51.49532 5.41334
v 8.206109 -53.15456 5.684319
v 7.142078 -51.31651 5.452566
v 7.142078 -51.31651 5.452566
v 8.206109 -53.15456 5.684319
v 8.496229 -52.38961 5.702502
v 8.496229 -52.38961 5.702502
v 8.206109 -53.15456 5.684319
v 8.297631 -52.94849 5.691308
v 8.297631 -52.94849 5.691308
v 8.206109 -53.15456 5.684319
v 8.273976 -53.00932 5.689771
v 8.422412 -53.88887 4.634189
v 8.358002 -53.72409 4.917153
v 8.45203 -54.01389 4.420889
v 8.45203 -54.01389 4.420889
v 8.358002 -53.72409 4.917153
v 6.890853 -53.81038 4.87764
v 6.890853 -53.81038 4.87764
v 8.358002 -53.72409 4.917153
v 7.047946 -53.42752 5.512887
v 7.047946 -53.42752 5.512887
v 8.358002 -53.72409 4.917153
v 8.142895 -53.28225 5.678972
v 8.142895 -53.28225 5.678972
v 8.358002 -53.72409 4.917153
v 8.240373 -53.47491 5.346526
v 7.453871 -52.92313 2.169949
v 6.16607 -52.82901 2.741964
v 7.358838 -52.32764 2.153743
v 7.358838 -52.32764 2.153743
v 6.16607 -52.82901 2.741964
v 7.060277 -52.24982 2.280795
v 7.060277 -52.24982 2.280795
v 6.16607 -52.82901 2.741964
v 6.129295 -52.47042 2.722964
v 7.142078 -51.31651 5.452566
v 8.496229 -52.38961 5.702502
v 7.130653 -51.32035 5.356891
v 7.130653 -51.32035 5.356891
v 8.496229 -52.38961 5.702502
v 7.769593 -52.20474 2.73255
v 7.769593 -52.20474 2.73255
v 8.496229 -52.38961 5.702502
v 9.014778 -53.01197 4.264563
v 9.014778 -53.01197 4.264563
v 8.496229 -52.38961 5.702502
v 8.846573 -52.79927 4.80946
v 8.846573 -52.79927 4.80946
v 8.496229 -52.38961 5.702502
v 8.739413 -52.66973 5.113363
v 8.739413 -52.66973 5.113363
v 8.496229 -52.38961 5.702502
v 8.600986 -52.50629 5.477693

vn 0.7986575 -0.2943172 0.5249034
vn 0.7986575 -0.2943172 0.5249034
vn 0.7959738 -0.2949348 0.5283054
vn 0.7986575 -0.2943172 0.5249034
vn 0.7986575 -0.2943172 0.5249034
vn 0.7986575 -0.2943172 0.5249034
vn 0.7986575 -0.2943172 0.5249034
vn 0.7986575 -0.2943172 0.5249034
vn 0.7986575 -0.2943172 0.5249034
vn 0.7565729 -0.3736768 0.5366218
vn 0.7565729 -0.3736768 0.5366218
vn 0.7565729 -0.3736768 0.5366218
vn 0.8232295 -0.3309533 0.4612625
vn 0.8232295 -0.3309533 0.4612625
vn 0.8232295 -0.3309533 0.4612625
vn 0.8232295 -0.3309533 0.4612625
vn 0.8232295 -0.3309533 0.4612625
vn 0.8232295 -0.3309533 0.4612625
vn 0.8495867 -0.3056522 0.4298595
vn 0.8495867 -0.3056522 0.4298595
vn 0.8495867 -0.3056522 0.4298595
vn 0.8495867 -0.3056522 0.4298595
vn 0.8749693 -0.2976881 0.3800813
vn 0.857537 -0.3031577 0.414268
vn 0.857537 -0.3031577 0.414268
vn 0.8749693 -0.2976881 0.3800813
vn 0.8750322 -0.2976683 0.379958
vn 0.8467252 -0.3736764 0.3787115
vn 0.8467252 -0.3736764 0.3787115
vn 0.8467252 -0.3736764 0.3787115
vn 0.8467252 -0.3736764 0.3787115
vn 0.8467252 -0.3736764 0.3787115
vn 0.8467252 -0.3736764 0.3787115
vn 0.8250073 -0.4640914 0.3224628
vn 0.8250073 -0.4640914 0.3224628
vn 0.8250073 -0.4640914 0.3224628
vn 0.7976134 -0.4654822 0.3835873
vn 0.7976134 -0.4654822 0.3835873
vn 0.7976134 -0.4654822 0.3835873
vn 0.7976134 -0.4654822 0.3835873
vn 0.7976134 -0.4654822 0.3835873
vn 0.7976134 -0.4654822 0.3835873
vn 0.7847476 -0.4080327 0.4665625
vn 0.7847476 -0.4080327 0.4665625
vn 0.7847476 -0.4080327 0.4665625
vn 0.7847476 -0.4080327 0.4665625
vn 0.7847476 -0.4080327 0.4665625
vn 0.7847476 -0.4080327 0.4665625
vn 0.7847476 -0.4080327 0.4665625
vn 0.7908241 -0.4065977 0.4571874
vn 0.7847476 -0.4080327 0.4665625
vn 0.7847476 -0.4080327 0.4665625
vn 0.7908241 -0.4065977 0.4571874
vn 0.8030486 -0.403711 0.4383269
vn 0.8030486 -0.403711 0.4383269
vn 0.8030486 -0.403711 0.4383269
vn 0.7933553 -0.406 0.4532822
vn 0.7933553 -0.406 0.4532822
vn 0.8030486 -0.403711 0.4383269
vn 0.7908241 -0.4065977 0.4571874
vn 0.860691 -0.4080318 0.3045015
vn 0.860691 -0.4080318 0.3045015
vn 0.860691 -0.4080318 0.3045015
vn 0.860691 -0.4080318 0.3045015
vn 0.860691 -0.4080318 0.3045015
vn 0.860691 -0.4080318 0.3045015
vn -0.9546626 -0.08275378 0.2859566
vn -0.9546626 -0.08275378 0.2859566
vn -0.9546626 -0.08275378 0.2859566
vn -0.9546626 -0.08275378 0.2859566
vn -0.9546626 -0.08275378 0.2859566
vn -0.9546626 -0.08275378 0.2859566
vn -0.9546626 -0.08275378 0.2859566
vn -0.9546626 -0.08275378 0.2859566
vn -0.9546626 -0.08275378 0.2859566
vn -0.9546626 -0.08275378 0.2859566
vn -0.9546626 -0.08275378 0.2859566
vn -0.9546626 -0.08275378 0.2859566
vn -0.9546626 -0.08275378 0.2859566
vn -0.9546626 -0.08275378 0.2859566
vn -0.9546626 -0.08275378 0.2859566
vn 0.1241328 0.9490623 -0.2896061
vn 0.1241328 0.9490623 -0.2896061
vn 0.1241328 0.9490623 -0.2896061
vn 0.1241328 0.9490623 -0.2896061
vn 0.1241328 0.9490623 -0.2896061
vn 0.1241328 0.9490623 -0.2896061
vn 0.1241328 0.9490623 -0.2896061
vn 0.1241328 0.9490623 -0.2896061
vn 0.1241328 0.9490623 -0.2896061
vn 0.1241328 0.9490623 -0.2896061
vn 0.1241328 0.9490623 -0.2896061
vn 0.1241328 0.9490623 -0.2896061
vn -0.4464833 0.1025612 -0.8888949
vn -0.4464833 0.1025612 -0.8888949
vn -0.4464833 0.1025612 -0.8888949
vn -0.2198291 -0.9125935 -0.3447437
vn -0.2198291 -0.9125935 -0.3447437
vn -0.2198291 -0.9125935 -0.3447437
vn -0.2198291 -0.9125935 -0.3447437
vn -0.2198291 -0.9125935 -0.3447437
vn -0.2198291 -0.9125935 -0.3447437
vn -0.2198291 -0.9125935 -0.3447437
vn -0.2198291 -0.9125935 -0.3447437
vn -0.2198291 -0.9125935 -0.3447437
vn -0.2198291 -0.9125935 -0.3447437
vn -0.2198291 -0.9125935 -0.3447437
vn -0.2198291 -0.9125935 -0.3447437
vn -0.2198291 -0.9125935 -0.3447437
vn -0.2198291 -0.9125935 -0.3447437
vn -0.2198291 -0.9125935 -0.3447437
vn 0.7991071 0.1114762 -0.5907632
vn 0.7991071 0.1114762 -0.5907632
vn 0.7991071 0.1114762 -0.5907632
vn 0.7991071 0.1114762 -0.5907632
vn 0.7991071 0.1114762 -0.5907632
vn 0.7991071 0.1114762 -0.5907632
vn 0.7991071 0.1114762 -0.5907632
vn 0.7991071 0.1114762 -0.5907632
vn 0.7991071 0.1114762 -0.5907632
vn 0.7991071 0.1114762 -0.5907632
vn 0.7991071 0.1114762 -0.5907632
vn 0.7991071 0.1114762 -0.5907632
vn 0.7991071 0.1114762 -0.5907632
vn 0.7991071 0.1114762 -0.5907632
vn 0.7991071 0.1114762 -0.5907632
vn -0.5255415 0.8502875 0.02858816
vn -0.5255415 0.8502875 0.02858816
vn -0.5255415 0.8502875 0.02858816
vn -0.5255415 0.8502875 0.02858816
vn -0.5255415 0.8502875 0.02858816
vn -0.5255415 0.8502875 0.02858816
vn -0.1544311 0.03510102 0.9873798
vn -0.1544311 0.03510102 0.9873798
vn -0.1544311 0.03510102 0.9873798
vn -0.1544311 0.03510102 0.9873798
vn -0.1544311 0.03510102 0.9873798
vn -0.1544311 0.03510102 0.9873798
vn -0.1544311 0.03510102 0.9873798
vn -0.1544311 0.03510102 0.9873798
vn -0.1544311 0.03510102 0.9873798
vn -0.1544311 0.03510102 0.9873798
vn -0.1544311 0.03510102 0.9873798
vn -0.1544311 0.03510102 0.9873798
vn -0.1544311 0.03510102 0.9873798
vn -0.1544311 0.03510102 0.9873798
vn -0.1544311 0.03510102 0.9873798
vn -0.1544311 0.03510102 0.9873798
vn -0.1544311 0.03510102 0.9873798
vn -0.1544311 0.03510102 0.9873798
vn 0.03686488 -0.8598984 0.5091323
vn 0.03686488 -0.8598984 0.5091323
vn 0.03686488 -0.8598984 0.5091323
vn 0.03686488 -0.8598984 0.5091323
vn 0.03686488 -0.8598984 0.5091323
vn 0.03686488 -0.8598984 0.5091323
vn 0.03686488 -0.8598984 0.5091323
vn 0.03686488 -0.8598984 0.5091323
vn 0.03686488 -0.8598984 0.5091323
vn 0.03686488 -0.8598984 0.5091323
vn 0.03686488 -0.8598984 0.5091323
vn 0.03686488 -0.8598984 0.5091323
vn 0.03686488 -0.8598984 0.5091323
vn 0.03686488 -0.8598984 0.5091323
vn 0.03686488 -0.8598984 0.5091323
vn -0.4097842 -0.09009454 -0.9077225
vn -0.4097842 -0.09009454 -0.9077225
vn -0.4097842 -0.09009454 -0.9077225
vn -0.4097842 -0.09009454 -0.9077225
vn -0.4097842 -0.09009454 -0.9077225
vn -0.4097842 -0.09009454 -0.9077225
vn -0.4097842 -0.09009454 -0.9077225
vn -0.4097842 -0.09009454 -0.9077225
vn -0.4097842 -0.09009454 -0.9077225
vn 0.6295272 0.7696991 -0.106108
vn 0.6295272 0.7696991 -0.106108
vn 0.6295272 0.7696991 -0.106108
vn 0.6295272 0.7696991 -0.106108
vn 0.6295272 0.7696991 -0.106108
vn 0.6295272 0.7696991 -0.106108
vn 0.6295272 0.7696991 -0.106108
vn 0.6295272 0.7696991 -0.106108
vn 0.6295272 0.7696991 -0.106108
vn 0.6295272 0.7696991 -0.106108
vn 0.6295272 0.7696991 -0.106108
vn 0.6295272 0.7696991 -0.106108
vn 0.6295272 0.7696991 -0.106108
vn 0.6295272 0.7696991 -0.106108
vn 0.6295272 0.7696991 -0.106108
vn 0.6295272 0.7696991 -0.106108
vn 0.6295272 0.7696991 -0.106108
vn 0.6295272 0.7696991 -0.106108

vt 0.9099256 0.1484532
vt 0.9099133 0.1484347
vt 0.9099117 0.1484528
vt 0.9099133 0.1484347
vt 0.9099256 0.1484532
vt 0.9099272 0.1482681
vt 0.9099272 0.1482681
vt 0.9099256 0.1484532
vt 0.9100025 0.1483077
vt 0.9099078 0.1484955
vt 0.9099256 0.1484532
vt 0.9099117 0.1484528
vt 0.9100025 0.1483077
vt 0.9099256 0.1484532
vt 0.9101225 0.1483628
vt 0.9101225 0.1483628
vt 0.9099256 0.1484532
vt 0.9102092 0.1484781
vt 0.9101225 0.1483628
vt 0.9102092 0.1484781
vt 0.910222 0.1484064
vt 0.9102092 0.1484781
vt 0.9103994 0.1484791
vt 0.910222 0.1484064
vt 0.910222 0.1484064
vt 0.9103994 0.1484791
vt 0.9103988 0.1484775
vt 0.9103739 0.1486781
vt 0.9104351 0.1485635
vt 0.9102092 0.1484781
vt 0.9102092 0.1484781
vt 0.9104351 0.1485635
vt 0.9103994 0.1484791
vt 0.9103739 0.1486781
vt 0.9103827 0.1487577
vt 0.9105086 0.1487356
vt 0.9102391 0.1487296
vt 0.9103056 0.1487691
vt 0.9103739 0.1486781
vt 0.9103739 0.1486781
vt 0.9103056 0.1487691
vt 0.9103827 0.1487577
vt 0.9099256 0.1484532
vt 0.9099078 0.1484955
vt 0.9100113 0.1485957
vt 0.9100113 0.1485957
vt 0.9099078 0.1484955
vt 0.9099042 0.1485329
vt 0.9100113 0.1485957
vt 0.9101492 0.1486766
vt 0.9099256 0.1484532
vt 0.9099256 0.1484532
vt 0.9101492 0.1486766
vt 0.9102092 0.1484781
vt 0.9103739 0.1486781
vt 0.9102092 0.1484781
vt 0.9102391 0.1487296
vt 0.9102391 0.1487296
vt 0.9102092 0.1484781
vt 0.9101492 0.1486766
vt 0.9103739 0.1486781
vt 0.9105086 0.1487356
vt 0.9104351 0.1485635
vt 0.9104351 0.1485635
vt 0.9105086 0.1487356
vt 0.9105181 0.1487337
vt 0.5422478 0.5723905
vt 0.5092412 0.5705744
vt 0.588172 0.5657687
vt 0.588172 0.5657687
vt 0.5092412 0.5705744
vt 0.6054483 0.4919229
vt 0.6054483 0.4919229
vt 0.5092412 0.5705744
vt 0.6255 0.3152762
vt 0.6255 0.3152762
vt 0.5092412 0.5705744
vt 0.4476612 0.3057626
vt 0.4476612 0.3057626
vt 0.5092412 0.5705744
vt 0.4139747 0.3664719
vt 0.4837691 0.2762346
vt 0.5523714 0.5276118
vt 0.4153158 0.44788
vt 0.4153158 0.44788
vt 0.5523714 0.5276118
vt 0.3983841 0.5218934
vt 0.3983841 0.5218934
vt 0.5523714 0.5276118
vt 0.4884211 0.5708817
vt 0.4884211 0.5708817
vt 0.5523714 0.5276118
vt 0.516487 0.5830543
vt 0.6096765 0.555524
vt 0.5285757 0.3706349
vt 0.6212065 0.341675
vt 0.3245244 0.4334489
vt 0.3255722 0.4306875
vt 0.4670469 0.5964655
vt 0.4670469 0.5964655
vt 0.3255722 0.4306875
vt 0.586151 0.5394956
vt 0.586151 0.5394956
vt 0.3255722 0.4306875
vt 0.4987962 0.3268062
vt 0.4987962 0.3268062
vt 0.3255722 0.4306875
vt 0.3524552 0.3722927
vt 0.3524552 0.3722927
vt 0.3255722 0.4306875
vt 0.3412419 0.3942443
vt 0.5462339 0.2925889
vt 0.546802 0.2929009
vt 0.4405783 0.4990942
vt 0.4405783 0.4990942
vt 0.546802 0.2929009
vt 0.4476425 0.5771124
vt 0.4476425 0.5771124
vt 0.546802 0.2929009
vt 0.513218 0.5749424
vt 0.513218 0.5749424
vt 0.546802 0.2929009
vt 0.6347854 0.3542993
vt 0.6347854 0.3542993
vt 0.546802 0.2929009
vt 0.5759808 0.3113413
vt 0.5431511 0.3148106
vt 0.5731682 0.3113646
vt 0.491257 0.4771426
vt 0.491257 0.4771426
vt 0.5731682 0.3113646
vt 0.5721344 0.3197653
vt 0.4559128 0.3291671
vt 0.4672286 0.3234813
vt 0.44354 0.4275955
vt 0.44354 0.4275955
vt 0.4672286 0.3234813
vt 0.6153577 0.4453281
vt 0.6153577 0.4453281
vt 0.4672286 0.3234813
vt 0.6311066 0.4191296
vt 0.6311066 0.4191296
vt 0.4672286 0.3234813
vt 0.5350671 0.2973992
vt 0.5350671 0.2973992
vt 0.4672286 0.3234813
vt 0.4854967 0.315253
vt 0.4854967 0.315253
vt 0.4672286 0.3234813
vt 0.4800996 0.3173811
vt 0.3707839 0.4368251
vt 0.3766281 0.4033109
vt 0.3683112 0.4620922
vt 0.3683112 0.4620922
vt 0.3766281 0.4033109
vt 0.5264523 0.4079862
vt 0.5264523 0.4079862
vt 0.3766281 0.4033109
vt 0.5087755 0.3327342
vt 0.5087755 0.3327342
vt 0.3766281 0.4033109
vt 0.3966053 0.3130643
vt 0.3966053 0.3130643
vt 0.3766281 0.4033109
vt 0.3875201 0.3524459
vt 0.4906563 0.3454143
vt 0.4870893 0.4812219
vt 0.4334909 0.3554402
vt 0.4334909 0.3554402
vt 0.4870893 0.4812219
vt 0.4272509 0.386924
vt 0.4272509 0.386924
vt 0.4870893 0.4812219
vt 0.4525786 0.4851056
vt 0.416643 0.2968404
vt 0.5690982 0.2746606
vt 0.4160795 0.3053296
vt 0.4160795 0.3053296
vt 0.5690982 0.2746606
vt 0.5091387 0.5382476
vt 0.5091387 0.5382476
vt 0.5690982 0.2746606
vt 0.6393024 0.4022771
vt 0.6393024 0.4022771
vt 0.5690982 0.2746606
vt 0.6159258 0.3539174
vt 0.6159258 0.3539174
vt 0.5690982 0.2746606
vt 0.601369 0.3269459
vt 0.601369 0.3269459
vt 0.5690982 0.2746606
vt 0.5827702 0.2946099

usemtl Material0
usemap Material0
f 1/1/1 2/2/2 3/3/3
f 4/4/4 5/5/5 6/6/6
f 7/7/7 8/8/8 9/9/9
f 10/10/10 11/11/11 12/12/12
f 13/13/13 14/14/14 15/15/15
f 16/16/16 17/17/17 18/18/18
f 19/19/19 20/20/20 21/21/21
f 22/22/22 23/23/23 24/24/24
f 25/25/25 26/26/26 27/27/27
f 28/28/28 29/29/29 30/30/30
f 31/31/31 32/32/32 33/33/33
f 34/34/34 35/35/35 36/36/36
f 37/37/37 38/38/38 39/39/39
f 40/40/40 41/41/41 42/42/42
f 43/43/43 44/44/44 45/45/45
f 46/46/46 47/47/47 48/48/48
f 49/49/49 50/50/50 51/51/51
f 52/52/52 53/53/53 54/54/54
f 55/55/55 56/56/56 57/57/57
f 58/58/58 59/59/59 60/60/60
f 61/61/61 62/62/62 63/63/63
f 64/64/64 65/65/65 66/66/66

usemtl Material1
usemap Material1
f 67/67/67 68/68/68 69/69/69
f 70/70/70 71/71/71 72/72/72
f 73/73/73 74/74/74 75/75/75
f 76/76/76 77/77/77 78/78/78
f 79/79/79 80/80/80 81/81/81
f 82/82/82 83/83/83 84/84/84
f 85/85/85 86/86/86 87/87/87
f 88/88/88 89/89/89 90/90/90
f 91/91/91 92/92/92 93/93/93
f 94/94/94 95/95/95 96/96/96
f 97/97/97 98/98/98 99/99/99
f 100/100/100 101/101/101 102/102/102
f 103/103/103 104/104/104 105/105/105
f 106/106/106 107/107/107 108/108/108
f 109/109/109 110/110/110 111/111/111
f 112/112/112 113/113/113 114/114/114
f 115/115/115 116/116/116 117/117/117
f 118/118/118 119/119/119 120/120/120
f 121/121/121 122/122/122 123/123/123
f 124/124/124 125/125/125 126/126/126
f 127/127/127 128/128/128 129/129/129
f 130/130/130 131/131/131 132/132/132
f 133/133/133 134/134/134 135/135/135
f 136/136/136 137/137/137 138/138/138
f 139/139/139 140/140/140 141/141/141
f 142/142/142 143/143/143 144/144/144
f 145/145/145 146/146/146 147/147/147
f 148/148/148 149/149/149 150/150/150
f 151/151/151 152/152/152 153/153/153
f 154/154/154 155/155/155 156/156/156
f 157/157/157 158/158/158 159/159/159
f 160/160/160 161/161/161 162/162/162
f 163/163/163 164/164/164 165/165/165
f 166/166/166 167/167/167 168/168/168
f 169/169/169 170/170/170 171/171/171
f 172/172/172 173/173/173 174/174/174
f 175/175/175 176/176/176 177/177/177
f 178/178/178 179/179/179 180/180/180
f 181/181/181 182/182/182 183/183/183
f 184/184/184 185/185/185 186/186/186
f 187/187/187 188/188/188 189/189/189
f 190/190/190 191/191/191 192/192/192
