g  Instance
v 4.860988 -57.11769 2.938648
v 5.714166 -56.05616 2.729689
v 4.582451 -57.3512 3.359058
v 4.582451 -57.3512 3.359058
v 5.714166 -56.05616 2.729689
v 5.425082 -55.71178 4.993759
v 5.425082 -55.71178 4.993759
v 5.714166 -56.05616 2.729689
v 5.954387 -55.16743 4.508313
v 5.689968 -54.55781 4.049684
v 5.306651 -54.45713 2.645535
v 5.769374 -54.58852 4.43834
v 5.769374 -54.58852 4.43834
v 5.306651 -54.45713 2.645535
v 5.057321 -54.71083 4.901358
v 5.057321 -54.71083 4.901358
v 5.306651 -54.45713 2.645535
v 4.77957 -54.72042 4.703362
v 4.77957 -54.72042 4.703362
v 5.306651 -54.45713 2.645535
v 3.5216 -54.71411 3.313088
v 3.5216 -54.71411 3.313088
v 5.306651 -54.45713 2.645535
v 3.381956 -54.67783 2.805446
v 3.381956 -54.67783 2.805446
v 5.306651 -54.45713 2.645535
v 4.66651 -54.49374 2.333328
v 5.689968 -54.55781 4.049684
v 5.769374 -54.58852 4.43834
v 5.805586 -54.63325 4.430662
v 5.714166 -56.05616 2.729689
v 5.447204 -55.28236 2.416132
v 5.954387 -55.16743 4.508313
v 5.954387 -55.16743 4.508313
v 5.447204 -55.28236 2.416132
v 5.805586 -54.63325 4.430662
v 5.805586 -54.63325 4.430662
v 5.447204 -55.28236 2.416132
v 5.689968 -54.55781 4.049684
v 5.689968 -54.55781 4.049684
v 5.447204 -55.28236 2.416132
v 5.306651 -54.45713 2.645535
v 4.860988 -57.11769 2.938648
v 4.095054 -55.5001 2.245453
v 5.714166 -56.05616 2.729689
v 5.714166 -56.05616 2.729689
v 4.095054 -55.5001 2.245453
v 5.447204 -55.28236 2.416132
v 5.447204 -55.28236 2.416132
v 4.095054 -55.5001 2.245453
v 4.685627 -54.97149 2.171465
v 5.057321 -54.71083 4.901358
v 4.77957 -54.72042 4.703362
v 5.023788 -54.78726 4.945178
v 5.057321 -54.71083 4.901358
v 5.023788 -54.78726 4.945178
v 5.769374 -54.58852 4.43834
v 5.769374 -54.58852 4.43834
v 5.023788 -54.78726 4.945178
v 5.805586 -54.63325 4.430662
v 5.805586 -54.63325 4.430662
v 5.023788 -54.78726 4.945178
v 5.954387 -55.16743 4.508313
v 5.954387 -55.16743 4.508313
v 5.023788 -54.78726 4.945178
v 5.425082 -55.71178 4.993759
v 3.194983 -55.1769 2.721978
v 4.095054 -55.5001 2.245453
v 3.193502 -55.19977 2.741916
v 3.193502 -55.19977 2.741916
v 4.095054 -55.5001 2.245453
v 4.582451 -57.3512 3.359058
v 4.582451 -57.3512 3.359058
v 4.095054 -55.5001 2.245453
v 4.860988 -57.11769 2.938648
v 4.095054 -55.5001 2.245453
v 3.194983 -55.1769 2.721978
v 4.685627 -54.97149 2.171465
v 4.685627 -54.97149 2.171465
v 3.194983 -55.1769 2.721978
v 4.66651 -54.49374 2.333328
v 4.66651 -54.49374 2.333328
v 3.194983 -55.1769 2.721978
v 3.381956 -54.67783 2.805446
v 4.77957 -54.72042 4.703362
v 3.5216 -54.71411 3.313088
v 5.023788 -54.78726 4.945178
v 5.023788 -54.78726 4.945178
v 3.5216 -54.71411 3.313088
v 5.425082 -55.71178 4.993759
v 5.425082 -55.71178 4.993759
v 3.5216 -54.71411 3.313088
v 4.582451 -57.3512 3.359058
v 4.582451 -57.3512 3.359058
v 3.5216 -54.71411 3.313088
v 3.193502 -55.19977 2.741916
v 3.193502 -55.19977 2.741916
v 3.5216 -54.71411 3.313088
v 3.194983 -55.1769 2.721978
v 3.194983 -55.1769 2.721978
v 3.5216 -54.71411 3.313088
v 3.381956 -54.67783 2.805446
v 5.447204 -55.28236 2.416132
v 4.685627 -54.97149 2.171465
v 5.306651 -54.45713 2.645535
v 5.306651 -54.45713 2.645535
v 4.685627 -54.97149 2.171465
v 4.66651 -54.49374 2.333328

vn 0.7831762 -0.5920434 0.1900524
vn 0.7831762 -0.5920434 0.1900524
vn 0.7831762 -0.5920434 0.1900524
vn 0.7831762 -0.5920434 0.1900524
vn 0.7831762 -0.5920434 0.1900524
vn 0.7831762 -0.5920434 0.1900524
vn 0.7831762 -0.5920434 0.1900524
vn 0.7831762 -0.5920434 0.1900524
vn 0.7831762 -0.5920434 0.1900524
vn -0.1051732 0.9894482 0.09965336
vn -0.1051732 0.9894482 0.09965336
vn -0.1051732 0.9894482 0.09965336
vn -0.1051732 0.9894482 0.09965336
vn -0.1051732 0.9894482 0.09965336
vn -0.1051732 0.9894482 0.09965336
vn -0.1051732 0.9894482 0.09965336
vn -0.1051732 0.9894482 0.09965336
vn -0.1051732 0.9894482 0.09965336
vn -0.1051732 0.9894482 0.09965336
vn -0.1051732 0.9894482 0.09965336
vn -0.1051732 0.9894482 0.09965336
vn -0.1051732 0.9894482 0.09965336
vn -0.1051732 0.9894482 0.09965336
vn -0.1051732 0.9894482 0.09965336
vn -0.1051732 0.9894482 0.09965336
vn -0.1051732 0.9894482 0.09965336
vn -0.1051732 0.9894482 0.09965336
vn 0.7639397 0.6365561 -0.1057947
vn 0.7639397 0.6365561 -0.1057947
vn 0.7639397 0.6365561 -0.1057947
vn 0.9433746 0.227738 -0.2412053
vn 0.9433746 0.227738 -0.2412053
vn 0.9433746 0.227738 -0.2412053
vn 0.9433746 0.227738 -0.2412053
vn 0.9433746 0.227738 -0.2412053
vn 0.9433746 0.227738 -0.2412053
vn 0.9433746 0.227738 -0.2412053
vn 0.9433746 0.227738 -0.2412053
vn 0.9433746 0.227738 -0.2412053
vn 0.9433746 0.227738 -0.2412053
vn 0.9433746 0.227738 -0.2412053
vn 0.9433746 0.227738 -0.2412053
vn 0.1691384 -0.3194749 -0.9323776
vn 0.1691384 -0.3194749 -0.9323776
vn 0.1691384 -0.3194749 -0.9323776
vn 0.1691384 -0.3194749 -0.9323776
vn 0.1691384 -0.3194749 -0.9323776
vn 0.1691384 -0.3194749 -0.9323776
vn 0.1691384 -0.3194749 -0.9323776
vn 0.1691384 -0.3194749 -0.9323776
vn 0.1691384 -0.3194749 -0.9323776
vn -0.4839281 0.5853366 0.6505342
vn -0.4839281 0.5853366 0.6505342
vn -0.4839281 0.5853366 0.6505342
vn 0.4950188 0.2584546 0.8295527
vn 0.4950188 0.2584546 0.8295527
vn 0.4950188 0.2584546 0.8295527
vn 0.4950188 0.2584546 0.8295527
vn 0.4950188 0.2584546 0.8295527
vn 0.4950188 0.2584546 0.8295527
vn 0.4950188 0.2584546 0.8295527
vn 0.4950188 0.2584546 0.8295527
vn 0.4950188 0.2584546 0.8295527
vn 0.4950188 0.2584546 0.8295527
vn 0.4950188 0.2584546 0.8295527
vn 0.4950188 0.2584546 0.8295527
vn -0.5373384 -0.5341262 -0.6526688
vn -0.5373384 -0.5341262 -0.6526688
vn -0.5373384 -0.5341262 -0.6526688
vn -0.5373384 -0.5341262 -0.6526688
vn -0.5373384 -0.5341262 -0.6526688
vn -0.5373384 -0.5341262 -0.6526688
vn -0.5373384 -0.5341262 -0.6526688
vn -0.5373384 -0.5341262 -0.6526688
vn -0.5373384 -0.5341262 -0.6526688
vn -0.3663936 0.28537 -0.8856183
vn -0.3663936 0.28537 -0.8856183
vn -0.3663936 0.28537 -0.8856183
vn -0.3663936 0.28537 -0.8856183
vn -0.3663936 0.28537 -0.8856183
vn -0.3663936 0.28537 -0.8856183
vn -0.3663936 0.28537 -0.8856183
vn -0.3663936 0.28537 -0.8856183
vn -0.3663936 0.28537 -0.8856183
vn -0.7133818 -0.275737 0.644248
vn -0.7133818 -0.275737 0.644248
vn -0.7133818 -0.275737 0.644248
vn -0.7133818 -0.275737 0.644248
vn -0.7133818 -0.275737 0.644248
vn -0.7133818 -0.275737 0.644248
vn -0.7133818 -0.275737 0.644248
vn -0.7133818 -0.275737 0.644248
vn -0.7133818 -0.275737 0.644248
vn -0.7133818 -0.275737 0.644248
vn -0.7133818 -0.275737 0.644248
vn -0.7133818 -0.275737 0.644248
vn -0.9149855 0.2971769 0.2729242
vn -0.9149855 0.2971769 0.2729242
vn -0.9149855 0.2971769 0.2729242
vn -0.9149855 0.2971769 0.2729242
vn -0.9149855 0.2971769 0.2729242
vn -0.9149855 0.2971769 0.2729242
vn 0.4026684 0.3081639 -0.8619126
vn 0.4026684 0.3081639 -0.8619126
vn 0.4026684 0.3081639 -0.8619126
vn 0.4026684 0.3081639 -0.8619126
vn 0.4026684 0.3081639 -0.8619126
vn 0.4026684 0.3081639 -0.8619126

vt 0.6016298 0.5341032
vt 0.4799553 0.5531304
vt 0.6332953 0.4958253
vt 0.6332953 0.4958253
vt 0.4799553 0.5531304
vt 0.4709818 0.3470116
vt 0.4709818 0.3470116
vt 0.4799553 0.5531304
vt 0.4036415 0.3912082
vt 0.5888239 0.4291788
vt 0.5561526 0.553624
vt 0.5955016 0.3947333
vt 0.5955016 0.3947333
vt 0.5561526 0.553624
vt 0.5319099 0.3536939
vt 0.5319099 0.3536939
vt 0.5561526 0.553624
vt 0.5074623 0.3712403
vt 0.5074623 0.3712403
vt 0.5561526 0.553624
vt 0.397206 0.4944655
vt 0.397206 0.4944655
vt 0.5561526 0.553624
vt 0.3852988 0.5394584
vt 0.3852988 0.5394584
vt 0.5561526 0.553624
vt 0.4996717 0.5813034
vt 0.4773289 0.4076276
vt 0.4838948 0.3731356
vt 0.4889753 0.3738201
vt 0.556106 0.5189503
vt 0.482428 0.5481664
vt 0.4830939 0.3532375
vt 0.4830939 0.3532375
vt 0.482428 0.5481664
vt 0.4329833 0.360474
vt 0.4329833 0.360474
vt 0.482428 0.5481664
vt 0.4238981 0.395972
vt 0.4238981 0.395972
vt 0.482428 0.5481664
vt 0.4069105 0.5268015
vt 0.6000931 0.4571934
vt 0.443838 0.5263731
vt 0.5046497 0.3801159
vt 0.5046497 0.3801159
vt 0.443838 0.5263731
vt 0.4304221 0.4042282
vt 0.4304221 0.4042282
vt 0.443838 0.5263731
vt 0.3971734 0.4730168
vt 0.5920557 0.386952
vt 0.5666115 0.4170761
vt 0.5834408 0.3802836
vt 0.3897972 0.4325223
vt 0.3980023 0.4201914
vt 0.4245454 0.5628163
vt 0.4245454 0.5628163
vt 0.3980023 0.4201914
vt 0.4334117 0.564977
vt 0.4334117 0.564977
vt 0.3980023 0.4201914
vt 0.5186477 0.5431185
vt 0.5186477 0.5431185
vt 0.3980023 0.4201914
vt 0.5559757 0.4065147
vt 0.6684998 0.4761182
vt 0.5684463 0.5489674
vt 0.6667396 0.4730727
vt 0.6667396 0.4730727
vt 0.5684463 0.5489674
vt 0.3765908 0.3787236
vt 0.3765908 0.3787236
vt 0.5684463 0.5489674
vt 0.3730285 0.4429952
vt 0.4399637 0.4724115
vt 0.383641 0.2785257
vt 0.5873338 0.5025123
vt 0.5873338 0.5025123
vt 0.383641 0.2785257
vt 0.6563365 0.4366574
vt 0.6563365 0.4366574
vt 0.383641 0.2785257
vt 0.479755 0.2445691
vt 0.5989848 0.3395329
vt 0.6516892 0.5480919
vt 0.5817271 0.3032573
vt 0.5817271 0.3032573
vt 0.6516892 0.5480919
vt 0.4661715 0.295965
vt 0.4661715 0.295965
vt 0.6516892 0.5480919
vt 0.3255722 0.5412
vt 0.3255722 0.5412
vt 0.6516892 0.5480919
vt 0.6132901 0.6337842
vt 0.4931756 0.5765442
vt 0.5445575 0.522387
vt 0.4952059 0.5784349
vt 0.4952059 0.5784349
vt 0.5445575 0.522387
vt 0.5437658 0.5705185
vt 0.5196908 0.4538499
vt 0.396866 0.5373443
vt 0.3914922 0.3755524
vt 0.3914922 0.3755524
vt 0.396866 0.5373443
vt 0.3292044 0.4820974

usemtl Material0
usemap Material0

usemtl Material1
usemap Material1
f 1/1/1 2/2/2 3/3/3
f 4/4/4 5/5/5 6/6/6
f 7/7/7 8/8/8 9/9/9
f 10/10/10 11/11/11 12/12/12
f 13/13/13 14/14/14 15/15/15
f 16/16/16 17/17/17 18/18/18
f 19/19/19 20/20/20 21/21/21
f 22/22/22 23/23/23 24/24/24
f 25/25/25 26/26/26 27/27/27
f 28/28/28 29/29/29 30/30/30
f 31/31/31 32/32/32 33/33/33
f 34/34/34 35/35/35 36/36/36
f 37/37/37 38/38/38 39/39/39
f 40/40/40 41/41/41 42/42/42
f 43/43/43 44/44/44 45/45/45
f 46/46/46 47/47/47 48/48/48
f 49/49/49 50/50/50 51/51/51
f 52/52/52 53/53/53 54/54/54
f 55/55/55 56/56/56 57/57/57
f 58/58/58 59/59/59 60/60/60
f 61/61/61 62/62/62 63/63/63
f 64/64/64 65/65/65 66/66/66
f 67/67/67 68/68/68 69/69/69
f 70/70/70 71/71/71 72/72/72
f 73/73/73 74/74/74 75/75/75
f 76/76/76 77/77/77 78/78/78
f 79/79/79 80/80/80 81/81/81
f 82/82/82 83/83/83 84/84/84
f 85/85/85 86/86/86 87/87/87
f 88/88/88 89/89/89 90/90/90
f 91/91/91 92/92/92 93/93/93
f 94/94/94 95/95/95 96/96/96
f 97/97/97 98/98/98 99/99/99
f 100/100/100 101/101/101 102/102/102
f 103/103/103 104/104/104 105/105/105
f 106/106/106 107/107/107 108/108/108
