g  Instance
v 0.169135 -48.85205 -0.8005829
v 0.1251689 -49.00276 -0.7092421
v -0.1043538 -47.99332 -1.899599
v -0.1043538 -47.99332 -1.899599
v 0.1251689 -49.00276 -0.7092421
v -0.3127178 -48.34705 -1.801331
v -1.106517 -47.33334 -1.53089
v -1.143052 -47.48689 -1.77076
v -1.507553 -47.21006 0.4914526
v -1.507553 -47.21006 0.4914526
v -1.143052 -47.48689 -1.77076
v -1.674695 -47.37641 0.7739335
v -1.674695 -47.37641 0.7739335
v -1.143052 -47.48689 -1.77076
v -2.057227 -48.0091 0.7719632
v -2.057227 -48.0091 0.7719632
v -1.143052 -47.48689 -1.77076
v -2.630728 -49.17731 0.2036047
v -2.630728 -49.17731 0.2036047
v -1.143052 -47.48689 -1.77076
v -2.727102 -49.40945 0.01589239
v -2.727102 -49.40945 0.01589239
v -1.143052 -47.48689 -1.77076
v -2.701733 -49.44645 -0.1871951
v -2.701733 -49.44645 -0.1871951
v -1.143052 -47.48689 -1.77076
v -1.810135 -48.4871 -1.508838
v -0.8364273 -49.11968 1.122652
v 0.005518712 -49.2308 -0.4701649
v 0.2647128 -47.5702 -1.048926
v 0.2647128 -47.5702 -1.048926
v 0.005518712 -49.2308 -0.4701649
v 0.169135 -48.85205 -0.8005829
v 0.169135 -48.85205 -0.8005829
v 0.005518712 -49.2308 -0.4701649
v 0.1251689 -49.00276 -0.7092421
v -2.71722 -49.41551 0.1133214
v -2.094976 -50.06499 0.588818
v -2.630728 -49.17731 0.2036047
v -2.630728 -49.17731 0.2036047
v -2.094976 -50.06499 0.588818
v -2.057227 -48.0091 0.7719632
v -2.057227 -48.0091 0.7719632
v -2.094976 -50.06499 0.588818
v -1.608337 -48.02114 1.148606
v -1.608337 -48.02114 1.148606
v -2.094976 -50.06499 0.588818
v -1.13768 -49.16862 1.459941
v -1.106517 -47.33334 -1.53089
v -0.05551532 -47.07783 -1.07995
v -1.143052 -47.48689 -1.77076
v -1.143052 -47.48689 -1.77076
v -0.05551532 -47.07783 -1.07995
v -0.8750401 -47.60194 -1.93503
v -0.8750401 -47.60194 -1.93503
v -0.05551532 -47.07783 -1.07995
v -0.08481655 -47.65753 -1.979833
v -0.08481655 -47.65753 -1.979833
v -0.05551532 -47.07783 -1.07995
v 0.2178158 -47.23667 -1.311795
v -0.07317181 -47.07789 -1.045421
v -1.507553 -47.21006 0.4914526
v 0.2462723 -47.32635 -1.197343
v 0.2462723 -47.32635 -1.197343
v -1.507553 -47.21006 0.4914526
v 0.2647128 -47.5702 -1.048926
v 0.2647128 -47.5702 -1.048926
v -1.507553 -47.21006 0.4914526
v -0.8364273 -49.11968 1.122652
v -0.8364273 -49.11968 1.122652
v -1.507553 -47.21006 0.4914526
v -1.13768 -49.16862 1.459941
v -1.13768 -49.16862 1.459941
v -1.507553 -47.21006 0.4914526
v -1.608337 -48.02114 1.148606
v -1.608337 -48.02114 1.148606
v -1.507553 -47.21006 0.4914526
v -1.674695 -47.37641 0.7739335
v -1.674695 -47.37641 0.7739335
v -2.057227 -48.0091 0.7719632
v -1.608337 -48.02114 1.148606
v -2.727102 -49.40945 0.01589239
v -2.71722 -49.41551 0.1133214
v -2.630728 -49.17731 0.2036047
v -1.810135 -48.4871 -1.508838
v -1.143052 -47.48689 -1.77076
v -1.65531 -48.69931 -1.620378
v -1.65531 -48.69931 -1.620378
v -1.143052 -47.48689 -1.77076
v -0.8750401 -47.60194 -1.93503
v -2.701733 -49.44645 -0.1871951
v -2.200444 -50.00674 -0.5878019
v -2.727102 -49.40945 0.01589239
v -2.727102 -49.40945 0.01589239
v -2.200444 -50.00674 -0.5878019
v -2.71722 -49.41551 0.1133214
v -2.71722 -49.41551 0.1133214
v -2.200444 -50.00674 -0.5878019
v -2.094976 -50.06499 0.588818
v -2.094976 -50.06499 0.588818
v -2.200444 -50.00674 -0.5878019
v -1.950858 -50.25469 -0.1314055
v -1.106517 -47.33334 -1.53089
v -1.507553 -47.21006 0.4914526
v -0.05551532 -47.07783 -1.07995
v -0.05551532 -47.07783 -1.07995
v -1.507553 -47.21006 0.4914526
v -0.07317181 -47.07789 -1.045421
v -1.629272 -49.06368 -1.536771
v -2.200444 -50.00674 -0.5878019
v -1.65531 -48.69931 -1.620378
v -1.65531 -48.69931 -1.620378
v -2.200444 -50.00674 -0.5878019
v -1.810135 -48.4871 -1.508838
v -1.810135 -48.4871 -1.508838
v -2.200444 -50.00674 -0.5878019
v -2.701733 -49.44645 -0.1871951
v -1.65531 -48.69931 -1.620378
v -0.8750401 -47.60194 -1.93503
v -1.629272 -49.06368 -1.536771
v -1.629272 -49.06368 -1.536771
v -0.8750401 -47.60194 -1.93503
v -0.3127178 -48.34705 -1.801331
v -0.3127178 -48.34705 -1.801331
v -0.8750401 -47.60194 -1.93503
v -0.1043538 -47.99332 -1.899599
v -0.1043538 -47.99332 -1.899599
v -0.8750401 -47.60194 -1.93503
v -0.08481655 -47.65753 -1.979833
v -0.07317181 -47.07789 -1.045421
v 0.2462723 -47.32635 -1.197343
v -0.05551532 -47.07783 -1.07995
v -0.05551532 -47.07783 -1.07995
v 0.2462723 -47.32635 -1.197343
v 0.2178158 -47.23667 -1.311795
v 0.2462723 -47.32635 -1.197343
v 0.2647128 -47.5702 -1.048926
v 0.2178158 -47.23667 -1.311795
v 0.2178158 -47.23667 -1.311795
v 0.2647128 -47.5702 -1.048926
v -0.08481655 -47.65753 -1.979833
v -0.08481655 -47.65753 -1.979833
v 0.2647128 -47.5702 -1.048926
v -0.1043538 -47.99332 -1.899599
v -0.1043538 -47.99332 -1.899599
v 0.2647128 -47.5702 -1.048926
v 0.169135 -48.85205 -0.8005829
v -2.094976 -50.06499 0.588818
v -1.950858 -50.25469 -0.1314055
v -1.13768 -49.16862 1.459941
v -1.13768 -49.16862 1.459941
v -1.950858 -50.25469 -0.1314055
v -0.8364273 -49.11968 1.122652
v -0.8364273 -49.11968 1.122652
v -1.950858 -50.25469 -0.1314055
v 0.005518712 -49.2308 -0.4701649
v -0.3127178 -48.34705 -1.801331
v 0.1251689 -49.00276 -0.7092421
v -1.629272 -49.06368 -1.536771
v -1.629272 -49.06368 -1.536771
v 0.1251689 -49.00276 -0.7092421
v -2.200444 -50.00674 -0.5878019
v -2.200444 -50.00674 -0.5878019
v 0.1251689 -49.00276 -0.7092421
v -1.950858 -50.25469 -0.1314055
v -1.950858 -50.25469 -0.1314055
v 0.1251689 -49.00276 -0.7092421
v 0.005518712 -49.2308 -0.4701649

vn 0.6290694 -0.5288268 -0.569749
vn 0.6290694 -0.5288268 -0.569749
vn 0.6290694 -0.5288268 -0.569749
vn 0.6290694 -0.5288268 -0.569749
vn 0.6290694 -0.5288268 -0.569749
vn 0.6290694 -0.5288268 -0.569749
vn -0.8386591 0.5076824 -0.1972549
vn -0.8386591 0.5076824 -0.1972549
vn -0.8386591 0.5076824 -0.1972549
vn -0.8386591 0.5076824 -0.1972549
vn -0.8386591 0.5076824 -0.1972549
vn -0.8386591 0.5076824 -0.1972549
vn -0.8386591 0.5076824 -0.1972549
vn -0.8386591 0.5076824 -0.1972549
vn -0.8386591 0.5076824 -0.1972549
vn -0.8386591 0.5076824 -0.1972549
vn -0.8386591 0.5076824 -0.1972549
vn -0.8386591 0.5076824 -0.1972549
vn -0.8386591 0.5076824 -0.1972549
vn -0.8386591 0.5076824 -0.1972549
vn -0.8386591 0.5076824 -0.1972549
vn -0.8386591 0.5076824 -0.1972549
vn -0.8386591 0.5076824 -0.1972549
vn -0.8386591 0.5076824 -0.1972549
vn -0.8386591 0.5076824 -0.1972549
vn -0.8386591 0.5076824 -0.1972549
vn -0.8386591 0.5076824 -0.1972549
vn 0.8845269 0.02430144 0.465856
vn 0.8845269 0.02430144 0.465856
vn 0.8845269 0.02430144 0.465856
vn 0.8845269 0.02430144 0.465856
vn 0.8845269 0.02430144 0.465856
vn 0.8845269 0.02430144 0.465856
vn 0.8845269 0.02430144 0.465856
vn 0.8845269 0.02430144 0.465856
vn 0.8845269 0.02430144 0.465856
vn -0.6426336 -0.05626922 0.7641046
vn -0.6426336 -0.05626922 0.7641046
vn -0.6426336 -0.05626922 0.7641046
vn -0.6426336 -0.05626922 0.7641046
vn -0.6426336 -0.05626922 0.7641046
vn -0.6426336 -0.05626922 0.7641046
vn -0.6426336 -0.05626922 0.7641046
vn -0.6426336 -0.05626922 0.7641046
vn -0.6426336 -0.05626922 0.7641046
vn -0.6426336 -0.05626922 0.7641046
vn -0.6426336 -0.05626922 0.7641046
vn -0.6426336 -0.05626922 0.7641046
vn 0.02835611 0.8399117 -0.5419818
vn 0.02835611 0.8399117 -0.5419818
vn 0.02835611 0.8399117 -0.5419818
vn 0.02835611 0.8399117 -0.5419818
vn 0.02835611 0.8399117 -0.5419818
vn 0.02835611 0.8399117 -0.5419818
vn 0.02835611 0.8399117 -0.5419818
vn 0.02835611 0.8399117 -0.5419818
vn 0.02835611 0.8399117 -0.5419818
vn 0.02835611 0.8399117 -0.5419818
vn 0.02835611 0.8399117 -0.5419818
vn 0.02835611 0.8399117 -0.5419818
vn 0.639533 0.434411 0.6342592
vn 0.639533 0.434411 0.6342592
vn 0.639533 0.434411 0.6342592
vn 0.639533 0.434411 0.6342592
vn 0.639533 0.434411 0.6342592
vn 0.639533 0.434411 0.6342592
vn 0.639533 0.434411 0.6342592
vn 0.639533 0.434411 0.6342592
vn 0.639533 0.434411 0.6342592
vn 0.639533 0.434411 0.6342592
vn 0.639533 0.434411 0.6342592
vn 0.639533 0.434411 0.6342592
vn 0.639533 0.434411 0.6342592
vn 0.639533 0.434411 0.6342592
vn 0.639533 0.434411 0.6342592
vn 0.639533 0.434411 0.6342592
vn 0.639533 0.434411 0.6342592
vn 0.639533 0.434411 0.6342592
vn -0.5946817 0.3573173 0.720193
vn -0.5946817 0.3573173 0.720193
vn -0.5946817 0.3573173 0.720193
vn -0.9469055 0.3003459 0.1147273
vn -0.9469055 0.3003459 0.1147273
vn -0.9469055 0.3003459 0.1147273
vn -0.4887617 0.09899265 -0.8667828
vn -0.4887617 0.09899265 -0.8667828
vn -0.4887617 0.09899265 -0.8667828
vn -0.4887617 0.09899265 -0.8667828
vn -0.4887617 0.09899265 -0.8667828
vn -0.4887617 0.09899265 -0.8667828
vn -0.7333446 -0.6790988 0.03210235
vn -0.7333446 -0.6790988 0.03210235
vn -0.7333446 -0.6790988 0.03210235
vn -0.7333446 -0.6790988 0.03210235
vn -0.7333446 -0.6790988 0.03210235
vn -0.7333446 -0.6790988 0.03210235
vn -0.7333446 -0.6790988 0.03210235
vn -0.7333446 -0.6790988 0.03210235
vn -0.7333446 -0.6790988 0.03210235
vn -0.7333446 -0.6790988 0.03210235
vn -0.7333446 -0.6790988 0.03210235
vn -0.7333446 -0.6790988 0.03210235
vn -0.1951036 0.975857 -0.09817307
vn -0.1951036 0.975857 -0.09817307
vn -0.1951036 0.975857 -0.09817307
vn -0.1951036 0.975857 -0.09817307
vn -0.1951036 0.975857 -0.09817307
vn -0.1951036 0.975857 -0.09817307
vn -0.738525 -0.2004808 -0.64373
vn -0.738525 -0.2004808 -0.64373
vn -0.738525 -0.2004808 -0.64373
vn -0.738525 -0.2004808 -0.64373
vn -0.738525 -0.2004808 -0.64373
vn -0.738525 -0.2004808 -0.64373
vn -0.738525 -0.2004808 -0.64373
vn -0.738525 -0.2004808 -0.64373
vn -0.738525 -0.2004808 -0.64373
vn -0.07107711 -0.2279012 -0.9710866
vn -0.07107711 -0.2279012 -0.9710866
vn -0.07107711 -0.2279012 -0.9710866
vn -0.07107711 -0.2279012 -0.9710866
vn -0.07107711 -0.2279012 -0.9710866
vn -0.07107711 -0.2279012 -0.9710866
vn -0.07107711 -0.2279012 -0.9710866
vn -0.07107711 -0.2279012 -0.9710866
vn -0.07107711 -0.2279012 -0.9710866
vn -0.07107711 -0.2279012 -0.9710866
vn -0.07107711 -0.2279012 -0.9710866
vn -0.07107711 -0.2279012 -0.9710866
vn 0.6729465 0.6541973 0.3452086
vn 0.6729465 0.6541973 0.3452086
vn 0.6729465 0.6541973 0.3452086
vn 0.6729465 0.6541973 0.3452086
vn 0.6729465 0.6541973 0.3452086
vn 0.6729465 0.6541973 0.3452086
vn 0.9317411 -0.1347764 -0.3371851
vn 0.9317411 -0.1347764 -0.3371851
vn 0.9317411 -0.1347764 -0.3371851
vn 0.9317411 -0.1347764 -0.3371851
vn 0.9317411 -0.1347764 -0.3371851
vn 0.9317411 -0.1347764 -0.3371851
vn 0.9317411 -0.1347764 -0.3371851
vn 0.9317411 -0.1347764 -0.3371851
vn 0.9317411 -0.1347764 -0.3371851
vn 0.9317411 -0.1347764 -0.3371851
vn 0.9317411 -0.1347764 -0.3371851
vn 0.9317411 -0.1347764 -0.3371851
vn 0.4823895 -0.8184721 0.312096
vn 0.4823895 -0.8184721 0.312096
vn 0.4823895 -0.8184721 0.312096
vn 0.4823895 -0.8184721 0.312096
vn 0.4823895 -0.8184721 0.312096
vn 0.4823895 -0.8184721 0.312096
vn 0.4823895 -0.8184721 0.312096
vn 0.4823895 -0.8184721 0.312096
vn 0.4823895 -0.8184721 0.312096
vn 0.2983128 -0.7607561 -0.5764197
vn 0.2983128 -0.7607561 -0.5764197
vn 0.2983128 -0.7607561 -0.5764197
vn 0.2983128 -0.7607561 -0.5764197
vn 0.2983128 -0.7607561 -0.5764197
vn 0.2983128 -0.7607561 -0.5764197
vn 0.2983128 -0.7607561 -0.5764197
vn 0.2983128 -0.7607561 -0.5764197
vn 0.2983128 -0.7607561 -0.5764197
vn 0.2983128 -0.7607561 -0.5764197
vn 0.2983128 -0.7607561 -0.5764197
vn 0.2983128 -0.7607561 -0.5764197

vt 0.4012666 0.4230366
vt 0.4166057 0.4111667
vt 0.3498661 0.5658339
vt 0.3498661 0.5658339
vt 0.4166057 0.4111667
vt 0.3930941 0.5530652
vt 0.6223335 0.5507276
vt 0.6088849 0.5726233
vt 0.6131877 0.366076
vt 0.6131877 0.366076
vt 0.6088849 0.5726233
vt 0.5926983 0.3402826
vt 0.5926983 0.3402826
vt 0.6088849 0.5726233
vt 0.5265175 0.3404643
vt 0.5265175 0.3404643
vt 0.6088849 0.5726233
vt 0.4104822 0.3923584
vt 0.4104822 0.3923584
vt 0.6088849 0.5726233
vt 0.3882419 0.409495
vt 0.3882419 0.409495
vt 0.6088849 0.5726233
vt 0.3865841 0.4280379
vt 0.3865841 0.4280379
vt 0.6088849 0.5726233
vt 0.5013714 0.5487066
vt 0.5345549 0.3506717
vt 0.547873 0.5291764
vt 0.3839484 0.5940534
vt 0.3839484 0.5940534
vt 0.547873 0.5291764
vt 0.5107686 0.5662157
vt 0.5107686 0.5662157
vt 0.547873 0.5291764
vt 0.5255954 0.5559803
vt 0.4308505 0.5636266
vt 0.3354537 0.4633588
vt 0.4621015 0.5445901
vt 0.4621015 0.5445901
vt 0.3354537 0.4633588
vt 0.6136068 0.4247409
vt 0.6136068 0.4247409
vt 0.3354537 0.4633588
vt 0.6066497 0.3453212
vt 0.6066497 0.3453212
vt 0.3354537 0.4633588
vt 0.4455656 0.2796666
vt 0.5200167 0.4777759
vt 0.6287969 0.4217514
vt 0.5167478 0.5075787
vt 0.5167478 0.5075787
vt 0.6287969 0.4217514
vt 0.5451256 0.5279936
vt 0.5451256 0.5279936
vt 0.6287969 0.4217514
vt 0.627791 0.533563
vt 0.627791 0.533563
vt 0.6287969 0.4217514
vt 0.6578826 0.4505623
vt 0.4209504 0.6627023
vt 0.3418846 0.4370672
vt 0.4646534 0.6850078
vt 0.4646534 0.6850078
vt 0.3418846 0.4370672
vt 0.4887238 0.6632238
vt 0.4887238 0.6632238
vt 0.3418846 0.4370672
vt 0.5639852 0.3444038
vt 0.5639852 0.3444038
vt 0.3418846 0.4370672
vt 0.5493632 0.2948846
vt 0.5493632 0.2948846
vt 0.3418846 0.4370672
vt 0.4116138 0.34059
vt 0.4116138 0.34059
vt 0.3418846 0.4370672
vt 0.3468439 0.3955947
vt 0.6314233 0.4497613
vt 0.5379077 0.4501152
vt 0.5658385 0.3814524
vt 0.4105893 0.4360381
vt 0.4103425 0.427372
vt 0.4327085 0.4193439
vt 0.5352441 0.4802067
vt 0.7310484 0.5726326
vt 0.5040537 0.519565
vt 0.5040537 0.519565
vt 0.7310484 0.5726326
vt 0.7205709 0.6305991
vt 0.5382057 0.446511
vt 0.4722066 0.4816969
vt 0.5421081 0.4286712
vt 0.5421081 0.4286712
vt 0.4722066 0.4816969
vt 0.5411208 0.4201122
vt 0.5411208 0.4201122
vt 0.4722066 0.4816969
vt 0.4621621 0.3783417
vt 0.4621621 0.3783417
vt 0.4722066 0.4816969
vt 0.441342 0.4416075
vt 0.5459265 0.5484458
vt 0.5133856 0.3692519
vt 0.6412209 0.5084822
vt 0.6412209 0.5084822
vt 0.5133856 0.3692519
vt 0.6396936 0.5054274
vt 0.4776502 0.5354071
vt 0.3904445 0.3932012
vt 0.5187594 0.5479336
vt 0.5187594 0.5479336
vt 0.3904445 0.3932012
vt 0.5468951 0.5312161
vt 0.5468951 0.5312161
vt 0.3904445 0.3932012
vt 0.4675126 0.3331672
vt 0.4641877 0.4625206
vt 0.3638734 0.3937041
vt 0.4970733 0.4602202
vt 0.4970733 0.4602202
vt 0.3638734 0.3937041
vt 0.4303755 0.3441058
vt 0.4303755 0.3441058
vt 0.3638734 0.3937041
vt 0.3981047 0.3257305
vt 0.3981047 0.3257305
vt 0.3638734 0.3937041
vt 0.3677338 0.3240075
vt 0.468579 0.5856527
vt 0.506056 0.6007869
vt 0.4697292 0.5890987
vt 0.4697292 0.5890987
vt 0.506056 0.6007869
vt 0.4981909 0.6121958
vt 0.344157 0.4880765
vt 0.3664066 0.47338
vt 0.3362593 0.4994109
vt 0.3362593 0.4994109
vt 0.3664066 0.47338
vt 0.3791241 0.5655545
vt 0.3791241 0.5655545
vt 0.3664066 0.47338
vt 0.4103611 0.5576102
vt 0.4103611 0.5576102
vt 0.3664066 0.47338
vt 0.4859345 0.4488021
vt 0.6195115 0.3951896
vt 0.616941 0.4652122
vt 0.5013062 0.3104985
vt 0.5013062 0.3104985
vt 0.616941 0.4652122
vt 0.4750378 0.3432909
vt 0.4750378 0.3432909
vt 0.616941 0.4652122
vt 0.4132529 0.4981443
vt 0.3793895 0.5859601
vt 0.3613169 0.442441
vt 0.5390998 0.5511932
vt 0.5390998 0.5511932
vt 0.3613169 0.442441
vt 0.6331835 0.4264826
vt 0.6331835 0.4264826
vt 0.3613169 0.442441
vt 0.6179375 0.3665044
vt 0.6179375 0.3665044
vt 0.3613169 0.442441
vt 0.3822207 0.411027

usemtl Material0
usemap Material0

usemtl Material1
usemap Material1
f 1/1/1 2/2/2 3/3/3
f 4/4/4 5/5/5 6/6/6
f 7/7/7 8/8/8 9/9/9
f 10/10/10 11/11/11 12/12/12
f 13/13/13 14/14/14 15/15/15
f 16/16/16 17/17/17 18/18/18
f 19/19/19 20/20/20 21/21/21
f 22/22/22 23/23/23 24/24/24
f 25/25/25 26/26/26 27/27/27
f 28/28/28 29/29/29 30/30/30
f 31/31/31 32/32/32 33/33/33
f 34/34/34 35/35/35 36/36/36
f 37/37/37 38/38/38 39/39/39
f 40/40/40 41/41/41 42/42/42
f 43/43/43 44/44/44 45/45/45
f 46/46/46 47/47/47 48/48/48
f 49/49/49 50/50/50 51/51/51
f 52/52/52 53/53/53 54/54/54
f 55/55/55 56/56/56 57/57/57
f 58/58/58 59/59/59 60/60/60
f 61/61/61 62/62/62 63/63/63
f 64/64/64 65/65/65 66/66/66
f 67/67/67 68/68/68 69/69/69
f 70/70/70 71/71/71 72/72/72
f 73/73/73 74/74/74 75/75/75
f 76/76/76 77/77/77 78/78/78
f 79/79/79 80/80/80 81/81/81
f 82/82/82 83/83/83 84/84/84
f 85/85/85 86/86/86 87/87/87
f 88/88/88 89/89/89 90/90/90
f 91/91/91 92/92/92 93/93/93
f 94/94/94 95/95/95 96/96/96
f 97/97/97 98/98/98 99/99/99
f 100/100/100 101/101/101 102/102/102
f 103/103/103 104/104/104 105/105/105
f 106/106/106 107/107/107 108/108/108
f 109/109/109 110/110/110 111/111/111
f 112/112/112 113/113/113 114/114/114
f 115/115/115 116/116/116 117/117/117
f 118/118/118 119/119/119 120/120/120
f 121/121/121 122/122/122 123/123/123
f 124/124/124 125/125/125 126/126/126
f 127/127/127 128/128/128 129/129/129
f 130/130/130 131/131/131 132/132/132
f 133/133/133 134/134/134 135/135/135
f 136/136/136 137/137/137 138/138/138
f 139/139/139 140/140/140 141/141/141
f 142/142/142 143/143/143 144/144/144
f 145/145/145 146/146/146 147/147/147
f 148/148/148 149/149/149 150/150/150
f 151/151/151 152/152/152 153/153/153
f 154/154/154 155/155/155 156/156/156
f 157/157/157 158/158/158 159/159/159
f 160/160/160 161/161/161 162/162/162
f 163/163/163 164/164/164 165/165/165
f 166/166/166 167/167/167 168/168/168
