g  Instance
v 2.455165 -54.18636 2.473945
v 2.328624 -54.24374 2.444989
v 2.240108 -54.07747 2.551621
v 2.240108 -54.07747 2.551621
v 2.328624 -54.24374 2.444989
v 1.178063 -52.33815 4.103298
v 1.178063 -52.33815 4.103298
v 2.328624 -54.24374 2.444989
v 1.167493 -52.33335 4.132068
v 1.167493 -52.33335 4.132068
v 2.328624 -54.24374 2.444989
v 1.132856 -53.41762 5.397647
v 1.132856 -53.41762 5.397647
v 2.328624 -54.24374 2.444989
v 1.514469 -54.38627 5.206059
v 1.514469 -54.38627 5.206059
v 2.328624 -54.24374 2.444989
v 2.363478 -54.38955 2.488545
v 3.502668 -52.62808 4.865747
v 3.485836 -54.3637 3.98264
v 3.3634 -52.31919 4.408146
v 3.3634 -52.31919 4.408146
v 3.485836 -54.3637 3.98264
v 3.152192 -54.07087 2.677582
v 3.152192 -54.07087 2.677582
v 3.485836 -54.3637 3.98264
v 3.204563 -54.37521 2.761797
v 1.217848 -52.31425 4.131748
v 1.178063 -52.33815 4.103298
v 1.167493 -52.33335 4.132068
v 2.60923 -54.36827 5.448635
v 2.762728 -53.16724 5.822122
v 1.514469 -54.38627 5.206059
v 1.514469 -54.38627 5.206059
v 2.762728 -53.16724 5.822122
v 1.132856 -53.41762 5.397647
v 3.3634 -52.31919 4.408146
v 2.63667 -52.10945 4.516793
v 3.502668 -52.62808 4.865747
v 3.502668 -52.62808 4.865747
v 2.63667 -52.10945 4.516793
v 3.030214 -52.83539 5.548299
v 3.030214 -52.83539 5.548299
v 2.762728 -53.16724 5.822122
v 3.502668 -52.62808 4.865747
v 3.502668 -52.62808 4.865747
v 2.762728 -53.16724 5.822122
v 3.485836 -54.3637 3.98264
v 3.485836 -54.3637 3.98264
v 2.762728 -53.16724 5.822122
v 2.60923 -54.36827 5.448635
v 2.63667 -52.10945 4.516793
v 3.3634 -52.31919 4.408146
v 1.217848 -52.31425 4.131748
v 1.217848 -52.31425 4.131748
v 3.3634 -52.31919 4.408146
v 1.178063 -52.33815 4.103298
v 1.178063 -52.33815 4.103298
v 3.3634 -52.31919 4.408146
v 2.240108 -54.07747 2.551621
v 2.240108 -54.07747 2.551621
v 3.3634 -52.31919 4.408146
v 2.455165 -54.18636 2.473945
v 2.455165 -54.18636 2.473945
v 3.3634 -52.31919 4.408146
v 3.152192 -54.07087 2.677582
v 3.152192 -54.07087 2.677582
v 3.204563 -54.37521 2.761797
v 2.455165 -54.18636 2.473945
v 2.455165 -54.18636 2.473945
v 3.204563 -54.37521 2.761797
v 2.328624 -54.24374 2.444989
v 2.328624 -54.24374 2.444989
v 3.204563 -54.37521 2.761797
v 2.363478 -54.38955 2.488545
v 1.514469 -54.38627 5.206059
v 2.363478 -54.38955 2.488545
v 2.60923 -54.36827 5.448635
v 2.60923 -54.36827 5.448635
v 2.363478 -54.38955 2.488545
v 3.485836 -54.3637 3.98264
v 3.485836 -54.3637 3.98264
v 2.363478 -54.38955 2.488545
v 3.204563 -54.37521 2.761797
v 1.132856 -53.41762 5.397647
v 2.762728 -53.16724 5.822122
v 1.167493 -52.33335 4.132068
v 1.167493 -52.33335 4.132068
v 2.762728 -53.16724 5.822122
v 1.217848 -52.31425 4.131748
v 1.217848 -52.31425 4.131748
v 2.762728 -53.16724 5.822122
v 2.63667 -52.10945 4.516793
v 2.63667 -52.10945 4.516793
v 2.762728 -53.16724 5.822122
v 3.030214 -52.83539 5.548299

vn -0.0424931 0.5232054 -0.8511466
vn -0.0424931 0.5232054 -0.8511466
vn -0.0424931 0.5232054 -0.8511466
vn -0.9099383 -0.3023277 -0.2839195
vn -0.9099383 -0.3023277 -0.2839195
vn -0.9099383 -0.3023277 -0.2839195
vn -0.9099383 -0.3023277 -0.2839195
vn -0.9099383 -0.3023277 -0.2839195
vn -0.9099383 -0.3023277 -0.2839195
vn -0.9099383 -0.3023277 -0.2839195
vn -0.9099383 -0.3023277 -0.2839195
vn -0.9099383 -0.3023277 -0.2839195
vn -0.9099383 -0.3023277 -0.2839195
vn -0.9099383 -0.3023277 -0.2839195
vn -0.9099383 -0.3023277 -0.2839195
vn -0.9099383 -0.3023277 -0.2839195
vn -0.9099383 -0.3023277 -0.2839195
vn -0.9099383 -0.3023277 -0.2839195
vn 0.968901 0.1046861 -0.2242132
vn 0.968901 0.1046861 -0.2242132
vn 0.968901 0.1046861 -0.2242132
vn 0.968901 0.1046861 -0.2242132
vn 0.968901 0.1046861 -0.2242132
vn 0.968901 0.1046861 -0.2242132
vn 0.968901 0.1046861 -0.2242132
vn 0.968901 0.1046861 -0.2242132
vn 0.968901 0.1046861 -0.2242132
vn -0.3425654 0.8981813 -0.2755348
vn -0.3425654 0.8981813 -0.2755348
vn -0.3425654 0.8981813 -0.2755348
vn -0.2042992 -0.2667812 0.9418544
vn -0.2042992 -0.2667812 0.9418544
vn -0.2042992 -0.2667812 0.9418544
vn -0.2042992 -0.2667812 0.9418544
vn -0.2042992 -0.2667812 0.9418544
vn -0.2042992 -0.2667812 0.9418544
vn 0.3089633 0.8292578 0.4656965
vn 0.3089633 0.8292578 0.4656965
vn 0.3089633 0.8292578 0.4656965
vn 0.3089633 0.8292578 0.4656965
vn 0.3089633 0.8292578 0.4656965
vn 0.3089633 0.8292578 0.4656965
vn 0.8291259 -0.2598937 0.4949802
vn 0.8291259 -0.2598937 0.4949802
vn 0.8291259 -0.2598937 0.4949802
vn 0.8291259 -0.2598937 0.4949802
vn 0.8291259 -0.2598937 0.4949802
vn 0.8291259 -0.2598937 0.4949802
vn 0.8291259 -0.2598937 0.4949802
vn 0.8291259 -0.2598937 0.4949802
vn 0.8291259 -0.2598937 0.4949802
vn 0.09357414 0.693994 -0.7138741
vn 0.09357414 0.693994 -0.7138741
vn 0.09357414 0.693994 -0.7138741
vn 0.09357414 0.693994 -0.7138741
vn 0.09357414 0.693994 -0.7138741
vn 0.09357414 0.693994 -0.7138741
vn 0.09357414 0.693994 -0.7138741
vn 0.09357414 0.693994 -0.7138741
vn 0.09357414 0.693994 -0.7138741
vn 0.09357414 0.693994 -0.7138741
vn 0.09357414 0.693994 -0.7138741
vn 0.09357414 0.693994 -0.7138741
vn 0.09357414 0.693994 -0.7138741
vn 0.09357414 0.693994 -0.7138741
vn 0.09357414 0.693994 -0.7138741
vn 0.3056003 -0.2047358 -0.929888
vn 0.3056003 -0.2047358 -0.929888
vn 0.3056003 -0.2047358 -0.929888
vn 0.3056003 -0.2047358 -0.929888
vn 0.3056003 -0.2047358 -0.929888
vn 0.3056003 -0.2047358 -0.929888
vn 0.3056003 -0.2047358 -0.929888
vn 0.3056003 -0.2047358 -0.929888
vn 0.3056003 -0.2047358 -0.929888
vn 0.01512694 -0.999868 0.005933017
vn 0.01512694 -0.999868 0.005933017
vn 0.01512694 -0.999868 0.005933017
vn 0.01512694 -0.999868 0.005933017
vn 0.01512694 -0.999868 0.005933017
vn 0.01512694 -0.999868 0.005933017
vn 0.01512694 -0.999868 0.005933017
vn 0.01512694 -0.999868 0.005933017
vn 0.01512694 -0.999868 0.005933017
vn -0.27455 0.7339278 0.6212667
vn -0.27455 0.7339278 0.6212667
vn -0.27455 0.7339278 0.6212667
vn -0.27455 0.7339278 0.6212667
vn -0.27455 0.7339278 0.6212667
vn -0.27455 0.7339278 0.6212667
vn -0.27455 0.7339278 0.6212667
vn -0.27455 0.7339278 0.6212667
vn -0.27455 0.7339278 0.6212667
vn -0.27455 0.7339278 0.6212667
vn -0.27455 0.7339278 0.6212667
vn -0.27455 0.7339278 0.6212667

vt 0.5084216 0.6635684
vt 0.4865631 0.6727886
vt 0.4740646 0.6388321
vt 0.488002 0.6092528
vt 0.4710051 0.6194323
vt 0.6697106 0.4611516
vt 0.6697106 0.4611516
vt 0.4710051 0.6194323
vt 0.6704277 0.4584041
vt 0.6704277 0.4584041
vt 0.4710051 0.6194323
vt 0.5772567 0.3376051
vt 0.5772567 0.3376051
vt 0.4710051 0.6194323
vt 0.4821206 0.3558919
vt 0.4821206 0.3558919
vt 0.4710051 0.6194323
vt 0.4573378 0.6152785
vt 0.397653 0.3858995
vt 0.552865 0.467494
vt 0.3686512 0.4281822
vt 0.3686512 0.4281822
vt 0.552865 0.467494
vt 0.5234255 0.5880835
vt 0.5234255 0.5880835
vt 0.552865 0.467494
vt 0.5511793 0.5802975
vt 0.4521502 0.4280519
vt 0.4479778 0.4307527
vt 0.4472328 0.4280193
vt 0.4823628 0.4047032
vt 0.5950732 0.3906447
vt 0.4748842 0.5049617
vt 0.4748842 0.5049617
vt 0.5950732 0.3906447
vt 0.5631097 0.5399054
vt 0.5368367 0.5352395
vt 0.4620503 0.5230669
vt 0.560474 0.4839693
vt 0.560474 0.4839693
vt 0.4620503 0.5230669
vt 0.5237514 0.4074833
vt 0.3784907 0.3664299
vt 0.4185522 0.3346061
vt 0.3442408 0.4457659
vt 0.3442408 0.4457659
vt 0.4185522 0.3346061
vt 0.5120072 0.5484086
vt 0.5120072 0.5484086
vt 0.4185522 0.3346061
vt 0.5389322 0.3780204
vt 0.5019209 0.2806351
vt 0.5956879 0.3000768
vt 0.3291485 0.3495401
vt 0.3291485 0.3495401
vt 0.5956879 0.3000768
vt 0.3246082 0.3546299
vt 0.3246082 0.3546299
vt 0.5956879 0.3000768
vt 0.4856318 0.6323034
vt 0.4856318 0.6323034
vt 0.5956879 0.3000768
vt 0.5141586 0.6461989
vt 0.5141586 0.6461989
vt 0.5956879 0.3000768
vt 0.5987892 0.6097558
vt 0.480095 0.4272695
vt 0.5091574 0.4221984
vt 0.4864607 0.4947356
vt 0.4864607 0.4947356
vt 0.5091574 0.4221984
vt 0.4910475 0.5069827
vt 0.4910475 0.5069827
vt 0.5091574 0.4221984
vt 0.5050315 0.5036113
vt 0.57667 0.3815409
vt 0.5021724 0.6200191
vt 0.4805886 0.3602598
vt 0.4805886 0.3602598
vt 0.5021724 0.6200191
vt 0.4036694 0.4889054
vt 0.4036694 0.4889054
vt 0.5021724 0.6200191
vt 0.4283592 0.5960464
vt 0.3877482 0.4258586
vt 0.5685301 0.3651959
vt 0.4339239 0.6067289
vt 0.4339239 0.6067289
vt 0.5685301 0.3651959
vt 0.4399543 0.6067755
vt 0.4399543 0.6067755
vt 0.5685301 0.3651959
vt 0.5968055 0.5517427
vt 0.5968055 0.5517427
vt 0.5685301 0.3651959
vt 0.609602 0.4043261

usemtl Material0
usemap Material0

usemtl Material1
usemap Material1
f 1/1/1 2/2/2 3/3/3
f 4/4/4 5/5/5 6/6/6
f 7/7/7 8/8/8 9/9/9
f 10/10/10 11/11/11 12/12/12
f 13/13/13 14/14/14 15/15/15
f 16/16/16 17/17/17 18/18/18
f 19/19/19 20/20/20 21/21/21
f 22/22/22 23/23/23 24/24/24
f 25/25/25 26/26/26 27/27/27
f 28/28/28 29/29/29 30/30/30
f 31/31/31 32/32/32 33/33/33
f 34/34/34 35/35/35 36/36/36
f 37/37/37 38/38/38 39/39/39
f 40/40/40 41/41/41 42/42/42
f 43/43/43 44/44/44 45/45/45
f 46/46/46 47/47/47 48/48/48
f 49/49/49 50/50/50 51/51/51
f 52/52/52 53/53/53 54/54/54
f 55/55/55 56/56/56 57/57/57
f 58/58/58 59/59/59 60/60/60
f 61/61/61 62/62/62 63/63/63
f 64/64/64 65/65/65 66/66/66
f 67/67/67 68/68/68 69/69/69
f 70/70/70 71/71/71 72/72/72
f 73/73/73 74/74/74 75/75/75
f 76/76/76 77/77/77 78/78/78
f 79/79/79 80/80/80 81/81/81
f 82/82/82 83/83/83 84/84/84
f 85/85/85 86/86/86 87/87/87
f 88/88/88 89/89/89 90/90/90
f 91/91/91 92/92/92 93/93/93
f 94/94/94 95/95/95 96/96/96
