g  Instance
v 2.147715 -47.87795 10.33046
v 1.402874 -47.92105 10.4254
v 2.154155 -47.87991 10.33004
v 2.154155 -47.87991 10.33004
v 1.402874 -47.92105 10.4254
v 1.618921 -48.20737 10.44899
v 1.61088 -48.97522 10.51151
v 2.472595 -49.4718 10.38934
v 2.578978 -49.02187 10.36946
v 2.154155 -47.87991 10.33004
v 2.161335 -47.87737 10.32794
v 2.155021 -47.87757 10.32936
v 2.154155 -47.87991 10.33004
v 2.15324 -47.87766 10.32966
v 2.147715 -47.87795 10.33046
v 2.154155 -47.87991 10.33004
v 2.155021 -47.87757 10.32936
v 2.15324 -47.87766 10.32966
v 2.154155 -47.87991 10.33004
v 1.618921 -48.20737 10.44899
v 2.578978 -49.02187 10.36946
v 1.408644 -48.86338 10.53303
v 1.61088 -48.97522 10.51151
v 1.618921 -48.20737 10.44899
v 1.618921 -48.20737 10.44899
v 1.61088 -48.97522 10.51151
v 2.578978 -49.02187 10.36946
v 2.842261 -49.54601 10.2914
v 2.578978 -49.02187 10.36946
v 2.687776 -49.61434 10.33058
v 2.687776 -49.61434 10.33058
v 2.578978 -49.02187 10.36946
v 2.472595 -49.4718 10.38934
v 2.842261 -49.54601 10.2914
v 3.13145 -49.41596 10.21364
v 2.578978 -49.02187 10.36946
v 2.578978 -49.02187 10.36946
v 3.13145 -49.41596 10.21364
v 3.107311 -48.97861 10.2252
v 1.046157 -48.68613 10.53621
v 1.408644 -48.86338 10.53303
v 1.618921 -48.20737 10.44899
v 1.618921 -48.20737 10.44899
v 1.116376 -48.08841 10.45874
v 1.046157 -48.68613 10.53621
v 1.046157 -48.68613 10.53621
v 1.116376 -48.08841 10.45874
v 0.5244099 -48.43754 10.53083
v 1.402874 -47.92105 10.4254
v 1.401301 -47.92117 10.42549
v 1.618921 -48.20737 10.44899
v 1.618921 -48.20737 10.44899
v 1.401301 -47.92117 10.42549
v 1.116376 -48.08841 10.45874
v 3.107311 -48.97861 10.2252
v 3.083822 -48.57816 10.18662
v 2.578978 -49.02187 10.36946
v 2.578978 -49.02187 10.36946
v 3.083822 -48.57816 10.18662
v 2.154155 -47.87991 10.33004
v 2.154155 -47.87991 10.33004
v 3.083822 -48.57816 10.18662
v 3.055455 -48.09828 10.13251
v 2.154155 -47.87991 10.33004
v 3.055455 -48.09828 10.13251
v 2.161335 -47.87737 10.32794
v 2.161335 -47.87737 10.32794
v 3.055455 -48.09828 10.13251
v 2.867915 -47.85909 10.15005
v 2.867915 -47.85909 10.15005
v 3.055455 -48.09828 10.13251
v 3.051444 -48.03024 10.12523
v -0.4399464 -48.39774 9.22292
v -0.6111053 -48.67551 9.24802
v -0.3472414 -48.31824 9.499055
v -0.3472414 -48.31824 9.499055
v -0.6111053 -48.67551 9.24802
v -0.42012 -48.49487 9.748032
v -0.42012 -48.49487 9.748032
v -0.6111053 -48.67551 9.24802
v -0.6116352 -48.69106 9.308085
v 0.5244099 -48.43754 10.53083
v 1.116376 -48.08841 10.45874
v -0.42012 -48.49487 9.748032
v -0.42012 -48.49487 9.748032
v 1.116376 -48.08841 10.45874
v -0.3472414 -48.31824 9.499055
v -0.3472414 -48.31824 9.499055
v 1.116376 -48.08841 10.45874
v 1.401301 -47.92117 10.42549
v 3.025935 -48.79718 8.853378
v 3.058602 -48.6883 9.073692
v 3.078889 -48.9664 9.241469
v 1.401301 -47.92117 10.42549
v 1.402874 -47.92105 10.4254
v -0.3472414 -48.31824 9.499055
v -0.3472414 -48.31824 9.499055
v 1.402874 -47.92105 10.4254
v -0.4399464 -48.39774 9.22292
v -0.4399464 -48.39774 9.22292
v 1.402874 -47.92105 10.4254
v 1.995996 -48.51971 7.891141
v 1.995996 -48.51971 7.891141
v 1.402874 -47.92105 10.4254
v 2.867915 -47.85909 10.15005
v 2.867915 -47.85909 10.15005
v 1.402874 -47.92105 10.4254
v 2.161335 -47.87737 10.32794
v 2.161335 -47.87737 10.32794
v 1.402874 -47.92105 10.4254
v 2.155021 -47.87757 10.32936
v 2.15324 -47.87766 10.32966
v 2.155021 -47.87757 10.32936
v 2.147715 -47.87795 10.33046
v 2.155021 -47.87757 10.32936
v 1.402874 -47.92105 10.4254
v 2.147715 -47.87795 10.33046
v 2.687776 -49.61434 10.33058
v 2.472595 -49.4718 10.38934
v 0.7619119 -49.57812 8.967776
v 0.7619119 -49.57812 8.967776
v 2.472595 -49.4718 10.38934
v -0.5511047 -48.78186 9.21429
v -0.5511047 -48.78186 9.21429
v 2.472595 -49.4718 10.38934
v -0.6116352 -48.69106 9.308085
v -0.6116352 -48.69106 9.308085
v 2.472595 -49.4718 10.38934
v -0.42012 -48.49487 9.748032
v -0.42012 -48.49487 9.748032
v 2.472595 -49.4718 10.38934
v 0.5244099 -48.43754 10.53083
v 0.5244099 -48.43754 10.53083
v 2.472595 -49.4718 10.38934
v 1.046157 -48.68613 10.53621
v 1.046157 -48.68613 10.53621
v 2.472595 -49.4718 10.38934
v 1.408644 -48.86338 10.53303
v 1.408644 -48.86338 10.53303
v 2.472595 -49.4718 10.38934
v 1.61088 -48.97522 10.51151
v 1.995996 -48.51971 7.891141
v 2.867915 -47.85909 10.15005
v 2.064848 -48.61512 7.831502
v 2.064848 -48.61512 7.831502
v 2.867915 -47.85909 10.15005
v 3.025935 -48.79718 8.853378
v 3.025935 -48.79718 8.853378
v 2.867915 -47.85909 10.15005
v 3.058602 -48.6883 9.073692
v 3.058602 -48.6883 9.073692
v 2.867915 -47.85909 10.15005
v 3.051444 -48.03024 10.12523
v 3.083822 -48.57816 10.18662
v 3.107311 -48.97861 10.2252
v 3.055455 -48.09828 10.13251
v 3.055455 -48.09828 10.13251
v 3.107311 -48.97861 10.2252
v 3.051444 -48.03024 10.12523
v 3.051444 -48.03024 10.12523
v 3.107311 -48.97861 10.2252
v 3.058602 -48.6883 9.073692
v 3.058602 -48.6883 9.073692
v 3.107311 -48.97861 10.2252
v 3.078889 -48.9664 9.241469
v 3.078889 -48.9664 9.241469
v 3.107311 -48.97861 10.2252
v 3.13145 -49.41596 10.21364
v -0.6116352 -48.69106 9.308085
v -0.6111053 -48.67551 9.24802
v -0.5511047 -48.78186 9.21429
v -0.5511047 -48.78186 9.21429
v -0.6111053 -48.67551 9.24802
v -0.5549058 -48.76935 9.195505
v -0.5549058 -48.76935 9.195505
v 0.7879121 -49.27636 8.356179
v -0.5511047 -48.78186 9.21429
v -0.5511047 -48.78186 9.21429
v 0.7879121 -49.27636 8.356179
v 0.7619119 -49.57812 8.967776
v -0.5549058 -48.76935 9.195505
v -0.6111053 -48.67551 9.24802
v 0.7879121 -49.27636 8.356179
v 0.7879121 -49.27636 8.356179
v -0.6111053 -48.67551 9.24802
v 2.064848 -48.61512 7.831502
v 2.064848 -48.61512 7.831502
v -0.6111053 -48.67551 9.24802
v 1.995996 -48.51971 7.891141
v 1.995996 -48.51971 7.891141
v -0.6111053 -48.67551 9.24802
v -0.4399464 -48.39774 9.22292
v 3.078889 -48.9664 9.241469
v 3.13145 -49.41596 10.21364
v 3.025935 -48.79718 8.853378
v 3.025935 -48.79718 8.853378
v 3.13145 -49.41596 10.21364
v 2.064848 -48.61512 7.831502
v 2.064848 -48.61512 7.831502
v 3.13145 -49.41596 10.21364
v 0.7879121 -49.27636 8.356179
v 0.7879121 -49.27636 8.356179
v 3.13145 -49.41596 10.21364
v 0.7619119 -49.57812 8.967776
v 0.7619119 -49.57812 8.967776
v 3.13145 -49.41596 10.21364
v 2.687776 -49.61434 10.33058
v 2.687776 -49.61434 10.33058
v 3.13145 -49.41596 10.21364
v 2.842261 -49.54601 10.2914

vn 0.1151108 0.167519 0.9791255
vn 0.1151108 0.167519 0.9791255
vn 0.1151108 0.167519 0.9791255
vn 0.1151108 0.167519 0.9791255
vn 0.1151108 0.167519 0.9791255
vn 0.1151108 0.167519 0.9791255
vn 0.1456002 0.009286572 0.9892999
vn 0.1456002 0.009286572 0.9892999
vn 0.1456002 0.009286572 0.9892999
vn 0.2089203 0.1986438 0.9575453
vn 0.2089203 0.1986438 0.9575453
vn 0.2089203 0.1986438 0.9575453
vn 0.1284996 0.2138864 0.9683699
vn 0.1284996 0.2138864 0.9683699
vn 0.1284996 0.2138864 0.9683699
vn 0.1284996 0.2138864 0.9683699
vn 0.1285525 0.2139059 0.9683579
vn 0.1284996 0.2138864 0.9683699
vn 0.1609632 0.09380136 0.9824928
vn 0.1609632 0.09380136 0.9824928
vn 0.1609632 0.09380136 0.9824928
vn 0.1500967 0.08071551 0.9853478
vn 0.1508746 0.08165218 0.9851435
vn 0.1609632 0.09380136 0.9824928
vn 0.1609632 0.09380136 0.9824928
vn 0.1508746 0.08165218 0.9851435
vn 0.1609632 0.09380136 0.9824928
vn 0.2528826 -0.01704855 0.9673467
vn 0.2528826 -0.01704855 0.9673467
vn 0.2528826 -0.01704855 0.9673467
vn 0.2528826 -0.01704855 0.9673467
vn 0.2528826 -0.01704855 0.9673467
vn 0.2528826 -0.01704855 0.9673467
vn 0.2528826 -0.01704855 0.9673467
vn 0.271908 -0.01558042 0.9619768
vn 0.2528826 -0.01704855 0.9673467
vn 0.2528826 -0.01704855 0.9673467
vn 0.271908 -0.01558042 0.9619768
vn 0.2824022 -0.01477061 0.9590148
vn 0.06126942 0.1074857 0.9923168
vn 0.06126942 0.1074857 0.9923168
vn 0.06126942 0.1074857 0.9923168
vn 0.06126942 0.1074857 0.9923168
vn 0.05639918 0.1123696 0.9920225
vn 0.06126942 0.1074857 0.9923168
vn 0.06126942 0.1074857 0.9923168
vn 0.05639918 0.1123696 0.9920225
vn 0.05508299 0.1136895 0.9919429
vn 0.05523399 0.1135381 0.991952
vn 0.05522699 0.1135451 0.9919516
vn 0.06126942 0.1074857 0.9923168
vn 0.06126942 0.1074857 0.9923168
vn 0.05522699 0.1135451 0.9919516
vn 0.05639918 0.1123696 0.9920225
vn 0.2536801 0.1074876 0.9612974
vn 0.2536801 0.1074876 0.9612974
vn 0.2536801 0.1074876 0.9612974
vn 0.2536801 0.1074876 0.9612974
vn 0.2536801 0.1074876 0.9612974
vn 0.2403749 0.120929 0.9631178
vn 0.2403749 0.120929 0.9631178
vn 0.2536801 0.1074876 0.9612974
vn 0.2492477 0.1119654 0.9619039
vn 0.2403749 0.120929 0.9631178
vn 0.2492477 0.1119654 0.9619039
vn 0.2403749 0.120929 0.9631178
vn 0.2403749 0.120929 0.9631178
vn 0.2492477 0.1119654 0.9619039
vn 0.2442046 0.1170601 0.9625939
vn 0.2442046 0.1170601 0.9625939
vn 0.2492477 0.1119654 0.9619039
vn 0.2481016 0.1131233 0.9620607
vn -0.8389168 0.5286405 0.1294521
vn -0.8389168 0.5286405 0.1294521
vn -0.8389168 0.5286405 0.1294521
vn -0.8389168 0.5286405 0.1294521
vn -0.8389168 0.5286405 0.1294521
vn -0.8389168 0.5286405 0.1294521
vn -0.8389168 0.5286405 0.1294521
vn -0.8389168 0.5286405 0.1294521
vn -0.8389168 0.5286405 0.1294521
vn -0.414975 0.7949843 0.4424883
vn -0.414975 0.7949843 0.4424883
vn -0.414975 0.7949843 0.4424883
vn -0.414975 0.7949843 0.4424883
vn -0.414975 0.7949843 0.4424883
vn -0.414975 0.7949843 0.4424883
vn -0.414975 0.7949843 0.4424883
vn -0.414975 0.7949843 0.4424883
vn -0.414975 0.7949843 0.4424883
vn 0.9899908 -0.01258625 -0.1405693
vn 0.9899908 -0.01258625 -0.1405693
vn 0.9899908 -0.01258625 -0.1405693
vn -0.08748259 0.9647086 -0.2483629
vn -0.08748259 0.9647086 -0.2483629
vn -0.08748259 0.9647086 -0.2483629
vn -0.08748259 0.9647086 -0.2483629
vn -0.08748259 0.9647086 -0.2483629
vn -0.08748259 0.9647086 -0.2483629
vn -0.08748259 0.9647086 -0.2483629
vn -0.08748259 0.9647086 -0.2483629
vn -0.08748259 0.9647086 -0.2483629
vn -0.08748259 0.9647086 -0.2483629
vn -0.08748259 0.9647086 -0.2483629
vn -0.08748259 0.9647086 -0.2483629
vn -0.08748259 0.9647086 -0.2483629
vn -0.08748259 0.9647086 -0.2483629
vn -0.08748259 0.9647086 -0.2483629
vn -0.08748259 0.9647086 -0.2483629
vn -0.08748259 0.9647086 -0.2483629
vn -0.08748259 0.9647086 -0.2483629
vn -0.08748259 0.9647086 -0.2483629
vn -0.08748259 0.9647086 -0.2483629
vn -0.08748259 0.9647086 -0.2483629
vn -0.08748259 0.9647086 -0.2483629
vn -0.08748259 0.9647086 -0.2483629
vn -0.08748259 0.9647086 -0.2483629
vn -0.374577 -0.7751665 0.5087327
vn -0.374577 -0.7751665 0.5087327
vn -0.374577 -0.7751665 0.5087327
vn -0.374577 -0.7751665 0.5087327
vn -0.374577 -0.7751665 0.5087327
vn -0.374577 -0.7751665 0.5087327
vn -0.374577 -0.7751665 0.5087327
vn -0.374577 -0.7751665 0.5087327
vn -0.374577 -0.7751665 0.5087327
vn -0.374577 -0.7751665 0.5087327
vn -0.374577 -0.7751665 0.5087327
vn -0.374577 -0.7751665 0.5087327
vn -0.374577 -0.7751665 0.5087327
vn -0.374577 -0.7751665 0.5087327
vn -0.374577 -0.7751665 0.5087327
vn -0.374577 -0.7751665 0.5087327
vn -0.374577 -0.7751665 0.5087327
vn -0.374577 -0.7751665 0.5087327
vn -0.374577 -0.7751665 0.5087327
vn -0.374577 -0.7751665 0.5087327
vn -0.374577 -0.7751665 0.5087327
vn -0.374577 -0.7751665 0.5087327
vn -0.374577 -0.7751665 0.5087327
vn -0.374577 -0.7751665 0.5087327
vn 0.5849929 0.6892927 -0.4273861
vn 0.5849929 0.6892927 -0.4273861
vn 0.5849929 0.6892927 -0.4273861
vn 0.5849929 0.6892927 -0.4273861
vn 0.5849929 0.6892927 -0.4273861
vn 0.5849929 0.6892927 -0.4273861
vn 0.5849929 0.6892927 -0.4273861
vn 0.5849929 0.6892927 -0.4273861
vn 0.5849929 0.6892927 -0.4273861
vn 0.5849929 0.6892927 -0.4273861
vn 0.5849929 0.6892927 -0.4273861
vn 0.5849929 0.6892927 -0.4273861
vn 0.9980436 0.055831 -0.02814165
vn 0.9980436 0.055831 -0.02814165
vn 0.9980436 0.055831 -0.02814165
vn 0.9980436 0.055831 -0.02814165
vn 0.9980436 0.055831 -0.02814165
vn 0.9980436 0.055831 -0.02814165
vn 0.9980436 0.055831 -0.02814165
vn 0.9980436 0.055831 -0.02814165
vn 0.9980436 0.055831 -0.02814165
vn 0.9980436 0.055831 -0.02814165
vn 0.9980436 0.055831 -0.02814165
vn 0.9980436 0.055831 -0.02814165
vn 0.9980436 0.055831 -0.02814165
vn 0.9980436 0.055831 -0.02814165
vn 0.9980436 0.055831 -0.02814165
vn -0.8805913 -0.4568102 -0.1260299
vn -0.8805913 -0.4568102 -0.1260299
vn -0.8805913 -0.4568102 -0.1260299
vn -0.8805913 -0.4568102 -0.1260299
vn -0.8805913 -0.4568102 -0.1260299
vn -0.8805913 -0.4568102 -0.1260299
vn -0.5296062 -0.7515329 -0.3933392
vn -0.5296062 -0.7515329 -0.3933392
vn -0.5296062 -0.7515329 -0.3933392
vn -0.5296062 -0.7515329 -0.3933392
vn -0.5296062 -0.7515329 -0.3933392
vn -0.5296062 -0.7515329 -0.3933392
vn -0.4614038 0.2063817 -0.8628518
vn -0.4614038 0.2063817 -0.8628518
vn -0.4614038 0.2063817 -0.8628518
vn -0.4614038 0.2063817 -0.8628518
vn -0.4614038 0.2063817 -0.8628518
vn -0.4614038 0.2063817 -0.8628518
vn -0.4614038 0.2063817 -0.8628518
vn -0.4614038 0.2063817 -0.8628518
vn -0.4614038 0.2063817 -0.8628518
vn -0.4614038 0.2063817 -0.8628518
vn -0.4614038 0.2063817 -0.8628518
vn -0.4614038 0.2063817 -0.8628518
vn 0.2777553 -0.8661306 -0.4155357
vn 0.2777553 -0.8661306 -0.4155357
vn 0.2777553 -0.8661306 -0.4155357
vn 0.2777553 -0.8661306 -0.4155357
vn 0.2777553 -0.8661306 -0.4155357
vn 0.2777553 -0.8661306 -0.4155357
vn 0.2777553 -0.8661306 -0.4155357
vn 0.2777553 -0.8661306 -0.4155357
vn 0.2777553 -0.8661306 -0.4155357
vn 0.2777553 -0.8661306 -0.4155357
vn 0.2777553 -0.8661306 -0.4155357
vn 0.2777553 -0.8661306 -0.4155357
vn 0.2777553 -0.8661306 -0.4155357
vn 0.2777553 -0.8661306 -0.4155357
vn 0.2777553 -0.8661306 -0.4155357
vn 0.2777553 -0.8661306 -0.4155357
vn 0.2777553 -0.8661306 -0.4155357
vn 0.2777553 -0.8661306 -0.4155357

vt 0.9101763 0.142979
vt 0.910406 0.1429751
vt 0.9101744 0.1429783
vt 0.9101744 0.1429783
vt 0.910406 0.1429751
vt 0.9103415 0.1428828
vt 0.9103515 0.1426427
vt 0.9100929 0.1424761
vt 0.9100549 0.1426155
vt 0.9101744 0.1429783
vt 0.9101722 0.142979
vt 0.9101741 0.142979
vt 0.9101744 0.1429783
vt 0.9101747 0.142979
vt 0.9101763 0.142979
vt 0.9101744 0.1429783
vt 0.9101741 0.142979
vt 0.9101747 0.142979
vt 0.9101744 0.1429783
vt 0.9103415 0.1428828
vt 0.9100549 0.1426155
vt 0.9104125 0.1426803
vt 0.9103515 0.1426427
vt 0.9103415 0.1428828
vt 0.9103415 0.1428828
vt 0.9103515 0.1426427
vt 0.9100549 0.1426155
vt 0.9099817 0.1424479
vt 0.9100549 0.1426155
vt 0.9100294 0.1424286
vt 0.9100294 0.1424286
vt 0.9100549 0.1426155
vt 0.9100929 0.1424761
vt 0.9099817 0.1424479
vt 0.9098923 0.1424848
vt 0.9100549 0.1426155
vt 0.9100549 0.1426155
vt 0.9098923 0.1424848
vt 0.9098942 0.1426221
vt 0.9105232 0.1427404
vt 0.9104125 0.1426803
vt 0.9103415 0.1428828
vt 0.9103415 0.1428828
vt 0.9104963 0.1429264
vt 0.9105232 0.1427404
vt 0.9105232 0.1427404
vt 0.9104963 0.1429264
vt 0.9106829 0.1428247
vt 0.910406 0.1429751
vt 0.9104065 0.1429751
vt 0.9103415 0.1428828
vt 0.9103415 0.1428828
vt 0.9104065 0.1429751
vt 0.9104963 0.1429264
vt 0.9098942 0.1426221
vt 0.9098977 0.1427476
vt 0.9100549 0.1426155
vt 0.9100549 0.1426155
vt 0.9098977 0.1427476
vt 0.9101744 0.1429783
vt 0.9101744 0.1429783
vt 0.9098977 0.1427476
vt 0.9099023 0.1428981
vt 0.9101744 0.1429783
vt 0.9099023 0.1428981
vt 0.9101722 0.142979
vt 0.9101722 0.142979
vt 0.9099023 0.1428981
vt 0.9099573 0.1429754
vt 0.9099573 0.1429754
vt 0.9099023 0.1428981
vt 0.9099029 0.1429194
vt 0.4208666 0.4559361
vt 0.3919905 0.4537009
vt 0.4311905 0.4312929
vt 0.4311905 0.4312929
vt 0.3919905 0.4537009
vt 0.4145288 0.4090712
vt 0.4145288 0.4090712
vt 0.3919905 0.4537009
vt 0.390803 0.4483364
vt 0.3940348 0.3599665
vt 0.4611888 0.3678363
vt 0.3095019 0.4453841
vt 0.3095019 0.4453841
vt 0.4611888 0.3678363
vt 0.3238213 0.4725511
vt 0.3238213 0.4725511
vt 0.4611888 0.3678363
vt 0.4934736 0.3714638
vt 0.4936087 0.4490442
vt 0.4839228 0.4293185
vt 0.5085427 0.4143007
vt 0.4568395 0.3022096
vt 0.4569838 0.3022189
vt 0.2958439 0.3888519
vt 0.2958439 0.3888519
vt 0.4569838 0.3022189
vt 0.2868285 0.4146779
vt 0.2868285 0.4146779
vt 0.4569838 0.3022189
vt 0.5055996 0.5392256
vt 0.5055996 0.5392256
vt 0.4569838 0.3022189
vt 0.5896714 0.3279704
vt 0.5896714 0.3279704
vt 0.4569838 0.3022189
vt 0.5257724 0.311332
vt 0.5257724 0.311332
vt 0.4569838 0.3022189
vt 0.525195 0.3112016
vt 0.5250366 0.3111737
vt 0.525195 0.3112016
vt 0.5245337 0.3110992
vt 0.525195 0.3112016
vt 0.4569838 0.3022189
vt 0.5245337 0.3110992
vt 0.3999813 0.3517241
vt 0.4260541 0.344767
vt 0.5783278 0.5130736
vt 0.5783278 0.5130736
vt 0.4260541 0.344767
vt 0.7341405 0.4838855
vt 0.7341405 0.4838855
vt 0.4260541 0.344767
vt 0.7437239 0.472784
vt 0.7437239 0.472784
vt 0.4260541 0.344767
vt 0.7348483 0.4206989
vt 0.7348483 0.4206989
vt 0.4260541 0.344767
vt 0.6507113 0.3280169
vt 0.6507113 0.3280169
vt 0.4260541 0.344767
vt 0.5918042 0.3273836
vt 0.5918042 0.3273836
vt 0.4260541 0.344767
vt 0.550667 0.3277562
vt 0.550667 0.3277562
vt 0.4260541 0.344767
vt 0.5271508 0.3303034
vt 0.4812172 0.5352208
vt 0.5042492 0.2927006
vt 0.4923048 0.5416191
vt 0.4923048 0.5416191
vt 0.5042492 0.2927006
vt 0.5748725 0.4319122
vt 0.5748725 0.4319122
vt 0.5042492 0.2927006
vt 0.5704486 0.4082563
vt 0.5704486 0.4082563
vt 0.5042492 0.2927006
vt 0.528585 0.2953643
vt 0.4811474 0.342462
vt 0.5163659 0.3390719
vt 0.4389438 0.3472165
vt 0.4389438 0.3472165
vt 0.5163659 0.3390719
vt 0.4329647 0.3478591
vt 0.4329647 0.3478591
vt 0.5163659 0.3390719
vt 0.4906796 0.4402012
vt 0.4906796 0.4402012
vt 0.5163659 0.3390719
vt 0.5151551 0.4254674
vt 0.5151551 0.4254674
vt 0.5163659 0.3390719
vt 0.5548115 0.3400871
vt 0.6178817 0.3977089
vt 0.619083 0.4030641
vt 0.6082889 0.4060723
vt 0.6082889 0.4060723
vt 0.619083 0.4030641
vt 0.6094251 0.4077487
vt 0.7013201 0.3804047
vt 0.5686791 0.4675406
vt 0.7003329 0.3784535
vt 0.7003329 0.3784535
vt 0.5686791 0.4675406
vt 0.554113 0.4040467
vt 0.3351324 0.08244196
vt 0.3460197 0.06441593
vt 0.3499639 0.3707327
vt 0.3499639 0.3707327
vt 0.3460197 0.06441593
vt 0.5452653 0.5509418
vt 0.5452653 0.5509418
vt 0.3460197 0.06441593
vt 0.55551 0.5304617
vt 0.55551 0.5304617
vt 0.3460197 0.06441593
vt 0.4021607 0.07303546
vt 0.4008754 0.4103471
vt 0.4092901 0.3072295
vt 0.4007544 0.4515122
vt 0.4007544 0.4515122
vt 0.4092901 0.3072295
vt 0.4836899 0.5599012
vt 0.4836899 0.5599012
vt 0.4092901 0.3072295
vt 0.6204801 0.5042446
vt 0.6204801 0.5042446
vt 0.4092901 0.3072295
vt 0.6317493 0.4393769
vt 0.6317493 0.4393769
vt 0.4092901 0.3072295
vt 0.4558942 0.2948287
vt 0.4558942 0.2948287
vt 0.4092901 0.3072295
vt 0.4396889 0.2989825

usemtl Material0
usemap Material0
f 1/1/1 2/2/2 3/3/3
f 4/4/4 5/5/5 6/6/6
f 7/7/7 8/8/8 9/9/9
f 10/10/10 11/11/11 12/12/12
f 13/13/13 14/14/14 15/15/15
f 16/16/16 17/17/17 18/18/18
f 19/19/19 20/20/20 21/21/21
f 22/22/22 23/23/23 24/24/24
f 25/25/25 26/26/26 27/27/27
f 28/28/28 29/29/29 30/30/30
f 31/31/31 32/32/32 33/33/33
f 34/34/34 35/35/35 36/36/36
f 37/37/37 38/38/38 39/39/39
f 40/40/40 41/41/41 42/42/42
f 43/43/43 44/44/44 45/45/45
f 46/46/46 47/47/47 48/48/48
f 49/49/49 50/50/50 51/51/51
f 52/52/52 53/53/53 54/54/54
f 55/55/55 56/56/56 57/57/57
f 58/58/58 59/59/59 60/60/60
f 61/61/61 62/62/62 63/63/63
f 64/64/64 65/65/65 66/66/66
f 67/67/67 68/68/68 69/69/69
f 70/70/70 71/71/71 72/72/72

usemtl Material1
usemap Material1
f 73/73/73 74/74/74 75/75/75
f 76/76/76 77/77/77 78/78/78
f 79/79/79 80/80/80 81/81/81
f 82/82/82 83/83/83 84/84/84
f 85/85/85 86/86/86 87/87/87
f 88/88/88 89/89/89 90/90/90
f 91/91/91 92/92/92 93/93/93
f 94/94/94 95/95/95 96/96/96
f 97/97/97 98/98/98 99/99/99
f 100/100/100 101/101/101 102/102/102
f 103/103/103 104/104/104 105/105/105
f 106/106/106 107/107/107 108/108/108
f 109/109/109 110/110/110 111/111/111
f 112/112/112 113/113/113 114/114/114
f 115/115/115 116/116/116 117/117/117
f 118/118/118 119/119/119 120/120/120
f 121/121/121 122/122/122 123/123/123
f 124/124/124 125/125/125 126/126/126
f 127/127/127 128/128/128 129/129/129
f 130/130/130 131/131/131 132/132/132
f 133/133/133 134/134/134 135/135/135
f 136/136/136 137/137/137 138/138/138
f 139/139/139 140/140/140 141/141/141
f 142/142/142 143/143/143 144/144/144
f 145/145/145 146/146/146 147/147/147
f 148/148/148 149/149/149 150/150/150
f 151/151/151 152/152/152 153/153/153
f 154/154/154 155/155/155 156/156/156
f 157/157/157 158/158/158 159/159/159
f 160/160/160 161/161/161 162/162/162
f 163/163/163 164/164/164 165/165/165
f 166/166/166 167/167/167 168/168/168
f 169/169/169 170/170/170 171/171/171
f 172/172/172 173/173/173 174/174/174
f 175/175/175 176/176/176 177/177/177
f 178/178/178 179/179/179 180/180/180
f 181/181/181 182/182/182 183/183/183
f 184/184/184 185/185/185 186/186/186
f 187/187/187 188/188/188 189/189/189
f 190/190/190 191/191/191 192/192/192
f 193/193/193 194/194/194 195/195/195
f 196/196/196 197/197/197 198/198/198
f 199/199/199 200/200/200 201/201/201
f 202/202/202 203/203/203 204/204/204
f 205/205/205 206/206/206 207/207/207
f 208/208/208 209/209/209 210/210/210
