g  Instance
v -3.542352 -48.52068 5.121767
v -3.268139 -49.30906 5.812902
v -3.655735 -47.92208 4.846642
v -3.655735 -47.92208 4.846642
v -3.268139 -49.30906 5.812902
v -3.604099 -47.22969 5.009628
v -3.604099 -47.22969 5.009628
v -3.268139 -49.30906 5.812902
v -3.016133 -47.03952 6.565005
v -3.016133 -47.03952 6.565005
v -3.268139 -49.30906 5.812902
v -2.481818 -48.47828 7.915513
v -3.542352 -48.52068 5.121767
v -2.718243 -49.28283 4.96482
v -3.268139 -49.30906 5.812902
v -3.268139 -49.30906 5.812902
v -2.718243 -49.28283 4.96482
v -2.801278 -49.44904 5.318412
v -1.560696 -48.49086 5.552603
v -2.164492 -49.00922 4.890156
v -1.878038 -47.4609 5.522018
v -1.878038 -47.4609 5.522018
v -2.164492 -49.00922 4.890156
v -2.074483 -47.19317 5.412898
v -2.074483 -47.19317 5.412898
v -2.164492 -49.00922 4.890156
v -3.103187 -47.30182 4.473124
v -3.103187 -47.30182 4.473124
v -2.164492 -49.00922 4.890156
v -3.119403 -47.75761 4.347585
v -3.119403 -47.75761 4.347585
v -2.164492 -49.00922 4.890156
v -2.4557 -49.04135 4.623788
v -2.718243 -49.28283 4.96482
v -3.542352 -48.52068 5.121767
v -2.4557 -49.04135 4.623788
v -2.4557 -49.04135 4.623788
v -3.542352 -48.52068 5.121767
v -3.119403 -47.75761 4.347585
v -3.119403 -47.75761 4.347585
v -3.542352 -48.52068 5.121767
v -3.655735 -47.92208 4.846642
v -3.655735 -47.92208 4.846642
v -3.604099 -47.22969 5.009628
v -3.119403 -47.75761 4.347585
v -3.119403 -47.75761 4.347585
v -3.604099 -47.22969 5.009628
v -3.103187 -47.30182 4.473124
v -3.016133 -47.03952 6.565005
v -2.481818 -48.47828 7.915513
v -2.074483 -47.19317 5.412898
v -2.074483 -47.19317 5.412898
v -2.481818 -48.47828 7.915513
v -1.878038 -47.4609 5.522018
v -1.878038 -47.4609 5.522018
v -2.481818 -48.47828 7.915513
v -1.73036 -48.69677 7.138266
v -1.560696 -48.49086 5.552603
v -1.496587 -49.01081 6.219145
v -2.164492 -49.00922 4.890156
v -2.164492 -49.00922 4.890156
v -1.496587 -49.01081 6.219145
v -1.786442 -49.18074 5.819303
v -1.878038 -47.4609 5.522018
v -1.73036 -48.69677 7.138266
v -1.560696 -48.49086 5.552603
v -1.560696 -48.49086 5.552603
v -1.73036 -48.69677 7.138266
v -1.496587 -49.01081 6.219145
v -2.164492 -49.00922 4.890156
v -1.786442 -49.18074 5.819303
v -2.4557 -49.04135 4.623788
v -2.4557 -49.04135 4.623788
v -1.786442 -49.18074 5.819303
v -2.718243 -49.28283 4.96482
v -2.718243 -49.28283 4.96482
v -1.786442 -49.18074 5.819303
v -2.801278 -49.44904 5.318412
v -3.103187 -47.30182 4.473124
v -3.604099 -47.22969 5.009628
v -2.074483 -47.19317 5.412898
v -2.074483 -47.19317 5.412898
v -3.604099 -47.22969 5.009628
v -3.016133 -47.03952 6.565005
v -1.73036 -48.69677 7.138266
v -2.481818 -48.47828 7.915513
v -1.496587 -49.01081 6.219145
v -1.496587 -49.01081 6.219145
v -2.481818 -48.47828 7.915513
v -1.786442 -49.18074 5.819303
v -1.786442 -49.18074 5.819303
v -2.481818 -48.47828 7.915513
v -2.801278 -49.44904 5.318412
v -2.801278 -49.44904 5.318412
v -2.481818 -48.47828 7.915513
v -3.268139 -49.30906 5.812902

vn -0.9347448 -0.01386713 0.3550492
vn -0.9347448 -0.01386713 0.3550492
vn -0.9347448 -0.01386713 0.3550492
vn -0.9347448 -0.01386713 0.3550492
vn -0.9347448 -0.01386713 0.3550492
vn -0.9347448 -0.01386713 0.3550492
vn -0.9347448 -0.01386713 0.3550492
vn -0.9347448 -0.01386713 0.3550492
vn -0.9347448 -0.01386713 0.3550492
vn -0.9347448 -0.01386713 0.3550492
vn -0.9347448 -0.01386713 0.3550492
vn -0.9347448 -0.01386713 0.3550492
vn -0.6528873 -0.6148707 -0.4423487
vn -0.6528873 -0.6148707 -0.4423487
vn -0.6528873 -0.6148707 -0.4423487
vn -0.6528873 -0.6148707 -0.4423487
vn -0.6528873 -0.6148707 -0.4423487
vn -0.6528873 -0.6148707 -0.4423487
vn 0.6531379 0.1793906 -0.7356834
vn 0.6531379 0.1793906 -0.7356834
vn 0.6531379 0.1793906 -0.7356834
vn 0.6531379 0.1793906 -0.7356834
vn 0.6531379 0.1793906 -0.7356834
vn 0.6531379 0.1793906 -0.7356834
vn 0.6531379 0.1793906 -0.7356834
vn 0.6531379 0.1793906 -0.7356834
vn 0.6531379 0.1793906 -0.7356834
vn 0.6531379 0.1793906 -0.7356834
vn 0.6531379 0.1793906 -0.7356834
vn 0.6531379 0.1793906 -0.7356834
vn 0.6531379 0.1793906 -0.7356834
vn 0.6531379 0.1793906 -0.7356834
vn 0.6531379 0.1793906 -0.7356834
vn -0.5388064 -0.4339198 -0.7220812
vn -0.5388064 -0.4339198 -0.7220812
vn -0.5388064 -0.4339198 -0.7220812
vn -0.5388064 -0.4339198 -0.7220812
vn -0.5388064 -0.4339198 -0.7220812
vn -0.5388064 -0.4339198 -0.7220812
vn -0.5388064 -0.4339198 -0.7220812
vn -0.5388064 -0.4339198 -0.7220812
vn -0.5388064 -0.4339198 -0.7220812
vn -0.699773 0.2127253 -0.6819573
vn -0.699773 0.2127253 -0.6819573
vn -0.699773 0.2127253 -0.6819573
vn -0.699773 0.2127253 -0.6819573
vn -0.699773 0.2127253 -0.6819573
vn -0.699773 0.2127253 -0.6819573
vn 0.6337815 0.6413173 0.4324734
vn 0.6337815 0.6413173 0.4324734
vn 0.6337815 0.6413173 0.4324734
vn 0.6337815 0.6413173 0.4324734
vn 0.6337815 0.6413173 0.4324734
vn 0.6337815 0.6413173 0.4324734
vn 0.6337815 0.6413173 0.4324734
vn 0.6337815 0.6413173 0.4324734
vn 0.6337815 0.6413173 0.4324734
vn 0.8096504 -0.422459 -0.4074245
vn 0.8096504 -0.422459 -0.4074245
vn 0.8096504 -0.422459 -0.4074245
vn 0.8096504 -0.422459 -0.4074245
vn 0.8096504 -0.422459 -0.4074245
vn 0.8096504 -0.422459 -0.4074245
vn 0.9451542 0.2953456 0.1394798
vn 0.9451542 0.2953456 0.1394798
vn 0.9451542 0.2953456 0.1394798
vn 0.9451542 0.2953456 0.1394798
vn 0.9451542 0.2953456 0.1394798
vn 0.9451542 0.2953456 0.1394798
vn 0.3854873 -0.8666152 -0.3168245
vn 0.3854873 -0.8666152 -0.3168245
vn 0.3854873 -0.8666152 -0.3168245
vn 0.3854873 -0.8666152 -0.3168245
vn 0.3854873 -0.8666152 -0.3168245
vn 0.3854873 -0.8666152 -0.3168245
vn 0.3854873 -0.8666152 -0.3168245
vn 0.3854873 -0.8666152 -0.3168245
vn 0.3854873 -0.8666152 -0.3168245
vn 0.009204711 0.9921414 -0.1247832
vn 0.009204711 0.9921414 -0.1247832
vn 0.009204711 0.9921414 -0.1247832
vn 0.009204711 0.9921414 -0.1247832
vn 0.009204711 0.9921414 -0.1247832
vn 0.009204711 0.9921414 -0.1247832
vn 0.07967001 -0.9368993 0.3404004
vn 0.07967001 -0.9368993 0.3404004
vn 0.07967001 -0.9368993 0.3404004
vn 0.07967001 -0.9368993 0.3404004
vn 0.07967001 -0.9368993 0.3404004
vn 0.07967001 -0.9368993 0.3404004
vn 0.07967001 -0.9368993 0.3404004
vn 0.07967001 -0.9368993 0.3404004
vn 0.07967001 -0.9368993 0.3404004
vn 0.07967001 -0.9368993 0.3404004
vn 0.07967001 -0.9368993 0.3404004
vn 0.07967001 -0.9368993 0.3404004

vt 0.4262823 0.5658618
vt 0.3519057 0.4964679
vt 0.4826235 0.5934853
vt 0.4826235 0.5934853
vt 0.3519057 0.4964679
vt 0.5475377 0.5771217
vt 0.5475377 0.5771217
vt 0.3519057 0.4964679
vt 0.5645719 0.4209458
vt 0.5645719 0.4209458
vt 0.3519057 0.4964679
vt 0.4287876 0.2853384
vt 0.5356911 0.4515681
vt 0.4261193 0.4686954
vt 0.4611376 0.3761671
vt 0.4611376 0.3761671
vt 0.4261193 0.4686954
vt 0.4198514 0.4301194
vt 0.6173415 0.4464271
vt 0.6613751 0.5731356
vt 0.4777806 0.4522759
vt 0.4777806 0.4522759
vt 0.6613751 0.5731356
vt 0.4375934 0.4731472
vt 0.4375934 0.4731472
vt 0.6613751 0.5731356
vt 0.41587 0.6529046
vt 0.41587 0.6529046
vt 0.6613751 0.5731356
vt 0.4722531 0.6769238
vt 0.4722531 0.6769238
vt 0.6613751 0.5731356
vt 0.6554052 0.624089
vt 0.3899369 0.4026822
vt 0.5308017 0.3739039
vt 0.3929032 0.4652122
vt 0.3929032 0.4652122
vt 0.5308017 0.3739039
vt 0.5725349 0.5158583
vt 0.5725349 0.5158583
vt 0.5308017 0.3739039
vt 0.5989569 0.4243498
vt 0.4238096 0.4307714
vt 0.5050967 0.4040327
vt 0.461403 0.5126359
vt 0.461403 0.5126359
vt 0.5050967 0.4040327
vt 0.514289 0.492044
vt 0.3941698 0.3872826
vt 0.5295815 0.2415097
vt 0.4698689 0.511658
vt 0.4698689 0.511658
vt 0.5295815 0.2415097
vt 0.5017812 0.4998766
vt 0.5017812 0.4998766
vt 0.5295815 0.2415097
vt 0.596554 0.3254092
vt 0.5397238 0.4467345
vt 0.5811684 0.3766048
vt 0.6107197 0.516445
vt 0.6107197 0.516445
vt 0.5811684 0.3766048
vt 0.608531 0.418678
vt 0.4858506 0.4882908
vt 0.5942909 0.3436448
vt 0.5813639 0.4855526
vt 0.5813639 0.4855526
vt 0.5942909 0.3436448
vt 0.6270367 0.4259005
vt 0.5495122 0.5049896
vt 0.5240121 0.4143565
vt 0.5753475 0.5309739
vt 0.5753475 0.5309739
vt 0.5240121 0.4143565
vt 0.6066218 0.4977066
vt 0.6066218 0.4977066
vt 0.5240121 0.4143565
vt 0.6198933 0.4632191
vt 0.4157675 0.5716827
vt 0.3714033 0.5238492
vt 0.5066521 0.4878996
vt 0.5066521 0.4878996
vt 0.3714033 0.5238492
vt 0.4232508 0.385201
vt 0.4683322 0.3744906
vt 0.5364828 0.2973433
vt 0.4490768 0.4657058
vt 0.4490768 0.4657058
vt 0.5364828 0.2973433
vt 0.4773708 0.5053994
vt 0.4773708 0.5053994
vt 0.5364828 0.2973433
vt 0.5738667 0.5551142
vt 0.5738667 0.5551142
vt 0.5364828 0.2973433
vt 0.6161773 0.5060327

usemtl Material0
usemap Material0

usemtl Material1
usemap Material1
f 1/1/1 2/2/2 3/3/3
f 4/4/4 5/5/5 6/6/6
f 7/7/7 8/8/8 9/9/9
f 10/10/10 11/11/11 12/12/12
f 13/13/13 14/14/14 15/15/15
f 16/16/16 17/17/17 18/18/18
f 19/19/19 20/20/20 21/21/21
f 22/22/22 23/23/23 24/24/24
f 25/25/25 26/26/26 27/27/27
f 28/28/28 29/29/29 30/30/30
f 31/31/31 32/32/32 33/33/33
f 34/34/34 35/35/35 36/36/36
f 37/37/37 38/38/38 39/39/39
f 40/40/40 41/41/41 42/42/42
f 43/43/43 44/44/44 45/45/45
f 46/46/46 47/47/47 48/48/48
f 49/49/49 50/50/50 51/51/51
f 52/52/52 53/53/53 54/54/54
f 55/55/55 56/56/56 57/57/57
f 58/58/58 59/59/59 60/60/60
f 61/61/61 62/62/62 63/63/63
f 64/64/64 65/65/65 66/66/66
f 67/67/67 68/68/68 69/69/69
f 70/70/70 71/71/71 72/72/72
f 73/73/73 74/74/74 75/75/75
f 76/76/76 77/77/77 78/78/78
f 79/79/79 80/80/80 81/81/81
f 82/82/82 83/83/83 84/84/84
f 85/85/85 86/86/86 87/87/87
f 88/88/88 89/89/89 90/90/90
f 91/91/91 92/92/92 93/93/93
f 94/94/94 95/95/95 96/96/96
