g  Instance
v 3.969923 -50.90983 0.6631493
v 3.759871 -50.49047 0.3122323
v 3.24101 -50.93199 1.848029
v 3.24101 -50.93199 1.848029
v 3.759871 -50.49047 0.3122323
v 3.189705 -50.88826 1.857777
v 3.462062 -52.44863 0.9104145
v 2.853128 -52.58486 0.5189407
v 4.524122 -51.89091 -0.6165508
v 4.524122 -51.89091 -0.6165508
v 2.853128 -52.58486 0.5189407
v 4.096794 -51.96503 -1.039622
v 4.096794 -51.96503 -1.039622
v 2.853128 -52.58486 0.5189407
v 2.496993 -52.49272 -0.8960592
v 2.496993 -52.49272 -0.8960592
v 2.853128 -52.58486 0.5189407
v 2.323987 -52.57214 -0.7262459
v 2.323987 -52.57214 -0.7262459
v 2.853128 -52.58486 0.5189407
v 2.313903 -52.57936 -0.6984411
v 3.242752 -51.01746 1.812731
v 3.136331 -50.89929 1.844387
v 3.462062 -52.44863 0.9104145
v 3.462062 -52.44863 0.9104145
v 3.136331 -50.89929 1.844387
v 2.853128 -52.58486 0.5189407
v 2.853128 -52.58486 0.5189407
v 3.136331 -50.89929 1.844387
v 2.130357 -51.05041 1.249772
v 3.24101 -50.93199 1.848029
v 3.242752 -51.01746 1.812731
v 3.969923 -50.90983 0.6631493
v 3.969923 -50.90983 0.6631493
v 3.242752 -51.01746 1.812731
v 4.528084 -51.88324 -0.6201247
v 4.528084 -51.88324 -0.6201247
v 3.242752 -51.01746 1.812731
v 4.524122 -51.89091 -0.6165508
v 4.524122 -51.89091 -0.6165508
v 3.242752 -51.01746 1.812731
v 3.462062 -52.44863 0.9104145
v 2.771532 -50.55585 -1.3654
v 2.913882 -50.42804 -1.33091
v 3.681907 -50.92157 -1.676641
v 3.681907 -50.92157 -1.676641
v 2.913882 -50.42804 -1.33091
v 4.011029 -50.83774 -1.692047
v 4.011029 -50.83774 -1.692047
v 2.913882 -50.42804 -1.33091
v 3.698541 -50.26661 -1.384913
v 3.698541 -50.26661 -1.384913
v 2.913882 -50.42804 -1.33091
v 2.939549 -50.42147 -1.332097
v 2.771532 -50.55585 -1.3654
v 3.681907 -50.92157 -1.676641
v 2.679963 -50.59313 -1.331779
v 2.679963 -50.59313 -1.331779
v 3.681907 -50.92157 -1.676641
v 2.876153 -51.59771 -1.369914
v 3.759871 -50.49047 0.3122323
v 3.969923 -50.90983 0.6631493
v 3.681245 -50.23722 -1.33286
v 3.681245 -50.23722 -1.33286
v 3.969923 -50.90983 0.6631493
v 3.698541 -50.26661 -1.384913
v 3.698541 -50.26661 -1.384913
v 3.969923 -50.90983 0.6631493
v 4.011029 -50.83774 -1.692047
v 4.011029 -50.83774 -1.692047
v 3.969923 -50.90983 0.6631493
v 4.329693 -51.46486 -1.30236
v 4.329693 -51.46486 -1.30236
v 3.969923 -50.90983 0.6631493
v 4.528084 -51.88324 -0.6201247
v 3.681907 -50.92157 -1.676641
v 4.011029 -50.83774 -1.692047
v 2.876153 -51.59771 -1.369914
v 2.876153 -51.59771 -1.369914
v 4.011029 -50.83774 -1.692047
v 2.496993 -52.49272 -0.8960592
v 2.496993 -52.49272 -0.8960592
v 4.011029 -50.83774 -1.692047
v 4.096794 -51.96503 -1.039622
v 4.096794 -51.96503 -1.039622
v 4.011029 -50.83774 -1.692047
v 4.329693 -51.46486 -1.30236
v 2.297029 -52.55786 -0.7035444
v 2.323987 -52.57214 -0.7262459
v 2.313903 -52.57936 -0.6984411
v 3.681245 -50.23722 -1.33286
v 3.698541 -50.26661 -1.384913
v 2.939549 -50.42147 -1.332097
v 1.546988 -50.99062 0.01601458
v 1.547469 -51.14144 -0.2162318
v 2.130357 -51.05041 1.249772
v 2.130357 -51.05041 1.249772
v 1.547469 -51.14144 -0.2162318
v 2.853128 -52.58486 0.5189407
v 2.853128 -52.58486 0.5189407
v 1.547469 -51.14144 -0.2162318
v 2.313903 -52.57936 -0.6984411
v 2.313903 -52.57936 -0.6984411
v 1.547469 -51.14144 -0.2162318
v 2.297029 -52.55786 -0.7035444
v 4.329693 -51.46486 -1.30236
v 4.528084 -51.88324 -0.6201247
v 4.096794 -51.96503 -1.039622
v 4.096794 -51.96503 -1.039622
v 4.528084 -51.88324 -0.6201247
v 4.524122 -51.89091 -0.6165508
v 1.547469 -51.14144 -0.2162318
v 1.546988 -50.99062 0.01601458
v 1.565378 -50.94012 -0.2610455
v 3.24101 -50.93199 1.848029
v 3.189705 -50.88826 1.857777
v 3.242752 -51.01746 1.812731
v 3.242752 -51.01746 1.812731
v 3.189705 -50.88826 1.857777
v 3.136331 -50.89929 1.844387
v 2.679963 -50.59313 -1.331779
v 2.431344 -50.58526 -1.104969
v 2.771532 -50.55585 -1.3654
v 2.771532 -50.55585 -1.3654
v 2.431344 -50.58526 -1.104969
v 2.913882 -50.42804 -1.33091
v 1.547469 -51.14144 -0.2162318
v 1.565378 -50.94012 -0.2610455
v 2.297029 -52.55786 -0.7035444
v 2.297029 -52.55786 -0.7035444
v 1.565378 -50.94012 -0.2610455
v 2.323987 -52.57214 -0.7262459
v 2.323987 -52.57214 -0.7262459
v 1.565378 -50.94012 -0.2610455
v 2.496993 -52.49272 -0.8960592
v 2.496993 -52.49272 -0.8960592
v 1.565378 -50.94012 -0.2610455
v 2.876153 -51.59771 -1.369914
v 2.876153 -51.59771 -1.369914
v 1.565378 -50.94012 -0.2610455
v 2.679963 -50.59313 -1.331779
v 2.679963 -50.59313 -1.331779
v 1.565378 -50.94012 -0.2610455
v 2.431344 -50.58526 -1.104969
v 1.565378 -50.94012 -0.2610455
v 1.546988 -50.99062 0.01601458
v 2.431344 -50.58526 -1.104969
v 2.431344 -50.58526 -1.104969
v 1.546988 -50.99062 0.01601458
v 2.913882 -50.42804 -1.33091
v 2.913882 -50.42804 -1.33091
v 1.546988 -50.99062 0.01601458
v 2.939549 -50.42147 -1.332097
v 2.939549 -50.42147 -1.332097
v 1.546988 -50.99062 0.01601458
v 3.681245 -50.23722 -1.33286
v 3.681245 -50.23722 -1.33286
v 1.546988 -50.99062 0.01601458
v 3.759871 -50.49047 0.3122323
v 3.759871 -50.49047 0.3122323
v 1.546988 -50.99062 0.01601458
v 3.189705 -50.88826 1.857777
v 3.189705 -50.88826 1.857777
v 1.546988 -50.99062 0.01601458
v 3.136331 -50.89929 1.844387
v 3.136331 -50.89929 1.844387
v 1.546988 -50.99062 0.01601458
v 2.130357 -51.05041 1.249772

vn 0.6366471 0.6568984 0.4039369
vn 0.6366471 0.6568984 0.4039369
vn 0.6366471 0.6568984 0.4039369
vn 0.6366471 0.6568984 0.4039369
vn 0.6366471 0.6568984 0.4039369
vn 0.6366471 0.6568984 0.4039369
vn 0.2992092 -0.9443306 -0.1367986
vn 0.2992092 -0.9443306 -0.1367986
vn 0.2992092 -0.9443306 -0.1367986
vn 0.2992092 -0.9443306 -0.1367986
vn 0.2992092 -0.9443306 -0.1367986
vn 0.2992092 -0.9443306 -0.1367986
vn 0.2992092 -0.9443306 -0.1367986
vn 0.2992092 -0.9443306 -0.1367986
vn 0.2992092 -0.9443306 -0.1367986
vn 0.2992092 -0.9443306 -0.1367986
vn 0.2992092 -0.9443306 -0.1367986
vn 0.2992092 -0.9443306 -0.1367986
vn 0.2992092 -0.9443306 -0.1367986
vn 0.2992092 -0.9443306 -0.1367986
vn 0.2992092 -0.9443306 -0.1367986
vn -0.3686573 -0.5355291 0.7598028
vn -0.3686573 -0.5355291 0.7598028
vn -0.3686573 -0.5355291 0.7598028
vn -0.3686573 -0.5355291 0.7598028
vn -0.3686573 -0.5355291 0.7598028
vn -0.3686573 -0.5355291 0.7598028
vn -0.3686573 -0.5355291 0.7598028
vn -0.3686573 -0.5355291 0.7598028
vn -0.3686573 -0.5355291 0.7598028
vn 0.8371499 -0.1941237 0.5113668
vn 0.8371499 -0.1941237 0.5113668
vn 0.8371499 -0.1941237 0.5113668
vn 0.8371499 -0.1941237 0.5113668
vn 0.8371499 -0.1941237 0.5113668
vn 0.8371499 -0.1941237 0.5113668
vn 0.8371499 -0.1941237 0.5113668
vn 0.8371499 -0.1941237 0.5113668
vn 0.8371499 -0.1941237 0.5113668
vn 0.8371499 -0.1941237 0.5113668
vn 0.8371499 -0.1941237 0.5113668
vn 0.8371499 -0.1941237 0.5113668
vn -0.1455582 0.4056243 -0.9023757
vn -0.1455582 0.4056243 -0.9023757
vn -0.1455582 0.4056243 -0.9023757
vn -0.1455582 0.4056243 -0.9023757
vn -0.1455582 0.4056243 -0.9023757
vn -0.1455582 0.4056243 -0.9023757
vn -0.1455582 0.4056243 -0.9023757
vn -0.1455582 0.4056243 -0.9023757
vn -0.1455582 0.4056243 -0.9023757
vn -0.1455582 0.4056243 -0.9023757
vn -0.1455582 0.4056243 -0.9023757
vn -0.1455582 0.4056243 -0.9023757
vn -0.3339311 -0.02944871 -0.9421374
vn -0.3339311 -0.02944871 -0.9421374
vn -0.3339311 -0.02944871 -0.9421374
vn -0.3339311 -0.02944871 -0.9421374
vn -0.3339311 -0.02944871 -0.9421374
vn -0.3339311 -0.02944871 -0.9421374
vn 0.8835289 0.4674321 0.02973275
vn 0.8835289 0.4674321 0.02973275
vn 0.8835289 0.4674321 0.02973275
vn 0.8835289 0.4674321 0.02973275
vn 0.8835289 0.4674321 0.02973275
vn 0.8835289 0.4674321 0.02973275
vn 0.8835289 0.4674321 0.02973275
vn 0.8835289 0.4674321 0.02973275
vn 0.8835289 0.4674321 0.02973275
vn 0.8835289 0.4674321 0.02973275
vn 0.8835289 0.4674321 0.02973275
vn 0.8835289 0.4674321 0.02973275
vn 0.8835289 0.4674321 0.02973275
vn 0.8835289 0.4674321 0.02973275
vn 0.8835289 0.4674321 0.02973275
vn 0.08537092 -0.4942032 -0.8651446
vn 0.08537092 -0.4942032 -0.8651446
vn 0.08537092 -0.4942032 -0.8651446
vn 0.08537092 -0.4942032 -0.8651446
vn 0.08537092 -0.4942032 -0.8651446
vn 0.08537092 -0.4942032 -0.8651446
vn 0.08537092 -0.4942032 -0.8651446
vn 0.08537092 -0.4942032 -0.8651446
vn 0.08537092 -0.4942032 -0.8651446
vn 0.08537092 -0.4942032 -0.8651446
vn 0.08537092 -0.4942032 -0.8651446
vn 0.08537092 -0.4942032 -0.8651446
vn -0.670211 -0.6221331 -0.4046824
vn -0.670211 -0.6221331 -0.4046824
vn -0.670211 -0.6221331 -0.4046824
vn -0.2046682 0.8217186 -0.5318736
vn -0.2046682 0.8217186 -0.5318736
vn -0.2046682 0.8217186 -0.5318736
vn -0.7769436 -0.5287454 0.3417412
vn -0.7769436 -0.5287454 0.3417412
vn -0.7769436 -0.5287454 0.3417412
vn -0.7769436 -0.5287454 0.3417412
vn -0.7769436 -0.5287454 0.3417412
vn -0.7769436 -0.5287454 0.3417412
vn -0.7769436 -0.5287454 0.3417412
vn -0.7769436 -0.5287454 0.3417412
vn -0.7769436 -0.5287454 0.3417412
vn -0.7769436 -0.5287454 0.3417412
vn -0.7769436 -0.5287454 0.3417412
vn -0.7769436 -0.5287454 0.3417412
vn 0.6255887 -0.5707219 -0.5318978
vn 0.6255887 -0.5707219 -0.5318978
vn 0.6255887 -0.5707219 -0.5318978
vn 0.6255887 -0.5707219 -0.5318978
vn 0.6255887 -0.5707219 -0.5318978
vn 0.6255887 -0.5707219 -0.5318978
vn -0.9956722 0.07698741 -0.05205797
vn -0.9956722 0.07698741 -0.05205797
vn -0.9956722 0.07698741 -0.05205797
vn -0.1504759 -0.3799781 0.9126739
vn -0.1504759 -0.3799781 0.9126739
vn -0.1504759 -0.3799781 0.9126739
vn -0.1504759 -0.3799781 0.9126739
vn -0.1504759 -0.3799781 0.9126739
vn -0.1504759 -0.3799781 0.9126739
vn -0.4801817 0.6832863 -0.5500413
vn -0.4801817 0.6832863 -0.5500413
vn -0.4801817 0.6832863 -0.5500413
vn -0.4801817 0.6832863 -0.5500413
vn -0.4801817 0.6832863 -0.5500413
vn -0.4801817 0.6832863 -0.5500413
vn -0.6721215 -0.1034238 -0.7331823
vn -0.6721215 -0.1034238 -0.7331823
vn -0.6721215 -0.1034238 -0.7331823
vn -0.6721215 -0.1034238 -0.7331823
vn -0.6721215 -0.1034238 -0.7331823
vn -0.6721215 -0.1034238 -0.7331823
vn -0.6721215 -0.1034238 -0.7331823
vn -0.6721215 -0.1034238 -0.7331823
vn -0.6721215 -0.1034238 -0.7331823
vn -0.6721215 -0.1034238 -0.7331823
vn -0.6721215 -0.1034238 -0.7331823
vn -0.6721215 -0.1034238 -0.7331823
vn -0.6721215 -0.1034238 -0.7331823
vn -0.6721215 -0.1034238 -0.7331823
vn -0.6721215 -0.1034238 -0.7331823
vn -0.6721215 -0.1034238 -0.7331823
vn -0.6721215 -0.1034238 -0.7331823
vn -0.6721215 -0.1034238 -0.7331823
vn -0.2378427 0.9582214 0.1588791
vn -0.2378427 0.9582214 0.1588791
vn -0.2378427 0.9582214 0.1588791
vn -0.2378427 0.9582214 0.1588791
vn -0.2378427 0.9582214 0.1588791
vn -0.2378427 0.9582214 0.1588791
vn -0.2378427 0.9582214 0.1588791
vn -0.2378427 0.9582214 0.1588791
vn -0.2378427 0.9582214 0.1588791
vn -0.2378427 0.9582214 0.1588791
vn -0.2378427 0.9582214 0.1588791
vn -0.2378427 0.9582214 0.1588791
vn -0.2378427 0.9582214 0.1588791
vn -0.2378427 0.9582214 0.1588791
vn -0.2378427 0.9582214 0.1588791
vn -0.2378427 0.9582214 0.1588791
vn -0.2378427 0.9582214 0.1588791
vn -0.2378427 0.9582214 0.1588791
vn -0.2378427 0.9582214 0.1588791
vn -0.2378427 0.9582214 0.1588791
vn -0.2378427 0.9582214 0.1588791
vn -0.2378427 0.9582214 0.1588791
vn -0.2378427 0.9582214 0.1588791
vn -0.2378427 0.9582214 0.1588791

vt 0.5502107 0.4388274
vt 0.507751 0.4756246
vt 0.5014831 0.3145824
vt 0.5014831 0.3145824
vt 0.507751 0.4756246
vt 0.495029 0.3135579
vt 0.4979254 0.3684882
vt 0.5529954 0.4034972
vt 0.393313 0.5050362
vt 0.393313 0.5050362
vt 0.5529954 0.4034972
vt 0.4313814 0.5428764
vt 0.4313814 0.5428764
vt 0.5529954 0.4034972
vt 0.5806096 0.5300333
vt 0.5806096 0.5300333
vt 0.5529954 0.4034972
vt 0.5973457 0.5148525
vt 0.5973457 0.5148525
vt 0.5529954 0.4034972
vt 0.5983887 0.5123658
vt 0.4844956 0.283187
vt 0.5053668 0.2766165
vt 0.3505832 0.4705115
vt 0.3505832 0.4705115
vt 0.5053668 0.2766165
vt 0.4078558 0.55178
vt 0.4078558 0.55178
vt 0.5053668 0.2766165
vt 0.6056439 0.4000605
vt 0.4746327 0.3117279
vt 0.4830939 0.3159235
vt 0.4556148 0.4525181
vt 0.4556148 0.4525181
vt 0.4830939 0.3159235
vt 0.5395655 0.6050059
vt 0.5395655 0.6050059
vt 0.4830939 0.3159235
vt 0.5404223 0.6045775
vt 0.5404223 0.6045775
vt 0.4830939 0.3159235
vt 0.6203963 0.4231391
vt 0.5114857 0.4439451
vt 0.4998952 0.4311812
vt 0.55239 0.3623227
vt 0.55239 0.3623227
vt 0.4998952 0.4311812
vt 0.5461687 0.332818
vt 0.5461687 0.332818
vt 0.4998952 0.4311812
vt 0.4887937 0.3608326
vt 0.4887937 0.3608326
vt 0.4998952 0.4311812
vt 0.4994062 0.4288808
vt 0.4413374 0.4165685
vt 0.474465 0.3266572
vt 0.4449044 0.4256118
vt 0.4449044 0.4256118
vt 0.474465 0.3266572
vt 0.538271 0.4062353
vt 0.4802114 0.4402384
vt 0.5213765 0.4094205
vt 0.4573378 0.5847307
vt 0.4573378 0.5847307
vt 0.5213765 0.4094205
vt 0.4603274 0.5893036
vt 0.4603274 0.5893036
vt 0.5213765 0.4094205
vt 0.5174742 0.6162844
vt 0.5174742 0.6162844
vt 0.5213765 0.4094205
vt 0.5792218 0.5820578
vt 0.5792218 0.5820578
vt 0.5213765 0.4094205
vt 0.6198282 0.5221356
vt 0.379762 0.6272742
vt 0.320515 0.6326573
vt 0.5388297 0.5202636
vt 0.5388297 0.5202636
vt 0.320515 0.6326573
vt 0.6308551 0.3549466
vt 0.6308551 0.3549466
vt 0.320515 0.6326573
vt 0.3393047 0.4050339
vt 0.3393047 0.4050339
vt 0.320515 0.6326573
vt 0.2842487 0.4967007
vt 0.4473119 0.4687047
vt 0.4445505 0.4710889
vt 0.4446995 0.4681739
vt 0.5888519 0.5428205
vt 0.5898577 0.5491909
vt 0.5096602 0.5427367
vt 0.5887029 0.5000256
vt 0.5770332 0.5231041
vt 0.5534424 0.3774477
vt 0.5534424 0.3774477
vt 0.5770332 0.5231041
vt 0.3970197 0.4500594
vt 0.3970197 0.4500594
vt 0.5770332 0.5231041
vt 0.4257747 0.5710121
vt 0.4257747 0.5710121
vt 0.5770332 0.5231041
vt 0.428322 0.571515
vt 0.4338029 0.5139584
vt 0.4519686 0.4304687
vt 0.4883606 0.4817993
vt 0.4883606 0.4817993
vt 0.4519686 0.4304687
vt 0.4528347 0.4300309
vt 0.4895481 0.4774034
vt 0.502759 0.4569699
vt 0.5073133 0.481343
vt 0.5715476 0.4059605
vt 0.5754685 0.410566
vt 0.5633426 0.4058069
vt 0.5633426 0.4058069
vt 0.5754685 0.410566
vt 0.5741088 0.4153577
vt 0.5034482 0.5449905
vt 0.482549 0.5164544
vt 0.5135719 0.5492188
vt 0.5135719 0.5492188
vt 0.482549 0.5164544
vt 0.5335304 0.5448788
vt 0.5282497 0.3462059
vt 0.5535728 0.3547091
vt 0.3328878 0.4386784
vt 0.3328878 0.4386784
vt 0.5535728 0.3547091
vt 0.3305362 0.4429858
vt 0.3305362 0.4429858
vt 0.5535728 0.3547091
vt 0.3372744 0.4752055
vt 0.3372744 0.4752055
vt 0.5535728 0.3547091
vt 0.4439917 0.5651261
vt 0.4439917 0.5651261
vt 0.5535728 0.3547091
vt 0.5759528 0.5578896
vt 0.5759528 0.5578896
vt 0.5535728 0.3547091
vt 0.5818389 0.5148525
vt 0.3785885 0.4956949
vt 0.3759203 0.4707537
vt 0.4608862 0.571664
vt 0.4608862 0.571664
vt 0.3759203 0.4707537
vt 0.5058697 0.5920044
vt 0.5058697 0.5920044
vt 0.3759203 0.4707537
vt 0.508226 0.5921162
vt 0.508226 0.5921162
vt 0.3759203 0.4707537
vt 0.5761577 0.5921814
vt 0.5761577 0.5921814
vt 0.3759203 0.4707537
vt 0.5775268 0.4440895
vt 0.5775268 0.4440895
vt 0.3759203 0.4707537
vt 0.5198119 0.3049477
vt 0.5198119 0.3049477
vt 0.3759203 0.4707537
vt 0.5149782 0.3061538
vt 0.5149782 0.3061538
vt 0.3759203 0.4707537
vt 0.4249598 0.3596824

usemtl Material0
usemap Material0

usemtl Material1
usemap Material1
f 1/1/1 2/2/2 3/3/3
f 4/4/4 5/5/5 6/6/6
f 7/7/7 8/8/8 9/9/9
f 10/10/10 11/11/11 12/12/12
f 13/13/13 14/14/14 15/15/15
f 16/16/16 17/17/17 18/18/18
f 19/19/19 20/20/20 21/21/21
f 22/22/22 23/23/23 24/24/24
f 25/25/25 26/26/26 27/27/27
f 28/28/28 29/29/29 30/30/30
f 31/31/31 32/32/32 33/33/33
f 34/34/34 35/35/35 36/36/36
f 37/37/37 38/38/38 39/39/39
f 40/40/40 41/41/41 42/42/42
f 43/43/43 44/44/44 45/45/45
f 46/46/46 47/47/47 48/48/48
f 49/49/49 50/50/50 51/51/51
f 52/52/52 53/53/53 54/54/54
f 55/55/55 56/56/56 57/57/57
f 58/58/58 59/59/59 60/60/60
f 61/61/61 62/62/62 63/63/63
f 64/64/64 65/65/65 66/66/66
f 67/67/67 68/68/68 69/69/69
f 70/70/70 71/71/71 72/72/72
f 73/73/73 74/74/74 75/75/75
f 76/76/76 77/77/77 78/78/78
f 79/79/79 80/80/80 81/81/81
f 82/82/82 83/83/83 84/84/84
f 85/85/85 86/86/86 87/87/87
f 88/88/88 89/89/89 90/90/90
f 91/91/91 92/92/92 93/93/93
f 94/94/94 95/95/95 96/96/96
f 97/97/97 98/98/98 99/99/99
f 100/100/100 101/101/101 102/102/102
f 103/103/103 104/104/104 105/105/105
f 106/106/106 107/107/107 108/108/108
f 109/109/109 110/110/110 111/111/111
f 112/112/112 113/113/113 114/114/114
f 115/115/115 116/116/116 117/117/117
f 118/118/118 119/119/119 120/120/120
f 121/121/121 122/122/122 123/123/123
f 124/124/124 125/125/125 126/126/126
f 127/127/127 128/128/128 129/129/129
f 130/130/130 131/131/131 132/132/132
f 133/133/133 134/134/134 135/135/135
f 136/136/136 137/137/137 138/138/138
f 139/139/139 140/140/140 141/141/141
f 142/142/142 143/143/143 144/144/144
f 145/145/145 146/146/146 147/147/147
f 148/148/148 149/149/149 150/150/150
f 151/151/151 152/152/152 153/153/153
f 154/154/154 155/155/155 156/156/156
f 157/157/157 158/158/158 159/159/159
f 160/160/160 161/161/161 162/162/162
f 163/163/163 164/164/164 165/165/165
f 166/166/166 167/167/167 168/168/168
