g  Instance
v 6.869847 -50.08231 4.162907
v 6.506541 -50.06013 3.261502
v 7.562633 -49.92325 4.680479
v 7.562633 -49.92325 4.680479
v 6.506541 -50.06013 3.261502
v 7.371139 -49.77441 3.387105
v 6.234255 -46.80335 3.374403
v 6.390012 -46.64008 3.102901
v 5.48432 -48.00134 3.30955
v 5.48432 -48.00134 3.30955
v 6.390012 -46.64008 3.102901
v 5.509636 -48.04824 3.020766
v 6.091201 -49.72342 3.711661
v 6.869847 -50.08231 4.162907
v 5.628115 -48.43381 3.704433
v 5.628115 -48.43381 3.704433
v 6.869847 -50.08231 4.162907
v 6.397022 -48.13598 4.308307
v 6.397022 -48.13598 4.308307
v 6.869847 -50.08231 4.162907
v 7.562305 -49.89104 4.688069
v 7.562305 -49.89104 4.688069
v 6.869847 -50.08231 4.162907
v 7.562633 -49.92325 4.680479
v 6.159241 -49.87096 3.198599
v 6.091201 -49.72342 3.711661
v 5.509636 -48.04824 3.020766
v 5.509636 -48.04824 3.020766
v 6.091201 -49.72342 3.711661
v 5.48432 -48.00134 3.30955
v 5.48432 -48.00134 3.30955
v 6.091201 -49.72342 3.711661
v 5.628115 -48.43381 3.704433
v 6.091201 -49.72342 3.711661
v 6.159241 -49.87096 3.198599
v 6.869847 -50.08231 4.162907
v 6.869847 -50.08231 4.162907
v 6.159241 -49.87096 3.198599
v 6.506541 -50.06013 3.261502
v 7.562305 -49.89104 4.688069
v 7.273179 -47.84922 3.292696
v 6.397022 -48.13598 4.308307
v 6.397022 -48.13598 4.308307
v 7.273179 -47.84922 3.292696
v 6.234255 -46.80335 3.374403
v 6.234255 -46.80335 3.374403
v 7.273179 -47.84922 3.292696
v 6.390012 -46.64008 3.102901
v 5.48432 -48.00134 3.30955
v 5.628115 -48.43381 3.704433
v 6.234255 -46.80335 3.374403
v 6.234255 -46.80335 3.374403
v 5.628115 -48.43381 3.704433
v 6.397022 -48.13598 4.308307
v 7.562633 -49.92325 4.680479
v 7.371139 -49.77441 3.387105
v 7.562305 -49.89104 4.688069
v 7.562305 -49.89104 4.688069
v 7.371139 -49.77441 3.387105
v 7.273179 -47.84922 3.292696
v 6.159241 -49.87096 3.198599
v 5.509636 -48.04824 3.020766
v 6.506541 -50.06013 3.261502
v 6.506541 -50.06013 3.261502
v 5.509636 -48.04824 3.020766
v 7.371139 -49.77441 3.387105
v 7.371139 -49.77441 3.387105
v 5.509636 -48.04824 3.020766
v 7.273179 -47.84922 3.292696
v 7.273179 -47.84922 3.292696
v 5.509636 -48.04824 3.020766
v 6.390012 -46.64008 3.102901

vn 0.3302983 -0.9308904 -0.1560329
vn 0.3302983 -0.9308904 -0.1560329
vn 0.3302983 -0.9308904 -0.1560329
vn 0.3302983 -0.9308904 -0.1560329
vn 0.3302983 -0.9308904 -0.1560329
vn 0.3302983 -0.9308904 -0.1560329
vn -0.8329237 0.5300216 -0.1591083
vn -0.8329237 0.5300216 -0.1591083
vn -0.8329237 0.5300216 -0.1591083
vn -0.8329237 0.5300216 -0.1591083
vn -0.8329237 0.5300216 -0.1591083
vn -0.8329237 0.5300216 -0.1591083
vn -0.5576898 -0.19574 0.8066399
vn -0.5576898 -0.19574 0.8066399
vn -0.5576898 -0.19574 0.8066399
vn -0.5576898 -0.19574 0.8066399
vn -0.5576898 -0.19574 0.8066399
vn -0.5576898 -0.19574 0.8066399
vn -0.5576898 -0.19574 0.8066399
vn -0.5576898 -0.19574 0.8066399
vn -0.5576898 -0.19574 0.8066399
vn -0.5576898 -0.19574 0.8066399
vn -0.5576898 -0.19574 0.8066399
vn -0.5576898 -0.19574 0.8066399
vn -0.9407499 -0.3379785 -0.02757362
vn -0.9407499 -0.3379785 -0.02757362
vn -0.9407499 -0.3379785 -0.02757362
vn -0.9407499 -0.3379785 -0.02757362
vn -0.9407499 -0.3379785 -0.02757362
vn -0.9407499 -0.3379785 -0.02757362
vn -0.9407499 -0.3379785 -0.02757362
vn -0.9407499 -0.3379785 -0.02757362
vn -0.9407499 -0.3379785 -0.02757362
vn -0.4953921 -0.850082 0.1787381
vn -0.4953921 -0.850082 0.1787381
vn -0.4953921 -0.850082 0.1787381
vn -0.4953921 -0.850082 0.1787381
vn -0.4953921 -0.850082 0.1787381
vn -0.4953921 -0.850082 0.1787381
vn 0.5705614 0.5169115 0.638171
vn 0.5705614 0.5169115 0.638171
vn 0.5705614 0.5169115 0.638171
vn 0.5705614 0.5169115 0.638171
vn 0.5705614 0.5169115 0.638171
vn 0.5705614 0.5169115 0.638171
vn 0.5705614 0.5169115 0.638171
vn 0.5705614 0.5169115 0.638171
vn 0.5705614 0.5169115 0.638171
vn -0.6580095 0.376613 0.652063
vn -0.6580095 0.376613 0.652063
vn -0.6580095 0.376613 0.652063
vn -0.6580095 0.376613 0.652063
vn -0.6580095 0.376613 0.652063
vn -0.6580095 0.376613 0.652063
vn 0.9889963 0.04338766 -0.1414349
vn 0.9889963 0.04338766 -0.1414349
vn 0.9889963 0.04338766 -0.1414349
vn 0.9889963 0.04338766 -0.1414349
vn 0.9889963 0.04338766 -0.1414349
vn 0.9889963 0.04338766 -0.1414349
vn 0.1567169 -0.04042094 -0.9868161
vn 0.1567169 -0.04042094 -0.9868161
vn 0.1567169 -0.04042094 -0.9868161
vn 0.1567169 -0.04042094 -0.9868161
vn 0.1567169 -0.04042094 -0.9868161
vn 0.1567169 -0.04042094 -0.9868161
vn 0.1567169 -0.04042094 -0.9868161
vn 0.1567169 -0.04042094 -0.9868161
vn 0.1567169 -0.04042094 -0.9868161
vn 0.1567169 -0.04042094 -0.9868161
vn 0.1567169 -0.04042094 -0.9868161
vn 0.1567169 -0.04042094 -0.9868161

vt 0.5175394 0.3816713
vt 0.5472956 0.4627442
vt 0.4548092 0.335123
vt 0.4548092 0.335123
vt 0.5472956 0.4627442
vt 0.4664229 0.4514564
vt 0.6390882 0.4453002
vt 0.658758 0.4697385
vt 0.5134601 0.4511304
vt 0.5134601 0.4511304
vt 0.658758 0.4697385
vt 0.5111504 0.4771333
vt 0.4184963 0.5340846
vt 0.3299355 0.4207315
vt 0.6219236 0.5359007
vt 0.6219236 0.5359007
vt 0.3299355 0.4207315
vt 0.6258446 0.3842092
vt 0.6258446 0.3842092
vt 0.3299355 0.4207315
vt 0.3226804 0.2888076
vt 0.3226804 0.2888076
vt 0.3299355 0.4207315
vt 0.3181541 0.2907122
vt 0.4381289 0.4802254
vt 0.4523365 0.4351719
vt 0.6080002 0.4958532
vt 0.6080002 0.4958532
vt 0.4523365 0.4351719
vt 0.6126289 0.4704836
vt 0.6126289 0.4704836
vt 0.4523365 0.4351719
vt 0.572628 0.4358052
vt 0.5095485 0.4526392
vt 0.4976786 0.4991408
vt 0.4334303 0.4117302
vt 0.4334303 0.4117302
vt 0.4976786 0.4991408
vt 0.4624228 0.493441
vt 0.6485971 0.3528138
vt 0.4540036 0.559389
vt 0.4111714 0.409034
vt 0.4111714 0.409034
vt 0.4540036 0.559389
vt 0.2861533 0.5472909
vt 0.2861533 0.5472909
vt 0.4540036 0.559389
vt 0.2842813 0.5874875
vt 0.5256793 0.5853826
vt 0.4905073 0.5251065
vt 0.6891476 0.5755011
vt 0.6891476 0.5755011
vt 0.4905073 0.5251065
vt 0.5646371 0.4329181
vt 0.5907611 0.3415213
vt 0.5768376 0.4573331
vt 0.5879112 0.3408414
vt 0.5879112 0.3408414
vt 0.5768376 0.4573331
vt 0.4059652 0.4657896
vt 0.5812987 0.4956669
vt 0.4188316 0.5541083
vt 0.5983236 0.4644206
vt 0.5983236 0.4644206
vt 0.4188316 0.5541083
vt 0.5734103 0.3866446
vt 0.5734103 0.3866446
vt 0.4188316 0.5541083
vt 0.4021607 0.3954504
vt 0.4021607 0.3954504
vt 0.4188316 0.5541083
vt 0.2941302 0.4749167

usemtl Material0
usemap Material0

usemtl Material1
usemap Material1
f 1/1/1 2/2/2 3/3/3
f 4/4/4 5/5/5 6/6/6
f 7/7/7 8/8/8 9/9/9
f 10/10/10 11/11/11 12/12/12
f 13/13/13 14/14/14 15/15/15
f 16/16/16 17/17/17 18/18/18
f 19/19/19 20/20/20 21/21/21
f 22/22/22 23/23/23 24/24/24
f 25/25/25 26/26/26 27/27/27
f 28/28/28 29/29/29 30/30/30
f 31/31/31 32/32/32 33/33/33
f 34/34/34 35/35/35 36/36/36
f 37/37/37 38/38/38 39/39/39
f 40/40/40 41/41/41 42/42/42
f 43/43/43 44/44/44 45/45/45
f 46/46/46 47/47/47 48/48/48
f 49/49/49 50/50/50 51/51/51
f 52/52/52 53/53/53 54/54/54
f 55/55/55 56/56/56 57/57/57
f 58/58/58 59/59/59 60/60/60
f 61/61/61 62/62/62 63/63/63
f 64/64/64 65/65/65 66/66/66
f 67/67/67 68/68/68 69/69/69
f 70/70/70 71/71/71 72/72/72
