g  Instance
v 5.257505 -52.7413 2.767569
v 5.563162 -53.3706 2.792786
v 6.129252 -52.47048 2.722971
v 6.129252 -52.47048 2.722971
v 5.563162 -53.3706 2.792786
v 6.166112 -52.82898 2.741954
v 5.426045 -53.75459 -0.1437595
v 5.412456 -53.7849 -0.1133195
v 5.314809 -53.22916 -0.1405682
v 5.314809 -53.22916 -0.1405682
v 5.412456 -53.7849 -0.1133195
v 4.255194 -53.28253 1.498381
v 4.255194 -53.28253 1.498381
v 5.412456 -53.7849 -0.1133195
v 4.821236 -53.93781 0.8402994
v 4.132718 -53.26798 2.097465
v 4.678748 -54.10575 2.200684
v 4.163714 -53.20248 2.126287
v 4.163714 -53.20248 2.126287
v 4.678748 -54.10575 2.200684
v 5.257505 -52.7413 2.767569
v 5.257505 -52.7413 2.767569
v 4.678748 -54.10575 2.200684
v 5.563162 -53.3706 2.792786
v 5.563162 -53.3706 2.792786
v 4.678748 -54.10575 2.200684
v 5.430877 -54.0958 2.579265
v 6.087036 -53.01174 -0.3092331
v 7.683726 -52.2484 1.14487
v 5.426045 -53.75459 -0.1437595
v 5.426045 -53.75459 -0.1437595
v 7.683726 -52.2484 1.14487
v 5.412456 -53.7849 -0.1133195
v 5.412456 -53.7849 -0.1133195
v 7.683726 -52.2484 1.14487
v 6.515059 -53.97106 2.173252
v 6.515059 -53.97106 2.173252
v 7.683726 -52.2484 1.14487
v 7.479443 -52.99826 2.13143
v 7.393686 -52.19519 1.983094
v 7.060433 -52.24988 2.280716
v 7.358815 -52.32766 2.153741
v 5.314809 -53.22916 -0.1405682
v 4.255194 -53.28253 1.498381
v 6.087036 -53.01174 -0.3092331
v 6.087036 -53.01174 -0.3092331
v 4.255194 -53.28253 1.498381
v 7.683726 -52.2484 1.14487
v 7.683726 -52.2484 1.14487
v 4.255194 -53.28253 1.498381
v 7.393686 -52.19519 1.983094
v 7.393686 -52.19519 1.983094
v 4.255194 -53.28253 1.498381
v 7.060433 -52.24988 2.280716
v 7.060433 -52.24988 2.280716
v 4.255194 -53.28253 1.498381
v 6.129252 -52.47048 2.722971
v 6.129252 -52.47048 2.722971
v 4.255194 -53.28253 1.498381
v 5.257505 -52.7413 2.767569
v 5.257505 -52.7413 2.767569
v 4.255194 -53.28253 1.498381
v 4.163714 -53.20248 2.126287
v 4.163714 -53.20248 2.126287
v 4.255194 -53.28253 1.498381
v 4.118796 -53.23166 2.041112
v 5.563162 -53.3706 2.792786
v 5.430877 -54.0958 2.579265
v 6.166112 -52.82898 2.741954
v 6.166112 -52.82898 2.741954
v 5.430877 -54.0958 2.579265
v 7.453852 -52.92313 2.16994
v 7.453852 -52.92313 2.16994
v 5.430877 -54.0958 2.579265
v 7.479443 -52.99826 2.13143
v 7.479443 -52.99826 2.13143
v 5.430877 -54.0958 2.579265
v 6.515059 -53.97106 2.173252
v 7.479443 -52.99826 2.13143
v 7.683726 -52.2484 1.14487
v 7.453852 -52.92313 2.16994
v 7.453852 -52.92313 2.16994
v 7.683726 -52.2484 1.14487
v 7.358815 -52.32766 2.153741
v 7.358815 -52.32766 2.153741
v 7.683726 -52.2484 1.14487
v 7.393686 -52.19519 1.983094
v 7.060433 -52.24988 2.280716
v 6.129252 -52.47048 2.722971
v 7.358815 -52.32766 2.153741
v 7.358815 -52.32766 2.153741
v 6.129252 -52.47048 2.722971
v 7.453852 -52.92313 2.16994
v 7.453852 -52.92313 2.16994
v 6.129252 -52.47048 2.722971
v 6.166112 -52.82898 2.741954
v 6.087036 -53.01174 -0.3092331
v 5.426045 -53.75459 -0.1437595
v 5.314809 -53.22916 -0.1405682
v 4.163714 -53.20248 2.126287
v 4.118796 -53.23166 2.041112
v 4.132718 -53.26798 2.097465
v 4.255194 -53.28253 1.498381
v 4.821236 -53.93781 0.8402994
v 4.118796 -53.23166 2.041112
v 4.118796 -53.23166 2.041112
v 4.821236 -53.93781 0.8402994
v 4.132718 -53.26798 2.097465
v 4.132718 -53.26798 2.097465
v 4.821236 -53.93781 0.8402994
v 4.678748 -54.10575 2.200684
v 4.678748 -54.10575 2.200684
v 4.821236 -53.93781 0.8402994
v 5.430877 -54.0958 2.579265
v 5.430877 -54.0958 2.579265
v 4.821236 -53.93781 0.8402994
v 6.515059 -53.97106 2.173252
v 6.515059 -53.97106 2.173252
v 4.821236 -53.93781 0.8402994
v 5.412456 -53.7849 -0.1133195

vn 0.03356276 0.05628726 0.9978504
vn 0.03356276 0.05628726 0.9978504
vn 0.03356276 0.05628726 0.9978504
vn 0.03356276 0.05628726 0.9978504
vn 0.03356276 0.05628726 0.9978504
vn 0.03356276 0.05628726 0.9978504
vn -0.8248038 -0.1713438 -0.5388323
vn -0.8248038 -0.1713438 -0.5388323
vn -0.8248038 -0.1713438 -0.5388323
vn -0.8248038 -0.1713438 -0.5388323
vn -0.8248038 -0.1713438 -0.5388323
vn -0.8248038 -0.1713438 -0.5388323
vn -0.8248038 -0.1713438 -0.5388323
vn -0.8248038 -0.1713438 -0.5388323
vn -0.8248038 -0.1713438 -0.5388323
vn -0.4404792 -0.1786913 0.8797997
vn -0.4404792 -0.1786913 0.8797997
vn -0.4404792 -0.1786913 0.8797997
vn -0.4404792 -0.1786913 0.8797997
vn -0.4404792 -0.1786913 0.8797997
vn -0.4404792 -0.1786913 0.8797997
vn -0.4404792 -0.1786913 0.8797997
vn -0.4404792 -0.1786913 0.8797997
vn -0.4404792 -0.1786913 0.8797997
vn -0.4404792 -0.1786913 0.8797997
vn -0.4404792 -0.1786913 0.8797997
vn -0.4404792 -0.1786913 0.8797997
vn 0.6522427 -0.6624398 -0.3684469
vn 0.6522427 -0.6624398 -0.3684469
vn 0.6522427 -0.6624398 -0.3684469
vn 0.6522427 -0.6624398 -0.3684469
vn 0.6522427 -0.6624398 -0.3684469
vn 0.6522427 -0.6624398 -0.3684469
vn 0.6522427 -0.6624398 -0.3684469
vn 0.6522427 -0.6624398 -0.3684469
vn 0.6522427 -0.6624398 -0.3684469
vn 0.6522427 -0.6624398 -0.3684469
vn 0.6522427 -0.6624398 -0.3684469
vn 0.6522427 -0.6624398 -0.3684469
vn 0.4320738 0.6674711 0.6064608
vn 0.4320738 0.6674711 0.6064608
vn 0.4320738 0.6674711 0.6064608
vn -0.3003078 0.9397147 -0.163559
vn -0.3003078 0.9397147 -0.163559
vn -0.3003078 0.9397147 -0.163559
vn -0.3003078 0.9397147 -0.163559
vn -0.3003078 0.9397147 -0.163559
vn -0.3003078 0.9397147 -0.163559
vn -0.3003078 0.9397147 -0.163559
vn -0.3003078 0.9397147 -0.163559
vn -0.3003078 0.9397147 -0.163559
vn -0.3003078 0.9397147 -0.163559
vn -0.3003078 0.9397147 -0.163559
vn -0.3003078 0.9397147 -0.163559
vn -0.3003078 0.9397147 -0.163559
vn -0.3003078 0.9397147 -0.163559
vn -0.3003078 0.9397147 -0.163559
vn -0.3003078 0.9397147 -0.163559
vn -0.3003078 0.9397147 -0.163559
vn -0.3003078 0.9397147 -0.163559
vn -0.3003078 0.9397147 -0.163559
vn -0.3003078 0.9397147 -0.163559
vn -0.3003078 0.9397147 -0.163559
vn -0.3003078 0.9397147 -0.163559
vn -0.3003078 0.9397147 -0.163559
vn -0.3003078 0.9397147 -0.163559
vn 0.3642554 -0.3235584 0.8732858
vn 0.3642554 -0.3235584 0.8732858
vn 0.3642554 -0.3235584 0.8732858
vn 0.3642554 -0.3235584 0.8732858
vn 0.3642554 -0.3235584 0.8732858
vn 0.3642554 -0.3235584 0.8732858
vn 0.3642554 -0.3235584 0.8732858
vn 0.3642554 -0.3235584 0.8732858
vn 0.3642554 -0.3235584 0.8732858
vn 0.3642554 -0.3235584 0.8732858
vn 0.3642554 -0.3235584 0.8732858
vn 0.3642554 -0.3235584 0.8732858
vn 0.9362143 0.1579666 0.3139257
vn 0.9362143 0.1579666 0.3139257
vn 0.9362143 0.1579666 0.3139257
vn 0.9362143 0.1579666 0.3139257
vn 0.9362143 0.1579666 0.3139257
vn 0.9362143 0.1579666 0.3139257
vn 0.9362143 0.1579666 0.3139257
vn 0.9362143 0.1579666 0.3139257
vn 0.9362143 0.1579666 0.3139257
vn 0.4097842 0.09009454 0.9077225
vn 0.4097842 0.09009454 0.9077225
vn 0.4097842 0.09009454 0.9077225
vn 0.4097842 0.09009454 0.9077225
vn 0.4097842 0.09009454 0.9077225
vn 0.4097842 0.09009454 0.9077225
vn 0.4097842 0.09009454 0.9077225
vn 0.4097842 0.09009454 0.9077225
vn 0.4097842 0.09009454 0.9077225
vn -0.2032572 -0.03708892 -0.9784227
vn -0.2032572 -0.03708892 -0.9784227
vn -0.2032572 -0.03708892 -0.9784227
vn -0.8888953 0.2524046 0.3823052
vn -0.8888953 0.2524046 0.3823052
vn -0.8888953 0.2524046 0.3823052
vn -0.8189694 -0.5527818 -0.1540177
vn -0.8189694 -0.5527818 -0.1540177
vn -0.8189694 -0.5527818 -0.1540177
vn -0.8189694 -0.5527818 -0.1540177
vn -0.8189694 -0.5527818 -0.1540177
vn -0.8189694 -0.5527818 -0.1540177
vn -0.8189694 -0.5527818 -0.1540177
vn -0.8189694 -0.5527818 -0.1540177
vn -0.8189694 -0.5527818 -0.1540177
vn 0.07095806 -0.9908413 -0.1148854
vn 0.07095806 -0.9908413 -0.1148854
vn 0.07095806 -0.9908413 -0.1148854
vn 0.07095806 -0.9908413 -0.1148854
vn 0.07095806 -0.9908413 -0.1148854
vn 0.07095806 -0.9908413 -0.1148854
vn 0.07095806 -0.9908413 -0.1148854
vn 0.07095806 -0.9908413 -0.1148854
vn 0.07095806 -0.9908413 -0.1148854

vt 0.5248504 0.5073273
vt 0.4695569 0.4804768
vt 0.5488137 0.4307434
vt 0.5488137 0.4307434
vt 0.4695569 0.4804768
vt 0.5172879 0.427507
vt 0.4447181 0.5347924
vt 0.4419148 0.5310298
vt 0.5006636 0.5344012
vt 0.5006636 0.5344012
vt 0.4419148 0.5310298
vt 0.5176698 0.3317376
vt 0.5176698 0.3317376
vt 0.4419148 0.5310298
vt 0.4388461 0.4131132
vt 0.5973084 0.6532678
vt 0.4160981 0.613183
vt 0.606361 0.6420732
vt 0.606361 0.6420732
vt 0.4160981 0.613183
vt 0.6093506 0.3930196
vt 0.6093506 0.3930196
vt 0.4160981 0.613183
vt 0.4804861 0.3832266
vt 0.4804861 0.3832266
vt 0.4160981 0.613183
vt 0.3656057 0.4661528
vt 0.4830008 0.5828773
vt 0.3250506 0.4352278
vt 0.5766607 0.566076
vt 0.5766607 0.566076
vt 0.3250506 0.4352278
vt 0.5795851 0.562984
vt 0.5795851 0.562984
vt 0.3250506 0.4352278
vt 0.5177443 0.3308109
vt 0.5177443 0.3308109
vt 0.3250506 0.4352278
vt 0.388456 0.3350579
vt 0.5809448 0.4877506
vt 0.5533493 0.4464365
vt 0.5856574 0.4640667
vt 0.4446809 0.5684975
vt 0.3534564 0.4207269
vt 0.5160027 0.5837063
vt 0.5160027 0.5837063
vt 0.3534564 0.4207269
vt 0.6719551 0.4526019
vt 0.6719551 0.4526019
vt 0.3534564 0.4207269
vt 0.6488206 0.3770192
vt 0.6488206 0.3770192
vt 0.3534564 0.4207269
vt 0.6191017 0.3501874
vt 0.6191017 0.3501874
vt 0.3534564 0.4207269
vt 0.5342289 0.3103122
vt 0.5342289 0.3103122
vt 0.3534564 0.4207269
vt 0.453035 0.3062888
vt 0.453035 0.3062888
vt 0.3534564 0.4207269
vt 0.347873 0.3641109
vt 0.347873 0.3641109
vt 0.3534564 0.4207269
vt 0.3432769 0.3717898
vt 0.5791194 0.2965238
vt 0.6925935 0.3754593
vt 0.4340683 0.3153182
vt 0.4340683 0.3153182
vt 0.6925935 0.3754593
vt 0.2927099 0.5267922
vt 0.2927099 0.5267922
vt 0.6925935 0.3754593
vt 0.2997648 0.5410324
vt 0.2997648 0.5410324
vt 0.6925935 0.3754593
vt 0.5461128 0.5255722
vt 0.513842 0.415055
vt 0.4486391 0.5110992
vt 0.5065961 0.4113064
vt 0.5065961 0.4113064
vt 0.4486391 0.5110992
vt 0.450865 0.412885
vt 0.450865 0.412885
vt 0.4486391 0.5110992
vt 0.4393303 0.4294954
vt 0.5727397 0.3869007
vt 0.547426 0.4851056
vt 0.5664998 0.3554355
vt 0.5664998 0.3554355
vt 0.547426 0.4851056
vt 0.5093436 0.3454143
vt 0.5093436 0.3454143
vt 0.547426 0.4851056
vt 0.51292 0.4812219
vt 0.4859438 0.4010757
vt 0.5530326 0.46158
vt 0.5059908 0.4717595
vt 0.4455796 0.4313348
vt 0.4417472 0.4400894
vt 0.4387902 0.4342965
vt 0.5703276 0.4054017
vt 0.4939719 0.4645603
vt 0.5808517 0.356623
vt 0.5808517 0.356623
vt 0.4939719 0.4645603
vt 0.5774896 0.3515611
vt 0.5774896 0.3515611
vt 0.4939719 0.4645603
vt 0.4886866 0.3422804
vt 0.616466 0.3549047
vt 0.6028498 0.475876
vt 0.5501362 0.3212368
vt 0.5501362 0.3212368
vt 0.6028498 0.475876
vt 0.453808 0.3573447
vt 0.453808 0.3573447
vt 0.6028498 0.475876
vt 0.5497916 0.5606743

usemtl Material0
usemap Material0

usemtl Material1
usemap Material1
f 1/1/1 2/2/2 3/3/3
f 4/4/4 5/5/5 6/6/6
f 7/7/7 8/8/8 9/9/9
f 10/10/10 11/11/11 12/12/12
f 13/13/13 14/14/14 15/15/15
f 16/16/16 17/17/17 18/18/18
f 19/19/19 20/20/20 21/21/21
f 22/22/22 23/23/23 24/24/24
f 25/25/25 26/26/26 27/27/27
f 28/28/28 29/29/29 30/30/30
f 31/31/31 32/32/32 33/33/33
f 34/34/34 35/35/35 36/36/36
f 37/37/37 38/38/38 39/39/39
f 40/40/40 41/41/41 42/42/42
f 43/43/43 44/44/44 45/45/45
f 46/46/46 47/47/47 48/48/48
f 49/49/49 50/50/50 51/51/51
f 52/52/52 53/53/53 54/54/54
f 55/55/55 56/56/56 57/57/57
f 58/58/58 59/59/59 60/60/60
f 61/61/61 62/62/62 63/63/63
f 64/64/64 65/65/65 66/66/66
f 67/67/67 68/68/68 69/69/69
f 70/70/70 71/71/71 72/72/72
f 73/73/73 74/74/74 75/75/75
f 76/76/76 77/77/77 78/78/78
f 79/79/79 80/80/80 81/81/81
f 82/82/82 83/83/83 84/84/84
f 85/85/85 86/86/86 87/87/87
f 88/88/88 89/89/89 90/90/90
f 91/91/91 92/92/92 93/93/93
f 94/94/94 95/95/95 96/96/96
f 97/97/97 98/98/98 99/99/99
f 100/100/100 101/101/101 102/102/102
f 103/103/103 104/104/104 105/105/105
f 106/106/106 107/107/107 108/108/108
f 109/109/109 110/110/110 111/111/111
f 112/112/112 113/113/113 114/114/114
f 115/115/115 116/116/116 117/117/117
f 118/118/118 119/119/119 120/120/120
