g  Instance
v 0.4194845 -49.02906 -9.267826
v 0.5224511 -49.03261 -9.26348
v 0.4113117 -49.08617 -9.267797
v 0.4113117 -49.08617 -9.267797
v 0.5224511 -49.03261 -9.26348
v 0.5214889 -49.04157 -9.263462
v 0.4194845 -49.02906 -9.267826
v -0.01360454 -48.99492 -9.240721
v 0.1328995 -48.73718 -9.225515
v 0.4194845 -49.02906 -9.267826
v 0.1328995 -48.73718 -9.225515
v 0.4223057 -48.22837 -9.195696
v -0.2180553 -49.35193 -9.231038
v -0.2507135 -49.36576 -9.228954
v -0.2314071 -49.33577 -9.230077
v -0.2314071 -49.33577 -9.230077
v -0.01360454 -48.99492 -9.240721
v -0.2180553 -49.35193 -9.231038
v -0.2180553 -49.35193 -9.231038
v -0.01360454 -48.99492 -9.240721
v 0.4113117 -49.08617 -9.267797
v 0.4113117 -49.08617 -9.267797
v -0.01360454 -48.99492 -9.240721
v 0.4194845 -49.02906 -9.267826
v 0.6560939 -47.73109 -9.103831
v 0.6774872 -47.81292 -9.118282
v 0.4987996 -48.08101 -9.17769
v 0.4987996 -48.08101 -9.17769
v 0.6774872 -47.81292 -9.118282
v 0.6428375 -48.06104 -9.166926
v 0.4685876 -48.14033 -9.185681
v 0.6134301 -48.29462 -9.192993
v 0.4223057 -48.22837 -9.195696
v 0.4223057 -48.22837 -9.195696
v 0.6134301 -48.29462 -9.192993
v 0.4194845 -49.02906 -9.267826
v 0.4194845 -49.02906 -9.267826
v 0.6134301 -48.29462 -9.192993
v 0.5224511 -49.03261 -9.26348
v 0.4685876 -48.14033 -9.185681
v 0.4987996 -48.08101 -9.17769
v 0.6134301 -48.29462 -9.192993
v 0.6134301 -48.29462 -9.192993
v 0.4987996 -48.08101 -9.17769
v 0.6428375 -48.06104 -9.166926
v -0.8794118 -49.14845 -5.309784
v -0.5629537 -49.67744 -5.402368
v -0.9188728 -47.49636 -5.603482
v -0.9188728 -47.49636 -5.603482
v -0.5629537 -49.67744 -5.402368
v -0.1640114 -47.21997 -6.120351
v -0.1640114 -47.21997 -6.120351
v -0.5629537 -49.67744 -5.402368
v 0.1396345 -47.38145 -6.275792
v 0.1396345 -47.38145 -6.275792
v -0.5629537 -49.67744 -5.402368
v 0.6154572 -49.48613 -6.163031
v 0.6154572 -49.48613 -6.163031
v -0.5629537 -49.67744 -5.402368
v -0.2111822 -49.84673 -5.585865
v -0.8982592 -46.83608 -6.414108
v -0.9957159 -46.88665 -6.329215
v -0.1640114 -47.21997 -6.120351
v -0.1640114 -47.21997 -6.120351
v -0.9957159 -46.88665 -6.329215
v -0.9188728 -47.49636 -5.603482
v 0.774827 -49.23892 -7.577213
v 0.5214889 -49.04157 -9.263462
v 0.6774872 -47.81292 -9.118282
v 0.6774872 -47.81292 -9.118282
v 0.5214889 -49.04157 -9.263462
v 0.6428375 -48.06104 -9.166926
v 0.6428375 -48.06104 -9.166926
v 0.5214889 -49.04157 -9.263462
v 0.6134301 -48.29462 -9.192993
v 0.6134301 -48.29462 -9.192993
v 0.5214889 -49.04157 -9.263462
v 0.5224511 -49.03261 -9.26348
v 0.774827 -49.23892 -7.577213
v 0.6774872 -47.81292 -9.118282
v 0.649683 -49.51016 -6.349122
v 0.649683 -49.51016 -6.349122
v 0.6774872 -47.81292 -9.118282
v 0.6154572 -49.48613 -6.163031
v 0.6154572 -49.48613 -6.163031
v 0.6774872 -47.81292 -9.118282
v 0.1396345 -47.38145 -6.275792
v 0.1396345 -47.38145 -6.275792
v 0.6774872 -47.81292 -9.118282
v 0.6265904 -47.66431 -9.013659
v 0.6265904 -47.66431 -9.013659
v 0.6774872 -47.81292 -9.118282
v 0.6560939 -47.73109 -9.103831
v -0.738131 -49.9991 -5.896987
v -0.9476297 -49.86588 -6.028439
v -0.5760199 -50.07999 -5.985709
v -0.5760199 -50.07999 -5.985709
v -0.9476297 -49.86588 -6.028439
v -0.6243169 -49.96473 -6.741103
v -0.6243169 -49.96473 -6.741103
v -0.9476297 -49.86588 -6.028439
v -0.9330401 -49.58272 -8.527246
v -0.9330401 -49.58272 -8.527246
v -0.9476297 -49.86588 -6.028439
v -1.165023 -49.4948 -8.161658
v -0.9476297 -49.86588 -6.028439
v -0.738131 -49.9991 -5.896987
v -0.8794118 -49.14845 -5.309784
v -0.8794118 -49.14845 -5.309784
v -0.738131 -49.9991 -5.896987
v -0.5629537 -49.67744 -5.402368
v -0.3817095 -49.43932 -9.119304
v -0.6243169 -49.96473 -6.741103
v -0.9330401 -49.58272 -8.527246
v 0.6154572 -49.48613 -6.163031
v -0.2111822 -49.84673 -5.585865
v 0.649683 -49.51016 -6.349122
v 0.649683 -49.51016 -6.349122
v -0.2111822 -49.84673 -5.585865
v -0.3902817 -50.02378 -5.87244
v -0.738131 -49.9991 -5.896987
v -0.5760199 -50.07999 -5.985709
v -0.5629537 -49.67744 -5.402368
v -0.5629537 -49.67744 -5.402368
v -0.5760199 -50.07999 -5.985709
v -0.2111822 -49.84673 -5.585865
v -0.2111822 -49.84673 -5.585865
v -0.5760199 -50.07999 -5.985709
v -0.3902817 -50.02378 -5.87244
v -0.9957159 -46.88665 -6.329215
v -1.165023 -49.4948 -8.161658
v -0.9188728 -47.49636 -5.603482
v -0.9188728 -47.49636 -5.603482
v -1.165023 -49.4948 -8.161658
v -0.8794118 -49.14845 -5.309784
v -0.8794118 -49.14845 -5.309784
v -1.165023 -49.4948 -8.161658
v -0.9476297 -49.86588 -6.028439
v -0.8982592 -46.83608 -6.414108
v -0.1640114 -47.21997 -6.120351
v 0.6265904 -47.66431 -9.013659
v 0.6265904 -47.66431 -9.013659
v -0.1640114 -47.21997 -6.120351
v 0.1396345 -47.38145 -6.275792
v -0.2507135 -49.36576 -9.228954
v -0.2180553 -49.35193 -9.231038
v -0.3817095 -49.43932 -9.119304
v -0.3817095 -49.43932 -9.119304
v -0.2180553 -49.35193 -9.231038
v -0.6243169 -49.96473 -6.741103
v -0.6243169 -49.96473 -6.741103
v -0.2180553 -49.35193 -9.231038
v -0.5760199 -50.07999 -5.985709
v -0.5760199 -50.07999 -5.985709
v -0.2180553 -49.35193 -9.231038
v -0.3902817 -50.02378 -5.87244
v -0.3902817 -50.02378 -5.87244
v -0.2180553 -49.35193 -9.231038
v 0.649683 -49.51016 -6.349122
v 0.649683 -49.51016 -6.349122
v -0.2180553 -49.35193 -9.231038
v 0.774827 -49.23892 -7.577213
v 0.774827 -49.23892 -7.577213
v -0.2180553 -49.35193 -9.231038
v 0.5214889 -49.04157 -9.263462
v 0.5214889 -49.04157 -9.263462
v -0.2180553 -49.35193 -9.231038
v 0.4113117 -49.08617 -9.267797
v 0.6265904 -47.66431 -9.013659
v 0.6560939 -47.73109 -9.103831
v -0.8982592 -46.83608 -6.414108
v -0.8982592 -46.83608 -6.414108
v 0.6560939 -47.73109 -9.103831
v -0.9957159 -46.88665 -6.329215
v -0.9957159 -46.88665 -6.329215
v 0.6560939 -47.73109 -9.103831
v -1.165023 -49.4948 -8.161658
v -1.165023 -49.4948 -8.161658
v 0.6560939 -47.73109 -9.103831
v -0.9330401 -49.58272 -8.527246
v -0.9330401 -49.58272 -8.527246
v 0.6560939 -47.73109 -9.103831
v -0.3817095 -49.43932 -9.119304
v -0.3817095 -49.43932 -9.119304
v 0.6560939 -47.73109 -9.103831
v -0.2507135 -49.36576 -9.228954
v -0.2507135 -49.36576 -9.228954
v 0.6560939 -47.73109 -9.103831
v -0.2314071 -49.33577 -9.230077
v -0.2314071 -49.33577 -9.230077
v 0.6560939 -47.73109 -9.103831
v -0.01360454 -48.99492 -9.240721
v -0.01360454 -48.99492 -9.240721
v 0.6560939 -47.73109 -9.103831
v 0.1328995 -48.73718 -9.225515
v 0.1328995 -48.73718 -9.225515
v 0.6560939 -47.73109 -9.103831
v 0.4223057 -48.22837 -9.195696
v 0.4223057 -48.22837 -9.195696
v 0.6560939 -47.73109 -9.103831
v 0.4685876 -48.14033 -9.185681
v 0.4685876 -48.14033 -9.185681
v 0.6560939 -47.73109 -9.103831
v 0.4987996 -48.08101 -9.17769

vn 0.04194234 -0.006518796 -0.9990988
vn 0.04194234 -0.006518796 -0.9990988
vn 0.04194234 -0.006518796 -0.9990988
vn 0.04194234 -0.006518796 -0.9990988
vn 0.04194234 -0.006518796 -0.9990988
vn 0.04194234 -0.006518796 -0.9990988
vn -0.05514329 0.09001181 -0.994413
vn -0.05514329 0.09001181 -0.994413
vn -0.05514329 0.09001181 -0.994413
vn -0.05514329 0.09001181 -0.994413
vn -0.05514329 0.09001181 -0.994413
vn -0.05534628 0.08981349 -0.9944196
vn -0.06371901 0.006744974 -0.9979451
vn -0.06371901 0.006744974 -0.9979451
vn -0.06371901 0.006744974 -0.9979451
vn -0.06371901 0.006744974 -0.9979451
vn -0.06371901 0.006744974 -0.9979451
vn -0.06371901 0.006744974 -0.9979451
vn -0.06371901 0.006744974 -0.9979451
vn -0.06371901 0.006744974 -0.9979451
vn -0.06371901 0.006744974 -0.9979451
vn -0.06371901 0.006744974 -0.9979451
vn -0.06371901 0.006744974 -0.9979451
vn -0.06371901 0.006744974 -0.9979451
vn 0.05117385 0.1902172 -0.9804074
vn 0.05117385 0.1902172 -0.9804074
vn 0.05117385 0.1902172 -0.9804074
vn 0.05117385 0.1902172 -0.9804074
vn 0.05117385 0.1902172 -0.9804074
vn 0.05117385 0.1902172 -0.9804074
vn 0.05357619 0.0973954 -0.9938027
vn 0.05357619 0.0973954 -0.9938027
vn 0.05357619 0.0973954 -0.9938027
vn 0.05357619 0.0973954 -0.9938027
vn 0.05357619 0.0973954 -0.9938027
vn 0.05357619 0.0973954 -0.9938027
vn 0.05357619 0.0973954 -0.9938027
vn 0.05357619 0.0973954 -0.9938027
vn 0.05357619 0.0973954 -0.9938027
vn 0.05357619 0.0973954 -0.9938027
vn 0.05357619 0.0973954 -0.9938027
vn 0.05357619 0.0973954 -0.9938027
vn 0.05357619 0.0973954 -0.9938027
vn 0.05357619 0.0973954 -0.9938027
vn 0.05357619 0.0973954 -0.9938027
vn 0.5165013 0.1618203 0.8408571
vn 0.5165013 0.1618203 0.8408571
vn 0.5165013 0.1618203 0.8408571
vn 0.5165013 0.1618203 0.8408571
vn 0.5165013 0.1618203 0.8408571
vn 0.5165013 0.1618203 0.8408571
vn 0.5165013 0.1618203 0.8408571
vn 0.5165013 0.1618203 0.8408571
vn 0.5165013 0.1618203 0.8408571
vn 0.5165013 0.1618203 0.8408571
vn 0.5165013 0.1618203 0.8408571
vn 0.5165013 0.1618203 0.8408571
vn 0.5165013 0.1618203 0.8408571
vn 0.5165013 0.1618203 0.8408571
vn 0.5165013 0.1618203 0.8408571
vn 0.1491202 0.7648103 0.6267604
vn 0.1491202 0.7648103 0.6267604
vn 0.1491202 0.7648103 0.6267604
vn 0.1491202 0.7648103 0.6267604
vn 0.1491202 0.7648103 0.6267604
vn 0.1491202 0.7648103 0.6267604
vn 0.9814666 -0.1057286 -0.1598275
vn 0.9814666 -0.1057286 -0.1598275
vn 0.9814666 -0.1057286 -0.1598275
vn 0.9814666 -0.1057286 -0.1598275
vn 0.9814666 -0.1057286 -0.1598275
vn 0.9814666 -0.1057286 -0.1598275
vn 0.9814666 -0.1057286 -0.1598275
vn 0.9814666 -0.1057286 -0.1598275
vn 0.9814666 -0.1057286 -0.1598275
vn 0.9814666 -0.1057286 -0.1598275
vn 0.9814666 -0.1057286 -0.1598275
vn 0.9814666 -0.1057286 -0.1598275
vn 0.9629139 0.2256227 0.1479563
vn 0.9629139 0.2256227 0.1479563
vn 0.9629139 0.2256227 0.1479563
vn 0.9629139 0.2256227 0.1479563
vn 0.9629139 0.2256227 0.1479563
vn 0.9629139 0.2256227 0.1479563
vn 0.9629139 0.2256227 0.1479563
vn 0.9629139 0.2256227 0.1479563
vn 0.9629139 0.2256227 0.1479563
vn 0.9629139 0.2256227 0.1479563
vn 0.9629139 0.2256227 0.1479563
vn 0.9629139 0.2256227 0.1479563
vn 0.9629139 0.2256227 0.1479563
vn 0.9629139 0.2256227 0.1479563
vn 0.9629139 0.2256227 0.1479563
vn -0.4879266 -0.8670107 -0.1010946
vn -0.4879266 -0.8670107 -0.1010946
vn -0.4879266 -0.8670107 -0.1010946
vn -0.4879266 -0.8670107 -0.1010946
vn -0.4879266 -0.8670107 -0.1010946
vn -0.4879266 -0.8670107 -0.1010946
vn -0.4879266 -0.8670107 -0.1010946
vn -0.4879266 -0.8670107 -0.1010946
vn -0.4879266 -0.8670107 -0.1010946
vn -0.4879266 -0.8670107 -0.1010946
vn -0.4879266 -0.8670107 -0.1010946
vn -0.4879266 -0.8670107 -0.1010946
vn -0.6654239 -0.4957499 0.5580709
vn -0.6654239 -0.4957499 0.5580709
vn -0.6654239 -0.4957499 0.5580709
vn -0.6654239 -0.4957499 0.5580709
vn -0.6654239 -0.4957499 0.5580709
vn -0.6654239 -0.4957499 0.5580709
vn 0.02505743 -0.9766838 -0.2132159
vn 0.02505743 -0.9766838 -0.2132159
vn 0.02505743 -0.9766838 -0.2132159
vn 0.5064188 -0.8384293 0.2014363
vn 0.5064188 -0.8384293 0.2014363
vn 0.5064188 -0.8384293 0.2014363
vn 0.5064188 -0.8384293 0.2014363
vn 0.5064188 -0.8384293 0.2014363
vn 0.5064188 -0.8384293 0.2014363
vn -0.09805296 -0.8180242 0.5667645
vn -0.09805296 -0.8180242 0.5667645
vn -0.09805296 -0.8180242 0.5667645
vn -0.09805296 -0.8180242 0.5667645
vn -0.09805296 -0.8180242 0.5667645
vn -0.09805296 -0.8180242 0.5667645
vn -0.09805296 -0.8180242 0.5667645
vn -0.09805296 -0.8180242 0.5667645
vn -0.09805296 -0.8180242 0.5667645
vn -0.9949334 -0.005925932 0.1003613
vn -0.9949334 -0.005925932 0.1003613
vn -0.9949334 -0.005925932 0.1003613
vn -0.9949334 -0.005925932 0.1003613
vn -0.9949334 -0.005925932 0.1003613
vn -0.9949334 -0.005925932 0.1003613
vn -0.9949334 -0.005925932 0.1003613
vn -0.9949334 -0.005925932 0.1003613
vn -0.9949334 -0.005925932 0.1003613
vn 0.4660044 0.8847413 -0.008528455
vn 0.4660044 0.8847413 -0.008528455
vn 0.4660044 0.8847413 -0.008528455
vn 0.4660044 0.8847413 -0.008528455
vn 0.4660044 0.8847413 -0.008528455
vn 0.4660044 0.8847413 -0.008528455
vn 0.3757097 -0.9122519 -0.1632139
vn 0.3757097 -0.9122519 -0.1632139
vn 0.3757097 -0.9122519 -0.1632139
vn 0.3757097 -0.9122519 -0.1632139
vn 0.3757097 -0.9122519 -0.1632139
vn 0.3757097 -0.9122519 -0.1632139
vn 0.3757097 -0.9122519 -0.1632139
vn 0.3757097 -0.9122519 -0.1632139
vn 0.3757097 -0.9122519 -0.1632139
vn 0.3757097 -0.9122519 -0.1632139
vn 0.3757097 -0.9122519 -0.1632139
vn 0.3757097 -0.9122519 -0.1632139
vn 0.3757097 -0.9122519 -0.1632139
vn 0.3757097 -0.9122519 -0.1632139
vn 0.3757097 -0.9122519 -0.1632139
vn 0.3757097 -0.9122519 -0.1632139
vn 0.3757097 -0.9122519 -0.1632139
vn 0.3757097 -0.9122519 -0.1632139
vn 0.3757097 -0.9122519 -0.1632139
vn 0.3757097 -0.9122519 -0.1632139
vn 0.3757097 -0.9122519 -0.1632139
vn 0.3757097 -0.9122519 -0.1632139
vn 0.3757097 -0.9122519 -0.1632139
vn 0.3757097 -0.9122519 -0.1632139
vn -0.7089159 0.4356885 -0.5546294
vn -0.7089159 0.4356885 -0.5546294
vn -0.7089159 0.4356885 -0.5546294
vn -0.7089159 0.4356885 -0.5546294
vn -0.7089159 0.4356885 -0.5546294
vn -0.7089159 0.4356885 -0.5546294
vn -0.7089159 0.4356885 -0.5546294
vn -0.7089159 0.4356885 -0.5546294
vn -0.7089159 0.4356885 -0.5546294
vn -0.7089159 0.4356885 -0.5546294
vn -0.7089159 0.4356885 -0.5546294
vn -0.7089159 0.4356885 -0.5546294
vn -0.7089159 0.4356885 -0.5546294
vn -0.7089159 0.4356885 -0.5546294
vn -0.7089159 0.4356885 -0.5546294
vn -0.7089159 0.4356885 -0.5546294
vn -0.7089159 0.4356885 -0.5546294
vn -0.7089159 0.4356885 -0.5546294
vn -0.7089159 0.4356885 -0.5546294
vn -0.7089159 0.4356885 -0.5546294
vn -0.7089159 0.4356885 -0.5546294
vn -0.7089159 0.4356885 -0.5546294
vn -0.7089159 0.4356885 -0.5546294
vn -0.7089159 0.4356885 -0.5546294
vn -0.7089159 0.4356885 -0.5546294
vn -0.7089159 0.4356885 -0.5546294
vn -0.7089159 0.4356885 -0.5546294
vn -0.7089159 0.4356885 -0.5546294
vn -0.7089159 0.4356885 -0.5546294
vn -0.7089159 0.4356885 -0.5546294
vn -0.7089159 0.4356885 -0.5546294
vn -0.7089159 0.4356885 -0.5546294
vn -0.7089159 0.4356885 -0.5546294
vn -0.7089159 0.4356885 -0.5546294
vn -0.7089159 0.4356885 -0.5546294
vn -0.7089159 0.4356885 -0.5546294

vt 0.9063357 0.146311
vt 0.9063363 0.146342
vt 0.9063537 0.1463089
vt 0.9063537 0.1463089
vt 0.9063363 0.146342
vt 0.9063392 0.1463417
vt 0.9063357 0.146311
vt 0.9063267 0.1461851
vt 0.9062452 0.1462285
vt 0.9063357 0.146311
vt 0.9062452 0.1462285
vt 0.9060844 0.1463143
vt 0.9064393 0.1461276
vt 0.9064438 0.1461182
vt 0.9064343 0.1461236
vt 0.9064343 0.1461236
vt 0.9063267 0.1461851
vt 0.9064393 0.1461276
vt 0.9064393 0.1461276
vt 0.9063267 0.1461851
vt 0.9063537 0.1463089
vt 0.9063537 0.1463089
vt 0.9063267 0.1461851
vt 0.9063357 0.146311
vt 0.9059271 0.1463899
vt 0.9059528 0.1463953
vt 0.9060379 0.1463379
vt 0.9060379 0.1463379
vt 0.9059528 0.1463953
vt 0.906031 0.1463816
vt 0.9060566 0.1463285
vt 0.9061044 0.1463717
vt 0.9060844 0.1463143
vt 0.9060844 0.1463143
vt 0.9061044 0.1463717
vt 0.9063357 0.146311
vt 0.9063357 0.146311
vt 0.9061044 0.1463717
vt 0.9063363 0.146342
vt 0.9060566 0.1463285
vt 0.9060379 0.1463379
vt 0.9061044 0.1463717
vt 0.9061044 0.1463717
vt 0.9060379 0.1463379
vt 0.906031 0.1463816
vt 0.6210016 0.2000931
vt 0.7181867 0.2278237
vt 0.3634962 0.2880672
vt 0.3634962 0.2880672
vt 0.7181867 0.2278237
vt 0.3573261 0.4428927
vt 0.3573261 0.4428927
vt 0.7181867 0.2278237
vt 0.3970244 0.4894549
vt 0.3970244 0.4894549
vt 0.7181867 0.2278237
vt 0.7457077 0.4556753
vt 0.7457077 0.4556753
vt 0.7181867 0.2278237
vt 0.7614287 0.2827912
vt 0.4243684 0.4767235
vt 0.4146825 0.4644578
vt 0.5138047 0.4342685
vt 0.5138047 0.4342685
vt 0.4146825 0.4644578
vt 0.4363221 0.359566
vt 0.5759156 0.4674381
vt 0.5608838 0.6193019
vt 0.4508044 0.6062167
vt 0.4508044 0.6062167
vt 0.5608838 0.6193019
vt 0.473068 0.6106033
vt 0.473068 0.6106033
vt 0.5608838 0.6193019
vt 0.4939905 0.6129502
vt 0.4939905 0.6129502
vt 0.5608838 0.6193019
vt 0.5600829 0.6193019
vt 0.6115392 0.4999604
vt 0.4863815 0.6382267
vt 0.6324384 0.3897832
vt 0.6324384 0.3897832
vt 0.4863815 0.6382267
vt 0.6296723 0.373089
vt 0.6296723 0.373089
vt 0.4863815 0.6382267
vt 0.4382174 0.3832033
vt 0.4382174 0.3832033
vt 0.4863815 0.6382267
vt 0.4725092 0.6288388
vt 0.4725092 0.6288388
vt 0.4863815 0.6382267
vt 0.4788749 0.6369321
vt 0.4432559 0.3246222
vt 0.4651237 0.3362779
vt 0.4272975 0.332492
vt 0.4272975 0.332492
vt 0.4651237 0.3362779
vt 0.4359962 0.3994645
vt 0.4359962 0.3994645
vt 0.4651237 0.3362779
vt 0.4762532 0.5578151
vt 0.4762532 0.5578151
vt 0.4651237 0.3362779
vt 0.4978882 0.5254045
vt 0.3914596 0.4298121
vt 0.3669235 0.4130573
vt 0.4479871 0.3382244
vt 0.4479871 0.3382244
vt 0.3669235 0.4130573
vt 0.3831335 0.3500244
vt 0.4931756 0.599185
vt 0.5161703 0.3805444
vt 0.5430114 0.5447484
vt 0.4728911 0.3921907
vt 0.5529768 0.3393979
vt 0.4713823 0.4092109
vt 0.4713823 0.4092109
vt 0.5529768 0.3393979
vt 0.5749097 0.3656104
vt 0.5041654 0.4463526
vt 0.485995 0.4578174
vt 0.489711 0.382407
vt 0.489711 0.382407
vt 0.485995 0.4578174
vt 0.4503667 0.4061282
vt 0.4503667 0.4061282
vt 0.485995 0.4578174
vt 0.4670656 0.4431721
vt 0.6199772 0.3816992
vt 0.3900253 0.5441337
vt 0.5661552 0.3173624
vt 0.5661552 0.3173624
vt 0.3900253 0.5441337
vt 0.4204242 0.2913362
vt 0.4204242 0.2913362
vt 0.3900253 0.5441337
vt 0.3571818 0.3550397
vt 0.4106172 0.3839437
vt 0.4833174 0.3581597
vt 0.5628769 0.6120747
vt 0.5628769 0.6120747
vt 0.4833174 0.3581597
vt 0.5135067 0.3718038
vt 0.5184428 0.6153624
vt 0.5152948 0.6155487
vt 0.5317143 0.6054809
vt 0.5317143 0.6054809
vt 0.5152948 0.6155487
vt 0.5694614 0.3910778
vt 0.5694614 0.3910778
vt 0.5152948 0.6155487
vt 0.5693869 0.3229738
vt 0.5693869 0.3229738
vt 0.5152948 0.6155487
vt 0.5522131 0.3127616
vt 0.5522131 0.3127616
vt 0.5152948 0.6155487
vt 0.4492863 0.3557382
vt 0.4492863 0.3557382
vt 0.5152948 0.6155487
vt 0.4298074 0.4664509
vt 0.4298074 0.4664509
vt 0.5152948 0.6155487
vt 0.4439544 0.6184824
vt 0.4439544 0.6184824
vt 0.5152948 0.6155487
vt 0.4545344 0.6188735
vt 0.6136441 0.65066
vt 0.6092761 0.6620876
vt 0.6038557 0.3211949
vt 0.6038557 0.3211949
vt 0.6092761 0.6620876
vt 0.5939277 0.3104379
vt 0.5939277 0.3104379
vt 0.6092761 0.6620876
vt 0.3502433 0.5426809
vt 0.3502433 0.5426809
vt 0.6092761 0.6620876
vt 0.3551561 0.5890148
vt 0.3551561 0.5890148
vt 0.6092761 0.6620876
vt 0.3984819 0.6640527
vt 0.3984819 0.6640527
vt 0.6092761 0.6620876
vt 0.4123262 0.6779482
vt 0.4123262 0.6779482
vt 0.6092761 0.6620876
vt 0.4160842 0.6780879
vt 0.4160842 0.6780879
vt 0.6092761 0.6620876
vt 0.4587348 0.6794384
vt 0.4587348 0.6794384
vt 0.6092761 0.6620876
vt 0.4899811 0.6775105
vt 0.4899811 0.6775105
vt 0.6092761 0.6620876
vt 0.5516822 0.6737293
vt 0.5516822 0.6737293
vt 0.6092761 0.6620876
vt 0.5621504 0.6724626
vt 0.5621504 0.6724626
vt 0.6092761 0.6620876
vt 0.5691448 0.6714475

usemtl Material0
usemap Material0
f 1/1/1 2/2/2 3/3/3
f 4/4/4 5/5/5 6/6/6
f 7/7/7 8/8/8 9/9/9
f 10/10/10 11/11/11 12/12/12
f 13/13/13 14/14/14 15/15/15
f 16/16/16 17/17/17 18/18/18
f 19/19/19 20/20/20 21/21/21
f 22/22/22 23/23/23 24/24/24
f 25/25/25 26/26/26 27/27/27
f 28/28/28 29/29/29 30/30/30
f 31/31/31 32/32/32 33/33/33
f 34/34/34 35/35/35 36/36/36
f 37/37/37 38/38/38 39/39/39
f 40/40/40 41/41/41 42/42/42
f 43/43/43 44/44/44 45/45/45

usemtl Material1
usemap Material1
f 46/46/46 47/47/47 48/48/48
f 49/49/49 50/50/50 51/51/51
f 52/52/52 53/53/53 54/54/54
f 55/55/55 56/56/56 57/57/57
f 58/58/58 59/59/59 60/60/60
f 61/61/61 62/62/62 63/63/63
f 64/64/64 65/65/65 66/66/66
f 67/67/67 68/68/68 69/69/69
f 70/70/70 71/71/71 72/72/72
f 73/73/73 74/74/74 75/75/75
f 76/76/76 77/77/77 78/78/78
f 79/79/79 80/80/80 81/81/81
f 82/82/82 83/83/83 84/84/84
f 85/85/85 86/86/86 87/87/87
f 88/88/88 89/89/89 90/90/90
f 91/91/91 92/92/92 93/93/93
f 94/94/94 95/95/95 96/96/96
f 97/97/97 98/98/98 99/99/99
f 100/100/100 101/101/101 102/102/102
f 103/103/103 104/104/104 105/105/105
f 106/106/106 107/107/107 108/108/108
f 109/109/109 110/110/110 111/111/111
f 112/112/112 113/113/113 114/114/114
f 115/115/115 116/116/116 117/117/117
f 118/118/118 119/119/119 120/120/120
f 121/121/121 122/122/122 123/123/123
f 124/124/124 125/125/125 126/126/126
f 127/127/127 128/128/128 129/129/129
f 130/130/130 131/131/131 132/132/132
f 133/133/133 134/134/134 135/135/135
f 136/136/136 137/137/137 138/138/138
f 139/139/139 140/140/140 141/141/141
f 142/142/142 143/143/143 144/144/144
f 145/145/145 146/146/146 147/147/147
f 148/148/148 149/149/149 150/150/150
f 151/151/151 152/152/152 153/153/153
f 154/154/154 155/155/155 156/156/156
f 157/157/157 158/158/158 159/159/159
f 160/160/160 161/161/161 162/162/162
f 163/163/163 164/164/164 165/165/165
f 166/166/166 167/167/167 168/168/168
f 169/169/169 170/170/170 171/171/171
f 172/172/172 173/173/173 174/174/174
f 175/175/175 176/176/176 177/177/177
f 178/178/178 179/179/179 180/180/180
f 181/181/181 182/182/182 183/183/183
f 184/184/184 185/185/185 186/186/186
f 187/187/187 188/188/188 189/189/189
f 190/190/190 191/191/191 192/192/192
f 193/193/193 194/194/194 195/195/195
f 196/196/196 197/197/197 198/198/198
f 199/199/199 200/200/200 201/201/201
f 202/202/202 203/203/203 204/204/204
