g  Instance
v -4.393439 -48.13422 4.937487
v -4.601965 -47.94048 5.026574
v -4.391378 -48.16403 4.951157
v -4.391378 -48.16403 4.951157
v -4.601965 -47.94048 5.026574
v -5.032718 -49.24918 6.101992
v -5.032718 -49.24918 6.101992
v -4.601965 -47.94048 5.026574
v -5.418295 -49.01194 6.329837
v -5.418295 -49.01194 6.329837
v -4.601965 -47.94048 5.026574
v -5.519414 -48.13369 5.963934
v -6.128385 -47.125 4.477098
v -6.021754 -47.18737 4.718312
v -5.800397 -47.2556 4.684147
v -6.56405 -50.20041 2.707324
v -6.010155 -50.27296 2.479129
v -6.163005 -50.59409 2.946539
v -6.163005 -50.59409 2.946539
v -6.010155 -50.27296 2.479129
v -6.034562 -50.36418 2.601117
v -6.853312 -49.82526 2.710277
v -6.56405 -50.20041 2.707324
v -6.985627 -49.49406 3.018662
v -6.985627 -49.49406 3.018662
v -6.56405 -50.20041 2.707324
v -5.802299 -49.67566 5.609952
v -5.802299 -49.67566 5.609952
v -6.56405 -50.20041 2.707324
v -5.65638 -50.0821 5.190598
v -5.65638 -50.0821 5.190598
v -6.56405 -50.20041 2.707324
v -6.163005 -50.59409 2.946539
v -5.65638 -50.0821 5.190598
v -6.163005 -50.59409 2.946539
v -5.032718 -49.24918 6.101992
v -5.032718 -49.24918 6.101992
v -6.163005 -50.59409 2.946539
v -4.391378 -48.16403 4.951157
v -4.391378 -48.16403 4.951157
v -6.163005 -50.59409 2.946539
v -5.970573 -50.25708 2.497016
v -5.970573 -50.25708 2.497016
v -6.163005 -50.59409 2.946539
v -6.034562 -50.36418 2.601117
v -5.65638 -50.0821 5.190598
v -5.032718 -49.24918 6.101992
v -5.802299 -49.67566 5.609952
v -5.802299 -49.67566 5.609952
v -5.032718 -49.24918 6.101992
v -5.418295 -49.01194 6.329837
v -6.985627 -49.49406 3.018662
v -6.606031 -47.28834 3.470743
v -6.853312 -49.82526 2.710277
v -6.853312 -49.82526 2.710277
v -6.606031 -47.28834 3.470743
v -6.537292 -49.49067 2.450527
v -6.537292 -49.49067 2.450527
v -6.606031 -47.28834 3.470743
v -5.999702 -48.32924 2.259533
v -4.391378 -48.16403 4.951157
v -5.970573 -50.25708 2.497016
v -4.393439 -48.13422 4.937487
v -4.393439 -48.13422 4.937487
v -5.970573 -50.25708 2.497016
v -5.820737 -48.47646 2.221055
v -5.820737 -48.47646 2.221055
v -5.970573 -50.25708 2.497016
v -5.991283 -49.86393 2.329561
v -5.991283 -49.86393 2.329561
v -5.970573 -50.25708 2.497016
v -5.987687 -50.24567 2.459456
v -5.418295 -49.01194 6.329837
v -5.519414 -48.13369 5.963934
v -5.802299 -49.67566 5.609952
v -5.802299 -49.67566 5.609952
v -5.519414 -48.13369 5.963934
v -6.985627 -49.49406 3.018662
v -6.985627 -49.49406 3.018662
v -5.519414 -48.13369 5.963934
v -6.606031 -47.28834 3.470743
v -6.606031 -47.28834 3.470743
v -5.519414 -48.13369 5.963934
v -6.128385 -47.125 4.477098
v -6.128385 -47.125 4.477098
v -5.519414 -48.13369 5.963934
v -6.021754 -47.18737 4.718312
v -5.800397 -47.2556 4.684147
v -4.601965 -47.94048 5.026574
v -6.128385 -47.125 4.477098
v -6.128385 -47.125 4.477098
v -4.601965 -47.94048 5.026574
v -6.606031 -47.28834 3.470743
v -6.606031 -47.28834 3.470743
v -4.601965 -47.94048 5.026574
v -5.999702 -48.32924 2.259533
v -5.999702 -48.32924 2.259533
v -4.601965 -47.94048 5.026574
v -5.820737 -48.47646 2.221055
v -5.820737 -48.47646 2.221055
v -4.601965 -47.94048 5.026574
v -4.393439 -48.13422 4.937487
v -5.991283 -49.86393 2.329561
v -5.987687 -50.24567 2.459456
v -6.537292 -49.49067 2.450527
v -6.537292 -49.49067 2.450527
v -5.987687 -50.24567 2.459456
v -6.853312 -49.82526 2.710277
v -6.853312 -49.82526 2.710277
v -5.987687 -50.24567 2.459456
v -6.56405 -50.20041 2.707324
v -6.56405 -50.20041 2.707324
v -5.987687 -50.24567 2.459456
v -6.010155 -50.27296 2.479129
v -6.537292 -49.49067 2.450527
v -5.999702 -48.32924 2.259533
v -5.991283 -49.86393 2.329561
v -5.991283 -49.86393 2.329561
v -5.999702 -48.32924 2.259533
v -5.820737 -48.47646 2.221055
v -5.970573 -50.25708 2.497016
v -6.034562 -50.36418 2.601117
v -5.987687 -50.24567 2.459456
v -5.987687 -50.24567 2.459456
v -6.034562 -50.36418 2.601117
v -6.010155 -50.27296 2.479129
v -4.601965 -47.94048 5.026574
v -5.800397 -47.2556 4.684147
v -5.519414 -48.13369 5.963934
v -5.519414 -48.13369 5.963934
v -5.800397 -47.2556 4.684147
v -6.021754 -47.18737 4.718312

vn 0.6287068 0.3596436 0.6894812
vn 0.6287068 0.3596436 0.6894812
vn 0.6287068 0.3596436 0.6894812
vn 0.6287068 0.3596436 0.6894812
vn 0.6287068 0.3596436 0.6894812
vn 0.6287068 0.3596436 0.6894812
vn 0.6287068 0.3596436 0.6894812
vn 0.6287068 0.3596436 0.6894812
vn 0.6287068 0.3596436 0.6894812
vn 0.6287068 0.3596436 0.6894812
vn 0.6287068 0.3596436 0.6894812
vn 0.6287068 0.3596436 0.6894812
vn 0.3080292 0.9452026 0.1082139
vn 0.3080292 0.9452026 0.1082139
vn 0.3080292 0.9452026 0.1082139
vn -0.3434914 -0.7178746 -0.6055326
vn -0.3434914 -0.7178746 -0.6055326
vn -0.3434914 -0.7178746 -0.6055326
vn -0.3434914 -0.7178746 -0.6055326
vn -0.3434914 -0.7178746 -0.6055326
vn -0.3434914 -0.7178746 -0.6055326
vn -0.7534955 -0.5833617 0.3032058
vn -0.7534955 -0.5833617 0.3032058
vn -0.7534955 -0.5833617 0.3032058
vn -0.7534955 -0.5833617 0.3032058
vn -0.7534955 -0.5833617 0.3032058
vn -0.7534955 -0.5833617 0.3032058
vn -0.7534955 -0.5833617 0.3032058
vn -0.7534955 -0.5833617 0.3032058
vn -0.7534955 -0.5833617 0.3032058
vn -0.7534955 -0.5833617 0.3032058
vn -0.7534955 -0.5833617 0.3032058
vn -0.7534955 -0.5833617 0.3032058
vn 0.8297521 -0.554817 -0.06074274
vn 0.8297521 -0.554817 -0.06074274
vn 0.8297521 -0.554817 -0.06074274
vn 0.8297521 -0.554817 -0.06074274
vn 0.8297521 -0.554817 -0.06074274
vn 0.8297521 -0.554817 -0.06074274
vn 0.8297521 -0.554817 -0.06074274
vn 0.8297521 -0.554817 -0.06074274
vn 0.8297521 -0.554817 -0.06074274
vn 0.8297521 -0.554817 -0.06074274
vn 0.8297521 -0.554817 -0.06074274
vn 0.8297521 -0.554817 -0.06074274
vn -0.0387996 -0.7242534 0.6884415
vn -0.0387996 -0.7242534 0.6884415
vn -0.0387996 -0.7242534 0.6884415
vn -0.0387996 -0.7242534 0.6884415
vn -0.0387996 -0.7242534 0.6884415
vn -0.0387996 -0.7242534 0.6884415
vn -0.7601161 0.253445 -0.598322
vn -0.7601161 0.253445 -0.598322
vn -0.7601161 0.253445 -0.598322
vn -0.7601161 0.253445 -0.598322
vn -0.7601161 0.253445 -0.598322
vn -0.7601161 0.253445 -0.598322
vn -0.7601161 0.253445 -0.598322
vn -0.7601161 0.253445 -0.598322
vn -0.7601161 0.253445 -0.598322
vn 0.8834091 -0.14348 -0.4460965
vn 0.8834091 -0.14348 -0.4460965
vn 0.8834091 -0.14348 -0.4460965
vn 0.8834091 -0.14348 -0.4460965
vn 0.8834091 -0.14348 -0.4460965
vn 0.8834091 -0.14348 -0.4460965
vn 0.8834091 -0.14348 -0.4460965
vn 0.8834091 -0.14348 -0.4460965
vn 0.8834091 -0.14348 -0.4460965
vn 0.8834091 -0.14348 -0.4460965
vn 0.8834091 -0.14348 -0.4460965
vn 0.8834091 -0.14348 -0.4460965
vn -0.9055446 0.07007334 0.4184242
vn -0.9055446 0.07007334 0.4184242
vn -0.9055446 0.07007334 0.4184242
vn -0.9055446 0.07007334 0.4184242
vn -0.9055446 0.07007334 0.4184242
vn -0.9055446 0.07007334 0.4184242
vn -0.9055446 0.07007334 0.4184242
vn -0.9055446 0.07007334 0.4184242
vn -0.9055446 0.07007334 0.4184242
vn -0.9055446 0.07007334 0.4184242
vn -0.9055446 0.07007334 0.4184242
vn -0.9055446 0.07007334 0.4184242
vn -0.9055446 0.07007334 0.4184242
vn -0.9055446 0.07007334 0.4184242
vn -0.9055446 0.07007334 0.4184242
vn 0.5384174 0.7532434 -0.3777979
vn 0.5384174 0.7532434 -0.3777979
vn 0.5384174 0.7532434 -0.3777979
vn 0.5384174 0.7532434 -0.3777979
vn 0.5384174 0.7532434 -0.3777979
vn 0.5384174 0.7532434 -0.3777979
vn 0.5384174 0.7532434 -0.3777979
vn 0.5384174 0.7532434 -0.3777979
vn 0.5384174 0.7532434 -0.3777979
vn 0.5384174 0.7532434 -0.3777979
vn 0.5384174 0.7532434 -0.3777979
vn 0.5384174 0.7532434 -0.3777979
vn 0.5384174 0.7532434 -0.3777979
vn 0.5384174 0.7532434 -0.3777979
vn 0.5384174 0.7532434 -0.3777979
vn -0.3966967 -0.2990671 -0.8678656
vn -0.3966967 -0.2990671 -0.8678656
vn -0.3966967 -0.2990671 -0.8678656
vn -0.3966967 -0.2990671 -0.8678656
vn -0.3966967 -0.2990671 -0.8678656
vn -0.3966967 -0.2990671 -0.8678656
vn -0.3966967 -0.2990671 -0.8678656
vn -0.3966967 -0.2990671 -0.8678656
vn -0.3966967 -0.2990671 -0.8678656
vn -0.3966967 -0.2990671 -0.8678656
vn -0.3966967 -0.2990671 -0.8678656
vn -0.3966967 -0.2990671 -0.8678656
vn -0.2456199 -0.045528 -0.9682966
vn -0.2456199 -0.045528 -0.9682966
vn -0.2456199 -0.045528 -0.9682966
vn -0.2456199 -0.045528 -0.9682966
vn -0.2456199 -0.045528 -0.9682966
vn -0.2456199 -0.045528 -0.9682966
vn 0.5010047 -0.7382594 -0.4516275
vn 0.5010047 -0.7382594 -0.4516275
vn 0.5010047 -0.7382594 -0.4516275
vn 0.5010047 -0.7382594 -0.4516275
vn 0.5010047 -0.7382594 -0.4516275
vn 0.5010047 -0.7382594 -0.4516275
vn 0.3250895 0.8115722 0.4854559
vn 0.3250895 0.8115722 0.4854559
vn 0.3250895 0.8115722 0.4854559
vn 0.3250895 0.8115722 0.4854559
vn 0.3250895 0.8115722 0.4854559
vn 0.3250895 0.8115722 0.4854559

vt 0.51943 0.5554774
vt 0.4865119 0.540576
vt 0.5226897 0.5531863
vt 0.5226897 0.5531863
vt 0.4865119 0.540576
vt 0.5982304 0.3606836
vt 0.5982304 0.3606836
vt 0.4865119 0.540576
vt 0.5500896 0.3225733
vt 0.5500896 0.3225733
vt 0.4865119 0.540576
vt 0.4516426 0.3837807
vt 0.4426226 0.462977
vt 0.4532771 0.4415609
vt 0.47372 0.4445924
vt 0.4915784 0.5072342
vt 0.4330299 0.538853
vt 0.4329507 0.4740879
vt 0.4329507 0.4740879
vt 0.4330299 0.538853
vt 0.431116 0.5219493
vt 0.478209 0.6371184
vt 0.4345852 0.6374071
vt 0.5097814 0.6073156
vt 0.5097814 0.6073156
vt 0.4345852 0.6374071
vt 0.4298493 0.356907
vt 0.4298493 0.356907
vt 0.4345852 0.6374071
vt 0.3920277 0.3974341
vt 0.3920277 0.3974341
vt 0.4345852 0.6374071
vt 0.3833104 0.6142914
vt 0.5704673 0.379613
vt 0.632634 0.5772614
vt 0.4791171 0.2993364
vt 0.4791171 0.2993364
vt 0.632634 0.5772614
vt 0.3684696 0.4006985
vt 0.3684696 0.4006985
vt 0.632634 0.5772614
vt 0.598603 0.6168618
vt 0.598603 0.6168618
vt 0.632634 0.5772614
vt 0.6095555 0.6076882
vt 0.4487695 0.4833733
vt 0.3788167 0.3313372
vt 0.4690307 0.4134159
vt 0.4690307 0.4134159
vt 0.3788167 0.3313372
vt 0.4269389 0.2933293
vt 0.4023702 0.5278726
vt 0.6446855 0.4660783
vt 0.3725442 0.5700249
vt 0.3725442 0.5700249
vt 0.6446855 0.4660783
vt 0.4182542 0.6055275
vt 0.4182542 0.6055275
vt 0.6446855 0.4660783
vt 0.5575403 0.6316329
vt 0.4054111 0.3406645
vt 0.6327831 0.6095229
vt 0.4025565 0.342164
vt 0.4025565 0.342164
vt 0.6327831 0.6095229
vt 0.4581154 0.6397541
vt 0.4581154 0.6397541
vt 0.6327831 0.6095229
vt 0.5950732 0.6278703
vt 0.5950732 0.6278703
vt 0.6327831 0.6095229
vt 0.6319541 0.6136394
vt 0.4915132 0.2603087
vt 0.5753568 0.2992293
vt 0.424713 0.3368879
vt 0.424713 0.3368879
vt 0.5753568 0.2992293
vt 0.4333884 0.6125404
vt 0.4333884 0.6125404
vt 0.5753568 0.2992293
vt 0.6486903 0.5644555
vt 0.6486903 0.5644555
vt 0.5753568 0.2992293
vt 0.6679876 0.4573983
vt 0.6679876 0.4573983
vt 0.5753568 0.2992293
vt 0.6627721 0.43174
vt 0.427223 0.3774989
vt 0.5573727 0.3424433
vt 0.3947379 0.3986914
vt 0.3947379 0.3986914
vt 0.5573727 0.3424433
vt 0.3669096 0.501702
vt 0.3669096 0.501702
vt 0.5573727 0.3424433
vt 0.4710284 0.6256816
vt 0.4710284 0.6256816
vt 0.5573727 0.3424433
vt 0.4929428 0.6296211
vt 0.4929428 0.6296211
vt 0.5573727 0.3424433
vt 0.58413 0.3515611
vt 0.3582714 0.5478404
vt 0.3040443 0.5016461
vt 0.4689795 0.5048313
vt 0.4689795 0.5048313
vt 0.3040443 0.5016461
vt 0.4553913 0.4124799
vt 0.4553913 0.4124799
vt 0.3040443 0.5016461
vt 0.3717199 0.4135277
vt 0.3717199 0.4135277
vt 0.3040443 0.5016461
vt 0.3025868 0.4946518
vt 0.546653 0.443228
vt 0.4408251 0.3930196
vt 0.5798924 0.3922373
vt 0.5798924 0.3922373
vt 0.4408251 0.3930196
vt 0.453971 0.3763068
vt 0.5725069 0.569317
vt 0.583627 0.557843
vt 0.5732613 0.5734615
vt 0.5732613 0.5734615
vt 0.583627 0.557843
vt 0.5765955 0.5712915
vt 0.5967589 0.4671866
vt 0.4595357 0.5064984
vt 0.5184894 0.359566
vt 0.5184894 0.359566
vt 0.4595357 0.5064984
vt 0.4363641 0.5025774

usemtl Material0
usemap Material0

usemtl Material1
usemap Material1
f 1/1/1 2/2/2 3/3/3
f 4/4/4 5/5/5 6/6/6
f 7/7/7 8/8/8 9/9/9
f 10/10/10 11/11/11 12/12/12
f 13/13/13 14/14/14 15/15/15
f 16/16/16 17/17/17 18/18/18
f 19/19/19 20/20/20 21/21/21
f 22/22/22 23/23/23 24/24/24
f 25/25/25 26/26/26 27/27/27
f 28/28/28 29/29/29 30/30/30
f 31/31/31 32/32/32 33/33/33
f 34/34/34 35/35/35 36/36/36
f 37/37/37 38/38/38 39/39/39
f 40/40/40 41/41/41 42/42/42
f 43/43/43 44/44/44 45/45/45
f 46/46/46 47/47/47 48/48/48
f 49/49/49 50/50/50 51/51/51
f 52/52/52 53/53/53 54/54/54
f 55/55/55 56/56/56 57/57/57
f 58/58/58 59/59/59 60/60/60
f 61/61/61 62/62/62 63/63/63
f 64/64/64 65/65/65 66/66/66
f 67/67/67 68/68/68 69/69/69
f 70/70/70 71/71/71 72/72/72
f 73/73/73 74/74/74 75/75/75
f 76/76/76 77/77/77 78/78/78
f 79/79/79 80/80/80 81/81/81
f 82/82/82 83/83/83 84/84/84
f 85/85/85 86/86/86 87/87/87
f 88/88/88 89/89/89 90/90/90
f 91/91/91 92/92/92 93/93/93
f 94/94/94 95/95/95 96/96/96
f 97/97/97 98/98/98 99/99/99
f 100/100/100 101/101/101 102/102/102
f 103/103/103 104/104/104 105/105/105
f 106/106/106 107/107/107 108/108/108
f 109/109/109 110/110/110 111/111/111
f 112/112/112 113/113/113 114/114/114
f 115/115/115 116/116/116 117/117/117
f 118/118/118 119/119/119 120/120/120
f 121/121/121 122/122/122 123/123/123
f 124/124/124 125/125/125 126/126/126
f 127/127/127 128/128/128 129/129/129
f 130/130/130 131/131/131 132/132/132
