g  Instance
v 3.622383 -56.61859 6.821998
v 3.404801 -56.80826 6.710506
v 3.757553 -56.56389 6.820687
v 3.757553 -56.56389 6.820687
v 3.404801 -56.80826 6.710506
v 3.886684 -56.79797 6.4993
v 3.886684 -56.79797 6.4993
v 3.404801 -56.80826 6.710506
v 3.270634 -57.18742 6.297938
v 3.270634 -57.18742 6.297938
v 3.404801 -56.80826 6.710506
v 3.269698 -56.91799 6.63588
v 3.266685 -57.41106 5.983058
v 3.946346 -57.41106 5.595919
v 3.270634 -57.18742 6.297938
v 3.270634 -57.18742 6.297938
v 3.946346 -57.41106 5.595919
v 3.886684 -56.79797 6.4993
v 4.380105 -57.62476 4.863656
v 3.946346 -57.41106 5.595919
v 3.81604 -57.83356 4.926482
v 3.81604 -57.83356 4.926482
v 3.946346 -57.41106 5.595919
v 3.70469 -57.76365 5.141978
v 4.952536 -56.82858 5.681206
v 3.946346 -57.41106 5.595919
v 4.380105 -57.62476 4.863656
v 4.952536 -56.82858 5.681206
v 5.011505 -56.82868 5.616693
v 5.042171 -56.76881 5.675257
v 4.098971 -57.99604 4.340313
v 4.380105 -57.62476 4.863656
v 3.81604 -57.83356 4.926482
v 3.946346 -57.41106 5.595919
v 4.952536 -56.82858 5.681206
v 3.886684 -56.79797 6.4993
v 4.952536 -56.82858 5.681206
v 4.859999 -56.60527 6.036542
v 3.886684 -56.79797 6.4993
v 3.886684 -56.79797 6.4993
v 4.859999 -56.60527 6.036542
v 4.335594 -56.51337 6.538063
v 4.952536 -56.82858 5.681206
v 4.973465 -56.90034 5.532183
v 5.011505 -56.82868 5.616693
v 4.973465 -56.90034 5.532183
v 4.952536 -56.82858 5.681206
v 4.608354 -57.58351 4.699733
v 4.608354 -57.58351 4.699733
v 4.952536 -56.82858 5.681206
v 4.380105 -57.62476 4.863656
v 3.474288 -57.60393 5.549577
v 3.946346 -57.41106 5.595919
v 3.264683 -57.4553 5.911904
v 3.264683 -57.4553 5.911904
v 3.946346 -57.41106 5.595919
v 3.266685 -57.41106 5.983058
v 3.70469 -57.76365 5.141978
v 3.946346 -57.41106 5.595919
v 3.474288 -57.60393 5.549577
v 4.323917 -58.07653 3.872342
v 4.328931 -58.06806 3.887949
v 4.290594 -58.08571 3.89146
v 4.290594 -58.08571 3.89146
v 4.328931 -58.06806 3.887949
v 4.276802 -58.07971 3.924929
v 4.328931 -58.06806 3.887949
v 4.432563 -57.89113 4.201705
v 4.276802 -58.07971 3.924929
v 4.276802 -58.07971 3.924929
v 4.432563 -57.89113 4.201705
v 4.17818 -58.03568 4.161322
v 4.380105 -57.62476 4.863656
v 4.098971 -57.99604 4.340313
v 4.608354 -57.58351 4.699733
v 4.608354 -57.58351 4.699733
v 4.098971 -57.99604 4.340313
v 4.432563 -57.89113 4.201705
v 4.432563 -57.89113 4.201705
v 4.098971 -57.99604 4.340313
v 4.17818 -58.03568 4.161322
v 3.886684 -56.79797 6.4993
v 4.335594 -56.51337 6.538063
v 4.027817 -56.44049 6.797391
v 4.027817 -56.44049 6.797391
v 4.335594 -56.51337 6.538063
v 4.049303 -56.43054 6.795331
v 3.886684 -56.79797 6.4993
v 4.027817 -56.44049 6.797391
v 3.757553 -56.56389 6.820687
v 4.952536 -56.82858 5.681206
v 5.042171 -56.76881 5.675257
v 5.062468 -56.62485 5.834856
v 5.062468 -56.62485 5.834856
v 5.042171 -56.76881 5.675257
v 5.111291 -56.62922 5.786045
v 4.952536 -56.82858 5.681206
v 5.062468 -56.62485 5.834856
v 4.859999 -56.60527 6.036542
v 4.432563 -57.89113 4.201705
v 4.328931 -58.06806 3.887949
v 4.608354 -57.58351 4.699733
v 4.608354 -57.58351 4.699733
v 4.328931 -58.06806 3.887949
v 4.973465 -56.90034 5.532183
v 4.973465 -56.90034 5.532183
v 4.328931 -58.06806 3.887949
v 5.011505 -56.82868 5.616693
v 5.011505 -56.82868 5.616693
v 4.328931 -58.06806 3.887949
v 5.042171 -56.76881 5.675257
v 5.042171 -56.76881 5.675257
v 4.328931 -58.06806 3.887949
v 5.111291 -56.62922 5.786045
v 5.111291 -56.62922 5.786045
v 4.328931 -58.06806 3.887949
v 5.42506 -55.71179 4.993788
v 5.42506 -55.71179 4.993788
v 4.328931 -58.06806 3.887949
v 4.582442 -57.35118 3.359047
v 4.582442 -57.35118 3.359047
v 4.328931 -58.06806 3.887949
v 4.323917 -58.07653 3.872342
v 3.52156 -54.71409 3.313027
v 3.638331 -54.65758 3.941107
v 4.779525 -54.7204 4.703285
v 2.860836 -56.31411 4.434482
v 3.264683 -57.4553 5.911904
v 3.080729 -56.3198 6.026717
v 3.080729 -56.3198 6.026717
v 3.264683 -57.4553 5.911904
v 3.269698 -56.91799 6.63588
v 3.269698 -56.91799 6.63588
v 3.264683 -57.4553 5.911904
v 3.270634 -57.18742 6.297938
v 3.270634 -57.18742 6.297938
v 3.264683 -57.4553 5.911904
v 3.266685 -57.41106 5.983058
v 3.404801 -56.80826 6.710506
v 3.622383 -56.61859 6.821998
v 3.269698 -56.91799 6.63588
v 3.269698 -56.91799 6.63588
v 3.622383 -56.61859 6.821998
v 3.080729 -56.3198 6.026717
v 3.080729 -56.3198 6.026717
v 3.622383 -56.61859 6.821998
v 3.098057 -56.28463 6.022126
v 3.638331 -54.65758 3.941107
v 3.098057 -56.28463 6.022126
v 4.779525 -54.7204 4.703285
v 4.779525 -54.7204 4.703285
v 3.098057 -56.28463 6.022126
v 5.023821 -54.78727 4.945182
v 5.023821 -54.78727 4.945182
v 3.098057 -56.28463 6.022126
v 4.049303 -56.43054 6.795331
v 4.049303 -56.43054 6.795331
v 3.098057 -56.28463 6.022126
v 4.027817 -56.44049 6.797391
v 4.027817 -56.44049 6.797391
v 3.098057 -56.28463 6.022126
v 3.757553 -56.56389 6.820687
v 3.757553 -56.56389 6.820687
v 3.098057 -56.28463 6.022126
v 3.622383 -56.61859 6.821998
v 4.582442 -57.35118 3.359047
v 3.193471 -55.19975 2.741863
v 5.42506 -55.71179 4.993788
v 5.42506 -55.71179 4.993788
v 3.193471 -55.19975 2.741863
v 5.023821 -54.78727 4.945182
v 5.023821 -54.78727 4.945182
v 3.193471 -55.19975 2.741863
v 4.779525 -54.7204 4.703285
v 4.779525 -54.7204 4.703285
v 3.193471 -55.19975 2.741863
v 3.52156 -54.71409 3.313027
v 4.049303 -56.43054 6.795331
v 4.335594 -56.51337 6.538063
v 5.023821 -54.78727 4.945182
v 5.023821 -54.78727 4.945182
v 4.335594 -56.51337 6.538063
v 5.42506 -55.71179 4.993788
v 5.42506 -55.71179 4.993788
v 4.335594 -56.51337 6.538063
v 5.111291 -56.62922 5.786045
v 5.111291 -56.62922 5.786045
v 4.335594 -56.51337 6.538063
v 5.062468 -56.62485 5.834856
v 5.062468 -56.62485 5.834856
v 4.335594 -56.51337 6.538063
v 4.859999 -56.60527 6.036542
v 4.582442 -57.35118 3.359047
v 4.323917 -58.07653 3.872342
v 3.193471 -55.19975 2.741863
v 3.193471 -55.19975 2.741863
v 4.323917 -58.07653 3.872342
v 2.902625 -55.91099 3.260868
v 2.902625 -55.91099 3.260868
v 4.323917 -58.07653 3.872342
v 4.290594 -58.08571 3.89146
v 3.193471 -55.19975 2.741863
v 2.902625 -55.91099 3.260868
v 3.52156 -54.71409 3.313027
v 3.52156 -54.71409 3.313027
v 2.902625 -55.91099 3.260868
v 3.638331 -54.65758 3.941107
v 3.638331 -54.65758 3.941107
v 2.902625 -55.91099 3.260868
v 3.098057 -56.28463 6.022126
v 3.098057 -56.28463 6.022126
v 2.902625 -55.91099 3.260868
v 3.080729 -56.3198 6.026717
v 3.080729 -56.3198 6.026717
v 2.902625 -55.91099 3.260868
v 2.860836 -56.31411 4.434482
v 4.098971 -57.99604 4.340313
v 3.81604 -57.83356 4.926482
v 4.17818 -58.03568 4.161322
v 4.17818 -58.03568 4.161322
v 3.81604 -57.83356 4.926482
v 4.276802 -58.07971 3.924929
v 4.276802 -58.07971 3.924929
v 3.81604 -57.83356 4.926482
v 4.290594 -58.08571 3.89146
v 4.290594 -58.08571 3.89146
v 3.81604 -57.83356 4.926482
v 2.902625 -55.91099 3.260868
v 2.902625 -55.91099 3.260868
v 3.81604 -57.83356 4.926482
v 2.860836 -56.31411 4.434482
v 2.860836 -56.31411 4.434482
v 3.81604 -57.83356 4.926482
v 3.264683 -57.4553 5.911904
v 3.264683 -57.4553 5.911904
v 3.81604 -57.83356 4.926482
v 3.474288 -57.60393 5.549577
v 3.474288 -57.60393 5.549577
v 3.81604 -57.83356 4.926482
v 3.70469 -57.76365 5.141978

vn 0.2944554 -0.7123114 0.6371093
vn 0.2944554 -0.7123114 0.6371093
vn 0.2944554 -0.7123114 0.6371093
vn 0.2944554 -0.7123114 0.6371093
vn 0.2944554 -0.7123114 0.6371093
vn 0.2944554 -0.7123114 0.6371093
vn 0.2786471 -0.7505595 0.5991796
vn 0.2786471 -0.7505595 0.5991796
vn 0.2786471 -0.7505595 0.5991796
vn 0.2786471 -0.7505595 0.5991796
vn 0.2786471 -0.7505595 0.5991796
vn 0.2786471 -0.7505595 0.5991796
vn 0.3118959 -0.7764654 0.5475604
vn 0.3118959 -0.7764654 0.5475604
vn 0.3118959 -0.7764654 0.5475604
vn 0.3118959 -0.7764654 0.5475604
vn 0.3118959 -0.7764654 0.5475604
vn 0.3118959 -0.7764654 0.5475604
vn 0.3537414 -0.8205268 0.449002
vn 0.3537414 -0.8205268 0.449002
vn 0.3537414 -0.8205268 0.449002
vn 0.3537414 -0.8205268 0.449002
vn 0.3537414 -0.8205268 0.449002
vn 0.3537414 -0.8205268 0.449002
vn 0.4115718 -0.7799792 0.4714246
vn 0.4115718 -0.7799792 0.4714246
vn 0.4115718 -0.7799792 0.4714246
vn 0.5114192 -0.7203383 0.4685756
vn 0.5114192 -0.7203383 0.4685756
vn 0.5114192 -0.7203383 0.4685756
vn 0.3567075 -0.8416395 0.4054659
vn 0.3567075 -0.8416395 0.4054659
vn 0.3567075 -0.8416395 0.4054659
vn 0.388934 -0.7501526 0.5347909
vn 0.388934 -0.7501526 0.5347909
vn 0.388934 -0.7501526 0.5347909
vn 0.388934 -0.7501526 0.5347909
vn 0.3968529 -0.7385085 0.544672
vn 0.388934 -0.7501526 0.5347909
vn 0.388934 -0.7501526 0.5347909
vn 0.3968529 -0.7385085 0.544672
vn 0.3996107 -0.7344533 0.5481131
vn 0.4747134 -0.7650757 0.4350934
vn 0.4747134 -0.7650757 0.4350934
vn 0.4747134 -0.7650757 0.4350934
vn 0.4747134 -0.7650757 0.4350934
vn 0.4747134 -0.7650757 0.4350934
vn 0.4604945 -0.7727004 0.4367686
vn 0.4604945 -0.7727004 0.4367686
vn 0.4747134 -0.7650757 0.4350934
vn 0.4544407 -0.7759467 0.4374819
vn 0.2849485 -0.8176507 0.5002515
vn 0.2849485 -0.8176507 0.5002515
vn 0.2849485 -0.8176507 0.5002515
vn 0.2849485 -0.8176507 0.5002515
vn 0.2849485 -0.8176507 0.5002515
vn 0.2849485 -0.8176507 0.5002515
vn 0.2878593 -0.8224487 0.4905734
vn 0.2849485 -0.8176507 0.5002515
vn 0.2849485 -0.8176507 0.5002515
vn 0.424806 -0.8415557 0.3336435
vn 0.4250233 -0.8412954 0.3340321
vn 0.4247547 -0.8416171 0.3335518
vn 0.4247547 -0.8416171 0.3335518
vn 0.4250233 -0.8412954 0.3340321
vn 0.4250233 -0.8412954 0.3340321
vn 0.4250233 -0.8412954 0.3340321
vn 0.4250233 -0.8412954 0.3340321
vn 0.4250233 -0.8412954 0.3340321
vn 0.4250233 -0.8412954 0.3340321
vn 0.4250233 -0.8412954 0.3340321
vn 0.4250233 -0.8412954 0.3340321
vn 0.4145922 -0.8323707 0.3677938
vn 0.4220421 -0.8387447 0.3436812
vn 0.4177071 -0.8350357 0.3577119
vn 0.4177071 -0.8350357 0.3577119
vn 0.4220421 -0.8387447 0.3436812
vn 0.4250233 -0.8412954 0.3340321
vn 0.4250233 -0.8412954 0.3340321
vn 0.4220421 -0.8387447 0.3436812
vn 0.4250233 -0.8412954 0.3340321
vn 0.3692165 -0.676824 0.6368582
vn 0.3692165 -0.676824 0.6368582
vn 0.3692165 -0.676824 0.6368582
vn 0.3692165 -0.676824 0.6368582
vn 0.3692165 -0.676824 0.6368582
vn 0.3692165 -0.676824 0.6368582
vn 0.3692165 -0.676824 0.6368582
vn 0.3692165 -0.676824 0.6368582
vn 0.3692165 -0.676824 0.6368582
vn 0.4866108 -0.6780418 0.5508803
vn 0.4866108 -0.6780418 0.5508803
vn 0.4866108 -0.6780418 0.5508803
vn 0.4866108 -0.6780418 0.5508803
vn 0.4866108 -0.6780418 0.5508803
vn 0.4866108 -0.6780418 0.5508803
vn 0.4866108 -0.6780418 0.5508803
vn 0.4866108 -0.6780418 0.5508803
vn 0.4866108 -0.6780418 0.5508803
vn 0.9180595 -0.3872561 -0.08485051
vn 0.9180595 -0.3872561 -0.08485051
vn 0.9180595 -0.3872561 -0.08485051
vn 0.9180595 -0.3872561 -0.08485051
vn 0.9180595 -0.3872561 -0.08485051
vn 0.9180595 -0.3872561 -0.08485051
vn 0.9180595 -0.3872561 -0.08485051
vn 0.9180595 -0.3872561 -0.08485051
vn 0.9180595 -0.3872561 -0.08485051
vn 0.9180595 -0.3872561 -0.08485051
vn 0.9180595 -0.3872561 -0.08485051
vn 0.9180595 -0.3872561 -0.08485051
vn 0.9180595 -0.3872561 -0.08485051
vn 0.9180595 -0.3872561 -0.08485051
vn 0.9180595 -0.3872561 -0.08485051
vn 0.9180595 -0.3872561 -0.08485051
vn 0.9180595 -0.3872561 -0.08485051
vn 0.9180595 -0.3872561 -0.08485051
vn 0.9180595 -0.3872561 -0.08485051
vn 0.9180595 -0.3872561 -0.08485051
vn 0.9180595 -0.3872561 -0.08485051
vn 0.9180595 -0.3872561 -0.08485051
vn 0.9180595 -0.3872561 -0.08485051
vn 0.9180595 -0.3872561 -0.08485051
vn 0.1295086 0.9851511 -0.1127164
vn 0.1295086 0.9851511 -0.1127164
vn 0.1295086 0.9851511 -0.1127164
vn -0.9759738 -0.1716775 0.1341716
vn -0.9759738 -0.1716775 0.1341716
vn -0.9759738 -0.1716775 0.1341716
vn -0.9759738 -0.1716775 0.1341716
vn -0.9759738 -0.1716775 0.1341716
vn -0.9759738 -0.1716775 0.1341716
vn -0.9759738 -0.1716775 0.1341716
vn -0.9759738 -0.1716775 0.1341716
vn -0.9759738 -0.1716775 0.1341716
vn -0.9759738 -0.1716775 0.1341716
vn -0.9759738 -0.1716775 0.1341716
vn -0.9759738 -0.1716775 0.1341716
vn -0.673583 0.4120574 0.6135916
vn -0.673583 0.4120574 0.6135916
vn -0.673583 0.4120574 0.6135916
vn -0.673583 0.4120574 0.6135916
vn -0.673583 0.4120574 0.6135916
vn -0.673583 0.4120574 0.6135916
vn -0.673583 0.4120574 0.6135916
vn -0.673583 0.4120574 0.6135916
vn -0.673583 0.4120574 0.6135916
vn -0.3129047 0.7859504 0.5332659
vn -0.3129047 0.7859504 0.5332659
vn -0.3129047 0.7859504 0.5332659
vn -0.3129047 0.7859504 0.5332659
vn -0.3129047 0.7859504 0.5332659
vn -0.3129047 0.7859504 0.5332659
vn -0.3129047 0.7859504 0.5332659
vn -0.3129047 0.7859504 0.5332659
vn -0.3129047 0.7859504 0.5332659
vn -0.3129047 0.7859504 0.5332659
vn -0.3129047 0.7859504 0.5332659
vn -0.3129047 0.7859504 0.5332659
vn -0.3129047 0.7859504 0.5332659
vn -0.3129047 0.7859504 0.5332659
vn -0.3129047 0.7859504 0.5332659
vn -0.3129047 0.7859504 0.5332659
vn -0.3129047 0.7859504 0.5332659
vn -0.3129047 0.7859504 0.5332659
vn 0.7133818 0.275737 -0.644248
vn 0.7133818 0.275737 -0.644248
vn 0.7133818 0.275737 -0.644248
vn 0.7133818 0.275737 -0.644248
vn 0.7133818 0.275737 -0.644248
vn 0.7133818 0.275737 -0.644248
vn 0.7133818 0.275737 -0.644248
vn 0.7133818 0.275737 -0.644248
vn 0.7133818 0.275737 -0.644248
vn 0.7133818 0.275737 -0.644248
vn 0.7133818 0.275737 -0.644248
vn 0.7133818 0.275737 -0.644248
vn 0.6819657 0.3302843 0.6525605
vn 0.6819657 0.3302843 0.6525605
vn 0.6819657 0.3302843 0.6525605
vn 0.6819657 0.3302843 0.6525605
vn 0.6819657 0.3302843 0.6525605
vn 0.6819657 0.3302843 0.6525605
vn 0.6819657 0.3302843 0.6525605
vn 0.6819657 0.3302843 0.6525605
vn 0.6819657 0.3302843 0.6525605
vn 0.6819657 0.3302843 0.6525605
vn 0.6819657 0.3302843 0.6525605
vn 0.6819657 0.3302843 0.6525605
vn 0.6819657 0.3302843 0.6525605
vn 0.6819657 0.3302843 0.6525605
vn 0.6819657 0.3302843 0.6525605
vn -0.3443094 -0.4574709 -0.8198606
vn -0.3443094 -0.4574709 -0.8198606
vn -0.3443094 -0.4574709 -0.8198606
vn -0.3443094 -0.4574709 -0.8198606
vn -0.3443094 -0.4574709 -0.8198606
vn -0.3443094 -0.4574709 -0.8198606
vn -0.3443094 -0.4574709 -0.8198606
vn -0.3443094 -0.4574709 -0.8198606
vn -0.3443094 -0.4574709 -0.8198606
vn -0.8836305 0.451564 0.1236413
vn -0.8836305 0.451564 0.1236413
vn -0.8836305 0.451564 0.1236413
vn -0.8836305 0.451564 0.1236413
vn -0.8836305 0.451564 0.1236413
vn -0.8836305 0.451564 0.1236413
vn -0.8836305 0.451564 0.1236413
vn -0.8836305 0.451564 0.1236413
vn -0.8836305 0.451564 0.1236413
vn -0.8836305 0.451564 0.1236413
vn -0.8836305 0.451564 0.1236413
vn -0.8836305 0.451564 0.1236413
vn -0.8836305 0.451564 0.1236413
vn -0.8836305 0.451564 0.1236413
vn -0.8836305 0.451564 0.1236413
vn -0.7908298 -0.5696405 -0.2238259
vn -0.7908298 -0.5696405 -0.2238259
vn -0.7908298 -0.5696405 -0.2238259
vn -0.7908298 -0.5696405 -0.2238259
vn -0.7908298 -0.5696405 -0.2238259
vn -0.7908298 -0.5696405 -0.2238259
vn -0.7908298 -0.5696405 -0.2238259
vn -0.7908298 -0.5696405 -0.2238259
vn -0.7908298 -0.5696405 -0.2238259
vn -0.7908298 -0.5696405 -0.2238259
vn -0.7908298 -0.5696405 -0.2238259
vn -0.7908298 -0.5696405 -0.2238259
vn -0.7908298 -0.5696405 -0.2238259
vn -0.7908298 -0.5696405 -0.2238259
vn -0.7908298 -0.5696405 -0.2238259
vn -0.7908298 -0.5696405 -0.2238259
vn -0.7908298 -0.5696405 -0.2238259
vn -0.7908298 -0.5696405 -0.2238259
vn -0.7908298 -0.5696405 -0.2238259
vn -0.7908298 -0.5696405 -0.2238259
vn -0.7908298 -0.5696405 -0.2238259
vn -0.7908298 -0.5696405 -0.2238259
vn -0.7908298 -0.5696405 -0.2238259
vn -0.7908298 -0.5696405 -0.2238259

vt 0.9080109 0.1440083
vt 0.9079998 0.1439324
vt 0.9079971 0.1440485
vt 0.9079971 0.1440485
vt 0.9079998 0.1439324
vt 0.9078901 0.1440555
vt 0.9078901 0.1440555
vt 0.9079998 0.1439324
vt 0.907892 0.143852
vt 0.907892 0.143852
vt 0.9079998 0.1439324
vt 0.9079913 0.1438848
vt 0.9077998 0.1438199
vt 0.9076185 0.1439848
vt 0.907892 0.143852
vt 0.907892 0.143852
vt 0.9076185 0.1439848
vt 0.9078901 0.1440555
vt 0.9073594 0.1440427
vt 0.9076185 0.1439848
vt 0.907434 0.1438805
vt 0.907434 0.1438805
vt 0.9076185 0.1439848
vt 0.9075087 0.1438683
vt 0.9075431 0.1442935
vt 0.9076185 0.1439848
vt 0.9073594 0.1440427
vt 0.9075431 0.1442935
vt 0.9075182 0.1443048
vt 0.9075323 0.1443197
vt 0.9072328 0.1439077
vt 0.9073594 0.1440427
vt 0.907434 0.1438805
vt 0.9076185 0.1439848
vt 0.9075431 0.1442935
vt 0.9078901 0.1440555
vt 0.9075431 0.1442935
vt 0.9076568 0.1443007
vt 0.9078901 0.1440555
vt 0.9078901 0.1440555
vt 0.9076568 0.1443007
vt 0.9078566 0.1441933
vt 0.9075431 0.1442935
vt 0.9074971 0.1442852
vt 0.9075182 0.1443048
vt 0.9074971 0.1442852
vt 0.9075431 0.1442935
vt 0.9072883 0.1440948
vt 0.9072883 0.1440948
vt 0.9075431 0.1442935
vt 0.9073594 0.1440427
vt 0.9076515 0.1438395
vt 0.9076185 0.1439848
vt 0.907779 0.1438124
vt 0.907779 0.1438124
vt 0.9076185 0.1439848
vt 0.9077998 0.1438199
vt 0.9075087 0.1438683
vt 0.9076185 0.1439848
vt 0.9076515 0.1438395
vt 0.907072 0.1439292
vt 0.9070761 0.1439322
vt 0.907081 0.1439211
vt 0.907081 0.1439211
vt 0.9070761 0.1439322
vt 0.9070923 0.1439203
vt 0.9070761 0.1439322
vt 0.9071586 0.1439938
vt 0.9070923 0.1439203
vt 0.9070923 0.1439203
vt 0.9071586 0.1439938
vt 0.907172 0.1439139
vt 0.9073594 0.1440427
vt 0.9072328 0.1439077
vt 0.9072883 0.1440948
vt 0.9072883 0.1440948
vt 0.9072328 0.1439077
vt 0.9071586 0.1439938
vt 0.9071586 0.1439938
vt 0.9072328 0.1439077
vt 0.907172 0.1439139
vt 0.9078901 0.1440555
vt 0.9078566 0.1441933
vt 0.9079633 0.1441269
vt 0.9079633 0.1441269
vt 0.9078566 0.1441933
vt 0.9079605 0.1441331
vt 0.9078901 0.1440555
vt 0.9079633 0.1441269
vt 0.9079971 0.1440485
vt 0.9075431 0.1442935
vt 0.9075323 0.1443197
vt 0.9075772 0.1443414
vt 0.9075772 0.1443414
vt 0.9075323 0.1443197
vt 0.9075579 0.1443512
vt 0.9075431 0.1442935
vt 0.9075772 0.1443414
vt 0.9076568 0.1443007
vt 0.6623437 0.4396982
vt 0.680244 0.4674288
vt 0.6313581 0.3956739
vt 0.6313581 0.3956739
vt 0.680244 0.4674288
vt 0.5634171 0.3221029
vt 0.5634171 0.3221029
vt 0.680244 0.4674288
vt 0.5563017 0.3146336
vt 0.5563017 0.3146336
vt 0.680244 0.4674288
vt 0.550397 0.3094507
vt 0.550397 0.3094507
vt 0.680244 0.4674288
vt 0.536697 0.2996624
vt 0.536697 0.2996624
vt 0.680244 0.4674288
vt 0.4515169 0.3696896
vt 0.4515169 0.3696896
vt 0.680244 0.4674288
vt 0.6133926 0.5141819
vt 0.6133926 0.5141819
vt 0.680244 0.4674288
vt 0.6811008 0.4688072
vt 0.4194137 0.5145637
vt 0.4289879 0.4587394
vt 0.5296375 0.390994
vt 0.4800112 0.4439498
vt 0.3742858 0.3119281
vt 0.4761461 0.3016647
vt 0.4761461 0.3016647
vt 0.3742858 0.3119281
vt 0.4210761 0.2472281
vt 0.4210761 0.2472281
vt 0.3742858 0.3119281
vt 0.3975599 0.2774314
vt 0.3975599 0.2774314
vt 0.3742858 0.3119281
vt 0.3781136 0.3055717
vt 0.3558872 0.2435167
vt 0.3864909 0.2278237
vt 0.3376516 0.2540175
vt 0.3376516 0.2540175
vt 0.3864909 0.2278237
vt 0.3834036 0.3397518
vt 0.3834036 0.3397518
vt 0.3864909 0.2278237
vt 0.3877436 0.3403991
vt 0.481818 0.5433048
vt 0.3673194 0.2881231
vt 0.5893921 0.4498451
vt 0.5893921 0.4498451
vt 0.3673194 0.2881231
vt 0.6103657 0.420182
vt 0.6103657 0.420182
vt 0.3673194 0.2881231
vt 0.4533982 0.193313
vt 0.4533982 0.193313
vt 0.3673194 0.2881231
vt 0.4509441 0.1930615
vt 0.4509441 0.1930615
vt 0.3673194 0.2881231
vt 0.4201634 0.1902023
vt 0.4201634 0.1902023
vt 0.3673194 0.2881231
vt 0.4050385 0.1900393
vt 0.6744231 0.5412
vt 0.3867191 0.6338028
vt 0.5338285 0.295965
vt 0.5338285 0.295965
vt 0.3867191 0.6338028
vt 0.4182868 0.3032527
vt 0.4182868 0.3032527
vt 0.3867191 0.6338028
vt 0.4010245 0.3395422
vt 0.4010245 0.3395422
vt 0.3867191 0.6338028
vt 0.3483154 0.5481105
vt 0.549922 0.1826166
vt 0.5730098 0.2219376
vt 0.427847 0.4653892
vt 0.427847 0.4653892
vt 0.5730098 0.2219376
vt 0.5444643 0.4579571
vt 0.5444643 0.4579571
vt 0.5730098 0.2219376
vt 0.624252 0.3368739
vt 0.624252 0.3368739
vt 0.5730098 0.2219376
vt 0.6213276 0.3294093
vt 0.6213276 0.3294093
vt 0.5730098 0.2219376
vt 0.6090619 0.2985867
vt 0.3248271 0.3898251
vt 0.2896365 0.252425
vt 0.6931989 0.5550396
vt 0.6931989 0.5550396
vt 0.2896365 0.252425
vt 0.6632657 0.4161121
vt 0.6632657 0.4161121
vt 0.2896365 0.252425
vt 0.2928683 0.2473119
vt 0.5055158 0.5885864
vt 0.437803 0.5423362
vt 0.5569535 0.5376889
vt 0.5569535 0.5376889
vt 0.437803 0.5423362
vt 0.5660993 0.4817155
vt 0.5660993 0.4817155
vt 0.437803 0.5423362
vt 0.4162425 0.2962677
vt 0.4162425 0.2962677
vt 0.437803 0.5423362
vt 0.4127779 0.2958579
vt 0.4127779 0.2958579
vt 0.437803 0.5423362
vt 0.4043726 0.4377471
vt 0.352255 0.4057696
vt 0.379017 0.351617
vt 0.3451908 0.4223008
vt 0.3451908 0.4223008
vt 0.379017 0.351617
vt 0.3367855 0.4441454
vt 0.3367855 0.4441454
vt 0.379017 0.351617
vt 0.3356213 0.4472374
vt 0.3356213 0.4472374
vt 0.379017 0.351617
vt 0.5675429 0.5054832
vt 0.5675429 0.5054832
vt 0.379017 0.351617
vt 0.540292 0.3970663
vt 0.540292 0.3970663
vt 0.379017 0.351617
vt 0.4356655 0.2605835
vt 0.4356655 0.2605835
vt 0.379017 0.351617
vt 0.4137791 0.2940557
vt 0.4137791 0.2940557
vt 0.379017 0.351617
vt 0.3899834 0.3317097

usemtl Material0
usemap Material0
f 1/1/1 2/2/2 3/3/3
f 4/4/4 5/5/5 6/6/6
f 7/7/7 8/8/8 9/9/9
f 10/10/10 11/11/11 12/12/12
f 13/13/13 14/14/14 15/15/15
f 16/16/16 17/17/17 18/18/18
f 19/19/19 20/20/20 21/21/21
f 22/22/22 23/23/23 24/24/24
f 25/25/25 26/26/26 27/27/27
f 28/28/28 29/29/29 30/30/30
f 31/31/31 32/32/32 33/33/33
f 34/34/34 35/35/35 36/36/36
f 37/37/37 38/38/38 39/39/39
f 40/40/40 41/41/41 42/42/42
f 43/43/43 44/44/44 45/45/45
f 46/46/46 47/47/47 48/48/48
f 49/49/49 50/50/50 51/51/51
f 52/52/52 53/53/53 54/54/54
f 55/55/55 56/56/56 57/57/57
f 58/58/58 59/59/59 60/60/60
f 61/61/61 62/62/62 63/63/63
f 64/64/64 65/65/65 66/66/66
f 67/67/67 68/68/68 69/69/69
f 70/70/70 71/71/71 72/72/72
f 73/73/73 74/74/74 75/75/75
f 76/76/76 77/77/77 78/78/78
f 79/79/79 80/80/80 81/81/81
f 82/82/82 83/83/83 84/84/84
f 85/85/85 86/86/86 87/87/87
f 88/88/88 89/89/89 90/90/90
f 91/91/91 92/92/92 93/93/93
f 94/94/94 95/95/95 96/96/96
f 97/97/97 98/98/98 99/99/99

usemtl Material1
usemap Material1
f 100/100/100 101/101/101 102/102/102
f 103/103/103 104/104/104 105/105/105
f 106/106/106 107/107/107 108/108/108
f 109/109/109 110/110/110 111/111/111
f 112/112/112 113/113/113 114/114/114
f 115/115/115 116/116/116 117/117/117
f 118/118/118 119/119/119 120/120/120
f 121/121/121 122/122/122 123/123/123
f 124/124/124 125/125/125 126/126/126
f 127/127/127 128/128/128 129/129/129
f 130/130/130 131/131/131 132/132/132
f 133/133/133 134/134/134 135/135/135
f 136/136/136 137/137/137 138/138/138
f 139/139/139 140/140/140 141/141/141
f 142/142/142 143/143/143 144/144/144
f 145/145/145 146/146/146 147/147/147
f 148/148/148 149/149/149 150/150/150
f 151/151/151 152/152/152 153/153/153
f 154/154/154 155/155/155 156/156/156
f 157/157/157 158/158/158 159/159/159
f 160/160/160 161/161/161 162/162/162
f 163/163/163 164/164/164 165/165/165
f 166/166/166 167/167/167 168/168/168
f 169/169/169 170/170/170 171/171/171
f 172/172/172 173/173/173 174/174/174
f 175/175/175 176/176/176 177/177/177
f 178/178/178 179/179/179 180/180/180
f 181/181/181 182/182/182 183/183/183
f 184/184/184 185/185/185 186/186/186
f 187/187/187 188/188/188 189/189/189
f 190/190/190 191/191/191 192/192/192
f 193/193/193 194/194/194 195/195/195
f 196/196/196 197/197/197 198/198/198
f 199/199/199 200/200/200 201/201/201
f 202/202/202 203/203/203 204/204/204
f 205/205/205 206/206/206 207/207/207
f 208/208/208 209/209/209 210/210/210
f 211/211/211 212/212/212 213/213/213
f 214/214/214 215/215/215 216/216/216
f 217/217/217 218/218/218 219/219/219
f 220/220/220 221/221/221 222/222/222
f 223/223/223 224/224/224 225/225/225
f 226/226/226 227/227/227 228/228/228
f 229/229/229 230/230/230 231/231/231
f 232/232/232 233/233/233 234/234/234
f 235/235/235 236/236/236 237/237/237
f 238/238/238 239/239/239 240/240/240
