g  Instance
v -1.534685 -46.86646 7.825792
v -1.557157 -48.35724 8.283863
v -0.4521887 -46.35122 7.733778
v -0.4521887 -46.35122 7.733778
v -1.557157 -48.35724 8.283863
v -0.3114112 -46.41216 7.761241
v -0.3114112 -46.41216 7.761241
v -1.557157 -48.35724 8.283863
v -1.10345 -48.15643 8.249963
v -1.10345 -48.15643 8.249963
v -1.557157 -48.35724 8.283863
v -1.437018 -48.36738 8.294399
v -1.10345 -48.15643 8.249963
v -1.437018 -48.36738 8.294399
v -0.4503121 -48.28948 6.687535
v -0.4503121 -48.28948 6.687535
v -1.437018 -48.36738 8.294399
v -1.302244 -48.9717 6.413437
v -0.7943611 -46.52647 5.82729
v 0.2669569 -46.9527 6.065742
v -1.856085 -47.12101 5.542686
v -1.856085 -47.12101 5.542686
v 0.2669569 -46.9527 6.065742
v -1.878031 -47.4609 5.522024
v -1.878031 -47.4609 5.522024
v 0.2669569 -46.9527 6.065742
v -1.560707 -48.49084 5.552602
v -1.560707 -48.49084 5.552602
v 0.2669569 -46.9527 6.065742
v 0.2640535 -46.96311 6.064568
v 0.2669569 -46.9527 6.065742
v -0.7943611 -46.52647 5.82729
v 0.2705367 -46.86166 6.124908
v 0.2705367 -46.86166 6.124908
v -0.7943611 -46.52647 5.82729
v -0.6848297 -46.44921 5.928413
v -0.7990845 -46.28357 6.935179
v -1.633283 -46.68337 7.015876
v -0.4521887 -46.35122 7.733778
v -0.4521887 -46.35122 7.733778
v -1.633283 -46.68337 7.015876
v -1.534685 -46.86646 7.825792
v -1.856085 -47.12101 5.542686
v -1.878031 -47.4609 5.522024
v -1.633283 -46.68337 7.015876
v -1.633283 -46.68337 7.015876
v -1.878031 -47.4609 5.522024
v -1.534685 -46.86646 7.825792
v -1.534685 -46.86646 7.825792
v -1.878031 -47.4609 5.522024
v -1.557157 -48.35724 8.283863
v -1.557157 -48.35724 8.283863
v -1.878031 -47.4609 5.522024
v -1.730365 -48.69679 7.138303
v -1.302244 -48.9717 6.413437
v -1.496587 -49.01084 6.219208
v -0.4503121 -48.28948 6.687535
v -0.4503121 -48.28948 6.687535
v -1.496587 -49.01084 6.219208
v 0.2640535 -46.96311 6.064568
v 0.2640535 -46.96311 6.064568
v -1.496587 -49.01084 6.219208
v -1.560707 -48.49084 5.552602
v -0.7990845 -46.28357 6.935179
v -0.4521887 -46.35122 7.733778
v -0.6848297 -46.44921 5.928413
v -0.6848297 -46.44921 5.928413
v -0.4521887 -46.35122 7.733778
v 0.2705367 -46.86166 6.124908
v 0.2705367 -46.86166 6.124908
v -0.4521887 -46.35122 7.733778
v -0.3114112 -46.41216 7.761241
v 0.2705367 -46.86166 6.124908
v -0.3114112 -46.41216 7.761241
v 0.2669569 -46.9527 6.065742
v 0.2669569 -46.9527 6.065742
v -0.3114112 -46.41216 7.761241
v 0.2640535 -46.96311 6.064568
v 0.2640535 -46.96311 6.064568
v -0.3114112 -46.41216 7.761241
v -0.4503121 -48.28948 6.687535
v -0.4503121 -48.28948 6.687535
v -0.3114112 -46.41216 7.761241
v -1.10345 -48.15643 8.249963
v -0.7943611 -46.52647 5.82729
v -1.856085 -47.12101 5.542686
v -0.6848297 -46.44921 5.928413
v -0.6848297 -46.44921 5.928413
v -1.856085 -47.12101 5.542686
v -0.7990845 -46.28357 6.935179
v -0.7990845 -46.28357 6.935179
v -1.856085 -47.12101 5.542686
v -1.633283 -46.68337 7.015876
v -1.557157 -48.35724 8.283863
v -1.730365 -48.69679 7.138303
v -1.437018 -48.36738 8.294399
v -1.437018 -48.36738 8.294399
v -1.730365 -48.69679 7.138303
v -1.302244 -48.9717 6.413437
v -1.302244 -48.9717 6.413437
v -1.730365 -48.69679 7.138303
v -1.496587 -49.01084 6.219208
v -1.878031 -47.4609 5.522024
v -1.560707 -48.49084 5.552602
v -1.730365 -48.69679 7.138303
v -1.730365 -48.69679 7.138303
v -1.560707 -48.49084 5.552602
v -1.496587 -49.01084 6.219208

vn -0.05884974 0.2940165 0.953987
vn -0.05884974 0.2940165 0.953987
vn -0.05884974 0.2940165 0.953987
vn -0.05884974 0.2940165 0.953987
vn -0.05884974 0.2940165 0.953987
vn -0.05884974 0.2940165 0.953987
vn -0.05884974 0.2940165 0.953987
vn -0.05884974 0.2940165 0.953987
vn -0.05884974 0.2940165 0.953987
vn -0.05884974 0.2940165 0.953987
vn -0.05884974 0.2940165 0.953987
vn -0.05884974 0.2940165 0.953987
vn 0.5386463 -0.7901458 0.2924547
vn 0.5386463 -0.7901458 0.2924547
vn 0.5386463 -0.7901458 0.2924547
vn 0.5386463 -0.7901458 0.2924547
vn 0.5386463 -0.7901458 0.2924547
vn 0.5386463 -0.7901458 0.2924547
vn 0.2357135 0.04379932 -0.9708351
vn 0.2357135 0.04379932 -0.9708351
vn 0.2357135 0.04379932 -0.9708351
vn 0.2357135 0.04379932 -0.9708351
vn 0.2357135 0.04379932 -0.9708351
vn 0.2357135 0.04379932 -0.9708351
vn 0.2357135 0.04379932 -0.9708351
vn 0.2357135 0.04379932 -0.9708351
vn 0.2357135 0.04379932 -0.9708351
vn 0.2357135 0.04379932 -0.9708351
vn 0.2357135 0.04379932 -0.9708351
vn 0.2357135 0.04379932 -0.9708351
vn 0.3748585 0.4947888 -0.784006
vn 0.3748585 0.4947888 -0.784006
vn 0.3748585 0.4947888 -0.784006
vn 0.3748585 0.4947888 -0.784006
vn 0.3748585 0.4947888 -0.784006
vn 0.3748585 0.4947888 -0.784006
vn -0.3990534 0.8827195 0.2481185
vn -0.3990534 0.8827195 0.2481185
vn -0.3990534 0.8827195 0.2481185
vn -0.3990534 0.8827195 0.2481185
vn -0.3990534 0.8827195 0.2481185
vn -0.3990534 0.8827195 0.2481185
vn -0.9895339 0.05579979 0.1330759
vn -0.9895339 0.05579979 0.1330759
vn -0.9895339 0.05579979 0.1330759
vn -0.9895339 0.05579979 0.1330759
vn -0.9895339 0.05579979 0.1330759
vn -0.9895339 0.05579979 0.1330759
vn -0.9895339 0.05579979 0.1330759
vn -0.9895339 0.05579979 0.1330759
vn -0.9895339 0.05579979 0.1330759
vn -0.9895339 0.05579979 0.1330759
vn -0.9895339 0.05579979 0.1330759
vn -0.9895339 0.05579979 0.1330759
vn 0.630821 -0.5812108 -0.5140612
vn 0.630821 -0.5812108 -0.5140612
vn 0.630821 -0.5812108 -0.5140612
vn 0.630821 -0.5812108 -0.5140612
vn 0.630821 -0.5812108 -0.5140612
vn 0.630821 -0.5812108 -0.5140612
vn 0.630821 -0.5812108 -0.5140612
vn 0.630821 -0.5812108 -0.5140612
vn 0.630821 -0.5812108 -0.5140612
vn 0.41193 0.9054635 -0.1022236
vn 0.41193 0.9054635 -0.1022236
vn 0.41193 0.9054635 -0.1022236
vn 0.41193 0.9054635 -0.1022236
vn 0.41193 0.9054635 -0.1022236
vn 0.41193 0.9054635 -0.1022236
vn 0.41193 0.9054635 -0.1022236
vn 0.41193 0.9054635 -0.1022236
vn 0.41193 0.9054635 -0.1022236
vn 0.8746178 -0.2878464 0.3901132
vn 0.8746178 -0.2878464 0.3901132
vn 0.8746178 -0.2878464 0.3901132
vn 0.8746178 -0.2878464 0.3901132
vn 0.8746178 -0.2878464 0.3901132
vn 0.8746178 -0.2878464 0.3901132
vn 0.8746178 -0.2878464 0.3901132
vn 0.8746178 -0.2878464 0.3901132
vn 0.8746178 -0.2878464 0.3901132
vn 0.8746178 -0.2878464 0.3901132
vn 0.8746178 -0.2878464 0.3901132
vn 0.8746178 -0.2878464 0.3901132
vn -0.4391716 0.8771724 -0.1941576
vn -0.4391716 0.8771724 -0.1941576
vn -0.4391716 0.8771724 -0.1941576
vn -0.4391716 0.8771724 -0.1941576
vn -0.4391716 0.8771724 -0.1941576
vn -0.4391716 0.8771724 -0.1941576
vn -0.4391716 0.8771724 -0.1941576
vn -0.4391716 0.8771724 -0.1941576
vn -0.4391716 0.8771724 -0.1941576
vn -0.1060191 -0.9488899 0.2972677
vn -0.1060191 -0.9488899 0.2972677
vn -0.1060191 -0.9488899 0.2972677
vn -0.1060191 -0.9488899 0.2972677
vn -0.1060191 -0.9488899 0.2972677
vn -0.1060191 -0.9488899 0.2972677
vn -0.1060191 -0.9488899 0.2972677
vn -0.1060191 -0.9488899 0.2972677
vn -0.1060191 -0.9488899 0.2972677
vn -0.9451542 -0.2953456 -0.1394798
vn -0.9451542 -0.2953456 -0.1394798
vn -0.9451542 -0.2953456 -0.1394798
vn -0.9451542 -0.2953456 -0.1394798
vn -0.9451542 -0.2953456 -0.1394798
vn -0.9451542 -0.2953456 -0.1394798

vt 0.5118862 0.4250017
vt 0.3747934 0.4269808
vt 0.5575497 0.3296794
vt 0.5575497 0.3296794
vt 0.3747934 0.4269808
vt 0.5517288 0.3172833
vt 0.5517288 0.3172833
vt 0.3747934 0.4269808
vt 0.39254 0.3870265
vt 0.39254 0.3870265
vt 0.3747934 0.4269808
vt 0.3736664 0.4164008
vt 0.490526 0.2728352
vt 0.5267224 0.2685744
vt 0.4478754 0.4227665
vt 0.4478754 0.4227665
vt 0.5267224 0.2685744
vt 0.5477333 0.4490721
vt 0.4082609 0.3756595
vt 0.445738 0.2770495
vt 0.4630515 0.4743114
vt 0.4630515 0.4743114
vt 0.445738 0.2770495
vt 0.4937949 0.476351
vt 0.4937949 0.476351
vt 0.445738 0.2770495
vt 0.5865794 0.4468649
vt 0.5865794 0.4468649
vt 0.445738 0.2770495
vt 0.4466833 0.2773196
vt 0.6634985 0.2623716
vt 0.5075275 0.3166732
vt 0.6561317 0.2488952
vt 0.6561317 0.2488952
vt 0.5075275 0.3166732
vt 0.5132738 0.2936459
vt 0.6167641 0.3849868
vt 0.5329903 0.3774383
vt 0.6428694 0.3103076
vt 0.6428694 0.3103076
vt 0.5329903 0.3774383
vt 0.5342941 0.301702
vt 0.537172 0.4917833
vt 0.5070153 0.4936273
vt 0.5769773 0.360176
vt 0.5769773 0.360176
vt 0.5070153 0.4936273
vt 0.5612843 0.2878204
vt 0.5612843 0.2878204
vt 0.5070153 0.4936273
vt 0.4293837 0.2469021
vt 0.4293837 0.2469021
vt 0.5070153 0.4936273
vt 0.3985005 0.3492374
vt 0.5833197 0.3489627
vt 0.5997392 0.3721297
vt 0.4729376 0.3162728
vt 0.4729376 0.3162728
vt 0.5997392 0.3721297
vt 0.3236257 0.3905748
vt 0.3236257 0.3905748
vt 0.5997392 0.3721297
vt 0.5650655 0.4516333
vt 0.5210785 0.3531863
vt 0.5514028 0.2823674
vt 0.5362965 0.4424643
vt 0.5362965 0.4424643
vt 0.5514028 0.2823674
vt 0.6280798 0.425039
vt 0.6280798 0.425039
vt 0.5514028 0.2823674
vt 0.5649258 0.2799273
vt 0.3804512 0.4972595
vt 0.3571026 0.3278866
vt 0.3888053 0.5033877
vt 0.3888053 0.5033877
vt 0.3571026 0.3278866
vt 0.3898344 0.5035088
vt 0.3898344 0.5035088
vt 0.3571026 0.3278866
vt 0.5311835 0.4390277
vt 0.5311835 0.4390277
vt 0.3571026 0.3278866
vt 0.5386062 0.2773056
vt 0.6087359 0.4545856
vt 0.4999883 0.480542
vt 0.6205825 0.4453654
vt 0.6205825 0.4453654
vt 0.4999883 0.480542
vt 0.6180865 0.3535542
vt 0.6180865 0.3535542
vt 0.4999883 0.480542
vt 0.5353372 0.3461967
vt 0.484286 0.2699713
vt 0.4966448 0.3802417
vt 0.4732124 0.2689562
vt 0.4732124 0.2689562
vt 0.4966448 0.3802417
vt 0.4547393 0.4500128
vt 0.4547393 0.4500128
vt 0.4966448 0.3802417
vt 0.4720901 0.4687047
vt 0.5141586 0.4882814
vt 0.41865 0.4855526
vt 0.4057137 0.3436401
vt 0.4057137 0.3436401
vt 0.41865 0.4855526
vt 0.3729679 0.4258958

usemtl Material0
usemap Material0

usemtl Material1
usemap Material1
f 1/1/1 2/2/2 3/3/3
f 4/4/4 5/5/5 6/6/6
f 7/7/7 8/8/8 9/9/9
f 10/10/10 11/11/11 12/12/12
f 13/13/13 14/14/14 15/15/15
f 16/16/16 17/17/17 18/18/18
f 19/19/19 20/20/20 21/21/21
f 22/22/22 23/23/23 24/24/24
f 25/25/25 26/26/26 27/27/27
f 28/28/28 29/29/29 30/30/30
f 31/31/31 32/32/32 33/33/33
f 34/34/34 35/35/35 36/36/36
f 37/37/37 38/38/38 39/39/39
f 40/40/40 41/41/41 42/42/42
f 43/43/43 44/44/44 45/45/45
f 46/46/46 47/47/47 48/48/48
f 49/49/49 50/50/50 51/51/51
f 52/52/52 53/53/53 54/54/54
f 55/55/55 56/56/56 57/57/57
f 58/58/58 59/59/59 60/60/60
f 61/61/61 62/62/62 63/63/63
f 64/64/64 65/65/65 66/66/66
f 67/67/67 68/68/68 69/69/69
f 70/70/70 71/71/71 72/72/72
f 73/73/73 74/74/74 75/75/75
f 76/76/76 77/77/77 78/78/78
f 79/79/79 80/80/80 81/81/81
f 82/82/82 83/83/83 84/84/84
f 85/85/85 86/86/86 87/87/87
f 88/88/88 89/89/89 90/90/90
f 91/91/91 92/92/92 93/93/93
f 94/94/94 95/95/95 96/96/96
f 97/97/97 98/98/98 99/99/99
f 100/100/100 101/101/101 102/102/102
f 103/103/103 104/104/104 105/105/105
f 106/106/106 107/107/107 108/108/108
