g  Instance
v 0.1262484 -49.51061 2.077445
v -0.4337298 -49.55585 1.851429
v -0.479611 -49.16943 1.917083
v -0.479611 -49.16943 1.917083
v -0.4337298 -49.55585 1.851429
v -0.7810718 -49.31976 1.768229
v -1.935386 -49.77685 2.704868
v -1.793519 -48.41825 2.817032
v -1.765539 -50.14875 2.421963
v -1.765539 -50.14875 2.421963
v -1.793519 -48.41825 2.817032
v -1.283386 -49.80113 1.91183
v -1.283386 -49.80113 1.91183
v -1.793519 -48.41825 2.817032
v -1.053514 -49.26714 1.745495
v -1.053514 -49.26714 1.745495
v -1.793519 -48.41825 2.817032
v -1.268894 -48.47899 2.170322
v -1.268894 -48.47899 2.170322
v -1.793519 -48.41825 2.817032
v -1.411322 -48.2631 2.387521
v -1.935386 -49.77685 2.704868
v -2.251736 -49.06353 3.610069
v -1.793519 -48.41825 2.817032
v -1.793519 -48.41825 2.817032
v -2.251736 -49.06353 3.610069
v -1.803047 -48.40778 2.840899
v -1.803047 -48.40778 2.840899
v -2.251736 -49.06353 3.610069
v -2.240727 -48.73027 3.689101
v -1.428321 -48.21337 2.458561
v -1.803047 -48.40778 2.840899
v -0.1935577 -48.24564 4.030965
v -0.1935577 -48.24564 4.030965
v -1.803047 -48.40778 2.840899
v -1.812109 -48.7345 4.205569
v -1.812109 -48.7345 4.205569
v -1.803047 -48.40778 2.840899
v -2.242448 -48.81958 4.063027
v -2.242448 -48.81958 4.063027
v -1.803047 -48.40778 2.840899
v -2.240727 -48.73027 3.689101
v -0.479611 -49.16943 1.917083
v -0.7810718 -49.31976 1.768229
v -1.268894 -48.47899 2.170322
v -1.268894 -48.47899 2.170322
v -0.7810718 -49.31976 1.768229
v -1.053514 -49.26714 1.745495
v -1.428321 -48.21337 2.458561
v -1.411322 -48.2631 2.387521
v -1.803047 -48.40778 2.840899
v -1.803047 -48.40778 2.840899
v -1.411322 -48.2631 2.387521
v -1.793519 -48.41825 2.817032
v 0.8085901 -49.15407 3.649686
v 0.3749009 -49.80101 4.564998
v 0.4680029 -49.57092 2.416142
v 0.4680029 -49.57092 2.416142
v 0.3749009 -49.80101 4.564998
v 0.02696267 -50.24516 3.696306
v -2.247617 -48.998 4.253839
v -2.111659 -48.98045 4.309005
v -2.242448 -48.81958 4.063027
v -2.242448 -48.81958 4.063027
v -2.111659 -48.98045 4.309005
v -1.812109 -48.7345 4.205569
v -2.240727 -48.73027 3.689101
v -2.251736 -49.06353 3.610069
v -2.242448 -48.81958 4.063027
v -2.242448 -48.81958 4.063027
v -2.251736 -49.06353 3.610069
v -2.247617 -48.998 4.253839
v -2.247617 -48.998 4.253839
v -2.251736 -49.06353 3.610069
v -2.248896 -49.03542 4.231074
v -2.248896 -49.03542 4.231074
v -2.251736 -49.06353 3.610069
v -1.657889 -50.30645 3.666315
v -1.657889 -50.30645 3.666315
v -2.251736 -49.06353 3.610069
v -1.581512 -50.48669 3.301829
v -1.581512 -50.48669 3.301829
v -2.251736 -49.06353 3.610069
v -1.765539 -50.14875 2.421963
v -1.765539 -50.14875 2.421963
v -2.251736 -49.06353 3.610069
v -1.935386 -49.77685 2.704868
v -0.1935577 -48.24564 4.030965
v 0.400494 -48.5743 4.199165
v -1.428321 -48.21337 2.458561
v -1.428321 -48.21337 2.458561
v 0.400494 -48.5743 4.199165
v -1.411322 -48.2631 2.387521
v -1.411322 -48.2631 2.387521
v 0.400494 -48.5743 4.199165
v -1.268894 -48.47899 2.170322
v -1.268894 -48.47899 2.170322
v 0.400494 -48.5743 4.199165
v -0.479611 -49.16943 1.917083
v -0.479611 -49.16943 1.917083
v 0.400494 -48.5743 4.199165
v 0.1262484 -49.51061 2.077445
v 0.1262484 -49.51061 2.077445
v 0.400494 -48.5743 4.199165
v 0.4680029 -49.57092 2.416142
v 0.4680029 -49.57092 2.416142
v 0.400494 -48.5743 4.199165
v 0.8085901 -49.15407 3.649686
v -0.1935577 -48.24564 4.030965
v -1.812109 -48.7345 4.205569
v 0.400494 -48.5743 4.199165
v 0.400494 -48.5743 4.199165
v -1.812109 -48.7345 4.205569
v 0.2798114 -49.65781 4.690913
v 0.2798114 -49.65781 4.690913
v -1.812109 -48.7345 4.205569
v -2.111659 -48.98045 4.309005
v -1.657889 -50.30645 3.666315
v 0.3242697 -49.76375 4.642265
v -2.248896 -49.03542 4.231074
v -2.248896 -49.03542 4.231074
v 0.3242697 -49.76375 4.642265
v -2.247617 -48.998 4.253839
v -2.247617 -48.998 4.253839
v 0.3242697 -49.76375 4.642265
v -2.111659 -48.98045 4.309005
v -2.111659 -48.98045 4.309005
v 0.3242697 -49.76375 4.642265
v 0.2798114 -49.65781 4.690913
v -0.7810718 -49.31976 1.768229
v -0.4337298 -49.55585 1.851429
v -1.053514 -49.26714 1.745495
v -1.053514 -49.26714 1.745495
v -0.4337298 -49.55585 1.851429
v -1.283386 -49.80113 1.91183
v 0.02696267 -50.24516 3.696306
v 0.3749009 -49.80101 4.564998
v -1.581512 -50.48669 3.301829
v -1.581512 -50.48669 3.301829
v 0.3749009 -49.80101 4.564998
v -1.657889 -50.30645 3.666315
v -1.657889 -50.30645 3.666315
v 0.3749009 -49.80101 4.564998
v 0.3242697 -49.76375 4.642265
v 0.4680029 -49.57092 2.416142
v 0.02696267 -50.24516 3.696306
v 0.1262484 -49.51061 2.077445
v 0.1262484 -49.51061 2.077445
v 0.02696267 -50.24516 3.696306
v -0.4337298 -49.55585 1.851429
v -0.4337298 -49.55585 1.851429
v 0.02696267 -50.24516 3.696306
v -1.283386 -49.80113 1.91183
v -1.283386 -49.80113 1.91183
v 0.02696267 -50.24516 3.696306
v -1.765539 -50.14875 2.421963
v -1.765539 -50.14875 2.421963
v 0.02696267 -50.24516 3.696306
v -1.581512 -50.48669 3.301829
v 0.3749009 -49.80101 4.564998
v 0.8085901 -49.15407 3.649686
v 0.3242697 -49.76375 4.642265
v 0.3242697 -49.76375 4.642265
v 0.8085901 -49.15407 3.649686
v 0.2798114 -49.65781 4.690913
v 0.2798114 -49.65781 4.690913
v 0.8085901 -49.15407 3.649686
v 0.400494 -48.5743 4.199165

vn 0.3531725 0.1973127 -0.9145146
vn 0.3531725 0.1973127 -0.9145146
vn 0.3531725 0.1973127 -0.9145146
vn 0.3531725 0.1973127 -0.9145146
vn 0.3531725 0.1973127 -0.9145146
vn 0.3531725 0.1973127 -0.9145146
vn -0.7637151 0.1319207 -0.6319307
vn -0.7637151 0.1319207 -0.6319307
vn -0.7637151 0.1319207 -0.6319307
vn -0.7637151 0.1319207 -0.6319307
vn -0.7637151 0.1319207 -0.6319307
vn -0.7637151 0.1319207 -0.6319307
vn -0.7637151 0.1319207 -0.6319307
vn -0.7637151 0.1319207 -0.6319307
vn -0.7637151 0.1319207 -0.6319307
vn -0.7637151 0.1319207 -0.6319307
vn -0.7637151 0.1319207 -0.6319307
vn -0.7637151 0.1319207 -0.6319307
vn -0.7637151 0.1319207 -0.6319307
vn -0.7637151 0.1319207 -0.6319307
vn -0.7637151 0.1319207 -0.6319307
vn -0.9003568 0.1283452 -0.4157946
vn -0.9003568 0.1283452 -0.4157946
vn -0.9003568 0.1283452 -0.4157946
vn -0.9003568 0.1283452 -0.4157946
vn -0.9003568 0.1283452 -0.4157946
vn -0.9003568 0.1283452 -0.4157946
vn -0.9003568 0.1283452 -0.4157946
vn -0.9003568 0.1283452 -0.4157946
vn -0.9003568 0.1283452 -0.4157946
vn -0.259693 0.9395398 0.223214
vn -0.259693 0.9395398 0.223214
vn -0.259693 0.9395398 0.223214
vn -0.259693 0.9395398 0.223214
vn -0.259693 0.9395398 0.223214
vn -0.259693 0.9395398 0.223214
vn -0.259693 0.9395398 0.223214
vn -0.259693 0.9395398 0.223214
vn -0.259693 0.9395398 0.223214
vn -0.259693 0.9395398 0.223214
vn -0.259693 0.9395398 0.223214
vn -0.259693 0.9395398 0.223214
vn 0.1678833 0.5029029 -0.847882
vn 0.1678833 0.5029029 -0.847882
vn 0.1678833 0.5029029 -0.847882
vn 0.1678833 0.5029029 -0.847882
vn 0.1678833 0.5029029 -0.847882
vn 0.1678833 0.5029029 -0.847882
vn -0.7407302 0.4540602 -0.4951245
vn -0.7407302 0.4540602 -0.4951245
vn -0.7407302 0.4540602 -0.4951245
vn -0.7407302 0.4540602 -0.4951245
vn -0.7407302 0.4540602 -0.4951245
vn -0.7407302 0.4540602 -0.4951245
vn 0.8120752 -0.5829172 -0.02723267
vn 0.8120752 -0.5829172 -0.02723267
vn 0.8120752 -0.5829172 -0.02723267
vn 0.8120752 -0.5829172 -0.02723267
vn 0.8120752 -0.5829172 -0.02723267
vn 0.8120752 -0.5829172 -0.02723267
vn -0.3468798 0.6897461 0.6355507
vn -0.3468798 0.6897461 0.6355507
vn -0.3468798 0.6897461 0.6355507
vn -0.3468798 0.6897461 0.6355507
vn -0.3468798 0.6897461 0.6355507
vn -0.3468798 0.6897461 0.6355507
vn -0.999474 0.03227894 0.003108826
vn -0.999474 0.03227894 0.003108826
vn -0.999474 0.03227894 0.003108826
vn -0.999474 0.03227894 0.003108826
vn -0.999474 0.03227894 0.003108826
vn -0.999474 0.03227894 0.003108826
vn -0.999474 0.03227894 0.003108826
vn -0.999474 0.03227894 0.003108826
vn -0.999474 0.03227894 0.003108826
vn -0.9024671 -0.4301129 0.02357824
vn -0.9024671 -0.4301129 0.02357824
vn -0.9024671 -0.4301129 0.02357824
vn -0.9024671 -0.4301129 0.02357824
vn -0.9024671 -0.4301129 0.02357824
vn -0.9024671 -0.4301129 0.02357824
vn -0.9024671 -0.4301129 0.02357824
vn -0.9024671 -0.4301129 0.02357824
vn -0.9024671 -0.4301129 0.02357824
vn -0.9024671 -0.4301129 0.02357824
vn -0.9024671 -0.4301129 0.02357824
vn -0.9024671 -0.4301129 0.02357824
vn 0.5278251 0.7497501 -0.3990933
vn 0.5278251 0.7497501 -0.3990933
vn 0.5278251 0.7497501 -0.3990933
vn 0.5278251 0.7497501 -0.3990933
vn 0.5278251 0.7497501 -0.3990933
vn 0.5278251 0.7497501 -0.3990933
vn 0.5278251 0.7497501 -0.3990933
vn 0.5278251 0.7497501 -0.3990933
vn 0.5278251 0.7497501 -0.3990933
vn 0.5278251 0.7497501 -0.3990933
vn 0.5278251 0.7497501 -0.3990933
vn 0.5278251 0.7497501 -0.3990933
vn 0.5278251 0.7497501 -0.3990933
vn 0.5278251 0.7497501 -0.3990933
vn 0.5278251 0.7497501 -0.3990933
vn 0.5278251 0.7497501 -0.3990933
vn 0.5278251 0.7497501 -0.3990933
vn 0.5278251 0.7497501 -0.3990933
vn 0.5278251 0.7497501 -0.3990933
vn 0.5278251 0.7497501 -0.3990933
vn 0.5278251 0.7497501 -0.3990933
vn -0.02745237 0.4156551 0.909108
vn -0.02745237 0.4156551 0.909108
vn -0.02745237 0.4156551 0.909108
vn -0.02745237 0.4156551 0.909108
vn -0.02745237 0.4156551 0.909108
vn -0.02745237 0.4156551 0.909108
vn -0.02745237 0.4156551 0.909108
vn -0.02745237 0.4156551 0.909108
vn -0.02745237 0.4156551 0.909108
vn -0.2717159 -0.4934589 0.8262377
vn -0.2717159 -0.4934589 0.8262377
vn -0.2717159 -0.4934589 0.8262377
vn -0.2717159 -0.4934589 0.8262377
vn -0.2717159 -0.4934589 0.8262377
vn -0.2717159 -0.4934589 0.8262377
vn -0.2717159 -0.4934589 0.8262377
vn -0.2717159 -0.4934589 0.8262377
vn -0.2717159 -0.4934589 0.8262377
vn -0.2717159 -0.4934589 0.8262377
vn -0.2717159 -0.4934589 0.8262377
vn -0.2717159 -0.4934589 0.8262377
vn 0.0204891 -0.3053799 -0.9520102
vn 0.0204891 -0.3053799 -0.9520102
vn 0.0204891 -0.3053799 -0.9520102
vn 0.0204891 -0.3053799 -0.9520102
vn 0.0204891 -0.3053799 -0.9520102
vn 0.0204891 -0.3053799 -0.9520102
vn 0.02453272 -0.8940678 0.4472596
vn 0.02453272 -0.8940678 0.4472596
vn 0.02453272 -0.8940678 0.4472596
vn 0.02453272 -0.8940678 0.4472596
vn 0.02453272 -0.8940678 0.4472596
vn 0.02453272 -0.8940678 0.4472596
vn 0.02453272 -0.8940678 0.4472596
vn 0.02453272 -0.8940678 0.4472596
vn 0.02453272 -0.8940678 0.4472596
vn 0.2296296 -0.8915236 -0.3904561
vn 0.2296296 -0.8915236 -0.3904561
vn 0.2296296 -0.8915236 -0.3904561
vn 0.2296296 -0.8915236 -0.3904561
vn 0.2296296 -0.8915236 -0.3904561
vn 0.2296296 -0.8915236 -0.3904561
vn 0.2296296 -0.8915236 -0.3904561
vn 0.2296296 -0.8915236 -0.3904561
vn 0.2296296 -0.8915236 -0.3904561
vn 0.2296296 -0.8915236 -0.3904561
vn 0.2296296 -0.8915236 -0.3904561
vn 0.2296296 -0.8915236 -0.3904561
vn 0.2296296 -0.8915236 -0.3904561
vn 0.2296296 -0.8915236 -0.3904561
vn 0.2296296 -0.8915236 -0.3904561
vn 0.856976 0.1307792 0.4984869
vn 0.856976 0.1307792 0.4984869
vn 0.856976 0.1307792 0.4984869
vn 0.856976 0.1307792 0.4984869
vn 0.856976 0.1307792 0.4984869
vn 0.856976 0.1307792 0.4984869
vn 0.856976 0.1307792 0.4984869
vn 0.856976 0.1307792 0.4984869
vn 0.856976 0.1307792 0.4984869

vt 0.5456751 0.4322801
vt 0.5542992 0.4884211
vt 0.5175673 0.4930219
vt 0.5175673 0.4930219
vt 0.5542992 0.4884211
vt 0.5342941 0.5232438
vt 0.421295 0.4181145
vt 0.5756083 0.4017276
vt 0.3830729 0.4594472
vt 0.3830729 0.4594472
vt 0.5756083 0.4017276
vt 0.4311486 0.5339728
vt 0.4311486 0.5339728
vt 0.5756083 0.4017276
vt 0.4951547 0.5582714
vt 0.4951547 0.5582714
vt 0.5756083 0.4017276
vt 0.5789424 0.4962071
vt 0.5789424 0.4962071
vt 0.5756083 0.4017276
vt 0.6002794 0.4644765
vt 0.4367273 0.4589164
vt 0.5005518 0.3628769
vt 0.568437 0.4470139
vt 0.568437 0.4470139
vt 0.5005518 0.3628769
vt 0.5693031 0.4444807
vt 0.5693031 0.4444807
vt 0.5005518 0.3628769
vt 0.5325339 0.3544902
vt 0.4470232 0.5607115
vt 0.4098442 0.5254045
vt 0.5533866 0.4154974
vt 0.5533866 0.4154974
vt 0.4098442 0.5254045
vt 0.40122 0.3993713
vt 0.40122 0.3993713
vt 0.4098442 0.5254045
vt 0.3618384 0.4125358
vt 0.3618384 0.4125358
vt 0.4098442 0.5254045
vt 0.3641295 0.4470698
vt 0.4974598 0.5608233
vt 0.4580083 0.607297
vt 0.3373582 0.4817714
vt 0.3373582 0.4817714
vt 0.4580083 0.607297
vt 0.4124799 0.6143938
vt 0.5467089 0.466544
vt 0.5433188 0.474805
vt 0.5101818 0.4221006
vt 0.5101818 0.4221006
vt 0.5433188 0.474805
vt 0.5097814 0.424876
vt 0.4207455 0.4275676
vt 0.4890824 0.3471885
vt 0.4679084 0.5358914
vt 0.4679084 0.5358914
vt 0.4890824 0.3471885
vt 0.538569 0.4234743
vt 0.3401243 0.453794
vt 0.3548255 0.4456728
vt 0.349759 0.4818831
vt 0.349759 0.4818831
vt 0.3548255 0.4456728
vt 0.397802 0.4609001
vt 0.5465785 0.4269249
vt 0.5173159 0.4338634
vt 0.5387459 0.3941139
vt 0.5387459 0.3941139
vt 0.5173159 0.4338634
vt 0.5230808 0.3773685
vt 0.5230808 0.3773685
vt 0.5173159 0.4338634
vt 0.5197932 0.3793662
vt 0.5878926 0.3818855
vt 0.5857691 0.4364106
vt 0.4648536 0.4314699
vt 0.4648536 0.4314699
vt 0.5857691 0.4364106
vt 0.4476891 0.4634706
vt 0.4476891 0.4634706
vt 0.5857691 0.4364106
vt 0.4814128 0.540725
vt 0.4814128 0.540725
vt 0.5857691 0.4364106
vt 0.5172972 0.5158862
vt 0.4659526 0.3559757
vt 0.5305502 0.3384153
vt 0.3675429 0.5200959
vt 0.3675429 0.5200959
vt 0.5305502 0.3384153
vt 0.3716128 0.5275093
vt 0.3716128 0.5275093
vt 0.5305502 0.3384153
vt 0.3946494 0.5501781
vt 0.3946494 0.5501781
vt 0.5305502 0.3384153
vt 0.4944562 0.5766094
vt 0.4944562 0.5766094
vt 0.5305502 0.3384153
vt 0.5606696 0.5598733
vt 0.5606696 0.5598733
vt 0.5305502 0.3384153
vt 0.5907332 0.5245197
vt 0.5907332 0.5245197
vt 0.5305502 0.3384153
vt 0.5944213 0.3957671
vt 0.5657733 0.4137279
vt 0.5203707 0.5558593
vt 0.5333908 0.3615544
vt 0.5333908 0.3615544
vt 0.5203707 0.5558593
vt 0.4289366 0.3721483
vt 0.4289366 0.3721483
vt 0.5203707 0.5558593
vt 0.4969568 0.5821602
vt 0.5819414 0.6110969
vt 0.3522317 0.3412093
vt 0.7580944 0.4549209
vt 0.7580944 0.4549209
vt 0.3522317 0.3412093
vt 0.7607301 0.4486251
vt 0.7607301 0.4486251
vt 0.3522317 0.3412093
vt 0.7434911 0.4333698
vt 0.7434911 0.4333698
vt 0.3522317 0.3412093
vt 0.3662576 0.3277562
vt 0.4540827 0.4704836
vt 0.4760437 0.4399962
vt 0.4490815 0.4944003
vt 0.4490815 0.4944003
vt 0.4760437 0.4399962
vt 0.4981676 0.5145824
vt 0.4495751 0.4671773
vt 0.4142541 0.3718829
vt 0.6079722 0.5104566
vt 0.6079722 0.5104566
vt 0.4142541 0.3718829
vt 0.6149759 0.4704743
vt 0.6149759 0.4704743
vt 0.4142541 0.3718829
vt 0.4191203 0.3634078
vt 0.4155114 0.5199003
vt 0.4722531 0.3873571
vt 0.4456262 0.5549651
vt 0.4456262 0.5549651
vt 0.4722531 0.3873571
vt 0.4983864 0.5783697
vt 0.4983864 0.5783697
vt 0.4722531 0.3873571
vt 0.5826492 0.5721204
vt 0.5826492 0.5721204
vt 0.4722531 0.3873571
vt 0.6354187 0.519295
vt 0.6354187 0.519295
vt 0.4722531 0.3873571
vt 0.6264686 0.4282009
vt 0.5619828 0.3901837
vt 0.5038767 0.4970639
vt 0.5574751 0.381159
vt 0.5574751 0.381159
vt 0.5038767 0.4970639
vt 0.5462059 0.3754779
vt 0.5462059 0.3754779
vt 0.5038767 0.4970639
vt 0.4396284 0.4328995

usemtl Material0
usemap Material0

usemtl Material1
usemap Material1
f 1/1/1 2/2/2 3/3/3
f 4/4/4 5/5/5 6/6/6
f 7/7/7 8/8/8 9/9/9
f 10/10/10 11/11/11 12/12/12
f 13/13/13 14/14/14 15/15/15
f 16/16/16 17/17/17 18/18/18
f 19/19/19 20/20/20 21/21/21
f 22/22/22 23/23/23 24/24/24
f 25/25/25 26/26/26 27/27/27
f 28/28/28 29/29/29 30/30/30
f 31/31/31 32/32/32 33/33/33
f 34/34/34 35/35/35 36/36/36
f 37/37/37 38/38/38 39/39/39
f 40/40/40 41/41/41 42/42/42
f 43/43/43 44/44/44 45/45/45
f 46/46/46 47/47/47 48/48/48
f 49/49/49 50/50/50 51/51/51
f 52/52/52 53/53/53 54/54/54
f 55/55/55 56/56/56 57/57/57
f 58/58/58 59/59/59 60/60/60
f 61/61/61 62/62/62 63/63/63
f 64/64/64 65/65/65 66/66/66
f 67/67/67 68/68/68 69/69/69
f 70/70/70 71/71/71 72/72/72
f 73/73/73 74/74/74 75/75/75
f 76/76/76 77/77/77 78/78/78
f 79/79/79 80/80/80 81/81/81
f 82/82/82 83/83/83 84/84/84
f 85/85/85 86/86/86 87/87/87
f 88/88/88 89/89/89 90/90/90
f 91/91/91 92/92/92 93/93/93
f 94/94/94 95/95/95 96/96/96
f 97/97/97 98/98/98 99/99/99
f 100/100/100 101/101/101 102/102/102
f 103/103/103 104/104/104 105/105/105
f 106/106/106 107/107/107 108/108/108
f 109/109/109 110/110/110 111/111/111
f 112/112/112 113/113/113 114/114/114
f 115/115/115 116/116/116 117/117/117
f 118/118/118 119/119/119 120/120/120
f 121/121/121 122/122/122 123/123/123
f 124/124/124 125/125/125 126/126/126
f 127/127/127 128/128/128 129/129/129
f 130/130/130 131/131/131 132/132/132
f 133/133/133 134/134/134 135/135/135
f 136/136/136 137/137/137 138/138/138
f 139/139/139 140/140/140 141/141/141
f 142/142/142 143/143/143 144/144/144
f 145/145/145 146/146/146 147/147/147
f 148/148/148 149/149/149 150/150/150
f 151/151/151 152/152/152 153/153/153
f 154/154/154 155/155/155 156/156/156
f 157/157/157 158/158/158 159/159/159
f 160/160/160 161/161/161 162/162/162
f 163/163/163 164/164/164 165/165/165
f 166/166/166 167/167/167 168/168/168
