g  Instance
v -5.446512 -54.57209 0.3483136
v -5.049293 -52.72699 2.009769
v -5.534471 -54.57767 0.3177704
v -5.534471 -54.57767 0.3177704
v -5.049293 -52.72699 2.009769
v -6.081742 -53.45132 1.099717
v -6.081742 -53.45132 1.099717
v -5.049293 -52.72699 2.009769
v -5.251789 -52.60546 2.05194
v -5.534471 -54.57767 0.3177704
v -6.081742 -53.45132 1.099717
v -6.055842 -53.72038 -0.8179965
v -6.055842 -53.72038 -0.8179965
v -6.081742 -53.45132 1.099717
v -6.105581 -53.62573 -0.8142985
v -6.105581 -53.62573 -0.8142985
v -6.081742 -53.45132 1.099717
v -6.72239 -52.44128 -0.6741484
v -6.151379 -51.63912 -0.1565723
v -6.526486 -52.01935 -0.5882318
v -5.226964 -51.74143 1.556473
v -5.226964 -51.74143 1.556473
v -6.526486 -52.01935 -0.5882318
v -5.251789 -52.60546 2.05194
v -5.251789 -52.60546 2.05194
v -6.526486 -52.01935 -0.5882318
v -6.081742 -53.45132 1.099717
v -6.081742 -53.45132 1.099717
v -6.526486 -52.01935 -0.5882318
v -6.72239 -52.44128 -0.6741484
v -6.72239 -52.44128 -0.6741484
v -6.526486 -52.01935 -0.5882318
v -6.683778 -52.27317 -0.7102824
v -6.72239 -52.44128 -0.6741484
v -6.683778 -52.27317 -0.7102824
v -6.105581 -53.62573 -0.8142985
v -6.526486 -52.01935 -0.5882318
v -5.951899 -51.94162 -0.3477928
v -6.683778 -52.27317 -0.7102824
v -6.683778 -52.27317 -0.7102824
v -5.951899 -51.94162 -0.3477928
v -6.105581 -53.62573 -0.8142985
v -6.105581 -53.62573 -0.8142985
v -5.951899 -51.94162 -0.3477928
v -6.055842 -53.72038 -0.8179965
v -6.055842 -53.72038 -0.8179965
v -5.951899 -51.94162 -0.3477928
v -4.505883 -53.68556 -0.2116876
v -4.505883 -53.68556 -0.2116876
v -5.951899 -51.94162 -0.3477928
v -4.389676 -53.44207 -0.1079843
v -6.526486 -52.01935 -0.5882318
v -6.151379 -51.63912 -0.1565723
v -5.951899 -51.94162 -0.3477928
v -6.055842 -53.72038 -0.8179965
v -4.505883 -53.68556 -0.2116876
v -5.534471 -54.57767 0.3177704
v -5.534471 -54.57767 0.3177704
v -4.505883 -53.68556 -0.2116876
v -5.446512 -54.57209 0.3483136
v -4.389676 -53.44207 -0.1079843
v -4.579164 -52.40433 1.574474
v -4.505883 -53.68556 -0.2116876
v -4.505883 -53.68556 -0.2116876
v -4.579164 -52.40433 1.574474
v -5.446512 -54.57209 0.3483136
v -5.446512 -54.57209 0.3483136
v -4.579164 -52.40433 1.574474
v -5.049293 -52.72699 2.009769
v -6.151379 -51.63912 -0.1565723
v -5.226964 -51.74143 1.556473
v -5.951899 -51.94162 -0.3477928
v -5.951899 -51.94162 -0.3477928
v -5.226964 -51.74143 1.556473
v -4.389676 -53.44207 -0.1079843
v -4.389676 -53.44207 -0.1079843
v -5.226964 -51.74143 1.556473
v -4.579164 -52.40433 1.574474
v -5.226964 -51.74143 1.556473
v -5.251789 -52.60546 2.05194
v -4.579164 -52.40433 1.574474
v -4.579164 -52.40433 1.574474
v -5.251789 -52.60546 2.05194
v -5.049293 -52.72699 2.009769

vn -0.2200166 -0.6261775 0.7479936
vn -0.2200166 -0.6261775 0.7479936
vn -0.2200166 -0.6261775 0.7479936
vn -0.2200166 -0.6261775 0.7479936
vn -0.2200166 -0.6261775 0.7479936
vn -0.2200166 -0.6261775 0.7479936
vn -0.2200166 -0.6261775 0.7479936
vn -0.2200166 -0.6261775 0.7479936
vn -0.2200166 -0.6261775 0.7479936
vn -0.8830668 -0.4661897 0.05348125
vn -0.8830668 -0.4661897 0.05348125
vn -0.8830668 -0.4661897 0.05348125
vn -0.8830668 -0.4661897 0.05348125
vn -0.8830668 -0.4661897 0.05348125
vn -0.8830668 -0.4661897 0.05348125
vn -0.8830668 -0.4661897 0.05348125
vn -0.8830668 -0.4661897 0.05348125
vn -0.8830668 -0.4661897 0.05348125
vn -0.8342527 0.2921284 0.4676362
vn -0.8342527 0.2921284 0.4676362
vn -0.8342527 0.2921284 0.4676362
vn -0.8342527 0.2921284 0.4676362
vn -0.8342527 0.2921284 0.4676362
vn -0.8342527 0.2921284 0.4676362
vn -0.8342527 0.2921284 0.4676362
vn -0.8342527 0.2921284 0.4676362
vn -0.8342527 0.2921284 0.4676362
vn -0.8342527 0.2921284 0.4676362
vn -0.8342527 0.2921284 0.4676362
vn -0.8342527 0.2921284 0.4676362
vn -0.8342527 0.2921284 0.4676362
vn -0.8342527 0.2921284 0.4676362
vn -0.8342527 0.2921284 0.4676362
vn -0.4037309 -0.1026737 -0.9090982
vn -0.4037309 -0.1026737 -0.9090982
vn -0.4037309 -0.1026737 -0.9090982
vn 0.3510764 0.2200619 -0.9101199
vn 0.3510764 0.2200619 -0.9101199
vn 0.3510764 0.2200619 -0.9101199
vn 0.3510764 0.2200619 -0.9101199
vn 0.3510764 0.2200619 -0.9101199
vn 0.3510764 0.2200619 -0.9101199
vn 0.3510764 0.2200619 -0.9101199
vn 0.3510764 0.2200619 -0.9101199
vn 0.3510764 0.2200619 -0.9101199
vn 0.3510764 0.2200619 -0.9101199
vn 0.3510764 0.2200619 -0.9101199
vn 0.3510764 0.2200619 -0.9101199
vn 0.3510764 0.2200619 -0.9101199
vn 0.3510764 0.2200619 -0.9101199
vn 0.3510764 0.2200619 -0.9101199
vn 0.228569 0.623403 -0.7477466
vn 0.228569 0.623403 -0.7477466
vn 0.228569 0.623403 -0.7477466
vn 0.2725 -0.7036577 -0.6562085
vn 0.2725 -0.7036577 -0.6562085
vn 0.2725 -0.7036577 -0.6562085
vn 0.2725 -0.7036577 -0.6562085
vn 0.2725 -0.7036577 -0.6562085
vn 0.2725 -0.7036577 -0.6562085
vn 0.7428532 -0.5291721 0.4100561
vn 0.7428532 -0.5291721 0.4100561
vn 0.7428532 -0.5291721 0.4100561
vn 0.7428532 -0.5291721 0.4100561
vn 0.7428532 -0.5291721 0.4100561
vn 0.7428532 -0.5291721 0.4100561
vn 0.7428532 -0.5291721 0.4100561
vn 0.7428532 -0.5291721 0.4100561
vn 0.7428532 -0.5291721 0.4100561
vn 0.680108 0.6557199 -0.3278483
vn 0.680108 0.6557199 -0.3278483
vn 0.680108 0.6557199 -0.3278483
vn 0.680108 0.6557199 -0.3278483
vn 0.680108 0.6557199 -0.3278483
vn 0.680108 0.6557199 -0.3278483
vn 0.680108 0.6557199 -0.3278483
vn 0.680108 0.6557199 -0.3278483
vn 0.680108 0.6557199 -0.3278483
vn 0.428509 0.4401769 0.7890655
vn 0.428509 0.4401769 0.7890655
vn 0.428509 0.4401769 0.7890655
vn 0.428509 0.4401769 0.7890655
vn 0.428509 0.4401769 0.7890655
vn 0.428509 0.4401769 0.7890655

vt 0.4518289 0.605723
vt 0.4831498 0.2747445
vt 0.4625579 0.6118047
vt 0.4625579 0.6118047
vt 0.4831498 0.2747445
vt 0.5801904 0.4560385
vt 0.5801904 0.4560385
vt 0.4831498 0.2747445
vt 0.5137302 0.2663438
vt 0.3893641 0.463275
vt 0.4993504 0.3944632
vt 0.4773755 0.5632261
vt 0.4773755 0.5632261
vt 0.4993504 0.3944632
vt 0.4867727 0.5629002
vt 0.4867727 0.5629002
vt 0.4993504 0.3944632
vt 0.6041258 0.5505692
vt 0.6015274 0.5595101
vt 0.5535914 0.6079955
vt 0.6222683 0.3671145
vt 0.6222683 0.3671145
vt 0.5535914 0.6079955
vt 0.5404968 0.3114671
vt 0.5404968 0.3114671
vt 0.5535914 0.6079955
vt 0.4340078 0.4184125
vt 0.4340078 0.4184125
vt 0.5535914 0.6079955
vt 0.5076299 0.6176441
vt 0.5076299 0.6176441
vt 0.5535914 0.6079955
vt 0.5246455 0.6217048
vt 0.4319169 0.5276211
vt 0.4155068 0.5235698
vt 0.5433002 0.4629584
vt 0.4321171 0.5947426
vt 0.4197397 0.5372325
vt 0.4579292 0.6104822
vt 0.4579292 0.6104822
vt 0.4197397 0.5372325
vt 0.5834315 0.5526182
vt 0.5834315 0.5526182
vt 0.4197397 0.5372325
vt 0.5921302 0.5476356
vt 0.5921302 0.5476356
vt 0.4197397 0.5372325
vt 0.5756083 0.3925027
vt 0.5756083 0.3925027
vt 0.4197397 0.5372325
vt 0.551142 0.3808703
vt 0.3007241 0.4871918
vt 0.3299727 0.4012759
vt 0.3684835 0.439335
vt 0.6123868 0.5301264
vt 0.4428368 0.4366854
vt 0.5918601 0.3550862
vt 0.5918601 0.3550862
vt 0.4428368 0.4366854
vt 0.5820904 0.3503783
vt 0.4825258 0.534662
vt 0.4117814 0.3571771
vt 0.5080956 0.5456052
vt 0.5080956 0.5456052
vt 0.4117814 0.3571771
vt 0.6300728 0.4865305
vt 0.6300728 0.4865305
vt 0.4117814 0.3571771
vt 0.4633076 0.3112622
vt 0.3517614 0.4900975
vt 0.418203 0.3216652
vt 0.3848518 0.5089012
vt 0.3848518 0.5089012
vt 0.418203 0.3216652
vt 0.5859088 0.4853198
vt 0.5859088 0.4853198
vt 0.418203 0.3216652
vt 0.5042958 0.3198957
vt 0.3785047 0.4586556
vt 0.4620596 0.3434399
vt 0.5108617 0.4544739
vt 0.5108617 0.4544739
vt 0.4620596 0.3434399
vt 0.4948939 0.3532469

usemtl Material0
usemap Material0

usemtl Material1
usemap Material1
f 1/1/1 2/2/2 3/3/3
f 4/4/4 5/5/5 6/6/6
f 7/7/7 8/8/8 9/9/9
f 10/10/10 11/11/11 12/12/12
f 13/13/13 14/14/14 15/15/15
f 16/16/16 17/17/17 18/18/18
f 19/19/19 20/20/20 21/21/21
f 22/22/22 23/23/23 24/24/24
f 25/25/25 26/26/26 27/27/27
f 28/28/28 29/29/29 30/30/30
f 31/31/31 32/32/32 33/33/33
f 34/34/34 35/35/35 36/36/36
f 37/37/37 38/38/38 39/39/39
f 40/40/40 41/41/41 42/42/42
f 43/43/43 44/44/44 45/45/45
f 46/46/46 47/47/47 48/48/48
f 49/49/49 50/50/50 51/51/51
f 52/52/52 53/53/53 54/54/54
f 55/55/55 56/56/56 57/57/57
f 58/58/58 59/59/59 60/60/60
f 61/61/61 62/62/62 63/63/63
f 64/64/64 65/65/65 66/66/66
f 67/67/67 68/68/68 69/69/69
f 70/70/70 71/71/71 72/72/72
f 73/73/73 74/74/74 75/75/75
f 76/76/76 77/77/77 78/78/78
f 79/79/79 80/80/80 81/81/81
f 82/82/82 83/83/83 84/84/84
