g  Instance
v 4.580356 -50.63821 -3.830338
v 3.464528 -51.0173 -3.704895
v 4.852521 -50.61855 -3.453471
v 4.852521 -50.61855 -3.453471
v 3.464528 -51.0173 -3.704895
v 4.915763 -50.70758 -2.842101
v 4.915763 -50.70758 -2.842101
v 3.464528 -51.0173 -3.704895
v 4.904069 -50.72279 -2.777852
v 4.904069 -50.72279 -2.777852
v 3.464528 -51.0173 -3.704895
v 3.72609 -51.05532 -3.024181
v 1.710262 -52.60732 -4.00336
v 1.709099 -52.62383 -3.967833
v 3.464528 -51.0173 -3.704895
v 3.464528 -51.0173 -3.704895
v 1.709099 -52.62383 -3.967833
v 3.72609 -51.05532 -3.024181
v 3.72609 -51.05532 -3.024181
v 1.709099 -52.62383 -3.967833
v 2.044731 -52.58377 -3.299826
v 2.173851 -53.46046 -3.904673
v 1.709099 -52.62383 -3.967833
v 2.584896 -53.72085 -4.769069
v 2.584896 -53.72085 -4.769069
v 1.709099 -52.62383 -3.967833
v 2.492959 -53.59041 -4.714282
v 2.492959 -53.59041 -4.714282
v 1.709099 -52.62383 -3.967833
v 1.710262 -52.60732 -4.00336
v 5.313899 -52.67448 -3.440738
v 5.219544 -53.16497 -3.464697
v 5.238512 -52.57732 -4.197865
v 5.238512 -52.57732 -4.197865
v 5.219544 -53.16497 -3.464697
v 5.171955 -52.93314 -4.199935
v 5.238512 -52.57732 -4.197865
v 4.995858 -51.54253 -4.351554
v 5.313899 -52.67448 -3.440738
v 5.313899 -52.67448 -3.440738
v 4.995858 -51.54253 -4.351554
v 5.013255 -51.10588 -2.725184
v 5.013255 -51.10588 -2.725184
v 4.995858 -51.54253 -4.351554
v 4.942162 -50.80058 -2.763504
v 4.942162 -50.80058 -2.763504
v 4.995858 -51.54253 -4.351554
v 4.915763 -50.70758 -2.842101
v 4.915763 -50.70758 -2.842101
v 4.995858 -51.54253 -4.351554
v 4.852521 -50.61855 -3.453471
v 4.580356 -50.63821 -3.830338
v 4.852521 -50.61855 -3.453471
v 4.952103 -51.50947 -4.369638
v 4.952103 -51.50947 -4.369638
v 4.852521 -50.61855 -3.453471
v 4.995858 -51.54253 -4.351554
v 5.219544 -53.16497 -3.464697
v 5.076774 -53.3055 -3.348796
v 5.171955 -52.93314 -4.199935
v 5.171955 -52.93314 -4.199935
v 5.076774 -53.3055 -3.348796
v 4.465669 -53.33796 -4.43298
v 4.465669 -53.33796 -4.43298
v 5.076774 -53.3055 -3.348796
v 3.703576 -54.11201 -3.74793
v 3.703576 -54.11201 -3.74793
v 5.076774 -53.3055 -3.348796
v 3.850106 -54.14162 -3.384139
v 3.850106 -54.14162 -3.384139
v 5.076774 -53.3055 -3.348796
v 3.905743 -54.12328 -3.328148
v 4.942162 -50.80058 -2.763504
v 4.904069 -50.72279 -2.777852
v 5.013255 -51.10588 -2.725184
v 5.013255 -51.10588 -2.725184
v 4.904069 -50.72279 -2.777852
v 4.630317 -52.62624 -2.70346
v 4.630317 -52.62624 -2.70346
v 4.904069 -50.72279 -2.777852
v 3.345433 -53.877 -2.908136
v 3.345433 -53.877 -2.908136
v 4.904069 -50.72279 -2.777852
v 2.690738 -53.60778 -3.077773
v 2.690738 -53.60778 -3.077773
v 4.904069 -50.72279 -2.777852
v 2.044731 -52.58377 -3.299826
v 2.044731 -52.58377 -3.299826
v 4.904069 -50.72279 -2.777852
v 3.72609 -51.05532 -3.024181
v 3.100611 -53.64572 -4.913151
v 2.758426 -53.80856 -4.897909
v 4.952103 -51.50947 -4.369638
v 4.952103 -51.50947 -4.369638
v 2.758426 -53.80856 -4.897909
v 4.580356 -50.63821 -3.830338
v 4.580356 -50.63821 -3.830338
v 2.758426 -53.80856 -4.897909
v 3.464528 -51.0173 -3.704895
v 3.464528 -51.0173 -3.704895
v 2.758426 -53.80856 -4.897909
v 1.710262 -52.60732 -4.00336
v 1.710262 -52.60732 -4.00336
v 2.758426 -53.80856 -4.897909
v 2.492959 -53.59041 -4.714282
v 2.492959 -53.59041 -4.714282
v 2.758426 -53.80856 -4.897909
v 2.676427 -53.7688 -4.854967
v 1.709099 -52.62383 -3.967833
v 2.173851 -53.46046 -3.904673
v 2.044731 -52.58377 -3.299826
v 2.044731 -52.58377 -3.299826
v 2.173851 -53.46046 -3.904673
v 2.690738 -53.60778 -3.077773
v 5.313899 -52.67448 -3.440738
v 5.013255 -51.10588 -2.725184
v 5.219544 -53.16497 -3.464697
v 5.219544 -53.16497 -3.464697
v 5.013255 -51.10588 -2.725184
v 5.076774 -53.3055 -3.348796
v 5.076774 -53.3055 -3.348796
v 5.013255 -51.10588 -2.725184
v 4.630317 -52.62624 -2.70346
v 4.952103 -51.50947 -4.369638
v 4.995858 -51.54253 -4.351554
v 3.100611 -53.64572 -4.913151
v 3.100611 -53.64572 -4.913151
v 4.995858 -51.54253 -4.351554
v 4.465669 -53.33796 -4.43298
v 4.465669 -53.33796 -4.43298
v 4.995858 -51.54253 -4.351554
v 5.171955 -52.93314 -4.199935
v 5.171955 -52.93314 -4.199935
v 4.995858 -51.54253 -4.351554
v 5.238512 -52.57732 -4.197865
v 4.915763 -50.70758 -2.842101
v 4.904069 -50.72279 -2.777852
v 4.942162 -50.80058 -2.763504
v 4.465669 -53.33796 -4.43298
v 3.703576 -54.11201 -3.74793
v 3.100611 -53.64572 -4.913151
v 3.100611 -53.64572 -4.913151
v 3.703576 -54.11201 -3.74793
v 2.758426 -53.80856 -4.897909
v 3.905743 -54.12328 -3.328148
v 3.858453 -54.13885 -3.316085
v 3.850106 -54.14162 -3.384139
v 4.630317 -52.62624 -2.70346
v 3.345433 -53.877 -2.908136
v 5.076774 -53.3055 -3.348796
v 5.076774 -53.3055 -3.348796
v 3.345433 -53.877 -2.908136
v 3.905743 -54.12328 -3.328148
v 3.905743 -54.12328 -3.328148
v 3.345433 -53.877 -2.908136
v 3.858453 -54.13885 -3.316085
v 2.492959 -53.59041 -4.714282
v 2.676427 -53.7688 -4.854967
v 2.584896 -53.72085 -4.769069
v 3.850106 -54.14162 -3.384139
v 3.858453 -54.13885 -3.316085
v 3.703576 -54.11201 -3.74793
v 3.703576 -54.11201 -3.74793
v 3.858453 -54.13885 -3.316085
v 2.758426 -53.80856 -4.897909
v 2.758426 -53.80856 -4.897909
v 3.858453 -54.13885 -3.316085
v 2.676427 -53.7688 -4.854967
v 2.676427 -53.7688 -4.854967
v 3.858453 -54.13885 -3.316085
v 2.584896 -53.72085 -4.769069
v 2.584896 -53.72085 -4.769069
v 3.858453 -54.13885 -3.316085
v 2.173851 -53.46046 -3.904673
v 2.173851 -53.46046 -3.904673
v 3.858453 -54.13885 -3.316085
v 2.690738 -53.60778 -3.077773
v 2.690738 -53.60778 -3.077773
v 3.858453 -54.13885 -3.316085
v 3.345433 -53.877 -2.908136

vn -0.300157 0.9390172 0.1677872
vn -0.300157 0.9390172 0.1677872
vn -0.300157 0.9390172 0.1677872
vn -0.300157 0.9390172 0.1677872
vn -0.300157 0.9390172 0.1677872
vn -0.300157 0.9390172 0.1677872
vn -0.300157 0.9390172 0.1677872
vn -0.300157 0.9390172 0.1677872
vn -0.300157 0.9390172 0.1677872
vn -0.300157 0.9390172 0.1677872
vn -0.300157 0.9390172 0.1677872
vn -0.300157 0.9390172 0.1677872
vn -0.6687432 0.6824287 0.2950823
vn -0.6687432 0.6824287 0.2950823
vn -0.6687432 0.6824287 0.2950823
vn -0.6687432 0.6824287 0.2950823
vn -0.6687432 0.6824287 0.2950823
vn -0.6687432 0.6824287 0.2950823
vn -0.6687432 0.6824287 0.2950823
vn -0.6687432 0.6824287 0.2950823
vn -0.6687432 0.6824287 0.2950823
vn -0.8376555 -0.4843755 -0.2524157
vn -0.8376555 -0.4843755 -0.2524157
vn -0.8376555 -0.4843755 -0.2524157
vn -0.8376555 -0.4843755 -0.2524157
vn -0.8376555 -0.4843755 -0.2524157
vn -0.8376555 -0.4843755 -0.2524157
vn -0.8376555 -0.4843755 -0.2524157
vn -0.8376555 -0.4843755 -0.2524157
vn -0.8376555 -0.4843755 -0.2524157
vn 0.9759149 -0.1818472 -0.1205069
vn 0.9759149 -0.1818472 -0.1205069
vn 0.9759149 -0.1818472 -0.1205069
vn 0.9759149 -0.1818472 -0.1205069
vn 0.9759149 -0.1818472 -0.1205069
vn 0.9759149 -0.1818472 -0.1205069
vn 0.9735013 0.2180389 -0.06895167
vn 0.9735013 0.2180389 -0.06895167
vn 0.9735013 0.2180389 -0.06895167
vn 0.9735013 0.2180389 -0.06895167
vn 0.9735013 0.2180389 -0.06895167
vn 0.9735013 0.2180389 -0.06895167
vn 0.9735013 0.2180389 -0.06895167
vn 0.9735013 0.2180389 -0.06895167
vn 0.9735013 0.2180389 -0.06895167
vn 0.9735013 0.2180389 -0.06895167
vn 0.9735013 0.2180389 -0.06895167
vn 0.9735013 0.2180389 -0.06895167
vn 0.9735013 0.2180389 -0.06895167
vn 0.9735013 0.2180389 -0.06895167
vn 0.9735013 0.2180389 -0.06895167
vn 0.6445714 0.5819358 -0.4958613
vn 0.6445714 0.5819358 -0.4958613
vn 0.6445714 0.5819358 -0.4958613
vn 0.6445714 0.5819358 -0.4958613
vn 0.6445714 0.5819358 -0.4958613
vn 0.6445714 0.5819358 -0.4958613
vn 0.5456058 -0.7884761 -0.2839364
vn 0.5456058 -0.7884761 -0.2839364
vn 0.5456058 -0.7884761 -0.2839364
vn 0.5456058 -0.7884761 -0.2839364
vn 0.5456058 -0.7884761 -0.2839364
vn 0.5456058 -0.7884761 -0.2839364
vn 0.5456058 -0.7884761 -0.2839364
vn 0.5456058 -0.7884761 -0.2839364
vn 0.5456058 -0.7884761 -0.2839364
vn 0.5456058 -0.7884761 -0.2839364
vn 0.5456058 -0.7884761 -0.2839364
vn 0.5456058 -0.7884761 -0.2839364
vn 0.5456058 -0.7884761 -0.2839364
vn 0.5456058 -0.7884761 -0.2839364
vn 0.5456058 -0.7884761 -0.2839364
vn -0.2230974 0.07008293 0.9722736
vn -0.2230974 0.07008293 0.9722736
vn -0.2230974 0.07008293 0.9722736
vn -0.2230974 0.07008293 0.9722736
vn -0.2230974 0.07008293 0.9722736
vn -0.2230974 0.07008293 0.9722736
vn -0.2230974 0.07008293 0.9722736
vn -0.2230974 0.07008293 0.9722736
vn -0.2230974 0.07008293 0.9722736
vn -0.2230974 0.07008293 0.9722736
vn -0.2230974 0.07008293 0.9722736
vn -0.2230974 0.07008293 0.9722736
vn -0.2230974 0.07008293 0.9722736
vn -0.2230974 0.07008293 0.9722736
vn -0.2230974 0.07008293 0.9722736
vn -0.2230974 0.07008293 0.9722736
vn -0.2230974 0.07008293 0.9722736
vn -0.2230974 0.07008293 0.9722736
vn -0.2445886 0.4327433 -0.8677038
vn -0.2445886 0.4327433 -0.8677038
vn -0.2445886 0.4327433 -0.8677038
vn -0.2445886 0.4327433 -0.8677038
vn -0.2445886 0.4327433 -0.8677038
vn -0.2445886 0.4327433 -0.8677038
vn -0.2445886 0.4327433 -0.8677038
vn -0.2445886 0.4327433 -0.8677038
vn -0.2445886 0.4327433 -0.8677038
vn -0.2445886 0.4327433 -0.8677038
vn -0.2445886 0.4327433 -0.8677038
vn -0.2445886 0.4327433 -0.8677038
vn -0.2445886 0.4327433 -0.8677038
vn -0.2445886 0.4327433 -0.8677038
vn -0.2445886 0.4327433 -0.8677038
vn -0.2445886 0.4327433 -0.8677038
vn -0.2445886 0.4327433 -0.8677038
vn -0.2445886 0.4327433 -0.8677038
vn -0.80326 -0.4138645 0.4283568
vn -0.80326 -0.4138645 0.4283568
vn -0.80326 -0.4138645 0.4283568
vn -0.80326 -0.4138645 0.4283568
vn -0.80326 -0.4138645 0.4283568
vn -0.80326 -0.4138645 0.4283568
vn 0.7169138 -0.1709181 0.6758858
vn 0.7169138 -0.1709181 0.6758858
vn 0.7169138 -0.1709181 0.6758858
vn 0.7169138 -0.1709181 0.6758858
vn 0.7169138 -0.1709181 0.6758858
vn 0.7169138 -0.1709181 0.6758858
vn 0.7169138 -0.1709181 0.6758858
vn 0.7169138 -0.1709181 0.6758858
vn 0.7169138 -0.1709181 0.6758858
vn 0.3430256 -0.05876777 -0.9374859
vn 0.3430256 -0.05876777 -0.9374859
vn 0.3430256 -0.05876777 -0.9374859
vn 0.3430256 -0.05876777 -0.9374859
vn 0.3430256 -0.05876777 -0.9374859
vn 0.3430256 -0.05876777 -0.9374859
vn 0.3430256 -0.05876777 -0.9374859
vn 0.3430256 -0.05876777 -0.9374859
vn 0.3430256 -0.05876777 -0.9374859
vn 0.3430256 -0.05876777 -0.9374859
vn 0.3430256 -0.05876777 -0.9374859
vn 0.3430256 -0.05876777 -0.9374859
vn 0.8461555 0.4631115 0.2637205
vn 0.8461555 0.4631115 0.2637205
vn 0.8461555 0.4631115 0.2637205
vn 0.3539968 -0.790646 -0.499565
vn 0.3539968 -0.790646 -0.499565
vn 0.3539968 -0.790646 -0.499565
vn 0.3539968 -0.790646 -0.499565
vn 0.3539968 -0.790646 -0.499565
vn 0.3539968 -0.790646 -0.499565
vn 0.3128022 -0.9498183 0.0002287919
vn 0.3128022 -0.9498183 0.0002287919
vn 0.3128022 -0.9498183 0.0002287919
vn 0.3654693 -0.5035453 0.7828629
vn 0.3654693 -0.5035453 0.7828629
vn 0.3654693 -0.5035453 0.7828629
vn 0.3654693 -0.5035453 0.7828629
vn 0.3654693 -0.5035453 0.7828629
vn 0.3654693 -0.5035453 0.7828629
vn 0.3654693 -0.5035453 0.7828629
vn 0.3654693 -0.5035453 0.7828629
vn 0.3654693 -0.5035453 0.7828629
vn -0.7285979 -0.244843 -0.639685
vn -0.7285979 -0.244843 -0.639685
vn -0.7285979 -0.244843 -0.639685
vn -0.3978651 -0.9134073 0.08596867
vn -0.3978651 -0.9134073 0.08596867
vn -0.3978651 -0.9134073 0.08596867
vn -0.3978651 -0.9134073 0.08596867
vn -0.3978651 -0.9134073 0.08596867
vn -0.3978651 -0.9134073 0.08596867
vn -0.3978651 -0.9134073 0.08596867
vn -0.3978651 -0.9134073 0.08596867
vn -0.3978651 -0.9134073 0.08596867
vn -0.3978651 -0.9134073 0.08596867
vn -0.3978651 -0.9134073 0.08596867
vn -0.3978651 -0.9134073 0.08596867
vn -0.3978651 -0.9134073 0.08596867
vn -0.3978651 -0.9134073 0.08596867
vn -0.3978651 -0.9134073 0.08596867
vn -0.3978651 -0.9134073 0.08596867
vn -0.3978651 -0.9134073 0.08596867
vn -0.3978651 -0.9134073 0.08596867
vn -0.3978651 -0.9134073 0.08596867
vn -0.3978651 -0.9134073 0.08596867
vn -0.3978651 -0.9134073 0.08596867

vt 0.6503015 0.5064891
vt 0.5454236 0.495164
vt 0.6739109 0.472458
vt 0.6739109 0.472458
vt 0.5454236 0.495164
vt 0.6768633 0.4172577
vt 0.6768633 0.4172577
vt 0.5454236 0.495164
vt 0.6754569 0.4114554
vt 0.6754569 0.4114554
vt 0.5454236 0.495164
vt 0.566565 0.4336958
vt 0.3946215 0.5333768
vt 0.3934853 0.5299588
vt 0.6119025 0.5046916
vt 0.6119025 0.5046916
vt 0.3934853 0.5299588
vt 0.6266176 0.4392558
vt 0.6266176 0.4392558
vt 0.3934853 0.5299588
vt 0.4180726 0.4657524
vt 0.5073226 0.4534681
vt 0.5941046 0.459382
vt 0.4682251 0.5344757
vt 0.4682251 0.5344757
vt 0.5941046 0.459382
vt 0.4826375 0.5293441
vt 0.4826375 0.5293441
vt 0.5941046 0.459382
vt 0.5953433 0.4627162
vt 0.4605602 0.4278051
vt 0.5047148 0.4299378
vt 0.4533377 0.4952292
vt 0.4533377 0.4952292
vt 0.5047148 0.4299378
vt 0.4853384 0.4954062
vt 0.5153135 0.5024657
vt 0.4218212 0.5160167
vt 0.5251018 0.4357074
vt 0.5251018 0.4357074
vt 0.4218212 0.5160167
vt 0.3846702 0.3726187
vt 0.3846702 0.3726187
vt 0.4218212 0.5160167
vt 0.3570979 0.3759994
vt 0.3570979 0.3759994
vt 0.4218212 0.5160167
vt 0.3486088 0.3829286
vt 0.3486088 0.3829286
vt 0.4218212 0.5160167
vt 0.3397518 0.4368344
vt 0.4121167 0.3682181
vt 0.4290717 0.3243661
vt 0.502638 0.4309762
vt 0.502638 0.4309762
vt 0.4290717 0.3243661
vt 0.508077 0.4288714
vt 0.3898018 0.4152087
vt 0.4078651 0.4041444
vt 0.381308 0.485385
vt 0.381308 0.485385
vt 0.4078651 0.4041444
vt 0.4555449 0.5076253
vt 0.4555449 0.5076253
vt 0.4078651 0.4041444
vt 0.5532189 0.4422408
vt 0.5532189 0.4422408
vt 0.4078651 0.4041444
vt 0.5437286 0.4075205
vt 0.5437286 0.4075205
vt 0.4078651 0.4041444
vt 0.5385876 0.4021747
vt 0.6743952 0.3011758
vt 0.6814734 0.3046963
vt 0.6467345 0.2946145
vt 0.6467345 0.2946145
vt 0.6814734 0.3046963
vt 0.5100794 0.3299774
vt 0.5100794 0.3299774
vt 0.6814734 0.3046963
vt 0.3990966 0.4486437
vt 0.3990966 0.4486437
vt 0.6814734 0.3046963
vt 0.4243684 0.5091061
vt 0.4243684 0.5091061
vt 0.6814734 0.3046963
vt 0.5177536 0.5687676
vt 0.5177536 0.5687676
vt 0.6814734 0.3046963
vt 0.6532072 0.4134811
vt 0.3649677 0.6602622
vt 0.2982328 0.6548418
vt 0.8350788 0.4672332
vt 0.8350788 0.4672332
vt 0.2982328 0.6548418
vt 0.853631 0.2757084
vt 0.853631 0.2757084
vt 0.2982328 0.6548418
vt 0.6492118 0.2311486
vt 0.6492118 0.2311486
vt 0.2982328 0.6548418
vt 0.2414911 0.3371487
vt 0.2414911 0.3371487
vt 0.2982328 0.6548418
vt 0.2763836 0.5896295
vt 0.2763836 0.5896295
vt 0.2982328 0.6548418
vt 0.2890824 0.6395864
vt 0.59376 0.5557754
vt 0.5008591 0.548986
vt 0.5822766 0.4839787
vt 0.5822766 0.4839787
vt 0.5008591 0.548986
vt 0.4651424 0.4601085
vt 0.4364665 0.5868449
vt 0.2630934 0.471238
vt 0.4958811 0.5907192
vt 0.4958811 0.5907192
vt 0.2630934 0.471238
vt 0.5160958 0.5719993
vt 0.5160958 0.5719993
vt 0.2630934 0.471238
vt 0.449752 0.4677268
vt 0.3750588 0.3442594
vt 0.378244 0.3399101
vt 0.5710633 0.5283941
vt 0.5710633 0.5283941
vt 0.378244 0.3399101
vt 0.5451722 0.3926378
vt 0.5451722 0.3926378
vt 0.378244 0.3399101
vt 0.5087848 0.3223917
vt 0.5087848 0.3223917
vt 0.378244 0.3399101
vt 0.4756292 0.3157699
vt 0.3959067 0.4479638
vt 0.3966099 0.4419101
vt 0.4044797 0.4405551
vt 0.432988 0.4883001
vt 0.5354862 0.4081911
vt 0.5719388 0.5444503
vt 0.5719388 0.5444503
vt 0.5354862 0.4081911
vt 0.6103285 0.5426622
vt 0.5024052 0.4367692
vt 0.5067731 0.4357121
vt 0.5075461 0.441682
vt 0.3569256 0.4409462
vt 0.6071992 0.4873408
vt 0.3622343 0.5872267
vt 0.3622343 0.5872267
vt 0.6071992 0.4873408
vt 0.5636499 0.5825514
vt 0.5636499 0.5825514
vt 0.6071992 0.4873408
vt 0.5703369 0.5798132
vt 0.4497753 0.4703625
vt 0.4238003 0.4912617
vt 0.4323174 0.4785024
vt 0.423791 0.4499662
vt 0.4232136 0.4439498
vt 0.4366667 0.4821253
vt 0.4366667 0.4821253
vt 0.4232136 0.4439498
vt 0.5236583 0.5837994
vt 0.5236583 0.5837994
vt 0.4232136 0.4439498
vt 0.5316771 0.5799995
vt 0.5316771 0.5799995
vt 0.4232136 0.4439498
vt 0.5407576 0.5723998
vt 0.5407576 0.5723998
vt 0.4232136 0.4439498
vt 0.5831055 0.4959836
vt 0.5831055 0.4959836
vt 0.4232136 0.4439498
vt 0.5361847 0.4228783
vt 0.5361847 0.4228783
vt 0.4232136 0.4439498
vt 0.4738504 0.4078791

usemtl Material0
usemap Material0

usemtl Material1
usemap Material1
f 1/1/1 2/2/2 3/3/3
f 4/4/4 5/5/5 6/6/6
f 7/7/7 8/8/8 9/9/9
f 10/10/10 11/11/11 12/12/12
f 13/13/13 14/14/14 15/15/15
f 16/16/16 17/17/17 18/18/18
f 19/19/19 20/20/20 21/21/21
f 22/22/22 23/23/23 24/24/24
f 25/25/25 26/26/26 27/27/27
f 28/28/28 29/29/29 30/30/30
f 31/31/31 32/32/32 33/33/33
f 34/34/34 35/35/35 36/36/36
f 37/37/37 38/38/38 39/39/39
f 40/40/40 41/41/41 42/42/42
f 43/43/43 44/44/44 45/45/45
f 46/46/46 47/47/47 48/48/48
f 49/49/49 50/50/50 51/51/51
f 52/52/52 53/53/53 54/54/54
f 55/55/55 56/56/56 57/57/57
f 58/58/58 59/59/59 60/60/60
f 61/61/61 62/62/62 63/63/63
f 64/64/64 65/65/65 66/66/66
f 67/67/67 68/68/68 69/69/69
f 70/70/70 71/71/71 72/72/72
f 73/73/73 74/74/74 75/75/75
f 76/76/76 77/77/77 78/78/78
f 79/79/79 80/80/80 81/81/81
f 82/82/82 83/83/83 84/84/84
f 85/85/85 86/86/86 87/87/87
f 88/88/88 89/89/89 90/90/90
f 91/91/91 92/92/92 93/93/93
f 94/94/94 95/95/95 96/96/96
f 97/97/97 98/98/98 99/99/99
f 100/100/100 101/101/101 102/102/102
f 103/103/103 104/104/104 105/105/105
f 106/106/106 107/107/107 108/108/108
f 109/109/109 110/110/110 111/111/111
f 112/112/112 113/113/113 114/114/114
f 115/115/115 116/116/116 117/117/117
f 118/118/118 119/119/119 120/120/120
f 121/121/121 122/122/122 123/123/123
f 124/124/124 125/125/125 126/126/126
f 127/127/127 128/128/128 129/129/129
f 130/130/130 131/131/131 132/132/132
f 133/133/133 134/134/134 135/135/135
f 136/136/136 137/137/137 138/138/138
f 139/139/139 140/140/140 141/141/141
f 142/142/142 143/143/143 144/144/144
f 145/145/145 146/146/146 147/147/147
f 148/148/148 149/149/149 150/150/150
f 151/151/151 152/152/152 153/153/153
f 154/154/154 155/155/155 156/156/156
f 157/157/157 158/158/158 159/159/159
f 160/160/160 161/161/161 162/162/162
f 163/163/163 164/164/164 165/165/165
f 166/166/166 167/167/167 168/168/168
f 169/169/169 170/170/170 171/171/171
f 172/172/172 173/173/173 174/174/174
f 175/175/175 176/176/176 177/177/177
f 178/178/178 179/179/179 180/180/180
