g  Instance
v -7.237911 -53.76173 2.194569
v -5.664698 -52.59981 2.76794
v -7.43262 -53.71022 2.169932
v -7.43262 -53.71022 2.169932
v -5.664698 -52.59981 2.76794
v -5.982957 -51.79191 2.89933
v -7.43262 -53.71022 2.169932
v -5.982957 -51.79191 2.89933
v -8.004486 -52.74157 0.4514083
v -8.004486 -52.74157 0.4514083
v -5.982957 -51.79191 2.89933
v -7.002024 -51.29967 0.8601382
v -7.002024 -51.29967 0.8601382
v -5.982957 -51.79191 2.89933
v -5.866135 -50.51545 2.027798
v -6.526567 -52.01943 -0.5883327
v -6.151448 -51.63919 -0.1566595
v -6.68376 -52.27309 -0.7103037
v -6.68376 -52.27309 -0.7103037
v -6.151448 -51.63919 -0.1566595
v -6.722394 -52.44129 -0.6741512
v -6.722394 -52.44129 -0.6741512
v -6.151448 -51.63919 -0.1566595
v -6.081774 -53.45129 1.099648
v -6.081774 -53.45129 1.099648
v -6.151448 -51.63919 -0.1566595
v -5.251799 -52.60542 2.051894
v -5.251799 -52.60542 2.051894
v -6.151448 -51.63919 -0.1566595
v -5.226969 -51.7415 1.556503
v -7.237911 -53.76173 2.194569
v -6.081774 -53.45129 1.099648
v -5.664698 -52.59981 2.76794
v -5.664698 -52.59981 2.76794
v -6.081774 -53.45129 1.099648
v -5.251799 -52.60542 2.051894
v -6.754669 -51.61937 -0.5121355
v -6.796404 -51.36114 0.1649248
v -6.686568 -51.61329 -0.55523
v -6.686568 -51.61329 -0.55523
v -6.796404 -51.36114 0.1649248
v -6.066588 -51.13601 0.1004415
v -6.066588 -51.13601 0.1004415
v -6.796404 -51.36114 0.1649248
v -5.69736 -50.69577 0.8783819
v -7.002024 -51.29967 0.8601382
v -6.796404 -51.36114 0.1649248
v -8.004486 -52.74157 0.4514083
v -8.004486 -52.74157 0.4514083
v -6.796404 -51.36114 0.1649248
v -7.237048 -52.31659 -0.7162095
v -7.237048 -52.31659 -0.7162095
v -6.796404 -51.36114 0.1649248
v -6.971395 -52.01168 -0.77625
v -6.971395 -52.01168 -0.77625
v -6.796404 -51.36114 0.1649248
v -6.754669 -51.61937 -0.5121355
v -7.237911 -53.76173 2.194569
v -7.43262 -53.71022 2.169932
v -6.081774 -53.45129 1.099648
v -6.081774 -53.45129 1.099648
v -7.43262 -53.71022 2.169932
v -6.722394 -52.44129 -0.6741512
v -6.722394 -52.44129 -0.6741512
v -7.43262 -53.71022 2.169932
v -7.237048 -52.31659 -0.7162095
v -7.237048 -52.31659 -0.7162095
v -7.43262 -53.71022 2.169932
v -8.004486 -52.74157 0.4514083
v -7.237048 -52.31659 -0.7162095
v -6.971395 -52.01168 -0.77625
v -6.722394 -52.44129 -0.6741512
v -6.722394 -52.44129 -0.6741512
v -6.971395 -52.01168 -0.77625
v -6.68376 -52.27309 -0.7103037
v -6.68376 -52.27309 -0.7103037
v -6.971395 -52.01168 -0.77625
v -6.720305 -52.07123 -0.7560177
v -6.720305 -52.07123 -0.7560177
v -6.971395 -52.01168 -0.77625
v -6.834665 -51.93191 -0.7900723
v -6.754669 -51.61937 -0.5121355
v -6.686568 -51.61329 -0.55523
v -6.971395 -52.01168 -0.77625
v -6.971395 -52.01168 -0.77625
v -6.686568 -51.61329 -0.55523
v -6.834665 -51.93191 -0.7900723
v -6.68376 -52.27309 -0.7103037
v -6.720305 -52.07123 -0.7560177
v -6.526567 -52.01943 -0.5883327
v -6.834665 -51.93191 -0.7900723
v -6.686568 -51.61329 -0.55523
v -6.720305 -52.07123 -0.7560177
v -6.720305 -52.07123 -0.7560177
v -6.686568 -51.61329 -0.55523
v -6.526567 -52.01943 -0.5883327
v -6.526567 -52.01943 -0.5883327
v -6.686568 -51.61329 -0.55523
v -6.151448 -51.63919 -0.1566595
v -6.151448 -51.63919 -0.1566595
v -6.686568 -51.61329 -0.55523
v -6.066588 -51.13601 0.1004415
v -7.002024 -51.29967 0.8601382
v -5.866135 -50.51545 2.027798
v -6.796404 -51.36114 0.1649248
v -6.796404 -51.36114 0.1649248
v -5.866135 -50.51545 2.027798
v -5.69736 -50.69577 0.8783819
v -5.69736 -50.69577 0.8783819
v -5.866135 -50.51545 2.027798
v -5.515067 -50.52795 1.25281
v -5.515067 -50.52795 1.25281
v -5.866135 -50.51545 2.027798
v -5.500372 -50.49287 1.379047
v -5.515067 -50.52795 1.25281
v -5.473363 -50.50096 1.336248
v -5.69736 -50.69577 0.8783819
v -5.69736 -50.69577 0.8783819
v -5.473363 -50.50096 1.336248
v -6.066588 -51.13601 0.1004415
v -6.066588 -51.13601 0.1004415
v -5.473363 -50.50096 1.336248
v -6.151448 -51.63919 -0.1566595
v -6.151448 -51.63919 -0.1566595
v -5.473363 -50.50096 1.336248
v -5.226969 -51.7415 1.556503
v -5.515067 -50.52795 1.25281
v -5.500372 -50.49287 1.379047
v -5.473363 -50.50096 1.336248
v -5.982957 -51.79191 2.89933
v -5.664698 -52.59981 2.76794
v -5.866135 -50.51545 2.027798
v -5.866135 -50.51545 2.027798
v -5.664698 -52.59981 2.76794
v -5.500372 -50.49287 1.379047
v -5.500372 -50.49287 1.379047
v -5.664698 -52.59981 2.76794
v -5.473363 -50.50096 1.336248
v -5.473363 -50.50096 1.336248
v -5.664698 -52.59981 2.76794
v -5.226969 -51.7415 1.556503
v -5.226969 -51.7415 1.556503
v -5.664698 -52.59981 2.76794
v -5.251799 -52.60542 2.051894

vn -0.1811201 -0.2269734 0.956911
vn -0.1811201 -0.2269734 0.956911
vn -0.1811201 -0.2269734 0.956911
vn -0.1811201 -0.2269734 0.956911
vn -0.1811201 -0.2269734 0.956911
vn -0.1811201 -0.2269734 0.956911
vn -0.7764208 0.4022832 0.4851174
vn -0.7764208 0.4022832 0.4851174
vn -0.7764208 0.4022832 0.4851174
vn -0.7764208 0.4022832 0.4851174
vn -0.7764208 0.4022832 0.4851174
vn -0.7764208 0.4022832 0.4851174
vn -0.7764208 0.4022832 0.4851174
vn -0.7764208 0.4022832 0.4851174
vn -0.7764208 0.4022832 0.4851174
vn 0.8342527 -0.2921284 -0.4676362
vn 0.8342527 -0.2921284 -0.4676362
vn 0.8342527 -0.2921284 -0.4676362
vn 0.8342527 -0.2921284 -0.4676362
vn 0.8342527 -0.2921284 -0.4676362
vn 0.8342527 -0.2921284 -0.4676362
vn 0.8342527 -0.2921284 -0.4676362
vn 0.8342527 -0.2921284 -0.4676362
vn 0.8342527 -0.2921284 -0.4676362
vn 0.8342527 -0.2921284 -0.4676362
vn 0.8342527 -0.2921284 -0.4676362
vn 0.8342527 -0.2921284 -0.4676362
vn 0.8342527 -0.2921284 -0.4676362
vn 0.8342527 -0.2921284 -0.4676362
vn 0.8342527 -0.2921284 -0.4676362
vn 0.4966997 -0.8170285 0.2928377
vn 0.4966997 -0.8170285 0.2928377
vn 0.4966997 -0.8170285 0.2928377
vn 0.4966997 -0.8170285 0.2928377
vn 0.4966997 -0.8170285 0.2928377
vn 0.4966997 -0.8170285 0.2928377
vn -0.3040448 0.883725 -0.3557905
vn -0.3040448 0.883725 -0.3557905
vn -0.3040448 0.883725 -0.3557905
vn -0.3040448 0.883725 -0.3557905
vn -0.3040448 0.883725 -0.3557905
vn -0.3040448 0.883725 -0.3557905
vn -0.3040448 0.883725 -0.3557905
vn -0.3040448 0.883725 -0.3557905
vn -0.3040448 0.883725 -0.3557905
vn -0.7510466 0.6001629 -0.2751974
vn -0.7510466 0.6001629 -0.2751974
vn -0.7510466 0.6001629 -0.2751974
vn -0.7510466 0.6001629 -0.2751974
vn -0.7510466 0.6001629 -0.2751974
vn -0.7510466 0.6001629 -0.2751974
vn -0.7510466 0.6001629 -0.2751974
vn -0.7510466 0.6001629 -0.2751974
vn -0.7510466 0.6001629 -0.2751974
vn -0.7510466 0.6001629 -0.2751974
vn -0.7510466 0.6001629 -0.2751974
vn -0.7510466 0.6001629 -0.2751974
vn -0.1777919 -0.8813918 -0.4376512
vn -0.1777919 -0.8813918 -0.4376512
vn -0.1777919 -0.8813918 -0.4376512
vn -0.1777919 -0.8813918 -0.4376512
vn -0.1777919 -0.8813918 -0.4376512
vn -0.1777919 -0.8813918 -0.4376512
vn -0.1777919 -0.8813918 -0.4376512
vn -0.1777919 -0.8813918 -0.4376512
vn -0.1777919 -0.8813918 -0.4376512
vn -0.1777919 -0.8813918 -0.4376512
vn -0.1777919 -0.8813918 -0.4376512
vn -0.1777919 -0.8813918 -0.4376512
vn 0.02740888 -0.2160773 -0.9759915
vn 0.02740888 -0.2160773 -0.9759915
vn 0.02740888 -0.2160773 -0.9759915
vn 0.02740888 -0.2160773 -0.9759915
vn 0.02740888 -0.2160773 -0.9759915
vn 0.02740888 -0.2160773 -0.9759915
vn 0.02740888 -0.2160773 -0.9759915
vn 0.02740888 -0.2160773 -0.9759915
vn 0.02740888 -0.2160773 -0.9759915
vn 0.02740888 -0.2160773 -0.9759915
vn 0.02740888 -0.2160773 -0.9759915
vn 0.02740888 -0.2160773 -0.9759915
vn -0.4444936 0.656102 -0.6098816
vn -0.4444936 0.656102 -0.6098816
vn -0.4444936 0.656102 -0.6098816
vn -0.4444936 0.656102 -0.6098816
vn -0.4444936 0.656102 -0.6098816
vn -0.4444936 0.656102 -0.6098816
vn 0.6612176 -0.04982884 -0.7485375
vn 0.6612176 -0.04982884 -0.7485375
vn 0.6612176 -0.04982884 -0.7485375
vn 0.580584 0.2906628 -0.7605507
vn 0.580584 0.2906628 -0.7605507
vn 0.580584 0.2906628 -0.7605507
vn 0.580584 0.2906628 -0.7605507
vn 0.580584 0.2906628 -0.7605507
vn 0.580584 0.2906628 -0.7605507
vn 0.580584 0.2906628 -0.7605507
vn 0.580584 0.2906628 -0.7605507
vn 0.580584 0.2906628 -0.7605507
vn 0.580584 0.2906628 -0.7605507
vn 0.580584 0.2906628 -0.7605507
vn 0.580584 0.2906628 -0.7605507
vn -0.4092969 0.8902658 -0.1997572
vn -0.4092969 0.8902658 -0.1997572
vn -0.4092969 0.8902658 -0.1997572
vn -0.4092969 0.8902658 -0.1997572
vn -0.4092969 0.8902658 -0.1997572
vn -0.4092969 0.8902658 -0.1997572
vn -0.4092969 0.8902658 -0.1997572
vn -0.4092969 0.8902658 -0.1997572
vn -0.4092969 0.8902658 -0.1997572
vn -0.4092969 0.8902658 -0.1997572
vn -0.4092969 0.8902658 -0.1997572
vn -0.4092969 0.8902658 -0.1997572
vn 0.8786336 0.09129848 -0.468687
vn 0.8786336 0.09129848 -0.468687
vn 0.8786336 0.09129848 -0.468687
vn 0.8786336 0.09129848 -0.468687
vn 0.8786336 0.09129848 -0.468687
vn 0.8786336 0.09129848 -0.468687
vn 0.8786336 0.09129848 -0.468687
vn 0.8786336 0.09129848 -0.468687
vn 0.8786336 0.09129848 -0.468687
vn 0.8786336 0.09129848 -0.468687
vn 0.8786336 0.09129848 -0.468687
vn 0.8786336 0.09129848 -0.468687
vn -0.114204 0.9605368 -0.2536268
vn -0.114204 0.9605368 -0.2536268
vn -0.114204 0.9605368 -0.2536268
vn 0.8391467 0.2522298 0.481885
vn 0.8391467 0.2522298 0.481885
vn 0.8391467 0.2522298 0.481885
vn 0.8391467 0.2522298 0.481885
vn 0.8391467 0.2522298 0.481885
vn 0.8391467 0.2522298 0.481885
vn 0.8391467 0.2522298 0.481885
vn 0.8391467 0.2522298 0.481885
vn 0.8391467 0.2522298 0.481885
vn 0.8391467 0.2522298 0.481885
vn 0.8391467 0.2522298 0.481885
vn 0.8391467 0.2522298 0.481885
vn 0.8391467 0.2522298 0.481885
vn 0.8391467 0.2522298 0.481885
vn 0.8391467 0.2522298 0.481885

vt 0.4135602 0.4752055
vt 0.5262474 0.3324641
vt 0.4175231 0.4928729
vt 0.4175231 0.4928729
vt 0.5262474 0.3324641
vt 0.5990872 0.3613402
vt 0.3604973 0.3710354
vt 0.5983515 0.2873268
vt 0.4204102 0.5682554
vt 0.4204102 0.5682554
vt 0.5983515 0.2873268
vt 0.5951663 0.5213532
vt 0.5951663 0.5213532
vt 0.5983515 0.2873268
vt 0.7174788 0.3873478
vt 0.4464271 0.6080048
vt 0.3984912 0.5595194
vt 0.4753545 0.6217048
vt 0.4753545 0.6217048
vt 0.3984912 0.5595194
vt 0.492384 0.6176441
vt 0.492384 0.6176441
vt 0.3984912 0.5595194
vt 0.5659968 0.4184218
vt 0.5659968 0.4184218
vt 0.3984912 0.5595194
vt 0.4595078 0.3114717
vt 0.4595078 0.3114717
vt 0.3984912 0.5595194
vt 0.3777457 0.3671098
vt 0.6032038 0.3816527
vt 0.4977485 0.4867447
vt 0.4244383 0.3266199
vt 0.4244383 0.3266199
vt 0.4977485 0.4867447
vt 0.3923304 0.3953433
vt 0.5200447 0.5690377
vt 0.5242264 0.5010128
vt 0.5262846 0.5733684
vt 0.5262846 0.5733684
vt 0.5242264 0.5010128
vt 0.5959114 0.5074949
vt 0.5959114 0.5074949
vt 0.5242264 0.5010128
vt 0.6421337 0.4293324
vt 0.5693496 0.4526485
vt 0.5766886 0.518643
vt 0.4094111 0.4914573
vt 0.4094111 0.4914573
vt 0.5766886 0.518643
vt 0.4834524 0.6023051
vt 0.4834524 0.6023051
vt 0.5766886 0.518643
vt 0.5203334 0.6080048
vt 0.5203334 0.6080048
vt 0.5766886 0.518643
vt 0.560651 0.5829239
vt 0.531556 0.3058511
vt 0.5511793 0.3085287
vt 0.4269342 0.4246944
vt 0.4269342 0.4246944
vt 0.5511793 0.3085287
vt 0.5077138 0.6172343
vt 0.5077138 0.6172343
vt 0.5511793 0.3085287
vt 0.5593565 0.6217979
vt 0.5593565 0.6217979
vt 0.5511793 0.3085287
vt 0.6245779 0.4950616
vt 0.4431069 0.4989359
vt 0.4158327 0.4756059
vt 0.4545903 0.4537381
vt 0.4545903 0.4537381
vt 0.4158327 0.4756059
vt 0.4394887 0.4503481
vt 0.4394887 0.4503481
vt 0.4158327 0.4756059
vt 0.4213183 0.4535519
vt 0.4213183 0.4535519
vt 0.4158327 0.4756059
vt 0.4087313 0.4635917
vt 0.5489441 0.5440592
vt 0.5555659 0.5500849
vt 0.5047055 0.5809681
vt 0.5047055 0.5809681
vt 0.5555659 0.5500849
vt 0.5221961 0.582896
vt 0.4645137 0.6207455
vt 0.4382407 0.6298726
vt 0.4294768 0.5964004
vt 0.4156511 0.6113017
vt 0.3861044 0.5624252
vt 0.4394095 0.6042143
vt 0.4394095 0.6042143
vt 0.3861044 0.5624252
vt 0.4448765 0.569317
vt 0.4448765 0.569317
vt 0.3861044 0.5624252
vt 0.421621 0.4794617
vt 0.421621 0.4794617
vt 0.3861044 0.5624252
vt 0.365941 0.4259424
vt 0.5188991 0.4560572
vt 0.6406621 0.3493306
vt 0.5333349 0.519593
vt 0.5333349 0.519593
vt 0.6406621 0.3493306
vt 0.6476565 0.4543901
vt 0.6476565 0.4543901
vt 0.6406621 0.3493306
vt 0.6687606 0.4201681
vt 0.6687606 0.4201681
vt 0.6406621 0.3493306
vt 0.6712659 0.4086288
vt 0.3126173 0.3815269
vt 0.3103774 0.3721437
vt 0.3273278 0.4236327
vt 0.3273278 0.4236327
vt 0.3103774 0.3721437
vt 0.3670399 0.5111178
vt 0.3670399 0.5111178
vt 0.3103774 0.3721437
vt 0.4158886 0.5400265
vt 0.4158886 0.5400265
vt 0.3103774 0.3721437
vt 0.4354886 0.3473701
vt 0.6249505 0.4014203
vt 0.6266549 0.3895783
vt 0.6289925 0.393597
vt 0.4474982 0.3417122
vt 0.5341544 0.3567207
vt 0.3284407 0.4413234
vt 0.3284407 0.4413234
vt 0.5341544 0.3567207
vt 0.3368181 0.5154672
vt 0.3368181 0.5154672
vt 0.5341544 0.3567207
vt 0.3383687 0.520366
vt 0.3383687 0.520366
vt 0.5341544 0.3567207
vt 0.4644532 0.495192
vt 0.4644532 0.495192
vt 0.5341544 0.3567207
vt 0.5466064 0.4385713

usemtl Material0
usemap Material0

usemtl Material1
usemap Material1
f 1/1/1 2/2/2 3/3/3
f 4/4/4 5/5/5 6/6/6
f 7/7/7 8/8/8 9/9/9
f 10/10/10 11/11/11 12/12/12
f 13/13/13 14/14/14 15/15/15
f 16/16/16 17/17/17 18/18/18
f 19/19/19 20/20/20 21/21/21
f 22/22/22 23/23/23 24/24/24
f 25/25/25 26/26/26 27/27/27
f 28/28/28 29/29/29 30/30/30
f 31/31/31 32/32/32 33/33/33
f 34/34/34 35/35/35 36/36/36
f 37/37/37 38/38/38 39/39/39
f 40/40/40 41/41/41 42/42/42
f 43/43/43 44/44/44 45/45/45
f 46/46/46 47/47/47 48/48/48
f 49/49/49 50/50/50 51/51/51
f 52/52/52 53/53/53 54/54/54
f 55/55/55 56/56/56 57/57/57
f 58/58/58 59/59/59 60/60/60
f 61/61/61 62/62/62 63/63/63
f 64/64/64 65/65/65 66/66/66
f 67/67/67 68/68/68 69/69/69
f 70/70/70 71/71/71 72/72/72
f 73/73/73 74/74/74 75/75/75
f 76/76/76 77/77/77 78/78/78
f 79/79/79 80/80/80 81/81/81
f 82/82/82 83/83/83 84/84/84
f 85/85/85 86/86/86 87/87/87
f 88/88/88 89/89/89 90/90/90
f 91/91/91 92/92/92 93/93/93
f 94/94/94 95/95/95 96/96/96
f 97/97/97 98/98/98 99/99/99
f 100/100/100 101/101/101 102/102/102
f 103/103/103 104/104/104 105/105/105
f 106/106/106 107/107/107 108/108/108
f 109/109/109 110/110/110 111/111/111
f 112/112/112 113/113/113 114/114/114
f 115/115/115 116/116/116 117/117/117
f 118/118/118 119/119/119 120/120/120
f 121/121/121 122/122/122 123/123/123
f 124/124/124 125/125/125 126/126/126
f 127/127/127 128/128/128 129/129/129
f 130/130/130 131/131/131 132/132/132
f 133/133/133 134/134/134 135/135/135
f 136/136/136 137/137/137 138/138/138
f 139/139/139 140/140/140 141/141/141
f 142/142/142 143/143/143 144/144/144
