g  Instance
v 5.014414 -52.277 2.852298
v 4.849585 -52.01229 3.054947
v 5.297017 -51.97199 2.866933
v 5.014414 -52.277 2.852298
v 5.25748 -52.74125 2.767569
v 4.849585 -52.01229 3.054947
v 4.849585 -52.01229 3.054947
v 5.25748 -52.74125 2.767569
v 4.524035 -51.89133 4.619331
v 4.524035 -51.89133 4.619331
v 5.25748 -52.74125 2.767569
v 4.729557 -52.67933 5.693275
v 4.729557 -52.67933 5.693275
v 5.25748 -52.74125 2.767569
v 5.189673 -53.5697 5.566319
v 5.189673 -53.5697 5.566319
v 5.25748 -52.74125 2.767569
v 5.801412 -54.44677 4.509027
v 5.801412 -54.44677 4.509027
v 5.25748 -52.74125 2.767569
v 5.563139 -53.37055 2.792785
v 6.106583 -51.96901 2.792232
v 5.991645 -51.88425 2.814247
v 6.320015 -51.76114 3.564927
v 5.297017 -51.97199 2.866933
v 5.991645 -51.88425 2.814247
v 5.014414 -52.277 2.852298
v 5.014414 -52.277 2.852298
v 5.991645 -51.88425 2.814247
v 5.25748 -52.74125 2.767569
v 5.25748 -52.74125 2.767569
v 5.991645 -51.88425 2.814247
v 6.129303 -52.4704 2.72297
v 6.129303 -52.4704 2.72297
v 5.991645 -51.88425 2.814247
v 6.106583 -51.96901 2.792232
v 5.563139 -53.37055 2.792785
v 6.166074 -52.82894 2.741958
v 5.801412 -54.44677 4.509027
v 5.801412 -54.44677 4.509027
v 6.166074 -52.82894 2.741958
v 6.195105 -54.26718 4.710064
v 6.195105 -54.26718 4.710064
v 6.166074 -52.82894 2.741958
v 6.890885 -53.81035 4.87772
v 6.106583 -51.96901 2.792232
v 6.320015 -51.76114 3.564927
v 6.129303 -52.4704 2.72297
v 6.129303 -52.4704 2.72297
v 6.320015 -51.76114 3.564927
v 6.166074 -52.82894 2.741958
v 6.166074 -52.82894 2.741958
v 6.320015 -51.76114 3.564927
v 6.890885 -53.81035 4.87772
v 6.890885 -53.81035 4.87772
v 6.320015 -51.76114 3.564927
v 7.047948 -53.42756 5.512853
v 7.047948 -53.42756 5.512853
v 6.320015 -51.76114 3.564927
v 6.850627 -51.49533 5.413294
v 4.856413 -52.71836 5.92756
v 5.074789 -52.28275 5.849141
v 4.729557 -52.67933 5.693275
v 4.729557 -52.67933 5.693275
v 5.074789 -52.28275 5.849141
v 4.524035 -51.89133 4.619331
v 4.524035 -51.89133 4.619331
v 5.074789 -52.28275 5.849141
v 5.199524 -51.70868 5.492745
v 5.721825 -51.62064 5.662848
v 6.850627 -51.49533 5.413294
v 5.199524 -51.70868 5.492745
v 5.199524 -51.70868 5.492745
v 6.850627 -51.49533 5.413294
v 4.524035 -51.89133 4.619331
v 4.524035 -51.89133 4.619331
v 6.850627 -51.49533 5.413294
v 4.849585 -52.01229 3.054947
v 4.849585 -52.01229 3.054947
v 6.850627 -51.49533 5.413294
v 5.297017 -51.97199 2.866933
v 5.297017 -51.97199 2.866933
v 6.850627 -51.49533 5.413294
v 5.991645 -51.88425 2.814247
v 5.991645 -51.88425 2.814247
v 6.850627 -51.49533 5.413294
v 6.320015 -51.76114 3.564927
v 5.074789 -52.28275 5.849141
v 4.856413 -52.71836 5.92756
v 5.721825 -51.62064 5.662848
v 5.721825 -51.62064 5.662848
v 4.856413 -52.71836 5.92756
v 6.850627 -51.49533 5.413294
v 6.850627 -51.49533 5.413294
v 4.856413 -52.71836 5.92756
v 7.047948 -53.42756 5.512853
v 7.047948 -53.42756 5.512853
v 4.856413 -52.71836 5.92756
v 6.81776 -53.52638 5.56911
v 6.81776 -53.52638 5.56911
v 4.856413 -52.71836 5.92756
v 5.174855 -53.28726 5.901433
v 7.047948 -53.42756 5.512853
v 6.81776 -53.52638 5.56911
v 6.890885 -53.81035 4.87772
v 6.890885 -53.81035 4.87772
v 6.81776 -53.52638 5.56911
v 6.195105 -54.26718 4.710064
v 4.729557 -52.67933 5.693275
v 5.189673 -53.5697 5.566319
v 4.856413 -52.71836 5.92756
v 4.856413 -52.71836 5.92756
v 5.189673 -53.5697 5.566319
v 5.174855 -53.28726 5.901433
v 5.174855 -53.28726 5.901433
v 5.189673 -53.5697 5.566319
v 6.81776 -53.52638 5.56911
v 6.81776 -53.52638 5.56911
v 5.189673 -53.5697 5.566319
v 6.195105 -54.26718 4.710064
v 6.195105 -54.26718 4.710064
v 5.189673 -53.5697 5.566319
v 5.801412 -54.44677 4.509027
v 6.166074 -52.82894 2.741958
v 5.563139 -53.37055 2.792785
v 6.129303 -52.4704 2.72297
v 6.129303 -52.4704 2.72297
v 5.563139 -53.37055 2.792785
v 5.25748 -52.74125 2.767569
v 5.199524 -51.70868 5.492745
v 5.074789 -52.28275 5.849141
v 5.721825 -51.62064 5.662848

vn -0.385691 0.3973136 -0.8326971
vn -0.385691 0.3973136 -0.8326971
vn -0.385691 0.3973136 -0.8326971
vn -0.8868374 -0.4367898 -0.1507784
vn -0.8868374 -0.4367898 -0.1507784
vn -0.8868374 -0.4367898 -0.1507784
vn -0.8868374 -0.4367898 -0.1507784
vn -0.8868374 -0.4367898 -0.1507784
vn -0.8868374 -0.4367898 -0.1507784
vn -0.8868374 -0.4367898 -0.1507784
vn -0.8868374 -0.4367898 -0.1507784
vn -0.8868374 -0.4367898 -0.1507784
vn -0.8868374 -0.4367898 -0.1507784
vn -0.8868374 -0.4367898 -0.1507784
vn -0.8868374 -0.4367898 -0.1507784
vn -0.8868374 -0.4367898 -0.1507784
vn -0.8868374 -0.4367898 -0.1507784
vn -0.8868374 -0.4367898 -0.1507784
vn -0.8868374 -0.4367898 -0.1507784
vn -0.8868374 -0.4367898 -0.1507784
vn -0.8868374 -0.4367898 -0.1507784
vn 0.5108895 0.784234 -0.3520924
vn 0.5108895 0.784234 -0.3520924
vn 0.5108895 0.784234 -0.3520924
vn -0.0915615 0.1321916 -0.9869863
vn -0.0915615 0.1321916 -0.9869863
vn -0.0915615 0.1321916 -0.9869863
vn -0.0915615 0.1321916 -0.9869863
vn -0.0915615 0.1321916 -0.9869863
vn -0.0915615 0.1321916 -0.9869863
vn -0.0915615 0.1321916 -0.9869863
vn -0.0915615 0.1321916 -0.9869863
vn -0.0915615 0.1321916 -0.9869863
vn -0.0915615 0.1321916 -0.9869863
vn -0.0915615 0.1321916 -0.9869863
vn -0.0915615 0.1321916 -0.9869863
vn 0.5570158 -0.6666068 -0.4953471
vn 0.5570158 -0.6666068 -0.4953471
vn 0.5570158 -0.6666068 -0.4953471
vn 0.5570158 -0.6666068 -0.4953471
vn 0.5570158 -0.6666068 -0.4953471
vn 0.5570158 -0.6666068 -0.4953471
vn 0.5570158 -0.6666068 -0.4953471
vn 0.5570158 -0.6666068 -0.4953471
vn 0.5570158 -0.6666068 -0.4953471
vn 0.9546626 0.08275378 -0.2859566
vn 0.9546626 0.08275378 -0.2859566
vn 0.9546626 0.08275378 -0.2859566
vn 0.9546626 0.08275378 -0.2859566
vn 0.9546626 0.08275378 -0.2859566
vn 0.9546626 0.08275378 -0.2859566
vn 0.9546626 0.08275378 -0.2859566
vn 0.9546626 0.08275378 -0.2859566
vn 0.9546626 0.08275378 -0.2859566
vn 0.9546626 0.08275378 -0.2859566
vn 0.9546626 0.08275378 -0.2859566
vn 0.9546626 0.08275378 -0.2859566
vn 0.9546626 0.08275378 -0.2859566
vn 0.9546626 0.08275378 -0.2859566
vn 0.9546626 0.08275378 -0.2859566
vn -0.7461532 0.4605858 0.4807455
vn -0.7461532 0.4605858 0.4807455
vn -0.7461532 0.4605858 0.4807455
vn -0.7461532 0.4605858 0.4807455
vn -0.7461532 0.4605858 0.4807455
vn -0.7461532 0.4605858 0.4807455
vn -0.7461532 0.4605858 0.4807455
vn -0.7461532 0.4605858 0.4807455
vn -0.7461532 0.4605858 0.4807455
vn -0.1323764 0.9857538 -0.1037594
vn -0.1323764 0.9857538 -0.1037594
vn -0.1323764 0.9857538 -0.1037594
vn -0.1323764 0.9857538 -0.1037594
vn -0.1323764 0.9857538 -0.1037594
vn -0.1323764 0.9857538 -0.1037594
vn -0.1323764 0.9857538 -0.1037594
vn -0.1323764 0.9857538 -0.1037594
vn -0.1323764 0.9857538 -0.1037594
vn -0.1323764 0.9857538 -0.1037594
vn -0.1323764 0.9857538 -0.1037594
vn -0.1323764 0.9857538 -0.1037594
vn -0.1323764 0.9857538 -0.1037594
vn -0.1323764 0.9857538 -0.1037594
vn -0.1323764 0.9857538 -0.1037594
vn -0.1323764 0.9857538 -0.1037594
vn -0.1323764 0.9857538 -0.1037594
vn -0.1323764 0.9857538 -0.1037594
vn 0.2077414 0.07147621 0.9755689
vn 0.2077414 0.07147621 0.9755689
vn 0.2077414 0.07147621 0.9755689
vn 0.2077414 0.07147621 0.9755689
vn 0.2077414 0.07147621 0.9755689
vn 0.2077414 0.07147621 0.9755689
vn 0.2077414 0.07147621 0.9755689
vn 0.2077414 0.07147621 0.9755689
vn 0.2077414 0.07147621 0.9755689
vn 0.2077414 0.07147621 0.9755689
vn 0.2077414 0.07147621 0.9755689
vn 0.2077414 0.07147621 0.9755689
vn 0.2077414 0.07147621 0.9755689
vn 0.2077414 0.07147621 0.9755689
vn 0.2077414 0.07147621 0.9755689
vn 0.4418043 -0.8124655 0.3804061
vn 0.4418043 -0.8124655 0.3804061
vn 0.4418043 -0.8124655 0.3804061
vn 0.4418043 -0.8124655 0.3804061
vn 0.4418043 -0.8124655 0.3804061
vn 0.4418043 -0.8124655 0.3804061
vn -0.8072598 -0.4683903 0.3590852
vn -0.8072598 -0.4683903 0.3590852
vn -0.8072598 -0.4683903 0.3590852
vn -0.8072598 -0.4683903 0.3590852
vn -0.8072598 -0.4683903 0.3590852
vn -0.8072598 -0.4683903 0.3590852
vn 0.01923352 -0.7640304 0.6448935
vn 0.01923352 -0.7640304 0.6448935
vn 0.01923352 -0.7640304 0.6448935
vn 0.01923352 -0.7640304 0.6448935
vn 0.01923352 -0.7640304 0.6448935
vn 0.01923352 -0.7640304 0.6448935
vn 0.01923352 -0.7640304 0.6448935
vn 0.01923352 -0.7640304 0.6448935
vn 0.01923352 -0.7640304 0.6448935
vn -0.03356276 -0.05628726 -0.9978504
vn -0.03356276 -0.05628726 -0.9978504
vn -0.03356276 -0.05628726 -0.9978504
vn -0.03356276 -0.05628726 -0.9978504
vn -0.03356276 -0.05628726 -0.9978504
vn -0.03356276 -0.05628726 -0.9978504
vn -0.3411194 0.5481986 0.7636203
vn -0.3411194 0.5481986 0.7636203
vn -0.3411194 0.5481986 0.7636203

vt 0.4581992 0.4085962
vt 0.4686768 0.3505972
vt 0.5240029 0.4044099
vt 0.5927262 0.5565112
vt 0.5462246 0.5641202
vt 0.6202752 0.5383129
vt 0.6202752 0.5383129
vt 0.5462246 0.5641202
vt 0.6426739 0.3978393
vt 0.6426739 0.3978393
vt 0.5462246 0.5641202
vt 0.5718643 0.301404
vt 0.5718643 0.301404
vt 0.5462246 0.5641202
vt 0.4829123 0.3128082
vt 0.4829123 0.3128082
vt 0.5462246 0.5641202
vt 0.3890707 0.4077487
vt 0.3890707 0.4077487
vt 0.5462246 0.5641202
vt 0.4841183 0.561857
vt 0.4563738 0.5416843
vt 0.4430091 0.5394771
vt 0.462502 0.4642809
vt 0.4311858 0.4961978
vt 0.4241356 0.4347249
vt 0.457999 0.5212135
vt 0.457999 0.5212135
vt 0.4241356 0.4347249
vt 0.4995413 0.4996996
vt 0.4995413 0.4996996
vt 0.4241356 0.4347249
vt 0.4764022 0.4225477
vt 0.4764022 0.4225477
vt 0.4241356 0.4347249
vt 0.4317958 0.4245547
vt 0.5637709 0.5684416
vt 0.481953 0.5743556
vt 0.6150131 0.3688654
vt 0.6150131 0.3688654
vt 0.481953 0.5743556
vt 0.5728608 0.3454888
vt 0.5728608 0.3454888
vt 0.481953 0.5743556
vt 0.4893338 0.3259913
vt 0.4118326 0.5657687
vt 0.3945563 0.4919229
vt 0.4577568 0.5723812
vt 0.4577568 0.5723812
vt 0.3945563 0.4919229
vt 0.4907588 0.570565
vt 0.4907588 0.570565
vt 0.3945563 0.4919229
vt 0.5860299 0.3664532
vt 0.5860299 0.3664532
vt 0.3945563 0.4919229
vt 0.5523528 0.305758
vt 0.5523528 0.305758
vt 0.3945563 0.4919229
vt 0.3745 0.3152809
vt 0.4574868 0.3485017
vt 0.5060653 0.3574519
vt 0.4541433 0.3752404
vt 0.4541433 0.3752404
vt 0.5060653 0.3574519
vt 0.5104426 0.497809
vt 0.5104426 0.497809
vt 0.5060653 0.3574519
vt 0.5615078 0.398128
vt 0.4887611 0.3057487
vt 0.5889357 0.3278866
vt 0.4420592 0.320841
vt 0.4420592 0.320841
vt 0.5889357 0.3278866
vt 0.380847 0.3983189
vt 0.380847 0.3983189
vt 0.5889357 0.3278866
vt 0.4078884 0.5370928
vt 0.4078884 0.5370928
vt 0.5889357 0.3278866
vt 0.4474889 0.553773
vt 0.4474889 0.553773
vt 0.5889357 0.3278866
vt 0.5092598 0.5584484
vt 0.5092598 0.5584484
vt 0.5889357 0.3278866
vt 0.5394165 0.4918484
vt 0.5483853 0.5586439
vt 0.5088966 0.5786677
vt 0.6088477 0.4992991
vt 0.6088477 0.4992991
vt 0.5088966 0.5786677
vt 0.6217001 0.3957717
vt 0.6217001 0.3957717
vt 0.5088966 0.5786677
vt 0.4481687 0.3776805
vt 0.4481687 0.3776805
vt 0.5088966 0.5786677
vt 0.4389578 0.3987893
vt 0.4389578 0.3987893
vt 0.5088966 0.5786677
vt 0.4581713 0.5494609
vt 0.4369694 0.3642552
vt 0.4606347 0.358481
vt 0.4674102 0.4294209
vt 0.4674102 0.4294209
vt 0.4606347 0.358481
vt 0.5461128 0.4466227
vt 0.5826492 0.3489022
vt 0.4885282 0.3616941
vt 0.5734848 0.3253021
vt 0.5734848 0.3253021
vt 0.4885282 0.3616941
vt 0.5121935 0.3279378
vt 0.5989103 0.3211204
vt 0.5980256 0.3714638
vt 0.4110224 0.3710447
vt 0.4110224 0.3710447
vt 0.5980256 0.3714638
vt 0.4846352 0.5001001
vt 0.4846352 0.5001001
vt 0.5980256 0.3714638
vt 0.5303453 0.5303034
vt 0.4827167 0.4275117
vt 0.530457 0.4804675
vt 0.4511956 0.4307341
vt 0.4511956 0.4307341
vt 0.530457 0.4804675
vt 0.4751635 0.5073273
vt 0.4929987 0.4871731
vt 0.4373839 0.4121446
vt 0.5595893 0.4513632

usemtl Material0
usemap Material0

usemtl Material1
usemap Material1
f 1/1/1 2/2/2 3/3/3
f 4/4/4 5/5/5 6/6/6
f 7/7/7 8/8/8 9/9/9
f 10/10/10 11/11/11 12/12/12
f 13/13/13 14/14/14 15/15/15
f 16/16/16 17/17/17 18/18/18
f 19/19/19 20/20/20 21/21/21
f 22/22/22 23/23/23 24/24/24
f 25/25/25 26/26/26 27/27/27
f 28/28/28 29/29/29 30/30/30
f 31/31/31 32/32/32 33/33/33
f 34/34/34 35/35/35 36/36/36
f 37/37/37 38/38/38 39/39/39
f 40/40/40 41/41/41 42/42/42
f 43/43/43 44/44/44 45/45/45
f 46/46/46 47/47/47 48/48/48
f 49/49/49 50/50/50 51/51/51
f 52/52/52 53/53/53 54/54/54
f 55/55/55 56/56/56 57/57/57
f 58/58/58 59/59/59 60/60/60
f 61/61/61 62/62/62 63/63/63
f 64/64/64 65/65/65 66/66/66
f 67/67/67 68/68/68 69/69/69
f 70/70/70 71/71/71 72/72/72
f 73/73/73 74/74/74 75/75/75
f 76/76/76 77/77/77 78/78/78
f 79/79/79 80/80/80 81/81/81
f 82/82/82 83/83/83 84/84/84
f 85/85/85 86/86/86 87/87/87
f 88/88/88 89/89/89 90/90/90
f 91/91/91 92/92/92 93/93/93
f 94/94/94 95/95/95 96/96/96
f 97/97/97 98/98/98 99/99/99
f 100/100/100 101/101/101 102/102/102
f 103/103/103 104/104/104 105/105/105
f 106/106/106 107/107/107 108/108/108
f 109/109/109 110/110/110 111/111/111
f 112/112/112 113/113/113 114/114/114
f 115/115/115 116/116/116 117/117/117
f 118/118/118 119/119/119 120/120/120
f 121/121/121 122/122/122 123/123/123
f 124/124/124 125/125/125 126/126/126
f 127/127/127 128/128/128 129/129/129
f 130/130/130 131/131/131 132/132/132
