g  Instance
v -5.84538 -47.71901 -4.977232
v -5.586448 -47.45902 -5.262456
v -5.893343 -47.74777 -4.978533
v -5.893343 -47.74777 -4.978533
v -5.586448 -47.45902 -5.262456
v -6.061807 -47.71903 -5.345268
v -6.575981 -48.88305 -4.439692
v -6.217556 -47.85897 -5.414959
v -6.40707 -49.08489 -4.458401
v -6.40707 -49.08489 -4.458401
v -6.217556 -47.85897 -5.414959
v -3.985665 -49.76663 -6.151314
v -3.985665 -49.76663 -6.151314
v -6.217556 -47.85897 -5.414959
v -3.632835 -49.03172 -6.935385
v -3.632835 -49.03172 -6.935385
v -6.217556 -47.85897 -5.414959
v -3.648055 -48.99633 -6.94478
v -6.225767 -49.16678 -4.271705
v -6.40707 -49.08489 -4.458401
v -4.44582 -49.83827 -3.784721
v -4.44582 -49.83827 -3.784721
v -6.40707 -49.08489 -4.458401
v -3.818199 -50.01019 -4.272116
v -3.818199 -50.01019 -4.272116
v -6.40707 -49.08489 -4.458401
v -3.985665 -49.76663 -6.151314
v -4.44582 -49.83827 -3.784721
v -3.981406 -49.43759 -3.315799
v -6.225767 -49.16678 -4.271705
v -6.225767 -49.16678 -4.271705
v -3.981406 -49.43759 -3.315799
v -6.3936 -48.9482 -4.22545
v -6.3936 -48.9482 -4.22545
v -3.981406 -49.43759 -3.315799
v -4.320402 -48.89049 -3.159683
v -3.981406 -49.43759 -3.315799
v -4.44582 -49.83827 -3.784721
v -3.415584 -49.55753 -3.70011
v -3.415584 -49.55753 -3.70011
v -4.44582 -49.83827 -3.784721
v -3.818199 -50.01019 -4.272116
v -2.92445 -48.27535 -5.776599
v -3.260397 -49.28475 -3.853209
v -3.632835 -49.03172 -6.935385
v -3.632835 -49.03172 -6.935385
v -3.260397 -49.28475 -3.853209
v -3.985665 -49.76663 -6.151314
v -3.985665 -49.76663 -6.151314
v -3.260397 -49.28475 -3.853209
v -3.818199 -50.01019 -4.272116
v -3.818199 -50.01019 -4.272116
v -3.260397 -49.28475 -3.853209
v -3.415584 -49.55753 -3.70011
v -4.098007 -48.62318 -3.359793
v -4.231649 -48.73094 -3.247791
v -3.260397 -49.28475 -3.853209
v -3.260397 -49.28475 -3.853209
v -4.231649 -48.73094 -3.247791
v -3.415584 -49.55753 -3.70011
v -3.415584 -49.55753 -3.70011
v -4.231649 -48.73094 -3.247791
v -3.981406 -49.43759 -3.315799
v -3.981406 -49.43759 -3.315799
v -4.231649 -48.73094 -3.247791
v -4.320402 -48.89049 -3.159683
v -6.225767 -49.16678 -4.271705
v -6.3936 -48.9482 -4.22545
v -6.40707 -49.08489 -4.458401
v -6.40707 -49.08489 -4.458401
v -6.3936 -48.9482 -4.22545
v -6.575981 -48.88305 -4.439692
v -6.575981 -48.88305 -4.439692
v -6.3936 -48.9482 -4.22545
v -6.530011 -48.88046 -4.356521
v -4.098007 -48.62318 -3.359793
v -3.260397 -49.28475 -3.853209
v -4.114016 -47.19794 -5.262465
v -4.114016 -47.19794 -5.262465
v -3.260397 -49.28475 -3.853209
v -3.54846 -47.49307 -5.800775
v -3.54846 -47.49307 -5.800775
v -3.260397 -49.28475 -3.853209
v -3.249924 -47.69016 -6.02902
v -3.249924 -47.69016 -6.02902
v -3.260397 -49.28475 -3.853209
v -2.92445 -48.27535 -5.776599
v -5.84538 -47.71901 -4.977232
v -4.231649 -48.73094 -3.247791
v -5.586448 -47.45902 -5.262456
v -5.586448 -47.45902 -5.262456
v -4.231649 -48.73094 -3.247791
v -4.274696 -47.15601 -5.356276
v -4.274696 -47.15601 -5.356276
v -4.231649 -48.73094 -3.247791
v -4.114016 -47.19794 -5.262465
v -4.114016 -47.19794 -5.262465
v -4.231649 -48.73094 -3.247791
v -4.098007 -48.62318 -3.359793
v -6.217556 -47.85897 -5.414959
v -6.575981 -48.88305 -4.439692
v -6.061807 -47.71903 -5.345268
v -6.061807 -47.71903 -5.345268
v -6.575981 -48.88305 -4.439692
v -5.893343 -47.74777 -4.978533
v -5.893343 -47.74777 -4.978533
v -6.575981 -48.88305 -4.439692
v -6.530011 -48.88046 -4.356521
v -4.114016 -47.19794 -5.262465
v -3.54846 -47.49307 -5.800775
v -4.274696 -47.15601 -5.356276
v -4.231649 -48.73094 -3.247791
v -5.84538 -47.71901 -4.977232
v -4.320402 -48.89049 -3.159683
v -4.320402 -48.89049 -3.159683
v -5.84538 -47.71901 -4.977232
v -6.3936 -48.9482 -4.22545
v -6.3936 -48.9482 -4.22545
v -5.84538 -47.71901 -4.977232
v -6.530011 -48.88046 -4.356521
v -6.530011 -48.88046 -4.356521
v -5.84538 -47.71901 -4.977232
v -5.893343 -47.74777 -4.978533
v -3.632835 -49.03172 -6.935385
v -3.648055 -48.99633 -6.94478
v -2.92445 -48.27535 -5.776599
v -2.92445 -48.27535 -5.776599
v -3.648055 -48.99633 -6.94478
v -3.249924 -47.69016 -6.02902
v -3.249924 -47.69016 -6.02902
v -3.648055 -48.99633 -6.94478
v -3.54846 -47.49307 -5.800775
v -3.54846 -47.49307 -5.800775
v -3.648055 -48.99633 -6.94478
v -4.274696 -47.15601 -5.356276
v -4.274696 -47.15601 -5.356276
v -3.648055 -48.99633 -6.94478
v -5.586448 -47.45902 -5.262456
v -5.586448 -47.45902 -5.262456
v -3.648055 -48.99633 -6.94478
v -6.061807 -47.71903 -5.345268
v -6.061807 -47.71903 -5.345268
v -3.648055 -48.99633 -6.94478
v -6.217556 -47.85897 -5.414959

vn -0.4976137 0.8165647 0.2925794
vn -0.4976137 0.8165647 0.2925794
vn -0.4976137 0.8165647 0.2925794
vn -0.4976137 0.8165647 0.2925794
vn -0.4976137 0.8165647 0.2925794
vn -0.4976137 0.8165647 0.2925794
vn -0.5949597 -0.4352592 -0.6757015
vn -0.5949597 -0.4352592 -0.6757015
vn -0.5949597 -0.4352592 -0.6757015
vn -0.5949597 -0.4352592 -0.6757015
vn -0.5949597 -0.4352592 -0.6757015
vn -0.5949597 -0.4352592 -0.6757015
vn -0.5949597 -0.4352592 -0.6757015
vn -0.5949597 -0.4352592 -0.6757015
vn -0.5949597 -0.4352592 -0.6757015
vn -0.5949597 -0.4352592 -0.6757015
vn -0.5949597 -0.4352592 -0.6757015
vn -0.5949597 -0.4352592 -0.6757015
vn -0.3292158 -0.9397174 -0.09245647
vn -0.3292158 -0.9397174 -0.09245647
vn -0.3292158 -0.9397174 -0.09245647
vn -0.3292158 -0.9397174 -0.09245647
vn -0.3292158 -0.9397174 -0.09245647
vn -0.3292158 -0.9397174 -0.09245647
vn -0.3292158 -0.9397174 -0.09245647
vn -0.3292158 -0.9397174 -0.09245647
vn -0.3292158 -0.9397174 -0.09245647
vn -0.3933494 -0.4693164 0.790581
vn -0.3933494 -0.4693164 0.790581
vn -0.3933494 -0.4693164 0.790581
vn -0.3933494 -0.4693164 0.790581
vn -0.3933494 -0.4693164 0.790581
vn -0.3933494 -0.4693164 0.790581
vn -0.3933494 -0.4693164 0.790581
vn -0.3933494 -0.4693164 0.790581
vn -0.3933494 -0.4693164 0.790581
vn 0.1826833 -0.8294712 0.52783
vn 0.1826833 -0.8294712 0.52783
vn 0.1826833 -0.8294712 0.52783
vn 0.1826833 -0.8294712 0.52783
vn 0.1826833 -0.8294712 0.52783
vn 0.1826833 -0.8294712 0.52783
vn 0.8229985 -0.5493431 -0.1445531
vn 0.8229985 -0.5493431 -0.1445531
vn 0.8229985 -0.5493431 -0.1445531
vn 0.8229985 -0.5493431 -0.1445531
vn 0.8229985 -0.5493431 -0.1445531
vn 0.8229985 -0.5493431 -0.1445531
vn 0.8229985 -0.5493431 -0.1445531
vn 0.8229985 -0.5493431 -0.1445531
vn 0.8229985 -0.5493431 -0.1445531
vn 0.8229985 -0.5493431 -0.1445531
vn 0.8229985 -0.5493431 -0.1445531
vn 0.8229985 -0.5493431 -0.1445531
vn 0.5755408 0.1260595 0.8079987
vn 0.5755408 0.1260595 0.8079987
vn 0.5755408 0.1260595 0.8079987
vn 0.5755408 0.1260595 0.8079987
vn 0.5755408 0.1260595 0.8079987
vn 0.5755408 0.1260595 0.8079987
vn 0.5755408 0.1260595 0.8079987
vn 0.5755408 0.1260595 0.8079987
vn 0.5755408 0.1260595 0.8079987
vn 0.5755408 0.1260595 0.8079987
vn 0.5755408 0.1260595 0.8079987
vn 0.5755408 0.1260595 0.8079987
vn -0.6851594 -0.6102391 0.3976996
vn -0.6851594 -0.6102391 0.3976996
vn -0.6851594 -0.6102391 0.3976996
vn -0.6851594 -0.6102391 0.3976996
vn -0.6851594 -0.6102391 0.3976996
vn -0.6851594 -0.6102391 0.3976996
vn -0.6851594 -0.6102391 0.3976996
vn -0.6851594 -0.6102391 0.3976996
vn -0.6851594 -0.6102391 0.3976996
vn 0.7018424 0.5729424 0.4232662
vn 0.7018424 0.5729424 0.4232662
vn 0.7018424 0.5729424 0.4232662
vn 0.7018424 0.5729424 0.4232662
vn 0.7018424 0.5729424 0.4232662
vn 0.7018424 0.5729424 0.4232662
vn 0.7018424 0.5729424 0.4232662
vn 0.7018424 0.5729424 0.4232662
vn 0.7018424 0.5729424 0.4232662
vn 0.7018424 0.5729424 0.4232662
vn 0.7018424 0.5729424 0.4232662
vn 0.7018424 0.5729424 0.4232662
vn -0.1404157 0.7918539 0.5943492
vn -0.1404157 0.7918539 0.5943492
vn -0.1404157 0.7918539 0.5943492
vn -0.1404157 0.7918539 0.5943492
vn -0.1404157 0.7918539 0.5943492
vn -0.1404157 0.7918539 0.5943492
vn -0.1404157 0.7918539 0.5943492
vn -0.1404157 0.7918539 0.5943492
vn -0.1404157 0.7918539 0.5943492
vn -0.1404157 0.7918539 0.5943492
vn -0.1404157 0.7918539 0.5943492
vn -0.1404157 0.7918539 0.5943492
vn -0.7069315 0.6016013 0.371919
vn -0.7069315 0.6016013 0.371919
vn -0.7069315 0.6016013 0.371919
vn -0.7069315 0.6016013 0.371919
vn -0.7069315 0.6016013 0.371919
vn -0.7069315 0.6016013 0.371919
vn -0.7069315 0.6016013 0.371919
vn -0.7069315 0.6016013 0.371919
vn -0.7069315 0.6016013 0.371919
vn 0.3345705 0.9290547 -0.1578607
vn 0.3345705 0.9290547 -0.1578607
vn 0.3345705 0.9290547 -0.1578607
vn -0.3789335 0.5999375 0.7046165
vn -0.3789335 0.5999375 0.7046165
vn -0.3789335 0.5999375 0.7046165
vn -0.3789335 0.5999375 0.7046165
vn -0.3789335 0.5999375 0.7046165
vn -0.3789335 0.5999375 0.7046165
vn -0.3789335 0.5999375 0.7046165
vn -0.3789335 0.5999375 0.7046165
vn -0.3789335 0.5999375 0.7046165
vn -0.3789335 0.5999375 0.7046165
vn -0.3789335 0.5999375 0.7046165
vn -0.3789335 0.5999375 0.7046165
vn 0.7832361 0.1787602 -0.5954711
vn 0.7832361 0.1787602 -0.5954711
vn 0.7832361 0.1787602 -0.5954711
vn 0.7832361 0.1787602 -0.5954711
vn 0.7832361 0.1787602 -0.5954711
vn 0.7832361 0.1787602 -0.5954711
vn -0.1944829 0.6021442 -0.7743376
vn -0.1944829 0.6021442 -0.7743376
vn -0.1944829 0.6021442 -0.7743376
vn -0.1944829 0.6021442 -0.7743376
vn -0.1944829 0.6021442 -0.7743376
vn -0.1944829 0.6021442 -0.7743376
vn -0.1944829 0.6021442 -0.7743376
vn -0.1944829 0.6021442 -0.7743376
vn -0.1944829 0.6021442 -0.7743376
vn -0.1944829 0.6021442 -0.7743376
vn -0.1944829 0.6021442 -0.7743376
vn -0.1944829 0.6021442 -0.7743376
vn -0.1944829 0.6021442 -0.7743376
vn -0.1944829 0.6021442 -0.7743376
vn -0.1944829 0.6021442 -0.7743376

vt 0.4372255 0.4972036
vt 0.4699294 0.5245757
vt 0.4320939 0.4973247
vt 0.4320939 0.4973247
vt 0.4699294 0.5245757
vt 0.4202612 0.5325292
vt 0.6557219 0.2570537
vt 0.7289156 0.4145381
vt 0.6244569 0.2600712
vt 0.6244569 0.2600712
vt 0.7289156 0.4145381
vt 0.388768 0.533442
vt 0.388768 0.533442
vt 0.7289156 0.4145381
vt 0.4345759 0.6600572
vt 0.4345759 0.6600572
vt 0.7289156 0.4145381
vt 0.4390463 0.6615753
vt 0.6479731 0.3805537
vt 0.6654357 0.3970802
vt 0.4803604 0.3374514
vt 0.4803604 0.3374514
vt 0.6654357 0.3970802
vt 0.4231484 0.3805909
vt 0.4231484 0.3805909
vt 0.6654357 0.3970802
vt 0.444178 0.5469184
vt 0.4221937 0.4367226
vt 0.40807 0.3269878
vt 0.6794896 0.5506904
vt 0.6794896 0.5506904
vt 0.40807 0.3269878
vt 0.718047 0.5398682
vt 0.718047 0.5398682
vt 0.40807 0.3269878
vt 0.4956669 0.2904561
vt 0.4761554 0.3384852
vt 0.5319192 0.3955249
vt 0.4217281 0.385229
vt 0.4217281 0.385229
vt 0.5319192 0.3955249
vt 0.4724115 0.4548092
vt 0.3862953 0.5090782
vt 0.477287 0.3366923
vt 0.4769657 0.6129316
vt 0.4769657 0.6129316
vt 0.477287 0.3366923
vt 0.5485436 0.5426529
vt 0.5485436 0.5426529
vt 0.477287 0.3366923
vt 0.5582668 0.3742345
vt 0.5582668 0.3742345
vt 0.477287 0.3366923
vt 0.5050502 0.3229691
vt 0.4718713 0.3430161
vt 0.4832941 0.3147035
vt 0.5948125 0.4677455
vt 0.5948125 0.4677455
vt 0.4832941 0.3147035
vt 0.6295513 0.4290484
vt 0.6295513 0.4290484
vt 0.4832941 0.3147035
vt 0.594086 0.3318959
vt 0.594086 0.3318959
vt 0.4832941 0.3147035
vt 0.5036811 0.2924305
vt 0.5985937 0.4488859
vt 0.624876 0.4440708
vt 0.6159724 0.4683508
vt 0.6159724 0.4683508
vt 0.624876 0.4440708
vt 0.6411278 0.4664043
vt 0.6411278 0.4664043
vt 0.624876 0.4440708
vt 0.6383897 0.4577336
vt 0.4964679 0.3220564
vt 0.5974109 0.3748026
vt 0.3885492 0.5254697
vt 0.3885492 0.5254697
vt 0.5974109 0.3748026
vt 0.4453375 0.5830171
vt 0.4453375 0.5830171
vt 0.5974109 0.3748026
vt 0.4784093 0.6074181
vt 0.4784093 0.6074181
vt 0.5974109 0.3748026
vt 0.5422571 0.5804279
vt 0.3604973 0.5403339
vt 0.5145963 0.3056835
vt 0.3932711 0.5790309
vt 0.3932711 0.5790309
vt 0.5145963 0.3056835
vt 0.5399753 0.5917716
vt 0.5399753 0.5917716
vt 0.5145963 0.3056835
vt 0.5564413 0.5790402
vt 0.5564413 0.5790402
vt 0.5145963 0.3056835
vt 0.5310065 0.3208782
vt 0.4579292 0.5614659
vt 0.3622482 0.4621481
vt 0.4775478 0.5543691
vt 0.4775478 0.5543691
vt 0.3622482 0.4621481
vt 0.4858041 0.5170225
vt 0.4858041 0.5170225
vt 0.3622482 0.4621481
vt 0.3652518 0.4536729
vt 0.4687885 0.4516892
vt 0.5249621 0.500128
vt 0.4540921 0.4601271
vt 0.5208177 0.3031409
vt 0.4189201 0.6045495
vt 0.5009989 0.2877832
vt 0.5009989 0.2877832
vt 0.4189201 0.6045495
vt 0.280421 0.473529
vt 0.280421 0.473529
vt 0.4189201 0.6045495
vt 0.2706279 0.4963654
vt 0.2706279 0.4963654
vt 0.4189201 0.6045495
vt 0.4120049 0.6047731
vt 0.5344618 0.5789657
vt 0.5303267 0.5802417
vt 0.4711402 0.4214114
vt 0.4711402 0.4214114
vt 0.5303267 0.5802417
vt 0.4009127 0.4557405
vt 0.6945214 0.4576032
vt 0.5863 0.658297
vt 0.6635265 0.4075811
vt 0.6635265 0.4075811
vt 0.5863 0.658297
vt 0.5820531 0.3101678
vt 0.5820531 0.3101678
vt 0.5863 0.658297
vt 0.3960325 0.2895993
vt 0.3960325 0.2895993
vt 0.5863 0.658297
vt 0.3222194 0.307751
vt 0.3222194 0.307751
vt 0.5863 0.658297
vt 0.2956995 0.3230296

usemtl Material0
usemap Material0

usemtl Material1
usemap Material1
f 1/1/1 2/2/2 3/3/3
f 4/4/4 5/5/5 6/6/6
f 7/7/7 8/8/8 9/9/9
f 10/10/10 11/11/11 12/12/12
f 13/13/13 14/14/14 15/15/15
f 16/16/16 17/17/17 18/18/18
f 19/19/19 20/20/20 21/21/21
f 22/22/22 23/23/23 24/24/24
f 25/25/25 26/26/26 27/27/27
f 28/28/28 29/29/29 30/30/30
f 31/31/31 32/32/32 33/33/33
f 34/34/34 35/35/35 36/36/36
f 37/37/37 38/38/38 39/39/39
f 40/40/40 41/41/41 42/42/42
f 43/43/43 44/44/44 45/45/45
f 46/46/46 47/47/47 48/48/48
f 49/49/49 50/50/50 51/51/51
f 52/52/52 53/53/53 54/54/54
f 55/55/55 56/56/56 57/57/57
f 58/58/58 59/59/59 60/60/60
f 61/61/61 62/62/62 63/63/63
f 64/64/64 65/65/65 66/66/66
f 67/67/67 68/68/68 69/69/69
f 70/70/70 71/71/71 72/72/72
f 73/73/73 74/74/74 75/75/75
f 76/76/76 77/77/77 78/78/78
f 79/79/79 80/80/80 81/81/81
f 82/82/82 83/83/83 84/84/84
f 85/85/85 86/86/86 87/87/87
f 88/88/88 89/89/89 90/90/90
f 91/91/91 92/92/92 93/93/93
f 94/94/94 95/95/95 96/96/96
f 97/97/97 98/98/98 99/99/99
f 100/100/100 101/101/101 102/102/102
f 103/103/103 104/104/104 105/105/105
f 106/106/106 107/107/107 108/108/108
f 109/109/109 110/110/110 111/111/111
f 112/112/112 113/113/113 114/114/114
f 115/115/115 116/116/116 117/117/117
f 118/118/118 119/119/119 120/120/120
f 121/121/121 122/122/122 123/123/123
f 124/124/124 125/125/125 126/126/126
f 127/127/127 128/128/128 129/129/129
f 130/130/130 131/131/131 132/132/132
f 133/133/133 134/134/134 135/135/135
f 136/136/136 137/137/137 138/138/138
f 139/139/139 140/140/140 141/141/141
f 142/142/142 143/143/143 144/144/144
