g  Instance
v 0.1691542 -48.85211 -0.80057
v -0.1043478 -47.99341 -1.899595
v 0.5841992 -49.60778 -0.3951735
v 0.5841992 -49.60778 -0.3951735
v -0.1043478 -47.99341 -1.899595
v 0.6001002 -49.63191 -0.3907638
v 0.6001002 -49.63191 -0.3907638
v -0.1043478 -47.99341 -1.899595
v 1.246724 -50.43883 -0.6133153
v 1.246724 -50.43883 -0.6133153
v -0.1043478 -47.99341 -1.899595
v 1.548499 -50.23032 -2.066432
v 1.548499 -50.23032 -2.066432
v -0.1043478 -47.99341 -1.899595
v 1.530811 -50.16374 -2.162966
v 1.530811 -50.16374 -2.162966
v -0.1043478 -47.99341 -1.899595
v 0.7068996 -48.59589 -3.12398
v 0.7068996 -48.59589 -3.12398
v -0.1043478 -47.99341 -1.899595
v 0.4237433 -48.27945 -2.941411
v 0.4237433 -48.27945 -2.941411
v 0.3825836 -48.12327 -2.87632
v 0.7068996 -48.59589 -3.12398
v 0.7068996 -48.59589 -3.12398
v 0.3825836 -48.12327 -2.87632
v 1.096082 -48.14238 -3.06406
v 1.096082 -48.14238 -3.06406
v 0.3825836 -48.12327 -2.87632
v 1.074241 -48.12175 -3.0513
v 0.2647091 -47.57025 -1.048884
v 0.1691542 -48.85211 -0.80057
v 0.4681537 -47.46377 -0.9620843
v 0.4681537 -47.46377 -0.9620843
v 0.1691542 -48.85211 -0.80057
v 1.019546 -47.58988 -0.629509
v 1.019546 -47.58988 -0.629509
v 0.1691542 -48.85211 -0.80057
v 1.799988 -48.77012 0.07630336
v 1.799988 -48.77012 0.07630336
v 0.1691542 -48.85211 -0.80057
v 1.651761 -49.40965 0.1449359
v 1.651761 -49.40965 0.1449359
v 0.1691542 -48.85211 -0.80057
v 1.292631 -49.92268 0.06799489
v 1.292631 -49.92268 0.06799489
v 0.1691542 -48.85211 -0.80057
v 0.6117094 -49.63001 -0.3748405
v 0.6117094 -49.63001 -0.3748405
v 0.1691542 -48.85211 -0.80057
v 0.5841992 -49.60778 -0.3951735
v 2.914387 -50.42761 -1.330866
v 2.771579 -50.55582 -1.36546
v 2.915733 -50.4259 -1.330707
v 2.915733 -50.4259 -1.330707
v 2.771579 -50.55582 -1.36546
v 1.769205 -48.50002 -2.583585
v 1.769205 -48.50002 -2.583585
v 2.771579 -50.55582 -1.36546
v 1.096082 -48.14238 -3.06406
v 1.096082 -48.14238 -3.06406
v 2.771579 -50.55582 -1.36546
v 0.7068996 -48.59589 -3.12398
v 0.7068996 -48.59589 -3.12398
v 2.771579 -50.55582 -1.36546
v 1.530811 -50.16374 -2.162966
v 2.771579 -50.55582 -1.36546
v 2.679882 -50.59316 -1.331788
v 1.530811 -50.16374 -2.162966
v 1.530811 -50.16374 -2.162966
v 2.679882 -50.59316 -1.331788
v 1.548499 -50.23032 -2.066432
v 0.2178031 -47.23665 -1.311838
v 0.3116398 -47.17422 -1.353401
v -0.08480699 -47.65749 -1.979863
v -0.08480699 -47.65749 -1.979863
v 0.3116398 -47.17422 -1.353401
v -0.06719659 -47.65359 -2.01622
v 1.019546 -47.58988 -0.629509
v 1.799988 -48.77012 0.07630336
v 1.036847 -47.48781 -0.74313
v 1.036847 -47.48781 -0.74313
v 1.799988 -48.77012 0.07630336
v 1.170927 -47.53663 -0.7770628
v 1.170927 -47.53663 -0.7770628
v 1.799988 -48.77012 0.07630336
v 1.902133 -48.76456 0.007348478
v 1.096082 -48.14238 -3.06406
v 1.074241 -48.12175 -3.0513
v 1.769205 -48.50002 -2.583585
v 1.769205 -48.50002 -2.583585
v 1.074241 -48.12175 -3.0513
v 1.148323 -47.49681 -0.9113089
v 1.148323 -47.49681 -0.9113089
v 1.074241 -48.12175 -3.0513
v 0.5675388 -47.1709 -1.27142
v 0.5675388 -47.1709 -1.27142
v 1.074241 -48.12175 -3.0513
v 0.4926329 -47.13533 -1.338176
v 1.799988 -48.77012 0.07630336
v 1.651761 -49.40965 0.1449359
v 1.902133 -48.76456 0.007348478
v 1.902133 -48.76456 0.007348478
v 1.651761 -49.40965 0.1449359
v 2.298913 -49.41864 -0.2941337
v 0.4681537 -47.46377 -0.9620843
v 0.2462806 -47.32639 -1.197276
v 0.2647091 -47.57025 -1.048884
v 1.036847 -47.48781 -0.74313
v 1.170927 -47.53663 -0.7770628
v 0.5675388 -47.1709 -1.27142
v 0.5675388 -47.1709 -1.27142
v 1.170927 -47.53663 -0.7770628
v 1.148323 -47.49681 -0.9113089
v 2.298913 -49.41864 -0.2941337
v 2.915733 -50.4259 -1.330707
v 1.902133 -48.76456 0.007348478
v 1.902133 -48.76456 0.007348478
v 2.915733 -50.4259 -1.330707
v 1.170927 -47.53663 -0.7770628
v 1.170927 -47.53663 -0.7770628
v 2.915733 -50.4259 -1.330707
v 1.148323 -47.49681 -0.9113089
v 1.148323 -47.49681 -0.9113089
v 2.915733 -50.4259 -1.330707
v 1.769205 -48.50002 -2.583585
v 2.914387 -50.42761 -1.330866
v 2.430812 -50.58529 -1.104563
v 2.771579 -50.55582 -1.36546
v 2.771579 -50.55582 -1.36546
v 2.430812 -50.58529 -1.104563
v 2.679882 -50.59316 -1.331788
v 0.1691542 -48.85211 -0.80057
v 0.2647091 -47.57025 -1.048884
v -0.1043478 -47.99341 -1.899595
v -0.1043478 -47.99341 -1.899595
v 0.2647091 -47.57025 -1.048884
v -0.08480699 -47.65749 -1.979863
v -0.08480699 -47.65749 -1.979863
v 0.2647091 -47.57025 -1.048884
v 0.2178031 -47.23665 -1.311838
v 0.2178031 -47.23665 -1.311838
v 0.2647091 -47.57025 -1.048884
v 0.2462806 -47.32639 -1.197276
v 0.6117094 -49.63001 -0.3748405
v 0.6001002 -49.63191 -0.3907638
v 1.292631 -49.92268 0.06799489
v 1.292631 -49.92268 0.06799489
v 0.6001002 -49.63191 -0.3907638
v 1.48622 -50.52048 -0.4316814
v 1.48622 -50.52048 -0.4316814
v 0.6001002 -49.63191 -0.3907638
v 1.246724 -50.43883 -0.6133153
v -0.08480699 -47.65749 -1.979863
v -0.06719659 -47.65359 -2.01622
v -0.1043478 -47.99341 -1.899595
v -0.1043478 -47.99341 -1.899595
v -0.06719659 -47.65359 -2.01622
v 0.4237433 -48.27945 -2.941411
v 0.4237433 -48.27945 -2.941411
v -0.06719659 -47.65359 -2.01622
v 0.3825836 -48.12327 -2.87632
v 0.3116398 -47.17422 -1.353401
v 0.2178031 -47.23665 -1.311838
v 0.4926329 -47.13533 -1.338176
v 0.4926329 -47.13533 -1.338176
v 0.2178031 -47.23665 -1.311838
v 0.5675388 -47.1709 -1.27142
v 0.5675388 -47.1709 -1.27142
v 0.2178031 -47.23665 -1.311838
v 1.036847 -47.48781 -0.74313
v 1.036847 -47.48781 -0.74313
v 0.2178031 -47.23665 -1.311838
v 1.019546 -47.58988 -0.629509
v 1.019546 -47.58988 -0.629509
v 0.2178031 -47.23665 -1.311838
v 0.4681537 -47.46377 -0.9620843
v 0.4681537 -47.46377 -0.9620843
v 0.2178031 -47.23665 -1.311838
v 0.2462806 -47.32639 -1.197276
v 1.548499 -50.23032 -2.066432
v 2.679882 -50.59316 -1.331788
v 1.246724 -50.43883 -0.6133153
v 1.246724 -50.43883 -0.6133153
v 2.679882 -50.59316 -1.331788
v 1.48622 -50.52048 -0.4316814
v 1.48622 -50.52048 -0.4316814
v 2.679882 -50.59316 -1.331788
v 2.430812 -50.58529 -1.104563
v 1.651761 -49.40965 0.1449359
v 1.292631 -49.92268 0.06799489
v 2.298913 -49.41864 -0.2941337
v 2.298913 -49.41864 -0.2941337
v 1.292631 -49.92268 0.06799489
v 2.915733 -50.4259 -1.330707
v 2.915733 -50.4259 -1.330707
v 1.292631 -49.92268 0.06799489
v 2.914387 -50.42761 -1.330866
v 2.914387 -50.42761 -1.330866
v 1.292631 -49.92268 0.06799489
v 2.430812 -50.58529 -1.104563
v 2.430812 -50.58529 -1.104563
v 1.292631 -49.92268 0.06799489
v 1.48622 -50.52048 -0.4316814
v 0.6117094 -49.63001 -0.3748405
v 0.5841992 -49.60778 -0.3951735
v 0.6001002 -49.63191 -0.3907638
v 0.3116398 -47.17422 -1.353401
v 0.4926329 -47.13533 -1.338176
v -0.06719659 -47.65359 -2.01622
v -0.06719659 -47.65359 -2.01622
v 0.4926329 -47.13533 -1.338176
v 0.3825836 -48.12327 -2.87632
v 0.3825836 -48.12327 -2.87632
v 0.4926329 -47.13533 -1.338176
v 1.074241 -48.12175 -3.0513

vn -0.7884446 -0.5643298 -0.2447181
vn -0.7884446 -0.5643298 -0.2447181
vn -0.7884446 -0.5643298 -0.2447181
vn -0.7884446 -0.5643298 -0.2447181
vn -0.7884446 -0.5643298 -0.2447181
vn -0.7884446 -0.5643298 -0.2447181
vn -0.7884446 -0.5643298 -0.2447181
vn -0.7884446 -0.5643298 -0.2447181
vn -0.7884446 -0.5643298 -0.2447181
vn -0.7884446 -0.5643298 -0.2447181
vn -0.7884446 -0.5643298 -0.2447181
vn -0.7884446 -0.5643298 -0.2447181
vn -0.7884446 -0.5643298 -0.2447181
vn -0.7884446 -0.5643298 -0.2447181
vn -0.7884446 -0.5643298 -0.2447181
vn -0.7884446 -0.5643298 -0.2447181
vn -0.7884446 -0.5643298 -0.2447181
vn -0.7884446 -0.5643298 -0.2447181
vn -0.7884446 -0.5643298 -0.2447181
vn -0.7884446 -0.5643298 -0.2447181
vn -0.7884446 -0.5643298 -0.2447181
vn -0.2329285 0.3211692 -0.9179295
vn -0.2329285 0.3211692 -0.9179295
vn -0.2329285 0.3211692 -0.9179295
vn -0.2329285 0.3211692 -0.9179295
vn -0.2329285 0.3211692 -0.9179295
vn -0.2329285 0.3211692 -0.9179295
vn -0.2329285 0.3211692 -0.9179295
vn -0.2329285 0.3211692 -0.9179295
vn -0.2329285 0.3211692 -0.9179295
vn -0.4716971 0.2014537 0.8584394
vn -0.4716971 0.2014537 0.8584394
vn -0.4716971 0.2014537 0.8584394
vn -0.4716971 0.2014537 0.8584394
vn -0.4716971 0.2014537 0.8584394
vn -0.4716971 0.2014537 0.8584394
vn -0.4716971 0.2014537 0.8584394
vn -0.4716971 0.2014537 0.8584394
vn -0.4716971 0.2014537 0.8584394
vn -0.4716971 0.2014537 0.8584394
vn -0.4716971 0.2014537 0.8584394
vn -0.4716971 0.2014537 0.8584394
vn -0.4716971 0.2014537 0.8584394
vn -0.4716971 0.2014537 0.8584394
vn -0.4716971 0.2014537 0.8584394
vn -0.4716971 0.2014537 0.8584394
vn -0.4716971 0.2014537 0.8584394
vn -0.4716971 0.2014537 0.8584394
vn -0.4716971 0.2014537 0.8584394
vn -0.4716971 0.2014537 0.8584394
vn -0.4716971 0.2014537 0.8584394
vn 0.4552869 -0.2789954 -0.8455032
vn 0.4552869 -0.2789954 -0.8455032
vn 0.4552869 -0.2789954 -0.8455032
vn 0.4552869 -0.2789954 -0.8455032
vn 0.4552869 -0.2789954 -0.8455032
vn 0.4552869 -0.2789954 -0.8455032
vn 0.4552869 -0.2789954 -0.8455032
vn 0.4552869 -0.2789954 -0.8455032
vn 0.4552869 -0.2789954 -0.8455032
vn 0.4552869 -0.2789954 -0.8455032
vn 0.4552869 -0.2789954 -0.8455032
vn 0.4552869 -0.2789954 -0.8455032
vn 0.4552869 -0.2789954 -0.8455032
vn 0.4552869 -0.2789954 -0.8455032
vn 0.4552869 -0.2789954 -0.8455032
vn 0.1164946 -0.8075072 -0.5782396
vn 0.1164946 -0.8075072 -0.5782396
vn 0.1164946 -0.8075072 -0.5782396
vn 0.1164946 -0.8075072 -0.5782396
vn 0.1164946 -0.8075072 -0.5782396
vn 0.1164946 -0.8075072 -0.5782396
vn -0.6043912 0.7684292 -0.2103044
vn -0.6043912 0.7684292 -0.2103044
vn -0.6043912 0.7684292 -0.2103044
vn -0.6043912 0.7684292 -0.2103044
vn -0.6043912 0.7684292 -0.2103044
vn -0.6043912 0.7684292 -0.2103044
vn 0.4002323 0.650605 0.6453893
vn 0.4002323 0.650605 0.6453893
vn 0.4002323 0.650605 0.6453893
vn 0.4002323 0.650605 0.6453893
vn 0.4002323 0.650605 0.6453893
vn 0.4002323 0.650605 0.6453893
vn 0.4002323 0.650605 0.6453893
vn 0.4002323 0.650605 0.6453893
vn 0.4002323 0.650605 0.6453893
vn 0.5857853 0.772294 -0.2458
vn 0.5857853 0.772294 -0.2458
vn 0.5857853 0.772294 -0.2458
vn 0.5857853 0.772294 -0.2458
vn 0.5857853 0.772294 -0.2458
vn 0.5857853 0.772294 -0.2458
vn 0.5857853 0.772294 -0.2458
vn 0.5857853 0.772294 -0.2458
vn 0.5857853 0.772294 -0.2458
vn 0.5857853 0.772294 -0.2458
vn 0.5857853 0.772294 -0.2458
vn 0.5857853 0.772294 -0.2458
vn 0.5605722 -0.04116722 0.8270816
vn 0.5605722 -0.04116722 0.8270816
vn 0.5605722 -0.04116722 0.8270816
vn 0.5605722 -0.04116722 0.8270816
vn 0.5605722 -0.04116722 0.8270816
vn 0.5605722 -0.04116722 0.8270816
vn -0.5311783 0.4108439 0.7409837
vn -0.5311783 0.4108439 0.7409837
vn -0.5311783 0.4108439 0.7409837
vn 0.3800442 0.9022723 0.203645
vn 0.3800442 0.9022723 0.203645
vn 0.3800442 0.9022723 0.203645
vn 0.3800442 0.9022723 0.203645
vn 0.3800442 0.9022723 0.203645
vn 0.3800442 0.9022723 0.203645
vn 0.8567221 0.515705 0.00869937
vn 0.8567221 0.515705 0.00869937
vn 0.8567221 0.515705 0.00869937
vn 0.8567221 0.515705 0.00869937
vn 0.8567221 0.515705 0.00869937
vn 0.8567221 0.515705 0.00869937
vn 0.8567221 0.515705 0.00869937
vn 0.8567221 0.515705 0.00869937
vn 0.8567221 0.515705 0.00869937
vn 0.8567221 0.515705 0.00869937
vn 0.8567221 0.515705 0.00869937
vn 0.8567221 0.515705 0.00869937
vn 0.4801817 -0.6832863 0.5500413
vn 0.4801817 -0.6832863 0.5500413
vn 0.4801817 -0.6832863 0.5500413
vn 0.4801817 -0.6832863 0.5500413
vn 0.4801817 -0.6832863 0.5500413
vn 0.4801817 -0.6832863 0.5500413
vn -0.9317411 0.1347764 0.3371851
vn -0.9317411 0.1347764 0.3371851
vn -0.9317411 0.1347764 0.3371851
vn -0.9317411 0.1347764 0.3371851
vn -0.9317411 0.1347764 0.3371851
vn -0.9317411 0.1347764 0.3371851
vn -0.9317411 0.1347764 0.3371851
vn -0.9317411 0.1347764 0.3371851
vn -0.9317411 0.1347764 0.3371851
vn -0.9317411 0.1347764 0.3371851
vn -0.9317411 0.1347764 0.3371851
vn -0.9317411 0.1347764 0.3371851
vn -0.597489 -0.6192889 0.5093998
vn -0.597489 -0.6192889 0.5093998
vn -0.597489 -0.6192889 0.5093998
vn -0.597489 -0.6192889 0.5093998
vn -0.597489 -0.6192889 0.5093998
vn -0.597489 -0.6192889 0.5093998
vn -0.597489 -0.6192889 0.5093998
vn -0.597489 -0.6192889 0.5093998
vn -0.597489 -0.6192889 0.5093998
vn -0.896488 -0.05295349 -0.4398924
vn -0.896488 -0.05295349 -0.4398924
vn -0.896488 -0.05295349 -0.4398924
vn -0.896488 -0.05295349 -0.4398924
vn -0.896488 -0.05295349 -0.4398924
vn -0.896488 -0.05295349 -0.4398924
vn -0.896488 -0.05295349 -0.4398924
vn -0.896488 -0.05295349 -0.4398924
vn -0.896488 -0.05295349 -0.4398924
vn -0.2130283 0.7427345 0.6347948
vn -0.2130283 0.7427345 0.6347948
vn -0.2130283 0.7427345 0.6347948
vn -0.2130283 0.7427345 0.6347948
vn -0.2130283 0.7427345 0.6347948
vn -0.2130283 0.7427345 0.6347948
vn -0.2130283 0.7427345 0.6347948
vn -0.2130283 0.7427345 0.6347948
vn -0.2130283 0.7427345 0.6347948
vn -0.2130283 0.7427345 0.6347948
vn -0.2130283 0.7427345 0.6347948
vn -0.2130283 0.7427345 0.6347948
vn -0.2130283 0.7427345 0.6347948
vn -0.2130283 0.7427345 0.6347948
vn -0.2130283 0.7427345 0.6347948
vn -0.2130283 0.7427345 0.6347948
vn -0.2130283 0.7427345 0.6347948
vn -0.2130283 0.7427345 0.6347948
vn -0.193425 -0.964722 -0.1786009
vn -0.193425 -0.964722 -0.1786009
vn -0.193425 -0.964722 -0.1786009
vn -0.193425 -0.964722 -0.1786009
vn -0.193425 -0.964722 -0.1786009
vn -0.193425 -0.964722 -0.1786009
vn -0.193425 -0.964722 -0.1786009
vn -0.193425 -0.964722 -0.1786009
vn -0.193425 -0.964722 -0.1786009
vn 0.4949481 -0.4572795 0.7388653
vn 0.4949481 -0.4572795 0.7388653
vn 0.4949481 -0.4572795 0.7388653
vn 0.4949481 -0.4572795 0.7388653
vn 0.4949481 -0.4572795 0.7388653
vn 0.4949481 -0.4572795 0.7388653
vn 0.4949481 -0.4572795 0.7388653
vn 0.4949481 -0.4572795 0.7388653
vn 0.4949481 -0.4572795 0.7388653
vn 0.4949481 -0.4572795 0.7388653
vn 0.4949481 -0.4572795 0.7388653
vn 0.4949481 -0.4572795 0.7388653
vn 0.4949481 -0.4572795 0.7388653
vn 0.4949481 -0.4572795 0.7388653
vn 0.4949481 -0.4572795 0.7388653
vn -0.7274812 -0.3743532 0.5750051
vn -0.7274812 -0.3743532 0.5750051
vn -0.7274812 -0.3743532 0.5750051
vn -0.1355883 0.8380056 -0.5285475
vn -0.1355883 0.8380056 -0.5285475
vn -0.1355883 0.8380056 -0.5285475
vn -0.1355883 0.8380056 -0.5285475
vn -0.1355883 0.8380056 -0.5285475
vn -0.1355883 0.8380056 -0.5285475
vn -0.1355883 0.8380056 -0.5285475
vn -0.1355883 0.8380056 -0.5285475
vn -0.1355883 0.8380056 -0.5285475

vt 0.6066869 0.3778528
vt 0.6842953 0.4804396
vt 0.529209 0.3400126
vt 0.529209 0.3400126
vt 0.6842953 0.4804396
vt 0.526592 0.3396028
vt 0.526592 0.3396028
vt 0.6842953 0.4804396
vt 0.4331556 0.3603762
vt 0.4331556 0.3603762
vt 0.6842953 0.4804396
vt 0.4326061 0.4960209
vt 0.4326061 0.4960209
vt 0.6842953 0.4804396
vt 0.4384363 0.5050269
vt 0.4384363 0.5050269
vt 0.6842953 0.4804396
vt 0.5972246 0.5947332
vt 0.5972246 0.5947332
vt 0.6842953 0.4804396
vt 0.635428 0.5776898
vt 0.4685976 0.5148245
vt 0.4533563 0.518643
vt 0.5009895 0.4885515
vt 0.5009895 0.4885515
vt 0.4533563 0.518643
vt 0.4605788 0.4524436
vt 0.4605788 0.4524436
vt 0.4533563 0.518643
vt 0.4584414 0.4544739
vt 0.6651005 0.708077
vt 0.4569885 0.6252438
vt 0.6955272 0.6791217
vt 0.6955272 0.6791217
vt 0.4569885 0.6252438
vt 0.7127383 0.5681902
vt 0.7127383 0.5681902
vt 0.4569885 0.6252438
vt 0.5794826 0.3327574
vt 0.5794826 0.3327574
vt 0.4569885 0.6252438
vt 0.4689003 0.3098652
vt 0.4689003 0.3098652
vt 0.4569885 0.6252438
vt 0.3640504 0.3355328
vt 0.3640504 0.3355328
vt 0.4569885 0.6252438
vt 0.3643344 0.4832429
vt 0.3643344 0.4832429
vt 0.4569885 0.6252438
vt 0.3659829 0.490023
vt 0.5625882 0.2126708
vt 0.59281 0.223316
vt 0.5622343 0.2126196
vt 0.5622343 0.2126196
vt 0.59281 0.223316
vt 0.390817 0.5982165
vt 0.390817 0.5982165
vt 0.59281 0.223316
vt 0.3985005 0.7460942
vt 0.3985005 0.7460942
vt 0.59281 0.223316
vt 0.4954667 0.7645347
vt 0.4954667 0.7645347
vt 0.59281 0.223316
vt 0.6444154 0.4687606
vt 0.4039442 0.3580153
vt 0.4142774 0.3535775
vt 0.53001 0.463154
vt 0.53001 0.463154
vt 0.4142774 0.3535775
vt 0.5291532 0.4504319
vt 0.5072761 0.3986076
vt 0.5173624 0.4024214
vt 0.4625672 0.4599409
vt 0.4625672 0.4599409
vt 0.5173624 0.4024214
vt 0.4640248 0.463275
vt 0.3374002 0.4628001
vt 0.4848122 0.3566509
vt 0.3329484 0.4798901
vt 0.3329484 0.4798901
vt 0.4848122 0.3566509
vt 0.3490093 0.4849938
vt 0.3490093 0.4849938
vt 0.4848122 0.3566509
vt 0.4944701 0.3670213
vt 0.3990081 0.5875247
vt 0.3963026 0.5863326
vt 0.4671261 0.5426529
vt 0.4671261 0.5426529
vt 0.3963026 0.5863326
vt 0.3674591 0.3864583
vt 0.3674591 0.3864583
vt 0.3963026 0.5863326
vt 0.3077371 0.4200936
vt 0.3077371 0.4200936
vt 0.3963026 0.5863326
vt 0.3003888 0.4263289
vt 0.4281357 0.3348623
vt 0.5294046 0.3158025
vt 0.4261007 0.3540152
vt 0.4261007 0.3540152
vt 0.5294046 0.3158025
vt 0.5234068 0.4377564
vt 0.5851917 0.61119
vt 0.5816433 0.6569559
vt 0.5579222 0.6280751
vt 0.3867703 0.4198421
vt 0.3995436 0.4229481
vt 0.3369811 0.4682111
vt 0.3369811 0.4682111
vt 0.3995436 0.4229481
vt 0.3962933 0.4352418
vt 0.5428904 0.35612
vt 0.6465296 0.4470791
vt 0.4757549 0.3296607
vt 0.4757549 0.3296607
vt 0.6465296 0.4470791
vt 0.3503411 0.3985005
vt 0.3503411 0.3985005
vt 0.6465296 0.4470791
vt 0.346327 0.410282
vt 0.346327 0.410282
vt 0.6465296 0.4470791
vt 0.4498498 0.5570421
vt 0.466409 0.5448695
vt 0.5175114 0.5163985
vt 0.4864327 0.5492188
vt 0.4864327 0.5492188
vt 0.5175114 0.5163985
vt 0.4965703 0.5449812
vt 0.5140655 0.4487927
vt 0.6335933 0.47338
vt 0.5896342 0.5576102
vt 0.5896342 0.5576102
vt 0.6335933 0.47338
vt 0.6208805 0.5655545
vt 0.6208805 0.5655545
vt 0.6335933 0.47338
vt 0.6637314 0.4994202
vt 0.6637314 0.4994202
vt 0.6335933 0.47338
vt 0.655843 0.4880765
vt 0.5493259 0.4165219
vt 0.550043 0.4184079
vt 0.4786328 0.3640411
vt 0.4786328 0.3640411
vt 0.550043 0.4184079
vt 0.422096 0.4232555
vt 0.422096 0.4232555
vt 0.550043 0.4184079
vt 0.4454539 0.4447787
vt 0.6628187 0.4320939
vt 0.663098 0.4360474
vt 0.630166 0.4233626
vt 0.630166 0.4233626
vt 0.663098 0.4360474
vt 0.5992177 0.5367203
vt 0.5992177 0.5367203
vt 0.663098 0.4360474
vt 0.6146871 0.5296328
vt 0.4151063 0.6178398
vt 0.4029058 0.6117302
vt 0.4360846 0.6155952
vt 0.4360846 0.6155952
vt 0.4029058 0.6117302
vt 0.4431488 0.6057882
vt 0.4431488 0.6057882
vt 0.4029058 0.6117302
vt 0.4844536 0.5281426
vt 0.4844536 0.5281426
vt 0.4029058 0.6117302
vt 0.4793685 0.5114345
vt 0.4793685 0.5114345
vt 0.4029058 0.6117302
vt 0.4231251 0.5603204
vt 0.4231251 0.5603204
vt 0.4029058 0.6117302
vt 0.4032038 0.5948916
vt 0.4935621 0.4951826
vt 0.3882605 0.4285874
vt 0.5162914 0.363459
vt 0.5162914 0.363459
vt 0.3882605 0.4285874
vt 0.493916 0.3469976
vt 0.493916 0.3469976
vt 0.3882605 0.4285874
vt 0.4101795 0.4079908
vt 0.5201005 0.3277003
vt 0.6009127 0.3425691
vt 0.4637733 0.4125498
vt 0.4637733 0.4125498
vt 0.6009127 0.3425691
vt 0.5055996 0.6128664
vt 0.5055996 0.6128664
vt 0.6009127 0.3425691
vt 0.5058883 0.6128944
vt 0.5058883 0.6128944
vt 0.6009127 0.3425691
vt 0.5637057 0.569168
vt 0.5637057 0.569168
vt 0.6009127 0.3425691
vt 0.6409788 0.4391301
vt 0.5134228 0.4327784
vt 0.5168968 0.4354467
vt 0.513814 0.4348692
vt 0.3945098 0.3263452
vt 0.4136208 0.3244918
vt 0.3479429 0.4070595
vt 0.3479429 0.4070595
vt 0.4136208 0.3244918
vt 0.3860812 0.5117884
vt 0.3860812 0.5117884
vt 0.4136208 0.3244918
vt 0.4566858 0.5331067

usemtl Material0
usemap Material0

usemtl Material1
usemap Material1
f 1/1/1 2/2/2 3/3/3
f 4/4/4 5/5/5 6/6/6
f 7/7/7 8/8/8 9/9/9
f 10/10/10 11/11/11 12/12/12
f 13/13/13 14/14/14 15/15/15
f 16/16/16 17/17/17 18/18/18
f 19/19/19 20/20/20 21/21/21
f 22/22/22 23/23/23 24/24/24
f 25/25/25 26/26/26 27/27/27
f 28/28/28 29/29/29 30/30/30
f 31/31/31 32/32/32 33/33/33
f 34/34/34 35/35/35 36/36/36
f 37/37/37 38/38/38 39/39/39
f 40/40/40 41/41/41 42/42/42
f 43/43/43 44/44/44 45/45/45
f 46/46/46 47/47/47 48/48/48
f 49/49/49 50/50/50 51/51/51
f 52/52/52 53/53/53 54/54/54
f 55/55/55 56/56/56 57/57/57
f 58/58/58 59/59/59 60/60/60
f 61/61/61 62/62/62 63/63/63
f 64/64/64 65/65/65 66/66/66
f 67/67/67 68/68/68 69/69/69
f 70/70/70 71/71/71 72/72/72
f 73/73/73 74/74/74 75/75/75
f 76/76/76 77/77/77 78/78/78
f 79/79/79 80/80/80 81/81/81
f 82/82/82 83/83/83 84/84/84
f 85/85/85 86/86/86 87/87/87
f 88/88/88 89/89/89 90/90/90
f 91/91/91 92/92/92 93/93/93
f 94/94/94 95/95/95 96/96/96
f 97/97/97 98/98/98 99/99/99
f 100/100/100 101/101/101 102/102/102
f 103/103/103 104/104/104 105/105/105
f 106/106/106 107/107/107 108/108/108
f 109/109/109 110/110/110 111/111/111
f 112/112/112 113/113/113 114/114/114
f 115/115/115 116/116/116 117/117/117
f 118/118/118 119/119/119 120/120/120
f 121/121/121 122/122/122 123/123/123
f 124/124/124 125/125/125 126/126/126
f 127/127/127 128/128/128 129/129/129
f 130/130/130 131/131/131 132/132/132
f 133/133/133 134/134/134 135/135/135
f 136/136/136 137/137/137 138/138/138
f 139/139/139 140/140/140 141/141/141
f 142/142/142 143/143/143 144/144/144
f 145/145/145 146/146/146 147/147/147
f 148/148/148 149/149/149 150/150/150
f 151/151/151 152/152/152 153/153/153
f 154/154/154 155/155/155 156/156/156
f 157/157/157 158/158/158 159/159/159
f 160/160/160 161/161/161 162/162/162
f 163/163/163 164/164/164 165/165/165
f 166/166/166 167/167/167 168/168/168
f 169/169/169 170/170/170 171/171/171
f 172/172/172 173/173/173 174/174/174
f 175/175/175 176/176/176 177/177/177
f 178/178/178 179/179/179 180/180/180
f 181/181/181 182/182/182 183/183/183
f 184/184/184 185/185/185 186/186/186
f 187/187/187 188/188/188 189/189/189
f 190/190/190 191/191/191 192/192/192
f 193/193/193 194/194/194 195/195/195
f 196/196/196 197/197/197 198/198/198
f 199/199/199 200/200/200 201/201/201
f 202/202/202 203/203/203 204/204/204
f 205/205/205 206/206/206 207/207/207
f 208/208/208 209/209/209 210/210/210
f 211/211/211 212/212/212 213/213/213
f 214/214/214 215/215/215 216/216/216
