g  Instance
v 0.1204341 -44.16503 3.09324
v -0.1110436 -43.68919 2.88968
v -0.1455926 -45.81866 2.337188
v -0.1455926 -45.81866 2.337188
v -0.1110436 -43.68919 2.88968
v -0.9331896 -45.82996 1.257754
v -0.9331896 -45.82996 1.257754
v -0.1110436 -43.68919 2.88968
v -1.229357 -44.78363 1.101113
v -1.229357 -44.78363 1.101113
v -0.1110436 -43.68919 2.88968
v -0.7558688 -44.0895 1.913133
v 0.1261272 -45.70476 -0.7531774
v -0.4125784 -44.31179 -0.6989198
v 0.5711106 -45.67004 -1.035233
v -1.229357 -44.78363 1.101113
v -0.7558688 -44.0895 1.913133
v -0.58255 -44.14564 -0.5000271
v -0.58255 -44.14564 -0.5000271
v -0.7558688 -44.0895 1.913133
v 0.4688551 -42.59468 1.386988
v 0.4688551 -42.59468 1.386988
v -0.7558688 -44.0895 1.913133
v 0.4614875 -42.6011 1.412615
v -0.447911 -44.24427 -0.679509
v -0.58255 -44.14564 -0.5000271
v 0.9623829 -43.56565 -0.1343199
v 0.9623829 -43.56565 -0.1343199
v -0.58255 -44.14564 -0.5000271
v 1.158681 -43.09435 0.4754661
v 1.158681 -43.09435 0.4754661
v -0.58255 -44.14564 -0.5000271
v 0.4688551 -42.59468 1.386988
v 1.351465 -45.34906 -0.7549106
v 2.203546 -45.53035 0.3930004
v 0.8849652 -45.65405 -0.9667494
v 0.8849652 -45.65405 -0.9667494
v 2.203546 -45.53035 0.3930004
v 2.247777 -45.62298 0.5383479
v 2.280739 -45.62556 0.6797253
v 2.247777 -45.62298 0.5383479
v 2.337384 -45.48472 0.9949654
v 2.337384 -45.48472 0.9949654
v 2.247777 -45.62298 0.5383479
v 2.230158 -45.10037 0.7221093
v 2.230158 -45.10037 0.7221093
v 2.247777 -45.62298 0.5383479
v 2.203546 -45.53035 0.3930004
v 0.1204341 -44.16503 3.09324
v -0.1455926 -45.81866 2.337188
v 0.7443002 -44.17776 2.893046
v 0.7443002 -44.17776 2.893046
v -0.1455926 -45.81866 2.337188
v 2.135144 -45.6666 1.706033
v -0.447911 -44.24427 -0.679509
v -0.4125784 -44.31179 -0.6989198
v -0.58255 -44.14564 -0.5000271
v -0.58255 -44.14564 -0.5000271
v -0.4125784 -44.31179 -0.6989198
v -1.229357 -44.78363 1.101113
v -1.229357 -44.78363 1.101113
v -0.4125784 -44.31179 -0.6989198
v -0.9331896 -45.82996 1.257754
v -0.9331896 -45.82996 1.257754
v -0.4125784 -44.31179 -0.6989198
v 0.1261272 -45.70476 -0.7531774
v 0.4614875 -42.6011 1.412615
v 0.3135779 -43.06548 2.380466
v 0.4688551 -42.59468 1.386988
v 0.4688551 -42.59468 1.386988
v 0.3135779 -43.06548 2.380466
v 1.158681 -43.09435 0.4754661
v 1.158681 -43.09435 0.4754661
v 0.3135779 -43.06548 2.380466
v 2.230158 -45.10037 0.7221093
v 2.230158 -45.10037 0.7221093
v 0.3135779 -43.06548 2.380466
v 2.337384 -45.48472 0.9949654
v 2.337384 -45.48472 0.9949654
v 0.3135779 -43.06548 2.380466
v 2.164036 -45.66264 1.634228
v 2.164036 -45.66264 1.634228
v 0.3135779 -43.06548 2.380466
v 2.135144 -45.6666 1.706033
v 2.135144 -45.6666 1.706033
v 0.3135779 -43.06548 2.380466
v 0.7443002 -44.17776 2.893046
v 1.351465 -45.34906 -0.7549106
v 0.9623829 -43.56565 -0.1343199
v 2.203546 -45.53035 0.3930004
v 2.203546 -45.53035 0.3930004
v 0.9623829 -43.56565 -0.1343199
v 2.230158 -45.10037 0.7221093
v 2.230158 -45.10037 0.7221093
v 0.9623829 -43.56565 -0.1343199
v 1.158681 -43.09435 0.4754661
v 2.337384 -45.48472 0.9949654
v 2.164036 -45.66264 1.634228
v 2.280739 -45.62556 0.6797253
v 0.1261272 -45.70476 -0.7531774
v 0.5711106 -45.67004 -1.035233
v -0.9331896 -45.82996 1.257754
v -0.9331896 -45.82996 1.257754
v 0.5711106 -45.67004 -1.035233
v -0.1455926 -45.81866 2.337188
v -0.1455926 -45.81866 2.337188
v 0.5711106 -45.67004 -1.035233
v 2.135144 -45.6666 1.706033
v 2.135144 -45.6666 1.706033
v 0.5711106 -45.67004 -1.035233
v 2.164036 -45.66264 1.634228
v 2.164036 -45.66264 1.634228
v 0.5711106 -45.67004 -1.035233
v 2.280739 -45.62556 0.6797253
v 2.280739 -45.62556 0.6797253
v 0.5711106 -45.67004 -1.035233
v 2.247777 -45.62298 0.5383479
v 2.247777 -45.62298 0.5383479
v 0.5711106 -45.67004 -1.035233
v 0.8849652 -45.65405 -0.9667494
v 0.7443002 -44.17776 2.893046
v 0.3135779 -43.06548 2.380466
v 0.1204341 -44.16503 3.09324
v 0.1204341 -44.16503 3.09324
v 0.3135779 -43.06548 2.380466
v -0.1110436 -43.68919 2.88968
v -0.1110436 -43.68919 2.88968
v 0.3135779 -43.06548 2.380466
v -0.7558688 -44.0895 1.913133
v -0.7558688 -44.0895 1.913133
v 0.3135779 -43.06548 2.380466
v 0.4614875 -42.6011 1.412615
v -0.4125784 -44.31179 -0.6989198
v -0.447911 -44.24427 -0.679509
v 0.5711106 -45.67004 -1.035233
v 0.5711106 -45.67004 -1.035233
v -0.447911 -44.24427 -0.679509
v 0.8849652 -45.65405 -0.9667494
v 0.8849652 -45.65405 -0.9667494
v -0.447911 -44.24427 -0.679509
v 1.351465 -45.34906 -0.7549106
v 1.351465 -45.34906 -0.7549106
v -0.447911 -44.24427 -0.679509
v 0.9623829 -43.56565 -0.1343199

vn -0.7993233 -0.138724 0.5846692
vn -0.7993233 -0.138724 0.5846692
vn -0.7993233 -0.138724 0.5846692
vn -0.7993233 -0.138724 0.5846692
vn -0.7993233 -0.138724 0.5846692
vn -0.7993233 -0.138724 0.5846692
vn -0.7993233 -0.138724 0.5846692
vn -0.7993233 -0.138724 0.5846692
vn -0.7993233 -0.138724 0.5846692
vn -0.7993233 -0.138724 0.5846692
vn -0.7993233 -0.138724 0.5846692
vn -0.7993233 -0.138724 0.5846692
vn -0.5183994 -0.1678212 -0.8385096
vn -0.5183994 -0.1678212 -0.8385096
vn -0.5183994 -0.1678212 -0.8385096
vn -0.7836419 0.6171836 -0.07063938
vn -0.7836419 0.6171836 -0.07063938
vn -0.7836419 0.6171836 -0.07063938
vn -0.7836419 0.6171836 -0.07063938
vn -0.7836419 0.6171836 -0.07063938
vn -0.7836419 0.6171836 -0.07063938
vn -0.7836419 0.6171836 -0.07063938
vn -0.7836419 0.6171836 -0.07063938
vn -0.7836419 0.6171836 -0.07063938
vn -0.1677897 0.805405 -0.5684799
vn -0.1677897 0.805405 -0.5684799
vn -0.1677897 0.805405 -0.5684799
vn -0.1677897 0.805405 -0.5684799
vn -0.1677897 0.805405 -0.5684799
vn -0.1677897 0.805405 -0.5684799
vn -0.1677897 0.805405 -0.5684799
vn -0.1677897 0.805405 -0.5684799
vn -0.1677897 0.805405 -0.5684799
vn 0.6176988 -0.5643874 -0.547645
vn 0.6176988 -0.5643874 -0.547645
vn 0.6176988 -0.5643874 -0.547645
vn 0.6176988 -0.5643874 -0.547645
vn 0.6176988 -0.5643874 -0.547645
vn 0.6176988 -0.5643874 -0.547645
vn 0.9682766 0.1113084 -0.2237208
vn 0.9682766 0.1113084 -0.2237208
vn 0.9682766 0.1113084 -0.2237208
vn 0.9682766 0.1113084 -0.2237208
vn 0.9682766 0.1113084 -0.2237208
vn 0.9682766 0.1113084 -0.2237208
vn 0.9682766 0.1113084 -0.2237208
vn 0.9682766 0.1113084 -0.2237208
vn 0.9682766 0.1113084 -0.2237208
vn 0.266909 -0.4359131 0.8594995
vn 0.266909 -0.4359131 0.8594995
vn 0.266909 -0.4359131 0.8594995
vn 0.266909 -0.4359131 0.8594995
vn 0.266909 -0.4359131 0.8594995
vn 0.266909 -0.4359131 0.8594995
vn -0.8346589 -0.3049129 -0.4586641
vn -0.8346589 -0.3049129 -0.4586641
vn -0.8346589 -0.3049129 -0.4586641
vn -0.8346589 -0.3049129 -0.4586641
vn -0.8346589 -0.3049129 -0.4586641
vn -0.8346589 -0.3049129 -0.4586641
vn -0.8346589 -0.3049129 -0.4586641
vn -0.8346589 -0.3049129 -0.4586641
vn -0.8346589 -0.3049129 -0.4586641
vn -0.8346589 -0.3049129 -0.4586641
vn -0.8346589 -0.3049129 -0.4586641
vn -0.8346589 -0.3049129 -0.4586641
vn 0.8073364 0.4743759 0.3509637
vn 0.8073364 0.4743759 0.3509637
vn 0.8073364 0.4743759 0.3509637
vn 0.8073364 0.4743759 0.3509637
vn 0.8073364 0.4743759 0.3509637
vn 0.8073364 0.4743759 0.3509637
vn 0.8073364 0.4743759 0.3509637
vn 0.8073364 0.4743759 0.3509637
vn 0.8073364 0.4743759 0.3509637
vn 0.8073364 0.4743759 0.3509637
vn 0.8073364 0.4743759 0.3509637
vn 0.8073364 0.4743759 0.3509637
vn 0.8073364 0.4743759 0.3509637
vn 0.8073364 0.4743759 0.3509637
vn 0.8073364 0.4743759 0.3509637
vn 0.8073364 0.4743759 0.3509637
vn 0.8073364 0.4743759 0.3509637
vn 0.8073364 0.4743759 0.3509637
vn 0.8073364 0.4743759 0.3509637
vn 0.8073364 0.4743759 0.3509637
vn 0.8073364 0.4743759 0.3509637
vn 0.7775241 0.351152 -0.5216787
vn 0.7775241 0.351152 -0.5216787
vn 0.7775241 0.351152 -0.5216787
vn 0.7775241 0.351152 -0.5216787
vn 0.7775241 0.351152 -0.5216787
vn 0.7775241 0.351152 -0.5216787
vn 0.7775241 0.351152 -0.5216787
vn 0.7775241 0.351152 -0.5216787
vn 0.7775241 0.351152 -0.5216787
vn 0.846279 -0.5262316 0.08301871
vn 0.846279 -0.5262316 0.08301871
vn 0.846279 -0.5262316 0.08301871
vn 0.05775766 -0.9978273 -0.03170079
vn 0.05775766 -0.9978273 -0.03170079
vn 0.05775766 -0.9978273 -0.03170079
vn 0.05775766 -0.9978273 -0.03170079
vn 0.05775766 -0.9978273 -0.03170079
vn 0.05775766 -0.9978273 -0.03170079
vn 0.05775766 -0.9978273 -0.03170079
vn 0.05775766 -0.9978273 -0.03170079
vn 0.05775766 -0.9978273 -0.03170079
vn 0.05775766 -0.9978273 -0.03170079
vn 0.05775766 -0.9978273 -0.03170079
vn 0.05775766 -0.9978273 -0.03170079
vn 0.05775766 -0.9978273 -0.03170079
vn 0.05775766 -0.9978273 -0.03170079
vn 0.05775766 -0.9978273 -0.03170079
vn 0.05775766 -0.9978273 -0.03170079
vn 0.05775766 -0.9978273 -0.03170079
vn 0.05775766 -0.9978273 -0.03170079
vn 0.05775766 -0.9978273 -0.03170079
vn 0.05775766 -0.9978273 -0.03170079
vn 0.05775766 -0.9978273 -0.03170079
vn 0.2756701 0.4883156 0.8279818
vn 0.2756701 0.4883156 0.8279818
vn 0.2756701 0.4883156 0.8279818
vn 0.2756701 0.4883156 0.8279818
vn 0.2756701 0.4883156 0.8279818
vn 0.2756701 0.4883156 0.8279818
vn -0.7222558 0.6601344 0.2063229
vn -0.7222558 0.6601344 0.2063229
vn -0.7222558 0.6601344 0.2063229
vn -0.7222558 0.6601344 0.2063229
vn -0.7222558 0.6601344 0.2063229
vn -0.7222558 0.6601344 0.2063229
vn 0.1816285 0.3582752 -0.9157784
vn 0.1816285 0.3582752 -0.9157784
vn 0.1816285 0.3582752 -0.9157784
vn 0.1816285 0.3582752 -0.9157784
vn 0.1816285 0.3582752 -0.9157784
vn 0.1816285 0.3582752 -0.9157784
vn 0.1816285 0.3582752 -0.9157784
vn 0.1816285 0.3582752 -0.9157784
vn 0.1816285 0.3582752 -0.9157784
vn 0.1816285 0.3582752 -0.9157784
vn 0.1816285 0.3582752 -0.9157784
vn 0.1816285 0.3582752 -0.9157784

vt 0.5861603 0.2975529
vt 0.6411558 0.3246921
vt 0.4148501 0.3983562
vt 0.4148501 0.3983562
vt 0.6411558 0.3246921
vt 0.4282102 0.5422804
vt 0.4282102 0.5422804
vt 0.6411558 0.3246921
vt 0.5452001 0.563161
vt 0.5452001 0.563161
vt 0.6411558 0.3246921
vt 0.6104123 0.454893
vt 0.4037672 0.4744604
vt 0.6439125 0.4584321
vt 0.3870125 0.5578244
vt 0.3932338 0.4259703
vt 0.4669771 0.3543552
vt 0.4725372 0.5671843
vt 0.4725372 0.5671843
vt 0.4669771 0.3543552
vt 0.6369554 0.400759
vt 0.6369554 0.400759
vt 0.4669771 0.3543552
vt 0.6361079 0.3985005
vt 0.3809076 0.5407344
vt 0.3689911 0.5174695
vt 0.5429369 0.4700552
vt 0.5429369 0.4700552
vt 0.3689911 0.5174695
vt 0.5736897 0.3909893
vt 0.5736897 0.3909893
vt 0.3689911 0.5174695
vt 0.5125195 0.2728119
vt 0.5008126 0.5573121
vt 0.4545717 0.4134206
vt 0.5574379 0.5838553
vt 0.5574379 0.5838553
vt 0.4545717 0.4134206
vt 0.4586183 0.3952036
vt 0.5842045 0.4457659
vt 0.583627 0.4588326
vt 0.5721902 0.416643
vt 0.5721902 0.416643
vt 0.583627 0.4588326
vt 0.5367063 0.4418496
vt 0.5367063 0.4418496
vt 0.583627 0.4588326
vt 0.5748911 0.4722531
vt 0.5407203 0.1211064
vt 0.7279191 0.3750495
vt 0.450511 0.188349
vt 0.450511 0.188349
vt 0.7279191 0.3750495
vt 0.3803488 0.5870497
vt 0.5993387 0.5480453
vt 0.5918787 0.550206
vt 0.6130573 0.5281054
vt 0.6130573 0.5281054
vt 0.5918787 0.550206
vt 0.5757852 0.3501595
vt 0.5757852 0.3501595
vt 0.5918787 0.550206
vt 0.4687001 0.3327528
vt 0.4687001 0.3327528
vt 0.5918787 0.550206
vt 0.4444108 0.5562318
vt 0.3011246 0.4362802
vt 0.3316259 0.3394165
vt 0.3009569 0.4388461
vt 0.3009569 0.4388461
vt 0.3316259 0.3394165
vt 0.3740809 0.5300705
vt 0.3740809 0.5300705
vt 0.3316259 0.3394165
vt 0.5870358 0.5053807
vt 0.5870358 0.5053807
vt 0.3316259 0.3394165
vt 0.6231809 0.478074
vt 0.6231809 0.478074
vt 0.3316259 0.3394165
vt 0.6293278 0.4141004
vt 0.6293278 0.4141004
vt 0.3316259 0.3394165
vt 0.6282754 0.4069152
vt 0.6282754 0.4069152
vt 0.3316259 0.3394165
vt 0.4419474 0.2881185
vt 0.5691075 0.5840694
vt 0.3854478 0.5092458
vt 0.6221658 0.4456728
vt 0.6221658 0.4456728
vt 0.3854478 0.5092458
vt 0.5829844 0.4059931
vt 0.5829844 0.4059931
vt 0.3854478 0.5092458
vt 0.3495774 0.4357307
vt 0.4767002 0.4574262
vt 0.4980651 0.4009453
vt 0.489874 0.4852825
vt 0.5650935 0.5967077
vt 0.5259028 0.6214812
vt 0.6585718 0.4200703
vt 0.6585718 0.4200703
vt 0.5259028 0.6214812
vt 0.5894759 0.3252509
vt 0.5894759 0.3252509
vt 0.5259028 0.6214812
vt 0.3888007 0.3806887
vt 0.3888007 0.3806887
vt 0.5259028 0.6214812
vt 0.3862488 0.3869985
vt 0.3862488 0.3869985
vt 0.5259028 0.6214812
vt 0.3758318 0.4708468
vt 0.3758318 0.4708468
vt 0.5259028 0.6214812
vt 0.378705 0.4832615
vt 0.378705 0.4832615
vt 0.5259028 0.6214812
vt 0.4983073 0.6154742
vt 0.4378914 0.3503318
vt 0.2936273 0.4933758
vt 0.3518918 0.2944655
vt 0.3518918 0.2944655
vt 0.2936273 0.4933758
vt 0.2837412 0.3512724
vt 0.5207059 0.3065217
vt 0.5876784 0.353191
vt 0.4551957 0.3960232
vt 0.4551957 0.3960232
vt 0.5876784 0.353191
vt 0.627372 0.4419008
vt 0.5107313 0.5811078
vt 0.5044913 0.5843116
vt 0.6345526 0.4918484
vt 0.6345526 0.4918484
vt 0.5044913 0.5843116
vt 0.6309949 0.4633681
vt 0.6309949 0.4633681
vt 0.5044913 0.5843116
vt 0.5987706 0.4210296
vt 0.5987706 0.4210296
vt 0.5044913 0.5843116
vt 0.4303755 0.4563459

usemtl Material0
usemap Material0

usemtl Material1
usemap Material1
f 1/1/1 2/2/2 3/3/3
f 4/4/4 5/5/5 6/6/6
f 7/7/7 8/8/8 9/9/9
f 10/10/10 11/11/11 12/12/12
f 13/13/13 14/14/14 15/15/15
f 16/16/16 17/17/17 18/18/18
f 19/19/19 20/20/20 21/21/21
f 22/22/22 23/23/23 24/24/24
f 25/25/25 26/26/26 27/27/27
f 28/28/28 29/29/29 30/30/30
f 31/31/31 32/32/32 33/33/33
f 34/34/34 35/35/35 36/36/36
f 37/37/37 38/38/38 39/39/39
f 40/40/40 41/41/41 42/42/42
f 43/43/43 44/44/44 45/45/45
f 46/46/46 47/47/47 48/48/48
f 49/49/49 50/50/50 51/51/51
f 52/52/52 53/53/53 54/54/54
f 55/55/55 56/56/56 57/57/57
f 58/58/58 59/59/59 60/60/60
f 61/61/61 62/62/62 63/63/63
f 64/64/64 65/65/65 66/66/66
f 67/67/67 68/68/68 69/69/69
f 70/70/70 71/71/71 72/72/72
f 73/73/73 74/74/74 75/75/75
f 76/76/76 77/77/77 78/78/78
f 79/79/79 80/80/80 81/81/81
f 82/82/82 83/83/83 84/84/84
f 85/85/85 86/86/86 87/87/87
f 88/88/88 89/89/89 90/90/90
f 91/91/91 92/92/92 93/93/93
f 94/94/94 95/95/95 96/96/96
f 97/97/97 98/98/98 99/99/99
f 100/100/100 101/101/101 102/102/102
f 103/103/103 104/104/104 105/105/105
f 106/106/106 107/107/107 108/108/108
f 109/109/109 110/110/110 111/111/111
f 112/112/112 113/113/113 114/114/114
f 115/115/115 116/116/116 117/117/117
f 118/118/118 119/119/119 120/120/120
f 121/121/121 122/122/122 123/123/123
f 124/124/124 125/125/125 126/126/126
f 127/127/127 128/128/128 129/129/129
f 130/130/130 131/131/131 132/132/132
f 133/133/133 134/134/134 135/135/135
f 136/136/136 137/137/137 138/138/138
f 139/139/139 140/140/140 141/141/141
f 142/142/142 143/143/143 144/144/144
