g  Instance
v -0.3341608 -47.49197 4.821403
v 0.6371554 -47.45993 4.462122
v -1.812088 -48.73454 4.205581
v -1.812088 -48.73454 4.205581
v 0.6371554 -47.45993 4.462122
v -0.1935569 -48.24567 4.030949
v 0.3476563 -49.73147 5.4355
v 0.4469688 -49.64858 5.469893
v -1.206088 -49.35962 6.107347
v -1.206088 -49.35962 6.107347
v 0.4469688 -49.64858 5.469893
v -1.302137 -48.97165 6.413515
v -1.302137 -48.97165 6.413515
v 0.4469688 -49.64858 5.469893
v -0.4503784 -48.28958 6.687555
v -0.4503784 -48.28958 6.687555
v 0.4469688 -49.64858 5.469893
v 0.6705208 -48.99619 5.885039
v -2.111681 -48.98048 4.308977
v -2.164536 -49.00924 4.890092
v -1.812088 -48.73454 4.205581
v -1.812088 -48.73454 4.205581
v -2.164536 -49.00924 4.890092
v -0.3341608 -47.49197 4.821403
v -0.3341608 -47.49197 4.821403
v -2.164536 -49.00924 4.890092
v 0.2698671 -46.95848 6.059897
v 0.2698671 -46.95848 6.059897
v -2.164536 -49.00924 4.890092
v 0.2640737 -46.96317 6.064568
v 0.2640737 -46.96317 6.064568
v -2.164536 -49.00924 4.890092
v -1.560593 -48.49079 5.552694
v 0.3476563 -49.73147 5.4355
v 0.3952873 -49.73517 5.311053
v 0.4469688 -49.64858 5.469893
v 0.2698671 -46.95848 6.059897
v 0.9996046 -47.03165 5.513153
v -0.3341608 -47.49197 4.821403
v -0.3341608 -47.49197 4.821403
v 0.9996046 -47.03165 5.513153
v 0.6371554 -47.45993 4.462122
v 0.6371554 -47.45993 4.462122
v 0.9996046 -47.03165 5.513153
v 0.6968428 -47.44142 4.487132
v 0.6968428 -47.44142 4.487132
v 0.4004978 -48.57434 4.199161
v 0.6371554 -47.45993 4.462122
v 0.6371554 -47.45993 4.462122
v 0.4004978 -48.57434 4.199161
v -0.1935569 -48.24567 4.030949
v 0.2640737 -46.96317 6.064568
v -1.560593 -48.49079 5.552694
v -0.4503784 -48.28958 6.687555
v -0.4503784 -48.28958 6.687555
v -1.560593 -48.49079 5.552694
v -1.302137 -48.97165 6.413515
v -1.302137 -48.97165 6.413515
v -1.560593 -48.49079 5.552694
v -1.496581 -49.0108 6.219177
v -1.206088 -49.35962 6.107347
v -1.786467 -49.18075 5.819279
v 0.3476563 -49.73147 5.4355
v 0.3476563 -49.73147 5.4355
v -1.786467 -49.18075 5.819279
v 0.3952873 -49.73517 5.311053
v 0.3952873 -49.73517 5.311053
v -1.786467 -49.18075 5.819279
v 0.2797775 -49.65783 4.690894
v 0.2797775 -49.65783 4.690894
v -1.786467 -49.18075 5.819279
v -2.111681 -48.98048 4.308977
v -2.111681 -48.98048 4.308977
v -1.786467 -49.18075 5.819279
v -2.164536 -49.00924 4.890092
v 0.2640737 -46.96317 6.064568
v -0.4503784 -48.28958 6.687555
v 0.2698671 -46.95848 6.059897
v 0.2698671 -46.95848 6.059897
v -0.4503784 -48.28958 6.687555
v 0.9996046 -47.03165 5.513153
v 0.9996046 -47.03165 5.513153
v -0.4503784 -48.28958 6.687555
v 0.6705208 -48.99619 5.885039
v -0.1935569 -48.24567 4.030949
v 0.4004978 -48.57434 4.199161
v -1.812088 -48.73454 4.205581
v -1.812088 -48.73454 4.205581
v 0.4004978 -48.57434 4.199161
v -2.111681 -48.98048 4.308977
v -2.111681 -48.98048 4.308977
v 0.4004978 -48.57434 4.199161
v 0.2797775 -49.65783 4.690894
v -1.302137 -48.97165 6.413515
v -1.496581 -49.0108 6.219177
v -1.206088 -49.35962 6.107347
v -1.206088 -49.35962 6.107347
v -1.496581 -49.0108 6.219177
v -1.786467 -49.18075 5.819279
v 0.9996046 -47.03165 5.513153
v 0.6705208 -48.99619 5.885039
v 0.6968428 -47.44142 4.487132
v 0.6968428 -47.44142 4.487132
v 0.6705208 -48.99619 5.885039
v 0.4004978 -48.57434 4.199161
v 0.4004978 -48.57434 4.199161
v 0.6705208 -48.99619 5.885039
v 0.2797775 -49.65783 4.690894
v 0.2797775 -49.65783 4.690894
v 0.6705208 -48.99619 5.885039
v 0.3952873 -49.73517 5.311053
v 0.3952873 -49.73517 5.311053
v 0.6705208 -48.99619 5.885039
v 0.4469688 -49.64858 5.469893
v -1.786467 -49.18075 5.819279
v -1.496581 -49.0108 6.219177
v -2.164536 -49.00924 4.890092
v -2.164536 -49.00924 4.890092
v -1.496581 -49.0108 6.219177
v -1.560593 -48.49079 5.552694

vn -0.276769 0.6703964 -0.6884531
vn -0.276769 0.6703964 -0.6884531
vn -0.276769 0.6703964 -0.6884531
vn -0.276769 0.6703964 -0.6884531
vn -0.276769 0.6703964 -0.6884531
vn -0.276769 0.6703964 -0.6884531
vn 0.2051296 -0.5745162 0.7923717
vn 0.2051296 -0.5745162 0.7923717
vn 0.2051296 -0.5745162 0.7923717
vn 0.2051296 -0.5745162 0.7923717
vn 0.2051296 -0.5745162 0.7923717
vn 0.2051296 -0.5745162 0.7923717
vn 0.2051296 -0.5745162 0.7923717
vn 0.2051296 -0.5745162 0.7923717
vn 0.2051296 -0.5745162 0.7923717
vn 0.2051296 -0.5745162 0.7923717
vn 0.2051296 -0.5745162 0.7923717
vn 0.2051296 -0.5745162 0.7923717
vn -0.6385006 0.7693613 -0.02000752
vn -0.6385006 0.7693613 -0.02000752
vn -0.6385006 0.7693613 -0.02000752
vn -0.6385006 0.7693613 -0.02000752
vn -0.6385006 0.7693613 -0.02000752
vn -0.6385006 0.7693613 -0.02000752
vn -0.6385006 0.7693613 -0.02000752
vn -0.6385006 0.7693613 -0.02000752
vn -0.6385006 0.7693613 -0.02000752
vn -0.6385006 0.7693613 -0.02000752
vn -0.6385006 0.7693613 -0.02000752
vn -0.6385006 0.7693613 -0.02000752
vn -0.6385006 0.7693613 -0.02000752
vn -0.6385006 0.7693613 -0.02000752
vn -0.6385006 0.7693613 -0.02000752
vn 0.57103 -0.7844894 0.2418703
vn 0.57103 -0.7844894 0.2418703
vn 0.57103 -0.7844894 0.2418703
vn -0.1519319 0.9325231 -0.3275933
vn -0.1519319 0.9325231 -0.3275933
vn -0.1519319 0.9325231 -0.3275933
vn -0.1519319 0.9325231 -0.3275933
vn -0.1519319 0.9325231 -0.3275933
vn -0.1519319 0.9325231 -0.3275933
vn -0.1519319 0.9325231 -0.3275933
vn -0.1519319 0.9325231 -0.3275933
vn -0.1519319 0.9325231 -0.3275933
vn 0.3434688 0.1459793 -0.9277496
vn 0.3434688 0.1459793 -0.9277496
vn 0.3434688 0.1459793 -0.9277496
vn 0.3434688 0.1459793 -0.9277496
vn 0.3434688 0.1459793 -0.9277496
vn 0.3434688 0.1459793 -0.9277496
vn -0.630821 0.5812108 0.5140612
vn -0.630821 0.5812108 0.5140612
vn -0.630821 0.5812108 0.5140612
vn -0.630821 0.5812108 0.5140612
vn -0.630821 0.5812108 0.5140612
vn -0.630821 0.5812108 0.5140612
vn -0.630821 0.5812108 0.5140612
vn -0.630821 0.5812108 0.5140612
vn -0.630821 0.5812108 0.5140612
vn -0.2612533 -0.9626265 -0.07139362
vn -0.2612533 -0.9626265 -0.07139362
vn -0.2612533 -0.9626265 -0.07139362
vn -0.2612533 -0.9626265 -0.07139362
vn -0.2612533 -0.9626265 -0.07139362
vn -0.2612533 -0.9626265 -0.07139362
vn -0.2612533 -0.9626265 -0.07139362
vn -0.2612533 -0.9626265 -0.07139362
vn -0.2612533 -0.9626265 -0.07139362
vn -0.2612533 -0.9626265 -0.07139362
vn -0.2612533 -0.9626265 -0.07139362
vn -0.2612533 -0.9626265 -0.07139362
vn -0.2612533 -0.9626265 -0.07139362
vn -0.2612533 -0.9626265 -0.07139362
vn -0.2612533 -0.9626265 -0.07139362
vn 0.6020573 0.05001055 0.7968851
vn 0.6020573 0.05001055 0.7968851
vn 0.6020573 0.05001055 0.7968851
vn 0.6020573 0.05001055 0.7968851
vn 0.6020573 0.05001055 0.7968851
vn 0.6020573 0.05001055 0.7968851
vn 0.6020573 0.05001055 0.7968851
vn 0.6020573 0.05001055 0.7968851
vn 0.6020573 0.05001055 0.7968851
vn 0.02745237 -0.4156551 -0.909108
vn 0.02745237 -0.4156551 -0.909108
vn 0.02745237 -0.4156551 -0.909108
vn 0.02745237 -0.4156551 -0.909108
vn 0.02745237 -0.4156551 -0.909108
vn 0.02745237 -0.4156551 -0.909108
vn 0.02745237 -0.4156551 -0.909108
vn 0.02745237 -0.4156551 -0.909108
vn 0.02745237 -0.4156551 -0.909108
vn -0.4950257 -0.6104564 0.6182981
vn -0.4950257 -0.6104564 0.6182981
vn -0.4950257 -0.6104564 0.6182981
vn -0.4950257 -0.6104564 0.6182981
vn -0.4950257 -0.6104564 0.6182981
vn -0.4950257 -0.6104564 0.6182981
vn 0.9586481 -0.1990832 -0.2033713
vn 0.9586481 -0.1990832 -0.2033713
vn 0.9586481 -0.1990832 -0.2033713
vn 0.9586481 -0.1990832 -0.2033713
vn 0.9586481 -0.1990832 -0.2033713
vn 0.9586481 -0.1990832 -0.2033713
vn 0.9586481 -0.1990832 -0.2033713
vn 0.9586481 -0.1990832 -0.2033713
vn 0.9586481 -0.1990832 -0.2033713
vn 0.9586481 -0.1990832 -0.2033713
vn 0.9586481 -0.1990832 -0.2033713
vn 0.9586481 -0.1990832 -0.2033713
vn 0.9586481 -0.1990832 -0.2033713
vn 0.9586481 -0.1990832 -0.2033713
vn 0.9586481 -0.1990832 -0.2033713
vn -0.8096504 0.422459 0.4074245
vn -0.8096504 0.422459 0.4074245
vn -0.8096504 0.422459 0.4074245
vn -0.8096504 0.422459 0.4074245
vn -0.8096504 0.422459 0.4074245
vn -0.8096504 0.422459 0.4074245

vt 0.5742857 0.4015553
vt 0.6843978 0.4614868
vt 0.351631 0.5042818
vt 0.351631 0.5042818
vt 0.6843978 0.4614868
vt 0.555212 0.533414
vt 0.4339333 0.5837435
vt 0.4164707 0.5756316
vt 0.6264406 0.425323
vt 0.6264406 0.425323
vt 0.4164707 0.5756316
vt 0.620685 0.3531304
vt 0.620685 0.3531304
vt 0.4164707 0.5756316
vt 0.4723043 0.2885096
vt 0.4723043 0.2885096
vt 0.4164707 0.5756316
vt 0.3546299 0.477748
vt 0.3710261 0.519146
vt 0.3658479 0.4681366
vt 0.4050478 0.5282265
vt 0.4050478 0.5282265
vt 0.3658479 0.4681366
vt 0.5745186 0.4741624
vt 0.5745186 0.4741624
vt 0.3658479 0.4681366
vt 0.6452164 0.3654427
vt 0.6452164 0.3654427
vt 0.3658479 0.4681366
vt 0.6445644 0.3650283
vt 0.6445644 0.3650283
vt 0.3658479 0.4681366
vt 0.4356981 0.4099653
vt 0.4965331 0.4541479
vt 0.4932455 0.4657431
vt 0.4848588 0.4509441
vt 0.6001024 0.3230762
vt 0.6659107 0.3768237
vt 0.5367622 0.4448252
vt 0.5367622 0.4448252
vt 0.6659107 0.3768237
vt 0.6262823 0.4801508
vt 0.6262823 0.4801508
vt 0.6659107 0.3768237
vt 0.6320286 0.4776921
vt 0.4082051 0.3607907
vt 0.5169526 0.3902768
vt 0.4102773 0.366728
vt 0.4102773 0.366728
vt 0.5169526 0.3902768
vt 0.4890637 0.4493795
vt 0.6763789 0.3905748
vt 0.4349577 0.4516333
vt 0.5270576 0.3162681
vt 0.5270576 0.3162681
vt 0.4349577 0.4516333
vt 0.4166942 0.3489534
vt 0.4166942 0.3489534
vt 0.4349577 0.4516333
vt 0.4002701 0.3721344
vt 0.5357749 0.3564833
vt 0.5891685 0.3818901
vt 0.3952781 0.4157396
vt 0.3952781 0.4157396
vt 0.5891685 0.3818901
vt 0.3911476 0.4267154
vt 0.3911476 0.4267154
vt 0.5891685 0.3818901
vt 0.4027334 0.4814175
vt 0.4027334 0.4814175
vt 0.5891685 0.3818901
vt 0.6213928 0.5150946
vt 0.6213928 0.5150946
vt 0.5891685 0.3818901
vt 0.6252206 0.4638431
vt 0.2810124 0.4768726
vt 0.4644252 0.3270809
vt 0.2804023 0.4779995
vt 0.2804023 0.4779995
vt 0.4644252 0.3270809
vt 0.2997648 0.6094484
vt 0.2997648 0.6094484
vt 0.4644252 0.3270809
vt 0.5801904 0.52004
vt 0.4342359 0.4137186
vt 0.4666185 0.3615497
vt 0.479634 0.5558593
vt 0.479634 0.5558593
vt 0.4666185 0.3615497
vt 0.5030385 0.5821695
vt 0.5030385 0.5821695
vt 0.4666185 0.3615497
vt 0.5710633 0.372153
vt 0.5340148 0.3906074
vt 0.5481245 0.4182123
vt 0.4984051 0.4341009
vt 0.4984051 0.4341009
vt 0.5481245 0.4182123
vt 0.5613123 0.4750192
vt 0.3387273 0.3923258
vt 0.5171203 0.3582854
vt 0.3802137 0.4862418
vt 0.3802137 0.4862418
vt 0.5171203 0.3582854
vt 0.4850217 0.5126079
vt 0.4850217 0.5126079
vt 0.5171203 0.3582854
vt 0.5823139 0.4675871
vt 0.5823139 0.4675871
vt 0.5171203 0.3582854
vt 0.5869892 0.4108221
vt 0.5869892 0.4108221
vt 0.5171203 0.3582854
vt 0.5784488 0.396284
vt 0.3914736 0.418678
vt 0.4188316 0.3766048
vt 0.3892803 0.516445
vt 0.3892803 0.516445
vt 0.4188316 0.3766048
vt 0.4602901 0.4467252

usemtl Material0
usemap Material0

usemtl Material1
usemap Material1
f 1/1/1 2/2/2 3/3/3
f 4/4/4 5/5/5 6/6/6
f 7/7/7 8/8/8 9/9/9
f 10/10/10 11/11/11 12/12/12
f 13/13/13 14/14/14 15/15/15
f 16/16/16 17/17/17 18/18/18
f 19/19/19 20/20/20 21/21/21
f 22/22/22 23/23/23 24/24/24
f 25/25/25 26/26/26 27/27/27
f 28/28/28 29/29/29 30/30/30
f 31/31/31 32/32/32 33/33/33
f 34/34/34 35/35/35 36/36/36
f 37/37/37 38/38/38 39/39/39
f 40/40/40 41/41/41 42/42/42
f 43/43/43 44/44/44 45/45/45
f 46/46/46 47/47/47 48/48/48
f 49/49/49 50/50/50 51/51/51
f 52/52/52 53/53/53 54/54/54
f 55/55/55 56/56/56 57/57/57
f 58/58/58 59/59/59 60/60/60
f 61/61/61 62/62/62 63/63/63
f 64/64/64 65/65/65 66/66/66
f 67/67/67 68/68/68 69/69/69
f 70/70/70 71/71/71 72/72/72
f 73/73/73 74/74/74 75/75/75
f 76/76/76 77/77/77 78/78/78
f 79/79/79 80/80/80 81/81/81
f 82/82/82 83/83/83 84/84/84
f 85/85/85 86/86/86 87/87/87
f 88/88/88 89/89/89 90/90/90
f 91/91/91 92/92/92 93/93/93
f 94/94/94 95/95/95 96/96/96
f 97/97/97 98/98/98 99/99/99
f 100/100/100 101/101/101 102/102/102
f 103/103/103 104/104/104 105/105/105
f 106/106/106 107/107/107 108/108/108
f 109/109/109 110/110/110 111/111/111
f 112/112/112 113/113/113 114/114/114
f 115/115/115 116/116/116 117/117/117
f 118/118/118 119/119/119 120/120/120
