g  Instance
v -6.892544 -45.93885 6.355116
v -6.881985 -45.99082 6.395363
v -6.525115 -45.93841 6.785556
v -5.720917 -45.50111 7.362008
v -5.791164 -45.23701 7.148353
v -6.053451 -45.90588 7.272378
v -6.053451 -45.90588 7.272378
v -5.791164 -45.23701 7.148353
v -6.242025 -45.90161 7.091327
v -6.892544 -45.93885 6.355116
v -7.005747 -46.02108 6.250539
v -6.881985 -45.99082 6.395363
v -5.518274 -44.92604 7.170963
v -5.728446 -45.04006 7.065462
v -5.456965 -45.09065 7.34064
v -5.456965 -45.09065 7.34064
v -5.728446 -45.04006 7.065462
v -5.791164 -45.23701 7.148353
v -6.282117 -45.9049 7.049533
v -6.242025 -45.90161 7.091327
v -6.481622 -45.47307 6.546625
v -6.481622 -45.47307 6.546625
v -6.242025 -45.90161 7.091327
v -6.104745 -45.25468 6.816146
v -6.104745 -45.25468 6.816146
v -6.242025 -45.90161 7.091327
v -5.791164 -45.23701 7.148353
v -6.739579 -45.62643 6.339786
v -6.892544 -45.93885 6.355116
v -6.481622 -45.47307 6.546625
v -6.481622 -45.47307 6.546625
v -6.892544 -45.93885 6.355116
v -6.282117 -45.9049 7.049533
v -6.282117 -45.9049 7.049533
v -6.892544 -45.93885 6.355116
v -6.525115 -45.93841 6.785556
v -5.791164 -45.23701 7.148353
v -5.720917 -45.50111 7.362008
v -5.456965 -45.09065 7.34064
v -5.456965 -45.09065 7.34064
v -5.720917 -45.50111 7.362008
v -5.415969 -45.18404 7.429647
v -5.728446 -45.04006 7.065462
v -5.854425 -45.11196 6.981683
v -5.791164 -45.23701 7.148353
v -6.104745 -45.25468 6.816146
v -5.791164 -45.23701 7.148353
v -5.854425 -45.11196 6.981683
v -6.973392 -45.77063 6.122437
v -6.99804 -45.78609 6.097971
v -6.892544 -45.93885 6.355116
v -6.892544 -45.93885 6.355116
v -6.99804 -45.78609 6.097971
v -7.005747 -46.02108 6.250539
v -7.005747 -46.02108 6.250539
v -6.99804 -45.78609 6.097971
v -7.156209 -46.06692 6.06736
v -6.739579 -45.62643 6.339786
v -6.973392 -45.77063 6.122437
v -6.892544 -45.93885 6.355116
v -4.803592 -46.9717 6.913537
v -5.291234 -47.43157 6.818051
v -3.748309 -46.3559 6.489594
v -3.748309 -46.3559 6.489594
v -5.291234 -47.43157 6.818051
v -3.597235 -46.51131 6.02403
v -3.597235 -46.51131 6.02403
v -5.291234 -47.43157 6.818051
v -3.645294 -47.14342 5.039246
v -3.645294 -47.14342 5.039246
v -5.291234 -47.43157 6.818051
v -4.601908 -47.94047 5.026582
v -4.601908 -47.94047 5.026582
v -5.291234 -47.43157 6.818051
v -5.519832 -48.13376 5.964419
v -5.519832 -48.13376 5.964419
v -5.291234 -47.43157 6.818051
v -5.554101 -48.13673 6.006492
v -6.022364 -47.18719 4.718445
v -6.548838 -46.95559 4.843268
v -5.80031 -47.25562 4.684161
v -5.80031 -47.25562 4.684161
v -6.548838 -46.95559 4.843268
v -3.642732 -46.89932 4.99234
v -3.642732 -46.89932 4.99234
v -6.548838 -46.95559 4.843268
v -3.607606 -46.04815 5.528202
v -3.607606 -46.04815 5.528202
v -6.548838 -46.95559 4.843268
v -3.786159 -45.61819 5.791199
v -3.786159 -45.61819 5.791199
v -6.548838 -46.95559 4.843268
v -4.991929 -44.85015 6.226295
v -4.991929 -44.85015 6.226295
v -6.548838 -46.95559 4.843268
v -6.480545 -45.62235 5.683138
v -7.156209 -46.06692 6.06736
v -6.99804 -45.78609 6.097971
v -7.110311 -46.94522 5.421605
v -7.110311 -46.94522 5.421605
v -6.99804 -45.78609 6.097971
v -6.548838 -46.95559 4.843268
v -6.548838 -46.95559 4.843268
v -6.99804 -45.78609 6.097971
v -6.480545 -45.62235 5.683138
v -5.519832 -48.13376 5.964419
v -6.022364 -47.18719 4.718445
v -4.601908 -47.94047 5.026582
v -4.601908 -47.94047 5.026582
v -6.022364 -47.18719 4.718445
v -5.80031 -47.25562 4.684161
v -3.607606 -46.04815 5.528202
v -3.786159 -45.61819 5.791199
v -3.597235 -46.51131 6.02403
v -3.597235 -46.51131 6.02403
v -3.786159 -45.61819 5.791199
v -3.748309 -46.3559 6.489594
v -3.748309 -46.3559 6.489594
v -3.786159 -45.61819 5.791199
v -3.926786 -45.84306 6.655588
v -3.926786 -45.84306 6.655588
v -3.786159 -45.61819 5.791199
v -3.887643 -45.43646 6.01374
v -5.255109 -45.28703 7.392655
v -5.415969 -45.18404 7.429647
v -4.803592 -46.9717 6.913537
v -4.803592 -46.9717 6.913537
v -5.415969 -45.18404 7.429647
v -5.291234 -47.43157 6.818051
v -5.291234 -47.43157 6.818051
v -5.415969 -45.18404 7.429647
v -6.053451 -45.90588 7.272378
v -6.053451 -45.90588 7.272378
v -5.415969 -45.18404 7.429647
v -5.720917 -45.50111 7.362008
v -7.110311 -46.94522 5.421605
v -6.548838 -46.95559 4.843268
v -5.554101 -48.13673 6.006492
v -5.554101 -48.13673 6.006492
v -6.548838 -46.95559 4.843268
v -5.519832 -48.13376 5.964419
v -5.519832 -48.13376 5.964419
v -6.548838 -46.95559 4.843268
v -6.022364 -47.18719 4.718445
v -5.80031 -47.25562 4.684161
v -3.642732 -46.89932 4.99234
v -4.601908 -47.94047 5.026582
v -4.601908 -47.94047 5.026582
v -3.642732 -46.89932 4.99234
v -3.645294 -47.14342 5.039246
v -4.803592 -46.9717 6.913537
v -3.748309 -46.3559 6.489594
v -5.255109 -45.28703 7.392655
v -5.255109 -45.28703 7.392655
v -3.748309 -46.3559 6.489594
v -3.926786 -45.84306 6.655588
v -4.33806 -45.16816 6.146754
v -4.976512 -44.83806 6.255533
v -4.998074 -44.82121 6.409385
v -6.282117 -45.9049 7.049533
v -6.525115 -45.93841 6.785556
v -6.242025 -45.90161 7.091327
v -6.242025 -45.90161 7.091327
v -6.525115 -45.93841 6.785556
v -6.053451 -45.90588 7.272378
v -6.053451 -45.90588 7.272378
v -6.525115 -45.93841 6.785556
v -5.291234 -47.43157 6.818051
v -5.291234 -47.43157 6.818051
v -6.525115 -45.93841 6.785556
v -5.554101 -48.13673 6.006492
v -5.554101 -48.13673 6.006492
v -6.525115 -45.93841 6.785556
v -7.110311 -46.94522 5.421605
v -7.110311 -46.94522 5.421605
v -6.525115 -45.93841 6.785556
v -7.156209 -46.06692 6.06736
v -7.156209 -46.06692 6.06736
v -6.525115 -45.93841 6.785556
v -7.005747 -46.02108 6.250539
v -7.005747 -46.02108 6.250539
v -6.525115 -45.93841 6.785556
v -6.881985 -45.99082 6.395363
v -5.518274 -44.92604 7.170963
v -5.456965 -45.09065 7.34064
v -4.998074 -44.82121 6.409385
v -4.998074 -44.82121 6.409385
v -5.456965 -45.09065 7.34064
v -4.33806 -45.16816 6.146754
v -4.33806 -45.16816 6.146754
v -5.456965 -45.09065 7.34064
v -3.887643 -45.43646 6.01374
v -3.887643 -45.43646 6.01374
v -5.456965 -45.09065 7.34064
v -3.926786 -45.84306 6.655588
v -3.926786 -45.84306 6.655588
v -5.456965 -45.09065 7.34064
v -5.255109 -45.28703 7.392655
v -5.255109 -45.28703 7.392655
v -5.456965 -45.09065 7.34064
v -5.415969 -45.18404 7.429647
v -6.104745 -45.25468 6.816146
v -5.854425 -45.11196 6.981683
v -6.481622 -45.47307 6.546625
v -5.854425 -45.11196 6.981683
v -5.728446 -45.04006 7.065462
v -6.481622 -45.47307 6.546625
v -6.481622 -45.47307 6.546625
v -5.728446 -45.04006 7.065462
v -6.739579 -45.62643 6.339786
v -6.739579 -45.62643 6.339786
v -5.728446 -45.04006 7.065462
v -6.973392 -45.77063 6.122437
v -6.973392 -45.77063 6.122437
v -5.728446 -45.04006 7.065462
v -6.99804 -45.78609 6.097971
v -6.99804 -45.78609 6.097971
v -5.728446 -45.04006 7.065462
v -6.480545 -45.62235 5.683138
v -6.480545 -45.62235 5.683138
v -5.728446 -45.04006 7.065462
v -4.991929 -44.85015 6.226295
v -4.991929 -44.85015 6.226295
v -5.728446 -45.04006 7.065462
v -4.976512 -44.83806 6.255533
v -4.976512 -44.83806 6.255533
v -5.728446 -45.04006 7.065462
v -4.998074 -44.82121 6.409385
v -4.998074 -44.82121 6.409385
v -5.728446 -45.04006 7.065462
v -5.518274 -44.92604 7.170963
v -3.645294 -47.14342 5.039246
v -3.642732 -46.89932 4.99234
v -3.597235 -46.51131 6.02403
v -3.597235 -46.51131 6.02403
v -3.642732 -46.89932 4.99234
v -3.607606 -46.04815 5.528202
v -4.976512 -44.83806 6.255533
v -4.33806 -45.16816 6.146754
v -4.991929 -44.85015 6.226295
v -4.991929 -44.85015 6.226295
v -4.33806 -45.16816 6.146754
v -3.786159 -45.61819 5.791199
v -3.786159 -45.61819 5.791199
v -4.33806 -45.16816 6.146754
v -3.887643 -45.43646 6.01374

vn -0.7184767 0.3287329 0.6129648
vn -0.7184767 0.3287329 0.6129648
vn -0.7184767 0.3287329 0.6129648
vn -0.6376511 0.3748333 0.6729794
vn -0.6376511 0.3748333 0.6729794
vn -0.6376511 0.3748333 0.6729794
vn -0.6376511 0.3748333 0.6729794
vn -0.6376511 0.3748333 0.6729794
vn -0.6376511 0.3748333 0.6729794
vn -0.7555122 0.298243 0.5833115
vn -0.7555122 0.298243 0.5833115
vn -0.7555122 0.298243 0.5833115
vn -0.5724205 0.4823382 0.6627504
vn -0.5793788 0.4735976 0.6630993
vn -0.5754985 0.4784719 0.6629048
vn -0.5754985 0.4784719 0.6629048
vn -0.5793788 0.4735976 0.6630993
vn -0.5856611 0.4657064 0.6634144
vn -0.6754363 0.405355 0.616014
vn -0.6754363 0.405355 0.616014
vn -0.6754363 0.405355 0.616014
vn -0.6754363 0.405355 0.616014
vn -0.6754363 0.405355 0.616014
vn -0.6754363 0.405355 0.616014
vn -0.6754363 0.405355 0.616014
vn -0.6754363 0.405355 0.616014
vn -0.6754363 0.405355 0.616014
vn -0.6911258 0.3893387 0.6084857
vn -0.7053117 0.3748572 0.6016788
vn -0.6754363 0.405355 0.616014
vn -0.6754363 0.405355 0.616014
vn -0.7053117 0.3748572 0.6016788
vn -0.6754363 0.405355 0.616014
vn -0.6754363 0.405355 0.616014
vn -0.7053117 0.3748572 0.6016788
vn -0.6877698 0.3927645 0.610096
vn -0.5731466 0.4046678 0.7125635
vn -0.5731466 0.4046678 0.7125635
vn -0.5598521 0.4062226 0.7218905
vn -0.5598521 0.4062226 0.7218905
vn -0.5731466 0.4046678 0.7125635
vn -0.5592765 0.4062899 0.7222943
vn -0.6578429 0.4610107 0.5955769
vn -0.6578429 0.4610107 0.5955769
vn -0.6578429 0.4610107 0.5955769
vn -0.6578429 0.4610107 0.5955769
vn -0.6578429 0.4610107 0.5955769
vn -0.6578429 0.4610107 0.5955769
vn -0.7527561 0.3808787 0.5369262
vn -0.7527561 0.3808787 0.5369262
vn -0.7527561 0.3808787 0.5369262
vn -0.7527561 0.3808787 0.5369262
vn -0.7527561 0.3808787 0.5369262
vn -0.7527561 0.3808787 0.5369262
vn -0.7527561 0.3808787 0.5369262
vn -0.7527561 0.3808787 0.5369262
vn -0.7527561 0.3808787 0.5369262
vn -0.7527561 0.3808787 0.5369262
vn -0.7527561 0.3808787 0.5369262
vn -0.7527561 0.3808787 0.5369262
vn 0.5773635 -0.6996361 0.4209048
vn 0.5773635 -0.6996361 0.4209048
vn 0.5773635 -0.6996361 0.4209048
vn 0.5773635 -0.6996361 0.4209048
vn 0.5773635 -0.6996361 0.4209048
vn 0.5773635 -0.6996361 0.4209048
vn 0.5773635 -0.6996361 0.4209048
vn 0.5773635 -0.6996361 0.4209048
vn 0.5773635 -0.6996361 0.4209048
vn 0.5773635 -0.6996361 0.4209048
vn 0.5773635 -0.6996361 0.4209048
vn 0.5773635 -0.6996361 0.4209048
vn 0.5773635 -0.6996361 0.4209048
vn 0.5773635 -0.6996361 0.4209048
vn 0.5773635 -0.6996361 0.4209048
vn 0.5773635 -0.6996361 0.4209048
vn 0.5773635 -0.6996361 0.4209048
vn 0.5773635 -0.6996361 0.4209048
vn 0.03312597 0.5314976 -0.8464119
vn 0.03312597 0.5314976 -0.8464119
vn 0.03312597 0.5314976 -0.8464119
vn 0.03312597 0.5314976 -0.8464119
vn 0.03312597 0.5314976 -0.8464119
vn 0.03312597 0.5314976 -0.8464119
vn 0.03312597 0.5314976 -0.8464119
vn 0.03312597 0.5314976 -0.8464119
vn 0.03312597 0.5314976 -0.8464119
vn 0.03312597 0.5314976 -0.8464119
vn 0.03312597 0.5314976 -0.8464119
vn 0.03312597 0.5314976 -0.8464119
vn 0.03312597 0.5314976 -0.8464119
vn 0.03312597 0.5314976 -0.8464119
vn 0.03312597 0.5314976 -0.8464119
vn 0.03312597 0.5314976 -0.8464119
vn 0.03312597 0.5314976 -0.8464119
vn 0.03312597 0.5314976 -0.8464119
vn -0.6434323 0.4313421 -0.6324072
vn -0.6434323 0.4313421 -0.6324072
vn -0.6434323 0.4313421 -0.6324072
vn -0.6434323 0.4313421 -0.6324072
vn -0.6434323 0.4313421 -0.6324072
vn -0.6434323 0.4313421 -0.6324072
vn -0.6434323 0.4313421 -0.6324072
vn -0.6434323 0.4313421 -0.6324072
vn -0.6434323 0.4313421 -0.6324072
vn -0.3250895 -0.8115722 -0.4854559
vn -0.3250895 -0.8115722 -0.4854559
vn -0.3250895 -0.8115722 -0.4854559
vn -0.3250895 -0.8115722 -0.4854559
vn -0.3250895 -0.8115722 -0.4854559
vn -0.3250895 -0.8115722 -0.4854559
vn 0.9412356 0.2564166 0.2198321
vn 0.9412356 0.2564166 0.2198321
vn 0.9412356 0.2564166 0.2198321
vn 0.9412356 0.2564166 0.2198321
vn 0.9412356 0.2564166 0.2198321
vn 0.9412356 0.2564166 0.2198321
vn 0.9412356 0.2564166 0.2198321
vn 0.9412356 0.2564166 0.2198321
vn 0.9412356 0.2564166 0.2198321
vn 0.9412356 0.2564166 0.2198321
vn 0.9412356 0.2564166 0.2198321
vn 0.9412356 0.2564166 0.2198321
vn 0.05573194 -0.2592826 0.9641922
vn 0.05573194 -0.2592826 0.9641922
vn 0.05573194 -0.2592826 0.9641922
vn 0.05573194 -0.2592826 0.9641922
vn 0.05573194 -0.2592826 0.9641922
vn 0.05573194 -0.2592826 0.9641922
vn 0.05573194 -0.2592826 0.9641922
vn 0.05573194 -0.2592826 0.9641922
vn 0.05573194 -0.2592826 0.9641922
vn 0.05573194 -0.2592826 0.9641922
vn 0.05573194 -0.2592826 0.9641922
vn 0.05573194 -0.2592826 0.9641922
vn -0.447011 -0.7898947 -0.4198187
vn -0.447011 -0.7898947 -0.4198187
vn -0.447011 -0.7898947 -0.4198187
vn -0.447011 -0.7898947 -0.4198187
vn -0.447011 -0.7898947 -0.4198187
vn -0.447011 -0.7898947 -0.4198187
vn -0.447011 -0.7898947 -0.4198187
vn -0.447011 -0.7898947 -0.4198187
vn -0.447011 -0.7898947 -0.4198187
vn 0.1692013 -0.1876872 -0.9675456
vn 0.1692013 -0.1876872 -0.9675456
vn 0.1692013 -0.1876872 -0.9675456
vn 0.1692013 -0.1876872 -0.9675456
vn 0.1692013 -0.1876872 -0.9675456
vn 0.1692013 -0.1876872 -0.9675456
vn 0.4365887 -0.1359156 0.8893353
vn 0.4365887 -0.1359156 0.8893353
vn 0.4365887 -0.1359156 0.8893353
vn 0.4365887 -0.1359156 0.8893353
vn 0.4365887 -0.1359156 0.8893353
vn 0.4365887 -0.1359156 0.8893353
vn 0.4544701 0.8901205 -0.03380309
vn 0.4544701 0.8901205 -0.03380309
vn 0.4544701 0.8901205 -0.03380309
vn -0.609452 -0.4900656 0.6232207
vn -0.609452 -0.4900656 0.6232207
vn -0.609452 -0.4900656 0.6232207
vn -0.609452 -0.4900656 0.6232207
vn -0.609452 -0.4900656 0.6232207
vn -0.609452 -0.4900656 0.6232207
vn -0.609452 -0.4900656 0.6232207
vn -0.609452 -0.4900656 0.6232207
vn -0.609452 -0.4900656 0.6232207
vn -0.609452 -0.4900656 0.6232207
vn -0.609452 -0.4900656 0.6232207
vn -0.609452 -0.4900656 0.6232207
vn -0.609452 -0.4900656 0.6232207
vn -0.609452 -0.4900656 0.6232207
vn -0.609452 -0.4900656 0.6232207
vn -0.609452 -0.4900656 0.6232207
vn -0.609452 -0.4900656 0.6232207
vn -0.609452 -0.4900656 0.6232207
vn -0.609452 -0.4900656 0.6232207
vn -0.609452 -0.4900656 0.6232207
vn -0.609452 -0.4900656 0.6232207
vn -0.609452 -0.4900656 0.6232207
vn -0.609452 -0.4900656 0.6232207
vn -0.609452 -0.4900656 0.6232207
vn 0.5499616 0.6899677 0.4706239
vn 0.5499616 0.6899677 0.4706239
vn 0.5499616 0.6899677 0.4706239
vn 0.5499616 0.6899677 0.4706239
vn 0.5499616 0.6899677 0.4706239
vn 0.5499616 0.6899677 0.4706239
vn 0.5499616 0.6899677 0.4706239
vn 0.5499616 0.6899677 0.4706239
vn 0.5499616 0.6899677 0.4706239
vn 0.5499616 0.6899677 0.4706239
vn 0.5499616 0.6899677 0.4706239
vn 0.5499616 0.6899677 0.4706239
vn 0.5499616 0.6899677 0.4706239
vn 0.5499616 0.6899677 0.4706239
vn 0.5499616 0.6899677 0.4706239
vn 0.5499616 0.6899677 0.4706239
vn 0.5499616 0.6899677 0.4706239
vn 0.5499616 0.6899677 0.4706239
vn -0.4094215 0.8989242 -0.1559148
vn -0.4094215 0.8989242 -0.1559148
vn -0.4094215 0.8989242 -0.1559148
vn -0.4094215 0.8989242 -0.1559148
vn -0.4094215 0.8989242 -0.1559148
vn -0.4094215 0.8989242 -0.1559148
vn -0.4094215 0.8989242 -0.1559148
vn -0.4094215 0.8989242 -0.1559148
vn -0.4094215 0.8989242 -0.1559148
vn -0.4094215 0.8989242 -0.1559148
vn -0.4094215 0.8989242 -0.1559148
vn -0.4094215 0.8989242 -0.1559148
vn -0.4094215 0.8989242 -0.1559148
vn -0.4094215 0.8989242 -0.1559148
vn -0.4094215 0.8989242 -0.1559148
vn -0.4094215 0.8989242 -0.1559148
vn -0.4094215 0.8989242 -0.1559148
vn -0.4094215 0.8989242 -0.1559148
vn -0.4094215 0.8989242 -0.1559148
vn -0.4094215 0.8989242 -0.1559148
vn -0.4094215 0.8989242 -0.1559148
vn -0.4094215 0.8989242 -0.1559148
vn -0.4094215 0.8989242 -0.1559148
vn -0.4094215 0.8989242 -0.1559148
vn -0.4094215 0.8989242 -0.1559148
vn -0.4094215 0.8989242 -0.1559148
vn -0.4094215 0.8989242 -0.1559148
vn -0.4094215 0.8989242 -0.1559148
vn -0.4094215 0.8989242 -0.1559148
vn -0.4094215 0.8989242 -0.1559148
vn 0.9991437 -0.01767828 -0.03741194
vn 0.9991437 -0.01767828 -0.03741194
vn 0.9991437 -0.01767828 -0.03741194
vn 0.9991437 -0.01767828 -0.03741194
vn 0.9991437 -0.01767828 -0.03741194
vn 0.9991437 -0.01767828 -0.03741194
vn 0.3275824 0.7995107 -0.5034605
vn 0.3275824 0.7995107 -0.5034605
vn 0.3275824 0.7995107 -0.5034605
vn 0.3275824 0.7995107 -0.5034605
vn 0.3275824 0.7995107 -0.5034605
vn 0.3275824 0.7995107 -0.5034605
vn 0.3275824 0.7995107 -0.5034605
vn 0.3275824 0.7995107 -0.5034605
vn 0.3275824 0.7995107 -0.5034605

vt 0.9151198 0.1411109
vt 0.9151238 0.1411272
vt 0.9152475 0.1411134
vt 0.9155202 0.1409833
vt 0.9154944 0.1409004
vt 0.9154097 0.1411068
vt 0.9154097 0.1411068
vt 0.9154944 0.1409004
vt 0.9153454 0.141104
vt 0.9151198 0.1411109
vt 0.9150805 0.1411358
vt 0.9151238 0.1411272
vt 0.9155833 0.1408058
vt 0.9155134 0.1408396
vt 0.9156059 0.1408575
vt 0.9156059 0.1408575
vt 0.9155134 0.1408396
vt 0.9154944 0.1409004
vt 0.9153317 0.1411048
vt 0.9153454 0.141104
vt 0.9152584 0.1409688
vt 0.9152584 0.1409688
vt 0.9153454 0.141104
vt 0.9153863 0.1409036
vt 0.9153863 0.1409036
vt 0.9153454 0.141104
vt 0.9154944 0.1409004
vt 0.9151701 0.1410147
vt 0.9151198 0.1411109
vt 0.9152584 0.1409688
vt 0.9152584 0.1409688
vt 0.9151198 0.1411109
vt 0.9153317 0.1411048
vt 0.9153317 0.1411048
vt 0.9151198 0.1411109
vt 0.9152475 0.1411134
vt 0.9154944 0.1409004
vt 0.9155202 0.1409833
vt 0.9156059 0.1408575
vt 0.9156059 0.1408575
vt 0.9155202 0.1409833
vt 0.9156204 0.140887
vt 0.9155134 0.1408396
vt 0.9154708 0.1408611
vt 0.9154944 0.1409004
vt 0.9153863 0.1409036
vt 0.9154944 0.1409004
vt 0.9154708 0.1408611
vt 0.9030003 0.1447234
vt 0.9029951 0.1447176
vt 0.9029503 0.1447912
vt 0.9029503 0.1447912
vt 0.9029951 0.1447176
vt 0.902923 0.144767
vt 0.902923 0.144767
vt 0.9029951 0.1447176
vt 0.9029061 0.1447207
vt 0.9030488 0.1447741
vt 0.9030003 0.1447234
vt 0.9029503 0.1447912
vt 0.5101352 0.3803348
vt 0.5748352 0.390519
vt 0.393476 0.4255466
vt 0.393476 0.4255466
vt 0.5748352 0.390519
vt 0.3917763 0.4751962
vt 0.3917763 0.4751962
vt 0.5748352 0.390519
vt 0.4342825 0.5802137
vt 0.4342825 0.5802137
vt 0.5748352 0.390519
vt 0.554737 0.5815735
vt 0.554737 0.5815735
vt 0.5748352 0.390519
vt 0.63513 0.4815572
vt 0.63513 0.4815572
vt 0.5748352 0.390519
vt 0.6378682 0.4770681
vt 0.3490652 0.6560246
vt 0.2601038 0.6173927
vt 0.3862861 0.6666325
vt 0.3862861 0.6666325
vt 0.2601038 0.6173927
vt 0.737484 0.5712729
vt 0.737484 0.5712729
vt 0.2601038 0.6173927
vt 0.7345316 0.405453
vt 0.7345316 0.405453
vt 0.2601038 0.6173927
vt 0.7007613 0.3240727
vt 0.7007613 0.3240727
vt 0.2601038 0.6173927
vt 0.4945819 0.189434
vt 0.4945819 0.189434
vt 0.2601038 0.6173927
vt 0.2576684 0.3575077
vt 0.4081259 0.2911919
vt 0.4445319 0.2867168
vt 0.3283802 0.3856294
vt 0.3283802 0.3856294
vt 0.4445319 0.2867168
vt 0.362821 0.4702042
vt 0.362821 0.4702042
vt 0.4445319 0.2867168
vt 0.4925795 0.3473841
vt 0.4815525 0.3595194
vt 0.5636964 0.5025681
vt 0.4032364 0.4671866
vt 0.4032364 0.4671866
vt 0.5636964 0.5025681
vt 0.5404503 0.5065077
vt 0.495611 0.5102796
vt 0.4540734 0.4860276
vt 0.5360544 0.4645603
vt 0.5360544 0.4645603
vt 0.4540734 0.4860276
vt 0.5189922 0.4216349
vt 0.5189922 0.4216349
vt 0.4540734 0.4860276
vt 0.4702647 0.4063284
vt 0.4702647 0.4063284
vt 0.4540734 0.4860276
vt 0.435903 0.4655102
vt 0.6356422 0.4663205
vt 0.6452257 0.4804861
vt 0.4817201 0.426571
vt 0.4817201 0.426571
vt 0.6452257 0.4804861
vt 0.4405085 0.4694964
vt 0.4405085 0.4694964
vt 0.6452257 0.4804861
vt 0.5803581 0.5365992
vt 0.5803581 0.5365992
vt 0.6452257 0.4804861
vt 0.6167641 0.5073273
vt 0.6509534 0.4327085
vt 0.6032131 0.4943165
vt 0.463275 0.3704114
vt 0.463275 0.3704114
vt 0.6032131 0.4943165
vt 0.4605322 0.3748911
vt 0.4605322 0.3748911
vt 0.6032131 0.4943165
vt 0.5478917 0.507616
vt 0.5451908 0.5295956
vt 0.5192717 0.33469
vt 0.6108594 0.4213416
vt 0.6108594 0.4213416
vt 0.5192717 0.33469
vt 0.5414096 0.3349228
vt 0.5726932 0.424876
vt 0.3996554 0.6028079
vt 0.2897576 0.223791
vt 0.2897576 0.223791
vt 0.3996554 0.6028079
vt 0.315863 0.5331439
vt 0.5035973 0.421472
vt 0.4404899 0.4119164
vt 0.4381336 0.3984028
vt 0.6374211 0.387413
vt 0.6515681 0.4252858
vt 0.6348879 0.3814152
vt 0.6348879 0.3814152
vt 0.6515681 0.4252858
vt 0.6212531 0.3554402
vt 0.6212531 0.3554402
vt 0.6515681 0.4252858
vt 0.4342406 0.4206338
vt 0.4342406 0.4206338
vt 0.6515681 0.4252858
vt 0.3910638 0.5370742
vt 0.3910638 0.5370742
vt 0.6515681 0.4252858
vt 0.6046846 0.6209877
vt 0.6046846 0.6209877
vt 0.6515681 0.4252858
vt 0.6847144 0.5283289
vt 0.6847144 0.5283289
vt 0.6515681 0.4252858
vt 0.6781392 0.5020559
vt 0.6781392 0.5020559
vt 0.6515681 0.4252858
vt 0.6720762 0.4812685
vt 0.3672216 0.3801718
vt 0.3821928 0.3610468
vt 0.4011828 0.4660132
vt 0.4011828 0.4660132
vt 0.3821928 0.3610468
vt 0.4740227 0.4956204
vt 0.4740227 0.4956204
vt 0.3821928 0.3610468
vt 0.5256886 0.5106149
vt 0.5256886 0.5106149
vt 0.3821928 0.3610468
vt 0.5478358 0.438264
vt 0.5478358 0.438264
vt 0.3821928 0.3610468
vt 0.4100677 0.355184
vt 0.4100677 0.355184
vt 0.3821928 0.3610468
vt 0.3911709 0.3510163
vt 0.4613053 0.3456006
vt 0.4867959 0.3307132
vt 0.4227945 0.369834
vt 0.4867959 0.3307132
vt 0.4996344 0.3231786
vt 0.4227945 0.369834
vt 0.4227945 0.369834
vt 0.4996344 0.3231786
vt 0.3962933 0.3884374
vt 0.3962933 0.3884374
vt 0.4996344 0.3231786
vt 0.3720832 0.4079862
vt 0.3720832 0.4079862
vt 0.4996344 0.3231786
vt 0.369522 0.4101888
vt 0.369522 0.4101888
vt 0.4996344 0.3231786
vt 0.4173834 0.4474982
vt 0.4173834 0.4474982
vt 0.4996344 0.3231786
vt 0.5661738 0.3986495
vt 0.5661738 0.3986495
vt 0.4996344 0.3231786
vt 0.5678595 0.3960185
vt 0.5678595 0.3960185
vt 0.4996344 0.3231786
vt 0.5667419 0.3821788
vt 0.5667419 0.3821788
vt 0.4996344 0.3231786
vt 0.520827 0.3136883
vt 0.5547649 0.5184568
vt 0.5333256 0.5225826
vt 0.4991781 0.4319169
vt 0.4991781 0.4319169
vt 0.5333256 0.5225826
vt 0.4585252 0.4754942
vt 0.4441919 0.336385
vt 0.5168968 0.3491723
vt 0.4432094 0.3398216
vt 0.4432094 0.3398216
vt 0.5168968 0.3491723
vt 0.5860951 0.3909613
vt 0.5860951 0.3909613
vt 0.5168968 0.3491723
vt 0.5695639 0.3648047

usemtl Material0
usemap Material0
f 1/1/1 2/2/2 3/3/3
f 4/4/4 5/5/5 6/6/6
f 7/7/7 8/8/8 9/9/9
f 10/10/10 11/11/11 12/12/12
f 13/13/13 14/14/14 15/15/15
f 16/16/16 17/17/17 18/18/18
f 19/19/19 20/20/20 21/21/21
f 22/22/22 23/23/23 24/24/24
f 25/25/25 26/26/26 27/27/27
f 28/28/28 29/29/29 30/30/30
f 31/31/31 32/32/32 33/33/33
f 34/34/34 35/35/35 36/36/36
f 37/37/37 38/38/38 39/39/39
f 40/40/40 41/41/41 42/42/42
f 43/43/43 44/44/44 45/45/45
f 46/46/46 47/47/47 48/48/48
f 49/49/49 50/50/50 51/51/51
f 52/52/52 53/53/53 54/54/54
f 55/55/55 56/56/56 57/57/57
f 58/58/58 59/59/59 60/60/60

usemtl Material1
usemap Material1
f 61/61/61 62/62/62 63/63/63
f 64/64/64 65/65/65 66/66/66
f 67/67/67 68/68/68 69/69/69
f 70/70/70 71/71/71 72/72/72
f 73/73/73 74/74/74 75/75/75
f 76/76/76 77/77/77 78/78/78
f 79/79/79 80/80/80 81/81/81
f 82/82/82 83/83/83 84/84/84
f 85/85/85 86/86/86 87/87/87
f 88/88/88 89/89/89 90/90/90
f 91/91/91 92/92/92 93/93/93
f 94/94/94 95/95/95 96/96/96
f 97/97/97 98/98/98 99/99/99
f 100/100/100 101/101/101 102/102/102
f 103/103/103 104/104/104 105/105/105
f 106/106/106 107/107/107 108/108/108
f 109/109/109 110/110/110 111/111/111
f 112/112/112 113/113/113 114/114/114
f 115/115/115 116/116/116 117/117/117
f 118/118/118 119/119/119 120/120/120
f 121/121/121 122/122/122 123/123/123
f 124/124/124 125/125/125 126/126/126
f 127/127/127 128/128/128 129/129/129
f 130/130/130 131/131/131 132/132/132
f 133/133/133 134/134/134 135/135/135
f 136/136/136 137/137/137 138/138/138
f 139/139/139 140/140/140 141/141/141
f 142/142/142 143/143/143 144/144/144
f 145/145/145 146/146/146 147/147/147
f 148/148/148 149/149/149 150/150/150
f 151/151/151 152/152/152 153/153/153
f 154/154/154 155/155/155 156/156/156
f 157/157/157 158/158/158 159/159/159
f 160/160/160 161/161/161 162/162/162
f 163/163/163 164/164/164 165/165/165
f 166/166/166 167/167/167 168/168/168
f 169/169/169 170/170/170 171/171/171
f 172/172/172 173/173/173 174/174/174
f 175/175/175 176/176/176 177/177/177
f 178/178/178 179/179/179 180/180/180
f 181/181/181 182/182/182 183/183/183
f 184/184/184 185/185/185 186/186/186
f 187/187/187 188/188/188 189/189/189
f 190/190/190 191/191/191 192/192/192
f 193/193/193 194/194/194 195/195/195
f 196/196/196 197/197/197 198/198/198
f 199/199/199 200/200/200 201/201/201
f 202/202/202 203/203/203 204/204/204
f 205/205/205 206/206/206 207/207/207
f 208/208/208 209/209/209 210/210/210
f 211/211/211 212/212/212 213/213/213
f 214/214/214 215/215/215 216/216/216
f 217/217/217 218/218/218 219/219/219
f 220/220/220 221/221/221 222/222/222
f 223/223/223 224/224/224 225/225/225
f 226/226/226 227/227/227 228/228/228
f 229/229/229 230/230/230 231/231/231
f 232/232/232 233/233/233 234/234/234
f 235/235/235 236/236/236 237/237/237
f 238/238/238 239/239/239 240/240/240
f 241/241/241 242/242/242 243/243/243
f 244/244/244 245/245/245 246/246/246
