g  Instance
v 0.4974228 -49.94414 -4.055385
v 0.4953521 -49.94598 -4.056849
v 0.7069137 -48.59592 -3.123994
v 0.7069137 -48.59592 -3.123994
v 0.4953521 -49.94598 -4.056849
v 0.4237512 -48.2795 -2.941437
v 0.4237512 -48.2795 -2.941437
v 0.4953521 -49.94598 -4.056849
v 0.4271984 -49.91605 -4.044066
v 0.12518 -49.00262 -0.7093767
v 0.1916882 -49.33234 -0.5230103
v 0.1691062 -48.85205 -0.8006324
v 0.1691062 -48.85205 -0.8006324
v 0.1916882 -49.33234 -0.5230103
v 0.5841913 -49.60779 -0.3952001
v 0.7069137 -48.59592 -3.123994
v 1.530797 -50.16375 -2.163026
v 0.4974228 -49.94414 -4.055385
v 0.4953521 -49.94598 -4.056849
v 0.4974228 -49.94414 -4.055385
v 0.181773 -51.23006 -3.251829
v 0.181773 -51.23006 -3.251829
v 0.4974228 -49.94414 -4.055385
v 0.2219737 -51.2372 -3.179643
v 0.2219737 -51.2372 -3.179643
v 0.4974228 -49.94414 -4.055385
v 1.548488 -50.23034 -2.066479
v 1.548488 -50.23034 -2.066479
v 0.4974228 -49.94414 -4.055385
v 1.530797 -50.16375 -2.163026
v 0.04533309 -51.3582 -2.238838
v -0.3832898 -51.28464 -2.987142
v 0.2219737 -51.2372 -3.179643
v 0.2219737 -51.2372 -3.179643
v -0.3832898 -51.28464 -2.987142
v 0.181773 -51.23006 -3.251829
v 0.12518 -49.00262 -0.7093767
v 0.1691062 -48.85205 -0.8006324
v -0.312585 -48.34688 -1.801366
v -0.312585 -48.34688 -1.801366
v 0.1691062 -48.85205 -0.8006324
v -0.104378 -47.99342 -1.899557
v 1.24672 -50.43884 -0.6133329
v 0.6001023 -49.63194 -0.3907883
v 0.2149779 -51.21715 -1.077711
v 0.2149779 -51.21715 -1.077711
v 0.6001023 -49.63194 -0.3907883
v -0.1001479 -51.05124 -1.059432
v -0.1001479 -51.05124 -1.059432
v 0.6001023 -49.63194 -0.3907883
v 0.1479103 -49.9219 -0.5740217
v 0.4271984 -49.91605 -4.044066
v -0.5517166 -50.89222 -3.122759
v 0.4237512 -48.2795 -2.941437
v 0.4237512 -48.2795 -2.941437
v -0.5517166 -50.89222 -3.122759
v -0.104378 -47.99342 -1.899557
v -0.104378 -47.99342 -1.899557
v -0.5517166 -50.89222 -3.122759
v -0.312585 -48.34688 -1.801366
v -0.312585 -48.34688 -1.801366
v -0.5517166 -50.89222 -3.122759
v -0.7438681 -50.60258 -2.619301
v -0.1001479 -51.05124 -1.059432
v -0.6154033 -51.02565 -2.278399
v 0.2149779 -51.21715 -1.077711
v 0.2149779 -51.21715 -1.077711
v -0.6154033 -51.02565 -2.278399
v 0.04533309 -51.3582 -2.238838
v 0.04533309 -51.3582 -2.238838
v -0.6154033 -51.02565 -2.278399
v -0.3832898 -51.28464 -2.987142
v -0.3832898 -51.28464 -2.987142
v -0.6154033 -51.02565 -2.278399
v -0.4147192 -51.26762 -2.982945
v 0.7069137 -48.59592 -3.123994
v 0.4237512 -48.2795 -2.941437
v 1.530797 -50.16375 -2.163026
v 1.530797 -50.16375 -2.163026
v 0.4237512 -48.2795 -2.941437
v 1.548488 -50.23034 -2.066479
v 1.548488 -50.23034 -2.066479
v 0.4237512 -48.2795 -2.941437
v 1.24672 -50.43884 -0.6133329
v 1.24672 -50.43884 -0.6133329
v 0.4237512 -48.2795 -2.941437
v 0.6001023 -49.63194 -0.3907883
v 0.6001023 -49.63194 -0.3907883
v 0.4237512 -48.2795 -2.941437
v 0.5841913 -49.60779 -0.3952001
v 0.5841913 -49.60779 -0.3952001
v 0.4237512 -48.2795 -2.941437
v 0.1691062 -48.85205 -0.8006324
v 0.1691062 -48.85205 -0.8006324
v 0.4237512 -48.2795 -2.941437
v -0.104378 -47.99342 -1.899557
v 0.04533309 -51.3582 -2.238838
v 0.2219737 -51.2372 -3.179643
v 0.2149779 -51.21715 -1.077711
v 0.2149779 -51.21715 -1.077711
v 0.2219737 -51.2372 -3.179643
v 1.24672 -50.43884 -0.6133329
v 1.24672 -50.43884 -0.6133329
v 0.2219737 -51.2372 -3.179643
v 1.548488 -50.23034 -2.066479
v 0.6001023 -49.63194 -0.3907883
v 0.5841913 -49.60779 -0.3952001
v 0.1479103 -49.9219 -0.5740217
v 0.1479103 -49.9219 -0.5740217
v 0.5841913 -49.60779 -0.3952001
v 0.1916882 -49.33234 -0.5230103
v -0.7438681 -50.60258 -2.619301
v -0.5517166 -50.89222 -3.122759
v -0.6154033 -51.02565 -2.278399
v -0.6154033 -51.02565 -2.278399
v -0.5517166 -50.89222 -3.122759
v -0.4147192 -51.26762 -2.982945
v -0.6154033 -51.02565 -2.278399
v -0.1001479 -51.05124 -1.059432
v -0.7438681 -50.60258 -2.619301
v -0.7438681 -50.60258 -2.619301
v -0.1001479 -51.05124 -1.059432
v -0.312585 -48.34688 -1.801366
v -0.312585 -48.34688 -1.801366
v -0.1001479 -51.05124 -1.059432
v 0.12518 -49.00262 -0.7093767
v 0.12518 -49.00262 -0.7093767
v -0.1001479 -51.05124 -1.059432
v 0.1916882 -49.33234 -0.5230103
v 0.1916882 -49.33234 -0.5230103
v -0.1001479 -51.05124 -1.059432
v 0.1479103 -49.9219 -0.5740217
v 0.4271984 -49.91605 -4.044066
v 0.4953521 -49.94598 -4.056849
v -0.5517166 -50.89222 -3.122759
v -0.5517166 -50.89222 -3.122759
v 0.4953521 -49.94598 -4.056849
v -0.4147192 -51.26762 -2.982945
v -0.4147192 -51.26762 -2.982945
v 0.4953521 -49.94598 -4.056849
v -0.3832898 -51.28464 -2.987142
v -0.3832898 -51.28464 -2.987142
v 0.4953521 -49.94598 -4.056849
v 0.181773 -51.23006 -3.251829

vn 0.08955973 0.5566475 -0.8259072
vn 0.08955973 0.5566475 -0.8259072
vn 0.08955973 0.5566475 -0.8259072
vn 0.08955973 0.5566475 -0.8259072
vn 0.08955973 0.5566475 -0.8259072
vn 0.08955973 0.5566475 -0.8259072
vn 0.08955973 0.5566475 -0.8259072
vn 0.08955973 0.5566475 -0.8259072
vn 0.08955973 0.5566475 -0.8259072
vn 0.0713506 0.5016832 0.862104
vn 0.0713506 0.5016832 0.862104
vn 0.0713506 0.5016832 0.862104
vn 0.0713506 0.5016832 0.862104
vn 0.0713506 0.5016832 0.862104
vn 0.0713506 0.5016832 0.862104
vn 0.8720671 0.1791196 -0.4554285
vn 0.8720671 0.1791196 -0.4554285
vn 0.8720671 0.1791196 -0.4554285
vn 0.7487062 -0.4736174 -0.4638163
vn 0.7487062 -0.4736174 -0.4638163
vn 0.7487062 -0.4736174 -0.4638163
vn 0.7487062 -0.4736174 -0.4638163
vn 0.7487062 -0.4736174 -0.4638163
vn 0.7487062 -0.4736174 -0.4638163
vn 0.7487062 -0.4736174 -0.4638163
vn 0.7487062 -0.4736174 -0.4638163
vn 0.7487062 -0.4736174 -0.4638163
vn 0.7487062 -0.4736174 -0.4638163
vn 0.7487062 -0.4736174 -0.4638163
vn 0.7487062 -0.4736174 -0.4638163
vn 0.03953331 -0.9919676 -0.1201565
vn 0.03953331 -0.9919676 -0.1201565
vn 0.03953331 -0.9919676 -0.1201565
vn 0.03953331 -0.9919676 -0.1201565
vn 0.03953331 -0.9919676 -0.1201565
vn 0.03953331 -0.9919676 -0.1201565
vn -0.6290694 0.5288268 0.569749
vn -0.6290694 0.5288268 0.569749
vn -0.6290694 0.5288268 0.569749
vn -0.6290694 0.5288268 0.569749
vn -0.6290694 0.5288268 0.569749
vn -0.6290694 0.5288268 0.569749
vn -0.1388604 -0.3651541 0.9205327
vn -0.1388604 -0.3651541 0.9205327
vn -0.1388604 -0.3651541 0.9205327
vn -0.1388604 -0.3651541 0.9205327
vn -0.1388604 -0.3651541 0.9205327
vn -0.1388604 -0.3651541 0.9205327
vn -0.1388604 -0.3651541 0.9205327
vn -0.1388604 -0.3651541 0.9205327
vn -0.1388604 -0.3651541 0.9205327
vn -0.8007975 0.3335011 -0.4974943
vn -0.8007975 0.3335011 -0.4974943
vn -0.8007975 0.3335011 -0.4974943
vn -0.8007975 0.3335011 -0.4974943
vn -0.8007975 0.3335011 -0.4974943
vn -0.8007975 0.3335011 -0.4974943
vn -0.8007975 0.3335011 -0.4974943
vn -0.8007975 0.3335011 -0.4974943
vn -0.8007975 0.3335011 -0.4974943
vn -0.8007975 0.3335011 -0.4974943
vn -0.8007975 0.3335011 -0.4974943
vn -0.8007975 0.3335011 -0.4974943
vn -0.4510511 -0.8757138 0.1722738
vn -0.4510511 -0.8757138 0.1722738
vn -0.4510511 -0.8757138 0.1722738
vn -0.4510511 -0.8757138 0.1722738
vn -0.4510511 -0.8757138 0.1722738
vn -0.4510511 -0.8757138 0.1722738
vn -0.4510511 -0.8757138 0.1722738
vn -0.4510511 -0.8757138 0.1722738
vn -0.4510511 -0.8757138 0.1722738
vn -0.4510511 -0.8757138 0.1722738
vn -0.4510511 -0.8757138 0.1722738
vn -0.4510511 -0.8757138 0.1722738
vn 0.7884446 0.5643298 0.2447181
vn 0.7884446 0.5643298 0.2447181
vn 0.7884446 0.5643298 0.2447181
vn 0.7884446 0.5643298 0.2447181
vn 0.7884446 0.5643298 0.2447181
vn 0.7884446 0.5643298 0.2447181
vn 0.7884446 0.5643298 0.2447181
vn 0.7884446 0.5643298 0.2447181
vn 0.7884446 0.5643298 0.2447181
vn 0.7884446 0.5643298 0.2447181
vn 0.7884446 0.5643298 0.2447181
vn 0.7884446 0.5643298 0.2447181
vn 0.7884446 0.5643298 0.2447181
vn 0.7884446 0.5643298 0.2447181
vn 0.7884446 0.5643298 0.2447181
vn 0.7884446 0.5643298 0.2447181
vn 0.7884446 0.5643298 0.2447181
vn 0.7884446 0.5643298 0.2447181
vn 0.7884446 0.5643298 0.2447181
vn 0.7884446 0.5643298 0.2447181
vn 0.7884446 0.5643298 0.2447181
vn 0.5994359 -0.8003649 0.009640881
vn 0.5994359 -0.8003649 0.009640881
vn 0.5994359 -0.8003649 0.009640881
vn 0.5994359 -0.8003649 0.009640881
vn 0.5994359 -0.8003649 0.009640881
vn 0.5994359 -0.8003649 0.009640881
vn 0.5994359 -0.8003649 0.009640881
vn 0.5994359 -0.8003649 0.009640881
vn 0.5994359 -0.8003649 0.009640881
vn -0.3441805 -0.05554656 0.937259
vn -0.3441805 -0.05554656 0.937259
vn -0.3441805 -0.05554656 0.937259
vn -0.3441805 -0.05554656 0.937259
vn -0.3441805 -0.05554656 0.937259
vn -0.3441805 -0.05554656 0.937259
vn -0.915014 -0.3821027 -0.12941
vn -0.915014 -0.3821027 -0.12941
vn -0.915014 -0.3821027 -0.12941
vn -0.915014 -0.3821027 -0.12941
vn -0.915014 -0.3821027 -0.12941
vn -0.915014 -0.3821027 -0.12941
vn -0.9202775 0.03462457 0.3897312
vn -0.9202775 0.03462457 0.3897312
vn -0.9202775 0.03462457 0.3897312
vn -0.9202775 0.03462457 0.3897312
vn -0.9202775 0.03462457 0.3897312
vn -0.9202775 0.03462457 0.3897312
vn -0.9202775 0.03462457 0.3897312
vn -0.9202775 0.03462457 0.3897312
vn -0.9202775 0.03462457 0.3897312
vn -0.9202775 0.03462457 0.3897312
vn -0.9202775 0.03462457 0.3897312
vn -0.9202775 0.03462457 0.3897312
vn -0.9202775 0.03462457 0.3897312
vn -0.9202775 0.03462457 0.3897312
vn -0.9202775 0.03462457 0.3897312
vn -0.3468845 -0.4359213 -0.830448
vn -0.3468845 -0.4359213 -0.830448
vn -0.3468845 -0.4359213 -0.830448
vn -0.3468845 -0.4359213 -0.830448
vn -0.3468845 -0.4359213 -0.830448
vn -0.3468845 -0.4359213 -0.830448
vn -0.3468845 -0.4359213 -0.830448
vn -0.3468845 -0.4359213 -0.830448
vn -0.3468845 -0.4359213 -0.830448
vn -0.3468845 -0.4359213 -0.830448
vn -0.3468845 -0.4359213 -0.830448
vn -0.3468845 -0.4359213 -0.830448

vt 0.5204824 0.6141982
vt 0.5202123 0.6145987
vt 0.5193462 0.3570793
vt 0.5193462 0.3570793
vt 0.5202123 0.6145987
vt 0.4680109 0.30668
vt 0.4680109 0.30668
vt 0.5202123 0.6145987
vt 0.508999 0.6110782
vt 0.4368576 0.5267922
vt 0.456304 0.4630981
vt 0.4407181 0.5579827
vt 0.4407181 0.5579827
vt 0.456304 0.4630981
vt 0.5303173 0.4194277
vt 0.353624 0.5360683
vt 0.5213392 0.4296677
vt 0.4796433 0.639186
vt 0.4704882 0.648518
vt 0.4702228 0.6483504
vt 0.5945796 0.5585136
vt 0.5945796 0.5585136
vt 0.4702228 0.6483504
vt 0.5930522 0.5504389
vt 0.5930522 0.5504389
vt 0.4702228 0.6483504
vt 0.4385248 0.4259843
vt 0.4385248 0.4259843
vt 0.4702228 0.6483504
vt 0.4338867 0.4367785
vt 0.5287713 0.4773382
vt 0.5663694 0.5439661
vt 0.512743 0.561112
vt 0.512743 0.561112
vt 0.5663694 0.5439661
vt 0.5162728 0.5675382
vt 0.5834129 0.4111854
vt 0.5987334 0.4230413
vt 0.6069291 0.5530652
vt 0.6069291 0.5530652
vt 0.5987334 0.4230413
vt 0.6501245 0.5658246
vt 0.5156767 0.3492794
vt 0.5894107 0.4071387
vt 0.4363966 0.4416028
vt 0.4363966 0.4416028
vt 0.5894107 0.4071387
vt 0.4506601 0.4697944
vt 0.4506601 0.4697944
vt 0.5894107 0.4071387
vt 0.5595427 0.4476006
vt 0.5296468 0.6474749
vt 0.4004098 0.5400451
vt 0.6823302 0.5189038
vt 0.6823302 0.5189038
vt 0.4004098 0.5400451
vt 0.6885049 0.3974062
vt 0.6885049 0.3974062
vt 0.4004098 0.5400451
vt 0.6473957 0.3859554
vt 0.6473957 0.3859554
vt 0.4004098 0.5400451
vt 0.4199818 0.4813336
vt 0.4985308 0.4008428
vt 0.5403758 0.5110806
vt 0.4668048 0.402496
vt 0.4668048 0.402496
vt 0.5403758 0.5110806
vt 0.4744837 0.5074949
vt 0.4744837 0.5074949
vt 0.5403758 0.5110806
vt 0.5114298 0.5751752
vt 0.5114298 0.5751752
vt 0.5403758 0.5110806
vt 0.514615 0.5747933
vt 0.4027847 0.5947239
vt 0.3645812 0.5776898
vt 0.5615637 0.5050269
vt 0.5615637 0.5050269
vt 0.3645812 0.5776898
vt 0.5673938 0.4960115
vt 0.5673938 0.4960115
vt 0.3645812 0.5776898
vt 0.5668537 0.3603762
vt 0.5668537 0.3603762
vt 0.3645812 0.5776898
vt 0.4734033 0.3396028
vt 0.4734033 0.3396028
vt 0.3645812 0.5776898
vt 0.4707909 0.3400172
vt 0.4707909 0.3400172
vt 0.3645812 0.5776898
vt 0.3933037 0.3778574
vt 0.3933037 0.3778574
vt 0.3645812 0.5776898
vt 0.3157093 0.4804396
vt 0.5810286 0.4902559
vt 0.5622529 0.5728189
vt 0.5616941 0.3883536
vt 0.5616941 0.3883536
vt 0.5622529 0.5728189
vt 0.4482805 0.347603
vt 0.4482805 0.347603
vt 0.5622529 0.5728189
vt 0.4161168 0.4751309
vt 0.5594775 0.3782253
vt 0.5617034 0.3798086
vt 0.531407 0.4232368
vt 0.531407 0.4232368
vt 0.5617034 0.3798086
vt 0.5866911 0.4188735
vt 0.5027963 0.5098885
vt 0.4725884 0.5548255
vt 0.4638618 0.4794617
vt 0.4638618 0.4794617
vt 0.4725884 0.5548255
vt 0.4372581 0.5423455
vt 0.4171133 0.5267922
vt 0.4165219 0.4006659
vt 0.4569419 0.562062
vt 0.4569419 0.562062
vt 0.4165219 0.4006659
vt 0.6732776 0.4774314
vt 0.6732776 0.4774314
vt 0.4165219 0.4006659
vt 0.6124054 0.3644462
vt 0.6124054 0.3644462
vt 0.4165219 0.4006659
vt 0.5812522 0.3451628
vt 0.5812522 0.3451628
vt 0.4165219 0.4006659
vt 0.5249528 0.3504435
vt 0.5142704 0.6844955
vt 0.502936 0.6880998
vt 0.5391837 0.4239959
vt 0.5391837 0.4239959
vt 0.502936 0.6880998
vt 0.4854828 0.3844606
vt 0.4854828 0.3844606
vt 0.502936 0.6880998
vt 0.4799413 0.3856481
vt 0.4799413 0.3856481
vt 0.502936 0.6880998
vt 0.4156464 0.4604903

usemtl Material0
usemap Material0

usemtl Material1
usemap Material1
f 1/1/1 2/2/2 3/3/3
f 4/4/4 5/5/5 6/6/6
f 7/7/7 8/8/8 9/9/9
f 10/10/10 11/11/11 12/12/12
f 13/13/13 14/14/14 15/15/15
f 16/16/16 17/17/17 18/18/18
f 19/19/19 20/20/20 21/21/21
f 22/22/22 23/23/23 24/24/24
f 25/25/25 26/26/26 27/27/27
f 28/28/28 29/29/29 30/30/30
f 31/31/31 32/32/32 33/33/33
f 34/34/34 35/35/35 36/36/36
f 37/37/37 38/38/38 39/39/39
f 40/40/40 41/41/41 42/42/42
f 43/43/43 44/44/44 45/45/45
f 46/46/46 47/47/47 48/48/48
f 49/49/49 50/50/50 51/51/51
f 52/52/52 53/53/53 54/54/54
f 55/55/55 56/56/56 57/57/57
f 58/58/58 59/59/59 60/60/60
f 61/61/61 62/62/62 63/63/63
f 64/64/64 65/65/65 66/66/66
f 67/67/67 68/68/68 69/69/69
f 70/70/70 71/71/71 72/72/72
f 73/73/73 74/74/74 75/75/75
f 76/76/76 77/77/77 78/78/78
f 79/79/79 80/80/80 81/81/81
f 82/82/82 83/83/83 84/84/84
f 85/85/85 86/86/86 87/87/87
f 88/88/88 89/89/89 90/90/90
f 91/91/91 92/92/92 93/93/93
f 94/94/94 95/95/95 96/96/96
f 97/97/97 98/98/98 99/99/99
f 100/100/100 101/101/101 102/102/102
f 103/103/103 104/104/104 105/105/105
f 106/106/106 107/107/107 108/108/108
f 109/109/109 110/110/110 111/111/111
f 112/112/112 113/113/113 114/114/114
f 115/115/115 116/116/116 117/117/117
f 118/118/118 119/119/119 120/120/120
f 121/121/121 122/122/122 123/123/123
f 124/124/124 125/125/125 126/126/126
f 127/127/127 128/128/128 129/129/129
f 130/130/130 131/131/131 132/132/132
f 133/133/133 134/134/134 135/135/135
f 136/136/136 137/137/137 138/138/138
f 139/139/139 140/140/140 141/141/141
f 142/142/142 143/143/143 144/144/144
