g  Instance
v -1.027779 -53.68027 -8.223038
v -0.9985358 -53.71997 -8.214698
v -1.162317 -53.79182 -8.160164
v -1.577166 -54.43067 -7.70881
v -1.22518 -54.79409 -7.582271
v -1.58714 -54.85849 -7.441732
v -1.577166 -54.43067 -7.70881
v -1.583928 -53.92407 -7.992373
v -1.22518 -54.79409 -7.582271
v -1.22518 -54.79409 -7.582271
v -1.583928 -53.92407 -7.992373
v -1.162317 -53.79182 -8.160164
v -1.630569 -55.39631 -7.051608
v -1.58714 -54.85849 -7.441732
v -1.346591 -55.60487 -6.979437
v -1.346591 -55.60487 -6.979437
v -1.58714 -54.85849 -7.441732
v -1.22518 -54.79409 -7.582271
v -1.162317 -53.79182 -8.160164
v -0.5664228 -54.30859 -7.960843
v -1.22518 -54.79409 -7.582271
v -1.22518 -54.79409 -7.582271
v -0.5664228 -54.30859 -7.960843
v -0.3832106 -54.55823 -7.848123
v -1.346591 -55.60487 -6.979437
v -1.302881 -55.76722 -6.846919
v -1.543123 -55.74662 -6.797323
v -1.302881 -55.76722 -6.846919
v -1.346591 -55.60487 -6.979437
v -0.5603637 -55.79565 -6.965139
v -0.5603637 -55.79565 -6.965139
v -1.346591 -55.60487 -6.979437
v -0.5484531 -55.7842 -6.977364
v -0.5603637 -55.79565 -6.965139
v -0.5484531 -55.7842 -6.977364
v -0.5386927 -55.79589 -6.968005
v -1.175777 -53.47902 -8.287043
v -1.027779 -53.68027 -8.223038
v -1.162317 -53.79182 -8.160164
v -0.005828213 -55.0736 -7.539704
v -0.173234 -55.23837 -7.425645
v -0.271582 -54.7106 -7.761903
v 0.1330275 -55.26334 -7.418337
v -0.173234 -55.23837 -7.425645
v -0.005828213 -55.0736 -7.539704
v -0.4889165 -55.79423 -6.972382
v -0.5386927 -55.79589 -6.968005
v -0.5484531 -55.7842 -6.977364
v -0.5484531 -55.7842 -6.977364
v -0.173234 -55.23837 -7.425645
v -0.4889165 -55.79423 -6.972382
v -0.4889165 -55.79423 -6.972382
v -0.173234 -55.23837 -7.425645
v -0.1262725 -55.77953 -7.001701
v -0.1262725 -55.77953 -7.001701
v -0.173234 -55.23837 -7.425645
v 0.1312868 -55.52264 -7.216643
v 0.1312868 -55.52264 -7.216643
v -0.173234 -55.23837 -7.425645
v 0.2405537 -55.41052 -7.308148
v 0.2405537 -55.41052 -7.308148
v -0.173234 -55.23837 -7.425645
v 0.1330275 -55.26334 -7.418337
v -1.621411 -53.48886 -8.180238
v -1.555569 -53.46718 -8.206907
v -1.583928 -53.92407 -7.992373
v -1.583928 -53.92407 -7.992373
v -1.555569 -53.46718 -8.206907
v -1.162317 -53.79182 -8.160164
v -1.162317 -53.79182 -8.160164
v -1.555569 -53.46718 -8.206907
v -1.175777 -53.47902 -8.287043
v -1.175777 -53.47902 -8.287043
v -1.555569 -53.46718 -8.206907
v -1.254321 -53.37233 -8.313759
v -0.271582 -54.7106 -7.761903
v -0.173234 -55.23837 -7.425645
v -0.3832106 -54.55823 -7.848123
v -0.3832106 -54.55823 -7.848123
v -0.173234 -55.23837 -7.425645
v -1.22518 -54.79409 -7.582271
v -0.173234 -55.23837 -7.425645
v -0.5484531 -55.7842 -6.977364
v -1.22518 -54.79409 -7.582271
v -0.5484531 -55.7842 -6.977364
v -1.346591 -55.60487 -6.979437
v -1.22518 -54.79409 -7.582271
v -1.162317 -53.79182 -8.160164
v -0.9985358 -53.71997 -8.214698
v -0.5664228 -54.30859 -7.960843
v -1.346591 -55.60487 -6.979437
v -1.543123 -55.74662 -6.797323
v -1.66281 -55.59115 -6.881217
v -1.66281 -55.59115 -6.881217
v -1.543123 -55.74662 -6.797323
v -1.684481 -55.729 -6.762671
v -1.66281 -55.59115 -6.881217
v -1.630569 -55.39631 -7.051608
v -1.346591 -55.60487 -6.979437
v -0.956406 -53.80142 -6.592844
v -1.254321 -53.37233 -8.313759
v -2.260027 -54.36977 -5.578973
v -2.260027 -54.36977 -5.578973
v -1.254321 -53.37233 -8.313759
v -2.540902 -54.33932 -5.894659
v -2.540902 -54.33932 -5.894659
v -1.254321 -53.37233 -8.313759
v -2.583346 -54.31711 -6.003882
v -2.583346 -54.31711 -6.003882
v -1.254321 -53.37233 -8.313759
v -1.621411 -53.48886 -8.180238
v -1.621411 -53.48886 -8.180238
v -1.254321 -53.37233 -8.313759
v -1.555569 -53.46718 -8.206907
v -2.583346 -54.31711 -6.003882
v -2.602862 -54.37078 -5.938216
v -2.540902 -54.33932 -5.894659
v -0.9985358 -53.71997 -8.214698
v -1.027779 -53.68027 -8.223038
v -0.5664228 -54.30859 -7.960843
v -0.5664228 -54.30859 -7.960843
v -1.027779 -53.68027 -8.223038
v -0.3832106 -54.55823 -7.848123
v -0.3832106 -54.55823 -7.848123
v -1.027779 -53.68027 -8.223038
v -0.271582 -54.7106 -7.761903
v -0.271582 -54.7106 -7.761903
v -1.027779 -53.68027 -8.223038
v -0.005828213 -55.0736 -7.539704
v -0.005828213 -55.0736 -7.539704
v -1.027779 -53.68027 -8.223038
v 0.1330275 -55.26334 -7.418337
v 0.1330275 -55.26334 -7.418337
v -1.027779 -53.68027 -8.223038
v 0.2405537 -55.41052 -7.308148
v 0.2405537 -55.41052 -7.308148
v -1.027779 -53.68027 -8.223038
v -0.956406 -53.80142 -6.592844
v -0.956406 -53.80142 -6.592844
v -1.027779 -53.68027 -8.223038
v -1.254321 -53.37233 -8.313759
v -1.254321 -53.37233 -8.313759
v -1.027779 -53.68027 -8.223038
v -1.175777 -53.47902 -8.287043
v -2.616712 -54.76059 -5.686505
v -2.319964 -54.55347 -5.516429
v -2.602862 -54.37078 -5.938216
v -2.602862 -54.37078 -5.938216
v -2.319964 -54.55347 -5.516429
v -2.540902 -54.33932 -5.894659
v -2.540902 -54.33932 -5.894659
v -2.319964 -54.55347 -5.516429
v -2.260027 -54.36977 -5.578973
v -1.621411 -53.48886 -8.180238
v -1.583928 -53.92407 -7.992373
v -2.583346 -54.31711 -6.003882
v -2.583346 -54.31711 -6.003882
v -1.583928 -53.92407 -7.992373
v -2.602862 -54.37078 -5.938216
v -2.602862 -54.37078 -5.938216
v -1.583928 -53.92407 -7.992373
v -2.616712 -54.76059 -5.686505
v -2.616712 -54.76059 -5.686505
v -1.583928 -53.92407 -7.992373
v -1.684481 -55.729 -6.762671
v -1.684481 -55.729 -6.762671
v -1.583928 -53.92407 -7.992373
v -1.66281 -55.59115 -6.881217
v -1.66281 -55.59115 -6.881217
v -1.583928 -53.92407 -7.992373
v -1.630569 -55.39631 -7.051608
v -1.630569 -55.39631 -7.051608
v -1.583928 -53.92407 -7.992373
v -1.58714 -54.85849 -7.441732
v -1.58714 -54.85849 -7.441732
v -1.583928 -53.92407 -7.992373
v -1.577166 -54.43067 -7.70881
v -0.5603637 -55.79565 -6.965139
v -0.5386927 -55.79589 -6.968005
v -1.302881 -55.76722 -6.846919
v -1.302881 -55.76722 -6.846919
v -0.5386927 -55.79589 -6.968005
v -1.543123 -55.74662 -6.797323
v -1.543123 -55.74662 -6.797323
v -0.5386927 -55.79589 -6.968005
v -1.684481 -55.729 -6.762671
v -1.684481 -55.729 -6.762671
v -0.5386927 -55.79589 -6.968005
v -2.616712 -54.76059 -5.686505
v -2.616712 -54.76059 -5.686505
v -0.5386927 -55.79589 -6.968005
v -2.319964 -54.55347 -5.516429
v -2.319964 -54.55347 -5.516429
v -0.5386927 -55.79589 -6.968005
v -0.1262725 -55.77953 -7.001701
v -0.1262725 -55.77953 -7.001701
v -0.5386927 -55.79589 -6.968005
v -0.4889165 -55.79423 -6.972382
v -2.319964 -54.55347 -5.516429
v -0.1262725 -55.77953 -7.001701
v -2.260027 -54.36977 -5.578973
v -2.260027 -54.36977 -5.578973
v -0.1262725 -55.77953 -7.001701
v -0.956406 -53.80142 -6.592844
v -0.956406 -53.80142 -6.592844
v -0.1262725 -55.77953 -7.001701
v 0.2405537 -55.41052 -7.308148
v 0.2405537 -55.41052 -7.308148
v -0.1262725 -55.77953 -7.001701
v 0.1312868 -55.52264 -7.216643

vn -0.1696054 -0.3206729 -0.9318814
vn -0.1696054 -0.3206729 -0.9318814
vn -0.1696054 -0.3206729 -0.9318814
vn -0.2304406 -0.5114351 -0.8278474
vn -0.2304406 -0.5114351 -0.8278474
vn -0.2304406 -0.5114351 -0.8278474
vn -0.1895194 -0.481502 -0.8557092
vn -0.1895194 -0.481502 -0.8557092
vn -0.1895194 -0.481502 -0.8557092
vn -0.1895194 -0.481502 -0.8557092
vn -0.1895194 -0.481502 -0.8557092
vn -0.1895194 -0.481502 -0.8557092
vn -0.2102326 -0.5628653 -0.7993653
vn -0.2102326 -0.5628653 -0.7993653
vn -0.2102326 -0.5628653 -0.7993653
vn -0.2102326 -0.5628653 -0.7993653
vn -0.2102326 -0.5628653 -0.7993653
vn -0.2102326 -0.5628653 -0.7993653
vn -0.135321 -0.4885247 -0.861993
vn -0.135321 -0.4885247 -0.861993
vn -0.135321 -0.4885247 -0.861993
vn -0.135321 -0.4885247 -0.861993
vn -0.135321 -0.4885247 -0.861993
vn -0.135321 -0.4885247 -0.861993
vn -0.2065761 -0.6514803 -0.7299997
vn -0.2065761 -0.6514803 -0.7299997
vn -0.2065761 -0.6514803 -0.7299997
vn -0.1438125 -0.6487169 -0.7473181
vn -0.1438125 -0.6487169 -0.7473181
vn -0.1438125 -0.6487169 -0.7473181
vn -0.1438125 -0.6487169 -0.7473181
vn -0.1438125 -0.6487169 -0.7473181
vn -0.1438125 -0.6487169 -0.7473181
vn -0.1043556 -0.6733436 -0.7319278
vn -0.1043556 -0.6733436 -0.7319278
vn -0.1043556 -0.6733436 -0.7319278
vn -0.1162068 -0.3776148 -0.9186419
vn -0.1162068 -0.3776148 -0.9186419
vn -0.1162068 -0.3776148 -0.9186419
vn -0.03847589 -0.5420266 -0.83948
vn -0.03847589 -0.5420266 -0.83948
vn -0.03847589 -0.5420266 -0.83948
vn -0.0333152 -0.5457293 -0.8372558
vn -0.03847589 -0.5420266 -0.83948
vn -0.03847589 -0.5420266 -0.83948
vn -0.03841807 -0.6182979 -0.7850043
vn -0.03855819 -0.6188867 -0.7845147
vn -0.03841807 -0.6182979 -0.7850043
vn -0.03841807 -0.6182979 -0.7850043
vn -0.03841807 -0.6182979 -0.7850043
vn -0.03841807 -0.6182979 -0.7850043
vn -0.03841807 -0.6182979 -0.7850043
vn -0.03841807 -0.6182979 -0.7850043
vn -0.03841807 -0.6182979 -0.7850043
vn -0.03841807 -0.6182979 -0.7850043
vn -0.03841807 -0.6182979 -0.7850043
vn -0.03841807 -0.6182979 -0.7850043
vn -0.03841807 -0.6182979 -0.7850043
vn -0.03841807 -0.6182979 -0.7850043
vn -0.03613575 -0.6167933 -0.7862828
vn -0.03613575 -0.6167933 -0.7862828
vn -0.03841807 -0.6182979 -0.7850043
vn -0.03563691 -0.6164644 -0.7865622
vn -0.226764 -0.4023909 -0.8869383
vn -0.226764 -0.4023909 -0.8869383
vn -0.226764 -0.4023909 -0.8869383
vn -0.226764 -0.4023909 -0.8869383
vn -0.226764 -0.4023909 -0.8869383
vn -0.226764 -0.4023909 -0.8869383
vn -0.226764 -0.4023909 -0.8869383
vn -0.226764 -0.4023909 -0.8869383
vn -0.2192222 -0.3940385 -0.892373
vn -0.2192222 -0.3940385 -0.892373
vn -0.226764 -0.4023909 -0.8869383
vn -0.2181758 -0.3928797 -0.893127
vn -0.1081697 -0.5484402 -0.8291638
vn -0.1081697 -0.5484402 -0.8291638
vn -0.1081697 -0.5484402 -0.8291638
vn -0.1081697 -0.5484402 -0.8291638
vn -0.1081697 -0.5484402 -0.8291638
vn -0.1081697 -0.5484402 -0.8291638
vn -0.1081697 -0.5484402 -0.8291638
vn -0.1258282 -0.5784166 -0.8059785
vn -0.1081697 -0.5484402 -0.8291638
vn -0.1258282 -0.5784166 -0.8059785
vn -0.1258282 -0.5784166 -0.8059785
vn -0.1081697 -0.5484402 -0.8291638
vn -0.08047008 -0.4499848 -0.8894033
vn -0.08047008 -0.4499848 -0.8894033
vn -0.08047008 -0.4499848 -0.8894033
vn -0.2593577 -0.608502 -0.7499726
vn -0.2593577 -0.608502 -0.7499726
vn -0.2593577 -0.608502 -0.7499726
vn -0.2593577 -0.608502 -0.7499726
vn -0.2593577 -0.608502 -0.7499726
vn -0.2593577 -0.608502 -0.7499726
vn -0.2593577 -0.608502 -0.7499726
vn -0.2593577 -0.608502 -0.7499726
vn -0.2593577 -0.608502 -0.7499726
vn -0.2009138 0.9417784 0.2696057
vn -0.2009138 0.9417784 0.2696057
vn -0.2009138 0.9417784 0.2696057
vn -0.2009138 0.9417784 0.2696057
vn -0.2009138 0.9417784 0.2696057
vn -0.2009138 0.9417784 0.2696057
vn -0.2009138 0.9417784 0.2696057
vn -0.2009138 0.9417784 0.2696057
vn -0.2009138 0.9417784 0.2696057
vn -0.2009138 0.9417784 0.2696057
vn -0.2009138 0.9417784 0.2696057
vn -0.2009138 0.9417784 0.2696057
vn -0.2009138 0.9417784 0.2696057
vn -0.2009138 0.9417784 0.2696057
vn -0.2009138 0.9417784 0.2696057
vn -0.6170588 0.6891212 0.3799349
vn -0.6170588 0.6891212 0.3799349
vn -0.6170588 0.6891212 0.3799349
vn 0.8042239 0.594259 0.00895047
vn 0.8042239 0.594259 0.00895047
vn 0.8042239 0.594259 0.00895047
vn 0.8042239 0.594259 0.00895047
vn 0.8042239 0.594259 0.00895047
vn 0.8042239 0.594259 0.00895047
vn 0.8042239 0.594259 0.00895047
vn 0.8042239 0.594259 0.00895047
vn 0.8042239 0.594259 0.00895047
vn 0.8042239 0.594259 0.00895047
vn 0.8042239 0.594259 0.00895047
vn 0.8042239 0.594259 0.00895047
vn 0.8042239 0.594259 0.00895047
vn 0.8042239 0.594259 0.00895047
vn 0.8042239 0.594259 0.00895047
vn 0.8042239 0.594259 0.00895047
vn 0.8042239 0.594259 0.00895047
vn 0.8042239 0.594259 0.00895047
vn 0.8042239 0.594259 0.00895047
vn 0.8042239 0.594259 0.00895047
vn 0.8042239 0.594259 0.00895047
vn 0.8042239 0.594259 0.00895047
vn 0.8042239 0.594259 0.00895047
vn 0.8042239 0.594259 0.00895047
vn 0.8042239 0.594259 0.00895047
vn 0.8042239 0.594259 0.00895047
vn 0.8042239 0.594259 0.00895047
vn -0.6550524 0.4261666 0.6239298
vn -0.6550524 0.4261666 0.6239298
vn -0.6550524 0.4261666 0.6239298
vn -0.6550524 0.4261666 0.6239298
vn -0.6550524 0.4261666 0.6239298
vn -0.6550524 0.4261666 0.6239298
vn -0.6550524 0.4261666 0.6239298
vn -0.6550524 0.4261666 0.6239298
vn -0.6550524 0.4261666 0.6239298
vn -0.8355078 -0.2768252 -0.4746521
vn -0.8355078 -0.2768252 -0.4746521
vn -0.8355078 -0.2768252 -0.4746521
vn -0.8355078 -0.2768252 -0.4746521
vn -0.8355078 -0.2768252 -0.4746521
vn -0.8355078 -0.2768252 -0.4746521
vn -0.8355078 -0.2768252 -0.4746521
vn -0.8355078 -0.2768252 -0.4746521
vn -0.8355078 -0.2768252 -0.4746521
vn -0.8355078 -0.2768252 -0.4746521
vn -0.8355078 -0.2768252 -0.4746521
vn -0.8355078 -0.2768252 -0.4746521
vn -0.8355078 -0.2768252 -0.4746521
vn -0.8355078 -0.2768252 -0.4746521
vn -0.8355078 -0.2768252 -0.4746521
vn -0.8355078 -0.2768252 -0.4746521
vn -0.8355078 -0.2768252 -0.4746521
vn -0.8355078 -0.2768252 -0.4746521
vn -0.8355078 -0.2768252 -0.4746521
vn -0.8355078 -0.2768252 -0.4746521
vn -0.8355078 -0.2768252 -0.4746521
vn -0.8355078 -0.2768252 -0.4746521
vn -0.8355078 -0.2768252 -0.4746521
vn -0.8355078 -0.2768252 -0.4746521
vn 0.08559268 -0.7026178 0.7064009
vn 0.08559268 -0.7026178 0.7064009
vn 0.08559268 -0.7026178 0.7064009
vn 0.08559268 -0.7026178 0.7064009
vn 0.08559268 -0.7026178 0.7064009
vn 0.08559268 -0.7026178 0.7064009
vn 0.08559268 -0.7026178 0.7064009
vn 0.08559268 -0.7026178 0.7064009
vn 0.08559268 -0.7026178 0.7064009
vn 0.08559268 -0.7026178 0.7064009
vn 0.08559268 -0.7026178 0.7064009
vn 0.08559268 -0.7026178 0.7064009
vn 0.08559268 -0.7026178 0.7064009
vn 0.08559268 -0.7026178 0.7064009
vn 0.08559268 -0.7026178 0.7064009
vn 0.08559268 -0.7026178 0.7064009
vn 0.08559268 -0.7026178 0.7064009
vn 0.08559268 -0.7026178 0.7064009
vn 0.08559268 -0.7026178 0.7064009
vn 0.08559268 -0.7026178 0.7064009
vn 0.08559268 -0.7026178 0.7064009
vn 0.5895516 0.08131038 0.8036278
vn 0.5895516 0.08131038 0.8036278
vn 0.5895516 0.08131038 0.8036278
vn 0.5895516 0.08131038 0.8036278
vn 0.5895516 0.08131038 0.8036278
vn 0.5895516 0.08131038 0.8036278
vn 0.5895516 0.08131038 0.8036278
vn 0.5895516 0.08131038 0.8036278
vn 0.5895516 0.08131038 0.8036278
vn 0.5895516 0.08131038 0.8036278
vn 0.5895516 0.08131038 0.8036278
vn 0.5895516 0.08131038 0.8036278

vt 0.9077923 0.1460153
vt 0.9078046 0.146025
vt 0.9078275 0.1459824
vt 0.9080266 0.1459089
vt 0.9081382 0.1460282
vt 0.9081591 0.1459355
vt 0.9080266 0.1459089
vt 0.9078697 0.1458752
vt 0.9081382 0.1460282
vt 0.9081382 0.1460282
vt 0.9078697 0.1458752
vt 0.9078275 0.1459824
vt 0.9083253 0.1459652
vt 0.9081591 0.1459355
vt 0.908389 0.146058
vt 0.908389 0.146058
vt 0.9081591 0.1459355
vt 0.9081382 0.1460282
vt 0.9078275 0.1459824
vt 0.9079856 0.1461823
vt 0.9081382 0.1460282
vt 0.9081382 0.1460282
vt 0.9079856 0.1461823
vt 0.9080623 0.1462495
vt 0.904377 0.1411893
vt 0.904413 0.141215
vt 0.9044511 0.1411483
vt 0.904413 0.141215
vt 0.904377 0.1411893
vt 0.9043059 0.1414247
vt 0.9043059 0.1414247
vt 0.904377 0.1411893
vt 0.904301 0.1414271
vt 0.9043059 0.1414247
vt 0.904301 0.1414271
vt 0.904303 0.1414309
vt 0.9077303 0.1459637
vt 0.9077923 0.1460153
vt 0.9078275 0.1459824
vt 0.9082203 0.1463957
vt 0.9082719 0.1463586
vt 0.9081091 0.1462923
vt 0.9082784 0.1464503
vt 0.9082719 0.1463586
vt 0.9082203 0.1463957
vt 0.9084446 0.1463141
vt 0.9084454 0.1462998
vt 0.9084418 0.1462959
vt 0.9084418 0.1462959
vt 0.9082719 0.1463586
vt 0.9084446 0.1463141
vt 0.9084446 0.1463141
vt 0.9082719 0.1463586
vt 0.9084387 0.1464186
vt 0.9084387 0.1464186
vt 0.9082719 0.1463586
vt 0.9083584 0.1464717
vt 0.9083584 0.1464717
vt 0.9082719 0.1463586
vt 0.9083233 0.1464942
vt 0.9083233 0.1464942
vt 0.9082719 0.1463586
vt 0.9082784 0.1464503
vt 0.9077347 0.1458424
vt 0.9077278 0.1458592
vt 0.9078697 0.1458752
vt 0.9078697 0.1458752
vt 0.9077278 0.1458592
vt 0.9078275 0.1459824
vt 0.9078275 0.1459824
vt 0.9077278 0.1458592
vt 0.9077303 0.1459637
vt 0.9077303 0.1459637
vt 0.9077278 0.1458592
vt 0.9076974 0.1459371
vt 0.9081091 0.1462923
vt 0.9082719 0.1463586
vt 0.9080623 0.1462495
vt 0.9080623 0.1462495
vt 0.9082719 0.1463586
vt 0.9081382 0.1460282
vt 0.9082719 0.1463586
vt 0.9084418 0.1462959
vt 0.9081382 0.1460282
vt 0.9084418 0.1462959
vt 0.908389 0.146058
vt 0.9081382 0.1460282
vt 0.9078275 0.1459824
vt 0.9078046 0.146025
vt 0.9079856 0.1461823
vt 0.908389 0.146058
vt 0.9084331 0.1460189
vt 0.9083855 0.145974
vt 0.9083855 0.145974
vt 0.9084331 0.1460189
vt 0.908428 0.1459804
vt 0.9083855 0.145974
vt 0.9083253 0.1459652
vt 0.908389 0.146058
vt 0.5731868 0.4260402
vt 0.5548022 0.5888938
vt 0.446199 0.3301031
vt 0.446199 0.3301031
vt 0.5548022 0.5888938
vt 0.4217467 0.3599758
vt 0.4217467 0.3599758
vt 0.5548022 0.5888938
vt 0.4183846 0.3703136
vt 0.4183846 0.3703136
vt 0.5548022 0.5888938
vt 0.5198677 0.5762649
vt 0.5198677 0.5762649
vt 0.5548022 0.5888938
vt 0.5261543 0.5787888
vt 0.4527369 0.3901278
vt 0.4479592 0.3833942
vt 0.4543295 0.3789285
vt 0.4631586 0.5513516
vt 0.4588372 0.552078
vt 0.5272439 0.5290647
vt 0.5272439 0.5290647
vt 0.4588372 0.552078
vt 0.5544204 0.5191739
vt 0.5544204 0.5191739
vt 0.4588372 0.552078
vt 0.5709888 0.5116114
vt 0.5709888 0.5116114
vt 0.4588372 0.552078
vt 0.6104682 0.4921092
vt 0.6104682 0.4921092
vt 0.4588372 0.552078
vt 0.6310973 0.4814547
vt 0.6310973 0.4814547
vt 0.4588372 0.552078
vt 0.6470977 0.4717875
vt 0.6470977 0.4717875
vt 0.4588372 0.552078
vt 0.4711029 0.4090153
vt 0.4711029 0.4090153
vt 0.4588372 0.552078
vt 0.4252811 0.560041
vt 0.4252811 0.560041
vt 0.4588372 0.552078
vt 0.4369089 0.557694
vt 0.4294908 0.3858437
vt 0.4671587 0.3614054
vt 0.4670283 0.4220122
vt 0.4670283 0.4220122
vt 0.4671587 0.3614054
vt 0.4737852 0.4157535
vt 0.4737852 0.4157535
vt 0.4671587 0.3614054
vt 0.4881184 0.3703928
vt 0.6136441 0.5638222
vt 0.5712776 0.5425411
vt 0.5654194 0.3173065
vt 0.5654194 0.3173065
vt 0.5712776 0.5425411
vt 0.560949 0.3098652
vt 0.560949 0.3098652
vt 0.5712776 0.5425411
vt 0.5244965 0.2813523
vt 0.5244965 0.2813523
vt 0.5712776 0.5425411
vt 0.4036089 0.4032503
vt 0.4036089 0.4032503
vt 0.5712776 0.5425411
vt 0.4159771 0.4166756
vt 0.4159771 0.4166756
vt 0.5712776 0.5425411
vt 0.4334024 0.4359775
vt 0.4334024 0.4359775
vt 0.5712776 0.5425411
vt 0.4829449 0.4801695
vt 0.4829449 0.4801695
vt 0.5712776 0.5425411
vt 0.5231181 0.5104286
vt 0.3899974 0.5488369
vt 0.3873338 0.5493399
vt 0.4809471 0.5281333
vt 0.4809471 0.5281333
vt 0.3873338 0.5493399
vt 0.5102097 0.519444
vt 0.5102097 0.519444
vt 0.3873338 0.5493399
vt 0.5273371 0.5133716
vt 0.5273371 0.5133716
vt 0.3873338 0.5493399
vt 0.6275489 0.3248783
vt 0.6275489 0.3248783
vt 0.3873338 0.5493399
vt 0.5879205 0.2950895
vt 0.5879205 0.2950895
vt 0.3873338 0.5493399
vt 0.3363291 0.5552446
vt 0.3363291 0.5552446
vt 0.3873338 0.5493399
vt 0.3811823 0.5501036
vt 0.4669352 0.2301241
vt 0.6902186 0.598114
vt 0.4413141 0.2456215
vt 0.4413141 0.2456215
vt 0.6902186 0.598114
vt 0.3845538 0.4968218
vt 0.3845538 0.4968218
vt 0.6902186 0.598114
vt 0.6436983 0.6740459
vt 0.6436983 0.6740459
vt 0.6902186 0.598114
vt 0.6578733 0.6513772

usemtl Material0
usemap Material0
f 1/1/1 2/2/2 3/3/3
f 4/4/4 5/5/5 6/6/6
f 7/7/7 8/8/8 9/9/9
f 10/10/10 11/11/11 12/12/12
f 13/13/13 14/14/14 15/15/15
f 16/16/16 17/17/17 18/18/18
f 19/19/19 20/20/20 21/21/21
f 22/22/22 23/23/23 24/24/24
f 25/25/25 26/26/26 27/27/27
f 28/28/28 29/29/29 30/30/30
f 31/31/31 32/32/32 33/33/33
f 34/34/34 35/35/35 36/36/36
f 37/37/37 38/38/38 39/39/39
f 40/40/40 41/41/41 42/42/42
f 43/43/43 44/44/44 45/45/45
f 46/46/46 47/47/47 48/48/48
f 49/49/49 50/50/50 51/51/51
f 52/52/52 53/53/53 54/54/54
f 55/55/55 56/56/56 57/57/57
f 58/58/58 59/59/59 60/60/60
f 61/61/61 62/62/62 63/63/63
f 64/64/64 65/65/65 66/66/66
f 67/67/67 68/68/68 69/69/69
f 70/70/70 71/71/71 72/72/72
f 73/73/73 74/74/74 75/75/75
f 76/76/76 77/77/77 78/78/78
f 79/79/79 80/80/80 81/81/81
f 82/82/82 83/83/83 84/84/84
f 85/85/85 86/86/86 87/87/87
f 88/88/88 89/89/89 90/90/90
f 91/91/91 92/92/92 93/93/93
f 94/94/94 95/95/95 96/96/96
f 97/97/97 98/98/98 99/99/99

usemtl Material1
usemap Material1
f 100/100/100 101/101/101 102/102/102
f 103/103/103 104/104/104 105/105/105
f 106/106/106 107/107/107 108/108/108
f 109/109/109 110/110/110 111/111/111
f 112/112/112 113/113/113 114/114/114
f 115/115/115 116/116/116 117/117/117
f 118/118/118 119/119/119 120/120/120
f 121/121/121 122/122/122 123/123/123
f 124/124/124 125/125/125 126/126/126
f 127/127/127 128/128/128 129/129/129
f 130/130/130 131/131/131 132/132/132
f 133/133/133 134/134/134 135/135/135
f 136/136/136 137/137/137 138/138/138
f 139/139/139 140/140/140 141/141/141
f 142/142/142 143/143/143 144/144/144
f 145/145/145 146/146/146 147/147/147
f 148/148/148 149/149/149 150/150/150
f 151/151/151 152/152/152 153/153/153
f 154/154/154 155/155/155 156/156/156
f 157/157/157 158/158/158 159/159/159
f 160/160/160 161/161/161 162/162/162
f 163/163/163 164/164/164 165/165/165
f 166/166/166 167/167/167 168/168/168
f 169/169/169 170/170/170 171/171/171
f 172/172/172 173/173/173 174/174/174
f 175/175/175 176/176/176 177/177/177
f 178/178/178 179/179/179 180/180/180
f 181/181/181 182/182/182 183/183/183
f 184/184/184 185/185/185 186/186/186
f 187/187/187 188/188/188 189/189/189
f 190/190/190 191/191/191 192/192/192
f 193/193/193 194/194/194 195/195/195
f 196/196/196 197/197/197 198/198/198
f 199/199/199 200/200/200 201/201/201
f 202/202/202 203/203/203 204/204/204
f 205/205/205 206/206/206 207/207/207
f 208/208/208 209/209/209 210/210/210
