g  Instance
v -5.554612 -48.39455 1.965789
v -5.361242 -50.03981 1.709909
v -5.366509 -47.97927 1.549872
v -5.366509 -47.97927 1.549872
v -5.361242 -50.03981 1.709909
v -5.352244 -47.99266 1.522049
v -5.352244 -47.99266 1.522049
v -5.361242 -50.03981 1.709909
v -4.992427 -49.48096 0.9155754
v -4.992427 -49.48096 0.9155754
v -5.361242 -50.03981 1.709909
v -4.997199 -49.54264 0.9303634
v -4.997199 -49.54264 0.9303634
v -5.361242 -50.03981 1.709909
v -5.211514 -50.13702 1.414285
v -6.537396 -49.49067 2.450539
v -5.991298 -49.86399 2.329568
v -5.999717 -48.32906 2.259533
v -5.999717 -48.32906 2.259533
v -5.991298 -49.86399 2.329568
v -5.820714 -48.47632 2.221051
v -8.185382 -48.89656 -0.5248656
v -7.736944 -49.11699 -0.7247281
v -7.52664 -49.46825 0.7932488
v -7.52664 -49.46825 0.7932488
v -7.736944 -49.11699 -0.7247281
v -5.599043 -50.57525 0.9710582
v -5.599043 -50.57525 0.9710582
v -7.736944 -49.11699 -0.7247281
v -5.557447 -50.50516 0.3638358
v -5.557447 -50.50516 0.3638358
v -7.736944 -49.11699 -0.7247281
v -5.690058 -50.36671 -0.05339175
v -5.690058 -50.36671 -0.05339175
v -7.736944 -49.11699 -0.7247281
v -5.972949 -50.11145 -0.6829054
v -5.433215 -48.15996 -0.07352942
v -5.352244 -47.99266 1.522049
v -5.39269 -48.36365 -0.2662289
v -5.39269 -48.36365 -0.2662289
v -5.352244 -47.99266 1.522049
v -4.992427 -49.48096 0.9155754
v -6.644687 -47.13571 1.473622
v -8.039426 -47.63404 0.9822493
v -6.20019 -47.3886 1.791767
v -6.20019 -47.3886 1.791767
v -8.039426 -47.63404 0.9822493
v -5.999717 -48.32906 2.259533
v -5.999717 -48.32906 2.259533
v -8.039426 -47.63404 0.9822493
v -6.537396 -49.49067 2.450539
v -6.537396 -49.49067 2.450539
v -8.039426 -47.63404 0.9822493
v -7.12822 -49.26468 2.070873
v -5.515182 -50.52806 1.252427
v -5.473329 -50.50098 1.336174
v -5.500437 -50.49286 1.379109
v -5.366509 -47.97927 1.549872
v -5.352244 -47.99266 1.522049
v -6.20019 -47.3886 1.791767
v -6.20019 -47.3886 1.791767
v -5.352244 -47.99266 1.522049
v -6.644687 -47.13571 1.473622
v -6.644687 -47.13571 1.473622
v -5.352244 -47.99266 1.522049
v -5.799684 -47.88226 0.1629238
v -5.799684 -47.88226 0.1629238
v -5.352244 -47.99266 1.522049
v -5.433215 -48.15996 -0.07352942
v -5.991298 -49.86399 2.329568
v -5.712768 -50.13108 2.047816
v -5.820714 -48.47632 2.221051
v -5.820714 -48.47632 2.221051
v -5.712768 -50.13108 2.047816
v -5.554612 -48.39455 1.965789
v -5.554612 -48.39455 1.965789
v -5.712768 -50.13108 2.047816
v -5.361242 -50.03981 1.709909
v -7.736944 -49.11699 -0.7247281
v -8.185382 -48.89656 -0.5248656
v -8.000561 -48.79326 -0.8037965
v -8.000561 -48.79326 -0.8037965
v -8.185382 -48.89656 -0.5248656
v -8.279792 -48.7113 -0.6233654
v -5.34999 -50.40292 1.291168
v -5.486504 -50.45152 0.3821566
v -5.211514 -50.13702 1.414285
v -5.211514 -50.13702 1.414285
v -5.486504 -50.45152 0.3821566
v -4.997199 -49.54264 0.9303634
v -4.997199 -49.54264 0.9303634
v -5.486504 -50.45152 0.3821566
v -5.481596 -50.43621 0.3648222
v -8.000561 -48.79326 -0.8037965
v -7.663012 -48.79585 -0.873848
v -7.736944 -49.11699 -0.7247281
v -7.736944 -49.11699 -0.7247281
v -7.663012 -48.79585 -0.873848
v -5.972949 -50.11145 -0.6829054
v -5.972949 -50.11145 -0.6829054
v -7.663012 -48.79585 -0.873848
v -5.987056 -49.15453 -1.077839
v -5.39269 -48.36365 -0.2662289
v -5.987056 -49.15453 -1.077839
v -5.433215 -48.15996 -0.07352942
v -5.433215 -48.15996 -0.07352942
v -5.987056 -49.15453 -1.077839
v -5.799684 -47.88226 0.1629238
v -5.799684 -47.88226 0.1629238
v -5.987056 -49.15453 -1.077839
v -7.663012 -48.79585 -0.873848
v -5.820714 -48.47632 2.221051
v -5.554612 -48.39455 1.965789
v -5.999717 -48.32906 2.259533
v -5.999717 -48.32906 2.259533
v -5.554612 -48.39455 1.965789
v -6.20019 -47.3886 1.791767
v -6.20019 -47.3886 1.791767
v -5.554612 -48.39455 1.965789
v -5.366509 -47.97927 1.549872
v -5.486504 -50.45152 0.3821566
v -5.557447 -50.50516 0.3638358
v -5.481596 -50.43621 0.3648222
v -5.481596 -50.43621 0.3648222
v -5.557447 -50.50516 0.3638358
v -5.690058 -50.36671 -0.05339175
v -5.500437 -50.49286 1.379109
v -5.712768 -50.13108 2.047816
v -5.515182 -50.52806 1.252427
v -5.515182 -50.52806 1.252427
v -5.712768 -50.13108 2.047816
v -5.599043 -50.57525 0.9710582
v -5.599043 -50.57525 0.9710582
v -5.712768 -50.13108 2.047816
v -7.52664 -49.46825 0.7932488
v -7.52664 -49.46825 0.7932488
v -5.712768 -50.13108 2.047816
v -7.12822 -49.26468 2.070873
v -7.12822 -49.26468 2.070873
v -5.712768 -50.13108 2.047816
v -6.537396 -49.49067 2.450539
v -6.537396 -49.49067 2.450539
v -5.712768 -50.13108 2.047816
v -5.991298 -49.86399 2.329568
v -5.690058 -50.36671 -0.05339175
v -5.972949 -50.11145 -0.6829054
v -5.481596 -50.43621 0.3648222
v -5.481596 -50.43621 0.3648222
v -5.972949 -50.11145 -0.6829054
v -4.997199 -49.54264 0.9303634
v -4.997199 -49.54264 0.9303634
v -5.972949 -50.11145 -0.6829054
v -4.992427 -49.48096 0.9155754
v -4.992427 -49.48096 0.9155754
v -5.972949 -50.11145 -0.6829054
v -5.39269 -48.36365 -0.2662289
v -5.39269 -48.36365 -0.2662289
v -5.972949 -50.11145 -0.6829054
v -5.987056 -49.15453 -1.077839
v -5.486504 -50.45152 0.3821566
v -5.34999 -50.40292 1.291168
v -5.557447 -50.50516 0.3638358
v -5.557447 -50.50516 0.3638358
v -5.34999 -50.40292 1.291168
v -5.599043 -50.57525 0.9710582
v -5.599043 -50.57525 0.9710582
v -5.34999 -50.40292 1.291168
v -5.515182 -50.52806 1.252427
v -5.515182 -50.52806 1.252427
v -5.34999 -50.40292 1.291168
v -5.473329 -50.50098 1.336174
v -7.12822 -49.26468 2.070873
v -8.039426 -47.63404 0.9822493
v -7.52664 -49.46825 0.7932488
v -7.52664 -49.46825 0.7932488
v -8.039426 -47.63404 0.9822493
v -8.185382 -48.89656 -0.5248656
v -8.185382 -48.89656 -0.5248656
v -8.039426 -47.63404 0.9822493
v -8.279792 -48.7113 -0.6233654
v -8.039426 -47.63404 0.9822493
v -6.644687 -47.13571 1.473622
v -8.279792 -48.7113 -0.6233654
v -8.279792 -48.7113 -0.6233654
v -6.644687 -47.13571 1.473622
v -8.000561 -48.79326 -0.8037965
v -8.000561 -48.79326 -0.8037965
v -6.644687 -47.13571 1.473622
v -7.663012 -48.79585 -0.873848
v -7.663012 -48.79585 -0.873848
v -6.644687 -47.13571 1.473622
v -5.799684 -47.88226 0.1629238
v -5.500437 -50.49286 1.379109
v -5.473329 -50.50098 1.336174
v -5.712768 -50.13108 2.047816
v -5.712768 -50.13108 2.047816
v -5.473329 -50.50098 1.336174
v -5.361242 -50.03981 1.709909
v -5.361242 -50.03981 1.709909
v -5.473329 -50.50098 1.336174
v -5.211514 -50.13702 1.414285
v -5.211514 -50.13702 1.414285
v -5.473329 -50.50098 1.336174
v -5.34999 -50.40292 1.291168

vn 0.8963066 0.03661412 0.4419207
vn 0.8963066 0.03661412 0.4419207
vn 0.8963066 0.03661412 0.4419207
vn 0.8963066 0.03661412 0.4419207
vn 0.8963066 0.03661412 0.4419207
vn 0.8963066 0.03661412 0.4419207
vn 0.8963066 0.03661412 0.4419207
vn 0.8963066 0.03661412 0.4419207
vn 0.8963066 0.03661412 0.4419207
vn 0.8963066 0.03661412 0.4419207
vn 0.8963066 0.03661412 0.4419207
vn 0.8963066 0.03661412 0.4419207
vn 0.8963066 0.03661412 0.4419207
vn 0.8963066 0.03661412 0.4419207
vn 0.8963066 0.03661412 0.4419207
vn 0.2456199 0.045528 0.9682966
vn 0.2456199 0.045528 0.9682966
vn 0.2456199 0.045528 0.9682966
vn 0.2456199 0.045528 0.9682966
vn 0.2456199 0.045528 0.9682966
vn 0.2456199 0.045528 0.9682966
vn -0.4843314 -0.8647171 -0.1329943
vn -0.4843314 -0.8647171 -0.1329943
vn -0.4843314 -0.8647171 -0.1329943
vn -0.4843314 -0.8647171 -0.1329943
vn -0.4843314 -0.8647171 -0.1329943
vn -0.4843314 -0.8647171 -0.1329943
vn -0.4843314 -0.8647171 -0.1329943
vn -0.4843314 -0.8647171 -0.1329943
vn -0.4843314 -0.8647171 -0.1329943
vn -0.4843314 -0.8647171 -0.1329943
vn -0.4843314 -0.8647171 -0.1329943
vn -0.4843314 -0.8647171 -0.1329943
vn -0.4843314 -0.8647171 -0.1329943
vn -0.4843314 -0.8647171 -0.1329943
vn -0.4843314 -0.8647171 -0.1329943
vn 0.9615916 0.2636259 -0.07643946
vn 0.9615916 0.2636259 -0.07643946
vn 0.9615916 0.2636259 -0.07643946
vn 0.9615916 0.2636259 -0.07643946
vn 0.9615916 0.2636259 -0.07643946
vn 0.9615916 0.2636259 -0.07643946
vn -0.4167647 0.332042 0.8462006
vn -0.4167647 0.332042 0.8462006
vn -0.4167647 0.332042 0.8462006
vn -0.4167647 0.332042 0.8462006
vn -0.4167647 0.332042 0.8462006
vn -0.4167647 0.332042 0.8462006
vn -0.4167647 0.332042 0.8462006
vn -0.4167647 0.332042 0.8462006
vn -0.4167647 0.332042 0.8462006
vn -0.4167647 0.332042 0.8462006
vn -0.4167647 0.332042 0.8462006
vn -0.4167647 0.332042 0.8462006
vn 0.114204 -0.9605368 0.2536268
vn 0.114204 -0.9605368 0.2536268
vn 0.114204 -0.9605368 0.2536268
vn 0.5519511 0.8259625 -0.1146123
vn 0.5519511 0.8259625 -0.1146123
vn 0.5519511 0.8259625 -0.1146123
vn 0.5519511 0.8259625 -0.1146123
vn 0.5519511 0.8259625 -0.1146123
vn 0.5519511 0.8259625 -0.1146123
vn 0.5519511 0.8259625 -0.1146123
vn 0.5519511 0.8259625 -0.1146123
vn 0.5519511 0.8259625 -0.1146123
vn 0.5519511 0.8259625 -0.1146123
vn 0.5519511 0.8259625 -0.1146123
vn 0.5519511 0.8259625 -0.1146123
vn 0.6966789 -0.02958874 0.7167726
vn 0.6966789 -0.02958874 0.7167726
vn 0.6966789 -0.02958874 0.7167726
vn 0.6966789 -0.02958874 0.7167726
vn 0.6966789 -0.02958874 0.7167726
vn 0.6966789 -0.02958874 0.7167726
vn 0.6966789 -0.02958874 0.7167726
vn 0.6966789 -0.02958874 0.7167726
vn 0.6966789 -0.02958874 0.7167726
vn -0.5525349 -0.5929827 -0.5857275
vn -0.5525349 -0.5929827 -0.5857275
vn -0.5525349 -0.5929827 -0.5857275
vn -0.5525349 -0.5929827 -0.5857275
vn -0.5525349 -0.5929827 -0.5857275
vn -0.5525349 -0.5929827 -0.5857275
vn 0.901735 -0.4172315 -0.1131022
vn 0.901735 -0.4172315 -0.1131022
vn 0.901735 -0.4172315 -0.1131022
vn 0.901735 -0.4172315 -0.1131022
vn 0.901735 -0.4172315 -0.1131022
vn 0.901735 -0.4172315 -0.1131022
vn 0.901735 -0.4172315 -0.1131022
vn 0.901735 -0.4172315 -0.1131022
vn 0.901735 -0.4172315 -0.1131022
vn -0.1909761 -0.376879 -0.9063611
vn -0.1909761 -0.376879 -0.9063611
vn -0.1909761 -0.376879 -0.9063611
vn -0.1909761 -0.376879 -0.9063611
vn -0.1909761 -0.376879 -0.9063611
vn -0.1909761 -0.376879 -0.9063611
vn -0.1909761 -0.376879 -0.9063611
vn -0.1909761 -0.376879 -0.9063611
vn -0.1909761 -0.376879 -0.9063611
vn 0.06065229 0.6923041 -0.7190524
vn 0.06065229 0.6923041 -0.7190524
vn 0.06065229 0.6923041 -0.7190524
vn 0.06065229 0.6923041 -0.7190524
vn 0.06065229 0.6923041 -0.7190524
vn 0.06065229 0.6923041 -0.7190524
vn 0.06065229 0.6923041 -0.7190524
vn 0.06065229 0.6923041 -0.7190524
vn 0.06065229 0.6923041 -0.7190524
vn 0.5342742 0.4649881 0.70593
vn 0.5342742 0.4649881 0.70593
vn 0.5342742 0.4649881 0.70593
vn 0.5342742 0.4649881 0.70593
vn 0.5342742 0.4649881 0.70593
vn 0.5342742 0.4649881 0.70593
vn 0.5342742 0.4649881 0.70593
vn 0.5342742 0.4649881 0.70593
vn 0.5342742 0.4649881 0.70593
vn 0.6142163 -0.6696941 -0.4174304
vn 0.6142163 -0.6696941 -0.4174304
vn 0.6142163 -0.6696941 -0.4174304
vn 0.6142163 -0.6696941 -0.4174304
vn 0.6142163 -0.6696941 -0.4174304
vn 0.6142163 -0.6696941 -0.4174304
vn -0.4969426 -0.8194576 0.2855473
vn -0.4969426 -0.8194576 0.2855473
vn -0.4969426 -0.8194576 0.2855473
vn -0.4969426 -0.8194576 0.2855473
vn -0.4969426 -0.8194576 0.2855473
vn -0.4969426 -0.8194576 0.2855473
vn -0.4969426 -0.8194576 0.2855473
vn -0.4969426 -0.8194576 0.2855473
vn -0.4969426 -0.8194576 0.2855473
vn -0.4969426 -0.8194576 0.2855473
vn -0.4969426 -0.8194576 0.2855473
vn -0.4969426 -0.8194576 0.2855473
vn -0.4969426 -0.8194576 0.2855473
vn -0.4969426 -0.8194576 0.2855473
vn -0.4969426 -0.8194576 0.2855473
vn -0.4969426 -0.8194576 0.2855473
vn -0.4969426 -0.8194576 0.2855473
vn -0.4969426 -0.8194576 0.2855473
vn 0.868538 -0.1780762 -0.4625265
vn 0.868538 -0.1780762 -0.4625265
vn 0.868538 -0.1780762 -0.4625265
vn 0.868538 -0.1780762 -0.4625265
vn 0.868538 -0.1780762 -0.4625265
vn 0.868538 -0.1780762 -0.4625265
vn 0.868538 -0.1780762 -0.4625265
vn 0.868538 -0.1780762 -0.4625265
vn 0.868538 -0.1780762 -0.4625265
vn 0.868538 -0.1780762 -0.4625265
vn 0.868538 -0.1780762 -0.4625265
vn 0.868538 -0.1780762 -0.4625265
vn 0.868538 -0.1780762 -0.4625265
vn 0.868538 -0.1780762 -0.4625265
vn 0.868538 -0.1780762 -0.4625265
vn 0.6104366 -0.7905237 -0.04939242
vn 0.6104366 -0.7905237 -0.04939242
vn 0.6104366 -0.7905237 -0.04939242
vn 0.6104366 -0.7905237 -0.04939242
vn 0.6104366 -0.7905237 -0.04939242
vn 0.6104366 -0.7905237 -0.04939242
vn 0.6104366 -0.7905237 -0.04939242
vn 0.6104366 -0.7905237 -0.04939242
vn 0.6104366 -0.7905237 -0.04939242
vn 0.6104366 -0.7905237 -0.04939242
vn 0.6104366 -0.7905237 -0.04939242
vn 0.6104366 -0.7905237 -0.04939242
vn -0.9010445 -0.2855323 0.3264813
vn -0.9010445 -0.2855323 0.3264813
vn -0.9010445 -0.2855323 0.3264813
vn -0.9010445 -0.2855323 0.3264813
vn -0.9010445 -0.2855323 0.3264813
vn -0.9010445 -0.2855323 0.3264813
vn -0.9010445 -0.2855323 0.3264813
vn -0.9010445 -0.2855323 0.3264813
vn -0.9010445 -0.2855323 0.3264813
vn -0.1063048 0.8329953 -0.5429717
vn -0.1063048 0.8329953 -0.5429717
vn -0.1063048 0.8329953 -0.5429717
vn -0.1063048 0.8329953 -0.5429717
vn -0.1063048 0.8329953 -0.5429717
vn -0.1063048 0.8329953 -0.5429717
vn -0.1063048 0.8329953 -0.5429717
vn -0.1063048 0.8329953 -0.5429717
vn -0.1063048 0.8329953 -0.5429717
vn -0.1063048 0.8329953 -0.5429717
vn -0.1063048 0.8329953 -0.5429717
vn -0.1063048 0.8329953 -0.5429717
vn 0.6410956 -0.5712211 0.5125456
vn 0.6410956 -0.5712211 0.5125456
vn 0.6410956 -0.5712211 0.5125456
vn 0.6410956 -0.5712211 0.5125456
vn 0.6410956 -0.5712211 0.5125456
vn 0.6410956 -0.5712211 0.5125456
vn 0.6410956 -0.5712211 0.5125456
vn 0.6410956 -0.5712211 0.5125456
vn 0.6410956 -0.5712211 0.5125456
vn 0.6410956 -0.5712211 0.5125456
vn 0.6410956 -0.5712211 0.5125456
vn 0.6410956 -0.5712211 0.5125456

vt 0.4396796 0.3682647
vt 0.6012666 0.3961722
vt 0.3998417 0.4136208
vt 0.3998417 0.4136208
vt 0.6012666 0.3961722
vt 0.4012061 0.4166569
vt 0.4012061 0.4166569
vt 0.6012666 0.3961722
vt 0.5481152 0.4827959
vt 0.5481152 0.4827959
vt 0.6012666 0.3961722
vt 0.5541223 0.4811753
vt 0.5541223 0.4811753
vt 0.6012666 0.3961722
vt 0.6113623 0.4284058
vt 0.453347 0.443228
vt 0.4201029 0.3922326
vt 0.5591981 0.3930196
vt 0.5591981 0.3930196
vt 0.4201029 0.3922326
vt 0.5460476 0.3763021
vt 0.5934527 0.515374
vt 0.5492793 0.5332277
vt 0.5178374 0.3976251
vt 0.5178374 0.3976251
vt 0.5492793 0.5332277
vt 0.3210412 0.3817411
vt 0.3210412 0.3817411
vt 0.5492793 0.5332277
vt 0.3208643 0.4359868
vt 0.3208643 0.4359868
vt 0.5492793 0.5332277
vt 0.3370975 0.473259
vt 0.3370975 0.473259
vt 0.5492793 0.5332277
vt 0.3699923 0.5294931
vt 0.46063 0.4680714
vt 0.4483131 0.3272346
vt 0.4788609 0.4850869
vt 0.4788609 0.4850869
vt 0.4483131 0.3272346
vt 0.5830124 0.3807632
vt 0.7937926 0.4659945
vt 0.5864863 0.6178491
vt 0.8068407 0.3676733
vt 0.8068407 0.3676733
vt 0.5864863 0.6178491
vt 0.7062749 0.2231065
vt 0.7062749 0.2231065
vt 0.5864863 0.6178491
vt 0.5014831 0.1640783
vt 0.5014831 0.1640783
vt 0.5864863 0.6178491
vt 0.469962 0.2814175
vt 0.3750634 0.4014529
vt 0.3710028 0.393597
vt 0.3733591 0.3895737
vt 0.5717525 0.3190668
vt 0.5734569 0.3215395
vt 0.4815432 0.2975529
vt 0.4815432 0.2975529
vt 0.5734569 0.3215395
vt 0.4364851 0.3258423
vt 0.4364851 0.3258423
vt 0.5734569 0.3215395
vt 0.5351789 0.4423991
vt 0.5351789 0.4423991
vt 0.5734569 0.3215395
vt 0.57572 0.463424
vt 0.5935551 0.3701506
vt 0.625649 0.420997
vt 0.4181657 0.3897367
vt 0.4181657 0.3897367
vt 0.625649 0.420997
vt 0.4064635 0.4358099
vt 0.4064635 0.4358099
vt 0.625649 0.420997
vt 0.6122843 0.4819856
vt 0.5492607 0.5068709
vt 0.6010524 0.4801695
vt 0.5940394 0.5174323
vt 0.5940394 0.5174323
vt 0.6010524 0.4801695
vt 0.6222031 0.4933293
vt 0.5425644 0.3393839
vt 0.5515146 0.4201867
vt 0.5161144 0.3284407
vt 0.5161144 0.3284407
vt 0.5515146 0.4201867
vt 0.4605136 0.3714545
vt 0.4605136 0.3714545
vt 0.5515146 0.4201867
vt 0.5501083 0.4217281
vt 0.4375422 0.5090037
vt 0.4353535 0.4782602
vt 0.4669817 0.4849938
vt 0.4669817 0.4849938
vt 0.4353535 0.4782602
vt 0.5505087 0.3243382
vt 0.5505087 0.3243382
vt 0.4353535 0.4782602
vt 0.4579617 0.3256234
vt 0.7037882 0.4196885
vt 0.6377378 0.5671471
vt 0.6964492 0.3846748
vt 0.6964492 0.3846748
vt 0.6377378 0.5671471
vt 0.6472933 0.3417122
vt 0.6472933 0.3417122
vt 0.6377378 0.5671471
vt 0.4229714 0.5300891
vt 0.5461687 0.3960465
vt 0.560176 0.4406994
vt 0.5178561 0.3893175
vt 0.5178561 0.3893175
vt 0.560176 0.4406994
vt 0.4136534 0.4711448
vt 0.4136534 0.4711448
vt 0.560176 0.4406994
vt 0.5366691 0.5134555
vt 0.4768819 0.356148
vt 0.4854316 0.3580991
vt 0.4755314 0.357992
vt 0.4755314 0.357992
vt 0.4854316 0.3580991
vt 0.485832 0.4024354
vt 0.3093576 0.3632541
vt 0.3431605 0.2993597
vt 0.3088407 0.3753568
vt 0.3088407 0.3753568
vt 0.3431605 0.2993597
vt 0.3131668 0.4022399
vt 0.3131668 0.4022399
vt 0.3431605 0.2993597
vt 0.5166453 0.4192228
vt 0.5166453 0.4192228
vt 0.3431605 0.2993597
vt 0.4951175 0.2971571
vt 0.4951175 0.2971571
vt 0.3431605 0.2993597
vt 0.4381289 0.2608815
vt 0.4381289 0.2608815
vt 0.3431605 0.2993597
vt 0.3776479 0.2724394
vt 0.5978299 0.4045915
vt 0.5787003 0.4748608
vt 0.6004191 0.3579035
vt 0.6004191 0.3579035
vt 0.5787003 0.4748608
vt 0.5041468 0.2947635
vt 0.5041468 0.2947635
vt 0.5787003 0.4748608
vt 0.4980744 0.296412
vt 0.4980744 0.296412
vt 0.5787003 0.4748608
vt 0.3976949 0.4283499
vt 0.3976949 0.4283499
vt 0.5787003 0.4748608
vt 0.4861952 0.518941
vt 0.4635125 0.4314186
vt 0.4514098 0.3514587
vt 0.4713264 0.4330299
vt 0.4713264 0.4330299
vt 0.4514098 0.3514587
vt 0.4779809 0.3796177
vt 0.4779809 0.3796177
vt 0.4514098 0.3514587
vt 0.4696174 0.3548627
vt 0.4696174 0.3548627
vt 0.4514098 0.3514587
vt 0.4652541 0.3474959
vt 0.484612 0.295462
vt 0.6544832 0.4023889
vt 0.4777713 0.4209551
vt 0.4777713 0.4209551
vt 0.6544832 0.4023889
vt 0.5468392 0.5504109
vt 0.5468392 0.5504109
vt 0.6544832 0.4023889
vt 0.5658851 0.5600875
vt 0.4190691 0.2997322
vt 0.5702438 0.2385853
vt 0.3799064 0.4995413
vt 0.3799064 0.4995413
vt 0.5702438 0.2385853
vt 0.407772 0.5219865
vt 0.407772 0.5219865
vt 0.5702438 0.2385853
vt 0.4427251 0.5307038
vt 0.4427251 0.5307038
vt 0.5702438 0.2385853
vt 0.6479638 0.401695
vt 0.5012317 0.4639083
vt 0.5000023 0.4690121
vt 0.4880626 0.3843116
vt 0.4880626 0.3843116
vt 0.5000023 0.4690121
vt 0.4571934 0.4245268
vt 0.4571934 0.4245268
vt 0.5000023 0.4690121
vt 0.4544366 0.4597173
vt 0.4544366 0.4597173
vt 0.5000023 0.4690121
vt 0.484137 0.4743673

usemtl Material0
usemap Material0

usemtl Material1
usemap Material1
f 1/1/1 2/2/2 3/3/3
f 4/4/4 5/5/5 6/6/6
f 7/7/7 8/8/8 9/9/9
f 10/10/10 11/11/11 12/12/12
f 13/13/13 14/14/14 15/15/15
f 16/16/16 17/17/17 18/18/18
f 19/19/19 20/20/20 21/21/21
f 22/22/22 23/23/23 24/24/24
f 25/25/25 26/26/26 27/27/27
f 28/28/28 29/29/29 30/30/30
f 31/31/31 32/32/32 33/33/33
f 34/34/34 35/35/35 36/36/36
f 37/37/37 38/38/38 39/39/39
f 40/40/40 41/41/41 42/42/42
f 43/43/43 44/44/44 45/45/45
f 46/46/46 47/47/47 48/48/48
f 49/49/49 50/50/50 51/51/51
f 52/52/52 53/53/53 54/54/54
f 55/55/55 56/56/56 57/57/57
f 58/58/58 59/59/59 60/60/60
f 61/61/61 62/62/62 63/63/63
f 64/64/64 65/65/65 66/66/66
f 67/67/67 68/68/68 69/69/69
f 70/70/70 71/71/71 72/72/72
f 73/73/73 74/74/74 75/75/75
f 76/76/76 77/77/77 78/78/78
f 79/79/79 80/80/80 81/81/81
f 82/82/82 83/83/83 84/84/84
f 85/85/85 86/86/86 87/87/87
f 88/88/88 89/89/89 90/90/90
f 91/91/91 92/92/92 93/93/93
f 94/94/94 95/95/95 96/96/96
f 97/97/97 98/98/98 99/99/99
f 100/100/100 101/101/101 102/102/102
f 103/103/103 104/104/104 105/105/105
f 106/106/106 107/107/107 108/108/108
f 109/109/109 110/110/110 111/111/111
f 112/112/112 113/113/113 114/114/114
f 115/115/115 116/116/116 117/117/117
f 118/118/118 119/119/119 120/120/120
f 121/121/121 122/122/122 123/123/123
f 124/124/124 125/125/125 126/126/126
f 127/127/127 128/128/128 129/129/129
f 130/130/130 131/131/131 132/132/132
f 133/133/133 134/134/134 135/135/135
f 136/136/136 137/137/137 138/138/138
f 139/139/139 140/140/140 141/141/141
f 142/142/142 143/143/143 144/144/144
f 145/145/145 146/146/146 147/147/147
f 148/148/148 149/149/149 150/150/150
f 151/151/151 152/152/152 153/153/153
f 154/154/154 155/155/155 156/156/156
f 157/157/157 158/158/158 159/159/159
f 160/160/160 161/161/161 162/162/162
f 163/163/163 164/164/164 165/165/165
f 166/166/166 167/167/167 168/168/168
f 169/169/169 170/170/170 171/171/171
f 172/172/172 173/173/173 174/174/174
f 175/175/175 176/176/176 177/177/177
f 178/178/178 179/179/179 180/180/180
f 181/181/181 182/182/182 183/183/183
f 184/184/184 185/185/185 186/186/186
f 187/187/187 188/188/188 189/189/189
f 190/190/190 191/191/191 192/192/192
f 193/193/193 194/194/194 195/195/195
f 196/196/196 197/197/197 198/198/198
f 199/199/199 200/200/200 201/201/201
f 202/202/202 203/203/203 204/204/204
