g  Instance
v -4.223958 -55.04696 2.778498
v -4.238501 -55.06857 2.771917
v -3.355145 -55.75692 2.679306
v -3.355145 -55.75692 2.679306
v -4.238501 -55.06857 2.771917
v -3.451294 -55.90716 2.633983
v -3.493032 -56.16057 -0.5019557
v -2.24376 -55.59516 0.4242168
v -2.941519 -56.84774 0.7014775
v -2.941519 -56.84774 0.7014775
v -2.24376 -55.59516 0.4242168
v -2.033595 -55.71951 0.7661768
v -3.531431 -54.45044 1.138584
v -3.319412 -54.45236 0.3411952
v -3.378658 -54.40842 0.3282908
v -2.897112 -55.32564 2.539427
v -2.042602 -55.67887 0.830359
v -3.535297 -54.78498 2.610207
v -3.535297 -54.78498 2.610207
v -2.042602 -55.67887 0.830359
v -3.779114 -54.52185 2.390866
v -3.779114 -54.52185 2.390866
v -2.042602 -55.67887 0.830359
v -3.531431 -54.45044 1.138584
v -3.531431 -54.45044 1.138584
v -2.042602 -55.67887 0.830359
v -3.319412 -54.45236 0.3411952
v -3.319412 -54.45236 0.3411952
v -2.042602 -55.67887 0.830359
v -2.630929 -55.07619 0.4415188
v -4.223958 -55.04696 2.778498
v -4.132513 -54.86959 2.740649
v -4.238501 -55.06857 2.771917
v -4.238501 -55.06857 2.771917
v -4.132513 -54.86959 2.740649
v -5.139654 -55.87637 1.348939
v -5.139654 -55.87637 1.348939
v -4.132513 -54.86959 2.740649
v -5.089545 -55.40586 0.615028
v -5.089545 -55.40586 0.615028
v -4.132513 -54.86959 2.740649
v -5.037975 -55.31909 0.6190078
v -5.037975 -55.31909 0.6190078
v -4.132513 -54.86959 2.740649
v -4.050471 -54.66148 2.613124
v -4.050471 -54.66148 2.613124
v -4.132513 -54.86959 2.740649
v -4.061012 -54.70653 2.664489
v -3.330423 -56.96776 1.128126
v -4.917484 -56.26431 0.3523307
v -2.941519 -56.84774 0.7014775
v -2.941519 -56.84774 0.7014775
v -4.917484 -56.26431 0.3523307
v -3.493032 -56.16057 -0.5019557
v -3.493032 -56.16057 -0.5019557
v -4.917484 -56.26431 0.3523307
v -3.684086 -56.0864 -0.5731676
v -3.684086 -56.0864 -0.5731676
v -4.917484 -56.26431 0.3523307
v -4.899354 -56.17899 0.164263
v -3.788101 -54.76904 2.659796
v -4.132513 -54.86959 2.740649
v -3.535297 -54.78498 2.610207
v -3.535297 -54.78498 2.610207
v -4.132513 -54.86959 2.740649
v -2.897112 -55.32564 2.539427
v -2.897112 -55.32564 2.539427
v -4.132513 -54.86959 2.740649
v -3.355145 -55.75692 2.679306
v -3.355145 -55.75692 2.679306
v -4.132513 -54.86959 2.740649
v -4.223958 -55.04696 2.778498
v -3.330423 -56.96776 1.128126
v -2.941519 -56.84774 0.7014775
v -3.577137 -56.70502 1.822645
v -3.577137 -56.70502 1.822645
v -2.941519 -56.84774 0.7014775
v -3.451294 -55.90716 2.633983
v -3.451294 -55.90716 2.633983
v -2.941519 -56.84774 0.7014775
v -3.355145 -55.75692 2.679306
v -3.355145 -55.75692 2.679306
v -2.941519 -56.84774 0.7014775
v -2.897112 -55.32564 2.539427
v -2.897112 -55.32564 2.539427
v -2.941519 -56.84774 0.7014775
v -2.042602 -55.67887 0.830359
v -2.042602 -55.67887 0.830359
v -2.941519 -56.84774 0.7014775
v -2.033595 -55.71951 0.7661768
v -5.110206 -55.98812 1.271896
v -4.917484 -56.26431 0.3523307
v -3.577137 -56.70502 1.822645
v -3.577137 -56.70502 1.822645
v -4.917484 -56.26431 0.3523307
v -3.330423 -56.96776 1.128126
v -3.378658 -54.40842 0.3282908
v -3.319412 -54.45236 0.3411952
v -3.699936 -54.6016 0.06916833
v -3.699936 -54.6016 0.06916833
v -3.319412 -54.45236 0.3411952
v -3.684086 -56.0864 -0.5731676
v -3.684086 -56.0864 -0.5731676
v -3.319412 -54.45236 0.3411952
v -3.493032 -56.16057 -0.5019557
v -3.493032 -56.16057 -0.5019557
v -3.319412 -54.45236 0.3411952
v -2.24376 -55.59516 0.4242168
v -2.24376 -55.59516 0.4242168
v -3.319412 -54.45236 0.3411952
v -2.630929 -55.07619 0.4415188
v -4.899354 -56.17899 0.164263
v -5.089545 -55.40586 0.615028
v -3.684086 -56.0864 -0.5731676
v -3.684086 -56.0864 -0.5731676
v -5.089545 -55.40586 0.615028
v -3.699936 -54.6016 0.06916833
v -3.699936 -54.6016 0.06916833
v -5.089545 -55.40586 0.615028
v -5.037975 -55.31909 0.6190078
v -4.061012 -54.70653 2.664489
v -3.788101 -54.76904 2.659796
v -4.050471 -54.66148 2.613124
v -4.050471 -54.66148 2.613124
v -3.788101 -54.76904 2.659796
v -3.779114 -54.52185 2.390866
v -3.779114 -54.52185 2.390866
v -3.788101 -54.76904 2.659796
v -3.535297 -54.78498 2.610207
v -2.042602 -55.67887 0.830359
v -2.033595 -55.71951 0.7661768
v -2.630929 -55.07619 0.4415188
v -2.630929 -55.07619 0.4415188
v -2.033595 -55.71951 0.7661768
v -2.24376 -55.59516 0.4242168
v -4.238501 -55.06857 2.771917
v -5.139654 -55.87637 1.348939
v -3.451294 -55.90716 2.633983
v -3.451294 -55.90716 2.633983
v -5.139654 -55.87637 1.348939
v -3.577137 -56.70502 1.822645
v -3.577137 -56.70502 1.822645
v -5.139654 -55.87637 1.348939
v -5.110206 -55.98812 1.271896
v -4.050471 -54.66148 2.613124
v -3.779114 -54.52185 2.390866
v -5.037975 -55.31909 0.6190078
v -5.037975 -55.31909 0.6190078
v -3.779114 -54.52185 2.390866
v -3.699936 -54.6016 0.06916833
v -3.699936 -54.6016 0.06916833
v -3.779114 -54.52185 2.390866
v -3.378658 -54.40842 0.3282908
v -3.378658 -54.40842 0.3282908
v -3.779114 -54.52185 2.390866
v -3.531431 -54.45044 1.138584
v -5.139654 -55.87637 1.348939
v -5.089545 -55.40586 0.615028
v -5.110206 -55.98812 1.271896
v -5.110206 -55.98812 1.271896
v -5.089545 -55.40586 0.615028
v -4.917484 -56.26431 0.3523307
v -4.917484 -56.26431 0.3523307
v -5.089545 -55.40586 0.615028
v -4.899354 -56.17899 0.164263
v -4.061012 -54.70653 2.664489
v -4.132513 -54.86959 2.740649
v -3.788101 -54.76904 2.659796

vn -0.08408526 -0.2380869 0.9675972
vn -0.08408526 -0.2380869 0.9675972
vn -0.08408526 -0.2380869 0.9675972
vn -0.08408526 -0.2380869 0.9675972
vn -0.08408526 -0.2380869 0.9675972
vn -0.08408526 -0.2380869 0.9675972
vn 0.6512286 -0.4908762 -0.5787416
vn 0.6512286 -0.4908762 -0.5787416
vn 0.6512286 -0.4908762 -0.5787416
vn 0.6512286 -0.4908762 -0.5787416
vn 0.6512286 -0.4908762 -0.5787416
vn 0.6512286 -0.4908762 -0.5787416
vn 0.5678813 0.8095033 0.1490485
vn 0.5678813 0.8095033 0.1490485
vn 0.5678813 0.8095033 0.1490485
vn 0.6478724 0.7424275 0.1704784
vn 0.6478724 0.7424275 0.1704784
vn 0.6478724 0.7424275 0.1704784
vn 0.6478724 0.7424275 0.1704784
vn 0.6478724 0.7424275 0.1704784
vn 0.6478724 0.7424275 0.1704784
vn 0.6478724 0.7424275 0.1704784
vn 0.6478724 0.7424275 0.1704784
vn 0.6478724 0.7424275 0.1704784
vn 0.6478724 0.7424275 0.1704784
vn 0.6478724 0.7424275 0.1704784
vn 0.6478724 0.7424275 0.1704784
vn 0.6478724 0.7424275 0.1704784
vn 0.6478724 0.7424275 0.1704784
vn 0.6478724 0.7424275 0.1704784
vn -0.8364909 0.485489 0.2541331
vn -0.8364909 0.485489 0.2541331
vn -0.8364909 0.485489 0.2541331
vn -0.8364909 0.485489 0.2541331
vn -0.8364909 0.485489 0.2541331
vn -0.8364909 0.485489 0.2541331
vn -0.8364909 0.485489 0.2541331
vn -0.8364909 0.485489 0.2541331
vn -0.8364909 0.485489 0.2541331
vn -0.8364909 0.485489 0.2541331
vn -0.8364909 0.485489 0.2541331
vn -0.8364909 0.485489 0.2541331
vn -0.8364909 0.485489 0.2541331
vn -0.8364909 0.485489 0.2541331
vn -0.8364909 0.485489 0.2541331
vn -0.8364909 0.485489 0.2541331
vn -0.8364909 0.485489 0.2541331
vn -0.8364909 0.485489 0.2541331
vn -0.1877167 -0.8875346 -0.420767
vn -0.1877167 -0.8875346 -0.420767
vn -0.1877167 -0.8875346 -0.420767
vn -0.1877167 -0.8875346 -0.420767
vn -0.1877167 -0.8875346 -0.420767
vn -0.1877167 -0.8875346 -0.420767
vn -0.1877167 -0.8875346 -0.420767
vn -0.1877167 -0.8875346 -0.420767
vn -0.1877167 -0.8875346 -0.420767
vn -0.1877167 -0.8875346 -0.420767
vn -0.1877167 -0.8875346 -0.420767
vn -0.1877167 -0.8875346 -0.420767
vn 0.1978382 0.1059497 0.9744921
vn 0.1978382 0.1059497 0.9744921
vn 0.1978382 0.1059497 0.9744921
vn 0.1978382 0.1059497 0.9744921
vn 0.1978382 0.1059497 0.9744921
vn 0.1978382 0.1059497 0.9744921
vn 0.1978382 0.1059497 0.9744921
vn 0.1978382 0.1059497 0.9744921
vn 0.1978382 0.1059497 0.9744921
vn 0.1978382 0.1059497 0.9744921
vn 0.1978382 0.1059497 0.9744921
vn 0.1978382 0.1059497 0.9744921
vn 0.6794741 -0.5730624 0.4581642
vn 0.6794741 -0.5730624 0.4581642
vn 0.6794741 -0.5730624 0.4581642
vn 0.6794741 -0.5730624 0.4581642
vn 0.6794741 -0.5730624 0.4581642
vn 0.6794741 -0.5730624 0.4581642
vn 0.6794741 -0.5730624 0.4581642
vn 0.6794741 -0.5730624 0.4581642
vn 0.6794741 -0.5730624 0.4581642
vn 0.6794741 -0.5730624 0.4581642
vn 0.6794741 -0.5730624 0.4581642
vn 0.6794741 -0.5730624 0.4581642
vn 0.6794741 -0.5730624 0.4581642
vn 0.6794741 -0.5730624 0.4581642
vn 0.6794741 -0.5730624 0.4581642
vn 0.6794741 -0.5730624 0.4581642
vn 0.6794741 -0.5730624 0.4581642
vn 0.6794741 -0.5730624 0.4581642
vn -0.4655209 -0.8697729 0.1636632
vn -0.4655209 -0.8697729 0.1636632
vn -0.4655209 -0.8697729 0.1636632
vn -0.4655209 -0.8697729 0.1636632
vn -0.4655209 -0.8697729 0.1636632
vn -0.4655209 -0.8697729 0.1636632
vn 0.4452471 0.3595071 -0.8200669
vn 0.4452471 0.3595071 -0.8200669
vn 0.4452471 0.3595071 -0.8200669
vn 0.4452471 0.3595071 -0.8200669
vn 0.4452471 0.3595071 -0.8200669
vn 0.4452471 0.3595071 -0.8200669
vn 0.4452471 0.3595071 -0.8200669
vn 0.4452471 0.3595071 -0.8200669
vn 0.4452471 0.3595071 -0.8200669
vn 0.4452471 0.3595071 -0.8200669
vn 0.4452471 0.3595071 -0.8200669
vn 0.4452471 0.3595071 -0.8200669
vn 0.4452471 0.3595071 -0.8200669
vn 0.4452471 0.3595071 -0.8200669
vn 0.4452471 0.3595071 -0.8200669
vn -0.5069674 0.3376836 -0.7930661
vn -0.5069674 0.3376836 -0.7930661
vn -0.5069674 0.3376836 -0.7930661
vn -0.5069674 0.3376836 -0.7930661
vn -0.5069674 0.3376836 -0.7930661
vn -0.5069674 0.3376836 -0.7930661
vn -0.5069674 0.3376836 -0.7930661
vn -0.5069674 0.3376836 -0.7930661
vn -0.5069674 0.3376836 -0.7930661
vn 0.1768116 0.7217201 0.6692218
vn 0.1768116 0.7217201 0.6692218
vn 0.1768116 0.7217201 0.6692218
vn 0.1768116 0.7217201 0.6692218
vn 0.1768116 0.7217201 0.6692218
vn 0.1768116 0.7217201 0.6692218
vn 0.1768116 0.7217201 0.6692218
vn 0.1768116 0.7217201 0.6692218
vn 0.1768116 0.7217201 0.6692218
vn 0.7695443 0.5828198 -0.2610035
vn 0.7695443 0.5828198 -0.2610035
vn 0.7695443 0.5828198 -0.2610035
vn 0.7695443 0.5828198 -0.2610035
vn 0.7695443 0.5828198 -0.2610035
vn 0.7695443 0.5828198 -0.2610035
vn -0.501407 -0.576741 0.6449503
vn -0.501407 -0.576741 0.6449503
vn -0.501407 -0.576741 0.6449503
vn -0.501407 -0.576741 0.6449503
vn -0.501407 -0.576741 0.6449503
vn -0.501407 -0.576741 0.6449503
vn -0.501407 -0.576741 0.6449503
vn -0.501407 -0.576741 0.6449503
vn -0.501407 -0.576741 0.6449503
vn -0.4868501 0.8722445 -0.04654765
vn -0.4868501 0.8722445 -0.04654765
vn -0.4868501 0.8722445 -0.04654765
vn -0.4868501 0.8722445 -0.04654765
vn -0.4868501 0.8722445 -0.04654765
vn -0.4868501 0.8722445 -0.04654765
vn -0.4868501 0.8722445 -0.04654765
vn -0.4868501 0.8722445 -0.04654765
vn -0.4868501 0.8722445 -0.04654765
vn -0.4868501 0.8722445 -0.04654765
vn -0.4868501 0.8722445 -0.04654765
vn -0.4868501 0.8722445 -0.04654765
vn -0.9760913 -0.1464975 -0.160575
vn -0.9760913 -0.1464975 -0.160575
vn -0.9760913 -0.1464975 -0.160575
vn -0.9760913 -0.1464975 -0.160575
vn -0.9760913 -0.1464975 -0.160575
vn -0.9760913 -0.1464975 -0.160575
vn -0.9760913 -0.1464975 -0.160575
vn -0.9760913 -0.1464975 -0.160575
vn -0.9760913 -0.1464975 -0.160575
vn 0.1036535 0.3832172 0.9178239
vn 0.1036535 0.3832172 0.9178239
vn 0.1036535 0.3832172 0.9178239

vt 0.5760925 0.5126266
vt 0.5741088 0.5139118
vt 0.5132925 0.4358425
vt 0.5132925 0.4358425
vt 0.5741088 0.5139118
vt 0.4994901 0.4443409
vt 0.5659782 0.5708352
vt 0.4364805 0.4486251
vt 0.5893082 0.4120422
vt 0.5893082 0.4120422
vt 0.4364805 0.4486251
vt 0.4335514 0.4035065
vt 0.4294163 0.451773
vt 0.4449184 0.5233369
vt 0.4383757 0.5244918
vt 0.5162541 0.3253067
vt 0.5942723 0.479769
vt 0.4417751 0.3189085
vt 0.4417751 0.3189085
vt 0.5942723 0.479769
vt 0.4100072 0.338732
vt 0.4100072 0.338732
vt 0.5942723 0.479769
vt 0.4224452 0.4519127
vt 0.4224452 0.4519127
vt 0.5942723 0.479769
vt 0.4367831 0.5239796
vt 0.4367831 0.5239796
vt 0.5942723 0.479769
vt 0.5195045 0.5149084
vt 0.4962676 0.3215395
vt 0.5143542 0.3250879
vt 0.4939114 0.3221588
vt 0.4939114 0.3221588
vt 0.5143542 0.3250879
vt 0.3894805 0.4556474
vt 0.3894805 0.4556474
vt 0.5143542 0.3250879
vt 0.4286805 0.5245011
vt 0.4286805 0.5245011
vt 0.5143542 0.3250879
vt 0.4378402 0.5241286
vt 0.4378402 0.5241286
vt 0.5143542 0.3250879
vt 0.5344152 0.3370509
vt 0.5344152 0.3370509
vt 0.5143542 0.3250879
vt 0.5304012 0.3322312
vt 0.472621 0.3851824
vt 0.6369089 0.4679038
vt 0.4382174 0.4306782
vt 0.4382174 0.4306782
vt 0.6369089 0.4679038
vt 0.5041654 0.5589979
vt 0.5041654 0.5589979
vt 0.6369089 0.4679038
vt 0.5237328 0.5665883
vt 0.5237328 0.5665883
vt 0.6369089 0.4679038
vt 0.6368995 0.4879555
vt 0.5524924 0.5141819
vt 0.54276 0.5456425
vt 0.5515518 0.4910941
vt 0.5515518 0.4910941
vt 0.54276 0.5456425
vt 0.5041282 0.432811
vt 0.5041282 0.432811
vt 0.54276 0.5456425
vt 0.464388 0.4746373
vt 0.464388 0.4746373
vt 0.54276 0.5456425
vt 0.5266106 0.5539873
vt 0.6097138 0.4841649
vt 0.5759063 0.5315514
vt 0.605588 0.4070269
vt 0.605588 0.4070269
vt 0.5759063 0.5315514
vt 0.5373769 0.3169154
vt 0.5373769 0.3169154
vt 0.5759063 0.5315514
vt 0.5199236 0.3118815
vt 0.5199236 0.3118815
vt 0.5759063 0.5315514
vt 0.4582132 0.3274162
vt 0.4582132 0.3274162
vt 0.5759063 0.5315514
vt 0.4304827 0.5172367
vt 0.4304827 0.5172367
vt 0.5759063 0.5315514
vt 0.4329786 0.5243614
vt 0.6214393 0.4483271
vt 0.5947286 0.5312347
vt 0.4711169 0.3986635
vt 0.4711169 0.3986635
vt 0.5947286 0.5312347
vt 0.4407413 0.4612913
vt 0.3604228 0.4307294
vt 0.3713707 0.4272742
vt 0.3525204 0.5001653
vt 0.3525204 0.5001653
vt 0.3713707 0.4272742
vt 0.5312021 0.6722857
vt 0.5312021 0.6722857
vt 0.3713707 0.4272742
vt 0.558453 0.6532026
vt 0.558453 0.6532026
vt 0.3713707 0.4272742
vt 0.6113343 0.4050339
vt 0.6113343 0.4050339
vt 0.3713707 0.4272742
vt 0.512119 0.4003958
vt 0.2952944 0.4179096
vt 0.3728049 0.3112994
vt 0.4034459 0.5923211
vt 0.4034459 0.5923211
vt 0.3728049 0.3112994
vt 0.5801997 0.4403967
vt 0.5801997 0.4403967
vt 0.3728049 0.3112994
vt 0.3873245 0.3103588
vt 0.3913758 0.3568092
vt 0.4244383 0.3575543
vt 0.3913199 0.3649724
vt 0.3913199 0.3649724
vt 0.4244383 0.3575543
vt 0.4185196 0.400298
vt 0.4185196 0.400298
vt 0.4244383 0.3575543
vt 0.4538825 0.3654381
vt 0.5808424 0.4469301
vt 0.584279 0.4529744
vt 0.5048825 0.4835409
vt 0.5048825 0.4835409
vt 0.584279 0.4529744
vt 0.563743 0.4851708
vt 0.6145661 0.3176884
vt 0.6317958 0.5314862
vt 0.4831684 0.3384153
vt 0.4831684 0.3384153
vt 0.6317958 0.5314862
vt 0.4339659 0.4603134
vt 0.4339659 0.4603134
vt 0.6317958 0.5314862
vt 0.6208247 0.5430627
vt 0.4806445 0.3078069
vt 0.5074344 0.3273603
vt 0.3767398 0.4831777
vt 0.3767398 0.4831777
vt 0.5074344 0.3273603
vt 0.510098 0.5315327
vt 0.510098 0.5315327
vt 0.5074344 0.3273603
vt 0.5430208 0.5087429
vt 0.5430208 0.5087429
vt 0.5074344 0.3273603
vt 0.5294977 0.4374863
vt 0.4933526 0.3968055
vt 0.5340613 0.4629211
vt 0.4831404 0.403744
vt 0.4831404 0.403744
vt 0.5340613 0.4629211
vt 0.4563179 0.4865771
vt 0.4563179 0.4865771
vt 0.5340613 0.4629211
vt 0.4635777 0.5035181
vt 0.5140655 0.5254325
vt 0.4982048 0.5317749
vt 0.5091294 0.501227

usemtl Material0
usemap Material0

usemtl Material1
usemap Material1
f 1/1/1 2/2/2 3/3/3
f 4/4/4 5/5/5 6/6/6
f 7/7/7 8/8/8 9/9/9
f 10/10/10 11/11/11 12/12/12
f 13/13/13 14/14/14 15/15/15
f 16/16/16 17/17/17 18/18/18
f 19/19/19 20/20/20 21/21/21
f 22/22/22 23/23/23 24/24/24
f 25/25/25 26/26/26 27/27/27
f 28/28/28 29/29/29 30/30/30
f 31/31/31 32/32/32 33/33/33
f 34/34/34 35/35/35 36/36/36
f 37/37/37 38/38/38 39/39/39
f 40/40/40 41/41/41 42/42/42
f 43/43/43 44/44/44 45/45/45
f 46/46/46 47/47/47 48/48/48
f 49/49/49 50/50/50 51/51/51
f 52/52/52 53/53/53 54/54/54
f 55/55/55 56/56/56 57/57/57
f 58/58/58 59/59/59 60/60/60
f 61/61/61 62/62/62 63/63/63
f 64/64/64 65/65/65 66/66/66
f 67/67/67 68/68/68 69/69/69
f 70/70/70 71/71/71 72/72/72
f 73/73/73 74/74/74 75/75/75
f 76/76/76 77/77/77 78/78/78
f 79/79/79 80/80/80 81/81/81
f 82/82/82 83/83/83 84/84/84
f 85/85/85 86/86/86 87/87/87
f 88/88/88 89/89/89 90/90/90
f 91/91/91 92/92/92 93/93/93
f 94/94/94 95/95/95 96/96/96
f 97/97/97 98/98/98 99/99/99
f 100/100/100 101/101/101 102/102/102
f 103/103/103 104/104/104 105/105/105
f 106/106/106 107/107/107 108/108/108
f 109/109/109 110/110/110 111/111/111
f 112/112/112 113/113/113 114/114/114
f 115/115/115 116/116/116 117/117/117
f 118/118/118 119/119/119 120/120/120
f 121/121/121 122/122/122 123/123/123
f 124/124/124 125/125/125 126/126/126
f 127/127/127 128/128/128 129/129/129
f 130/130/130 131/131/131 132/132/132
f 133/133/133 134/134/134 135/135/135
f 136/136/136 137/137/137 138/138/138
f 139/139/139 140/140/140 141/141/141
f 142/142/142 143/143/143 144/144/144
f 145/145/145 146/146/146 147/147/147
f 148/148/148 149/149/149 150/150/150
f 151/151/151 152/152/152 153/153/153
f 154/154/154 155/155/155 156/156/156
f 157/157/157 158/158/158 159/159/159
f 160/160/160 161/161/161 162/162/162
f 163/163/163 164/164/164 165/165/165
f 166/166/166 167/167/167 168/168/168
