g  Instance
v -2.379938 -44.68227 -6.076696
v -2.018008 -46.07951 -6.502384
v -0.853489 -45.48796 -4.616807
v -0.853489 -45.48796 -4.616807
v -2.018008 -46.07951 -6.502384
v -1.425489 -46.72117 -6.146169
v -1.425489 -46.72117 -6.146169
v -2.018008 -46.07951 -6.502384
v -1.483471 -46.68811 -6.200052
v -0.2524603 -45.49873 -5.956593
v -0.9086527 -45.42194 -7.117515
v -0.07621059 -44.93412 -5.068974
v -0.07621059 -44.93412 -5.068974
v -0.9086527 -45.42194 -7.117515
v -0.1938586 -44.66363 -5.024535
v -0.1938586 -44.66363 -5.024535
v -0.9086527 -45.42194 -7.117515
v -1.128676 -43.96592 -6.099563
v -1.128676 -43.96592 -6.099563
v -0.9086527 -45.42194 -7.117515
v -1.015425 -45.28737 -7.186311
v -1.382728 -46.70606 -6.205671
v -0.903232 -46.3727 -6.503341
v -1.425489 -46.72117 -6.146169
v -1.425489 -46.72117 -6.146169
v -0.903232 -46.3727 -6.503341
v -0.853489 -45.48796 -4.616807
v -0.853489 -45.48796 -4.616807
v -0.903232 -46.3727 -6.503341
v -0.2220499 -44.9497 -4.784915
v -0.2220499 -44.9497 -4.784915
v -0.903232 -46.3727 -6.503341
v -0.07621059 -44.93412 -5.068974
v -0.07621059 -44.93412 -5.068974
v -0.903232 -46.3727 -6.503341
v -0.2524603 -45.49873 -5.956593
v -0.2524603 -45.49873 -5.956593
v -0.903232 -46.3727 -6.503341
v -0.6114464 -46.07555 -6.471792
v -1.128676 -43.96592 -6.099563
v -2.014971 -43.89777 -6.593192
v -0.1938586 -44.66363 -5.024535
v -0.1938586 -44.66363 -5.024535
v -2.014971 -43.89777 -6.593192
v -0.2220499 -44.9497 -4.784915
v -0.2220499 -44.9497 -4.784915
v -2.014971 -43.89777 -6.593192
v -0.853489 -45.48796 -4.616807
v -0.853489 -45.48796 -4.616807
v -2.014971 -43.89777 -6.593192
v -2.379938 -44.68227 -6.076696
v -2.379938 -44.68227 -6.076696
v -2.014971 -43.89777 -6.593192
v -2.598625 -44.17242 -6.63523
v -0.7937993 -45.90791 -6.822754
v -0.9086527 -45.42194 -7.117515
v -0.6114464 -46.07555 -6.471792
v -0.6114464 -46.07555 -6.471792
v -0.9086527 -45.42194 -7.117515
v -0.2524603 -45.49873 -5.956593
v -2.294369 -44.61943 -7.399714
v -2.516014 -44.12689 -7.106672
v -1.015425 -45.28737 -7.186311
v -1.015425 -45.28737 -7.186311
v -2.516014 -44.12689 -7.106672
v -1.128676 -43.96592 -6.099563
v -1.128676 -43.96592 -6.099563
v -2.516014 -44.12689 -7.106672
v -2.014971 -43.89777 -6.593192
v -2.246084 -45.45788 -6.865548
v -2.612607 -44.17724 -6.762213
v -2.294369 -44.61943 -7.399714
v -2.294369 -44.61943 -7.399714
v -2.612607 -44.17724 -6.762213
v -2.516014 -44.12689 -7.106672
v -1.015425 -45.28737 -7.186311
v -0.9086527 -45.42194 -7.117515
v -2.294369 -44.61943 -7.399714
v -2.294369 -44.61943 -7.399714
v -0.9086527 -45.42194 -7.117515
v -2.246084 -45.45788 -6.865548
v -2.246084 -45.45788 -6.865548
v -0.9086527 -45.42194 -7.117515
v -2.018008 -46.07951 -6.502384
v -2.018008 -46.07951 -6.502384
v -0.9086527 -45.42194 -7.117515
v -1.483471 -46.68811 -6.200052
v -1.483471 -46.68811 -6.200052
v -0.9086527 -45.42194 -7.117515
v -1.382728 -46.70606 -6.205671
v -1.382728 -46.70606 -6.205671
v -0.9086527 -45.42194 -7.117515
v -0.903232 -46.3727 -6.503341
v -0.903232 -46.3727 -6.503341
v -0.9086527 -45.42194 -7.117515
v -0.7937993 -45.90791 -6.822754
v -0.2220499 -44.9497 -4.784915
v -0.07621059 -44.93412 -5.068974
v -0.1938586 -44.66363 -5.024535
v -2.379938 -44.68227 -6.076696
v -2.598625 -44.17242 -6.63523
v -2.018008 -46.07951 -6.502384
v -2.018008 -46.07951 -6.502384
v -2.598625 -44.17242 -6.63523
v -2.246084 -45.45788 -6.865548
v -2.246084 -45.45788 -6.865548
v -2.598625 -44.17242 -6.63523
v -2.612607 -44.17724 -6.762213
v -2.612607 -44.17724 -6.762213
v -2.598625 -44.17242 -6.63523
v -2.516014 -44.12689 -7.106672
v -2.516014 -44.12689 -7.106672
v -2.598625 -44.17242 -6.63523
v -2.014971 -43.89777 -6.593192
v -1.425489 -46.72117 -6.146169
v -1.483471 -46.68811 -6.200052
v -1.382728 -46.70606 -6.205671
v -0.6114464 -46.07555 -6.471792
v -0.903232 -46.3727 -6.503341
v -0.7937993 -45.90791 -6.822754

vn -0.7368962 -0.3643568 0.5694103
vn -0.7368962 -0.3643568 0.5694103
vn -0.7368962 -0.3643568 0.5694103
vn -0.7368962 -0.3643568 0.5694103
vn -0.7368962 -0.3643568 0.5694103
vn -0.7368962 -0.3643568 0.5694103
vn -0.7368962 -0.3643568 0.5694103
vn -0.7368962 -0.3643568 0.5694103
vn -0.7368962 -0.3643568 0.5694103
vn 0.8021146 0.4188185 -0.4256797
vn 0.8021146 0.4188185 -0.4256797
vn 0.8021146 0.4188185 -0.4256797
vn 0.8021146 0.4188185 -0.4256797
vn 0.8021146 0.4188185 -0.4256797
vn 0.8021146 0.4188185 -0.4256797
vn 0.8021146 0.4188185 -0.4256797
vn 0.8021146 0.4188185 -0.4256797
vn 0.8021146 0.4188185 -0.4256797
vn 0.8021146 0.4188185 -0.4256797
vn 0.8021146 0.4188185 -0.4256797
vn 0.8021146 0.4188185 -0.4256797
vn 0.6636457 -0.6838408 0.30321
vn 0.6636457 -0.6838408 0.30321
vn 0.6636457 -0.6838408 0.30321
vn 0.6636457 -0.6838408 0.30321
vn 0.6636457 -0.6838408 0.30321
vn 0.6636457 -0.6838408 0.30321
vn 0.6636457 -0.6838408 0.30321
vn 0.6636457 -0.6838408 0.30321
vn 0.6636457 -0.6838408 0.30321
vn 0.6636457 -0.6838408 0.30321
vn 0.6636457 -0.6838408 0.30321
vn 0.6636457 -0.6838408 0.30321
vn 0.6636457 -0.6838408 0.30321
vn 0.6636457 -0.6838408 0.30321
vn 0.6636457 -0.6838408 0.30321
vn 0.6636457 -0.6838408 0.30321
vn 0.6636457 -0.6838408 0.30321
vn 0.6636457 -0.6838408 0.30321
vn -0.3436332 0.6227051 0.7029613
vn -0.3436332 0.6227051 0.7029613
vn -0.3436332 0.6227051 0.7029613
vn -0.3436332 0.6227051 0.7029613
vn -0.3436332 0.6227051 0.7029613
vn -0.3436332 0.6227051 0.7029613
vn -0.3436332 0.6227051 0.7029613
vn -0.3436332 0.6227051 0.7029613
vn -0.3436332 0.6227051 0.7029613
vn -0.3436332 0.6227051 0.7029613
vn -0.3436332 0.6227051 0.7029613
vn -0.3436332 0.6227051 0.7029613
vn -0.3436332 0.6227051 0.7029613
vn -0.3436332 0.6227051 0.7029613
vn -0.3436332 0.6227051 0.7029613
vn 0.86382 -0.09584294 -0.4946001
vn 0.86382 -0.09584294 -0.4946001
vn 0.86382 -0.09584294 -0.4946001
vn 0.86382 -0.09584294 -0.4946001
vn 0.86382 -0.09584294 -0.4946001
vn 0.86382 -0.09584294 -0.4946001
vn 0.4250785 0.5963906 -0.6809013
vn 0.4250785 0.5963906 -0.6809013
vn 0.4250785 0.5963906 -0.6809013
vn 0.4250785 0.5963906 -0.6809013
vn 0.4250785 0.5963906 -0.6809013
vn 0.4250785 0.5963906 -0.6809013
vn 0.4250785 0.5963906 -0.6809013
vn 0.4250785 0.5963906 -0.6809013
vn 0.4250785 0.5963906 -0.6809013
vn -0.9247783 -0.2409026 -0.2945356
vn -0.9247783 -0.2409026 -0.2945356
vn -0.9247783 -0.2409026 -0.2945356
vn -0.9247783 -0.2409026 -0.2945356
vn -0.9247783 -0.2409026 -0.2945356
vn -0.9247783 -0.2409026 -0.2945356
vn -0.1421258 -0.5376766 -0.8310862
vn -0.1421258 -0.5376766 -0.8310862
vn -0.1421258 -0.5376766 -0.8310862
vn -0.1421258 -0.5376766 -0.8310862
vn -0.1421258 -0.5376766 -0.8310862
vn -0.1421258 -0.5376766 -0.8310862
vn -0.1421258 -0.5376766 -0.8310862
vn -0.1421258 -0.5376766 -0.8310862
vn -0.1421258 -0.5376766 -0.8310862
vn -0.1421258 -0.5376766 -0.8310862
vn -0.1421258 -0.5376766 -0.8310862
vn -0.1421258 -0.5376766 -0.8310862
vn -0.1421258 -0.5376766 -0.8310862
vn -0.1421258 -0.5376766 -0.8310862
vn -0.1421258 -0.5376766 -0.8310862
vn -0.1421258 -0.5376766 -0.8310862
vn -0.1421258 -0.5376766 -0.8310862
vn -0.1421258 -0.5376766 -0.8310862
vn -0.1421258 -0.5376766 -0.8310862
vn -0.1421258 -0.5376766 -0.8310862
vn -0.1421258 -0.5376766 -0.8310862
vn 0.8438667 0.2932183 0.4493464
vn 0.8438667 0.2932183 0.4493464
vn 0.8438667 0.2932183 0.4493464
vn -0.9524486 -0.2819204 0.1155966
vn -0.9524486 -0.2819204 0.1155966
vn -0.9524486 -0.2819204 0.1155966
vn -0.9524486 -0.2819204 0.1155966
vn -0.9524486 -0.2819204 0.1155966
vn -0.9524486 -0.2819204 0.1155966
vn -0.9524486 -0.2819204 0.1155966
vn -0.9524486 -0.2819204 0.1155966
vn -0.9524486 -0.2819204 0.1155966
vn -0.4264952 0.9044019 0.0126131
vn -0.4264952 0.9044019 0.0126131
vn -0.4264952 0.9044019 0.0126131
vn -0.4264952 0.9044019 0.0126131
vn -0.4264952 0.9044019 0.0126131
vn -0.4264952 0.9044019 0.0126131
vn -0.1829808 -0.913421 -0.3635658
vn -0.1829808 -0.913421 -0.3635658
vn -0.1829808 -0.913421 -0.3635658
vn 0.6127788 -0.5405027 -0.5765058
vn 0.6127788 -0.5405027 -0.5765058
vn 0.6127788 -0.5405027 -0.5765058

vt 0.6036974 0.5407623
vt 0.452872 0.5960278
vt 0.4543808 0.3511793
vt 0.4543808 0.3511793
vt 0.452872 0.5960278
vt 0.3634403 0.5497776
vt 0.3634403 0.5497776
vt 0.452872 0.5960278
vt 0.369345 0.5567719
vt 0.5692193 0.4462688
vt 0.5331672 0.5706862
vt 0.5285944 0.351142
vt 0.5285944 0.351142
vt 0.5331672 0.5706862
vt 0.5000582 0.3463829
vt 0.5000582 0.3463829
vt 0.5331672 0.5706862
vt 0.3981187 0.4615986
vt 0.3981187 0.4615986
vt 0.5331672 0.5706862
vt 0.5168036 0.5780624
vt 0.6299797 0.5122541
vt 0.5769121 0.5410231
vt 0.6337796 0.5064984
vt 0.6337796 0.5064984
vt 0.5769121 0.5410231
vt 0.5168874 0.3587138
vt 0.5168874 0.3587138
vt 0.5769121 0.5410231
vt 0.4406342 0.374961
vt 0.4406342 0.374961
vt 0.5769121 0.5410231
vt 0.4299983 0.4024121
vt 0.4299983 0.4024121
vt 0.5769121 0.5410231
vt 0.4778551 0.4881883
vt 0.4778551 0.4881883
vt 0.5769121 0.5410231
vt 0.538569 0.5379776
vt 0.5518405 0.5682554
vt 0.4601597 0.6538825
vt 0.6112319 0.3817644
vt 0.6112319 0.3817644
vt 0.4601597 0.6538825
vt 0.5911337 0.3401942
vt 0.5911337 0.3401942
vt 0.4601597 0.6538825
vt 0.490838 0.3110247
vt 0.490838 0.3110247
vt 0.4601597 0.6538825
vt 0.3739738 0.5642785
vt 0.3739738 0.5642785
vt 0.4601597 0.6538825
vt 0.3807399 0.6611748
vt 0.5808144 0.5269412
vt 0.5333256 0.5611772
vt 0.5956041 0.4861673
vt 0.5956041 0.4861673
vt 0.5333256 0.5611772
vt 0.533726 0.4263149
vt 0.3410091 0.6230087
vt 0.2851289 0.5750634
vt 0.5122494 0.5880928
vt 0.5122494 0.5880928
vt 0.2851289 0.5750634
vt 0.4092994 0.4103006
vt 0.4092994 0.4103006
vt 0.2851289 0.5750634
vt 0.3180842 0.4910568
vt 0.4954714 0.5098046
vt 0.6177512 0.4998766
vt 0.5710913 0.5611213
vt 0.5710913 0.5611213
vt 0.6177512 0.4998766
vt 0.6199958 0.532967
vt 0.4950057 0.546341
vt 0.4732915 0.5268202
vt 0.7170411 0.6068872
vt 0.7170411 0.6068872
vt 0.4732915 0.5268202
vt 0.6758667 0.45534
vt 0.6758667 0.45534
vt 0.4732915 0.5268202
vt 0.6160097 0.3523015
vt 0.6160097 0.3523015
vt 0.4732915 0.5268202
vt 0.5099304 0.2665254
vt 0.5099304 0.2665254
vt 0.4732915 0.5268202
vt 0.4938415 0.2681226
vt 0.4938415 0.2681226
vt 0.4732915 0.5268202
vt 0.4341335 0.3525763
vt 0.4341335 0.3525763
vt 0.4732915 0.5268202
vt 0.4361778 0.4431954
vt 0.5127337 0.3966379
vt 0.5159934 0.4278702
vt 0.4871033 0.4229807
vt 0.5685115 0.4883653
vt 0.6171831 0.5380428
vt 0.4410673 0.5262241
vt 0.4410673 0.5262241
vt 0.6171831 0.5380428
vt 0.4994482 0.5585229
vt 0.4994482 0.5585229
vt 0.6171831 0.5380428
vt 0.6171272 0.5493399
vt 0.40529 0.5377634
vt 0.4065799 0.5266153
vt 0.4148408 0.5679946
vt 0.4148408 0.5679946
vt 0.4065799 0.5266153
vt 0.4631866 0.5229272
vt 0.5095578 0.4240331
vt 0.5155184 0.4294814
vt 0.5058883 0.4300496
vt 0.5530047 0.4521176
vt 0.5976716 0.4562621
vt 0.5524645 0.4982467

usemtl Material0
usemap Material0

usemtl Material1
usemap Material1
f 1/1/1 2/2/2 3/3/3
f 4/4/4 5/5/5 6/6/6
f 7/7/7 8/8/8 9/9/9
f 10/10/10 11/11/11 12/12/12
f 13/13/13 14/14/14 15/15/15
f 16/16/16 17/17/17 18/18/18
f 19/19/19 20/20/20 21/21/21
f 22/22/22 23/23/23 24/24/24
f 25/25/25 26/26/26 27/27/27
f 28/28/28 29/29/29 30/30/30
f 31/31/31 32/32/32 33/33/33
f 34/34/34 35/35/35 36/36/36
f 37/37/37 38/38/38 39/39/39
f 40/40/40 41/41/41 42/42/42
f 43/43/43 44/44/44 45/45/45
f 46/46/46 47/47/47 48/48/48
f 49/49/49 50/50/50 51/51/51
f 52/52/52 53/53/53 54/54/54
f 55/55/55 56/56/56 57/57/57
f 58/58/58 59/59/59 60/60/60
f 61/61/61 62/62/62 63/63/63
f 64/64/64 65/65/65 66/66/66
f 67/67/67 68/68/68 69/69/69
f 70/70/70 71/71/71 72/72/72
f 73/73/73 74/74/74 75/75/75
f 76/76/76 77/77/77 78/78/78
f 79/79/79 80/80/80 81/81/81
f 82/82/82 83/83/83 84/84/84
f 85/85/85 86/86/86 87/87/87
f 88/88/88 89/89/89 90/90/90
f 91/91/91 92/92/92 93/93/93
f 94/94/94 95/95/95 96/96/96
f 97/97/97 98/98/98 99/99/99
f 100/100/100 101/101/101 102/102/102
f 103/103/103 104/104/104 105/105/105
f 106/106/106 107/107/107 108/108/108
f 109/109/109 110/110/110 111/111/111
f 112/112/112 113/113/113 114/114/114
f 115/115/115 116/116/116 117/117/117
f 118/118/118 119/119/119 120/120/120
