g  Instance
v 0.6154512 -49.48614 -6.163074
v -0.2111394 -49.84675 -5.585935
v 2.018225 -49.40489 -5.665886
v 2.018225 -49.40489 -5.665886
v -0.2111394 -49.84675 -5.585935
v 2.564662 -49.43946 -5.287952
v 2.564662 -49.43946 -5.287952
v -0.2111394 -49.84675 -5.585935
v 0.7935247 -50.08485 -4.405467
v 0.7935247 -50.08485 -4.405467
v -0.2111394 -49.84675 -5.585935
v 0.7511533 -50.09542 -4.397915
v 2.564662 -49.43946 -5.287952
v 0.7935247 -50.08485 -4.405467
v 2.642946 -49.47335 -5.300214
v 2.642946 -49.47335 -5.300214
v 0.7935247 -50.08485 -4.405467
v 1.746793 -50.45406 -4.573421
v 1.104755 -51.87358 -4.455
v 1.746793 -50.45406 -4.573421
v 0.7511533 -50.09542 -4.397915
v 0.7511533 -50.09542 -4.397915
v 1.746793 -50.45406 -4.573421
v 0.7935247 -50.08485 -4.405467
v 3.190225 -50.18749 -6.480932
v 2.721453 -50.34412 -7.232619
v 2.642946 -49.47335 -5.300214
v 2.642946 -49.47335 -5.300214
v 2.721453 -50.34412 -7.232619
v 2.564662 -49.43946 -5.287952
v 2.564662 -49.43946 -5.287952
v 2.721453 -50.34412 -7.232619
v 2.018225 -49.40489 -5.665886
v 2.018225 -49.40489 -5.665886
v 2.721453 -50.34412 -7.232619
v 1.194385 -49.54782 -6.683282
v 1.194385 -49.54782 -6.683282
v 2.721453 -50.34412 -7.232619
v 2.117758 -50.2022 -7.412135
v 3.342444 -50.65751 -6.96164
v 3.310524 -50.69576 -7.0512
v 3.190225 -50.18749 -6.480932
v 3.190225 -50.18749 -6.480932
v 3.310524 -50.69576 -7.0512
v 2.721453 -50.34412 -7.232619
v 0.6154512 -49.48614 -6.163074
v 2.018225 -49.40489 -5.665886
v 0.6496781 -49.51018 -6.349191
v 0.6496781 -49.51018 -6.349191
v 2.018225 -49.40489 -5.665886
v 1.194385 -49.54782 -6.683282
v 2.211195 -52.7619 -6.530357
v 0.1910014 -51.73331 -6.68832
v 2.837504 -52.26236 -7.142629
v 2.837504 -52.26236 -7.142629
v 0.1910014 -51.73331 -6.68832
v 1.717498 -51.36528 -7.494269
v 1.092489 -51.99855 -4.507648
v 2.193256 -52.76289 -6.505346
v 1.104755 -51.87358 -4.455
v 1.104755 -51.87358 -4.455
v 2.193256 -52.76289 -6.505346
v 1.746793 -50.45406 -4.573421
v 1.746793 -50.45406 -4.573421
v 2.193256 -52.76289 -6.505346
v 2.642946 -49.47335 -5.300214
v 2.642946 -49.47335 -5.300214
v 2.193256 -52.76289 -6.505346
v 3.190225 -50.18749 -6.480932
v 3.190225 -50.18749 -6.480932
v 2.193256 -52.76289 -6.505346
v 3.342444 -50.65751 -6.96164
v 3.342444 -50.65751 -6.96164
v 2.193256 -52.76289 -6.505346
v 3.351896 -50.76791 -7.037064
v 3.351896 -50.76791 -7.037064
v 2.193256 -52.76289 -6.505346
v 2.837504 -52.26236 -7.142629
v 2.837504 -52.26236 -7.142629
v 2.193256 -52.76289 -6.505346
v 2.211195 -52.7619 -6.530357
v 3.342444 -50.65751 -6.96164
v 3.351896 -50.76791 -7.037064
v 3.310524 -50.69576 -7.0512
v -0.2397535 -51.72442 -6.172873
v -0.3832973 -50.78487 -6.086007
v 0.1647067 -51.72733 -6.671046
v 2.837504 -52.26236 -7.142629
v 1.717498 -51.36528 -7.494269
v 3.351896 -50.76791 -7.037064
v 3.351896 -50.76791 -7.037064
v 1.717498 -51.36528 -7.494269
v 3.310524 -50.69576 -7.0512
v 3.310524 -50.69576 -7.0512
v 1.717498 -51.36528 -7.494269
v 2.721453 -50.34412 -7.232619
v 2.721453 -50.34412 -7.232619
v 1.717498 -51.36528 -7.494269
v 2.117758 -50.2022 -7.412135
v -0.2397535 -51.72442 -6.172873
v 0.1647067 -51.72733 -6.671046
v 0.291146 -52.19284 -5.614408
v 0.291146 -52.19284 -5.614408
v 0.1647067 -51.72733 -6.671046
v 2.193256 -52.76289 -6.505346
v 2.193256 -52.76289 -6.505346
v 0.1647067 -51.72733 -6.671046
v 2.211195 -52.7619 -6.530357
v 2.211195 -52.7619 -6.530357
v 0.1647067 -51.72733 -6.671046
v 0.1910014 -51.73331 -6.68832
v -0.2111394 -49.84675 -5.585935
v -0.3902736 -50.02378 -5.872438
v 0.7511533 -50.09542 -4.397915
v 0.7511533 -50.09542 -4.397915
v -0.3902736 -50.02378 -5.872438
v 1.104755 -51.87358 -4.455
v 1.104755 -51.87358 -4.455
v -0.3902736 -50.02378 -5.872438
v 1.092489 -51.99855 -4.507648
v 1.092489 -51.99855 -4.507648
v -0.3902736 -50.02378 -5.872438
v 0.291146 -52.19284 -5.614408
v 0.291146 -52.19284 -5.614408
v -0.3902736 -50.02378 -5.872438
v -0.2397535 -51.72442 -6.172873
v -0.2397535 -51.72442 -6.172873
v -0.3902736 -50.02378 -5.872438
v -0.3832973 -50.78487 -6.086007
v 0.6154512 -49.48614 -6.163074
v 0.6496781 -49.51018 -6.349191
v -0.2111394 -49.84675 -5.585935
v -0.2111394 -49.84675 -5.585935
v 0.6496781 -49.51018 -6.349191
v -0.3902736 -50.02378 -5.872438
v 2.193256 -52.76289 -6.505346
v 1.092489 -51.99855 -4.507648
v 0.291146 -52.19284 -5.614408
v 1.194385 -49.54782 -6.683282
v 2.117758 -50.2022 -7.412135
v 0.6496781 -49.51018 -6.349191
v 0.6496781 -49.51018 -6.349191
v 2.117758 -50.2022 -7.412135
v -0.3902736 -50.02378 -5.872438
v -0.3902736 -50.02378 -5.872438
v 2.117758 -50.2022 -7.412135
v -0.3832973 -50.78487 -6.086007
v -0.3832973 -50.78487 -6.086007
v 2.117758 -50.2022 -7.412135
v 0.1647067 -51.72733 -6.671046
v 0.1647067 -51.72733 -6.671046
v 2.117758 -50.2022 -7.412135
v 0.1910014 -51.73331 -6.68832
v 0.1910014 -51.73331 -6.68832
v 2.117758 -50.2022 -7.412135
v 1.717498 -51.36528 -7.494269

vn -0.1717969 0.9270711 0.3332043
vn -0.1717969 0.9270711 0.3332043
vn -0.1717969 0.9270711 0.3332043
vn -0.1717969 0.9270711 0.3332043
vn -0.1717969 0.9270711 0.3332043
vn -0.1717969 0.9270711 0.3332043
vn -0.1717969 0.9270711 0.3332043
vn -0.1717969 0.9270711 0.3332043
vn -0.1717969 0.9270711 0.3332043
vn -0.1717969 0.9270711 0.3332043
vn -0.1717969 0.9270711 0.3332043
vn -0.1717969 0.9270711 0.3332043
vn 0.2999949 0.3756948 0.8768447
vn 0.2999949 0.3756948 0.8768447
vn 0.2999949 0.3756948 0.8768447
vn 0.2999949 0.3756948 0.8768447
vn 0.2999949 0.3756948 0.8768447
vn 0.2999949 0.3756948 0.8768447
vn 0.1746898 0.003129234 0.9846186
vn 0.1746898 0.003129234 0.9846186
vn 0.1746898 0.003129234 0.9846186
vn 0.1746898 0.003129234 0.9846186
vn 0.1746898 0.003129234 0.9846186
vn 0.1746898 0.003129234 0.9846186
vn 0.3170673 0.8694295 -0.3788941
vn 0.3170673 0.8694295 -0.3788941
vn 0.3170673 0.8694295 -0.3788941
vn 0.3170673 0.8694295 -0.3788941
vn 0.3170673 0.8694295 -0.3788941
vn 0.3170673 0.8694295 -0.3788941
vn 0.3170673 0.8694295 -0.3788941
vn 0.3170673 0.8694295 -0.3788941
vn 0.3170673 0.8694295 -0.3788941
vn 0.3170673 0.8694295 -0.3788941
vn 0.3170673 0.8694295 -0.3788941
vn 0.3170673 0.8694295 -0.3788941
vn 0.3170673 0.8694295 -0.3788941
vn 0.3170673 0.8694295 -0.3788941
vn 0.3170673 0.8694295 -0.3788941
vn 0.5534328 0.6763517 -0.4860664
vn 0.5534328 0.6763517 -0.4860664
vn 0.5534328 0.6763517 -0.4860664
vn 0.5534328 0.6763517 -0.4860664
vn 0.5534328 0.6763517 -0.4860664
vn 0.5534328 0.6763517 -0.4860664
vn -0.01130157 0.9914316 -0.130137
vn -0.01130157 0.9914316 -0.130137
vn -0.01130157 0.9914316 -0.130137
vn -0.01130157 0.9914316 -0.130137
vn -0.01130157 0.9914316 -0.130137
vn -0.01130157 0.9914316 -0.130137
vn -0.2508741 -0.6083601 -0.7529676
vn -0.2508741 -0.6083601 -0.7529676
vn -0.2508741 -0.6083601 -0.7529676
vn -0.2508741 -0.6083601 -0.7529676
vn -0.2508741 -0.6083601 -0.7529676
vn -0.2508741 -0.6083601 -0.7529676
vn 0.7791173 -0.3067805 0.5466828
vn 0.7791173 -0.3067805 0.5466828
vn 0.7791173 -0.3067805 0.5466828
vn 0.7791173 -0.3067805 0.5466828
vn 0.7791173 -0.3067805 0.5466828
vn 0.7791173 -0.3067805 0.5466828
vn 0.7791173 -0.3067805 0.5466828
vn 0.7791173 -0.3067805 0.5466828
vn 0.7791173 -0.3067805 0.5466828
vn 0.7791173 -0.3067805 0.5466828
vn 0.7791173 -0.3067805 0.5466828
vn 0.7791173 -0.3067805 0.5466828
vn 0.7791173 -0.3067805 0.5466828
vn 0.7791173 -0.3067805 0.5466828
vn 0.7791173 -0.3067805 0.5466828
vn 0.7791173 -0.3067805 0.5466828
vn 0.7791173 -0.3067805 0.5466828
vn 0.7791173 -0.3067805 0.5466828
vn 0.7791173 -0.3067805 0.5466828
vn 0.7791173 -0.3067805 0.5466828
vn 0.7791173 -0.3067805 0.5466828
vn 0.7791173 -0.3067805 0.5466828
vn 0.7791173 -0.3067805 0.5466828
vn 0.7791173 -0.3067805 0.5466828
vn 0.8100804 0.3764666 -0.4494916
vn 0.8100804 0.3764666 -0.4494916
vn 0.8100804 0.3764666 -0.4494916
vn -0.7751101 -0.06026506 -0.6289455
vn -0.7751101 -0.06026506 -0.6289455
vn -0.7751101 -0.06026506 -0.6289455
vn 0.2788294 -0.02816904 -0.9599275
vn 0.2788294 -0.02816904 -0.9599275
vn 0.2788294 -0.02816904 -0.9599275
vn 0.2788294 -0.02816904 -0.9599275
vn 0.2788294 -0.02816904 -0.9599275
vn 0.2788294 -0.02816904 -0.9599275
vn 0.2788294 -0.02816904 -0.9599275
vn 0.2788294 -0.02816904 -0.9599275
vn 0.2788294 -0.02816904 -0.9599275
vn 0.2788294 -0.02816904 -0.9599275
vn 0.2788294 -0.02816904 -0.9599275
vn 0.2788294 -0.02816904 -0.9599275
vn -0.4084425 -0.852342 -0.3266313
vn -0.4084425 -0.852342 -0.3266313
vn -0.4084425 -0.852342 -0.3266313
vn -0.4084425 -0.852342 -0.3266313
vn -0.4084425 -0.852342 -0.3266313
vn -0.4084425 -0.852342 -0.3266313
vn -0.4084425 -0.852342 -0.3266313
vn -0.4084425 -0.852342 -0.3266313
vn -0.4084425 -0.852342 -0.3266313
vn -0.4084425 -0.852342 -0.3266313
vn -0.4084425 -0.852342 -0.3266313
vn -0.4084425 -0.852342 -0.3266313
vn -0.7826729 -0.1748232 0.5973777
vn -0.7826729 -0.1748232 0.5973777
vn -0.7826729 -0.1748232 0.5973777
vn -0.7826729 -0.1748232 0.5973777
vn -0.7826729 -0.1748232 0.5973777
vn -0.7826729 -0.1748232 0.5973777
vn -0.7826729 -0.1748232 0.5973777
vn -0.7826729 -0.1748232 0.5973777
vn -0.7826729 -0.1748232 0.5973777
vn -0.7826729 -0.1748232 0.5973777
vn -0.7826729 -0.1748232 0.5973777
vn -0.7826729 -0.1748232 0.5973777
vn -0.7826729 -0.1748232 0.5973777
vn -0.7826729 -0.1748232 0.5973777
vn -0.7826729 -0.1748232 0.5973777
vn -0.7826729 -0.1748232 0.5973777
vn -0.7826729 -0.1748232 0.5973777
vn -0.7826729 -0.1748232 0.5973777
vn -0.5064188 0.8384293 -0.2014363
vn -0.5064188 0.8384293 -0.2014363
vn -0.5064188 0.8384293 -0.2014363
vn -0.5064188 0.8384293 -0.2014363
vn -0.5064188 0.8384293 -0.2014363
vn -0.5064188 0.8384293 -0.2014363
vn -0.153981 -0.9481822 0.2779218
vn -0.153981 -0.9481822 0.2779218
vn -0.153981 -0.9481822 0.2779218
vn -0.4971859 0.2301884 -0.8365521
vn -0.4971859 0.2301884 -0.8365521
vn -0.4971859 0.2301884 -0.8365521
vn -0.4971859 0.2301884 -0.8365521
vn -0.4971859 0.2301884 -0.8365521
vn -0.4971859 0.2301884 -0.8365521
vn -0.4971859 0.2301884 -0.8365521
vn -0.4971859 0.2301884 -0.8365521
vn -0.4971859 0.2301884 -0.8365521
vn -0.4971859 0.2301884 -0.8365521
vn -0.4971859 0.2301884 -0.8365521
vn -0.4971859 0.2301884 -0.8365521
vn -0.4971859 0.2301884 -0.8365521
vn -0.4971859 0.2301884 -0.8365521
vn -0.4971859 0.2301884 -0.8365521
vn -0.4971859 0.2301884 -0.8365521
vn -0.4971859 0.2301884 -0.8365521
vn -0.4971859 0.2301884 -0.8365521

vt 0.4651284 0.4833826
vt 0.3833663 0.4264081
vt 0.5948776 0.4343011
vt 0.5948776 0.4343011
vt 0.3833663 0.4264081
vt 0.6442944 0.3969964
vt 0.6442944 0.3969964
vt 0.3833663 0.4264081
vt 0.4712659 0.3098838
vt 0.4712659 0.3098838
vt 0.3833663 0.4264081
vt 0.4672099 0.3091387
vt 0.4721321 0.6985028
vt 0.2930173 0.3634683
vt 0.4871592 0.7031595
vt 0.4871592 0.7031595
vt 0.2930173 0.3634683
vt 0.4710331 0.4272323
vt 0.443065 0.4928077
vt 0.5696104 0.4346876
vt 0.6015274 0.5248085
vt 0.6015274 0.5248085
vt 0.5696104 0.4346876
vt 0.602468 0.5209714
vt 0.6322243 0.3952269
vt 0.5955575 0.4722438
vt 0.5602784 0.2742462
vt 0.5602784 0.2742462
vt 0.5955575 0.4722438
vt 0.5522038 0.2729889
vt 0.5522038 0.2729889
vt 0.5955575 0.4722438
vt 0.5024052 0.3117139
vt 0.5024052 0.3117139
vt 0.5955575 0.4722438
vt 0.4336585 0.4159584
vt 0.4336585 0.4159584
vt 0.5955575 0.4722438
vt 0.537172 0.4906377
vt 0.6199492 0.4114694
vt 0.6199027 0.4217607
vt 0.5782346 0.3562365
vt 0.5782346 0.3562365
vt 0.6199027 0.4217607
vt 0.551766 0.442604
vt 0.4392745 0.4055787
vt 0.5635009 0.3611958
vt 0.442278 0.4221937
vt 0.442278 0.4221937
vt 0.5635009 0.3611958
vt 0.4904468 0.4520152
vt 0.3130178 0.3509604
vt 0.6143519 0.3829751
vt 0.2612028 0.4750285
vt 0.2612028 0.4750285
vt 0.6143519 0.3829751
vt 0.4448811 0.5462944
vt 0.5826957 0.2843
vt 0.6149573 0.5343267
vt 0.5700389 0.2777108
vt 0.5700389 0.2777108
vt 0.6149573 0.5343267
vt 0.4069664 0.292533
vt 0.4069664 0.292533
vt 0.6149573 0.5343267
vt 0.2769191 0.3835014
vt 0.2769191 0.3835014
vt 0.6149573 0.5343267
vt 0.3255535 0.5312813
vt 0.3255535 0.5312813
vt 0.6149573 0.5343267
vt 0.3655405 0.5914456
vt 0.3655405 0.5914456
vt 0.6149573 0.5343267
vt 0.3759435 0.6008801
vt 0.3759435 0.6008801
vt 0.6149573 0.5343267
vt 0.5414189 0.6140864
vt 0.5414189 0.6140864
vt 0.6149573 0.5343267
vt 0.6141749 0.537456
vt 0.531705 0.404191
vt 0.5419311 0.4124846
vt 0.5337912 0.4140399
vt 0.4592377 0.3135719
vt 0.5662204 0.3009569
vt 0.4553726 0.3858949
vt 0.5912454 0.3314349
vt 0.5083657 0.4380032
vt 0.4550234 0.2824885
vt 0.4550234 0.2824885
vt 0.5083657 0.4380032
vt 0.4483969 0.2864234
vt 0.4483969 0.2864234
vt 0.5083657 0.4380032
vt 0.4157954 0.3424713
vt 0.4157954 0.3424713
vt 0.5083657 0.4380032
vt 0.4023516 0.3999162
vt 0.6113343 0.3930522
vt 0.5773498 0.4419893
vt 0.5480872 0.3381918
vt 0.5480872 0.3381918
vt 0.5773498 0.4419893
vt 0.365955 0.4257095
vt 0.365955 0.4257095
vt 0.5773498 0.4419893
vt 0.3644927 0.4281683
vt 0.3644927 0.4281683
vt 0.5773498 0.4419893
vt 0.5749097 0.4436843
vt 0.6854315 0.4531607
vt 0.6708095 0.4922583
vt 0.6359217 0.2910661
vt 0.6359217 0.2910661
vt 0.6708095 0.4922583
vt 0.4376027 0.2988521
vt 0.4376027 0.2988521
vt 0.6708095 0.4922583
vt 0.42455 0.3060374
vt 0.42455 0.3060374
vt 0.6708095 0.4922583
vt 0.4229155 0.4570444
vt 0.4229155 0.4570444
vt 0.6708095 0.4922583
vt 0.4856038 0.5332464
vt 0.4856038 0.5332464
vt 0.6708095 0.4922583
vt 0.5893641 0.5213998
vt 0.5271136 0.3921907
vt 0.5286223 0.4092156
vt 0.4470279 0.3394025
vt 0.4470279 0.3394025
vt 0.5286223 0.4092156
vt 0.4250902 0.3656104
vt 0.3991199 0.4905166
vt 0.5095764 0.3005378
vt 0.578989 0.4057882
vt 0.7374933 0.3607581
vt 0.7045146 0.5738154
vt 0.7063121 0.2630888
vt 0.7063121 0.2630888
vt 0.7045146 0.5738154
vt 0.5616848 0.1237188
vt 0.5616848 0.1237188
vt 0.7045146 0.5738154
vt 0.4515355 0.1861557
vt 0.4515355 0.1861557
vt 0.7045146 0.5738154
vt 0.3514261 0.3571818
vt 0.3514261 0.3571818
vt 0.7045146 0.5738154
vt 0.3523248 0.3622296
vt 0.3523248 0.3622296
vt 0.7045146 0.5738154
vt 0.5085427 0.5978346

usemtl Material0
usemap Material0

usemtl Material1
usemap Material1
f 1/1/1 2/2/2 3/3/3
f 4/4/4 5/5/5 6/6/6
f 7/7/7 8/8/8 9/9/9
f 10/10/10 11/11/11 12/12/12
f 13/13/13 14/14/14 15/15/15
f 16/16/16 17/17/17 18/18/18
f 19/19/19 20/20/20 21/21/21
f 22/22/22 23/23/23 24/24/24
f 25/25/25 26/26/26 27/27/27
f 28/28/28 29/29/29 30/30/30
f 31/31/31 32/32/32 33/33/33
f 34/34/34 35/35/35 36/36/36
f 37/37/37 38/38/38 39/39/39
f 40/40/40 41/41/41 42/42/42
f 43/43/43 44/44/44 45/45/45
f 46/46/46 47/47/47 48/48/48
f 49/49/49 50/50/50 51/51/51
f 52/52/52 53/53/53 54/54/54
f 55/55/55 56/56/56 57/57/57
f 58/58/58 59/59/59 60/60/60
f 61/61/61 62/62/62 63/63/63
f 64/64/64 65/65/65 66/66/66
f 67/67/67 68/68/68 69/69/69
f 70/70/70 71/71/71 72/72/72
f 73/73/73 74/74/74 75/75/75
f 76/76/76 77/77/77 78/78/78
f 79/79/79 80/80/80 81/81/81
f 82/82/82 83/83/83 84/84/84
f 85/85/85 86/86/86 87/87/87
f 88/88/88 89/89/89 90/90/90
f 91/91/91 92/92/92 93/93/93
f 94/94/94 95/95/95 96/96/96
f 97/97/97 98/98/98 99/99/99
f 100/100/100 101/101/101 102/102/102
f 103/103/103 104/104/104 105/105/105
f 106/106/106 107/107/107 108/108/108
f 109/109/109 110/110/110 111/111/111
f 112/112/112 113/113/113 114/114/114
f 115/115/115 116/116/116 117/117/117
f 118/118/118 119/119/119 120/120/120
f 121/121/121 122/122/122 123/123/123
f 124/124/124 125/125/125 126/126/126
f 127/127/127 128/128/128 129/129/129
f 130/130/130 131/131/131 132/132/132
f 133/133/133 134/134/134 135/135/135
f 136/136/136 137/137/137 138/138/138
f 139/139/139 140/140/140 141/141/141
f 142/142/142 143/143/143 144/144/144
f 145/145/145 146/146/146 147/147/147
f 148/148/148 149/149/149 150/150/150
f 151/151/151 152/152/152 153/153/153
f 154/154/154 155/155/155 156/156/156
