g  Instance
v 2.750124 -53.52691 -1.297955
v 4.061243 -52.27758 -1.1385
v 2.399233 -52.93159 -1.02524
v 2.399233 -52.93159 -1.02524
v 4.061243 -52.27758 -1.1385
v 2.386818 -52.64592 -0.9258238
v 2.386818 -52.64592 -0.9258238
v 4.061243 -52.27758 -1.1385
v 2.496941 -52.49272 -0.8960575
v 2.496941 -52.49272 -0.8960575
v 4.061243 -52.27758 -1.1385
v 4.096729 -51.96503 -1.039626
v 4.011059 -50.83772 -1.692054
v 4.786005 -50.69177 -2.205497
v 3.681813 -50.92158 -1.676646
v 3.681813 -50.92158 -1.676646
v 4.786005 -50.69177 -2.205497
v 3.726015 -51.05534 -3.024209
v 3.726015 -51.05534 -3.024209
v 4.786005 -50.69177 -2.205497
v 4.904048 -50.72281 -2.777858
v 4.904048 -50.72281 -2.777858
v 4.786005 -50.69177 -2.205497
v 4.845893 -50.68749 -2.310058
v 2.044714 -52.58375 -3.299816
v 2.031054 -52.44376 -2.115064
v 3.726015 -51.05534 -3.024209
v 3.726015 -51.05534 -3.024209
v 2.031054 -52.44376 -2.115064
v 3.681813 -50.92158 -1.676646
v 3.681813 -50.92158 -1.676646
v 2.031054 -52.44376 -2.115064
v 2.876165 -51.59763 -1.369954
v 4.857722 -50.72799 -2.209533
v 4.786005 -50.69177 -2.205497
v 4.872914 -50.76178 -2.187551
v 4.872914 -50.76178 -2.187551
v 4.786005 -50.69177 -2.205497
v 4.329686 -51.46479 -1.302396
v 4.329686 -51.46479 -1.302396
v 4.786005 -50.69177 -2.205497
v 4.011059 -50.83772 -1.692054
v 5.011714 -50.95995 -2.635792
v 5.013228 -51.10587 -2.725194
v 4.94213 -50.80056 -2.763515
v 4.857722 -50.72799 -2.209533
v 4.845893 -50.68749 -2.310058
v 4.786005 -50.69177 -2.205497
v 2.234903 -52.68633 -1.234923
v 2.399233 -52.93159 -1.02524
v 2.386818 -52.64592 -0.9258238
v 3.681813 -50.92158 -1.676646
v 2.876165 -51.59763 -1.369954
v 4.011059 -50.83772 -1.692054
v 4.011059 -50.83772 -1.692054
v 2.876165 -51.59763 -1.369954
v 4.329686 -51.46479 -1.302396
v 4.329686 -51.46479 -1.302396
v 2.876165 -51.59763 -1.369954
v 4.096729 -51.96503 -1.039626
v 4.096729 -51.96503 -1.039626
v 2.876165 -51.59763 -1.369954
v 2.496941 -52.49272 -0.8960575
v 4.630274 -52.6263 -2.703473
v 3.345479 -53.877 -2.908127
v 5.013228 -51.10587 -2.725194
v 5.013228 -51.10587 -2.725194
v 3.345479 -53.877 -2.908127
v 4.94213 -50.80056 -2.763515
v 4.94213 -50.80056 -2.763515
v 3.345479 -53.877 -2.908127
v 4.904048 -50.72281 -2.777858
v 4.904048 -50.72281 -2.777858
v 3.345479 -53.877 -2.908127
v 3.726015 -51.05534 -3.024209
v 3.726015 -51.05534 -3.024209
v 3.345479 -53.877 -2.908127
v 2.044714 -52.58375 -3.299816
v 2.044714 -52.58375 -3.299816
v 3.345479 -53.877 -2.908127
v 2.690744 -53.60778 -3.077767
v 2.750124 -53.52691 -1.297955
v 2.399233 -52.93159 -1.02524
v 2.935292 -53.93029 -2.338859
v 2.935292 -53.93029 -2.338859
v 2.399233 -52.93159 -1.02524
v 2.690744 -53.60778 -3.077767
v 2.690744 -53.60778 -3.077767
v 2.399233 -52.93159 -1.02524
v 2.044714 -52.58375 -3.299816
v 2.044714 -52.58375 -3.299816
v 2.399233 -52.93159 -1.02524
v 2.031054 -52.44376 -2.115064
v 2.031054 -52.44376 -2.115064
v 2.399233 -52.93159 -1.02524
v 2.234903 -52.68633 -1.234923
v 5.013228 -51.10587 -2.725194
v 5.011714 -50.95995 -2.635792
v 4.630274 -52.6263 -2.703473
v 4.630274 -52.6263 -2.703473
v 5.011714 -50.95995 -2.635792
v 4.061243 -52.27758 -1.1385
v 4.061243 -52.27758 -1.1385
v 5.011714 -50.95995 -2.635792
v 4.096729 -51.96503 -1.039626
v 4.096729 -51.96503 -1.039626
v 5.011714 -50.95995 -2.635792
v 4.329686 -51.46479 -1.302396
v 4.329686 -51.46479 -1.302396
v 5.011714 -50.95995 -2.635792
v 4.872914 -50.76178 -2.187551
v 4.94213 -50.80056 -2.763515
v 4.904048 -50.72281 -2.777858
v 5.011714 -50.95995 -2.635792
v 5.011714 -50.95995 -2.635792
v 4.904048 -50.72281 -2.777858
v 4.872914 -50.76178 -2.187551
v 4.872914 -50.76178 -2.187551
v 4.904048 -50.72281 -2.777858
v 4.857722 -50.72799 -2.209533
v 4.857722 -50.72799 -2.209533
v 4.904048 -50.72281 -2.777858
v 4.845893 -50.68749 -2.310058
v 2.234903 -52.68633 -1.234923
v 2.386818 -52.64592 -0.9258238
v 2.031054 -52.44376 -2.115064
v 2.031054 -52.44376 -2.115064
v 2.386818 -52.64592 -0.9258238
v 2.876165 -51.59763 -1.369954
v 2.876165 -51.59763 -1.369954
v 2.386818 -52.64592 -0.9258238
v 2.496941 -52.49272 -0.8960575
v 2.750124 -53.52691 -1.297955
v 2.935292 -53.93029 -2.338859
v 4.061243 -52.27758 -1.1385
v 4.061243 -52.27758 -1.1385
v 2.935292 -53.93029 -2.338859
v 4.630274 -52.6263 -2.703473
v 4.630274 -52.6263 -2.703473
v 2.935292 -53.93029 -2.338859
v 3.345479 -53.877 -2.908127
v 3.345479 -53.877 -2.908127
v 2.935292 -53.93029 -2.338859
v 2.690744 -53.60778 -3.077767

vn 0.187565 -0.3155596 0.9301836
vn 0.187565 -0.3155596 0.9301836
vn 0.187565 -0.3155596 0.9301836
vn 0.187565 -0.3155596 0.9301836
vn 0.187565 -0.3155596 0.9301836
vn 0.187565 -0.3155596 0.9301836
vn 0.187565 -0.3155596 0.9301836
vn 0.187565 -0.3155596 0.9301836
vn 0.187565 -0.3155596 0.9301836
vn 0.187565 -0.3155596 0.9301836
vn 0.187565 -0.3155596 0.9301836
vn 0.187565 -0.3155596 0.9301836
vn -0.2500467 0.962658 -0.1037601
vn -0.2500467 0.962658 -0.1037601
vn -0.2500467 0.962658 -0.1037601
vn -0.2500467 0.962658 -0.1037601
vn -0.2500467 0.962658 -0.1037601
vn -0.2500467 0.962658 -0.1037601
vn -0.2500467 0.962658 -0.1037601
vn -0.2500467 0.962658 -0.1037601
vn -0.2500467 0.962658 -0.1037601
vn -0.2500467 0.962658 -0.1037601
vn -0.2500467 0.962658 -0.1037601
vn -0.2500467 0.962658 -0.1037601
vn -0.6609591 0.7443121 -0.09556461
vn -0.6609591 0.7443121 -0.09556461
vn -0.6609591 0.7443121 -0.09556461
vn -0.6609591 0.7443121 -0.09556461
vn -0.6609591 0.7443121 -0.09556461
vn -0.6609591 0.7443121 -0.09556461
vn -0.6609591 0.7443121 -0.09556461
vn -0.6609591 0.7443121 -0.09556461
vn -0.6609591 0.7443121 -0.09556461
vn 0.3509662 0.6163653 0.704923
vn 0.3509662 0.6163653 0.704923
vn 0.3509662 0.6163653 0.704923
vn 0.3509662 0.6163653 0.704923
vn 0.3509662 0.6163653 0.704923
vn 0.3509662 0.6163653 0.704923
vn 0.3509662 0.6163653 0.704923
vn 0.3509662 0.6163653 0.704923
vn 0.3509662 0.6163653 0.704923
vn 0.9411844 0.1835614 -0.283685
vn 0.9411844 0.1835614 -0.283685
vn 0.9411844 0.1835614 -0.283685
vn 0.4444613 0.8477908 0.2893178
vn 0.4444613 0.8477908 0.2893178
vn 0.4444613 0.8477908 0.2893178
vn -0.8698022 -0.1954597 0.4530338
vn -0.8698022 -0.1954597 0.4530338
vn -0.8698022 -0.1954597 0.4530338
vn -0.08537092 0.4942032 0.8651446
vn -0.08537092 0.4942032 0.8651446
vn -0.08537092 0.4942032 0.8651446
vn -0.08537092 0.4942032 0.8651446
vn -0.08537092 0.4942032 0.8651446
vn -0.08537092 0.4942032 0.8651446
vn -0.08537092 0.4942032 0.8651446
vn -0.08537092 0.4942032 0.8651446
vn -0.08537092 0.4942032 0.8651446
vn -0.08537092 0.4942032 0.8651446
vn -0.08537092 0.4942032 0.8651446
vn -0.08537092 0.4942032 0.8651446
vn 0.2230974 -0.07008293 -0.9722736
vn 0.2230974 -0.07008293 -0.9722736
vn 0.2230974 -0.07008293 -0.9722736
vn 0.2230974 -0.07008293 -0.9722736
vn 0.2230974 -0.07008293 -0.9722736
vn 0.2230974 -0.07008293 -0.9722736
vn 0.2230974 -0.07008293 -0.9722736
vn 0.2230974 -0.07008293 -0.9722736
vn 0.2230974 -0.07008293 -0.9722736
vn 0.2230974 -0.07008293 -0.9722736
vn 0.2230974 -0.07008293 -0.9722736
vn 0.2230974 -0.07008293 -0.9722736
vn 0.2230974 -0.07008293 -0.9722736
vn 0.2230974 -0.07008293 -0.9722736
vn 0.2230974 -0.07008293 -0.9722736
vn 0.2230974 -0.07008293 -0.9722736
vn 0.2230974 -0.07008293 -0.9722736
vn 0.2230974 -0.07008293 -0.9722736
vn -0.8496761 -0.5247169 0.05217987
vn -0.8496761 -0.5247169 0.05217987
vn -0.8496761 -0.5247169 0.05217987
vn -0.8496761 -0.5247169 0.05217987
vn -0.8496761 -0.5247169 0.05217987
vn -0.8496761 -0.5247169 0.05217987
vn -0.8496761 -0.5247169 0.05217987
vn -0.8496761 -0.5247169 0.05217987
vn -0.8496761 -0.5247169 0.05217987
vn -0.8496761 -0.5247169 0.05217987
vn -0.8496761 -0.5247169 0.05217987
vn -0.8496761 -0.5247169 0.05217987
vn -0.8496761 -0.5247169 0.05217987
vn -0.8496761 -0.5247169 0.05217987
vn -0.8496761 -0.5247169 0.05217987
vn 0.8996511 -0.2212236 0.3764151
vn 0.8996511 -0.2212236 0.3764151
vn 0.8996511 -0.2212236 0.3764151
vn 0.8996511 -0.2212236 0.3764151
vn 0.8996511 -0.2212236 0.3764151
vn 0.8996511 -0.2212236 0.3764151
vn 0.8996511 -0.2212236 0.3764151
vn 0.8996511 -0.2212236 0.3764151
vn 0.8996511 -0.2212236 0.3764151
vn 0.8996511 -0.2212236 0.3764151
vn 0.8996511 -0.2212236 0.3764151
vn 0.8996511 -0.2212236 0.3764151
vn 0.8996511 -0.2212236 0.3764151
vn 0.8996511 -0.2212236 0.3764151
vn 0.8996511 -0.2212236 0.3764151
vn 0.8897607 0.4499525 0.07660728
vn 0.8897607 0.4499525 0.07660728
vn 0.8897607 0.4499525 0.07660728
vn 0.8897607 0.4499525 0.07660728
vn 0.8897607 0.4499525 0.07660728
vn 0.8897607 0.4499525 0.07660728
vn 0.8897607 0.4499525 0.07660728
vn 0.8897607 0.4499525 0.07660728
vn 0.8897607 0.4499525 0.07660728
vn 0.8897607 0.4499525 0.07660728
vn 0.8897607 0.4499525 0.07660728
vn 0.8897607 0.4499525 0.07660728
vn -0.7967051 0.5095709 0.3249592
vn -0.7967051 0.5095709 0.3249592
vn -0.7967051 0.5095709 0.3249592
vn -0.7967051 0.5095709 0.3249592
vn -0.7967051 0.5095709 0.3249592
vn -0.7967051 0.5095709 0.3249592
vn -0.7967051 0.5095709 0.3249592
vn -0.7967051 0.5095709 0.3249592
vn -0.7967051 0.5095709 0.3249592
vn 0.6142584 -0.6928262 0.377728
vn 0.6142584 -0.6928262 0.377728
vn 0.6142584 -0.6928262 0.377728
vn 0.6142584 -0.6928262 0.377728
vn 0.6142584 -0.6928262 0.377728
vn 0.6142584 -0.6928262 0.377728
vn 0.6142584 -0.6928262 0.377728
vn 0.6142584 -0.6928262 0.377728
vn 0.6142584 -0.6928262 0.377728
vn -0.2958992 -0.9074879 -0.2981769
vn -0.2958992 -0.9074879 -0.2981769
vn -0.2958992 -0.9074879 -0.2981769

vt 0.4680807 0.5159887
vt 0.5783557 0.396745
vt 0.5262753 0.5479056
vt 0.5262753 0.5479056
vt 0.5783557 0.396745
vt 0.5533027 0.5490326
vt 0.5533027 0.5490326
vt 0.5783557 0.396745
vt 0.5671145 0.5390207
vt 0.5671145 0.5390207
vt 0.5783557 0.396745
vt 0.6076369 0.3935179
vt 0.602943 0.3541549
vt 0.6723555 0.399702
vt 0.5729632 0.3527905
vt 0.5729632 0.3527905
vt 0.6723555 0.399702
vt 0.5737735 0.4723276
vt 0.5737735 0.4723276
vt 0.6723555 0.399702
vt 0.6817527 0.4504691
vt 0.6817527 0.4504691
vt 0.6723555 0.399702
vt 0.6775617 0.4089781
vt 0.4258865 0.5024284
vt 0.4331789 0.3975087
vt 0.6261799 0.4780181
vt 0.6261799 0.4780181
vt 0.4331789 0.3975087
vt 0.6310973 0.3586812
vt 0.6310973 0.3586812
vt 0.4331789 0.3975087
vt 0.53842 0.3315234
vt 0.5454888 0.6335421
vt 0.5355608 0.6328343
vt 0.5491862 0.629705
vt 0.5491862 0.629705
vt 0.5355608 0.6328343
vt 0.5338191 0.4753079
vt 0.5338191 0.4753079
vt 0.5355608 0.6328343
vt 0.4611795 0.5432769
vt 0.3713334 0.3995762
vt 0.3844653 0.4081073
vt 0.3557987 0.4117628
vt 0.541689 0.4808494
vt 0.5389974 0.4904701
vt 0.5343221 0.4804582
vt 0.5268062 0.3749237
vt 0.4996996 0.3517707
vt 0.5274022 0.3407949
vt 0.6202379 0.6272835
vt 0.4611888 0.5202821
vt 0.6794989 0.6326573
vt 0.6794989 0.6326573
vt 0.4611888 0.5202821
vt 0.7157559 0.49671
vt 0.7157559 0.49671
vt 0.4611888 0.5202821
vt 0.6606859 0.4050339
vt 0.6606859 0.4050339
vt 0.4611888 0.5202821
vt 0.3691448 0.3549419
vt 0.4899299 0.3299867
vt 0.6009034 0.4486344
vt 0.3532748 0.2946192
vt 0.3532748 0.2946192
vt 0.6009034 0.4486344
vt 0.3256141 0.3011851
vt 0.3256141 0.3011851
vt 0.6009034 0.4486344
vt 0.3185406 0.3047056
vt 0.3185406 0.3047056
vt 0.6009034 0.4486344
vt 0.346802 0.4134951
vt 0.346802 0.4134951
vt 0.6009034 0.4486344
vt 0.4822464 0.5687582
vt 0.4822464 0.5687582
vt 0.6009034 0.4486344
vt 0.5756269 0.5090968
vt 0.4654171 0.3387226
vt 0.5261263 0.3147268
vt 0.4267154 0.4303103
vt 0.4267154 0.4303103
vt 0.5261263 0.3147268
vt 0.4621202 0.4953223
vt 0.4621202 0.4953223
vt 0.5261263 0.3147268
vt 0.5685115 0.5148618
vt 0.5685115 0.5148618
vt 0.5261263 0.3147268
vt 0.5796037 0.4106172
vt 0.5796037 0.4106172
vt 0.5261263 0.3147268
vt 0.5520548 0.3331766
vt 0.3120678 0.5055484
vt 0.2986798 0.496412
vt 0.4605742 0.5033318
vt 0.4605742 0.5033318
vt 0.2986798 0.496412
vt 0.4413653 0.3433281
vt 0.4413653 0.3433281
vt 0.2986798 0.496412
vt 0.411814 0.3332185
vt 0.411814 0.3332185
vt 0.2986798 0.496412
vt 0.3605346 0.3600875
vt 0.3605346 0.3600875
vt 0.2986798 0.496412
vt 0.2835922 0.4505809
vt 0.4140678 0.4790333
vt 0.4064448 0.4802999
vt 0.4293464 0.4677548
vt 0.4293464 0.4677548
vt 0.4064448 0.4802999
vt 0.4082703 0.4281962
vt 0.4082703 0.4281962
vt 0.4064448 0.4802999
vt 0.4050152 0.4301334
vt 0.4050152 0.4301334
vt 0.4064448 0.4802999
vt 0.4013597 0.439009
vt 0.4501152 0.356758
vt 0.4608675 0.3264337
vt 0.4588838 0.4431162
vt 0.4588838 0.4431162
vt 0.4608675 0.3264337
vt 0.5672728 0.3700063
vt 0.5672728 0.3700063
vt 0.4608675 0.3264337
vt 0.4783441 0.3235139
vt 0.5890288 0.3431232
vt 0.6012573 0.4496682
vt 0.4175045 0.3268062
vt 0.4175045 0.3268062
vt 0.6012573 0.4496682
vt 0.399078 0.4869962
vt 0.399078 0.4869962
vt 0.6012573 0.4496682
vt 0.5688188 0.507942
vt 0.4629304 0.4464085
vt 0.4972642 0.3915807
vt 0.5278307 0.4627535

usemtl Material0
usemap Material0

usemtl Material1
usemap Material1
f 1/1/1 2/2/2 3/3/3
f 4/4/4 5/5/5 6/6/6
f 7/7/7 8/8/8 9/9/9
f 10/10/10 11/11/11 12/12/12
f 13/13/13 14/14/14 15/15/15
f 16/16/16 17/17/17 18/18/18
f 19/19/19 20/20/20 21/21/21
f 22/22/22 23/23/23 24/24/24
f 25/25/25 26/26/26 27/27/27
f 28/28/28 29/29/29 30/30/30
f 31/31/31 32/32/32 33/33/33
f 34/34/34 35/35/35 36/36/36
f 37/37/37 38/38/38 39/39/39
f 40/40/40 41/41/41 42/42/42
f 43/43/43 44/44/44 45/45/45
f 46/46/46 47/47/47 48/48/48
f 49/49/49 50/50/50 51/51/51
f 52/52/52 53/53/53 54/54/54
f 55/55/55 56/56/56 57/57/57
f 58/58/58 59/59/59 60/60/60
f 61/61/61 62/62/62 63/63/63
f 64/64/64 65/65/65 66/66/66
f 67/67/67 68/68/68 69/69/69
f 70/70/70 71/71/71 72/72/72
f 73/73/73 74/74/74 75/75/75
f 76/76/76 77/77/77 78/78/78
f 79/79/79 80/80/80 81/81/81
f 82/82/82 83/83/83 84/84/84
f 85/85/85 86/86/86 87/87/87
f 88/88/88 89/89/89 90/90/90
f 91/91/91 92/92/92 93/93/93
f 94/94/94 95/95/95 96/96/96
f 97/97/97 98/98/98 99/99/99
f 100/100/100 101/101/101 102/102/102
f 103/103/103 104/104/104 105/105/105
f 106/106/106 107/107/107 108/108/108
f 109/109/109 110/110/110 111/111/111
f 112/112/112 113/113/113 114/114/114
f 115/115/115 116/116/116 117/117/117
f 118/118/118 119/119/119 120/120/120
f 121/121/121 122/122/122 123/123/123
f 124/124/124 125/125/125 126/126/126
f 127/127/127 128/128/128 129/129/129
f 130/130/130 131/131/131 132/132/132
f 133/133/133 134/134/134 135/135/135
f 136/136/136 137/137/137 138/138/138
f 139/139/139 140/140/140 141/141/141
f 142/142/142 143/143/143 144/144/144
