g  Instance
v -2.727166 -49.40943 0.01582354
v -2.701806 -49.44641 -0.1871691
v -2.872767 -49.39891 -0.1916384
v -1.881802 -51.90411 0.17673
v -1.869198 -51.88897 0.1896277
v -2.857281 -52.32384 0.1178231
v -2.857281 -52.32384 0.1178231
v -1.869198 -51.88897 0.1896277
v -3.511512 -51.69495 1.215083
v -3.511512 -51.69495 1.215083
v -1.869198 -51.88897 0.1896277
v -2.556049 -50.96292 1.673472
v -2.556049 -50.96292 1.673472
v -1.869198 -51.88897 0.1896277
v -2.446714 -50.92978 1.662714
v -2.446714 -50.92978 1.662714
v -1.869198 -51.88897 0.1896277
v -2.126422 -50.91561 1.527662
v -2.126422 -50.91561 1.527662
v -1.869198 -51.88897 0.1896277
v -1.811189 -51.75726 0.3264184
v -2.696306 -50.86067 1.680601
v -2.446714 -50.92978 1.662714
v -3.395569 -50.5793 1.63506
v -3.395569 -50.5793 1.63506
v -2.446714 -50.92978 1.662714
v -4.471636 -49.49707 0.8573682
v -4.471636 -49.49707 0.8573682
v -2.446714 -50.92978 1.662714
v -2.71728 -49.41549 0.1133073
v -2.71728 -49.41549 0.1133073
v -2.446714 -50.92978 1.662714
v -2.094969 -50.06504 0.5888579
v -2.094969 -50.06504 0.5888579
v -2.446714 -50.92978 1.662714
v -2.126422 -50.91561 1.527662
v -3.133532 -50.62052 -1.470186
v -1.822635 -51.31061 -0.3095333
v -3.297187 -50.63225 -1.530677
v -3.297187 -50.63225 -1.530677
v -1.822635 -51.31061 -0.3095333
v -3.622886 -50.83721 -1.494457
v -3.622886 -50.83721 -1.494457
v -1.822635 -51.31061 -0.3095333
v -3.6892 -51.86403 -0.6376109
v -3.6892 -51.86403 -0.6376109
v -1.822635 -51.31061 -0.3095333
v -2.857281 -52.32384 0.1178231
v -2.857281 -52.32384 0.1178231
v -1.822635 -51.31061 -0.3095333
v -1.881802 -51.90411 0.17673
v -5.211541 -50.13705 1.414342
v -3.395569 -50.5793 1.63506
v -4.997191 -49.54259 0.9303429
v -4.997191 -49.54259 0.9303429
v -3.395569 -50.5793 1.63506
v -4.906509 -49.50797 0.8966415
v -4.906509 -49.50797 0.8966415
v -3.395569 -50.5793 1.63506
v -4.471636 -49.49707 0.8573682
v -4.471636 -49.49707 0.8573682
v -2.71728 -49.41549 0.1133073
v -4.906509 -49.50797 0.8966415
v -4.906509 -49.50797 0.8966415
v -2.71728 -49.41549 0.1133073
v -3.217459 -49.39893 -0.2947865
v -3.217459 -49.39893 -0.2947865
v -2.71728 -49.41549 0.1133073
v -2.872767 -49.39891 -0.1916384
v -2.872767 -49.39891 -0.1916384
v -2.71728 -49.41549 0.1133073
v -2.727166 -49.40943 0.01582354
v -1.950842 -50.25471 -0.1313244
v -2.200455 -50.00674 -0.5878439
v -2.094969 -50.06504 0.5888579
v -2.094969 -50.06504 0.5888579
v -2.200455 -50.00674 -0.5878439
v -2.71728 -49.41549 0.1133073
v -2.71728 -49.41549 0.1133073
v -2.200455 -50.00674 -0.5878439
v -2.727166 -49.40943 0.01582354
v -2.727166 -49.40943 0.01582354
v -2.200455 -50.00674 -0.5878439
v -2.701806 -49.44641 -0.1871691
v -2.696306 -50.86067 1.680601
v -2.556049 -50.96292 1.673472
v -2.446714 -50.92978 1.662714
v -2.258402 -50.27036 -0.8642472
v -3.133532 -50.62052 -1.470186
v -2.200455 -50.00674 -0.5878439
v -2.200455 -50.00674 -0.5878439
v -3.133532 -50.62052 -1.470186
v -2.701806 -49.44641 -0.1871691
v -2.701806 -49.44641 -0.1871691
v -3.133532 -50.62052 -1.470186
v -2.872767 -49.39891 -0.1916384
v -2.872767 -49.39891 -0.1916384
v -3.133532 -50.62052 -1.470186
v -3.217459 -49.39893 -0.2947865
v -3.217459 -49.39893 -0.2947865
v -3.133532 -50.62052 -1.470186
v -3.297187 -50.63225 -1.530677
v -3.622886 -50.83721 -1.494457
v -3.6892 -51.86403 -0.6376109
v -5.481598 -50.4362 0.3647537
v -5.481598 -50.4362 0.3647537
v -3.6892 -51.86403 -0.6376109
v -5.486507 -50.45151 0.3820917
v -1.78429 -51.26162 -0.2733554
v -1.794541 -51.76881 0.2341458
v -1.795061 -51.2611 -0.2984594
v -1.795061 -51.2611 -0.2984594
v -1.794541 -51.76881 0.2341458
v -1.822635 -51.31061 -0.3095333
v -1.822635 -51.31061 -0.3095333
v -1.794541 -51.76881 0.2341458
v -1.881802 -51.90411 0.17673
v -1.881802 -51.90411 0.17673
v -1.794541 -51.76881 0.2341458
v -1.869198 -51.88897 0.1896277
v -3.217459 -49.39893 -0.2947865
v -3.297187 -50.63225 -1.530677
v -4.906509 -49.50797 0.8966415
v -4.906509 -49.50797 0.8966415
v -3.297187 -50.63225 -1.530677
v -4.997191 -49.54259 0.9303429
v -4.997191 -49.54259 0.9303429
v -3.297187 -50.63225 -1.530677
v -5.481598 -50.4362 0.3647537
v -5.481598 -50.4362 0.3647537
v -3.297187 -50.63225 -1.530677
v -3.622886 -50.83721 -1.494457
v -1.950842 -50.25471 -0.1313244
v -2.094969 -50.06504 0.5888579
v -1.78429 -51.26162 -0.2733554
v -1.78429 -51.26162 -0.2733554
v -2.094969 -50.06504 0.5888579
v -1.794541 -51.76881 0.2341458
v -1.794541 -51.76881 0.2341458
v -2.094969 -50.06504 0.5888579
v -1.811189 -51.75726 0.3264184
v -1.811189 -51.75726 0.3264184
v -2.094969 -50.06504 0.5888579
v -2.126422 -50.91561 1.527662
v -5.486507 -50.45151 0.3820917
v -3.6892 -51.86403 -0.6376109
v -5.349985 -50.40289 1.291235
v -5.349985 -50.40289 1.291235
v -3.6892 -51.86403 -0.6376109
v -3.511512 -51.69495 1.215083
v -3.511512 -51.69495 1.215083
v -3.6892 -51.86403 -0.6376109
v -2.857281 -52.32384 0.1178231
v -1.822635 -51.31061 -0.3095333
v -3.133532 -50.62052 -1.470186
v -1.795061 -51.2611 -0.2984594
v -1.795061 -51.2611 -0.2984594
v -3.133532 -50.62052 -1.470186
v -2.258402 -50.27036 -0.8642472
v -5.211541 -50.13705 1.414342
v -4.997191 -49.54259 0.9303429
v -5.349985 -50.40289 1.291235
v -5.349985 -50.40289 1.291235
v -4.997191 -49.54259 0.9303429
v -5.486507 -50.45151 0.3820917
v -5.486507 -50.45151 0.3820917
v -4.997191 -49.54259 0.9303429
v -5.481598 -50.4362 0.3647537
v -1.795061 -51.2611 -0.2984594
v -2.258402 -50.27036 -0.8642472
v -1.78429 -51.26162 -0.2733554
v -1.78429 -51.26162 -0.2733554
v -2.258402 -50.27036 -0.8642472
v -1.950842 -50.25471 -0.1313244
v -1.950842 -50.25471 -0.1313244
v -2.258402 -50.27036 -0.8642472
v -2.200455 -50.00674 -0.5878439
v -3.395569 -50.5793 1.63506
v -5.211541 -50.13705 1.414342
v -2.696306 -50.86067 1.680601
v -2.696306 -50.86067 1.680601
v -5.211541 -50.13705 1.414342
v -2.556049 -50.96292 1.673472
v -2.556049 -50.96292 1.673472
v -5.211541 -50.13705 1.414342
v -3.511512 -51.69495 1.215083
v -3.511512 -51.69495 1.215083
v -5.211541 -50.13705 1.414342
v -5.349985 -50.40289 1.291235
v -1.811189 -51.75726 0.3264184
v -1.869198 -51.88897 0.1896277
v -1.794541 -51.76881 0.2341458

vn 0.2684267 0.9530592 -0.14009
vn 0.2684267 0.9530592 -0.14009
vn 0.2684267 0.9530592 -0.14009
vn 0.2856824 -0.7480073 0.5990582
vn 0.2856824 -0.7480073 0.5990582
vn 0.2856824 -0.7480073 0.5990582
vn 0.2856824 -0.7480073 0.5990582
vn 0.2856824 -0.7480073 0.5990582
vn 0.2856824 -0.7480073 0.5990582
vn 0.2856824 -0.7480073 0.5990582
vn 0.2856824 -0.7480073 0.5990582
vn 0.2856824 -0.7480073 0.5990582
vn 0.2856824 -0.7480073 0.5990582
vn 0.2856824 -0.7480073 0.5990582
vn 0.2856824 -0.7480073 0.5990582
vn 0.2856824 -0.7480073 0.5990582
vn 0.2856824 -0.7480073 0.5990582
vn 0.2856824 -0.7480073 0.5990582
vn 0.2856824 -0.7480073 0.5990582
vn 0.2856824 -0.7480073 0.5990582
vn 0.2856824 -0.7480073 0.5990582
vn 0.2447883 0.7144309 0.65549
vn 0.2447883 0.7144309 0.65549
vn 0.2447883 0.7144309 0.65549
vn 0.2447883 0.7144309 0.65549
vn 0.2447883 0.7144309 0.65549
vn 0.2447883 0.7144309 0.65549
vn 0.2447883 0.7144309 0.65549
vn 0.2447883 0.7144309 0.65549
vn 0.2447883 0.7144309 0.65549
vn 0.2447883 0.7144309 0.65549
vn 0.2447883 0.7144309 0.65549
vn 0.2447883 0.7144309 0.65549
vn 0.2447883 0.7144309 0.65549
vn 0.2447883 0.7144309 0.65549
vn 0.2447883 0.7144309 0.65549
vn 0.3105758 -0.6207569 -0.7198635
vn 0.3105758 -0.6207569 -0.7198635
vn 0.3105758 -0.6207569 -0.7198635
vn 0.3105758 -0.6207569 -0.7198635
vn 0.3105758 -0.6207569 -0.7198635
vn 0.3105758 -0.6207569 -0.7198635
vn 0.3105758 -0.6207569 -0.7198635
vn 0.3105758 -0.6207569 -0.7198635
vn 0.3105758 -0.6207569 -0.7198635
vn 0.3105758 -0.6207569 -0.7198635
vn 0.3105758 -0.6207569 -0.7198635
vn 0.3105758 -0.6207569 -0.7198635
vn 0.3105758 -0.6207569 -0.7198635
vn 0.3105758 -0.6207569 -0.7198635
vn 0.3105758 -0.6207569 -0.7198635
vn 0.05529886 0.6183442 0.7839595
vn 0.05529886 0.6183442 0.7839595
vn 0.05529886 0.6183442 0.7839595
vn 0.05529886 0.6183442 0.7839595
vn 0.05529886 0.6183442 0.7839595
vn 0.05529886 0.6183442 0.7839595
vn 0.05529886 0.6183442 0.7839595
vn 0.05529886 0.6183442 0.7839595
vn 0.05529886 0.6183442 0.7839595
vn -0.01922629 0.9977611 0.06405628
vn -0.01922629 0.9977611 0.06405628
vn -0.01922629 0.9977611 0.06405628
vn -0.01922629 0.9977611 0.06405628
vn -0.01922629 0.9977611 0.06405628
vn -0.01922629 0.9977611 0.06405628
vn -0.01922629 0.9977611 0.06405628
vn -0.01922629 0.9977611 0.06405628
vn -0.01922629 0.9977611 0.06405628
vn -0.01922629 0.9977611 0.06405628
vn -0.01922629 0.9977611 0.06405628
vn -0.01922629 0.9977611 0.06405628
vn 0.7333446 0.6790988 -0.03210235
vn 0.7333446 0.6790988 -0.03210235
vn 0.7333446 0.6790988 -0.03210235
vn 0.7333446 0.6790988 -0.03210235
vn 0.7333446 0.6790988 -0.03210235
vn 0.7333446 0.6790988 -0.03210235
vn 0.7333446 0.6790988 -0.03210235
vn 0.7333446 0.6790988 -0.03210235
vn 0.7333446 0.6790988 -0.03210235
vn 0.7333446 0.6790988 -0.03210235
vn 0.7333446 0.6790988 -0.03210235
vn 0.7333446 0.6790988 -0.03210235
vn 0.08403826 0.04586951 0.9954063
vn 0.08403826 0.04586951 0.9954063
vn 0.08403826 0.04586951 0.9954063
vn 0.2086957 0.6854928 -0.6975284
vn 0.2086957 0.6854928 -0.6975284
vn 0.2086957 0.6854928 -0.6975284
vn 0.2086957 0.6854928 -0.6975284
vn 0.2086957 0.6854928 -0.6975284
vn 0.2086957 0.6854928 -0.6975284
vn 0.2086957 0.6854928 -0.6975284
vn 0.2086957 0.6854928 -0.6975284
vn 0.2086957 0.6854928 -0.6975284
vn 0.2086957 0.6854928 -0.6975284
vn 0.2086957 0.6854928 -0.6975284
vn 0.2086957 0.6854928 -0.6975284
vn 0.2086957 0.6854928 -0.6975284
vn 0.2086957 0.6854928 -0.6975284
vn 0.2086957 0.6854928 -0.6975284
vn -0.6798726 -0.4434519 -0.5840579
vn -0.6798726 -0.4434519 -0.5840579
vn -0.6798726 -0.4434519 -0.5840579
vn -0.6798726 -0.4434519 -0.5840579
vn -0.6798726 -0.4434519 -0.5840579
vn -0.6798726 -0.4434519 -0.5840579
vn 0.8443005 -0.3874795 -0.3701571
vn 0.8443005 -0.3874795 -0.3701571
vn 0.8443005 -0.3874795 -0.3701571
vn 0.8443005 -0.3874795 -0.3701571
vn 0.8443005 -0.3874795 -0.3701571
vn 0.8443005 -0.3874795 -0.3701571
vn 0.8443005 -0.3874795 -0.3701571
vn 0.8443005 -0.3874795 -0.3701571
vn 0.8443005 -0.3874795 -0.3701571
vn 0.8443005 -0.3874795 -0.3701571
vn 0.8443005 -0.3874795 -0.3701571
vn 0.8443005 -0.3874795 -0.3701571
vn -0.4701836 0.6397138 -0.6080244
vn -0.4701836 0.6397138 -0.6080244
vn -0.4701836 0.6397138 -0.6080244
vn -0.4701836 0.6397138 -0.6080244
vn -0.4701836 0.6397138 -0.6080244
vn -0.4701836 0.6397138 -0.6080244
vn -0.4701836 0.6397138 -0.6080244
vn -0.4701836 0.6397138 -0.6080244
vn -0.4701836 0.6397138 -0.6080244
vn -0.4701836 0.6397138 -0.6080244
vn -0.4701836 0.6397138 -0.6080244
vn -0.4701836 0.6397138 -0.6080244
vn 0.9774206 0.1392622 0.1589188
vn 0.9774206 0.1392622 0.1589188
vn 0.9774206 0.1392622 0.1589188
vn 0.9774206 0.1392622 0.1589188
vn 0.9774206 0.1392622 0.1589188
vn 0.9774206 0.1392622 0.1589188
vn 0.9774206 0.1392622 0.1589188
vn 0.9774206 0.1392622 0.1589188
vn 0.9774206 0.1392622 0.1589188
vn 0.9774206 0.1392622 0.1589188
vn 0.9774206 0.1392622 0.1589188
vn 0.9774206 0.1392622 0.1589188
vn -0.566642 -0.8138632 0.1286218
vn -0.566642 -0.8138632 0.1286218
vn -0.566642 -0.8138632 0.1286218
vn -0.566642 -0.8138632 0.1286218
vn -0.566642 -0.8138632 0.1286218
vn -0.566642 -0.8138632 0.1286218
vn -0.566642 -0.8138632 0.1286218
vn -0.566642 -0.8138632 0.1286218
vn -0.566642 -0.8138632 0.1286218
vn 0.6048048 -0.1623833 -0.7796428
vn 0.6048048 -0.1623833 -0.7796428
vn 0.6048048 -0.1623833 -0.7796428
vn 0.6048048 -0.1623833 -0.7796428
vn 0.6048048 -0.1623833 -0.7796428
vn 0.6048048 -0.1623833 -0.7796428
vn -0.901735 0.4172315 0.1131022
vn -0.901735 0.4172315 0.1131022
vn -0.901735 0.4172315 0.1131022
vn -0.901735 0.4172315 0.1131022
vn -0.901735 0.4172315 0.1131022
vn -0.901735 0.4172315 0.1131022
vn -0.901735 0.4172315 0.1131022
vn -0.901735 0.4172315 0.1131022
vn -0.901735 0.4172315 0.1131022
vn 0.9013324 0.20304 -0.3825896
vn 0.9013324 0.20304 -0.3825896
vn 0.9013324 0.20304 -0.3825896
vn 0.9013324 0.20304 -0.3825896
vn 0.9013324 0.20304 -0.3825896
vn 0.9013324 0.20304 -0.3825896
vn 0.9013324 0.20304 -0.3825896
vn 0.9013324 0.20304 -0.3825896
vn 0.9013324 0.20304 -0.3825896
vn -0.1923005 -0.3281344 0.9248505
vn -0.1923005 -0.3281344 0.9248505
vn -0.1923005 -0.3281344 0.9248505
vn -0.1923005 -0.3281344 0.9248505
vn -0.1923005 -0.3281344 0.9248505
vn -0.1923005 -0.3281344 0.9248505
vn -0.1923005 -0.3281344 0.9248505
vn -0.1923005 -0.3281344 0.9248505
vn -0.1923005 -0.3281344 0.9248505
vn -0.1923005 -0.3281344 0.9248505
vn -0.1923005 -0.3281344 0.9248505
vn -0.1923005 -0.3281344 0.9248505
vn 0.7921035 -0.5714845 0.2144238
vn 0.7921035 -0.5714845 0.2144238
vn 0.7921035 -0.5714845 0.2144238

vt 0.5307271 0.4143193
vt 0.5337819 0.4324897
vt 0.5180516 0.4328901
vt 0.3833849 0.5267829
vt 0.3815036 0.5250134
vt 0.499667 0.5348483
vt 0.499667 0.5348483
vt 0.3815036 0.5250134
vt 0.5420615 0.3846655
vt 0.5420615 0.3846655
vt 0.3815036 0.5250134
vt 0.4156139 0.3219213
vt 0.4156139 0.3219213
vt 0.3815036 0.5250134
vt 0.4031246 0.3233928
vt 0.4031246 0.3233928
vt 0.3815036 0.5250134
vt 0.3697781 0.3418799
vt 0.3697781 0.3418799
vt 0.3815036 0.5250134
vt 0.3704114 0.5062935
vt 0.5887029 0.2972595
vt 0.6187385 0.3000116
vt 0.5012317 0.3042632
vt 0.5012317 0.3042632
vt 0.6187385 0.3000116
vt 0.3421826 0.423926
vt 0.3421826 0.423926
vt 0.6187385 0.3000116
vt 0.5319565 0.538406
vt 0.5319565 0.538406
vt 0.6187385 0.3000116
vt 0.6248294 0.4652402
vt 0.6248294 0.4652402
vt 0.6187385 0.3000116
vt 0.6534122 0.3207898
vt 0.4556567 0.5598454
vt 0.3464853 0.3484458
vt 0.4748236 0.5708631
vt 0.4748236 0.5708631
vt 0.3464853 0.3484458
vt 0.5232392 0.5642692
vt 0.5232392 0.5642692
vt 0.3464853 0.3484458
vt 0.5888239 0.4082004
vt 0.5888239 0.4082004
vt 0.3464853 0.3484458
vt 0.5207711 0.2706093
vt 0.5207711 0.2706093
vt 0.3464853 0.3484458
vt 0.3867424 0.2598803
vt 0.2462455 0.3598687
vt 0.5074809 0.3096137
vt 0.2689422 0.4700738
vt 0.2689422 0.4700738
vt 0.5074809 0.3096137
vt 0.2812731 0.477748
vt 0.2812731 0.477748
vt 0.5074809 0.3096137
vt 0.3423595 0.4866889
vt 0.4134857 0.3660434
vt 0.5678595 0.4316096
vt 0.3752357 0.3625835
vt 0.3752357 0.3625835
vt 0.5678595 0.4316096
vt 0.5239097 0.4675685
vt 0.5239097 0.4675685
vt 0.5678595 0.4316096
vt 0.5542154 0.4584786
vt 0.5542154 0.4584786
vt 0.5678595 0.4316096
vt 0.5670027 0.4402012
vt 0.5586765 0.4415981
vt 0.5278027 0.4817062
vt 0.5378519 0.3783371
vt 0.5378519 0.3783371
vt 0.5278027 0.4817062
vt 0.4588791 0.4201122
vt 0.4588791 0.4201122
vt 0.5278027 0.4817062
vt 0.4579012 0.4286759
vt 0.4579012 0.4286759
vt 0.5278027 0.4817062
vt 0.4617942 0.446511
vt 0.4825444 0.3898763
vt 0.4735756 0.3774802
vt 0.4765373 0.3678176
vt 0.6242706 0.4412256
vt 0.5342383 0.5447857
vt 0.6216536 0.3939882
vt 0.6216536 0.3939882
vt 0.5342383 0.5447857
vt 0.5429369 0.3255116
vt 0.5429369 0.3255116
vt 0.5342383 0.5447857
vt 0.5212089 0.3262753
vt 0.5212089 0.3262753
vt 0.5342383 0.5447857
vt 0.4808261 0.3439055
vt 0.4808261 0.3439055
vt 0.5342383 0.5447857
vt 0.5154811 0.5551235
vt 0.501064 0.5536799
vt 0.4119956 0.4395585
vt 0.6471443 0.3060607
vt 0.6471443 0.3060607
vt 0.4119956 0.4395585
vt 0.6460546 0.303751
vt 0.4781904 0.3972339
vt 0.5221402 0.3456285
vt 0.4785722 0.3997858
vt 0.4785722 0.3997858
vt 0.5221402 0.3456285
vt 0.4839088 0.4009127
vt 0.4839088 0.4009127
vt 0.5221402 0.3456285
vt 0.5371906 0.351468
vt 0.5371906 0.351468
vt 0.5221402 0.3456285
vt 0.5353931 0.3501548
vt 0.6100305 0.3969219
vt 0.5221868 0.5689911
vt 0.4524529 0.2310508
vt 0.4524529 0.2310508
vt 0.5221868 0.5689911
vt 0.4421104 0.2263568
vt 0.4421104 0.2263568
vt 0.5221868 0.5689911
vt 0.3404736 0.3051014
vt 0.3404736 0.3051014
vt 0.5221868 0.5689911
vt 0.4797643 0.5639433
vt 0.4758341 0.4678013
vt 0.4573331 0.4029616
vt 0.5665277 0.4805886
vt 0.5665277 0.4805886
vt 0.4573331 0.4029616
vt 0.611027 0.4348972
vt 0.611027 0.4348972
vt 0.4573331 0.4029616
vt 0.6097977 0.4265897
vt 0.6097977 0.4265897
vt 0.4573331 0.4029616
vt 0.5317888 0.3184474
vt 0.6617476 0.411027
vt 0.4598011 0.502028
vt 0.6542876 0.3299075
vt 0.6542876 0.3299075
vt 0.4598011 0.502028
vt 0.4554471 0.3367017
vt 0.4554471 0.3367017
vt 0.4598011 0.502028
vt 0.3761391 0.4346085
vt 0.516934 0.272146
vt 0.4711774 0.5318587
vt 0.5092319 0.2696687
vt 0.5092319 0.2696687
vt 0.4711774 0.5318587
vt 0.3919858 0.39627
vt 0.4838948 0.328436
vt 0.539491 0.3714592
vt 0.4574495 0.3393793
vt 0.4574495 0.3393793
vt 0.539491 0.3714592
vt 0.4484901 0.4201914
vt 0.4484901 0.4201914
vt 0.539491 0.3714592
vt 0.449901 0.4217327
vt 0.5826585 0.4053179
vt 0.4811893 0.4634799
vt 0.5829285 0.4027381
vt 0.5829285 0.4027381
vt 0.4811893 0.4634799
vt 0.486158 0.3881394
vt 0.486158 0.3881394
vt 0.4811893 0.4634799
vt 0.4579757 0.4350602
vt 0.566211 0.4106545
vt 0.59688 0.5761344
vt 0.5438589 0.3469417
vt 0.5438589 0.3469417
vt 0.59688 0.5761344
vt 0.5350206 0.3341638
vt 0.5350206 0.3341638
vt 0.59688 0.5761344
vt 0.4596242 0.4212298
vt 0.4596242 0.4212298
vt 0.59688 0.5761344
vt 0.5707933 0.5887541
vt 0.4869077 0.4427204
vt 0.4995413 0.4553028
vt 0.4868751 0.4512049

usemtl Material0
usemap Material0

usemtl Material1
usemap Material1
f 1/1/1 2/2/2 3/3/3
f 4/4/4 5/5/5 6/6/6
f 7/7/7 8/8/8 9/9/9
f 10/10/10 11/11/11 12/12/12
f 13/13/13 14/14/14 15/15/15
f 16/16/16 17/17/17 18/18/18
f 19/19/19 20/20/20 21/21/21
f 22/22/22 23/23/23 24/24/24
f 25/25/25 26/26/26 27/27/27
f 28/28/28 29/29/29 30/30/30
f 31/31/31 32/32/32 33/33/33
f 34/34/34 35/35/35 36/36/36
f 37/37/37 38/38/38 39/39/39
f 40/40/40 41/41/41 42/42/42
f 43/43/43 44/44/44 45/45/45
f 46/46/46 47/47/47 48/48/48
f 49/49/49 50/50/50 51/51/51
f 52/52/52 53/53/53 54/54/54
f 55/55/55 56/56/56 57/57/57
f 58/58/58 59/59/59 60/60/60
f 61/61/61 62/62/62 63/63/63
f 64/64/64 65/65/65 66/66/66
f 67/67/67 68/68/68 69/69/69
f 70/70/70 71/71/71 72/72/72
f 73/73/73 74/74/74 75/75/75
f 76/76/76 77/77/77 78/78/78
f 79/79/79 80/80/80 81/81/81
f 82/82/82 83/83/83 84/84/84
f 85/85/85 86/86/86 87/87/87
f 88/88/88 89/89/89 90/90/90
f 91/91/91 92/92/92 93/93/93
f 94/94/94 95/95/95 96/96/96
f 97/97/97 98/98/98 99/99/99
f 100/100/100 101/101/101 102/102/102
f 103/103/103 104/104/104 105/105/105
f 106/106/106 107/107/107 108/108/108
f 109/109/109 110/110/110 111/111/111
f 112/112/112 113/113/113 114/114/114
f 115/115/115 116/116/116 117/117/117
f 118/118/118 119/119/119 120/120/120
f 121/121/121 122/122/122 123/123/123
f 124/124/124 125/125/125 126/126/126
f 127/127/127 128/128/128 129/129/129
f 130/130/130 131/131/131 132/132/132
f 133/133/133 134/134/134 135/135/135
f 136/136/136 137/137/137 138/138/138
f 139/139/139 140/140/140 141/141/141
f 142/142/142 143/143/143 144/144/144
f 145/145/145 146/146/146 147/147/147
f 148/148/148 149/149/149 150/150/150
f 151/151/151 152/152/152 153/153/153
f 154/154/154 155/155/155 156/156/156
f 157/157/157 158/158/158 159/159/159
f 160/160/160 161/161/161 162/162/162
f 163/163/163 164/164/164 165/165/165
f 166/166/166 167/167/167 168/168/168
f 169/169/169 170/170/170 171/171/171
f 172/172/172 173/173/173 174/174/174
f 175/175/175 176/176/176 177/177/177
f 178/178/178 179/179/179 180/180/180
f 181/181/181 182/182/182 183/183/183
f 184/184/184 185/185/185 186/186/186
f 187/187/187 188/188/188 189/189/189
f 190/190/190 191/191/191 192/192/192
