g  Instance
v 3.977922 -50.75707 8.523615
v 3.981359 -50.75961 8.521318
v 4.70047 -49.76521 8.267908
v 4.70047 -49.76521 8.267908
v 3.981359 -50.75961 8.521318
v 5.413741 -50.04137 7.828398
v 3.877899 -49.03863 8.110258
v 3.527598 -48.55199 7.754543
v 3.212854 -49.49929 8.236248
v 3.212854 -49.49929 8.236248
v 3.527598 -48.55199 7.754543
v 3.077086 -49.02882 7.935251
v 4.70047 -49.76521 8.267908
v 3.877899 -49.03863 8.110258
v 3.977922 -50.75707 8.523615
v 3.977922 -50.75707 8.523615
v 3.877899 -49.03863 8.110258
v 3.274199 -50.12317 8.385767
v 3.274199 -50.12317 8.385767
v 3.877899 -49.03863 8.110258
v 3.212854 -49.49929 8.236248
v 4.70047 -49.76521 8.267908
v 5.413741 -50.04137 7.828398
v 3.877899 -49.03863 8.110258
v 3.877899 -49.03863 8.110258
v 5.413741 -50.04137 7.828398
v 3.527598 -48.55199 7.754543
v 3.527598 -48.55199 7.754543
v 5.413741 -50.04137 7.828398
v 3.569538 -48.38028 7.422661
v 3.569538 -48.38028 7.422661
v 5.413741 -50.04137 7.828398
v 5.450726 -49.93879 7.615238
v 3.077086 -49.02882 7.935251
v 3.527598 -48.55199 7.754543
v 2.676924 -49.04777 7.09456
v 2.676924 -49.04777 7.09456
v 3.527598 -48.55199 7.754543
v 2.97708 -48.47486 6.342589
v 2.97708 -48.47486 6.342589
v 3.527598 -48.55199 7.754543
v 3.254991 -48.2855 6.490397
v 3.254991 -48.2855 6.490397
v 3.527598 -48.55199 7.754543
v 3.569538 -48.38028 7.422661
v 3.993278 -49.3569 5.736552
v 4.219244 -49.50308 5.764023
v 3.23252 -49.21135 5.995196
v 3.23252 -49.21135 5.995196
v 4.219244 -49.50308 5.764023
v 2.814164 -49.33995 6.348816
v 2.814164 -49.33995 6.348816
v 4.219244 -49.50308 5.764023
v 3.597717 -50.07936 6.67964
v 3.569538 -48.38028 7.422661
v 5.450726 -49.93879 7.615238
v 3.254991 -48.2855 6.490397
v 3.254991 -48.2855 6.490397
v 5.450726 -49.93879 7.615238
v 3.710274 -48.78094 5.894963
v 3.710274 -48.78094 5.894963
v 5.450726 -49.93879 7.615238
v 3.776252 -48.84204 5.866752
v 3.776252 -48.84204 5.866752
v 5.450726 -49.93879 7.615238
v 4.525022 -49.47083 5.897398
v 4.525022 -49.47083 5.897398
v 4.219244 -49.50308 5.764023
v 3.776252 -48.84204 5.866752
v 3.776252 -48.84204 5.866752
v 4.219244 -49.50308 5.764023
v 3.993278 -49.3569 5.736552
v 2.624028 -49.26915 6.990644
v 2.625573 -49.28933 6.941373
v 2.72727 -49.42862 7.212964
v 2.625573 -49.28933 6.941373
v 2.709927 -49.2696 6.452697
v 2.72727 -49.42862 7.212964
v 2.72727 -49.42862 7.212964
v 2.709927 -49.2696 6.452697
v 3.274199 -50.12317 8.385767
v 3.274199 -50.12317 8.385767
v 2.709927 -49.2696 6.452697
v 3.977922 -50.75707 8.523615
v 3.977922 -50.75707 8.523615
v 2.709927 -49.2696 6.452697
v 3.981359 -50.75961 8.521318
v 3.981359 -50.75961 8.521318
v 2.709927 -49.2696 6.452697
v 3.597717 -50.07936 6.67964
v 3.597717 -50.07936 6.67964
v 2.709927 -49.2696 6.452697
v 2.814164 -49.33995 6.348816
v 2.97708 -48.47486 6.342589
v 2.976171 -48.48085 6.336532
v 2.676924 -49.04777 7.09456
v 2.676924 -49.04777 7.09456
v 2.976171 -48.48085 6.336532
v 2.624028 -49.26915 6.990644
v 2.624028 -49.26915 6.990644
v 2.976171 -48.48085 6.336532
v 2.625573 -49.28933 6.941373
v 2.625573 -49.28933 6.941373
v 2.976171 -48.48085 6.336532
v 2.709927 -49.2696 6.452697
v 3.254991 -48.2855 6.490397
v 3.710274 -48.78094 5.894963
v 2.97708 -48.47486 6.342589
v 2.97708 -48.47486 6.342589
v 3.710274 -48.78094 5.894963
v 2.976171 -48.48085 6.336532
v 2.976171 -48.48085 6.336532
v 3.710274 -48.78094 5.894963
v 3.26272 -48.71255 6.045072
v 3.993278 -49.3569 5.736552
v 3.23252 -49.21135 5.995196
v 3.776252 -48.84204 5.866752
v 3.776252 -48.84204 5.866752
v 3.23252 -49.21135 5.995196
v 3.710274 -48.78094 5.894963
v 3.710274 -48.78094 5.894963
v 3.23252 -49.21135 5.995196
v 3.26272 -48.71255 6.045072
v 3.274199 -50.12317 8.385767
v 3.212854 -49.49929 8.236248
v 2.72727 -49.42862 7.212964
v 2.72727 -49.42862 7.212964
v 3.212854 -49.49929 8.236248
v 2.624028 -49.26915 6.990644
v 2.624028 -49.26915 6.990644
v 3.212854 -49.49929 8.236248
v 2.676924 -49.04777 7.09456
v 2.676924 -49.04777 7.09456
v 3.212854 -49.49929 8.236248
v 3.077086 -49.02882 7.935251
v 4.525022 -49.47083 5.897398
v 5.450726 -49.93879 7.615238
v 4.219244 -49.50308 5.764023
v 4.219244 -49.50308 5.764023
v 5.450726 -49.93879 7.615238
v 3.597717 -50.07936 6.67964
v 3.597717 -50.07936 6.67964
v 5.450726 -49.93879 7.615238
v 3.981359 -50.75961 8.521318
v 3.981359 -50.75961 8.521318
v 5.450726 -49.93879 7.615238
v 5.413741 -50.04137 7.828398
v 2.709927 -49.2696 6.452697
v 2.976171 -48.48085 6.336532
v 2.814164 -49.33995 6.348816
v 2.814164 -49.33995 6.348816
v 2.976171 -48.48085 6.336532
v 3.23252 -49.21135 5.995196
v 3.23252 -49.21135 5.995196
v 2.976171 -48.48085 6.336532
v 3.26272 -48.71255 6.045072

vn 0.4835196 -0.1290325 0.8657711
vn 0.4835196 -0.1290325 0.8657711
vn 0.4835196 -0.1290325 0.8657711
vn 0.4835196 -0.1290325 0.8657711
vn 0.4835196 -0.1290325 0.8657711
vn 0.4835196 -0.1290325 0.8657711
vn -0.1800162 0.4927285 0.8513595
vn -0.1800162 0.4927285 0.8513595
vn -0.1800162 0.4927285 0.8513595
vn -0.1800162 0.4927285 0.8513595
vn -0.1800162 0.4927285 0.8513595
vn -0.1800162 0.4927285 0.8513595
vn 0.02132387 0.2349898 0.971764
vn 0.02132387 0.2349898 0.971764
vn 0.02132387 0.2349898 0.971764
vn 0.02132387 0.2349898 0.971764
vn 0.02132387 0.2349898 0.971764
vn 0.02132387 0.2349898 0.971764
vn 0.02132387 0.2349898 0.971764
vn 0.02132387 0.2349898 0.971764
vn 0.02132387 0.2349898 0.971764
vn 0.5464007 0.7136881 0.4382871
vn 0.5464007 0.7136881 0.4382871
vn 0.5464007 0.7136881 0.4382871
vn 0.5464007 0.7136881 0.4382871
vn 0.5464007 0.7136881 0.4382871
vn 0.5464007 0.7136881 0.4382871
vn 0.5464007 0.7136881 0.4382871
vn 0.5464007 0.7136881 0.4382871
vn 0.5464007 0.7136881 0.4382871
vn 0.5464007 0.7136881 0.4382871
vn 0.5464007 0.7136881 0.4382871
vn 0.5464007 0.7136881 0.4382871
vn -0.6391413 0.7130703 0.2881481
vn -0.6391413 0.7130703 0.2881481
vn -0.6391413 0.7130703 0.2881481
vn -0.6391413 0.7130703 0.2881481
vn -0.6391413 0.7130703 0.2881481
vn -0.6391413 0.7130703 0.2881481
vn -0.6391413 0.7130703 0.2881481
vn -0.6391413 0.7130703 0.2881481
vn -0.6391413 0.7130703 0.2881481
vn -0.6391413 0.7130703 0.2881481
vn -0.6391413 0.7130703 0.2881481
vn -0.6391413 0.7130703 0.2881481
vn -0.3511251 -0.6663842 -0.6577563
vn -0.3511251 -0.6663842 -0.6577563
vn -0.3511251 -0.6663842 -0.6577563
vn -0.3511251 -0.6663842 -0.6577563
vn -0.3511251 -0.6663842 -0.6577563
vn -0.3511251 -0.6663842 -0.6577563
vn -0.3511251 -0.6663842 -0.6577563
vn -0.3511251 -0.6663842 -0.6577563
vn -0.3511251 -0.6663842 -0.6577563
vn 0.6401633 0.7555302 -0.1391583
vn 0.6401633 0.7555302 -0.1391583
vn 0.6401633 0.7555302 -0.1391583
vn 0.6401633 0.7555302 -0.1391583
vn 0.6401633 0.7555302 -0.1391583
vn 0.6401633 0.7555302 -0.1391583
vn 0.6401633 0.7555302 -0.1391583
vn 0.6401633 0.7555302 -0.1391583
vn 0.6401633 0.7555302 -0.1391583
vn 0.6401633 0.7555302 -0.1391583
vn 0.6401633 0.7555302 -0.1391583
vn 0.6401633 0.7555302 -0.1391583
vn 0.3401572 0.3627845 -0.8675716
vn 0.3401572 0.3627845 -0.8675716
vn 0.3401572 0.3627845 -0.8675716
vn 0.3401572 0.3627845 -0.8675716
vn 0.3401572 0.3627845 -0.8675716
vn 0.3401572 0.3627845 -0.8675716
vn -0.9069456 -0.3990449 0.1349553
vn -0.9069456 -0.3990449 0.1349553
vn -0.9069456 -0.3990449 0.1349553
vn -0.6470182 -0.7491485 -0.1419294
vn -0.6470182 -0.7491485 -0.1419294
vn -0.6470182 -0.7491485 -0.1419294
vn -0.6470182 -0.7491485 -0.1419294
vn -0.6470182 -0.7491485 -0.1419294
vn -0.6470182 -0.7491485 -0.1419294
vn -0.6470182 -0.7491485 -0.1419294
vn -0.6470182 -0.7491485 -0.1419294
vn -0.6470182 -0.7491485 -0.1419294
vn -0.6470182 -0.7491485 -0.1419294
vn -0.6470182 -0.7491485 -0.1419294
vn -0.6470182 -0.7491485 -0.1419294
vn -0.6470182 -0.7491485 -0.1419294
vn -0.6470182 -0.7491485 -0.1419294
vn -0.6470182 -0.7491485 -0.1419294
vn -0.6470182 -0.7491485 -0.1419294
vn -0.6470182 -0.7491485 -0.1419294
vn -0.6470182 -0.7491485 -0.1419294
vn -0.9431562 0.2961451 -0.1508454
vn -0.9431562 0.2961451 -0.1508454
vn -0.9431562 0.2961451 -0.1508454
vn -0.9431562 0.2961451 -0.1508454
vn -0.9431562 0.2961451 -0.1508454
vn -0.9431562 0.2961451 -0.1508454
vn -0.9431562 0.2961451 -0.1508454
vn -0.9431562 0.2961451 -0.1508454
vn -0.9431562 0.2961451 -0.1508454
vn -0.9431562 0.2961451 -0.1508454
vn -0.9431562 0.2961451 -0.1508454
vn -0.9431562 0.2961451 -0.1508454
vn -0.1214926 0.7153699 -0.6881028
vn -0.1214926 0.7153699 -0.6881028
vn -0.1214926 0.7153699 -0.6881028
vn -0.1214926 0.7153699 -0.6881028
vn -0.1214926 0.7153699 -0.6881028
vn -0.1214926 0.7153699 -0.6881028
vn -0.1214926 0.7153699 -0.6881028
vn -0.1214926 0.7153699 -0.6881028
vn -0.1214926 0.7153699 -0.6881028
vn -0.3004059 0.1128935 -0.9471069
vn -0.3004059 0.1128935 -0.9471069
vn -0.3004059 0.1128935 -0.9471069
vn -0.3004059 0.1128935 -0.9471069
vn -0.3004059 0.1128935 -0.9471069
vn -0.3004059 0.1128935 -0.9471069
vn -0.3004059 0.1128935 -0.9471069
vn -0.3004059 0.1128935 -0.9471069
vn -0.3004059 0.1128935 -0.9471069
vn -0.9029673 0.01416274 0.4294758
vn -0.9029673 0.01416274 0.4294758
vn -0.9029673 0.01416274 0.4294758
vn -0.9029673 0.01416274 0.4294758
vn -0.9029673 0.01416274 0.4294758
vn -0.9029673 0.01416274 0.4294758
vn -0.9029673 0.01416274 0.4294758
vn -0.9029673 0.01416274 0.4294758
vn -0.9029673 0.01416274 0.4294758
vn -0.9029673 0.01416274 0.4294758
vn -0.9029673 0.01416274 0.4294758
vn -0.9029673 0.01416274 0.4294758
vn 0.2600395 -0.8869351 -0.3817404
vn 0.2600395 -0.8869351 -0.3817404
vn 0.2600395 -0.8869351 -0.3817404
vn 0.2600395 -0.8869351 -0.3817404
vn 0.2600395 -0.8869351 -0.3817404
vn 0.2600395 -0.8869351 -0.3817404
vn 0.2600395 -0.8869351 -0.3817404
vn 0.2600395 -0.8869351 -0.3817404
vn 0.2600395 -0.8869351 -0.3817404
vn 0.2600395 -0.8869351 -0.3817404
vn 0.2600395 -0.8869351 -0.3817404
vn 0.2600395 -0.8869351 -0.3817404
vn -0.6615702 0.1141789 -0.7411397
vn -0.6615702 0.1141789 -0.7411397
vn -0.6615702 0.1141789 -0.7411397
vn -0.6615702 0.1141789 -0.7411397
vn -0.6615702 0.1141789 -0.7411397
vn -0.6615702 0.1141789 -0.7411397
vn -0.6615702 0.1141789 -0.7411397
vn -0.6615702 0.1141789 -0.7411397
vn -0.6615702 0.1141789 -0.7411397

vt 0.7345037 0.3781834
vt 0.7347738 0.378989
vt 0.5337912 0.4677827
vt 0.5337912 0.4677827
vt 0.7347738 0.378989
vt 0.5483294 0.6217886
vt 0.4559081 0.4909637
vt 0.4288016 0.6043912
vt 0.3249715 0.4507858
vt 0.3249715 0.4507858
vt 0.4288016 0.6043912
vt 0.3306433 0.5467694
vt 0.4636336 0.4108175
vt 0.5288737 0.4830287
vt 0.3737409 0.4742462
vt 0.3737409 0.4742462
vt 0.5288737 0.4830287
vt 0.4306689 0.5360311
vt 0.4306689 0.5360311
vt 0.5288737 0.4830287
vt 0.4869729 0.5414142
vt 0.5479848 0.3989336
vt 0.6196698 0.4466693
vt 0.4410952 0.4160562
vt 0.4410952 0.4160562
vt 0.6196698 0.4466693
vt 0.3850567 0.4546974
vt 0.3850567 0.4546974
vt 0.6196698 0.4466693
vt 0.3781182 0.4907495
vt 0.3781182 0.4907495
vt 0.6196698 0.4466693
vt 0.6164474 0.4698223
vt 0.4421663 0.4586556
vt 0.5020699 0.4759505
vt 0.4137 0.5391138
vt 0.4137 0.5391138
vt 0.5020699 0.4759505
vt 0.4692216 0.6110689
vt 0.4692216 0.6110689
vt 0.5020699 0.4759505
vt 0.4997695 0.5969219
vt 0.4997695 0.5969219
vt 0.5020699 0.4759505
vt 0.5154346 0.5077091
vt 0.538718 0.6170015
vt 0.5074903 0.6127546
vt 0.6250436 0.5770006
vt 0.6250436 0.5770006
vt 0.5074903 0.6127546
vt 0.6611795 0.5223032
vt 0.6611795 0.5223032
vt 0.5074903 0.6127546
vt 0.540264 0.4711355
vt 0.3877203 0.4690773
vt 0.6041817 0.4518475
vt 0.3610235 0.5524971
vt 0.3610235 0.5524971
vt 0.6041817 0.4518475
vt 0.420182 0.6057789
vt 0.420182 0.6057789
vt 0.6041817 0.4518475
vt 0.428145 0.6083028
vt 0.428145 0.6083028
vt 0.6041817 0.4518475
vt 0.514792 0.6055647
vt 0.5282591 0.5859414
vt 0.4927938 0.6332627
vt 0.3559803 0.5968102
vt 0.3559803 0.5968102
vt 0.4927938 0.6332627
vt 0.4460639 0.6430138
vt 0.5759342 0.5287853
vt 0.5742392 0.5331905
vt 0.5593191 0.5089198
vt 0.6232648 0.5033318
vt 0.6187571 0.5470954
vt 0.6083727 0.4790053
vt 0.6083727 0.4790053
vt 0.6187571 0.5470954
vt 0.531435 0.3739784
vt 0.531435 0.3739784
vt 0.6187571 0.5470954
vt 0.4474889 0.3616335
vt 0.4474889 0.3616335
vt 0.6187571 0.5470954
vt 0.4471117 0.3618384
vt 0.4471117 0.3618384
vt 0.6187571 0.5470954
vt 0.512268 0.5267643
vt 0.512268 0.5267643
vt 0.6187571 0.5470954
vt 0.6076835 0.5563901
vt 0.5481152 0.5470674
vt 0.5475843 0.5476076
vt 0.4916109 0.4795455
vt 0.4916109 0.4795455
vt 0.5475843 0.5476076
vt 0.4714568 0.4888775
vt 0.4714568 0.4888775
vt 0.5475843 0.5476076
vt 0.4697897 0.4933013
vt 0.4697897 0.4933013
vt 0.5475843 0.5476076
vt 0.4737014 0.5371766
vt 0.3976437 0.4438287
vt 0.4419055 0.543072
vt 0.3606743 0.4684626
vt 0.3606743 0.4684626
vt 0.4419055 0.543072
vt 0.3604461 0.4694684
vt 0.3604461 0.4694684
vt 0.4419055 0.543072
vt 0.3899229 0.5180563
vt 0.5123612 0.4162891
vt 0.496249 0.4896598
vt 0.4639083 0.4372162
vt 0.4639083 0.4372162
vt 0.496249 0.4896598
vt 0.4580223 0.4435819
vt 0.4580223 0.4435819
vt 0.496249 0.4896598
vt 0.4501385 0.4867447
vt 0.4342266 0.43174
vt 0.4947449 0.4478334
vt 0.5008777 0.5579361
vt 0.5008777 0.5579361
vt 0.4947449 0.4478334
vt 0.5162076 0.5818529
vt 0.5162076 0.5818529
vt 0.4947449 0.4478334
vt 0.537796 0.5706768
vt 0.537796 0.5706768
vt 0.4947449 0.4478334
vt 0.5402454 0.4802161
vt 0.4809425 0.6047172
vt 0.4090991 0.4282614
vt 0.5096602 0.6184171
vt 0.5096602 0.6184171
vt 0.4090991 0.4282614
vt 0.5816806 0.5243707
vt 0.5816806 0.5243707
vt 0.4090991 0.4282614
vt 0.5648979 0.3351836
vt 0.5648979 0.3351836
vt 0.4090991 0.4282614
vt 0.4152087 0.4063657
vt 0.4892035 0.4021979
vt 0.5967124 0.4248154
vt 0.4824606 0.4224219
vt 0.4824606 0.4224219
vt 0.5967124 0.4248154
vt 0.5083284 0.491271
vt 0.5083284 0.491271
vt 0.5967124 0.4248154
vt 0.5732427 0.4815572

usemtl Material0
usemap Material0

usemtl Material1
usemap Material1
f 1/1/1 2/2/2 3/3/3
f 4/4/4 5/5/5 6/6/6
f 7/7/7 8/8/8 9/9/9
f 10/10/10 11/11/11 12/12/12
f 13/13/13 14/14/14 15/15/15
f 16/16/16 17/17/17 18/18/18
f 19/19/19 20/20/20 21/21/21
f 22/22/22 23/23/23 24/24/24
f 25/25/25 26/26/26 27/27/27
f 28/28/28 29/29/29 30/30/30
f 31/31/31 32/32/32 33/33/33
f 34/34/34 35/35/35 36/36/36
f 37/37/37 38/38/38 39/39/39
f 40/40/40 41/41/41 42/42/42
f 43/43/43 44/44/44 45/45/45
f 46/46/46 47/47/47 48/48/48
f 49/49/49 50/50/50 51/51/51
f 52/52/52 53/53/53 54/54/54
f 55/55/55 56/56/56 57/57/57
f 58/58/58 59/59/59 60/60/60
f 61/61/61 62/62/62 63/63/63
f 64/64/64 65/65/65 66/66/66
f 67/67/67 68/68/68 69/69/69
f 70/70/70 71/71/71 72/72/72
f 73/73/73 74/74/74 75/75/75
f 76/76/76 77/77/77 78/78/78
f 79/79/79 80/80/80 81/81/81
f 82/82/82 83/83/83 84/84/84
f 85/85/85 86/86/86 87/87/87
f 88/88/88 89/89/89 90/90/90
f 91/91/91 92/92/92 93/93/93
f 94/94/94 95/95/95 96/96/96
f 97/97/97 98/98/98 99/99/99
f 100/100/100 101/101/101 102/102/102
f 103/103/103 104/104/104 105/105/105
f 106/106/106 107/107/107 108/108/108
f 109/109/109 110/110/110 111/111/111
f 112/112/112 113/113/113 114/114/114
f 115/115/115 116/116/116 117/117/117
f 118/118/118 119/119/119 120/120/120
f 121/121/121 122/122/122 123/123/123
f 124/124/124 125/125/125 126/126/126
f 127/127/127 128/128/128 129/129/129
f 130/130/130 131/131/131 132/132/132
f 133/133/133 134/134/134 135/135/135
f 136/136/136 137/137/137 138/138/138
f 139/139/139 140/140/140 141/141/141
f 142/142/142 143/143/143 144/144/144
f 145/145/145 146/146/146 147/147/147
f 148/148/148 149/149/149 150/150/150
f 151/151/151 152/152/152 153/153/153
f 154/154/154 155/155/155 156/156/156
