g  Instance
v -1.645288 -54.93569 3.297748
v -1.073709 -54.59144 3.66971
v -1.606429 -55.56376 4.334534
v -1.606429 -55.56376 4.334534
v -1.073709 -54.59144 3.66971
v -1.097993 -54.79113 3.941242
v -1.971308 -55.45914 4.741157
v -2.777505 -54.16587 5.327282
v -1.987548 -54.52455 3.131131
v -1.987548 -54.52455 3.131131
v -2.777505 -54.16587 5.327282
v -2.010834 -54.47258 3.121976
v -2.010834 -54.47258 3.121976
v -2.777505 -54.16587 5.327282
v -2.168504 -54.2878 3.358248
v -1.101455 -54.77235 4.403933
v -1.630689 -55.57417 4.859743
v -1.097993 -54.79113 3.941242
v -1.097993 -54.79113 3.941242
v -1.630689 -55.57417 4.859743
v -1.606429 -55.56376 4.334534
v -1.606429 -55.56376 4.334534
v -1.630689 -55.57417 4.859743
v -1.701721 -55.69259 4.714113
v -1.648419 -53.85682 3.39396
v -2.230155 -53.61576 3.920472
v -1.047134 -54.33547 3.708817
v -1.047134 -54.33547 3.708817
v -2.230155 -53.61576 3.920472
v -1.071408 -54.49297 4.358057
v -1.071408 -54.49297 4.358057
v -2.230155 -53.61576 3.920472
v -2.758166 -53.69774 5.524379
v -1.071408 -54.49297 4.358057
v -1.101455 -54.77235 4.403933
v -1.047134 -54.33547 3.708817
v -1.047134 -54.33547 3.708817
v -1.101455 -54.77235 4.403933
v -1.073709 -54.59144 3.66971
v -1.073709 -54.59144 3.66971
v -1.101455 -54.77235 4.403933
v -1.097993 -54.79113 3.941242
v -1.606429 -55.56376 4.334534
v -1.701721 -55.69259 4.714113
v -1.645288 -54.93569 3.297748
v -1.645288 -54.93569 3.297748
v -1.701721 -55.69259 4.714113
v -1.987548 -54.52455 3.131131
v -1.987548 -54.52455 3.131131
v -1.701721 -55.69259 4.714113
v -1.971308 -55.45914 4.741157
v -1.071408 -54.49297 4.358057
v -2.758166 -53.69774 5.524379
v -1.101455 -54.77235 4.403933
v -1.101455 -54.77235 4.403933
v -2.758166 -53.69774 5.524379
v -1.630689 -55.57417 4.859743
v -1.630689 -55.57417 4.859743
v -2.758166 -53.69774 5.524379
v -2.801736 -53.86161 5.570269
v -1.987548 -54.52455 3.131131
v -2.010834 -54.47258 3.121976
v -1.645288 -54.93569 3.297748
v -1.645288 -54.93569 3.297748
v -2.010834 -54.47258 3.121976
v -1.073709 -54.59144 3.66971
v -1.073709 -54.59144 3.66971
v -2.010834 -54.47258 3.121976
v -1.047134 -54.33547 3.708817
v -1.047134 -54.33547 3.708817
v -2.010834 -54.47258 3.121976
v -1.648419 -53.85682 3.39396
v -2.010834 -54.47258 3.121976
v -2.168504 -54.2878 3.358248
v -1.648419 -53.85682 3.39396
v -1.648419 -53.85682 3.39396
v -2.168504 -54.2878 3.358248
v -2.230155 -53.61576 3.920472
v -1.630689 -55.57417 4.859743
v -2.801736 -53.86161 5.570269
v -1.701721 -55.69259 4.714113
v -1.701721 -55.69259 4.714113
v -2.801736 -53.86161 5.570269
v -1.971308 -55.45914 4.741157
v -1.971308 -55.45914 4.741157
v -2.801736 -53.86161 5.570269
v -2.777505 -54.16587 5.327282
v -2.230155 -53.61576 3.920472
v -2.168504 -54.2878 3.358248
v -2.758166 -53.69774 5.524379
v -2.758166 -53.69774 5.524379
v -2.168504 -54.2878 3.358248
v -2.801736 -53.86161 5.570269
v -2.801736 -53.86161 5.570269
v -2.168504 -54.2878 3.358248
v -2.777505 -54.16587 5.327282

vn 0.6514837 -0.6378192 -0.4107988
vn 0.6514837 -0.6378192 -0.4107988
vn 0.6514837 -0.6378192 -0.4107988
vn 0.6514837 -0.6378192 -0.4107988
vn 0.6514837 -0.6378192 -0.4107988
vn 0.6514837 -0.6378192 -0.4107988
vn -0.8688328 -0.4319469 -0.2419743
vn -0.8688328 -0.4319469 -0.2419743
vn -0.8688328 -0.4319469 -0.2419743
vn -0.8688328 -0.4319469 -0.2419743
vn -0.8688328 -0.4319469 -0.2419743
vn -0.8688328 -0.4319469 -0.2419743
vn -0.8688328 -0.4319469 -0.2419743
vn -0.8688328 -0.4319469 -0.2419743
vn -0.8688328 -0.4319469 -0.2419743
vn 0.8415528 -0.539439 0.02818711
vn 0.8415528 -0.539439 0.02818711
vn 0.8415528 -0.539439 0.02818711
vn 0.8415528 -0.539439 0.02818711
vn 0.8415528 -0.539439 0.02818711
vn 0.8415528 -0.539439 0.02818711
vn 0.8415528 -0.539439 0.02818711
vn 0.8415528 -0.539439 0.02818711
vn 0.8415528 -0.539439 0.02818711
vn 0.5353979 0.8159903 0.2179654
vn 0.5353979 0.8159903 0.2179654
vn 0.5353979 0.8159903 0.2179654
vn 0.5353979 0.8159903 0.2179654
vn 0.5353979 0.8159903 0.2179654
vn 0.5353979 0.8159903 0.2179654
vn 0.5353979 0.8159903 0.2179654
vn 0.5353979 0.8159903 0.2179654
vn 0.5353979 0.8159903 0.2179654
vn 0.994401 -0.1050228 0.01170194
vn 0.994401 -0.1050228 0.01170194
vn 0.994401 -0.1050228 0.01170194
vn 0.994401 -0.1050228 0.01170194
vn 0.994401 -0.1050228 0.01170194
vn 0.994401 -0.1050228 0.01170194
vn 0.994401 -0.1050228 0.01170194
vn 0.994401 -0.1050228 0.01170194
vn 0.994401 -0.1050228 0.01170194
vn -0.625499 -0.6775022 -0.3869649
vn -0.625499 -0.6775022 -0.3869649
vn -0.625499 -0.6775022 -0.3869649
vn -0.625499 -0.6775022 -0.3869649
vn -0.625499 -0.6775022 -0.3869649
vn -0.625499 -0.6775022 -0.3869649
vn -0.625499 -0.6775022 -0.3869649
vn -0.625499 -0.6775022 -0.3869649
vn -0.625499 -0.6775022 -0.3869649
vn 0.589132 0.0688119 0.8051016
vn 0.589132 0.0688119 0.8051016
vn 0.589132 0.0688119 0.8051016
vn 0.589132 0.0688119 0.8051016
vn 0.589132 0.0688119 0.8051016
vn 0.589132 0.0688119 0.8051016
vn 0.589132 0.0688119 0.8051016
vn 0.589132 0.0688119 0.8051016
vn 0.589132 0.0688119 0.8051016
vn 0.5104197 0.07784989 -0.8563942
vn 0.5104197 0.07784989 -0.8563942
vn 0.5104197 0.07784989 -0.8563942
vn 0.5104197 0.07784989 -0.8563942
vn 0.5104197 0.07784989 -0.8563942
vn 0.5104197 0.07784989 -0.8563942
vn 0.5104197 0.07784989 -0.8563942
vn 0.5104197 0.07784989 -0.8563942
vn 0.5104197 0.07784989 -0.8563942
vn 0.5104197 0.07784989 -0.8563942
vn 0.5104197 0.07784989 -0.8563942
vn 0.5104197 0.07784989 -0.8563942
vn -0.4156025 0.5608952 -0.7160106
vn -0.4156025 0.5608952 -0.7160106
vn -0.4156025 0.5608952 -0.7160106
vn -0.4156025 0.5608952 -0.7160106
vn -0.4156025 0.5608952 -0.7160106
vn -0.4156025 0.5608952 -0.7160106
vn -0.435661 -0.5825689 0.6861581
vn -0.435661 -0.5825689 0.6861581
vn -0.435661 -0.5825689 0.6861581
vn -0.435661 -0.5825689 0.6861581
vn -0.435661 -0.5825689 0.6861581
vn -0.435661 -0.5825689 0.6861581
vn -0.435661 -0.5825689 0.6861581
vn -0.435661 -0.5825689 0.6861581
vn -0.435661 -0.5825689 0.6861581
vn -0.9392446 0.1654531 -0.3007406
vn -0.9392446 0.1654531 -0.3007406
vn -0.9392446 0.1654531 -0.3007406
vn -0.9392446 0.1654531 -0.3007406
vn -0.9392446 0.1654531 -0.3007406
vn -0.9392446 0.1654531 -0.3007406
vn -0.9392446 0.1654531 -0.3007406
vn -0.9392446 0.1654531 -0.3007406
vn -0.9392446 0.1654531 -0.3007406

vt 0.5113087 0.523011
vt 0.4491466 0.4837458
vt 0.5518871 0.4135649
vt 0.5518871 0.4135649
vt 0.4491466 0.4837458
vt 0.4645137 0.4550793
vt 0.4151528 0.4109385
vt 0.5523434 0.3563063
vt 0.4914899 0.5610095
vt 0.4914899 0.5610095
vt 0.5523434 0.3563063
vt 0.4966355 0.5618664
vt 0.4966355 0.5618664
vt 0.5523434 0.3563063
vt 0.5179492 0.5398403
vt 0.4831358 0.4524063
vt 0.5674683 0.4123728
vt 0.4843605 0.4930406
vt 0.4843605 0.4930406
vt 0.5674683 0.4123728
vt 0.5655498 0.4584973
vt 0.5655498 0.4584973
vt 0.5674683 0.4123728
vt 0.5795851 0.4251601
vt 0.4983212 0.5517707
vt 0.4427018 0.5032666
vt 0.5671331 0.5227596
vt 0.5671331 0.5227596
vt 0.4427018 0.5032666
vt 0.573075 0.4629491
vt 0.573075 0.4629491
vt 0.4427018 0.5032666
vt 0.4070549 0.3555007
vt 0.4973666 0.455042
vt 0.5220284 0.4510093
vt 0.4833966 0.5120212
vt 0.4833966 0.5120212
vt 0.5220284 0.4510093
vt 0.5059815 0.5154485
vt 0.5059815 0.5154485
vt 0.5220284 0.4510093
vt 0.5236396 0.4916156
vt 0.3990453 0.435144
vt 0.3973922 0.395972
vt 0.4423153 0.54215
vt 0.4423153 0.54215
vt 0.3973922 0.395972
vt 0.4927891 0.5593424
vt 0.4927891 0.5593424
vt 0.3973922 0.395972
vt 0.4313162 0.3931779
vt 0.5258842 0.5628908
vt 0.3800834 0.2719691
vt 0.5664253 0.5514447
vt 0.5664253 0.5514447
vt 0.3800834 0.2719691
vt 0.6751682 0.4377564
vt 0.6751682 0.4377564
vt 0.3800834 0.2719691
vt 0.403418 0.2605229
vt 0.5169992 0.5622948
vt 0.5076672 0.5653123
vt 0.5948403 0.5074577
vt 0.5948403 0.5074577
vt 0.5076672 0.5653123
vt 0.5516636 0.3850101
vt 0.5516636 0.3850101
vt 0.5076672 0.5653123
vt 0.509325 0.3721344
vt 0.509325 0.3721344
vt 0.5076672 0.5653123
vt 0.4134997 0.4757736
vt 0.4952571 0.5653589
vt 0.4931616 0.5228154
vt 0.5779366 0.5163799
vt 0.5779366 0.5163799
vt 0.4931616 0.5228154
vt 0.5372279 0.4215651
vt 0.3814152 0.4679596
vt 0.6182635 0.3501455
vt 0.3797201 0.4921185
vt 0.3797201 0.4921185
vt 0.6182635 0.3501455
vt 0.4226315 0.4876388
vt 0.4226315 0.4876388
vt 0.6182635 0.3501455
vt 0.5939463 0.3904398
vt 0.569657 0.4823022
vt 0.5097441 0.5365433
vt 0.5538056 0.3275559
vt 0.5538056 0.3275559
vt 0.5097441 0.5365433
vt 0.5382523 0.3231228
vt 0.5382523 0.3231228
vt 0.5097441 0.5365433
vt 0.5110759 0.3465738

usemtl Material0
usemap Material0

usemtl Material1
usemap Material1
f 1/1/1 2/2/2 3/3/3
f 4/4/4 5/5/5 6/6/6
f 7/7/7 8/8/8 9/9/9
f 10/10/10 11/11/11 12/12/12
f 13/13/13 14/14/14 15/15/15
f 16/16/16 17/17/17 18/18/18
f 19/19/19 20/20/20 21/21/21
f 22/22/22 23/23/23 24/24/24
f 25/25/25 26/26/26 27/27/27
f 28/28/28 29/29/29 30/30/30
f 31/31/31 32/32/32 33/33/33
f 34/34/34 35/35/35 36/36/36
f 37/37/37 38/38/38 39/39/39
f 40/40/40 41/41/41 42/42/42
f 43/43/43 44/44/44 45/45/45
f 46/46/46 47/47/47 48/48/48
f 49/49/49 50/50/50 51/51/51
f 52/52/52 53/53/53 54/54/54
f 55/55/55 56/56/56 57/57/57
f 58/58/58 59/59/59 60/60/60
f 61/61/61 62/62/62 63/63/63
f 64/64/64 65/65/65 66/66/66
f 67/67/67 68/68/68 69/69/69
f 70/70/70 71/71/71 72/72/72
f 73/73/73 74/74/74 75/75/75
f 76/76/76 77/77/77 78/78/78
f 79/79/79 80/80/80 81/81/81
f 82/82/82 83/83/83 84/84/84
f 85/85/85 86/86/86 87/87/87
f 88/88/88 89/89/89 90/90/90
f 91/91/91 92/92/92 93/93/93
f 94/94/94 95/95/95 96/96/96
