g  Instance
v -3.647554 -53.62757 -0.6337305
v -3.629822 -53.69322 -0.7231437
v -5.088698 -53.6153 -2.070748
v -5.088698 -53.6153 -2.070748
v -3.629822 -53.69322 -0.7231437
v -4.832473 -54.48639 -3.236069
v -4.832473 -54.48639 -3.236069
v -3.629822 -53.69322 -0.7231437
v -4.287827 -54.71869 -3.065252
v -4.287827 -54.71869 -3.065252
v -3.629822 -53.69322 -0.7231437
v -4.085739 -54.70015 -2.830599
v -6.055816 -53.7204 -0.8180023
v -5.534439 -54.57764 0.3177291
v -4.505866 -53.68559 -0.2116944
v -4.505866 -53.68559 -0.2116944
v -5.534439 -54.57764 0.3177291
v -5.446396 -54.57205 0.3483014
v -5.089543 -55.40579 0.6150518
v -5.03803 -55.31911 0.6190272
v -5.623084 -54.90019 0.339809
v -5.623084 -54.90019 0.339809
v -5.03803 -55.31911 0.6190272
v -5.534439 -54.57764 0.3177291
v -5.534439 -54.57764 0.3177291
v -5.03803 -55.31911 0.6190272
v -5.446396 -54.57205 0.3483014
v -3.684155 -56.08645 -0.5731825
v -4.899339 -56.17902 0.1642191
v -3.597018 -56.22416 -1.063285
v -3.597018 -56.22416 -1.063285
v -4.899339 -56.17902 0.1642191
v -3.621429 -56.23747 -1.083162
v -3.621429 -56.23747 -1.083162
v -4.899339 -56.17902 0.1642191
v -5.029541 -56.31711 -0.1450297
v -6.055816 -53.7204 -0.8180023
v -6.061461 -53.72022 -0.8261148
v -5.534439 -54.57764 0.3177291
v -5.534439 -54.57764 0.3177291
v -6.061461 -53.72022 -0.8261148
v -5.623084 -54.90019 0.339809
v -5.623084 -54.90019 0.339809
v -6.061461 -53.72022 -0.8261148
v -6.053825 -54.90943 -0.2688334
v -6.053825 -54.90943 -0.2688334
v -6.061461 -53.72022 -0.8261148
v -6.237332 -54.07452 -0.9135685
v -4.832473 -54.48639 -3.236069
v -5.073744 -54.71767 -3.118638
v -5.088698 -53.6153 -2.070748
v -5.088698 -53.6153 -2.070748
v -5.073744 -54.71767 -3.118638
v -6.061461 -53.72022 -0.8261148
v -6.061461 -53.72022 -0.8261148
v -5.073744 -54.71767 -3.118638
v -6.237332 -54.07452 -0.9135685
v -6.237332 -54.07452 -0.9135685
v -5.073744 -54.71767 -3.118638
v -5.230974 -54.7636 -2.94446
v -3.597018 -56.22416 -1.063285
v -3.461313 -55.48187 -1.463875
v -3.684155 -56.08645 -0.5731825
v -3.684155 -56.08645 -0.5731825
v -3.461313 -55.48187 -1.463875
v -3.699974 -54.60166 0.06915814
v -3.699974 -54.60166 0.06915814
v -3.461313 -55.48187 -1.463875
v -3.557886 -53.77309 -0.3307908
v -3.557886 -53.77309 -0.3307908
v -3.461313 -55.48187 -1.463875
v -3.524262 -53.91027 -0.5517645
v -3.461313 -55.48187 -1.463875
v -3.597018 -56.22416 -1.063285
v -4.085739 -54.70015 -2.830599
v -4.085739 -54.70015 -2.830599
v -3.597018 -56.22416 -1.063285
v -4.287827 -54.71869 -3.065252
v -4.287827 -54.71869 -3.065252
v -3.597018 -56.22416 -1.063285
v -4.344343 -55.07055 -2.865744
v -4.344343 -55.07055 -2.865744
v -3.597018 -56.22416 -1.063285
v -3.621429 -56.23747 -1.083162
v -3.647554 -53.62757 -0.6337305
v -5.088698 -53.6153 -2.070748
v -3.617493 -53.63918 -0.3816041
v -3.617493 -53.63918 -0.3816041
v -5.088698 -53.6153 -2.070748
v -4.505866 -53.68559 -0.2116944
v -4.505866 -53.68559 -0.2116944
v -5.088698 -53.6153 -2.070748
v -6.055816 -53.7204 -0.8180023
v -6.055816 -53.7204 -0.8180023
v -5.088698 -53.6153 -2.070748
v -6.061461 -53.72022 -0.8261148
v -5.029541 -56.31711 -0.1450297
v -5.459086 -56.01748 -0.466091
v -3.621429 -56.23747 -1.083162
v -3.621429 -56.23747 -1.083162
v -5.459086 -56.01748 -0.466091
v -4.344343 -55.07055 -2.865744
v -4.344343 -55.07055 -2.865744
v -5.459086 -56.01748 -0.466091
v -5.073744 -54.71767 -3.118638
v -5.073744 -54.71767 -3.118638
v -5.459086 -56.01748 -0.466091
v -5.230974 -54.7636 -2.94446
v -5.230974 -54.7636 -2.94446
v -5.459086 -56.01748 -0.466091
v -6.237332 -54.07452 -0.9135685
v -6.237332 -54.07452 -0.9135685
v -5.459086 -56.01748 -0.466091
v -6.053825 -54.90943 -0.2688334
v -3.684155 -56.08645 -0.5731825
v -3.699974 -54.60166 0.06915814
v -4.899339 -56.17902 0.1642191
v -4.899339 -56.17902 0.1642191
v -3.699974 -54.60166 0.06915814
v -5.089543 -55.40579 0.6150518
v -5.089543 -55.40579 0.6150518
v -3.699974 -54.60166 0.06915814
v -5.03803 -55.31911 0.6190272
v -3.557886 -53.77309 -0.3307908
v -3.524262 -53.91027 -0.5517645
v -3.617493 -53.63918 -0.3816041
v -3.617493 -53.63918 -0.3816041
v -3.524262 -53.91027 -0.5517645
v -3.647554 -53.62757 -0.6337305
v -3.647554 -53.62757 -0.6337305
v -3.524262 -53.91027 -0.5517645
v -3.629822 -53.69322 -0.7231437
v -5.03803 -55.31911 0.6190272
v -3.699974 -54.60166 0.06915814
v -5.446396 -54.57205 0.3483014
v -5.446396 -54.57205 0.3483014
v -3.699974 -54.60166 0.06915814
v -4.505866 -53.68559 -0.2116944
v -4.505866 -53.68559 -0.2116944
v -3.699974 -54.60166 0.06915814
v -3.617493 -53.63918 -0.3816041
v -3.617493 -53.63918 -0.3816041
v -3.699974 -54.60166 0.06915814
v -3.557886 -53.77309 -0.3307908
v -5.459086 -56.01748 -0.466091
v -5.029541 -56.31711 -0.1450297
v -6.053825 -54.90943 -0.2688334
v -6.053825 -54.90943 -0.2688334
v -5.029541 -56.31711 -0.1450297
v -5.623084 -54.90019 0.339809
v -5.623084 -54.90019 0.339809
v -5.029541 -56.31711 -0.1450297
v -5.089543 -55.40579 0.6150518
v -5.089543 -55.40579 0.6150518
v -5.029541 -56.31711 -0.1450297
v -4.899339 -56.17902 0.1642191
v -4.344343 -55.07055 -2.865744
v -5.073744 -54.71767 -3.118638
v -4.287827 -54.71869 -3.065252
v -4.287827 -54.71869 -3.065252
v -5.073744 -54.71767 -3.118638
v -4.832473 -54.48639 -3.236069
v -3.629822 -53.69322 -0.7231437
v -3.524262 -53.91027 -0.5517645
v -4.085739 -54.70015 -2.830599
v -4.085739 -54.70015 -2.830599
v -3.524262 -53.91027 -0.5517645
v -3.461313 -55.48187 -1.463875

vn 0.466567 0.754565 -0.4614618
vn 0.466567 0.754565 -0.4614618
vn 0.466567 0.754565 -0.4614618
vn 0.466567 0.754565 -0.4614618
vn 0.466567 0.754565 -0.4614618
vn 0.466567 0.754565 -0.4614618
vn 0.466567 0.754565 -0.4614618
vn 0.466567 0.754565 -0.4614618
vn 0.466567 0.754565 -0.4614618
vn 0.466567 0.754565 -0.4614618
vn 0.466567 0.754565 -0.4614618
vn 0.466567 0.754565 -0.4614618
vn -0.2725 0.7036577 0.6562085
vn -0.2725 0.7036577 0.6562085
vn -0.2725 0.7036577 0.6562085
vn -0.2725 0.7036577 0.6562085
vn -0.2725 0.7036577 0.6562085
vn -0.2725 0.7036577 0.6562085
vn -0.3328268 0.1551385 0.9301389
vn -0.3328268 0.1551385 0.9301389
vn -0.3328268 0.1551385 0.9301389
vn -0.3328268 0.1551385 0.9301389
vn -0.3328268 0.1551385 0.9301389
vn -0.3328268 0.1551385 0.9301389
vn -0.3328268 0.1551385 0.9301389
vn -0.3328268 0.1551385 0.9301389
vn -0.3328268 0.1551385 0.9301389
vn 0.2539594 -0.9184591 0.303212
vn 0.2539594 -0.9184591 0.303212
vn 0.2539594 -0.9184591 0.303212
vn 0.2539594 -0.9184591 0.303212
vn 0.2539594 -0.9184591 0.303212
vn 0.2539594 -0.9184591 0.303212
vn 0.2539594 -0.9184591 0.303212
vn 0.2539594 -0.9184591 0.303212
vn 0.2539594 -0.9184591 0.303212
vn -0.7910175 0.2554417 0.5559144
vn -0.7910175 0.2554417 0.5559144
vn -0.7910175 0.2554417 0.5559144
vn -0.7910175 0.2554417 0.5559144
vn -0.7910175 0.2554417 0.5559144
vn -0.7910175 0.2554417 0.5559144
vn -0.7910175 0.2554417 0.5559144
vn -0.7910175 0.2554417 0.5559144
vn -0.7910175 0.2554417 0.5559144
vn -0.7910175 0.2554417 0.5559144
vn -0.7910175 0.2554417 0.5559144
vn -0.7910175 0.2554417 0.5559144
vn -0.7104735 0.4797565 -0.514841
vn -0.7104735 0.4797565 -0.514841
vn -0.7104735 0.4797565 -0.514841
vn -0.7104735 0.4797565 -0.514841
vn -0.7104735 0.4797565 -0.514841
vn -0.7104735 0.4797565 -0.514841
vn -0.7104735 0.4797565 -0.514841
vn -0.7104735 0.4797565 -0.514841
vn -0.7104735 0.4797565 -0.514841
vn -0.7104735 0.4797565 -0.514841
vn -0.7104735 0.4797565 -0.514841
vn -0.7104735 0.4797565 -0.514841
vn 0.9780983 -0.07377885 0.1946291
vn 0.9780983 -0.07377885 0.1946291
vn 0.9780983 -0.07377885 0.1946291
vn 0.9780983 -0.07377885 0.1946291
vn 0.9780983 -0.07377885 0.1946291
vn 0.9780983 -0.07377885 0.1946291
vn 0.9780983 -0.07377885 0.1946291
vn 0.9780983 -0.07377885 0.1946291
vn 0.9780983 -0.07377885 0.1946291
vn 0.9780983 -0.07377885 0.1946291
vn 0.9780983 -0.07377885 0.1946291
vn 0.9780983 -0.07377885 0.1946291
vn 0.6992286 -0.4343032 -0.5678558
vn 0.6992286 -0.4343032 -0.5678558
vn 0.6992286 -0.4343032 -0.5678558
vn 0.6992286 -0.4343032 -0.5678558
vn 0.6992286 -0.4343032 -0.5678558
vn 0.6992286 -0.4343032 -0.5678558
vn 0.6992286 -0.4343032 -0.5678558
vn 0.6992286 -0.4343032 -0.5678558
vn 0.6992286 -0.4343032 -0.5678558
vn 0.6992286 -0.4343032 -0.5678558
vn 0.6992286 -0.4343032 -0.5678558
vn 0.6992286 -0.4343032 -0.5678558
vn -0.04236417 0.9977995 0.05100465
vn -0.04236417 0.9977995 0.05100465
vn -0.04236417 0.9977995 0.05100465
vn -0.04236417 0.9977995 0.05100465
vn -0.04236417 0.9977995 0.05100465
vn -0.04236417 0.9977995 0.05100465
vn -0.04236417 0.9977995 0.05100465
vn -0.04236417 0.9977995 0.05100465
vn -0.04236417 0.9977995 0.05100465
vn -0.04236417 0.9977995 0.05100465
vn -0.04236417 0.9977995 0.05100465
vn -0.04236417 0.9977995 0.05100465
vn -0.2549623 -0.8531554 -0.4551044
vn -0.2549623 -0.8531554 -0.4551044
vn -0.2549623 -0.8531554 -0.4551044
vn -0.2549623 -0.8531554 -0.4551044
vn -0.2549623 -0.8531554 -0.4551044
vn -0.2549623 -0.8531554 -0.4551044
vn -0.2549623 -0.8531554 -0.4551044
vn -0.2549623 -0.8531554 -0.4551044
vn -0.2549623 -0.8531554 -0.4551044
vn -0.2549623 -0.8531554 -0.4551044
vn -0.2549623 -0.8531554 -0.4551044
vn -0.2549623 -0.8531554 -0.4551044
vn -0.8641465 -0.4125159 -0.2882389
vn -0.8641465 -0.4125159 -0.2882389
vn -0.8641465 -0.4125159 -0.2882389
vn -0.8641465 -0.4125159 -0.2882389
vn -0.8641465 -0.4125159 -0.2882389
vn -0.8641465 -0.4125159 -0.2882389
vn 0.5069674 -0.3376836 0.7930661
vn 0.5069674 -0.3376836 0.7930661
vn 0.5069674 -0.3376836 0.7930661
vn 0.5069674 -0.3376836 0.7930661
vn 0.5069674 -0.3376836 0.7930661
vn 0.5069674 -0.3376836 0.7930661
vn 0.5069674 -0.3376836 0.7930661
vn 0.5069674 -0.3376836 0.7930661
vn 0.5069674 -0.3376836 0.7930661
vn 0.9222363 0.3753535 -0.0926825
vn 0.9222363 0.3753535 -0.0926825
vn 0.9222363 0.3753535 -0.0926825
vn 0.9222363 0.3753535 -0.0926825
vn 0.9222363 0.3753535 -0.0926825
vn 0.9222363 0.3753535 -0.0926825
vn 0.9222363 0.3753535 -0.0926825
vn 0.9222363 0.3753535 -0.0926825
vn 0.9222363 0.3753535 -0.0926825
vn 0.1507665 0.4086501 0.9001526
vn 0.1507665 0.4086501 0.9001526
vn 0.1507665 0.4086501 0.9001526
vn 0.1507665 0.4086501 0.9001526
vn 0.1507665 0.4086501 0.9001526
vn 0.1507665 0.4086501 0.9001526
vn 0.1507665 0.4086501 0.9001526
vn 0.1507665 0.4086501 0.9001526
vn 0.1507665 0.4086501 0.9001526
vn 0.1507665 0.4086501 0.9001526
vn 0.1507665 0.4086501 0.9001526
vn 0.1507665 0.4086501 0.9001526
vn -0.7148839 -0.4750343 0.5131116
vn -0.7148839 -0.4750343 0.5131116
vn -0.7148839 -0.4750343 0.5131116
vn -0.7148839 -0.4750343 0.5131116
vn -0.7148839 -0.4750343 0.5131116
vn -0.7148839 -0.4750343 0.5131116
vn -0.7148839 -0.4750343 0.5131116
vn -0.7148839 -0.4750343 0.5131116
vn -0.7148839 -0.4750343 0.5131116
vn -0.7148839 -0.4750343 0.5131116
vn -0.7148839 -0.4750343 0.5131116
vn -0.7148839 -0.4750343 0.5131116
vn 0.0580853 -0.4994519 -0.8643923
vn 0.0580853 -0.4994519 -0.8643923
vn 0.0580853 -0.4994519 -0.8643923
vn 0.0580853 -0.4994519 -0.8643923
vn 0.0580853 -0.4994519 -0.8643923
vn 0.0580853 -0.4994519 -0.8643923
vn 0.9290136 0.2128678 -0.3026896
vn 0.9290136 0.2128678 -0.3026896
vn 0.9290136 0.2128678 -0.3026896
vn 0.9290136 0.2128678 -0.3026896
vn 0.9290136 0.2128678 -0.3026896
vn 0.9290136 0.2128678 -0.3026896

vt 0.5340799 0.3481478
vt 0.5389881 0.3581178
vt 0.4122005 0.5083704
vt 0.4122005 0.5083704
vt 0.5389881 0.3581178
vt 0.4790705 0.6382919
vt 0.4790705 0.6382919
vt 0.5389881 0.3581178
vt 0.5369671 0.6192554
vt 0.5369671 0.6192554
vt 0.5389881 0.3581178
vt 0.5530047 0.5930941
vt 0.3876225 0.5301264
vt 0.4081585 0.3550956
vt 0.5571678 0.4366854
vt 0.5571678 0.4366854
vt 0.4081585 0.3550956
vt 0.4179422 0.350383
vt 0.4035158 0.4353489
vt 0.4114089 0.4302638
vt 0.454134 0.488002
vt 0.454134 0.488002
vt 0.4114089 0.4302638
vt 0.4840811 0.4792568
vt 0.4840811 0.4792568
vt 0.4114089 0.4302638
vt 0.4841277 0.4705674
vt 0.4484388 0.4527323
vt 0.5585648 0.381471
vt 0.4440848 0.5000908
vt 0.4440848 0.5000908
vt 0.5585648 0.381471
vt 0.4465761 0.5020093
vt 0.4465761 0.5020093
vt 0.5585648 0.381471
vt 0.5735127 0.4113576
vt 0.5458893 0.5212973
vt 0.5457217 0.5223311
vt 0.4766816 0.3770565
vt 0.4766816 0.3770565
vt 0.5457217 0.5223311
vt 0.4414026 0.3742532
vt 0.4414026 0.3742532
vt 0.5457217 0.5223311
vt 0.4265012 0.4515495
vt 0.4265012 0.4515495
vt 0.5457217 0.5223311
vt 0.5044262 0.5334327
vt 0.5023959 0.6285315
vt 0.4689609 0.6145149
vt 0.5616196 0.4893897
vt 0.5616196 0.4893897
vt 0.4689609 0.6145149
vt 0.4969941 0.3407809
vt 0.4969941 0.3407809
vt 0.4689609 0.6145149
vt 0.4568628 0.3512212
vt 0.4568628 0.3512212
vt 0.4689609 0.6145149
vt 0.4560572 0.5937181
vt 0.6354653 0.4697851
vt 0.5683345 0.5063214
vt 0.6237677 0.4250855
vt 0.6237677 0.4250855
vt 0.5683345 0.5063214
vt 0.4914154 0.3664998
vt 0.4914154 0.3664998
vt 0.5683345 0.5063214
vt 0.4165405 0.4029803
vt 0.4165405 0.4029803
vt 0.5683345 0.5063214
vt 0.4285501 0.4231344
vt 0.5096696 0.3947333
vt 0.5845212 0.3428485
vt 0.4739947 0.5717478
vt 0.4739947 0.5717478
vt 0.5845212 0.3428485
vt 0.4870428 0.6021374
vt 0.4870428 0.6021374
vt 0.5845212 0.3428485
vt 0.5220843 0.5763021
vt 0.5220843 0.5763021
vt 0.5845212 0.3428485
vt 0.587101 0.3454236
vt 0.5934154 0.4156511
vt 0.4669492 0.5420848
vt 0.5960138 0.3934713
vt 0.5960138 0.3934713
vt 0.4669492 0.5420848
vt 0.5178561 0.3785233
vt 0.5178561 0.3785233
vt 0.4669492 0.5420848
vt 0.3816573 0.4318703
vt 0.3816573 0.4318703
vt 0.4669492 0.5420848
vt 0.3811637 0.4325828
vt 0.4862697 0.2911499
vt 0.5352907 0.3266805
vt 0.3555519 0.3949754
vt 0.3555519 0.3949754
vt 0.5352907 0.3266805
vt 0.4567463 0.5922652
vt 0.4567463 0.5922652
vt 0.5352907 0.3266805
vt 0.5355794 0.6202519
vt 0.5355794 0.6202519
vt 0.5352907 0.3266805
vt 0.5491303 0.6009732
vt 0.5107034 0.599185
vt 0.4160097 0.3619968
vt 0.6074227 0.4048196
vt 0.6074227 0.4048196
vt 0.4160097 0.3619968
vt 0.5311276 0.3431186
vt 0.5965633 0.5923025
vt 0.4198049 0.4403967
vt 0.7047195 0.4179096
vt 0.7047195 0.4179096
vt 0.4198049 0.4403967
vt 0.627195 0.3112948
vt 0.627195 0.3112948
vt 0.4198049 0.4403967
vt 0.6126848 0.3103541
vt 0.4673916 0.3737642
vt 0.4797085 0.3933223
vt 0.4544832 0.3782626
vt 0.4544832 0.3782626
vt 0.4797085 0.3933223
vt 0.4525367 0.4005774
vt 0.4525367 0.4005774
vt 0.4797085 0.3933223
vt 0.4584833 0.4084938
vt 0.384279 0.4923048
vt 0.4624508 0.3721483
vt 0.454595 0.5289716
vt 0.454595 0.5289716
vt 0.4624508 0.3721483
vt 0.546802 0.4445179
vt 0.546802 0.4445179
vt 0.4624508 0.3721483
vt 0.5567859 0.3647442
vt 0.5567859 0.3647442
vt 0.4624508 0.3721483
vt 0.5441011 0.3593983
vt 0.4261054 0.4716105
vt 0.3762881 0.4333744
vt 0.5541223 0.4481222
vt 0.5541223 0.4481222
vt 0.3762881 0.4333744
vt 0.5305315 0.3756222
vt 0.5305315 0.3756222
vt 0.3762881 0.4333744
vt 0.4572865 0.3428345
vt 0.4572865 0.3428345
vt 0.3762881 0.4333744
vt 0.380684 0.3965354
vt 0.4526578 0.5348017
vt 0.5719854 0.6225709
vt 0.435768 0.6040466
vt 0.435768 0.6040466
vt 0.5719854 0.6225709
vt 0.525493 0.6633356
vt 0.437761 0.3851917
vt 0.4594146 0.3686326
vt 0.5187594 0.5887727
vt 0.5187594 0.5887727
vt 0.4594146 0.3686326
vt 0.6017602 0.456737

usemtl Material0
usemap Material0

usemtl Material1
usemap Material1
f 1/1/1 2/2/2 3/3/3
f 4/4/4 5/5/5 6/6/6
f 7/7/7 8/8/8 9/9/9
f 10/10/10 11/11/11 12/12/12
f 13/13/13 14/14/14 15/15/15
f 16/16/16 17/17/17 18/18/18
f 19/19/19 20/20/20 21/21/21
f 22/22/22 23/23/23 24/24/24
f 25/25/25 26/26/26 27/27/27
f 28/28/28 29/29/29 30/30/30
f 31/31/31 32/32/32 33/33/33
f 34/34/34 35/35/35 36/36/36
f 37/37/37 38/38/38 39/39/39
f 40/40/40 41/41/41 42/42/42
f 43/43/43 44/44/44 45/45/45
f 46/46/46 47/47/47 48/48/48
f 49/49/49 50/50/50 51/51/51
f 52/52/52 53/53/53 54/54/54
f 55/55/55 56/56/56 57/57/57
f 58/58/58 59/59/59 60/60/60
f 61/61/61 62/62/62 63/63/63
f 64/64/64 65/65/65 66/66/66
f 67/67/67 68/68/68 69/69/69
f 70/70/70 71/71/71 72/72/72
f 73/73/73 74/74/74 75/75/75
f 76/76/76 77/77/77 78/78/78
f 79/79/79 80/80/80 81/81/81
f 82/82/82 83/83/83 84/84/84
f 85/85/85 86/86/86 87/87/87
f 88/88/88 89/89/89 90/90/90
f 91/91/91 92/92/92 93/93/93
f 94/94/94 95/95/95 96/96/96
f 97/97/97 98/98/98 99/99/99
f 100/100/100 101/101/101 102/102/102
f 103/103/103 104/104/104 105/105/105
f 106/106/106 107/107/107 108/108/108
f 109/109/109 110/110/110 111/111/111
f 112/112/112 113/113/113 114/114/114
f 115/115/115 116/116/116 117/117/117
f 118/118/118 119/119/119 120/120/120
f 121/121/121 122/122/122 123/123/123
f 124/124/124 125/125/125 126/126/126
f 127/127/127 128/128/128 129/129/129
f 130/130/130 131/131/131 132/132/132
f 133/133/133 134/134/134 135/135/135
f 136/136/136 137/137/137 138/138/138
f 139/139/139 140/140/140 141/141/141
f 142/142/142 143/143/143 144/144/144
f 145/145/145 146/146/146 147/147/147
f 148/148/148 149/149/149 150/150/150
f 151/151/151 152/152/152 153/153/153
f 154/154/154 155/155/155 156/156/156
f 157/157/157 158/158/158 159/159/159
f 160/160/160 161/161/161 162/162/162
f 163/163/163 164/164/164 165/165/165
f 166/166/166 167/167/167 168/168/168
