g  Instance
v 3.627917 -48.86383 -2.352336
v 3.647691 -48.90053 -2.326185
v 3.945663 -46.89526 -1.759969
v 3.945663 -46.89526 -1.759969
v 3.647691 -48.90053 -2.326185
v 4.275311 -46.85043 -1.27983
v 4.915149 -50.49896 -2.558949
v 4.60991 -50.21943 -2.236073
v 4.982815 -50.43148 -2.958172
v 4.982815 -50.43148 -2.958172
v 4.60991 -50.21943 -2.236073
v 3.453216 -48.15216 -3.56391
v 3.453216 -48.15216 -3.56391
v 4.60991 -50.21943 -2.236073
v 3.627917 -48.86383 -2.352336
v 3.627917 -48.86383 -2.352336
v 4.60991 -50.21943 -2.236073
v 3.647691 -48.90053 -2.326185
v 3.825299 -46.73548 -2.431497
v 3.513722 -47.58588 -3.545632
v 3.945663 -46.89526 -1.759969
v 3.945663 -46.89526 -1.759969
v 3.513722 -47.58588 -3.545632
v 3.627917 -48.86383 -2.352336
v 3.627917 -48.86383 -2.352336
v 3.513722 -47.58588 -3.545632
v 3.453216 -48.15216 -3.56391
v 3.945663 -46.89526 -1.759969
v 4.275311 -46.85043 -1.27983
v 3.825299 -46.73548 -2.431497
v 3.825299 -46.73548 -2.431497
v 4.275311 -46.85043 -1.27983
v 4.783648 -46.33585 -1.794151
v 4.783648 -46.33585 -1.794151
v 4.275311 -46.85043 -1.27983
v 4.523021 -46.7499 -1.1073
v 4.915149 -50.49896 -2.558949
v 5.722843 -49.71362 -2.680881
v 4.60991 -50.21943 -2.236073
v 4.60991 -50.21943 -2.236073
v 5.722843 -49.71362 -2.680881
v 4.996113 -46.99506 -0.9261104
v 4.996113 -46.99506 -0.9261104
v 5.722843 -49.71362 -2.680881
v 5.649602 -46.90673 -1.287514
v 5.649602 -46.90673 -1.287514
v 5.722843 -49.71362 -2.680881
v 6.377067 -48.37409 -2.441806
v 5.22257 -47.25826 -2.893762
v 3.513722 -47.58588 -3.545632
v 4.954164 -46.3675 -1.810096
v 4.954164 -46.3675 -1.810096
v 3.513722 -47.58588 -3.545632
v 4.783648 -46.33585 -1.794151
v 4.783648 -46.33585 -1.794151
v 3.513722 -47.58588 -3.545632
v 3.825299 -46.73548 -2.431497
v 4.954164 -46.3675 -1.810096
v 5.649602 -46.90673 -1.287514
v 5.22257 -47.25826 -2.893762
v 5.22257 -47.25826 -2.893762
v 5.649602 -46.90673 -1.287514
v 6.377067 -48.37409 -2.441806
v 4.783648 -46.33585 -1.794151
v 4.523021 -46.7499 -1.1073
v 4.954164 -46.3675 -1.810096
v 4.954164 -46.3675 -1.810096
v 4.523021 -46.7499 -1.1073
v 5.649602 -46.90673 -1.287514
v 5.649602 -46.90673 -1.287514
v 4.523021 -46.7499 -1.1073
v 4.996113 -46.99506 -0.9261104
v 4.915149 -50.49896 -2.558949
v 4.982815 -50.43148 -2.958172
v 5.722843 -49.71362 -2.680881
v 4.60991 -50.21943 -2.236073
v 4.996113 -46.99506 -0.9261104
v 3.647691 -48.90053 -2.326185
v 3.647691 -48.90053 -2.326185
v 4.996113 -46.99506 -0.9261104
v 4.275311 -46.85043 -1.27983
v 4.275311 -46.85043 -1.27983
v 4.996113 -46.99506 -0.9261104
v 4.523021 -46.7499 -1.1073
v 6.377067 -48.37409 -2.441806
v 5.722843 -49.71362 -2.680881
v 5.22257 -47.25826 -2.893762
v 5.22257 -47.25826 -2.893762
v 5.722843 -49.71362 -2.680881
v 3.513722 -47.58588 -3.545632
v 3.513722 -47.58588 -3.545632
v 5.722843 -49.71362 -2.680881
v 3.453216 -48.15216 -3.56391
v 3.453216 -48.15216 -3.56391
v 5.722843 -49.71362 -2.680881
v 4.982815 -50.43148 -2.958172

vn -0.8221302 -0.03822289 0.5680151
vn -0.8221302 -0.03822289 0.5680151
vn -0.8221302 -0.03822289 0.5680151
vn -0.8221302 -0.03822289 0.5680151
vn -0.8221302 -0.03822289 0.5680151
vn -0.8221302 -0.03822289 0.5680151
vn -0.7785106 -0.583727 -0.2306165
vn -0.7785106 -0.583727 -0.2306165
vn -0.7785106 -0.583727 -0.2306165
vn -0.7785106 -0.583727 -0.2306165
vn -0.7785106 -0.583727 -0.2306165
vn -0.7785106 -0.583727 -0.2306165
vn -0.7785106 -0.583727 -0.2306165
vn -0.7785106 -0.583727 -0.2306165
vn -0.7785106 -0.583727 -0.2306165
vn -0.7785106 -0.583727 -0.2306165
vn -0.7785106 -0.583727 -0.2306165
vn -0.7785106 -0.583727 -0.2306165
vn -0.9752918 0.09781557 0.198086
vn -0.9752918 0.09781557 0.198086
vn -0.9752918 0.09781557 0.198086
vn -0.9752918 0.09781557 0.198086
vn -0.9752918 0.09781557 0.198086
vn -0.9752918 0.09781557 0.198086
vn -0.9752918 0.09781557 0.198086
vn -0.9752918 0.09781557 0.198086
vn -0.9752918 0.09781557 0.198086
vn -0.524139 0.8025613 0.2849104
vn -0.524139 0.8025613 0.2849104
vn -0.524139 0.8025613 0.2849104
vn -0.524139 0.8025613 0.2849104
vn -0.524139 0.8025613 0.2849104
vn -0.524139 0.8025613 0.2849104
vn -0.524139 0.8025613 0.2849104
vn -0.524139 0.8025613 0.2849104
vn -0.524139 0.8025613 0.2849104
vn 0.4866316 -0.3782171 0.7874907
vn 0.4866316 -0.3782171 0.7874907
vn 0.4866316 -0.3782171 0.7874907
vn 0.4866316 -0.3782171 0.7874907
vn 0.4866316 -0.3782171 0.7874907
vn 0.4866316 -0.3782171 0.7874907
vn 0.4866316 -0.3782171 0.7874907
vn 0.4866316 -0.3782171 0.7874907
vn 0.4866316 -0.3782171 0.7874907
vn 0.4866316 -0.3782171 0.7874907
vn 0.4866316 -0.3782171 0.7874907
vn 0.4866316 -0.3782171 0.7874907
vn 0.08683543 0.7800397 -0.6196755
vn 0.08683543 0.7800397 -0.6196755
vn 0.08683543 0.7800397 -0.6196755
vn 0.08683543 0.7800397 -0.6196755
vn 0.08683543 0.7800397 -0.6196755
vn 0.08683543 0.7800397 -0.6196755
vn 0.08683543 0.7800397 -0.6196755
vn 0.08683543 0.7800397 -0.6196755
vn 0.08683543 0.7800397 -0.6196755
vn 0.7199041 0.6129863 -0.3255546
vn 0.7199041 0.6129863 -0.3255546
vn 0.7199041 0.6129863 -0.3255546
vn 0.7199041 0.6129863 -0.3255546
vn 0.7199041 0.6129863 -0.3255546
vn 0.7199041 0.6129863 -0.3255546
vn 0.201491 0.8031921 0.5606102
vn 0.201491 0.8031921 0.5606102
vn 0.201491 0.8031921 0.5606102
vn 0.201491 0.8031921 0.5606102
vn 0.201491 0.8031921 0.5606102
vn 0.201491 0.8031921 0.5606102
vn 0.201491 0.8031921 0.5606102
vn 0.201491 0.8031921 0.5606102
vn 0.201491 0.8031921 0.5606102
vn 0.6968749 -0.717186 -0.003116549
vn 0.6968749 -0.717186 -0.003116549
vn 0.6968749 -0.717186 -0.003116549
vn -0.4677119 -0.2840241 0.8370042
vn -0.4677119 -0.2840241 0.8370042
vn -0.4677119 -0.2840241 0.8370042
vn -0.4677119 -0.2840241 0.8370042
vn -0.4677119 -0.2840241 0.8370042
vn -0.4677119 -0.2840241 0.8370042
vn -0.4677119 -0.2840241 0.8370042
vn -0.4677119 -0.2840241 0.8370042
vn -0.4677119 -0.2840241 0.8370042
vn 0.3577531 -0.008081274 -0.9337813
vn 0.3577531 -0.008081274 -0.9337813
vn 0.3577531 -0.008081274 -0.9337813
vn 0.3577531 -0.008081274 -0.9337813
vn 0.3577531 -0.008081274 -0.9337813
vn 0.3577531 -0.008081274 -0.9337813
vn 0.3577531 -0.008081274 -0.9337813
vn 0.3577531 -0.008081274 -0.9337813
vn 0.3577531 -0.008081274 -0.9337813
vn 0.3577531 -0.008081274 -0.9337813
vn 0.3577531 -0.008081274 -0.9337813
vn 0.3577531 -0.008081274 -0.9337813

vt 0.4137884 0.5352767
vt 0.409779 0.5318866
vt 0.6218864 0.4585345
vt 0.6218864 0.4585345
vt 0.409779 0.5318866
vt 0.625025 0.3963305
vt 0.3156581 0.447433
vt 0.3523388 0.4175091
vt 0.3168688 0.484435
vt 0.3168688 0.484435
vt 0.3523388 0.4175091
vt 0.5640876 0.5405853
vt 0.5640876 0.5405853
vt 0.3523388 0.4175091
vt 0.5032806 0.4282894
vt 0.5032806 0.4282894
vt 0.3523388 0.4175091
vt 0.4995646 0.4258679
vt 0.6033714 0.486456
vt 0.5248318 0.5882139
vt 0.5902116 0.4251228
vt 0.5902116 0.4251228
vt 0.5248318 0.5882139
vt 0.4120096 0.4792288
vt 0.4120096 0.4792288
vt 0.5248318 0.5882139
vt 0.4738457 0.5898903
vt 0.4864048 0.4442106
vt 0.5139165 0.3983515
vt 0.4851754 0.5083424
vt 0.4851754 0.5083424
vt 0.5139165 0.3983515
vt 0.5786351 0.4474702
vt 0.5786351 0.4474702
vt 0.5139165 0.3983515
vt 0.5379357 0.3818762
vt 0.7748771 0.6558942
vt 0.616019 0.6840671
vt 0.7701274 0.5813034
vt 0.7701274 0.5813034
vt 0.616019 0.6840671
vt 0.3738993 0.2786933
vt 0.3738993 0.2786933
vt 0.616019 0.6840671
vt 0.3068709 0.362183
vt 0.3068709 0.362183
vt 0.616019 0.6840671
vt 0.4082656 0.6288388
vt 0.5330089 0.4529837
vt 0.3471699 0.5458474
vt 0.4921651 0.2986053
vt 0.4921651 0.2986053
vt 0.3471699 0.5458474
vt 0.4728259 0.2963375
vt 0.4728259 0.2963375
vt 0.3471699 0.5458474
vt 0.3712775 0.3871289
vt 0.3914689 0.3772474
vt 0.4714102 0.3259494
vt 0.4705627 0.4836154
vt 0.4705627 0.4836154
vt 0.4714102 0.3259494
vt 0.6188689 0.4392512
vt 0.4510233 0.5052504
vt 0.4349112 0.4173461
vt 0.469366 0.50729
vt 0.469366 0.50729
vt 0.4349112 0.4173461
vt 0.5547463 0.4404107
vt 0.5547463 0.4404107
vt 0.4349112 0.4173461
vt 0.4898601 0.3941605
vt 0.6484202 0.4769377
vt 0.6400381 0.5119746
vt 0.5495588 0.4876388
vt 0.2149107 0.6306549
vt 0.6247456 0.2467391
vt 0.4757968 0.6570584
vt 0.4757968 0.6570584
vt 0.6247456 0.2467391
vt 0.7045612 0.3504063
vt 0.7045612 0.3504063
vt 0.6247456 0.2467391
vt 0.6977345 0.2998393
vt 0.5351323 0.3183729
vt 0.660807 0.3842138
vt 0.4299145 0.4345479
vt 0.4299145 0.4345479
vt 0.660807 0.3842138
vt 0.4601737 0.6065147
vt 0.4601737 0.6065147
vt 0.660807 0.3842138
vt 0.5133763 0.6126056
vt 0.5133763 0.6126056
vt 0.660807 0.3842138
vt 0.7280402 0.4586835

usemtl Material0
usemap Material0

usemtl Material1
usemap Material1
f 1/1/1 2/2/2 3/3/3
f 4/4/4 5/5/5 6/6/6
f 7/7/7 8/8/8 9/9/9
f 10/10/10 11/11/11 12/12/12
f 13/13/13 14/14/14 15/15/15
f 16/16/16 17/17/17 18/18/18
f 19/19/19 20/20/20 21/21/21
f 22/22/22 23/23/23 24/24/24
f 25/25/25 26/26/26 27/27/27
f 28/28/28 29/29/29 30/30/30
f 31/31/31 32/32/32 33/33/33
f 34/34/34 35/35/35 36/36/36
f 37/37/37 38/38/38 39/39/39
f 40/40/40 41/41/41 42/42/42
f 43/43/43 44/44/44 45/45/45
f 46/46/46 47/47/47 48/48/48
f 49/49/49 50/50/50 51/51/51
f 52/52/52 53/53/53 54/54/54
f 55/55/55 56/56/56 57/57/57
f 58/58/58 59/59/59 60/60/60
f 61/61/61 62/62/62 63/63/63
f 64/64/64 65/65/65 66/66/66
f 67/67/67 68/68/68 69/69/69
f 70/70/70 71/71/71 72/72/72
f 73/73/73 74/74/74 75/75/75
f 76/76/76 77/77/77 78/78/78
f 79/79/79 80/80/80 81/81/81
f 82/82/82 83/83/83 84/84/84
f 85/85/85 86/86/86 87/87/87
f 88/88/88 89/89/89 90/90/90
f 91/91/91 92/92/92 93/93/93
f 94/94/94 95/95/95 96/96/96
