g  Instance
v -5.472695 -45.8683 -2.152131
v -5.88941 -44.77585 -2.124558
v -5.03374 -45.92358 -2.69123
v -5.03374 -45.92358 -2.69123
v -5.88941 -44.77585 -2.124558
v -4.444335 -45.43548 -3.676918
v -4.444335 -45.43548 -3.676918
v -5.88941 -44.77585 -2.124558
v -5.76567 -44.29548 -2.507442
v -4.147375 -45.522 -3.762094
v -3.379018 -45.21267 -3.424298
v -3.40548 -46.52559 -3.000287
v -3.40548 -46.52559 -3.000287
v -3.379018 -45.21267 -3.424298
v -2.767512 -46.47719 -2.650089
v -2.767512 -46.47719 -2.650089
v -3.379018 -45.21267 -3.424298
v -3.252638 -45.26493 -3.334237
v -5.217472 -44.06913 -1.986055
v -5.446467 -44.09147 -2.288063
v -5.06717 -44.68563 -1.051852
v -5.06717 -44.68563 -1.051852
v -5.446467 -44.09147 -2.288063
v -5.76788 -44.99059 -1.700052
v -5.76788 -44.99059 -1.700052
v -5.446467 -44.09147 -2.288063
v -5.88941 -44.77585 -2.124558
v -5.88941 -44.77585 -2.124558
v -5.446467 -44.09147 -2.288063
v -5.76567 -44.29548 -2.507442
v -4.429167 -44.74299 -0.6143521
v -3.96267 -44.70404 -0.4059601
v -5.06717 -44.68563 -1.051852
v -5.06717 -44.68563 -1.051852
v -3.96267 -44.70404 -0.4059601
v -5.217472 -44.06913 -1.986055
v -5.217472 -44.06913 -1.986055
v -3.96267 -44.70404 -0.4059601
v -3.579679 -44.09092 -1.035915
v -3.579679 -44.09092 -1.035915
v -3.96267 -44.70404 -0.4059601
v -3.558342 -44.0974 -1.014998
v -3.867468 -44.99839 -0.3225547
v -4.429167 -44.74299 -0.6143521
v -3.706142 -45.17373 -0.2852306
v -3.706142 -45.17373 -0.2852306
v -4.429167 -44.74299 -0.6143521
v -3.661021 -45.22912 -0.2776823
v -3.661021 -45.22912 -0.2776823
v -4.429167 -44.74299 -0.6143521
v -3.589058 -46.34166 -0.7324247
v -3.589058 -46.34166 -0.7324247
v -4.429167 -44.74299 -0.6143521
v -4.933677 -46.46846 -1.767367
v -4.933677 -46.46846 -1.767367
v -4.429167 -44.74299 -0.6143521
v -5.372776 -46.06921 -1.904503
v -5.372776 -46.06921 -1.904503
v -4.429167 -44.74299 -0.6143521
v -5.76788 -44.99059 -1.700052
v -5.76788 -44.99059 -1.700052
v -4.429167 -44.74299 -0.6143521
v -5.06717 -44.68563 -1.051852
v -2.781053 -44.64998 -1.024437
v -3.040336 -44.30482 -0.6293396
v -2.568766 -46.40417 -1.847383
v -2.568766 -46.40417 -1.847383
v -3.040336 -44.30482 -0.6293396
v -3.589058 -46.34166 -0.7324247
v -3.589058 -46.34166 -0.7324247
v -3.040336 -44.30482 -0.6293396
v -3.661021 -45.22912 -0.2776823
v -3.661021 -45.22912 -0.2776823
v -3.040336 -44.30482 -0.6293396
v -3.649163 -45.1768 -0.2726398
v -3.649163 -45.1768 -0.2726398
v -3.040336 -44.30482 -0.6293396
v -3.530051 -44.73629 -0.2508141
v -3.661021 -45.22912 -0.2776823
v -3.649163 -45.1768 -0.2726398
v -3.706142 -45.17373 -0.2852306
v -4.147375 -45.522 -3.762094
v -3.40548 -46.52559 -3.000287
v -4.444335 -45.43548 -3.676918
v -4.444335 -45.43548 -3.676918
v -3.40548 -46.52559 -3.000287
v -5.03374 -45.92358 -2.69123
v -5.03374 -45.92358 -2.69123
v -3.40548 -46.52559 -3.000287
v -4.525566 -46.50116 -2.305373
v -5.76567 -44.29548 -2.507442
v -5.446467 -44.09147 -2.288063
v -4.444335 -45.43548 -3.676918
v -4.444335 -45.43548 -3.676918
v -5.446467 -44.09147 -2.288063
v -4.147375 -45.522 -3.762094
v -4.147375 -45.522 -3.762094
v -5.446467 -44.09147 -2.288063
v -3.379018 -45.21267 -3.424298
v -3.379018 -45.21267 -3.424298
v -5.446467 -44.09147 -2.288063
v -4.174315 -44.23877 -2.419161
v -4.174315 -44.23877 -2.419161
v -3.579679 -44.09092 -1.035915
v -3.379018 -45.21267 -3.424298
v -3.379018 -45.21267 -3.424298
v -3.579679 -44.09092 -1.035915
v -3.252638 -45.26493 -3.334237
v -3.252638 -45.26493 -3.334237
v -3.579679 -44.09092 -1.035915
v -2.781053 -44.64998 -1.024437
v -2.781053 -44.64998 -1.024437
v -3.579679 -44.09092 -1.035915
v -3.040336 -44.30482 -0.6293396
v -3.040336 -44.30482 -0.6293396
v -3.579679 -44.09092 -1.035915
v -3.558342 -44.0974 -1.014998
v -5.217472 -44.06913 -1.986055
v -3.579679 -44.09092 -1.035915
v -5.446467 -44.09147 -2.288063
v -5.446467 -44.09147 -2.288063
v -3.579679 -44.09092 -1.035915
v -4.174315 -44.23877 -2.419161
v -4.933677 -46.46846 -1.767367
v -4.525566 -46.50116 -2.305373
v -3.589058 -46.34166 -0.7324247
v -3.589058 -46.34166 -0.7324247
v -4.525566 -46.50116 -2.305373
v -2.568766 -46.40417 -1.847383
v -2.568766 -46.40417 -1.847383
v -4.525566 -46.50116 -2.305373
v -2.767512 -46.47719 -2.650089
v -2.767512 -46.47719 -2.650089
v -4.525566 -46.50116 -2.305373
v -3.40548 -46.52559 -3.000287
v -2.568766 -46.40417 -1.847383
v -2.767512 -46.47719 -2.650089
v -2.781053 -44.64998 -1.024437
v -2.781053 -44.64998 -1.024437
v -2.767512 -46.47719 -2.650089
v -3.252638 -45.26493 -3.334237
v -4.933677 -46.46846 -1.767367
v -5.372776 -46.06921 -1.904503
v -4.525566 -46.50116 -2.305373
v -4.525566 -46.50116 -2.305373
v -5.372776 -46.06921 -1.904503
v -5.03374 -45.92358 -2.69123
v -5.03374 -45.92358 -2.69123
v -5.372776 -46.06921 -1.904503
v -5.472695 -45.8683 -2.152131
v -3.649163 -45.1768 -0.2726398
v -3.530051 -44.73629 -0.2508141
v -3.706142 -45.17373 -0.2852306
v -3.706142 -45.17373 -0.2852306
v -3.530051 -44.73629 -0.2508141
v -3.867468 -44.99839 -0.3225547
v -3.867468 -44.99839 -0.3225547
v -3.530051 -44.73629 -0.2508141
v -3.733953 -44.74496 -0.2956727
v -3.867468 -44.99839 -0.3225547
v -3.733953 -44.74496 -0.2956727
v -4.429167 -44.74299 -0.6143521
v -4.429167 -44.74299 -0.6143521
v -3.733953 -44.74496 -0.2956727
v -3.96267 -44.70404 -0.4059601
v -5.372776 -46.06921 -1.904503
v -5.76788 -44.99059 -1.700052
v -5.472695 -45.8683 -2.152131
v -5.472695 -45.8683 -2.152131
v -5.76788 -44.99059 -1.700052
v -5.88941 -44.77585 -2.124558
v -3.530051 -44.73629 -0.2508141
v -3.040336 -44.30482 -0.6293396
v -3.733953 -44.74496 -0.2956727
v -3.733953 -44.74496 -0.2956727
v -3.040336 -44.30482 -0.6293396
v -3.96267 -44.70404 -0.4059601
v -3.96267 -44.70404 -0.4059601
v -3.040336 -44.30482 -0.6293396
v -3.558342 -44.0974 -1.014998

vn -0.7592192 -0.2747114 -0.590017
vn -0.7592192 -0.2747114 -0.590017
vn -0.7592192 -0.2747114 -0.590017
vn -0.7592192 -0.2747114 -0.590017
vn -0.7592192 -0.2747114 -0.590017
vn -0.7592192 -0.2747114 -0.590017
vn -0.7592192 -0.2747114 -0.590017
vn -0.7592192 -0.2747114 -0.590017
vn -0.7592192 -0.2747114 -0.590017
vn 0.4783002 -0.2786063 -0.832831
vn 0.4783002 -0.2786063 -0.832831
vn 0.4783002 -0.2786063 -0.832831
vn 0.4783002 -0.2786063 -0.832831
vn 0.4783002 -0.2786063 -0.832831
vn 0.4783002 -0.2786063 -0.832831
vn 0.4783002 -0.2786063 -0.832831
vn 0.4783002 -0.2786063 -0.832831
vn 0.4783002 -0.2786063 -0.832831
vn -0.682018 0.5551542 0.4760833
vn -0.682018 0.5551542 0.4760833
vn -0.682018 0.5551542 0.4760833
vn -0.682018 0.5551542 0.4760833
vn -0.682018 0.5551542 0.4760833
vn -0.682018 0.5551542 0.4760833
vn -0.682018 0.5551542 0.4760833
vn -0.682018 0.5551542 0.4760833
vn -0.682018 0.5551542 0.4760833
vn -0.682018 0.5551542 0.4760833
vn -0.682018 0.5551542 0.4760833
vn -0.682018 0.5551542 0.4760833
vn -0.3132961 0.7686721 0.5576637
vn -0.3132961 0.7686721 0.5576637
vn -0.3132961 0.7686721 0.5576637
vn -0.3132961 0.7686721 0.5576637
vn -0.3132961 0.7686721 0.5576637
vn -0.3132961 0.7686721 0.5576637
vn -0.3132961 0.7686721 0.5576637
vn -0.3132961 0.7686721 0.5576637
vn -0.3132961 0.7686721 0.5576637
vn -0.3132961 0.7686721 0.5576637
vn -0.3132961 0.7686721 0.5576637
vn -0.3132961 0.7686721 0.5576637
vn -0.5515814 -0.3459209 0.7590104
vn -0.5515814 -0.3459209 0.7590104
vn -0.5515814 -0.3459209 0.7590104
vn -0.5515814 -0.3459209 0.7590104
vn -0.5515814 -0.3459209 0.7590104
vn -0.5515814 -0.3459209 0.7590104
vn -0.5515814 -0.3459209 0.7590104
vn -0.5515814 -0.3459209 0.7590104
vn -0.5515814 -0.3459209 0.7590104
vn -0.5515814 -0.3459209 0.7590104
vn -0.5515814 -0.3459209 0.7590104
vn -0.5515814 -0.3459209 0.7590104
vn -0.5515814 -0.3459209 0.7590104
vn -0.5515814 -0.3459209 0.7590104
vn -0.5515814 -0.3459209 0.7590104
vn -0.5515814 -0.3459209 0.7590104
vn -0.5515814 -0.3459209 0.7590104
vn -0.5515814 -0.3459209 0.7590104
vn -0.5515814 -0.3459209 0.7590104
vn -0.5515814 -0.3459209 0.7590104
vn -0.5515814 -0.3459209 0.7590104
vn 0.7123858 -0.2255449 0.664557
vn 0.7123858 -0.2255449 0.664557
vn 0.7123858 -0.2255449 0.664557
vn 0.7123858 -0.2255449 0.664557
vn 0.7123858 -0.2255449 0.664557
vn 0.7123858 -0.2255449 0.664557
vn 0.7123858 -0.2255449 0.664557
vn 0.7123858 -0.2255449 0.664557
vn 0.7123858 -0.2255449 0.664557
vn 0.7123858 -0.2255449 0.664557
vn 0.7123858 -0.2255449 0.664557
vn 0.7123858 -0.2255449 0.664557
vn 0.7123858 -0.2255449 0.664557
vn 0.7123858 -0.2255449 0.664557
vn 0.7123858 -0.2255449 0.664557
vn -0.2178418 -0.04460128 0.9749644
vn -0.2178418 -0.04460128 0.9749644
vn -0.2178418 -0.04460128 0.9749644
vn -0.3768784 -0.720483 -0.5821228
vn -0.3768784 -0.720483 -0.5821228
vn -0.3768784 -0.720483 -0.5821228
vn -0.3768784 -0.720483 -0.5821228
vn -0.3768784 -0.720483 -0.5821228
vn -0.3768784 -0.720483 -0.5821228
vn -0.3768784 -0.720483 -0.5821228
vn -0.3768784 -0.720483 -0.5821228
vn -0.3768784 -0.720483 -0.5821228
vn 0.01255079 0.7230632 -0.6906679
vn 0.01255079 0.7230632 -0.6906679
vn 0.01255079 0.7230632 -0.6906679
vn 0.01255079 0.7230632 -0.6906679
vn 0.01255079 0.7230632 -0.6906679
vn 0.01255079 0.7230632 -0.6906679
vn 0.01255079 0.7230632 -0.6906679
vn 0.01255079 0.7230632 -0.6906679
vn 0.01255079 0.7230632 -0.6906679
vn 0.01255079 0.7230632 -0.6906679
vn 0.01255079 0.7230632 -0.6906679
vn 0.01255079 0.7230632 -0.6906679
vn 0.5467878 0.7745846 -0.3178709
vn 0.5467878 0.7745846 -0.3178709
vn 0.5467878 0.7745846 -0.3178709
vn 0.5467878 0.7745846 -0.3178709
vn 0.5467878 0.7745846 -0.3178709
vn 0.5467878 0.7745846 -0.3178709
vn 0.5467878 0.7745846 -0.3178709
vn 0.5467878 0.7745846 -0.3178709
vn 0.5467878 0.7745846 -0.3178709
vn 0.5467878 0.7745846 -0.3178709
vn 0.5467878 0.7745846 -0.3178709
vn 0.5467878 0.7745846 -0.3178709
vn 0.5467878 0.7745846 -0.3178709
vn 0.5467878 0.7745846 -0.3178709
vn 0.5467878 0.7745846 -0.3178709
vn 0.09873327 0.9841022 -0.1476303
vn 0.09873327 0.9841022 -0.1476303
vn 0.09873327 0.9841022 -0.1476303
vn 0.09873327 0.9841022 -0.1476303
vn 0.09873327 0.9841022 -0.1476303
vn 0.09873327 0.9841022 -0.1476303
vn 0.02989349 -0.9960843 0.08320302
vn 0.02989349 -0.9960843 0.08320302
vn 0.02989349 -0.9960843 0.08320302
vn 0.02989349 -0.9960843 0.08320302
vn 0.02989349 -0.9960843 0.08320302
vn 0.02989349 -0.9960843 0.08320302
vn 0.02989349 -0.9960843 0.08320302
vn 0.02989349 -0.9960843 0.08320302
vn 0.02989349 -0.9960843 0.08320302
vn 0.02989349 -0.9960843 0.08320302
vn 0.02989349 -0.9960843 0.08320302
vn 0.02989349 -0.9960843 0.08320302
vn 0.9389176 0.2326188 -0.2536185
vn 0.9389176 0.2326188 -0.2536185
vn 0.9389176 0.2326188 -0.2536185
vn 0.9389176 0.2326188 -0.2536185
vn 0.9389176 0.2326188 -0.2536185
vn 0.9389176 0.2326188 -0.2536185
vn -0.5559848 -0.7409257 -0.3767094
vn -0.5559848 -0.7409257 -0.3767094
vn -0.5559848 -0.7409257 -0.3767094
vn -0.5559848 -0.7409257 -0.3767094
vn -0.5559848 -0.7409257 -0.3767094
vn -0.5559848 -0.7409257 -0.3767094
vn -0.5559848 -0.7409257 -0.3767094
vn -0.5559848 -0.7409257 -0.3767094
vn -0.5559848 -0.7409257 -0.3767094
vn -0.2152361 0.009774012 0.9765132
vn -0.2152361 0.009774012 0.9765132
vn -0.2152361 0.009774012 0.9765132
vn -0.2152361 0.009774012 0.9765132
vn -0.2152361 0.009774012 0.9765132
vn -0.2152361 0.009774012 0.9765132
vn -0.2152361 0.009774012 0.9765132
vn -0.2152361 0.009774012 0.9765132
vn -0.2152361 0.009774012 0.9765132
vn -0.4132909 0.1220442 0.9023834
vn -0.4132909 0.1220442 0.9023834
vn -0.4132909 0.1220442 0.9023834
vn -0.4132909 0.1220442 0.9023834
vn -0.4132909 0.1220442 0.9023834
vn -0.4132909 0.1220442 0.9023834
vn -0.9301701 -0.3569874 0.08569437
vn -0.9301701 -0.3569874 0.08569437
vn -0.9301701 -0.3569874 0.08569437
vn -0.9301701 -0.3569874 0.08569437
vn -0.9301701 -0.3569874 0.08569437
vn -0.9301701 -0.3569874 0.08569437
vn -0.171824 0.7526361 0.635622
vn -0.171824 0.7526361 0.635622
vn -0.171824 0.7526361 0.635622
vn -0.171824 0.7526361 0.635622
vn -0.171824 0.7526361 0.635622
vn -0.171824 0.7526361 0.635622
vn -0.171824 0.7526361 0.635622
vn -0.171824 0.7526361 0.635622
vn -0.171824 0.7526361 0.635622

vt 0.5087196 0.3256048
vt 0.6357819 0.3218934
vt 0.4868425 0.3981746
vt 0.4868425 0.3981746
vt 0.6357819 0.3218934
vt 0.5149316 0.5308622
vt 0.5149316 0.5308622
vt 0.6357819 0.3218934
vt 0.6802999 0.3734382
vt 0.5671424 0.6263242
vt 0.4634613 0.5295769
vt 0.6454213 0.4081352
vt 0.6454213 0.4081352
vt 0.4634613 0.5295769
vt 0.5878926 0.3078395
vt 0.5878926 0.3078395
vt 0.4634613 0.5295769
vt 0.4605369 0.5037789
vt 0.4987124 0.5252182
vt 0.4825584 0.5594822
vt 0.460467 0.4192135
vt 0.460467 0.4192135
vt 0.4825584 0.5594822
vt 0.3927262 0.4927612
vt 0.3927262 0.4927612
vt 0.4825584 0.5594822
vt 0.4016904 0.5409299
vt 0.4016904 0.5409299
vt 0.4825584 0.5594822
vt 0.44666 0.5843768
vt 0.4489743 0.358481
vt 0.4961978 0.3319379
vt 0.3888053 0.4142029
vt 0.3888053 0.4142029
vt 0.4961978 0.3319379
vt 0.3986914 0.5331812
vt 0.3986914 0.5331812
vt 0.4961978 0.3319379
vt 0.558155 0.4121726
vt 0.558155 0.4121726
vt 0.4961978 0.3319379
vt 0.5599898 0.4095089
vt 0.5484691 0.2851941
vt 0.6178537 0.3456006
vt 0.5168968 0.2774686
vt 0.5168968 0.2774686
vt 0.6178537 0.3456006
vt 0.5073413 0.2759086
vt 0.5073413 0.2759086
vt 0.6178537 0.3456006
vt 0.3751519 0.3700482
vt 0.3751519 0.3700482
vt 0.6178537 0.3456006
vt 0.4569559 0.5842836
vt 0.4569559 0.5842836
vt 0.6178537 0.3456006
vt 0.5339868 0.6126708
vt 0.5339868 0.6126708
vt 0.6178537 0.3456006
vt 0.6854408 0.5703509
vt 0.6854408 0.5703509
vt 0.6178537 0.3456006
vt 0.6700924 0.4361685
vt 0.394873 0.3985005
vt 0.3654194 0.3364083
vt 0.5837388 0.527826
vt 0.5837388 0.527826
vt 0.3654194 0.3364083
vt 0.6129083 0.3526042
vt 0.6129083 0.3526042
vt 0.3654194 0.3364083
vt 0.4908985 0.2811427
vt 0.4908985 0.2811427
vt 0.3654194 0.3364083
vt 0.4846213 0.2803511
vt 0.4846213 0.2803511
vt 0.3654194 0.3364083
vt 0.4310834 0.2769191
vt 0.5143915 0.4062539
vt 0.5191134 0.4051596
vt 0.5193369 0.4104123
vt 0.5339123 0.5616056
vt 0.4127686 0.4604903
vt 0.5666395 0.5502992
vt 0.5666395 0.5502992
vt 0.4127686 0.4604903
vt 0.5985844 0.4194696
vt 0.5985844 0.4194696
vt 0.4127686 0.4604903
vt 0.5210971 0.3682553
vt 0.2447135 0.3957158
vt 0.2830147 0.3589094
vt 0.4074274 0.5919486
vt 0.4074274 0.5919486
vt 0.2830147 0.3589094
vt 0.4436378 0.6062353
vt 0.4436378 0.6062353
vt 0.2830147 0.3589094
vt 0.5362127 0.5495541
vt 0.5362127 0.5495541
vt 0.2830147 0.3589094
vt 0.4376726 0.3809029
vt 0.4056625 0.4522759
vt 0.4427297 0.3172553
vt 0.5177816 0.5504016
vt 0.5177816 0.5504016
vt 0.4427297 0.3172553
vt 0.530131 0.5416098
vt 0.530131 0.5416098
vt 0.4427297 0.3172553
vt 0.5329623 0.3161331
vt 0.5329623 0.3161331
vt 0.4427297 0.3172553
vt 0.4949312 0.2775664
vt 0.4949312 0.2775664
vt 0.4427297 0.3172553
vt 0.4446902 0.3152157
vt 0.3532375 0.417402
vt 0.4980186 0.332166
vt 0.3332185 0.44449
vt 0.3332185 0.44449
vt 0.4980186 0.332166
vt 0.4468323 0.4562528
vt 0.6134951 0.4205453
vt 0.5776665 0.46809
vt 0.4948148 0.3290926
vt 0.4948148 0.3290926
vt 0.5776665 0.46809
vt 0.4051736 0.4276188
vt 0.4051736 0.4276188
vt 0.5776665 0.46809
vt 0.4228643 0.4985541
vt 0.4228643 0.4985541
vt 0.5776665 0.46809
vt 0.479145 0.5295024
vt 0.6210389 0.40061
vt 0.6231344 0.4758947
vt 0.4619479 0.3234254
vt 0.4619479 0.3234254
vt 0.6231344 0.4758947
vt 0.5058045 0.5400544
vt 0.5289017 0.3522084
vt 0.5848657 0.3662297
vt 0.4961186 0.4072272
vt 0.4961186 0.4072272
vt 0.5848657 0.3662297
vt 0.5674497 0.4466879
vt 0.5674497 0.4466879
vt 0.5848657 0.3662297
vt 0.6038557 0.3915527
vt 0.5098186 0.4054483
vt 0.5493911 0.3944911
vt 0.510098 0.4106917
vt 0.510098 0.4106917
vt 0.5493911 0.3944911
vt 0.5258842 0.4255373
vt 0.5258842 0.4255373
vt 0.5493911 0.3944911
vt 0.548646 0.4132529
vt 0.5059163 0.3876085
vt 0.5297678 0.3734755
vt 0.5340706 0.4470511
vt 0.5340706 0.4470511
vt 0.5297678 0.3734755
vt 0.5351044 0.3976809
vt 0.4905818 0.4383385
vt 0.5917483 0.4202612
vt 0.5102564 0.4602295
vt 0.5102564 0.4602295
vt 0.5917483 0.4202612
vt 0.6132436 0.4577895
vt 0.5308948 0.3168595
vt 0.5960791 0.3725907
vt 0.508077 0.3234627
vt 0.508077 0.3234627
vt 0.5960791 0.3725907
vt 0.4837691 0.3397005
vt 0.4837691 0.3397005
vt 0.5960791 0.3725907
vt 0.5439149 0.4293744

usemtl Material0
usemap Material0

usemtl Material1
usemap Material1
f 1/1/1 2/2/2 3/3/3
f 4/4/4 5/5/5 6/6/6
f 7/7/7 8/8/8 9/9/9
f 10/10/10 11/11/11 12/12/12
f 13/13/13 14/14/14 15/15/15
f 16/16/16 17/17/17 18/18/18
f 19/19/19 20/20/20 21/21/21
f 22/22/22 23/23/23 24/24/24
f 25/25/25 26/26/26 27/27/27
f 28/28/28 29/29/29 30/30/30
f 31/31/31 32/32/32 33/33/33
f 34/34/34 35/35/35 36/36/36
f 37/37/37 38/38/38 39/39/39
f 40/40/40 41/41/41 42/42/42
f 43/43/43 44/44/44 45/45/45
f 46/46/46 47/47/47 48/48/48
f 49/49/49 50/50/50 51/51/51
f 52/52/52 53/53/53 54/54/54
f 55/55/55 56/56/56 57/57/57
f 58/58/58 59/59/59 60/60/60
f 61/61/61 62/62/62 63/63/63
f 64/64/64 65/65/65 66/66/66
f 67/67/67 68/68/68 69/69/69
f 70/70/70 71/71/71 72/72/72
f 73/73/73 74/74/74 75/75/75
f 76/76/76 77/77/77 78/78/78
f 79/79/79 80/80/80 81/81/81
f 82/82/82 83/83/83 84/84/84
f 85/85/85 86/86/86 87/87/87
f 88/88/88 89/89/89 90/90/90
f 91/91/91 92/92/92 93/93/93
f 94/94/94 95/95/95 96/96/96
f 97/97/97 98/98/98 99/99/99
f 100/100/100 101/101/101 102/102/102
f 103/103/103 104/104/104 105/105/105
f 106/106/106 107/107/107 108/108/108
f 109/109/109 110/110/110 111/111/111
f 112/112/112 113/113/113 114/114/114
f 115/115/115 116/116/116 117/117/117
f 118/118/118 119/119/119 120/120/120
f 121/121/121 122/122/122 123/123/123
f 124/124/124 125/125/125 126/126/126
f 127/127/127 128/128/128 129/129/129
f 130/130/130 131/131/131 132/132/132
f 133/133/133 134/134/134 135/135/135
f 136/136/136 137/137/137 138/138/138
f 139/139/139 140/140/140 141/141/141
f 142/142/142 143/143/143 144/144/144
f 145/145/145 146/146/146 147/147/147
f 148/148/148 149/149/149 150/150/150
f 151/151/151 152/152/152 153/153/153
f 154/154/154 155/155/155 156/156/156
f 157/157/157 158/158/158 159/159/159
f 160/160/160 161/161/161 162/162/162
f 163/163/163 164/164/164 165/165/165
f 166/166/166 167/167/167 168/168/168
f 169/169/169 170/170/170 171/171/171
f 172/172/172 173/173/173 174/174/174
f 175/175/175 176/176/176 177/177/177
f 178/178/178 179/179/179 180/180/180
