g  Instance
v 3.430721 -50.24746 10.0989
v 3.437702 -50.34974 10.08755
v 3.549611 -50.18262 10.06408
v 3.212882 -49.49934 8.236259
v 3.87793 -49.03867 8.110268
v 3.274204 -50.12316 8.385764
v 3.274204 -50.12316 8.385764
v 3.87793 -49.03867 8.110268
v 3.97796 -50.75708 8.523615
v 3.97796 -50.75708 8.523615
v 3.87793 -49.03867 8.110268
v 4.700492 -49.76524 8.267915
v 5.223871 -48.56927 8.6532
v 3.549611 -50.18262 10.06408
v 5.217058 -48.59073 8.641138
v 5.217058 -48.59073 8.641138
v 3.549611 -50.18262 10.06408
v 4.700492 -49.76524 8.267915
v 4.700492 -49.76524 8.267915
v 3.549611 -50.18262 10.06408
v 3.97796 -50.75708 8.523615
v 3.97796 -50.75708 8.523615
v 3.549611 -50.18262 10.06408
v 3.425927 -50.90877 9.443127
v 3.425927 -50.90877 9.443127
v 3.549611 -50.18262 10.06408
v 3.437702 -50.34974 10.08755
v 3.39503 -50.06687 9.846374
v 4.919236 -48.58237 8.54123
v 3.212882 -49.49934 8.236259
v 3.212882 -49.49934 8.236259
v 4.919236 -48.58237 8.54123
v 3.87793 -49.03867 8.110268
v 4.700492 -49.76524 8.267915
v 3.87793 -49.03867 8.110268
v 5.217058 -48.59073 8.641138
v 5.217058 -48.59073 8.641138
v 3.87793 -49.03867 8.110268
v 5.1835 -48.56742 8.633643
v 5.1835 -48.56742 8.633643
v 3.87793 -49.03867 8.110268
v 4.919236 -48.58237 8.54123
v 3.39503 -50.06687 9.846374
v 3.430721 -50.24746 10.0989
v 4.919236 -48.58237 8.54123
v 4.919236 -48.58237 8.54123
v 3.430721 -50.24746 10.0989
v 5.1835 -48.56742 8.633643
v 5.1835 -48.56742 8.633643
v 3.430721 -50.24746 10.0989
v 5.223871 -48.56927 8.6532
v 5.223871 -48.56927 8.6532
v 3.430721 -50.24746 10.0989
v 3.549611 -50.18262 10.06408
v 5.1835 -48.56742 8.633643
v 5.223871 -48.56927 8.6532
v 5.217058 -48.59073 8.641138
v 3.97796 -50.75708 8.523615
v 3.425927 -50.90877 9.443127
v 3.274204 -50.12316 8.385764
v 3.425927 -50.90877 9.443127
v 3.437702 -50.34974 10.08755
v 3.274204 -50.12316 8.385764
v 3.274204 -50.12316 8.385764
v 3.437702 -50.34974 10.08755
v 3.212882 -49.49934 8.236259
v 3.212882 -49.49934 8.236259
v 3.437702 -50.34974 10.08755
v 3.39503 -50.06687 9.846374
v 3.39503 -50.06687 9.846374
v 3.437702 -50.34974 10.08755
v 3.430721 -50.24746 10.0989

vn 0.3361145 -0.09628943 0.936886
vn 0.3361145 -0.09628943 0.936886
vn 0.3361145 -0.09628943 0.936886
vn -0.02132387 -0.2349898 -0.971764
vn -0.02132387 -0.2349898 -0.971764
vn -0.02132387 -0.2349898 -0.971764
vn -0.02132387 -0.2349898 -0.971764
vn -0.02132387 -0.2349898 -0.971764
vn -0.02132387 -0.2349898 -0.971764
vn -0.02132387 -0.2349898 -0.971764
vn -0.02132387 -0.2349898 -0.971764
vn -0.02132387 -0.2349898 -0.971764
vn 0.7879804 -0.4721437 0.3951803
vn 0.7879804 -0.4721437 0.3951803
vn 0.7879804 -0.4721437 0.3951803
vn 0.7879804 -0.4721437 0.3951803
vn 0.7879804 -0.4721437 0.3951803
vn 0.7879804 -0.4721437 0.3951803
vn 0.7879804 -0.4721437 0.3951803
vn 0.7879804 -0.4721437 0.3951803
vn 0.7879804 -0.4721437 0.3951803
vn 0.7879804 -0.4721437 0.3951803
vn 0.7879804 -0.4721437 0.3951803
vn 0.7879804 -0.4721437 0.3951803
vn 0.7879804 -0.4721437 0.3951803
vn 0.7879804 -0.4721437 0.3951803
vn 0.7879804 -0.4721437 0.3951803
vn -0.4916488 0.8023388 0.338429
vn -0.4916488 0.8023388 0.338429
vn -0.4916488 0.8023388 0.338429
vn -0.4916488 0.8023388 0.338429
vn -0.4916488 0.8023388 0.338429
vn -0.4916488 0.8023388 0.338429
vn 0.3180528 0.1572133 -0.9349473
vn 0.3180528 0.1572133 -0.9349473
vn 0.3180528 0.1572133 -0.9349473
vn 0.3180528 0.1572133 -0.9349473
vn 0.3180528 0.1572133 -0.9349473
vn 0.3180528 0.1572133 -0.9349473
vn 0.3180528 0.1572133 -0.9349473
vn 0.3180528 0.1572133 -0.9349473
vn 0.3180528 0.1572133 -0.9349473
vn -0.2486846 0.7708889 0.5864181
vn -0.2486846 0.7708889 0.5864181
vn -0.2486846 0.7708889 0.5864181
vn -0.2486846 0.7708889 0.5864181
vn -0.2486846 0.7708889 0.5864181
vn -0.2486846 0.7708889 0.5864181
vn -0.2486846 0.7708889 0.5864181
vn -0.2486846 0.7708889 0.5864181
vn -0.2486846 0.7708889 0.5864181
vn -0.2486846 0.7708889 0.5864181
vn -0.2486846 0.7708889 0.5864181
vn -0.2486846 0.7708889 0.5864181
vn 0.4228938 0.3381976 -0.840704
vn 0.4228938 0.3381976 -0.840704
vn 0.4228938 0.3381976 -0.840704
vn -0.5491214 -0.7066416 -0.4462324
vn -0.5491214 -0.7066416 -0.4462324
vn -0.5491214 -0.7066416 -0.4462324
vn -0.9933693 -0.07724544 0.08515038
vn -0.9933693 -0.07724544 0.08515038
vn -0.9933693 -0.07724544 0.08515038
vn -0.9933693 -0.07724544 0.08515038
vn -0.9933693 -0.07724544 0.08515038
vn -0.9933693 -0.07724544 0.08515038
vn -0.9933693 -0.07724544 0.08515038
vn -0.9933693 -0.07724544 0.08515038
vn -0.9933693 -0.07724544 0.08515038
vn -0.9933693 -0.07724544 0.08515038
vn -0.9933693 -0.07724544 0.08515038
vn -0.9933693 -0.07724544 0.08515038

vt 0.9098129 0.1422205
vt 0.9098123 0.1421883
vt 0.9097761 0.1422392
vt 0.5130317 0.5414049
vt 0.4711308 0.4830194
vt 0.5693403 0.5360218
vt 0.5693403 0.5360218
vt 0.4711308 0.4830194
vt 0.6262637 0.4742369
vt 0.6262637 0.4742369
vt 0.4711308 0.4830194
vt 0.536371 0.4108081
vt 0.3997206 0.4548092
vt 0.6141284 0.3080817
vt 0.4018161 0.4560665
vt 0.4018161 0.4560665
vt 0.6141284 0.3080817
vt 0.5234161 0.494866
vt 0.5234161 0.494866
vt 0.6141284 0.3080817
vt 0.6401685 0.4682763
vt 0.6401685 0.4682763
vt 0.6141284 0.3080817
vt 0.6797038 0.3726559
vt 0.6797038 0.3726559
vt 0.6141284 0.3080817
vt 0.6333139 0.3056416
vt 0.3861231 0.3282917
vt 0.5796503 0.4576311
vt 0.3992968 0.4878623
vt 0.3992968 0.4878623
vt 0.5796503 0.4576311
vt 0.4746234 0.5003422
vt 0.5513376 0.4187944
vt 0.4874339 0.4991036
vt 0.438399 0.3683625
vt 0.438399 0.3683625
vt 0.4874339 0.4991036
vt 0.4363873 0.3716408
vt 0.4363873 0.3716408
vt 0.4874339 0.4991036
vt 0.4391674 0.3974388
vt 0.3765349 0.3039931
vt 0.3742066 0.2702182
vt 0.5830497 0.4785489
vt 0.5830497 0.4785489
vt 0.3742066 0.2702182
vt 0.6107942 0.4661901
vt 0.6107942 0.4661901
vt 0.3742066 0.2702182
vt 0.6148921 0.4635731
vt 0.6148921 0.4635731
vt 0.3742066 0.2702182
vt 0.3886237 0.2748748
vt 0.4987171 0.2915691
vt 0.5030385 0.2857156
vt 0.5050688 0.2893245
vt 0.4372488 0.3893874
vt 0.4708608 0.2886353
vt 0.5298889 0.4044937
vt 0.3613029 0.3777038
vt 0.4103052 0.3207385
vt 0.4313162 0.4711728
vt 0.4313162 0.4711728
vt 0.4103052 0.3207385
vt 0.4865165 0.4843791
vt 0.4865165 0.4843791
vt 0.4103052 0.3207385
vt 0.4354374 0.3420522
vt 0.4354374 0.3420522
vt 0.4103052 0.3207385
vt 0.4193345 0.3197327

usemtl Material0
usemap Material0
f 1/1/1 2/2/2 3/3/3

usemtl Material1
usemap Material1
f 4/4/4 5/5/5 6/6/6
f 7/7/7 8/8/8 9/9/9
f 10/10/10 11/11/11 12/12/12
f 13/13/13 14/14/14 15/15/15
f 16/16/16 17/17/17 18/18/18
f 19/19/19 20/20/20 21/21/21
f 22/22/22 23/23/23 24/24/24
f 25/25/25 26/26/26 27/27/27
f 28/28/28 29/29/29 30/30/30
f 31/31/31 32/32/32 33/33/33
f 34/34/34 35/35/35 36/36/36
f 37/37/37 38/38/38 39/39/39
f 40/40/40 41/41/41 42/42/42
f 43/43/43 44/44/44 45/45/45
f 46/46/46 47/47/47 48/48/48
f 49/49/49 50/50/50 51/51/51
f 52/52/52 53/53/53 54/54/54
f 55/55/55 56/56/56 57/57/57
f 58/58/58 59/59/59 60/60/60
f 61/61/61 62/62/62 63/63/63
f 64/64/64 65/65/65 66/66/66
f 67/67/67 68/68/68 69/69/69
f 70/70/70 71/71/71 72/72/72
