g  Instance
v -2.597723 -45.96584 1.310879
v -1.496064 -46.5098 1.374058
v -2.575104 -45.39527 1.22192
v -2.575104 -45.39527 1.22192
v -1.496064 -46.5098 1.374058
v -2.497067 -44.71443 1.114783
v -2.497067 -44.71443 1.114783
v -1.496064 -46.5098 1.374058
v -1.229372 -44.78357 1.101095
v -1.229372 -44.78357 1.101095
v -1.496064 -46.5098 1.374058
v -0.9331961 -45.83 1.257746
v -0.9331961 -45.83 1.257746
v -1.496064 -46.5098 1.374058
v -1.035595 -46.13432 1.306934
v -1.106593 -47.33335 -1.5309
v -1.507656 -47.21007 0.4915743
v -1.960505 -47.0281 -1.801234
v -1.960505 -47.0281 -1.801234
v -1.507656 -47.21007 0.4915743
v -3.556352 -46.47346 -0.6109284
v -3.556352 -46.47346 -0.6109284
v -1.507656 -47.21007 0.4915743
v -3.547105 -46.47733 -0.547189
v -3.547105 -46.47733 -0.547189
v -1.507656 -47.21007 0.4915743
v -2.723389 -46.77985 0.5752761
v -2.723389 -46.77985 0.5752761
v -1.507656 -47.21007 0.4915743
v -1.670589 -47.15478 0.7561309
v -0.4126097 -44.31164 -0.6989232
v 0.1261139 -45.70475 -0.7531711
v -0.4606327 -44.23919 -0.7037752
v -0.4606327 -44.23919 -0.7037752
v 0.1261139 -45.70475 -0.7531711
v -0.9026861 -43.98882 -0.8264306
v -0.9026861 -43.98882 -0.8264306
v 0.1261139 -45.70475 -0.7531711
v -1.347434 -43.8977 -0.9799393
v -1.347434 -43.8977 -0.9799393
v 0.1261139 -45.70475 -0.7531711
v -2.473202 -46.45982 -1.891455
v -2.473202 -46.45982 -1.891455
v 0.1261139 -45.70475 -0.7531711
v -1.960505 -47.0281 -1.801234
v -1.960505 -47.0281 -1.801234
v 0.1261139 -45.70475 -0.7531711
v -1.106593 -47.33335 -1.5309
v -1.106593 -47.33335 -1.5309
v 0.1261139 -45.70475 -0.7531711
v -0.05551607 -47.07785 -1.079944
v -2.017389 -43.91256 -0.8510212
v -2.62149 -43.98378 -0.5978312
v -1.347434 -43.8977 -0.9799393
v -1.347434 -43.8977 -0.9799393
v -2.62149 -43.98378 -0.5978312
v -0.9026861 -43.98882 -0.8264306
v -0.9026861 -43.98882 -0.8264306
v -2.62149 -43.98378 -0.5978312
v -0.5825938 -44.14561 -0.4999712
v -0.5825938 -44.14561 -0.4999712
v -2.62149 -43.98378 -0.5978312
v -1.229372 -44.78357 1.101095
v -1.229372 -44.78357 1.101095
v -2.62149 -43.98378 -0.5978312
v -2.497067 -44.71443 1.114783
v -2.497067 -44.71443 1.114783
v -2.62149 -43.98378 -0.5978312
v -2.962338 -44.38248 0.3938913
v -1.035595 -46.13432 1.306934
v -1.496064 -46.5098 1.374058
v -0.07316584 -47.0779 -1.045431
v -0.07316584 -47.0779 -1.045431
v -1.496064 -46.5098 1.374058
v -1.507656 -47.21007 0.4915743
v -1.507656 -47.21007 0.4915743
v -1.496064 -46.5098 1.374058
v -1.670589 -47.15478 0.7561309
v -0.4606327 -44.23919 -0.7037752
v -0.9026861 -43.98882 -0.8264306
v -0.4478423 -44.2443 -0.6795692
v -0.4478423 -44.2443 -0.6795692
v -0.9026861 -43.98882 -0.8264306
v -0.5825938 -44.14561 -0.4999712
v -2.597723 -45.96584 1.310879
v -3.168439 -46.44895 0.6421676
v -1.496064 -46.5098 1.374058
v -1.496064 -46.5098 1.374058
v -3.168439 -46.44895 0.6421676
v -1.670589 -47.15478 0.7561309
v -1.670589 -47.15478 0.7561309
v -3.168439 -46.44895 0.6421676
v -2.723389 -46.77985 0.5752761
v -3.547105 -46.47733 -0.547189
v -2.723389 -46.77985 0.5752761
v -3.455122 -46.34794 0.234311
v -3.455122 -46.34794 0.234311
v -2.723389 -46.77985 0.5752761
v -3.168439 -46.44895 0.6421676
v -3.589033 -46.34168 -0.7324464
v -3.556352 -46.47346 -0.6109284
v -3.661015 -45.22904 -0.2776971
v -3.661015 -45.22904 -0.2776971
v -3.556352 -46.47346 -0.6109284
v -3.455122 -46.34794 0.234311
v -3.455122 -46.34794 0.234311
v -3.556352 -46.47346 -0.6109284
v -3.547105 -46.47733 -0.547189
v -0.07316584 -47.0779 -1.045431
v -1.507656 -47.21007 0.4915743
v -0.05551607 -47.07785 -1.079944
v -0.05551607 -47.07785 -1.079944
v -1.507656 -47.21007 0.4915743
v -1.106593 -47.33335 -1.5309
v -2.597723 -45.96584 1.310879
v -2.575104 -45.39527 1.22192
v -3.168439 -46.44895 0.6421676
v -3.168439 -46.44895 0.6421676
v -2.575104 -45.39527 1.22192
v -3.455122 -46.34794 0.234311
v -3.455122 -46.34794 0.234311
v -2.575104 -45.39527 1.22192
v -3.661015 -45.22904 -0.2776971
v -3.661015 -45.22904 -0.2776971
v -2.575104 -45.39527 1.22192
v -3.64914 -45.17666 -0.2726472
v -2.781054 -44.64991 -1.0244
v -3.040338 -44.30478 -0.6293343
v -2.017389 -43.91256 -0.8510212
v -2.017389 -43.91256 -0.8510212
v -3.040338 -44.30478 -0.6293343
v -2.62149 -43.98378 -0.5978312
v 0.1261139 -45.70475 -0.7531711
v -0.9331961 -45.83 1.257746
v -0.05551607 -47.07785 -1.079944
v -0.05551607 -47.07785 -1.079944
v -0.9331961 -45.83 1.257746
v -0.07316584 -47.0779 -1.045431
v -0.07316584 -47.0779 -1.045431
v -0.9331961 -45.83 1.257746
v -1.035595 -46.13432 1.306934
v -1.960505 -47.0281 -1.801234
v -3.556352 -46.47346 -0.6109284
v -2.473202 -46.45982 -1.891455
v -2.473202 -46.45982 -1.891455
v -3.556352 -46.47346 -0.6109284
v -2.568764 -46.40416 -1.847373
v -2.568764 -46.40416 -1.847373
v -3.556352 -46.47346 -0.6109284
v -3.589033 -46.34168 -0.7324464
v -2.473202 -46.45982 -1.891455
v -2.568764 -46.40416 -1.847373
v -1.347434 -43.8977 -0.9799393
v -1.347434 -43.8977 -0.9799393
v -2.568764 -46.40416 -1.847373
v -2.017389 -43.91256 -0.8510212
v -2.017389 -43.91256 -0.8510212
v -2.568764 -46.40416 -1.847373
v -2.781054 -44.64991 -1.0244
v -3.040338 -44.30478 -0.6293343
v -2.781054 -44.64991 -1.0244
v -3.530071 -44.73626 -0.2508132
v -3.530071 -44.73626 -0.2508132
v -2.781054 -44.64991 -1.0244
v -3.64914 -45.17666 -0.2726472
v -3.64914 -45.17666 -0.2726472
v -2.781054 -44.64991 -1.0244
v -3.661015 -45.22904 -0.2776971
v -3.661015 -45.22904 -0.2776971
v -2.781054 -44.64991 -1.0244
v -3.589033 -46.34168 -0.7324464
v -3.589033 -46.34168 -0.7324464
v -2.781054 -44.64991 -1.0244
v -2.568764 -46.40416 -1.847373
v -2.497067 -44.71443 1.114783
v -2.962338 -44.38248 0.3938913
v -2.575104 -45.39527 1.22192
v -2.575104 -45.39527 1.22192
v -2.962338 -44.38248 0.3938913
v -3.64914 -45.17666 -0.2726472
v -3.64914 -45.17666 -0.2726472
v -2.962338 -44.38248 0.3938913
v -3.530071 -44.73626 -0.2508132
v -0.4606327 -44.23919 -0.7037752
v -0.4478423 -44.2443 -0.6795692
v -0.4126097 -44.31164 -0.6989232
v -1.229372 -44.78357 1.101095
v -0.9331961 -45.83 1.257746
v -0.5825938 -44.14561 -0.4999712
v -0.5825938 -44.14561 -0.4999712
v -0.9331961 -45.83 1.257746
v -0.4478423 -44.2443 -0.6795692
v -0.4478423 -44.2443 -0.6795692
v -0.9331961 -45.83 1.257746
v -0.4126097 -44.31164 -0.6989232
v -0.4126097 -44.31164 -0.6989232
v -0.9331961 -45.83 1.257746
v 0.1261139 -45.70475 -0.7531711
v -3.040338 -44.30478 -0.6293343
v -3.530071 -44.73626 -0.2508132
v -2.62149 -43.98378 -0.5978312
v -2.62149 -43.98378 -0.5978312
v -3.530071 -44.73626 -0.2508132
v -2.962338 -44.38248 0.3938913

vn 0.01902825 0.1532894 0.9879981
vn 0.01902825 0.1532894 0.9879981
vn 0.01902825 0.1532894 0.9879981
vn 0.01902825 0.1532894 0.9879981
vn 0.01902825 0.1532894 0.9879981
vn 0.01902825 0.1532894 0.9879981
vn 0.01902825 0.1532894 0.9879981
vn 0.01902825 0.1532894 0.9879981
vn 0.01902825 0.1532894 0.9879981
vn 0.01902825 0.1532894 0.9879981
vn 0.01902825 0.1532894 0.9879981
vn 0.01902825 0.1532894 0.9879981
vn 0.01902825 0.1532894 0.9879981
vn 0.01902825 0.1532894 0.9879981
vn 0.01902825 0.1532894 0.9879981
vn -0.3341317 -0.9424853 -0.008810358
vn -0.3341317 -0.9424853 -0.008810358
vn -0.3341317 -0.9424853 -0.008810358
vn -0.3341317 -0.9424853 -0.008810358
vn -0.3341317 -0.9424853 -0.008810358
vn -0.3341317 -0.9424853 -0.008810358
vn -0.3341317 -0.9424853 -0.008810358
vn -0.3341317 -0.9424853 -0.008810358
vn -0.3341317 -0.9424853 -0.008810358
vn -0.3341317 -0.9424853 -0.008810358
vn -0.3341317 -0.9424853 -0.008810358
vn -0.3341317 -0.9424853 -0.008810358
vn -0.3341317 -0.9424853 -0.008810358
vn -0.3341317 -0.9424853 -0.008810358
vn -0.3341317 -0.9424853 -0.008810358
vn 0.3527393 0.1722212 -0.9197363
vn 0.3527393 0.1722212 -0.9197363
vn 0.3527393 0.1722212 -0.9197363
vn 0.3527393 0.1722212 -0.9197363
vn 0.3527393 0.1722212 -0.9197363
vn 0.3527393 0.1722212 -0.9197363
vn 0.3527393 0.1722212 -0.9197363
vn 0.3527393 0.1722212 -0.9197363
vn 0.3527393 0.1722212 -0.9197363
vn 0.3527393 0.1722212 -0.9197363
vn 0.3527393 0.1722212 -0.9197363
vn 0.3527393 0.1722212 -0.9197363
vn 0.3527393 0.1722212 -0.9197363
vn 0.3527393 0.1722212 -0.9197363
vn 0.3527393 0.1722212 -0.9197363
vn 0.3527393 0.1722212 -0.9197363
vn 0.3527393 0.1722212 -0.9197363
vn 0.3527393 0.1722212 -0.9197363
vn 0.3527393 0.1722212 -0.9197363
vn 0.3527393 0.1722212 -0.9197363
vn 0.3527393 0.1722212 -0.9197363
vn 0.05436387 0.9198513 0.3884821
vn 0.05436387 0.9198513 0.3884821
vn 0.05436387 0.9198513 0.3884821
vn 0.05436387 0.9198513 0.3884821
vn 0.05436387 0.9198513 0.3884821
vn 0.05436387 0.9198513 0.3884821
vn 0.05436387 0.9198513 0.3884821
vn 0.05436387 0.9198513 0.3884821
vn 0.05436387 0.9198513 0.3884821
vn 0.05436387 0.9198513 0.3884821
vn 0.05436387 0.9198513 0.3884821
vn 0.05436387 0.9198513 0.3884821
vn 0.05436387 0.9198513 0.3884821
vn 0.05436387 0.9198513 0.3884821
vn 0.05436387 0.9198513 0.3884821
vn 0.05436387 0.9198513 0.3884821
vn 0.05436387 0.9198513 0.3884821
vn 0.05436387 0.9198513 0.3884821
vn 0.5908056 -0.6357623 0.4967446
vn 0.5908056 -0.6357623 0.4967446
vn 0.5908056 -0.6357623 0.4967446
vn 0.5908056 -0.6357623 0.4967446
vn 0.5908056 -0.6357623 0.4967446
vn 0.5908056 -0.6357623 0.4967446
vn 0.5908056 -0.6357623 0.4967446
vn 0.5908056 -0.6357623 0.4967446
vn 0.5908056 -0.6357623 0.4967446
vn 0.5093327 0.8560304 -0.08827331
vn 0.5093327 0.8560304 -0.08827331
vn 0.5093327 0.8560304 -0.08827331
vn 0.5093327 0.8560304 -0.08827331
vn 0.5093327 0.8560304 -0.08827331
vn 0.5093327 0.8560304 -0.08827331
vn -0.3385296 -0.6015751 0.7235366
vn -0.3385296 -0.6015751 0.7235366
vn -0.3385296 -0.6015751 0.7235366
vn -0.3385296 -0.6015751 0.7235366
vn -0.3385296 -0.6015751 0.7235366
vn -0.3385296 -0.6015751 0.7235366
vn -0.3385296 -0.6015751 0.7235366
vn -0.3385296 -0.6015751 0.7235366
vn -0.3385296 -0.6015751 0.7235366
vn -0.5652763 -0.8005195 0.1990765
vn -0.5652763 -0.8005195 0.1990765
vn -0.5652763 -0.8005195 0.1990765
vn -0.5652763 -0.8005195 0.1990765
vn -0.5652763 -0.8005195 0.1990765
vn -0.5652763 -0.8005195 0.1990765
vn -0.9836075 -0.1190064 0.1354761
vn -0.9836075 -0.1190064 0.1354761
vn -0.9836075 -0.1190064 0.1354761
vn -0.9836075 -0.1190064 0.1354761
vn -0.9836075 -0.1190064 0.1354761
vn -0.9836075 -0.1190064 0.1354761
vn -0.9836075 -0.1190064 0.1354761
vn -0.9836075 -0.1190064 0.1354761
vn -0.9836075 -0.1190064 0.1354761
vn 0.1951036 -0.975857 0.09817307
vn 0.1951036 -0.975857 0.09817307
vn 0.1951036 -0.975857 0.09817307
vn 0.1951036 -0.975857 0.09817307
vn 0.1951036 -0.975857 0.09817307
vn 0.1951036 -0.975857 0.09817307
vn -0.7971553 0.1237347 0.5909597
vn -0.7971553 0.1237347 0.5909597
vn -0.7971553 0.1237347 0.5909597
vn -0.7971553 0.1237347 0.5909597
vn -0.7971553 0.1237347 0.5909597
vn -0.7971553 0.1237347 0.5909597
vn -0.7971553 0.1237347 0.5909597
vn -0.7971553 0.1237347 0.5909597
vn -0.7971553 0.1237347 0.5909597
vn -0.7971553 0.1237347 0.5909597
vn -0.7971553 0.1237347 0.5909597
vn -0.7971553 0.1237347 0.5909597
vn -0.375223 0.5619403 -0.7371777
vn -0.375223 0.5619403 -0.7371777
vn -0.375223 0.5619403 -0.7371777
vn -0.375223 0.5619403 -0.7371777
vn -0.375223 0.5619403 -0.7371777
vn -0.375223 0.5619403 -0.7371777
vn 0.8685641 -0.2205195 0.4438103
vn 0.8685641 -0.2205195 0.4438103
vn 0.8685641 -0.2205195 0.4438103
vn 0.8685641 -0.2205195 0.4438103
vn 0.8685641 -0.2205195 0.4438103
vn 0.8685641 -0.2205195 0.4438103
vn 0.8685641 -0.2205195 0.4438103
vn 0.8685641 -0.2205195 0.4438103
vn 0.8685641 -0.2205195 0.4438103
vn -0.5963212 -0.6191058 -0.5109882
vn -0.5963212 -0.6191058 -0.5109882
vn -0.5963212 -0.6191058 -0.5109882
vn -0.5963212 -0.6191058 -0.5109882
vn -0.5963212 -0.6191058 -0.5109882
vn -0.5963212 -0.6191058 -0.5109882
vn -0.5963212 -0.6191058 -0.5109882
vn -0.5963212 -0.6191058 -0.5109882
vn -0.5963212 -0.6191058 -0.5109882
vn -0.181761 0.3995274 -0.8985215
vn -0.181761 0.3995274 -0.8985215
vn -0.181761 0.3995274 -0.8985215
vn -0.181761 0.3995274 -0.8985215
vn -0.181761 0.3995274 -0.8985215
vn -0.181761 0.3995274 -0.8985215
vn -0.181761 0.3995274 -0.8985215
vn -0.181761 0.3995274 -0.8985215
vn -0.181761 0.3995274 -0.8985215
vn -0.7123858 0.2255449 -0.664557
vn -0.7123858 0.2255449 -0.664557
vn -0.7123858 0.2255449 -0.664557
vn -0.7123858 0.2255449 -0.664557
vn -0.7123858 0.2255449 -0.664557
vn -0.7123858 0.2255449 -0.664557
vn -0.7123858 0.2255449 -0.664557
vn -0.7123858 0.2255449 -0.664557
vn -0.7123858 0.2255449 -0.664557
vn -0.7123858 0.2255449 -0.664557
vn -0.7123858 0.2255449 -0.664557
vn -0.7123858 0.2255449 -0.664557
vn -0.7123858 0.2255449 -0.664557
vn -0.7123858 0.2255449 -0.664557
vn -0.7123858 0.2255449 -0.664557
vn -0.7854636 0.1830398 0.591222
vn -0.7854636 0.1830398 0.591222
vn -0.7854636 0.1830398 0.591222
vn -0.7854636 0.1830398 0.591222
vn -0.7854636 0.1830398 0.591222
vn -0.7854636 0.1830398 0.591222
vn -0.7854636 0.1830398 0.591222
vn -0.7854636 0.1830398 0.591222
vn -0.7854636 0.1830398 0.591222
vn 0.8005705 0.5095573 -0.3153385
vn 0.8005705 0.5095573 -0.3153385
vn 0.8005705 0.5095573 -0.3153385
vn 0.8346589 0.3049129 0.4586641
vn 0.8346589 0.3049129 0.4586641
vn 0.8346589 0.3049129 0.4586641
vn 0.8346589 0.3049129 0.4586641
vn 0.8346589 0.3049129 0.4586641
vn 0.8346589 0.3049129 0.4586641
vn 0.8346589 0.3049129 0.4586641
vn 0.8346589 0.3049129 0.4586641
vn 0.8346589 0.3049129 0.4586641
vn 0.8346589 0.3049129 0.4586641
vn 0.8346589 0.3049129 0.4586641
vn 0.8346589 0.3049129 0.4586641
vn -0.6099045 0.7853365 0.1061279
vn -0.6099045 0.7853365 0.1061279
vn -0.6099045 0.7853365 0.1061279
vn -0.6099045 0.7853365 0.1061279
vn -0.6099045 0.7853365 0.1061279
vn -0.6099045 0.7853365 0.1061279

vt 0.4662553 0.5053062
vt 0.4182262 0.4085962
vt 0.5169433 0.5033225
vt 0.5169433 0.5033225
vt 0.4182262 0.4085962
vt 0.5774336 0.4964772
vt 0.5774336 0.4964772
vt 0.4182262 0.4085962
vt 0.5716221 0.3851917
vt 0.5716221 0.3851917
vt 0.4182262 0.4085962
vt 0.4787492 0.3591888
vt 0.4787492 0.3591888
vt 0.4182262 0.4085962
vt 0.4516939 0.3681762
vt 0.3883955 0.5336469
vt 0.425188 0.3561573
vt 0.4679736 0.557368
vt 0.4679736 0.557368
vt 0.425188 0.3561573
vt 0.6162332 0.4529092
vt 0.6162332 0.4529092
vt 0.425188 0.3561573
vt 0.6153577 0.4473119
vt 0.6153577 0.4473119
vt 0.425188 0.3561573
vt 0.5383548 0.348809
vt 0.5383548 0.348809
vt 0.425188 0.3561573
vt 0.440285 0.3329391
vt 0.360935 0.3265035
vt 0.4902838 0.2725139
vt 0.3543412 0.3313185
vt 0.3543412 0.3313185
vt 0.4902838 0.2725139
vt 0.3333814 0.3756222
vt 0.3333814 0.3756222
vt 0.4902838 0.2725139
vt 0.3276351 0.420196
vt 0.3276351 0.420196
vt 0.4902838 0.2725139
vt 0.5795385 0.5330229
vt 0.5795385 0.5330229
vt 0.4902838 0.2725139
vt 0.6303616 0.481641
vt 0.6303616 0.481641
vt 0.4902838 0.2725139
vt 0.6538312 0.3960604
vt 0.6538312 0.3960604
vt 0.4902838 0.2725139
vt 0.6224918 0.2907169
vt 0.481017 0.5465086
vt 0.4239866 0.5203474
vt 0.5446227 0.5598361
vt 0.5446227 0.5598361
vt 0.4239866 0.5203474
vt 0.5874176 0.5439661
vt 0.5874176 0.5439661
vt 0.4239866 0.5203474
vt 0.6187292 0.5102237
vt 0.6187292 0.5102237
vt 0.4239866 0.5203474
vt 0.5608279 0.3447531
vt 0.5608279 0.3447531
vt 0.4239866 0.5203474
vt 0.4399217 0.3433374
vt 0.4399217 0.3433374
vt 0.4239866 0.5203474
vt 0.3938252 0.4178491
vt 0.4526112 0.3263359
vt 0.5125567 0.3185173
vt 0.4462735 0.6003865
vt 0.4462735 0.6003865
vt 0.5125567 0.3185173
vt 0.5616196 0.4213276
vt 0.5616196 0.4213276
vt 0.5125567 0.3185173
vt 0.5698805 0.390505
vt 0.538541 0.445263
vt 0.4937949 0.456113
vt 0.5397425 0.4431209
vt 0.5397425 0.4431209
vt 0.4937949 0.456113
vt 0.5250925 0.4272416
vt 0.5669375 0.3238166
vt 0.6000465 0.446958
vt 0.4109711 0.3121795
vt 0.4109711 0.3121795
vt 0.6000465 0.446958
vt 0.3900952 0.425975
vt 0.3900952 0.425975
vt 0.6000465 0.446958
vt 0.5301031 0.4592796
vt 0.5860765 0.4738178
vt 0.5102004 0.3712543
vt 0.5860392 0.4024121
vt 0.5860392 0.4024121
vt 0.5102004 0.3712543
vt 0.55985 0.3651447
vt 0.4750611 0.4848727
vt 0.463126 0.474004
vt 0.5736524 0.4442199
vt 0.5736524 0.4442199
vt 0.463126 0.474004
vt 0.4730867 0.3984447
vt 0.4730867 0.3984447
vt 0.463126 0.474004
vt 0.4626883 0.4683042
vt 0.3603157 0.5054274
vt 0.486633 0.3692426
vt 0.3587883 0.5084822
vt 0.3587883 0.5084822
vt 0.486633 0.3692426
vt 0.4540921 0.5484458
vt 0.477273 0.3263265
vt 0.5389788 0.3383175
vt 0.4158188 0.416494
vt 0.4158188 0.416494
vt 0.5389788 0.3383175
vt 0.4218911 0.4714894
vt 0.4218911 0.4714894
vt 0.5389788 0.3383175
vt 0.5387273 0.5405294
vt 0.5387273 0.5405294
vt 0.5389788 0.3383175
vt 0.5445575 0.5398496
vt 0.4954667 0.348809
vt 0.4923514 0.2728771
vt 0.6311253 0.3154858
vt 0.6311253 0.3154858
vt 0.4923514 0.2728771
vt 0.5607441 0.2668234
vt 0.4358891 0.5513516
vt 0.4732962 0.3316073
vt 0.5705884 0.587059
vt 0.5705884 0.587059
vt 0.4732962 0.3316073
vt 0.5710168 0.5832871
vt 0.5710168 0.5832871
vt 0.4732962 0.3316073
vt 0.5046497 0.3262288
vt 0.4191576 0.5132506
vt 0.5757666 0.3718829
vt 0.4971012 0.5239609
vt 0.4971012 0.5239609
vt 0.5757666 0.3718829
vt 0.5080677 0.5187268
vt 0.5080677 0.5187268
vt 0.5757666 0.3718829
vt 0.5875014 0.386314
vt 0.3517753 0.624415
vt 0.3389927 0.6043354
vt 0.7687582 0.2092389
vt 0.7687582 0.2092389
vt 0.3389927 0.6043354
vt 0.6456075 0.150518
vt 0.6456075 0.150518
vt 0.3389927 0.6043354
vt 0.4455936 0.2294908
vt 0.6345899 0.3364036
vt 0.6051503 0.3984912
vt 0.5689213 0.2769145
vt 0.5689213 0.2769145
vt 0.6051503 0.3984912
vt 0.5153973 0.2803465
vt 0.5153973 0.2803465
vt 0.6051503 0.3984912
vt 0.5091108 0.2811381
vt 0.5091108 0.2811381
vt 0.6051503 0.3984912
vt 0.3870916 0.3526135
vt 0.3870916 0.3526135
vt 0.6051503 0.3984912
vt 0.4162658 0.5278353
vt 0.6071992 0.3543971
vt 0.6308831 0.4516519
vt 0.53313 0.3399427
vt 0.53313 0.3399427
vt 0.6308831 0.4516519
vt 0.5297678 0.5415725
vt 0.5297678 0.5415725
vt 0.6308831 0.4516519
vt 0.5793709 0.5386295
vt 0.4468462 0.4003818
vt 0.44788 0.3980209
vt 0.4548837 0.3999068
vt 0.4242101 0.3501595
vt 0.5313138 0.3327435
vt 0.3869566 0.5280868
vt 0.3869566 0.5280868
vt 0.5313138 0.3327435
vt 0.4006799 0.5480453
vt 0.4006799 0.5480453
vt 0.5313138 0.3327435
vt 0.4081166 0.5501967
vt 0.4081166 0.5501967
vt 0.5313138 0.3327435
vt 0.5555845 0.5562318
vt 0.5068476 0.4732496
vt 0.4493562 0.4396563
vt 0.5534145 0.4704556
vt 0.5534145 0.4704556
vt 0.4493562 0.4396563
vt 0.508077 0.3824396

usemtl Material0
usemap Material0

usemtl Material1
usemap Material1
f 1/1/1 2/2/2 3/3/3
f 4/4/4 5/5/5 6/6/6
f 7/7/7 8/8/8 9/9/9
f 10/10/10 11/11/11 12/12/12
f 13/13/13 14/14/14 15/15/15
f 16/16/16 17/17/17 18/18/18
f 19/19/19 20/20/20 21/21/21
f 22/22/22 23/23/23 24/24/24
f 25/25/25 26/26/26 27/27/27
f 28/28/28 29/29/29 30/30/30
f 31/31/31 32/32/32 33/33/33
f 34/34/34 35/35/35 36/36/36
f 37/37/37 38/38/38 39/39/39
f 40/40/40 41/41/41 42/42/42
f 43/43/43 44/44/44 45/45/45
f 46/46/46 47/47/47 48/48/48
f 49/49/49 50/50/50 51/51/51
f 52/52/52 53/53/53 54/54/54
f 55/55/55 56/56/56 57/57/57
f 58/58/58 59/59/59 60/60/60
f 61/61/61 62/62/62 63/63/63
f 64/64/64 65/65/65 66/66/66
f 67/67/67 68/68/68 69/69/69
f 70/70/70 71/71/71 72/72/72
f 73/73/73 74/74/74 75/75/75
f 76/76/76 77/77/77 78/78/78
f 79/79/79 80/80/80 81/81/81
f 82/82/82 83/83/83 84/84/84
f 85/85/85 86/86/86 87/87/87
f 88/88/88 89/89/89 90/90/90
f 91/91/91 92/92/92 93/93/93
f 94/94/94 95/95/95 96/96/96
f 97/97/97 98/98/98 99/99/99
f 100/100/100 101/101/101 102/102/102
f 103/103/103 104/104/104 105/105/105
f 106/106/106 107/107/107 108/108/108
f 109/109/109 110/110/110 111/111/111
f 112/112/112 113/113/113 114/114/114
f 115/115/115 116/116/116 117/117/117
f 118/118/118 119/119/119 120/120/120
f 121/121/121 122/122/122 123/123/123
f 124/124/124 125/125/125 126/126/126
f 127/127/127 128/128/128 129/129/129
f 130/130/130 131/131/131 132/132/132
f 133/133/133 134/134/134 135/135/135
f 136/136/136 137/137/137 138/138/138
f 139/139/139 140/140/140 141/141/141
f 142/142/142 143/143/143 144/144/144
f 145/145/145 146/146/146 147/147/147
f 148/148/148 149/149/149 150/150/150
f 151/151/151 152/152/152 153/153/153
f 154/154/154 155/155/155 156/156/156
f 157/157/157 158/158/158 159/159/159
f 160/160/160 161/161/161 162/162/162
f 163/163/163 164/164/164 165/165/165
f 166/166/166 167/167/167 168/168/168
f 169/169/169 170/170/170 171/171/171
f 172/172/172 173/173/173 174/174/174
f 175/175/175 176/176/176 177/177/177
f 178/178/178 179/179/179 180/180/180
f 181/181/181 182/182/182 183/183/183
f 184/184/184 185/185/185 186/186/186
f 187/187/187 188/188/188 189/189/189
f 190/190/190 191/191/191 192/192/192
f 193/193/193 194/194/194 195/195/195
f 196/196/196 197/197/197 198/198/198
f 199/199/199 200/200/200 201/201/201
f 202/202/202 203/203/203 204/204/204
