g  Instance
v 2.842307 -48.62564 -0.2305955
v 2.291128 -47.8059 -0.7450588
v 3.563197 -48.42019 0.03488904
v 3.563197 -48.42019 0.03488904
v 2.291128 -47.8059 -0.7450588
v 4.025838 -47.19582 -0.143097
v 4.025838 -47.19582 -0.143097
v 2.291128 -47.8059 -0.7450588
v 2.385295 -47.6426 -0.7538941
v 1.771666 -47.9253 1.856131
v 1.01956 -47.58982 -0.6295278
v 2.000991 -48.30785 1.983065
v 2.000991 -48.30785 1.983065
v 1.01956 -47.58982 -0.6295278
v 1.800002 -48.77009 0.07627225
v 2.291128 -47.8059 -0.7450588
v 1.62449 -47.60325 -0.7948508
v 2.385295 -47.6426 -0.7538941
v 4.022905 -48.23212 0.4623669
v 2.458411 -48.16307 2.216764
v 3.563197 -48.42019 0.03488904
v 3.563197 -48.42019 0.03488904
v 2.458411 -48.16307 2.216764
v 2.842307 -48.62564 -0.2305955
v 2.842307 -48.62564 -0.2305955
v 2.458411 -48.16307 2.216764
v 1.902037 -48.76453 0.007393897
v 1.902037 -48.76453 0.007393897
v 2.458411 -48.16307 2.216764
v 1.800002 -48.77009 0.07627225
v 1.800002 -48.77009 0.07627225
v 2.458411 -48.16307 2.216764
v 2.000991 -48.30785 1.983065
v 2.000991 -48.30785 1.983065
v 2.458411 -48.16307 2.216764
v 2.242576 -48.20481 2.226752
v 2.258761 -47.80808 2.327749
v 2.286317 -47.92807 2.326928
v 2.434304 -47.87939 2.246467
v 2.434304 -47.87939 2.246467
v 2.286317 -47.92807 2.326928
v 2.406406 -48.02298 2.276383
v 1.170952 -47.53673 -0.7769464
v 1.036826 -47.4879 -0.7429993
v 1.62449 -47.60325 -0.7948508
v 1.62449 -47.60325 -0.7948508
v 1.036826 -47.4879 -0.7429993
v 2.385295 -47.6426 -0.7538941
v 2.385295 -47.6426 -0.7538941
v 1.036826 -47.4879 -0.7429993
v 4.025838 -47.19582 -0.143097
v 4.025838 -47.19582 -0.143097
v 1.036826 -47.4879 -0.7429993
v 4.117717 -47.13348 -0.07221073
v 4.117717 -47.13348 -0.07221073
v 1.036826 -47.4879 -0.7429993
v 2.295944 -46.2447 0.6105567
v 2.458411 -48.16307 2.216764
v 4.022905 -48.23212 0.4623669
v 2.406406 -48.02298 2.276383
v 2.406406 -48.02298 2.276383
v 4.022905 -48.23212 0.4623669
v 2.434304 -47.87939 2.246467
v 2.434304 -47.87939 2.246467
v 4.022905 -48.23212 0.4623669
v 4.208786 -47.51875 0.2607299
v 2.842307 -48.62564 -0.2305955
v 1.902037 -48.76453 0.007393897
v 2.291128 -47.8059 -0.7450588
v 2.291128 -47.8059 -0.7450588
v 1.902037 -48.76453 0.007393897
v 1.62449 -47.60325 -0.7948508
v 1.62449 -47.60325 -0.7948508
v 1.902037 -48.76453 0.007393897
v 1.170952 -47.53673 -0.7769464
v 2.144523 -47.64776 2.257932
v 2.114657 -47.57455 2.205963
v 2.096489 -47.61477 2.221102
v 4.022905 -48.23212 0.4623669
v 3.563197 -48.42019 0.03488904
v 4.208786 -47.51875 0.2607299
v 4.208786 -47.51875 0.2607299
v 3.563197 -48.42019 0.03488904
v 4.117717 -47.13348 -0.07221073
v 4.117717 -47.13348 -0.07221073
v 3.563197 -48.42019 0.03488904
v 4.025838 -47.19582 -0.143097
v 2.258761 -47.80808 2.327749
v 2.144523 -47.64776 2.257932
v 2.286317 -47.92807 2.326928
v 2.286317 -47.92807 2.326928
v 2.144523 -47.64776 2.257932
v 2.242576 -48.20481 2.226752
v 2.242576 -48.20481 2.226752
v 2.144523 -47.64776 2.257932
v 2.000991 -48.30785 1.983065
v 2.000991 -48.30785 1.983065
v 2.144523 -47.64776 2.257932
v 1.771666 -47.9253 1.856131
v 1.771666 -47.9253 1.856131
v 2.144523 -47.64776 2.257932
v 2.096489 -47.61477 2.221102
v 4.117717 -47.13348 -0.07221073
v 2.295944 -46.2447 0.6105567
v 4.208786 -47.51875 0.2607299
v 4.208786 -47.51875 0.2607299
v 2.295944 -46.2447 0.6105567
v 2.434304 -47.87939 2.246467
v 2.434304 -47.87939 2.246467
v 2.295944 -46.2447 0.6105567
v 2.258761 -47.80808 2.327749
v 2.258761 -47.80808 2.327749
v 2.295944 -46.2447 0.6105567
v 2.144523 -47.64776 2.257932
v 2.144523 -47.64776 2.257932
v 2.295944 -46.2447 0.6105567
v 2.114657 -47.57455 2.205963
v 1.036826 -47.4879 -0.7429993
v 1.01956 -47.58982 -0.6295278
v 2.295944 -46.2447 0.6105567
v 2.295944 -46.2447 0.6105567
v 1.01956 -47.58982 -0.6295278
v 2.114657 -47.57455 2.205963
v 2.114657 -47.57455 2.205963
v 1.01956 -47.58982 -0.6295278
v 2.096489 -47.61477 2.221102
v 2.096489 -47.61477 2.221102
v 1.01956 -47.58982 -0.6295278
v 1.771666 -47.9253 1.856131
v 1.170952 -47.53673 -0.7769464
v 1.902037 -48.76453 0.007393897
v 1.036826 -47.4879 -0.7429993
v 1.036826 -47.4879 -0.7429993
v 1.902037 -48.76453 0.007393897
v 1.01956 -47.58982 -0.6295278
v 1.01956 -47.58982 -0.6295278
v 1.902037 -48.76453 0.007393897
v 1.800002 -48.77009 0.07627225
v 2.458411 -48.16307 2.216764
v 2.406406 -48.02298 2.276383
v 2.242576 -48.20481 2.226752
v 2.242576 -48.20481 2.226752
v 2.406406 -48.02298 2.276383
v 2.286317 -47.92807 2.326928

vn 0.4007812 -0.2783304 -0.8728727
vn 0.4007812 -0.2783304 -0.8728727
vn 0.4007812 -0.2783304 -0.8728727
vn 0.4007812 -0.2783304 -0.8728727
vn 0.4007812 -0.2783304 -0.8728727
vn 0.4007812 -0.2783304 -0.8728727
vn 0.4007812 -0.2783304 -0.8728727
vn 0.4007812 -0.2783304 -0.8728727
vn 0.4007812 -0.2783304 -0.8728727
vn -0.8681467 -0.4535789 0.2014638
vn -0.8681467 -0.4535789 0.2014638
vn -0.8681467 -0.4535789 0.2014638
vn -0.8681467 -0.4535789 0.2014638
vn -0.8681467 -0.4535789 0.2014638
vn -0.8681467 -0.4535789 0.2014638
vn 0.04932845 -0.0822988 -0.9953862
vn 0.04932845 -0.0822988 -0.9953862
vn 0.04932845 -0.0822988 -0.9953862
vn 0.1950209 -0.9577003 0.2116062
vn 0.1950209 -0.9577003 0.2116062
vn 0.1950209 -0.9577003 0.2116062
vn 0.1950209 -0.9577003 0.2116062
vn 0.1950209 -0.9577003 0.2116062
vn 0.1950209 -0.9577003 0.2116062
vn 0.1950209 -0.9577003 0.2116062
vn 0.1950209 -0.9577003 0.2116062
vn 0.1950209 -0.9577003 0.2116062
vn 0.1950209 -0.9577003 0.2116062
vn 0.1950209 -0.9577003 0.2116062
vn 0.1950209 -0.9577003 0.2116062
vn 0.1950209 -0.9577003 0.2116062
vn 0.1950209 -0.9577003 0.2116062
vn 0.1950209 -0.9577003 0.2116062
vn 0.1950209 -0.9577003 0.2116062
vn 0.1950209 -0.9577003 0.2116062
vn 0.1950209 -0.9577003 0.2116062
vn 0.4504771 0.09737581 0.8874618
vn 0.4504771 0.09737581 0.8874618
vn 0.4504771 0.09737581 0.8874618
vn 0.4504771 0.09737581 0.8874618
vn 0.4504771 0.09737581 0.8874618
vn 0.4504771 0.09737581 0.8874618
vn 0.07445633 0.6989906 -0.7112442
vn 0.07445633 0.6989906 -0.7112442
vn 0.07445633 0.6989906 -0.7112442
vn 0.07445633 0.6989906 -0.7112442
vn 0.07445633 0.6989906 -0.7112442
vn 0.07445633 0.6989906 -0.7112442
vn 0.07445633 0.6989906 -0.7112442
vn 0.07445633 0.6989906 -0.7112442
vn 0.07445633 0.6989906 -0.7112442
vn 0.07445633 0.6989906 -0.7112442
vn 0.07445633 0.6989906 -0.7112442
vn 0.07445633 0.6989906 -0.7112442
vn 0.07445633 0.6989906 -0.7112442
vn 0.07445633 0.6989906 -0.7112442
vn 0.07445633 0.6989906 -0.7112442
vn 0.7462046 -0.006293602 0.6656869
vn 0.7462046 -0.006293602 0.6656869
vn 0.7462046 -0.006293602 0.6656869
vn 0.7462046 -0.006293602 0.6656869
vn 0.7462046 -0.006293602 0.6656869
vn 0.7462046 -0.006293602 0.6656869
vn 0.7462046 -0.006293602 0.6656869
vn 0.7462046 -0.006293602 0.6656869
vn 0.7462046 -0.006293602 0.6656869
vn -0.1172774 -0.5832829 -0.8037581
vn -0.1172774 -0.5832829 -0.8037581
vn -0.1172774 -0.5832829 -0.8037581
vn -0.1172774 -0.5832829 -0.8037581
vn -0.1172774 -0.5832829 -0.8037581
vn -0.1172774 -0.5832829 -0.8037581
vn -0.1172774 -0.5832829 -0.8037581
vn -0.1172774 -0.5832829 -0.8037581
vn -0.1172774 -0.5832829 -0.8037581
vn -0.321593 0.457313 0.8291218
vn -0.321593 0.457313 0.8291218
vn -0.321593 0.457313 0.8291218
vn 0.7102346 -0.3566214 -0.6069498
vn 0.7102346 -0.3566214 -0.6069498
vn 0.7102346 -0.3566214 -0.6069498
vn 0.7102346 -0.3566214 -0.6069498
vn 0.7102346 -0.3566214 -0.6069498
vn 0.7102346 -0.3566214 -0.6069498
vn 0.7102346 -0.3566214 -0.6069498
vn 0.7102346 -0.3566214 -0.6069498
vn 0.7102346 -0.3566214 -0.6069498
vn -0.6669414 -0.1581472 0.7281337
vn -0.6669414 -0.1581472 0.7281337
vn -0.6669414 -0.1581472 0.7281337
vn -0.6669414 -0.1581472 0.7281337
vn -0.6669414 -0.1581472 0.7281337
vn -0.6669414 -0.1581472 0.7281337
vn -0.6669414 -0.1581472 0.7281337
vn -0.6669414 -0.1581472 0.7281337
vn -0.6669414 -0.1581472 0.7281337
vn -0.6669414 -0.1581472 0.7281337
vn -0.6669414 -0.1581472 0.7281337
vn -0.6669414 -0.1581472 0.7281337
vn -0.6669414 -0.1581472 0.7281337
vn -0.6669414 -0.1581472 0.7281337
vn -0.6669414 -0.1581472 0.7281337
vn 0.5223378 0.6248794 0.5802491
vn 0.5223378 0.6248794 0.5802491
vn 0.5223378 0.6248794 0.5802491
vn 0.5223378 0.6248794 0.5802491
vn 0.5223378 0.6248794 0.5802491
vn 0.5223378 0.6248794 0.5802491
vn 0.5223378 0.6248794 0.5802491
vn 0.5223378 0.6248794 0.5802491
vn 0.5223378 0.6248794 0.5802491
vn 0.5223378 0.6248794 0.5802491
vn 0.5223378 0.6248794 0.5802491
vn 0.5223378 0.6248794 0.5802491
vn 0.5223378 0.6248794 0.5802491
vn 0.5223378 0.6248794 0.5802491
vn 0.5223378 0.6248794 0.5802491
vn -0.816048 0.4861953 0.3125379
vn -0.816048 0.4861953 0.3125379
vn -0.816048 0.4861953 0.3125379
vn -0.816048 0.4861953 0.3125379
vn -0.816048 0.4861953 0.3125379
vn -0.816048 0.4861953 0.3125379
vn -0.816048 0.4861953 0.3125379
vn -0.816048 0.4861953 0.3125379
vn -0.816048 0.4861953 0.3125379
vn -0.816048 0.4861953 0.3125379
vn -0.816048 0.4861953 0.3125379
vn -0.816048 0.4861953 0.3125379
vn -0.4002323 -0.650605 -0.6453893
vn -0.4002323 -0.650605 -0.6453893
vn -0.4002323 -0.650605 -0.6453893
vn -0.4002323 -0.650605 -0.6453893
vn -0.4002323 -0.650605 -0.6453893
vn -0.4002323 -0.650605 -0.6453893
vn -0.4002323 -0.650605 -0.6453893
vn -0.4002323 -0.650605 -0.6453893
vn -0.4002323 -0.650605 -0.6453893
vn 0.1113537 -0.3538069 0.9286662
vn 0.1113537 -0.3538069 0.9286662
vn 0.1113537 -0.3538069 0.9286662
vn 0.1113537 -0.3538069 0.9286662
vn 0.1113537 -0.3538069 0.9286662
vn 0.1113537 -0.3538069 0.9286662

vt 0.6300728 0.3764977
vt 0.5655312 0.5661133
vt 0.5257724 0.2786514
vt 0.5257724 0.2786514
vt 0.5655312 0.5661133
vt 0.2974644 0.3442548
vt 0.2974644 0.3442548
vt 0.5655312 0.5661133
vt 0.5317516 0.569373
vt 0.5127337 0.3233835
vt 0.5705884 0.5507369
vt 0.4728492 0.3117744
vt 0.4728492 0.3117744
vt 0.5705884 0.5507369
vt 0.4444853 0.4861766
vt 0.5087569 0.4811101
vt 0.4906517 0.5397564
vt 0.4943956 0.4728305
vt 0.391292 0.4454306
vt 0.5277096 0.2842674
vt 0.4351067 0.4846958
vt 0.4351067 0.4846958
vt 0.5277096 0.2842674
vt 0.5022096 0.5090875
vt 0.5022096 0.5090875
vt 0.5277096 0.2842674
vt 0.5874269 0.487229
vt 0.5874269 0.487229
vt 0.5277096 0.2842674
vt 0.5965074 0.4808959
vt 0.5965074 0.4808959
vt 0.5277096 0.2842674
vt 0.5705418 0.3057347
vt 0.5705418 0.3057347
vt 0.5277096 0.2842674
vt 0.5474446 0.28335
vt 0.5187129 0.1917949
vt 0.5421546 0.1921348
vt 0.539044 0.2253743
vt 0.539044 0.2253743
vt 0.5421546 0.1921348
vt 0.5646464 0.2130154
vt 0.3137395 0.544292
vt 0.2964446 0.5382663
vt 0.370919 0.5474772
vt 0.370919 0.5474772
vt 0.2964446 0.5382663
vt 0.4658781 0.5402035
vt 0.4658781 0.5402035
vt 0.2964446 0.5382663
vt 0.6636103 0.4317353
vt 0.6636103 0.4317353
vt 0.2964446 0.5382663
vt 0.6741903 0.4191483
vt 0.6741903 0.4191483
vt 0.2964446 0.5382663
vt 0.4363035 0.2978928
vt 0.5640224 0.2593169
vt 0.5705976 0.5357796
vt 0.547603 0.2499197
vt 0.547603 0.2499197
vt 0.5705976 0.5357796
vt 0.5306898 0.2546369
vt 0.5306898 0.2546369
vt 0.5705976 0.5357796
vt 0.4865305 0.5675569
vt 0.444788 0.3770565
vt 0.5767165 0.3180563
vt 0.5483201 0.5045984
vt 0.5483201 0.5045984
vt 0.5767165 0.3180563
vt 0.6506088 0.5169387
vt 0.6506088 0.5169387
vt 0.5767165 0.3180563
vt 0.7181215 0.5124962
vt 0.4310042 0.3071829
vt 0.4337796 0.3217723
vt 0.4278144 0.3175208
vt 0.4929893 0.3290228
vt 0.5343221 0.3884095
vt 0.4133833 0.3570374
vt 0.4133833 0.3570374
vt 0.5343221 0.3884095
vt 0.3798738 0.4032923
vt 0.3798738 0.4032923
vt 0.5343221 0.3884095
vt 0.3905795 0.4131412
vt 0.4885422 0.3058697
vt 0.5118862 0.3189085
vt 0.4727793 0.3060234
vt 0.4727793 0.3060234
vt 0.5118862 0.3189085
vt 0.4395911 0.3247293
vt 0.4395911 0.3247293
vt 0.5118862 0.3189085
vt 0.4338913 0.3702438
vt 0.4338913 0.3702438
vt 0.5118862 0.3189085
vt 0.4883233 0.3939556
vt 0.4883233 0.3939556
vt 0.5118862 0.3189085
vt 0.5174183 0.3257864
vt 0.5866539 0.5574984
vt 0.374635 0.467168
vt 0.6208153 0.5134555
vt 0.6208153 0.5134555
vt 0.374635 0.467168
vt 0.4990337 0.2507532
vt 0.4990337 0.2507532
vt 0.374635 0.467168
vt 0.4795967 0.2400009
vt 0.4795967 0.2400009
vt 0.374635 0.467168
vt 0.4590747 0.2492351
vt 0.4590747 0.2492351
vt 0.374635 0.467168
vt 0.4515448 0.2561084
vt 0.4336352 0.5769447
vt 0.424727 0.5659177
vt 0.5918322 0.4453095
vt 0.5918322 0.4453095
vt 0.424727 0.5659177
vt 0.4777294 0.2901534
vt 0.4777294 0.2901534
vt 0.424727 0.5659177
vt 0.4736781 0.2886819
vt 0.4736781 0.2886819
vt 0.424727 0.5659177
vt 0.4336678 0.3241752
vt 0.6509814 0.4849752
vt 0.5055438 0.367012
vt 0.6670469 0.4798715
vt 0.6670469 0.4798715
vt 0.5055438 0.367012
vt 0.6626045 0.4628001
vt 0.6626045 0.4628001
vt 0.5055438 0.367012
vt 0.5151924 0.3566509
vt 0.5157791 0.4815106
vt 0.529209 0.4861207
vt 0.5126499 0.5006775
vt 0.5126499 0.5006775
vt 0.529209 0.4861207
vt 0.5386249 0.4967938

usemtl Material0
usemap Material0

usemtl Material1
usemap Material1
f 1/1/1 2/2/2 3/3/3
f 4/4/4 5/5/5 6/6/6
f 7/7/7 8/8/8 9/9/9
f 10/10/10 11/11/11 12/12/12
f 13/13/13 14/14/14 15/15/15
f 16/16/16 17/17/17 18/18/18
f 19/19/19 20/20/20 21/21/21
f 22/22/22 23/23/23 24/24/24
f 25/25/25 26/26/26 27/27/27
f 28/28/28 29/29/29 30/30/30
f 31/31/31 32/32/32 33/33/33
f 34/34/34 35/35/35 36/36/36
f 37/37/37 38/38/38 39/39/39
f 40/40/40 41/41/41 42/42/42
f 43/43/43 44/44/44 45/45/45
f 46/46/46 47/47/47 48/48/48
f 49/49/49 50/50/50 51/51/51
f 52/52/52 53/53/53 54/54/54
f 55/55/55 56/56/56 57/57/57
f 58/58/58 59/59/59 60/60/60
f 61/61/61 62/62/62 63/63/63
f 64/64/64 65/65/65 66/66/66
f 67/67/67 68/68/68 69/69/69
f 70/70/70 71/71/71 72/72/72
f 73/73/73 74/74/74 75/75/75
f 76/76/76 77/77/77 78/78/78
f 79/79/79 80/80/80 81/81/81
f 82/82/82 83/83/83 84/84/84
f 85/85/85 86/86/86 87/87/87
f 88/88/88 89/89/89 90/90/90
f 91/91/91 92/92/92 93/93/93
f 94/94/94 95/95/95 96/96/96
f 97/97/97 98/98/98 99/99/99
f 100/100/100 101/101/101 102/102/102
f 103/103/103 104/104/104 105/105/105
f 106/106/106 107/107/107 108/108/108
f 109/109/109 110/110/110 111/111/111
f 112/112/112 113/113/113 114/114/114
f 115/115/115 116/116/116 117/117/117
f 118/118/118 119/119/119 120/120/120
f 121/121/121 122/122/122 123/123/123
f 124/124/124 125/125/125 126/126/126
f 127/127/127 128/128/128 129/129/129
f 130/130/130 131/131/131 132/132/132
f 133/133/133 134/134/134 135/135/135
f 136/136/136 137/137/137 138/138/138
f 139/139/139 140/140/140 141/141/141
f 142/142/142 143/143/143 144/144/144
