g  Instance
v 9.417857 -47.11154 -2.940327
v 9.400846 -47.04192 -2.927352
v 9.448253 -47.11215 -2.853532
v 9.448253 -47.11215 -2.853532
v 9.685461 -47.51127 -2.404372
v 9.417857 -47.11154 -2.940327
v 9.417857 -47.11154 -2.940327
v 9.685461 -47.51127 -2.404372
v 9.646443 -47.61719 -2.577532
v 9.646443 -47.61719 -2.577532
v 9.685461 -47.51127 -2.404372
v 9.68587 -47.58053 -2.443278
v 9.68587 -47.58053 -2.443278
v 9.685461 -47.51127 -2.404372
v 9.687706 -47.55626 -2.423964
v 9.495911 -47.69041 -3.040903
v 9.417857 -47.11154 -2.940327
v 9.538959 -47.71675 -2.934517
v 9.538959 -47.71675 -2.934517
v 9.417857 -47.11154 -2.940327
v 9.646443 -47.61719 -2.577532
v 9.417857 -47.11154 -2.940327
v 8.893732 -46.54519 -3.648902
v 9.400846 -47.04192 -2.927352
v 9.400846 -47.04192 -2.927352
v 8.893732 -46.54519 -3.648902
v 9.041255 -46.58295 -3.36406
v 8.739493 -46.50571 -3.945335
v 8.893732 -46.54519 -3.648902
v 8.928351 -47.07895 -3.945189
v 8.928351 -47.07895 -3.945189
v 8.893732 -46.54519 -3.648902
v 8.962154 -47.11648 -3.90018
v 8.962154 -47.11648 -3.90018
v 8.893732 -46.54519 -3.648902
v 9.417857 -47.11154 -2.940327
v 8.907342 -47.0593 -3.969011
v 8.760978 -46.8081 -4.073296
v 8.928351 -47.07895 -3.945189
v 8.928351 -47.07895 -3.945189
v 8.760978 -46.8081 -4.073296
v 8.739493 -46.50571 -3.945335
v 8.739493 -46.50571 -3.945335
v 8.760978 -46.8081 -4.073296
v 8.668321 -46.48753 -4.052147
v 8.907342 -47.0593 -3.969011
v 8.808155 -46.96486 -4.08337
v 8.760978 -46.8081 -4.073296
v 9.417857 -47.11154 -2.940327
v 9.495911 -47.69041 -3.040903
v 8.962154 -47.11648 -3.90018
v 8.962154 -47.11648 -3.90018
v 9.495911 -47.69041 -3.040903
v 9.37519 -47.64329 -3.273041
v 9.687706 -47.55626 -2.423964
v 9.685461 -47.51127 -2.404372
v 8.668717 -48.10839 -2.189719
v 8.668717 -48.10839 -2.189719
v 9.685461 -47.51127 -2.404372
v 7.71008 -48.3532 -1.855948
v 7.71008 -48.3532 -1.855948
v 9.685461 -47.51127 -2.404372
v 7.061052 -47.37776 -1.158762
v 7.061052 -47.37776 -1.158762
v 9.685461 -47.51127 -2.404372
v 8.217938 -47.18341 -1.603298
v 8.668321 -46.48753 -4.052147
v 6.533752 -45.9453 -4.30069
v 8.739493 -46.50571 -3.945335
v 8.739493 -46.50571 -3.945335
v 6.533752 -45.9453 -4.30069
v 8.893732 -46.54519 -3.648902
v 8.893732 -46.54519 -3.648902
v 6.533752 -45.9453 -4.30069
v 9.041255 -46.58295 -3.36406
v 9.041255 -46.58295 -3.36406
v 6.533752 -45.9453 -4.30069
v 5.91713 -45.7914 -1.815165
v 5.91713 -45.7914 -1.815165
v 6.533752 -45.9453 -4.30069
v 5.600025 -45.71073 -1.962431
v 5.600025 -45.71073 -1.962431
v 6.533752 -45.9453 -4.30069
v 5.633402 -45.71856 -2.560421
v 7.061052 -47.37776 -1.158762
v 6.500812 -46.96151 -0.9813147
v 7.71008 -48.3532 -1.855948
v 7.71008 -48.3532 -1.855948
v 6.500812 -46.96151 -0.9813147
v 7.142101 -48.60957 -2.352226
v 7.142101 -48.60957 -2.352226
v 6.500812 -46.96151 -0.9813147
v 6.646568 -48.5287 -2.481649
v 6.646568 -48.5287 -2.481649
v 6.500812 -46.96151 -0.9813147
v 6.37718 -48.37417 -2.441797
v 6.37718 -48.37417 -2.441797
v 6.500812 -46.96151 -0.9813147
v 5.649679 -46.90678 -1.28752
v 9.685461 -47.51127 -2.404372
v 9.448253 -47.11215 -2.853532
v 8.217938 -47.18341 -1.603298
v 8.217938 -47.18341 -1.603298
v 9.448253 -47.11215 -2.853532
v 6.704142 -46.6646 -1.078908
v 6.704142 -46.6646 -1.078908
v 9.448253 -47.11215 -2.853532
v 5.91713 -45.7914 -1.815165
v 5.91713 -45.7914 -1.815165
v 9.448253 -47.11215 -2.853532
v 9.041255 -46.58295 -3.36406
v 9.041255 -46.58295 -3.36406
v 9.448253 -47.11215 -2.853532
v 9.400846 -47.04192 -2.927352
v 6.24398 -46.84918 -4.410907
v 5.222577 -47.25826 -2.893866
v 6.265686 -46.82723 -4.434051
v 6.265686 -46.82723 -4.434051
v 5.222577 -47.25826 -2.893866
v 6.533752 -45.9453 -4.30069
v 6.533752 -45.9453 -4.30069
v 5.222577 -47.25826 -2.893866
v 5.633402 -45.71856 -2.560421
v 5.633402 -45.71856 -2.560421
v 5.222577 -47.25826 -2.893866
v 5.105321 -46.11274 -1.901439
v 5.105321 -46.11274 -1.901439
v 5.222577 -47.25826 -2.893866
v 4.954153 -46.36747 -1.810163
v 9.13093 -48.0244 -2.562922
v 9.538959 -47.71675 -2.934517
v 9.163296 -47.99351 -2.433196
v 9.163296 -47.99351 -2.433196
v 9.538959 -47.71675 -2.934517
v 9.68587 -47.58053 -2.443278
v 9.68587 -47.58053 -2.443278
v 9.538959 -47.71675 -2.934517
v 9.646443 -47.61719 -2.577532
v 8.808155 -46.96486 -4.08337
v 8.907342 -47.0593 -3.969011
v 6.265686 -46.82723 -4.434051
v 8.907342 -47.0593 -3.969011
v 8.928351 -47.07895 -3.945189
v 6.265686 -46.82723 -4.434051
v 6.265686 -46.82723 -4.434051
v 8.928351 -47.07895 -3.945189
v 6.24398 -46.84918 -4.410907
v 6.24398 -46.84918 -4.410907
v 8.928351 -47.07895 -3.945189
v 6.646568 -48.5287 -2.481649
v 6.646568 -48.5287 -2.481649
v 8.928351 -47.07895 -3.945189
v 7.142101 -48.60957 -2.352226
v 7.142101 -48.60957 -2.352226
v 8.928351 -47.07895 -3.945189
v 8.44084 -48.25388 -2.654606
v 8.44084 -48.25388 -2.654606
v 8.928351 -47.07895 -3.945189
v 9.37519 -47.64329 -3.273041
v 9.37519 -47.64329 -3.273041
v 8.928351 -47.07895 -3.945189
v 8.962154 -47.11648 -3.90018
v 6.37718 -48.37417 -2.441797
v 5.649679 -46.90678 -1.28752
v 5.222577 -47.25826 -2.893866
v 5.222577 -47.25826 -2.893866
v 5.649679 -46.90678 -1.28752
v 4.954153 -46.36747 -1.810163
v 5.649679 -46.90678 -1.28752
v 6.500812 -46.96151 -0.9813147
v 4.954153 -46.36747 -1.810163
v 4.954153 -46.36747 -1.810163
v 6.500812 -46.96151 -0.9813147
v 5.105321 -46.11274 -1.901439
v 5.105321 -46.11274 -1.901439
v 6.500812 -46.96151 -0.9813147
v 5.600025 -45.71073 -1.962431
v 5.600025 -45.71073 -1.962431
v 6.500812 -46.96151 -0.9813147
v 5.91713 -45.7914 -1.815165
v 5.91713 -45.7914 -1.815165
v 6.500812 -46.96151 -0.9813147
v 6.704142 -46.6646 -1.078908
v 8.44084 -48.25388 -2.654606
v 9.37519 -47.64329 -3.273041
v 9.13093 -48.0244 -2.562922
v 9.13093 -48.0244 -2.562922
v 9.37519 -47.64329 -3.273041
v 9.538959 -47.71675 -2.934517
v 9.538959 -47.71675 -2.934517
v 9.37519 -47.64329 -3.273041
v 9.495911 -47.69041 -3.040903
v 6.533752 -45.9453 -4.30069
v 8.668321 -46.48753 -4.052147
v 6.265686 -46.82723 -4.434051
v 8.808155 -46.96486 -4.08337
v 6.265686 -46.82723 -4.434051
v 8.760978 -46.8081 -4.073296
v 6.265686 -46.82723 -4.434051
v 8.668321 -46.48753 -4.052147
v 8.760978 -46.8081 -4.073296
v 9.163296 -47.99351 -2.433196
v 9.68587 -47.58053 -2.443278
v 8.668717 -48.10839 -2.189719
v 8.668717 -48.10839 -2.189719
v 9.68587 -47.58053 -2.443278
v 9.687706 -47.55626 -2.423964
v 9.163296 -47.99351 -2.433196
v 8.668717 -48.10839 -2.189719
v 9.13093 -48.0244 -2.562922
v 9.13093 -48.0244 -2.562922
v 8.668717 -48.10839 -2.189719
v 8.44084 -48.25388 -2.654606
v 8.44084 -48.25388 -2.654606
v 8.668717 -48.10839 -2.189719
v 7.142101 -48.60957 -2.352226
v 7.142101 -48.60957 -2.352226
v 8.668717 -48.10839 -2.189719
v 7.71008 -48.3532 -1.855948
v 6.24398 -46.84918 -4.410907
v 6.646568 -48.5287 -2.481649
v 5.222577 -47.25826 -2.893866
v 5.222577 -47.25826 -2.893866
v 6.646568 -48.5287 -2.481649
v 6.37718 -48.37417 -2.441797
v 5.600025 -45.71073 -1.962431
v 5.633402 -45.71856 -2.560421
v 5.105321 -46.11274 -1.901439
v 6.704142 -46.6646 -1.078908
v 6.500812 -46.96151 -0.9813147
v 8.217938 -47.18341 -1.603298
v 8.217938 -47.18341 -1.603298
v 6.500812 -46.96151 -0.9813147
v 7.061052 -47.37776 -1.158762

vn 0.9065735 0.2803138 -0.3155131
vn 0.9063879 0.2796643 -0.3165852
vn 0.9062476 0.279173 -0.3173962
vn 0.9275263 0.1871922 -0.3235027
vn 0.9275263 0.1871922 -0.3235027
vn 0.9275263 0.1871922 -0.3235027
vn 0.9275263 0.1871922 -0.3235027
vn 0.9275263 0.1871922 -0.3235027
vn 0.9275263 0.1871922 -0.3235027
vn 0.9275263 0.1871922 -0.3235027
vn 0.9275263 0.1871922 -0.3235027
vn 0.9275263 0.1871922 -0.3235027
vn 0.9275263 0.1871922 -0.3235027
vn 0.9275263 0.1871922 -0.3235027
vn 0.9275263 0.1871922 -0.3235027
vn 0.9267548 0.1839625 -0.3275184
vn 0.9275263 0.1871922 -0.3235027
vn 0.9268857 0.1845102 -0.3268375
vn 0.9268857 0.1845102 -0.3268375
vn 0.9275263 0.1871922 -0.3235027
vn 0.9275263 0.1871922 -0.3235027
vn 0.8653957 0.2867135 -0.4109571
vn 0.8580235 0.3073683 -0.411241
vn 0.8646967 0.2886718 -0.410984
vn 0.8646967 0.2886718 -0.410984
vn 0.8580235 0.3073683 -0.411241
vn 0.8590071 0.3046127 -0.4112031
vn 0.8574932 0.3088541 -0.4112614
vn 0.8580235 0.3073683 -0.411241
vn 0.8649074 0.2880816 -0.4109759
vn 0.8649074 0.2880816 -0.4109759
vn 0.8580235 0.3073683 -0.411241
vn 0.8653957 0.2867135 -0.4109571
vn 0.8653957 0.2867135 -0.4109571
vn 0.8580235 0.3073683 -0.411241
vn 0.8653957 0.2867135 -0.4109571
vn 0.82175 0.2705994 -0.5015006
vn 0.82175 0.2705994 -0.5015006
vn 0.82175 0.2705994 -0.5015006
vn 0.82175 0.2705994 -0.5015006
vn 0.82175 0.2705994 -0.5015006
vn 0.82175 0.2705994 -0.5015006
vn 0.82175 0.2705994 -0.5015006
vn 0.82175 0.2705994 -0.5015006
vn 0.82175 0.2705994 -0.5015006
vn 0.82175 0.2705994 -0.5015006
vn 0.8224038 0.2716852 -0.4998035
vn 0.82175 0.2705994 -0.5015006
vn 0.8854553 0.1899933 -0.4241127
vn 0.8854553 0.1899933 -0.4241127
vn 0.8854553 0.1899933 -0.4241127
vn 0.8854553 0.1899933 -0.4241127
vn 0.8854553 0.1899933 -0.4241127
vn 0.8854553 0.1899933 -0.4241127
vn 0.386669 -0.3519738 0.8524092
vn 0.386669 -0.3519738 0.8524092
vn 0.386669 -0.3519738 0.8524092
vn 0.386669 -0.3519738 0.8524092
vn 0.386669 -0.3519738 0.8524092
vn 0.386669 -0.3519738 0.8524092
vn 0.386669 -0.3519738 0.8524092
vn 0.386669 -0.3519738 0.8524092
vn 0.386669 -0.3519738 0.8524092
vn 0.386669 -0.3519738 0.8524092
vn 0.386669 -0.3519738 0.8524092
vn 0.386669 -0.3519738 0.8524092
vn 0.2460893 0.9692467 0.001037347
vn 0.2460893 0.9692467 0.001037347
vn 0.2460893 0.9692467 0.001037347
vn 0.2460893 0.9692467 0.001037347
vn 0.2460893 0.9692467 0.001037347
vn 0.2460893 0.9692467 0.001037347
vn 0.2460893 0.9692467 0.001037347
vn 0.2460893 0.9692467 0.001037347
vn 0.2460893 0.9692467 0.001037347
vn 0.2460893 0.9692467 0.001037347
vn 0.2460893 0.9692467 0.001037347
vn 0.2460893 0.9692467 0.001037347
vn 0.2460893 0.9692467 0.001037347
vn 0.2460893 0.9692467 0.001037347
vn 0.2460893 0.9692467 0.001037347
vn 0.2460893 0.9692467 0.001037347
vn 0.2460893 0.9692467 0.001037347
vn 0.2460893 0.9692467 0.001037347
vn -0.2875177 -0.6761488 0.6783484
vn -0.2875177 -0.6761488 0.6783484
vn -0.2875177 -0.6761488 0.6783484
vn -0.2875177 -0.6761488 0.6783484
vn -0.2875177 -0.6761488 0.6783484
vn -0.2875177 -0.6761488 0.6783484
vn -0.2875177 -0.6761488 0.6783484
vn -0.2875177 -0.6761488 0.6783484
vn -0.2875177 -0.6761488 0.6783484
vn -0.2875177 -0.6761488 0.6783484
vn -0.2875177 -0.6761488 0.6783484
vn -0.2875177 -0.6761488 0.6783484
vn -0.2875177 -0.6761488 0.6783484
vn -0.2875177 -0.6761488 0.6783484
vn -0.2875177 -0.6761488 0.6783484
vn 0.4267991 0.7760973 0.4642366
vn 0.4267991 0.7760973 0.4642366
vn 0.4267991 0.7760973 0.4642366
vn 0.4267991 0.7760973 0.4642366
vn 0.4267991 0.7760973 0.4642366
vn 0.4267991 0.7760973 0.4642366
vn 0.4267991 0.7760973 0.4642366
vn 0.4267991 0.7760973 0.4642366
vn 0.4267991 0.7760973 0.4642366
vn 0.4267991 0.7760973 0.4642366
vn 0.4267991 0.7760973 0.4642366
vn 0.4267991 0.7760973 0.4642366
vn 0.4267991 0.7760973 0.4642366
vn 0.4267991 0.7760973 0.4642366
vn 0.4267991 0.7760973 0.4642366
vn -0.8234432 0.3210335 -0.4678448
vn -0.8234432 0.3210335 -0.4678448
vn -0.8234432 0.3210335 -0.4678448
vn -0.8234432 0.3210335 -0.4678448
vn -0.8234432 0.3210335 -0.4678448
vn -0.8234432 0.3210335 -0.4678448
vn -0.8234432 0.3210335 -0.4678448
vn -0.8234432 0.3210335 -0.4678448
vn -0.8234432 0.3210335 -0.4678448
vn -0.8234432 0.3210335 -0.4678448
vn -0.8234432 0.3210335 -0.4678448
vn -0.8234432 0.3210335 -0.4678448
vn -0.8234432 0.3210335 -0.4678448
vn -0.8234432 0.3210335 -0.4678448
vn -0.8234432 0.3210335 -0.4678448
vn 0.6200975 -0.7838754 0.03191416
vn 0.6200975 -0.7838754 0.03191416
vn 0.6200975 -0.7838754 0.03191416
vn 0.6200975 -0.7838754 0.03191416
vn 0.6200975 -0.7838754 0.03191416
vn 0.6200975 -0.7838754 0.03191416
vn 0.6200975 -0.7838754 0.03191416
vn 0.6200975 -0.7838754 0.03191416
vn 0.6200975 -0.7838754 0.03191416
vn 0.0507802 -0.7479932 -0.661761
vn 0.0507802 -0.7479932 -0.661761
vn 0.0507802 -0.7479932 -0.661761
vn 0.0507802 -0.7479932 -0.661761
vn 0.0507802 -0.7479932 -0.661761
vn 0.0507802 -0.7479932 -0.661761
vn 0.0507802 -0.7479932 -0.661761
vn 0.0507802 -0.7479932 -0.661761
vn 0.0507802 -0.7479932 -0.661761
vn 0.0507802 -0.7479932 -0.661761
vn 0.0507802 -0.7479932 -0.661761
vn 0.0507802 -0.7479932 -0.661761
vn 0.0507802 -0.7479932 -0.661761
vn 0.0507802 -0.7479932 -0.661761
vn 0.0507802 -0.7479932 -0.661761
vn 0.0507802 -0.7479932 -0.661761
vn 0.0507802 -0.7479932 -0.661761
vn 0.0507802 -0.7479932 -0.661761
vn 0.0507802 -0.7479932 -0.661761
vn 0.0507802 -0.7479932 -0.661761
vn 0.0507802 -0.7479932 -0.661761
vn 0.0507802 -0.7479932 -0.661761
vn 0.0507802 -0.7479932 -0.661761
vn 0.0507802 -0.7479932 -0.661761
vn -0.7199041 -0.6129863 0.3255546
vn -0.7199041 -0.6129863 0.3255546
vn -0.7199041 -0.6129863 0.3255546
vn -0.7199041 -0.6129863 0.3255546
vn -0.7199041 -0.6129863 0.3255546
vn -0.7199041 -0.6129863 0.3255546
vn -0.2732809 0.4641123 0.842566
vn -0.2732809 0.4641123 0.842566
vn -0.2732809 0.4641123 0.842566
vn -0.2732809 0.4641123 0.842566
vn -0.2732809 0.4641123 0.842566
vn -0.2732809 0.4641123 0.842566
vn -0.2732809 0.4641123 0.842566
vn -0.2732809 0.4641123 0.842566
vn -0.2732809 0.4641123 0.842566
vn -0.2732809 0.4641123 0.842566
vn -0.2732809 0.4641123 0.842566
vn -0.2732809 0.4641123 0.842566
vn -0.2732809 0.4641123 0.842566
vn -0.2732809 0.4641123 0.842566
vn -0.2732809 0.4641123 0.842566
vn 0.3371097 -0.8729582 -0.3525639
vn 0.3371097 -0.8729582 -0.3525639
vn 0.3371097 -0.8729582 -0.3525639
vn 0.3371097 -0.8729582 -0.3525639
vn 0.3371097 -0.8729582 -0.3525639
vn 0.3371097 -0.8729582 -0.3525639
vn 0.3371097 -0.8729582 -0.3525639
vn 0.3371097 -0.8729582 -0.3525639
vn 0.3371097 -0.8729582 -0.3525639
vn 0.1414873 0.1058286 -0.9842671
vn 0.1414873 0.1058286 -0.9842671
vn 0.1414873 0.1058286 -0.9842671
vn 0.1414873 0.1058286 -0.9842671
vn 0.1414873 0.1058286 -0.9842671
vn 0.1414873 0.1058286 -0.9842671
vn 0.1414873 0.1058286 -0.9842671
vn 0.1414873 0.1058286 -0.9842671
vn 0.1414873 0.1058286 -0.9842671
vn 0.4653402 -0.5723549 0.6751804
vn 0.4653402 -0.5723549 0.6751804
vn 0.4653402 -0.5723549 0.6751804
vn 0.4653402 -0.5723549 0.6751804
vn 0.4653402 -0.5723549 0.6751804
vn 0.4653402 -0.5723549 0.6751804
vn 0.293737 -0.9438168 0.1514215
vn 0.293737 -0.9438168 0.1514215
vn 0.293737 -0.9438168 0.1514215
vn 0.293737 -0.9438168 0.1514215
vn 0.293737 -0.9438168 0.1514215
vn 0.293737 -0.9438168 0.1514215
vn 0.293737 -0.9438168 0.1514215
vn 0.293737 -0.9438168 0.1514215
vn 0.293737 -0.9438168 0.1514215
vn 0.293737 -0.9438168 0.1514215
vn 0.293737 -0.9438168 0.1514215
vn 0.293737 -0.9438168 0.1514215
vn -0.4824205 -0.7080324 -0.5157139
vn -0.4824205 -0.7080324 -0.5157139
vn -0.4824205 -0.7080324 -0.5157139
vn -0.4824205 -0.7080324 -0.5157139
vn -0.4824205 -0.7080324 -0.5157139
vn -0.4824205 -0.7080324 -0.5157139
vn -0.633356 0.7725241 -0.04546154
vn -0.633356 0.7725241 -0.04546154
vn -0.633356 0.7725241 -0.04546154
vn 0.3476522 0.06928951 0.9350598
vn 0.3476522 0.06928951 0.9350598
vn 0.3476522 0.06928951 0.9350598
vn 0.3476522 0.06928951 0.9350598
vn 0.3476522 0.06928951 0.9350598
vn 0.3476522 0.06928951 0.9350598

vt 0.9126621 0.1466398
vt 0.9126574 0.1466176
vt 0.9126378 0.1466413
vt 0.9126378 0.1466413
vt 0.912515 0.1467752
vt 0.9126621 0.1466398
vt 0.9126621 0.1466398
vt 0.912515 0.1467752
vt 0.9125644 0.1468063
vt 0.9125644 0.1468063
vt 0.912515 0.1467752
vt 0.9125264 0.1467967
vt 0.9125264 0.1467967
vt 0.912515 0.1467752
vt 0.9125208 0.1467892
vt 0.9126949 0.1468226
vt 0.9126621 0.1466398
vt 0.9126652 0.1468326
vt 0.9126652 0.1468326
vt 0.9126621 0.1466398
vt 0.9125644 0.1468063
vt 0.9126621 0.1466398
vt 0.912845 0.1464428
vt 0.9126574 0.1466176
vt 0.9126574 0.1466176
vt 0.912845 0.1464428
vt 0.9127682 0.1464606
vt 0.9129249 0.1464243
vt 0.912845 0.1464428
vt 0.9129347 0.1466096
vt 0.9129347 0.1466096
vt 0.912845 0.1464428
vt 0.9129231 0.1466226
vt 0.9129231 0.1466226
vt 0.912845 0.1464428
vt 0.9126621 0.1466398
vt 0.9056504 0.1493514
vt 0.9055731 0.149296
vt 0.9056563 0.1493601
vt 0.9056563 0.1493601
vt 0.9055731 0.149296
vt 0.9054776 0.1493007
vt 0.9054776 0.1493007
vt 0.9055731 0.149296
vt 0.9054729 0.1492687
vt 0.9056504 0.1493514
vt 0.905622 0.1493099
vt 0.9055731 0.149296
vt 0.9126621 0.1466398
vt 0.9126949 0.1468226
vt 0.9129231 0.1466226
vt 0.9129231 0.1466226
vt 0.9126949 0.1468226
vt 0.9127575 0.146803
vt 0.1999907 0.8478614
vt 0.1946588 0.8415748
vt 0.3836364 0.7726746
vt 0.3836364 0.7726746
vt 0.1946588 0.8415748
vt 0.5223172 0.6655428
vt 0.5223172 0.6655428
vt 0.1946588 0.8415748
vt 0.4745815 0.4417705
vt 0.4745815 0.4417705
vt 0.1946588 0.8415748
vt 0.3197606 0.5844513
vt 0.7006123 0.5537265
vt 0.5073506 0.5755384
vt 0.7070572 0.5443572
vt 0.7070572 0.5443572
vt 0.5073506 0.5755384
vt 0.7210273 0.518345
vt 0.7210273 0.518345
vt 0.5073506 0.5755384
vt 0.7343919 0.4933479
vt 0.7343919 0.4933479
vt 0.5073506 0.5755384
vt 0.4515821 0.3574286
vt 0.4515821 0.3574286
vt 0.5073506 0.5755384
vt 0.422869 0.3703509
vt 0.422869 0.3703509
vt 0.5073506 0.5755384
vt 0.4258772 0.4228271
vt 0.3820997 0.3147174
vt 0.4631307 0.2858693
vt 0.2651796 0.4280425
vt 0.2651796 0.4280425
vt 0.4631307 0.2858693
vt 0.3156208 0.508715
vt 0.3156208 0.508715
vt 0.4631307 0.2858693
vt 0.3738667 0.5297539
vt 0.3738667 0.5297539
vt 0.4631307 0.2858693
vt 0.4106964 0.5232717
vt 0.4106964 0.5232717
vt 0.4631307 0.2858693
vt 0.5592353 0.3356446
vt 0.8333558 0.4579478
vt 0.7936994 0.5081841
vt 0.6903024 0.3683392
vt 0.6903024 0.3683392
vt 0.7936994 0.5081841
vt 0.5341172 0.3096789
vt 0.5341172 0.3096789
vt 0.7936994 0.5081841
vt 0.4240983 0.3920371
vt 0.4240983 0.3920371
vt 0.7936994 0.5081841
vt 0.7331067 0.565303
vt 0.7331067 0.565303
vt 0.7936994 0.5081841
vt 0.7862394 0.516445
vt 0.4981303 0.5864257
vt 0.4234464 0.4159957
vt 0.5009429 0.5890242
vt 0.5009429 0.5890242
vt 0.4234464 0.4159957
vt 0.5921954 0.5740389
vt 0.5921954 0.5740389
vt 0.4234464 0.4159957
vt 0.5807027 0.3785373
vt 0.5807027 0.3785373
vt 0.4234464 0.4159957
vt 0.5251856 0.3045053
vt 0.5251856 0.3045053
vt 0.4234464 0.4159957
vt 0.4961699 0.2942513
vt 0.3654241 0.4306503
vt 0.3205709 0.4632936
vt 0.3615125 0.4192554
vt 0.3615125 0.4192554
vt 0.3205709 0.4632936
vt 0.3030338 0.4201448
vt 0.3030338 0.4201448
vt 0.3205709 0.4632936
vt 0.3077417 0.4319355
vt 0.1994691 0.5317469
vt 0.188633 0.5139025
vt 0.4952804 0.5865002
vt 0.188633 0.5139025
vt 0.1863373 0.5101771
vt 0.4952804 0.5865002
vt 0.4952804 0.5865002
vt 0.1863373 0.5101771
vt 0.4979906 0.5828866
vt 0.4979906 0.5828866
vt 0.1863373 0.5101771
vt 0.4642995 0.2816829
vt 0.4642995 0.2816829
vt 0.1863373 0.5101771
vt 0.4070735 0.2614776
vt 0.4070735 0.2614776
vt 0.1863373 0.5101771
vt 0.2525879 0.308687
vt 0.2525879 0.308687
vt 0.1863373 0.5101771
vt 0.1386295 0.4052387
vt 0.1386295 0.4052387
vt 0.1863373 0.5101771
vt 0.1826864 0.5031549
vt 0.3811171 0.4392419
vt 0.5285757 0.3259494
vt 0.5294419 0.4836154
vt 0.5294419 0.4836154
vt 0.5285757 0.3259494
vt 0.6085404 0.3772474
vt 0.4121865 0.3410231
vt 0.5271601 0.2483923
vt 0.3591236 0.4991222
vt 0.3591236 0.4991222
vt 0.5271601 0.2483923
vt 0.4014063 0.5267363
vt 0.4014063 0.5267363
vt 0.5271601 0.2483923
vt 0.5040909 0.5451861
vt 0.5040909 0.5451861
vt 0.5271601 0.2483923
vt 0.5419497 0.5006403
vt 0.5419497 0.5006403
vt 0.5271601 0.2483923
vt 0.5802556 0.2779157
vt 0.3545507 0.3604414
vt 0.2521875 0.4224126
vt 0.2864234 0.3512585
vt 0.2864234 0.3512585
vt 0.2521875 0.4224126
vt 0.2403362 0.388498
vt 0.2403362 0.388498
vt 0.2521875 0.4224126
vt 0.243214 0.3991571
vt 0.4369741 0.4367412
vt 0.4824047 0.2456029
vt 0.5159654 0.4607511
vt 0.5247759 0.2330811
vt 0.5159654 0.4607511
vt 0.5108617 0.2373047
vt 0.5159654 0.4607511
vt 0.4824047 0.2456029
vt 0.5108617 0.2373047
vt 0.3167338 0.6335235
vt 0.2375096 0.635144
vt 0.3710121 0.594249
vt 0.3710121 0.594249
vt 0.2375096 0.635144
vt 0.2355165 0.632024
vt 0.2818459 0.4383711
vt 0.3268062 0.4165033
vt 0.2854036 0.4500221
vt 0.2854036 0.4500221
vt 0.3268062 0.4165033
vt 0.3499546 0.4582551
vt 0.3499546 0.4582551
vt 0.3268062 0.4165033
vt 0.4694265 0.4310927
vt 0.4694265 0.4310927
vt 0.3268062 0.4165033
vt 0.4145242 0.3865282
vt 0.4967845 0.5844886
vt 0.3658479 0.3538476
vt 0.5596545 0.4031246
vt 0.5596545 0.4031246
vt 0.3658479 0.3538476
vt 0.3975599 0.3490838
vt 0.5194207 0.3652611
vt 0.5212461 0.4178397
vt 0.4634147 0.359892
vt 0.5027218 0.4582365
vt 0.4743347 0.4785396
vt 0.4579292 0.3071364
vt 0.4579292 0.3071364
vt 0.4743347 0.4785396
vt 0.4367133 0.4226128

usemtl Material0
usemap Material0
f 1/1/1 2/2/2 3/3/3
f 4/4/4 5/5/5 6/6/6
f 7/7/7 8/8/8 9/9/9
f 10/10/10 11/11/11 12/12/12
f 13/13/13 14/14/14 15/15/15
f 16/16/16 17/17/17 18/18/18
f 19/19/19 20/20/20 21/21/21
f 22/22/22 23/23/23 24/24/24
f 25/25/25 26/26/26 27/27/27
f 28/28/28 29/29/29 30/30/30
f 31/31/31 32/32/32 33/33/33
f 34/34/34 35/35/35 36/36/36
f 37/37/37 38/38/38 39/39/39
f 40/40/40 41/41/41 42/42/42
f 43/43/43 44/44/44 45/45/45
f 46/46/46 47/47/47 48/48/48
f 49/49/49 50/50/50 51/51/51
f 52/52/52 53/53/53 54/54/54

usemtl Material1
usemap Material1
f 55/55/55 56/56/56 57/57/57
f 58/58/58 59/59/59 60/60/60
f 61/61/61 62/62/62 63/63/63
f 64/64/64 65/65/65 66/66/66
f 67/67/67 68/68/68 69/69/69
f 70/70/70 71/71/71 72/72/72
f 73/73/73 74/74/74 75/75/75
f 76/76/76 77/77/77 78/78/78
f 79/79/79 80/80/80 81/81/81
f 82/82/82 83/83/83 84/84/84
f 85/85/85 86/86/86 87/87/87
f 88/88/88 89/89/89 90/90/90
f 91/91/91 92/92/92 93/93/93
f 94/94/94 95/95/95 96/96/96
f 97/97/97 98/98/98 99/99/99
f 100/100/100 101/101/101 102/102/102
f 103/103/103 104/104/104 105/105/105
f 106/106/106 107/107/107 108/108/108
f 109/109/109 110/110/110 111/111/111
f 112/112/112 113/113/113 114/114/114
f 115/115/115 116/116/116 117/117/117
f 118/118/118 119/119/119 120/120/120
f 121/121/121 122/122/122 123/123/123
f 124/124/124 125/125/125 126/126/126
f 127/127/127 128/128/128 129/129/129
f 130/130/130 131/131/131 132/132/132
f 133/133/133 134/134/134 135/135/135
f 136/136/136 137/137/137 138/138/138
f 139/139/139 140/140/140 141/141/141
f 142/142/142 143/143/143 144/144/144
f 145/145/145 146/146/146 147/147/147
f 148/148/148 149/149/149 150/150/150
f 151/151/151 152/152/152 153/153/153
f 154/154/154 155/155/155 156/156/156
f 157/157/157 158/158/158 159/159/159
f 160/160/160 161/161/161 162/162/162
f 163/163/163 164/164/164 165/165/165
f 166/166/166 167/167/167 168/168/168
f 169/169/169 170/170/170 171/171/171
f 172/172/172 173/173/173 174/174/174
f 175/175/175 176/176/176 177/177/177
f 178/178/178 179/179/179 180/180/180
f 181/181/181 182/182/182 183/183/183
f 184/184/184 185/185/185 186/186/186
f 187/187/187 188/188/188 189/189/189
f 190/190/190 191/191/191 192/192/192
f 193/193/193 194/194/194 195/195/195
f 196/196/196 197/197/197 198/198/198
f 199/199/199 200/200/200 201/201/201
f 202/202/202 203/203/203 204/204/204
f 205/205/205 206/206/206 207/207/207
f 208/208/208 209/209/209 210/210/210
f 211/211/211 212/212/212 213/213/213
f 214/214/214 215/215/215 216/216/216
f 217/217/217 218/218/218 219/219/219
f 220/220/220 221/221/221 222/222/222
f 223/223/223 224/224/224 225/225/225
f 226/226/226 227/227/227 228/228/228
f 229/229/229 230/230/230 231/231/231
f 232/232/232 233/233/233 234/234/234
