g  Instance
v -0.761219 -55.58309 1.362357
v -0.5715282 -55.72003 1.19262
v -0.5201069 -55.37749 1.218033
v -0.5201069 -55.37749 1.218033
v -0.5715282 -55.72003 1.19262
v -0.4861504 -55.51503 1.166386
v -2.243715 -55.59518 0.4242496
v -0.866909 -55.32407 -0.350351
v -2.033551 -55.71953 0.7662115
v -2.033551 -55.71953 0.7662115
v -0.866909 -55.32407 -0.350351
v -0.6714768 -55.81445 1.008167
v -1.388185 -53.56643 1.52765
v -1.328563 -53.50989 1.491496
v -1.441612 -53.51118 1.474284
v -1.441612 -53.51118 1.474284
v -1.328563 -53.50989 1.491496
v -1.381941 -53.44669 1.431698
v -1.441612 -53.51118 1.474284
v -1.381941 -53.44669 1.431698
v -2.918761 -53.34828 0.1745403
v -2.918761 -53.34828 0.1745403
v -1.381941 -53.44669 1.431698
v -1.899854 -52.76888 0.1455351
v -2.878019 -54.44289 0.3508053
v -1.416001 -54.40054 1.611007
v -3.014299 -53.55102 0.1179484
v -3.014299 -53.55102 0.1179484
v -1.416001 -54.40054 1.611007
v -2.918761 -53.34828 0.1745403
v -2.918761 -53.34828 0.1745403
v -1.416001 -54.40054 1.611007
v -1.441612 -53.51118 1.474284
v -1.441612 -53.51118 1.474284
v -1.416001 -54.40054 1.611007
v -1.388185 -53.56643 1.52765
v -1.226352 -55.36203 1.589926
v -1.416001 -54.40054 1.611007
v -2.04256 -55.67887 0.8304312
v -2.04256 -55.67887 0.8304312
v -1.416001 -54.40054 1.611007
v -2.630925 -55.07621 0.441557
v -2.630925 -55.07621 0.441557
v -1.416001 -54.40054 1.611007
v -2.878019 -54.44289 0.3508053
v -0.4861504 -55.51503 1.166386
v -0.7516358 -54.94655 -0.5347502
v -0.5201069 -55.37749 1.218033
v -0.5201069 -55.37749 1.218033
v -0.7516358 -54.94655 -0.5347502
v -0.9006981 -53.95504 1.302065
v -0.9006981 -53.95504 1.302065
v -0.7516358 -54.94655 -0.5347502
v -1.114945 -53.56962 -0.3751506
v -1.114945 -53.56962 -0.3751506
v -0.7516358 -54.94655 -0.5347502
v -0.9573306 -54.22286 -0.6764945
v -0.761219 -55.58309 1.362357
v -1.226352 -55.36203 1.589926
v -0.5715282 -55.72003 1.19262
v -0.5715282 -55.72003 1.19262
v -1.226352 -55.36203 1.589926
v -0.6714768 -55.81445 1.008167
v -0.6714768 -55.81445 1.008167
v -1.226352 -55.36203 1.589926
v -2.033551 -55.71953 0.7662115
v -2.033551 -55.71953 0.7662115
v -1.226352 -55.36203 1.589926
v -2.04256 -55.67887 0.8304312
v -0.5201069 -55.37749 1.218033
v -0.9006981 -53.95504 1.302065
v -0.761219 -55.58309 1.362357
v -0.761219 -55.58309 1.362357
v -0.9006981 -53.95504 1.302065
v -1.226352 -55.36203 1.589926
v -1.226352 -55.36203 1.589926
v -0.9006981 -53.95504 1.302065
v -1.416001 -54.40054 1.611007
v -1.416001 -54.40054 1.611007
v -0.9006981 -53.95504 1.302065
v -1.388185 -53.56643 1.52765
v -1.388185 -53.56643 1.52765
v -0.9006981 -53.95504 1.302065
v -1.328563 -53.50989 1.491496
v -2.878019 -54.44289 0.3508053
v -3.014299 -53.55102 0.1179484
v -2.630925 -55.07621 0.441557
v -2.630925 -55.07621 0.441557
v -3.014299 -53.55102 0.1179484
v -2.243715 -55.59518 0.4242496
v -2.243715 -55.59518 0.4242496
v -3.014299 -53.55102 0.1179484
v -0.866909 -55.32407 -0.350351
v -0.866909 -55.32407 -0.350351
v -3.014299 -53.55102 0.1179484
v -0.7516358 -54.94655 -0.5347502
v -0.7516358 -54.94655 -0.5347502
v -3.014299 -53.55102 0.1179484
v -0.9573306 -54.22286 -0.6764945
v -2.630925 -55.07621 0.441557
v -2.243715 -55.59518 0.4242496
v -2.04256 -55.67887 0.8304312
v -2.04256 -55.67887 0.8304312
v -2.243715 -55.59518 0.4242496
v -2.033551 -55.71953 0.7662115
v -0.6714768 -55.81445 1.008167
v -0.866909 -55.32407 -0.350351
v -0.5715282 -55.72003 1.19262
v -0.5715282 -55.72003 1.19262
v -0.866909 -55.32407 -0.350351
v -0.4861504 -55.51503 1.166386
v -0.4861504 -55.51503 1.166386
v -0.866909 -55.32407 -0.350351
v -0.7516358 -54.94655 -0.5347502
v -1.114945 -53.56962 -0.3751506
v -0.9573306 -54.22286 -0.6764945
v -1.899854 -52.76888 0.1455351
v -1.899854 -52.76888 0.1455351
v -0.9573306 -54.22286 -0.6764945
v -2.918761 -53.34828 0.1745403
v -2.918761 -53.34828 0.1745403
v -0.9573306 -54.22286 -0.6764945
v -3.014299 -53.55102 0.1179484
v -1.328563 -53.50989 1.491496
v -0.9006981 -53.95504 1.302065
v -1.381941 -53.44669 1.431698
v -1.381941 -53.44669 1.431698
v -0.9006981 -53.95504 1.302065
v -1.899854 -52.76888 0.1455351
v -1.899854 -52.76888 0.1455351
v -0.9006981 -53.95504 1.302065
v -1.114945 -53.56962 -0.3751506

vn 0.5979015 -0.1481987 0.7877507
vn 0.5979015 -0.1481987 0.7877507
vn 0.5979015 -0.1481987 0.7877507
vn 0.5979015 -0.1481987 0.7877507
vn 0.5979015 -0.1481987 0.7877507
vn 0.5979015 -0.1481987 0.7877507
vn -0.005372026 -0.9408308 -0.3388344
vn -0.005372026 -0.9408308 -0.3388344
vn -0.005372026 -0.9408308 -0.3388344
vn -0.005372026 -0.9408308 -0.3388344
vn -0.005372026 -0.9408308 -0.3388344
vn -0.005372026 -0.9408308 -0.3388344
vn -0.1245508 0.6244168 0.7710973
vn -0.1245508 0.6244168 0.7710973
vn -0.1245508 0.6244168 0.7710973
vn -0.1245508 0.6244168 0.7710973
vn -0.1245508 0.6244168 0.7710973
vn -0.1245508 0.6244168 0.7710973
vn -0.4015406 0.7335797 0.5482938
vn -0.4015406 0.7335797 0.5482938
vn -0.4015406 0.7335797 0.5482938
vn -0.4015406 0.7335797 0.5482938
vn -0.4015406 0.7335797 0.5482938
vn -0.4015406 0.7335797 0.5482938
vn -0.6514282 0.09693357 0.7524927
vn -0.6514282 0.09693357 0.7524927
vn -0.6514282 0.09693357 0.7524927
vn -0.6514282 0.09693357 0.7524927
vn -0.6514282 0.09693357 0.7524927
vn -0.6514282 0.09693357 0.7524927
vn -0.6514282 0.09693357 0.7524927
vn -0.6514282 0.09693357 0.7524927
vn -0.6514282 0.09693357 0.7524927
vn -0.6514282 0.09693357 0.7524927
vn -0.6514282 0.09693357 0.7524927
vn -0.6514282 0.09693357 0.7524927
vn -0.6437508 -0.1434586 0.7516679
vn -0.6437508 -0.1434586 0.7516679
vn -0.6437508 -0.1434586 0.7516679
vn -0.6437508 -0.1434586 0.7516679
vn -0.6437508 -0.1434586 0.7516679
vn -0.6437508 -0.1434586 0.7516679
vn -0.6437508 -0.1434586 0.7516679
vn -0.6437508 -0.1434586 0.7516679
vn -0.6437508 -0.1434586 0.7516679
vn 0.9631671 0.2614304 -0.06295562
vn 0.9631671 0.2614304 -0.06295562
vn 0.9631671 0.2614304 -0.06295562
vn 0.9631671 0.2614304 -0.06295562
vn 0.9631671 0.2614304 -0.06295562
vn 0.9631671 0.2614304 -0.06295562
vn 0.9631671 0.2614304 -0.06295562
vn 0.9631671 0.2614304 -0.06295562
vn 0.9631671 0.2614304 -0.06295562
vn 0.9631671 0.2614304 -0.06295562
vn 0.9631671 0.2614304 -0.06295562
vn 0.9631671 0.2614304 -0.06295562
vn -0.1501364 -0.844712 0.5137321
vn -0.1501364 -0.844712 0.5137321
vn -0.1501364 -0.844712 0.5137321
vn -0.1501364 -0.844712 0.5137321
vn -0.1501364 -0.844712 0.5137321
vn -0.1501364 -0.844712 0.5137321
vn -0.1501364 -0.844712 0.5137321
vn -0.1501364 -0.844712 0.5137321
vn -0.1501364 -0.844712 0.5137321
vn -0.1501364 -0.844712 0.5137321
vn -0.1501364 -0.844712 0.5137321
vn -0.1501364 -0.844712 0.5137321
vn 0.4659517 0.07258141 0.8818283
vn 0.4659517 0.07258141 0.8818283
vn 0.4659517 0.07258141 0.8818283
vn 0.4659517 0.07258141 0.8818283
vn 0.4659517 0.07258141 0.8818283
vn 0.4659517 0.07258141 0.8818283
vn 0.4659517 0.07258141 0.8818283
vn 0.4659517 0.07258141 0.8818283
vn 0.4659517 0.07258141 0.8818283
vn 0.4659517 0.07258141 0.8818283
vn 0.4659517 0.07258141 0.8818283
vn 0.4659517 0.07258141 0.8818283
vn 0.4659517 0.07258141 0.8818283
vn 0.4659517 0.07258141 0.8818283
vn 0.4659517 0.07258141 0.8818283
vn -0.4255761 -0.2889249 -0.857559
vn -0.4255761 -0.2889249 -0.857559
vn -0.4255761 -0.2889249 -0.857559
vn -0.4255761 -0.2889249 -0.857559
vn -0.4255761 -0.2889249 -0.857559
vn -0.4255761 -0.2889249 -0.857559
vn -0.4255761 -0.2889249 -0.857559
vn -0.4255761 -0.2889249 -0.857559
vn -0.4255761 -0.2889249 -0.857559
vn -0.4255761 -0.2889249 -0.857559
vn -0.4255761 -0.2889249 -0.857559
vn -0.4255761 -0.2889249 -0.857559
vn -0.4255761 -0.2889249 -0.857559
vn -0.4255761 -0.2889249 -0.857559
vn -0.4255761 -0.2889249 -0.857559
vn -0.7695443 -0.5828198 0.2610035
vn -0.7695443 -0.5828198 0.2610035
vn -0.7695443 -0.5828198 0.2610035
vn -0.7695443 -0.5828198 0.2610035
vn -0.7695443 -0.5828198 0.2610035
vn -0.7695443 -0.5828198 0.2610035
vn 0.8760128 -0.3994696 -0.2702327
vn 0.8760128 -0.3994696 -0.2702327
vn 0.8760128 -0.3994696 -0.2702327
vn 0.8760128 -0.3994696 -0.2702327
vn 0.8760128 -0.3994696 -0.2702327
vn 0.8760128 -0.3994696 -0.2702327
vn 0.8760128 -0.3994696 -0.2702327
vn 0.8760128 -0.3994696 -0.2702327
vn 0.8760128 -0.3994696 -0.2702327
vn -0.2310152 0.361047 -0.9034806
vn -0.2310152 0.361047 -0.9034806
vn -0.2310152 0.361047 -0.9034806
vn -0.2310152 0.361047 -0.9034806
vn -0.2310152 0.361047 -0.9034806
vn -0.2310152 0.361047 -0.9034806
vn -0.2310152 0.361047 -0.9034806
vn -0.2310152 0.361047 -0.9034806
vn -0.2310152 0.361047 -0.9034806
vn 0.7326564 0.6777541 0.0621613
vn 0.7326564 0.6777541 0.0621613
vn 0.7326564 0.6777541 0.0621613
vn 0.7326564 0.6777541 0.0621613
vn 0.7326564 0.6777541 0.0621613
vn 0.7326564 0.6777541 0.0621613
vn 0.7326564 0.6777541 0.0621613
vn 0.7326564 0.6777541 0.0621613
vn 0.7326564 0.6777541 0.0621613

vt 0.626571 0.5263079
vt 0.6390043 0.5655638
vt 0.5898764 0.5596777
vt 0.5898764 0.5596777
vt 0.6390043 0.5655638
vt 0.6077301 0.5716175
vt 0.5378984 0.4225197
vt 0.40963 0.4993085
vt 0.5182286 0.3886144
vt 0.5182286 0.3886144
vt 0.40963 0.4993085
vt 0.391143 0.3646325
vt 0.5823511 0.4414119
vt 0.5919346 0.4492398
vt 0.5766234 0.4529651
vt 0.5766234 0.4529651
vt 0.5919346 0.4492398
vt 0.5864304 0.4621854
vt 0.5807306 0.4023749
vt 0.5894759 0.4077161
vt 0.4529744 0.5654613
vt 0.4529744 0.5654613
vt 0.5894759 0.4077161
vt 0.5759528 0.5691029
vt 0.4741717 0.5699877
vt 0.5084216 0.3150341
vt 0.5890381 0.617104
vt 0.5890381 0.617104
vt 0.5084216 0.3150341
vt 0.6176302 0.6056579
vt 0.6176302 0.6056579
vt 0.5084216 0.3150341
vt 0.6251274 0.3427041
vt 0.6251274 0.3427041
vt 0.5084216 0.3150341
vt 0.6188968 0.3319053
vt 0.3579361 0.3198584
vt 0.4882908 0.3156022
vt 0.340413 0.4730727
vt 0.340413 0.4730727
vt 0.4882908 0.3156022
vt 0.4357074 0.5515192
vt 0.4357074 0.5515192
vt 0.4882908 0.3156022
vt 0.5251018 0.5698293
vt 0.625351 0.3895783
vt 0.5709981 0.5394491
vt 0.612899 0.3850287
vt 0.612899 0.3850287
vt 0.5709981 0.5394491
vt 0.4834292 0.3776246
vt 0.4834292 0.3776246
vt 0.5709981 0.5394491
vt 0.4457892 0.5253859
vt 0.4457892 0.5253859
vt 0.5709981 0.5394491
vt 0.5048546 0.5519383
vt 0.3711844 0.4291788
vt 0.4219842 0.4020489
vt 0.3496286 0.4494167
vt 0.3496286 0.4494167
vt 0.4219842 0.4020489
vt 0.3580013 0.4714056
vt 0.3580013 0.4714056
vt 0.4219842 0.4020489
vt 0.4968683 0.5002491
vt 0.4968683 0.5002491
vt 0.4219842 0.4020489
vt 0.4985029 0.4925935
vt 0.7167617 0.5784814
vt 0.4443177 0.5453258
vt 0.7476635 0.5215394
vt 0.7476635 0.5215394
vt 0.4443177 0.5453258
vt 0.6936925 0.4317353
vt 0.6936925 0.4317353
vt 0.4443177 0.5453258
vt 0.511467 0.4234138
vt 0.511467 0.4234138
vt 0.4443177 0.5453258
vt 0.3589047 0.4562993
vt 0.3589047 0.4562993
vt 0.4443177 0.5453258
vt 0.3502153 0.4705674
vt 0.5947007 0.3366411
vt 0.7336469 0.4138722
vt 0.4816363 0.306545
vt 0.4816363 0.306545
vt 0.7336469 0.4138722
vt 0.3712822 0.3122866
vt 0.3712822 0.3122866
vt 0.7336469 0.4138722
vt 0.2776223 0.5691867
vt 0.2776223 0.5691867
vt 0.7336469 0.4138722
vt 0.3198631 0.6303476
vt 0.3198631 0.6303476
vt 0.7336469 0.4138722
vt 0.4417146 0.6773522
vt 0.4951221 0.4835409
vt 0.4362616 0.4851615
vt 0.4191529 0.4469208
vt 0.4191529 0.4469208
vt 0.4362616 0.4851615
vt 0.4157116 0.4529744
vt 0.5732334 0.3686326
vt 0.5399567 0.4972316
vt 0.5616196 0.35117
vt 0.5616196 0.35117
vt 0.5399567 0.4972316
vt 0.5414003 0.353652
vt 0.5414003 0.353652
vt 0.5399567 0.4972316
vt 0.5042865 0.5146849
vt 0.4631866 0.3556823
vt 0.5279797 0.3410743
vt 0.3786956 0.428443
vt 0.3786956 0.428443
vt 0.5279797 0.3410743
vt 0.4262497 0.5228992
vt 0.4262497 0.5228992
vt 0.5279797 0.3410743
vt 0.4451279 0.5317562
vt 0.4723509 0.3719388
vt 0.5266292 0.3886284
vt 0.4650818 0.3772102
vt 0.4650818 0.3772102
vt 0.5266292 0.3886284
vt 0.3904165 0.4905073
vt 0.3904165 0.4905073
vt 0.5266292 0.3886284
vt 0.4889613 0.5363757

usemtl Material0
usemap Material0

usemtl Material1
usemap Material1
f 1/1/1 2/2/2 3/3/3
f 4/4/4 5/5/5 6/6/6
f 7/7/7 8/8/8 9/9/9
f 10/10/10 11/11/11 12/12/12
f 13/13/13 14/14/14 15/15/15
f 16/16/16 17/17/17 18/18/18
f 19/19/19 20/20/20 21/21/21
f 22/22/22 23/23/23 24/24/24
f 25/25/25 26/26/26 27/27/27
f 28/28/28 29/29/29 30/30/30
f 31/31/31 32/32/32 33/33/33
f 34/34/34 35/35/35 36/36/36
f 37/37/37 38/38/38 39/39/39
f 40/40/40 41/41/41 42/42/42
f 43/43/43 44/44/44 45/45/45
f 46/46/46 47/47/47 48/48/48
f 49/49/49 50/50/50 51/51/51
f 52/52/52 53/53/53 54/54/54
f 55/55/55 56/56/56 57/57/57
f 58/58/58 59/59/59 60/60/60
f 61/61/61 62/62/62 63/63/63
f 64/64/64 65/65/65 66/66/66
f 67/67/67 68/68/68 69/69/69
f 70/70/70 71/71/71 72/72/72
f 73/73/73 74/74/74 75/75/75
f 76/76/76 77/77/77 78/78/78
f 79/79/79 80/80/80 81/81/81
f 82/82/82 83/83/83 84/84/84
f 85/85/85 86/86/86 87/87/87
f 88/88/88 89/89/89 90/90/90
f 91/91/91 92/92/92 93/93/93
f 94/94/94 95/95/95 96/96/96
f 97/97/97 98/98/98 99/99/99
f 100/100/100 101/101/101 102/102/102
f 103/103/103 104/104/104 105/105/105
f 106/106/106 107/107/107 108/108/108
f 109/109/109 110/110/110 111/111/111
f 112/112/112 113/113/113 114/114/114
f 115/115/115 116/116/116 117/117/117
f 118/118/118 119/119/119 120/120/120
f 121/121/121 122/122/122 123/123/123
f 124/124/124 125/125/125 126/126/126
f 127/127/127 128/128/128 129/129/129
f 130/130/130 131/131/131 132/132/132
