g  Instance
v 4.843321 -55.18959 -0.7967546
v 4.95978 -55.19495 -0.6292135
v 3.759544 -55.19287 -0.9979881
v 3.759544 -55.19287 -0.9979881
v 4.95978 -55.19495 -0.6292135
v 3.674728 -55.19709 -0.9125789
v 2.853192 -52.58485 0.5190247
v 2.548019 -53.2508 0.7204407
v 3.46204 -52.44865 0.9104484
v 3.46204 -52.44865 0.9104484
v 2.548019 -53.2508 0.7204407
v 3.847685 -53.08823 1.641246
v 3.847685 -53.08823 1.641246
v 2.548019 -53.2508 0.7204407
v 2.603356 -53.47204 0.9114297
v 3.847685 -53.08823 1.641246
v 4.136664 -53.17906 1.596015
v 3.46204 -52.44865 0.9104484
v 3.46204 -52.44865 0.9104484
v 4.136664 -53.17906 1.596015
v 4.524104 -51.89094 -0.6165088
v 4.524104 -51.89094 -0.6165088
v 4.136664 -53.17906 1.596015
v 4.92338 -52.25705 -0.3117682
v 5.426061 -53.75461 -0.1437823
v 5.412438 -53.785 -0.1132673
v 5.423171 -53.81229 -0.1585398
v 4.136664 -53.17906 1.596015
v 4.255116 -53.28251 1.498478
v 4.92338 -52.25705 -0.3117682
v 4.92338 -52.25705 -0.3117682
v 4.255116 -53.28251 1.498478
v 5.314803 -53.22911 -0.140593
v 2.750119 -53.52693 -1.297949
v 2.399229 -52.9316 -1.025236
v 4.061258 -52.27752 -1.138483
v 4.061258 -52.27752 -1.138483
v 2.399229 -52.9316 -1.025236
v 4.096731 -51.96505 -1.039633
v 4.096731 -51.96505 -1.039633
v 2.399229 -52.9316 -1.025236
v 2.496989 -52.49271 -0.8960564
v 2.496989 -52.49271 -0.8960564
v 2.399229 -52.9316 -1.025236
v 2.386814 -52.64595 -0.9258264
v 2.324016 -52.57209 -0.7263737
v 2.386814 -52.64595 -0.9258264
v 2.313929 -52.57932 -0.6985592
v 2.313929 -52.57932 -0.6985592
v 2.386814 -52.64595 -0.9258264
v 2.277554 -52.70024 -0.6192563
v 2.277554 -52.70024 -0.6192563
v 2.386814 -52.64595 -0.9258264
v 2.3216 -53.46375 -0.9166384
v 2.3216 -53.46375 -0.9166384
v 2.386814 -52.64595 -0.9258264
v 2.399229 -52.9316 -1.025236
v 2.496989 -52.49271 -0.8960564
v 2.324016 -52.57209 -0.7263737
v 4.096731 -51.96505 -1.039633
v 4.096731 -51.96505 -1.039633
v 2.324016 -52.57209 -0.7263737
v 4.524104 -51.89094 -0.6165088
v 4.524104 -51.89094 -0.6165088
v 2.324016 -52.57209 -0.7263737
v 3.46204 -52.44865 0.9104484
v 3.46204 -52.44865 0.9104484
v 2.324016 -52.57209 -0.7263737
v 2.853192 -52.58485 0.5190247
v 2.853192 -52.58485 0.5190247
v 2.324016 -52.57209 -0.7263737
v 2.313929 -52.57932 -0.6985592
v 2.313929 -52.57932 -0.6985592
v 2.277554 -52.70024 -0.6192563
v 2.853192 -52.58485 0.5190247
v 2.853192 -52.58485 0.5190247
v 2.277554 -52.70024 -0.6192563
v 2.548019 -53.2508 0.7204407
v 2.399229 -52.9316 -1.025236
v 2.750119 -53.52693 -1.297949
v 2.3216 -53.46375 -0.9166384
v 2.3216 -53.46375 -0.9166384
v 2.750119 -53.52693 -1.297949
v 2.423226 -54.36273 -0.9428003
v 2.423226 -54.36273 -0.9428003
v 2.750119 -53.52693 -1.297949
v 2.754214 -54.37115 -1.240261
v 5.426061 -53.75461 -0.1437823
v 5.423171 -53.81229 -0.1585398
v 5.314803 -53.22911 -0.140593
v 5.314803 -53.22911 -0.140593
v 5.423171 -53.81229 -0.1585398
v 4.92338 -52.25705 -0.3117682
v 4.92338 -52.25705 -0.3117682
v 5.423171 -53.81229 -0.1585398
v 4.524104 -51.89094 -0.6165088
v 4.524104 -51.89094 -0.6165088
v 5.423171 -53.81229 -0.1585398
v 4.096731 -51.96505 -1.039633
v 4.096731 -51.96505 -1.039633
v 5.423171 -53.81229 -0.1585398
v 4.061258 -52.27752 -1.138483
v 4.061258 -52.27752 -1.138483
v 5.423171 -53.81229 -0.1585398
v 5.046776 -55.02549 -0.7700137
v 5.046776 -55.02549 -0.7700137
v 5.423171 -53.81229 -0.1585398
v 5.115495 -55.00916 -0.7010587
v 2.520434 -54.6911 -0.5611262
v 2.423226 -54.36273 -0.9428003
v 3.674728 -55.19709 -0.9125789
v 3.674728 -55.19709 -0.9125789
v 2.423226 -54.36273 -0.9428003
v 3.759544 -55.19287 -0.9979881
v 3.759544 -55.19287 -0.9979881
v 2.423226 -54.36273 -0.9428003
v 2.754214 -54.37115 -1.240261
v 2.520434 -54.6911 -0.5611262
v 3.674728 -55.19709 -0.9125789
v 2.603356 -53.47204 0.9114297
v 2.603356 -53.47204 0.9114297
v 3.674728 -55.19709 -0.9125789
v 3.847685 -53.08823 1.641246
v 3.847685 -53.08823 1.641246
v 3.674728 -55.19709 -0.9125789
v 4.136664 -53.17906 1.596015
v 4.136664 -53.17906 1.596015
v 3.674728 -55.19709 -0.9125789
v 4.255116 -53.28251 1.498478
v 4.255116 -53.28251 1.498478
v 3.674728 -55.19709 -0.9125789
v 4.821267 -53.93789 0.8402785
v 4.821267 -53.93789 0.8402785
v 3.674728 -55.19709 -0.9125789
v 4.979967 -55.18644 -0.6146494
v 4.979967 -55.18644 -0.6146494
v 3.674728 -55.19709 -0.9125789
v 4.95978 -55.19495 -0.6292135
v 2.603356 -53.47204 0.9114297
v 2.548019 -53.2508 0.7204407
v 2.520434 -54.6911 -0.5611262
v 2.520434 -54.6911 -0.5611262
v 2.548019 -53.2508 0.7204407
v 2.423226 -54.36273 -0.9428003
v 2.423226 -54.36273 -0.9428003
v 2.548019 -53.2508 0.7204407
v 2.3216 -53.46375 -0.9166384
v 2.3216 -53.46375 -0.9166384
v 2.548019 -53.2508 0.7204407
v 2.277554 -52.70024 -0.6192563
v 2.386814 -52.64595 -0.9258264
v 2.324016 -52.57209 -0.7263737
v 2.496989 -52.49271 -0.8960564
v 4.255116 -53.28251 1.498478
v 4.821267 -53.93789 0.8402785
v 5.314803 -53.22911 -0.140593
v 5.314803 -53.22911 -0.140593
v 4.821267 -53.93789 0.8402785
v 5.426061 -53.75461 -0.1437823
v 5.426061 -53.75461 -0.1437823
v 4.821267 -53.93789 0.8402785
v 5.412438 -53.785 -0.1132673
v 5.046776 -55.02549 -0.7700137
v 5.115495 -55.00916 -0.7010587
v 4.843321 -55.18959 -0.7967546
v 4.843321 -55.18959 -0.7967546
v 5.115495 -55.00916 -0.7010587
v 4.95978 -55.19495 -0.6292135
v 4.95978 -55.19495 -0.6292135
v 5.115495 -55.00916 -0.7010587
v 4.979967 -55.18644 -0.6146494
v 5.046776 -55.02549 -0.7700137
v 4.843321 -55.18959 -0.7967546
v 4.061258 -52.27752 -1.138483
v 4.061258 -52.27752 -1.138483
v 4.843321 -55.18959 -0.7967546
v 2.750119 -53.52693 -1.297949
v 2.750119 -53.52693 -1.297949
v 4.843321 -55.18959 -0.7967546
v 2.754214 -54.37115 -1.240261
v 2.754214 -54.37115 -1.240261
v 4.843321 -55.18959 -0.7967546
v 3.759544 -55.19287 -0.9979881
v 5.423171 -53.81229 -0.1585398
v 5.412438 -53.785 -0.1132673
v 5.115495 -55.00916 -0.7010587
v 5.115495 -55.00916 -0.7010587
v 5.412438 -53.785 -0.1132673
v 4.979967 -55.18644 -0.6146494
v 4.979967 -55.18644 -0.6146494
v 5.412438 -53.785 -0.1132673
v 4.821267 -53.93789 0.8402785

vn 0.01028979 -0.9991808 -0.03914177
vn 0.01028979 -0.9991808 -0.03914177
vn 0.01028979 -0.9991808 -0.03914177
vn 0.01028979 -0.9991808 -0.03914177
vn 0.01028979 -0.9991808 -0.03914177
vn 0.01028979 -0.9991808 -0.03914177
vn -0.5503623 0.4624501 0.6951556
vn -0.5503623 0.4624501 0.6951556
vn -0.5503623 0.4624501 0.6951556
vn -0.5503623 0.4624501 0.6951556
vn -0.5503623 0.4624501 0.6951556
vn -0.5503623 0.4624501 0.6951556
vn -0.5503623 0.4624501 0.6951556
vn -0.5503623 0.4624501 0.6951556
vn -0.5503623 0.4624501 0.6951556
vn 0.3292533 0.7898134 0.5174815
vn 0.3292533 0.7898134 0.5174815
vn 0.3292533 0.7898134 0.5174815
vn 0.3292533 0.7898134 0.5174815
vn 0.3292533 0.7898134 0.5174815
vn 0.3292533 0.7898134 0.5174815
vn 0.3292533 0.7898134 0.5174815
vn 0.3292533 0.7898134 0.5174815
vn 0.3292533 0.7898134 0.5174815
vn 0.9461699 -0.1239106 0.2990131
vn 0.9461699 -0.1239106 0.2990131
vn 0.9461699 -0.1239106 0.2990131
vn 0.7647155 0.3972617 0.5073397
vn 0.7647155 0.3972617 0.5073397
vn 0.7647155 0.3972617 0.5073397
vn 0.7647155 0.3972617 0.5073397
vn 0.7647155 0.3972617 0.5073397
vn 0.7647155 0.3972617 0.5073397
vn -0.187565 0.3155596 -0.9301836
vn -0.187565 0.3155596 -0.9301836
vn -0.187565 0.3155596 -0.9301836
vn -0.187565 0.3155596 -0.9301836
vn -0.187565 0.3155596 -0.9301836
vn -0.187565 0.3155596 -0.9301836
vn -0.187565 0.3155596 -0.9301836
vn -0.187565 0.3155596 -0.9301836
vn -0.187565 0.3155596 -0.9301836
vn -0.187565 0.3155596 -0.9301836
vn -0.187565 0.3155596 -0.9301836
vn -0.187565 0.3155596 -0.9301836
vn -0.9434887 0.07160433 -0.3235769
vn -0.9434887 0.07160433 -0.3235769
vn -0.9434887 0.07160433 -0.3235769
vn -0.9434887 0.07160433 -0.3235769
vn -0.9434887 0.07160433 -0.3235769
vn -0.9434887 0.07160433 -0.3235769
vn -0.9434887 0.07160433 -0.3235769
vn -0.9434887 0.07160433 -0.3235769
vn -0.9434887 0.07160433 -0.3235769
vn -0.9434887 0.07160433 -0.3235769
vn -0.9434887 0.07160433 -0.3235769
vn -0.9434887 0.07160433 -0.3235769
vn -0.2992092 0.9443306 0.1367986
vn -0.2992092 0.9443306 0.1367986
vn -0.2992092 0.9443306 0.1367986
vn -0.2992092 0.9443306 0.1367986
vn -0.2992092 0.9443306 0.1367986
vn -0.2992092 0.9443306 0.1367986
vn -0.2992092 0.9443306 0.1367986
vn -0.2992092 0.9443306 0.1367986
vn -0.2992092 0.9443306 0.1367986
vn -0.2992092 0.9443306 0.1367986
vn -0.2992092 0.9443306 0.1367986
vn -0.2992092 0.9443306 0.1367986
vn -0.2992092 0.9443306 0.1367986
vn -0.2992092 0.9443306 0.1367986
vn -0.2992092 0.9443306 0.1367986
vn -0.8031532 0.4762948 0.3578945
vn -0.8031532 0.4762948 0.3578945
vn -0.8031532 0.4762948 0.3578945
vn -0.8031532 0.4762948 0.3578945
vn -0.8031532 0.4762948 0.3578945
vn -0.8031532 0.4762948 0.3578945
vn -0.6682153 -0.0539457 -0.7420096
vn -0.6682153 -0.0539457 -0.7420096
vn -0.6682153 -0.0539457 -0.7420096
vn -0.6682153 -0.0539457 -0.7420096
vn -0.6682153 -0.0539457 -0.7420096
vn -0.6682153 -0.0539457 -0.7420096
vn -0.6682153 -0.0539457 -0.7420096
vn -0.6682153 -0.0539457 -0.7420096
vn -0.6682153 -0.0539457 -0.7420096
vn 0.682573 0.1488501 -0.7154983
vn 0.682573 0.1488501 -0.7154983
vn 0.682573 0.1488501 -0.7154983
vn 0.682573 0.1488501 -0.7154983
vn 0.682573 0.1488501 -0.7154983
vn 0.682573 0.1488501 -0.7154983
vn 0.682573 0.1488501 -0.7154983
vn 0.682573 0.1488501 -0.7154983
vn 0.682573 0.1488501 -0.7154983
vn 0.682573 0.1488501 -0.7154983
vn 0.682573 0.1488501 -0.7154983
vn 0.682573 0.1488501 -0.7154983
vn 0.682573 0.1488501 -0.7154983
vn 0.682573 0.1488501 -0.7154983
vn 0.682573 0.1488501 -0.7154983
vn 0.682573 0.1488501 -0.7154983
vn 0.682573 0.1488501 -0.7154983
vn 0.682573 0.1488501 -0.7154983
vn 0.682573 0.1488501 -0.7154983
vn 0.682573 0.1488501 -0.7154983
vn 0.682573 0.1488501 -0.7154983
vn -0.4708508 -0.7245083 -0.5033758
vn -0.4708508 -0.7245083 -0.5033758
vn -0.4708508 -0.7245083 -0.5033758
vn -0.4708508 -0.7245083 -0.5033758
vn -0.4708508 -0.7245083 -0.5033758
vn -0.4708508 -0.7245083 -0.5033758
vn -0.4708508 -0.7245083 -0.5033758
vn -0.4708508 -0.7245083 -0.5033758
vn -0.4708508 -0.7245083 -0.5033758
vn -0.1390072 -0.7589587 0.6361281
vn -0.1390072 -0.7589587 0.6361281
vn -0.1390072 -0.7589587 0.6361281
vn -0.1390072 -0.7589587 0.6361281
vn -0.1390072 -0.7589587 0.6361281
vn -0.1390072 -0.7589587 0.6361281
vn -0.1390072 -0.7589587 0.6361281
vn -0.1390072 -0.7589587 0.6361281
vn -0.1390072 -0.7589587 0.6361281
vn -0.1390072 -0.7589587 0.6361281
vn -0.1390072 -0.7589587 0.6361281
vn -0.1390072 -0.7589587 0.6361281
vn -0.1390072 -0.7589587 0.6361281
vn -0.1390072 -0.7589587 0.6361281
vn -0.1390072 -0.7589587 0.6361281
vn -0.1390072 -0.7589587 0.6361281
vn -0.1390072 -0.7589587 0.6361281
vn -0.1390072 -0.7589587 0.6361281
vn -0.1390072 -0.7589587 0.6361281
vn -0.1390072 -0.7589587 0.6361281
vn -0.1390072 -0.7589587 0.6361281
vn -0.9818073 -0.1153797 0.1508045
vn -0.9818073 -0.1153797 0.1508045
vn -0.9818073 -0.1153797 0.1508045
vn -0.9818073 -0.1153797 0.1508045
vn -0.9818073 -0.1153797 0.1508045
vn -0.9818073 -0.1153797 0.1508045
vn -0.9818073 -0.1153797 0.1508045
vn -0.9818073 -0.1153797 0.1508045
vn -0.9818073 -0.1153797 0.1508045
vn -0.9818073 -0.1153797 0.1508045
vn -0.9818073 -0.1153797 0.1508045
vn -0.9818073 -0.1153797 0.1508045
vn -0.6903979 0.5802367 -0.4320603
vn -0.6903979 0.5802367 -0.4320603
vn -0.6903979 0.5802367 -0.4320603
vn 0.8248038 0.1713438 0.5388323
vn 0.8248038 0.1713438 0.5388323
vn 0.8248038 0.1713438 0.5388323
vn 0.8248038 0.1713438 0.5388323
vn 0.8248038 0.1713438 0.5388323
vn 0.8248038 0.1713438 0.5388323
vn 0.8248038 0.1713438 0.5388323
vn 0.8248038 0.1713438 0.5388323
vn 0.8248038 0.1713438 0.5388323
vn 0.598641 -0.6708618 -0.4376911
vn 0.598641 -0.6708618 -0.4376911
vn 0.598641 -0.6708618 -0.4376911
vn 0.598641 -0.6708618 -0.4376911
vn 0.598641 -0.6708618 -0.4376911
vn 0.598641 -0.6708618 -0.4376911
vn 0.598641 -0.6708618 -0.4376911
vn 0.598641 -0.6708618 -0.4376911
vn 0.598641 -0.6708618 -0.4376911
vn 0.1823458 -0.06614485 -0.9810072
vn 0.1823458 -0.06614485 -0.9810072
vn 0.1823458 -0.06614485 -0.9810072
vn 0.1823458 -0.06614485 -0.9810072
vn 0.1823458 -0.06614485 -0.9810072
vn 0.1823458 -0.06614485 -0.9810072
vn 0.1823458 -0.06614485 -0.9810072
vn 0.1823458 -0.06614485 -0.9810072
vn 0.1823458 -0.06614485 -0.9810072
vn 0.1823458 -0.06614485 -0.9810072
vn 0.1823458 -0.06614485 -0.9810072
vn 0.1823458 -0.06614485 -0.9810072
vn 0.8051067 -0.4038702 0.4343873
vn 0.8051067 -0.4038702 0.4343873
vn 0.8051067 -0.4038702 0.4343873
vn 0.8051067 -0.4038702 0.4343873
vn 0.8051067 -0.4038702 0.4343873
vn 0.8051067 -0.4038702 0.4343873
vn 0.8051067 -0.4038702 0.4343873
vn 0.8051067 -0.4038702 0.4343873
vn 0.8051067 -0.4038702 0.4343873

vt 0.4087546 0.4986751
vt 0.3985331 0.4839507
vt 0.5039325 0.5163519
vt 0.5039325 0.5163519
vt 0.3985331 0.4839507
vt 0.5113832 0.5088453
vt 0.5171203 0.5024191
vt 0.4309204 0.4682204
vt 0.5776572 0.4359542
vt 0.5776572 0.4359542
vt 0.4309204 0.4682204
vt 0.548171 0.3118536
vt 0.548171 0.3118536
vt 0.4309204 0.4682204
vt 0.4145894 0.435782
vt 0.4873687 0.3144008
vt 0.5183031 0.3198212
vt 0.4256257 0.4019837
vt 0.4256257 0.4019837
vt 0.5183031 0.3198212
vt 0.5041468 0.5849822
vt 0.5041468 0.5849822
vt 0.5183031 0.3198212
vt 0.5563855 0.5484644
vt 0.4988149 0.4924445
vt 0.5017439 0.4895015
vt 0.5041095 0.4938695
vt 0.4826142 0.319295
vt 0.4975249 0.3308203
vt 0.436229 0.5447298
vt 0.436229 0.5447298
vt 0.4975249 0.3308203
vt 0.5424526 0.5245011
vt 0.5319285 0.515998
vt 0.4737339 0.5479149
vt 0.4216489 0.3967543
vt 0.4216489 0.3967543
vt 0.4737339 0.5479149
vt 0.392377 0.3935272
vt 0.392377 0.3935272
vt 0.4737339 0.5479149
vt 0.4328948 0.5390207
vt 0.4328948 0.5390207
vt 0.4737339 0.5479149
vt 0.4467159 0.5490419
vt 0.5804419 0.4521455
vt 0.5740529 0.4716943
vt 0.5797061 0.4494167
vt 0.5797061 0.4494167
vt 0.5740529 0.4716943
vt 0.5682693 0.4416447
vt 0.5682693 0.4416447
vt 0.5740529 0.4716943
vt 0.4979673 0.4707909
vt 0.4979673 0.4707909
vt 0.5740529 0.4716943
vt 0.547724 0.4814361
vt 0.4194044 0.5300239
vt 0.4026729 0.5148525
vt 0.5686139 0.5428671
vt 0.5686139 0.5428671
vt 0.4026729 0.5148525
vt 0.6066869 0.5050269
vt 0.6066869 0.5050269
vt 0.4026729 0.5148525
vt 0.5020792 0.3684789
vt 0.5020792 0.3684789
vt 0.4026729 0.5148525
vt 0.4470185 0.4034832
vt 0.4470185 0.4034832
vt 0.4026729 0.5148525
vt 0.4016298 0.5123658
vt 0.508077 0.5550583
vt 0.496561 0.5470768
vt 0.5334746 0.432513
vt 0.5334746 0.432513
vt 0.496561 0.5470768
vt 0.4650166 0.4122378
vt 0.5956972 0.3948637
vt 0.5143263 0.4481128
vt 0.5270856 0.3736571
vt 0.5270856 0.3736571
vt 0.5143263 0.4481128
vt 0.408722 0.3787655
vt 0.408722 0.3787655
vt 0.5143263 0.4481128
vt 0.4041351 0.4368483
vt 0.5685953 0.307006
vt 0.575599 0.3096603
vt 0.5011292 0.3064332
vt 0.5011292 0.3064332
vt 0.575599 0.3096603
vt 0.3713614 0.3372139
vt 0.3713614 0.3372139
vt 0.575599 0.3096603
vt 0.3157466 0.3920045
vt 0.3157466 0.3920045
vt 0.575599 0.3096603
vt 0.3134043 0.4680807
vt 0.3134043 0.4680807
vt 0.575599 0.3096603
vt 0.3508021 0.4858506
vt 0.3508021 0.4858506
vt 0.575599 0.3096603
vt 0.7144147 0.4196046
vt 0.7144147 0.4196046
vt 0.575599 0.3096603
vt 0.7142471 0.4072085
vt 0.5449021 0.3995902
vt 0.5713521 0.4444527
vt 0.4186081 0.4408996
vt 0.4186081 0.4408996
vt 0.5713521 0.4444527
vt 0.4116184 0.4509348
vt 0.4116184 0.4509348
vt 0.5713521 0.4444527
vt 0.5426948 0.4794151
vt 0.6184125 0.5811637
vt 0.4789168 0.632974
vt 0.6341149 0.3641156
vt 0.6341149 0.3641156
vt 0.4789168 0.632974
vt 0.5027777 0.2565415
vt 0.5027777 0.2565415
vt 0.4789168 0.632974
vt 0.468593 0.2632098
vt 0.468593 0.2632098
vt 0.4789168 0.632974
vt 0.4532212 0.277585
vt 0.4532212 0.277585
vt 0.4789168 0.632974
vt 0.3764511 0.3746071
vt 0.3764511 0.3746071
vt 0.4789168 0.632974
vt 0.333116 0.5890521
vt 0.333116 0.5890521
vt 0.4789168 0.632974
vt 0.3351975 0.5912035
vt 0.5194114 0.3700575
vt 0.539491 0.3872127
vt 0.4127966 0.5022888
vt 0.4127966 0.5022888
vt 0.539491 0.3872127
vt 0.4427484 0.536562
vt 0.4427484 0.536562
vt 0.539491 0.3872127
vt 0.5230529 0.534215
vt 0.5230529 0.534215
vt 0.539491 0.3872127
vt 0.5908263 0.5074949
vt 0.4798901 0.4460639
vt 0.4814547 0.4245407
vt 0.4982002 0.4428508
vt 0.4823209 0.3317283
vt 0.5611632 0.4131179
vt 0.4993317 0.5344012
vt 0.4993317 0.5344012
vt 0.5611632 0.4131179
vt 0.5552865 0.5348017
vt 0.5552865 0.5348017
vt 0.5611632 0.4131179
vt 0.5580991 0.5310298
vt 0.5039698 0.4192461
vt 0.4979068 0.4117628
vt 0.5294512 0.4221472
vt 0.5294512 0.4221472
vt 0.4979068 0.4117628
vt 0.5213206 0.4039582
vt 0.5213206 0.4039582
vt 0.4979068 0.4117628
vt 0.5192996 0.4023795
vt 0.6271577 0.3458101
vt 0.6416214 0.3642786
vt 0.380251 0.4352651
vt 0.380251 0.4352651
vt 0.6416214 0.3642786
vt 0.4905492 0.554276
vt 0.4905492 0.554276
vt 0.6416214 0.3642786
vt 0.5660714 0.5539035
vt 0.5660714 0.5539035
vt 0.6416214 0.3642786
vt 0.6406994 0.462651
vt 0.4511211 0.5151319
vt 0.4492118 0.510233
vt 0.5687816 0.5738154
vt 0.5687816 0.5738154
vt 0.4492118 0.510233
vt 0.5901371 0.5644741
vt 0.5901371 0.5644741
vt 0.4492118 0.510233
vt 0.4883513 0.4071061

usemtl Material0
usemap Material0

usemtl Material1
usemap Material1
f 1/1/1 2/2/2 3/3/3
f 4/4/4 5/5/5 6/6/6
f 7/7/7 8/8/8 9/9/9
f 10/10/10 11/11/11 12/12/12
f 13/13/13 14/14/14 15/15/15
f 16/16/16 17/17/17 18/18/18
f 19/19/19 20/20/20 21/21/21
f 22/22/22 23/23/23 24/24/24
f 25/25/25 26/26/26 27/27/27
f 28/28/28 29/29/29 30/30/30
f 31/31/31 32/32/32 33/33/33
f 34/34/34 35/35/35 36/36/36
f 37/37/37 38/38/38 39/39/39
f 40/40/40 41/41/41 42/42/42
f 43/43/43 44/44/44 45/45/45
f 46/46/46 47/47/47 48/48/48
f 49/49/49 50/50/50 51/51/51
f 52/52/52 53/53/53 54/54/54
f 55/55/55 56/56/56 57/57/57
f 58/58/58 59/59/59 60/60/60
f 61/61/61 62/62/62 63/63/63
f 64/64/64 65/65/65 66/66/66
f 67/67/67 68/68/68 69/69/69
f 70/70/70 71/71/71 72/72/72
f 73/73/73 74/74/74 75/75/75
f 76/76/76 77/77/77 78/78/78
f 79/79/79 80/80/80 81/81/81
f 82/82/82 83/83/83 84/84/84
f 85/85/85 86/86/86 87/87/87
f 88/88/88 89/89/89 90/90/90
f 91/91/91 92/92/92 93/93/93
f 94/94/94 95/95/95 96/96/96
f 97/97/97 98/98/98 99/99/99
f 100/100/100 101/101/101 102/102/102
f 103/103/103 104/104/104 105/105/105
f 106/106/106 107/107/107 108/108/108
f 109/109/109 110/110/110 111/111/111
f 112/112/112 113/113/113 114/114/114
f 115/115/115 116/116/116 117/117/117
f 118/118/118 119/119/119 120/120/120
f 121/121/121 122/122/122 123/123/123
f 124/124/124 125/125/125 126/126/126
f 127/127/127 128/128/128 129/129/129
f 130/130/130 131/131/131 132/132/132
f 133/133/133 134/134/134 135/135/135
f 136/136/136 137/137/137 138/138/138
f 139/139/139 140/140/140 141/141/141
f 142/142/142 143/143/143 144/144/144
f 145/145/145 146/146/146 147/147/147
f 148/148/148 149/149/149 150/150/150
f 151/151/151 152/152/152 153/153/153
f 154/154/154 155/155/155 156/156/156
f 157/157/157 158/158/158 159/159/159
f 160/160/160 161/161/161 162/162/162
f 163/163/163 164/164/164 165/165/165
f 166/166/166 167/167/167 168/168/168
f 169/169/169 170/170/170 171/171/171
f 172/172/172 173/173/173 174/174/174
f 175/175/175 176/176/176 177/177/177
f 178/178/178 179/179/179 180/180/180
f 181/181/181 182/182/182 183/183/183
f 184/184/184 185/185/185 186/186/186
f 187/187/187 188/188/188 189/189/189
f 190/190/190 191/191/191 192/192/192
