g  Instance
v -5.577496 -41.74219 -1.100071
v -5.678325 -41.8067 -1.031206
v -5.508023 -41.6486 -0.8820125
v -5.508023 -41.6486 -0.8820125
v -5.678325 -41.8067 -1.031206
v -5.682197 -41.76492 -0.7893631
v -5.509338 -41.64835 -0.8828336
v -5.681171 -41.76915 -0.783282
v -5.663167 -41.92108 -1.472762
v -5.577496 -41.74219 -1.100071
v -5.663222 -41.92078 -1.47232
v -5.678325 -41.8067 -1.031206
v -5.720165 -41.60812 -1.014502
v -5.663167 -41.92108 -1.472762
v -5.681171 -41.76915 -0.783282
v -5.482207 -42.59078 0.396487
v -5.682197 -41.76492 -0.7893631
v -5.263802 -43.60063 0.5837964
v -5.263802 -43.60063 0.5837964
v -5.682197 -41.76492 -0.7893631
v -5.0689 -44.64336 -0.701795
v -5.0689 -44.64336 -0.701795
v -5.682197 -41.76492 -0.7893631
v -5.067162 -44.68564 -1.051773
v -5.067162 -44.68564 -1.051773
v -5.682197 -41.76492 -0.7893631
v -5.217479 -44.06908 -1.986065
v -5.217479 -44.06908 -1.986065
v -5.682197 -41.76492 -0.7893631
v -5.5497 -42.54409 -2.385029
v -5.5497 -42.54409 -2.385029
v -5.682197 -41.76492 -0.7893631
v -5.663222 -41.92078 -1.47232
v -5.663222 -41.92078 -1.47232
v -5.682197 -41.76492 -0.7893631
v -5.678325 -41.8067 -1.031206
v -5.263802 -43.60063 0.5837964
v -5.125532 -43.56073 0.6823121
v -5.482207 -42.59078 0.396487
v -5.482207 -42.59078 0.396487
v -5.125532 -43.56073 0.6823121
v -5.221203 -42.66082 0.5867442
v -5.681171 -41.76915 -0.783282
v -5.509338 -41.64835 -0.8828336
v -5.720165 -41.60812 -1.014502
v -4.607228 -41.82048 -0.3194362
v -5.508023 -41.6486 -0.8820125
v -5.221203 -42.66082 0.5867442
v -5.221203 -42.66082 0.5867442
v -5.508023 -41.6486 -0.8820125
v -5.482207 -42.59078 0.396487
v -5.482207 -42.59078 0.396487
v -5.508023 -41.6486 -0.8820125
v -5.682197 -41.76492 -0.7893631
v -4.429467 -44.74297 -0.6144875
v -5.0689 -44.64336 -0.701795
v -5.067162 -44.68564 -1.051773
v -3.579709 -44.09087 -1.03594
v -3.554745 -44.08022 -1.022947
v -3.558265 -44.09738 -1.014918
v -3.554745 -44.08022 -1.022947
v -3.579709 -44.09087 -1.03594
v -3.616634 -42.9351 -1.214049
v -3.616634 -42.9351 -1.214049
v -3.579709 -44.09087 -1.03594
v -5.5497 -42.54409 -2.385029
v -5.5497 -42.54409 -2.385029
v -3.579709 -44.09087 -1.03594
v -5.217479 -44.06908 -1.986065
v -5.067162 -44.68564 -1.051773
v -5.217479 -44.06908 -1.986065
v -4.429467 -44.74297 -0.6144875
v -4.429467 -44.74297 -0.6144875
v -5.217479 -44.06908 -1.986065
v -3.962598 -44.70399 -0.4059341
v -3.962598 -44.70399 -0.4059341
v -5.217479 -44.06908 -1.986065
v -3.558265 -44.09738 -1.014918
v -3.558265 -44.09738 -1.014918
v -5.217479 -44.06908 -1.986065
v -3.579709 -44.09087 -1.03594
v -4.429467 -44.74297 -0.6144875
v -3.962598 -44.70399 -0.4059341
v -5.0689 -44.64336 -0.701795
v -5.0689 -44.64336 -0.701795
v -3.962598 -44.70399 -0.4059341
v -5.263802 -43.60063 0.5837964
v -5.263802 -43.60063 0.5837964
v -3.962598 -44.70399 -0.4059341
v -5.125532 -43.56073 0.6823121
v -5.720165 -41.60812 -1.014502
v -5.509338 -41.64835 -0.8828336
v -5.663167 -41.92108 -1.472762
v -5.663222 -41.92078 -1.47232
v -5.577496 -41.74219 -1.100071
v -5.5497 -42.54409 -2.385029
v -5.5497 -42.54409 -2.385029
v -5.577496 -41.74219 -1.100071
v -3.616634 -42.9351 -1.214049
v -3.616634 -42.9351 -1.214049
v -5.577496 -41.74219 -1.100071
v -4.607228 -41.82048 -0.3194362
v -4.607228 -41.82048 -0.3194362
v -5.577496 -41.74219 -1.100071
v -5.508023 -41.6486 -0.8820125
v -4.607228 -41.82048 -0.3194362
v -5.221203 -42.66082 0.5867442
v -3.616634 -42.9351 -1.214049
v -3.616634 -42.9351 -1.214049
v -5.221203 -42.66082 0.5867442
v -3.554745 -44.08022 -1.022947
v -3.554745 -44.08022 -1.022947
v -5.221203 -42.66082 0.5867442
v -3.558265 -44.09738 -1.014918
v -3.558265 -44.09738 -1.014918
v -5.221203 -42.66082 0.5867442
v -3.962598 -44.70399 -0.4059341
v -3.962598 -44.70399 -0.4059341
v -5.221203 -42.66082 0.5867442
v -5.125532 -43.56073 0.6823121

vn -0.6017699 0.7853361 -0.1453278
vn -0.6017699 0.7853361 -0.1453278
vn -0.6017699 0.7853361 -0.1453278
vn -0.6017699 0.7853361 -0.1453278
vn -0.6017699 0.7853361 -0.1453278
vn -0.6017699 0.7853361 -0.1453278
vn 0.6288112 -0.7565631 0.1769559
vn 0.6360184 -0.7490009 0.183122
vn 0.6187536 -0.7605055 0.1935191
vn -0.6263826 0.7492222 -0.2151999
vn -0.6263826 0.7492222 -0.2151999
vn -0.6263826 0.7492222 -0.2151999
vn -0.9779712 -0.2077562 0.02024306
vn -0.9779712 -0.2077562 0.02024306
vn -0.9779712 -0.2077562 0.02024306
vn -0.9779712 -0.2077562 0.02024306
vn -0.9779712 -0.2077562 0.02024306
vn -0.9779712 -0.2077562 0.02024306
vn -0.9779712 -0.2077562 0.02024306
vn -0.9779712 -0.2077562 0.02024306
vn -0.9779712 -0.2077562 0.02024306
vn -0.9779712 -0.2077562 0.02024306
vn -0.9779712 -0.2077562 0.02024306
vn -0.9779712 -0.2077562 0.02024306
vn -0.9779712 -0.2077562 0.02024306
vn -0.9779712 -0.2077562 0.02024306
vn -0.9779712 -0.2077562 0.02024306
vn -0.9779712 -0.2077562 0.02024306
vn -0.9779712 -0.2077562 0.02024306
vn -0.9779712 -0.2077562 0.02024306
vn -0.9779712 -0.2077562 0.02024306
vn -0.9779712 -0.2077562 0.02024306
vn -0.9779712 -0.2077562 0.02024306
vn -0.9779712 -0.2077562 0.02024306
vn -0.9779712 -0.2077562 0.02024306
vn -0.9779712 -0.2077562 0.02024306
vn -0.5846798 0.02395761 0.8109104
vn -0.5846798 0.02395761 0.8109104
vn -0.5846798 0.02395761 0.8109104
vn -0.5846798 0.02395761 0.8109104
vn -0.5846798 0.02395761 0.8109104
vn -0.5846798 0.02395761 0.8109104
vn -0.2140176 0.7842958 0.5823029
vn -0.2140176 0.7842958 0.5823029
vn -0.2140176 0.7842958 0.5823029
vn -0.2140176 0.7842958 0.5823029
vn -0.2140176 0.7842958 0.5823029
vn -0.2140176 0.7842958 0.5823029
vn -0.2140176 0.7842958 0.5823029
vn -0.2140176 0.7842958 0.5823029
vn -0.2140176 0.7842958 0.5823029
vn -0.2140176 0.7842958 0.5823029
vn -0.2140176 0.7842958 0.5823029
vn -0.2140176 0.7842958 0.5823029
vn -0.1685042 -0.9786839 0.1174054
vn -0.1685042 -0.9786839 0.1174054
vn -0.1685042 -0.9786839 0.1174054
vn 0.5553064 -0.4431775 -0.7037249
vn 0.5553064 -0.4431775 -0.7037249
vn 0.5553064 -0.4431775 -0.7037249
vn 0.4972202 -0.1166056 -0.859753
vn 0.4972202 -0.1166056 -0.859753
vn 0.4972202 -0.1166056 -0.859753
vn 0.4972202 -0.1166056 -0.859753
vn 0.4972202 -0.1166056 -0.859753
vn 0.4972202 -0.1166056 -0.859753
vn 0.4972202 -0.1166056 -0.859753
vn 0.4972202 -0.1166056 -0.859753
vn 0.4972202 -0.1166056 -0.859753
vn 0.3132961 -0.7686721 -0.5576637
vn 0.3132961 -0.7686721 -0.5576637
vn 0.3132961 -0.7686721 -0.5576637
vn 0.3132961 -0.7686721 -0.5576637
vn 0.3132961 -0.7686721 -0.5576637
vn 0.3132961 -0.7686721 -0.5576637
vn 0.3132961 -0.7686721 -0.5576637
vn 0.3132961 -0.7686721 -0.5576637
vn 0.3132961 -0.7686721 -0.5576637
vn 0.3132961 -0.7686721 -0.5576637
vn 0.3132961 -0.7686721 -0.5576637
vn 0.3132961 -0.7686721 -0.5576637
vn -0.2024717 -0.7753558 0.5981878
vn -0.2024717 -0.7753558 0.5981878
vn -0.2024717 -0.7753558 0.5981878
vn -0.2024717 -0.7753558 0.5981878
vn -0.2024717 -0.7753558 0.5981878
vn -0.2024717 -0.7753558 0.5981878
vn -0.2024717 -0.7753558 0.5981878
vn -0.2024717 -0.7753558 0.5981878
vn -0.2024717 -0.7753558 0.5981878
vn 0.4390354 0.7664619 -0.4688113
vn 0.4390354 0.7664619 -0.4688113
vn 0.4390354 0.7664619 -0.4688113
vn 0.4390354 0.7664619 -0.4688113
vn 0.4390354 0.7664619 -0.4688113
vn 0.4390354 0.7664619 -0.4688113
vn 0.4390354 0.7664619 -0.4688113
vn 0.4390354 0.7664619 -0.4688113
vn 0.4390354 0.7664619 -0.4688113
vn 0.4390354 0.7664619 -0.4688113
vn 0.4390354 0.7664619 -0.4688113
vn 0.4390354 0.7664619 -0.4688113
vn 0.4390354 0.7664619 -0.4688113
vn 0.4390354 0.7664619 -0.4688113
vn 0.4390354 0.7664619 -0.4688113
vn 0.7494726 0.1481932 0.6452362
vn 0.7494726 0.1481932 0.6452362
vn 0.7494726 0.1481932 0.6452362
vn 0.7494726 0.1481932 0.6452362
vn 0.7494726 0.1481932 0.6452362
vn 0.7494726 0.1481932 0.6452362
vn 0.7494726 0.1481932 0.6452362
vn 0.7494726 0.1481932 0.6452362
vn 0.7494726 0.1481932 0.6452362
vn 0.7494726 0.1481932 0.6452362
vn 0.7494726 0.1481932 0.6452362
vn 0.7494726 0.1481932 0.6452362
vn 0.7494726 0.1481932 0.6452362
vn 0.7494726 0.1481932 0.6452362
vn 0.7494726 0.1481932 0.6452362

vt 0.9036489 0.1474031
vt 0.9036754 0.1473755
vt 0.9036142 0.1473407
vt 0.9036142 0.1473407
vt 0.9036754 0.1473755
vt 0.9036616 0.1473011
vt 0.4667068 0.7936956
vt 0.4667148 0.7936237
vt 0.4664991 0.7936707
vt 0.9036489 0.1474031
vt 0.9036979 0.1475116
vt 0.9036754 0.1473755
vt 0.6378868 0.4955365
vt 0.6099746 0.5357703
vt 0.6233486 0.4752427
vt 0.5491769 0.3716687
vt 0.6237304 0.4757736
vt 0.4584926 0.355226
vt 0.4584926 0.355226
vt 0.6237304 0.4757736
vt 0.3654194 0.4680807
vt 0.3654194 0.4680807
vt 0.6237304 0.4757736
vt 0.3617546 0.4988056
vt 0.3617546 0.4988056
vt 0.6237304 0.4757736
vt 0.41743 0.5808284
vt 0.41743 0.5808284
vt 0.6237304 0.4757736
vt 0.5544204 0.615856
vt 0.5544204 0.615856
vt 0.6237304 0.4757736
vt 0.6100025 0.5357237
vt 0.6100025 0.5357237
vt 0.6237304 0.4757736
vt 0.6200703 0.4970081
vt 0.4033342 0.4283033
vt 0.4101609 0.4030548
vt 0.5533027 0.4763044
vt 0.5533027 0.4763044
vt 0.4101609 0.4030548
vt 0.5444084 0.4275489
vt 0.424564 0.564828
vt 0.445887 0.5780437
vt 0.4250762 0.5955249
vt 0.5349368 0.5032387
vt 0.4460174 0.5779412
vt 0.447121 0.3829193
vt 0.447121 0.3829193
vt 0.4460174 0.5779412
vt 0.421933 0.4081818
vt 0.421933 0.4081818
vt 0.4460174 0.5779412
vt 0.4245733 0.5656383
vt 0.4564809 0.4766863
vt 0.513665 0.4844536
vt 0.5128734 0.5155975
vt 0.5264896 0.3648001
vt 0.5235372 0.3625416
vt 0.5254651 0.3611446
vt 0.6417704 0.3037603
vt 0.6445272 0.3081329
vt 0.4526345 0.3680505
vt 0.4526345 0.3680505
vt 0.6445272 0.3081329
vt 0.4630608 0.7620201
vt 0.4630608 0.7620201
vt 0.6445272 0.3081329
vt 0.7051386 0.6277958
vt 0.6111947 0.4141889
vt 0.6013132 0.5331812
vt 0.5510582 0.3584949
vt 0.5510582 0.3584949
vt 0.6013132 0.5331812
vt 0.5038022 0.3319332
vt 0.5038022 0.3319332
vt 0.6013132 0.5331812
vt 0.4400102 0.409495
vt 0.4400102 0.409495
vt 0.6013132 0.5331812
vt 0.4418496 0.4121726
vt 0.4304501 0.5674171
vt 0.3820624 0.5389183
vt 0.5009522 0.5793476
vt 0.5009522 0.5793476
vt 0.3820624 0.5389183
vt 0.5504621 0.4036694
vt 0.5504621 0.4036694
vt 0.3820624 0.5389183
vt 0.5369112 0.390207
vt 0.3378519 0.4639642
vt 0.3580153 0.449156
vt 0.3582155 0.5155044
vt 0.3581969 0.5154485
vt 0.356772 0.4735849
vt 0.3987613 0.6181005
vt 0.3987613 0.6181005
vt 0.356772 0.4735849
vt 0.5847167 0.4864001
vt 0.5847167 0.4864001
vt 0.356772 0.4735849
vt 0.4442804 0.3857878
vt 0.4442804 0.3857878
vt 0.356772 0.4735849
vt 0.3581364 0.4490628
vt 0.3695872 0.4511863
vt 0.4505902 0.3149456
vt 0.5172414 0.58569
vt 0.5172414 0.58569
vt 0.4505902 0.3149456
vt 0.6476658 0.5569583
vt 0.6476658 0.5569583
vt 0.4505902 0.3149456
vt 0.6495191 0.5557475
vt 0.6495191 0.5557475
vt 0.4505902 0.3149456
vt 0.7088547 0.464197
vt 0.7088547 0.464197
vt 0.4505902 0.3149456
vt 0.5541316 0.3005751

usemtl Material0
usemap Material0
f 1/1/1 2/2/2 3/3/3
f 4/4/4 5/5/5 6/6/6
f 7/7/7 8/8/8 9/9/9
f 10/10/10 11/11/11 12/12/12

usemtl Material1
usemap Material1
f 13/13/13 14/14/14 15/15/15
f 16/16/16 17/17/17 18/18/18
f 19/19/19 20/20/20 21/21/21
f 22/22/22 23/23/23 24/24/24
f 25/25/25 26/26/26 27/27/27
f 28/28/28 29/29/29 30/30/30
f 31/31/31 32/32/32 33/33/33
f 34/34/34 35/35/35 36/36/36
f 37/37/37 38/38/38 39/39/39
f 40/40/40 41/41/41 42/42/42
f 43/43/43 44/44/44 45/45/45
f 46/46/46 47/47/47 48/48/48
f 49/49/49 50/50/50 51/51/51
f 52/52/52 53/53/53 54/54/54
f 55/55/55 56/56/56 57/57/57
f 58/58/58 59/59/59 60/60/60
f 61/61/61 62/62/62 63/63/63
f 64/64/64 65/65/65 66/66/66
f 67/67/67 68/68/68 69/69/69
f 70/70/70 71/71/71 72/72/72
f 73/73/73 74/74/74 75/75/75
f 76/76/76 77/77/77 78/78/78
f 79/79/79 80/80/80 81/81/81
f 82/82/82 83/83/83 84/84/84
f 85/85/85 86/86/86 87/87/87
f 88/88/88 89/89/89 90/90/90
f 91/91/91 92/92/92 93/93/93
f 94/94/94 95/95/95 96/96/96
f 97/97/97 98/98/98 99/99/99
f 100/100/100 101/101/101 102/102/102
f 103/103/103 104/104/104 105/105/105
f 106/106/106 107/107/107 108/108/108
f 109/109/109 110/110/110 111/111/111
f 112/112/112 113/113/113 114/114/114
f 115/115/115 116/116/116 117/117/117
f 118/118/118 119/119/119 120/120/120
