g  Instance
v 4.729476 -52.67938 5.693196
v 4.523958 -51.89139 4.61927
v 4.856409 -52.71843 5.927617
v 4.856409 -52.71843 5.927617
v 4.523958 -51.89139 4.61927
v 5.074783 -52.28281 5.849207
v 5.074783 -52.28281 5.849207
v 4.523958 -51.89139 4.61927
v 5.199521 -51.70872 5.492792
v 2.636593 -52.10942 4.516781
v 3.363463 -52.31921 4.408111
v 3.03021 -52.8354 5.548372
v 3.03021 -52.8354 5.548372
v 3.363463 -52.31921 4.408111
v 3.502725 -52.62807 4.8657
v 2.814141 -49.33994 6.348844
v 3.597759 -50.07941 6.679702
v 3.232454 -49.21128 5.995195
v 3.232454 -49.21128 5.995195
v 3.597759 -50.07941 6.679702
v 3.993278 -49.35685 5.736524
v 3.993278 -49.35685 5.736524
v 3.597759 -50.07941 6.679702
v 4.219306 -49.50307 5.764001
v 3.502725 -52.62807 4.8657
v 3.363463 -52.31921 4.408111
v 4.729476 -52.67938 5.693196
v 4.729476 -52.67938 5.693196
v 3.363463 -52.31921 4.408111
v 4.523958 -51.89139 4.61927
v 4.523958 -51.89139 4.61927
v 3.363463 -52.31921 4.408111
v 4.02869 -51.7092 4.091418
v 4.472283 -49.82107 5.373102
v 4.547946 -49.82162 5.514511
v 4.545585 -49.93559 5.341428
v 4.545585 -49.93559 5.341428
v 4.547946 -49.82162 5.514511
v 4.662203 -50.00645 5.455767
v 2.255642 -51.28052 4.516765
v 2.368888 -50.5975 4.64136
v 2.32056 -51.43578 4.406256
v 2.32056 -51.43578 4.406256
v 2.368888 -50.5975 4.64136
v 2.801078 -50.89536 4.150452
v 2.801078 -50.89536 4.150452
v 2.368888 -50.5975 4.64136
v 2.465698 -50.56514 4.564363
v 4.545585 -49.93559 5.341428
v 3.884756 -50.64492 4.298058
v 4.472283 -49.82107 5.373102
v 4.472283 -49.82107 5.373102
v 3.884756 -50.64492 4.298058
v 4.271536 -49.70596 5.308391
v 2.258236 -51.04404 6.429519
v 2.504805 -49.6036 6.296857
v 2.255642 -51.28052 4.516765
v 2.255642 -51.28052 4.516765
v 2.504805 -49.6036 6.296857
v 2.368888 -50.5975 4.64136
v 3.27024 -53.05691 6.643003
v 3.176761 -53.0232 6.584205
v 3.17662 -53.03404 6.496222
v 4.545585 -49.93559 5.341428
v 4.662203 -50.00645 5.455767
v 3.884756 -50.64492 4.298058
v 3.884756 -50.64492 4.298058
v 4.662203 -50.00645 5.455767
v 3.69975 -50.96181 3.963836
v 3.69975 -50.96181 3.963836
v 4.662203 -50.00645 5.455767
v 4.02869 -51.7092 4.091418
v 4.02869 -51.7092 4.091418
v 4.662203 -50.00645 5.455767
v 4.523958 -51.89139 4.61927
v 4.523958 -51.89139 4.61927
v 4.662203 -50.00645 5.455767
v 5.199521 -51.70872 5.492792
v 4.477978 -52.95196 6.772054
v 4.856409 -52.71843 5.927617
v 5.074783 -52.28281 5.849207
v 2.902746 -52.39867 6.807279
v 3.176761 -53.0232 6.584205
v 3.942766 -53.11034 7.208227
v 3.942766 -53.11034 7.208227
v 3.176761 -53.0232 6.584205
v 3.27024 -53.05691 6.643003
v 4.547946 -49.82162 5.514511
v 4.472283 -49.82107 5.373102
v 4.219306 -49.50307 5.764001
v 4.219306 -49.50307 5.764001
v 4.472283 -49.82107 5.373102
v 3.993278 -49.35685 5.736524
v 3.993278 -49.35685 5.736524
v 4.472283 -49.82107 5.373102
v 4.271536 -49.70596 5.308391
v 4.100852 -53.10287 7.252802
v 3.942766 -53.11034 7.208227
v 4.477978 -52.95196 6.772054
v 4.477978 -52.95196 6.772054
v 3.942766 -53.11034 7.208227
v 4.856409 -52.71843 5.927617
v 4.856409 -52.71843 5.927617
v 3.942766 -53.11034 7.208227
v 4.729476 -52.67938 5.693196
v 4.729476 -52.67938 5.693196
v 3.942766 -53.11034 7.208227
v 3.502725 -52.62807 4.8657
v 3.502725 -52.62807 4.8657
v 3.942766 -53.11034 7.208227
v 3.03021 -52.8354 5.548372
v 3.03021 -52.8354 5.548372
v 3.942766 -53.11034 7.208227
v 3.17662 -53.03404 6.496222
v 3.17662 -53.03404 6.496222
v 3.942766 -53.11034 7.208227
v 3.27024 -53.05691 6.643003
v 3.363463 -52.31921 4.408111
v 2.636593 -52.10942 4.516781
v 4.02869 -51.7092 4.091418
v 4.02869 -51.7092 4.091418
v 2.636593 -52.10942 4.516781
v 3.69975 -50.96181 3.963836
v 3.69975 -50.96181 3.963836
v 2.636593 -52.10942 4.516781
v 2.801078 -50.89536 4.150452
v 2.801078 -50.89536 4.150452
v 2.636593 -52.10942 4.516781
v 2.32056 -51.43578 4.406256
v 3.597759 -50.07941 6.679702
v 2.814141 -49.33994 6.348844
v 4.100852 -53.10287 7.252802
v 4.100852 -53.10287 7.252802
v 2.814141 -49.33994 6.348844
v 3.942766 -53.11034 7.208227
v 3.942766 -53.11034 7.208227
v 2.814141 -49.33994 6.348844
v 2.902746 -52.39867 6.807279
v 2.902746 -52.39867 6.807279
v 2.814141 -49.33994 6.348844
v 2.258236 -51.04404 6.429519
v 2.258236 -51.04404 6.429519
v 2.814141 -49.33994 6.348844
v 2.504805 -49.6036 6.296857
v 2.465698 -50.56514 4.564363
v 3.232454 -49.21128 5.995195
v 2.801078 -50.89536 4.150452
v 2.801078 -50.89536 4.150452
v 3.232454 -49.21128 5.995195
v 3.69975 -50.96181 3.963836
v 3.69975 -50.96181 3.963836
v 3.232454 -49.21128 5.995195
v 3.884756 -50.64492 4.298058
v 3.884756 -50.64492 4.298058
v 3.232454 -49.21128 5.995195
v 4.271536 -49.70596 5.308391
v 4.271536 -49.70596 5.308391
v 3.232454 -49.21128 5.995195
v 3.993278 -49.35685 5.736524
v 4.662203 -50.00645 5.455767
v 4.547946 -49.82162 5.514511
v 5.199521 -51.70872 5.492792
v 5.199521 -51.70872 5.492792
v 4.547946 -49.82162 5.514511
v 5.074783 -52.28281 5.849207
v 5.074783 -52.28281 5.849207
v 4.547946 -49.82162 5.514511
v 4.477978 -52.95196 6.772054
v 4.477978 -52.95196 6.772054
v 4.547946 -49.82162 5.514511
v 4.100852 -53.10287 7.252802
v 4.100852 -53.10287 7.252802
v 4.547946 -49.82162 5.514511
v 3.597759 -50.07941 6.679702
v 3.597759 -50.07941 6.679702
v 4.547946 -49.82162 5.514511
v 4.219306 -49.50307 5.764001
v 3.03021 -52.8354 5.548372
v 3.17662 -53.03404 6.496222
v 2.636593 -52.10942 4.516781
v 2.636593 -52.10942 4.516781
v 3.17662 -53.03404 6.496222
v 2.32056 -51.43578 4.406256
v 2.32056 -51.43578 4.406256
v 3.17662 -53.03404 6.496222
v 2.255642 -51.28052 4.516765
v 2.255642 -51.28052 4.516765
v 3.17662 -53.03404 6.496222
v 2.258236 -51.04404 6.429519
v 2.258236 -51.04404 6.429519
v 3.17662 -53.03404 6.496222
v 2.902746 -52.39867 6.807279
v 2.902746 -52.39867 6.807279
v 3.17662 -53.03404 6.496222
v 3.176761 -53.0232 6.584205
v 2.504805 -49.6036 6.296857
v 2.814141 -49.33994 6.348844
v 2.368888 -50.5975 4.64136
v 2.368888 -50.5975 4.64136
v 2.814141 -49.33994 6.348844
v 2.465698 -50.56514 4.564363
v 2.465698 -50.56514 4.564363
v 2.814141 -49.33994 6.348844
v 3.232454 -49.21128 5.995195

vn 0.7461532 -0.4605858 -0.4807455
vn 0.7461532 -0.4605858 -0.4807455
vn 0.7461532 -0.4605858 -0.4807455
vn 0.7461532 -0.4605858 -0.4807455
vn 0.7461532 -0.4605858 -0.4807455
vn 0.7461532 -0.4605858 -0.4807455
vn 0.7461532 -0.4605858 -0.4807455
vn 0.7461532 -0.4605858 -0.4807455
vn 0.7461532 -0.4605858 -0.4807455
vn -0.3089633 -0.8292578 -0.4656965
vn -0.3089633 -0.8292578 -0.4656965
vn -0.3089633 -0.8292578 -0.4656965
vn -0.3089633 -0.8292578 -0.4656965
vn -0.3089633 -0.8292578 -0.4656965
vn -0.3089633 -0.8292578 -0.4656965
vn 0.3511251 0.6663842 0.6577563
vn 0.3511251 0.6663842 0.6577563
vn 0.3511251 0.6663842 0.6577563
vn 0.3511251 0.6663842 0.6577563
vn 0.3511251 0.6663842 0.6577563
vn 0.3511251 0.6663842 0.6577563
vn 0.3511251 0.6663842 0.6577563
vn 0.3511251 0.6663842 0.6577563
vn 0.3511251 0.6663842 0.6577563
vn 0.3711492 -0.7133563 -0.5944503
vn 0.3711492 -0.7133563 -0.5944503
vn 0.3711492 -0.7133563 -0.5944503
vn 0.3711492 -0.7133563 -0.5944503
vn 0.3711492 -0.7133563 -0.5944503
vn 0.3711492 -0.7133563 -0.5944503
vn 0.3711492 -0.7133563 -0.5944503
vn 0.3711492 -0.7133563 -0.5944503
vn 0.3711492 -0.7133563 -0.5944503
vn 0.7249376 0.5707145 -0.3856818
vn 0.7249376 0.5707145 -0.3856818
vn 0.7249376 0.5707145 -0.3856818
vn 0.7249376 0.5707145 -0.3856818
vn 0.7249376 0.5707145 -0.3856818
vn 0.7249376 0.5707145 -0.3856818
vn -0.6521245 0.2393419 -0.7193395
vn -0.6521245 0.2393419 -0.7193395
vn -0.6521245 0.2393419 -0.7193395
vn -0.6521245 0.2393419 -0.7193395
vn -0.6521245 0.2393419 -0.7193395
vn -0.6521245 0.2393419 -0.7193395
vn -0.6521245 0.2393419 -0.7193395
vn -0.6521245 0.2393419 -0.7193395
vn -0.6521245 0.2393419 -0.7193395
vn 0.5170885 0.5192053 -0.6804745
vn 0.5170885 0.5192053 -0.6804745
vn 0.5170885 0.5192053 -0.6804745
vn 0.5170885 0.5192053 -0.6804745
vn 0.5170885 0.5192053 -0.6804745
vn 0.5170885 0.5192053 -0.6804745
vn -0.9857741 0.1669632 -0.01930568
vn -0.9857741 0.1669632 -0.01930568
vn -0.9857741 0.1669632 -0.01930568
vn -0.9857741 0.1669632 -0.01930568
vn -0.9857741 0.1669632 -0.01930568
vn -0.9857741 0.1669632 -0.01930568
vn -0.3989848 -0.9100075 0.1126833
vn -0.3989848 -0.9100075 0.1126833
vn -0.3989848 -0.9100075 0.1126833
vn 0.7481245 0.2225503 -0.6251248
vn 0.7481245 0.2225503 -0.6251248
vn 0.7481245 0.2225503 -0.6251248
vn 0.7481245 0.2225503 -0.6251248
vn 0.7481245 0.2225503 -0.6251248
vn 0.7481245 0.2225503 -0.6251248
vn 0.7481245 0.2225503 -0.6251248
vn 0.7481245 0.2225503 -0.6251248
vn 0.7481245 0.2225503 -0.6251248
vn 0.7481245 0.2225503 -0.6251248
vn 0.7481245 0.2225503 -0.6251248
vn 0.7481245 0.2225503 -0.6251248
vn 0.7481245 0.2225503 -0.6251248
vn 0.7481245 0.2225503 -0.6251248
vn 0.7481245 0.2225503 -0.6251248
vn 0.876367 -0.3879331 0.2854625
vn 0.876367 -0.3879331 0.2854625
vn 0.876367 -0.3879331 0.2854625
vn -0.583989 -0.4879519 0.6487372
vn -0.583989 -0.4879519 0.6487372
vn -0.583989 -0.4879519 0.6487372
vn -0.583989 -0.4879519 0.6487372
vn -0.583989 -0.4879519 0.6487372
vn -0.583989 -0.4879519 0.6487372
vn 0.5445637 0.7876258 -0.2882642
vn 0.5445637 0.7876258 -0.2882642
vn 0.5445637 0.7876258 -0.2882642
vn 0.5445637 0.7876258 -0.2882642
vn 0.5445637 0.7876258 -0.2882642
vn 0.5445637 0.7876258 -0.2882642
vn 0.5445637 0.7876258 -0.2882642
vn 0.5445637 0.7876258 -0.2882642
vn 0.5445637 0.7876258 -0.2882642
vn 0.107759 -0.9695622 -0.2198572
vn 0.107759 -0.9695622 -0.2198572
vn 0.107759 -0.9695622 -0.2198572
vn 0.107759 -0.9695622 -0.2198572
vn 0.107759 -0.9695622 -0.2198572
vn 0.107759 -0.9695622 -0.2198572
vn 0.107759 -0.9695622 -0.2198572
vn 0.107759 -0.9695622 -0.2198572
vn 0.107759 -0.9695622 -0.2198572
vn 0.107759 -0.9695622 -0.2198572
vn 0.107759 -0.9695622 -0.2198572
vn 0.107759 -0.9695622 -0.2198572
vn 0.107759 -0.9695622 -0.2198572
vn 0.107759 -0.9695622 -0.2198572
vn 0.107759 -0.9695622 -0.2198572
vn 0.107759 -0.9695622 -0.2198572
vn 0.107759 -0.9695622 -0.2198572
vn 0.107759 -0.9695622 -0.2198572
vn 0.107759 -0.9695622 -0.2198572
vn 0.107759 -0.9695622 -0.2198572
vn 0.107759 -0.9695622 -0.2198572
vn -0.2146441 -0.2553715 -0.942716
vn -0.2146441 -0.2553715 -0.942716
vn -0.2146441 -0.2553715 -0.942716
vn -0.2146441 -0.2553715 -0.942716
vn -0.2146441 -0.2553715 -0.942716
vn -0.2146441 -0.2553715 -0.942716
vn -0.2146441 -0.2553715 -0.942716
vn -0.2146441 -0.2553715 -0.942716
vn -0.2146441 -0.2553715 -0.942716
vn -0.2146441 -0.2553715 -0.942716
vn -0.2146441 -0.2553715 -0.942716
vn -0.2146441 -0.2553715 -0.942716
vn -0.2748176 0.1347287 0.9520103
vn -0.2748176 0.1347287 0.9520103
vn -0.2748176 0.1347287 0.9520103
vn -0.2748176 0.1347287 0.9520103
vn -0.2748176 0.1347287 0.9520103
vn -0.2748176 0.1347287 0.9520103
vn -0.2748176 0.1347287 0.9520103
vn -0.2748176 0.1347287 0.9520103
vn -0.2748176 0.1347287 0.9520103
vn -0.2748176 0.1347287 0.9520103
vn -0.2748176 0.1347287 0.9520103
vn -0.2748176 0.1347287 0.9520103
vn -0.2748176 0.1347287 0.9520103
vn -0.2748176 0.1347287 0.9520103
vn -0.2748176 0.1347287 0.9520103
vn -0.08222079 0.7455347 -0.6613758
vn -0.08222079 0.7455347 -0.6613758
vn -0.08222079 0.7455347 -0.6613758
vn -0.08222079 0.7455347 -0.6613758
vn -0.08222079 0.7455347 -0.6613758
vn -0.08222079 0.7455347 -0.6613758
vn -0.08222079 0.7455347 -0.6613758
vn -0.08222079 0.7455347 -0.6613758
vn -0.08222079 0.7455347 -0.6613758
vn -0.08222079 0.7455347 -0.6613758
vn -0.08222079 0.7455347 -0.6613758
vn -0.08222079 0.7455347 -0.6613758
vn -0.08222079 0.7455347 -0.6613758
vn -0.08222079 0.7455347 -0.6613758
vn -0.08222079 0.7455347 -0.6613758
vn 0.7247732 0.2428229 0.6447797
vn 0.7247732 0.2428229 0.6447797
vn 0.7247732 0.2428229 0.6447797
vn 0.7247732 0.2428229 0.6447797
vn 0.7247732 0.2428229 0.6447797
vn 0.7247732 0.2428229 0.6447797
vn 0.7247732 0.2428229 0.6447797
vn 0.7247732 0.2428229 0.6447797
vn 0.7247732 0.2428229 0.6447797
vn 0.7247732 0.2428229 0.6447797
vn 0.7247732 0.2428229 0.6447797
vn 0.7247732 0.2428229 0.6447797
vn 0.7247732 0.2428229 0.6447797
vn 0.7247732 0.2428229 0.6447797
vn 0.7247732 0.2428229 0.6447797
vn 0.7247732 0.2428229 0.6447797
vn 0.7247732 0.2428229 0.6447797
vn 0.7247732 0.2428229 0.6447797
vn -0.9073772 -0.41699 0.05278246
vn -0.9073772 -0.41699 0.05278246
vn -0.9073772 -0.41699 0.05278246
vn -0.9073772 -0.41699 0.05278246
vn -0.9073772 -0.41699 0.05278246
vn -0.9073772 -0.41699 0.05278246
vn -0.9073772 -0.41699 0.05278246
vn -0.9073772 -0.41699 0.05278246
vn -0.9073772 -0.41699 0.05278246
vn -0.9073772 -0.41699 0.05278246
vn -0.9073772 -0.41699 0.05278246
vn -0.9073772 -0.41699 0.05278246
vn -0.9073772 -0.41699 0.05278246
vn -0.9073772 -0.41699 0.05278246
vn -0.9073772 -0.41699 0.05278246
vn -0.9073772 -0.41699 0.05278246
vn -0.9073772 -0.41699 0.05278246
vn -0.9073772 -0.41699 0.05278246
vn -0.5572488 0.7313046 -0.3932778
vn -0.5572488 0.7313046 -0.3932778
vn -0.5572488 0.7313046 -0.3932778
vn -0.5572488 0.7313046 -0.3932778
vn -0.5572488 0.7313046 -0.3932778
vn -0.5572488 0.7313046 -0.3932778
vn -0.5572488 0.7313046 -0.3932778
vn -0.5572488 0.7313046 -0.3932778
vn -0.5572488 0.7313046 -0.3932778

vt 0.5458614 0.3752497
vt 0.489562 0.4978183
vt 0.5425178 0.348497
vt 0.5425178 0.348497
vt 0.489562 0.4978183
vt 0.4939393 0.3574472
vt 0.4939393 0.3574472
vt 0.489562 0.4978183
vt 0.4384921 0.398128
vt 0.5379636 0.5230762
vt 0.4631633 0.5352488
vt 0.4762579 0.407474
vt 0.4762579 0.407474
vt 0.4631633 0.5352488
vt 0.4395306 0.4839693
vt 0.3388344 0.5223032
vt 0.4597592 0.4711355
vt 0.374961 0.5770006
vt 0.374961 0.5770006
vt 0.4597592 0.4711355
vt 0.461282 0.6170108
vt 0.461282 0.6170108
vt 0.4597592 0.4711355
vt 0.492519 0.6127639
vt 0.5526974 0.4578547
vt 0.5506205 0.5199562
vt 0.4365177 0.345568
vt 0.4365177 0.345568
vt 0.5506205 0.5199562
vt 0.4167221 0.4913083
vt 0.4167221 0.4913083
vt 0.5506205 0.5199562
vt 0.4554937 0.5629374
vt 0.4562528 0.4292579
vt 0.4607464 0.4146825
vt 0.4691238 0.4325223
vt 0.4691238 0.4325223
vt 0.4607464 0.4146825
vt 0.4812824 0.4207362
vt 0.4534355 0.4763696
vt 0.5393606 0.4537102
vt 0.4378449 0.4964679
vt 0.4378449 0.4964679
vt 0.5393606 0.4537102
vt 0.522848 0.5429882
vt 0.522848 0.5429882
vt 0.5393606 0.4537102
vt 0.5474167 0.4677175
vt 0.4869822 0.3507928
vt 0.4908473 0.5213066
vt 0.4710843 0.3456146
vt 0.4710843 0.3456146
vt 0.4908473 0.5213066
vt 0.4443223 0.3561899
vt 0.505255 0.4003213
vt 0.6335188 0.4119677
vt 0.4847517 0.5682274
vt 0.4847517 0.5682274
vt 0.6335188 0.4119677
vt 0.5455167 0.5572935
vt 0.4438241 0.3999068
vt 0.4525786 0.4051316
vt 0.4522061 0.4129549
vt 0.3923863 0.3900533
vt 0.4037626 0.3735826
vt 0.4476379 0.5403432
vt 0.4476379 0.5403432
vt 0.4037626 0.3735826
vt 0.4758574 0.588484
vt 0.4758574 0.588484
vt 0.4037626 0.3735826
vt 0.5669375 0.5701087
vt 0.5669375 0.5701087
vt 0.4037626 0.3735826
vt 0.6024494 0.4940743
vt 0.6024494 0.4940743
vt 0.4037626 0.3735826
vt 0.6044238 0.3682507
vt 0.5974016 0.4166849
vt 0.5638175 0.497362
vt 0.519253 0.5048592
vt 0.4349763 0.4479638
vt 0.3594589 0.4817621
vt 0.2951128 0.3872081
vt 0.2951128 0.3872081
vt 0.3594589 0.4817621
vt 0.3495634 0.4728492
vt 0.5137488 0.4326108
vt 0.5080211 0.4461477
vt 0.4723695 0.4087313
vt 0.4723695 0.4087313
vt 0.5080211 0.4461477
vt 0.4477124 0.4113623
vt 0.4477124 0.4113623
vt 0.5080211 0.4461477
vt 0.4868891 0.4523411
vt 0.4509348 0.2926867
vt 0.4651424 0.2967985
vt 0.4157163 0.3370183
vt 0.4157163 0.3370183
vt 0.4651424 0.2967985
vt 0.3795664 0.4148827
vt 0.3795664 0.4148827
vt 0.4651424 0.2967985
vt 0.3905236 0.4364944
vt 0.3905236 0.4364944
vt 0.4651424 0.2967985
vt 0.4996903 0.5127942
vt 0.4996903 0.5127942
vt 0.4651424 0.2967985
vt 0.5439987 0.4498451
vt 0.5439987 0.4498451
vt 0.4651424 0.2967985
vt 0.5328785 0.3624485
vt 0.5328785 0.3624485
vt 0.4651424 0.2967985
vt 0.5247386 0.3489161
vt 0.5529861 0.4088989
vt 0.5373396 0.4757642
vt 0.4926448 0.3477054
vt 0.4926448 0.3477054
vt 0.5373396 0.4757642
vt 0.4248294 0.3779692
vt 0.4248294 0.3779692
vt 0.5373396 0.4757642
vt 0.4234417 0.4606394
vt 0.4234417 0.4606394
vt 0.5373396 0.4757642
vt 0.4763184 0.5048406
vt 0.6000745 0.4
vt 0.6711262 0.4743859
vt 0.3195325 0.3522503
vt 0.3195325 0.3522503
vt 0.6711262 0.4743859
vt 0.3194253 0.3672542
vt 0.3194253 0.3672542
vt 0.6711262 0.4743859
vt 0.3888659 0.4659759
vt 0.3888659 0.4659759
vt 0.6711262 0.4743859
vt 0.5161051 0.5271555
vt 0.5161051 0.5271555
vt 0.6711262 0.4743859
vt 0.6479731 0.5037509
vt 0.4063936 0.502652
vt 0.51292 0.2794663
vt 0.4411604 0.5672122
vt 0.4411604 0.5672122
vt 0.51292 0.2794663
vt 0.5448089 0.5963259
vt 0.5448089 0.5963259
vt 0.51292 0.2794663
vt 0.5703834 0.5441896
vt 0.5703834 0.5441896
vt 0.51292 0.2794663
vt 0.6274092 0.3865981
vt 0.6274092 0.3865981
vt 0.51292 0.2794663
vt 0.5995343 0.3198165
vt 0.4081538 0.6099048
vt 0.3838599 0.6010664
vt 0.613048 0.6043354
vt 0.613048 0.6043354
vt 0.3838599 0.6010664
vt 0.6709865 0.5508021
vt 0.6709865 0.5508021
vt 0.3838599 0.6010664
vt 0.7220703 0.4121958
vt 0.7220703 0.4121958
vt 0.3838599 0.6010664
vt 0.7247432 0.3399893
vt 0.7247432 0.3399893
vt 0.3838599 0.6010664
vt 0.3772753 0.4260681
vt 0.3772753 0.4260681
vt 0.3838599 0.6010664
vt 0.3371953 0.5635986
vt 0.3883396 0.4838855
vt 0.3671005 0.4004703
vt 0.4607464 0.5746536
vt 0.4607464 0.5746536
vt 0.3671005 0.4004703
vt 0.5261356 0.5843768
vt 0.5261356 0.5843768
vt 0.3671005 0.4004703
vt 0.540916 0.5746536
vt 0.540916 0.5746536
vt 0.3671005 0.4004703
vt 0.559701 0.4063377
vt 0.559701 0.4063377
vt 0.3671005 0.4004703
vt 0.4278842 0.3730937
vt 0.4278842 0.3730937
vt 0.3671005 0.4004703
vt 0.367962 0.3927262
vt 0.5333256 0.3442688
vt 0.5720599 0.3388717
vt 0.4655195 0.5161284
vt 0.4655195 0.5161284
vt 0.5720599 0.3388717
vt 0.4747398 0.5241193
vt 0.4747398 0.5241193
vt 0.5720599 0.3388717
vt 0.6112598 0.375585

usemtl Material0
usemap Material0

usemtl Material1
usemap Material1
f 1/1/1 2/2/2 3/3/3
f 4/4/4 5/5/5 6/6/6
f 7/7/7 8/8/8 9/9/9
f 10/10/10 11/11/11 12/12/12
f 13/13/13 14/14/14 15/15/15
f 16/16/16 17/17/17 18/18/18
f 19/19/19 20/20/20 21/21/21
f 22/22/22 23/23/23 24/24/24
f 25/25/25 26/26/26 27/27/27
f 28/28/28 29/29/29 30/30/30
f 31/31/31 32/32/32 33/33/33
f 34/34/34 35/35/35 36/36/36
f 37/37/37 38/38/38 39/39/39
f 40/40/40 41/41/41 42/42/42
f 43/43/43 44/44/44 45/45/45
f 46/46/46 47/47/47 48/48/48
f 49/49/49 50/50/50 51/51/51
f 52/52/52 53/53/53 54/54/54
f 55/55/55 56/56/56 57/57/57
f 58/58/58 59/59/59 60/60/60
f 61/61/61 62/62/62 63/63/63
f 64/64/64 65/65/65 66/66/66
f 67/67/67 68/68/68 69/69/69
f 70/70/70 71/71/71 72/72/72
f 73/73/73 74/74/74 75/75/75
f 76/76/76 77/77/77 78/78/78
f 79/79/79 80/80/80 81/81/81
f 82/82/82 83/83/83 84/84/84
f 85/85/85 86/86/86 87/87/87
f 88/88/88 89/89/89 90/90/90
f 91/91/91 92/92/92 93/93/93
f 94/94/94 95/95/95 96/96/96
f 97/97/97 98/98/98 99/99/99
f 100/100/100 101/101/101 102/102/102
f 103/103/103 104/104/104 105/105/105
f 106/106/106 107/107/107 108/108/108
f 109/109/109 110/110/110 111/111/111
f 112/112/112 113/113/113 114/114/114
f 115/115/115 116/116/116 117/117/117
f 118/118/118 119/119/119 120/120/120
f 121/121/121 122/122/122 123/123/123
f 124/124/124 125/125/125 126/126/126
f 127/127/127 128/128/128 129/129/129
f 130/130/130 131/131/131 132/132/132
f 133/133/133 134/134/134 135/135/135
f 136/136/136 137/137/137 138/138/138
f 139/139/139 140/140/140 141/141/141
f 142/142/142 143/143/143 144/144/144
f 145/145/145 146/146/146 147/147/147
f 148/148/148 149/149/149 150/150/150
f 151/151/151 152/152/152 153/153/153
f 154/154/154 155/155/155 156/156/156
f 157/157/157 158/158/158 159/159/159
f 160/160/160 161/161/161 162/162/162
f 163/163/163 164/164/164 165/165/165
f 166/166/166 167/167/167 168/168/168
f 169/169/169 170/170/170 171/171/171
f 172/172/172 173/173/173 174/174/174
f 175/175/175 176/176/176 177/177/177
f 178/178/178 179/179/179 180/180/180
f 181/181/181 182/182/182 183/183/183
f 184/184/184 185/185/185 186/186/186
f 187/187/187 188/188/188 189/189/189
f 190/190/190 191/191/191 192/192/192
f 193/193/193 194/194/194 195/195/195
f 196/196/196 197/197/197 198/198/198
f 199/199/199 200/200/200 201/201/201
f 202/202/202 203/203/203 204/204/204
