g  Instance
v 4.935748 -46.27392 8.92677
v 4.946005 -46.2709 8.919863
v 4.90531 -46.22663 8.924668
v 4.064452 -45.31892 8.939322
v 4.282507 -45.81648 9.07371
v 4.478573 -45.76337 8.963998
v 4.156442 -45.42907 8.977109
v 4.160204 -45.42485 8.985711
v 4.14744 -45.43065 8.981762
v 4.452601 -46.35736 9.195669
v 4.649889 -46.36663 9.101579
v 4.444719 -46.33045 9.189811
v 4.444719 -46.33045 9.189811
v 4.649889 -46.36663 9.101579
v 4.559774 -45.85129 8.959319
v 4.559774 -45.85129 8.959319
v 4.649889 -46.36663 9.101579
v 4.90531 -46.22663 8.924668
v 4.90531 -46.22663 8.924668
v 4.649889 -46.36663 9.101579
v 4.935748 -46.27392 8.92677
v 4.559774 -45.85129 8.959319
v 4.478573 -45.76337 8.963998
v 4.444719 -46.33045 9.189811
v 4.444719 -46.33045 9.189811
v 4.478573 -45.76337 8.963998
v 4.282507 -45.81648 9.07371
v 4.148948 -45.40755 8.969553
v 4.156442 -45.42907 8.977109
v 4.121779 -45.37849 8.966663
v 4.121779 -45.37849 8.966663
v 4.156442 -45.42907 8.977109
v 4.14744 -45.43065 8.981762
v 4.157719 -45.41584 8.983805
v 4.160204 -45.42485 8.985711
v 4.148948 -45.40755 8.969553
v 4.148948 -45.40755 8.969553
v 4.160204 -45.42485 8.985711
v 4.156442 -45.42907 8.977109
v 1.828886 -45.11952 5.928514
v 1.726036 -45.02645 6.142489
v 1.743587 -45.01978 6.144936
v 0.4205417 -46.3517 7.741867
v 1.980722 -47.43022 7.372806
v 2.458552 -46.90085 8.537956
v 1.726036 -45.02645 6.142489
v 0.4650685 -45.66418 7.680811
v 1.743587 -45.01978 6.144936
v 1.743587 -45.01978 6.144936
v 0.4650685 -45.66418 7.680811
v 2.858843 -44.79504 8.44606
v 4.805687 -46.68104 8.252119
v 4.649889 -46.36663 9.101579
v 4.020588 -47.26797 7.051741
v 4.020588 -47.26797 7.051741
v 4.649889 -46.36663 9.101579
v 2.639284 -47.69119 6.478164
v 2.639284 -47.69119 6.478164
v 4.649889 -46.36663 9.101579
v 1.980722 -47.43022 7.372806
v 1.980722 -47.43022 7.372806
v 4.649889 -46.36663 9.101579
v 2.458552 -46.90085 8.537956
v 2.458552 -46.90085 8.537956
v 4.649889 -46.36663 9.101579
v 4.452601 -46.35736 9.195669
v 2.858843 -44.79504 8.44606
v 3.83971 -45.0854 8.832134
v 1.743587 -45.01978 6.144936
v 1.743587 -45.01978 6.144936
v 3.83971 -45.0854 8.832134
v 1.828886 -45.11952 5.928514
v 1.828886 -45.11952 5.928514
v 3.83971 -45.0854 8.832134
v 1.975155 -45.27481 5.610223
v 1.975155 -45.27481 5.610223
v 3.83971 -45.0854 8.832134
v 1.976646 -45.27552 5.609944
v 1.976646 -45.27552 5.609944
v 3.83971 -45.0854 8.832134
v 4.451683 -45.89896 6.950624
v 5.078678 -46.45973 8.359567
v 4.946005 -46.2709 8.919863
v 4.805687 -46.68104 8.252119
v 4.805687 -46.68104 8.252119
v 4.946005 -46.2709 8.919863
v 4.649889 -46.36663 9.101579
v 4.649889 -46.36663 9.101579
v 4.946005 -46.2709 8.919863
v 4.935748 -46.27392 8.92677
v 4.121779 -45.37849 8.966663
v 4.14744 -45.43065 8.981762
v 4.157719 -45.41584 8.983805
v 4.157719 -45.41584 8.983805
v 4.14744 -45.43065 8.981762
v 4.160204 -45.42485 8.985711
v 4.444719 -46.33045 9.189811
v 4.282507 -45.81648 9.07371
v 4.452601 -46.35736 9.195669
v 4.452601 -46.35736 9.195669
v 4.282507 -45.81648 9.07371
v 2.458552 -46.90085 8.537956
v 2.458552 -46.90085 8.537956
v 4.282507 -45.81648 9.07371
v 0.4205417 -46.3517 7.741867
v 0.4205417 -46.3517 7.741867
v 4.282507 -45.81648 9.07371
v 0.2569032 -46.20868 7.666852
v 0.2569032 -46.20868 7.666852
v 4.282507 -45.81648 9.07371
v 0.4650685 -45.66418 7.680811
v 0.4650685 -45.66418 7.680811
v 4.282507 -45.81648 9.07371
v 2.858843 -44.79504 8.44606
v 2.858843 -44.79504 8.44606
v 4.282507 -45.81648 9.07371
v 3.83971 -45.0854 8.832134
v 3.83971 -45.0854 8.832134
v 4.282507 -45.81648 9.07371
v 4.064452 -45.31892 8.939322
v 5.078678 -46.45973 8.359567
v 4.805687 -46.68104 8.252119
v 5.005909 -46.46404 7.347195
v 5.005909 -46.46404 7.347195
v 4.805687 -46.68104 8.252119
v 4.020588 -47.26797 7.051741
v 1.433138 -46.56507 5.65166
v 1.618728 -46.13405 5.630917
v 1.447348 -46.57473 5.647662
v 4.157719 -45.41584 8.983805
v 4.148948 -45.40755 8.969553
v 4.121779 -45.37849 8.966663
v 4.478573 -45.76337 8.963998
v 4.559774 -45.85129 8.959319
v 4.064452 -45.31892 8.939322
v 4.064452 -45.31892 8.939322
v 4.559774 -45.85129 8.959319
v 3.83971 -45.0854 8.832134
v 3.83971 -45.0854 8.832134
v 4.559774 -45.85129 8.959319
v 4.451683 -45.89896 6.950624
v 4.451683 -45.89896 6.950624
v 4.559774 -45.85129 8.959319
v 5.005909 -46.46404 7.347195
v 5.005909 -46.46404 7.347195
v 4.559774 -45.85129 8.959319
v 5.078678 -46.45973 8.359567
v 5.078678 -46.45973 8.359567
v 4.559774 -45.85129 8.959319
v 4.946005 -46.2709 8.919863
v 4.946005 -46.2709 8.919863
v 4.559774 -45.85129 8.959319
v 4.90531 -46.22663 8.924668
v 1.975155 -45.27481 5.610223
v 1.976646 -45.27552 5.609944
v 1.975245 -45.27599 5.609372
v 1.975155 -45.27481 5.610223
v 1.975245 -45.27599 5.609372
v 1.828886 -45.11952 5.928514
v 1.828886 -45.11952 5.928514
v 1.975245 -45.27599 5.609372
v 1.726036 -45.02645 6.142489
v 1.726036 -45.02645 6.142489
v 1.975245 -45.27599 5.609372
v 0.4650685 -45.66418 7.680811
v 0.4650685 -45.66418 7.680811
v 1.975245 -45.27599 5.609372
v 0.2569032 -46.20868 7.666852
v 0.2569032 -46.20868 7.666852
v 1.975245 -45.27599 5.609372
v 1.433138 -46.56507 5.65166
v 1.433138 -46.56507 5.65166
v 1.975245 -45.27599 5.609372
v 1.618728 -46.13405 5.630917
v 1.433138 -46.56507 5.65166
v 1.447348 -46.57473 5.647662
v 0.2569032 -46.20868 7.666852
v 0.2569032 -46.20868 7.666852
v 1.447348 -46.57473 5.647662
v 0.4205417 -46.3517 7.741867
v 0.4205417 -46.3517 7.741867
v 1.447348 -46.57473 5.647662
v 1.980722 -47.43022 7.372806
v 1.980722 -47.43022 7.372806
v 1.447348 -46.57473 5.647662
v 2.639284 -47.69119 6.478164
v 1.447348 -46.57473 5.647662
v 1.618728 -46.13405 5.630917
v 2.639284 -47.69119 6.478164
v 2.639284 -47.69119 6.478164
v 1.618728 -46.13405 5.630917
v 4.020588 -47.26797 7.051741
v 4.020588 -47.26797 7.051741
v 1.618728 -46.13405 5.630917
v 5.005909 -46.46404 7.347195
v 5.005909 -46.46404 7.347195
v 1.618728 -46.13405 5.630917
v 4.451683 -45.89896 6.950624
v 4.451683 -45.89896 6.950624
v 1.618728 -46.13405 5.630917
v 1.976646 -45.27552 5.609944
v 1.976646 -45.27552 5.609944
v 1.618728 -46.13405 5.630917
v 1.975245 -45.27599 5.609372

vn 0.4579262 0.3314362 0.8248961
vn 0.4579262 0.3314362 0.8248961
vn 0.4579262 0.3314362 0.8248961
vn 0.3672919 0.3891395 0.8447883
vn 0.3672919 0.3891395 0.8447883
vn 0.3672919 0.3891395 0.8447883
vn 0.3149708 -0.899318 0.3033487
vn 0.3149708 -0.899318 0.3033487
vn 0.3149708 -0.899318 0.3033487
vn 0.4212055 0.3090349 0.8526919
vn 0.4212055 0.3090349 0.8526919
vn 0.4212055 0.3090349 0.8526919
vn 0.4212055 0.3090349 0.8526919
vn 0.4212055 0.3090349 0.8526919
vn 0.4212055 0.3090349 0.8526919
vn 0.4212055 0.3090349 0.8526919
vn 0.4212055 0.3090349 0.8526919
vn 0.4212055 0.3090349 0.8526919
vn 0.4212055 0.3090349 0.8526919
vn 0.4212055 0.3090349 0.8526919
vn 0.4212055 0.3090349 0.8526919
vn 0.4212055 0.3090349 0.8526919
vn 0.4175369 0.3104985 0.8539032
vn 0.4212055 0.3090349 0.8526919
vn 0.4212055 0.3090349 0.8526919
vn 0.4175369 0.3104985 0.8539032
vn 0.410964 0.3131208 0.8560735
vn -0.3568583 -0.4195156 -0.8346233
vn -0.3580824 -0.4178729 -0.8349606
vn -0.3530405 -0.4204797 -0.8356513
vn -0.3530405 -0.4204797 -0.8356513
vn -0.3580824 -0.4178729 -0.8349606
vn -0.3569595 -0.4170496 -0.8358164
vn 0.8781831 0.14553 -0.4556485
vn 0.8781831 0.14553 -0.4556485
vn 0.8781831 0.14553 -0.4556485
vn 0.8781831 0.14553 -0.4556485
vn 0.8781831 0.14553 -0.4556485
vn 0.8781831 0.14553 -0.4556485
vn -0.2506287 0.8378737 -0.4849257
vn -0.2506287 0.8378737 -0.4849257
vn -0.2506287 0.8378737 -0.4849257
vn -0.4039578 -0.7590601 0.5105349
vn -0.4039578 -0.7590601 0.5105349
vn -0.4039578 -0.7590601 0.5105349
vn -0.364179 0.9273561 0.08593278
vn -0.364179 0.9273561 0.08593278
vn -0.364179 0.9273561 0.08593278
vn -0.364179 0.9273561 0.08593278
vn -0.364179 0.9273561 0.08593278
vn -0.364179 0.9273561 0.08593278
vn 0.1307846 -0.9217206 0.3651392
vn 0.1307846 -0.9217206 0.3651392
vn 0.1307846 -0.9217206 0.3651392
vn 0.1307846 -0.9217206 0.3651392
vn 0.1307846 -0.9217206 0.3651392
vn 0.1307846 -0.9217206 0.3651392
vn 0.1307846 -0.9217206 0.3651392
vn 0.1307846 -0.9217206 0.3651392
vn 0.1307846 -0.9217206 0.3651392
vn 0.1307846 -0.9217206 0.3651392
vn 0.1307846 -0.9217206 0.3651392
vn 0.1307846 -0.9217206 0.3651392
vn 0.1307846 -0.9217206 0.3651392
vn 0.1307846 -0.9217206 0.3651392
vn 0.1307846 -0.9217206 0.3651392
vn 0.3682545 0.8910116 -0.2654941
vn 0.3682545 0.8910116 -0.2654941
vn 0.3682545 0.8910116 -0.2654941
vn 0.3682545 0.8910116 -0.2654941
vn 0.3682545 0.8910116 -0.2654941
vn 0.3682545 0.8910116 -0.2654941
vn 0.3682545 0.8910116 -0.2654941
vn 0.3682545 0.8910116 -0.2654941
vn 0.3682545 0.8910116 -0.2654941
vn 0.3682545 0.8910116 -0.2654941
vn 0.3682545 0.8910116 -0.2654941
vn 0.3682545 0.8910116 -0.2654941
vn 0.3682545 0.8910116 -0.2654941
vn 0.3682545 0.8910116 -0.2654941
vn 0.3682545 0.8910116 -0.2654941
vn 0.4874752 -0.7859591 0.3803108
vn 0.4874752 -0.7859591 0.3803108
vn 0.4874752 -0.7859591 0.3803108
vn 0.4874752 -0.7859591 0.3803108
vn 0.4874752 -0.7859591 0.3803108
vn 0.4874752 -0.7859591 0.3803108
vn 0.4874752 -0.7859591 0.3803108
vn 0.4874752 -0.7859591 0.3803108
vn 0.4874752 -0.7859591 0.3803108
vn -0.3371848 0.1049173 0.9355741
vn -0.3371848 0.1049173 0.9355741
vn -0.3371848 0.1049173 0.9355741
vn -0.3371848 0.1049173 0.9355741
vn -0.3371848 0.1049173 0.9355741
vn -0.3371848 0.1049173 0.9355741
vn -0.3371848 0.1049173 0.9355741
vn -0.3371848 0.1049173 0.9355741
vn -0.3371848 0.1049173 0.9355741
vn -0.3371848 0.1049173 0.9355741
vn -0.3371848 0.1049173 0.9355741
vn -0.3371848 0.1049173 0.9355741
vn -0.3371848 0.1049173 0.9355741
vn -0.3371848 0.1049173 0.9355741
vn -0.3371848 0.1049173 0.9355741
vn -0.3371848 0.1049173 0.9355741
vn -0.3371848 0.1049173 0.9355741
vn -0.3371848 0.1049173 0.9355741
vn -0.3371848 0.1049173 0.9355741
vn -0.3371848 0.1049173 0.9355741
vn -0.3371848 0.1049173 0.9355741
vn -0.3371848 0.1049173 0.9355741
vn -0.3371848 0.1049173 0.9355741
vn -0.3371848 0.1049173 0.9355741
vn -0.3371848 0.1049173 0.9355741
vn -0.3371848 0.1049173 0.9355741
vn -0.3371848 0.1049173 0.9355741
vn -0.3371848 0.1049173 0.9355741
vn -0.3371848 0.1049173 0.9355741
vn -0.3371848 0.1049173 0.9355741
vn 0.6392561 -0.7678087 -0.04267774
vn 0.6392561 -0.7678087 -0.04267774
vn 0.6392561 -0.7678087 -0.04267774
vn 0.6392561 -0.7678087 -0.04267774
vn 0.6392561 -0.7678087 -0.04267774
vn 0.6392561 -0.7678087 -0.04267774
vn -0.2357834 0.05482078 -0.9702582
vn -0.2357834 0.05482078 -0.9702582
vn -0.2357834 0.05482078 -0.9702582
vn 0.7320332 0.6790047 -0.05549906
vn 0.7320332 0.6790047 -0.05549906
vn 0.7320332 0.6790047 -0.05549906
vn 0.7320332 0.6790047 -0.05549906
vn 0.7320332 0.6790047 -0.05549906
vn 0.7320332 0.6790047 -0.05549906
vn 0.7320332 0.6790047 -0.05549906
vn 0.7320332 0.6790047 -0.05549906
vn 0.7320332 0.6790047 -0.05549906
vn 0.7320332 0.6790047 -0.05549906
vn 0.7320332 0.6790047 -0.05549906
vn 0.7320332 0.6790047 -0.05549906
vn 0.7320332 0.6790047 -0.05549906
vn 0.7320332 0.6790047 -0.05549906
vn 0.7320332 0.6790047 -0.05549906
vn 0.7320332 0.6790047 -0.05549906
vn 0.7320332 0.6790047 -0.05549906
vn 0.7320332 0.6790047 -0.05549906
vn 0.7320332 0.6790047 -0.05549906
vn 0.7320332 0.6790047 -0.05549906
vn 0.7320332 0.6790047 -0.05549906
vn 0.7320332 0.6790047 -0.05549906
vn 0.7320332 0.6790047 -0.05549906
vn 0.7320332 0.6790047 -0.05549906
vn 0.1268954 0.5886465 -0.7983689
vn 0.1268954 0.5886465 -0.7983689
vn 0.1268954 0.5886465 -0.7983689
vn -0.7937186 0.3167657 -0.519298
vn -0.7937186 0.3167657 -0.519298
vn -0.7937186 0.3167657 -0.519298
vn -0.7937186 0.3167657 -0.519298
vn -0.7937186 0.3167657 -0.519298
vn -0.7937186 0.3167657 -0.519298
vn -0.7937186 0.3167657 -0.519298
vn -0.7937186 0.3167657 -0.519298
vn -0.7937186 0.3167657 -0.519298
vn -0.7937186 0.3167657 -0.519298
vn -0.7937186 0.3167657 -0.519298
vn -0.7937186 0.3167657 -0.519298
vn -0.7937186 0.3167657 -0.519298
vn -0.7937186 0.3167657 -0.519298
vn -0.7937186 0.3167657 -0.519298
vn -0.7937186 0.3167657 -0.519298
vn -0.7937186 0.3167657 -0.519298
vn -0.7937186 0.3167657 -0.519298
vn -0.5889233 -0.7816225 -0.205513
vn -0.5889233 -0.7816225 -0.205513
vn -0.5889233 -0.7816225 -0.205513
vn -0.5889233 -0.7816225 -0.205513
vn -0.5889233 -0.7816225 -0.205513
vn -0.5889233 -0.7816225 -0.205513
vn -0.5889233 -0.7816225 -0.205513
vn -0.5889233 -0.7816225 -0.205513
vn -0.5889233 -0.7816225 -0.205513
vn -0.5889233 -0.7816225 -0.205513
vn -0.5889233 -0.7816225 -0.205513
vn -0.5889233 -0.7816225 -0.205513
vn 0.42733 -0.1996953 -0.8817658
vn 0.42733 -0.1996953 -0.8817658
vn 0.42733 -0.1996953 -0.8817658
vn 0.42733 -0.1996953 -0.8817658
vn 0.42733 -0.1996953 -0.8817658
vn 0.42733 -0.1996953 -0.8817658
vn 0.42733 -0.1996953 -0.8817658
vn 0.42733 -0.1996953 -0.8817658
vn 0.42733 -0.1996953 -0.8817658
vn 0.42733 -0.1996953 -0.8817658
vn 0.42733 -0.1996953 -0.8817658
vn 0.42733 -0.1996953 -0.8817658
vn 0.42733 -0.1996953 -0.8817658
vn 0.42733 -0.1996953 -0.8817658
vn 0.42733 -0.1996953 -0.8817658
vn 0.42733 -0.1996953 -0.8817658
vn 0.42733 -0.1996953 -0.8817658
vn 0.42733 -0.1996953 -0.8817658

vt 0.909331 0.1434425
vt 0.909328 0.1434433
vt 0.90934 0.1434577
vt 0.9095904 0.1437525
vt 0.9095244 0.1435943
vt 0.909466 0.1436082
vt 0.468084 0.2238991
vt 0.4680808 0.2238991
vt 0.4680839 0.2239022
vt 0.9094743 0.1434231
vt 0.9094158 0.1434175
vt 0.9094766 0.1434316
vt 0.9094766 0.1434316
vt 0.9094158 0.1434175
vt 0.9094419 0.1435796
vt 0.9094419 0.1435796
vt 0.9094158 0.1434175
vt 0.90934 0.1434577
vt 0.90934 0.1434577
vt 0.9094158 0.1434175
vt 0.909331 0.1434425
vt 0.9094419 0.1435796
vt 0.909466 0.1436082
vt 0.9094766 0.1434316
vt 0.9094766 0.1434316
vt 0.909466 0.1436082
vt 0.9095244 0.1435943
vt 0.4722393 0.7930764
vt 0.4722318 0.7930769
vt 0.4722508 0.7930811
vt 0.4722508 0.7930811
vt 0.4722318 0.7930769
vt 0.4722321 0.79308
vt 0.4678313 0.2248978
vt 0.4678342 0.2248973
vt 0.4678267 0.2248947
vt 0.4678267 0.2248947
vt 0.4678342 0.2248973
vt 0.4678342 0.2248945
vt 0.456425 0.5443758
vt 0.4492165 0.5198258
vt 0.4510931 0.5195464
vt 0.6928822 0.5074297
vt 0.5005984 0.5512305
vt 0.4829355 0.4129409
vt 0.4660225 0.6000698
vt 0.3421127 0.464076
vt 0.4676756 0.5998556
vt 0.4676756 0.5998556
vt 0.3421127 0.464076
vt 0.5663415 0.3964236
vt 0.3016787 0.4293744
vt 0.3120538 0.3433607
vt 0.382719 0.5509139
vt 0.382719 0.5509139
vt 0.3120538 0.3433607
vt 0.5172414 0.6089827
vt 0.5172414 0.6089827
vt 0.3120538 0.3433607
vt 0.575245 0.5184008
vt 0.575245 0.5184008
vt 0.3120538 0.3433607
vt 0.5236396 0.4004284
vt 0.5236396 0.4004284
vt 0.3120538 0.3433607
vt 0.3303453 0.3338331
vt 0.4698316 0.3523062
vt 0.5624391 0.3158583
vt 0.3838366 0.5695499
vt 0.3838366 0.5695499
vt 0.5624391 0.3158583
vt 0.3944818 0.5899835
vt 0.3944818 0.5899835
vt 0.5624391 0.3158583
vt 0.4121865 0.6200377
vt 0.4121865 0.6200377
vt 0.5624391 0.3158583
vt 0.4123355 0.6200656
vt 0.4123355 0.6200656
vt 0.5624391 0.3158583
vt 0.6421989 0.4934969
vt 0.3124264 0.4478707
vt 0.313679 0.3903932
vt 0.3455074 0.4588977
vt 0.3455074 0.4588977
vt 0.313679 0.3903932
vt 0.3423456 0.3717525
vt 0.3423456 0.3717525
vt 0.313679 0.3903932
vt 0.3146616 0.3896808
vt 0.5679992 0.2724627
vt 0.5630166 0.2699201
vt 0.564367 0.268905
vt 0.564367 0.268905
vt 0.5630166 0.2699201
vt 0.5635102 0.2686582
vt 0.4775152 0.2404806
vt 0.5263312 0.2565461
vt 0.4749633 0.2397029
vt 0.4749633 0.2397029
vt 0.5263312 0.2565461
vt 0.4314512 0.4371324
vt 0.4314512 0.4371324
vt 0.5263312 0.2565461
vt 0.4905911 0.6389252
vt 0.4905911 0.6389252
vt 0.5263312 0.2565461
vt 0.5046124 0.6551211
vt 0.5046124 0.6551211
vt 0.5263312 0.2565461
vt 0.5549046 0.6345107
vt 0.5549046 0.6345107
vt 0.5263312 0.2565461
vt 0.6274651 0.3975087
vt 0.6274651 0.3975087
vt 0.5263312 0.2565461
vt 0.596554 0.3003888
vt 0.596554 0.3003888
vt 0.5263312 0.2565461
vt 0.5738108 0.2781345
vt 0.3460662 0.3879531
vt 0.3769308 0.3973969
vt 0.3512212 0.4769564
vt 0.3512212 0.4769564
vt 0.3769308 0.3973969
vt 0.4629118 0.5029221
vt 0.5398542 0.5028383
vt 0.5011013 0.4855899
vt 0.5407483 0.5015157
vt 0.5386342 0.3314489
vt 0.5375724 0.3327062
vt 0.5340706 0.3329623
vt 0.5801997 0.3331905
vt 0.5907145 0.333605
vt 0.5268062 0.3353652
vt 0.5268062 0.3353652
vt 0.5907145 0.333605
vt 0.4983259 0.3447996
vt 0.4983259 0.3447996
vt 0.5907145 0.333605
vt 0.5873245 0.5104193
vt 0.5873245 0.5104193
vt 0.5907145 0.333605
vt 0.6568674 0.4755128
vt 0.6568674 0.4755128
vt 0.5907145 0.333605
vt 0.6609374 0.3863932
vt 0.6609374 0.3863932
vt 0.5907145 0.333605
vt 0.6408391 0.3370788
vt 0.6408391 0.3370788
vt 0.5907145 0.333605
vt 0.6355584 0.3366598
vt 0.3785746 0.5412745
vt 0.3788074 0.5413397
vt 0.3786211 0.5414794
vt 0.5679527 0.5847121
vt 0.5678409 0.5848145
vt 0.5772008 0.5464621
vt 0.5772008 0.5464621
vt 0.5678409 0.5848145
vt 0.5821649 0.5207478
vt 0.5821649 0.5207478
vt 0.5678409 0.5848145
vt 0.4733521 0.3359193
vt 0.4733521 0.3359193
vt 0.5678409 0.5848145
vt 0.4134951 0.3376004
vt 0.4134951 0.3376004
vt 0.5678409 0.5848145
vt 0.4242753 0.5797387
vt 0.4242753 0.5797387
vt 0.5678409 0.5848145
vt 0.472444 0.5822254
vt 0.5675708 0.6142262
vt 0.5660341 0.6145894
vt 0.6710424 0.4295979
vt 0.6710424 0.4295979
vt 0.5660341 0.6145894
vt 0.6516054 0.4227246
vt 0.6516054 0.4227246
vt 0.5660341 0.6145894
vt 0.4816829 0.4565322
vt 0.4816829 0.4565322
vt 0.5660341 0.6145894
vt 0.4204335 0.5385084
vt 0.6479825 0.7835525
vt 0.5602039 0.7901557
vt 0.742271 0.4560013
vt 0.742271 0.4560013
vt 0.5602039 0.7901557
vt 0.5621411 0.2297702
vt 0.5621411 0.2297702
vt 0.5602039 0.7901557
vt 0.3490372 0.1132413
vt 0.3490372 0.1132413
vt 0.5602039 0.7901557
vt 0.2974551 0.2696547
vt 0.2974551 0.2696547
vt 0.5602039 0.7901557
vt 0.3873105 0.7984446
vt 0.3873105 0.7984446
vt 0.5602039 0.7901557
vt 0.3875014 0.7986681

usemtl Material0
usemap Material0
f 1/1/1 2/2/2 3/3/3
f 4/4/4 5/5/5 6/6/6
f 7/7/7 8/8/8 9/9/9
f 10/10/10 11/11/11 12/12/12
f 13/13/13 14/14/14 15/15/15
f 16/16/16 17/17/17 18/18/18
f 19/19/19 20/20/20 21/21/21
f 22/22/22 23/23/23 24/24/24
f 25/25/25 26/26/26 27/27/27
f 28/28/28 29/29/29 30/30/30
f 31/31/31 32/32/32 33/33/33
f 34/34/34 35/35/35 36/36/36
f 37/37/37 38/38/38 39/39/39

usemtl Material1
usemap Material1
f 40/40/40 41/41/41 42/42/42
f 43/43/43 44/44/44 45/45/45
f 46/46/46 47/47/47 48/48/48
f 49/49/49 50/50/50 51/51/51
f 52/52/52 53/53/53 54/54/54
f 55/55/55 56/56/56 57/57/57
f 58/58/58 59/59/59 60/60/60
f 61/61/61 62/62/62 63/63/63
f 64/64/64 65/65/65 66/66/66
f 67/67/67 68/68/68 69/69/69
f 70/70/70 71/71/71 72/72/72
f 73/73/73 74/74/74 75/75/75
f 76/76/76 77/77/77 78/78/78
f 79/79/79 80/80/80 81/81/81
f 82/82/82 83/83/83 84/84/84
f 85/85/85 86/86/86 87/87/87
f 88/88/88 89/89/89 90/90/90
f 91/91/91 92/92/92 93/93/93
f 94/94/94 95/95/95 96/96/96
f 97/97/97 98/98/98 99/99/99
f 100/100/100 101/101/101 102/102/102
f 103/103/103 104/104/104 105/105/105
f 106/106/106 107/107/107 108/108/108
f 109/109/109 110/110/110 111/111/111
f 112/112/112 113/113/113 114/114/114
f 115/115/115 116/116/116 117/117/117
f 118/118/118 119/119/119 120/120/120
f 121/121/121 122/122/122 123/123/123
f 124/124/124 125/125/125 126/126/126
f 127/127/127 128/128/128 129/129/129
f 130/130/130 131/131/131 132/132/132
f 133/133/133 134/134/134 135/135/135
f 136/136/136 137/137/137 138/138/138
f 139/139/139 140/140/140 141/141/141
f 142/142/142 143/143/143 144/144/144
f 145/145/145 146/146/146 147/147/147
f 148/148/148 149/149/149 150/150/150
f 151/151/151 152/152/152 153/153/153
f 154/154/154 155/155/155 156/156/156
f 157/157/157 158/158/158 159/159/159
f 160/160/160 161/161/161 162/162/162
f 163/163/163 164/164/164 165/165/165
f 166/166/166 167/167/167 168/168/168
f 169/169/169 170/170/170 171/171/171
f 172/172/172 173/173/173 174/174/174
f 175/175/175 176/176/176 177/177/177
f 178/178/178 179/179/179 180/180/180
f 181/181/181 182/182/182 183/183/183
f 184/184/184 185/185/185 186/186/186
f 187/187/187 188/188/188 189/189/189
f 190/190/190 191/191/191 192/192/192
f 193/193/193 194/194/194 195/195/195
f 196/196/196 197/197/197 198/198/198
f 199/199/199 200/200/200 201/201/201
f 202/202/202 203/203/203 204/204/204
