g  Instance
v -3.494965 -56.26852 -1.049381
v -1.479796 -55.73974 -1.510122
v -3.493057 -56.16058 -0.5019063
v -3.493057 -56.16058 -0.5019063
v -1.479796 -55.73974 -1.510122
v -2.243738 -55.59513 0.4242571
v -2.243738 -55.59513 0.4242571
v -1.479796 -55.73974 -1.510122
v -0.8669044 -55.32402 -0.3503594
v -0.8669044 -55.32402 -0.3503594
v -1.479796 -55.73974 -1.510122
v -0.8365859 -55.39486 -0.7591056
v -3.014322 -53.55098 0.1179517
v -3.065139 -53.54765 0.1157094
v -2.878054 -54.44285 0.3508098
v -2.878054 -54.44285 0.3508098
v -3.065139 -53.54765 0.1157094
v -3.319079 -54.45258 0.341278
v -3.319079 -54.45258 0.341278
v -3.065139 -53.54765 0.1157094
v -3.378615 -54.40843 0.3283103
v -2.878054 -54.44285 0.3508098
v -3.319079 -54.45258 0.341278
v -2.630981 -55.07607 0.4415461
v -3.597023 -56.22411 -1.063282
v -3.494965 -56.26852 -1.049381
v -3.684165 -56.08639 -0.573143
v -3.684165 -56.08639 -0.573143
v -3.494965 -56.26852 -1.049381
v -3.493057 -56.16058 -0.5019063
v -0.6182383 -54.6693 -1.086431
v -0.6164314 -54.7624 -1.29894
v -0.7050647 -54.4737 -1.051541
v -0.7050647 -54.4737 -1.051541
v -0.6164314 -54.7624 -1.29894
v -0.6669549 -54.72433 -1.458844
v -0.6182383 -54.6693 -1.086431
v -0.7050647 -54.4737 -1.051541
v -0.7516534 -54.94656 -0.534727
v -0.7516534 -54.94656 -0.534727
v -0.7050647 -54.4737 -1.051541
v -0.9573408 -54.22287 -0.6764783
v -1.479796 -55.73974 -1.510122
v -3.494965 -56.26852 -1.049381
v -1.210739 -55.19176 -1.821298
v -1.210739 -55.19176 -1.821298
v -3.494965 -56.26852 -1.049381
v -3.46133 -55.4819 -1.463844
v -3.46133 -55.4819 -1.463844
v -3.494965 -56.26852 -1.049381
v -3.597023 -56.22411 -1.063282
v -3.557897 -53.77304 -0.330763
v -3.524276 -53.91021 -0.5517186
v -3.699976 -54.60166 0.06913924
v -3.699976 -54.60166 0.06913924
v -3.524276 -53.91021 -0.5517186
v -3.684165 -56.08639 -0.573143
v -3.684165 -56.08639 -0.573143
v -3.524276 -53.91021 -0.5517186
v -3.597023 -56.22411 -1.063282
v -3.597023 -56.22411 -1.063282
v -3.524276 -53.91021 -0.5517186
v -3.46133 -55.4819 -1.463844
v -0.8669044 -55.32402 -0.3503594
v -0.7516534 -54.94656 -0.534727
v -2.243738 -55.59513 0.4242571
v -2.243738 -55.59513 0.4242571
v -0.7516534 -54.94656 -0.534727
v -2.630981 -55.07607 0.4415461
v -2.630981 -55.07607 0.4415461
v -0.7516534 -54.94656 -0.534727
v -2.878054 -54.44285 0.3508098
v -2.878054 -54.44285 0.3508098
v -0.7516534 -54.94656 -0.534727
v -3.014322 -53.55098 0.1179517
v -3.014322 -53.55098 0.1179517
v -0.7516534 -54.94656 -0.534727
v -0.9573408 -54.22287 -0.6764783
v -3.378615 -54.40843 0.3283103
v -3.699976 -54.60166 0.06913924
v -3.319079 -54.45258 0.341278
v -3.319079 -54.45258 0.341278
v -3.699976 -54.60166 0.06913924
v -2.630981 -55.07607 0.4415461
v -2.630981 -55.07607 0.4415461
v -3.699976 -54.60166 0.06913924
v -2.243738 -55.59513 0.4242571
v -2.243738 -55.59513 0.4242571
v -3.699976 -54.60166 0.06913924
v -3.493057 -56.16058 -0.5019063
v -3.493057 -56.16058 -0.5019063
v -3.699976 -54.60166 0.06913924
v -3.684165 -56.08639 -0.573143
v -0.8365859 -55.39486 -0.7591056
v -0.6164314 -54.7624 -1.29894
v -0.8669044 -55.32402 -0.3503594
v -0.8669044 -55.32402 -0.3503594
v -0.6164314 -54.7624 -1.29894
v -0.7516534 -54.94656 -0.534727
v -0.7516534 -54.94656 -0.534727
v -0.6164314 -54.7624 -1.29894
v -0.6182383 -54.6693 -1.086431
v -0.7050647 -54.4737 -1.051541
v -0.6669549 -54.72433 -1.458844
v -0.9573408 -54.22287 -0.6764783
v -0.9573408 -54.22287 -0.6764783
v -0.6669549 -54.72433 -1.458844
v -3.014322 -53.55098 0.1179517
v -3.014322 -53.55098 0.1179517
v -0.6669549 -54.72433 -1.458844
v -3.065139 -53.54765 0.1157094
v -3.065139 -53.54765 0.1157094
v -0.6669549 -54.72433 -1.458844
v -3.557897 -53.77304 -0.330763
v -3.557897 -53.77304 -0.330763
v -0.6669549 -54.72433 -1.458844
v -3.524276 -53.91021 -0.5517186
v -3.524276 -53.91021 -0.5517186
v -0.6669549 -54.72433 -1.458844
v -0.8874619 -54.85166 -1.702258
v -3.557897 -53.77304 -0.330763
v -3.699976 -54.60166 0.06913924
v -3.065139 -53.54765 0.1157094
v -3.065139 -53.54765 0.1157094
v -3.699976 -54.60166 0.06913924
v -3.378615 -54.40843 0.3283103
v -3.524276 -53.91021 -0.5517186
v -0.8874619 -54.85166 -1.702258
v -3.46133 -55.4819 -1.463844
v -3.46133 -55.4819 -1.463844
v -0.8874619 -54.85166 -1.702258
v -1.210739 -55.19176 -1.821298
v -1.479796 -55.73974 -1.510122
v -1.210739 -55.19176 -1.821298
v -0.8365859 -55.39486 -0.7591056
v -0.8365859 -55.39486 -0.7591056
v -1.210739 -55.19176 -1.821298
v -0.6164314 -54.7624 -1.29894
v -0.6164314 -54.7624 -1.29894
v -1.210739 -55.19176 -1.821298
v -0.6669549 -54.72433 -1.458844
v -0.6669549 -54.72433 -1.458844
v -1.210739 -55.19176 -1.821298
v -0.8874619 -54.85166 -1.702258

vn 0.2886569 -0.9395392 0.184237
vn 0.2886569 -0.9395392 0.184237
vn 0.2886569 -0.9395392 0.184237
vn 0.2886569 -0.9395392 0.184237
vn 0.2886569 -0.9395392 0.184237
vn 0.2886569 -0.9395392 0.184237
vn 0.2886569 -0.9395392 0.184237
vn 0.2886569 -0.9395392 0.184237
vn 0.2886569 -0.9395392 0.184237
vn 0.2886569 -0.9395392 0.184237
vn 0.2886569 -0.9395392 0.184237
vn 0.2886569 -0.9395392 0.184237
vn -0.02641519 0.2487524 0.9682068
vn -0.02641519 0.2487524 0.9682068
vn -0.02641519 0.2487524 0.9682068
vn -0.02641519 0.2487524 0.9682068
vn -0.02641519 0.2487524 0.9682068
vn -0.02641519 0.2487524 0.9682068
vn -0.02641519 0.2487524 0.9682068
vn -0.02641519 0.2487524 0.9682068
vn -0.02641519 0.2487524 0.9682068
vn -0.02433957 0.1324898 0.9908855
vn -0.02433957 0.1324898 0.9908855
vn -0.02433957 0.1324898 0.9908855
vn -0.4129688 -0.8932691 0.1775589
vn -0.4129688 -0.8932691 0.1775589
vn -0.4129688 -0.8932691 0.1775589
vn -0.4129688 -0.8932691 0.1775589
vn -0.4129688 -0.8932691 0.1775589
vn -0.4129688 -0.8932691 0.1775589
vn 0.8870163 0.4256574 -0.1789355
vn 0.8870163 0.4256574 -0.1789355
vn 0.8870163 0.4256574 -0.1789355
vn 0.8870163 0.4256574 -0.1789355
vn 0.8870163 0.4256574 -0.1789355
vn 0.8870163 0.4256574 -0.1789355
vn 0.8712729 0.3204526 0.3717441
vn 0.8712729 0.3204526 0.3717441
vn 0.8712729 0.3204526 0.3717441
vn 0.8712729 0.3204526 0.3717441
vn 0.8712729 0.3204526 0.3717441
vn 0.8712729 0.3204526 0.3717441
vn -0.08073595 -0.4619185 -0.8832401
vn -0.08073595 -0.4619185 -0.8832401
vn -0.08073595 -0.4619185 -0.8832401
vn -0.08073595 -0.4619185 -0.8832401
vn -0.08073595 -0.4619185 -0.8832401
vn -0.08073595 -0.4619185 -0.8832401
vn -0.08073595 -0.4619185 -0.8832401
vn -0.08073595 -0.4619185 -0.8832401
vn -0.08073595 -0.4619185 -0.8832401
vn -0.9780983 0.07377885 -0.1946291
vn -0.9780983 0.07377885 -0.1946291
vn -0.9780983 0.07377885 -0.1946291
vn -0.9780983 0.07377885 -0.1946291
vn -0.9780983 0.07377885 -0.1946291
vn -0.9780983 0.07377885 -0.1946291
vn -0.9780983 0.07377885 -0.1946291
vn -0.9780983 0.07377885 -0.1946291
vn -0.9780983 0.07377885 -0.1946291
vn -0.9780983 0.07377885 -0.1946291
vn -0.9780983 0.07377885 -0.1946291
vn -0.9780983 0.07377885 -0.1946291
vn 0.4255761 0.2889249 0.857559
vn 0.4255761 0.2889249 0.857559
vn 0.4255761 0.2889249 0.857559
vn 0.4255761 0.2889249 0.857559
vn 0.4255761 0.2889249 0.857559
vn 0.4255761 0.2889249 0.857559
vn 0.4255761 0.2889249 0.857559
vn 0.4255761 0.2889249 0.857559
vn 0.4255761 0.2889249 0.857559
vn 0.4255761 0.2889249 0.857559
vn 0.4255761 0.2889249 0.857559
vn 0.4255761 0.2889249 0.857559
vn 0.4255761 0.2889249 0.857559
vn 0.4255761 0.2889249 0.857559
vn 0.4255761 0.2889249 0.857559
vn -0.4452471 -0.3595071 0.8200669
vn -0.4452471 -0.3595071 0.8200669
vn -0.4452471 -0.3595071 0.8200669
vn -0.4452471 -0.3595071 0.8200669
vn -0.4452471 -0.3595071 0.8200669
vn -0.4452471 -0.3595071 0.8200669
vn -0.4452471 -0.3595071 0.8200669
vn -0.4452471 -0.3595071 0.8200669
vn -0.4452471 -0.3595071 0.8200669
vn -0.4452471 -0.3595071 0.8200669
vn -0.4452471 -0.3595071 0.8200669
vn -0.4452471 -0.3595071 0.8200669
vn -0.4452471 -0.3595071 0.8200669
vn -0.4452471 -0.3595071 0.8200669
vn -0.4452471 -0.3595071 0.8200669
vn 0.9643583 -0.2392557 0.1130037
vn 0.9643583 -0.2392557 0.1130037
vn 0.9643583 -0.2392557 0.1130037
vn 0.9643583 -0.2392557 0.1130037
vn 0.9643583 -0.2392557 0.1130037
vn 0.9643583 -0.2392557 0.1130037
vn 0.9643583 -0.2392557 0.1130037
vn 0.9643583 -0.2392557 0.1130037
vn 0.9643583 -0.2392557 0.1130037
vn 0.0786593 0.8522932 -0.5171162
vn 0.0786593 0.8522932 -0.5171162
vn 0.0786593 0.8522932 -0.5171162
vn 0.0786593 0.8522932 -0.5171162
vn 0.0786593 0.8522932 -0.5171162
vn 0.0786593 0.8522932 -0.5171162
vn 0.0786593 0.8522932 -0.5171162
vn 0.0786593 0.8522932 -0.5171162
vn 0.0786593 0.8522932 -0.5171162
vn 0.0786593 0.8522932 -0.5171162
vn 0.0786593 0.8522932 -0.5171162
vn 0.0786593 0.8522932 -0.5171162
vn 0.0786593 0.8522932 -0.5171162
vn 0.0786593 0.8522932 -0.5171162
vn 0.0786593 0.8522932 -0.5171162
vn 0.0786593 0.8522932 -0.5171162
vn 0.0786593 0.8522932 -0.5171162
vn 0.0786593 0.8522932 -0.5171162
vn -0.7089748 0.4014547 0.579818
vn -0.7089748 0.4014547 0.579818
vn -0.7089748 0.4014547 0.579818
vn -0.7089748 0.4014547 0.579818
vn -0.7089748 0.4014547 0.579818
vn -0.7089748 0.4014547 0.579818
vn -0.1978616 0.4860732 -0.8512249
vn -0.1978616 0.4860732 -0.8512249
vn -0.1978616 0.4860732 -0.8512249
vn -0.1978616 0.4860732 -0.8512249
vn -0.1978616 0.4860732 -0.8512249
vn -0.1978616 0.4860732 -0.8512249
vn 0.7349427 -0.5697206 -0.3678011
vn 0.7349427 -0.5697206 -0.3678011
vn 0.7349427 -0.5697206 -0.3678011
vn 0.7349427 -0.5697206 -0.3678011
vn 0.7349427 -0.5697206 -0.3678011
vn 0.7349427 -0.5697206 -0.3678011
vn 0.7349427 -0.5697206 -0.3678011
vn 0.7349427 -0.5697206 -0.3678011
vn 0.7349427 -0.5697206 -0.3678011
vn 0.7349427 -0.5697206 -0.3678011
vn 0.7349427 -0.5697206 -0.3678011
vn 0.7349427 -0.5697206 -0.3678011

vt 0.6313115 0.5052504
vt 0.4454679 0.5471047
vt 0.6283219 0.455517
vt 0.6283219 0.455517
vt 0.4454679 0.5471047
vt 0.5068663 0.3713939
vt 0.5068663 0.3713939
vt 0.4454679 0.5471047
vt 0.382258 0.4417565
vt 0.382258 0.4417565
vt 0.4454679 0.5471047
vt 0.3815269 0.4788842
vt 0.5910871 0.4948846
vt 0.5914224 0.4993457
vt 0.5101725 0.4829169
vt 0.5101725 0.4829169
vt 0.5914224 0.4993457
vt 0.5095578 0.5216419
vt 0.5095578 0.5216419
vt 0.5914224 0.4993457
vt 0.5135905 0.526876
vt 0.5201285 0.4831311
vt 0.5193927 0.5218561
vt 0.4639782 0.4614403
vt 0.5427041 0.5169666
vt 0.5327854 0.5157093
vt 0.5549139 0.4725605
vt 0.5549139 0.4725605
vt 0.5327854 0.5157093
vt 0.5366691 0.4661063
vt 0.558956 0.4639363
vt 0.5665091 0.4831963
vt 0.5398728 0.4607697
vt 0.5398728 0.4607697
vt 0.5665091 0.4831963
vt 0.5614985 0.4976972
vt 0.547249 0.551156
vt 0.5270669 0.5476076
vt 0.5674963 0.4949777
vt 0.5674963 0.4949777
vt 0.5270669 0.5476076
vt 0.4965796 0.5094135
vt 0.2982933 0.4004331
vt 0.6527416 0.2165592
vt 0.2663485 0.5246129
vt 0.2663485 0.5246129
vt 0.6527416 0.2165592
vt 0.6718899 0.38196
vt 0.6718899 0.38196
vt 0.6527416 0.2165592
vt 0.6729889 0.2221053
vt 0.5834687 0.4029756
vt 0.5714545 0.4231297
vt 0.5085986 0.3664998
vt 0.5085986 0.3664998
vt 0.5714545 0.4231297
vt 0.3762509 0.4250809
vt 0.3762509 0.4250809
vt 0.5714545 0.4231297
vt 0.3645486 0.4697851
vt 0.3645486 0.4697851
vt 0.5714545 0.4231297
vt 0.4316701 0.5063214
vt 0.7223777 0.5691867
vt 0.6801509 0.630329
vt 0.6287038 0.3122913
vt 0.6287038 0.3122913
vt 0.6801509 0.630329
vt 0.5183403 0.3065543
vt 0.5183403 0.3065543
vt 0.6801509 0.630329
vt 0.40529 0.3366458
vt 0.40529 0.3366458
vt 0.6801509 0.630329
vt 0.2663531 0.4138722
vt 0.2663531 0.4138722
vt 0.6801509 0.630329
vt 0.5582947 0.6773429
vt 0.6395818 0.4307294
vt 0.6474888 0.5001839
vt 0.6285734 0.4272556
vt 0.6285734 0.4272556
vt 0.6474888 0.5001839
vt 0.4878996 0.4003911
vt 0.4878996 0.4003911
vt 0.6474888 0.5001839
vt 0.3886703 0.4050246
vt 0.3886703 0.4050246
vt 0.6474888 0.5001839
vt 0.4415609 0.6531933
vt 0.4415609 0.6531933
vt 0.6474888 0.5001839
vt 0.4688211 0.6722857
vt 0.5179585 0.478521
vt 0.4590654 0.5265035
vt 0.5125288 0.4421849
vt 0.5125288 0.4421849
vt 0.4590654 0.5265035
vt 0.4777247 0.4585718
vt 0.4777247 0.4585718
vt 0.4590654 0.5265035
vt 0.4511257 0.507616
vt 0.670912 0.4622319
vt 0.6771613 0.5110154
vt 0.6427949 0.4173042
vt 0.6427949 0.4173042
vt 0.6771613 0.5110154
vt 0.4264686 0.3221402
vt 0.4264686 0.3221402
vt 0.6771613 0.5110154
vt 0.4212484 0.3224103
vt 0.4212484 0.3224103
vt 0.6771613 0.5110154
vt 0.3730704 0.3758923
vt 0.3730704 0.3758923
vt 0.6771613 0.5110154
vt 0.3777969 0.4023609
vt 0.3777969 0.4023609
vt 0.6771613 0.5110154
vt 0.6558523 0.5401756
vt 0.5348343 0.5181587
vt 0.4496449 0.4652867
vt 0.582109 0.4591399
vt 0.582109 0.4591399
vt 0.4496449 0.4652867
vt 0.4848029 0.4310275
vt 0.3830683 0.2671075
vt 0.7320915 0.6336911
vt 0.2937391 0.5577219
vt 0.2937391 0.5577219
vt 0.7320915 0.6336911
vt 0.6605834 0.6716151
vt 0.5167198 0.4821812
vt 0.4602901 0.5137628
vt 0.453808 0.4059699
vt 0.453808 0.4059699
vt 0.4602901 0.5137628
vt 0.393909 0.4607511
vt 0.393909 0.4607511
vt 0.4602901 0.5137628
vt 0.3939882 0.476975
vt 0.3939882 0.476975
vt 0.4602901 0.5137628
vt 0.4162332 0.5016834

usemtl Material0
usemap Material0

usemtl Material1
usemap Material1
f 1/1/1 2/2/2 3/3/3
f 4/4/4 5/5/5 6/6/6
f 7/7/7 8/8/8 9/9/9
f 10/10/10 11/11/11 12/12/12
f 13/13/13 14/14/14 15/15/15
f 16/16/16 17/17/17 18/18/18
f 19/19/19 20/20/20 21/21/21
f 22/22/22 23/23/23 24/24/24
f 25/25/25 26/26/26 27/27/27
f 28/28/28 29/29/29 30/30/30
f 31/31/31 32/32/32 33/33/33
f 34/34/34 35/35/35 36/36/36
f 37/37/37 38/38/38 39/39/39
f 40/40/40 41/41/41 42/42/42
f 43/43/43 44/44/44 45/45/45
f 46/46/46 47/47/47 48/48/48
f 49/49/49 50/50/50 51/51/51
f 52/52/52 53/53/53 54/54/54
f 55/55/55 56/56/56 57/57/57
f 58/58/58 59/59/59 60/60/60
f 61/61/61 62/62/62 63/63/63
f 64/64/64 65/65/65 66/66/66
f 67/67/67 68/68/68 69/69/69
f 70/70/70 71/71/71 72/72/72
f 73/73/73 74/74/74 75/75/75
f 76/76/76 77/77/77 78/78/78
f 79/79/79 80/80/80 81/81/81
f 82/82/82 83/83/83 84/84/84
f 85/85/85 86/86/86 87/87/87
f 88/88/88 89/89/89 90/90/90
f 91/91/91 92/92/92 93/93/93
f 94/94/94 95/95/95 96/96/96
f 97/97/97 98/98/98 99/99/99
f 100/100/100 101/101/101 102/102/102
f 103/103/103 104/104/104 105/105/105
f 106/106/106 107/107/107 108/108/108
f 109/109/109 110/110/110 111/111/111
f 112/112/112 113/113/113 114/114/114
f 115/115/115 116/116/116 117/117/117
f 118/118/118 119/119/119 120/120/120
f 121/121/121 122/122/122 123/123/123
f 124/124/124 125/125/125 126/126/126
f 127/127/127 128/128/128 129/129/129
f 130/130/130 131/131/131 132/132/132
f 133/133/133 134/134/134 135/135/135
f 136/136/136 137/137/137 138/138/138
f 139/139/139 140/140/140 141/141/141
f 142/142/142 143/143/143 144/144/144
