g  Instance
v 5.28451 -48.93768 1.644213
v 5.514875 -49.15179 1.752837
v 4.295424 -48.46702 0.5101097
v 4.295424 -48.46702 0.5101097
v 5.514875 -49.15179 1.752837
v 4.484254 -48.95026 0.1410727
v 4.484254 -48.95026 0.1410727
v 5.514875 -49.15179 1.752837
v 5.879315 -49.74239 1.549747
v 3.240989 -50.93198 1.848067
v 3.969902 -50.90982 0.6632053
v 3.662457 -50.71237 2.518721
v 3.662457 -50.71237 2.518721
v 3.969902 -50.90982 0.6632053
v 4.73559 -50.43369 2.387399
v 4.73559 -50.43369 2.387399
v 3.969902 -50.90982 0.6632053
v 5.738122 -50.21609 1.984501
v 5.738122 -50.21609 1.984501
v 3.969902 -50.90982 0.6632053
v 5.88898 -50.20657 1.771679
v 3.736333 -49.8092 -0.02039695
v 4.048911 -49.21549 -0.0614922
v 3.759858 -50.49049 0.3123169
v 3.759858 -50.49049 0.3123169
v 4.048911 -49.21549 -0.0614922
v 3.969902 -50.90982 0.6632053
v 3.969902 -50.90982 0.6632053
v 4.048911 -49.21549 -0.0614922
v 5.88898 -50.20657 1.771679
v 5.88898 -50.20657 1.771679
v 4.048911 -49.21549 -0.0614922
v 5.879315 -49.74239 1.549747
v 5.879315 -49.74239 1.549747
v 4.048911 -49.21549 -0.0614922
v 4.484254 -48.95026 0.1410727
v 2.855246 -50.30914 2.30266
v 2.855825 -50.30456 2.309129
v 3.736333 -49.8092 -0.02039695
v 3.736333 -49.8092 -0.02039695
v 2.855825 -50.30456 2.309129
v 4.048911 -49.21549 -0.0614922
v 4.048911 -49.21549 -0.0614922
v 2.855825 -50.30456 2.309129
v 4.274984 -48.46591 0.5109546
v 4.274984 -48.46591 0.5109546
v 2.855825 -50.30456 2.309129
v 3.814337 -48.8101 1.569742
v 5.28451 -48.93768 1.644213
v 4.295424 -48.46702 0.5101097
v 3.814337 -48.8101 1.569742
v 3.814337 -48.8101 1.569742
v 4.295424 -48.46702 0.5101097
v 4.274984 -48.46591 0.5109546
v 4.73559 -50.43369 2.387399
v 5.738122 -50.21609 1.984501
v 5.517041 -49.5541 1.953798
v 3.240989 -50.93198 1.848067
v 3.189689 -50.88825 1.85781
v 3.969902 -50.90982 0.6632053
v 3.969902 -50.90982 0.6632053
v 3.189689 -50.88825 1.85781
v 3.759858 -50.49049 0.3123169
v 5.517041 -49.5541 1.953798
v 5.514875 -49.15179 1.752837
v 4.73559 -50.43369 2.387399
v 4.73559 -50.43369 2.387399
v 5.514875 -49.15179 1.752837
v 3.662457 -50.71237 2.518721
v 3.662457 -50.71237 2.518721
v 5.514875 -49.15179 1.752837
v 2.855825 -50.30456 2.309129
v 2.855825 -50.30456 2.309129
v 5.514875 -49.15179 1.752837
v 3.814337 -48.8101 1.569742
v 3.814337 -48.8101 1.569742
v 5.514875 -49.15179 1.752837
v 5.28451 -48.93768 1.644213
v 4.274984 -48.46591 0.5109546
v 4.295424 -48.46702 0.5101097
v 4.048911 -49.21549 -0.0614922
v 4.048911 -49.21549 -0.0614922
v 4.295424 -48.46702 0.5101097
v 4.484254 -48.95026 0.1410727
v 2.855825 -50.30456 2.309129
v 2.855246 -50.30914 2.30266
v 3.662457 -50.71237 2.518721
v 3.662457 -50.71237 2.518721
v 2.855246 -50.30914 2.30266
v 3.240989 -50.93198 1.848067
v 3.240989 -50.93198 1.848067
v 2.855246 -50.30914 2.30266
v 3.189689 -50.88825 1.85781
v 3.759858 -50.49049 0.3123169
v 3.189689 -50.88825 1.85781
v 3.736333 -49.8092 -0.02039695
v 3.736333 -49.8092 -0.02039695
v 3.189689 -50.88825 1.85781
v 2.855246 -50.30914 2.30266
v 5.514875 -49.15179 1.752837
v 5.517041 -49.5541 1.953798
v 5.879315 -49.74239 1.549747
v 5.879315 -49.74239 1.549747
v 5.517041 -49.5541 1.953798
v 5.88898 -50.20657 1.771679
v 5.88898 -50.20657 1.771679
v 5.517041 -49.5541 1.953798
v 5.738122 -50.21609 1.984501

vn 0.7189677 0.5769346 -0.3875978
vn 0.7189677 0.5769346 -0.3875978
vn 0.7189677 0.5769346 -0.3875978
vn 0.7189677 0.5769346 -0.3875978
vn 0.7189677 0.5769346 -0.3875978
vn 0.7189677 0.5769346 -0.3875978
vn 0.7189677 0.5769346 -0.3875978
vn 0.7189677 0.5769346 -0.3875978
vn 0.7189677 0.5769346 -0.3875978
vn 0.2653048 -0.9531404 0.145385
vn 0.2653048 -0.9531404 0.145385
vn 0.2653048 -0.9531404 0.145385
vn 0.2653048 -0.9531404 0.145385
vn 0.2653048 -0.9531404 0.145385
vn 0.2653048 -0.9531404 0.145385
vn 0.2653048 -0.9531404 0.145385
vn 0.2653048 -0.9531404 0.145385
vn 0.2653048 -0.9531404 0.145385
vn 0.2653048 -0.9531404 0.145385
vn 0.2653048 -0.9531404 0.145385
vn 0.2653048 -0.9531404 0.145385
vn 0.5612257 -0.3474711 -0.7511922
vn 0.5612257 -0.3474711 -0.7511922
vn 0.5612257 -0.3474711 -0.7511922
vn 0.5612257 -0.3474711 -0.7511922
vn 0.5612257 -0.3474711 -0.7511922
vn 0.5612257 -0.3474711 -0.7511922
vn 0.5612257 -0.3474711 -0.7511922
vn 0.5612257 -0.3474711 -0.7511922
vn 0.5612257 -0.3474711 -0.7511922
vn 0.5612257 -0.3474711 -0.7511922
vn 0.5612257 -0.3474711 -0.7511922
vn 0.5612257 -0.3474711 -0.7511922
vn 0.5612257 -0.3474711 -0.7511922
vn 0.5612257 -0.3474711 -0.7511922
vn 0.5612257 -0.3474711 -0.7511922
vn -0.8668649 0.4401875 -0.2340519
vn -0.8668649 0.4401875 -0.2340519
vn -0.8668649 0.4401875 -0.2340519
vn -0.8668649 0.4401875 -0.2340519
vn -0.8668649 0.4401875 -0.2340519
vn -0.8668649 0.4401875 -0.2340519
vn -0.8668649 0.4401875 -0.2340519
vn -0.8668649 0.4401875 -0.2340519
vn -0.8668649 0.4401875 -0.2340519
vn -0.8668649 0.4401875 -0.2340519
vn -0.8668649 0.4401875 -0.2340519
vn -0.8668649 0.4401875 -0.2340519
vn 0.06469854 0.9404027 0.3338516
vn 0.06469854 0.9404027 0.3338516
vn 0.06469854 0.9404027 0.3338516
vn 0.06469854 0.9404027 0.3338516
vn 0.06469854 0.9404027 0.3338516
vn 0.06469854 0.9404027 0.3338516
vn 0.3389421 0.1562054 0.927749
vn 0.3389421 0.1562054 0.927749
vn 0.3389421 0.1562054 0.927749
vn -0.6366471 -0.6568984 -0.4039369
vn -0.6366471 -0.6568984 -0.4039369
vn -0.6366471 -0.6568984 -0.4039369
vn -0.6366471 -0.6568984 -0.4039369
vn -0.6366471 -0.6568984 -0.4039369
vn -0.6366471 -0.6568984 -0.4039369
vn -0.006553239 0.446816 0.894602
vn -0.006553239 0.446816 0.894602
vn -0.006553239 0.446816 0.894602
vn -0.006553239 0.446816 0.894602
vn -0.006553239 0.446816 0.894602
vn -0.006553239 0.446816 0.894602
vn -0.006553239 0.446816 0.894602
vn -0.006553239 0.446816 0.894602
vn -0.006553239 0.446816 0.894602
vn -0.006553239 0.446816 0.894602
vn -0.006553239 0.446816 0.894602
vn -0.006553239 0.446816 0.894602
vn -0.006553239 0.446816 0.894602
vn -0.006553239 0.446816 0.894602
vn -0.006553239 0.446816 0.894602
vn 0 0.6069632 -0.7947301
vn 0 0.6069632 -0.7947301
vn 0 0.6069632 -0.7947301
vn 0 0.6069632 -0.7947301
vn 0 0.6069632 -0.7947301
vn 0 0.6069632 -0.7947301
vn -0.4879239 -0.6912557 0.5330065
vn -0.4879239 -0.6912557 0.5330065
vn -0.4879239 -0.6912557 0.5330065
vn -0.4879239 -0.6912557 0.5330065
vn -0.4879239 -0.6912557 0.5330065
vn -0.4879239 -0.6912557 0.5330065
vn -0.4879239 -0.6912557 0.5330065
vn -0.4879239 -0.6912557 0.5330065
vn -0.4879239 -0.6912557 0.5330065
vn -0.8954882 -0.2199176 -0.3869588
vn -0.8954882 -0.2199176 -0.3869588
vn -0.8954882 -0.2199176 -0.3869588
vn -0.8954882 -0.2199176 -0.3869588
vn -0.8954882 -0.2199176 -0.3869588
vn -0.8954882 -0.2199176 -0.3869588
vn 0.7758589 0.285255 0.5627368
vn 0.7758589 0.285255 0.5627368
vn 0.7758589 0.285255 0.5627368
vn 0.7758589 0.285255 0.5627368
vn 0.7758589 0.285255 0.5627368
vn 0.7758589 0.285255 0.5627368
vn 0.7758589 0.285255 0.5627368
vn 0.7758589 0.285255 0.5627368
vn 0.7758589 0.285255 0.5627368

vt 0.4916016 0.3322219
vt 0.5212275 0.321004
vt 0.3977322 0.4493422
vt 0.3977322 0.4493422
vt 0.5212275 0.321004
vt 0.4448625 0.4874432
vt 0.4448625 0.4874432
vt 0.5212275 0.321004
vt 0.5867936 0.3419777
vt 0.6056439 0.37762
vt 0.5428345 0.4838389
vt 0.5644136 0.3174975
vt 0.5644136 0.3174975
vt 0.5428345 0.4838389
vt 0.466083 0.3292742
vt 0.466083 0.3292742
vt 0.5428345 0.4838389
vt 0.375245 0.3653961
vt 0.375245 0.3653961
vt 0.5428345 0.4838389
vt 0.3621272 0.3844746
vt 0.519281 0.5774756
vt 0.430301 0.5857552
vt 0.5946448 0.5104659
vt 0.5946448 0.5104659
vt 0.430301 0.5857552
vt 0.6273347 0.439796
vt 0.6273347 0.439796
vt 0.430301 0.5857552
vt 0.4135509 0.2165499
vt 0.4135509 0.2165499
vt 0.430301 0.5857552
vt 0.3617593 0.2612447
vt 0.3617593 0.2612447
vt 0.430301 0.5857552
vt 0.3698526 0.5449533
vt 0.4141563 0.3069454
vt 0.4145475 0.3063447
vt 0.4904002 0.5226105
vt 0.4904002 0.5226105
vt 0.4145475 0.3063447
vt 0.5509558 0.526429
vt 0.5509558 0.526429
vt 0.4145475 0.3063447
vt 0.6205173 0.4732869
vt 0.6205173 0.4732869
vt 0.4145475 0.3063447
vt 0.5739877 0.3749843
vt 0.5947286 0.4191855
vt 0.4998626 0.5311881
vt 0.457375 0.4265431
vt 0.457375 0.4265431
vt 0.4998626 0.5311881
vt 0.497958 0.5311043
vt 0.4313954 0.4376865
vt 0.4576497 0.3382942
vt 0.5190202 0.3602086
vt 0.4985122 0.3145777
vt 0.5049663 0.3135579
vt 0.4497846 0.4388274
vt 0.4497846 0.4388274
vt 0.5049663 0.3135579
vt 0.4922443 0.4756246
vt 0.7603204 0.4206477
vt 0.7610561 0.5089571
vt 0.6043586 0.2301008
vt 0.6043586 0.2301008
vt 0.7610561 0.5089571
vt 0.3928427 0.1723905
vt 0.3928427 0.1723905
vt 0.7610561 0.5089571
vt 0.2356283 0.2644904
vt 0.2356283 0.2644904
vt 0.7610561 0.5089571
vt 0.4281357 0.5894153
vt 0.4281357 0.5894153
vt 0.7610561 0.5089571
vt 0.716445 0.5566881
vt 0.5113274 0.3182472
vt 0.5142797 0.3184474
vt 0.4786374 0.4546043
vt 0.4786374 0.4546043
vt 0.5142797 0.3184474
vt 0.5415772 0.4063517
vt 0.5908356 0.3878833
vt 0.5906121 0.3886749
vt 0.4981024 0.362197
vt 0.4981024 0.362197
vt 0.5906121 0.3886749
vt 0.520678 0.4444061
vt 0.520678 0.4444061
vt 0.5906121 0.3886749
vt 0.5276351 0.4432094
vt 0.457524 0.4825723
vt 0.4337051 0.3230622
vt 0.5210226 0.5169107
vt 0.5210226 0.5169107
vt 0.4337051 0.3230622
vt 0.4948194 0.277152
vt 0.4713823 0.4665813
vt 0.5115509 0.4407739
vt 0.5435796 0.4926587
vt 0.5435796 0.4926587
vt 0.5115509 0.4407739
vt 0.5901744 0.4641598
vt 0.5901744 0.4641598
vt 0.5115509 0.4407739
vt 0.5856015 0.4368297

usemtl Material0
usemap Material0

usemtl Material1
usemap Material1
f 1/1/1 2/2/2 3/3/3
f 4/4/4 5/5/5 6/6/6
f 7/7/7 8/8/8 9/9/9
f 10/10/10 11/11/11 12/12/12
f 13/13/13 14/14/14 15/15/15
f 16/16/16 17/17/17 18/18/18
f 19/19/19 20/20/20 21/21/21
f 22/22/22 23/23/23 24/24/24
f 25/25/25 26/26/26 27/27/27
f 28/28/28 29/29/29 30/30/30
f 31/31/31 32/32/32 33/33/33
f 34/34/34 35/35/35 36/36/36
f 37/37/37 38/38/38 39/39/39
f 40/40/40 41/41/41 42/42/42
f 43/43/43 44/44/44 45/45/45
f 46/46/46 47/47/47 48/48/48
f 49/49/49 50/50/50 51/51/51
f 52/52/52 53/53/53 54/54/54
f 55/55/55 56/56/56 57/57/57
f 58/58/58 59/59/59 60/60/60
f 61/61/61 62/62/62 63/63/63
f 64/64/64 65/65/65 66/66/66
f 67/67/67 68/68/68 69/69/69
f 70/70/70 71/71/71 72/72/72
f 73/73/73 74/74/74 75/75/75
f 76/76/76 77/77/77 78/78/78
f 79/79/79 80/80/80 81/81/81
f 82/82/82 83/83/83 84/84/84
f 85/85/85 86/86/86 87/87/87
f 88/88/88 89/89/89 90/90/90
f 91/91/91 92/92/92 93/93/93
f 94/94/94 95/95/95 96/96/96
f 97/97/97 98/98/98 99/99/99
f 100/100/100 101/101/101 102/102/102
f 103/103/103 104/104/104 105/105/105
f 106/106/106 107/107/107 108/108/108
