g  Instance
v -0.1001555 -51.05122 -1.059416
v -0.6154197 -51.02563 -2.27839
v 0.1479041 -49.92187 -0.5740039
v 0.1479041 -49.92187 -0.5740039
v -0.6154197 -51.02563 -2.27839
v 0.1916908 -49.33234 -0.5229846
v 0.1916908 -49.33234 -0.5229846
v -0.6154197 -51.02563 -2.27839
v 0.1252038 -49.00278 -0.7092599
v 0.1252038 -49.00278 -0.7092599
v -0.6154197 -51.02563 -2.27839
v -0.3126217 -48.34698 -1.801366
v -0.3126217 -48.34698 -1.801366
v -0.6154197 -51.02563 -2.27839
v -0.7438675 -50.60259 -2.61928
v 0.1916908 -49.33234 -0.5229846
v 0.1252038 -49.00278 -0.7092599
v 0.005552582 -49.23085 -0.4701799
v 0.1252038 -49.00278 -0.7092599
v -0.3126217 -48.34698 -1.801366
v 0.005552582 -49.23085 -0.4701799
v 0.005552582 -49.23085 -0.4701799
v -0.3126217 -48.34698 -1.801366
v -1.950842 -50.25472 -0.1313725
v -1.950842 -50.25472 -0.1313725
v -0.3126217 -48.34698 -1.801366
v -2.20044 -50.00676 -0.5878
v -2.20044 -50.00676 -0.5878
v -0.3126217 -48.34698 -1.801366
v -1.629255 -49.06375 -1.536782
v -2.20044 -50.00676 -0.5878
v -2.258381 -50.27037 -0.8642012
v -1.950842 -50.25472 -0.1313725
v -1.950842 -50.25472 -0.1313725
v -2.258381 -50.27037 -0.8642012
v -1.784311 -51.26154 -0.2733634
v -1.784311 -51.26154 -0.2733634
v -2.258381 -50.27037 -0.8642012
v -1.795057 -51.26103 -0.2984084
v -1.629255 -49.06375 -1.536782
v -1.935133 -49.9065 -1.778014
v -2.20044 -50.00676 -0.5878
v -2.20044 -50.00676 -0.5878
v -1.935133 -49.9065 -1.778014
v -2.258381 -50.27037 -0.8642012
v -0.1001555 -51.05122 -1.059416
v 0.1479041 -49.92187 -0.5740039
v -1.265578 -51.20478 -0.3853989
v -0.3126217 -48.34698 -1.801366
v -0.7438675 -50.60259 -2.61928
v -1.629255 -49.06375 -1.536782
v -1.629255 -49.06375 -1.536782
v -0.7438675 -50.60259 -2.61928
v -1.935133 -49.9065 -1.778014
v -1.784311 -51.26154 -0.2733634
v -1.795057 -51.26103 -0.2984084
v -1.265578 -51.20478 -0.3853989
v -1.265578 -51.20478 -0.3853989
v -1.795057 -51.26103 -0.2984084
v -0.1001555 -51.05122 -1.059416
v -0.1001555 -51.05122 -1.059416
v -1.795057 -51.26103 -0.2984084
v -0.6154197 -51.02563 -2.27839
v -1.784311 -51.26154 -0.2733634
v -1.265578 -51.20478 -0.3853989
v -1.950842 -50.25472 -0.1313725
v -1.950842 -50.25472 -0.1313725
v -1.265578 -51.20478 -0.3853989
v 0.005552582 -49.23085 -0.4701799
v 0.005552582 -49.23085 -0.4701799
v -1.265578 -51.20478 -0.3853989
v 0.1916908 -49.33234 -0.5229846
v 0.1916908 -49.33234 -0.5229846
v -1.265578 -51.20478 -0.3853989
v 0.1479041 -49.92187 -0.5740039
v -1.935133 -49.9065 -1.778014
v -0.7438675 -50.60259 -2.61928
v -2.258381 -50.27037 -0.8642012
v -2.258381 -50.27037 -0.8642012
v -0.7438675 -50.60259 -2.61928
v -1.795057 -51.26103 -0.2984084
v -1.795057 -51.26103 -0.2984084
v -0.7438675 -50.60259 -2.61928
v -0.6154197 -51.02563 -2.27839

vn 0.9202775 -0.03462457 -0.3897312
vn 0.9202775 -0.03462457 -0.3897312
vn 0.9202775 -0.03462457 -0.3897312
vn 0.9202775 -0.03462457 -0.3897312
vn 0.9202775 -0.03462457 -0.3897312
vn 0.9202775 -0.03462457 -0.3897312
vn 0.9202775 -0.03462457 -0.3897312
vn 0.9202775 -0.03462457 -0.3897312
vn 0.9202775 -0.03462457 -0.3897312
vn 0.9202775 -0.03462457 -0.3897312
vn 0.9202775 -0.03462457 -0.3897312
vn 0.9202775 -0.03462457 -0.3897312
vn 0.9202775 -0.03462457 -0.3897312
vn 0.9202775 -0.03462457 -0.3897312
vn 0.9202775 -0.03462457 -0.3897312
vn 0.4785166 0.5032539 0.7195536
vn 0.4785166 0.5032539 0.7195536
vn 0.4785166 0.5032539 0.7195536
vn -0.2983128 0.7607561 0.5764197
vn -0.2983128 0.7607561 0.5764197
vn -0.2983128 0.7607561 0.5764197
vn -0.2983128 0.7607561 0.5764197
vn -0.2983128 0.7607561 0.5764197
vn -0.2983128 0.7607561 0.5764197
vn -0.2983128 0.7607561 0.5764197
vn -0.2983128 0.7607561 0.5764197
vn -0.2983128 0.7607561 0.5764197
vn -0.2983128 0.7607561 0.5764197
vn -0.2983128 0.7607561 0.5764197
vn -0.2983128 0.7607561 0.5764197
vn -0.9013324 -0.20304 0.3825896
vn -0.9013324 -0.20304 0.3825896
vn -0.9013324 -0.20304 0.3825896
vn -0.9013324 -0.20304 0.3825896
vn -0.9013324 -0.20304 0.3825896
vn -0.9013324 -0.20304 0.3825896
vn -0.9013324 -0.20304 0.3825896
vn -0.9013324 -0.20304 0.3825896
vn -0.9013324 -0.20304 0.3825896
vn -0.9094989 0.3789946 -0.1708068
vn -0.9094989 0.3789946 -0.1708068
vn -0.9094989 0.3789946 -0.1708068
vn -0.9094989 0.3789946 -0.1708068
vn -0.9094989 0.3789946 -0.1708068
vn -0.9094989 0.3789946 -0.1708068
vn 0.4934147 -0.4326842 0.7545373
vn 0.4934147 -0.4326842 0.7545373
vn 0.4934147 -0.4326842 0.7545373
vn -0.3760445 0.3785714 -0.8457388
vn -0.3760445 0.3785714 -0.8457388
vn -0.3760445 0.3785714 -0.8457388
vn -0.3760445 0.3785714 -0.8457388
vn -0.3760445 0.3785714 -0.8457388
vn -0.3760445 0.3785714 -0.8457388
vn 0.09549844 -0.9935448 -0.06122839
vn 0.09549844 -0.9935448 -0.06122839
vn 0.09549844 -0.9935448 -0.06122839
vn 0.09549844 -0.9935448 -0.06122839
vn 0.09549844 -0.9935448 -0.06122839
vn 0.09549844 -0.9935448 -0.06122839
vn 0.09549844 -0.9935448 -0.06122839
vn 0.09549844 -0.9935448 -0.06122839
vn 0.09549844 -0.9935448 -0.06122839
vn 0.2205309 -0.1003404 0.9702052
vn 0.2205309 -0.1003404 0.9702052
vn 0.2205309 -0.1003404 0.9702052
vn 0.2205309 -0.1003404 0.9702052
vn 0.2205309 -0.1003404 0.9702052
vn 0.2205309 -0.1003404 0.9702052
vn 0.2205309 -0.1003404 0.9702052
vn 0.2205309 -0.1003404 0.9702052
vn 0.2205309 -0.1003404 0.9702052
vn 0.2205309 -0.1003404 0.9702052
vn 0.2205309 -0.1003404 0.9702052
vn 0.2205309 -0.1003404 0.9702052
vn -0.6682009 -0.5791739 -0.4669745
vn -0.6682009 -0.5791739 -0.4669745
vn -0.6682009 -0.5791739 -0.4669745
vn -0.6682009 -0.5791739 -0.4669745
vn -0.6682009 -0.5791739 -0.4669745
vn -0.6682009 -0.5791739 -0.4669745
vn -0.6682009 -0.5791739 -0.4669745
vn -0.6682009 -0.5791739 -0.4669745
vn -0.6682009 -0.5791739 -0.4669745

vt 0.583478 0.4006659
vt 0.5828913 0.5267922
vt 0.4750564 0.3504435
vt 0.4750564 0.3504435
vt 0.5828913 0.5267922
vt 0.4187664 0.3451628
vt 0.4187664 0.3451628
vt 0.5828913 0.5267922
vt 0.3876225 0.3644369
vt 0.3876225 0.3644369
vt 0.5828913 0.5267922
vt 0.3267457 0.4774407
vt 0.3267457 0.4774407
vt 0.5828913 0.5267922
vt 0.5430673 0.562062
vt 0.5209947 0.4979953
vt 0.4862139 0.5318959
vt 0.4951175 0.4883932
vt 0.638697 0.442441
vt 0.6206384 0.5859601
vt 0.6177885 0.4110224
vt 0.6177885 0.4110224
vt 0.6206384 0.5859601
vt 0.3820578 0.3664998
vt 0.3820578 0.3664998
vt 0.6206384 0.5859601
vt 0.3668258 0.4264826
vt 0.3668258 0.4264826
vt 0.6206384 0.5859601
vt 0.4609001 0.5511932
vt 0.5420336 0.4350602
vt 0.5188153 0.4634706
vt 0.5138513 0.3881394
vt 0.5138513 0.3881394
vt 0.5188153 0.4634706
vt 0.4170853 0.4027381
vt 0.4170853 0.4027381
vt 0.5188153 0.4634706
vt 0.4173554 0.4053133
vt 0.5611632 0.4524715
vt 0.4814035 0.4742741
vt 0.4640713 0.3666907
vt 0.4640713 0.3666907
vt 0.4814035 0.4742741
vt 0.4404154 0.3916738
vt 0.527989 0.5425597
vt 0.3925772 0.4436564
vt 0.6461664 0.4052248
vt 0.7671005 0.3648373
vt 0.455368 0.6169177
vt 0.5304105 0.2832895
vt 0.5304105 0.2832895
vt 0.455368 0.6169177
vt 0.3970476 0.3576381
vt 0.5943747 0.3539454
vt 0.5953153 0.3561526
vt 0.5485063 0.3638129
vt 0.5485063 0.3638129
vt 0.5953153 0.3561526
vt 0.4452164 0.423181
vt 0.4452164 0.423181
vt 0.5953153 0.3561526
vt 0.4900975 0.5305548
vt 0.4092528 0.5505134
vt 0.4132995 0.5026706
vt 0.5006729 0.5658711
vt 0.5006729 0.5658711
vt 0.4132995 0.5026706
vt 0.5891685 0.3854246
vt 0.5891685 0.3854246
vt 0.4132995 0.5026706
vt 0.5795944 0.3682553
vt 0.5795944 0.3682553
vt 0.4132995 0.5026706
vt 0.5263591 0.3722927
vt 0.5910405 0.4594752
vt 0.4614077 0.5538848
vt 0.584754 0.356921
vt 0.584754 0.356921
vt 0.4614077 0.5538848
vt 0.4803464 0.2934271
vt 0.4803464 0.2934271
vt 0.4614077 0.5538848
vt 0.4213369 0.5156255

usemtl Material0
usemap Material0

usemtl Material1
usemap Material1
f 1/1/1 2/2/2 3/3/3
f 4/4/4 5/5/5 6/6/6
f 7/7/7 8/8/8 9/9/9
f 10/10/10 11/11/11 12/12/12
f 13/13/13 14/14/14 15/15/15
f 16/16/16 17/17/17 18/18/18
f 19/19/19 20/20/20 21/21/21
f 22/22/22 23/23/23 24/24/24
f 25/25/25 26/26/26 27/27/27
f 28/28/28 29/29/29 30/30/30
f 31/31/31 32/32/32 33/33/33
f 34/34/34 35/35/35 36/36/36
f 37/37/37 38/38/38 39/39/39
f 40/40/40 41/41/41 42/42/42
f 43/43/43 44/44/44 45/45/45
f 46/46/46 47/47/47 48/48/48
f 49/49/49 50/50/50 51/51/51
f 52/52/52 53/53/53 54/54/54
f 55/55/55 56/56/56 57/57/57
f 58/58/58 59/59/59 60/60/60
f 61/61/61 62/62/62 63/63/63
f 64/64/64 65/65/65 66/66/66
f 67/67/67 68/68/68 69/69/69
f 70/70/70 71/71/71 72/72/72
f 73/73/73 74/74/74 75/75/75
f 76/76/76 77/77/77 78/78/78
f 79/79/79 80/80/80 81/81/81
f 82/82/82 83/83/83 84/84/84
