g  Instance
v 1.564101 -43.30027 -5.020348
v 1.833604 -43.65411 -4.871908
v 1.461055 -43.24986 -5.129007
v 1.461055 -43.24986 -5.129007
v 1.833604 -43.65411 -4.871908
v 0.9561098 -43.56653 -6.00616
v 0.9561098 -43.56653 -6.00616
v 1.833604 -43.65411 -4.871908
v 1.162407 -44.12943 -6.071122
v 1.162407 -44.12943 -6.071122
v 1.833604 -43.65411 -4.871908
v 1.532307 -44.6959 -5.916811
v 1.532307 -44.6959 -5.916811
v 1.833604 -43.65411 -4.871908
v 2.1337 -44.39849 -4.920881
v -0.1938579 -44.66365 -5.024511
v -0.2023729 -43.63546 -5.168846
v -0.07621524 -44.93411 -5.068949
v -0.07621524 -44.93411 -5.068949
v -0.2023729 -43.63546 -5.168846
v 0.481527 -45.12671 -5.439037
v 0.481527 -45.12671 -5.439037
v -0.2023729 -43.63546 -5.168846
v 1.162407 -44.12943 -6.071122
v 1.162407 -44.12943 -6.071122
v -0.2023729 -43.63546 -5.168846
v 0.9561098 -43.56653 -6.00616
v -0.2220529 -44.9497 -4.784896
v -0.07621524 -44.93411 -5.068949
v -0.2813943 -45.0592 -4.376344
v -0.2813943 -45.0592 -4.376344
v -0.07621524 -44.93411 -5.068949
v 0.4628782 -45.526 -4.27438
v 0.4628782 -45.526 -4.27438
v -0.07621524 -44.93411 -5.068949
v 1.168245 -45.78218 -4.706613
v 1.168245 -45.78218 -4.706613
v -0.07621524 -44.93411 -5.068949
v 1.110739 -45.48821 -5.446936
v 1.110739 -45.48821 -5.446936
v -0.07621524 -44.93411 -5.068949
v 0.481527 -45.12671 -5.439037
v 1.640003 -44.1914 -3.48677
v 1.54667 -44.83126 -3.710587
v 2.084952 -44.84259 -4.161318
v 2.084952 -44.84259 -4.161318
v 1.54667 -44.83126 -3.710587
v 1.872744 -45.14082 -4.126037
v -0.2220529 -44.9497 -4.784896
v -0.2813943 -45.0592 -4.376344
v -0.1938579 -44.66365 -5.024511
v -0.1938579 -44.66365 -5.024511
v -0.2813943 -45.0592 -4.376344
v -0.2023729 -43.63546 -5.168846
v -0.2023729 -43.63546 -5.168846
v -0.2813943 -45.0592 -4.376344
v -0.3891834 -43.40669 -3.994191
v -0.3891834 -43.40669 -3.994191
v -0.2813943 -45.0592 -4.376344
v -0.3949656 -43.49202 -3.939867
v 1.437611 -43.72159 -3.41088
v 1.640003 -44.1914 -3.48677
v 1.833604 -43.65411 -4.871908
v 1.833604 -43.65411 -4.871908
v 1.640003 -44.1914 -3.48677
v 2.1337 -44.39849 -4.920881
v 2.1337 -44.39849 -4.920881
v 1.640003 -44.1914 -3.48677
v 2.084952 -44.84259 -4.161318
v 0.481527 -45.12671 -5.439037
v 1.162407 -44.12943 -6.071122
v 1.110739 -45.48821 -5.446936
v 1.110739 -45.48821 -5.446936
v 1.162407 -44.12943 -6.071122
v 1.532307 -44.6959 -5.916811
v -0.2023729 -43.63546 -5.168846
v -0.3891834 -43.40669 -3.994191
v 0.9561098 -43.56653 -6.00616
v 0.9561098 -43.56653 -6.00616
v -0.3891834 -43.40669 -3.994191
v 1.461055 -43.24986 -5.129007
v 1.461055 -43.24986 -5.129007
v -0.3891834 -43.40669 -3.994191
v 0.5121622 -43.17267 -3.863925
v 2.084952 -44.84259 -4.161318
v 1.872744 -45.14082 -4.126037
v 2.1337 -44.39849 -4.920881
v 2.1337 -44.39849 -4.920881
v 1.872744 -45.14082 -4.126037
v 1.532307 -44.6959 -5.916811
v 1.532307 -44.6959 -5.916811
v 1.872744 -45.14082 -4.126037
v 1.110739 -45.48821 -5.446936
v 1.110739 -45.48821 -5.446936
v 1.872744 -45.14082 -4.126037
v 1.168245 -45.78218 -4.706613
v 1.217927 -43.46128 -3.451433
v 0.5121622 -43.17267 -3.863925
v 1.241395 -43.49879 -3.419348
v 1.241395 -43.49879 -3.419348
v 0.5121622 -43.17267 -3.863925
v 1.230872 -43.51088 -3.414709
v 1.230872 -43.51088 -3.414709
v 0.5121622 -43.17267 -3.863925
v -0.3949656 -43.49202 -3.939867
v -0.3949656 -43.49202 -3.939867
v 0.5121622 -43.17267 -3.863925
v -0.3891834 -43.40669 -3.994191
v -0.1938579 -44.66365 -5.024511
v -0.07621524 -44.93411 -5.068949
v -0.2220529 -44.9497 -4.784896
v 0.5121622 -43.17267 -3.863925
v 1.217927 -43.46128 -3.451433
v 1.461055 -43.24986 -5.129007
v 1.461055 -43.24986 -5.129007
v 1.217927 -43.46128 -3.451433
v 1.564101 -43.30027 -5.020348
v 1.437611 -43.72159 -3.41088
v 1.339929 -43.61252 -3.409814
v 1.640003 -44.1914 -3.48677
v 1.640003 -44.1914 -3.48677
v 1.339929 -43.61252 -3.409814
v 1.54667 -44.83126 -3.710587
v 1.54667 -44.83126 -3.710587
v 1.339929 -43.61252 -3.409814
v 0.4628782 -45.526 -4.27438
v 0.4628782 -45.526 -4.27438
v 1.339929 -43.61252 -3.409814
v -0.2813943 -45.0592 -4.376344
v -0.2813943 -45.0592 -4.376344
v 1.339929 -43.61252 -3.409814
v -0.3949656 -43.49202 -3.939867
v -0.3949656 -43.49202 -3.939867
v 1.339929 -43.61252 -3.409814
v 1.230872 -43.51088 -3.414709
v 1.217927 -43.46128 -3.451433
v 1.241395 -43.49879 -3.419348
v 1.564101 -43.30027 -5.020348
v 1.564101 -43.30027 -5.020348
v 1.241395 -43.49879 -3.419348
v 1.833604 -43.65411 -4.871908
v 1.833604 -43.65411 -4.871908
v 1.241395 -43.49879 -3.419348
v 1.437611 -43.72159 -3.41088
v 1.437611 -43.72159 -3.41088
v 1.241395 -43.49879 -3.419348
v 1.339929 -43.61252 -3.409814
v 1.872744 -45.14082 -4.126037
v 1.54667 -44.83126 -3.710587
v 1.168245 -45.78218 -4.706613
v 1.168245 -45.78218 -4.706613
v 1.54667 -44.83126 -3.710587
v 0.4628782 -45.526 -4.27438
v 1.241395 -43.49879 -3.419348
v 1.230872 -43.51088 -3.414709
v 1.339929 -43.61252 -3.409814

vn 0.7559654 0.3415062 -0.558471
vn 0.7559654 0.3415062 -0.558471
vn 0.7559654 0.3415062 -0.558471
vn 0.7559654 0.3415062 -0.558471
vn 0.7559654 0.3415062 -0.558471
vn 0.7559654 0.3415062 -0.558471
vn 0.7559654 0.3415062 -0.558471
vn 0.7559654 0.3415062 -0.558471
vn 0.7559654 0.3415062 -0.558471
vn 0.7559654 0.3415062 -0.558471
vn 0.7559654 0.3415062 -0.558471
vn 0.7559654 0.3415062 -0.558471
vn 0.7559654 0.3415062 -0.558471
vn 0.7559654 0.3415062 -0.558471
vn 0.7559654 0.3415062 -0.558471
vn -0.5770418 -0.1182191 -0.8081132
vn -0.5770418 -0.1182191 -0.8081132
vn -0.5770418 -0.1182191 -0.8081132
vn -0.5770418 -0.1182191 -0.8081132
vn -0.5770418 -0.1182191 -0.8081132
vn -0.5770418 -0.1182191 -0.8081132
vn -0.5770418 -0.1182191 -0.8081132
vn -0.5770418 -0.1182191 -0.8081132
vn -0.5770418 -0.1182191 -0.8081132
vn -0.5770418 -0.1182191 -0.8081132
vn -0.5770418 -0.1182191 -0.8081132
vn -0.5770418 -0.1182191 -0.8081132
vn -0.4792817 -0.8278411 -0.2914934
vn -0.4792817 -0.8278411 -0.2914934
vn -0.4792817 -0.8278411 -0.2914934
vn -0.4792817 -0.8278411 -0.2914934
vn -0.4792817 -0.8278411 -0.2914934
vn -0.4792817 -0.8278411 -0.2914934
vn -0.4792817 -0.8278411 -0.2914934
vn -0.4792817 -0.8278411 -0.2914934
vn -0.4792817 -0.8278411 -0.2914934
vn -0.4792817 -0.8278411 -0.2914934
vn -0.4792817 -0.8278411 -0.2914934
vn -0.4792817 -0.8278411 -0.2914934
vn -0.4792817 -0.8278411 -0.2914934
vn -0.4792817 -0.8278411 -0.2914934
vn -0.4792817 -0.8278411 -0.2914934
vn 0.5993453 -0.3407845 0.7243282
vn 0.5993453 -0.3407845 0.7243282
vn 0.5993453 -0.3407845 0.7243282
vn 0.5993453 -0.3407845 0.7243282
vn 0.5993453 -0.3407845 0.7243282
vn 0.5993453 -0.3407845 0.7243282
vn -0.9880343 -0.029434 -0.1514001
vn -0.9880343 -0.029434 -0.1514001
vn -0.9880343 -0.029434 -0.1514001
vn -0.9880343 -0.029434 -0.1514001
vn -0.9880343 -0.029434 -0.1514001
vn -0.9880343 -0.029434 -0.1514001
vn -0.9880343 -0.029434 -0.1514001
vn -0.9880343 -0.029434 -0.1514001
vn -0.9880343 -0.029434 -0.1514001
vn -0.9880343 -0.029434 -0.1514001
vn -0.9880343 -0.029434 -0.1514001
vn -0.9880343 -0.029434 -0.1514001
vn 0.9013174 0.3462343 0.260286
vn 0.9013174 0.3462343 0.260286
vn 0.9013174 0.3462343 0.260286
vn 0.9013174 0.3462343 0.260286
vn 0.9013174 0.3462343 0.260286
vn 0.9013174 0.3462343 0.260286
vn 0.9013174 0.3462343 0.260286
vn 0.9013174 0.3462343 0.260286
vn 0.9013174 0.3462343 0.260286
vn -0.239623 -0.3977357 -0.8856564
vn -0.239623 -0.3977357 -0.8856564
vn -0.239623 -0.3977357 -0.8856564
vn -0.239623 -0.3977357 -0.8856564
vn -0.239623 -0.3977357 -0.8856564
vn -0.239623 -0.3977357 -0.8856564
vn -0.2153139 0.9515425 -0.2195609
vn -0.2153139 0.9515425 -0.2195609
vn -0.2153139 0.9515425 -0.2195609
vn -0.2153139 0.9515425 -0.2195609
vn -0.2153139 0.9515425 -0.2195609
vn -0.2153139 0.9515425 -0.2195609
vn -0.2153139 0.9515425 -0.2195609
vn -0.2153139 0.9515425 -0.2195609
vn -0.2153139 0.9515425 -0.2195609
vn 0.7636454 -0.5775153 -0.2886553
vn 0.7636454 -0.5775153 -0.2886553
vn 0.7636454 -0.5775153 -0.2886553
vn 0.7636454 -0.5775153 -0.2886553
vn 0.7636454 -0.5775153 -0.2886553
vn 0.7636454 -0.5775153 -0.2886553
vn 0.7636454 -0.5775153 -0.2886553
vn 0.7636454 -0.5775153 -0.2886553
vn 0.7636454 -0.5775153 -0.2886553
vn 0.7636454 -0.5775153 -0.2886553
vn 0.7636454 -0.5775153 -0.2886553
vn 0.7636454 -0.5775153 -0.2886553
vn -0.2547488 0.5315558 0.8078066
vn -0.2547488 0.5315558 0.8078066
vn -0.2547488 0.5315558 0.8078066
vn -0.2547488 0.5315558 0.8078066
vn -0.2547488 0.5315558 0.8078066
vn -0.2547488 0.5315558 0.8078066
vn -0.2547488 0.5315558 0.8078066
vn -0.2547488 0.5315558 0.8078066
vn -0.2547488 0.5315558 0.8078066
vn -0.2547488 0.5315558 0.8078066
vn -0.2547488 0.5315558 0.8078066
vn -0.2547488 0.5315558 0.8078066
vn -0.8438667 -0.2932183 -0.4493464
vn -0.8438667 -0.2932183 -0.4493464
vn -0.8438667 -0.2932183 -0.4493464
vn 0.2914589 0.9429233 0.1610818
vn 0.2914589 0.9429233 0.1610818
vn 0.2914589 0.9429233 0.1610818
vn 0.2914589 0.9429233 0.1610818
vn 0.2914589 0.9429233 0.1610818
vn 0.2914589 0.9429233 0.1610818
vn -0.2983156 -0.2760858 0.9136654
vn -0.2983156 -0.2760858 0.9136654
vn -0.2983156 -0.2760858 0.9136654
vn -0.2983156 -0.2760858 0.9136654
vn -0.2983156 -0.2760858 0.9136654
vn -0.2983156 -0.2760858 0.9136654
vn -0.2983156 -0.2760858 0.9136654
vn -0.2983156 -0.2760858 0.9136654
vn -0.2983156 -0.2760858 0.9136654
vn -0.2983156 -0.2760858 0.9136654
vn -0.2983156 -0.2760858 0.9136654
vn -0.2983156 -0.2760858 0.9136654
vn -0.2983156 -0.2760858 0.9136654
vn -0.2983156 -0.2760858 0.9136654
vn -0.2983156 -0.2760858 0.9136654
vn -0.2983156 -0.2760858 0.9136654
vn -0.2983156 -0.2760858 0.9136654
vn -0.2983156 -0.2760858 0.9136654
vn 0.7265351 0.6485921 0.2268811
vn 0.7265351 0.6485921 0.2268811
vn 0.7265351 0.6485921 0.2268811
vn 0.7265351 0.6485921 0.2268811
vn 0.7265351 0.6485921 0.2268811
vn 0.7265351 0.6485921 0.2268811
vn 0.7265351 0.6485921 0.2268811
vn 0.7265351 0.6485921 0.2268811
vn 0.7265351 0.6485921 0.2268811
vn 0.7265351 0.6485921 0.2268811
vn 0.7265351 0.6485921 0.2268811
vn 0.7265351 0.6485921 0.2268811
vn 0.1334595 -0.7416625 0.6573624
vn 0.1334595 -0.7416625 0.6573624
vn 0.1334595 -0.7416625 0.6573624
vn 0.1334595 -0.7416625 0.6573624
vn 0.1334595 -0.7416625 0.6573624
vn 0.1334595 -0.7416625 0.6573624
vn 0.1661238 0.2244111 0.9602305
vn 0.1661238 0.2244111 0.9602305
vn 0.1661238 0.2244111 0.9602305

vt 0.420997 0.4057743
vt 0.4668467 0.3868448
vt 0.411651 0.4196326
vt 0.411651 0.4196326
vt 0.4668467 0.3868448
vt 0.4201867 0.5314955
vt 0.4201867 0.5314955
vt 0.4668467 0.3868448
vt 0.4834385 0.5397751
vt 0.4834385 0.5397751
vt 0.4668467 0.3868448
vt 0.5541596 0.5200959
vt 0.5541596 0.5200959
vt 0.4668467 0.3868448
vt 0.5516822 0.3930895
vt 0.4980791 0.3393513
vt 0.6483923 0.3758597
vt 0.4550886 0.3505926
vt 0.4550886 0.3505926
vt 0.6483923 0.3758597
vt 0.4103052 0.4441919
vt 0.4103052 0.4441919
vt 0.6483923 0.3758597
vt 0.5354956 0.6040652
vt 0.5354956 0.6040652
vt 0.6483923 0.3758597
vt 0.6238143 0.5876365
vt 0.5631749 0.423153
vt 0.5523062 0.4503946
vt 0.5628489 0.3839717
vt 0.5628489 0.3839717
vt 0.5523062 0.4503946
vt 0.4823022 0.3741926
vt 0.4823022 0.3741926
vt 0.5523062 0.4503946
vt 0.4145288 0.4156418
vt 0.4145288 0.4156418
vt 0.5523062 0.4503946
vt 0.4326061 0.4866423
vt 0.4326061 0.4866423
vt 0.5523062 0.4503946
vt 0.4991734 0.4858879
vt 0.4251833 0.3863745
vt 0.5018557 0.4276933
vt 0.4692402 0.5109036
vt 0.4692402 0.5109036
vt 0.5018557 0.4276933
vt 0.5155929 0.5043936
vt 0.4569419 0.4348925
vt 0.4473818 0.3981979
vt 0.4822464 0.4564111
vt 0.4822464 0.4564111
vt 0.4473818 0.3981979
vt 0.5735034 0.4693753
vt 0.5735034 0.4693753
vt 0.4473818 0.3981979
vt 0.5943002 0.3638781
vt 0.5943002 0.3638781
vt 0.4473818 0.3981979
vt 0.5867471 0.3589979
vt 0.4581341 0.347724
vt 0.5045938 0.3548674
vt 0.4653147 0.4852453
vt 0.4653147 0.4852453
vt 0.5045938 0.3548674
vt 0.5382523 0.4898554
vt 0.5382523 0.4898554
vt 0.5045938 0.3548674
vt 0.5743417 0.4183613
vt 0.4956716 0.3737409
vt 0.4827167 0.6309902
vt 0.3585648 0.376954
vt 0.3585648 0.376954
vt 0.4827167 0.6309902
vt 0.3675941 0.5681902
vt 0.4214347 0.4634706
vt 0.4095881 0.3551701
vt 0.5244406 0.5406784
vt 0.5244406 0.5406784
vt 0.4095881 0.3551701
vt 0.5750215 0.4598105
vt 0.5750215 0.4598105
vt 0.4095881 0.3551701
vt 0.493306 0.3431651
vt 0.4630515 0.36297
vt 0.4965843 0.3595939
vt 0.4278935 0.4356795
vt 0.4278935 0.4356795
vt 0.4965843 0.3595939
vt 0.4828843 0.5310205
vt 0.4828843 0.5310205
vt 0.4965843 0.3595939
vt 0.5641062 0.4860462
vt 0.5641062 0.4860462
vt 0.4965843 0.3595939
vt 0.5824164 0.4151715
vt 0.60868 0.4201448
vt 0.532506 0.5243242
vt 0.6094158 0.4120422
vt 0.6094158 0.4120422
vt 0.532506 0.5243242
vt 0.6072271 0.4108687
vt 0.6072271 0.4108687
vt 0.532506 0.5243242
vt 0.390179 0.5435097
vt 0.390179 0.5435097
vt 0.532506 0.5243242
vt 0.3964469 0.5572283
vt 0.5129013 0.4229807
vt 0.4840066 0.4278656
vt 0.4872663 0.3966332
vt 0.436243 0.3846934
vt 0.5037649 0.3475331
vt 0.5188805 0.4986658
vt 0.5188805 0.4986658
vt 0.5037649 0.3475331
vt 0.5289576 0.4888775
vt 0.5972804 0.3657826
vt 0.6069105 0.3751938
vt 0.5539174 0.3462898
vt 0.5539174 0.3462898
vt 0.6069105 0.3751938
vt 0.4916529 0.3552818
vt 0.4916529 0.3552818
vt 0.6069105 0.3751938
vt 0.4155114 0.4596801
vt 0.4155114 0.4596801
vt 0.6069105 0.3751938
vt 0.4538825 0.5313651
vt 0.4538825 0.5313651
vt 0.6069105 0.3751938
vt 0.603418 0.5423176
vt 0.603418 0.5423176
vt 0.6069105 0.3751938
vt 0.6157209 0.3856993
vt 0.4554378 0.3512585
vt 0.4593634 0.3482921
vt 0.4653892 0.496412
vt 0.4653892 0.496412
vt 0.4593634 0.3482921
vt 0.5053388 0.4826748
vt 0.5053388 0.4826748
vt 0.4593634 0.3482921
vt 0.4861161 0.3475098
vt 0.4861161 0.3475098
vt 0.4593634 0.3482921
vt 0.4729237 0.347412
vt 0.4001024 0.4589629
vt 0.431088 0.3947612
vt 0.4940697 0.5486786
vt 0.4940697 0.5486786
vt 0.431088 0.3947612
vt 0.5696291 0.4818831
vt 0.5545507 0.4335421
vt 0.5534052 0.4344921
vt 0.5445016 0.4246478

usemtl Material0
usemap Material0

usemtl Material1
usemap Material1
f 1/1/1 2/2/2 3/3/3
f 4/4/4 5/5/5 6/6/6
f 7/7/7 8/8/8 9/9/9
f 10/10/10 11/11/11 12/12/12
f 13/13/13 14/14/14 15/15/15
f 16/16/16 17/17/17 18/18/18
f 19/19/19 20/20/20 21/21/21
f 22/22/22 23/23/23 24/24/24
f 25/25/25 26/26/26 27/27/27
f 28/28/28 29/29/29 30/30/30
f 31/31/31 32/32/32 33/33/33
f 34/34/34 35/35/35 36/36/36
f 37/37/37 38/38/38 39/39/39
f 40/40/40 41/41/41 42/42/42
f 43/43/43 44/44/44 45/45/45
f 46/46/46 47/47/47 48/48/48
f 49/49/49 50/50/50 51/51/51
f 52/52/52 53/53/53 54/54/54
f 55/55/55 56/56/56 57/57/57
f 58/58/58 59/59/59 60/60/60
f 61/61/61 62/62/62 63/63/63
f 64/64/64 65/65/65 66/66/66
f 67/67/67 68/68/68 69/69/69
f 70/70/70 71/71/71 72/72/72
f 73/73/73 74/74/74 75/75/75
f 76/76/76 77/77/77 78/78/78
f 79/79/79 80/80/80 81/81/81
f 82/82/82 83/83/83 84/84/84
f 85/85/85 86/86/86 87/87/87
f 88/88/88 89/89/89 90/90/90
f 91/91/91 92/92/92 93/93/93
f 94/94/94 95/95/95 96/96/96
f 97/97/97 98/98/98 99/99/99
f 100/100/100 101/101/101 102/102/102
f 103/103/103 104/104/104 105/105/105
f 106/106/106 107/107/107 108/108/108
f 109/109/109 110/110/110 111/111/111
f 112/112/112 113/113/113 114/114/114
f 115/115/115 116/116/116 117/117/117
f 118/118/118 119/119/119 120/120/120
f 121/121/121 122/122/122 123/123/123
f 124/124/124 125/125/125 126/126/126
f 127/127/127 128/128/128 129/129/129
f 130/130/130 131/131/131 132/132/132
f 133/133/133 134/134/134 135/135/135
f 136/136/136 137/137/137 138/138/138
f 139/139/139 140/140/140 141/141/141
f 142/142/142 143/143/143 144/144/144
f 145/145/145 146/146/146 147/147/147
f 148/148/148 149/149/149 150/150/150
f 151/151/151 152/152/152 153/153/153
f 154/154/154 155/155/155 156/156/156
