g  Instance
v -5.151495 -52.5587 -2.468244
v -3.872965 -52.20166 -1.310046
v -5.088734 -53.6153 -2.070748
v -5.088734 -53.6153 -2.070748
v -3.872965 -52.20166 -1.310046
v -3.647581 -53.62756 -0.6337135
v -3.647581 -53.62756 -0.6337135
v -3.872965 -52.20166 -1.310046
v -3.357893 -52.92257 -0.5692147
v -4.389639 -53.4421 -0.1079977
v -5.951939 -51.94165 -0.3478497
v -4.505833 -53.68558 -0.2116895
v -4.505833 -53.68558 -0.2116895
v -5.951939 -51.94165 -0.3478497
v -6.055856 -53.72039 -0.8180254
v -6.055856 -53.72039 -0.8180254
v -5.951939 -51.94165 -0.3478497
v -6.105366 -53.62619 -0.8143455
v -6.105366 -53.62619 -0.8143455
v -5.951939 -51.94165 -0.3478497
v -6.683748 -52.27314 -0.7102959
v -6.683748 -52.27314 -0.7102959
v -5.951939 -51.94165 -0.3478497
v -6.526489 -52.01937 -0.5882736
v -3.872965 -52.20166 -1.310046
v -3.735846 -52.02485 -0.7169379
v -3.357893 -52.92257 -0.5692147
v -3.357893 -52.92257 -0.5692147
v -3.735846 -52.02485 -0.7169379
v -3.337392 -52.90021 -0.4849238
v -6.105366 -53.62619 -0.8143455
v -6.061484 -53.72022 -0.8261147
v -6.055856 -53.72039 -0.8180254
v -6.526489 -52.01937 -0.5882736
v -6.720308 -52.07119 -0.7560335
v -6.683748 -52.27314 -0.7102959
v -6.105366 -53.62619 -0.8143455
v -6.683748 -52.27314 -0.7102959
v -6.061484 -53.72022 -0.8261147
v -6.061484 -53.72022 -0.8261147
v -6.683748 -52.27314 -0.7102959
v -5.088734 -53.6153 -2.070748
v -5.088734 -53.6153 -2.070748
v -6.683748 -52.27314 -0.7102959
v -5.151495 -52.5587 -2.468244
v -5.151495 -52.5587 -2.468244
v -6.683748 -52.27314 -0.7102959
v -6.720308 -52.07119 -0.7560335
v -6.526489 -52.01937 -0.5882736
v -5.951939 -51.94165 -0.3478497
v -6.720308 -52.07119 -0.7560335
v -6.720308 -52.07119 -0.7560335
v -5.951939 -51.94165 -0.3478497
v -5.151495 -52.5587 -2.468244
v -5.151495 -52.5587 -2.468244
v -5.951939 -51.94165 -0.3478497
v -3.872965 -52.20166 -1.310046
v -3.872965 -52.20166 -1.310046
v -5.951939 -51.94165 -0.3478497
v -3.735846 -52.02485 -0.7169379
v -3.647581 -53.62756 -0.6337135
v -3.617516 -53.63918 -0.3815477
v -5.088734 -53.6153 -2.070748
v -5.088734 -53.6153 -2.070748
v -3.617516 -53.63918 -0.3815477
v -6.061484 -53.72022 -0.8261147
v -6.061484 -53.72022 -0.8261147
v -3.617516 -53.63918 -0.3815477
v -6.055856 -53.72039 -0.8180254
v -6.055856 -53.72039 -0.8180254
v -3.617516 -53.63918 -0.3815477
v -4.505833 -53.68558 -0.2116895
v -3.357893 -52.92257 -0.5692147
v -3.337392 -52.90021 -0.4849238
v -3.647581 -53.62756 -0.6337135
v -3.647581 -53.62756 -0.6337135
v -3.337392 -52.90021 -0.4849238
v -3.617516 -53.63918 -0.3815477
v -3.617516 -53.63918 -0.3815477
v -3.337392 -52.90021 -0.4849238
v -3.509296 -53.40264 -0.2797865
v -3.617516 -53.63918 -0.3815477
v -3.509296 -53.40264 -0.2797865
v -4.505833 -53.68558 -0.2116895
v -4.505833 -53.68558 -0.2116895
v -3.509296 -53.40264 -0.2797865
v -4.389639 -53.4421 -0.1079977
v -3.735846 -52.02485 -0.7169379
v -5.951939 -51.94165 -0.3478497
v -3.337392 -52.90021 -0.4849238
v -3.337392 -52.90021 -0.4849238
v -5.951939 -51.94165 -0.3478497
v -3.509296 -53.40264 -0.2797865
v -3.509296 -53.40264 -0.2797865
v -5.951939 -51.94165 -0.3478497
v -4.389639 -53.4421 -0.1079977

vn 0.6879542 -0.2193927 -0.691799
vn 0.6879542 -0.2193927 -0.691799
vn 0.6879542 -0.2193927 -0.691799
vn 0.6879542 -0.2193927 -0.691799
vn 0.6879542 -0.2193927 -0.691799
vn 0.6879542 -0.2193927 -0.691799
vn 0.6879542 -0.2193927 -0.691799
vn 0.6879542 -0.2193927 -0.691799
vn 0.6879542 -0.2193927 -0.691799
vn -0.3510764 -0.2200619 0.9101199
vn -0.3510764 -0.2200619 0.9101199
vn -0.3510764 -0.2200619 0.9101199
vn -0.3510764 -0.2200619 0.9101199
vn -0.3510764 -0.2200619 0.9101199
vn -0.3510764 -0.2200619 0.9101199
vn -0.3510764 -0.2200619 0.9101199
vn -0.3510764 -0.2200619 0.9101199
vn -0.3510764 -0.2200619 0.9101199
vn -0.3510764 -0.2200619 0.9101199
vn -0.3510764 -0.2200619 0.9101199
vn -0.3510764 -0.2200619 0.9101199
vn -0.3510764 -0.2200619 0.9101199
vn -0.3510764 -0.2200619 0.9101199
vn -0.3510764 -0.2200619 0.9101199
vn 0.8948265 0.3266692 -0.304258
vn 0.8948265 0.3266692 -0.304258
vn 0.8948265 0.3266692 -0.304258
vn 0.8948265 0.3266692 -0.304258
vn 0.8948265 0.3266692 -0.304258
vn 0.8948265 0.3266692 -0.304258
vn -0.7510682 -0.4147929 0.5136571
vn -0.7510682 -0.4147929 0.5136571
vn -0.7510682 -0.4147929 0.5136571
vn -0.6612176 0.04982884 0.7485375
vn -0.6612176 0.04982884 0.7485375
vn -0.6612176 0.04982884 0.7485375
vn -0.7467842 -0.2725771 -0.6066425
vn -0.7467842 -0.2725771 -0.6066425
vn -0.7467842 -0.2725771 -0.6066425
vn -0.7467842 -0.2725771 -0.6066425
vn -0.7467842 -0.2725771 -0.6066425
vn -0.7467842 -0.2725771 -0.6066425
vn -0.7467842 -0.2725771 -0.6066425
vn -0.7467842 -0.2725771 -0.6066425
vn -0.7467842 -0.2725771 -0.6066425
vn -0.7467842 -0.2725771 -0.6066425
vn -0.7467842 -0.2725771 -0.6066425
vn -0.7467842 -0.2725771 -0.6066425
vn -0.01117538 0.9589671 -0.283297
vn -0.01117538 0.9589671 -0.283297
vn -0.01117538 0.9589671 -0.283297
vn -0.01117538 0.9589671 -0.283297
vn -0.01117538 0.9589671 -0.283297
vn -0.01117538 0.9589671 -0.283297
vn -0.01117538 0.9589671 -0.283297
vn -0.01117538 0.9589671 -0.283297
vn -0.01117538 0.9589671 -0.283297
vn -0.01117538 0.9589671 -0.283297
vn -0.01117538 0.9589671 -0.283297
vn -0.01117538 0.9589671 -0.283297
vn 0.04236417 -0.9977995 -0.05100465
vn 0.04236417 -0.9977995 -0.05100465
vn 0.04236417 -0.9977995 -0.05100465
vn 0.04236417 -0.9977995 -0.05100465
vn 0.04236417 -0.9977995 -0.05100465
vn 0.04236417 -0.9977995 -0.05100465
vn 0.04236417 -0.9977995 -0.05100465
vn 0.04236417 -0.9977995 -0.05100465
vn 0.04236417 -0.9977995 -0.05100465
vn 0.04236417 -0.9977995 -0.05100465
vn 0.04236417 -0.9977995 -0.05100465
vn 0.04236417 -0.9977995 -0.05100465
vn 0.9215158 -0.3670606 -0.126788
vn 0.9215158 -0.3670606 -0.126788
vn 0.9215158 -0.3670606 -0.126788
vn 0.9215158 -0.3670606 -0.126788
vn 0.9215158 -0.3670606 -0.126788
vn 0.9215158 -0.3670606 -0.126788
vn 0.9215158 -0.3670606 -0.126788
vn 0.9215158 -0.3670606 -0.126788
vn 0.9215158 -0.3670606 -0.126788
vn 0.18987 -0.4600241 0.867368
vn 0.18987 -0.4600241 0.867368
vn 0.18987 -0.4600241 0.867368
vn 0.18987 -0.4600241 0.867368
vn 0.18987 -0.4600241 0.867368
vn 0.18987 -0.4600241 0.867368
vn 0.1672637 0.3230457 0.931485
vn 0.1672637 0.3230457 0.931485
vn 0.1672637 0.3230457 0.931485
vn 0.1672637 0.3230457 0.931485
vn 0.1672637 0.3230457 0.931485
vn 0.1672637 0.3230457 0.931485
vn 0.1672637 0.3230457 0.931485
vn 0.1672637 0.3230457 0.931485
vn 0.1672637 0.3230457 0.931485

vt 0.499858 0.6163868
vt 0.4113111 0.421472
vt 0.6198747 0.5494889
vt 0.6198747 0.5494889
vt 0.4113111 0.421472
vt 0.568083 0.3076439
vt 0.568083 0.3076439
vt 0.4113111 0.421472
vt 0.4757549 0.2967892
vt 0.4488533 0.3808703
vt 0.5802556 0.5372325
vt 0.4243917 0.3924981
vt 0.4243917 0.3924981
vt 0.5802556 0.5372325
vt 0.4078651 0.5476356
vt 0.4078651 0.5476356
vt 0.5802556 0.5372325
vt 0.4165266 0.5525903
vt 0.4165266 0.5525903
vt 0.5802556 0.5372325
vt 0.5420708 0.6104822
vt 0.5420708 0.6104822
vt 0.5802556 0.5372325
vt 0.5678781 0.5947426
vt 0.4857063 0.4516147
vt 0.4747398 0.3942583
vt 0.5643577 0.3799716
vt 0.5643577 0.3799716
vt 0.4747398 0.3942583
vt 0.5630724 0.3718224
vt 0.4829076 0.5220238
vt 0.4723183 0.5234301
vt 0.4720249 0.5224615
vt 0.5705324 0.596391
vt 0.5617593 0.6298726
vt 0.5354769 0.6207455
vt 0.4539151 0.3292044
vt 0.6161028 0.3147593
vt 0.4425062 0.3308389
vt 0.4425062 0.3308389
vt 0.6161028 0.3147593
vt 0.4165731 0.5036578
vt 0.4165731 0.5036578
vt 0.6161028 0.3147593
vt 0.5285105 0.5588489
vt 0.5285105 0.5588489
vt 0.6161028 0.3147593
vt 0.638427 0.3211111
vt 0.3383129 0.3982258
vt 0.3909613 0.375287
vt 0.3205243 0.4142308
vt 0.3205243 0.4142308
vt 0.3909613 0.375287
vt 0.4635451 0.5775874
vt 0.4635451 0.5775874
vt 0.3909613 0.375287
vt 0.5808982 0.4670935
vt 0.5808982 0.4670935
vt 0.3909613 0.375287
vt 0.593639 0.4105055
vt 0.4065892 0.4156558
vt 0.4039954 0.3934713
vt 0.5330555 0.5420848
vt 0.5330555 0.5420848
vt 0.4039954 0.3934713
vt 0.6188502 0.4325781
vt 0.6188502 0.4325781
vt 0.4039954 0.3934713
vt 0.6183566 0.4318657
vt 0.6183566 0.4318657
vt 0.4039954 0.3934713
vt 0.4821532 0.3785233
vt 0.4736874 0.3989103
vt 0.4711821 0.3913944
vt 0.5411115 0.404666
vt 0.5411115 0.404666
vt 0.4711821 0.3913944
vt 0.5410836 0.3821742
vt 0.5410836 0.3821742
vt 0.4711821 0.3913944
vt 0.5180982 0.3730983
vt 0.3791846 0.5986356
vt 0.3456332 0.5625835
vt 0.5270949 0.5384526
vt 0.5270949 0.5384526
vt 0.3456332 0.5625835
vt 0.4917786 0.5017113
vt 0.5502107 0.3607534
vt 0.5464481 0.5608233
vt 0.4698363 0.3247806
vt 0.4698363 0.3247806
vt 0.5464481 0.5608233
vt 0.4215977 0.3402919
vt 0.4215977 0.3402919
vt 0.5464481 0.5608233
vt 0.4132669 0.4197769

usemtl Material0
usemap Material0

usemtl Material1
usemap Material1
f 1/1/1 2/2/2 3/3/3
f 4/4/4 5/5/5 6/6/6
f 7/7/7 8/8/8 9/9/9
f 10/10/10 11/11/11 12/12/12
f 13/13/13 14/14/14 15/15/15
f 16/16/16 17/17/17 18/18/18
f 19/19/19 20/20/20 21/21/21
f 22/22/22 23/23/23 24/24/24
f 25/25/25 26/26/26 27/27/27
f 28/28/28 29/29/29 30/30/30
f 31/31/31 32/32/32 33/33/33
f 34/34/34 35/35/35 36/36/36
f 37/37/37 38/38/38 39/39/39
f 40/40/40 41/41/41 42/42/42
f 43/43/43 44/44/44 45/45/45
f 46/46/46 47/47/47 48/48/48
f 49/49/49 50/50/50 51/51/51
f 52/52/52 53/53/53 54/54/54
f 55/55/55 56/56/56 57/57/57
f 58/58/58 59/59/59 60/60/60
f 61/61/61 62/62/62 63/63/63
f 64/64/64 65/65/65 66/66/66
f 67/67/67 68/68/68 69/69/69
f 70/70/70 71/71/71 72/72/72
f 73/73/73 74/74/74 75/75/75
f 76/76/76 77/77/77 78/78/78
f 79/79/79 80/80/80 81/81/81
f 82/82/82 83/83/83 84/84/84
f 85/85/85 86/86/86 87/87/87
f 88/88/88 89/89/89 90/90/90
f 91/91/91 92/92/92 93/93/93
f 94/94/94 95/95/95 96/96/96
