g  Instance
v 3.814367 -48.8101 1.569708
v 4.274981 -48.46594 0.5109936
v 5.284531 -48.93769 1.644197
v 5.284531 -48.93769 1.644197
v 4.274981 -48.46594 0.5109936
v 4.295494 -48.46705 0.5101462
v 4.834936 -47.11499 0.1373846
v 5.671485 -46.92025 0.7312999
v 4.801914 -47.14427 0.1272425
v 4.801914 -47.14427 0.1272425
v 5.671485 -46.92025 0.7312999
v 4.295494 -48.46705 0.5101462
v 4.295494 -48.46705 0.5101462
v 5.671485 -46.92025 0.7312999
v 5.284531 -48.93769 1.644197
v 5.284531 -48.93769 1.644197
v 5.671485 -46.92025 0.7312999
v 5.509434 -48.85955 1.78798
v 5.509434 -48.85955 1.78798
v 5.671485 -46.92025 0.7312999
v 6.267723 -47.58406 1.649163
v 2.406392 -48.02293 2.276352
v 2.434262 -47.8795 2.246468
v 2.458389 -48.16303 2.216742
v 2.458389 -48.16303 2.216742
v 2.434262 -47.8795 2.246468
v 4.022878 -48.23208 0.4623668
v 4.022878 -48.23208 0.4623668
v 2.434262 -47.8795 2.246468
v 4.208721 -47.5189 0.2607874
v 3.814367 -48.8101 1.569708
v 2.460223 -48.16456 2.216838
v 4.274981 -48.46594 0.5109936
v 4.274981 -48.46594 0.5109936
v 2.460223 -48.16456 2.216838
v 4.022878 -48.23208 0.4623668
v 4.022878 -48.23208 0.4623668
v 2.460223 -48.16456 2.216838
v 2.458389 -48.16303 2.216742
v 2.434262 -47.8795 2.246468
v 2.406392 -48.02293 2.276352
v 5.04909 -45.94544 2.247955
v 5.04909 -45.94544 2.247955
v 2.406392 -48.02293 2.276352
v 5.971586 -45.83921 2.38873
v 5.971586 -45.83921 2.38873
v 2.406392 -48.02293 2.276352
v 6.347668 -46.63389 2.650134
v 6.347668 -46.63389 2.650134
v 2.406392 -48.02293 2.276352
v 5.474073 -48.0765 2.843538
v 5.474073 -48.0765 2.843538
v 2.406392 -48.02293 2.276352
v 2.571084 -48.09884 2.324583
v 4.834936 -47.11499 0.1373846
v 5.270894 -46.34463 1.072538
v 5.671485 -46.92025 0.7312999
v 5.671485 -46.92025 0.7312999
v 5.270894 -46.34463 1.072538
v 5.691476 -46.48183 1.151217
v 5.311886 -46.17613 1.360946
v 5.923544 -45.88776 2.228563
v 5.270894 -46.34463 1.072538
v 5.270894 -46.34463 1.072538
v 5.923544 -45.88776 2.228563
v 5.691476 -46.48183 1.151217
v 2.571084 -48.09884 2.324583
v 2.460223 -48.16456 2.216838
v 5.474073 -48.0765 2.843538
v 5.474073 -48.0765 2.843538
v 2.460223 -48.16456 2.216838
v 5.509434 -48.85955 1.78798
v 5.509434 -48.85955 1.78798
v 2.460223 -48.16456 2.216838
v 5.284531 -48.93769 1.644197
v 5.284531 -48.93769 1.644197
v 2.460223 -48.16456 2.216838
v 3.814367 -48.8101 1.569708
v 4.274981 -48.46594 0.5109936
v 4.022878 -48.23208 0.4623668
v 4.295494 -48.46705 0.5101462
v 4.295494 -48.46705 0.5101462
v 4.022878 -48.23208 0.4623668
v 4.801914 -47.14427 0.1272425
v 4.801914 -47.14427 0.1272425
v 4.022878 -48.23208 0.4623668
v 4.208721 -47.5189 0.2607874
v 2.434262 -47.8795 2.246468
v 5.04909 -45.94544 2.247955
v 4.208721 -47.5189 0.2607874
v 4.208721 -47.5189 0.2607874
v 5.04909 -45.94544 2.247955
v 4.801914 -47.14427 0.1272425
v 4.801914 -47.14427 0.1272425
v 5.04909 -45.94544 2.247955
v 4.834936 -47.11499 0.1373846
v 4.834936 -47.11499 0.1373846
v 5.04909 -45.94544 2.247955
v 5.270894 -46.34463 1.072538
v 5.270894 -46.34463 1.072538
v 5.04909 -45.94544 2.247955
v 5.311886 -46.17613 1.360946
v 5.04909 -45.94544 2.247955
v 5.971586 -45.83921 2.38873
v 5.311886 -46.17613 1.360946
v 5.311886 -46.17613 1.360946
v 5.971586 -45.83921 2.38873
v 5.923544 -45.88776 2.228563
v 2.460223 -48.16456 2.216838
v 2.571084 -48.09884 2.324583
v 2.458389 -48.16303 2.216742
v 2.458389 -48.16303 2.216742
v 2.571084 -48.09884 2.324583
v 2.406392 -48.02293 2.276352
v 5.509434 -48.85955 1.78798
v 6.267723 -47.58406 1.649163
v 5.474073 -48.0765 2.843538
v 5.474073 -48.0765 2.843538
v 6.267723 -47.58406 1.649163
v 6.347668 -46.63389 2.650134
v 5.923544 -45.88776 2.228563
v 5.971586 -45.83921 2.38873
v 5.691476 -46.48183 1.151217
v 5.691476 -46.48183 1.151217
v 5.971586 -45.83921 2.38873
v 5.671485 -46.92025 0.7312999
v 5.671485 -46.92025 0.7312999
v 5.971586 -45.83921 2.38873
v 6.267723 -47.58406 1.649163
v 6.267723 -47.58406 1.649163
v 5.971586 -45.83921 2.38873
v 6.347668 -46.63389 2.650134

vn -0.06469854 -0.9404027 -0.3338516
vn -0.06469854 -0.9404027 -0.3338516
vn -0.06469854 -0.9404027 -0.3338516
vn -0.06469854 -0.9404027 -0.3338516
vn -0.06469854 -0.9404027 -0.3338516
vn -0.06469854 -0.9404027 -0.3338516
vn 0.587788 -0.4244028 -0.688758
vn 0.587788 -0.4244028 -0.688758
vn 0.587788 -0.4244028 -0.688758
vn 0.587788 -0.4244028 -0.688758
vn 0.587788 -0.4244028 -0.688758
vn 0.587788 -0.4244028 -0.688758
vn 0.587788 -0.4244028 -0.688758
vn 0.587788 -0.4244028 -0.688758
vn 0.587788 -0.4244028 -0.688758
vn 0.587788 -0.4244028 -0.688758
vn 0.587788 -0.4244028 -0.688758
vn 0.587788 -0.4244028 -0.688758
vn 0.587788 -0.4244028 -0.688758
vn 0.587788 -0.4244028 -0.688758
vn 0.587788 -0.4244028 -0.688758
vn -0.7462046 0.006293602 -0.6656869
vn -0.7462046 0.006293602 -0.6656869
vn -0.7462046 0.006293602 -0.6656869
vn -0.7462046 0.006293602 -0.6656869
vn -0.7462046 0.006293602 -0.6656869
vn -0.7462046 0.006293602 -0.6656869
vn -0.7462046 0.006293602 -0.6656869
vn -0.7462046 0.006293602 -0.6656869
vn -0.7462046 0.006293602 -0.6656869
vn -0.5521477 -0.691929 -0.4651529
vn -0.5521477 -0.691929 -0.4651529
vn -0.5521477 -0.691929 -0.4651529
vn -0.5521477 -0.691929 -0.4651529
vn -0.5521477 -0.691929 -0.4651529
vn -0.5521477 -0.691929 -0.4651529
vn -0.5521477 -0.691929 -0.4651529
vn -0.5521477 -0.691929 -0.4651529
vn -0.5521477 -0.691929 -0.4651529
vn -0.1728675 0.2329827 0.9569932
vn -0.1728675 0.2329827 0.9569932
vn -0.1728675 0.2329827 0.9569932
vn -0.1728675 0.2329827 0.9569932
vn -0.1728675 0.2329827 0.9569932
vn -0.1728675 0.2329827 0.9569932
vn -0.1728675 0.2329827 0.9569932
vn -0.1728675 0.2329827 0.9569932
vn -0.1728675 0.2329827 0.9569932
vn -0.1728675 0.2329827 0.9569932
vn -0.1728675 0.2329827 0.9569932
vn -0.1728675 0.2329827 0.9569932
vn -0.1728675 0.2329827 0.9569932
vn -0.1728675 0.2329827 0.9569932
vn -0.1728675 0.2329827 0.9569932
vn 0.3382761 0.6428364 -0.6872632
vn 0.3382761 0.6428364 -0.6872632
vn 0.3382761 0.6428364 -0.6872632
vn 0.3382761 0.6428364 -0.6872632
vn 0.3382761 0.6428364 -0.6872632
vn 0.3382761 0.6428364 -0.6872632
vn 0.3515584 0.7856932 -0.5090117
vn 0.3515584 0.7856932 -0.5090117
vn 0.3515584 0.7856932 -0.5090117
vn 0.3515584 0.7856932 -0.5090117
vn 0.3515584 0.7856932 -0.5090117
vn 0.3515584 0.7856932 -0.5090117
vn -0.09942683 -0.8007472 0.5906931
vn -0.09942683 -0.8007472 0.5906931
vn -0.09942683 -0.8007472 0.5906931
vn -0.09942683 -0.8007472 0.5906931
vn -0.09942683 -0.8007472 0.5906931
vn -0.09942683 -0.8007472 0.5906931
vn -0.09942683 -0.8007472 0.5906931
vn -0.09942683 -0.8007472 0.5906931
vn -0.09942683 -0.8007472 0.5906931
vn -0.09942683 -0.8007472 0.5906931
vn -0.09942683 -0.8007472 0.5906931
vn -0.09942683 -0.8007472 0.5906931
vn -0.05386332 -0.2585698 -0.9644897
vn -0.05386332 -0.2585698 -0.9644897
vn -0.05386332 -0.2585698 -0.9644897
vn -0.05386332 -0.2585698 -0.9644897
vn -0.05386332 -0.2585698 -0.9644897
vn -0.05386332 -0.2585698 -0.9644897
vn -0.05386332 -0.2585698 -0.9644897
vn -0.05386332 -0.2585698 -0.9644897
vn -0.05386332 -0.2585698 -0.9644897
vn -0.5547715 0.7503221 -0.3595071
vn -0.5547715 0.7503221 -0.3595071
vn -0.5547715 0.7503221 -0.3595071
vn -0.5547715 0.7503221 -0.3595071
vn -0.5547715 0.7503221 -0.3595071
vn -0.5547715 0.7503221 -0.3595071
vn -0.5547715 0.7503221 -0.3595071
vn -0.5547715 0.7503221 -0.3595071
vn -0.5547715 0.7503221 -0.3595071
vn -0.5547715 0.7503221 -0.3595071
vn -0.5547715 0.7503221 -0.3595071
vn -0.5547715 0.7503221 -0.3595071
vn -0.5547715 0.7503221 -0.3595071
vn -0.5547715 0.7503221 -0.3595071
vn -0.5547715 0.7503221 -0.3595071
vn -0.06935442 0.9602814 -0.2702769
vn -0.06935442 0.9602814 -0.2702769
vn -0.06935442 0.9602814 -0.2702769
vn -0.06935442 0.9602814 -0.2702769
vn -0.06935442 0.9602814 -0.2702769
vn -0.06935442 0.9602814 -0.2702769
vn -0.4442598 -0.4853038 0.7530694
vn -0.4442598 -0.4853038 0.7530694
vn -0.4442598 -0.4853038 0.7530694
vn -0.4442598 -0.4853038 0.7530694
vn -0.4442598 -0.4853038 0.7530694
vn -0.4442598 -0.4853038 0.7530694
vn 0.8187649 -0.4476401 0.3595031
vn 0.8187649 -0.4476401 0.3595031
vn 0.8187649 -0.4476401 0.3595031
vn 0.8187649 -0.4476401 0.3595031
vn 0.8187649 -0.4476401 0.3595031
vn 0.8187649 -0.4476401 0.3595031
vn 0.8843463 0.3012494 -0.3566237
vn 0.8843463 0.3012494 -0.3566237
vn 0.8843463 0.3012494 -0.3566237
vn 0.8843463 0.3012494 -0.3566237
vn 0.8843463 0.3012494 -0.3566237
vn 0.8843463 0.3012494 -0.3566237
vn 0.8843463 0.3012494 -0.3566237
vn 0.8843463 0.3012494 -0.3566237
vn 0.8843463 0.3012494 -0.3566237
vn 0.8843463 0.3012494 -0.3566237
vn 0.8843463 0.3012494 -0.3566237
vn 0.8843463 0.3012494 -0.3566237

vt 0.5426296 0.4265431
vt 0.5020512 0.5311043
vt 0.405276 0.4191855
vt 0.405276 0.4191855
vt 0.5020512 0.5311043
vt 0.500142 0.5311881
vt 0.414948 0.5826911
vt 0.3365619 0.4835316
vt 0.4201634 0.5843861
vt 0.4201634 0.5843861
vt 0.3365619 0.4835316
vt 0.585853 0.5204591
vt 0.585853 0.5204591
vt 0.3365619 0.4835316
vt 0.5619642 0.3311229
vt 0.5619642 0.3311229
vt 0.3365619 0.4835316
vt 0.5383548 0.3071177
vt 0.5383548 0.3071177
vt 0.3365619 0.4835316
vt 0.3594589 0.3302987
vt 0.4524063 0.2499197
vt 0.4693008 0.2546276
vt 0.4359868 0.2593122
vt 0.4359868 0.2593122
vt 0.4693008 0.2546276
vt 0.4294163 0.5357796
vt 0.4294163 0.5357796
vt 0.4693008 0.2546276
vt 0.5134601 0.5675476
vt 0.4691471 0.4062493
vt 0.613998 0.3337819
vt 0.4547393 0.5248085
vt 0.4547393 0.5248085
vt 0.613998 0.3337819
vt 0.4887331 0.5302568
vt 0.4887331 0.5302568
vt 0.613998 0.3337819
vt 0.6142308 0.3337959
vt 0.4693706 0.6066544
vt 0.4563273 0.6091783
vt 0.6367599 0.3701366
vt 0.6367599 0.3701366
vt 0.4563273 0.6091783
vt 0.6429812 0.2866982
vt 0.6429812 0.2866982
vt 0.4563273 0.6091783
vt 0.5686791 0.2526764
vt 0.5686791 0.2526764
vt 0.4563273 0.6091783
vt 0.4397308 0.3317004
vt 0.4397308 0.3317004
vt 0.4563273 0.6091783
vt 0.4487368 0.5942862
vt 0.5221682 0.5330601
vt 0.5254371 0.3775547
vt 0.6006426 0.4342965
vt 0.6006426 0.4342965
vt 0.5254371 0.3775547
vt 0.5781136 0.3644695
vt 0.5283988 0.3930848
vt 0.5733079 0.2903257
vt 0.5316026 0.4272462
vt 0.5316026 0.4272462
vt 0.5733079 0.2903257
vt 0.5764558 0.4179282
vt 0.6862139 0.4416121
vt 0.6972967 0.4561317
vt 0.3732147 0.3716687
vt 0.3732147 0.3716687
vt 0.6972967 0.4561317
vt 0.3589047 0.5139397
vt 0.3589047 0.5139397
vt 0.6972967 0.4561317
vt 0.3821323 0.5333116
vt 0.3821323 0.5333116
vt 0.6972967 0.4561317
vt 0.5424992 0.5433607
vt 0.5412605 0.4440243
vt 0.5202962 0.4662087
vt 0.541335 0.4422175
vt 0.541335 0.4422175
vt 0.5202962 0.4662087
vt 0.420345 0.397653
vt 0.420345 0.397653
vt 0.5202962 0.4662087
vt 0.455177 0.4498545
vt 0.3411302 0.3728282
vt 0.6469859 0.3726792
vt 0.4954714 0.5729493
vt 0.4954714 0.5729493
vt 0.6469859 0.3726792
vt 0.5612656 0.5864071
vt 0.5612656 0.5864071
vt 0.6469859 0.3726792
vt 0.5654008 0.5853826
vt 0.5654008 0.5853826
vt 0.6469859 0.3726792
vt 0.6414351 0.4911406
vt 0.6414351 0.4911406
vt 0.6469859 0.3726792
vt 0.6539524 0.4620736
vt 0.5742671 0.3643577
vt 0.6588326 0.3510303
vt 0.5966471 0.4483271
vt 0.5966471 0.4483271
vt 0.6588326 0.3510303
vt 0.6541386 0.3661924
vt 0.6385946 0.5750727
vt 0.6336026 0.5532236
vt 0.6389112 0.5751007
vt 0.6389112 0.5751007
vt 0.6336026 0.5532236
vt 0.6566439 0.5630026
vt 0.5489627 0.4991222
vt 0.4095089 0.5131109
vt 0.4859438 0.3927495
vt 0.4859438 0.3927495
vt 0.4095089 0.5131109
vt 0.3275047 0.4122378
vt 0.3922373 0.3377028
vt 0.3893734 0.3215954
vt 0.4380218 0.446008
vt 0.4380218 0.446008
vt 0.3893734 0.3215954
vt 0.4763976 0.4882255
vt 0.4763976 0.4882255
vt 0.3893734 0.3215954
vt 0.5534797 0.3959487
vt 0.5534797 0.3959487
vt 0.3893734 0.3215954
vt 0.4714102 0.2953177

usemtl Material0
usemap Material0

usemtl Material1
usemap Material1
f 1/1/1 2/2/2 3/3/3
f 4/4/4 5/5/5 6/6/6
f 7/7/7 8/8/8 9/9/9
f 10/10/10 11/11/11 12/12/12
f 13/13/13 14/14/14 15/15/15
f 16/16/16 17/17/17 18/18/18
f 19/19/19 20/20/20 21/21/21
f 22/22/22 23/23/23 24/24/24
f 25/25/25 26/26/26 27/27/27
f 28/28/28 29/29/29 30/30/30
f 31/31/31 32/32/32 33/33/33
f 34/34/34 35/35/35 36/36/36
f 37/37/37 38/38/38 39/39/39
f 40/40/40 41/41/41 42/42/42
f 43/43/43 44/44/44 45/45/45
f 46/46/46 47/47/47 48/48/48
f 49/49/49 50/50/50 51/51/51
f 52/52/52 53/53/53 54/54/54
f 55/55/55 56/56/56 57/57/57
f 58/58/58 59/59/59 60/60/60
f 61/61/61 62/62/62 63/63/63
f 64/64/64 65/65/65 66/66/66
f 67/67/67 68/68/68 69/69/69
f 70/70/70 71/71/71 72/72/72
f 73/73/73 74/74/74 75/75/75
f 76/76/76 77/77/77 78/78/78
f 79/79/79 80/80/80 81/81/81
f 82/82/82 83/83/83 84/84/84
f 85/85/85 86/86/86 87/87/87
f 88/88/88 89/89/89 90/90/90
f 91/91/91 92/92/92 93/93/93
f 94/94/94 95/95/95 96/96/96
f 97/97/97 98/98/98 99/99/99
f 100/100/100 101/101/101 102/102/102
f 103/103/103 104/104/104 105/105/105
f 106/106/106 107/107/107 108/108/108
f 109/109/109 110/110/110 111/111/111
f 112/112/112 113/113/113 114/114/114
f 115/115/115 116/116/116 117/117/117
f 118/118/118 119/119/119 120/120/120
f 121/121/121 122/122/122 123/123/123
f 124/124/124 125/125/125 126/126/126
f 127/127/127 128/128/128 129/129/129
f 130/130/130 131/131/131 132/132/132
