g  Instance
v 4.816159 -47.12141 0.112879
v 4.835025 -47.1149 0.1374809
v 4.801687 -47.14445 0.1272416
v 3.212917 -45.27169 2.446289
v 3.052895 -45.36363 2.542752
v 4.374261 -45.65966 2.565208
v 4.374261 -45.65966 2.565208
v 3.052895 -45.36363 2.542752
v 3.230547 -45.79709 2.851312
v 4.117826 -47.13351 -0.07224447
v 4.208883 -47.51881 0.2607138
v 2.295945 -46.24467 0.6105827
v 2.295945 -46.24467 0.6105827
v 4.208883 -47.51881 0.2607138
v 2.114623 -47.57455 2.205975
v 2.114623 -47.57455 2.205975
v 4.208883 -47.51881 0.2607138
v 2.144401 -47.64756 2.257795
v 2.144401 -47.64756 2.257795
v 4.208883 -47.51881 0.2607138
v 2.258815 -47.80814 2.327726
v 2.258815 -47.80814 2.327726
v 4.208883 -47.51881 0.2607138
v 2.434412 -47.87941 2.246413
v 2.258815 -47.80814 2.327726
v 2.434412 -47.87941 2.246413
v 2.235009 -47.71717 2.371654
v 2.235009 -47.71717 2.371654
v 2.434412 -47.87941 2.246413
v 3.230547 -45.79709 2.851312
v 3.230547 -45.79709 2.851312
v 2.434412 -47.87941 2.246413
v 4.374261 -45.65966 2.565208
v 4.374261 -45.65966 2.565208
v 2.434412 -47.87941 2.246413
v 5.048997 -45.9455 2.247925
v 4.405131 -46.87849 -0.1956608
v 4.117826 -47.13351 -0.07224447
v 4.140643 -46.25227 -0.1163301
v 4.140643 -46.25227 -0.1163301
v 4.117826 -47.13351 -0.07224447
v 3.400359 -45.84764 0.1593915
v 3.400359 -45.84764 0.1593915
v 4.117826 -47.13351 -0.07224447
v 2.292325 -45.66586 0.5889619
v 2.292325 -45.66586 0.5889619
v 4.117826 -47.13351 -0.07224447
v 2.295945 -46.24467 0.6105827
v 2.292325 -45.66586 0.5889619
v 2.280735 -45.62549 0.6798732
v 3.400359 -45.84764 0.1593915
v 3.400359 -45.84764 0.1593915
v 2.280735 -45.62549 0.6798732
v 3.705802 -45.77834 0.3091764
v 3.705802 -45.77834 0.3091764
v 2.280735 -45.62549 0.6798732
v 2.831905 -45.30278 1.39415
v 2.831905 -45.30278 1.39415
v 2.280735 -45.62549 0.6798732
v 2.337407 -45.48472 0.994976
v 5.2708 -46.34479 1.072304
v 5.31182 -46.17616 1.360932
v 4.835025 -47.1149 0.1374809
v 4.835025 -47.1149 0.1374809
v 5.31182 -46.17616 1.360932
v 4.801687 -47.14445 0.1272416
v 4.801687 -47.14445 0.1272416
v 5.31182 -46.17616 1.360932
v 4.208883 -47.51881 0.2607138
v 4.208883 -47.51881 0.2607138
v 5.31182 -46.17616 1.360932
v 2.434412 -47.87941 2.246413
v 2.434412 -47.87941 2.246413
v 5.31182 -46.17616 1.360932
v 5.048997 -45.9455 2.247925
v 4.293312 -46.00106 0.2001813
v 4.99626 -46.139 0.8919596
v 4.140643 -46.25227 -0.1163301
v 4.140643 -46.25227 -0.1163301
v 4.99626 -46.139 0.8919596
v 4.405131 -46.87849 -0.1956608
v 4.405131 -46.87849 -0.1956608
v 4.99626 -46.139 0.8919596
v 4.816159 -47.12141 0.112879
v 4.816159 -47.12141 0.112879
v 4.99626 -46.139 0.8919596
v 4.835025 -47.1149 0.1374809
v 4.835025 -47.1149 0.1374809
v 4.99626 -46.139 0.8919596
v 5.2708 -46.34479 1.072304
v 5.31182 -46.17616 1.360932
v 5.2708 -46.34479 1.072304
v 4.99626 -46.139 0.8919596
v 3.230547 -45.79709 2.851312
v 3.052895 -45.36363 2.542752
v 2.235009 -47.71717 2.371654
v 2.235009 -47.71717 2.371654
v 3.052895 -45.36363 2.542752
v 2.144401 -47.64756 2.257795
v 2.144401 -47.64756 2.257795
v 3.052895 -45.36363 2.542752
v 2.114623 -47.57455 2.205975
v 2.114623 -47.57455 2.205975
v 3.052895 -45.36363 2.542752
v 2.155737 -45.67683 1.703378
v 2.831905 -45.30278 1.39415
v 2.337407 -45.48472 0.994976
v 3.212917 -45.27169 2.446289
v 3.212917 -45.27169 2.446289
v 2.337407 -45.48472 0.994976
v 3.052895 -45.36363 2.542752
v 3.052895 -45.36363 2.542752
v 2.337407 -45.48472 0.994976
v 2.155737 -45.67683 1.703378
v 2.155737 -45.67683 1.703378
v 2.337407 -45.48472 0.994976
v 2.164081 -45.66262 1.634106
v 4.816159 -47.12141 0.112879
v 4.801687 -47.14445 0.1272416
v 4.405131 -46.87849 -0.1956608
v 4.405131 -46.87849 -0.1956608
v 4.801687 -47.14445 0.1272416
v 4.117826 -47.13351 -0.07224447
v 4.117826 -47.13351 -0.07224447
v 4.801687 -47.14445 0.1272416
v 4.208883 -47.51881 0.2607138
v 2.235009 -47.71717 2.371654
v 2.144401 -47.64756 2.257795
v 2.258815 -47.80814 2.327726
v 2.155737 -45.67683 1.703378
v 2.164081 -45.66262 1.634106
v 2.114623 -47.57455 2.205975
v 2.114623 -47.57455 2.205975
v 2.164081 -45.66262 1.634106
v 2.295945 -46.24467 0.6105827
v 2.295945 -46.24467 0.6105827
v 2.164081 -45.66262 1.634106
v 2.292325 -45.66586 0.5889619
v 2.292325 -45.66586 0.5889619
v 2.164081 -45.66262 1.634106
v 2.280735 -45.62549 0.6798732
v 4.99626 -46.139 0.8919596
v 4.293312 -46.00106 0.2001813
v 5.31182 -46.17616 1.360932
v 5.31182 -46.17616 1.360932
v 4.293312 -46.00106 0.2001813
v 5.048997 -45.9455 2.247925
v 5.048997 -45.9455 2.247925
v 4.293312 -46.00106 0.2001813
v 4.374261 -45.65966 2.565208
v 4.374261 -45.65966 2.565208
v 4.293312 -46.00106 0.2001813
v 3.212917 -45.27169 2.446289
v 3.212917 -45.27169 2.446289
v 4.293312 -46.00106 0.2001813
v 2.831905 -45.30278 1.39415
v 2.831905 -45.30278 1.39415
v 4.293312 -46.00106 0.2001813
v 3.705802 -45.77834 0.3091764
v 4.140643 -46.25227 -0.1163301
v 3.400359 -45.84764 0.1593915
v 4.293312 -46.00106 0.2001813
v 4.293312 -46.00106 0.2001813
v 3.400359 -45.84764 0.1593915
v 3.705802 -45.77834 0.3091764
v 2.280735 -45.62549 0.6798732
v 2.164081 -45.66262 1.634106
v 2.337407 -45.48472 0.994976

vn 0.67928 -0.6448268 -0.3503957
vn 0.67928 -0.6448268 -0.3503957
vn 0.67928 -0.6448268 -0.3503957
vn 0.1229992 0.6084841 0.7839761
vn 0.1229992 0.6084841 0.7839761
vn 0.1229992 0.6084841 0.7839761
vn 0.1229992 0.6084841 0.7839761
vn 0.1229992 0.6084841 0.7839761
vn 0.1229992 0.6084841 0.7839761
vn -0.5223378 -0.6248794 -0.5802491
vn -0.5223378 -0.6248794 -0.5802491
vn -0.5223378 -0.6248794 -0.5802491
vn -0.5223378 -0.6248794 -0.5802491
vn -0.5223378 -0.6248794 -0.5802491
vn -0.5223378 -0.6248794 -0.5802491
vn -0.5223378 -0.6248794 -0.5802491
vn -0.5223378 -0.6248794 -0.5802491
vn -0.5223378 -0.6248794 -0.5802491
vn -0.5223378 -0.6248794 -0.5802491
vn -0.5223378 -0.6248794 -0.5802491
vn -0.5223378 -0.6248794 -0.5802491
vn -0.5223378 -0.6248794 -0.5802491
vn -0.5223378 -0.6248794 -0.5802491
vn -0.5223378 -0.6248794 -0.5802491
vn 0.2669127 -0.361548 0.8933313
vn 0.2669127 -0.361548 0.8933313
vn 0.2669127 -0.361548 0.8933313
vn 0.2669127 -0.361548 0.8933313
vn 0.2669127 -0.361548 0.8933313
vn 0.2669127 -0.361548 0.8933313
vn 0.2669127 -0.361548 0.8933313
vn 0.2669127 -0.361548 0.8933313
vn 0.2669127 -0.361548 0.8933313
vn 0.2669127 -0.361548 0.8933313
vn 0.2669127 -0.361548 0.8933313
vn 0.2669127 -0.361548 0.8933313
vn -0.366497 -0.03701976 -0.9296825
vn -0.366497 -0.03701976 -0.9296825
vn -0.366497 -0.03701976 -0.9296825
vn -0.366497 -0.03701976 -0.9296825
vn -0.366497 -0.03701976 -0.9296825
vn -0.366497 -0.03701976 -0.9296825
vn -0.366497 -0.03701976 -0.9296825
vn -0.366497 -0.03701976 -0.9296825
vn -0.366497 -0.03701976 -0.9296825
vn -0.366497 -0.03701976 -0.9296825
vn -0.366497 -0.03701976 -0.9296825
vn -0.366497 -0.03701976 -0.9296825
vn -0.007811784 0.9135248 -0.406708
vn -0.007811784 0.9135248 -0.406708
vn -0.007811784 0.9135248 -0.406708
vn -0.007811784 0.9135248 -0.406708
vn -0.007811784 0.9135248 -0.406708
vn -0.007811784 0.9135248 -0.406708
vn -0.007811784 0.9135248 -0.406708
vn -0.007811784 0.9135248 -0.406708
vn -0.007811784 0.9135248 -0.406708
vn -0.007811784 0.9135248 -0.406708
vn -0.007811784 0.9135248 -0.406708
vn -0.007811784 0.9135248 -0.406708
vn 0.5547715 -0.7503221 0.3595071
vn 0.5547715 -0.7503221 0.3595071
vn 0.5547715 -0.7503221 0.3595071
vn 0.5547715 -0.7503221 0.3595071
vn 0.5547715 -0.7503221 0.3595071
vn 0.5547715 -0.7503221 0.3595071
vn 0.5547715 -0.7503221 0.3595071
vn 0.5547715 -0.7503221 0.3595071
vn 0.5547715 -0.7503221 0.3595071
vn 0.5547715 -0.7503221 0.3595071
vn 0.5547715 -0.7503221 0.3595071
vn 0.5547715 -0.7503221 0.3595071
vn 0.5547715 -0.7503221 0.3595071
vn 0.5547715 -0.7503221 0.3595071
vn 0.5547715 -0.7503221 0.3595071
vn 0.6876079 0.369571 -0.6249902
vn 0.6876079 0.369571 -0.6249902
vn 0.6876079 0.369571 -0.6249902
vn 0.6876079 0.369571 -0.6249902
vn 0.6876079 0.369571 -0.6249902
vn 0.6876079 0.369571 -0.6249902
vn 0.6876079 0.369571 -0.6249902
vn 0.6876079 0.369571 -0.6249902
vn 0.6876079 0.369571 -0.6249902
vn 0.6876079 0.369571 -0.6249902
vn 0.6876079 0.369571 -0.6249902
vn 0.6876079 0.369571 -0.6249902
vn 0.6876079 0.369571 -0.6249902
vn 0.6876079 0.369571 -0.6249902
vn 0.6876079 0.369571 -0.6249902
vn 0.7050993 0.5640349 -0.429767
vn 0.7050993 0.5640349 -0.429767
vn 0.7050993 0.5640349 -0.429767
vn -0.7055492 0.1956623 0.6811143
vn -0.7055492 0.1956623 0.6811143
vn -0.7055492 0.1956623 0.6811143
vn -0.7055492 0.1956623 0.6811143
vn -0.7055492 0.1956623 0.6811143
vn -0.7055492 0.1956623 0.6811143
vn -0.7055492 0.1956623 0.6811143
vn -0.7055492 0.1956623 0.6811143
vn -0.7055492 0.1956623 0.6811143
vn -0.7055492 0.1956623 0.6811143
vn -0.7055492 0.1956623 0.6811143
vn -0.7055492 0.1956623 0.6811143
vn -0.4335012 0.8916361 0.1306207
vn -0.4335012 0.8916361 0.1306207
vn -0.4335012 0.8916361 0.1306207
vn -0.4335012 0.8916361 0.1306207
vn -0.4335012 0.8916361 0.1306207
vn -0.4335012 0.8916361 0.1306207
vn -0.4335012 0.8916361 0.1306207
vn -0.4335012 0.8916361 0.1306207
vn -0.4335012 0.8916361 0.1306207
vn -0.4335012 0.8916361 0.1306207
vn -0.4335012 0.8916361 0.1306207
vn -0.4335012 0.8916361 0.1306207
vn 0.212995 -0.6095299 -0.7636142
vn 0.212995 -0.6095299 -0.7636142
vn 0.212995 -0.6095299 -0.7636142
vn 0.212995 -0.6095299 -0.7636142
vn 0.212995 -0.6095299 -0.7636142
vn 0.212995 -0.6095299 -0.7636142
vn 0.212995 -0.6095299 -0.7636142
vn 0.212995 -0.6095299 -0.7636142
vn 0.212995 -0.6095299 -0.7636142
vn -0.8193058 -0.4086742 0.4021486
vn -0.8193058 -0.4086742 0.4021486
vn -0.8193058 -0.4086742 0.4021486
vn -0.9925021 -0.01074518 -0.1217546
vn -0.9925021 -0.01074518 -0.1217546
vn -0.9925021 -0.01074518 -0.1217546
vn -0.9925021 -0.01074518 -0.1217546
vn -0.9925021 -0.01074518 -0.1217546
vn -0.9925021 -0.01074518 -0.1217546
vn -0.9925021 -0.01074518 -0.1217546
vn -0.9925021 -0.01074518 -0.1217546
vn -0.9925021 -0.01074518 -0.1217546
vn -0.9925021 -0.01074518 -0.1217546
vn -0.9925021 -0.01074518 -0.1217546
vn -0.9925021 -0.01074518 -0.1217546
vn 0.3268865 0.9337239 -0.1459625
vn 0.3268865 0.9337239 -0.1459625
vn 0.3268865 0.9337239 -0.1459625
vn 0.3268865 0.9337239 -0.1459625
vn 0.3268865 0.9337239 -0.1459625
vn 0.3268865 0.9337239 -0.1459625
vn 0.3268865 0.9337239 -0.1459625
vn 0.3268865 0.9337239 -0.1459625
vn 0.3268865 0.9337239 -0.1459625
vn 0.3268865 0.9337239 -0.1459625
vn 0.3268865 0.9337239 -0.1459625
vn 0.3268865 0.9337239 -0.1459625
vn 0.3268865 0.9337239 -0.1459625
vn 0.3268865 0.9337239 -0.1459625
vn 0.3268865 0.9337239 -0.1459625
vn 0.3268865 0.9337239 -0.1459625
vn 0.3268865 0.9337239 -0.1459625
vn 0.3268865 0.9337239 -0.1459625
vn 0.1565231 0.7355149 -0.6591801
vn 0.1565231 0.7355149 -0.6591801
vn 0.1565231 0.7355149 -0.6591801
vn 0.1565231 0.7355149 -0.6591801
vn 0.1565231 0.7355149 -0.6591801
vn 0.1565231 0.7355149 -0.6591801
vn -0.846279 0.5262316 -0.08301871
vn -0.846279 0.5262316 -0.08301871
vn -0.846279 0.5262316 -0.08301871

vt 0.4572446 0.5036299
vt 0.4555869 0.5011711
vt 0.4597453 0.5021956
vt 0.4167734 0.4734452
vt 0.397178 0.4514843
vt 0.5885445 0.4463713
vt 0.5885445 0.4463713
vt 0.397178 0.4514843
vt 0.4339286 0.3812242
vt 0.4133367 0.5574984
vt 0.3791846 0.5134555
vt 0.6253696 0.467168
vt 0.6253696 0.467168
vt 0.3791846 0.5134555
vt 0.5484598 0.2561084
vt 0.5484598 0.2561084
vt 0.3791846 0.5134555
vt 0.5409532 0.2492537
vt 0.5409532 0.2492537
vt 0.3791846 0.5134555
vt 0.5203986 0.2400009
vt 0.5203986 0.2400009
vt 0.3791846 0.5134555
vt 0.5009616 0.2507579
vt 0.849114 0.3940441
vt 0.8297981 0.4293744
vt 0.842306 0.3749563
vt 0.842306 0.3749563
vt 0.8297981 0.4293744
vt 0.4632238 0.1665417
vt 0.4632238 0.1665417
vt 0.8297981 0.4293744
vt 0.2676151 0.2908566
vt 0.2676151 0.2908566
vt 0.8297981 0.4293744
vt 0.1947705 0.4287178
vt 0.5251298 0.3178933
vt 0.549624 0.3470162
vt 0.4664043 0.3447018
vt 0.4664043 0.3447018
vt 0.549624 0.3470162
vt 0.4293045 0.4197443
vt 0.4293045 0.4197443
vt 0.549624 0.3470162
vt 0.4137838 0.5320636
vt 0.4137838 0.5320636
vt 0.549624 0.3470162
vt 0.4684207 0.5316911
vt 0.3794873 0.4696547
vt 0.3784069 0.4600992
vt 0.4857668 0.5148245
vt 0.4857668 0.5148245
vt 0.3784069 0.4600992
vt 0.5151645 0.4990756
vt 0.5151645 0.4990756
vt 0.3784069 0.4600992
vt 0.4316142 0.3849961
vt 0.4316142 0.3849961
vt 0.3784069 0.4600992
vt 0.383967 0.4269668
vt 0.3585834 0.4911593
vt 0.3460523 0.4620736
vt 0.4345945 0.585364
vt 0.4345945 0.585364
vt 0.3460523 0.4620736
vt 0.4387669 0.5863978
vt 0.4387669 0.5863978
vt 0.3460523 0.4620736
vt 0.5045193 0.5729493
vt 0.5045193 0.5729493
vt 0.3460523 0.4620736
vt 0.6588605 0.3728375
vt 0.6588605 0.3728375
vt 0.3460523 0.4620736
vt 0.3530326 0.3726839
vt 0.4846446 0.474777
vt 0.5357191 0.3751612
vt 0.5013993 0.5203567
vt 0.5013993 0.5203567
vt 0.5357191 0.3751612
vt 0.5774803 0.5317842
vt 0.5774803 0.5317842
vt 0.5357191 0.3751612
vt 0.6234045 0.4873501
vt 0.6234045 0.4873501
vt 0.5357191 0.3751612
vt 0.6237677 0.483811
vt 0.6237677 0.483811
vt 0.5357191 0.3751612
vt 0.5707094 0.3491909
vt 0.578067 0.369848
vt 0.5883769 0.4009127
vt 0.5560967 0.4203218
vt 0.5769401 0.3481944
vt 0.6213183 0.3987008
vt 0.3232997 0.4267154
vt 0.3232997 0.4267154
vt 0.6213183 0.3987008
vt 0.3284407 0.4453561
vt 0.3284407 0.4453561
vt 0.6213183 0.3987008
vt 0.3359193 0.4538406
vt 0.3359193 0.4538406
vt 0.6213183 0.3987008
vt 0.5564134 0.5361056
vt 0.4908705 0.4507299
vt 0.4444667 0.4863722
vt 0.522401 0.3568046
vt 0.522401 0.3568046
vt 0.4444667 0.4863722
vt 0.5061026 0.3481897
vt 0.5061026 0.3481897
vt 0.4444667 0.4863722
vt 0.4225709 0.4231297
vt 0.4225709 0.4231297
vt 0.4444667 0.4863722
vt 0.4237863 0.4293138
vt 0.3636173 0.4476565
vt 0.3665091 0.4446297
vt 0.4054623 0.5125986
vt 0.4054623 0.5125986
vt 0.3665091 0.4446297
vt 0.4537614 0.4866236
vt 0.4537614 0.4866236
vt 0.3665091 0.4446297
vt 0.4593541 0.4165405
vt 0.4566206 0.4138443
vt 0.4664695 0.4257608
vt 0.4478009 0.4184405
vt 0.5788121 0.3919951
vt 0.5800601 0.3981653
vt 0.4110829 0.3472258
vt 0.4110829 0.3472258
vt 0.5800601 0.3981653
vt 0.5284826 0.4893338
vt 0.5284826 0.4893338
vt 0.5800601 0.3981653
vt 0.5796503 0.4912617
vt 0.5796503 0.4912617
vt 0.5800601 0.3981653
vt 0.5832359 0.4831591
vt 0.6085683 0.4669259
vt 0.5456751 0.5289623
vt 0.6360707 0.424876
vt 0.6360707 0.424876
vt 0.5456751 0.5289623
vt 0.6073017 0.3453445
vt 0.6073017 0.3453445
vt 0.5456751 0.5289623
vt 0.5424433 0.3168968
vt 0.5424433 0.3168968
vt 0.5456751 0.5289623
vt 0.4338401 0.3275606
vt 0.4338401 0.3275606
vt 0.5456751 0.5289623
vt 0.4028545 0.4219004
vt 0.4028545 0.4219004
vt 0.5456751 0.5289623
vt 0.4899578 0.5191832
vt 0.55958 0.5346155
vt 0.4652588 0.4918205
vt 0.570905 0.4854874
vt 0.570905 0.4854874
vt 0.4652588 0.4918205
vt 0.4984377 0.4685743
vt 0.5101352 0.4852732
vt 0.5019395 0.4009546
vt 0.5233043 0.4574355

usemtl Material0
usemap Material0

usemtl Material1
usemap Material1
f 1/1/1 2/2/2 3/3/3
f 4/4/4 5/5/5 6/6/6
f 7/7/7 8/8/8 9/9/9
f 10/10/10 11/11/11 12/12/12
f 13/13/13 14/14/14 15/15/15
f 16/16/16 17/17/17 18/18/18
f 19/19/19 20/20/20 21/21/21
f 22/22/22 23/23/23 24/24/24
f 25/25/25 26/26/26 27/27/27
f 28/28/28 29/29/29 30/30/30
f 31/31/31 32/32/32 33/33/33
f 34/34/34 35/35/35 36/36/36
f 37/37/37 38/38/38 39/39/39
f 40/40/40 41/41/41 42/42/42
f 43/43/43 44/44/44 45/45/45
f 46/46/46 47/47/47 48/48/48
f 49/49/49 50/50/50 51/51/51
f 52/52/52 53/53/53 54/54/54
f 55/55/55 56/56/56 57/57/57
f 58/58/58 59/59/59 60/60/60
f 61/61/61 62/62/62 63/63/63
f 64/64/64 65/65/65 66/66/66
f 67/67/67 68/68/68 69/69/69
f 70/70/70 71/71/71 72/72/72
f 73/73/73 74/74/74 75/75/75
f 76/76/76 77/77/77 78/78/78
f 79/79/79 80/80/80 81/81/81
f 82/82/82 83/83/83 84/84/84
f 85/85/85 86/86/86 87/87/87
f 88/88/88 89/89/89 90/90/90
f 91/91/91 92/92/92 93/93/93
f 94/94/94 95/95/95 96/96/96
f 97/97/97 98/98/98 99/99/99
f 100/100/100 101/101/101 102/102/102
f 103/103/103 104/104/104 105/105/105
f 106/106/106 107/107/107 108/108/108
f 109/109/109 110/110/110 111/111/111
f 112/112/112 113/113/113 114/114/114
f 115/115/115 116/116/116 117/117/117
f 118/118/118 119/119/119 120/120/120
f 121/121/121 122/122/122 123/123/123
f 124/124/124 125/125/125 126/126/126
f 127/127/127 128/128/128 129/129/129
f 130/130/130 131/131/131 132/132/132
f 133/133/133 134/134/134 135/135/135
f 136/136/136 137/137/137 138/138/138
f 139/139/139 140/140/140 141/141/141
f 142/142/142 143/143/143 144/144/144
f 145/145/145 146/146/146 147/147/147
f 148/148/148 149/149/149 150/150/150
f 151/151/151 152/152/152 153/153/153
f 154/154/154 155/155/155 156/156/156
f 157/157/157 158/158/158 159/159/159
f 160/160/160 161/161/161 162/162/162
f 163/163/163 164/164/164 165/165/165
f 166/166/166 167/167/167 168/168/168
