g  Instance
v 3.485822 -54.3637 3.98263
v 3.204549 -54.3752 2.761785
v 2.60921 -54.36827 5.448594
v 2.60921 -54.36827 5.448594
v 3.204549 -54.3752 2.761785
v 1.514478 -54.38627 5.206033
v 1.514478 -54.38627 5.206033
v 3.204549 -54.3752 2.761785
v 2.363478 -54.38955 2.488548
v 1.215565 -55.07581 5.305322
v 1.514478 -54.38627 5.206033
v 1.73351 -55.66303 2.920942
v 1.73351 -55.66303 2.920942
v 1.514478 -54.38627 5.206033
v 2.065387 -55.26715 2.351743
v 2.065387 -55.26715 2.351743
v 1.514478 -54.38627 5.206033
v 2.363478 -54.38955 2.488548
v 3.381972 -54.67786 2.805431
v 3.204549 -54.3752 2.761785
v 3.521525 -54.71412 3.31277
v 3.521525 -54.71412 3.31277
v 3.204549 -54.3752 2.761785
v 3.638344 -54.65758 3.941168
v 3.638344 -54.65758 3.941168
v 3.204549 -54.3752 2.761785
v 3.485822 -54.3637 3.98263
v 1.764437 -55.68322 2.937555
v 2.860817 -56.31413 4.434402
v 1.73351 -55.66303 2.920942
v 1.73351 -55.66303 2.920942
v 2.860817 -56.31413 4.434402
v 1.215565 -55.07581 5.305322
v 1.215565 -55.07581 5.305322
v 2.860817 -56.31413 4.434402
v 3.080737 -56.31981 6.026751
v 2.60921 -54.36827 5.448594
v 1.514478 -54.38627 5.206033
v 3.098042 -56.28469 6.022163
v 3.098042 -56.28469 6.022163
v 1.514478 -54.38627 5.206033
v 3.080737 -56.31981 6.026751
v 3.080737 -56.31981 6.026751
v 1.514478 -54.38627 5.206033
v 1.215565 -55.07581 5.305322
v 2.093544 -55.28012 2.360275
v 2.291548 -55.69368 2.813524
v 2.065387 -55.26715 2.351743
v 2.065387 -55.26715 2.351743
v 2.291548 -55.69368 2.813524
v 1.73351 -55.66303 2.920942
v 1.73351 -55.66303 2.920942
v 2.291548 -55.69368 2.813524
v 1.764437 -55.68322 2.937555
v 3.485822 -54.3637 3.98263
v 2.60921 -54.36827 5.448594
v 3.638344 -54.65758 3.941168
v 3.638344 -54.65758 3.941168
v 2.60921 -54.36827 5.448594
v 3.098042 -56.28469 6.022163
v 3.381972 -54.67786 2.805431
v 3.521525 -54.71412 3.31277
v 3.19499 -55.17691 2.721972
v 3.19499 -55.17691 2.721972
v 3.521525 -54.71412 3.31277
v 3.193518 -55.19964 2.741788
v 2.291548 -55.69368 2.813524
v 2.093544 -55.28012 2.360275
v 2.902608 -55.91102 3.260897
v 2.902608 -55.91102 3.260897
v 2.093544 -55.28012 2.360275
v 3.193518 -55.19964 2.741788
v 3.193518 -55.19964 2.741788
v 2.093544 -55.28012 2.360275
v 3.19499 -55.17691 2.721972
v 3.381972 -54.67786 2.805431
v 3.19499 -55.17691 2.721972
v 3.204549 -54.3752 2.761785
v 3.204549 -54.3752 2.761785
v 3.19499 -55.17691 2.721972
v 2.363478 -54.38955 2.488548
v 2.363478 -54.38955 2.488548
v 3.19499 -55.17691 2.721972
v 2.065387 -55.26715 2.351743
v 2.065387 -55.26715 2.351743
v 3.19499 -55.17691 2.721972
v 2.093544 -55.28012 2.360275
v 3.080737 -56.31981 6.026751
v 2.860817 -56.31413 4.434402
v 3.098042 -56.28469 6.022163
v 3.098042 -56.28469 6.022163
v 2.860817 -56.31413 4.434402
v 3.638344 -54.65758 3.941168
v 3.638344 -54.65758 3.941168
v 2.860817 -56.31413 4.434402
v 3.521525 -54.71412 3.31277
v 3.521525 -54.71412 3.31277
v 2.860817 -56.31413 4.434402
v 3.193518 -55.19964 2.741788
v 3.193518 -55.19964 2.741788
v 2.860817 -56.31413 4.434402
v 2.902608 -55.91102 3.260897
v 1.764437 -55.68322 2.937555
v 2.291548 -55.69368 2.813524
v 2.860817 -56.31413 4.434402
v 2.860817 -56.31413 4.434402
v 2.291548 -55.69368 2.813524
v 2.902608 -55.91102 3.260897

vn -0.01512694 0.999868 -0.005933017
vn -0.01512694 0.999868 -0.005933017
vn -0.01512694 0.999868 -0.005933017
vn -0.01512694 0.999868 -0.005933017
vn -0.01512694 0.999868 -0.005933017
vn -0.01512694 0.999868 -0.005933017
vn -0.01512694 0.999868 -0.005933017
vn -0.01512694 0.999868 -0.005933017
vn -0.01512694 0.999868 -0.005933017
vn -0.8948607 0.347603 -0.2799935
vn -0.8948607 0.347603 -0.2799935
vn -0.8948607 0.347603 -0.2799935
vn -0.8948607 0.347603 -0.2799935
vn -0.8948607 0.347603 -0.2799935
vn -0.8948607 0.347603 -0.2799935
vn -0.8948607 0.347603 -0.2799935
vn -0.8948607 0.347603 -0.2799935
vn -0.8948607 0.347603 -0.2799935
vn 0.8573416 0.4734634 -0.2019845
vn 0.8573416 0.4734634 -0.2019845
vn 0.8573416 0.4734634 -0.2019845
vn 0.8573416 0.4734634 -0.2019845
vn 0.8573416 0.4734634 -0.2019845
vn 0.8573416 0.4734634 -0.2019845
vn 0.8573416 0.4734634 -0.2019845
vn 0.8573416 0.4734634 -0.2019845
vn 0.8573416 0.4734634 -0.2019845
vn -0.5735123 -0.8156366 0.07629457
vn -0.5735123 -0.8156366 0.07629457
vn -0.5735123 -0.8156366 0.07629457
vn -0.5735123 -0.8156366 0.07629457
vn -0.5735123 -0.8156366 0.07629457
vn -0.5735123 -0.8156366 0.07629457
vn -0.5735123 -0.8156366 0.07629457
vn -0.5735123 -0.8156366 0.07629457
vn -0.5735123 -0.8156366 0.07629457
vn -0.2141436 0.2295346 0.9494506
vn -0.2141436 0.2295346 0.9494506
vn -0.2141436 0.2295346 0.9494506
vn -0.2141436 0.2295346 0.9494506
vn -0.2141436 0.2295346 0.9494506
vn -0.2141436 0.2295346 0.9494506
vn -0.2141436 0.2295346 0.9494506
vn -0.2141436 0.2295346 0.9494506
vn -0.2141436 0.2295346 0.9494506
vn -0.162314 -0.7631953 -0.6254495
vn -0.162314 -0.7631953 -0.6254495
vn -0.162314 -0.7631953 -0.6254495
vn -0.162314 -0.7631953 -0.6254495
vn -0.162314 -0.7631953 -0.6254495
vn -0.162314 -0.7631953 -0.6254495
vn -0.162314 -0.7631953 -0.6254495
vn -0.162314 -0.7631953 -0.6254495
vn -0.162314 -0.7631953 -0.6254495
vn 0.8037553 0.3491951 0.4817054
vn 0.8037553 0.3491951 0.4817054
vn 0.8037553 0.3491951 0.4817054
vn 0.8037553 0.3491951 0.4817054
vn 0.8037553 0.3491951 0.4817054
vn 0.8037553 0.3491951 0.4817054
vn 0.9149855 -0.2971769 -0.2729242
vn 0.9149855 -0.2971769 -0.2729242
vn 0.9149855 -0.2971769 -0.2729242
vn 0.9149855 -0.2971769 -0.2729242
vn 0.9149855 -0.2971769 -0.2729242
vn 0.9149855 -0.2971769 -0.2729242
vn 0.2933858 -0.6389073 -0.7111415
vn 0.2933858 -0.6389073 -0.7111415
vn 0.2933858 -0.6389073 -0.7111415
vn 0.2933858 -0.6389073 -0.7111415
vn 0.2933858 -0.6389073 -0.7111415
vn 0.2933858 -0.6389073 -0.7111415
vn 0.2933858 -0.6389073 -0.7111415
vn 0.2933858 -0.6389073 -0.7111415
vn 0.2933858 -0.6389073 -0.7111415
vn 0.3080244 0.04351726 -0.9503826
vn 0.3080244 0.04351726 -0.9503826
vn 0.3080244 0.04351726 -0.9503826
vn 0.3080244 0.04351726 -0.9503826
vn 0.3080244 0.04351726 -0.9503826
vn 0.3080244 0.04351726 -0.9503826
vn 0.3080244 0.04351726 -0.9503826
vn 0.3080244 0.04351726 -0.9503826
vn 0.3080244 0.04351726 -0.9503826
vn 0.3080244 0.04351726 -0.9503826
vn 0.3080244 0.04351726 -0.9503826
vn 0.3080244 0.04351726 -0.9503826
vn 0.8836305 -0.451564 -0.1236413
vn 0.8836305 -0.451564 -0.1236413
vn 0.8836305 -0.451564 -0.1236413
vn 0.8836305 -0.451564 -0.1236413
vn 0.8836305 -0.451564 -0.1236413
vn 0.8836305 -0.451564 -0.1236413
vn 0.8836305 -0.451564 -0.1236413
vn 0.8836305 -0.451564 -0.1236413
vn 0.8836305 -0.451564 -0.1236413
vn 0.8836305 -0.451564 -0.1236413
vn 0.8836305 -0.451564 -0.1236413
vn 0.8836305 -0.451564 -0.1236413
vn 0.8836305 -0.451564 -0.1236413
vn 0.8836305 -0.451564 -0.1236413
vn 0.8836305 -0.451564 -0.1236413
vn -0.09551849 -0.9403884 -0.3264137
vn -0.09551849 -0.9403884 -0.3264137
vn -0.09551849 -0.9403884 -0.3264137
vn -0.09551849 -0.9403884 -0.3264137
vn -0.09551849 -0.9403884 -0.3264137
vn -0.09551849 -0.9403884 -0.3264137

vt 0.5963305 0.4889147
vt 0.5716407 0.5960557
vt 0.5194114 0.3602691
vt 0.5194114 0.3602691
vt 0.5716407 0.5960557
vt 0.4233346 0.3815548
vt 0.4233346 0.3815548
vt 0.5716407 0.5960557
vt 0.4978183 0.6200284
vt 0.4427251 0.3469277
vt 0.5113739 0.3563808
vt 0.4098349 0.5739644
vt 0.4098349 0.5739644
vt 0.5113739 0.3563808
vt 0.4545531 0.6281589
vt 0.4545531 0.6281589
vt 0.5113739 0.3563808
vt 0.539193 0.6151295
vt 0.5282964 0.5752311
vt 0.4968823 0.5792265
vt 0.5371906 0.5288132
vt 0.5371906 0.5288132
vt 0.4968823 0.5792265
vt 0.5378146 0.4713311
vt 0.5378146 0.4713311
vt 0.4968823 0.5792265
vt 0.5081608 0.4675312
vt 0.503858 0.587832
vt 0.392987 0.4557033
vt 0.5071084 0.5892943
vt 0.5071084 0.5892943
vt 0.392987 0.4557033
vt 0.5741274 0.378826
vt 0.5741274 0.378826
vt 0.392987 0.4557033
vt 0.3768702 0.3151505
vt 0.5230343 0.4052108
vt 0.5265827 0.505893
vt 0.3435796 0.3602505
vt 0.3435796 0.3602505
vt 0.5265827 0.505893
vt 0.340413 0.3618431
vt 0.340413 0.3618431
vt 0.5265827 0.505893
vt 0.4642715 0.5333861
vt 0.5234255 0.5983282
vt 0.4919742 0.5330042
vt 0.5268248 0.5995576
vt 0.5268248 0.5995576
vt 0.4919742 0.5330042
vt 0.5540757 0.5175254
vt 0.5540757 0.5175254
vt 0.4919742 0.5330042
vt 0.5502014 0.5151319
vt 0.4977531 0.5469836
vt 0.4631959 0.379464
vt 0.5308295 0.5517148
vt 0.5308295 0.5517148
vt 0.4631959 0.379464
vt 0.6587021 0.3139258
vt 0.4562388 0.5705185
vt 0.4554518 0.5224149
vt 0.5047987 0.5784255
vt 0.5047987 0.5784255
vt 0.4554518 0.5224149
vt 0.5068104 0.5765442
vt 0.5551095 0.5285152
vt 0.5560222 0.6089827
vt 0.4971152 0.4490815
vt 0.4971152 0.4490815
vt 0.5560222 0.6089827
vt 0.4270646 0.5412372
vt 0.4270646 0.5412372
vt 0.5560222 0.6089827
vt 0.4257142 0.5447577
vt 0.4901767 0.4056765
vt 0.5365201 0.423805
vt 0.4624787 0.4228783
vt 0.4624787 0.4228783
vt 0.5365201 0.423805
vt 0.4649514 0.5044215
vt 0.4649514 0.5044215
vt 0.5365201 0.423805
vt 0.5463829 0.5333116
vt 0.5463829 0.5333116
vt 0.5365201 0.423805
vt 0.547547 0.5305828
vt 0.587222 0.2958532
vt 0.5956227 0.4377564
vt 0.5837668 0.296263
vt 0.5837668 0.296263
vt 0.5956227 0.4377564
vt 0.433896 0.4817062
vt 0.433896 0.4817062
vt 0.5956227 0.4377564
vt 0.443051 0.5377075
vt 0.443051 0.5377075
vt 0.5956227 0.4377564
vt 0.4944841 0.5885957
vt 0.4944841 0.5885957
vt 0.5956227 0.4377564
vt 0.5622063 0.5423362
vt 0.5505739 0.5541735
vt 0.5017905 0.5663554
vt 0.443391 0.4071573
vt 0.443391 0.4071573
vt 0.5017905 0.5663554
vt 0.4433118 0.5224149

usemtl Material0
usemap Material0

usemtl Material1
usemap Material1
f 1/1/1 2/2/2 3/3/3
f 4/4/4 5/5/5 6/6/6
f 7/7/7 8/8/8 9/9/9
f 10/10/10 11/11/11 12/12/12
f 13/13/13 14/14/14 15/15/15
f 16/16/16 17/17/17 18/18/18
f 19/19/19 20/20/20 21/21/21
f 22/22/22 23/23/23 24/24/24
f 25/25/25 26/26/26 27/27/27
f 28/28/28 29/29/29 30/30/30
f 31/31/31 32/32/32 33/33/33
f 34/34/34 35/35/35 36/36/36
f 37/37/37 38/38/38 39/39/39
f 40/40/40 41/41/41 42/42/42
f 43/43/43 44/44/44 45/45/45
f 46/46/46 47/47/47 48/48/48
f 49/49/49 50/50/50 51/51/51
f 52/52/52 53/53/53 54/54/54
f 55/55/55 56/56/56 57/57/57
f 58/58/58 59/59/59 60/60/60
f 61/61/61 62/62/62 63/63/63
f 64/64/64 65/65/65 66/66/66
f 67/67/67 68/68/68 69/69/69
f 70/70/70 71/71/71 72/72/72
f 73/73/73 74/74/74 75/75/75
f 76/76/76 77/77/77 78/78/78
f 79/79/79 80/80/80 81/81/81
f 82/82/82 83/83/83 84/84/84
f 85/85/85 86/86/86 87/87/87
f 88/88/88 89/89/89 90/90/90
f 91/91/91 92/92/92 93/93/93
f 94/94/94 95/95/95 96/96/96
f 97/97/97 98/98/98 99/99/99
f 100/100/100 101/101/101 102/102/102
f 103/103/103 104/104/104 105/105/105
f 106/106/106 107/107/107 108/108/108
