g  Instance
v 4.735536 -50.43371 2.387434
v 5.517025 -49.55406 1.953819
v 5.738213 -50.21608 1.984476
v 4.735536 -50.43371 2.387434
v 5.738213 -50.21608 1.984476
v 4.045573 -50.91637 2.95044
v 4.045573 -50.91637 2.95044
v 5.738213 -50.21608 1.984476
v 4.107661 -50.99175 3.00175
v 4.107661 -50.99175 3.00175
v 5.738213 -50.21608 1.984476
v 5.858562 -50.40745 2.122774
v 4.637093 -48.30049 3.818045
v 5.48431 -48.00133 3.309522
v 5.472863 -48.08889 2.907203
v 5.472863 -48.08889 2.907203
v 5.48431 -48.00133 3.309522
v 5.509624 -48.04823 3.020767
v 4.472411 -49.82111 5.373187
v 4.54576 -49.9357 5.341493
v 5.628132 -48.43389 3.704497
v 5.628132 -48.43389 3.704497
v 4.54576 -49.9357 5.341493
v 6.091235 -49.7235 3.711735
v 3.884517 -50.64546 4.297486
v 4.54576 -49.9357 5.341493
v 4.271556 -49.70594 5.308434
v 4.271556 -49.70594 5.308434
v 4.54576 -49.9357 5.341493
v 4.472411 -49.82111 5.373187
v 6.159285 -49.87104 3.198575
v 6.091235 -49.7235 3.711735
v 5.858562 -50.40745 2.122774
v 5.858562 -50.40745 2.122774
v 6.091235 -49.7235 3.711735
v 4.107661 -50.99175 3.00175
v 4.107661 -50.99175 3.00175
v 6.091235 -49.7235 3.711735
v 3.740523 -50.90049 3.787484
v 3.740523 -50.90049 3.787484
v 6.091235 -49.7235 3.711735
v 3.884517 -50.64546 4.297486
v 3.884517 -50.64546 4.297486
v 6.091235 -49.7235 3.711735
v 4.54576 -49.9357 5.341493
v 4.637093 -48.30049 3.818045
v 4.353675 -48.47601 4.063283
v 5.48431 -48.00133 3.309522
v 5.48431 -48.00133 3.309522
v 4.353675 -48.47601 4.063283
v 5.628132 -48.43389 3.704497
v 5.628132 -48.43389 3.704497
v 4.353675 -48.47601 4.063283
v 4.472411 -49.82111 5.373187
v 4.472411 -49.82111 5.373187
v 4.353675 -48.47601 4.063283
v 4.271556 -49.70594 5.308434
v 4.045573 -50.91637 2.95044
v 3.716028 -50.76805 3.451679
v 4.735536 -50.43371 2.387434
v 4.735536 -50.43371 2.387434
v 3.716028 -50.76805 3.451679
v 5.517025 -49.55406 1.953819
v 5.517025 -49.55406 1.953819
v 3.716028 -50.76805 3.451679
v 5.472863 -48.08889 2.907203
v 5.472863 -48.08889 2.907203
v 3.716028 -50.76805 3.451679
v 4.637093 -48.30049 3.818045
v 4.637093 -48.30049 3.818045
v 3.716028 -50.76805 3.451679
v 4.353675 -48.47601 4.063283
v 3.716028 -50.76805 3.451679
v 4.045573 -50.91637 2.95044
v 3.740523 -50.90049 3.787484
v 3.740523 -50.90049 3.787484
v 4.045573 -50.91637 2.95044
v 4.107661 -50.99175 3.00175
v 6.091235 -49.7235 3.711735
v 6.159285 -49.87104 3.198575
v 5.628132 -48.43389 3.704497
v 5.628132 -48.43389 3.704497
v 6.159285 -49.87104 3.198575
v 5.48431 -48.00133 3.309522
v 5.48431 -48.00133 3.309522
v 6.159285 -49.87104 3.198575
v 5.509624 -48.04823 3.020767
v 3.740523 -50.90049 3.787484
v 3.884517 -50.64546 4.297486
v 3.716028 -50.76805 3.451679
v 3.716028 -50.76805 3.451679
v 3.884517 -50.64546 4.297486
v 4.353675 -48.47601 4.063283
v 4.353675 -48.47601 4.063283
v 3.884517 -50.64546 4.297486
v 4.271556 -49.70594 5.308434
v 5.509624 -48.04823 3.020767
v 6.159285 -49.87104 3.198575
v 5.472863 -48.08889 2.907203
v 5.472863 -48.08889 2.907203
v 6.159285 -49.87104 3.198575
v 5.517025 -49.55406 1.953819
v 5.517025 -49.55406 1.953819
v 6.159285 -49.87104 3.198575
v 5.738213 -50.21608 1.984476
v 5.738213 -50.21608 1.984476
v 6.159285 -49.87104 3.198575
v 5.858562 -50.40745 2.122774

vn -0.3389421 -0.1562054 -0.927749
vn -0.3389421 -0.1562054 -0.927749
vn -0.3389421 -0.1562054 -0.927749
vn -0.1614535 -0.6427438 -0.7488747
vn -0.1614535 -0.6427438 -0.7488747
vn -0.1614535 -0.6427438 -0.7488747
vn -0.1614535 -0.6427438 -0.7488747
vn -0.1614535 -0.6427438 -0.7488747
vn -0.1614535 -0.6427438 -0.7488747
vn -0.1614535 -0.6427438 -0.7488747
vn -0.1614535 -0.6427438 -0.7488747
vn -0.1614535 -0.6427438 -0.7488747
vn -0.422404 0.8880946 -0.1812811
vn -0.422404 0.8880946 -0.1812811
vn -0.422404 0.8880946 -0.1812811
vn -0.422404 0.8880946 -0.1812811
vn -0.422404 0.8880946 -0.1812811
vn -0.422404 0.8880946 -0.1812811
vn 0.6860666 0.2502007 0.6831635
vn 0.6860666 0.2502007 0.6831635
vn 0.6860666 0.2502007 0.6831635
vn 0.6860666 0.2502007 0.6831635
vn 0.6860666 0.2502007 0.6831635
vn 0.6860666 0.2502007 0.6831635
vn -0.5170885 -0.5192053 0.6804745
vn -0.5170885 -0.5192053 0.6804745
vn -0.5170885 -0.5192053 0.6804745
vn -0.5170885 -0.5192053 0.6804745
vn -0.5170885 -0.5192053 0.6804745
vn -0.5170885 -0.5192053 0.6804745
vn 0.4346158 -0.848599 0.3016436
vn 0.4346158 -0.848599 0.3016436
vn 0.4346158 -0.848599 0.3016436
vn 0.4346158 -0.848599 0.3016436
vn 0.4346158 -0.848599 0.3016436
vn 0.4346158 -0.848599 0.3016436
vn 0.4346158 -0.848599 0.3016436
vn 0.4346158 -0.848599 0.3016436
vn 0.4346158 -0.848599 0.3016436
vn 0.4346158 -0.848599 0.3016436
vn 0.4346158 -0.848599 0.3016436
vn 0.4346158 -0.848599 0.3016436
vn 0.4346158 -0.848599 0.3016436
vn 0.4346158 -0.848599 0.3016436
vn 0.4346158 -0.848599 0.3016436
vn 0.1734918 0.6949052 0.6978591
vn 0.1734918 0.6949052 0.6978591
vn 0.1734918 0.6949052 0.6978591
vn 0.1734918 0.6949052 0.6978591
vn 0.1734918 0.6949052 0.6978591
vn 0.1734918 0.6949052 0.6978591
vn 0.1734918 0.6949052 0.6978591
vn 0.1734918 0.6949052 0.6978591
vn 0.1734918 0.6949052 0.6978591
vn 0.1734918 0.6949052 0.6978591
vn 0.1734918 0.6949052 0.6978591
vn 0.1734918 0.6949052 0.6978591
vn -0.7278406 0.3584633 -0.5845957
vn -0.7278406 0.3584633 -0.5845957
vn -0.7278406 0.3584633 -0.5845957
vn -0.7278406 0.3584633 -0.5845957
vn -0.7278406 0.3584633 -0.5845957
vn -0.7278406 0.3584633 -0.5845957
vn -0.7278406 0.3584633 -0.5845957
vn -0.7278406 0.3584633 -0.5845957
vn -0.7278406 0.3584633 -0.5845957
vn -0.7278406 0.3584633 -0.5845957
vn -0.7278406 0.3584633 -0.5845957
vn -0.7278406 0.3584633 -0.5845957
vn -0.7278406 0.3584633 -0.5845957
vn -0.7278406 0.3584633 -0.5845957
vn -0.7278406 0.3584633 -0.5845957
vn -0.668422 -0.7072558 -0.2302198
vn -0.668422 -0.7072558 -0.2302198
vn -0.668422 -0.7072558 -0.2302198
vn -0.668422 -0.7072558 -0.2302198
vn -0.668422 -0.7072558 -0.2302198
vn -0.668422 -0.7072558 -0.2302198
vn 0.9407499 0.3379785 0.02757362
vn 0.9407499 0.3379785 0.02757362
vn 0.9407499 0.3379785 0.02757362
vn 0.9407499 0.3379785 0.02757362
vn 0.9407499 0.3379785 0.02757362
vn 0.9407499 0.3379785 0.02757362
vn 0.9407499 0.3379785 0.02757362
vn 0.9407499 0.3379785 0.02757362
vn 0.9407499 0.3379785 0.02757362
vn -0.9613091 0.225031 0.1588904
vn -0.9613091 0.225031 0.1588904
vn -0.9613091 0.225031 0.1588904
vn -0.9613091 0.225031 0.1588904
vn -0.9613091 0.225031 0.1588904
vn -0.9613091 0.225031 0.1588904
vn -0.9613091 0.225031 0.1588904
vn -0.9613091 0.225031 0.1588904
vn -0.9613091 0.225031 0.1588904
vn 0.8809189 0.2764905 -0.3841025
vn 0.8809189 0.2764905 -0.3841025
vn 0.8809189 0.2764905 -0.3841025
vn 0.8809189 0.2764905 -0.3841025
vn 0.8809189 0.2764905 -0.3841025
vn 0.8809189 0.2764905 -0.3841025
vn 0.8809189 0.2764905 -0.3841025
vn 0.8809189 0.2764905 -0.3841025
vn 0.8809189 0.2764905 -0.3841025
vn 0.8809189 0.2764905 -0.3841025
vn 0.8809189 0.2764905 -0.3841025
vn 0.8809189 0.2764905 -0.3841025

vt 0.5686232 0.4376959
vt 0.4809984 0.3602179
vt 0.5423688 0.3382896
vt 0.5222985 0.4482805
vt 0.4005541 0.5287946
vt 0.595334 0.3357843
vt 0.595334 0.3357843
vt 0.4005541 0.5287946
vt 0.5849216 0.3255303
vt 0.5849216 0.3255303
vt 0.4005541 0.5287946
vt 0.3789192 0.5011618
vt 0.5042958 0.4030082
vt 0.5840275 0.4491466
vt 0.5797527 0.4856551
vt 0.5797527 0.4856551
vt 0.5840275 0.4491466
vt 0.5842697 0.4753452
vt 0.510098 0.2259191
vt 0.5260518 0.2311346
vt 0.401071 0.5005006
vt 0.401071 0.5005006
vt 0.5260518 0.2311346
vt 0.5657268 0.4993178
vt 0.5091294 0.5213998
vt 0.5130038 0.3507835
vt 0.555687 0.3561852
vt 0.555687 0.3561852
vt 0.5130038 0.3507835
vt 0.528911 0.3456052
vt 0.4332767 0.5005751
vt 0.432662 0.4510373
vt 0.4804163 0.6044285
vt 0.4804163 0.6044285
vt 0.432662 0.4510373
vt 0.6483736 0.5195743
vt 0.6483736 0.5195743
vt 0.432662 0.4510373
vt 0.674628 0.4437216
vt 0.674628 0.4437216
vt 0.432662 0.4510373
vt 0.6521269 0.3944911
vt 0.6521269 0.3944911
vt 0.432662 0.4510373
vt 0.5681762 0.2937065
vt 0.404177 0.5116208
vt 0.3756967 0.4696733
vt 0.4960069 0.5986076
vt 0.4960069 0.5986076
vt 0.3756967 0.4696733
vt 0.5259401 0.5310391
vt 0.5259401 0.5310391
vt 0.3756967 0.4696733
vt 0.4297329 0.2455983
vt 0.4297329 0.2455983
vt 0.3756967 0.4696733
vt 0.4024401 0.2566765
vt 0.3085147 0.4774872
vt 0.3071596 0.4106685
vt 0.3883303 0.552553
vt 0.3883303 0.552553
vt 0.3071596 0.4106685
vt 0.51102 0.6103611
vt 0.51102 0.6103611
vt 0.3071596 0.4106685
vt 0.6510838 0.4832615
vt 0.6510838 0.4832615
vt 0.3071596 0.4106685
vt 0.5906028 0.3618384
vt 0.5906028 0.3618384
vt 0.3071596 0.4106685
vt 0.560027 0.3291439
vt 0.5143635 0.4162704
vt 0.4835828 0.4627162
vt 0.5045658 0.3851545
vt 0.5045658 0.3851545
vt 0.4835828 0.4627162
vt 0.4748469 0.4579664
vt 0.5476775 0.4351719
vt 0.5618896 0.4802347
vt 0.427386 0.4358006
vt 0.427386 0.4358006
vt 0.5618896 0.4802347
vt 0.387385 0.4704929
vt 0.387385 0.4704929
vt 0.5618896 0.4802347
vt 0.3920091 0.4958532
vt 0.3490512 0.4413467
vt 0.374039 0.3954364
vt 0.3600177 0.4715826
vt 0.3600177 0.4715826
vt 0.374039 0.3954364
vt 0.5713055 0.4165219
vt 0.5713055 0.4165219
vt 0.374039 0.3954364
vt 0.4631912 0.3044308
vt 0.3799669 0.4655102
vt 0.5637617 0.4472094
vt 0.3826119 0.4771985
vt 0.3826119 0.4771985
vt 0.5637617 0.4472094
vt 0.5167291 0.5753428
vt 0.5167291 0.5753428
vt 0.5637617 0.4472094
vt 0.583059 0.5721856
vt 0.583059 0.5721856
vt 0.5637617 0.4472094
vt 0.6038371 0.5579454

usemtl Material0
usemap Material0

usemtl Material1
usemap Material1
f 1/1/1 2/2/2 3/3/3
f 4/4/4 5/5/5 6/6/6
f 7/7/7 8/8/8 9/9/9
f 10/10/10 11/11/11 12/12/12
f 13/13/13 14/14/14 15/15/15
f 16/16/16 17/17/17 18/18/18
f 19/19/19 20/20/20 21/21/21
f 22/22/22 23/23/23 24/24/24
f 25/25/25 26/26/26 27/27/27
f 28/28/28 29/29/29 30/30/30
f 31/31/31 32/32/32 33/33/33
f 34/34/34 35/35/35 36/36/36
f 37/37/37 38/38/38 39/39/39
f 40/40/40 41/41/41 42/42/42
f 43/43/43 44/44/44 45/45/45
f 46/46/46 47/47/47 48/48/48
f 49/49/49 50/50/50 51/51/51
f 52/52/52 53/53/53 54/54/54
f 55/55/55 56/56/56 57/57/57
f 58/58/58 59/59/59 60/60/60
f 61/61/61 62/62/62 63/63/63
f 64/64/64 65/65/65 66/66/66
f 67/67/67 68/68/68 69/69/69
f 70/70/70 71/71/71 72/72/72
f 73/73/73 74/74/74 75/75/75
f 76/76/76 77/77/77 78/78/78
f 79/79/79 80/80/80 81/81/81
f 82/82/82 83/83/83 84/84/84
f 85/85/85 86/86/86 87/87/87
f 88/88/88 89/89/89 90/90/90
f 91/91/91 92/92/92 93/93/93
f 94/94/94 95/95/95 96/96/96
f 97/97/97 98/98/98 99/99/99
f 100/100/100 101/101/101 102/102/102
f 103/103/103 104/104/104 105/105/105
f 106/106/106 107/107/107 108/108/108
