g  Instance
v 0.9100982 -53.5091 2.071706
v 0.779323 -53.33889 2.195169
v 0.9032868 -53.50696 2.068851
v 0.9032868 -53.50696 2.068851
v 0.779323 -53.33889 2.195169
v 0.8474379 -53.46308 2.081782
v 2.313892 -52.57939 -0.6984557
v 2.853142 -52.58485 0.5189481
v 2.277553 -52.70019 -0.6192323
v 2.277553 -52.70019 -0.6192323
v 2.853142 -52.58485 0.5189481
v 2.547994 -53.25074 0.7203346
v 1.61935 -50.56783 1.717281
v 1.219131 -51.08845 2.010177
v 2.130364 -51.05045 1.249726
v 2.130364 -51.05045 1.249726
v 1.219131 -51.08845 2.010177
v 2.853142 -52.58485 0.5189481
v 2.853142 -52.58485 0.5189481
v 1.219131 -51.08845 2.010177
v 2.547994 -53.25074 0.7203346
v 2.547994 -53.25074 0.7203346
v 1.219131 -51.08845 2.010177
v 0.9100982 -53.5091 2.071706
v 0.9100982 -53.5091 2.071706
v 1.219131 -51.08845 2.010177
v 0.779323 -53.33889 2.195169
v 0.779323 -53.33889 2.195169
v 1.219131 -51.08845 2.010177
v 0.4646879 -52.71929 2.509343
v 1.241656 -50.3696 1.492433
v 1.223987 -50.37351 1.516719
v 1.248029 -50.36684 1.518168
v 1.248029 -50.36684 1.518168
v 1.223987 -50.37351 1.516719
v 1.227099 -50.37258 1.51869
v 1.248029 -50.36684 1.518168
v 1.227099 -50.37258 1.51869
v 1.61935 -50.56783 1.717281
v 1.61935 -50.56783 1.717281
v 1.227099 -50.37258 1.51869
v 1.219131 -51.08845 2.010177
v 0.7021425 -52.6821 -0.02184403
v 0.5255583 -52.26048 -0.1814039
v 2.277553 -52.70019 -0.6192323
v 2.277553 -52.70019 -0.6192323
v 0.5255583 -52.26048 -0.1814039
v 2.313892 -52.57939 -0.6984557
v 2.313892 -52.57939 -0.6984557
v 0.5255583 -52.26048 -0.1814039
v 2.296988 -52.55785 -0.703567
v 2.296988 -52.55785 -0.703567
v 0.5255583 -52.26048 -0.1814039
v 0.8525585 -52.05099 -0.4205259
v 0.9032868 -53.50696 2.068851
v 0.8474379 -53.46308 2.081782
v 0.8388553 -53.3649 1.720982
v 1.547474 -51.14147 -0.2162382
v 1.546994 -50.99063 0.01604503
v 2.296988 -52.55785 -0.703567
v 2.296988 -52.55785 -0.703567
v 1.546994 -50.99063 0.01604503
v 2.313892 -52.57939 -0.6984557
v 2.313892 -52.57939 -0.6984557
v 1.546994 -50.99063 0.01604503
v 2.853142 -52.58485 0.5189481
v 2.853142 -52.58485 0.5189481
v 1.546994 -50.99063 0.01604503
v 2.130364 -51.05045 1.249726
v 0.8525585 -52.05099 -0.4205259
v 0.5255583 -52.26048 -0.1814039
v 1.547474 -51.14147 -0.2162382
v 1.547474 -51.14147 -0.2162382
v 0.5255583 -52.26048 -0.1814039
v 1.546994 -50.99063 0.01604503
v 1.546994 -50.99063 0.01604503
v 0.5255583 -52.26048 -0.1814039
v 1.241656 -50.3696 1.492433
v 1.241656 -50.3696 1.492433
v 0.5255583 -52.26048 -0.1814039
v 1.223987 -50.37351 1.516719
v 1.223987 -50.37351 1.516719
v 0.5255583 -52.26048 -0.1814039
v 0.09122428 -51.67222 1.465825
v 0.8388553 -53.3649 1.720982
v 0.7021425 -52.6821 -0.02184403
v 0.9032868 -53.50696 2.068851
v 0.9032868 -53.50696 2.068851
v 0.7021425 -52.6821 -0.02184403
v 0.9100982 -53.5091 2.071706
v 0.9100982 -53.5091 2.071706
v 0.7021425 -52.6821 -0.02184403
v 2.547994 -53.25074 0.7203346
v 2.547994 -53.25074 0.7203346
v 0.7021425 -52.6821 -0.02184403
v 2.277553 -52.70019 -0.6192323
v 2.296988 -52.55785 -0.703567
v 0.8525585 -52.05099 -0.4205259
v 1.547474 -51.14147 -0.2162382
v 2.130364 -51.05045 1.249726
v 1.546994 -50.99063 0.01604503
v 1.61935 -50.56783 1.717281
v 1.61935 -50.56783 1.717281
v 1.546994 -50.99063 0.01604503
v 1.248029 -50.36684 1.518168
v 1.248029 -50.36684 1.518168
v 1.546994 -50.99063 0.01604503
v 1.241656 -50.3696 1.492433
v 1.223987 -50.37351 1.516719
v 0.09122428 -51.67222 1.465825
v 1.227099 -50.37258 1.51869
v 1.227099 -50.37258 1.51869
v 0.09122428 -51.67222 1.465825
v 1.219131 -51.08845 2.010177
v 1.219131 -51.08845 2.010177
v 0.09122428 -51.67222 1.465825
v 0.4646879 -52.71929 2.509343
v 0.779323 -53.33889 2.195169
v 0.4646879 -52.71929 2.509343
v 0.8474379 -53.46308 2.081782
v 0.8474379 -53.46308 2.081782
v 0.4646879 -52.71929 2.509343
v 0.8388553 -53.3649 1.720982
v 0.8388553 -53.3649 1.720982
v 0.4646879 -52.71929 2.509343
v 0.7021425 -52.6821 -0.02184403
v 0.7021425 -52.6821 -0.02184403
v 0.4646879 -52.71929 2.509343
v 0.5255583 -52.26048 -0.1814039
v 0.5255583 -52.26048 -0.1814039
v 0.4646879 -52.71929 2.509343
v 0.09122428 -51.67222 1.465825

vn -0.447644 -0.7242992 0.5244098
vn -0.447644 -0.7242992 0.5244098
vn -0.447644 -0.7242992 0.5244098
vn -0.447644 -0.7242992 0.5244098
vn -0.447644 -0.7242992 0.5244098
vn -0.447644 -0.7242992 0.5244098
vn 0.8031532 -0.4762948 -0.3578945
vn 0.8031532 -0.4762948 -0.3578945
vn 0.8031532 -0.4762948 -0.3578945
vn 0.8031532 -0.4762948 -0.3578945
vn 0.8031532 -0.4762948 -0.3578945
vn 0.8031532 -0.4762948 -0.3578945
vn 0.6410105 -0.06238986 0.7649923
vn 0.6410105 -0.06238986 0.7649923
vn 0.6410105 -0.06238986 0.7649923
vn 0.6410105 -0.06238986 0.7649923
vn 0.6410105 -0.06238986 0.7649923
vn 0.6410105 -0.06238986 0.7649923
vn 0.6410105 -0.06238986 0.7649923
vn 0.6410105 -0.06238986 0.7649923
vn 0.6410105 -0.06238986 0.7649923
vn 0.6410105 -0.06238986 0.7649923
vn 0.6410105 -0.06238986 0.7649923
vn 0.6410105 -0.06238986 0.7649923
vn 0.6410105 -0.06238986 0.7649923
vn 0.6410105 -0.06238986 0.7649923
vn 0.6410105 -0.06238986 0.7649923
vn 0.6410105 -0.06238986 0.7649923
vn 0.6410105 -0.06238986 0.7649923
vn 0.6410105 -0.06238986 0.7649923
vn -0.2648768 0.9635546 -0.03745665
vn -0.2648768 0.9635546 -0.03745665
vn -0.2648768 0.9635546 -0.03745665
vn -0.2648768 0.9635546 -0.03745665
vn -0.2648768 0.9635546 -0.03745665
vn -0.2648768 0.9635546 -0.03745665
vn -0.1335759 0.5619425 0.8163199
vn -0.1335759 0.5619425 0.8163199
vn -0.1335759 0.5619425 0.8163199
vn -0.1335759 0.5619425 0.8163199
vn -0.1335759 0.5619425 0.8163199
vn -0.1335759 0.5619425 0.8163199
vn -0.3211612 -0.4498911 -0.8333389
vn -0.3211612 -0.4498911 -0.8333389
vn -0.3211612 -0.4498911 -0.8333389
vn -0.3211612 -0.4498911 -0.8333389
vn -0.3211612 -0.4498911 -0.8333389
vn -0.3211612 -0.4498911 -0.8333389
vn -0.3211612 -0.4498911 -0.8333389
vn -0.3211612 -0.4498911 -0.8333389
vn -0.3211612 -0.4498911 -0.8333389
vn -0.3211612 -0.4498911 -0.8333389
vn -0.3211612 -0.4498911 -0.8333389
vn -0.3211612 -0.4498911 -0.8333389
vn -0.6333521 -0.7503977 -0.1891256
vn -0.6333521 -0.7503977 -0.1891256
vn -0.6333521 -0.7503977 -0.1891256
vn 0.7769436 0.5287454 -0.3417412
vn 0.7769436 0.5287454 -0.3417412
vn 0.7769436 0.5287454 -0.3417412
vn 0.7769436 0.5287454 -0.3417412
vn 0.7769436 0.5287454 -0.3417412
vn 0.7769436 0.5287454 -0.3417412
vn 0.7769436 0.5287454 -0.3417412
vn 0.7769436 0.5287454 -0.3417412
vn 0.7769436 0.5287454 -0.3417412
vn 0.7769436 0.5287454 -0.3417412
vn 0.7769436 0.5287454 -0.3417412
vn 0.7769436 0.5287454 -0.3417412
vn -0.6833613 0.611659 -0.398611
vn -0.6833613 0.611659 -0.398611
vn -0.6833613 0.611659 -0.398611
vn -0.6833613 0.611659 -0.398611
vn -0.6833613 0.611659 -0.398611
vn -0.6833613 0.611659 -0.398611
vn -0.6833613 0.611659 -0.398611
vn -0.6833613 0.611659 -0.398611
vn -0.6833613 0.611659 -0.398611
vn -0.6833613 0.611659 -0.398611
vn -0.6833613 0.611659 -0.398611
vn -0.6833613 0.611659 -0.398611
vn -0.6833613 0.611659 -0.398611
vn -0.6833613 0.611659 -0.398611
vn -0.6833613 0.611659 -0.398611
vn -0.1438006 -0.9251946 -0.3511928
vn -0.1438006 -0.9251946 -0.3511928
vn -0.1438006 -0.9251946 -0.3511928
vn -0.1438006 -0.9251946 -0.3511928
vn -0.1438006 -0.9251946 -0.3511928
vn -0.1438006 -0.9251946 -0.3511928
vn -0.1438006 -0.9251946 -0.3511928
vn -0.1438006 -0.9251946 -0.3511928
vn -0.1438006 -0.9251946 -0.3511928
vn -0.1438006 -0.9251946 -0.3511928
vn -0.1438006 -0.9251946 -0.3511928
vn -0.1438006 -0.9251946 -0.3511928
vn -0.08823795 0.2820099 -0.9553453
vn -0.08823795 0.2820099 -0.9553453
vn -0.08823795 0.2820099 -0.9553453
vn 0.5537486 0.8022794 -0.222958
vn 0.5537486 0.8022794 -0.222958
vn 0.5537486 0.8022794 -0.222958
vn 0.5537486 0.8022794 -0.222958
vn 0.5537486 0.8022794 -0.222958
vn 0.5537486 0.8022794 -0.222958
vn 0.5537486 0.8022794 -0.222958
vn 0.5537486 0.8022794 -0.222958
vn 0.5537486 0.8022794 -0.222958
vn -0.5689246 0.4697908 0.6749974
vn -0.5689246 0.4697908 0.6749974
vn -0.5689246 0.4697908 0.6749974
vn -0.5689246 0.4697908 0.6749974
vn -0.5689246 0.4697908 0.6749974
vn -0.5689246 0.4697908 0.6749974
vn -0.5689246 0.4697908 0.6749974
vn -0.5689246 0.4697908 0.6749974
vn -0.5689246 0.4697908 0.6749974
vn -0.9057998 -0.4138074 -0.09104992
vn -0.9057998 -0.4138074 -0.09104992
vn -0.9057998 -0.4138074 -0.09104992
vn -0.9057998 -0.4138074 -0.09104992
vn -0.9057998 -0.4138074 -0.09104992
vn -0.9057998 -0.4138074 -0.09104992
vn -0.9057998 -0.4138074 -0.09104992
vn -0.9057998 -0.4138074 -0.09104992
vn -0.9057998 -0.4138074 -0.09104992
vn -0.9057998 -0.4138074 -0.09104992
vn -0.9057998 -0.4138074 -0.09104992
vn -0.9057998 -0.4138074 -0.09104992
vn -0.9057998 -0.4138074 -0.09104992
vn -0.9057998 -0.4138074 -0.09104992
vn -0.9057998 -0.4138074 -0.09104992

vt 0.4782556 0.4199166
vt 0.4989452 0.4049733
vt 0.4789681 0.4202659
vt 0.4789681 0.4202659
vt 0.4989452 0.4049733
vt 0.4862418 0.4187012
vt 0.4919416 0.555049
vt 0.4665347 0.4325269
vt 0.5034482 0.5470768
vt 0.5034482 0.5470768
vt 0.4665347 0.4325269
vt 0.5349926 0.412261
vt 0.2788656 0.3720273
vt 0.354751 0.3100608
vt 0.3375725 0.4709399
vt 0.3375725 0.4709399
vt 0.354751 0.3100608
vt 0.5361196 0.6255512
vt 0.5361196 0.6255512
vt 0.354751 0.3100608
vt 0.6304454 0.5829425
vt 0.6304454 0.5829425
vt 0.354751 0.3100608
vt 0.6871079 0.2970453
vt 0.6871079 0.2970453
vt 0.354751 0.3100608
vt 0.6657524 0.270926
vt 0.6657524 0.270926
vt 0.354751 0.3100608
vt 0.5858809 0.2044564
vt 0.5220377 0.3877017
vt 0.5204545 0.3855643
vt 0.5226431 0.3854385
vt 0.5226431 0.3854385
vt 0.5204545 0.3855643
vt 0.5207339 0.385392
vt 0.5295164 0.6174393
vt 0.5262194 0.6172996
vt 0.5773405 0.5650702
vt 0.5773405 0.5650702
vt 0.5262194 0.6172996
vt 0.4998952 0.48803
vt 0.5547091 0.413197
vt 0.6164194 0.4590188
vt 0.3494843 0.5847679
vt 0.3494843 0.5847679
vt 0.6164194 0.4590188
vt 0.3559338 0.6075205
vt 0.3559338 0.6075205
vt 0.6164194 0.4590188
vt 0.3601062 0.608992
vt 0.3601062 0.608992
vt 0.6164194 0.4590188
vt 0.5934899 0.5276956
vt 0.4632238 0.3197187
vt 0.4695662 0.3185406
vt 0.4758108 0.3513795
vt 0.4229714 0.5231041
vt 0.4113018 0.5000256
vt 0.571678 0.5715337
vt 0.571678 0.5715337
vt 0.4113018 0.5000256
vt 0.5742299 0.5710214
vt 0.5742299 0.5710214
vt 0.4113018 0.5000256
vt 0.6029896 0.4500594
vt 0.6029896 0.4500594
vt 0.4113018 0.5000256
vt 0.4465668 0.3774523
vt 0.4694824 0.5402873
vt 0.4336771 0.5153368
vt 0.5786723 0.518969
vt 0.5786723 0.518969
vt 0.4336771 0.5153368
vt 0.5893921 0.4947356
vt 0.5893921 0.4947356
vt 0.4336771 0.5153368
vt 0.6141843 0.3407064
vt 0.6141843 0.3407064
vt 0.4336771 0.5153368
vt 0.6127779 0.3381732
vt 0.6127779 0.3381732
vt 0.4336771 0.5153368
vt 0.4478987 0.3434818
vt 0.5424247 0.3319984
vt 0.5649165 0.5064611
vt 0.5344152 0.2971757
vt 0.5344152 0.2971757
vt 0.5649165 0.5064611
vt 0.533754 0.2968917
vt 0.533754 0.2968917
vt 0.5649165 0.5064611
vt 0.3857924 0.4321591
vt 0.3857924 0.4321591
vt 0.5649165 0.5064611
vt 0.4187618 0.5662529
vt 0.5719761 0.3610654
vt 0.5220936 0.4888123
vt 0.4401546 0.4273534
vt 0.4901441 0.3888146
vt 0.4438613 0.5027358
vt 0.4276048 0.3456378
vt 0.4276048 0.3456378
vt 0.4438613 0.5027358
vt 0.3898205 0.3640317
vt 0.3898205 0.3640317
vt 0.4438613 0.5027358
vt 0.3894898 0.3664066
vt 0.6466972 0.500007
vt 0.4418124 0.508212
vt 0.6470138 0.4996903
vt 0.6470138 0.4996903
vt 0.4418124 0.508212
vt 0.5807679 0.4204614
vt 0.5807679 0.4204614
vt 0.4418124 0.508212
vt 0.3740716 0.3399986
vt 0.4331882 0.3230389
vt 0.4943677 0.2952339
vt 0.4207362 0.3330694
vt 0.4207362 0.3330694
vt 0.4943677 0.2952339
vt 0.4289227 0.3649957
vt 0.4289227 0.3649957
vt 0.4943677 0.2952339
vt 0.4886493 0.5192111
vt 0.4886493 0.5192111
vt 0.4943677 0.2952339
vt 0.528911 0.5333302
vt 0.528911 0.5333302
vt 0.4943677 0.2952339
vt 0.5919625 0.387576

usemtl Material0
usemap Material0

usemtl Material1
usemap Material1
f 1/1/1 2/2/2 3/3/3
f 4/4/4 5/5/5 6/6/6
f 7/7/7 8/8/8 9/9/9
f 10/10/10 11/11/11 12/12/12
f 13/13/13 14/14/14 15/15/15
f 16/16/16 17/17/17 18/18/18
f 19/19/19 20/20/20 21/21/21
f 22/22/22 23/23/23 24/24/24
f 25/25/25 26/26/26 27/27/27
f 28/28/28 29/29/29 30/30/30
f 31/31/31 32/32/32 33/33/33
f 34/34/34 35/35/35 36/36/36
f 37/37/37 38/38/38 39/39/39
f 40/40/40 41/41/41 42/42/42
f 43/43/43 44/44/44 45/45/45
f 46/46/46 47/47/47 48/48/48
f 49/49/49 50/50/50 51/51/51
f 52/52/52 53/53/53 54/54/54
f 55/55/55 56/56/56 57/57/57
f 58/58/58 59/59/59 60/60/60
f 61/61/61 62/62/62 63/63/63
f 64/64/64 65/65/65 66/66/66
f 67/67/67 68/68/68 69/69/69
f 70/70/70 71/71/71 72/72/72
f 73/73/73 74/74/74 75/75/75
f 76/76/76 77/77/77 78/78/78
f 79/79/79 80/80/80 81/81/81
f 82/82/82 83/83/83 84/84/84
f 85/85/85 86/86/86 87/87/87
f 88/88/88 89/89/89 90/90/90
f 91/91/91 92/92/92 93/93/93
f 94/94/94 95/95/95 96/96/96
f 97/97/97 98/98/98 99/99/99
f 100/100/100 101/101/101 102/102/102
f 103/103/103 104/104/104 105/105/105
f 106/106/106 107/107/107 108/108/108
f 109/109/109 110/110/110 111/111/111
f 112/112/112 113/113/113 114/114/114
f 115/115/115 116/116/116 117/117/117
f 118/118/118 119/119/119 120/120/120
f 121/121/121 122/122/122 123/123/123
f 124/124/124 125/125/125 126/126/126
f 127/127/127 128/128/128 129/129/129
f 130/130/130 131/131/131 132/132/132
