g  Instance
v 3.248403 -44.63607 8.887239
v 3.080412 -44.37936 8.782021
v 3.100209 -44.54509 8.87836
v 4.184445 -42.62394 6.804162
v 4.21049 -42.61138 6.776744
v 4.219486 -42.62173 6.782876
v 1.829317 -45.12 5.927555
v 1.7436 -45.01976 6.145043
v 1.965637 -45.24281 5.616468
v 1.965637 -45.24281 5.616468
v 1.7436 -45.01976 6.145043
v 2.896975 -43.68679 5.768666
v 2.896975 -43.68679 5.768666
v 1.7436 -45.01976 6.145043
v 2.074463 -44.09944 6.548614
v 4.098806 -43.92624 5.597198
v 4.107254 -43.7442 5.626066
v 4.179494 -43.9059 5.607511
v 2.24527 -45.22516 5.588582
v 4.098806 -43.92624 5.597198
v 4.698324 -45.25016 6.078757
v 4.698324 -45.25016 6.078757
v 4.098806 -43.92624 5.597198
v 4.727479 -44.61788 5.910929
v 4.727479 -44.61788 5.910929
v 4.098806 -43.92624 5.597198
v 4.179494 -43.9059 5.607511
v 2.858687 -44.79507 8.445841
v 3.100209 -44.54509 8.87836
v 1.7436 -45.01976 6.145043
v 1.7436 -45.01976 6.145043
v 3.100209 -44.54509 8.87836
v 2.074463 -44.09944 6.548614
v 2.074463 -44.09944 6.548614
v 3.100209 -44.54509 8.87836
v 2.895457 -43.27082 8.025766
v 2.895457 -43.27082 8.025766
v 3.100209 -44.54509 8.87836
v 3.080412 -44.37936 8.782021
v 4.211242 -42.61049 6.778766
v 4.219486 -42.62173 6.782876
v 4.21049 -42.61138 6.776744
v 4.107254 -43.7442 5.626066
v 3.835737 -43.05119 5.769386
v 4.179494 -43.9059 5.607511
v 4.179494 -43.9059 5.607511
v 3.835737 -43.05119 5.769386
v 4.727479 -44.61788 5.910929
v 4.727479 -44.61788 5.910929
v 3.835737 -43.05119 5.769386
v 4.369667 -42.82646 6.857742
v 4.369667 -42.82646 6.857742
v 3.835737 -43.05119 5.769386
v 4.211242 -42.61049 6.778766
v 3.824801 -45.03491 8.874556
v 3.248403 -44.63607 8.887239
v 3.839796 -45.08549 8.832025
v 3.839796 -45.08549 8.832025
v 3.248403 -44.63607 8.887239
v 2.858687 -44.79507 8.445841
v 2.858687 -44.79507 8.445841
v 3.248403 -44.63607 8.887239
v 3.100209 -44.54509 8.87836
v 2.858687 -44.79507 8.445841
v 1.7436 -45.01976 6.145043
v 3.839796 -45.08549 8.832025
v 3.839796 -45.08549 8.832025
v 1.7436 -45.01976 6.145043
v 4.45173 -45.89897 6.950691
v 4.45173 -45.89897 6.950691
v 1.7436 -45.01976 6.145043
v 1.976484 -45.27547 5.60993
v 1.976484 -45.27547 5.60993
v 1.7436 -45.01976 6.145043
v 1.975162 -45.27485 5.610177
v 1.975162 -45.27485 5.610177
v 1.7436 -45.01976 6.145043
v 1.829317 -45.12 5.927555
v 3.839796 -45.08549 8.832025
v 4.45173 -45.89897 6.950691
v 3.824801 -45.03491 8.874556
v 3.824801 -45.03491 8.874556
v 4.45173 -45.89897 6.950691
v 4.369667 -42.82646 6.857742
v 4.369667 -42.82646 6.857742
v 4.45173 -45.89897 6.950691
v 4.727479 -44.61788 5.910929
v 4.727479 -44.61788 5.910929
v 4.45173 -45.89897 6.950691
v 4.698324 -45.25016 6.078757
v 3.835737 -43.05119 5.769386
v 4.107254 -43.7442 5.626066
v 2.896975 -43.68679 5.768666
v 2.896975 -43.68679 5.768666
v 4.107254 -43.7442 5.626066
v 1.965637 -45.24281 5.616468
v 1.965637 -45.24281 5.616468
v 4.107254 -43.7442 5.626066
v 1.975162 -45.27485 5.610177
v 1.975162 -45.27485 5.610177
v 4.107254 -43.7442 5.626066
v 1.976484 -45.27547 5.60993
v 1.976484 -45.27547 5.60993
v 4.107254 -43.7442 5.626066
v 2.24527 -45.22516 5.588582
v 2.24527 -45.22516 5.588582
v 4.107254 -43.7442 5.626066
v 4.098806 -43.92624 5.597198
v 1.829317 -45.12 5.927555
v 1.965637 -45.24281 5.616468
v 1.975162 -45.27485 5.610177
v 4.45173 -45.89897 6.950691
v 1.976484 -45.27547 5.60993
v 4.698324 -45.25016 6.078757
v 4.698324 -45.25016 6.078757
v 1.976484 -45.27547 5.60993
v 2.24527 -45.22516 5.588582
v 4.211242 -42.61049 6.778766
v 4.184445 -42.62394 6.804162
v 4.219486 -42.62173 6.782876
v 2.895457 -43.27082 8.025766
v 3.080412 -44.37936 8.782021
v 4.211242 -42.61049 6.778766
v 4.211242 -42.61049 6.778766
v 3.080412 -44.37936 8.782021
v 4.369667 -42.82646 6.857742
v 4.369667 -42.82646 6.857742
v 3.080412 -44.37936 8.782021
v 3.824801 -45.03491 8.874556
v 3.824801 -45.03491 8.874556
v 3.080412 -44.37936 8.782021
v 3.248403 -44.63607 8.887239
v 4.211242 -42.61049 6.778766
v 4.21049 -42.61138 6.776744
v 4.184445 -42.62394 6.804162
v 4.211242 -42.61049 6.778766
v 3.835737 -43.05119 5.769386
v 2.895457 -43.27082 8.025766
v 2.895457 -43.27082 8.025766
v 3.835737 -43.05119 5.769386
v 2.074463 -44.09944 6.548614
v 2.074463 -44.09944 6.548614
v 3.835737 -43.05119 5.769386
v 2.896975 -43.68679 5.768666

vn 0.2628237 0.5081682 0.820176
vn 0.2628237 0.5081682 0.820176
vn 0.2628237 0.5081682 0.820176
vn -0.3421707 -0.6815097 -0.6467733
vn -0.3427418 -0.6816287 -0.6463544
vn -0.3428189 -0.6816448 -0.6462979
vn -0.7184479 0.4793236 -0.5040651
vn -0.7184479 0.4793236 -0.5040651
vn -0.7184479 0.4793236 -0.5040651
vn -0.7184479 0.4793236 -0.5040651
vn -0.7184479 0.4793236 -0.5040651
vn -0.7184479 0.4793236 -0.5040651
vn -0.7184479 0.4793236 -0.5040651
vn -0.7184479 0.4793236 -0.5040651
vn -0.7184479 0.4793236 -0.5040651
vn 0.08750234 0.1520614 -0.9844901
vn 0.08750234 0.1520614 -0.9844901
vn 0.08750234 0.1520614 -0.9844901
vn 0.1866571 -0.2600716 -0.9473763
vn 0.1866571 -0.2600716 -0.9473763
vn 0.1866571 -0.2600716 -0.9473763
vn 0.1866571 -0.2600716 -0.9473763
vn 0.1866571 -0.2600716 -0.9473763
vn 0.1866571 -0.2600716 -0.9473763
vn 0.1866571 -0.2600716 -0.9473763
vn 0.1866571 -0.2600716 -0.9473763
vn 0.1866571 -0.2600716 -0.9473763
vn -0.896525 0.1376686 0.4210588
vn -0.896525 0.1376686 0.4210588
vn -0.896525 0.1376686 0.4210588
vn -0.896525 0.1376686 0.4210588
vn -0.896525 0.1376686 0.4210588
vn -0.896525 0.1376686 0.4210588
vn -0.896525 0.1376686 0.4210588
vn -0.896525 0.1376686 0.4210588
vn -0.896525 0.1376686 0.4210588
vn -0.896525 0.1376686 0.4210588
vn -0.896525 0.1376686 0.4210588
vn -0.896525 0.1376686 0.4210588
vn 0.7852218 0.4045878 -0.4687596
vn 0.7852218 0.4045878 -0.4687596
vn 0.7852218 0.4045878 -0.4687596
vn 0.7852218 0.4045878 -0.4687596
vn 0.7852218 0.4045878 -0.4687596
vn 0.7852218 0.4045878 -0.4687596
vn 0.7852218 0.4045878 -0.4687596
vn 0.7852218 0.4045878 -0.4687596
vn 0.7852218 0.4045878 -0.4687596
vn 0.7852218 0.4045878 -0.4687596
vn 0.7852218 0.4045878 -0.4687596
vn 0.7852218 0.4045878 -0.4687596
vn 0.7852218 0.4045878 -0.4687596
vn 0.7852218 0.4045878 -0.4687596
vn 0.7852218 0.4045878 -0.4687596
vn -0.4369793 -0.6512569 0.620414
vn -0.4369793 -0.6512569 0.620414
vn -0.4369793 -0.6512569 0.620414
vn -0.4369793 -0.6512569 0.620414
vn -0.4369793 -0.6512569 0.620414
vn -0.4369793 -0.6512569 0.620414
vn -0.4369793 -0.6512569 0.620414
vn -0.4369793 -0.6512569 0.620414
vn -0.4369793 -0.6512569 0.620414
vn -0.3682545 -0.8910116 0.2654941
vn -0.3682545 -0.8910116 0.2654941
vn -0.3682545 -0.8910116 0.2654941
vn -0.3682545 -0.8910116 0.2654941
vn -0.3682545 -0.8910116 0.2654941
vn -0.3682545 -0.8910116 0.2654941
vn -0.3682545 -0.8910116 0.2654941
vn -0.3682545 -0.8910116 0.2654941
vn -0.3682545 -0.8910116 0.2654941
vn -0.3682545 -0.8910116 0.2654941
vn -0.3682545 -0.8910116 0.2654941
vn -0.3682545 -0.8910116 0.2654941
vn -0.3682545 -0.8910116 0.2654941
vn -0.3682545 -0.8910116 0.2654941
vn -0.3682545 -0.8910116 0.2654941
vn 0.9546816 0.03443912 0.29563
vn 0.9546816 0.03443912 0.29563
vn 0.9546816 0.03443912 0.29563
vn 0.9546816 0.03443912 0.29563
vn 0.9546816 0.03443912 0.29563
vn 0.9546816 0.03443912 0.29563
vn 0.9546816 0.03443912 0.29563
vn 0.9546816 0.03443912 0.29563
vn 0.9546816 0.03443912 0.29563
vn 0.9546816 0.03443912 0.29563
vn 0.9546816 0.03443912 0.29563
vn 0.9546816 0.03443912 0.29563
vn -0.1079848 0.1606001 -0.9810948
vn -0.1079848 0.1606001 -0.9810948
vn -0.1079848 0.1606001 -0.9810948
vn -0.1079848 0.1606001 -0.9810948
vn -0.1079848 0.1606001 -0.9810948
vn -0.1079848 0.1606001 -0.9810948
vn -0.1079848 0.1606001 -0.9810948
vn -0.1079848 0.1606001 -0.9810948
vn -0.1079848 0.1606001 -0.9810948
vn -0.1079848 0.1606001 -0.9810948
vn -0.1079848 0.1606001 -0.9810948
vn -0.1079848 0.1606001 -0.9810948
vn -0.1079848 0.1606001 -0.9810948
vn -0.1079848 0.1606001 -0.9810948
vn -0.1079848 0.1606001 -0.9810948
vn -0.1079848 0.1606001 -0.9810948
vn -0.1079848 0.1606001 -0.9810948
vn -0.1079848 0.1606001 -0.9810948
vn -0.9231499 -0.2114723 -0.3210509
vn -0.9231499 -0.2114723 -0.3210509
vn -0.9231499 -0.2114723 -0.3210509
vn 0.1064348 -0.8118804 -0.57404
vn 0.1064348 -0.8118804 -0.57404
vn 0.1064348 -0.8118804 -0.57404
vn 0.1064348 -0.8118804 -0.57404
vn 0.1064348 -0.8118804 -0.57404
vn 0.1064348 -0.8118804 -0.57404
vn 0.40382 0.5605923 0.7229562
vn 0.40382 0.5605923 0.7229562
vn 0.40382 0.5605923 0.7229562
vn 0.40382 0.5605923 0.7229562
vn 0.40382 0.5605923 0.7229562
vn 0.40382 0.5605923 0.7229562
vn 0.40382 0.5605923 0.7229562
vn 0.40382 0.5605923 0.7229562
vn 0.40382 0.5605923 0.7229562
vn 0.40382 0.5605923 0.7229562
vn 0.40382 0.5605923 0.7229562
vn 0.40382 0.5605923 0.7229562
vn 0.40382 0.5605923 0.7229562
vn 0.40382 0.5605923 0.7229562
vn 0.40382 0.5605923 0.7229562
vn -0.5541188 0.8185856 -0.1512289
vn -0.5541188 0.8185856 -0.1512289
vn -0.5541188 0.8185856 -0.1512289
vn -0.5541188 0.8185856 -0.1512289
vn -0.5541188 0.8185856 -0.1512289
vn -0.5541188 0.8185856 -0.1512289
vn -0.5541188 0.8185856 -0.1512289
vn -0.5541188 0.8185856 -0.1512289
vn -0.5541188 0.8185856 -0.1512289
vn -0.5541188 0.8185856 -0.1512289
vn -0.5541188 0.8185856 -0.1512289
vn -0.5541188 0.8185856 -0.1512289

vt 0.9098377 0.1439764
vt 0.9098902 0.1440586
vt 0.9098831 0.1440067
vt 0.4731959 0.7925231
vt 0.4731986 0.792511
vt 0.473194 0.7925105
vt 0.3186198 0.5093297
vt 0.3222566 0.4837458
vt 0.3159282 0.5459312
vt 0.3159282 0.5459312
vt 0.3222566 0.4837458
vt 0.4999557 0.5280309
vt 0.4999557 0.5280309
vt 0.3222566 0.4837458
vt 0.4187012 0.4362662
vt 0.506382 0.4041537
vt 0.4901441 0.4034087
vt 0.5044727 0.3970197
vt 0.5604647 0.5849077
vt 0.4487741 0.4163869
vt 0.5742019 0.3618804
vt 0.5742019 0.3618804
vt 0.4487741 0.4163869
vt 0.5157698 0.3592307
vt 0.5157698 0.3592307
vt 0.4487741 0.4163869
vt 0.4472653 0.4090526
vt 0.4233905 0.3524552
vt 0.4508417 0.3063214
vt 0.3855317 0.5978625
vt 0.3855317 0.5978625
vt 0.4508417 0.3063214
vt 0.4783953 0.5548161
vt 0.4783953 0.5548161
vt 0.4508417 0.3063214
vt 0.5696849 0.3972619
vt 0.5696849 0.3972619
vt 0.4508417 0.3063214
vt 0.4663997 0.3165941
vt 0.4010524 0.4161959
vt 0.4024214 0.4157349
vt 0.4010943 0.4164241
vt 0.4964399 0.5458381
vt 0.4228829 0.5297166
vt 0.5140096 0.5479243
vt 0.5140096 0.5479243
vt 0.4228829 0.5297166
vt 0.6018161 0.5138001
vt 0.6018161 0.5138001
vt 0.4228829 0.5297166
vt 0.4273347 0.4073156
vt 0.4273347 0.4073156
vt 0.4228829 0.5297166
vt 0.4010524 0.4161959
vt 0.4118187 0.3350439
vt 0.4902326 0.3332371
vt 0.4072737 0.3411115
vt 0.4072737 0.3411115
vt 0.4902326 0.3332371
vt 0.5165336 0.3962094
vt 0.5165336 0.3962094
vt 0.4902326 0.3332371
vt 0.5096696 0.334499
vt 0.530187 0.3523295
vt 0.616168 0.5695406
vt 0.4375608 0.3158723
vt 0.4375608 0.3158723
vt 0.616168 0.5695406
vt 0.3578058 0.4934783
vt 0.3578058 0.4934783
vt 0.616168 0.5695406
vt 0.587697 0.6200656
vt 0.587697 0.6200656
vt 0.616168 0.5695406
vt 0.5878274 0.6200377
vt 0.5878274 0.6200377
vt 0.616168 0.5695406
vt 0.6054763 0.5900673
vt 0.5921581 0.3048313
vt 0.6688631 0.4857296
vt 0.5874642 0.3007427
vt 0.5874642 0.3007427
vt 0.6688631 0.4857296
vt 0.3865468 0.4946704
vt 0.3865468 0.4946704
vt 0.6688631 0.4857296
vt 0.5521851 0.5857086
vt 0.5521851 0.5857086
vt 0.6688631 0.4857296
vt 0.6101236 0.5695685
vt 0.4289599 0.4005401
vt 0.4913688 0.3764325
vt 0.4843372 0.4838948
vt 0.4843372 0.4838948
vt 0.4913688 0.3764325
vt 0.6220447 0.5665883
vt 0.6220447 0.5665883
vt 0.4913688 0.3764325
vt 0.6249319 0.5657408
vt 0.6249319 0.5657408
vt 0.4913688 0.3764325
vt 0.6249877 0.5656196
vt 0.6249877 0.5656196
vt 0.4913688 0.3764325
vt 0.6209085 0.5417588
vt 0.6209085 0.5417588
vt 0.4913688 0.3764325
vt 0.5076393 0.3771822
vt 0.4420126 0.4961792
vt 0.4280984 0.5266153
vt 0.4250064 0.52723
vt 0.4248154 0.3441943
vt 0.679145 0.5196768
vt 0.3895737 0.4583203
vt 0.3895737 0.4583203
vt 0.679145 0.5196768
vt 0.6498824 0.5224708
vt 0.4624368 0.6252345
vt 0.4606719 0.6205686
vt 0.4641225 0.6244802
vt 0.3758551 0.3959906
vt 0.4772171 0.2569606
vt 0.4624368 0.6252345
vt 0.4624368 0.6252345
vt 0.4772171 0.2569606
vt 0.4947961 0.610715
vt 0.4947961 0.610715
vt 0.4772171 0.2569606
vt 0.6025891 0.2399544
vt 0.6025891 0.2399544
vt 0.4772171 0.2569606
vt 0.5135812 0.2376167
vt 0.6255466 0.4657617
vt 0.6254441 0.465948
vt 0.6229109 0.4634799
vt 0.6255466 0.4657617
vt 0.5760087 0.5564181
vt 0.4959556 0.3537777
vt 0.4959556 0.3537777
vt 0.5760087 0.5564181
vt 0.3943654 0.4864374
vt 0.3943654 0.4864374
vt 0.5760087 0.5564181
vt 0.4753684 0.5564833

usemtl Material0
usemap Material0
f 1/1/1 2/2/2 3/3/3
f 4/4/4 5/5/5 6/6/6

usemtl Material1
usemap Material1
f 7/7/7 8/8/8 9/9/9
f 10/10/10 11/11/11 12/12/12
f 13/13/13 14/14/14 15/15/15
f 16/16/16 17/17/17 18/18/18
f 19/19/19 20/20/20 21/21/21
f 22/22/22 23/23/23 24/24/24
f 25/25/25 26/26/26 27/27/27
f 28/28/28 29/29/29 30/30/30
f 31/31/31 32/32/32 33/33/33
f 34/34/34 35/35/35 36/36/36
f 37/37/37 38/38/38 39/39/39
f 40/40/40 41/41/41 42/42/42
f 43/43/43 44/44/44 45/45/45
f 46/46/46 47/47/47 48/48/48
f 49/49/49 50/50/50 51/51/51
f 52/52/52 53/53/53 54/54/54
f 55/55/55 56/56/56 57/57/57
f 58/58/58 59/59/59 60/60/60
f 61/61/61 62/62/62 63/63/63
f 64/64/64 65/65/65 66/66/66
f 67/67/67 68/68/68 69/69/69
f 70/70/70 71/71/71 72/72/72
f 73/73/73 74/74/74 75/75/75
f 76/76/76 77/77/77 78/78/78
f 79/79/79 80/80/80 81/81/81
f 82/82/82 83/83/83 84/84/84
f 85/85/85 86/86/86 87/87/87
f 88/88/88 89/89/89 90/90/90
f 91/91/91 92/92/92 93/93/93
f 94/94/94 95/95/95 96/96/96
f 97/97/97 98/98/98 99/99/99
f 100/100/100 101/101/101 102/102/102
f 103/103/103 104/104/104 105/105/105
f 106/106/106 107/107/107 108/108/108
f 109/109/109 110/110/110 111/111/111
f 112/112/112 113/113/113 114/114/114
f 115/115/115 116/116/116 117/117/117
f 118/118/118 119/119/119 120/120/120
f 121/121/121 122/122/122 123/123/123
f 124/124/124 125/125/125 126/126/126
f 127/127/127 128/128/128 129/129/129
f 130/130/130 131/131/131 132/132/132
f 133/133/133 134/134/134 135/135/135
f 136/136/136 137/137/137 138/138/138
f 139/139/139 140/140/140 141/141/141
f 142/142/142 143/143/143 144/144/144
