g  Instance
v 3.845016 -56.13026 1.013835
v 4.924585 -55.47153 -0.07736808
v 4.404948 -57.89619 1.014128
v 4.404948 -57.89619 1.014128
v 4.924585 -55.47153 -0.07736808
v 5.658816 -56.99895 -0.2887567
v 5.658816 -56.99895 -0.2887567
v 4.924585 -55.47153 -0.07736808
v 5.291447 -55.68549 -0.3305552
v 4.860946 -57.11766 2.93864
v 4.925545 -57.35308 2.911211
v 5.714168 -56.0561 2.729669
v 5.714168 -56.0561 2.729669
v 4.925545 -57.35308 2.911211
v 6.178069 -56.38874 2.582607
v 4.404948 -57.89619 1.014128
v 5.658816 -56.99895 -0.2887567
v 4.925545 -57.35308 2.911211
v 4.925545 -57.35308 2.911211
v 5.658816 -56.99895 -0.2887567
v 6.178069 -56.38874 2.582607
v 6.178069 -56.38874 2.582607
v 5.658816 -56.99895 -0.2887567
v 6.514403 -56.15385 2.150465
v 6.514403 -56.15385 2.150465
v 5.658816 -56.99895 -0.2887567
v 6.388566 -56.40216 0.01924759
v 6.388566 -56.40216 0.01924759
v 5.658816 -56.99895 -0.2887567
v 6.374537 -56.4175 -0.04188144
v 6.178069 -56.38874 2.582607
v 6.514403 -56.15385 2.150465
v 5.714168 -56.0561 2.729669
v 5.714168 -56.0561 2.729669
v 6.514403 -56.15385 2.150465
v 5.447205 -55.28234 2.416119
v 5.447205 -55.28234 2.416119
v 6.514403 -56.15385 2.150465
v 6.25023 -55.71566 2.06411
v 6.388566 -56.40216 0.01924759
v 6.374537 -56.4175 -0.04188144
v 6.366902 -56.3781 -0.04211324
v 4.860946 -57.11766 2.93864
v 5.714168 -56.0561 2.729669
v 4.095035 -55.50014 2.245458
v 4.095035 -55.50014 2.245458
v 5.714168 -56.0561 2.729669
v 4.685624 -54.9715 2.171459
v 4.685624 -54.9715 2.171459
v 5.714168 -56.0561 2.729669
v 5.447205 -55.28234 2.416119
v 3.845016 -56.13026 1.013835
v 4.404948 -57.89619 1.014128
v 4.095035 -55.50014 2.245458
v 4.095035 -55.50014 2.245458
v 4.404948 -57.89619 1.014128
v 4.860946 -57.11766 2.93864
v 4.860946 -57.11766 2.93864
v 4.404948 -57.89619 1.014128
v 4.925545 -57.35308 2.911211
v 6.366902 -56.3781 -0.04211324
v 6.172913 -56.05151 -0.08351904
v 6.388566 -56.40216 0.01924759
v 6.388566 -56.40216 0.01924759
v 6.172913 -56.05151 -0.08351904
v 6.514403 -56.15385 2.150465
v 6.514403 -56.15385 2.150465
v 6.172913 -56.05151 -0.08351904
v 6.25023 -55.71566 2.06411
v 4.095035 -55.50014 2.245458
v 4.685624 -54.9715 2.171459
v 3.845016 -56.13026 1.013835
v 3.845016 -56.13026 1.013835
v 4.685624 -54.9715 2.171459
v 4.924585 -55.47153 -0.07736808
v 5.291447 -55.68549 -0.3305552
v 6.172913 -56.05151 -0.08351904
v 5.658816 -56.99895 -0.2887567
v 5.658816 -56.99895 -0.2887567
v 6.172913 -56.05151 -0.08351904
v 6.374537 -56.4175 -0.04188144
v 6.374537 -56.4175 -0.04188144
v 6.172913 -56.05151 -0.08351904
v 6.366902 -56.3781 -0.04211324
v 6.25023 -55.71566 2.06411
v 6.172913 -56.05151 -0.08351904
v 5.447205 -55.28234 2.416119
v 5.447205 -55.28234 2.416119
v 6.172913 -56.05151 -0.08351904
v 4.685624 -54.9715 2.171459
v 4.685624 -54.9715 2.171459
v 6.172913 -56.05151 -0.08351904
v 4.924585 -55.47153 -0.07736808
v 4.924585 -55.47153 -0.07736808
v 6.172913 -56.05151 -0.08351904
v 5.291447 -55.68549 -0.3305552

vn -0.633075 -0.2008573 -0.7475777
vn -0.633075 -0.2008573 -0.7475777
vn -0.633075 -0.2008573 -0.7475777
vn -0.633075 -0.2008573 -0.7475777
vn -0.633075 -0.2008573 -0.7475777
vn -0.633075 -0.2008573 -0.7475777
vn -0.633075 -0.2008573 -0.7475777
vn -0.633075 -0.2008573 -0.7475777
vn -0.633075 -0.2008573 -0.7475777
vn 0.2789301 -0.03527578 0.9596633
vn 0.2789301 -0.03527578 0.9596633
vn 0.2789301 -0.03527578 0.9596633
vn 0.2789301 -0.03527578 0.9596633
vn 0.2789301 -0.03527578 0.9596633
vn 0.2789301 -0.03527578 0.9596633
vn 0.6181307 -0.7841581 0.05486761
vn 0.6181307 -0.7841581 0.05486761
vn 0.6181307 -0.7841581 0.05486761
vn 0.6181307 -0.7841581 0.05486761
vn 0.6181307 -0.7841581 0.05486761
vn 0.6181307 -0.7841581 0.05486761
vn 0.6181307 -0.7841581 0.05486761
vn 0.6181307 -0.7841581 0.05486761
vn 0.6181307 -0.7841581 0.05486761
vn 0.6181307 -0.7841581 0.05486761
vn 0.6181307 -0.7841581 0.05486761
vn 0.6181307 -0.7841581 0.05486761
vn 0.6181307 -0.7841581 0.05486761
vn 0.6181307 -0.7841581 0.05486761
vn 0.6181307 -0.7841581 0.05486761
vn 0.5545601 0.4696946 0.6869134
vn 0.5545601 0.4696946 0.6869134
vn 0.5545601 0.4696946 0.6869134
vn 0.5545601 0.4696946 0.6869134
vn 0.5545601 0.4696946 0.6869134
vn 0.5545601 0.4696946 0.6869134
vn 0.5545601 0.4696946 0.6869134
vn 0.5545601 0.4696946 0.6869134
vn 0.5545601 0.4696946 0.6869134
vn 0.9474344 0.1820563 -0.2631042
vn 0.9474344 0.1820563 -0.2631042
vn 0.9474344 0.1820563 -0.2631042
vn -0.1691384 0.3194749 0.9323776
vn -0.1691384 0.3194749 0.9323776
vn -0.1691384 0.3194749 0.9323776
vn -0.1691384 0.3194749 0.9323776
vn -0.1691384 0.3194749 0.9323776
vn -0.1691384 0.3194749 0.9323776
vn -0.1691384 0.3194749 0.9323776
vn -0.1691384 0.3194749 0.9323776
vn -0.1691384 0.3194749 0.9323776
vn -0.9002602 -0.2853849 0.328766
vn -0.9002602 -0.2853849 0.328766
vn -0.9002602 -0.2853849 0.328766
vn -0.9002602 -0.2853849 0.328766
vn -0.9002602 -0.2853849 0.328766
vn -0.9002602 -0.2853849 0.328766
vn -0.9002602 -0.2853849 0.328766
vn -0.9002602 -0.2853849 0.328766
vn -0.9002602 -0.2853849 0.328766
vn 0.8606579 0.4974287 -0.1087784
vn 0.8606579 0.4974287 -0.1087784
vn 0.8606579 0.4974287 -0.1087784
vn 0.8606579 0.4974287 -0.1087784
vn 0.8606579 0.4974287 -0.1087784
vn 0.8606579 0.4974287 -0.1087784
vn 0.8606579 0.4974287 -0.1087784
vn 0.8606579 0.4974287 -0.1087784
vn 0.8606579 0.4974287 -0.1087784
vn -0.6650132 0.7109368 -0.2287496
vn -0.6650132 0.7109368 -0.2287496
vn -0.6650132 0.7109368 -0.2287496
vn -0.6650132 0.7109368 -0.2287496
vn -0.6650132 0.7109368 -0.2287496
vn -0.6650132 0.7109368 -0.2287496
vn 0.2888633 0.05037127 -0.9560444
vn 0.2888633 0.05037127 -0.9560444
vn 0.2888633 0.05037127 -0.9560444
vn 0.2888633 0.05037127 -0.9560444
vn 0.2888633 0.05037127 -0.9560444
vn 0.2888633 0.05037127 -0.9560444
vn 0.2888633 0.05037127 -0.9560444
vn 0.2888633 0.05037127 -0.9560444
vn 0.2888633 0.05037127 -0.9560444
vn 0.4156166 0.8962154 -0.1551156
vn 0.4156166 0.8962154 -0.1551156
vn 0.4156166 0.8962154 -0.1551156
vn 0.4156166 0.8962154 -0.1551156
vn 0.4156166 0.8962154 -0.1551156
vn 0.4156166 0.8962154 -0.1551156
vn 0.4156166 0.8962154 -0.1551156
vn 0.4156166 0.8962154 -0.1551156
vn 0.4156166 0.8962154 -0.1551156
vn 0.4156166 0.8962154 -0.1551156
vn 0.4156166 0.8962154 -0.1551156
vn 0.4156166 0.8962154 -0.1551156

vt 0.5955482 0.3590398
vt 0.6353722 0.5761065
vt 0.3507835 0.3589792
vt 0.3507835 0.3589792
vt 0.6353722 0.5761065
vt 0.4136813 0.6181564
vt 0.4136813 0.6181564
vt 0.6353722 0.5761065
vt 0.5937693 0.6264732
vt 0.4443596 0.5151226
vt 0.4227665 0.5089757
vt 0.5405993 0.4339333
vt 0.5405993 0.4339333
vt 0.4227665 0.5089757
vt 0.5097255 0.3897925
vt 0.6349624 0.4820601
vt 0.4996065 0.5967357
vt 0.5694801 0.31509
vt 0.5694801 0.31509
vt 0.4996065 0.5967357
vt 0.4305618 0.3440126
vt 0.4305618 0.3440126
vt 0.4996065 0.5967357
vt 0.3945703 0.3820485
vt 0.3945703 0.3820485
vt 0.4996065 0.5967357
vt 0.4167687 0.5696244
vt 0.4167687 0.5696244
vt 0.4996065 0.5967357
vt 0.4185708 0.5750076
vt 0.5687909 0.405304
vt 0.573401 0.4771054
vt 0.5019395 0.3808703
vt 0.5019395 0.3808703
vt 0.573401 0.4771054
vt 0.4098116 0.4329647
vt 0.4098116 0.4329647
vt 0.573401 0.4771054
vt 0.5124077 0.4914573
vt 0.515565 0.5386947
vt 0.5166919 0.5444597
vt 0.513041 0.5444783
vt 0.3999208 0.4571934
vt 0.4953689 0.3801066
vt 0.5561712 0.5263731
vt 0.5561712 0.5263731
vt 0.4953689 0.3801066
vt 0.6028312 0.4730261
vt 0.6028312 0.4730261
vt 0.4953689 0.3801066
vt 0.5695918 0.4042236
vt 0.5671703 0.5161843
vt 0.395036 0.516147
vt 0.6159631 0.395008
vt 0.6159631 0.395008
vt 0.395036 0.516147
vt 0.4511909 0.3268062
vt 0.4511909 0.3268062
vt 0.395036 0.516147
vt 0.4285268 0.3295071
vt 0.54493 0.5618477
vt 0.5114019 0.5655265
vt 0.547724 0.5563994
vt 0.547724 0.5563994
vt 0.5114019 0.5655265
vt 0.5343034 0.3671378
vt 0.5343034 0.3671378
vt 0.5114019 0.5655265
vt 0.4891429 0.3748073
vt 0.4844397 0.3407716
vt 0.5558732 0.3476216
vt 0.4291741 0.4548185
vt 0.4291741 0.4548185
vt 0.5558732 0.3476216
vt 0.5408135 0.5558593
vt 0.4382454 0.4850683
vt 0.4705534 0.4006752
vt 0.5582668 0.449901
vt 0.5582668 0.449901
vt 0.4705534 0.4006752
vt 0.5038487 0.3813732
vt 0.5038487 0.3813732
vt 0.4705534 0.4006752
vt 0.5002444 0.3821043
vt 0.5553424 0.3717339
vt 0.5616661 0.5648373
vt 0.4744418 0.3400778
vt 0.4744418 0.3400778
vt 0.5616661 0.5648373
vt 0.4014529 0.3620806
vt 0.4014529 0.3620806
vt 0.5616661 0.5648373
vt 0.4393955 0.5642878
vt 0.4393955 0.5642878
vt 0.5616661 0.5648373
vt 0.4769517 0.5870497

usemtl Material0
usemap Material0

usemtl Material1
usemap Material1
f 1/1/1 2/2/2 3/3/3
f 4/4/4 5/5/5 6/6/6
f 7/7/7 8/8/8 9/9/9
f 10/10/10 11/11/11 12/12/12
f 13/13/13 14/14/14 15/15/15
f 16/16/16 17/17/17 18/18/18
f 19/19/19 20/20/20 21/21/21
f 22/22/22 23/23/23 24/24/24
f 25/25/25 26/26/26 27/27/27
f 28/28/28 29/29/29 30/30/30
f 31/31/31 32/32/32 33/33/33
f 34/34/34 35/35/35 36/36/36
f 37/37/37 38/38/38 39/39/39
f 40/40/40 41/41/41 42/42/42
f 43/43/43 44/44/44 45/45/45
f 46/46/46 47/47/47 48/48/48
f 49/49/49 50/50/50 51/51/51
f 52/52/52 53/53/53 54/54/54
f 55/55/55 56/56/56 57/57/57
f 58/58/58 59/59/59 60/60/60
f 61/61/61 62/62/62 63/63/63
f 64/64/64 65/65/65 66/66/66
f 67/67/67 68/68/68 69/69/69
f 70/70/70 71/71/71 72/72/72
f 73/73/73 74/74/74 75/75/75
f 76/76/76 77/77/77 78/78/78
f 79/79/79 80/80/80 81/81/81
f 82/82/82 83/83/83 84/84/84
f 85/85/85 86/86/86 87/87/87
f 88/88/88 89/89/89 90/90/90
f 91/91/91 92/92/92 93/93/93
f 94/94/94 95/95/95 96/96/96
