g  Instance
v 10.11449 -47.11154 0.7639868
v 10.08416 -47.00943 0.7720214
v 10.09409 -47.11395 1.128918
v 10.09409 -47.11395 1.128918
v 10.08416 -47.00943 0.7720214
v 10.06942 -47.02721 1.11669
v 10.11449 -47.11154 0.7639868
v 10.09409 -47.11395 1.128918
v 10.17934 -47.56478 1.142845
v 10.17934 -47.56478 1.142845
v 10.09409 -47.11395 1.128918
v 10.15558 -47.45389 1.1882
v 10.11449 -47.11154 0.7639868
v 10.17934 -47.56478 1.142845
v 10.23337 -47.73372 0.6962244
v 10.23337 -47.73372 0.6962244
v 10.17934 -47.56478 1.142845
v 10.22565 -47.78947 1.051895
v 10.11449 -47.11154 0.7639868
v 10.07376 -47.00326 0.6004813
v 10.08416 -47.00943 0.7720214
v 10.11449 -47.11154 0.7639868
v 10.05828 -47.11671 -0.3469078
v 10.07376 -47.00326 0.6004813
v 10.07376 -47.00326 0.6004813
v 10.05828 -47.11671 -0.3469078
v 10.01327 -46.96877 -0.3656011
v 10.01327 -46.96877 -0.3656011
v 10.05828 -47.11671 -0.3469078
v 10.00158 -46.96729 -0.4375373
v 9.904553 -46.95197 -1.100915
v 10.00158 -46.96729 -0.4375373
v 9.948596 -47.11154 -1.122477
v 9.948596 -47.11154 -1.122477
v 10.00158 -46.96729 -0.4375373
v 10.05828 -47.11671 -0.3469078
v 10.15396 -47.6207 -0.3562295
v 10.09518 -47.59467 -0.7399056
v 10.05828 -47.11671 -0.3469078
v 10.05828 -47.11671 -0.3469078
v 10.09518 -47.59467 -0.7399056
v 9.948596 -47.11154 -1.122477
v 10.09518 -47.59467 -0.7399056
v 10.02403 -47.56555 -1.187899
v 9.948596 -47.11154 -1.122477
v 9.904553 -46.95197 -1.100915
v 9.948596 -47.11154 -1.122477
v 9.841561 -46.95024 -1.349525
v 9.948596 -47.11154 -1.122477
v 9.760021 -47.11513 -1.870652
v 9.841561 -46.95024 -1.349525
v 9.841561 -46.95024 -1.349525
v 9.760021 -47.11513 -1.870652
v 9.767276 -46.94831 -1.640212
v 9.722776 -47.36885 -2.21497
v 9.755976 -47.55067 -2.224996
v 9.685457 -47.51126 -2.404375
v 9.685457 -47.51126 -2.404375
v 9.755976 -47.55067 -2.224996
v 9.687709 -47.55637 -2.424026
v 10.20497 -47.69137 0.3065817
v 10.05828 -47.11671 -0.3469078
v 10.23337 -47.73372 0.6962244
v 10.23337 -47.73372 0.6962244
v 10.05828 -47.11671 -0.3469078
v 10.11449 -47.11154 0.7639868
v 10.15396 -47.6207 -0.3562295
v 10.05828 -47.11671 -0.3469078
v 10.20497 -47.69137 0.3065817
v 9.884698 -47.55711 -1.731807
v 9.740688 -47.25214 -2.05677
v 10.02403 -47.56555 -1.187899
v 10.02403 -47.56555 -1.187899
v 9.740688 -47.25214 -2.05677
v 9.948596 -47.11154 -1.122477
v 9.948596 -47.11154 -1.122477
v 9.740688 -47.25214 -2.05677
v 9.760021 -47.11513 -1.870652
v 9.755976 -47.55067 -2.224996
v 9.722776 -47.36885 -2.21497
v 9.884698 -47.55711 -1.731807
v 9.884698 -47.55711 -1.731807
v 9.722776 -47.36885 -2.21497
v 9.740688 -47.25214 -2.05677
v 8.030796 -49.01718 1.820161
v 10.22565 -47.78947 1.051895
v 8.030425 -49.00714 1.823349
v 8.030425 -49.00714 1.823349
v 10.22565 -47.78947 1.051895
v 8.153592 -48.18424 2.005125
v 8.153592 -48.18424 2.005125
v 10.22565 -47.78947 1.051895
v 10.15558 -47.45389 1.1882
v 10.15558 -47.45389 1.1882
v 10.22565 -47.78947 1.051895
v 10.17934 -47.56478 1.142845
v 6.840178 -49.44345 1.224603
v 6.312349 -47.61638 1.628829
v 7.048624 -48.86786 -0.8204379
v 7.048624 -48.86786 -0.8204379
v 6.312349 -47.61638 1.628829
v 6.65398 -47.46563 -0.5707928
v 7.048624 -48.86786 -0.8204379
v 6.65398 -47.46563 -0.5707928
v 7.616169 -48.52262 -1.688193
v 7.616169 -48.52262 -1.688193
v 6.65398 -47.46563 -0.5707928
v 7.710085 -48.35323 -1.855969
v 7.710085 -48.35323 -1.855969
v 6.65398 -47.46563 -0.5707928
v 7.061051 -47.37778 -1.158778
v 8.217969 -47.18341 -1.603319
v 9.767276 -46.94831 -1.640212
v 9.685457 -47.51126 -2.404375
v 9.685457 -47.51126 -2.404375
v 9.767276 -46.94831 -1.640212
v 9.722776 -47.36885 -2.21497
v 9.722776 -47.36885 -2.21497
v 9.767276 -46.94831 -1.640212
v 9.740688 -47.25214 -2.05677
v 9.740688 -47.25214 -2.05677
v 9.767276 -46.94831 -1.640212
v 9.760021 -47.11513 -1.870652
v 8.217969 -47.18341 -1.603319
v 9.685457 -47.51126 -2.404375
v 7.061051 -47.37778 -1.158778
v 7.061051 -47.37778 -1.158778
v 9.685457 -47.51126 -2.404375
v 7.710085 -48.35323 -1.855969
v 7.710085 -48.35323 -1.855969
v 9.685457 -47.51126 -2.404375
v 8.669044 -48.10833 -2.189852
v 8.669044 -48.10833 -2.189852
v 9.685457 -47.51126 -2.404375
v 9.687709 -47.55637 -2.424026
v 10.15558 -47.45389 1.1882
v 10.09409 -47.11395 1.128918
v 8.153592 -48.18424 2.005125
v 8.153592 -48.18424 2.005125
v 10.09409 -47.11395 1.128918
v 7.845973 -48.04468 2.072025
v 7.845973 -48.04468 2.072025
v 10.09409 -47.11395 1.128918
v 7.389552 -47.47475 2.086793
v 7.389552 -47.47475 2.086793
v 10.09409 -47.11395 1.128918
v 10.06942 -47.02721 1.11669
v 10.20497 -47.69137 0.3065817
v 10.23337 -47.73372 0.6962244
v 10.15396 -47.6207 -0.3562295
v 10.15396 -47.6207 -0.3562295
v 10.23337 -47.73372 0.6962244
v 10.09518 -47.59467 -0.7399056
v 10.09518 -47.59467 -0.7399056
v 10.23337 -47.73372 0.6962244
v 10.02403 -47.56555 -1.187899
v 10.02403 -47.56555 -1.187899
v 10.23337 -47.73372 0.6962244
v 9.884698 -47.55711 -1.731807
v 9.884698 -47.55711 -1.731807
v 10.23337 -47.73372 0.6962244
v 9.755976 -47.55067 -2.224996
v 9.755976 -47.55067 -2.224996
v 10.23337 -47.73372 0.6962244
v 9.687709 -47.55637 -2.424026
v 9.687709 -47.55637 -2.424026
v 10.23337 -47.73372 0.6962244
v 8.669044 -48.10833 -2.189852
v 8.669044 -48.10833 -2.189852
v 10.23337 -47.73372 0.6962244
v 8.388535 -48.2785 -2.000658
v 8.388535 -48.2785 -2.000658
v 10.23337 -47.73372 0.6962244
v 7.107437 -49.41596 1.335661
v 7.107437 -49.41596 1.335661
v 10.23337 -47.73372 0.6962244
v 8.030796 -49.01718 1.820161
v 8.030796 -49.01718 1.820161
v 10.23337 -47.73372 0.6962244
v 10.22565 -47.78947 1.051895
v 7.710085 -48.35323 -1.855969
v 8.669044 -48.10833 -2.189852
v 7.616169 -48.52262 -1.688193
v 7.616169 -48.52262 -1.688193
v 8.669044 -48.10833 -2.189852
v 8.388535 -48.2785 -2.000658
v 8.030425 -49.00714 1.823349
v 8.153592 -48.18424 2.005125
v 7.845973 -48.04468 2.072025
v 7.107437 -49.41596 1.335661
v 6.840178 -49.44345 1.224603
v 8.388535 -48.2785 -2.000658
v 8.388535 -48.2785 -2.000658
v 6.840178 -49.44345 1.224603
v 7.616169 -48.52262 -1.688193
v 7.616169 -48.52262 -1.688193
v 6.840178 -49.44345 1.224603
v 7.048624 -48.86786 -0.8204379
v 7.845973 -48.04468 2.072025
v 7.389552 -47.47475 2.086793
v 8.030425 -49.00714 1.823349
v 8.030425 -49.00714 1.823349
v 7.389552 -47.47475 2.086793
v 8.030796 -49.01718 1.820161
v 8.030796 -49.01718 1.820161
v 7.389552 -47.47475 2.086793
v 7.107437 -49.41596 1.335661
v 7.107437 -49.41596 1.335661
v 7.389552 -47.47475 2.086793
v 6.840178 -49.44345 1.224603
v 6.840178 -49.44345 1.224603
v 7.389552 -47.47475 2.086793
v 6.312349 -47.61638 1.628829
v 7.389552 -47.47475 2.086793
v 10.06942 -47.02721 1.11669
v 6.312349 -47.61638 1.628829
v 6.312349 -47.61638 1.628829
v 10.06942 -47.02721 1.11669
v 6.65398 -47.46563 -0.5707928
v 6.65398 -47.46563 -0.5707928
v 10.06942 -47.02721 1.11669
v 7.061051 -47.37778 -1.158778
v 7.061051 -47.37778 -1.158778
v 10.06942 -47.02721 1.11669
v 8.217969 -47.18341 -1.603319
v 8.217969 -47.18341 -1.603319
v 10.06942 -47.02721 1.11669
v 9.767276 -46.94831 -1.640212
v 9.767276 -46.94831 -1.640212
v 10.06942 -47.02721 1.11669
v 9.841561 -46.95024 -1.349525
v 9.841561 -46.95024 -1.349525
v 10.06942 -47.02721 1.11669
v 9.904553 -46.95197 -1.100915
v 9.904553 -46.95197 -1.100915
v 10.06942 -47.02721 1.11669
v 10.00158 -46.96729 -0.4375373
v 10.00158 -46.96729 -0.4375373
v 10.06942 -47.02721 1.11669
v 10.01327 -46.96877 -0.3656011
v 10.01327 -46.96877 -0.3656011
v 10.06942 -47.02721 1.11669
v 10.07376 -47.00326 0.6004813
v 10.07376 -47.00326 0.6004813
v 10.06942 -47.02721 1.11669
v 10.08416 -47.00943 0.7720214

vn 0.9583075 0.28031 0.05543396
vn 0.9586576 0.2793582 0.05387734
vn 0.9599739 0.2757795 0.04802492
vn 0.9599739 0.2757795 0.04802492
vn 0.9586576 0.2793582 0.05387734
vn 0.9601839 0.2752085 0.04709107
vn 0.9807214 0.1871939 0.05607189
vn 0.9807214 0.1871939 0.05607189
vn 0.9807214 0.1871939 0.05607189
vn 0.9807214 0.1871939 0.05607189
vn 0.9807214 0.1871939 0.05607189
vn 0.9807214 0.1871939 0.05607189
vn 0.9807214 0.1871939 0.05607189
vn 0.9807214 0.1871939 0.05607189
vn 0.9816071 0.1837228 0.05176644
vn 0.9816071 0.1837228 0.05176644
vn 0.9807214 0.1871939 0.05607189
vn 0.9811414 0.1855478 0.05403011
vn 0.956788 0.2867126 -0.04850334
vn 0.9555066 0.2906617 -0.04909288
vn 0.9558559 0.289585 -0.04893214
vn 0.956788 0.2867126 -0.04850334
vn 0.956788 0.2867126 -0.04850334
vn 0.9555066 0.2906617 -0.04909288
vn 0.9555066 0.2906617 -0.04909288
vn 0.956788 0.2867126 -0.04850334
vn 0.9550484 0.2920735 -0.04930364
vn 0.9511147 0.2705955 -0.1488585
vn 0.9511147 0.2705955 -0.1488585
vn 0.9511147 0.2705955 -0.1488585
vn 0.9507702 0.2788244 -0.1350788
vn 0.9511147 0.2705955 -0.1488585
vn 0.9507079 0.2803133 -0.1325856
vn 0.9507079 0.2803133 -0.1325856
vn 0.9511147 0.2705955 -0.1488585
vn 0.9511147 0.2705955 -0.1488585
vn 0.9728157 0.1871976 -0.1363332
vn 0.9728157 0.1871976 -0.1363332
vn 0.9728157 0.1871976 -0.1363332
vn 0.9728157 0.1871976 -0.1363332
vn 0.9728157 0.1871976 -0.1363332
vn 0.9728157 0.1871976 -0.1363332
vn 0.9728157 0.1871976 -0.1363332
vn 0.9728371 0.18466 -0.1395432
vn 0.9728157 0.1871976 -0.1363332
vn 0.9273814 0.2912029 -0.2346042
vn 0.9289405 0.2867148 -0.2342311
vn 0.9268973 0.2925966 -0.2347201
vn 0.9289405 0.2867148 -0.2342311
vn 0.9289405 0.2867148 -0.2342311
vn 0.9268973 0.2925966 -0.2347201
vn 0.9268973 0.2925966 -0.2347201
vn 0.9289405 0.2867148 -0.2342311
vn 0.9268554 0.2927169 -0.2347301
vn 0.9275263 0.1871922 -0.3235027
vn 0.9275263 0.1871922 -0.3235027
vn 0.9275263 0.1871922 -0.3235027
vn 0.9275263 0.1871922 -0.3235027
vn 0.9275263 0.1871922 -0.3235027
vn 0.9275263 0.1871922 -0.3235027
vn 0.9803548 0.1899932 -0.05298033
vn 0.9803548 0.1899932 -0.05298033
vn 0.9803548 0.1899932 -0.05298033
vn 0.9803548 0.1899932 -0.05298033
vn 0.9803548 0.1899932 -0.05298033
vn 0.9803548 0.1899932 -0.05298033
vn 0.9803548 0.1899932 -0.05298033
vn 0.9803548 0.1899932 -0.05298033
vn 0.9803548 0.1899932 -0.05298033
vn 0.9511822 0.1899921 -0.2432189
vn 0.9511822 0.1899921 -0.2432189
vn 0.9511822 0.1899921 -0.2432189
vn 0.9511822 0.1899921 -0.2432189
vn 0.9511822 0.1899921 -0.2432189
vn 0.9511822 0.1899921 -0.2432189
vn 0.9511822 0.1899921 -0.2432189
vn 0.9511822 0.1899921 -0.2432189
vn 0.9511822 0.1899921 -0.2432189
vn 0.9511822 0.1899921 -0.2432189
vn 0.9511822 0.1899921 -0.2432189
vn 0.9511822 0.1899921 -0.2432189
vn 0.9511822 0.1899921 -0.2432189
vn 0.9511822 0.1899921 -0.2432189
vn 0.9511822 0.1899921 -0.2432189
vn 0.4438441 -0.2561231 0.858722
vn 0.4438441 -0.2561231 0.858722
vn 0.4438441 -0.2561231 0.858722
vn 0.4438441 -0.2561231 0.858722
vn 0.4438441 -0.2561231 0.858722
vn 0.4438441 -0.2561231 0.858722
vn 0.4438441 -0.2561231 0.858722
vn 0.4438441 -0.2561231 0.858722
vn 0.4438441 -0.2561231 0.858722
vn 0.4438441 -0.2561231 0.858722
vn 0.4438441 -0.2561231 0.858722
vn 0.4438441 -0.2561231 0.858722
vn -0.9566769 -0.2398673 -0.1650243
vn -0.9566769 -0.2398673 -0.1650243
vn -0.9566769 -0.2398673 -0.1650243
vn -0.9566769 -0.2398673 -0.1650243
vn -0.9566769 -0.2398673 -0.1650243
vn -0.9566769 -0.2398673 -0.1650243
vn -0.8070138 -0.1243482 -0.5772923
vn -0.8070138 -0.1243482 -0.5772923
vn -0.8070138 -0.1243482 -0.5772923
vn -0.8070138 -0.1243482 -0.5772923
vn -0.8070138 -0.1243482 -0.5772923
vn -0.8070138 -0.1243482 -0.5772923
vn -0.8070138 -0.1243482 -0.5772923
vn -0.8070138 -0.1243482 -0.5772923
vn -0.8070138 -0.1243482 -0.5772923
vn -0.1358499 0.8045437 -0.5781473
vn -0.1358499 0.8045437 -0.5781473
vn -0.1358499 0.8045437 -0.5781473
vn -0.1358499 0.8045437 -0.5781473
vn -0.1358499 0.8045437 -0.5781473
vn -0.1358499 0.8045437 -0.5781473
vn -0.1358499 0.8045437 -0.5781473
vn -0.1358499 0.8045437 -0.5781473
vn -0.1358499 0.8045437 -0.5781473
vn -0.1358499 0.8045437 -0.5781473
vn -0.1358499 0.8045437 -0.5781473
vn -0.1358499 0.8045437 -0.5781473
vn -0.386669 0.3519738 -0.8524092
vn -0.386669 0.3519738 -0.8524092
vn -0.386669 0.3519738 -0.8524092
vn -0.386669 0.3519738 -0.8524092
vn -0.386669 0.3519738 -0.8524092
vn -0.386669 0.3519738 -0.8524092
vn -0.386669 0.3519738 -0.8524092
vn -0.386669 0.3519738 -0.8524092
vn -0.386669 0.3519738 -0.8524092
vn -0.386669 0.3519738 -0.8524092
vn -0.386669 0.3519738 -0.8524092
vn -0.386669 0.3519738 -0.8524092
vn 0.3001787 0.2163229 0.9290303
vn 0.3001787 0.2163229 0.9290303
vn 0.3001787 0.2163229 0.9290303
vn 0.3001787 0.2163229 0.9290303
vn 0.3001787 0.2163229 0.9290303
vn 0.3001787 0.2163229 0.9290303
vn 0.3001787 0.2163229 0.9290303
vn 0.3001787 0.2163229 0.9290303
vn 0.3001787 0.2163229 0.9290303
vn 0.3001787 0.2163229 0.9290303
vn 0.3001787 0.2163229 0.9290303
vn 0.3001787 0.2163229 0.9290303
vn 0.4493763 -0.8840029 -0.128841
vn 0.4493763 -0.8840029 -0.128841
vn 0.4493763 -0.8840029 -0.128841
vn 0.4493763 -0.8840029 -0.128841
vn 0.4493763 -0.8840029 -0.128841
vn 0.4493763 -0.8840029 -0.128841
vn 0.4493763 -0.8840029 -0.128841
vn 0.4493763 -0.8840029 -0.128841
vn 0.4493763 -0.8840029 -0.128841
vn 0.4493763 -0.8840029 -0.128841
vn 0.4493763 -0.8840029 -0.128841
vn 0.4493763 -0.8840029 -0.128841
vn 0.4493763 -0.8840029 -0.128841
vn 0.4493763 -0.8840029 -0.128841
vn 0.4493763 -0.8840029 -0.128841
vn 0.4493763 -0.8840029 -0.128841
vn 0.4493763 -0.8840029 -0.128841
vn 0.4493763 -0.8840029 -0.128841
vn 0.4493763 -0.8840029 -0.128841
vn 0.4493763 -0.8840029 -0.128841
vn 0.4493763 -0.8840029 -0.128841
vn 0.4493763 -0.8840029 -0.128841
vn 0.4493763 -0.8840029 -0.128841
vn 0.4493763 -0.8840029 -0.128841
vn 0.4493763 -0.8840029 -0.128841
vn 0.4493763 -0.8840029 -0.128841
vn 0.4493763 -0.8840029 -0.128841
vn 0.4493763 -0.8840029 -0.128841
vn 0.4493763 -0.8840029 -0.128841
vn 0.4493763 -0.8840029 -0.128841
vn 0.4493763 -0.8840029 -0.128841
vn 0.4493763 -0.8840029 -0.128841
vn 0.4493763 -0.8840029 -0.128841
vn -0.08103641 -0.6783423 -0.7302636
vn -0.08103641 -0.6783423 -0.7302636
vn -0.08103641 -0.6783423 -0.7302636
vn -0.08103641 -0.6783423 -0.7302636
vn -0.08103641 -0.6783423 -0.7302636
vn -0.08103641 -0.6783423 -0.7302636
vn 0.1062183 -0.2296384 0.9674626
vn 0.1062183 -0.2296384 0.9674626
vn 0.1062183 -0.2296384 0.9674626
vn 0.1999857 -0.9482813 -0.2465123
vn 0.1999857 -0.9482813 -0.2465123
vn 0.1999857 -0.9482813 -0.2465123
vn 0.1999857 -0.9482813 -0.2465123
vn 0.1999857 -0.9482813 -0.2465123
vn 0.1999857 -0.9482813 -0.2465123
vn 0.1999857 -0.9482813 -0.2465123
vn 0.1999857 -0.9482813 -0.2465123
vn 0.1999857 -0.9482813 -0.2465123
vn -0.3405319 -0.2958337 0.89248
vn -0.3405319 -0.2958337 0.89248
vn -0.3405319 -0.2958337 0.89248
vn -0.3405319 -0.2958337 0.89248
vn -0.3405319 -0.2958337 0.89248
vn -0.3405319 -0.2958337 0.89248
vn -0.3405319 -0.2958337 0.89248
vn -0.3405319 -0.2958337 0.89248
vn -0.3405319 -0.2958337 0.89248
vn -0.3405319 -0.2958337 0.89248
vn -0.3405319 -0.2958337 0.89248
vn -0.3405319 -0.2958337 0.89248
vn -0.3405319 -0.2958337 0.89248
vn -0.3405319 -0.2958337 0.89248
vn -0.3405319 -0.2958337 0.89248
vn -0.1488353 0.9878565 0.04458304
vn -0.1488353 0.9878565 0.04458304
vn -0.1488353 0.9878565 0.04458304
vn -0.1488353 0.9878565 0.04458304
vn -0.1488353 0.9878565 0.04458304
vn -0.1488353 0.9878565 0.04458304
vn -0.1488353 0.9878565 0.04458304
vn -0.1488353 0.9878565 0.04458304
vn -0.1488353 0.9878565 0.04458304
vn -0.1488353 0.9878565 0.04458304
vn -0.1488353 0.9878565 0.04458304
vn -0.1488353 0.9878565 0.04458304
vn -0.1488353 0.9878565 0.04458304
vn -0.1488353 0.9878565 0.04458304
vn -0.1488353 0.9878565 0.04458304
vn -0.1488353 0.9878565 0.04458304
vn -0.1488353 0.9878565 0.04458304
vn -0.1488353 0.9878565 0.04458304
vn -0.1488353 0.9878565 0.04458304
vn -0.1488353 0.9878565 0.04458304
vn -0.1488353 0.9878565 0.04458304
vn -0.1488353 0.9878565 0.04458304
vn -0.1488353 0.9878565 0.04458304
vn -0.1488353 0.9878565 0.04458304
vn -0.1488353 0.9878565 0.04458304
vn -0.1488353 0.9878565 0.04458304
vn -0.1488353 0.9878565 0.04458304
vn -0.1488353 0.9878565 0.04458304
vn -0.1488353 0.9878565 0.04458304
vn -0.1488353 0.9878565 0.04458304
vn -0.1488353 0.9878565 0.04458304
vn -0.1488353 0.9878565 0.04458304
vn -0.1488353 0.9878565 0.04458304

vt 0.9115803 0.1466736
vt 0.9115763 0.1466408
vt 0.9114675 0.1466744
vt 0.9114675 0.1466744
vt 0.9115763 0.1466408
vt 0.91147 0.1466465
vt 0.9115803 0.1466736
vt 0.9114675 0.1466744
vt 0.9114665 0.1468179
vt 0.9114665 0.1468179
vt 0.9114675 0.1466744
vt 0.9114516 0.1467826
vt 0.9115803 0.1466736
vt 0.9114665 0.1468179
vt 0.9116057 0.1468714
vt 0.9116057 0.1468714
vt 0.9114665 0.1468179
vt 0.9114962 0.1468893
vt 0.9115803 0.1466736
vt 0.9116281 0.1466381
vt 0.9115763 0.1466408
vt 0.9115803 0.1466736
vt 0.9119155 0.1466706
vt 0.9116281 0.1466381
vt 0.9116281 0.1466381
vt 0.9119155 0.1466706
vt 0.9119189 0.1466229
vt 0.9119189 0.1466229
vt 0.9119155 0.1466706
vt 0.91194 0.1466219
vt 0.9121358 0.1466121
vt 0.91194 0.1466219
vt 0.9121445 0.1466633
vt 0.9121445 0.1466633
vt 0.91194 0.1466219
vt 0.9119155 0.1466706
vt 0.911922 0.1468309
vt 0.9120352 0.1468198
vt 0.9119155 0.1466706
vt 0.9119155 0.1466706
vt 0.9120352 0.1468198
vt 0.9121445 0.1466633
vt 0.9120352 0.1468198
vt 0.9121671 0.1468072
vt 0.9121445 0.1466633
vt 0.9121358 0.1466121
vt 0.9121445 0.1466633
vt 0.9122073 0.1466087
vt 0.9121445 0.1466633
vt 0.9123597 0.1466558
vt 0.9122073 0.1466087
vt 0.9122073 0.1466087
vt 0.9123597 0.1466558
vt 0.9122908 0.1466047
vt 0.9124606 0.1467326
vt 0.9124649 0.1467904
vt 0.9125149 0.1467752
vt 0.9125149 0.1467752
vt 0.9124649 0.1467904
vt 0.9125208 0.1467892
vt 0.9117229 0.1468563
vt 0.9119155 0.1466706
vt 0.9116057 0.1468714
vt 0.9116057 0.1468714
vt 0.9119155 0.1466706
vt 0.9115803 0.1466736
vt 0.911922 0.1468309
vt 0.9119155 0.1466706
vt 0.9117229 0.1468563
vt 0.9123234 0.1467982
vt 0.9124143 0.1466973
vt 0.9121671 0.1468072
vt 0.9121671 0.1468072
vt 0.9124143 0.1466973
vt 0.9121445 0.1466633
vt 0.9121445 0.1466633
vt 0.9124143 0.1466973
vt 0.9123597 0.1466558
vt 0.9124649 0.1467904
vt 0.9124606 0.1467326
vt 0.9123234 0.1467982
vt 0.9123234 0.1467982
vt 0.9124606 0.1467326
vt 0.9124143 0.1466973
vt 0.5977182 0.4285035
vt 0.2277678 0.6852406
vt 0.596256 0.4274418
vt 0.596256 0.4274418
vt 0.2277678 0.6852406
vt 0.4636615 0.3666954
vt 0.4636615 0.3666954
vt 0.2277678 0.6852406
vt 0.1839857 0.6396796
vt 0.1839857 0.6396796
vt 0.2277678 0.6852406
vt 0.1984027 0.6548418
vt 0.4091923 0.3609444
vt 0.5782905 0.3244779
vt 0.4543575 0.5454283
vt 0.4543575 0.5454283
vt 0.5782905 0.3244779
vt 0.5839065 0.5229086
vt 0.4370439 0.5102051
vt 0.5924375 0.4773475
vt 0.4644252 0.624415
vt 0.4644252 0.624415
vt 0.5924375 0.4773475
vt 0.480882 0.646497
vt 0.480882 0.646497
vt 0.5924375 0.4773475
vt 0.5951105 0.5547416
vt 0.5716035 0.5706023
vt 0.7401103 0.5754639
vt 0.7213532 0.676188
vt 0.7213532 0.676188
vt 0.7401103 0.5754639
vt 0.7278633 0.6512188
vt 0.7278633 0.6512188
vt 0.7401103 0.5754639
vt 0.7318587 0.6303662
vt 0.7318587 0.6303662
vt 0.7401103 0.5754639
vt 0.736357 0.6058348
vt 0.680244 0.5844699
vt 0.8053412 0.8415841
vt 0.5254185 0.4417798
vt 0.5254185 0.4417798
vt 0.8053412 0.8415841
vt 0.4776781 0.6655521
vt 0.4776781 0.6655521
vt 0.8053412 0.8415841
vt 0.6164101 0.7727211
vt 0.6164101 0.7727211
vt 0.8053412 0.8415841
vt 0.7999953 0.8478893
vt 0.5494936 0.2531561
vt 0.581187 0.2590887
vt 0.4670097 0.4462409
vt 0.4670097 0.4462409
vt 0.581187 0.2590887
vt 0.4781159 0.475904
vt 0.4781159 0.475904
vt 0.581187 0.2590887
vt 0.5288737 0.519919
vt 0.5288737 0.519919
vt 0.581187 0.2590887
vt 0.5892151 0.2614636
vt 0.2838576 0.4504412
vt 0.2833174 0.4156697
vt 0.2850497 0.5095811
vt 0.2850497 0.5095811
vt 0.2833174 0.4156697
vt 0.28864 0.543817
vt 0.28864 0.543817
vt 0.2833174 0.4156697
vt 0.2930871 0.5837994
vt 0.2930871 0.5837994
vt 0.2833174 0.4156697
vt 0.303737 0.632322
vt 0.303737 0.632322
vt 0.2833174 0.4156697
vt 0.3136324 0.676337
vt 0.3136324 0.676337
vt 0.2833174 0.4156697
vt 0.3192484 0.6940976
vt 0.3192484 0.6940976
vt 0.2833174 0.4156697
vt 0.4217374 0.6731984
vt 0.4217374 0.6731984
vt 0.2833174 0.4156697
vt 0.450688 0.6563133
vt 0.450688 0.6563133
vt 0.2833174 0.4156697
vt 0.5973549 0.3586114
vt 0.5973549 0.3586114
vt 0.2833174 0.4156697
vt 0.5085334 0.3153787
vt 0.5085334 0.3153787
vt 0.2833174 0.4156697
vt 0.2861626 0.3839344
vt 0.4972316 0.6314372
vt 0.3786537 0.6942094
vt 0.5066241 0.5998929
vt 0.5066241 0.5998929
vt 0.3786537 0.6942094
vt 0.4118373 0.6586416
vt 0.4559594 0.4299937
vt 0.5303173 0.4190598
vt 0.5436634 0.446362
vt 0.5765955 0.3437565
vt 0.6007823 0.3541363
vt 0.4418403 0.6554658
vt 0.4418403 0.6554658
vt 0.6007823 0.3541363
vt 0.5148385 0.6262776
vt 0.5148385 0.6262776
vt 0.6007823 0.3541363
vt 0.5715662 0.5452048
vt 0.5015111 0.2710377
vt 0.6434376 0.2646674
vt 0.3366365 0.3782766
vt 0.3366365 0.3782766
vt 0.6434376 0.2646674
vt 0.3351137 0.3796549
vt 0.3351137 0.3796549
vt 0.6434376 0.2646674
vt 0.3943514 0.5885957
vt 0.3943514 0.5885957
vt 0.6434376 0.2646674
vt 0.424415 0.6365038
vt 0.424415 0.6365038
vt 0.6434376 0.2646674
vt 0.7600782 0.4621761
vt 0.4813197 0.3051014
vt 0.7199469 0.3903979
vt 0.3858995 0.3453724
vt 0.3858995 0.3453724
vt 0.7199469 0.3903979
vt 0.417551 0.5387785
vt 0.417551 0.5387785
vt 0.7199469 0.3903979
vt 0.4540501 0.590477
vt 0.4540501 0.590477
vt 0.7199469 0.3903979
vt 0.557084 0.6295653
vt 0.557084 0.6295653
vt 0.7199469 0.3903979
vt 0.6947356 0.6328063
vt 0.6947356 0.6328063
vt 0.7199469 0.3903979
vt 0.7011618 0.6072505
vt 0.7011618 0.6072505
vt 0.7199469 0.3903979
vt 0.7066101 0.5853919
vt 0.7066101 0.5853919
vt 0.7199469 0.3903979
vt 0.7148432 0.527053
vt 0.7148432 0.527053
vt 0.7199469 0.3903979
vt 0.7158304 0.5207292
vt 0.7158304 0.5207292
vt 0.7199469 0.3903979
vt 0.7206361 0.4357866
vt 0.7206361 0.4357866
vt 0.7199469 0.3903979
vt 0.7214556 0.4207036

usemtl Material0
usemap Material0
f 1/1/1 2/2/2 3/3/3
f 4/4/4 5/5/5 6/6/6
f 7/7/7 8/8/8 9/9/9
f 10/10/10 11/11/11 12/12/12
f 13/13/13 14/14/14 15/15/15
f 16/16/16 17/17/17 18/18/18
f 19/19/19 20/20/20 21/21/21
f 22/22/22 23/23/23 24/24/24
f 25/25/25 26/26/26 27/27/27
f 28/28/28 29/29/29 30/30/30
f 31/31/31 32/32/32 33/33/33
f 34/34/34 35/35/35 36/36/36
f 37/37/37 38/38/38 39/39/39
f 40/40/40 41/41/41 42/42/42
f 43/43/43 44/44/44 45/45/45
f 46/46/46 47/47/47 48/48/48
f 49/49/49 50/50/50 51/51/51
f 52/52/52 53/53/53 54/54/54
f 55/55/55 56/56/56 57/57/57
f 58/58/58 59/59/59 60/60/60
f 61/61/61 62/62/62 63/63/63
f 64/64/64 65/65/65 66/66/66
f 67/67/67 68/68/68 69/69/69
f 70/70/70 71/71/71 72/72/72
f 73/73/73 74/74/74 75/75/75
f 76/76/76 77/77/77 78/78/78
f 79/79/79 80/80/80 81/81/81
f 82/82/82 83/83/83 84/84/84

usemtl Material1
usemap Material1
f 85/85/85 86/86/86 87/87/87
f 88/88/88 89/89/89 90/90/90
f 91/91/91 92/92/92 93/93/93
f 94/94/94 95/95/95 96/96/96
f 97/97/97 98/98/98 99/99/99
f 100/100/100 101/101/101 102/102/102
f 103/103/103 104/104/104 105/105/105
f 106/106/106 107/107/107 108/108/108
f 109/109/109 110/110/110 111/111/111
f 112/112/112 113/113/113 114/114/114
f 115/115/115 116/116/116 117/117/117
f 118/118/118 119/119/119 120/120/120
f 121/121/121 122/122/122 123/123/123
f 124/124/124 125/125/125 126/126/126
f 127/127/127 128/128/128 129/129/129
f 130/130/130 131/131/131 132/132/132
f 133/133/133 134/134/134 135/135/135
f 136/136/136 137/137/137 138/138/138
f 139/139/139 140/140/140 141/141/141
f 142/142/142 143/143/143 144/144/144
f 145/145/145 146/146/146 147/147/147
f 148/148/148 149/149/149 150/150/150
f 151/151/151 152/152/152 153/153/153
f 154/154/154 155/155/155 156/156/156
f 157/157/157 158/158/158 159/159/159
f 160/160/160 161/161/161 162/162/162
f 163/163/163 164/164/164 165/165/165
f 166/166/166 167/167/167 168/168/168
f 169/169/169 170/170/170 171/171/171
f 172/172/172 173/173/173 174/174/174
f 175/175/175 176/176/176 177/177/177
f 178/178/178 179/179/179 180/180/180
f 181/181/181 182/182/182 183/183/183
f 184/184/184 185/185/185 186/186/186
f 187/187/187 188/188/188 189/189/189
f 190/190/190 191/191/191 192/192/192
f 193/193/193 194/194/194 195/195/195
f 196/196/196 197/197/197 198/198/198
f 199/199/199 200/200/200 201/201/201
f 202/202/202 203/203/203 204/204/204
f 205/205/205 206/206/206 207/207/207
f 208/208/208 209/209/209 210/210/210
f 211/211/211 212/212/212 213/213/213
f 214/214/214 215/215/215 216/216/216
f 217/217/217 218/218/218 219/219/219
f 220/220/220 221/221/221 222/222/222
f 223/223/223 224/224/224 225/225/225
f 226/226/226 227/227/227 228/228/228
f 229/229/229 230/230/230 231/231/231
f 232/232/232 233/233/233 234/234/234
f 235/235/235 236/236/236 237/237/237
f 238/238/238 239/239/239 240/240/240
f 241/241/241 242/242/242 243/243/243
f 244/244/244 245/245/245 246/246/246
