g  Instance
v 5.554146 -43.63408 2.823676
v 3.528897 -43.96944 2.541488
v 5.667532 -44.09959 2.487723
v 5.667532 -44.09959 2.487723
v 3.528897 -43.96944 2.541488
v 3.679377 -44.21467 2.366239
v 2.988782 -42.51053 2.92777
v 2.933605 -43.02608 2.769126
v 3.060577 -42.28271 3.002139
v 3.060577 -42.28271 3.002139
v 2.933605 -43.02608 2.769126
v 4.910572 -42.10582 3.221323
v 4.910572 -42.10582 3.221323
v 2.933605 -43.02608 2.769126
v 5.286124 -42.22818 3.218638
v 5.286124 -42.22818 3.218638
v 2.933605 -43.02608 2.769126
v 5.554146 -43.63408 2.823676
v 5.554146 -43.63408 2.823676
v 2.933605 -43.02608 2.769126
v 3.528897 -43.96944 2.541488
v 5.725204 -43.68306 1.463154
v 4.910596 -43.25148 0.05892634
v 5.376599 -41.87384 2.002143
v 5.376599 -41.87384 2.002143
v 4.910596 -43.25148 0.05892634
v 4.718347 -41.34054 0.9969435
v 4.718347 -41.34054 0.9969435
v 4.910596 -43.25148 0.05892634
v 4.873783 -43.20407 0.01505291
v 3.174618 -43.50809 0.9373262
v 4.594154 -43.32082 0.1351689
v 3.474671 -43.9491 1.421923
v 3.474671 -43.9491 1.421923
v 4.594154 -43.32082 0.1351689
v 4.813256 -43.51962 0.321298
v 4.813256 -43.51962 0.321298
v 4.594154 -43.32082 0.1351689
v 4.813138 -43.5091 0.3070214
v 5.724466 -43.86149 1.702457
v 5.725204 -43.68306 1.463154
v 5.667532 -44.09959 2.487723
v 5.667532 -44.09959 2.487723
v 5.725204 -43.68306 1.463154
v 5.554146 -43.63408 2.823676
v 5.554146 -43.63408 2.823676
v 5.725204 -43.68306 1.463154
v 5.286124 -42.22818 3.218638
v 5.286124 -42.22818 3.218638
v 5.725204 -43.68306 1.463154
v 5.376599 -41.87384 2.002143
v 5.724466 -43.86149 1.702457
v 4.813256 -43.51962 0.321298
v 5.725204 -43.68306 1.463154
v 5.725204 -43.68306 1.463154
v 4.813256 -43.51962 0.321298
v 4.910596 -43.25148 0.05892634
v 4.910596 -43.25148 0.05892634
v 4.813256 -43.51962 0.321298
v 4.813138 -43.5091 0.3070214
v 3.174618 -43.50809 0.9373262
v 3.474671 -43.9491 1.421923
v 2.212269 -41.9263 2.292
v 2.212269 -41.9263 2.292
v 3.474671 -43.9491 1.421923
v 2.841088 -42.88087 2.780218
v 2.841088 -42.88087 2.780218
v 3.474671 -43.9491 1.421923
v 2.933605 -43.02608 2.769126
v 2.933605 -43.02608 2.769126
v 3.474671 -43.9491 1.421923
v 3.528897 -43.96944 2.541488
v 3.528897 -43.96944 2.541488
v 3.474671 -43.9491 1.421923
v 3.679377 -44.21467 2.366239
v 2.988782 -42.51053 2.92777
v 2.841088 -42.88087 2.780218
v 2.933605 -43.02608 2.769126
v 3.060322 -41.15319 2.126567
v 4.910572 -42.10582 3.221323
v 4.718347 -41.34054 0.9969435
v 4.718347 -41.34054 0.9969435
v 4.910572 -42.10582 3.221323
v 5.376599 -41.87384 2.002143
v 5.376599 -41.87384 2.002143
v 4.910572 -42.10582 3.221323
v 5.286124 -42.22818 3.218638
v 3.174618 -43.50809 0.9373262
v 2.212269 -41.9263 2.292
v 4.594154 -43.32082 0.1351689
v 4.594154 -43.32082 0.1351689
v 2.212269 -41.9263 2.292
v 4.873783 -43.20407 0.01505291
v 4.873783 -43.20407 0.01505291
v 2.212269 -41.9263 2.292
v 4.718347 -41.34054 0.9969435
v 4.718347 -41.34054 0.9969435
v 2.212269 -41.9263 2.292
v 3.060322 -41.15319 2.126567
v 3.060322 -41.15319 2.126567
v 2.212269 -41.9263 2.292
v 2.287092 -41.66073 2.37106
v 2.988782 -42.51053 2.92777
v 3.060577 -42.28271 3.002139
v 2.841088 -42.88087 2.780218
v 2.841088 -42.88087 2.780218
v 3.060577 -42.28271 3.002139
v 2.212269 -41.9263 2.292
v 2.212269 -41.9263 2.292
v 3.060577 -42.28271 3.002139
v 2.287092 -41.66073 2.37106
v 5.724466 -43.86149 1.702457
v 5.667532 -44.09959 2.487723
v 4.813256 -43.51962 0.321298
v 4.813256 -43.51962 0.321298
v 5.667532 -44.09959 2.487723
v 3.474671 -43.9491 1.421923
v 3.474671 -43.9491 1.421923
v 5.667532 -44.09959 2.487723
v 3.679377 -44.21467 2.366239
v 2.287092 -41.66073 2.37106
v 3.060577 -42.28271 3.002139
v 3.060322 -41.15319 2.126567
v 3.060322 -41.15319 2.126567
v 3.060577 -42.28271 3.002139
v 4.910572 -42.10582 3.221323
v 4.813138 -43.5091 0.3070214
v 4.594154 -43.32082 0.1351689
v 4.910596 -43.25148 0.05892634
v 4.910596 -43.25148 0.05892634
v 4.594154 -43.32082 0.1351689
v 4.873783 -43.20407 0.01505291

vn -0.01542259 -0.5876001 0.8090045
vn -0.01542259 -0.5876001 0.8090045
vn -0.01542259 -0.5876001 0.8090045
vn -0.01542259 -0.5876001 0.8090045
vn -0.01542259 -0.5876001 0.8090045
vn -0.01542259 -0.5876001 0.8090045
vn -0.08590759 -0.2846077 0.9547871
vn -0.08590759 -0.2846077 0.9547871
vn -0.08590759 -0.2846077 0.9547871
vn -0.08590759 -0.2846077 0.9547871
vn -0.08590759 -0.2846077 0.9547871
vn -0.08590759 -0.2846077 0.9547871
vn -0.08590759 -0.2846077 0.9547871
vn -0.08590759 -0.2846077 0.9547871
vn -0.08590759 -0.2846077 0.9547871
vn -0.08590759 -0.2846077 0.9547871
vn -0.08590759 -0.2846077 0.9547871
vn -0.08590759 -0.2846077 0.9547871
vn -0.08590759 -0.2846077 0.9547871
vn -0.08590759 -0.2846077 0.9547871
vn -0.08590759 -0.2846077 0.9547871
vn 0.86392 0.2892796 -0.4122616
vn 0.86392 0.2892796 -0.4122616
vn 0.86392 0.2892796 -0.4122616
vn 0.86392 0.2892796 -0.4122616
vn 0.86392 0.2892796 -0.4122616
vn 0.86392 0.2892796 -0.4122616
vn 0.86392 0.2892796 -0.4122616
vn 0.86392 0.2892796 -0.4122616
vn 0.86392 0.2892796 -0.4122616
vn -0.2225258 -0.785679 -0.5772268
vn -0.2225258 -0.785679 -0.5772268
vn -0.2225258 -0.785679 -0.5772268
vn -0.2225258 -0.785679 -0.5772268
vn -0.2225258 -0.785679 -0.5772268
vn -0.2225258 -0.785679 -0.5772268
vn -0.2225258 -0.785679 -0.5772268
vn -0.2225258 -0.785679 -0.5772268
vn -0.2225258 -0.785679 -0.5772268
vn 0.9810336 0.1539338 0.1178028
vn 0.9810336 0.1539338 0.1178028
vn 0.9810336 0.1539338 0.1178028
vn 0.9810336 0.1539338 0.1178028
vn 0.9810336 0.1539338 0.1178028
vn 0.9810336 0.1539338 0.1178028
vn 0.9810336 0.1539338 0.1178028
vn 0.9810336 0.1539338 0.1178028
vn 0.9810336 0.1539338 0.1178028
vn 0.9810336 0.1539338 0.1178028
vn 0.9810336 0.1539338 0.1178028
vn 0.9810336 0.1539338 0.1178028
vn 0.5163868 -0.6873182 -0.5108214
vn 0.5163868 -0.6873182 -0.5108214
vn 0.5163868 -0.6873182 -0.5108214
vn 0.5163868 -0.6873182 -0.5108214
vn 0.5163868 -0.6873182 -0.5108214
vn 0.5163868 -0.6873182 -0.5108214
vn 0.5163868 -0.6873182 -0.5108214
vn 0.5163868 -0.6873182 -0.5108214
vn 0.5163868 -0.6873182 -0.5108214
vn -0.8418971 -0.5387471 0.03099729
vn -0.8418971 -0.5387471 0.03099729
vn -0.8418971 -0.5387471 0.03099729
vn -0.8418971 -0.5387471 0.03099729
vn -0.8418971 -0.5387471 0.03099729
vn -0.8418971 -0.5387471 0.03099729
vn -0.8418971 -0.5387471 0.03099729
vn -0.8418971 -0.5387471 0.03099729
vn -0.8418971 -0.5387471 0.03099729
vn -0.8418971 -0.5387471 0.03099729
vn -0.8418971 -0.5387471 0.03099729
vn -0.8418971 -0.5387471 0.03099729
vn -0.8418971 -0.5387471 0.03099729
vn -0.8418971 -0.5387471 0.03099729
vn -0.8418971 -0.5387471 0.03099729
vn -0.2871652 -0.2535099 0.9237255
vn -0.2871652 -0.2535099 0.9237255
vn -0.2871652 -0.2535099 0.9237255
vn 0.2985856 0.9101087 0.2873131
vn 0.2985856 0.9101087 0.2873131
vn 0.2985856 0.9101087 0.2873131
vn 0.2985856 0.9101087 0.2873131
vn 0.2985856 0.9101087 0.2873131
vn 0.2985856 0.9101087 0.2873131
vn 0.2985856 0.9101087 0.2873131
vn 0.2985856 0.9101087 0.2873131
vn 0.2985856 0.9101087 0.2873131
vn -0.49328 0.3729252 -0.7858765
vn -0.49328 0.3729252 -0.7858765
vn -0.49328 0.3729252 -0.7858765
vn -0.49328 0.3729252 -0.7858765
vn -0.49328 0.3729252 -0.7858765
vn -0.49328 0.3729252 -0.7858765
vn -0.49328 0.3729252 -0.7858765
vn -0.49328 0.3729252 -0.7858765
vn -0.49328 0.3729252 -0.7858765
vn -0.49328 0.3729252 -0.7858765
vn -0.49328 0.3729252 -0.7858765
vn -0.49328 0.3729252 -0.7858765
vn -0.49328 0.3729252 -0.7858765
vn -0.49328 0.3729252 -0.7858765
vn -0.49328 0.3729252 -0.7858765
vn -0.6516295 -0.04187346 0.7573807
vn -0.6516295 -0.04187346 0.7573807
vn -0.6516295 -0.04187346 0.7573807
vn -0.6516295 -0.04187346 0.7573807
vn -0.6516295 -0.04187346 0.7573807
vn -0.6516295 -0.04187346 0.7573807
vn -0.6516295 -0.04187346 0.7573807
vn -0.6516295 -0.04187346 0.7573807
vn -0.6516295 -0.04187346 0.7573807
vn 0.0727171 -0.9558921 -0.2845742
vn 0.0727171 -0.9558921 -0.2845742
vn 0.0727171 -0.9558921 -0.2845742
vn 0.0727171 -0.9558921 -0.2845742
vn 0.0727171 -0.9558921 -0.2845742
vn 0.0727171 -0.9558921 -0.2845742
vn 0.0727171 -0.9558921 -0.2845742
vn 0.0727171 -0.9558921 -0.2845742
vn 0.0727171 -0.9558921 -0.2845742
vn -0.1504951 0.6056587 0.7813635
vn -0.1504951 0.6056587 0.7813635
vn -0.1504951 0.6056587 0.7813635
vn -0.1504951 0.6056587 0.7813635
vn -0.1504951 0.6056587 0.7813635
vn -0.1504951 0.6056587 0.7813635
vn -0.0235579 -0.6887688 -0.7245982
vn -0.0235579 -0.6887688 -0.7245982
vn -0.0235579 -0.6887688 -0.7245982
vn -0.0235579 -0.6887688 -0.7245982
vn -0.0235579 -0.6887688 -0.7245982
vn -0.0235579 -0.6887688 -0.7245982

vt 0.265771 0.4209085
vt 0.5667047 0.4925749
vt 0.2470279 0.5062376
vt 0.2470279 0.5062376
vt 0.5667047 0.4925749
vt 0.5432816 0.5370835
vt 0.5657175 0.5242497
vt 0.5182099 0.5291299
vt 0.5868216 0.517898
vt 0.5868216 0.517898
vt 0.5182099 0.5291299
vt 0.6072551 0.3543552
vt 0.6072551 0.3543552
vt 0.5182099 0.5291299
vt 0.5968614 0.321153
vt 0.5968614 0.321153
vt 0.5182099 0.5291299
vt 0.4682577 0.2974598
vt 0.4682577 0.2974598
vt 0.5182099 0.5291299
vt 0.4328529 0.4765
vt 0.6249039 0.4007823
vt 0.5605765 0.5492374
vt 0.4489976 0.3437984
vt 0.4489976 0.3437984
vt 0.5605765 0.5492374
vt 0.3801579 0.4500687
vt 0.3801579 0.4500687
vt 0.5605765 0.5492374
vt 0.5551189 0.5538755
vt 0.5677291 0.4509534
vt 0.4264407 0.5565205
vt 0.5237886 0.3871848
vt 0.5237886 0.3871848
vt 0.4264407 0.5565205
vt 0.397965 0.5320264
vt 0.397965 0.5320264
vt 0.4264407 0.5565205
vt 0.3982863 0.5339077
vt 0.6082144 0.4507392
vt 0.5926424 0.4720296
vt 0.6282195 0.3808563
vt 0.6282195 0.3808563
vt 0.5926424 0.4720296
vt 0.5860206 0.3509651
vt 0.5860206 0.3509651
vt 0.5926424 0.4720296
vt 0.4596149 0.3158164
vt 0.4596149 0.3158164
vt 0.5926424 0.4720296
vt 0.4299238 0.4240657
vt 0.4190551 0.3403059
vt 0.472458 0.5043004
vt 0.4080561 0.368721
vt 0.4080561 0.368721
vt 0.472458 0.5043004
vt 0.4480756 0.5354537
vt 0.4480756 0.5354537
vt 0.472458 0.5043004
vt 0.4718247 0.5059955
vt 0.4936972 0.5045612
vt 0.4468835 0.4619898
vt 0.6562062 0.3855689
vt 0.6562062 0.3855689
vt 0.4468835 0.4619898
vt 0.5558639 0.3426855
vt 0.5558639 0.3426855
vt 0.4468835 0.4619898
vt 0.5407483 0.3436587
vt 0.5407483 0.3436587
vt 0.4468835 0.4619898
vt 0.4428135 0.3636546
vt 0.4428135 0.3636546
vt 0.4468835 0.4619898
vt 0.4175557 0.3790449
vt 0.5659968 0.5019441
vt 0.5296933 0.5160632
vt 0.5165988 0.5072155
vt 0.3681902 0.4331416
vt 0.55646 0.3284267
vt 0.5178747 0.5411907
vt 0.5178747 0.5411907
vt 0.55646 0.3284267
vt 0.5904072 0.4450395
vt 0.5904072 0.4450395
vt 0.55646 0.3284267
vt 0.5926424 0.3286828
vt 0.3592587 0.4694032
vt 0.4559594 0.1585369
vt 0.5019395 0.653482
vt 0.5019395 0.653482
vt 0.4559594 0.1585369
vt 0.5390905 0.6810496
vt 0.5390905 0.6810496
vt 0.4559594 0.1585369
vt 0.7367296 0.4557219
vt 0.7367296 0.4557219
vt 0.4559594 0.1585369
vt 0.6160469 0.1965028
vt 0.6160469 0.1965028
vt 0.4559594 0.1585369
vt 0.4924259 0.1403944
vt 0.5598966 0.4277306
vt 0.5898297 0.412424
vt 0.5115043 0.4580968
vt 0.5115043 0.4580968
vt 0.5898297 0.412424
vt 0.6449463 0.5585787
vt 0.6449463 0.5585787
vt 0.5898297 0.412424
vt 0.679918 0.5423083
vt 0.3497124 0.4060257
vt 0.3565578 0.3310531
vt 0.4305106 0.5379124
vt 0.4305106 0.5379124
vt 0.3565578 0.3310531
vt 0.5556684 0.4328156
vt 0.5556684 0.4328156
vt 0.3565578 0.3310531
vt 0.5388297 0.3426529
vt 0.3074484 0.552702
vt 0.3919066 0.4105101
vt 0.4301707 0.6077906
vt 0.4301707 0.6077906
vt 0.3919066 0.4105101
vt 0.6503574 0.3611306
vt 0.3943654 0.5026985
vt 0.4230459 0.5344571
vt 0.3830776 0.5485389
vt 0.3830776 0.5485389
vt 0.4230459 0.5344571
vt 0.3879671 0.5566416

usemtl Material0
usemap Material0

usemtl Material1
usemap Material1
f 1/1/1 2/2/2 3/3/3
f 4/4/4 5/5/5 6/6/6
f 7/7/7 8/8/8 9/9/9
f 10/10/10 11/11/11 12/12/12
f 13/13/13 14/14/14 15/15/15
f 16/16/16 17/17/17 18/18/18
f 19/19/19 20/20/20 21/21/21
f 22/22/22 23/23/23 24/24/24
f 25/25/25 26/26/26 27/27/27
f 28/28/28 29/29/29 30/30/30
f 31/31/31 32/32/32 33/33/33
f 34/34/34 35/35/35 36/36/36
f 37/37/37 38/38/38 39/39/39
f 40/40/40 41/41/41 42/42/42
f 43/43/43 44/44/44 45/45/45
f 46/46/46 47/47/47 48/48/48
f 49/49/49 50/50/50 51/51/51
f 52/52/52 53/53/53 54/54/54
f 55/55/55 56/56/56 57/57/57
f 58/58/58 59/59/59 60/60/60
f 61/61/61 62/62/62 63/63/63
f 64/64/64 65/65/65 66/66/66
f 67/67/67 68/68/68 69/69/69
f 70/70/70 71/71/71 72/72/72
f 73/73/73 74/74/74 75/75/75
f 76/76/76 77/77/77 78/78/78
f 79/79/79 80/80/80 81/81/81
f 82/82/82 83/83/83 84/84/84
f 85/85/85 86/86/86 87/87/87
f 88/88/88 89/89/89 90/90/90
f 91/91/91 92/92/92 93/93/93
f 94/94/94 95/95/95 96/96/96
f 97/97/97 98/98/98 99/99/99
f 100/100/100 101/101/101 102/102/102
f 103/103/103 104/104/104 105/105/105
f 106/106/106 107/107/107 108/108/108
f 109/109/109 110/110/110 111/111/111
f 112/112/112 113/113/113 114/114/114
f 115/115/115 116/116/116 117/117/117
f 118/118/118 119/119/119 120/120/120
f 121/121/121 122/122/122 123/123/123
f 124/124/124 125/125/125 126/126/126
f 127/127/127 128/128/128 129/129/129
f 130/130/130 131/131/131 132/132/132
