g  Instance
v -5.122263 -52.32624 -2.869896
v -3.942872 -51.75282 -2.267344
v -5.151487 -52.55872 -2.468229
v -5.151487 -52.55872 -2.468229
v -3.942872 -51.75282 -2.267344
v -3.872962 -52.20167 -1.310033
v -5.951898 -51.94163 -0.3478332
v -6.151392 -51.63907 -0.1565705
v -6.526564 -52.01936 -0.5883014
v -6.433515 -51.33636 -1.810648
v -5.903818 -50.27391 -1.034076
v -5.346975 -51.95847 -2.891243
v -5.346975 -51.95847 -2.891243
v -5.903818 -50.27391 -1.034076
v -4.208436 -50.66179 -2.163971
v -3.942872 -51.75282 -2.267344
v -3.697207 -50.7993 -1.978424
v -3.872962 -52.20167 -1.310033
v -3.872962 -52.20167 -1.310033
v -3.697207 -50.7993 -1.978424
v -3.73584 -52.02486 -0.7169126
v -3.73584 -52.02486 -0.7169126
v -3.697207 -50.7993 -1.978424
v -3.689214 -51.86403 -0.6376024
v -3.689214 -51.86403 -0.6376024
v -3.697207 -50.7993 -1.978424
v -3.622883 -50.83718 -1.494465
v -6.066569 -51.13594 0.1004656
v -5.557609 -50.50529 0.3637089
v -6.686529 -51.61321 -0.5551947
v -6.686529 -51.61321 -0.5551947
v -5.557609 -50.50529 0.3637089
v -6.582789 -51.29455 -0.7204777
v -6.582789 -51.29455 -0.7204777
v -5.557609 -50.50529 0.3637089
v -5.959554 -50.27336 -0.6848216
v -5.959554 -50.27336 -0.6848216
v -5.557609 -50.50529 0.3637089
v -5.690168 -50.3667 -0.05360901
v -3.942872 -51.75282 -2.267344
v -5.122263 -52.32624 -2.869896
v -3.697207 -50.7993 -1.978424
v -3.697207 -50.7993 -1.978424
v -5.122263 -52.32624 -2.869896
v -4.208436 -50.66179 -2.163971
v -4.208436 -50.66179 -2.163971
v -5.122263 -52.32624 -2.869896
v -5.346975 -51.95847 -2.891243
v -5.346975 -51.95847 -2.891243
v -5.122263 -52.32624 -2.869896
v -5.352832 -52.06147 -2.913857
v -6.151392 -51.63907 -0.1565705
v -6.066569 -51.13594 0.1004656
v -6.526564 -52.01936 -0.5883014
v -6.526564 -52.01936 -0.5883014
v -6.066569 -51.13594 0.1004656
v -6.720349 -52.07117 -0.756034
v -6.720349 -52.07117 -0.756034
v -6.066569 -51.13594 0.1004656
v -6.834664 -51.93191 -0.7900764
v -6.834664 -51.93191 -0.7900764
v -6.066569 -51.13594 0.1004656
v -6.686529 -51.61321 -0.5551947
v -6.834664 -51.93191 -0.7900764
v -6.802246 -51.7535 -1.11399
v -6.720349 -52.07117 -0.756034
v -6.720349 -52.07117 -0.756034
v -6.802246 -51.7535 -1.11399
v -5.151487 -52.55872 -2.468229
v -5.151487 -52.55872 -2.468229
v -6.802246 -51.7535 -1.11399
v -5.122263 -52.32624 -2.869896
v -5.122263 -52.32624 -2.869896
v -6.802246 -51.7535 -1.11399
v -5.352832 -52.06147 -2.913857
v -5.352832 -52.06147 -2.913857
v -6.802246 -51.7535 -1.11399
v -6.584571 -51.56442 -1.744531
v -6.686529 -51.61321 -0.5551947
v -6.582789 -51.29455 -0.7204777
v -6.834664 -51.93191 -0.7900764
v -6.834664 -51.93191 -0.7900764
v -6.582789 -51.29455 -0.7204777
v -6.802246 -51.7535 -1.11399
v -5.352832 -52.06147 -2.913857
v -6.584571 -51.56442 -1.744531
v -5.346975 -51.95847 -2.891243
v -5.346975 -51.95847 -2.891243
v -6.584571 -51.56442 -1.744531
v -6.433515 -51.33636 -1.810648
v -3.622883 -50.83718 -1.494465
v -5.481627 -50.43621 0.3647693
v -3.689214 -51.86403 -0.6376024
v -3.689214 -51.86403 -0.6376024
v -5.481627 -50.43621 0.3647693
v -5.486505 -50.45154 0.3820876
v -6.433515 -51.33636 -1.810648
v -6.584571 -51.56442 -1.744531
v -5.903818 -50.27391 -1.034076
v -5.903818 -50.27391 -1.034076
v -6.584571 -51.56442 -1.744531
v -5.959554 -50.27336 -0.6848216
v -5.959554 -50.27336 -0.6848216
v -6.584571 -51.56442 -1.744531
v -6.582789 -51.29455 -0.7204777
v -6.582789 -51.29455 -0.7204777
v -6.584571 -51.56442 -1.744531
v -6.802246 -51.7535 -1.11399
v -5.951898 -51.94163 -0.3478332
v -6.526564 -52.01936 -0.5883014
v -3.73584 -52.02486 -0.7169126
v -3.73584 -52.02486 -0.7169126
v -6.526564 -52.01936 -0.5883014
v -3.872962 -52.20167 -1.310033
v -3.872962 -52.20167 -1.310033
v -6.526564 -52.01936 -0.5883014
v -5.151487 -52.55872 -2.468229
v -5.151487 -52.55872 -2.468229
v -6.526564 -52.01936 -0.5883014
v -6.720349 -52.07117 -0.756034
v -5.959554 -50.27336 -0.6848216
v -5.690168 -50.3667 -0.05360901
v -5.903818 -50.27391 -1.034076
v -5.903818 -50.27391 -1.034076
v -5.690168 -50.3667 -0.05360901
v -4.208436 -50.66179 -2.163971
v -4.208436 -50.66179 -2.163971
v -5.690168 -50.3667 -0.05360901
v -3.697207 -50.7993 -1.978424
v -3.697207 -50.7993 -1.978424
v -5.690168 -50.3667 -0.05360901
v -3.622883 -50.83718 -1.494465
v -3.622883 -50.83718 -1.494465
v -5.690168 -50.3667 -0.05360901
v -5.481627 -50.43621 0.3647693
v -3.689214 -51.86403 -0.6376024
v -5.486505 -50.45154 0.3820876
v -3.73584 -52.02486 -0.7169126
v -3.73584 -52.02486 -0.7169126
v -5.486505 -50.45154 0.3820876
v -5.951898 -51.94163 -0.3478332
v -5.951898 -51.94163 -0.3478332
v -5.486505 -50.45154 0.3820876
v -6.151392 -51.63907 -0.1565705
v -6.151392 -51.63907 -0.1565705
v -5.486505 -50.45154 0.3820876
v -6.066569 -51.13594 0.1004656
v -6.066569 -51.13594 0.1004656
v -5.486505 -50.45154 0.3820876
v -5.557609 -50.50529 0.3637089
v -5.481627 -50.43621 0.3647693
v -5.690168 -50.3667 -0.05360901
v -5.486505 -50.45154 0.3820876
v -5.486505 -50.45154 0.3820876
v -5.690168 -50.3667 -0.05360901
v -5.557609 -50.50529 0.3637089

vn 0.5553362 -0.7366492 -0.3859401
vn 0.5553362 -0.7366492 -0.3859401
vn 0.5553362 -0.7366492 -0.3859401
vn 0.5553362 -0.7366492 -0.3859401
vn 0.5553362 -0.7366492 -0.3859401
vn 0.5553362 -0.7366492 -0.3859401
vn -0.228569 -0.623403 0.7477466
vn -0.228569 -0.623403 0.7477466
vn -0.228569 -0.623403 0.7477466
vn -0.3083822 0.6567474 -0.6881739
vn -0.3083822 0.6567474 -0.6881739
vn -0.3083822 0.6567474 -0.6881739
vn -0.3083822 0.6567474 -0.6881739
vn -0.3083822 0.6567474 -0.6881739
vn -0.3083822 0.6567474 -0.6881739
vn 0.9661374 -0.1992332 -0.1639659
vn 0.9661374 -0.1992332 -0.1639659
vn 0.9661374 -0.1992332 -0.1639659
vn 0.9661374 -0.1992332 -0.1639659
vn 0.9661374 -0.1992332 -0.1639659
vn 0.9661374 -0.1992332 -0.1639659
vn 0.9661374 -0.1992332 -0.1639659
vn 0.9661374 -0.1992332 -0.1639659
vn 0.9661374 -0.1992332 -0.1639659
vn 0.9661374 -0.1992332 -0.1639659
vn 0.9661374 -0.1992332 -0.1639659
vn 0.9661374 -0.1992332 -0.1639659
vn -0.7867803 0.4660413 0.4047003
vn -0.7867803 0.4660413 0.4047003
vn -0.7867803 0.4660413 0.4047003
vn -0.7867803 0.4660413 0.4047003
vn -0.7867803 0.4660413 0.4047003
vn -0.7867803 0.4660413 0.4047003
vn -0.7867803 0.4660413 0.4047003
vn -0.7867803 0.4660413 0.4047003
vn -0.7867803 0.4660413 0.4047003
vn -0.7867803 0.4660413 0.4047003
vn -0.7867803 0.4660413 0.4047003
vn -0.7867803 0.4660413 0.4047003
vn 0.3776788 0.1780231 -0.908662
vn 0.3776788 0.1780231 -0.908662
vn 0.3776788 0.1780231 -0.908662
vn 0.3776788 0.1780231 -0.908662
vn 0.3776788 0.1780231 -0.908662
vn 0.3776788 0.1780231 -0.908662
vn 0.3776788 0.1780231 -0.908662
vn 0.3776788 0.1780231 -0.908662
vn 0.3776788 0.1780231 -0.908662
vn 0.3776788 0.1780231 -0.908662
vn 0.3776788 0.1780231 -0.908662
vn 0.3776788 0.1780231 -0.908662
vn -0.580584 -0.2906628 0.7605507
vn -0.580584 -0.2906628 0.7605507
vn -0.580584 -0.2906628 0.7605507
vn -0.580584 -0.2906628 0.7605507
vn -0.580584 -0.2906628 0.7605507
vn -0.580584 -0.2906628 0.7605507
vn -0.580584 -0.2906628 0.7605507
vn -0.580584 -0.2906628 0.7605507
vn -0.580584 -0.2906628 0.7605507
vn -0.580584 -0.2906628 0.7605507
vn -0.580584 -0.2906628 0.7605507
vn -0.580584 -0.2906628 0.7605507
vn -0.6507487 -0.6356781 -0.4152583
vn -0.6507487 -0.6356781 -0.4152583
vn -0.6507487 -0.6356781 -0.4152583
vn -0.6507487 -0.6356781 -0.4152583
vn -0.6507487 -0.6356781 -0.4152583
vn -0.6507487 -0.6356781 -0.4152583
vn -0.6507487 -0.6356781 -0.4152583
vn -0.6507487 -0.6356781 -0.4152583
vn -0.6507487 -0.6356781 -0.4152583
vn -0.6507487 -0.6356781 -0.4152583
vn -0.6507487 -0.6356781 -0.4152583
vn -0.6507487 -0.6356781 -0.4152583
vn -0.6507487 -0.6356781 -0.4152583
vn -0.6507487 -0.6356781 -0.4152583
vn -0.6507487 -0.6356781 -0.4152583
vn -0.9288564 0.3558243 0.1030289
vn -0.9288564 0.3558243 0.1030289
vn -0.9288564 0.3558243 0.1030289
vn -0.9288564 0.3558243 0.1030289
vn -0.9288564 0.3558243 0.1030289
vn -0.9288564 0.3558243 0.1030289
vn -0.6307613 0.2004676 -0.7496352
vn -0.6307613 0.2004676 -0.7496352
vn -0.6307613 0.2004676 -0.7496352
vn -0.6307613 0.2004676 -0.7496352
vn -0.6307613 0.2004676 -0.7496352
vn -0.6307613 0.2004676 -0.7496352
vn 0.6798726 0.4434519 0.5840579
vn 0.6798726 0.4434519 0.5840579
vn 0.6798726 0.4434519 0.5840579
vn 0.6798726 0.4434519 0.5840579
vn 0.6798726 0.4434519 0.5840579
vn 0.6798726 0.4434519 0.5840579
vn -0.8436184 0.519583 -0.1354309
vn -0.8436184 0.519583 -0.1354309
vn -0.8436184 0.519583 -0.1354309
vn -0.8436184 0.519583 -0.1354309
vn -0.8436184 0.519583 -0.1354309
vn -0.8436184 0.519583 -0.1354309
vn -0.8436184 0.519583 -0.1354309
vn -0.8436184 0.519583 -0.1354309
vn -0.8436184 0.519583 -0.1354309
vn -0.8436184 0.519583 -0.1354309
vn -0.8436184 0.519583 -0.1354309
vn -0.8436184 0.519583 -0.1354309
vn 0.01117538 -0.9589671 0.283297
vn 0.01117538 -0.9589671 0.283297
vn 0.01117538 -0.9589671 0.283297
vn 0.01117538 -0.9589671 0.283297
vn 0.01117538 -0.9589671 0.283297
vn 0.01117538 -0.9589671 0.283297
vn 0.01117538 -0.9589671 0.283297
vn 0.01117538 -0.9589671 0.283297
vn 0.01117538 -0.9589671 0.283297
vn 0.01117538 -0.9589671 0.283297
vn 0.01117538 -0.9589671 0.283297
vn 0.01117538 -0.9589671 0.283297
vn 0.2467689 0.9683343 0.0378689
vn 0.2467689 0.9683343 0.0378689
vn 0.2467689 0.9683343 0.0378689
vn 0.2467689 0.9683343 0.0378689
vn 0.2467689 0.9683343 0.0378689
vn 0.2467689 0.9683343 0.0378689
vn 0.2467689 0.9683343 0.0378689
vn 0.2467689 0.9683343 0.0378689
vn 0.2467689 0.9683343 0.0378689
vn 0.2467689 0.9683343 0.0378689
vn 0.2467689 0.9683343 0.0378689
vn 0.2467689 0.9683343 0.0378689
vn 0.2467689 0.9683343 0.0378689
vn 0.2467689 0.9683343 0.0378689
vn 0.2467689 0.9683343 0.0378689
vn 0.1280252 -0.4682434 0.8742756
vn 0.1280252 -0.4682434 0.8742756
vn 0.1280252 -0.4682434 0.8742756
vn 0.1280252 -0.4682434 0.8742756
vn 0.1280252 -0.4682434 0.8742756
vn 0.1280252 -0.4682434 0.8742756
vn 0.1280252 -0.4682434 0.8742756
vn 0.1280252 -0.4682434 0.8742756
vn 0.1280252 -0.4682434 0.8742756
vn 0.1280252 -0.4682434 0.8742756
vn 0.1280252 -0.4682434 0.8742756
vn 0.1280252 -0.4682434 0.8742756
vn 0.1280252 -0.4682434 0.8742756
vn 0.1280252 -0.4682434 0.8742756
vn 0.1280252 -0.4682434 0.8742756
vn -0.6142163 0.6696941 0.4174304
vn -0.6142163 0.6696941 0.4174304
vn -0.6142163 0.6696941 0.4174304
vn -0.6142163 0.6696941 0.4174304
vn -0.6142163 0.6696941 0.4174304
vn -0.6142163 0.6696941 0.4174304

vt 0.5691727 0.5743556
vt 0.4467531 0.5122261
vt 0.5846981 0.532939
vt 0.5846981 0.532939
vt 0.4467531 0.5122261
vt 0.4671447 0.4135137
vt 0.6315164 0.4393443
vt 0.6700366 0.4012759
vt 0.6992898 0.4872104
vt 0.3304617 0.4165685
vt 0.4430697 0.2871126
vt 0.4174393 0.5967077
vt 0.4174393 0.5967077
vt 0.4430697 0.2871126
vt 0.6087452 0.4754755
vt 0.4991455 0.522862
vt 0.4116557 0.4968032
vt 0.536995 0.4365317
vt 0.536995 0.4365317
vt 0.4116557 0.4968032
vt 0.5191227 0.383045
vt 0.5191227 0.383045
vt 0.4116557 0.4968032
vt 0.5042772 0.3758923
vt 0.5042772 0.3758923
vt 0.4116557 0.4968032
vt 0.4136208 0.45317
vt 0.4740646 0.3798412
vt 0.5510303 0.3522177
vt 0.40434 0.4486437
vt 0.40434 0.4486437
vt 0.5510303 0.3522177
vt 0.4357261 0.4659852
vt 0.4357261 0.4659852
vt 0.5510303 0.3522177
vt 0.550518 0.4622506
vt 0.550518 0.4622506
vt 0.5510303 0.3522177
vt 0.555985 0.3960092
vt 0.5337446 0.4072691
vt 0.5980535 0.5279843
vt 0.439796 0.382123
vt 0.439796 0.382123
vt 0.5980535 0.5279843
vt 0.4303848 0.4344548
vt 0.4303848 0.4344548
vt 0.5980535 0.5279843
vt 0.5642366 0.5509884
vt 0.5642366 0.5509884
vt 0.5980535 0.5279843
vt 0.5742299 0.5515844
vt 0.5783929 0.479443
vt 0.6340683 0.4259331
vt 0.5551375 0.5693077
vt 0.5551375 0.5693077
vt 0.6340683 0.4259331
vt 0.5605951 0.6042236
vt 0.5605951 0.6042236
vt 0.6340683 0.4259331
vt 0.5843442 0.6113111
vt 0.5843442 0.6113111
vt 0.6340683 0.4259331
vt 0.6138955 0.5624158
vt 0.6161959 0.3366178
vt 0.6263196 0.3709655
vt 0.5988824 0.3330089
vt 0.5988824 0.3330089
vt 0.6263196 0.3709655
vt 0.4594845 0.5145731
vt 0.4594845 0.5145731
vt 0.6263196 0.3709655
vt 0.473557 0.5571631
vt 0.473557 0.5571631
vt 0.6263196 0.3709655
vt 0.5073692 0.5618291
vt 0.5073692 0.5618291
vt 0.6263196 0.3709655
vt 0.6246897 0.4378262
vt 0.4377005 0.4010664
vt 0.4672286 0.4157256
vt 0.4067708 0.4219004
vt 0.4067708 0.4219004
vt 0.4672286 0.4157256
vt 0.4224918 0.4506275
vt 0.4172064 0.5501315
vt 0.4305478 0.3158816
vt 0.4304547 0.5456052
vt 0.4304547 0.5456052
vt 0.4305478 0.3158816
vt 0.4654264 0.3291299
vt 0.4989452 0.5536799
vt 0.3528557 0.306056
vt 0.5880136 0.4395539
vt 0.5880136 0.4395539
vt 0.3528557 0.306056
vt 0.3539547 0.303751
vt 0.441845 0.4763231
vt 0.4176302 0.4704091
vt 0.5465692 0.4069012
vt 0.5465692 0.4069012
vt 0.4176302 0.4704091
vt 0.5440266 0.3756781
vt 0.5440266 0.3756781
vt 0.4176302 0.4704091
vt 0.4380684 0.3788633
vt 0.4380684 0.3788633
vt 0.4176302 0.4704091
vt 0.3932618 0.4140399
vt 0.6090432 0.375287
vt 0.6617011 0.3982304
vt 0.406361 0.4105008
vt 0.406361 0.4105008
vt 0.6617011 0.3982304
vt 0.419097 0.4670935
vt 0.419097 0.4670935
vt 0.6617011 0.3982304
vt 0.5364642 0.5775967
vt 0.5364642 0.5775967
vt 0.6617011 0.3982304
vt 0.6794803 0.4142308
vt 0.3696663 0.3994552
vt 0.3946168 0.3439847
vt 0.3744208 0.4301474
vt 0.3744208 0.4301474
vt 0.3946168 0.3439847
vt 0.5271042 0.5294465
vt 0.5271042 0.5294465
vt 0.3946168 0.3439847
vt 0.5735872 0.5131388
vt 0.5735872 0.5131388
vt 0.3946168 0.3439847
vt 0.5807306 0.4706047
vt 0.5807306 0.4706047
vt 0.3946168 0.3439847
vt 0.4138676 0.3072202
vt 0.3254558 0.4781205
vt 0.5715104 0.09839576
vt 0.3412512 0.5076532
vt 0.3412512 0.5076532
vt 0.5715104 0.09839576
vt 0.7237095 0.3702158
vt 0.7237095 0.3702158
vt 0.5715104 0.09839576
vt 0.7440685 0.2989872
vt 0.7440685 0.2989872
vt 0.5715104 0.09839576
vt 0.7052876 0.203269
vt 0.7052876 0.203269
vt 0.5715104 0.09839576
vt 0.5864676 0.1052364
vt 0.5244778 0.3580013
vt 0.514168 0.4024634
vt 0.5231181 0.3561573
vt 0.5231181 0.3561573
vt 0.514168 0.4024634
vt 0.5145498 0.3581131

usemtl Material0
usemap Material0

usemtl Material1
usemap Material1
f 1/1/1 2/2/2 3/3/3
f 4/4/4 5/5/5 6/6/6
f 7/7/7 8/8/8 9/9/9
f 10/10/10 11/11/11 12/12/12
f 13/13/13 14/14/14 15/15/15
f 16/16/16 17/17/17 18/18/18
f 19/19/19 20/20/20 21/21/21
f 22/22/22 23/23/23 24/24/24
f 25/25/25 26/26/26 27/27/27
f 28/28/28 29/29/29 30/30/30
f 31/31/31 32/32/32 33/33/33
f 34/34/34 35/35/35 36/36/36
f 37/37/37 38/38/38 39/39/39
f 40/40/40 41/41/41 42/42/42
f 43/43/43 44/44/44 45/45/45
f 46/46/46 47/47/47 48/48/48
f 49/49/49 50/50/50 51/51/51
f 52/52/52 53/53/53 54/54/54
f 55/55/55 56/56/56 57/57/57
f 58/58/58 59/59/59 60/60/60
f 61/61/61 62/62/62 63/63/63
f 64/64/64 65/65/65 66/66/66
f 67/67/67 68/68/68 69/69/69
f 70/70/70 71/71/71 72/72/72
f 73/73/73 74/74/74 75/75/75
f 76/76/76 77/77/77 78/78/78
f 79/79/79 80/80/80 81/81/81
f 82/82/82 83/83/83 84/84/84
f 85/85/85 86/86/86 87/87/87
f 88/88/88 89/89/89 90/90/90
f 91/91/91 92/92/92 93/93/93
f 94/94/94 95/95/95 96/96/96
f 97/97/97 98/98/98 99/99/99
f 100/100/100 101/101/101 102/102/102
f 103/103/103 104/104/104 105/105/105
f 106/106/106 107/107/107 108/108/108
f 109/109/109 110/110/110 111/111/111
f 112/112/112 113/113/113 114/114/114
f 115/115/115 116/116/116 117/117/117
f 118/118/118 119/119/119 120/120/120
f 121/121/121 122/122/122 123/123/123
f 124/124/124 125/125/125 126/126/126
f 127/127/127 128/128/128 129/129/129
f 130/130/130 131/131/131 132/132/132
f 133/133/133 134/134/134 135/135/135
f 136/136/136 137/137/137 138/138/138
f 139/139/139 140/140/140 141/141/141
f 142/142/142 143/143/143 144/144/144
f 145/145/145 146/146/146 147/147/147
f 148/148/148 149/149/149 150/150/150
f 151/151/151 152/152/152 153/153/153
f 154/154/154 155/155/155 156/156/156
